{
    "header": {
      "keySignatures": [],
      "meta": [],
      "name": "",
      "ppq": 384,
      "tempos": [
        {
          "bpm": 120,
          "ticks": 0
        }
      ],
      "timeSignatures": [
        {
          "ticks": 0,
          "timeSignature": [
            1,
            4
          ],
          "measures": 0
        }
      ]
    },
    "tracks": [
      {
        "channel": 0,
        "controlChanges": {},
        "pitchBends": [],
        "instrument": {
          "family": "piano",
          "number": 0,
          "name": "acoustic grand piano"
        },
        "name": "Elec. Piano (Classic)",
        "notes": [
          {
            "duration": 0.125,
            "durationTicks": 96,
            "midi": 56,
            "name": "G#3",
            "ticks": 42432,
            "time": 55.25,
            "velocity": 0.2677165354330709
          },
          {
            "duration": 0.125,
            "durationTicks": 96,
            "midi": 52,
            "name": "E3",
            "ticks": 42432,
            "time": 55.25,
            "velocity": 0.2677165354330709
          },
          {
            "duration": 0.125,
            "durationTicks": 96,
            "midi": 61,
            "name": "C#4",
            "ticks": 42432,
            "time": 55.25,
            "velocity": 0.2677165354330709
          },
          {
            "duration": 0.125,
            "durationTicks": 96,
            "midi": 59,
            "name": "B3",
            "ticks": 42624,
            "time": 55.5,
            "velocity": 0.2677165354330709
          },
          {
            "duration": 0.125,
            "durationTicks": 96,
            "midi": 64,
            "name": "E4",
            "ticks": 42624,
            "time": 55.5,
            "velocity": 0.2677165354330709
          },
          {
            "duration": 0.125,
            "durationTicks": 96,
            "midi": 56,
            "name": "G#3",
            "ticks": 42624,
            "time": 55.5,
            "velocity": 0.2677165354330709
          },
          {
            "duration": 0.125,
            "durationTicks": 96,
            "midi": 68,
            "name": "G#4",
            "ticks": 42816,
            "time": 55.75,
            "velocity": 0.2677165354330709
          },
          {
            "duration": 0.125,
            "durationTicks": 96,
            "midi": 59,
            "name": "B3",
            "ticks": 42816,
            "time": 55.75,
            "velocity": 0.2677165354330709
          },
          {
            "duration": 0.125,
            "durationTicks": 96,
            "midi": 64,
            "name": "E4",
            "ticks": 42816,
            "time": 55.75,
            "velocity": 0.2677165354330709
          },
          {
            "duration": 0.125,
            "durationTicks": 96,
            "midi": 61,
            "name": "C#4",
            "ticks": 42912,
            "time": 55.875,
            "velocity": 0.2677165354330709
          },
          {
            "duration": 0.125,
            "durationTicks": 96,
            "midi": 66,
            "name": "F#4",
            "ticks": 42912,
            "time": 55.875,
            "velocity": 0.2677165354330709
          },
          {
            "duration": 0.125,
            "durationTicks": 96,
            "midi": 58,
            "name": "A#3",
            "ticks": 42912,
            "time": 55.875,
            "velocity": 0.2677165354330709
          },
          {
            "duration": 0.125,
            "durationTicks": 96,
            "midi": 52,
            "name": "E3",
            "ticks": 48576,
            "time": 63.25,
            "velocity": 0.2677165354330709
          },
          {
            "duration": 0.125,
            "durationTicks": 96,
            "midi": 56,
            "name": "G#3",
            "ticks": 48576,
            "time": 63.25,
            "velocity": 0.2677165354330709
          },
          {
            "duration": 0.125,
            "durationTicks": 96,
            "midi": 61,
            "name": "C#4",
            "ticks": 48576,
            "time": 63.25,
            "velocity": 0.2677165354330709
          },
          {
            "duration": 0.125,
            "durationTicks": 96,
            "midi": 64,
            "name": "E4",
            "ticks": 48768,
            "time": 63.5,
            "velocity": 0.2677165354330709
          },
          {
            "duration": 0.125,
            "durationTicks": 96,
            "midi": 59,
            "name": "B3",
            "ticks": 48768,
            "time": 63.5,
            "velocity": 0.2677165354330709
          },
          {
            "duration": 0.125,
            "durationTicks": 96,
            "midi": 56,
            "name": "G#3",
            "ticks": 48768,
            "time": 63.5,
            "velocity": 0.2677165354330709
          },
          {
            "duration": 0.125,
            "durationTicks": 96,
            "midi": 59,
            "name": "B3",
            "ticks": 48960,
            "time": 63.75,
            "velocity": 0.2677165354330709
          },
          {
            "duration": 0.125,
            "durationTicks": 96,
            "midi": 68,
            "name": "G#4",
            "ticks": 48960,
            "time": 63.75,
            "velocity": 0.2677165354330709
          },
          {
            "duration": 0.125,
            "durationTicks": 96,
            "midi": 64,
            "name": "E4",
            "ticks": 48960,
            "time": 63.75,
            "velocity": 0.2677165354330709
          },
          {
            "duration": 0.125,
            "durationTicks": 96,
            "midi": 61,
            "name": "C#4",
            "ticks": 49056,
            "time": 63.875,
            "velocity": 0.2677165354330709
          },
          {
            "duration": 0.125,
            "durationTicks": 96,
            "midi": 58,
            "name": "A#3",
            "ticks": 49056,
            "time": 63.875,
            "velocity": 0.2677165354330709
          },
          {
            "duration": 0.125,
            "durationTicks": 96,
            "midi": 66,
            "name": "F#4",
            "ticks": 49056,
            "time": 63.875,
            "velocity": 0.2677165354330709
          },
          {
            "duration": 0.125,
            "durationTicks": 96,
            "midi": 68,
            "name": "G#4",
            "ticks": 55296,
            "time": 72,
            "velocity": 0.2677165354330709
          },
          {
            "duration": 0.125,
            "durationTicks": 96,
            "midi": 73,
            "name": "C#5",
            "ticks": 55296,
            "time": 72,
            "velocity": 0.2677165354330709
          },
          {
            "duration": 0.125,
            "durationTicks": 96,
            "midi": 64,
            "name": "E4",
            "ticks": 55296,
            "time": 72,
            "velocity": 0.2677165354330709
          },
          {
            "duration": 0.125,
            "durationTicks": 96,
            "midi": 71,
            "name": "B4",
            "ticks": 55584,
            "time": 72.375,
            "velocity": 0.2677165354330709
          },
          {
            "duration": 0.125,
            "durationTicks": 96,
            "midi": 64,
            "name": "E4",
            "ticks": 55584,
            "time": 72.375,
            "velocity": 0.2677165354330709
          },
          {
            "duration": 0.125,
            "durationTicks": 96,
            "midi": 68,
            "name": "G#4",
            "ticks": 55584,
            "time": 72.375,
            "velocity": 0.2677165354330709
          },
          {
            "duration": 0.125,
            "durationTicks": 96,
            "midi": 71,
            "name": "B4",
            "ticks": 56832,
            "time": 74,
            "velocity": 0.2677165354330709
          },
          {
            "duration": 0.125,
            "durationTicks": 96,
            "midi": 64,
            "name": "E4",
            "ticks": 56832,
            "time": 74,
            "velocity": 0.2677165354330709
          },
          {
            "duration": 0.125,
            "durationTicks": 96,
            "midi": 68,
            "name": "G#4",
            "ticks": 56832,
            "time": 74,
            "velocity": 0.2677165354330709
          },
          {
            "duration": 0.125,
            "durationTicks": 96,
            "midi": 70,
            "name": "A#4",
            "ticks": 57216,
            "time": 74.5,
            "velocity": 0.2677165354330709
          },
          {
            "duration": 0.125,
            "durationTicks": 96,
            "midi": 61,
            "name": "C#4",
            "ticks": 57216,
            "time": 74.5,
            "velocity": 0.2677165354330709
          },
          {
            "duration": 0.125,
            "durationTicks": 96,
            "midi": 66,
            "name": "F#4",
            "ticks": 57216,
            "time": 74.5,
            "velocity": 0.2677165354330709
          },
          {
            "duration": 0.125,
            "durationTicks": 96,
            "midi": 68,
            "name": "G#4",
            "ticks": 57600,
            "time": 75,
            "velocity": 0.2677165354330709
          },
          {
            "duration": 0.125,
            "durationTicks": 96,
            "midi": 64,
            "name": "E4",
            "ticks": 57600,
            "time": 75,
            "velocity": 0.2677165354330709
          },
          {
            "duration": 0.125,
            "durationTicks": 96,
            "midi": 61,
            "name": "C#4",
            "ticks": 57600,
            "time": 75,
            "velocity": 0.2677165354330709
          },
          {
            "duration": 0.125,
            "durationTicks": 96,
            "midi": 58,
            "name": "A#3",
            "ticks": 58368,
            "time": 76,
            "velocity": 0.2677165354330709
          },
          {
            "duration": 0.125,
            "durationTicks": 96,
            "midi": 61,
            "name": "C#4",
            "ticks": 58368,
            "time": 76,
            "velocity": 0.2677165354330709
          },
          {
            "duration": 0.125,
            "durationTicks": 96,
            "midi": 66,
            "name": "F#4",
            "ticks": 58368,
            "time": 76,
            "velocity": 0.2677165354330709
          },
          {
            "duration": 0.125,
            "durationTicks": 96,
            "midi": 73,
            "name": "C#5",
            "ticks": 61440,
            "time": 80,
            "velocity": 0.2677165354330709
          },
          {
            "duration": 0.125,
            "durationTicks": 96,
            "midi": 64,
            "name": "E4",
            "ticks": 61440,
            "time": 80,
            "velocity": 0.2677165354330709
          },
          {
            "duration": 0.125,
            "durationTicks": 96,
            "midi": 68,
            "name": "G#4",
            "ticks": 61440,
            "time": 80,
            "velocity": 0.2677165354330709
          },
          {
            "duration": 0.125,
            "durationTicks": 96,
            "midi": 64,
            "name": "E4",
            "ticks": 61728,
            "time": 80.375,
            "velocity": 0.2677165354330709
          },
          {
            "duration": 0.125,
            "durationTicks": 96,
            "midi": 71,
            "name": "B4",
            "ticks": 61728,
            "time": 80.375,
            "velocity": 0.2677165354330709
          },
          {
            "duration": 0.125,
            "durationTicks": 96,
            "midi": 68,
            "name": "G#4",
            "ticks": 61728,
            "time": 80.375,
            "velocity": 0.2677165354330709
          },
          {
            "duration": 0.125,
            "durationTicks": 96,
            "midi": 68,
            "name": "G#4",
            "ticks": 62976,
            "time": 82,
            "velocity": 0.2677165354330709
          },
          {
            "duration": 0.125,
            "durationTicks": 96,
            "midi": 64,
            "name": "E4",
            "ticks": 62976,
            "time": 82,
            "velocity": 0.2677165354330709
          },
          {
            "duration": 0.125,
            "durationTicks": 96,
            "midi": 71,
            "name": "B4",
            "ticks": 62976,
            "time": 82,
            "velocity": 0.2677165354330709
          },
          {
            "duration": 0.125,
            "durationTicks": 96,
            "midi": 70,
            "name": "A#4",
            "ticks": 63360,
            "time": 82.5,
            "velocity": 0.2677165354330709
          },
          {
            "duration": 0.125,
            "durationTicks": 96,
            "midi": 66,
            "name": "F#4",
            "ticks": 63360,
            "time": 82.5,
            "velocity": 0.2677165354330709
          },
          {
            "duration": 0.125,
            "durationTicks": 96,
            "midi": 61,
            "name": "C#4",
            "ticks": 63360,
            "time": 82.5,
            "velocity": 0.2677165354330709
          },
          {
            "duration": 0.125,
            "durationTicks": 96,
            "midi": 61,
            "name": "C#4",
            "ticks": 63744,
            "time": 83,
            "velocity": 0.2677165354330709
          },
          {
            "duration": 0.125,
            "durationTicks": 96,
            "midi": 68,
            "name": "G#4",
            "ticks": 63744,
            "time": 83,
            "velocity": 0.2677165354330709
          },
          {
            "duration": 0.125,
            "durationTicks": 96,
            "midi": 64,
            "name": "E4",
            "ticks": 63744,
            "time": 83,
            "velocity": 0.2677165354330709
          },
          {
            "duration": 0.125,
            "durationTicks": 96,
            "midi": 66,
            "name": "F#4",
            "ticks": 64512,
            "time": 84,
            "velocity": 0.2677165354330709
          },
          {
            "duration": 0.125,
            "durationTicks": 96,
            "midi": 61,
            "name": "C#4",
            "ticks": 64512,
            "time": 84,
            "velocity": 0.2677165354330709
          },
          {
            "duration": 0.125,
            "durationTicks": 96,
            "midi": 58,
            "name": "A#3",
            "ticks": 64512,
            "time": 84,
            "velocity": 0.2677165354330709
          },
          {
            "duration": 0.125,
            "durationTicks": 96,
            "midi": 52,
            "name": "E3",
            "ticks": 85440,
            "time": 111.25,
            "velocity": 0.2677165354330709
          },
          {
            "duration": 0.125,
            "durationTicks": 96,
            "midi": 56,
            "name": "G#3",
            "ticks": 85440,
            "time": 111.25,
            "velocity": 0.2677165354330709
          },
          {
            "duration": 0.125,
            "durationTicks": 96,
            "midi": 61,
            "name": "C#4",
            "ticks": 85440,
            "time": 111.25,
            "velocity": 0.2677165354330709
          },
          {
            "duration": 0.125,
            "durationTicks": 96,
            "midi": 59,
            "name": "B3",
            "ticks": 85632,
            "time": 111.5,
            "velocity": 0.2677165354330709
          },
          {
            "duration": 0.125,
            "durationTicks": 96,
            "midi": 56,
            "name": "G#3",
            "ticks": 85632,
            "time": 111.5,
            "velocity": 0.2677165354330709
          },
          {
            "duration": 0.125,
            "durationTicks": 96,
            "midi": 64,
            "name": "E4",
            "ticks": 85632,
            "time": 111.5,
            "velocity": 0.2677165354330709
          },
          {
            "duration": 0.125,
            "durationTicks": 96,
            "midi": 59,
            "name": "B3",
            "ticks": 85824,
            "time": 111.75,
            "velocity": 0.2677165354330709
          },
          {
            "duration": 0.125,
            "durationTicks": 96,
            "midi": 64,
            "name": "E4",
            "ticks": 85824,
            "time": 111.75,
            "velocity": 0.2677165354330709
          },
          {
            "duration": 0.125,
            "durationTicks": 96,
            "midi": 68,
            "name": "G#4",
            "ticks": 85824,
            "time": 111.75,
            "velocity": 0.2677165354330709
          },
          {
            "duration": 0.125,
            "durationTicks": 96,
            "midi": 61,
            "name": "C#4",
            "ticks": 85920,
            "time": 111.875,
            "velocity": 0.2677165354330709
          },
          {
            "duration": 0.125,
            "durationTicks": 96,
            "midi": 66,
            "name": "F#4",
            "ticks": 85920,
            "time": 111.875,
            "velocity": 0.2677165354330709
          },
          {
            "duration": 0.125,
            "durationTicks": 96,
            "midi": 58,
            "name": "A#3",
            "ticks": 85920,
            "time": 111.875,
            "velocity": 0.2677165354330709
          },
          {
            "duration": 0.125,
            "durationTicks": 96,
            "midi": 61,
            "name": "C#4",
            "ticks": 91584,
            "time": 119.25,
            "velocity": 0.2677165354330709
          },
          {
            "duration": 0.125,
            "durationTicks": 96,
            "midi": 56,
            "name": "G#3",
            "ticks": 91584,
            "time": 119.25,
            "velocity": 0.2677165354330709
          },
          {
            "duration": 0.125,
            "durationTicks": 96,
            "midi": 52,
            "name": "E3",
            "ticks": 91584,
            "time": 119.25,
            "velocity": 0.2677165354330709
          },
          {
            "duration": 0.125,
            "durationTicks": 96,
            "midi": 56,
            "name": "G#3",
            "ticks": 91776,
            "time": 119.5,
            "velocity": 0.2677165354330709
          },
          {
            "duration": 0.125,
            "durationTicks": 96,
            "midi": 64,
            "name": "E4",
            "ticks": 91776,
            "time": 119.5,
            "velocity": 0.2677165354330709
          },
          {
            "duration": 0.125,
            "durationTicks": 96,
            "midi": 59,
            "name": "B3",
            "ticks": 91776,
            "time": 119.5,
            "velocity": 0.2677165354330709
          },
          {
            "duration": 0.125,
            "durationTicks": 96,
            "midi": 64,
            "name": "E4",
            "ticks": 91968,
            "time": 119.75,
            "velocity": 0.2677165354330709
          },
          {
            "duration": 0.125,
            "durationTicks": 96,
            "midi": 68,
            "name": "G#4",
            "ticks": 91968,
            "time": 119.75,
            "velocity": 0.2677165354330709
          },
          {
            "duration": 0.125,
            "durationTicks": 96,
            "midi": 59,
            "name": "B3",
            "ticks": 91968,
            "time": 119.75,
            "velocity": 0.2677165354330709
          },
          {
            "duration": 0.125,
            "durationTicks": 96,
            "midi": 61,
            "name": "C#4",
            "ticks": 92064,
            "time": 119.875,
            "velocity": 0.2677165354330709
          },
          {
            "duration": 0.125,
            "durationTicks": 96,
            "midi": 58,
            "name": "A#3",
            "ticks": 92064,
            "time": 119.875,
            "velocity": 0.2677165354330709
          },
          {
            "duration": 0.125,
            "durationTicks": 96,
            "midi": 66,
            "name": "F#4",
            "ticks": 92064,
            "time": 119.875,
            "velocity": 0.2677165354330709
          },
          {
            "duration": 0.125,
            "durationTicks": 96,
            "midi": 68,
            "name": "G#4",
            "ticks": 98304,
            "time": 128,
            "velocity": 0.2677165354330709
          },
          {
            "duration": 0.125,
            "durationTicks": 96,
            "midi": 73,
            "name": "C#5",
            "ticks": 98304,
            "time": 128,
            "velocity": 0.2677165354330709
          },
          {
            "duration": 0.125,
            "durationTicks": 96,
            "midi": 64,
            "name": "E4",
            "ticks": 98304,
            "time": 128,
            "velocity": 0.2677165354330709
          },
          {
            "duration": 0.125,
            "durationTicks": 96,
            "midi": 68,
            "name": "G#4",
            "ticks": 98592,
            "time": 128.375,
            "velocity": 0.2677165354330709
          },
          {
            "duration": 0.125,
            "durationTicks": 96,
            "midi": 64,
            "name": "E4",
            "ticks": 98592,
            "time": 128.375,
            "velocity": 0.2677165354330709
          },
          {
            "duration": 0.125,
            "durationTicks": 96,
            "midi": 71,
            "name": "B4",
            "ticks": 98592,
            "time": 128.375,
            "velocity": 0.2677165354330709
          },
          {
            "duration": 0.125,
            "durationTicks": 96,
            "midi": 71,
            "name": "B4",
            "ticks": 99840,
            "time": 130,
            "velocity": 0.2677165354330709
          },
          {
            "duration": 0.125,
            "durationTicks": 96,
            "midi": 68,
            "name": "G#4",
            "ticks": 99840,
            "time": 130,
            "velocity": 0.2677165354330709
          },
          {
            "duration": 0.125,
            "durationTicks": 96,
            "midi": 64,
            "name": "E4",
            "ticks": 99840,
            "time": 130,
            "velocity": 0.2677165354330709
          },
          {
            "duration": 0.125,
            "durationTicks": 96,
            "midi": 61,
            "name": "C#4",
            "ticks": 100224,
            "time": 130.5,
            "velocity": 0.2677165354330709
          },
          {
            "duration": 0.125,
            "durationTicks": 96,
            "midi": 66,
            "name": "F#4",
            "ticks": 100224,
            "time": 130.5,
            "velocity": 0.2677165354330709
          },
          {
            "duration": 0.125,
            "durationTicks": 96,
            "midi": 70,
            "name": "A#4",
            "ticks": 100224,
            "time": 130.5,
            "velocity": 0.2677165354330709
          },
          {
            "duration": 0.125,
            "durationTicks": 96,
            "midi": 68,
            "name": "G#4",
            "ticks": 100608,
            "time": 131,
            "velocity": 0.2677165354330709
          },
          {
            "duration": 0.125,
            "durationTicks": 96,
            "midi": 64,
            "name": "E4",
            "ticks": 100608,
            "time": 131,
            "velocity": 0.2677165354330709
          },
          {
            "duration": 0.125,
            "durationTicks": 96,
            "midi": 61,
            "name": "C#4",
            "ticks": 100608,
            "time": 131,
            "velocity": 0.2677165354330709
          },
          {
            "duration": 0.125,
            "durationTicks": 96,
            "midi": 66,
            "name": "F#4",
            "ticks": 101376,
            "time": 132,
            "velocity": 0.2677165354330709
          },
          {
            "duration": 0.125,
            "durationTicks": 96,
            "midi": 61,
            "name": "C#4",
            "ticks": 101376,
            "time": 132,
            "velocity": 0.2677165354330709
          },
          {
            "duration": 0.125,
            "durationTicks": 96,
            "midi": 58,
            "name": "A#3",
            "ticks": 101376,
            "time": 132,
            "velocity": 0.2677165354330709
          },
          {
            "duration": 0.125,
            "durationTicks": 96,
            "midi": 68,
            "name": "G#4",
            "ticks": 104448,
            "time": 136,
            "velocity": 0.2677165354330709
          },
          {
            "duration": 0.125,
            "durationTicks": 96,
            "midi": 73,
            "name": "C#5",
            "ticks": 104448,
            "time": 136,
            "velocity": 0.2677165354330709
          },
          {
            "duration": 0.125,
            "durationTicks": 96,
            "midi": 64,
            "name": "E4",
            "ticks": 104448,
            "time": 136,
            "velocity": 0.2677165354330709
          },
          {
            "duration": 0.125,
            "durationTicks": 96,
            "midi": 71,
            "name": "B4",
            "ticks": 104736,
            "time": 136.375,
            "velocity": 0.2677165354330709
          },
          {
            "duration": 0.125,
            "durationTicks": 96,
            "midi": 68,
            "name": "G#4",
            "ticks": 104736,
            "time": 136.375,
            "velocity": 0.2677165354330709
          },
          {
            "duration": 0.125,
            "durationTicks": 96,
            "midi": 64,
            "name": "E4",
            "ticks": 104736,
            "time": 136.375,
            "velocity": 0.2677165354330709
          },
          {
            "duration": 0.125,
            "durationTicks": 96,
            "midi": 71,
            "name": "B4",
            "ticks": 105984,
            "time": 138,
            "velocity": 0.2677165354330709
          },
          {
            "duration": 0.125,
            "durationTicks": 96,
            "midi": 64,
            "name": "E4",
            "ticks": 105984,
            "time": 138,
            "velocity": 0.2677165354330709
          },
          {
            "duration": 0.125,
            "durationTicks": 96,
            "midi": 68,
            "name": "G#4",
            "ticks": 105984,
            "time": 138,
            "velocity": 0.2677165354330709
          },
          {
            "duration": 0.125,
            "durationTicks": 96,
            "midi": 66,
            "name": "F#4",
            "ticks": 106368,
            "time": 138.5,
            "velocity": 0.2677165354330709
          },
          {
            "duration": 0.125,
            "durationTicks": 96,
            "midi": 70,
            "name": "A#4",
            "ticks": 106368,
            "time": 138.5,
            "velocity": 0.2677165354330709
          },
          {
            "duration": 0.125,
            "durationTicks": 96,
            "midi": 61,
            "name": "C#4",
            "ticks": 106368,
            "time": 138.5,
            "velocity": 0.2677165354330709
          },
          {
            "duration": 0.125,
            "durationTicks": 96,
            "midi": 61,
            "name": "C#4",
            "ticks": 106752,
            "time": 139,
            "velocity": 0.2677165354330709
          },
          {
            "duration": 0.125,
            "durationTicks": 96,
            "midi": 64,
            "name": "E4",
            "ticks": 106752,
            "time": 139,
            "velocity": 0.2677165354330709
          },
          {
            "duration": 0.125,
            "durationTicks": 96,
            "midi": 68,
            "name": "G#4",
            "ticks": 106752,
            "time": 139,
            "velocity": 0.2677165354330709
          },
          {
            "duration": 0.125,
            "durationTicks": 96,
            "midi": 61,
            "name": "C#4",
            "ticks": 107520,
            "time": 140,
            "velocity": 0.2677165354330709
          },
          {
            "duration": 0.125,
            "durationTicks": 96,
            "midi": 66,
            "name": "F#4",
            "ticks": 107520,
            "time": 140,
            "velocity": 0.2677165354330709
          },
          {
            "duration": 0.125,
            "durationTicks": 96,
            "midi": 58,
            "name": "A#3",
            "ticks": 107520,
            "time": 140,
            "velocity": 0.2677165354330709
          },
          {
            "duration": 0.125,
            "durationTicks": 96,
            "midi": 57,
            "name": "A3",
            "ticks": 109248,
            "time": 142.25,
            "velocity": 0.2677165354330709
          },
          {
            "duration": 0.125,
            "durationTicks": 96,
            "midi": 61,
            "name": "C#4",
            "ticks": 109248,
            "time": 142.25,
            "velocity": 0.2677165354330709
          },
          {
            "duration": 0.125,
            "durationTicks": 96,
            "midi": 64,
            "name": "E4",
            "ticks": 109248,
            "time": 142.25,
            "velocity": 0.2677165354330709
          },
          {
            "duration": 0.125,
            "durationTicks": 96,
            "midi": 57,
            "name": "A3",
            "ticks": 109440,
            "time": 142.5,
            "velocity": 0.2677165354330709
          },
          {
            "duration": 0.125,
            "durationTicks": 96,
            "midi": 54,
            "name": "F#3",
            "ticks": 109440,
            "time": 142.5,
            "velocity": 0.2677165354330709
          },
          {
            "duration": 0.125,
            "durationTicks": 96,
            "midi": 61,
            "name": "C#4",
            "ticks": 109440,
            "time": 142.5,
            "velocity": 0.2677165354330709
          },
          {
            "duration": 0.125,
            "durationTicks": 96,
            "midi": 61,
            "name": "C#4",
            "ticks": 109824,
            "time": 143,
            "velocity": 0.2677165354330709
          },
          {
            "duration": 0.125,
            "durationTicks": 96,
            "midi": 64,
            "name": "E4",
            "ticks": 109824,
            "time": 143,
            "velocity": 0.2677165354330709
          },
          {
            "duration": 0.125,
            "durationTicks": 96,
            "midi": 67,
            "name": "G4",
            "ticks": 109824,
            "time": 143,
            "velocity": 0.2677165354330709
          },
          {
            "duration": 0.125,
            "durationTicks": 96,
            "midi": 58,
            "name": "A#3",
            "ticks": 110016,
            "time": 143.25,
            "velocity": 0.2677165354330709
          },
          {
            "duration": 0.125,
            "durationTicks": 96,
            "midi": 61,
            "name": "C#4",
            "ticks": 110016,
            "time": 143.25,
            "velocity": 0.2677165354330709
          },
          {
            "duration": 0.125,
            "durationTicks": 96,
            "midi": 64,
            "name": "E4",
            "ticks": 110016,
            "time": 143.25,
            "velocity": 0.2677165354330709
          },
          {
            "duration": 0.125,
            "durationTicks": 96,
            "midi": 66,
            "name": "F#4",
            "ticks": 110400,
            "time": 143.75,
            "velocity": 0.2677165354330709
          },
          {
            "duration": 0.125,
            "durationTicks": 96,
            "midi": 64,
            "name": "E4",
            "ticks": 110400,
            "time": 143.75,
            "velocity": 0.2677165354330709
          },
          {
            "duration": 0.125,
            "durationTicks": 96,
            "midi": 71,
            "name": "B4",
            "ticks": 110400,
            "time": 143.75,
            "velocity": 0.2677165354330709
          },
          {
            "duration": 0.125,
            "durationTicks": 96,
            "midi": 68,
            "name": "G#4",
            "ticks": 110592,
            "time": 144,
            "velocity": 0.2677165354330709
          },
          {
            "duration": 0.125,
            "durationTicks": 96,
            "midi": 64,
            "name": "E4",
            "ticks": 110592,
            "time": 144,
            "velocity": 0.2677165354330709
          },
          {
            "duration": 0.125,
            "durationTicks": 96,
            "midi": 73,
            "name": "C#5",
            "ticks": 110592,
            "time": 144,
            "velocity": 0.2677165354330709
          },
          {
            "duration": 0.125,
            "durationTicks": 96,
            "midi": 57,
            "name": "A3",
            "ticks": 121728,
            "time": 158.5,
            "velocity": 0.2677165354330709
          },
          {
            "duration": 0.125,
            "durationTicks": 96,
            "midi": 54,
            "name": "F#3",
            "ticks": 121728,
            "time": 158.5,
            "velocity": 0.2677165354330709
          },
          {
            "duration": 0.125,
            "durationTicks": 96,
            "midi": 61,
            "name": "C#4",
            "ticks": 121728,
            "time": 158.5,
            "velocity": 0.2677165354330709
          },
          {
            "duration": 0.125,
            "durationTicks": 96,
            "midi": 61,
            "name": "C#4",
            "ticks": 122112,
            "time": 159,
            "velocity": 0.2677165354330709
          },
          {
            "duration": 0.125,
            "durationTicks": 96,
            "midi": 57,
            "name": "A3",
            "ticks": 122112,
            "time": 159,
            "velocity": 0.2677165354330709
          },
          {
            "duration": 0.125,
            "durationTicks": 96,
            "midi": 64,
            "name": "E4",
            "ticks": 122112,
            "time": 159,
            "velocity": 0.2677165354330709
          },
          {
            "duration": 0.125,
            "durationTicks": 96,
            "midi": 71,
            "name": "B4",
            "ticks": 122496,
            "time": 159.5,
            "velocity": 0.2677165354330709
          },
          {
            "duration": 0.125,
            "durationTicks": 96,
            "midi": 68,
            "name": "G#4",
            "ticks": 122496,
            "time": 159.5,
            "velocity": 0.2677165354330709
          },
          {
            "duration": 0.125,
            "durationTicks": 96,
            "midi": 64,
            "name": "E4",
            "ticks": 122496,
            "time": 159.5,
            "velocity": 0.2677165354330709
          },
          {
            "duration": 0.125,
            "durationTicks": 96,
            "midi": 68,
            "name": "G#4",
            "ticks": 122880,
            "time": 160,
            "velocity": 0.2677165354330709
          },
          {
            "duration": 0.125,
            "durationTicks": 96,
            "midi": 61,
            "name": "C#4",
            "ticks": 122880,
            "time": 160,
            "velocity": 0.2677165354330709
          },
          {
            "duration": 0.125,
            "durationTicks": 96,
            "midi": 64,
            "name": "E4",
            "ticks": 122880,
            "time": 160,
            "velocity": 0.2677165354330709
          },
          {
            "duration": 0.125,
            "durationTicks": 96,
            "midi": 56,
            "name": "G#3",
            "ticks": 139200,
            "time": 181.25,
            "velocity": 0.2677165354330709
          },
          {
            "duration": 0.125,
            "durationTicks": 96,
            "midi": 52,
            "name": "E3",
            "ticks": 139200,
            "time": 181.25,
            "velocity": 0.2677165354330709
          },
          {
            "duration": 0.125,
            "durationTicks": 96,
            "midi": 61,
            "name": "C#4",
            "ticks": 139200,
            "time": 181.25,
            "velocity": 0.2677165354330709
          },
          {
            "duration": 0.125,
            "durationTicks": 96,
            "midi": 64,
            "name": "E4",
            "ticks": 139392,
            "time": 181.5,
            "velocity": 0.2677165354330709
          },
          {
            "duration": 0.125,
            "durationTicks": 96,
            "midi": 59,
            "name": "B3",
            "ticks": 139392,
            "time": 181.5,
            "velocity": 0.2677165354330709
          },
          {
            "duration": 0.125,
            "durationTicks": 96,
            "midi": 56,
            "name": "G#3",
            "ticks": 139392,
            "time": 181.5,
            "velocity": 0.2677165354330709
          },
          {
            "duration": 0.125,
            "durationTicks": 96,
            "midi": 59,
            "name": "B3",
            "ticks": 139584,
            "time": 181.75,
            "velocity": 0.2677165354330709
          },
          {
            "duration": 0.125,
            "durationTicks": 96,
            "midi": 64,
            "name": "E4",
            "ticks": 139584,
            "time": 181.75,
            "velocity": 0.2677165354330709
          },
          {
            "duration": 0.125,
            "durationTicks": 96,
            "midi": 68,
            "name": "G#4",
            "ticks": 139584,
            "time": 181.75,
            "velocity": 0.2677165354330709
          },
          {
            "duration": 0.125,
            "durationTicks": 96,
            "midi": 58,
            "name": "A#3",
            "ticks": 139680,
            "time": 181.875,
            "velocity": 0.2677165354330709
          },
          {
            "duration": 0.125,
            "durationTicks": 96,
            "midi": 66,
            "name": "F#4",
            "ticks": 139680,
            "time": 181.875,
            "velocity": 0.2677165354330709
          },
          {
            "duration": 0.125,
            "durationTicks": 96,
            "midi": 61,
            "name": "C#4",
            "ticks": 139680,
            "time": 181.875,
            "velocity": 0.2677165354330709
          },
          {
            "duration": 0.125,
            "durationTicks": 96,
            "midi": 56,
            "name": "G#3",
            "ticks": 145344,
            "time": 189.25,
            "velocity": 0.2677165354330709
          },
          {
            "duration": 0.125,
            "durationTicks": 96,
            "midi": 61,
            "name": "C#4",
            "ticks": 145344,
            "time": 189.25,
            "velocity": 0.2677165354330709
          },
          {
            "duration": 0.125,
            "durationTicks": 96,
            "midi": 52,
            "name": "E3",
            "ticks": 145344,
            "time": 189.25,
            "velocity": 0.2677165354330709
          },
          {
            "duration": 0.125,
            "durationTicks": 96,
            "midi": 56,
            "name": "G#3",
            "ticks": 145536,
            "time": 189.5,
            "velocity": 0.2677165354330709
          },
          {
            "duration": 0.125,
            "durationTicks": 96,
            "midi": 64,
            "name": "E4",
            "ticks": 145536,
            "time": 189.5,
            "velocity": 0.2677165354330709
          },
          {
            "duration": 0.125,
            "durationTicks": 96,
            "midi": 59,
            "name": "B3",
            "ticks": 145536,
            "time": 189.5,
            "velocity": 0.2677165354330709
          },
          {
            "duration": 0.125,
            "durationTicks": 96,
            "midi": 68,
            "name": "G#4",
            "ticks": 145728,
            "time": 189.75,
            "velocity": 0.2677165354330709
          },
          {
            "duration": 0.125,
            "durationTicks": 96,
            "midi": 64,
            "name": "E4",
            "ticks": 145728,
            "time": 189.75,
            "velocity": 0.2677165354330709
          },
          {
            "duration": 0.125,
            "durationTicks": 96,
            "midi": 59,
            "name": "B3",
            "ticks": 145728,
            "time": 189.75,
            "velocity": 0.2677165354330709
          },
          {
            "duration": 0.125,
            "durationTicks": 96,
            "midi": 66,
            "name": "F#4",
            "ticks": 145824,
            "time": 189.875,
            "velocity": 0.2677165354330709
          },
          {
            "duration": 0.125,
            "durationTicks": 96,
            "midi": 61,
            "name": "C#4",
            "ticks": 145824,
            "time": 189.875,
            "velocity": 0.2677165354330709
          },
          {
            "duration": 0.125,
            "durationTicks": 96,
            "midi": 58,
            "name": "A#3",
            "ticks": 145824,
            "time": 189.875,
            "velocity": 0.2677165354330709
          },
          {
            "duration": 0.125,
            "durationTicks": 96,
            "midi": 64,
            "name": "E4",
            "ticks": 152064,
            "time": 198,
            "velocity": 0.2677165354330709
          },
          {
            "duration": 0.125,
            "durationTicks": 96,
            "midi": 68,
            "name": "G#4",
            "ticks": 152064,
            "time": 198,
            "velocity": 0.2677165354330709
          },
          {
            "duration": 0.125,
            "durationTicks": 96,
            "midi": 73,
            "name": "C#5",
            "ticks": 152064,
            "time": 198,
            "velocity": 0.2677165354330709
          },
          {
            "duration": 0.125,
            "durationTicks": 96,
            "midi": 71,
            "name": "B4",
            "ticks": 152352,
            "time": 198.375,
            "velocity": 0.2677165354330709
          },
          {
            "duration": 0.125,
            "durationTicks": 96,
            "midi": 68,
            "name": "G#4",
            "ticks": 152352,
            "time": 198.375,
            "velocity": 0.2677165354330709
          },
          {
            "duration": 0.125,
            "durationTicks": 96,
            "midi": 64,
            "name": "E4",
            "ticks": 152352,
            "time": 198.375,
            "velocity": 0.2677165354330709
          },
          {
            "duration": 0.125,
            "durationTicks": 96,
            "midi": 68,
            "name": "G#4",
            "ticks": 153600,
            "time": 200,
            "velocity": 0.2677165354330709
          },
          {
            "duration": 0.125,
            "durationTicks": 96,
            "midi": 71,
            "name": "B4",
            "ticks": 153600,
            "time": 200,
            "velocity": 0.2677165354330709
          },
          {
            "duration": 0.125,
            "durationTicks": 96,
            "midi": 64,
            "name": "E4",
            "ticks": 153600,
            "time": 200,
            "velocity": 0.2677165354330709
          },
          {
            "duration": 0.125,
            "durationTicks": 96,
            "midi": 70,
            "name": "A#4",
            "ticks": 153984,
            "time": 200.5,
            "velocity": 0.2677165354330709
          },
          {
            "duration": 0.125,
            "durationTicks": 96,
            "midi": 61,
            "name": "C#4",
            "ticks": 153984,
            "time": 200.5,
            "velocity": 0.2677165354330709
          },
          {
            "duration": 0.125,
            "durationTicks": 96,
            "midi": 66,
            "name": "F#4",
            "ticks": 153984,
            "time": 200.5,
            "velocity": 0.2677165354330709
          },
          {
            "duration": 0.125,
            "durationTicks": 96,
            "midi": 64,
            "name": "E4",
            "ticks": 154368,
            "time": 201,
            "velocity": 0.2677165354330709
          },
          {
            "duration": 0.125,
            "durationTicks": 96,
            "midi": 61,
            "name": "C#4",
            "ticks": 154368,
            "time": 201,
            "velocity": 0.2677165354330709
          },
          {
            "duration": 0.125,
            "durationTicks": 96,
            "midi": 68,
            "name": "G#4",
            "ticks": 154368,
            "time": 201,
            "velocity": 0.2677165354330709
          },
          {
            "duration": 0.125,
            "durationTicks": 96,
            "midi": 58,
            "name": "A#3",
            "ticks": 155136,
            "time": 202,
            "velocity": 0.2677165354330709
          },
          {
            "duration": 0.125,
            "durationTicks": 96,
            "midi": 66,
            "name": "F#4",
            "ticks": 155136,
            "time": 202,
            "velocity": 0.2677165354330709
          },
          {
            "duration": 0.125,
            "durationTicks": 96,
            "midi": 61,
            "name": "C#4",
            "ticks": 155136,
            "time": 202,
            "velocity": 0.2677165354330709
          },
          {
            "duration": 0.125,
            "durationTicks": 96,
            "midi": 68,
            "name": "G#4",
            "ticks": 158208,
            "time": 206,
            "velocity": 0.2677165354330709
          },
          {
            "duration": 0.125,
            "durationTicks": 96,
            "midi": 64,
            "name": "E4",
            "ticks": 158208,
            "time": 206,
            "velocity": 0.2677165354330709
          },
          {
            "duration": 0.125,
            "durationTicks": 96,
            "midi": 73,
            "name": "C#5",
            "ticks": 158208,
            "time": 206,
            "velocity": 0.2677165354330709
          },
          {
            "duration": 0.125,
            "durationTicks": 96,
            "midi": 64,
            "name": "E4",
            "ticks": 158496,
            "time": 206.375,
            "velocity": 0.2677165354330709
          },
          {
            "duration": 0.125,
            "durationTicks": 96,
            "midi": 68,
            "name": "G#4",
            "ticks": 158496,
            "time": 206.375,
            "velocity": 0.2677165354330709
          },
          {
            "duration": 0.125,
            "durationTicks": 96,
            "midi": 71,
            "name": "B4",
            "ticks": 158496,
            "time": 206.375,
            "velocity": 0.2677165354330709
          },
          {
            "duration": 0.125,
            "durationTicks": 96,
            "midi": 64,
            "name": "E4",
            "ticks": 159744,
            "time": 208,
            "velocity": 0.2677165354330709
          },
          {
            "duration": 0.125,
            "durationTicks": 96,
            "midi": 68,
            "name": "G#4",
            "ticks": 159744,
            "time": 208,
            "velocity": 0.2677165354330709
          },
          {
            "duration": 0.125,
            "durationTicks": 96,
            "midi": 71,
            "name": "B4",
            "ticks": 159744,
            "time": 208,
            "velocity": 0.2677165354330709
          },
          {
            "duration": 0.125,
            "durationTicks": 96,
            "midi": 61,
            "name": "C#4",
            "ticks": 160128,
            "time": 208.5,
            "velocity": 0.2677165354330709
          },
          {
            "duration": 0.125,
            "durationTicks": 96,
            "midi": 70,
            "name": "A#4",
            "ticks": 160128,
            "time": 208.5,
            "velocity": 0.2677165354330709
          },
          {
            "duration": 0.125,
            "durationTicks": 96,
            "midi": 66,
            "name": "F#4",
            "ticks": 160128,
            "time": 208.5,
            "velocity": 0.2677165354330709
          },
          {
            "duration": 0.125,
            "durationTicks": 96,
            "midi": 61,
            "name": "C#4",
            "ticks": 160512,
            "time": 209,
            "velocity": 0.2677165354330709
          },
          {
            "duration": 0.125,
            "durationTicks": 96,
            "midi": 64,
            "name": "E4",
            "ticks": 160512,
            "time": 209,
            "velocity": 0.2677165354330709
          },
          {
            "duration": 0.125,
            "durationTicks": 96,
            "midi": 68,
            "name": "G#4",
            "ticks": 160512,
            "time": 209,
            "velocity": 0.2677165354330709
          },
          {
            "duration": 0.125,
            "durationTicks": 96,
            "midi": 58,
            "name": "A#3",
            "ticks": 161280,
            "time": 210,
            "velocity": 0.2677165354330709
          },
          {
            "duration": 0.125,
            "durationTicks": 96,
            "midi": 61,
            "name": "C#4",
            "ticks": 161280,
            "time": 210,
            "velocity": 0.2677165354330709
          },
          {
            "duration": 0.125,
            "durationTicks": 96,
            "midi": 66,
            "name": "F#4",
            "ticks": 161280,
            "time": 210,
            "velocity": 0.2677165354330709
          },
          {
            "duration": 0.125,
            "durationTicks": 96,
            "midi": 57,
            "name": "A3",
            "ticks": 163008,
            "time": 212.25,
            "velocity": 0.2677165354330709
          },
          {
            "duration": 0.125,
            "durationTicks": 96,
            "midi": 64,
            "name": "E4",
            "ticks": 163008,
            "time": 212.25,
            "velocity": 0.2677165354330709
          },
          {
            "duration": 0.125,
            "durationTicks": 96,
            "midi": 61,
            "name": "C#4",
            "ticks": 163008,
            "time": 212.25,
            "velocity": 0.2677165354330709
          },
          {
            "duration": 0.125,
            "durationTicks": 96,
            "midi": 57,
            "name": "A3",
            "ticks": 163200,
            "time": 212.5,
            "velocity": 0.2677165354330709
          },
          {
            "duration": 0.125,
            "durationTicks": 96,
            "midi": 54,
            "name": "F#3",
            "ticks": 163200,
            "time": 212.5,
            "velocity": 0.2677165354330709
          },
          {
            "duration": 0.125,
            "durationTicks": 96,
            "midi": 61,
            "name": "C#4",
            "ticks": 163200,
            "time": 212.5,
            "velocity": 0.2677165354330709
          },
          {
            "duration": 0.125,
            "durationTicks": 96,
            "midi": 64,
            "name": "E4",
            "ticks": 163584,
            "time": 213,
            "velocity": 0.2677165354330709
          },
          {
            "duration": 0.125,
            "durationTicks": 96,
            "midi": 67,
            "name": "G4",
            "ticks": 163584,
            "time": 213,
            "velocity": 0.2677165354330709
          },
          {
            "duration": 0.125,
            "durationTicks": 96,
            "midi": 61,
            "name": "C#4",
            "ticks": 163584,
            "time": 213,
            "velocity": 0.2677165354330709
          },
          {
            "duration": 0.125,
            "durationTicks": 96,
            "midi": 64,
            "name": "E4",
            "ticks": 163776,
            "time": 213.25,
            "velocity": 0.2677165354330709
          },
          {
            "duration": 0.125,
            "durationTicks": 96,
            "midi": 61,
            "name": "C#4",
            "ticks": 163776,
            "time": 213.25,
            "velocity": 0.2677165354330709
          },
          {
            "duration": 0.125,
            "durationTicks": 96,
            "midi": 58,
            "name": "A#3",
            "ticks": 163776,
            "time": 213.25,
            "velocity": 0.2677165354330709
          },
          {
            "duration": 0.125,
            "durationTicks": 96,
            "midi": 64,
            "name": "E4",
            "ticks": 164160,
            "time": 213.75,
            "velocity": 0.2677165354330709
          },
          {
            "duration": 0.125,
            "durationTicks": 96,
            "midi": 71,
            "name": "B4",
            "ticks": 164160,
            "time": 213.75,
            "velocity": 0.2677165354330709
          },
          {
            "duration": 0.125,
            "durationTicks": 96,
            "midi": 67,
            "name": "G4",
            "ticks": 164160,
            "time": 213.75,
            "velocity": 0.2677165354330709
          },
          {
            "duration": 0.125,
            "durationTicks": 96,
            "midi": 64,
            "name": "E4",
            "ticks": 164352,
            "time": 214,
            "velocity": 0.2677165354330709
          },
          {
            "duration": 0.125,
            "durationTicks": 96,
            "midi": 61,
            "name": "C#4",
            "ticks": 164352,
            "time": 214,
            "velocity": 0.2677165354330709
          },
          {
            "duration": 0.125,
            "durationTicks": 96,
            "midi": 67,
            "name": "G4",
            "ticks": 164352,
            "time": 214,
            "velocity": 0.2677165354330709
          },
          {
            "duration": 0.125,
            "durationTicks": 96,
            "midi": 73,
            "name": "C#5",
            "ticks": 164736,
            "time": 214.5,
            "velocity": 0.2677165354330709
          },
          {
            "duration": 0.125,
            "durationTicks": 96,
            "midi": 70,
            "name": "A#4",
            "ticks": 164736,
            "time": 214.5,
            "velocity": 0.2677165354330709
          },
          {
            "duration": 0.125,
            "durationTicks": 96,
            "midi": 67,
            "name": "G4",
            "ticks": 164736,
            "time": 214.5,
            "velocity": 0.2677165354330709
          },
          {
            "duration": 0.125,
            "durationTicks": 96,
            "midi": 70,
            "name": "A#4",
            "ticks": 164928,
            "time": 214.75,
            "velocity": 0.2677165354330709
          },
          {
            "duration": 0.125,
            "durationTicks": 96,
            "midi": 64,
            "name": "E4",
            "ticks": 164928,
            "time": 214.75,
            "velocity": 0.2677165354330709
          },
          {
            "duration": 0.125,
            "durationTicks": 96,
            "midi": 67,
            "name": "G4",
            "ticks": 164928,
            "time": 214.75,
            "velocity": 0.2677165354330709
          },
          {
            "duration": 0.125,
            "durationTicks": 96,
            "midi": 69,
            "name": "A4",
            "ticks": 165312,
            "time": 215.25,
            "velocity": 0.2677165354330709
          },
          {
            "duration": 0.125,
            "durationTicks": 96,
            "midi": 73,
            "name": "C#5",
            "ticks": 165312,
            "time": 215.25,
            "velocity": 0.2677165354330709
          },
          {
            "duration": 0.125,
            "durationTicks": 96,
            "midi": 76,
            "name": "E5",
            "ticks": 165312,
            "time": 215.25,
            "velocity": 0.2677165354330709
          },
          {
            "duration": 0.125,
            "durationTicks": 96,
            "midi": 66,
            "name": "F#4",
            "ticks": 165504,
            "time": 215.5,
            "velocity": 0.2677165354330709
          },
          {
            "duration": 0.125,
            "durationTicks": 96,
            "midi": 73,
            "name": "C#5",
            "ticks": 165504,
            "time": 215.5,
            "velocity": 0.2677165354330709
          },
          {
            "duration": 0.125,
            "durationTicks": 96,
            "midi": 69,
            "name": "A4",
            "ticks": 165504,
            "time": 215.5,
            "velocity": 0.2677165354330709
          },
          {
            "duration": 0.125,
            "durationTicks": 96,
            "midi": 76,
            "name": "E5",
            "ticks": 165696,
            "time": 215.75,
            "velocity": 0.2677165354330709
          },
          {
            "duration": 0.125,
            "durationTicks": 96,
            "midi": 78,
            "name": "F#5",
            "ticks": 165696,
            "time": 215.75,
            "velocity": 0.2677165354330709
          },
          {
            "duration": 0.125,
            "durationTicks": 96,
            "midi": 71,
            "name": "B4",
            "ticks": 165696,
            "time": 215.75,
            "velocity": 0.2677165354330709
          },
          {
            "duration": 0.125,
            "durationTicks": 96,
            "midi": 68,
            "name": "G#4",
            "ticks": 167424,
            "time": 218,
            "velocity": 0.2677165354330709
          },
          {
            "duration": 0.125,
            "durationTicks": 96,
            "midi": 64,
            "name": "E4",
            "ticks": 167424,
            "time": 218,
            "velocity": 0.2677165354330709
          },
          {
            "duration": 0.125,
            "durationTicks": 96,
            "midi": 73,
            "name": "C#5",
            "ticks": 167424,
            "time": 218,
            "velocity": 0.2677165354330709
          },
          {
            "duration": 0.125,
            "durationTicks": 96,
            "midi": 71,
            "name": "B4",
            "ticks": 167712,
            "time": 218.375,
            "velocity": 0.2677165354330709
          },
          {
            "duration": 0.125,
            "durationTicks": 96,
            "midi": 68,
            "name": "G#4",
            "ticks": 167712,
            "time": 218.375,
            "velocity": 0.2677165354330709
          },
          {
            "duration": 0.125,
            "durationTicks": 96,
            "midi": 64,
            "name": "E4",
            "ticks": 167712,
            "time": 218.375,
            "velocity": 0.2677165354330709
          },
          {
            "duration": 0.125,
            "durationTicks": 96,
            "midi": 68,
            "name": "G#4",
            "ticks": 168960,
            "time": 220,
            "velocity": 0.2677165354330709
          },
          {
            "duration": 0.125,
            "durationTicks": 96,
            "midi": 64,
            "name": "E4",
            "ticks": 168960,
            "time": 220,
            "velocity": 0.2677165354330709
          },
          {
            "duration": 0.125,
            "durationTicks": 96,
            "midi": 71,
            "name": "B4",
            "ticks": 168960,
            "time": 220,
            "velocity": 0.2677165354330709
          },
          {
            "duration": 0.125,
            "durationTicks": 96,
            "midi": 70,
            "name": "A#4",
            "ticks": 169344,
            "time": 220.5,
            "velocity": 0.2677165354330709
          },
          {
            "duration": 0.125,
            "durationTicks": 96,
            "midi": 66,
            "name": "F#4",
            "ticks": 169344,
            "time": 220.5,
            "velocity": 0.2677165354330709
          },
          {
            "duration": 0.125,
            "durationTicks": 96,
            "midi": 61,
            "name": "C#4",
            "ticks": 169344,
            "time": 220.5,
            "velocity": 0.2677165354330709
          },
          {
            "duration": 0.125,
            "durationTicks": 96,
            "midi": 61,
            "name": "C#4",
            "ticks": 169728,
            "time": 221,
            "velocity": 0.2677165354330709
          },
          {
            "duration": 0.125,
            "durationTicks": 96,
            "midi": 68,
            "name": "G#4",
            "ticks": 169728,
            "time": 221,
            "velocity": 0.2677165354330709
          },
          {
            "duration": 0.125,
            "durationTicks": 96,
            "midi": 64,
            "name": "E4",
            "ticks": 169728,
            "time": 221,
            "velocity": 0.2677165354330709
          },
          {
            "duration": 0.125,
            "durationTicks": 96,
            "midi": 66,
            "name": "F#4",
            "ticks": 170496,
            "time": 222,
            "velocity": 0.2677165354330709
          },
          {
            "duration": 0.125,
            "durationTicks": 96,
            "midi": 61,
            "name": "C#4",
            "ticks": 170496,
            "time": 222,
            "velocity": 0.2677165354330709
          },
          {
            "duration": 0.125,
            "durationTicks": 96,
            "midi": 58,
            "name": "A#3",
            "ticks": 170496,
            "time": 222,
            "velocity": 0.2677165354330709
          },
          {
            "duration": 0.125,
            "durationTicks": 96,
            "midi": 64,
            "name": "E4",
            "ticks": 173568,
            "time": 226,
            "velocity": 0.2677165354330709
          },
          {
            "duration": 0.125,
            "durationTicks": 96,
            "midi": 73,
            "name": "C#5",
            "ticks": 173568,
            "time": 226,
            "velocity": 0.2677165354330709
          },
          {
            "duration": 0.125,
            "durationTicks": 96,
            "midi": 68,
            "name": "G#4",
            "ticks": 173568,
            "time": 226,
            "velocity": 0.2677165354330709
          },
          {
            "duration": 0.125,
            "durationTicks": 96,
            "midi": 71,
            "name": "B4",
            "ticks": 173856,
            "time": 226.375,
            "velocity": 0.2677165354330709
          },
          {
            "duration": 0.125,
            "durationTicks": 96,
            "midi": 68,
            "name": "G#4",
            "ticks": 173856,
            "time": 226.375,
            "velocity": 0.2677165354330709
          },
          {
            "duration": 0.125,
            "durationTicks": 96,
            "midi": 64,
            "name": "E4",
            "ticks": 173856,
            "time": 226.375,
            "velocity": 0.2677165354330709
          },
          {
            "duration": 0.125,
            "durationTicks": 96,
            "midi": 71,
            "name": "B4",
            "ticks": 175104,
            "time": 228,
            "velocity": 0.2677165354330709
          },
          {
            "duration": 0.125,
            "durationTicks": 96,
            "midi": 68,
            "name": "G#4",
            "ticks": 175104,
            "time": 228,
            "velocity": 0.2677165354330709
          },
          {
            "duration": 0.125,
            "durationTicks": 96,
            "midi": 64,
            "name": "E4",
            "ticks": 175104,
            "time": 228,
            "velocity": 0.2677165354330709
          },
          {
            "duration": 0.125,
            "durationTicks": 96,
            "midi": 70,
            "name": "A#4",
            "ticks": 175488,
            "time": 228.5,
            "velocity": 0.2677165354330709
          },
          {
            "duration": 0.125,
            "durationTicks": 96,
            "midi": 66,
            "name": "F#4",
            "ticks": 175488,
            "time": 228.5,
            "velocity": 0.2677165354330709
          },
          {
            "duration": 0.125,
            "durationTicks": 96,
            "midi": 61,
            "name": "C#4",
            "ticks": 175488,
            "time": 228.5,
            "velocity": 0.2677165354330709
          },
          {
            "duration": 0.125,
            "durationTicks": 96,
            "midi": 68,
            "name": "G#4",
            "ticks": 175872,
            "time": 229,
            "velocity": 0.2677165354330709
          },
          {
            "duration": 0.125,
            "durationTicks": 96,
            "midi": 61,
            "name": "C#4",
            "ticks": 175872,
            "time": 229,
            "velocity": 0.2677165354330709
          },
          {
            "duration": 0.125,
            "durationTicks": 96,
            "midi": 64,
            "name": "E4",
            "ticks": 175872,
            "time": 229,
            "velocity": 0.2677165354330709
          },
          {
            "duration": 0.125,
            "durationTicks": 96,
            "midi": 61,
            "name": "C#4",
            "ticks": 176640,
            "time": 230,
            "velocity": 0.2677165354330709
          },
          {
            "duration": 0.125,
            "durationTicks": 96,
            "midi": 66,
            "name": "F#4",
            "ticks": 176640,
            "time": 230,
            "velocity": 0.2677165354330709
          },
          {
            "duration": 0.125,
            "durationTicks": 96,
            "midi": 58,
            "name": "A#3",
            "ticks": 176640,
            "time": 230,
            "velocity": 0.2677165354330709
          },
          {
            "duration": 0.125,
            "durationTicks": 96,
            "midi": 64,
            "name": "E4",
            "ticks": 178368,
            "time": 232.25,
            "velocity": 0.2677165354330709
          },
          {
            "duration": 0.125,
            "durationTicks": 96,
            "midi": 61,
            "name": "C#4",
            "ticks": 178368,
            "time": 232.25,
            "velocity": 0.2677165354330709
          },
          {
            "duration": 0.125,
            "durationTicks": 96,
            "midi": 57,
            "name": "A3",
            "ticks": 178368,
            "time": 232.25,
            "velocity": 0.2677165354330709
          },
          {
            "duration": 0.125,
            "durationTicks": 96,
            "midi": 57,
            "name": "A3",
            "ticks": 178560,
            "time": 232.5,
            "velocity": 0.2677165354330709
          },
          {
            "duration": 0.125,
            "durationTicks": 96,
            "midi": 54,
            "name": "F#3",
            "ticks": 178560,
            "time": 232.5,
            "velocity": 0.2677165354330709
          },
          {
            "duration": 0.125,
            "durationTicks": 96,
            "midi": 61,
            "name": "C#4",
            "ticks": 178560,
            "time": 232.5,
            "velocity": 0.2677165354330709
          },
          {
            "duration": 0.125,
            "durationTicks": 96,
            "midi": 67,
            "name": "G4",
            "ticks": 178944,
            "time": 233,
            "velocity": 0.2677165354330709
          },
          {
            "duration": 0.125,
            "durationTicks": 96,
            "midi": 64,
            "name": "E4",
            "ticks": 178944,
            "time": 233,
            "velocity": 0.2677165354330709
          },
          {
            "duration": 0.125,
            "durationTicks": 96,
            "midi": 61,
            "name": "C#4",
            "ticks": 178944,
            "time": 233,
            "velocity": 0.2677165354330709
          },
          {
            "duration": 0.125,
            "durationTicks": 96,
            "midi": 61,
            "name": "C#4",
            "ticks": 179136,
            "time": 233.25,
            "velocity": 0.2677165354330709
          },
          {
            "duration": 0.125,
            "durationTicks": 96,
            "midi": 58,
            "name": "A#3",
            "ticks": 179136,
            "time": 233.25,
            "velocity": 0.2677165354330709
          },
          {
            "duration": 0.125,
            "durationTicks": 96,
            "midi": 64,
            "name": "E4",
            "ticks": 179136,
            "time": 233.25,
            "velocity": 0.2677165354330709
          },
          {
            "duration": 0.625,
            "durationTicks": 480,
            "midi": 68,
            "name": "G#4",
            "ticks": 210912,
            "time": 274.625,
            "velocity": 0.2047244094488189
          },
          {
            "duration": 0.875,
            "durationTicks": 672,
            "midi": 64,
            "name": "E4",
            "ticks": 211344,
            "time": 275.1875,
            "velocity": 0.2047244094488189
          },
          {
            "duration": 0.25,
            "durationTicks": 192,
            "midi": 68,
            "name": "G#4",
            "ticks": 212544,
            "time": 276.75,
            "velocity": 0.2047244094488189
          },
          {
            "duration": 0.5,
            "durationTicks": 384,
            "midi": 66,
            "name": "F#4",
            "ticks": 212736,
            "time": 277,
            "velocity": 0.2047244094488189
          },
          {
            "duration": 0.75,
            "durationTicks": 576,
            "midi": 61,
            "name": "C#4",
            "ticks": 213120,
            "time": 277.5,
            "velocity": 0.1732283464566929
          },
          {
            "duration": 0.375,
            "durationTicks": 288,
            "midi": 68,
            "name": "G#4",
            "ticks": 214080,
            "time": 278.75,
            "velocity": 0.2047244094488189
          },
          {
            "duration": 0.875,
            "durationTicks": 672,
            "midi": 64,
            "name": "E4",
            "ticks": 214368,
            "time": 279.125,
            "velocity": 0.2047244094488189
          },
          {
            "duration": 0.25,
            "durationTicks": 192,
            "midi": 68,
            "name": "G#4",
            "ticks": 215424,
            "time": 280.5,
            "velocity": 0.2047244094488189
          },
          {
            "duration": 0.5,
            "durationTicks": 384,
            "midi": 66,
            "name": "F#4",
            "ticks": 215712,
            "time": 280.875,
            "velocity": 0.2047244094488189
          },
          {
            "duration": 0.5,
            "durationTicks": 384,
            "midi": 61,
            "name": "C#4",
            "ticks": 216048,
            "time": 281.3125,
            "velocity": 0.1732283464566929
          },
          {
            "duration": 0.375,
            "durationTicks": 288,
            "midi": 68,
            "name": "G#4",
            "ticks": 217152,
            "time": 282.75,
            "velocity": 0.2047244094488189
          },
          {
            "duration": 0.625,
            "durationTicks": 480,
            "midi": 64,
            "name": "E4",
            "ticks": 217440,
            "time": 283.125,
            "velocity": 0.2047244094488189
          },
          {
            "duration": 0.125,
            "durationTicks": 96,
            "midi": 68,
            "name": "G#4",
            "ticks": 218688,
            "time": 284.75,
            "velocity": 0.2047244094488189
          },
          {
            "duration": 0.125,
            "durationTicks": 96,
            "midi": 66,
            "name": "F#4",
            "ticks": 218784,
            "time": 284.875,
            "velocity": 0.2047244094488189
          },
          {
            "duration": 0.5,
            "durationTicks": 384,
            "midi": 66,
            "name": "F#4",
            "ticks": 218880,
            "time": 285,
            "velocity": 0.2047244094488189
          },
          {
            "duration": 0.375,
            "durationTicks": 288,
            "midi": 61,
            "name": "C#4",
            "ticks": 219312,
            "time": 285.5625,
            "velocity": 0.1732283464566929
          },
          {
            "duration": 0.125,
            "durationTicks": 96,
            "midi": 61,
            "name": "C#4",
            "ticks": 219600,
            "time": 285.9375,
            "velocity": 0.13385826771653545
          },
          {
            "duration": 0.25,
            "durationTicks": 192,
            "midi": 68,
            "name": "G#4",
            "ticks": 220224,
            "time": 286.75,
            "velocity": 0.2047244094488189
          },
          {
            "duration": 0.5,
            "durationTicks": 384,
            "midi": 66,
            "name": "F#4",
            "ticks": 220416,
            "time": 287,
            "velocity": 0.2047244094488189
          },
          {
            "duration": 0.375,
            "durationTicks": 288,
            "midi": 61,
            "name": "C#4",
            "ticks": 220800,
            "time": 287.5,
            "velocity": 0.1732283464566929
          },
          {
            "duration": 0.375,
            "durationTicks": 288,
            "midi": 66,
            "name": "F#4",
            "ticks": 221568,
            "time": 288.5,
            "velocity": 0.2047244094488189
          },
          {
            "duration": 0.125,
            "durationTicks": 96,
            "midi": 64,
            "name": "E4",
            "ticks": 221856,
            "time": 288.875,
            "velocity": 0.2047244094488189
          },
          {
            "duration": 0.25,
            "durationTicks": 192,
            "midi": 61,
            "name": "C#4",
            "ticks": 222048,
            "time": 289.125,
            "velocity": 0.2047244094488189
          },
          {
            "duration": 0.125,
            "durationTicks": 96,
            "midi": 67,
            "name": "G4",
            "ticks": 223008,
            "time": 290.375,
            "velocity": 0.2047244094488189
          },
          {
            "duration": 0.125,
            "durationTicks": 96,
            "midi": 64,
            "name": "E4",
            "ticks": 223104,
            "time": 290.5,
            "velocity": 0.2047244094488189
          },
          {
            "duration": 0.625,
            "durationTicks": 480,
            "midi": 61,
            "name": "C#4",
            "ticks": 223200,
            "time": 290.625,
            "velocity": 0.2047244094488189
          },
          {
            "duration": 0.75,
            "durationTicks": 576,
            "midi": 61,
            "name": "C#4",
            "ticks": 223680,
            "time": 291.25,
            "velocity": 0.1732283464566929
          },
          {
            "duration": 0.375,
            "durationTicks": 288,
            "midi": 68,
            "name": "G#4",
            "ticks": 228672,
            "time": 297.75,
            "velocity": 0.2047244094488189
          },
          {
            "duration": 0.5,
            "durationTicks": 384,
            "midi": 64,
            "name": "E4",
            "ticks": 228960,
            "time": 298.125,
            "velocity": 0.2047244094488189
          },
          {
            "duration": 0.125,
            "durationTicks": 96,
            "midi": 67,
            "name": "G4",
            "ticks": 229920,
            "time": 299.375,
            "velocity": 0.2047244094488189
          },
          {
            "duration": 0.125,
            "durationTicks": 96,
            "midi": 66,
            "name": "F#4",
            "ticks": 230016,
            "time": 299.5,
            "velocity": 0.2047244094488189
          },
          {
            "duration": 0.5,
            "durationTicks": 384,
            "midi": 66,
            "name": "F#4",
            "ticks": 230160,
            "time": 299.6875,
            "velocity": 0.2047244094488189
          },
          {
            "duration": 0.375,
            "durationTicks": 288,
            "midi": 61,
            "name": "C#4",
            "ticks": 230592,
            "time": 300.25,
            "velocity": 0.1732283464566929
          },
          {
            "duration": 0.125,
            "durationTicks": 96,
            "midi": 61,
            "name": "C#4",
            "ticks": 230880,
            "time": 300.625,
            "velocity": 0.13385826771653545
          },
          {
            "duration": 0.75,
            "durationTicks": 576,
            "midi": 68,
            "name": "G#4",
            "ticks": 231744,
            "time": 301.75,
            "velocity": 0.2047244094488189
          },
          {
            "duration": 0.5,
            "durationTicks": 384,
            "midi": 64,
            "name": "E4",
            "ticks": 232320,
            "time": 302.5,
            "velocity": 0.2047244094488189
          },
          {
            "duration": 0.625,
            "durationTicks": 480,
            "midi": 66,
            "name": "F#4",
            "ticks": 233376,
            "time": 303.875,
            "velocity": 0.2047244094488189
          },
          {
            "duration": 0.5,
            "durationTicks": 384,
            "midi": 68,
            "name": "G#4",
            "ticks": 240960,
            "time": 313.75,
            "velocity": 0.13385826771653545
          },
          {
            "duration": 0.75,
            "durationTicks": 576,
            "midi": 64,
            "name": "E4",
            "ticks": 241344,
            "time": 314.25,
            "velocity": 0.13385826771653545
          },
          {
            "duration": 0.25,
            "durationTicks": 192,
            "midi": 67,
            "name": "G4",
            "ticks": 242496,
            "time": 315.75,
            "velocity": 0.13385826771653545
          },
          {
            "duration": 0.25,
            "durationTicks": 192,
            "midi": 66,
            "name": "F#4",
            "ticks": 242688,
            "time": 316,
            "velocity": 0.13385826771653545
          },
          {
            "duration": 0.75,
            "durationTicks": 576,
            "midi": 66,
            "name": "F#4",
            "ticks": 242880,
            "time": 316.25,
            "velocity": 0.13385826771653545
          },
          {
            "duration": 0.625,
            "durationTicks": 480,
            "midi": 61,
            "name": "C#4",
            "ticks": 243408,
            "time": 316.9375,
            "velocity": 0.13385826771653545
          },
          {
            "duration": 0.125,
            "durationTicks": 96,
            "midi": 59,
            "name": "B3",
            "ticks": 243936,
            "time": 317.625,
            "velocity": 0.13385826771653545
          }
        ],
        "endOfTrackTicks": 244032
      },
      {
        "channel": 1,
        "controlChanges": {},
        "pitchBends": [],
        "instrument": {
          "family": "guitar",
          "number": 24,
          "name": "acoustic guitar (nylon)"
        },
        "name": "Acoustic Guitar",
        "notes": [
          {
            "duration": 0.125,
            "durationTicks": 96,
            "midi": 63,
            "name": "D#4",
            "ticks": 3096,
            "time": 4.03125,
            "velocity": 0.15748031496062992
          },
          {
            "duration": 0.125,
            "durationTicks": 96,
            "midi": 59,
            "name": "B3",
            "ticks": 3288,
            "time": 4.28125,
            "velocity": 0.15748031496062992
          },
          {
            "duration": 0.125,
            "durationTicks": 96,
            "midi": 63,
            "name": "D#4",
            "ticks": 3480,
            "time": 4.53125,
            "velocity": 0.15748031496062992
          },
          {
            "duration": 0.125,
            "durationTicks": 96,
            "midi": 59,
            "name": "B3",
            "ticks": 3672,
            "time": 4.78125,
            "velocity": 0.15748031496062992
          },
          {
            "duration": 0.125,
            "durationTicks": 96,
            "midi": 63,
            "name": "D#4",
            "ticks": 3864,
            "time": 5.03125,
            "velocity": 0.15748031496062992
          },
          {
            "duration": 0.125,
            "durationTicks": 96,
            "midi": 59,
            "name": "B3",
            "ticks": 4056,
            "time": 5.28125,
            "velocity": 0.15748031496062992
          },
          {
            "duration": 0.125,
            "durationTicks": 96,
            "midi": 63,
            "name": "D#4",
            "ticks": 4248,
            "time": 5.53125,
            "velocity": 0.15748031496062992
          },
          {
            "duration": 0.125,
            "durationTicks": 96,
            "midi": 59,
            "name": "B3",
            "ticks": 4440,
            "time": 5.78125,
            "velocity": 0.15748031496062992
          },
          {
            "duration": 0.125,
            "durationTicks": 96,
            "midi": 63,
            "name": "D#4",
            "ticks": 4632,
            "time": 6.03125,
            "velocity": 0.15748031496062992
          },
          {
            "duration": 0.125,
            "durationTicks": 96,
            "midi": 59,
            "name": "B3",
            "ticks": 4824,
            "time": 6.28125,
            "velocity": 0.15748031496062992
          },
          {
            "duration": 0.125,
            "durationTicks": 96,
            "midi": 63,
            "name": "D#4",
            "ticks": 5016,
            "time": 6.53125,
            "velocity": 0.15748031496062992
          },
          {
            "duration": 0.125,
            "durationTicks": 96,
            "midi": 59,
            "name": "B3",
            "ticks": 5208,
            "time": 6.78125,
            "velocity": 0.15748031496062992
          },
          {
            "duration": 0.125,
            "durationTicks": 96,
            "midi": 63,
            "name": "D#4",
            "ticks": 5400,
            "time": 7.03125,
            "velocity": 0.15748031496062992
          },
          {
            "duration": 0.125,
            "durationTicks": 96,
            "midi": 59,
            "name": "B3",
            "ticks": 5592,
            "time": 7.28125,
            "velocity": 0.15748031496062992
          },
          {
            "duration": 0.125,
            "durationTicks": 96,
            "midi": 63,
            "name": "D#4",
            "ticks": 5784,
            "time": 7.53125,
            "velocity": 0.15748031496062992
          },
          {
            "duration": 0.125,
            "durationTicks": 96,
            "midi": 59,
            "name": "B3",
            "ticks": 5976,
            "time": 7.78125,
            "velocity": 0.15748031496062992
          },
          {
            "duration": 0.125,
            "durationTicks": 96,
            "midi": 64,
            "name": "E4",
            "ticks": 6168,
            "time": 8.03125,
            "velocity": 0.15748031496062992
          },
          {
            "duration": 0.125,
            "durationTicks": 96,
            "midi": 61,
            "name": "C#4",
            "ticks": 6360,
            "time": 8.28125,
            "velocity": 0.15748031496062992
          },
          {
            "duration": 0.125,
            "durationTicks": 96,
            "midi": 64,
            "name": "E4",
            "ticks": 6552,
            "time": 8.53125,
            "velocity": 0.15748031496062992
          },
          {
            "duration": 0.125,
            "durationTicks": 96,
            "midi": 61,
            "name": "C#4",
            "ticks": 6744,
            "time": 8.78125,
            "velocity": 0.15748031496062992
          },
          {
            "duration": 0.125,
            "durationTicks": 96,
            "midi": 64,
            "name": "E4",
            "ticks": 6936,
            "time": 9.03125,
            "velocity": 0.15748031496062992
          },
          {
            "duration": 0.125,
            "durationTicks": 96,
            "midi": 61,
            "name": "C#4",
            "ticks": 7128,
            "time": 9.28125,
            "velocity": 0.15748031496062992
          },
          {
            "duration": 0.125,
            "durationTicks": 96,
            "midi": 64,
            "name": "E4",
            "ticks": 7320,
            "time": 9.53125,
            "velocity": 0.15748031496062992
          },
          {
            "duration": 0.125,
            "durationTicks": 96,
            "midi": 61,
            "name": "C#4",
            "ticks": 7512,
            "time": 9.78125,
            "velocity": 0.15748031496062992
          },
          {
            "duration": 0.125,
            "durationTicks": 96,
            "midi": 64,
            "name": "E4",
            "ticks": 7704,
            "time": 10.03125,
            "velocity": 0.15748031496062992
          },
          {
            "duration": 0.125,
            "durationTicks": 96,
            "midi": 61,
            "name": "C#4",
            "ticks": 7896,
            "time": 10.28125,
            "velocity": 0.15748031496062992
          },
          {
            "duration": 0.125,
            "durationTicks": 96,
            "midi": 64,
            "name": "E4",
            "ticks": 8088,
            "time": 10.53125,
            "velocity": 0.15748031496062992
          },
          {
            "duration": 0.125,
            "durationTicks": 96,
            "midi": 61,
            "name": "C#4",
            "ticks": 8280,
            "time": 10.78125,
            "velocity": 0.15748031496062992
          },
          {
            "duration": 0.125,
            "durationTicks": 96,
            "midi": 64,
            "name": "E4",
            "ticks": 8472,
            "time": 11.03125,
            "velocity": 0.15748031496062992
          },
          {
            "duration": 0.125,
            "durationTicks": 96,
            "midi": 61,
            "name": "C#4",
            "ticks": 8664,
            "time": 11.28125,
            "velocity": 0.15748031496062992
          },
          {
            "duration": 0.125,
            "durationTicks": 96,
            "midi": 64,
            "name": "E4",
            "ticks": 8856,
            "time": 11.53125,
            "velocity": 0.15748031496062992
          },
          {
            "duration": 0.125,
            "durationTicks": 96,
            "midi": 61,
            "name": "C#4",
            "ticks": 9048,
            "time": 11.78125,
            "velocity": 0.15748031496062992
          },
          {
            "duration": 0.125,
            "durationTicks": 96,
            "midi": 66,
            "name": "F#4",
            "ticks": 9240,
            "time": 12.03125,
            "velocity": 0.15748031496062992
          },
          {
            "duration": 0.125,
            "durationTicks": 96,
            "midi": 61,
            "name": "C#4",
            "ticks": 9432,
            "time": 12.28125,
            "velocity": 0.15748031496062992
          },
          {
            "duration": 0.125,
            "durationTicks": 96,
            "midi": 66,
            "name": "F#4",
            "ticks": 9624,
            "time": 12.53125,
            "velocity": 0.15748031496062992
          },
          {
            "duration": 0.125,
            "durationTicks": 96,
            "midi": 61,
            "name": "C#4",
            "ticks": 9816,
            "time": 12.78125,
            "velocity": 0.15748031496062992
          },
          {
            "duration": 0.125,
            "durationTicks": 96,
            "midi": 66,
            "name": "F#4",
            "ticks": 10008,
            "time": 13.03125,
            "velocity": 0.15748031496062992
          },
          {
            "duration": 0.125,
            "durationTicks": 96,
            "midi": 61,
            "name": "C#4",
            "ticks": 10200,
            "time": 13.28125,
            "velocity": 0.15748031496062992
          },
          {
            "duration": 0.125,
            "durationTicks": 96,
            "midi": 66,
            "name": "F#4",
            "ticks": 10392,
            "time": 13.53125,
            "velocity": 0.15748031496062992
          },
          {
            "duration": 0.125,
            "durationTicks": 96,
            "midi": 61,
            "name": "C#4",
            "ticks": 10584,
            "time": 13.78125,
            "velocity": 0.15748031496062992
          },
          {
            "duration": 0.125,
            "durationTicks": 96,
            "midi": 66,
            "name": "F#4",
            "ticks": 10776,
            "time": 14.03125,
            "velocity": 0.15748031496062992
          },
          {
            "duration": 0.125,
            "durationTicks": 96,
            "midi": 61,
            "name": "C#4",
            "ticks": 10968,
            "time": 14.28125,
            "velocity": 0.15748031496062992
          },
          {
            "duration": 0.125,
            "durationTicks": 96,
            "midi": 66,
            "name": "F#4",
            "ticks": 11160,
            "time": 14.53125,
            "velocity": 0.15748031496062992
          },
          {
            "duration": 0.125,
            "durationTicks": 96,
            "midi": 61,
            "name": "C#4",
            "ticks": 11352,
            "time": 14.78125,
            "velocity": 0.15748031496062992
          },
          {
            "duration": 0.125,
            "durationTicks": 96,
            "midi": 66,
            "name": "F#4",
            "ticks": 11544,
            "time": 15.03125,
            "velocity": 0.15748031496062992
          },
          {
            "duration": 0.125,
            "durationTicks": 96,
            "midi": 61,
            "name": "C#4",
            "ticks": 11736,
            "time": 15.28125,
            "velocity": 0.15748031496062992
          },
          {
            "duration": 0.125,
            "durationTicks": 96,
            "midi": 66,
            "name": "F#4",
            "ticks": 11928,
            "time": 15.53125,
            "velocity": 0.15748031496062992
          },
          {
            "duration": 0.125,
            "durationTicks": 96,
            "midi": 61,
            "name": "C#4",
            "ticks": 12120,
            "time": 15.78125,
            "velocity": 0.15748031496062992
          },
          {
            "duration": 0.125,
            "durationTicks": 96,
            "midi": 67,
            "name": "G4",
            "ticks": 12312,
            "time": 16.03125,
            "velocity": 0.15748031496062992
          },
          {
            "duration": 0.125,
            "durationTicks": 96,
            "midi": 64,
            "name": "E4",
            "ticks": 12504,
            "time": 16.28125,
            "velocity": 0.15748031496062992
          },
          {
            "duration": 0.125,
            "durationTicks": 96,
            "midi": 67,
            "name": "G4",
            "ticks": 12696,
            "time": 16.53125,
            "velocity": 0.15748031496062992
          },
          {
            "duration": 0.125,
            "durationTicks": 96,
            "midi": 64,
            "name": "E4",
            "ticks": 12888,
            "time": 16.78125,
            "velocity": 0.15748031496062992
          },
          {
            "duration": 0.125,
            "durationTicks": 96,
            "midi": 67,
            "name": "G4",
            "ticks": 13080,
            "time": 17.03125,
            "velocity": 0.15748031496062992
          },
          {
            "duration": 0.125,
            "durationTicks": 96,
            "midi": 64,
            "name": "E4",
            "ticks": 13272,
            "time": 17.28125,
            "velocity": 0.15748031496062992
          },
          {
            "duration": 0.125,
            "durationTicks": 96,
            "midi": 67,
            "name": "G4",
            "ticks": 13464,
            "time": 17.53125,
            "velocity": 0.15748031496062992
          },
          {
            "duration": 0.125,
            "durationTicks": 96,
            "midi": 64,
            "name": "E4",
            "ticks": 13656,
            "time": 17.78125,
            "velocity": 0.15748031496062992
          },
          {
            "duration": 0.125,
            "durationTicks": 96,
            "midi": 67,
            "name": "G4",
            "ticks": 13848,
            "time": 18.03125,
            "velocity": 0.15748031496062992
          },
          {
            "duration": 0.125,
            "durationTicks": 96,
            "midi": 64,
            "name": "E4",
            "ticks": 14040,
            "time": 18.28125,
            "velocity": 0.15748031496062992
          },
          {
            "duration": 0.125,
            "durationTicks": 96,
            "midi": 67,
            "name": "G4",
            "ticks": 14232,
            "time": 18.53125,
            "velocity": 0.15748031496062992
          },
          {
            "duration": 0.125,
            "durationTicks": 96,
            "midi": 64,
            "name": "E4",
            "ticks": 14424,
            "time": 18.78125,
            "velocity": 0.15748031496062992
          },
          {
            "duration": 0.125,
            "durationTicks": 96,
            "midi": 67,
            "name": "G4",
            "ticks": 14616,
            "time": 19.03125,
            "velocity": 0.15748031496062992
          },
          {
            "duration": 0.125,
            "durationTicks": 96,
            "midi": 64,
            "name": "E4",
            "ticks": 14808,
            "time": 19.28125,
            "velocity": 0.15748031496062992
          },
          {
            "duration": 0.125,
            "durationTicks": 96,
            "midi": 67,
            "name": "G4",
            "ticks": 15000,
            "time": 19.53125,
            "velocity": 0.15748031496062992
          },
          {
            "duration": 0.125,
            "durationTicks": 96,
            "midi": 64,
            "name": "E4",
            "ticks": 15192,
            "time": 19.78125,
            "velocity": 0.15748031496062992
          }
        ],
        "endOfTrackTicks": 15288
      },
      {
        "channel": 0,
        "controlChanges": {},
        "pitchBends": [],
        "instrument": {
          "family": "piano",
          "number": 0,
          "name": "acoustic grand piano"
        },
        "name": "Drum Kit",
        "notes": [],
        "endOfTrackTicks": 246336
      },
      {
        "channel": 2,
        "controlChanges": {},
        "pitchBends": [],
        "instrument": {
          "family": "synth lead",
          "number": 80,
          "name": "lead 1 (square)"
        },
        "name": "Smooth Synth",
        "notes": [
          {
            "duration": 0.125,
            "durationTicks": 96,
            "midi": 47,
            "name": "B2",
            "ticks": 3072,
            "time": 4,
            "velocity": 0.03937007874015748
          },
          {
            "duration": 0.125,
            "durationTicks": 96,
            "midi": 44,
            "name": "G#2",
            "ticks": 3072,
            "time": 4,
            "velocity": 0.03937007874015748
          },
          {
            "duration": 0.125,
            "durationTicks": 96,
            "midi": 51,
            "name": "D#3",
            "ticks": 3072,
            "time": 4,
            "velocity": 0.03937007874015748
          },
          {
            "duration": 0.125,
            "durationTicks": 96,
            "midi": 51,
            "name": "D#3",
            "ticks": 3168,
            "time": 4.125,
            "velocity": 0.03937007874015748
          },
          {
            "duration": 0.125,
            "durationTicks": 96,
            "midi": 44,
            "name": "G#2",
            "ticks": 3168,
            "time": 4.125,
            "velocity": 0.03937007874015748
          },
          {
            "duration": 0.125,
            "durationTicks": 96,
            "midi": 47,
            "name": "B2",
            "ticks": 3168,
            "time": 4.125,
            "velocity": 0.03937007874015748
          },
          {
            "duration": 0.125,
            "durationTicks": 96,
            "midi": 51,
            "name": "D#3",
            "ticks": 3264,
            "time": 4.25,
            "velocity": 0.03937007874015748
          },
          {
            "duration": 0.125,
            "durationTicks": 96,
            "midi": 44,
            "name": "G#2",
            "ticks": 3264,
            "time": 4.25,
            "velocity": 0.03937007874015748
          },
          {
            "duration": 0.125,
            "durationTicks": 96,
            "midi": 47,
            "name": "B2",
            "ticks": 3264,
            "time": 4.25,
            "velocity": 0.03937007874015748
          },
          {
            "duration": 0.125,
            "durationTicks": 96,
            "midi": 44,
            "name": "G#2",
            "ticks": 3360,
            "time": 4.375,
            "velocity": 0.03937007874015748
          },
          {
            "duration": 0.125,
            "durationTicks": 96,
            "midi": 47,
            "name": "B2",
            "ticks": 3360,
            "time": 4.375,
            "velocity": 0.03937007874015748
          },
          {
            "duration": 0.125,
            "durationTicks": 96,
            "midi": 51,
            "name": "D#3",
            "ticks": 3360,
            "time": 4.375,
            "velocity": 0.03937007874015748
          },
          {
            "duration": 0.125,
            "durationTicks": 96,
            "midi": 47,
            "name": "B2",
            "ticks": 3456,
            "time": 4.5,
            "velocity": 0.03937007874015748
          },
          {
            "duration": 0.125,
            "durationTicks": 96,
            "midi": 51,
            "name": "D#3",
            "ticks": 3456,
            "time": 4.5,
            "velocity": 0.03937007874015748
          },
          {
            "duration": 0.125,
            "durationTicks": 96,
            "midi": 44,
            "name": "G#2",
            "ticks": 3456,
            "time": 4.5,
            "velocity": 0.03937007874015748
          },
          {
            "duration": 0.125,
            "durationTicks": 96,
            "midi": 44,
            "name": "G#2",
            "ticks": 3552,
            "time": 4.625,
            "velocity": 0.03937007874015748
          },
          {
            "duration": 0.125,
            "durationTicks": 96,
            "midi": 47,
            "name": "B2",
            "ticks": 3552,
            "time": 4.625,
            "velocity": 0.03937007874015748
          },
          {
            "duration": 0.125,
            "durationTicks": 96,
            "midi": 51,
            "name": "D#3",
            "ticks": 3552,
            "time": 4.625,
            "velocity": 0.03937007874015748
          },
          {
            "duration": 0.125,
            "durationTicks": 96,
            "midi": 51,
            "name": "D#3",
            "ticks": 3648,
            "time": 4.75,
            "velocity": 0.03937007874015748
          },
          {
            "duration": 0.125,
            "durationTicks": 96,
            "midi": 47,
            "name": "B2",
            "ticks": 3648,
            "time": 4.75,
            "velocity": 0.03937007874015748
          },
          {
            "duration": 0.125,
            "durationTicks": 96,
            "midi": 44,
            "name": "G#2",
            "ticks": 3648,
            "time": 4.75,
            "velocity": 0.03937007874015748
          },
          {
            "duration": 0.125,
            "durationTicks": 96,
            "midi": 51,
            "name": "D#3",
            "ticks": 3744,
            "time": 4.875,
            "velocity": 0.03937007874015748
          },
          {
            "duration": 0.125,
            "durationTicks": 96,
            "midi": 44,
            "name": "G#2",
            "ticks": 3744,
            "time": 4.875,
            "velocity": 0.03937007874015748
          },
          {
            "duration": 0.125,
            "durationTicks": 96,
            "midi": 47,
            "name": "B2",
            "ticks": 3744,
            "time": 4.875,
            "velocity": 0.03937007874015748
          },
          {
            "duration": 0.125,
            "durationTicks": 96,
            "midi": 51,
            "name": "D#3",
            "ticks": 3840,
            "time": 5,
            "velocity": 0.03937007874015748
          },
          {
            "duration": 0.125,
            "durationTicks": 96,
            "midi": 44,
            "name": "G#2",
            "ticks": 3840,
            "time": 5,
            "velocity": 0.03937007874015748
          },
          {
            "duration": 0.125,
            "durationTicks": 96,
            "midi": 47,
            "name": "B2",
            "ticks": 3840,
            "time": 5,
            "velocity": 0.03937007874015748
          },
          {
            "duration": 0.125,
            "durationTicks": 96,
            "midi": 51,
            "name": "D#3",
            "ticks": 3936,
            "time": 5.125,
            "velocity": 0.03937007874015748
          },
          {
            "duration": 0.125,
            "durationTicks": 96,
            "midi": 47,
            "name": "B2",
            "ticks": 3936,
            "time": 5.125,
            "velocity": 0.03937007874015748
          },
          {
            "duration": 0.125,
            "durationTicks": 96,
            "midi": 44,
            "name": "G#2",
            "ticks": 3936,
            "time": 5.125,
            "velocity": 0.03937007874015748
          },
          {
            "duration": 0.125,
            "durationTicks": 96,
            "midi": 47,
            "name": "B2",
            "ticks": 4032,
            "time": 5.25,
            "velocity": 0.03937007874015748
          },
          {
            "duration": 0.125,
            "durationTicks": 96,
            "midi": 51,
            "name": "D#3",
            "ticks": 4032,
            "time": 5.25,
            "velocity": 0.03937007874015748
          },
          {
            "duration": 0.125,
            "durationTicks": 96,
            "midi": 44,
            "name": "G#2",
            "ticks": 4032,
            "time": 5.25,
            "velocity": 0.03937007874015748
          },
          {
            "duration": 0.125,
            "durationTicks": 96,
            "midi": 44,
            "name": "G#2",
            "ticks": 4128,
            "time": 5.375,
            "velocity": 0.03937007874015748
          },
          {
            "duration": 0.125,
            "durationTicks": 96,
            "midi": 47,
            "name": "B2",
            "ticks": 4128,
            "time": 5.375,
            "velocity": 0.03937007874015748
          },
          {
            "duration": 0.125,
            "durationTicks": 96,
            "midi": 51,
            "name": "D#3",
            "ticks": 4128,
            "time": 5.375,
            "velocity": 0.03937007874015748
          },
          {
            "duration": 0.125,
            "durationTicks": 96,
            "midi": 47,
            "name": "B2",
            "ticks": 4224,
            "time": 5.5,
            "velocity": 0.03937007874015748
          },
          {
            "duration": 0.125,
            "durationTicks": 96,
            "midi": 51,
            "name": "D#3",
            "ticks": 4224,
            "time": 5.5,
            "velocity": 0.03937007874015748
          },
          {
            "duration": 0.125,
            "durationTicks": 96,
            "midi": 44,
            "name": "G#2",
            "ticks": 4224,
            "time": 5.5,
            "velocity": 0.03937007874015748
          },
          {
            "duration": 0.125,
            "durationTicks": 96,
            "midi": 51,
            "name": "D#3",
            "ticks": 4320,
            "time": 5.625,
            "velocity": 0.03937007874015748
          },
          {
            "duration": 0.125,
            "durationTicks": 96,
            "midi": 47,
            "name": "B2",
            "ticks": 4320,
            "time": 5.625,
            "velocity": 0.03937007874015748
          },
          {
            "duration": 0.125,
            "durationTicks": 96,
            "midi": 44,
            "name": "G#2",
            "ticks": 4320,
            "time": 5.625,
            "velocity": 0.03937007874015748
          },
          {
            "duration": 0.125,
            "durationTicks": 96,
            "midi": 44,
            "name": "G#2",
            "ticks": 4416,
            "time": 5.75,
            "velocity": 0.03937007874015748
          },
          {
            "duration": 0.125,
            "durationTicks": 96,
            "midi": 47,
            "name": "B2",
            "ticks": 4416,
            "time": 5.75,
            "velocity": 0.03937007874015748
          },
          {
            "duration": 0.125,
            "durationTicks": 96,
            "midi": 51,
            "name": "D#3",
            "ticks": 4416,
            "time": 5.75,
            "velocity": 0.03937007874015748
          },
          {
            "duration": 0.125,
            "durationTicks": 96,
            "midi": 51,
            "name": "D#3",
            "ticks": 4512,
            "time": 5.875,
            "velocity": 0.03937007874015748
          },
          {
            "duration": 0.125,
            "durationTicks": 96,
            "midi": 47,
            "name": "B2",
            "ticks": 4512,
            "time": 5.875,
            "velocity": 0.03937007874015748
          },
          {
            "duration": 0.125,
            "durationTicks": 96,
            "midi": 44,
            "name": "G#2",
            "ticks": 4512,
            "time": 5.875,
            "velocity": 0.03937007874015748
          },
          {
            "duration": 0.125,
            "durationTicks": 96,
            "midi": 51,
            "name": "D#3",
            "ticks": 4608,
            "time": 6,
            "velocity": 0.03937007874015748
          },
          {
            "duration": 0.125,
            "durationTicks": 96,
            "midi": 47,
            "name": "B2",
            "ticks": 4608,
            "time": 6,
            "velocity": 0.03937007874015748
          },
          {
            "duration": 0.125,
            "durationTicks": 96,
            "midi": 44,
            "name": "G#2",
            "ticks": 4608,
            "time": 6,
            "velocity": 0.03937007874015748
          },
          {
            "duration": 0.125,
            "durationTicks": 96,
            "midi": 47,
            "name": "B2",
            "ticks": 4704,
            "time": 6.125,
            "velocity": 0.03937007874015748
          },
          {
            "duration": 0.125,
            "durationTicks": 96,
            "midi": 44,
            "name": "G#2",
            "ticks": 4704,
            "time": 6.125,
            "velocity": 0.03937007874015748
          },
          {
            "duration": 0.125,
            "durationTicks": 96,
            "midi": 51,
            "name": "D#3",
            "ticks": 4704,
            "time": 6.125,
            "velocity": 0.03937007874015748
          },
          {
            "duration": 0.125,
            "durationTicks": 96,
            "midi": 51,
            "name": "D#3",
            "ticks": 4800,
            "time": 6.25,
            "velocity": 0.03937007874015748
          },
          {
            "duration": 0.125,
            "durationTicks": 96,
            "midi": 47,
            "name": "B2",
            "ticks": 4800,
            "time": 6.25,
            "velocity": 0.03937007874015748
          },
          {
            "duration": 0.125,
            "durationTicks": 96,
            "midi": 44,
            "name": "G#2",
            "ticks": 4800,
            "time": 6.25,
            "velocity": 0.03937007874015748
          },
          {
            "duration": 0.125,
            "durationTicks": 96,
            "midi": 51,
            "name": "D#3",
            "ticks": 4896,
            "time": 6.375,
            "velocity": 0.03937007874015748
          },
          {
            "duration": 0.125,
            "durationTicks": 96,
            "midi": 44,
            "name": "G#2",
            "ticks": 4896,
            "time": 6.375,
            "velocity": 0.03937007874015748
          },
          {
            "duration": 0.125,
            "durationTicks": 96,
            "midi": 47,
            "name": "B2",
            "ticks": 4896,
            "time": 6.375,
            "velocity": 0.03937007874015748
          },
          {
            "duration": 0.125,
            "durationTicks": 96,
            "midi": 44,
            "name": "G#2",
            "ticks": 4992,
            "time": 6.5,
            "velocity": 0.03937007874015748
          },
          {
            "duration": 0.125,
            "durationTicks": 96,
            "midi": 51,
            "name": "D#3",
            "ticks": 4992,
            "time": 6.5,
            "velocity": 0.03937007874015748
          },
          {
            "duration": 0.125,
            "durationTicks": 96,
            "midi": 47,
            "name": "B2",
            "ticks": 4992,
            "time": 6.5,
            "velocity": 0.03937007874015748
          },
          {
            "duration": 0.125,
            "durationTicks": 96,
            "midi": 51,
            "name": "D#3",
            "ticks": 5088,
            "time": 6.625,
            "velocity": 0.03937007874015748
          },
          {
            "duration": 0.125,
            "durationTicks": 96,
            "midi": 47,
            "name": "B2",
            "ticks": 5088,
            "time": 6.625,
            "velocity": 0.03937007874015748
          },
          {
            "duration": 0.125,
            "durationTicks": 96,
            "midi": 44,
            "name": "G#2",
            "ticks": 5088,
            "time": 6.625,
            "velocity": 0.03937007874015748
          },
          {
            "duration": 0.125,
            "durationTicks": 96,
            "midi": 47,
            "name": "B2",
            "ticks": 5184,
            "time": 6.75,
            "velocity": 0.03937007874015748
          },
          {
            "duration": 0.125,
            "durationTicks": 96,
            "midi": 51,
            "name": "D#3",
            "ticks": 5184,
            "time": 6.75,
            "velocity": 0.03937007874015748
          },
          {
            "duration": 0.125,
            "durationTicks": 96,
            "midi": 44,
            "name": "G#2",
            "ticks": 5184,
            "time": 6.75,
            "velocity": 0.03937007874015748
          },
          {
            "duration": 0.125,
            "durationTicks": 96,
            "midi": 44,
            "name": "G#2",
            "ticks": 5280,
            "time": 6.875,
            "velocity": 0.03937007874015748
          },
          {
            "duration": 0.125,
            "durationTicks": 96,
            "midi": 47,
            "name": "B2",
            "ticks": 5280,
            "time": 6.875,
            "velocity": 0.03937007874015748
          },
          {
            "duration": 0.125,
            "durationTicks": 96,
            "midi": 51,
            "name": "D#3",
            "ticks": 5280,
            "time": 6.875,
            "velocity": 0.03937007874015748
          },
          {
            "duration": 0.125,
            "durationTicks": 96,
            "midi": 47,
            "name": "B2",
            "ticks": 5376,
            "time": 7,
            "velocity": 0.03937007874015748
          },
          {
            "duration": 0.125,
            "durationTicks": 96,
            "midi": 51,
            "name": "D#3",
            "ticks": 5376,
            "time": 7,
            "velocity": 0.03937007874015748
          },
          {
            "duration": 0.125,
            "durationTicks": 96,
            "midi": 44,
            "name": "G#2",
            "ticks": 5376,
            "time": 7,
            "velocity": 0.03937007874015748
          },
          {
            "duration": 0.125,
            "durationTicks": 96,
            "midi": 47,
            "name": "B2",
            "ticks": 5472,
            "time": 7.125,
            "velocity": 0.03937007874015748
          },
          {
            "duration": 0.125,
            "durationTicks": 96,
            "midi": 51,
            "name": "D#3",
            "ticks": 5472,
            "time": 7.125,
            "velocity": 0.03937007874015748
          },
          {
            "duration": 0.125,
            "durationTicks": 96,
            "midi": 44,
            "name": "G#2",
            "ticks": 5472,
            "time": 7.125,
            "velocity": 0.03937007874015748
          },
          {
            "duration": 0.125,
            "durationTicks": 96,
            "midi": 51,
            "name": "D#3",
            "ticks": 5568,
            "time": 7.25,
            "velocity": 0.03937007874015748
          },
          {
            "duration": 0.125,
            "durationTicks": 96,
            "midi": 47,
            "name": "B2",
            "ticks": 5568,
            "time": 7.25,
            "velocity": 0.03937007874015748
          },
          {
            "duration": 0.125,
            "durationTicks": 96,
            "midi": 44,
            "name": "G#2",
            "ticks": 5568,
            "time": 7.25,
            "velocity": 0.03937007874015748
          },
          {
            "duration": 0.125,
            "durationTicks": 96,
            "midi": 44,
            "name": "G#2",
            "ticks": 5664,
            "time": 7.375,
            "velocity": 0.03937007874015748
          },
          {
            "duration": 0.125,
            "durationTicks": 96,
            "midi": 51,
            "name": "D#3",
            "ticks": 5664,
            "time": 7.375,
            "velocity": 0.03937007874015748
          },
          {
            "duration": 0.125,
            "durationTicks": 96,
            "midi": 47,
            "name": "B2",
            "ticks": 5664,
            "time": 7.375,
            "velocity": 0.03937007874015748
          },
          {
            "duration": 0.125,
            "durationTicks": 96,
            "midi": 51,
            "name": "D#3",
            "ticks": 5760,
            "time": 7.5,
            "velocity": 0.03937007874015748
          },
          {
            "duration": 0.125,
            "durationTicks": 96,
            "midi": 47,
            "name": "B2",
            "ticks": 5760,
            "time": 7.5,
            "velocity": 0.03937007874015748
          },
          {
            "duration": 0.125,
            "durationTicks": 96,
            "midi": 44,
            "name": "G#2",
            "ticks": 5760,
            "time": 7.5,
            "velocity": 0.03937007874015748
          },
          {
            "duration": 0.125,
            "durationTicks": 96,
            "midi": 51,
            "name": "D#3",
            "ticks": 5856,
            "time": 7.625,
            "velocity": 0.03937007874015748
          },
          {
            "duration": 0.125,
            "durationTicks": 96,
            "midi": 44,
            "name": "G#2",
            "ticks": 5856,
            "time": 7.625,
            "velocity": 0.03937007874015748
          },
          {
            "duration": 0.125,
            "durationTicks": 96,
            "midi": 47,
            "name": "B2",
            "ticks": 5856,
            "time": 7.625,
            "velocity": 0.03937007874015748
          },
          {
            "duration": 0.125,
            "durationTicks": 96,
            "midi": 47,
            "name": "B2",
            "ticks": 5952,
            "time": 7.75,
            "velocity": 0.03937007874015748
          },
          {
            "duration": 0.125,
            "durationTicks": 96,
            "midi": 44,
            "name": "G#2",
            "ticks": 5952,
            "time": 7.75,
            "velocity": 0.03937007874015748
          },
          {
            "duration": 0.125,
            "durationTicks": 96,
            "midi": 51,
            "name": "D#3",
            "ticks": 5952,
            "time": 7.75,
            "velocity": 0.03937007874015748
          },
          {
            "duration": 0.125,
            "durationTicks": 96,
            "midi": 51,
            "name": "D#3",
            "ticks": 6048,
            "time": 7.875,
            "velocity": 0.03937007874015748
          },
          {
            "duration": 0.125,
            "durationTicks": 96,
            "midi": 44,
            "name": "G#2",
            "ticks": 6048,
            "time": 7.875,
            "velocity": 0.03937007874015748
          },
          {
            "duration": 0.125,
            "durationTicks": 96,
            "midi": 47,
            "name": "B2",
            "ticks": 6048,
            "time": 7.875,
            "velocity": 0.03937007874015748
          },
          {
            "duration": 0.125,
            "durationTicks": 96,
            "midi": 52,
            "name": "E3",
            "ticks": 6144,
            "time": 8,
            "velocity": 0.03937007874015748
          },
          {
            "duration": 0.125,
            "durationTicks": 96,
            "midi": 45,
            "name": "A2",
            "ticks": 6144,
            "time": 8,
            "velocity": 0.03937007874015748
          },
          {
            "duration": 0.125,
            "durationTicks": 96,
            "midi": 49,
            "name": "C#3",
            "ticks": 6144,
            "time": 8,
            "velocity": 0.03937007874015748
          },
          {
            "duration": 0.125,
            "durationTicks": 96,
            "midi": 45,
            "name": "A2",
            "ticks": 6240,
            "time": 8.125,
            "velocity": 0.03937007874015748
          },
          {
            "duration": 0.125,
            "durationTicks": 96,
            "midi": 49,
            "name": "C#3",
            "ticks": 6240,
            "time": 8.125,
            "velocity": 0.03937007874015748
          },
          {
            "duration": 0.125,
            "durationTicks": 96,
            "midi": 52,
            "name": "E3",
            "ticks": 6240,
            "time": 8.125,
            "velocity": 0.03937007874015748
          },
          {
            "duration": 0.125,
            "durationTicks": 96,
            "midi": 52,
            "name": "E3",
            "ticks": 6336,
            "time": 8.25,
            "velocity": 0.03937007874015748
          },
          {
            "duration": 0.125,
            "durationTicks": 96,
            "midi": 49,
            "name": "C#3",
            "ticks": 6336,
            "time": 8.25,
            "velocity": 0.03937007874015748
          },
          {
            "duration": 0.125,
            "durationTicks": 96,
            "midi": 45,
            "name": "A2",
            "ticks": 6336,
            "time": 8.25,
            "velocity": 0.03937007874015748
          },
          {
            "duration": 0.125,
            "durationTicks": 96,
            "midi": 49,
            "name": "C#3",
            "ticks": 6432,
            "time": 8.375,
            "velocity": 0.03937007874015748
          },
          {
            "duration": 0.125,
            "durationTicks": 96,
            "midi": 52,
            "name": "E3",
            "ticks": 6432,
            "time": 8.375,
            "velocity": 0.03937007874015748
          },
          {
            "duration": 0.125,
            "durationTicks": 96,
            "midi": 45,
            "name": "A2",
            "ticks": 6432,
            "time": 8.375,
            "velocity": 0.03937007874015748
          },
          {
            "duration": 0.125,
            "durationTicks": 96,
            "midi": 49,
            "name": "C#3",
            "ticks": 6528,
            "time": 8.5,
            "velocity": 0.03937007874015748
          },
          {
            "duration": 0.125,
            "durationTicks": 96,
            "midi": 52,
            "name": "E3",
            "ticks": 6528,
            "time": 8.5,
            "velocity": 0.03937007874015748
          },
          {
            "duration": 0.125,
            "durationTicks": 96,
            "midi": 45,
            "name": "A2",
            "ticks": 6528,
            "time": 8.5,
            "velocity": 0.03937007874015748
          },
          {
            "duration": 0.125,
            "durationTicks": 96,
            "midi": 45,
            "name": "A2",
            "ticks": 6624,
            "time": 8.625,
            "velocity": 0.03937007874015748
          },
          {
            "duration": 0.125,
            "durationTicks": 96,
            "midi": 52,
            "name": "E3",
            "ticks": 6624,
            "time": 8.625,
            "velocity": 0.03937007874015748
          },
          {
            "duration": 0.125,
            "durationTicks": 96,
            "midi": 49,
            "name": "C#3",
            "ticks": 6624,
            "time": 8.625,
            "velocity": 0.03937007874015748
          },
          {
            "duration": 0.125,
            "durationTicks": 96,
            "midi": 49,
            "name": "C#3",
            "ticks": 6720,
            "time": 8.75,
            "velocity": 0.03937007874015748
          },
          {
            "duration": 0.125,
            "durationTicks": 96,
            "midi": 52,
            "name": "E3",
            "ticks": 6720,
            "time": 8.75,
            "velocity": 0.03937007874015748
          },
          {
            "duration": 0.125,
            "durationTicks": 96,
            "midi": 45,
            "name": "A2",
            "ticks": 6720,
            "time": 8.75,
            "velocity": 0.03937007874015748
          },
          {
            "duration": 0.125,
            "durationTicks": 96,
            "midi": 45,
            "name": "A2",
            "ticks": 6816,
            "time": 8.875,
            "velocity": 0.03937007874015748
          },
          {
            "duration": 0.125,
            "durationTicks": 96,
            "midi": 49,
            "name": "C#3",
            "ticks": 6816,
            "time": 8.875,
            "velocity": 0.03937007874015748
          },
          {
            "duration": 0.125,
            "durationTicks": 96,
            "midi": 52,
            "name": "E3",
            "ticks": 6816,
            "time": 8.875,
            "velocity": 0.03937007874015748
          },
          {
            "duration": 0.125,
            "durationTicks": 96,
            "midi": 49,
            "name": "C#3",
            "ticks": 6912,
            "time": 9,
            "velocity": 0.03937007874015748
          },
          {
            "duration": 0.125,
            "durationTicks": 96,
            "midi": 45,
            "name": "A2",
            "ticks": 6912,
            "time": 9,
            "velocity": 0.03937007874015748
          },
          {
            "duration": 0.125,
            "durationTicks": 96,
            "midi": 52,
            "name": "E3",
            "ticks": 6912,
            "time": 9,
            "velocity": 0.03937007874015748
          },
          {
            "duration": 0.125,
            "durationTicks": 96,
            "midi": 49,
            "name": "C#3",
            "ticks": 7008,
            "time": 9.125,
            "velocity": 0.03937007874015748
          },
          {
            "duration": 0.125,
            "durationTicks": 96,
            "midi": 52,
            "name": "E3",
            "ticks": 7008,
            "time": 9.125,
            "velocity": 0.03937007874015748
          },
          {
            "duration": 0.125,
            "durationTicks": 96,
            "midi": 45,
            "name": "A2",
            "ticks": 7008,
            "time": 9.125,
            "velocity": 0.03937007874015748
          },
          {
            "duration": 0.125,
            "durationTicks": 96,
            "midi": 49,
            "name": "C#3",
            "ticks": 7104,
            "time": 9.25,
            "velocity": 0.03937007874015748
          },
          {
            "duration": 0.125,
            "durationTicks": 96,
            "midi": 45,
            "name": "A2",
            "ticks": 7104,
            "time": 9.25,
            "velocity": 0.03937007874015748
          },
          {
            "duration": 0.125,
            "durationTicks": 96,
            "midi": 52,
            "name": "E3",
            "ticks": 7104,
            "time": 9.25,
            "velocity": 0.03937007874015748
          },
          {
            "duration": 0.125,
            "durationTicks": 96,
            "midi": 45,
            "name": "A2",
            "ticks": 7200,
            "time": 9.375,
            "velocity": 0.03937007874015748
          },
          {
            "duration": 0.125,
            "durationTicks": 96,
            "midi": 52,
            "name": "E3",
            "ticks": 7200,
            "time": 9.375,
            "velocity": 0.03937007874015748
          },
          {
            "duration": 0.125,
            "durationTicks": 96,
            "midi": 49,
            "name": "C#3",
            "ticks": 7200,
            "time": 9.375,
            "velocity": 0.03937007874015748
          },
          {
            "duration": 0.125,
            "durationTicks": 96,
            "midi": 52,
            "name": "E3",
            "ticks": 7296,
            "time": 9.5,
            "velocity": 0.03937007874015748
          },
          {
            "duration": 0.125,
            "durationTicks": 96,
            "midi": 45,
            "name": "A2",
            "ticks": 7296,
            "time": 9.5,
            "velocity": 0.03937007874015748
          },
          {
            "duration": 0.125,
            "durationTicks": 96,
            "midi": 49,
            "name": "C#3",
            "ticks": 7296,
            "time": 9.5,
            "velocity": 0.03937007874015748
          },
          {
            "duration": 0.125,
            "durationTicks": 96,
            "midi": 45,
            "name": "A2",
            "ticks": 7392,
            "time": 9.625,
            "velocity": 0.03937007874015748
          },
          {
            "duration": 0.125,
            "durationTicks": 96,
            "midi": 52,
            "name": "E3",
            "ticks": 7392,
            "time": 9.625,
            "velocity": 0.03937007874015748
          },
          {
            "duration": 0.125,
            "durationTicks": 96,
            "midi": 49,
            "name": "C#3",
            "ticks": 7392,
            "time": 9.625,
            "velocity": 0.03937007874015748
          },
          {
            "duration": 0.125,
            "durationTicks": 96,
            "midi": 49,
            "name": "C#3",
            "ticks": 7488,
            "time": 9.75,
            "velocity": 0.03937007874015748
          },
          {
            "duration": 0.125,
            "durationTicks": 96,
            "midi": 52,
            "name": "E3",
            "ticks": 7488,
            "time": 9.75,
            "velocity": 0.03937007874015748
          },
          {
            "duration": 0.125,
            "durationTicks": 96,
            "midi": 45,
            "name": "A2",
            "ticks": 7488,
            "time": 9.75,
            "velocity": 0.03937007874015748
          },
          {
            "duration": 0.125,
            "durationTicks": 96,
            "midi": 52,
            "name": "E3",
            "ticks": 7584,
            "time": 9.875,
            "velocity": 0.03937007874015748
          },
          {
            "duration": 0.125,
            "durationTicks": 96,
            "midi": 45,
            "name": "A2",
            "ticks": 7584,
            "time": 9.875,
            "velocity": 0.03937007874015748
          },
          {
            "duration": 0.125,
            "durationTicks": 96,
            "midi": 49,
            "name": "C#3",
            "ticks": 7584,
            "time": 9.875,
            "velocity": 0.03937007874015748
          },
          {
            "duration": 0.125,
            "durationTicks": 96,
            "midi": 45,
            "name": "A2",
            "ticks": 7680,
            "time": 10,
            "velocity": 0.03937007874015748
          },
          {
            "duration": 0.125,
            "durationTicks": 96,
            "midi": 52,
            "name": "E3",
            "ticks": 7680,
            "time": 10,
            "velocity": 0.03937007874015748
          },
          {
            "duration": 0.125,
            "durationTicks": 96,
            "midi": 49,
            "name": "C#3",
            "ticks": 7680,
            "time": 10,
            "velocity": 0.03937007874015748
          },
          {
            "duration": 0.125,
            "durationTicks": 96,
            "midi": 52,
            "name": "E3",
            "ticks": 7776,
            "time": 10.125,
            "velocity": 0.03937007874015748
          },
          {
            "duration": 0.125,
            "durationTicks": 96,
            "midi": 49,
            "name": "C#3",
            "ticks": 7776,
            "time": 10.125,
            "velocity": 0.03937007874015748
          },
          {
            "duration": 0.125,
            "durationTicks": 96,
            "midi": 45,
            "name": "A2",
            "ticks": 7776,
            "time": 10.125,
            "velocity": 0.03937007874015748
          },
          {
            "duration": 0.125,
            "durationTicks": 96,
            "midi": 45,
            "name": "A2",
            "ticks": 7872,
            "time": 10.25,
            "velocity": 0.03937007874015748
          },
          {
            "duration": 0.125,
            "durationTicks": 96,
            "midi": 49,
            "name": "C#3",
            "ticks": 7872,
            "time": 10.25,
            "velocity": 0.03937007874015748
          },
          {
            "duration": 0.125,
            "durationTicks": 96,
            "midi": 52,
            "name": "E3",
            "ticks": 7872,
            "time": 10.25,
            "velocity": 0.03937007874015748
          },
          {
            "duration": 0.125,
            "durationTicks": 96,
            "midi": 45,
            "name": "A2",
            "ticks": 7968,
            "time": 10.375,
            "velocity": 0.03937007874015748
          },
          {
            "duration": 0.125,
            "durationTicks": 96,
            "midi": 49,
            "name": "C#3",
            "ticks": 7968,
            "time": 10.375,
            "velocity": 0.03937007874015748
          },
          {
            "duration": 0.125,
            "durationTicks": 96,
            "midi": 52,
            "name": "E3",
            "ticks": 7968,
            "time": 10.375,
            "velocity": 0.03937007874015748
          },
          {
            "duration": 0.125,
            "durationTicks": 96,
            "midi": 52,
            "name": "E3",
            "ticks": 8064,
            "time": 10.5,
            "velocity": 0.03937007874015748
          },
          {
            "duration": 0.125,
            "durationTicks": 96,
            "midi": 45,
            "name": "A2",
            "ticks": 8064,
            "time": 10.5,
            "velocity": 0.03937007874015748
          },
          {
            "duration": 0.125,
            "durationTicks": 96,
            "midi": 49,
            "name": "C#3",
            "ticks": 8064,
            "time": 10.5,
            "velocity": 0.03937007874015748
          },
          {
            "duration": 0.125,
            "durationTicks": 96,
            "midi": 52,
            "name": "E3",
            "ticks": 8160,
            "time": 10.625,
            "velocity": 0.03937007874015748
          },
          {
            "duration": 0.125,
            "durationTicks": 96,
            "midi": 49,
            "name": "C#3",
            "ticks": 8160,
            "time": 10.625,
            "velocity": 0.03937007874015748
          },
          {
            "duration": 0.125,
            "durationTicks": 96,
            "midi": 45,
            "name": "A2",
            "ticks": 8160,
            "time": 10.625,
            "velocity": 0.03937007874015748
          },
          {
            "duration": 0.125,
            "durationTicks": 96,
            "midi": 45,
            "name": "A2",
            "ticks": 8256,
            "time": 10.75,
            "velocity": 0.03937007874015748
          },
          {
            "duration": 0.125,
            "durationTicks": 96,
            "midi": 49,
            "name": "C#3",
            "ticks": 8256,
            "time": 10.75,
            "velocity": 0.03937007874015748
          },
          {
            "duration": 0.125,
            "durationTicks": 96,
            "midi": 52,
            "name": "E3",
            "ticks": 8256,
            "time": 10.75,
            "velocity": 0.03937007874015748
          },
          {
            "duration": 0.125,
            "durationTicks": 96,
            "midi": 45,
            "name": "A2",
            "ticks": 8352,
            "time": 10.875,
            "velocity": 0.03937007874015748
          },
          {
            "duration": 0.125,
            "durationTicks": 96,
            "midi": 49,
            "name": "C#3",
            "ticks": 8352,
            "time": 10.875,
            "velocity": 0.03937007874015748
          },
          {
            "duration": 0.125,
            "durationTicks": 96,
            "midi": 52,
            "name": "E3",
            "ticks": 8352,
            "time": 10.875,
            "velocity": 0.03937007874015748
          },
          {
            "duration": 0.125,
            "durationTicks": 96,
            "midi": 45,
            "name": "A2",
            "ticks": 8448,
            "time": 11,
            "velocity": 0.03937007874015748
          },
          {
            "duration": 0.125,
            "durationTicks": 96,
            "midi": 52,
            "name": "E3",
            "ticks": 8448,
            "time": 11,
            "velocity": 0.03937007874015748
          },
          {
            "duration": 0.125,
            "durationTicks": 96,
            "midi": 49,
            "name": "C#3",
            "ticks": 8448,
            "time": 11,
            "velocity": 0.03937007874015748
          },
          {
            "duration": 0.125,
            "durationTicks": 96,
            "midi": 45,
            "name": "A2",
            "ticks": 8544,
            "time": 11.125,
            "velocity": 0.03937007874015748
          },
          {
            "duration": 0.125,
            "durationTicks": 96,
            "midi": 49,
            "name": "C#3",
            "ticks": 8544,
            "time": 11.125,
            "velocity": 0.03937007874015748
          },
          {
            "duration": 0.125,
            "durationTicks": 96,
            "midi": 52,
            "name": "E3",
            "ticks": 8544,
            "time": 11.125,
            "velocity": 0.03937007874015748
          },
          {
            "duration": 0.125,
            "durationTicks": 96,
            "midi": 52,
            "name": "E3",
            "ticks": 8640,
            "time": 11.25,
            "velocity": 0.03937007874015748
          },
          {
            "duration": 0.125,
            "durationTicks": 96,
            "midi": 45,
            "name": "A2",
            "ticks": 8640,
            "time": 11.25,
            "velocity": 0.03937007874015748
          },
          {
            "duration": 0.125,
            "durationTicks": 96,
            "midi": 49,
            "name": "C#3",
            "ticks": 8640,
            "time": 11.25,
            "velocity": 0.03937007874015748
          },
          {
            "duration": 0.125,
            "durationTicks": 96,
            "midi": 45,
            "name": "A2",
            "ticks": 8736,
            "time": 11.375,
            "velocity": 0.03937007874015748
          },
          {
            "duration": 0.125,
            "durationTicks": 96,
            "midi": 49,
            "name": "C#3",
            "ticks": 8736,
            "time": 11.375,
            "velocity": 0.03937007874015748
          },
          {
            "duration": 0.125,
            "durationTicks": 96,
            "midi": 52,
            "name": "E3",
            "ticks": 8736,
            "time": 11.375,
            "velocity": 0.03937007874015748
          },
          {
            "duration": 0.125,
            "durationTicks": 96,
            "midi": 49,
            "name": "C#3",
            "ticks": 8832,
            "time": 11.5,
            "velocity": 0.03937007874015748
          },
          {
            "duration": 0.125,
            "durationTicks": 96,
            "midi": 52,
            "name": "E3",
            "ticks": 8832,
            "time": 11.5,
            "velocity": 0.03937007874015748
          },
          {
            "duration": 0.125,
            "durationTicks": 96,
            "midi": 45,
            "name": "A2",
            "ticks": 8832,
            "time": 11.5,
            "velocity": 0.03937007874015748
          },
          {
            "duration": 0.125,
            "durationTicks": 96,
            "midi": 52,
            "name": "E3",
            "ticks": 8928,
            "time": 11.625,
            "velocity": 0.03937007874015748
          },
          {
            "duration": 0.125,
            "durationTicks": 96,
            "midi": 45,
            "name": "A2",
            "ticks": 8928,
            "time": 11.625,
            "velocity": 0.03937007874015748
          },
          {
            "duration": 0.125,
            "durationTicks": 96,
            "midi": 49,
            "name": "C#3",
            "ticks": 8928,
            "time": 11.625,
            "velocity": 0.03937007874015748
          },
          {
            "duration": 0.125,
            "durationTicks": 96,
            "midi": 49,
            "name": "C#3",
            "ticks": 9024,
            "time": 11.75,
            "velocity": 0.03937007874015748
          },
          {
            "duration": 0.125,
            "durationTicks": 96,
            "midi": 52,
            "name": "E3",
            "ticks": 9024,
            "time": 11.75,
            "velocity": 0.03937007874015748
          },
          {
            "duration": 0.125,
            "durationTicks": 96,
            "midi": 45,
            "name": "A2",
            "ticks": 9024,
            "time": 11.75,
            "velocity": 0.03937007874015748
          },
          {
            "duration": 0.125,
            "durationTicks": 96,
            "midi": 45,
            "name": "A2",
            "ticks": 9120,
            "time": 11.875,
            "velocity": 0.03937007874015748
          },
          {
            "duration": 0.125,
            "durationTicks": 96,
            "midi": 52,
            "name": "E3",
            "ticks": 9120,
            "time": 11.875,
            "velocity": 0.03937007874015748
          },
          {
            "duration": 0.125,
            "durationTicks": 96,
            "midi": 49,
            "name": "C#3",
            "ticks": 9120,
            "time": 11.875,
            "velocity": 0.03937007874015748
          },
          {
            "duration": 0.125,
            "durationTicks": 96,
            "midi": 49,
            "name": "C#3",
            "ticks": 9216,
            "time": 12,
            "velocity": 0.03937007874015748
          },
          {
            "duration": 0.125,
            "durationTicks": 96,
            "midi": 54,
            "name": "F#3",
            "ticks": 9216,
            "time": 12,
            "velocity": 0.03937007874015748
          },
          {
            "duration": 0.125,
            "durationTicks": 96,
            "midi": 46,
            "name": "A#2",
            "ticks": 9216,
            "time": 12,
            "velocity": 0.03937007874015748
          },
          {
            "duration": 0.125,
            "durationTicks": 96,
            "midi": 54,
            "name": "F#3",
            "ticks": 9312,
            "time": 12.125,
            "velocity": 0.03937007874015748
          },
          {
            "duration": 0.125,
            "durationTicks": 96,
            "midi": 46,
            "name": "A#2",
            "ticks": 9312,
            "time": 12.125,
            "velocity": 0.03937007874015748
          },
          {
            "duration": 0.125,
            "durationTicks": 96,
            "midi": 49,
            "name": "C#3",
            "ticks": 9312,
            "time": 12.125,
            "velocity": 0.03937007874015748
          },
          {
            "duration": 0.125,
            "durationTicks": 96,
            "midi": 54,
            "name": "F#3",
            "ticks": 9408,
            "time": 12.25,
            "velocity": 0.03937007874015748
          },
          {
            "duration": 0.125,
            "durationTicks": 96,
            "midi": 49,
            "name": "C#3",
            "ticks": 9408,
            "time": 12.25,
            "velocity": 0.03937007874015748
          },
          {
            "duration": 0.125,
            "durationTicks": 96,
            "midi": 46,
            "name": "A#2",
            "ticks": 9408,
            "time": 12.25,
            "velocity": 0.03937007874015748
          },
          {
            "duration": 0.125,
            "durationTicks": 96,
            "midi": 49,
            "name": "C#3",
            "ticks": 9504,
            "time": 12.375,
            "velocity": 0.03937007874015748
          },
          {
            "duration": 0.125,
            "durationTicks": 96,
            "midi": 54,
            "name": "F#3",
            "ticks": 9504,
            "time": 12.375,
            "velocity": 0.03937007874015748
          },
          {
            "duration": 0.125,
            "durationTicks": 96,
            "midi": 46,
            "name": "A#2",
            "ticks": 9504,
            "time": 12.375,
            "velocity": 0.03937007874015748
          },
          {
            "duration": 0.125,
            "durationTicks": 96,
            "midi": 54,
            "name": "F#3",
            "ticks": 9600,
            "time": 12.5,
            "velocity": 0.03937007874015748
          },
          {
            "duration": 0.125,
            "durationTicks": 96,
            "midi": 49,
            "name": "C#3",
            "ticks": 9600,
            "time": 12.5,
            "velocity": 0.03937007874015748
          },
          {
            "duration": 0.125,
            "durationTicks": 96,
            "midi": 46,
            "name": "A#2",
            "ticks": 9600,
            "time": 12.5,
            "velocity": 0.03937007874015748
          },
          {
            "duration": 0.125,
            "durationTicks": 96,
            "midi": 54,
            "name": "F#3",
            "ticks": 9696,
            "time": 12.625,
            "velocity": 0.03937007874015748
          },
          {
            "duration": 0.125,
            "durationTicks": 96,
            "midi": 46,
            "name": "A#2",
            "ticks": 9696,
            "time": 12.625,
            "velocity": 0.03937007874015748
          },
          {
            "duration": 0.125,
            "durationTicks": 96,
            "midi": 49,
            "name": "C#3",
            "ticks": 9696,
            "time": 12.625,
            "velocity": 0.03937007874015748
          },
          {
            "duration": 0.125,
            "durationTicks": 96,
            "midi": 46,
            "name": "A#2",
            "ticks": 9792,
            "time": 12.75,
            "velocity": 0.03937007874015748
          },
          {
            "duration": 0.125,
            "durationTicks": 96,
            "midi": 54,
            "name": "F#3",
            "ticks": 9792,
            "time": 12.75,
            "velocity": 0.03937007874015748
          },
          {
            "duration": 0.125,
            "durationTicks": 96,
            "midi": 49,
            "name": "C#3",
            "ticks": 9792,
            "time": 12.75,
            "velocity": 0.03937007874015748
          },
          {
            "duration": 0.125,
            "durationTicks": 96,
            "midi": 46,
            "name": "A#2",
            "ticks": 9888,
            "time": 12.875,
            "velocity": 0.03937007874015748
          },
          {
            "duration": 0.125,
            "durationTicks": 96,
            "midi": 54,
            "name": "F#3",
            "ticks": 9888,
            "time": 12.875,
            "velocity": 0.03937007874015748
          },
          {
            "duration": 0.125,
            "durationTicks": 96,
            "midi": 49,
            "name": "C#3",
            "ticks": 9888,
            "time": 12.875,
            "velocity": 0.03937007874015748
          },
          {
            "duration": 0.125,
            "durationTicks": 96,
            "midi": 46,
            "name": "A#2",
            "ticks": 9984,
            "time": 13,
            "velocity": 0.03937007874015748
          },
          {
            "duration": 0.125,
            "durationTicks": 96,
            "midi": 49,
            "name": "C#3",
            "ticks": 9984,
            "time": 13,
            "velocity": 0.03937007874015748
          },
          {
            "duration": 0.125,
            "durationTicks": 96,
            "midi": 54,
            "name": "F#3",
            "ticks": 9984,
            "time": 13,
            "velocity": 0.03937007874015748
          },
          {
            "duration": 0.125,
            "durationTicks": 96,
            "midi": 49,
            "name": "C#3",
            "ticks": 10080,
            "time": 13.125,
            "velocity": 0.03937007874015748
          },
          {
            "duration": 0.125,
            "durationTicks": 96,
            "midi": 54,
            "name": "F#3",
            "ticks": 10080,
            "time": 13.125,
            "velocity": 0.03937007874015748
          },
          {
            "duration": 0.125,
            "durationTicks": 96,
            "midi": 46,
            "name": "A#2",
            "ticks": 10080,
            "time": 13.125,
            "velocity": 0.03937007874015748
          },
          {
            "duration": 0.125,
            "durationTicks": 96,
            "midi": 49,
            "name": "C#3",
            "ticks": 10176,
            "time": 13.25,
            "velocity": 0.03937007874015748
          },
          {
            "duration": 0.125,
            "durationTicks": 96,
            "midi": 46,
            "name": "A#2",
            "ticks": 10176,
            "time": 13.25,
            "velocity": 0.03937007874015748
          },
          {
            "duration": 0.125,
            "durationTicks": 96,
            "midi": 54,
            "name": "F#3",
            "ticks": 10176,
            "time": 13.25,
            "velocity": 0.03937007874015748
          },
          {
            "duration": 0.125,
            "durationTicks": 96,
            "midi": 46,
            "name": "A#2",
            "ticks": 10272,
            "time": 13.375,
            "velocity": 0.03937007874015748
          },
          {
            "duration": 0.125,
            "durationTicks": 96,
            "midi": 49,
            "name": "C#3",
            "ticks": 10272,
            "time": 13.375,
            "velocity": 0.03937007874015748
          },
          {
            "duration": 0.125,
            "durationTicks": 96,
            "midi": 54,
            "name": "F#3",
            "ticks": 10272,
            "time": 13.375,
            "velocity": 0.03937007874015748
          },
          {
            "duration": 0.125,
            "durationTicks": 96,
            "midi": 46,
            "name": "A#2",
            "ticks": 10368,
            "time": 13.5,
            "velocity": 0.03937007874015748
          },
          {
            "duration": 0.125,
            "durationTicks": 96,
            "midi": 49,
            "name": "C#3",
            "ticks": 10368,
            "time": 13.5,
            "velocity": 0.03937007874015748
          },
          {
            "duration": 0.125,
            "durationTicks": 96,
            "midi": 54,
            "name": "F#3",
            "ticks": 10368,
            "time": 13.5,
            "velocity": 0.03937007874015748
          },
          {
            "duration": 0.125,
            "durationTicks": 96,
            "midi": 46,
            "name": "A#2",
            "ticks": 10464,
            "time": 13.625,
            "velocity": 0.03937007874015748
          },
          {
            "duration": 0.125,
            "durationTicks": 96,
            "midi": 49,
            "name": "C#3",
            "ticks": 10464,
            "time": 13.625,
            "velocity": 0.03937007874015748
          },
          {
            "duration": 0.125,
            "durationTicks": 96,
            "midi": 54,
            "name": "F#3",
            "ticks": 10464,
            "time": 13.625,
            "velocity": 0.03937007874015748
          },
          {
            "duration": 0.125,
            "durationTicks": 96,
            "midi": 46,
            "name": "A#2",
            "ticks": 10560,
            "time": 13.75,
            "velocity": 0.03937007874015748
          },
          {
            "duration": 0.125,
            "durationTicks": 96,
            "midi": 49,
            "name": "C#3",
            "ticks": 10560,
            "time": 13.75,
            "velocity": 0.03937007874015748
          },
          {
            "duration": 0.125,
            "durationTicks": 96,
            "midi": 54,
            "name": "F#3",
            "ticks": 10560,
            "time": 13.75,
            "velocity": 0.03937007874015748
          },
          {
            "duration": 0.125,
            "durationTicks": 96,
            "midi": 54,
            "name": "F#3",
            "ticks": 10656,
            "time": 13.875,
            "velocity": 0.03937007874015748
          },
          {
            "duration": 0.125,
            "durationTicks": 96,
            "midi": 46,
            "name": "A#2",
            "ticks": 10656,
            "time": 13.875,
            "velocity": 0.03937007874015748
          },
          {
            "duration": 0.125,
            "durationTicks": 96,
            "midi": 49,
            "name": "C#3",
            "ticks": 10656,
            "time": 13.875,
            "velocity": 0.03937007874015748
          },
          {
            "duration": 0.125,
            "durationTicks": 96,
            "midi": 46,
            "name": "A#2",
            "ticks": 10752,
            "time": 14,
            "velocity": 0.03937007874015748
          },
          {
            "duration": 0.125,
            "durationTicks": 96,
            "midi": 49,
            "name": "C#3",
            "ticks": 10752,
            "time": 14,
            "velocity": 0.03937007874015748
          },
          {
            "duration": 0.125,
            "durationTicks": 96,
            "midi": 54,
            "name": "F#3",
            "ticks": 10752,
            "time": 14,
            "velocity": 0.03937007874015748
          },
          {
            "duration": 0.125,
            "durationTicks": 96,
            "midi": 49,
            "name": "C#3",
            "ticks": 10848,
            "time": 14.125,
            "velocity": 0.03937007874015748
          },
          {
            "duration": 0.125,
            "durationTicks": 96,
            "midi": 54,
            "name": "F#3",
            "ticks": 10848,
            "time": 14.125,
            "velocity": 0.03937007874015748
          },
          {
            "duration": 0.125,
            "durationTicks": 96,
            "midi": 46,
            "name": "A#2",
            "ticks": 10848,
            "time": 14.125,
            "velocity": 0.03937007874015748
          },
          {
            "duration": 0.125,
            "durationTicks": 96,
            "midi": 54,
            "name": "F#3",
            "ticks": 10944,
            "time": 14.25,
            "velocity": 0.03937007874015748
          },
          {
            "duration": 0.125,
            "durationTicks": 96,
            "midi": 46,
            "name": "A#2",
            "ticks": 10944,
            "time": 14.25,
            "velocity": 0.03937007874015748
          },
          {
            "duration": 0.125,
            "durationTicks": 96,
            "midi": 49,
            "name": "C#3",
            "ticks": 10944,
            "time": 14.25,
            "velocity": 0.03937007874015748
          },
          {
            "duration": 0.125,
            "durationTicks": 96,
            "midi": 46,
            "name": "A#2",
            "ticks": 11040,
            "time": 14.375,
            "velocity": 0.03937007874015748
          },
          {
            "duration": 0.125,
            "durationTicks": 96,
            "midi": 49,
            "name": "C#3",
            "ticks": 11040,
            "time": 14.375,
            "velocity": 0.03937007874015748
          },
          {
            "duration": 0.125,
            "durationTicks": 96,
            "midi": 54,
            "name": "F#3",
            "ticks": 11040,
            "time": 14.375,
            "velocity": 0.03937007874015748
          },
          {
            "duration": 0.125,
            "durationTicks": 96,
            "midi": 46,
            "name": "A#2",
            "ticks": 11136,
            "time": 14.5,
            "velocity": 0.03937007874015748
          },
          {
            "duration": 0.125,
            "durationTicks": 96,
            "midi": 49,
            "name": "C#3",
            "ticks": 11136,
            "time": 14.5,
            "velocity": 0.03937007874015748
          },
          {
            "duration": 0.125,
            "durationTicks": 96,
            "midi": 54,
            "name": "F#3",
            "ticks": 11136,
            "time": 14.5,
            "velocity": 0.03937007874015748
          },
          {
            "duration": 0.125,
            "durationTicks": 96,
            "midi": 49,
            "name": "C#3",
            "ticks": 11232,
            "time": 14.625,
            "velocity": 0.03937007874015748
          },
          {
            "duration": 0.125,
            "durationTicks": 96,
            "midi": 46,
            "name": "A#2",
            "ticks": 11232,
            "time": 14.625,
            "velocity": 0.03937007874015748
          },
          {
            "duration": 0.125,
            "durationTicks": 96,
            "midi": 54,
            "name": "F#3",
            "ticks": 11232,
            "time": 14.625,
            "velocity": 0.03937007874015748
          },
          {
            "duration": 0.125,
            "durationTicks": 96,
            "midi": 46,
            "name": "A#2",
            "ticks": 11328,
            "time": 14.75,
            "velocity": 0.03937007874015748
          },
          {
            "duration": 0.125,
            "durationTicks": 96,
            "midi": 49,
            "name": "C#3",
            "ticks": 11328,
            "time": 14.75,
            "velocity": 0.03937007874015748
          },
          {
            "duration": 0.125,
            "durationTicks": 96,
            "midi": 54,
            "name": "F#3",
            "ticks": 11328,
            "time": 14.75,
            "velocity": 0.03937007874015748
          },
          {
            "duration": 0.125,
            "durationTicks": 96,
            "midi": 46,
            "name": "A#2",
            "ticks": 11424,
            "time": 14.875,
            "velocity": 0.03937007874015748
          },
          {
            "duration": 0.125,
            "durationTicks": 96,
            "midi": 49,
            "name": "C#3",
            "ticks": 11424,
            "time": 14.875,
            "velocity": 0.03937007874015748
          },
          {
            "duration": 0.125,
            "durationTicks": 96,
            "midi": 54,
            "name": "F#3",
            "ticks": 11424,
            "time": 14.875,
            "velocity": 0.03937007874015748
          },
          {
            "duration": 0.125,
            "durationTicks": 96,
            "midi": 54,
            "name": "F#3",
            "ticks": 11520,
            "time": 15,
            "velocity": 0.03937007874015748
          },
          {
            "duration": 0.125,
            "durationTicks": 96,
            "midi": 46,
            "name": "A#2",
            "ticks": 11520,
            "time": 15,
            "velocity": 0.03937007874015748
          },
          {
            "duration": 0.125,
            "durationTicks": 96,
            "midi": 49,
            "name": "C#3",
            "ticks": 11520,
            "time": 15,
            "velocity": 0.03937007874015748
          },
          {
            "duration": 0.125,
            "durationTicks": 96,
            "midi": 46,
            "name": "A#2",
            "ticks": 11616,
            "time": 15.125,
            "velocity": 0.03937007874015748
          },
          {
            "duration": 0.125,
            "durationTicks": 96,
            "midi": 49,
            "name": "C#3",
            "ticks": 11616,
            "time": 15.125,
            "velocity": 0.03937007874015748
          },
          {
            "duration": 0.125,
            "durationTicks": 96,
            "midi": 54,
            "name": "F#3",
            "ticks": 11616,
            "time": 15.125,
            "velocity": 0.03937007874015748
          },
          {
            "duration": 0.125,
            "durationTicks": 96,
            "midi": 49,
            "name": "C#3",
            "ticks": 11712,
            "time": 15.25,
            "velocity": 0.03937007874015748
          },
          {
            "duration": 0.125,
            "durationTicks": 96,
            "midi": 54,
            "name": "F#3",
            "ticks": 11712,
            "time": 15.25,
            "velocity": 0.03937007874015748
          },
          {
            "duration": 0.125,
            "durationTicks": 96,
            "midi": 46,
            "name": "A#2",
            "ticks": 11712,
            "time": 15.25,
            "velocity": 0.03937007874015748
          },
          {
            "duration": 0.125,
            "durationTicks": 96,
            "midi": 54,
            "name": "F#3",
            "ticks": 11808,
            "time": 15.375,
            "velocity": 0.03937007874015748
          },
          {
            "duration": 0.125,
            "durationTicks": 96,
            "midi": 49,
            "name": "C#3",
            "ticks": 11808,
            "time": 15.375,
            "velocity": 0.03937007874015748
          },
          {
            "duration": 0.125,
            "durationTicks": 96,
            "midi": 46,
            "name": "A#2",
            "ticks": 11808,
            "time": 15.375,
            "velocity": 0.03937007874015748
          },
          {
            "duration": 0.125,
            "durationTicks": 96,
            "midi": 46,
            "name": "A#2",
            "ticks": 11904,
            "time": 15.5,
            "velocity": 0.03937007874015748
          },
          {
            "duration": 0.125,
            "durationTicks": 96,
            "midi": 54,
            "name": "F#3",
            "ticks": 11904,
            "time": 15.5,
            "velocity": 0.03937007874015748
          },
          {
            "duration": 0.125,
            "durationTicks": 96,
            "midi": 49,
            "name": "C#3",
            "ticks": 11904,
            "time": 15.5,
            "velocity": 0.03937007874015748
          },
          {
            "duration": 0.125,
            "durationTicks": 96,
            "midi": 49,
            "name": "C#3",
            "ticks": 12000,
            "time": 15.625,
            "velocity": 0.03937007874015748
          },
          {
            "duration": 0.125,
            "durationTicks": 96,
            "midi": 46,
            "name": "A#2",
            "ticks": 12000,
            "time": 15.625,
            "velocity": 0.03937007874015748
          },
          {
            "duration": 0.125,
            "durationTicks": 96,
            "midi": 54,
            "name": "F#3",
            "ticks": 12000,
            "time": 15.625,
            "velocity": 0.03937007874015748
          },
          {
            "duration": 0.125,
            "durationTicks": 96,
            "midi": 54,
            "name": "F#3",
            "ticks": 12096,
            "time": 15.75,
            "velocity": 0.03937007874015748
          },
          {
            "duration": 0.125,
            "durationTicks": 96,
            "midi": 49,
            "name": "C#3",
            "ticks": 12096,
            "time": 15.75,
            "velocity": 0.03937007874015748
          },
          {
            "duration": 0.125,
            "durationTicks": 96,
            "midi": 46,
            "name": "A#2",
            "ticks": 12096,
            "time": 15.75,
            "velocity": 0.03937007874015748
          },
          {
            "duration": 0.125,
            "durationTicks": 96,
            "midi": 49,
            "name": "C#3",
            "ticks": 12192,
            "time": 15.875,
            "velocity": 0.03937007874015748
          },
          {
            "duration": 0.125,
            "durationTicks": 96,
            "midi": 46,
            "name": "A#2",
            "ticks": 12192,
            "time": 15.875,
            "velocity": 0.03937007874015748
          },
          {
            "duration": 0.125,
            "durationTicks": 96,
            "midi": 54,
            "name": "F#3",
            "ticks": 12192,
            "time": 15.875,
            "velocity": 0.03937007874015748
          },
          {
            "duration": 0.125,
            "durationTicks": 96,
            "midi": 52,
            "name": "E3",
            "ticks": 12288,
            "time": 16,
            "velocity": 0.03937007874015748
          },
          {
            "duration": 0.125,
            "durationTicks": 96,
            "midi": 49,
            "name": "C#3",
            "ticks": 12288,
            "time": 16,
            "velocity": 0.03937007874015748
          },
          {
            "duration": 0.125,
            "durationTicks": 96,
            "midi": 55,
            "name": "G3",
            "ticks": 12288,
            "time": 16,
            "velocity": 0.03937007874015748
          },
          {
            "duration": 0.125,
            "durationTicks": 96,
            "midi": 52,
            "name": "E3",
            "ticks": 12384,
            "time": 16.125,
            "velocity": 0.03937007874015748
          },
          {
            "duration": 0.125,
            "durationTicks": 96,
            "midi": 49,
            "name": "C#3",
            "ticks": 12384,
            "time": 16.125,
            "velocity": 0.03937007874015748
          },
          {
            "duration": 0.125,
            "durationTicks": 96,
            "midi": 55,
            "name": "G3",
            "ticks": 12384,
            "time": 16.125,
            "velocity": 0.03937007874015748
          },
          {
            "duration": 0.125,
            "durationTicks": 96,
            "midi": 49,
            "name": "C#3",
            "ticks": 12480,
            "time": 16.25,
            "velocity": 0.03937007874015748
          },
          {
            "duration": 0.125,
            "durationTicks": 96,
            "midi": 52,
            "name": "E3",
            "ticks": 12480,
            "time": 16.25,
            "velocity": 0.03937007874015748
          },
          {
            "duration": 0.125,
            "durationTicks": 96,
            "midi": 55,
            "name": "G3",
            "ticks": 12480,
            "time": 16.25,
            "velocity": 0.03937007874015748
          },
          {
            "duration": 0.125,
            "durationTicks": 96,
            "midi": 52,
            "name": "E3",
            "ticks": 12576,
            "time": 16.375,
            "velocity": 0.03937007874015748
          },
          {
            "duration": 0.125,
            "durationTicks": 96,
            "midi": 55,
            "name": "G3",
            "ticks": 12576,
            "time": 16.375,
            "velocity": 0.03937007874015748
          },
          {
            "duration": 0.125,
            "durationTicks": 96,
            "midi": 49,
            "name": "C#3",
            "ticks": 12576,
            "time": 16.375,
            "velocity": 0.03937007874015748
          },
          {
            "duration": 0.125,
            "durationTicks": 96,
            "midi": 49,
            "name": "C#3",
            "ticks": 12672,
            "time": 16.5,
            "velocity": 0.03937007874015748
          },
          {
            "duration": 0.125,
            "durationTicks": 96,
            "midi": 55,
            "name": "G3",
            "ticks": 12672,
            "time": 16.5,
            "velocity": 0.03937007874015748
          },
          {
            "duration": 0.125,
            "durationTicks": 96,
            "midi": 52,
            "name": "E3",
            "ticks": 12672,
            "time": 16.5,
            "velocity": 0.03937007874015748
          },
          {
            "duration": 0.125,
            "durationTicks": 96,
            "midi": 52,
            "name": "E3",
            "ticks": 12768,
            "time": 16.625,
            "velocity": 0.03937007874015748
          },
          {
            "duration": 0.125,
            "durationTicks": 96,
            "midi": 49,
            "name": "C#3",
            "ticks": 12768,
            "time": 16.625,
            "velocity": 0.03937007874015748
          },
          {
            "duration": 0.125,
            "durationTicks": 96,
            "midi": 55,
            "name": "G3",
            "ticks": 12768,
            "time": 16.625,
            "velocity": 0.03937007874015748
          },
          {
            "duration": 0.125,
            "durationTicks": 96,
            "midi": 55,
            "name": "G3",
            "ticks": 12864,
            "time": 16.75,
            "velocity": 0.03937007874015748
          },
          {
            "duration": 0.125,
            "durationTicks": 96,
            "midi": 52,
            "name": "E3",
            "ticks": 12864,
            "time": 16.75,
            "velocity": 0.03937007874015748
          },
          {
            "duration": 0.125,
            "durationTicks": 96,
            "midi": 49,
            "name": "C#3",
            "ticks": 12864,
            "time": 16.75,
            "velocity": 0.03937007874015748
          },
          {
            "duration": 0.125,
            "durationTicks": 96,
            "midi": 55,
            "name": "G3",
            "ticks": 12960,
            "time": 16.875,
            "velocity": 0.03937007874015748
          },
          {
            "duration": 0.125,
            "durationTicks": 96,
            "midi": 52,
            "name": "E3",
            "ticks": 12960,
            "time": 16.875,
            "velocity": 0.03937007874015748
          },
          {
            "duration": 0.125,
            "durationTicks": 96,
            "midi": 49,
            "name": "C#3",
            "ticks": 12960,
            "time": 16.875,
            "velocity": 0.03937007874015748
          },
          {
            "duration": 0.125,
            "durationTicks": 96,
            "midi": 55,
            "name": "G3",
            "ticks": 13056,
            "time": 17,
            "velocity": 0.03937007874015748
          },
          {
            "duration": 0.125,
            "durationTicks": 96,
            "midi": 49,
            "name": "C#3",
            "ticks": 13056,
            "time": 17,
            "velocity": 0.03937007874015748
          },
          {
            "duration": 0.125,
            "durationTicks": 96,
            "midi": 52,
            "name": "E3",
            "ticks": 13056,
            "time": 17,
            "velocity": 0.03937007874015748
          },
          {
            "duration": 0.125,
            "durationTicks": 96,
            "midi": 52,
            "name": "E3",
            "ticks": 13152,
            "time": 17.125,
            "velocity": 0.03937007874015748
          },
          {
            "duration": 0.125,
            "durationTicks": 96,
            "midi": 49,
            "name": "C#3",
            "ticks": 13152,
            "time": 17.125,
            "velocity": 0.03937007874015748
          },
          {
            "duration": 0.125,
            "durationTicks": 96,
            "midi": 55,
            "name": "G3",
            "ticks": 13152,
            "time": 17.125,
            "velocity": 0.03937007874015748
          },
          {
            "duration": 0.125,
            "durationTicks": 96,
            "midi": 49,
            "name": "C#3",
            "ticks": 13248,
            "time": 17.25,
            "velocity": 0.03937007874015748
          },
          {
            "duration": 0.125,
            "durationTicks": 96,
            "midi": 55,
            "name": "G3",
            "ticks": 13248,
            "time": 17.25,
            "velocity": 0.03937007874015748
          },
          {
            "duration": 0.125,
            "durationTicks": 96,
            "midi": 52,
            "name": "E3",
            "ticks": 13248,
            "time": 17.25,
            "velocity": 0.03937007874015748
          },
          {
            "duration": 0.125,
            "durationTicks": 96,
            "midi": 49,
            "name": "C#3",
            "ticks": 13344,
            "time": 17.375,
            "velocity": 0.03937007874015748
          },
          {
            "duration": 0.125,
            "durationTicks": 96,
            "midi": 55,
            "name": "G3",
            "ticks": 13344,
            "time": 17.375,
            "velocity": 0.03937007874015748
          },
          {
            "duration": 0.125,
            "durationTicks": 96,
            "midi": 52,
            "name": "E3",
            "ticks": 13344,
            "time": 17.375,
            "velocity": 0.03937007874015748
          },
          {
            "duration": 0.125,
            "durationTicks": 96,
            "midi": 55,
            "name": "G3",
            "ticks": 13440,
            "time": 17.5,
            "velocity": 0.03937007874015748
          },
          {
            "duration": 0.125,
            "durationTicks": 96,
            "midi": 49,
            "name": "C#3",
            "ticks": 13440,
            "time": 17.5,
            "velocity": 0.03937007874015748
          },
          {
            "duration": 0.125,
            "durationTicks": 96,
            "midi": 52,
            "name": "E3",
            "ticks": 13440,
            "time": 17.5,
            "velocity": 0.03937007874015748
          },
          {
            "duration": 0.125,
            "durationTicks": 96,
            "midi": 55,
            "name": "G3",
            "ticks": 13536,
            "time": 17.625,
            "velocity": 0.03937007874015748
          },
          {
            "duration": 0.125,
            "durationTicks": 96,
            "midi": 49,
            "name": "C#3",
            "ticks": 13536,
            "time": 17.625,
            "velocity": 0.03937007874015748
          },
          {
            "duration": 0.125,
            "durationTicks": 96,
            "midi": 52,
            "name": "E3",
            "ticks": 13536,
            "time": 17.625,
            "velocity": 0.03937007874015748
          },
          {
            "duration": 0.125,
            "durationTicks": 96,
            "midi": 52,
            "name": "E3",
            "ticks": 13632,
            "time": 17.75,
            "velocity": 0.03937007874015748
          },
          {
            "duration": 0.125,
            "durationTicks": 96,
            "midi": 49,
            "name": "C#3",
            "ticks": 13632,
            "time": 17.75,
            "velocity": 0.03937007874015748
          },
          {
            "duration": 0.125,
            "durationTicks": 96,
            "midi": 55,
            "name": "G3",
            "ticks": 13632,
            "time": 17.75,
            "velocity": 0.03937007874015748
          },
          {
            "duration": 0.125,
            "durationTicks": 96,
            "midi": 49,
            "name": "C#3",
            "ticks": 13728,
            "time": 17.875,
            "velocity": 0.03937007874015748
          },
          {
            "duration": 0.125,
            "durationTicks": 96,
            "midi": 52,
            "name": "E3",
            "ticks": 13728,
            "time": 17.875,
            "velocity": 0.03937007874015748
          },
          {
            "duration": 0.125,
            "durationTicks": 96,
            "midi": 55,
            "name": "G3",
            "ticks": 13728,
            "time": 17.875,
            "velocity": 0.03937007874015748
          },
          {
            "duration": 0.125,
            "durationTicks": 96,
            "midi": 55,
            "name": "G3",
            "ticks": 13824,
            "time": 18,
            "velocity": 0.03937007874015748
          },
          {
            "duration": 0.125,
            "durationTicks": 96,
            "midi": 49,
            "name": "C#3",
            "ticks": 13824,
            "time": 18,
            "velocity": 0.03937007874015748
          },
          {
            "duration": 0.125,
            "durationTicks": 96,
            "midi": 52,
            "name": "E3",
            "ticks": 13824,
            "time": 18,
            "velocity": 0.03937007874015748
          },
          {
            "duration": 0.125,
            "durationTicks": 96,
            "midi": 49,
            "name": "C#3",
            "ticks": 13920,
            "time": 18.125,
            "velocity": 0.03937007874015748
          },
          {
            "duration": 0.125,
            "durationTicks": 96,
            "midi": 52,
            "name": "E3",
            "ticks": 13920,
            "time": 18.125,
            "velocity": 0.03937007874015748
          },
          {
            "duration": 0.125,
            "durationTicks": 96,
            "midi": 55,
            "name": "G3",
            "ticks": 13920,
            "time": 18.125,
            "velocity": 0.03937007874015748
          },
          {
            "duration": 0.125,
            "durationTicks": 96,
            "midi": 52,
            "name": "E3",
            "ticks": 14016,
            "time": 18.25,
            "velocity": 0.03937007874015748
          },
          {
            "duration": 0.125,
            "durationTicks": 96,
            "midi": 49,
            "name": "C#3",
            "ticks": 14016,
            "time": 18.25,
            "velocity": 0.03937007874015748
          },
          {
            "duration": 0.125,
            "durationTicks": 96,
            "midi": 55,
            "name": "G3",
            "ticks": 14016,
            "time": 18.25,
            "velocity": 0.03937007874015748
          },
          {
            "duration": 0.125,
            "durationTicks": 96,
            "midi": 55,
            "name": "G3",
            "ticks": 14112,
            "time": 18.375,
            "velocity": 0.03937007874015748
          },
          {
            "duration": 0.125,
            "durationTicks": 96,
            "midi": 49,
            "name": "C#3",
            "ticks": 14112,
            "time": 18.375,
            "velocity": 0.03937007874015748
          },
          {
            "duration": 0.125,
            "durationTicks": 96,
            "midi": 52,
            "name": "E3",
            "ticks": 14112,
            "time": 18.375,
            "velocity": 0.03937007874015748
          },
          {
            "duration": 0.125,
            "durationTicks": 96,
            "midi": 52,
            "name": "E3",
            "ticks": 14208,
            "time": 18.5,
            "velocity": 0.03937007874015748
          },
          {
            "duration": 0.125,
            "durationTicks": 96,
            "midi": 55,
            "name": "G3",
            "ticks": 14208,
            "time": 18.5,
            "velocity": 0.03937007874015748
          },
          {
            "duration": 0.125,
            "durationTicks": 96,
            "midi": 49,
            "name": "C#3",
            "ticks": 14208,
            "time": 18.5,
            "velocity": 0.03937007874015748
          },
          {
            "duration": 0.125,
            "durationTicks": 96,
            "midi": 55,
            "name": "G3",
            "ticks": 14304,
            "time": 18.625,
            "velocity": 0.03937007874015748
          },
          {
            "duration": 0.125,
            "durationTicks": 96,
            "midi": 52,
            "name": "E3",
            "ticks": 14304,
            "time": 18.625,
            "velocity": 0.03937007874015748
          },
          {
            "duration": 0.125,
            "durationTicks": 96,
            "midi": 49,
            "name": "C#3",
            "ticks": 14304,
            "time": 18.625,
            "velocity": 0.03937007874015748
          },
          {
            "duration": 0.125,
            "durationTicks": 96,
            "midi": 55,
            "name": "G3",
            "ticks": 14400,
            "time": 18.75,
            "velocity": 0.03937007874015748
          },
          {
            "duration": 0.125,
            "durationTicks": 96,
            "midi": 49,
            "name": "C#3",
            "ticks": 14400,
            "time": 18.75,
            "velocity": 0.03937007874015748
          },
          {
            "duration": 0.125,
            "durationTicks": 96,
            "midi": 52,
            "name": "E3",
            "ticks": 14400,
            "time": 18.75,
            "velocity": 0.03937007874015748
          },
          {
            "duration": 0.125,
            "durationTicks": 96,
            "midi": 52,
            "name": "E3",
            "ticks": 14496,
            "time": 18.875,
            "velocity": 0.03937007874015748
          },
          {
            "duration": 0.125,
            "durationTicks": 96,
            "midi": 55,
            "name": "G3",
            "ticks": 14496,
            "time": 18.875,
            "velocity": 0.03937007874015748
          },
          {
            "duration": 0.125,
            "durationTicks": 96,
            "midi": 49,
            "name": "C#3",
            "ticks": 14496,
            "time": 18.875,
            "velocity": 0.03937007874015748
          },
          {
            "duration": 0.125,
            "durationTicks": 96,
            "midi": 49,
            "name": "C#3",
            "ticks": 14592,
            "time": 19,
            "velocity": 0.03937007874015748
          },
          {
            "duration": 0.125,
            "durationTicks": 96,
            "midi": 52,
            "name": "E3",
            "ticks": 14592,
            "time": 19,
            "velocity": 0.03937007874015748
          },
          {
            "duration": 0.125,
            "durationTicks": 96,
            "midi": 55,
            "name": "G3",
            "ticks": 14592,
            "time": 19,
            "velocity": 0.03937007874015748
          },
          {
            "duration": 0.125,
            "durationTicks": 96,
            "midi": 52,
            "name": "E3",
            "ticks": 14688,
            "time": 19.125,
            "velocity": 0.03937007874015748
          },
          {
            "duration": 0.125,
            "durationTicks": 96,
            "midi": 55,
            "name": "G3",
            "ticks": 14688,
            "time": 19.125,
            "velocity": 0.03937007874015748
          },
          {
            "duration": 0.125,
            "durationTicks": 96,
            "midi": 49,
            "name": "C#3",
            "ticks": 14688,
            "time": 19.125,
            "velocity": 0.03937007874015748
          },
          {
            "duration": 0.125,
            "durationTicks": 96,
            "midi": 55,
            "name": "G3",
            "ticks": 14784,
            "time": 19.25,
            "velocity": 0.03937007874015748
          },
          {
            "duration": 0.125,
            "durationTicks": 96,
            "midi": 49,
            "name": "C#3",
            "ticks": 14784,
            "time": 19.25,
            "velocity": 0.03937007874015748
          },
          {
            "duration": 0.125,
            "durationTicks": 96,
            "midi": 52,
            "name": "E3",
            "ticks": 14784,
            "time": 19.25,
            "velocity": 0.03937007874015748
          },
          {
            "duration": 0.125,
            "durationTicks": 96,
            "midi": 55,
            "name": "G3",
            "ticks": 14880,
            "time": 19.375,
            "velocity": 0.03937007874015748
          },
          {
            "duration": 0.125,
            "durationTicks": 96,
            "midi": 52,
            "name": "E3",
            "ticks": 14880,
            "time": 19.375,
            "velocity": 0.03937007874015748
          },
          {
            "duration": 0.125,
            "durationTicks": 96,
            "midi": 49,
            "name": "C#3",
            "ticks": 14880,
            "time": 19.375,
            "velocity": 0.03937007874015748
          },
          {
            "duration": 0.125,
            "durationTicks": 96,
            "midi": 49,
            "name": "C#3",
            "ticks": 14976,
            "time": 19.5,
            "velocity": 0.03937007874015748
          },
          {
            "duration": 0.125,
            "durationTicks": 96,
            "midi": 55,
            "name": "G3",
            "ticks": 14976,
            "time": 19.5,
            "velocity": 0.03937007874015748
          },
          {
            "duration": 0.125,
            "durationTicks": 96,
            "midi": 52,
            "name": "E3",
            "ticks": 14976,
            "time": 19.5,
            "velocity": 0.03937007874015748
          },
          {
            "duration": 0.125,
            "durationTicks": 96,
            "midi": 49,
            "name": "C#3",
            "ticks": 15072,
            "time": 19.625,
            "velocity": 0.03937007874015748
          },
          {
            "duration": 0.125,
            "durationTicks": 96,
            "midi": 55,
            "name": "G3",
            "ticks": 15072,
            "time": 19.625,
            "velocity": 0.03937007874015748
          },
          {
            "duration": 0.125,
            "durationTicks": 96,
            "midi": 52,
            "name": "E3",
            "ticks": 15072,
            "time": 19.625,
            "velocity": 0.03937007874015748
          },
          {
            "duration": 0.125,
            "durationTicks": 96,
            "midi": 55,
            "name": "G3",
            "ticks": 15168,
            "time": 19.75,
            "velocity": 0.03937007874015748
          },
          {
            "duration": 0.125,
            "durationTicks": 96,
            "midi": 52,
            "name": "E3",
            "ticks": 15168,
            "time": 19.75,
            "velocity": 0.03937007874015748
          },
          {
            "duration": 0.125,
            "durationTicks": 96,
            "midi": 49,
            "name": "C#3",
            "ticks": 15168,
            "time": 19.75,
            "velocity": 0.03937007874015748
          },
          {
            "duration": 0.125,
            "durationTicks": 96,
            "midi": 55,
            "name": "G3",
            "ticks": 15264,
            "time": 19.875,
            "velocity": 0.03937007874015748
          },
          {
            "duration": 0.125,
            "durationTicks": 96,
            "midi": 49,
            "name": "C#3",
            "ticks": 15264,
            "time": 19.875,
            "velocity": 0.03937007874015748
          },
          {
            "duration": 0.125,
            "durationTicks": 96,
            "midi": 52,
            "name": "E3",
            "ticks": 15264,
            "time": 19.875,
            "velocity": 0.03937007874015748
          },
          {
            "duration": 0.125,
            "durationTicks": 96,
            "midi": 52,
            "name": "E3",
            "ticks": 15360,
            "time": 20,
            "velocity": 0.03937007874015748
          },
          {
            "duration": 0.125,
            "durationTicks": 96,
            "midi": 56,
            "name": "G#3",
            "ticks": 15360,
            "time": 20,
            "velocity": 0.03937007874015748
          },
          {
            "duration": 0.125,
            "durationTicks": 96,
            "midi": 64,
            "name": "E4",
            "ticks": 15360,
            "time": 20,
            "velocity": 0.03937007874015748
          },
          {
            "duration": 0.125,
            "durationTicks": 96,
            "midi": 61,
            "name": "C#4",
            "ticks": 15360,
            "time": 20,
            "velocity": 0.03937007874015748
          },
          {
            "duration": 0.125,
            "durationTicks": 96,
            "midi": 73,
            "name": "C#5",
            "ticks": 15360,
            "time": 20,
            "velocity": 0.03937007874015748
          },
          {
            "duration": 0.125,
            "durationTicks": 96,
            "midi": 68,
            "name": "G#4",
            "ticks": 15360,
            "time": 20,
            "velocity": 0.03937007874015748
          },
          {
            "duration": 0.125,
            "durationTicks": 96,
            "midi": 73,
            "name": "C#5",
            "ticks": 15456,
            "time": 20.125,
            "velocity": 0.03937007874015748
          },
          {
            "duration": 0.125,
            "durationTicks": 96,
            "midi": 68,
            "name": "G#4",
            "ticks": 15456,
            "time": 20.125,
            "velocity": 0.03937007874015748
          },
          {
            "duration": 0.125,
            "durationTicks": 96,
            "midi": 64,
            "name": "E4",
            "ticks": 15456,
            "time": 20.125,
            "velocity": 0.03937007874015748
          },
          {
            "duration": 0.125,
            "durationTicks": 96,
            "midi": 52,
            "name": "E3",
            "ticks": 15456,
            "time": 20.125,
            "velocity": 0.03937007874015748
          },
          {
            "duration": 0.125,
            "durationTicks": 96,
            "midi": 56,
            "name": "G#3",
            "ticks": 15456,
            "time": 20.125,
            "velocity": 0.03937007874015748
          },
          {
            "duration": 0.125,
            "durationTicks": 96,
            "midi": 61,
            "name": "C#4",
            "ticks": 15456,
            "time": 20.125,
            "velocity": 0.03937007874015748
          },
          {
            "duration": 0.125,
            "durationTicks": 96,
            "midi": 73,
            "name": "C#5",
            "ticks": 15552,
            "time": 20.25,
            "velocity": 0.03937007874015748
          },
          {
            "duration": 0.125,
            "durationTicks": 96,
            "midi": 68,
            "name": "G#4",
            "ticks": 15552,
            "time": 20.25,
            "velocity": 0.03937007874015748
          },
          {
            "duration": 0.125,
            "durationTicks": 96,
            "midi": 64,
            "name": "E4",
            "ticks": 15552,
            "time": 20.25,
            "velocity": 0.03937007874015748
          },
          {
            "duration": 0.125,
            "durationTicks": 96,
            "midi": 61,
            "name": "C#4",
            "ticks": 15552,
            "time": 20.25,
            "velocity": 0.03937007874015748
          },
          {
            "duration": 0.125,
            "durationTicks": 96,
            "midi": 52,
            "name": "E3",
            "ticks": 15552,
            "time": 20.25,
            "velocity": 0.03937007874015748
          },
          {
            "duration": 0.125,
            "durationTicks": 96,
            "midi": 56,
            "name": "G#3",
            "ticks": 15552,
            "time": 20.25,
            "velocity": 0.03937007874015748
          },
          {
            "duration": 0.125,
            "durationTicks": 96,
            "midi": 68,
            "name": "G#4",
            "ticks": 15648,
            "time": 20.375,
            "velocity": 0.03937007874015748
          },
          {
            "duration": 0.125,
            "durationTicks": 96,
            "midi": 64,
            "name": "E4",
            "ticks": 15648,
            "time": 20.375,
            "velocity": 0.03937007874015748
          },
          {
            "duration": 0.125,
            "durationTicks": 96,
            "midi": 56,
            "name": "G#3",
            "ticks": 15648,
            "time": 20.375,
            "velocity": 0.03937007874015748
          },
          {
            "duration": 0.125,
            "durationTicks": 96,
            "midi": 71,
            "name": "B4",
            "ticks": 15648,
            "time": 20.375,
            "velocity": 0.03937007874015748
          },
          {
            "duration": 0.125,
            "durationTicks": 96,
            "midi": 52,
            "name": "E3",
            "ticks": 15648,
            "time": 20.375,
            "velocity": 0.03937007874015748
          },
          {
            "duration": 0.125,
            "durationTicks": 96,
            "midi": 59,
            "name": "B3",
            "ticks": 15648,
            "time": 20.375,
            "velocity": 0.03937007874015748
          },
          {
            "duration": 0.125,
            "durationTicks": 96,
            "midi": 64,
            "name": "E4",
            "ticks": 15744,
            "time": 20.5,
            "velocity": 0.03937007874015748
          },
          {
            "duration": 0.125,
            "durationTicks": 96,
            "midi": 71,
            "name": "B4",
            "ticks": 15744,
            "time": 20.5,
            "velocity": 0.03937007874015748
          },
          {
            "duration": 0.125,
            "durationTicks": 96,
            "midi": 68,
            "name": "G#4",
            "ticks": 15744,
            "time": 20.5,
            "velocity": 0.03937007874015748
          },
          {
            "duration": 0.125,
            "durationTicks": 96,
            "midi": 56,
            "name": "G#3",
            "ticks": 15744,
            "time": 20.5,
            "velocity": 0.03937007874015748
          },
          {
            "duration": 0.125,
            "durationTicks": 96,
            "midi": 59,
            "name": "B3",
            "ticks": 15744,
            "time": 20.5,
            "velocity": 0.03937007874015748
          },
          {
            "duration": 0.125,
            "durationTicks": 96,
            "midi": 52,
            "name": "E3",
            "ticks": 15744,
            "time": 20.5,
            "velocity": 0.03937007874015748
          },
          {
            "duration": 0.125,
            "durationTicks": 96,
            "midi": 68,
            "name": "G#4",
            "ticks": 15840,
            "time": 20.625,
            "velocity": 0.03937007874015748
          },
          {
            "duration": 0.125,
            "durationTicks": 96,
            "midi": 52,
            "name": "E3",
            "ticks": 15840,
            "time": 20.625,
            "velocity": 0.03937007874015748
          },
          {
            "duration": 0.125,
            "durationTicks": 96,
            "midi": 59,
            "name": "B3",
            "ticks": 15840,
            "time": 20.625,
            "velocity": 0.03937007874015748
          },
          {
            "duration": 0.125,
            "durationTicks": 96,
            "midi": 64,
            "name": "E4",
            "ticks": 15840,
            "time": 20.625,
            "velocity": 0.03937007874015748
          },
          {
            "duration": 0.125,
            "durationTicks": 96,
            "midi": 56,
            "name": "G#3",
            "ticks": 15840,
            "time": 20.625,
            "velocity": 0.03937007874015748
          },
          {
            "duration": 0.125,
            "durationTicks": 96,
            "midi": 71,
            "name": "B4",
            "ticks": 15840,
            "time": 20.625,
            "velocity": 0.03937007874015748
          },
          {
            "duration": 0.125,
            "durationTicks": 96,
            "midi": 56,
            "name": "G#3",
            "ticks": 15936,
            "time": 20.75,
            "velocity": 0.03937007874015748
          },
          {
            "duration": 0.125,
            "durationTicks": 96,
            "midi": 71,
            "name": "B4",
            "ticks": 15936,
            "time": 20.75,
            "velocity": 0.03937007874015748
          },
          {
            "duration": 0.125,
            "durationTicks": 96,
            "midi": 64,
            "name": "E4",
            "ticks": 15936,
            "time": 20.75,
            "velocity": 0.03937007874015748
          },
          {
            "duration": 0.125,
            "durationTicks": 96,
            "midi": 52,
            "name": "E3",
            "ticks": 15936,
            "time": 20.75,
            "velocity": 0.03937007874015748
          },
          {
            "duration": 0.125,
            "durationTicks": 96,
            "midi": 59,
            "name": "B3",
            "ticks": 15936,
            "time": 20.75,
            "velocity": 0.03937007874015748
          },
          {
            "duration": 0.125,
            "durationTicks": 96,
            "midi": 68,
            "name": "G#4",
            "ticks": 15936,
            "time": 20.75,
            "velocity": 0.03937007874015748
          },
          {
            "duration": 0.125,
            "durationTicks": 96,
            "midi": 68,
            "name": "G#4",
            "ticks": 16032,
            "time": 20.875,
            "velocity": 0.03937007874015748
          },
          {
            "duration": 0.125,
            "durationTicks": 96,
            "midi": 64,
            "name": "E4",
            "ticks": 16032,
            "time": 20.875,
            "velocity": 0.03937007874015748
          },
          {
            "duration": 0.125,
            "durationTicks": 96,
            "midi": 71,
            "name": "B4",
            "ticks": 16032,
            "time": 20.875,
            "velocity": 0.03937007874015748
          },
          {
            "duration": 0.125,
            "durationTicks": 96,
            "midi": 56,
            "name": "G#3",
            "ticks": 16032,
            "time": 20.875,
            "velocity": 0.03937007874015748
          },
          {
            "duration": 0.125,
            "durationTicks": 96,
            "midi": 59,
            "name": "B3",
            "ticks": 16032,
            "time": 20.875,
            "velocity": 0.03937007874015748
          },
          {
            "duration": 0.125,
            "durationTicks": 96,
            "midi": 52,
            "name": "E3",
            "ticks": 16032,
            "time": 20.875,
            "velocity": 0.03937007874015748
          },
          {
            "duration": 0.125,
            "durationTicks": 96,
            "midi": 64,
            "name": "E4",
            "ticks": 16128,
            "time": 21,
            "velocity": 0.03937007874015748
          },
          {
            "duration": 0.125,
            "durationTicks": 96,
            "midi": 68,
            "name": "G#4",
            "ticks": 16128,
            "time": 21,
            "velocity": 0.03937007874015748
          },
          {
            "duration": 0.125,
            "durationTicks": 96,
            "midi": 71,
            "name": "B4",
            "ticks": 16128,
            "time": 21,
            "velocity": 0.03937007874015748
          },
          {
            "duration": 0.125,
            "durationTicks": 96,
            "midi": 56,
            "name": "G#3",
            "ticks": 16128,
            "time": 21,
            "velocity": 0.03937007874015748
          },
          {
            "duration": 0.125,
            "durationTicks": 96,
            "midi": 52,
            "name": "E3",
            "ticks": 16128,
            "time": 21,
            "velocity": 0.03937007874015748
          },
          {
            "duration": 0.125,
            "durationTicks": 96,
            "midi": 59,
            "name": "B3",
            "ticks": 16128,
            "time": 21,
            "velocity": 0.03937007874015748
          },
          {
            "duration": 0.125,
            "durationTicks": 96,
            "midi": 71,
            "name": "B4",
            "ticks": 16224,
            "time": 21.125,
            "velocity": 0.03937007874015748
          },
          {
            "duration": 0.125,
            "durationTicks": 96,
            "midi": 59,
            "name": "B3",
            "ticks": 16224,
            "time": 21.125,
            "velocity": 0.03937007874015748
          },
          {
            "duration": 0.125,
            "durationTicks": 96,
            "midi": 64,
            "name": "E4",
            "ticks": 16224,
            "time": 21.125,
            "velocity": 0.03937007874015748
          },
          {
            "duration": 0.125,
            "durationTicks": 96,
            "midi": 56,
            "name": "G#3",
            "ticks": 16224,
            "time": 21.125,
            "velocity": 0.03937007874015748
          },
          {
            "duration": 0.125,
            "durationTicks": 96,
            "midi": 52,
            "name": "E3",
            "ticks": 16224,
            "time": 21.125,
            "velocity": 0.03937007874015748
          },
          {
            "duration": 0.125,
            "durationTicks": 96,
            "midi": 68,
            "name": "G#4",
            "ticks": 16224,
            "time": 21.125,
            "velocity": 0.03937007874015748
          },
          {
            "duration": 0.125,
            "durationTicks": 96,
            "midi": 68,
            "name": "G#4",
            "ticks": 16320,
            "time": 21.25,
            "velocity": 0.03937007874015748
          },
          {
            "duration": 0.125,
            "durationTicks": 96,
            "midi": 71,
            "name": "B4",
            "ticks": 16320,
            "time": 21.25,
            "velocity": 0.03937007874015748
          },
          {
            "duration": 0.125,
            "durationTicks": 96,
            "midi": 59,
            "name": "B3",
            "ticks": 16320,
            "time": 21.25,
            "velocity": 0.03937007874015748
          },
          {
            "duration": 0.125,
            "durationTicks": 96,
            "midi": 52,
            "name": "E3",
            "ticks": 16320,
            "time": 21.25,
            "velocity": 0.03937007874015748
          },
          {
            "duration": 0.125,
            "durationTicks": 96,
            "midi": 64,
            "name": "E4",
            "ticks": 16320,
            "time": 21.25,
            "velocity": 0.03937007874015748
          },
          {
            "duration": 0.125,
            "durationTicks": 96,
            "midi": 56,
            "name": "G#3",
            "ticks": 16320,
            "time": 21.25,
            "velocity": 0.03937007874015748
          },
          {
            "duration": 0.125,
            "durationTicks": 96,
            "midi": 59,
            "name": "B3",
            "ticks": 16416,
            "time": 21.375,
            "velocity": 0.03937007874015748
          },
          {
            "duration": 0.125,
            "durationTicks": 96,
            "midi": 64,
            "name": "E4",
            "ticks": 16416,
            "time": 21.375,
            "velocity": 0.03937007874015748
          },
          {
            "duration": 0.125,
            "durationTicks": 96,
            "midi": 52,
            "name": "E3",
            "ticks": 16416,
            "time": 21.375,
            "velocity": 0.03937007874015748
          },
          {
            "duration": 0.125,
            "durationTicks": 96,
            "midi": 56,
            "name": "G#3",
            "ticks": 16416,
            "time": 21.375,
            "velocity": 0.03937007874015748
          },
          {
            "duration": 0.125,
            "durationTicks": 96,
            "midi": 71,
            "name": "B4",
            "ticks": 16416,
            "time": 21.375,
            "velocity": 0.03937007874015748
          },
          {
            "duration": 0.125,
            "durationTicks": 96,
            "midi": 68,
            "name": "G#4",
            "ticks": 16416,
            "time": 21.375,
            "velocity": 0.03937007874015748
          },
          {
            "duration": 0.125,
            "durationTicks": 96,
            "midi": 68,
            "name": "G#4",
            "ticks": 16512,
            "time": 21.5,
            "velocity": 0.03937007874015748
          },
          {
            "duration": 0.125,
            "durationTicks": 96,
            "midi": 59,
            "name": "B3",
            "ticks": 16512,
            "time": 21.5,
            "velocity": 0.03937007874015748
          },
          {
            "duration": 0.125,
            "durationTicks": 96,
            "midi": 56,
            "name": "G#3",
            "ticks": 16512,
            "time": 21.5,
            "velocity": 0.03937007874015748
          },
          {
            "duration": 0.125,
            "durationTicks": 96,
            "midi": 52,
            "name": "E3",
            "ticks": 16512,
            "time": 21.5,
            "velocity": 0.03937007874015748
          },
          {
            "duration": 0.125,
            "durationTicks": 96,
            "midi": 71,
            "name": "B4",
            "ticks": 16512,
            "time": 21.5,
            "velocity": 0.03937007874015748
          },
          {
            "duration": 0.125,
            "durationTicks": 96,
            "midi": 64,
            "name": "E4",
            "ticks": 16512,
            "time": 21.5,
            "velocity": 0.03937007874015748
          },
          {
            "duration": 0.125,
            "durationTicks": 96,
            "midi": 56,
            "name": "G#3",
            "ticks": 16608,
            "time": 21.625,
            "velocity": 0.03937007874015748
          },
          {
            "duration": 0.125,
            "durationTicks": 96,
            "midi": 71,
            "name": "B4",
            "ticks": 16608,
            "time": 21.625,
            "velocity": 0.03937007874015748
          },
          {
            "duration": 0.125,
            "durationTicks": 96,
            "midi": 64,
            "name": "E4",
            "ticks": 16608,
            "time": 21.625,
            "velocity": 0.03937007874015748
          },
          {
            "duration": 0.125,
            "durationTicks": 96,
            "midi": 59,
            "name": "B3",
            "ticks": 16608,
            "time": 21.625,
            "velocity": 0.03937007874015748
          },
          {
            "duration": 0.125,
            "durationTicks": 96,
            "midi": 68,
            "name": "G#4",
            "ticks": 16608,
            "time": 21.625,
            "velocity": 0.03937007874015748
          },
          {
            "duration": 0.125,
            "durationTicks": 96,
            "midi": 52,
            "name": "E3",
            "ticks": 16608,
            "time": 21.625,
            "velocity": 0.03937007874015748
          },
          {
            "duration": 0.125,
            "durationTicks": 96,
            "midi": 71,
            "name": "B4",
            "ticks": 16704,
            "time": 21.75,
            "velocity": 0.03937007874015748
          },
          {
            "duration": 0.125,
            "durationTicks": 96,
            "midi": 52,
            "name": "E3",
            "ticks": 16704,
            "time": 21.75,
            "velocity": 0.03937007874015748
          },
          {
            "duration": 0.125,
            "durationTicks": 96,
            "midi": 56,
            "name": "G#3",
            "ticks": 16704,
            "time": 21.75,
            "velocity": 0.03937007874015748
          },
          {
            "duration": 0.125,
            "durationTicks": 96,
            "midi": 59,
            "name": "B3",
            "ticks": 16704,
            "time": 21.75,
            "velocity": 0.03937007874015748
          },
          {
            "duration": 0.125,
            "durationTicks": 96,
            "midi": 64,
            "name": "E4",
            "ticks": 16704,
            "time": 21.75,
            "velocity": 0.03937007874015748
          },
          {
            "duration": 0.125,
            "durationTicks": 96,
            "midi": 68,
            "name": "G#4",
            "ticks": 16704,
            "time": 21.75,
            "velocity": 0.03937007874015748
          },
          {
            "duration": 0.125,
            "durationTicks": 96,
            "midi": 59,
            "name": "B3",
            "ticks": 16800,
            "time": 21.875,
            "velocity": 0.03937007874015748
          },
          {
            "duration": 0.125,
            "durationTicks": 96,
            "midi": 71,
            "name": "B4",
            "ticks": 16800,
            "time": 21.875,
            "velocity": 0.03937007874015748
          },
          {
            "duration": 0.125,
            "durationTicks": 96,
            "midi": 68,
            "name": "G#4",
            "ticks": 16800,
            "time": 21.875,
            "velocity": 0.03937007874015748
          },
          {
            "duration": 0.125,
            "durationTicks": 96,
            "midi": 52,
            "name": "E3",
            "ticks": 16800,
            "time": 21.875,
            "velocity": 0.03937007874015748
          },
          {
            "duration": 0.125,
            "durationTicks": 96,
            "midi": 64,
            "name": "E4",
            "ticks": 16800,
            "time": 21.875,
            "velocity": 0.03937007874015748
          },
          {
            "duration": 0.125,
            "durationTicks": 96,
            "midi": 56,
            "name": "G#3",
            "ticks": 16800,
            "time": 21.875,
            "velocity": 0.03937007874015748
          },
          {
            "duration": 0.125,
            "durationTicks": 96,
            "midi": 52,
            "name": "E3",
            "ticks": 16896,
            "time": 22,
            "velocity": 0.03937007874015748
          },
          {
            "duration": 0.125,
            "durationTicks": 96,
            "midi": 71,
            "name": "B4",
            "ticks": 16896,
            "time": 22,
            "velocity": 0.03937007874015748
          },
          {
            "duration": 0.125,
            "durationTicks": 96,
            "midi": 56,
            "name": "G#3",
            "ticks": 16896,
            "time": 22,
            "velocity": 0.03937007874015748
          },
          {
            "duration": 0.125,
            "durationTicks": 96,
            "midi": 68,
            "name": "G#4",
            "ticks": 16896,
            "time": 22,
            "velocity": 0.03937007874015748
          },
          {
            "duration": 0.125,
            "durationTicks": 96,
            "midi": 64,
            "name": "E4",
            "ticks": 16896,
            "time": 22,
            "velocity": 0.03937007874015748
          },
          {
            "duration": 0.125,
            "durationTicks": 96,
            "midi": 59,
            "name": "B3",
            "ticks": 16896,
            "time": 22,
            "velocity": 0.03937007874015748
          },
          {
            "duration": 0.125,
            "durationTicks": 96,
            "midi": 71,
            "name": "B4",
            "ticks": 16992,
            "time": 22.125,
            "velocity": 0.03937007874015748
          },
          {
            "duration": 0.125,
            "durationTicks": 96,
            "midi": 52,
            "name": "E3",
            "ticks": 16992,
            "time": 22.125,
            "velocity": 0.03937007874015748
          },
          {
            "duration": 0.125,
            "durationTicks": 96,
            "midi": 56,
            "name": "G#3",
            "ticks": 16992,
            "time": 22.125,
            "velocity": 0.03937007874015748
          },
          {
            "duration": 0.125,
            "durationTicks": 96,
            "midi": 59,
            "name": "B3",
            "ticks": 16992,
            "time": 22.125,
            "velocity": 0.03937007874015748
          },
          {
            "duration": 0.125,
            "durationTicks": 96,
            "midi": 64,
            "name": "E4",
            "ticks": 16992,
            "time": 22.125,
            "velocity": 0.03937007874015748
          },
          {
            "duration": 0.125,
            "durationTicks": 96,
            "midi": 68,
            "name": "G#4",
            "ticks": 16992,
            "time": 22.125,
            "velocity": 0.03937007874015748
          },
          {
            "duration": 0.125,
            "durationTicks": 96,
            "midi": 52,
            "name": "E3",
            "ticks": 17088,
            "time": 22.25,
            "velocity": 0.03937007874015748
          },
          {
            "duration": 0.125,
            "durationTicks": 96,
            "midi": 56,
            "name": "G#3",
            "ticks": 17088,
            "time": 22.25,
            "velocity": 0.03937007874015748
          },
          {
            "duration": 0.125,
            "durationTicks": 96,
            "midi": 59,
            "name": "B3",
            "ticks": 17088,
            "time": 22.25,
            "velocity": 0.03937007874015748
          },
          {
            "duration": 0.125,
            "durationTicks": 96,
            "midi": 64,
            "name": "E4",
            "ticks": 17088,
            "time": 22.25,
            "velocity": 0.03937007874015748
          },
          {
            "duration": 0.125,
            "durationTicks": 96,
            "midi": 68,
            "name": "G#4",
            "ticks": 17088,
            "time": 22.25,
            "velocity": 0.03937007874015748
          },
          {
            "duration": 0.125,
            "durationTicks": 96,
            "midi": 71,
            "name": "B4",
            "ticks": 17088,
            "time": 22.25,
            "velocity": 0.03937007874015748
          },
          {
            "duration": 0.125,
            "durationTicks": 96,
            "midi": 71,
            "name": "B4",
            "ticks": 17184,
            "time": 22.375,
            "velocity": 0.03937007874015748
          },
          {
            "duration": 0.125,
            "durationTicks": 96,
            "midi": 68,
            "name": "G#4",
            "ticks": 17184,
            "time": 22.375,
            "velocity": 0.03937007874015748
          },
          {
            "duration": 0.125,
            "durationTicks": 96,
            "midi": 56,
            "name": "G#3",
            "ticks": 17184,
            "time": 22.375,
            "velocity": 0.03937007874015748
          },
          {
            "duration": 0.125,
            "durationTicks": 96,
            "midi": 59,
            "name": "B3",
            "ticks": 17184,
            "time": 22.375,
            "velocity": 0.03937007874015748
          },
          {
            "duration": 0.125,
            "durationTicks": 96,
            "midi": 52,
            "name": "E3",
            "ticks": 17184,
            "time": 22.375,
            "velocity": 0.03937007874015748
          },
          {
            "duration": 0.125,
            "durationTicks": 96,
            "midi": 64,
            "name": "E4",
            "ticks": 17184,
            "time": 22.375,
            "velocity": 0.03937007874015748
          },
          {
            "duration": 0.125,
            "durationTicks": 96,
            "midi": 70,
            "name": "A#4",
            "ticks": 17280,
            "time": 22.5,
            "velocity": 0.03937007874015748
          },
          {
            "duration": 0.125,
            "durationTicks": 96,
            "midi": 58,
            "name": "A#3",
            "ticks": 17280,
            "time": 22.5,
            "velocity": 0.03937007874015748
          },
          {
            "duration": 0.125,
            "durationTicks": 96,
            "midi": 61,
            "name": "C#4",
            "ticks": 17280,
            "time": 22.5,
            "velocity": 0.03937007874015748
          },
          {
            "duration": 0.125,
            "durationTicks": 96,
            "midi": 66,
            "name": "F#4",
            "ticks": 17280,
            "time": 22.5,
            "velocity": 0.03937007874015748
          },
          {
            "duration": 0.125,
            "durationTicks": 96,
            "midi": 49,
            "name": "C#3",
            "ticks": 17280,
            "time": 22.5,
            "velocity": 0.03937007874015748
          },
          {
            "duration": 0.125,
            "durationTicks": 96,
            "midi": 54,
            "name": "F#3",
            "ticks": 17280,
            "time": 22.5,
            "velocity": 0.03937007874015748
          },
          {
            "duration": 0.125,
            "durationTicks": 96,
            "midi": 61,
            "name": "C#4",
            "ticks": 17376,
            "time": 22.625,
            "velocity": 0.03937007874015748
          },
          {
            "duration": 0.125,
            "durationTicks": 96,
            "midi": 66,
            "name": "F#4",
            "ticks": 17376,
            "time": 22.625,
            "velocity": 0.03937007874015748
          },
          {
            "duration": 0.125,
            "durationTicks": 96,
            "midi": 54,
            "name": "F#3",
            "ticks": 17376,
            "time": 22.625,
            "velocity": 0.03937007874015748
          },
          {
            "duration": 0.125,
            "durationTicks": 96,
            "midi": 49,
            "name": "C#3",
            "ticks": 17376,
            "time": 22.625,
            "velocity": 0.03937007874015748
          },
          {
            "duration": 0.125,
            "durationTicks": 96,
            "midi": 70,
            "name": "A#4",
            "ticks": 17376,
            "time": 22.625,
            "velocity": 0.03937007874015748
          },
          {
            "duration": 0.125,
            "durationTicks": 96,
            "midi": 58,
            "name": "A#3",
            "ticks": 17376,
            "time": 22.625,
            "velocity": 0.03937007874015748
          },
          {
            "duration": 0.125,
            "durationTicks": 96,
            "midi": 54,
            "name": "F#3",
            "ticks": 17472,
            "time": 22.75,
            "velocity": 0.03937007874015748
          },
          {
            "duration": 0.125,
            "durationTicks": 96,
            "midi": 58,
            "name": "A#3",
            "ticks": 17472,
            "time": 22.75,
            "velocity": 0.03937007874015748
          },
          {
            "duration": 0.125,
            "durationTicks": 96,
            "midi": 49,
            "name": "C#3",
            "ticks": 17472,
            "time": 22.75,
            "velocity": 0.03937007874015748
          },
          {
            "duration": 0.125,
            "durationTicks": 96,
            "midi": 66,
            "name": "F#4",
            "ticks": 17472,
            "time": 22.75,
            "velocity": 0.03937007874015748
          },
          {
            "duration": 0.125,
            "durationTicks": 96,
            "midi": 70,
            "name": "A#4",
            "ticks": 17472,
            "time": 22.75,
            "velocity": 0.03937007874015748
          },
          {
            "duration": 0.125,
            "durationTicks": 96,
            "midi": 61,
            "name": "C#4",
            "ticks": 17472,
            "time": 22.75,
            "velocity": 0.03937007874015748
          },
          {
            "duration": 0.125,
            "durationTicks": 96,
            "midi": 58,
            "name": "A#3",
            "ticks": 17568,
            "time": 22.875,
            "velocity": 0.03937007874015748
          },
          {
            "duration": 0.125,
            "durationTicks": 96,
            "midi": 49,
            "name": "C#3",
            "ticks": 17568,
            "time": 22.875,
            "velocity": 0.03937007874015748
          },
          {
            "duration": 0.125,
            "durationTicks": 96,
            "midi": 61,
            "name": "C#4",
            "ticks": 17568,
            "time": 22.875,
            "velocity": 0.03937007874015748
          },
          {
            "duration": 0.125,
            "durationTicks": 96,
            "midi": 66,
            "name": "F#4",
            "ticks": 17568,
            "time": 22.875,
            "velocity": 0.03937007874015748
          },
          {
            "duration": 0.125,
            "durationTicks": 96,
            "midi": 54,
            "name": "F#3",
            "ticks": 17568,
            "time": 22.875,
            "velocity": 0.03937007874015748
          },
          {
            "duration": 0.125,
            "durationTicks": 96,
            "midi": 70,
            "name": "A#4",
            "ticks": 17568,
            "time": 22.875,
            "velocity": 0.03937007874015748
          },
          {
            "duration": 0.125,
            "durationTicks": 96,
            "midi": 52,
            "name": "E3",
            "ticks": 17664,
            "time": 23,
            "velocity": 0.03937007874015748
          },
          {
            "duration": 0.125,
            "durationTicks": 96,
            "midi": 64,
            "name": "E4",
            "ticks": 17664,
            "time": 23,
            "velocity": 0.03937007874015748
          },
          {
            "duration": 0.125,
            "durationTicks": 96,
            "midi": 49,
            "name": "C#3",
            "ticks": 17664,
            "time": 23,
            "velocity": 0.03937007874015748
          },
          {
            "duration": 0.125,
            "durationTicks": 96,
            "midi": 56,
            "name": "G#3",
            "ticks": 17664,
            "time": 23,
            "velocity": 0.03937007874015748
          },
          {
            "duration": 0.125,
            "durationTicks": 96,
            "midi": 68,
            "name": "G#4",
            "ticks": 17664,
            "time": 23,
            "velocity": 0.03937007874015748
          },
          {
            "duration": 0.125,
            "durationTicks": 96,
            "midi": 61,
            "name": "C#4",
            "ticks": 17664,
            "time": 23,
            "velocity": 0.03937007874015748
          },
          {
            "duration": 0.125,
            "durationTicks": 96,
            "midi": 49,
            "name": "C#3",
            "ticks": 17760,
            "time": 23.125,
            "velocity": 0.03937007874015748
          },
          {
            "duration": 0.125,
            "durationTicks": 96,
            "midi": 68,
            "name": "G#4",
            "ticks": 17760,
            "time": 23.125,
            "velocity": 0.03937007874015748
          },
          {
            "duration": 0.125,
            "durationTicks": 96,
            "midi": 52,
            "name": "E3",
            "ticks": 17760,
            "time": 23.125,
            "velocity": 0.03937007874015748
          },
          {
            "duration": 0.125,
            "durationTicks": 96,
            "midi": 56,
            "name": "G#3",
            "ticks": 17760,
            "time": 23.125,
            "velocity": 0.03937007874015748
          },
          {
            "duration": 0.125,
            "durationTicks": 96,
            "midi": 61,
            "name": "C#4",
            "ticks": 17760,
            "time": 23.125,
            "velocity": 0.03937007874015748
          },
          {
            "duration": 0.125,
            "durationTicks": 96,
            "midi": 64,
            "name": "E4",
            "ticks": 17760,
            "time": 23.125,
            "velocity": 0.03937007874015748
          },
          {
            "duration": 0.125,
            "durationTicks": 96,
            "midi": 68,
            "name": "G#4",
            "ticks": 17856,
            "time": 23.25,
            "velocity": 0.03937007874015748
          },
          {
            "duration": 0.125,
            "durationTicks": 96,
            "midi": 56,
            "name": "G#3",
            "ticks": 17856,
            "time": 23.25,
            "velocity": 0.03937007874015748
          },
          {
            "duration": 0.125,
            "durationTicks": 96,
            "midi": 49,
            "name": "C#3",
            "ticks": 17856,
            "time": 23.25,
            "velocity": 0.03937007874015748
          },
          {
            "duration": 0.125,
            "durationTicks": 96,
            "midi": 61,
            "name": "C#4",
            "ticks": 17856,
            "time": 23.25,
            "velocity": 0.03937007874015748
          },
          {
            "duration": 0.125,
            "durationTicks": 96,
            "midi": 52,
            "name": "E3",
            "ticks": 17856,
            "time": 23.25,
            "velocity": 0.03937007874015748
          },
          {
            "duration": 0.125,
            "durationTicks": 96,
            "midi": 64,
            "name": "E4",
            "ticks": 17856,
            "time": 23.25,
            "velocity": 0.03937007874015748
          },
          {
            "duration": 0.125,
            "durationTicks": 96,
            "midi": 56,
            "name": "G#3",
            "ticks": 17952,
            "time": 23.375,
            "velocity": 0.03937007874015748
          },
          {
            "duration": 0.125,
            "durationTicks": 96,
            "midi": 68,
            "name": "G#4",
            "ticks": 17952,
            "time": 23.375,
            "velocity": 0.03937007874015748
          },
          {
            "duration": 0.125,
            "durationTicks": 96,
            "midi": 61,
            "name": "C#4",
            "ticks": 17952,
            "time": 23.375,
            "velocity": 0.03937007874015748
          },
          {
            "duration": 0.125,
            "durationTicks": 96,
            "midi": 64,
            "name": "E4",
            "ticks": 17952,
            "time": 23.375,
            "velocity": 0.03937007874015748
          },
          {
            "duration": 0.125,
            "durationTicks": 96,
            "midi": 52,
            "name": "E3",
            "ticks": 17952,
            "time": 23.375,
            "velocity": 0.03937007874015748
          },
          {
            "duration": 0.125,
            "durationTicks": 96,
            "midi": 49,
            "name": "C#3",
            "ticks": 17952,
            "time": 23.375,
            "velocity": 0.03937007874015748
          },
          {
            "duration": 0.125,
            "durationTicks": 96,
            "midi": 49,
            "name": "C#3",
            "ticks": 18048,
            "time": 23.5,
            "velocity": 0.03937007874015748
          },
          {
            "duration": 0.125,
            "durationTicks": 96,
            "midi": 64,
            "name": "E4",
            "ticks": 18048,
            "time": 23.5,
            "velocity": 0.03937007874015748
          },
          {
            "duration": 0.125,
            "durationTicks": 96,
            "midi": 56,
            "name": "G#3",
            "ticks": 18048,
            "time": 23.5,
            "velocity": 0.03937007874015748
          },
          {
            "duration": 0.125,
            "durationTicks": 96,
            "midi": 68,
            "name": "G#4",
            "ticks": 18048,
            "time": 23.5,
            "velocity": 0.03937007874015748
          },
          {
            "duration": 0.125,
            "durationTicks": 96,
            "midi": 52,
            "name": "E3",
            "ticks": 18048,
            "time": 23.5,
            "velocity": 0.03937007874015748
          },
          {
            "duration": 0.125,
            "durationTicks": 96,
            "midi": 61,
            "name": "C#4",
            "ticks": 18048,
            "time": 23.5,
            "velocity": 0.03937007874015748
          },
          {
            "duration": 0.125,
            "durationTicks": 96,
            "midi": 52,
            "name": "E3",
            "ticks": 18144,
            "time": 23.625,
            "velocity": 0.03937007874015748
          },
          {
            "duration": 0.125,
            "durationTicks": 96,
            "midi": 56,
            "name": "G#3",
            "ticks": 18144,
            "time": 23.625,
            "velocity": 0.03937007874015748
          },
          {
            "duration": 0.125,
            "durationTicks": 96,
            "midi": 64,
            "name": "E4",
            "ticks": 18144,
            "time": 23.625,
            "velocity": 0.03937007874015748
          },
          {
            "duration": 0.125,
            "durationTicks": 96,
            "midi": 61,
            "name": "C#4",
            "ticks": 18144,
            "time": 23.625,
            "velocity": 0.03937007874015748
          },
          {
            "duration": 0.125,
            "durationTicks": 96,
            "midi": 49,
            "name": "C#3",
            "ticks": 18144,
            "time": 23.625,
            "velocity": 0.03937007874015748
          },
          {
            "duration": 0.125,
            "durationTicks": 96,
            "midi": 68,
            "name": "G#4",
            "ticks": 18144,
            "time": 23.625,
            "velocity": 0.03937007874015748
          },
          {
            "duration": 0.125,
            "durationTicks": 96,
            "midi": 56,
            "name": "G#3",
            "ticks": 18240,
            "time": 23.75,
            "velocity": 0.03937007874015748
          },
          {
            "duration": 0.125,
            "durationTicks": 96,
            "midi": 68,
            "name": "G#4",
            "ticks": 18240,
            "time": 23.75,
            "velocity": 0.03937007874015748
          },
          {
            "duration": 0.125,
            "durationTicks": 96,
            "midi": 61,
            "name": "C#4",
            "ticks": 18240,
            "time": 23.75,
            "velocity": 0.03937007874015748
          },
          {
            "duration": 0.125,
            "durationTicks": 96,
            "midi": 64,
            "name": "E4",
            "ticks": 18240,
            "time": 23.75,
            "velocity": 0.03937007874015748
          },
          {
            "duration": 0.125,
            "durationTicks": 96,
            "midi": 49,
            "name": "C#3",
            "ticks": 18240,
            "time": 23.75,
            "velocity": 0.03937007874015748
          },
          {
            "duration": 0.125,
            "durationTicks": 96,
            "midi": 52,
            "name": "E3",
            "ticks": 18240,
            "time": 23.75,
            "velocity": 0.03937007874015748
          },
          {
            "duration": 0.125,
            "durationTicks": 96,
            "midi": 52,
            "name": "E3",
            "ticks": 18336,
            "time": 23.875,
            "velocity": 0.03937007874015748
          },
          {
            "duration": 0.125,
            "durationTicks": 96,
            "midi": 64,
            "name": "E4",
            "ticks": 18336,
            "time": 23.875,
            "velocity": 0.03937007874015748
          },
          {
            "duration": 0.125,
            "durationTicks": 96,
            "midi": 68,
            "name": "G#4",
            "ticks": 18336,
            "time": 23.875,
            "velocity": 0.03937007874015748
          },
          {
            "duration": 0.125,
            "durationTicks": 96,
            "midi": 61,
            "name": "C#4",
            "ticks": 18336,
            "time": 23.875,
            "velocity": 0.03937007874015748
          },
          {
            "duration": 0.125,
            "durationTicks": 96,
            "midi": 56,
            "name": "G#3",
            "ticks": 18336,
            "time": 23.875,
            "velocity": 0.03937007874015748
          },
          {
            "duration": 0.125,
            "durationTicks": 96,
            "midi": 49,
            "name": "C#3",
            "ticks": 18336,
            "time": 23.875,
            "velocity": 0.03937007874015748
          },
          {
            "duration": 0.125,
            "durationTicks": 96,
            "midi": 68,
            "name": "G#4",
            "ticks": 18432,
            "time": 24,
            "velocity": 0.031496062992125984
          },
          {
            "duration": 0.125,
            "durationTicks": 96,
            "midi": 68,
            "name": "G#4",
            "ticks": 18432,
            "time": 24,
            "velocity": 0.031496062992125984
          },
          {
            "duration": 0.125,
            "durationTicks": 96,
            "midi": 61,
            "name": "C#4",
            "ticks": 18432,
            "time": 24,
            "velocity": 0.031496062992125984
          },
          {
            "duration": 0.125,
            "durationTicks": 96,
            "midi": 64,
            "name": "E4",
            "ticks": 18432,
            "time": 24,
            "velocity": 0.031496062992125984
          },
          {
            "duration": 0.125,
            "durationTicks": 96,
            "midi": 64,
            "name": "E4",
            "ticks": 18432,
            "time": 24,
            "velocity": 0.031496062992125984
          },
          {
            "duration": 0.125,
            "durationTicks": 96,
            "midi": 49,
            "name": "C#3",
            "ticks": 18432,
            "time": 24,
            "velocity": 0.03937007874015748
          },
          {
            "duration": 0.125,
            "durationTicks": 96,
            "midi": 61,
            "name": "C#4",
            "ticks": 18432,
            "time": 24,
            "velocity": 0.031496062992125984
          },
          {
            "duration": 0.125,
            "durationTicks": 96,
            "midi": 52,
            "name": "E3",
            "ticks": 18432,
            "time": 24,
            "velocity": 0.03937007874015748
          },
          {
            "duration": 0.125,
            "durationTicks": 96,
            "midi": 56,
            "name": "G#3",
            "ticks": 18432,
            "time": 24,
            "velocity": 0.03937007874015748
          },
          {
            "duration": 0.125,
            "durationTicks": 96,
            "midi": 52,
            "name": "E3",
            "ticks": 18528,
            "time": 24.125,
            "velocity": 0.03937007874015748
          },
          {
            "duration": 0.125,
            "durationTicks": 96,
            "midi": 61,
            "name": "C#4",
            "ticks": 18528,
            "time": 24.125,
            "velocity": 0.023622047244094488
          },
          {
            "duration": 0.125,
            "durationTicks": 96,
            "midi": 68,
            "name": "G#4",
            "ticks": 18528,
            "time": 24.125,
            "velocity": 0.023622047244094488
          },
          {
            "duration": 0.125,
            "durationTicks": 96,
            "midi": 64,
            "name": "E4",
            "ticks": 18528,
            "time": 24.125,
            "velocity": 0.023622047244094488
          },
          {
            "duration": 0.125,
            "durationTicks": 96,
            "midi": 56,
            "name": "G#3",
            "ticks": 18528,
            "time": 24.125,
            "velocity": 0.03937007874015748
          },
          {
            "duration": 0.125,
            "durationTicks": 96,
            "midi": 61,
            "name": "C#4",
            "ticks": 18528,
            "time": 24.125,
            "velocity": 0.023622047244094488
          },
          {
            "duration": 0.125,
            "durationTicks": 96,
            "midi": 64,
            "name": "E4",
            "ticks": 18528,
            "time": 24.125,
            "velocity": 0.023622047244094488
          },
          {
            "duration": 0.125,
            "durationTicks": 96,
            "midi": 68,
            "name": "G#4",
            "ticks": 18528,
            "time": 24.125,
            "velocity": 0.023622047244094488
          },
          {
            "duration": 0.125,
            "durationTicks": 96,
            "midi": 49,
            "name": "C#3",
            "ticks": 18528,
            "time": 24.125,
            "velocity": 0.03937007874015748
          },
          {
            "duration": 0.125,
            "durationTicks": 96,
            "midi": 61,
            "name": "C#4",
            "ticks": 18624,
            "time": 24.25,
            "velocity": 0.015748031496062992
          },
          {
            "duration": 0.125,
            "durationTicks": 96,
            "midi": 64,
            "name": "E4",
            "ticks": 18624,
            "time": 24.25,
            "velocity": 0.015748031496062992
          },
          {
            "duration": 0.125,
            "durationTicks": 96,
            "midi": 68,
            "name": "G#4",
            "ticks": 18624,
            "time": 24.25,
            "velocity": 0.015748031496062992
          },
          {
            "duration": 0.125,
            "durationTicks": 96,
            "midi": 68,
            "name": "G#4",
            "ticks": 18624,
            "time": 24.25,
            "velocity": 0.015748031496062992
          },
          {
            "duration": 0.125,
            "durationTicks": 96,
            "midi": 64,
            "name": "E4",
            "ticks": 18624,
            "time": 24.25,
            "velocity": 0.015748031496062992
          },
          {
            "duration": 0.125,
            "durationTicks": 96,
            "midi": 61,
            "name": "C#4",
            "ticks": 18624,
            "time": 24.25,
            "velocity": 0.015748031496062992
          },
          {
            "duration": 0.125,
            "durationTicks": 96,
            "midi": 56,
            "name": "G#3",
            "ticks": 18624,
            "time": 24.25,
            "velocity": 0.03937007874015748
          },
          {
            "duration": 0.125,
            "durationTicks": 96,
            "midi": 49,
            "name": "C#3",
            "ticks": 18624,
            "time": 24.25,
            "velocity": 0.03937007874015748
          },
          {
            "duration": 0.125,
            "durationTicks": 96,
            "midi": 52,
            "name": "E3",
            "ticks": 18624,
            "time": 24.25,
            "velocity": 0.03937007874015748
          },
          {
            "duration": 0.125,
            "durationTicks": 96,
            "midi": 68,
            "name": "G#4",
            "ticks": 18720,
            "time": 24.375,
            "velocity": 0.007874015748031496
          },
          {
            "duration": 0.125,
            "durationTicks": 96,
            "midi": 52,
            "name": "E3",
            "ticks": 18720,
            "time": 24.375,
            "velocity": 0.03937007874015748
          },
          {
            "duration": 0.125,
            "durationTicks": 96,
            "midi": 61,
            "name": "C#4",
            "ticks": 18720,
            "time": 24.375,
            "velocity": 0.007874015748031496
          },
          {
            "duration": 0.125,
            "durationTicks": 96,
            "midi": 56,
            "name": "G#3",
            "ticks": 18720,
            "time": 24.375,
            "velocity": 0.03937007874015748
          },
          {
            "duration": 0.125,
            "durationTicks": 96,
            "midi": 61,
            "name": "C#4",
            "ticks": 18720,
            "time": 24.375,
            "velocity": 0.007874015748031496
          },
          {
            "duration": 0.125,
            "durationTicks": 96,
            "midi": 64,
            "name": "E4",
            "ticks": 18720,
            "time": 24.375,
            "velocity": 0.007874015748031496
          },
          {
            "duration": 0.125,
            "durationTicks": 96,
            "midi": 68,
            "name": "G#4",
            "ticks": 18720,
            "time": 24.375,
            "velocity": 0.007874015748031496
          },
          {
            "duration": 0.125,
            "durationTicks": 96,
            "midi": 49,
            "name": "C#3",
            "ticks": 18720,
            "time": 24.375,
            "velocity": 0.03937007874015748
          },
          {
            "duration": 0.125,
            "durationTicks": 96,
            "midi": 64,
            "name": "E4",
            "ticks": 18720,
            "time": 24.375,
            "velocity": 0.007874015748031496
          },
          {
            "duration": 0.125,
            "durationTicks": 96,
            "midi": 52,
            "name": "E3",
            "ticks": 18816,
            "time": 24.5,
            "velocity": 0.03937007874015748
          },
          {
            "duration": 0.125,
            "durationTicks": 96,
            "midi": 56,
            "name": "G#3",
            "ticks": 18816,
            "time": 24.5,
            "velocity": 0.03937007874015748
          },
          {
            "duration": 0.125,
            "durationTicks": 96,
            "midi": 49,
            "name": "C#3",
            "ticks": 18816,
            "time": 24.5,
            "velocity": 0.03937007874015748
          },
          {
            "duration": 0.125,
            "durationTicks": 96,
            "midi": 56,
            "name": "G#3",
            "ticks": 18912,
            "time": 24.625,
            "velocity": 0.03937007874015748
          },
          {
            "duration": 0.125,
            "durationTicks": 96,
            "midi": 52,
            "name": "E3",
            "ticks": 18912,
            "time": 24.625,
            "velocity": 0.03937007874015748
          },
          {
            "duration": 0.125,
            "durationTicks": 96,
            "midi": 49,
            "name": "C#3",
            "ticks": 18912,
            "time": 24.625,
            "velocity": 0.03937007874015748
          },
          {
            "duration": 0.125,
            "durationTicks": 96,
            "midi": 49,
            "name": "C#3",
            "ticks": 19008,
            "time": 24.75,
            "velocity": 0.03937007874015748
          },
          {
            "duration": 0.125,
            "durationTicks": 96,
            "midi": 56,
            "name": "G#3",
            "ticks": 19008,
            "time": 24.75,
            "velocity": 0.03937007874015748
          },
          {
            "duration": 0.125,
            "durationTicks": 96,
            "midi": 52,
            "name": "E3",
            "ticks": 19008,
            "time": 24.75,
            "velocity": 0.03937007874015748
          },
          {
            "duration": 0.125,
            "durationTicks": 96,
            "midi": 52,
            "name": "E3",
            "ticks": 19104,
            "time": 24.875,
            "velocity": 0.03937007874015748
          },
          {
            "duration": 0.125,
            "durationTicks": 96,
            "midi": 56,
            "name": "G#3",
            "ticks": 19104,
            "time": 24.875,
            "velocity": 0.03937007874015748
          },
          {
            "duration": 0.125,
            "durationTicks": 96,
            "midi": 49,
            "name": "C#3",
            "ticks": 19104,
            "time": 24.875,
            "velocity": 0.03937007874015748
          },
          {
            "duration": 0.125,
            "durationTicks": 96,
            "midi": 56,
            "name": "G#3",
            "ticks": 19200,
            "time": 25,
            "velocity": 0.03937007874015748
          },
          {
            "duration": 0.125,
            "durationTicks": 96,
            "midi": 49,
            "name": "C#3",
            "ticks": 19200,
            "time": 25,
            "velocity": 0.03937007874015748
          },
          {
            "duration": 0.125,
            "durationTicks": 96,
            "midi": 52,
            "name": "E3",
            "ticks": 19200,
            "time": 25,
            "velocity": 0.03937007874015748
          },
          {
            "duration": 0.125,
            "durationTicks": 96,
            "midi": 56,
            "name": "G#3",
            "ticks": 19296,
            "time": 25.125,
            "velocity": 0.03937007874015748
          },
          {
            "duration": 0.125,
            "durationTicks": 96,
            "midi": 52,
            "name": "E3",
            "ticks": 19296,
            "time": 25.125,
            "velocity": 0.03937007874015748
          },
          {
            "duration": 0.125,
            "durationTicks": 96,
            "midi": 49,
            "name": "C#3",
            "ticks": 19296,
            "time": 25.125,
            "velocity": 0.03937007874015748
          },
          {
            "duration": 0.125,
            "durationTicks": 96,
            "midi": 56,
            "name": "G#3",
            "ticks": 19392,
            "time": 25.25,
            "velocity": 0.03937007874015748
          },
          {
            "duration": 0.125,
            "durationTicks": 96,
            "midi": 52,
            "name": "E3",
            "ticks": 19392,
            "time": 25.25,
            "velocity": 0.03937007874015748
          },
          {
            "duration": 0.125,
            "durationTicks": 96,
            "midi": 49,
            "name": "C#3",
            "ticks": 19392,
            "time": 25.25,
            "velocity": 0.03937007874015748
          },
          {
            "duration": 0.125,
            "durationTicks": 96,
            "midi": 49,
            "name": "C#3",
            "ticks": 19488,
            "time": 25.375,
            "velocity": 0.03937007874015748
          },
          {
            "duration": 0.125,
            "durationTicks": 96,
            "midi": 56,
            "name": "G#3",
            "ticks": 19488,
            "time": 25.375,
            "velocity": 0.03937007874015748
          },
          {
            "duration": 0.125,
            "durationTicks": 96,
            "midi": 52,
            "name": "E3",
            "ticks": 19488,
            "time": 25.375,
            "velocity": 0.03937007874015748
          },
          {
            "duration": 0.125,
            "durationTicks": 96,
            "midi": 49,
            "name": "C#3",
            "ticks": 19584,
            "time": 25.5,
            "velocity": 0.03937007874015748
          },
          {
            "duration": 0.125,
            "durationTicks": 96,
            "midi": 56,
            "name": "G#3",
            "ticks": 19584,
            "time": 25.5,
            "velocity": 0.03937007874015748
          },
          {
            "duration": 0.125,
            "durationTicks": 96,
            "midi": 52,
            "name": "E3",
            "ticks": 19584,
            "time": 25.5,
            "velocity": 0.03937007874015748
          },
          {
            "duration": 0.125,
            "durationTicks": 96,
            "midi": 52,
            "name": "E3",
            "ticks": 19680,
            "time": 25.625,
            "velocity": 0.03937007874015748
          },
          {
            "duration": 0.125,
            "durationTicks": 96,
            "midi": 56,
            "name": "G#3",
            "ticks": 19680,
            "time": 25.625,
            "velocity": 0.03937007874015748
          },
          {
            "duration": 0.125,
            "durationTicks": 96,
            "midi": 49,
            "name": "C#3",
            "ticks": 19680,
            "time": 25.625,
            "velocity": 0.03937007874015748
          },
          {
            "duration": 0.125,
            "durationTicks": 96,
            "midi": 49,
            "name": "C#3",
            "ticks": 19776,
            "time": 25.75,
            "velocity": 0.03937007874015748
          },
          {
            "duration": 0.125,
            "durationTicks": 96,
            "midi": 52,
            "name": "E3",
            "ticks": 19776,
            "time": 25.75,
            "velocity": 0.03937007874015748
          },
          {
            "duration": 0.125,
            "durationTicks": 96,
            "midi": 56,
            "name": "G#3",
            "ticks": 19776,
            "time": 25.75,
            "velocity": 0.03937007874015748
          },
          {
            "duration": 0.125,
            "durationTicks": 96,
            "midi": 56,
            "name": "G#3",
            "ticks": 19872,
            "time": 25.875,
            "velocity": 0.03937007874015748
          },
          {
            "duration": 0.125,
            "durationTicks": 96,
            "midi": 49,
            "name": "C#3",
            "ticks": 19872,
            "time": 25.875,
            "velocity": 0.03937007874015748
          },
          {
            "duration": 0.125,
            "durationTicks": 96,
            "midi": 52,
            "name": "E3",
            "ticks": 19872,
            "time": 25.875,
            "velocity": 0.03937007874015748
          },
          {
            "duration": 0.125,
            "durationTicks": 96,
            "midi": 49,
            "name": "C#3",
            "ticks": 19968,
            "time": 26,
            "velocity": 0.03937007874015748
          },
          {
            "duration": 0.125,
            "durationTicks": 96,
            "midi": 52,
            "name": "E3",
            "ticks": 19968,
            "time": 26,
            "velocity": 0.03937007874015748
          },
          {
            "duration": 0.125,
            "durationTicks": 96,
            "midi": 56,
            "name": "G#3",
            "ticks": 19968,
            "time": 26,
            "velocity": 0.03937007874015748
          },
          {
            "duration": 0.125,
            "durationTicks": 96,
            "midi": 49,
            "name": "C#3",
            "ticks": 20064,
            "time": 26.125,
            "velocity": 0.03937007874015748
          },
          {
            "duration": 0.125,
            "durationTicks": 96,
            "midi": 52,
            "name": "E3",
            "ticks": 20064,
            "time": 26.125,
            "velocity": 0.03937007874015748
          },
          {
            "duration": 0.125,
            "durationTicks": 96,
            "midi": 56,
            "name": "G#3",
            "ticks": 20064,
            "time": 26.125,
            "velocity": 0.03937007874015748
          },
          {
            "duration": 0.125,
            "durationTicks": 96,
            "midi": 49,
            "name": "C#3",
            "ticks": 20160,
            "time": 26.25,
            "velocity": 0.03937007874015748
          },
          {
            "duration": 0.125,
            "durationTicks": 96,
            "midi": 52,
            "name": "E3",
            "ticks": 20160,
            "time": 26.25,
            "velocity": 0.03937007874015748
          },
          {
            "duration": 0.125,
            "durationTicks": 96,
            "midi": 56,
            "name": "G#3",
            "ticks": 20160,
            "time": 26.25,
            "velocity": 0.03937007874015748
          },
          {
            "duration": 0.125,
            "durationTicks": 96,
            "midi": 49,
            "name": "C#3",
            "ticks": 20256,
            "time": 26.375,
            "velocity": 0.03937007874015748
          },
          {
            "duration": 0.125,
            "durationTicks": 96,
            "midi": 56,
            "name": "G#3",
            "ticks": 20256,
            "time": 26.375,
            "velocity": 0.03937007874015748
          },
          {
            "duration": 0.125,
            "durationTicks": 96,
            "midi": 52,
            "name": "E3",
            "ticks": 20256,
            "time": 26.375,
            "velocity": 0.03937007874015748
          },
          {
            "duration": 0.125,
            "durationTicks": 96,
            "midi": 49,
            "name": "C#3",
            "ticks": 20352,
            "time": 26.5,
            "velocity": 0.03937007874015748
          },
          {
            "duration": 0.125,
            "durationTicks": 96,
            "midi": 52,
            "name": "E3",
            "ticks": 20352,
            "time": 26.5,
            "velocity": 0.03937007874015748
          },
          {
            "duration": 0.125,
            "durationTicks": 96,
            "midi": 56,
            "name": "G#3",
            "ticks": 20352,
            "time": 26.5,
            "velocity": 0.03937007874015748
          },
          {
            "duration": 0.125,
            "durationTicks": 96,
            "midi": 49,
            "name": "C#3",
            "ticks": 20448,
            "time": 26.625,
            "velocity": 0.03937007874015748
          },
          {
            "duration": 0.125,
            "durationTicks": 96,
            "midi": 52,
            "name": "E3",
            "ticks": 20448,
            "time": 26.625,
            "velocity": 0.03937007874015748
          },
          {
            "duration": 0.125,
            "durationTicks": 96,
            "midi": 56,
            "name": "G#3",
            "ticks": 20448,
            "time": 26.625,
            "velocity": 0.03937007874015748
          },
          {
            "duration": 0.125,
            "durationTicks": 96,
            "midi": 49,
            "name": "C#3",
            "ticks": 20544,
            "time": 26.75,
            "velocity": 0.03937007874015748
          },
          {
            "duration": 0.125,
            "durationTicks": 96,
            "midi": 52,
            "name": "E3",
            "ticks": 20544,
            "time": 26.75,
            "velocity": 0.03937007874015748
          },
          {
            "duration": 0.125,
            "durationTicks": 96,
            "midi": 56,
            "name": "G#3",
            "ticks": 20544,
            "time": 26.75,
            "velocity": 0.03937007874015748
          },
          {
            "duration": 0.125,
            "durationTicks": 96,
            "midi": 52,
            "name": "E3",
            "ticks": 20640,
            "time": 26.875,
            "velocity": 0.03937007874015748
          },
          {
            "duration": 0.125,
            "durationTicks": 96,
            "midi": 56,
            "name": "G#3",
            "ticks": 20640,
            "time": 26.875,
            "velocity": 0.03937007874015748
          },
          {
            "duration": 0.125,
            "durationTicks": 96,
            "midi": 49,
            "name": "C#3",
            "ticks": 20640,
            "time": 26.875,
            "velocity": 0.03937007874015748
          },
          {
            "duration": 0.125,
            "durationTicks": 96,
            "midi": 56,
            "name": "G#3",
            "ticks": 20736,
            "time": 27,
            "velocity": 0.03937007874015748
          },
          {
            "duration": 0.125,
            "durationTicks": 96,
            "midi": 52,
            "name": "E3",
            "ticks": 20736,
            "time": 27,
            "velocity": 0.03937007874015748
          },
          {
            "duration": 0.125,
            "durationTicks": 96,
            "midi": 49,
            "name": "C#3",
            "ticks": 20736,
            "time": 27,
            "velocity": 0.03937007874015748
          },
          {
            "duration": 0.125,
            "durationTicks": 96,
            "midi": 49,
            "name": "C#3",
            "ticks": 20832,
            "time": 27.125,
            "velocity": 0.03937007874015748
          },
          {
            "duration": 0.125,
            "durationTicks": 96,
            "midi": 52,
            "name": "E3",
            "ticks": 20832,
            "time": 27.125,
            "velocity": 0.03937007874015748
          },
          {
            "duration": 0.125,
            "durationTicks": 96,
            "midi": 56,
            "name": "G#3",
            "ticks": 20832,
            "time": 27.125,
            "velocity": 0.03937007874015748
          },
          {
            "duration": 0.125,
            "durationTicks": 96,
            "midi": 56,
            "name": "G#3",
            "ticks": 20928,
            "time": 27.25,
            "velocity": 0.03937007874015748
          },
          {
            "duration": 0.125,
            "durationTicks": 96,
            "midi": 52,
            "name": "E3",
            "ticks": 20928,
            "time": 27.25,
            "velocity": 0.03937007874015748
          },
          {
            "duration": 0.125,
            "durationTicks": 96,
            "midi": 49,
            "name": "C#3",
            "ticks": 20928,
            "time": 27.25,
            "velocity": 0.03937007874015748
          },
          {
            "duration": 0.125,
            "durationTicks": 96,
            "midi": 56,
            "name": "G#3",
            "ticks": 21024,
            "time": 27.375,
            "velocity": 0.03937007874015748
          },
          {
            "duration": 0.125,
            "durationTicks": 96,
            "midi": 52,
            "name": "E3",
            "ticks": 21024,
            "time": 27.375,
            "velocity": 0.03937007874015748
          },
          {
            "duration": 0.125,
            "durationTicks": 96,
            "midi": 49,
            "name": "C#3",
            "ticks": 21024,
            "time": 27.375,
            "velocity": 0.03937007874015748
          },
          {
            "duration": 0.125,
            "durationTicks": 96,
            "midi": 49,
            "name": "C#3",
            "ticks": 21120,
            "time": 27.5,
            "velocity": 0.03937007874015748
          },
          {
            "duration": 0.125,
            "durationTicks": 96,
            "midi": 52,
            "name": "E3",
            "ticks": 21120,
            "time": 27.5,
            "velocity": 0.03937007874015748
          },
          {
            "duration": 0.125,
            "durationTicks": 96,
            "midi": 56,
            "name": "G#3",
            "ticks": 21120,
            "time": 27.5,
            "velocity": 0.03937007874015748
          },
          {
            "duration": 0.125,
            "durationTicks": 96,
            "midi": 56,
            "name": "G#3",
            "ticks": 21216,
            "time": 27.625,
            "velocity": 0.03937007874015748
          },
          {
            "duration": 0.125,
            "durationTicks": 96,
            "midi": 49,
            "name": "C#3",
            "ticks": 21216,
            "time": 27.625,
            "velocity": 0.03937007874015748
          },
          {
            "duration": 0.125,
            "durationTicks": 96,
            "midi": 52,
            "name": "E3",
            "ticks": 21216,
            "time": 27.625,
            "velocity": 0.03937007874015748
          },
          {
            "duration": 0.125,
            "durationTicks": 96,
            "midi": 56,
            "name": "G#3",
            "ticks": 21312,
            "time": 27.75,
            "velocity": 0.03937007874015748
          },
          {
            "duration": 0.125,
            "durationTicks": 96,
            "midi": 49,
            "name": "C#3",
            "ticks": 21312,
            "time": 27.75,
            "velocity": 0.03937007874015748
          },
          {
            "duration": 0.125,
            "durationTicks": 96,
            "midi": 52,
            "name": "E3",
            "ticks": 21312,
            "time": 27.75,
            "velocity": 0.03937007874015748
          },
          {
            "duration": 0.125,
            "durationTicks": 96,
            "midi": 52,
            "name": "E3",
            "ticks": 21408,
            "time": 27.875,
            "velocity": 0.03937007874015748
          },
          {
            "duration": 0.125,
            "durationTicks": 96,
            "midi": 56,
            "name": "G#3",
            "ticks": 21408,
            "time": 27.875,
            "velocity": 0.03937007874015748
          },
          {
            "duration": 0.125,
            "durationTicks": 96,
            "midi": 49,
            "name": "C#3",
            "ticks": 21408,
            "time": 27.875,
            "velocity": 0.03937007874015748
          },
          {
            "duration": 0.125,
            "durationTicks": 96,
            "midi": 56,
            "name": "G#3",
            "ticks": 21504,
            "time": 28,
            "velocity": 0.03937007874015748
          },
          {
            "duration": 0.125,
            "durationTicks": 96,
            "midi": 49,
            "name": "C#3",
            "ticks": 21504,
            "time": 28,
            "velocity": 0.03937007874015748
          },
          {
            "duration": 0.125,
            "durationTicks": 96,
            "midi": 52,
            "name": "E3",
            "ticks": 21504,
            "time": 28,
            "velocity": 0.03937007874015748
          },
          {
            "duration": 0.125,
            "durationTicks": 96,
            "midi": 49,
            "name": "C#3",
            "ticks": 21600,
            "time": 28.125,
            "velocity": 0.03937007874015748
          },
          {
            "duration": 0.125,
            "durationTicks": 96,
            "midi": 52,
            "name": "E3",
            "ticks": 21600,
            "time": 28.125,
            "velocity": 0.03937007874015748
          },
          {
            "duration": 0.125,
            "durationTicks": 96,
            "midi": 56,
            "name": "G#3",
            "ticks": 21600,
            "time": 28.125,
            "velocity": 0.03937007874015748
          },
          {
            "duration": 0.125,
            "durationTicks": 96,
            "midi": 49,
            "name": "C#3",
            "ticks": 21696,
            "time": 28.25,
            "velocity": 0.03937007874015748
          },
          {
            "duration": 0.125,
            "durationTicks": 96,
            "midi": 52,
            "name": "E3",
            "ticks": 21696,
            "time": 28.25,
            "velocity": 0.03937007874015748
          },
          {
            "duration": 0.125,
            "durationTicks": 96,
            "midi": 56,
            "name": "G#3",
            "ticks": 21696,
            "time": 28.25,
            "velocity": 0.03937007874015748
          },
          {
            "duration": 0.125,
            "durationTicks": 96,
            "midi": 56,
            "name": "G#3",
            "ticks": 21792,
            "time": 28.375,
            "velocity": 0.03937007874015748
          },
          {
            "duration": 0.125,
            "durationTicks": 96,
            "midi": 52,
            "name": "E3",
            "ticks": 21792,
            "time": 28.375,
            "velocity": 0.03937007874015748
          },
          {
            "duration": 0.125,
            "durationTicks": 96,
            "midi": 49,
            "name": "C#3",
            "ticks": 21792,
            "time": 28.375,
            "velocity": 0.03937007874015748
          },
          {
            "duration": 0.125,
            "durationTicks": 96,
            "midi": 56,
            "name": "G#3",
            "ticks": 21888,
            "time": 28.5,
            "velocity": 0.03937007874015748
          },
          {
            "duration": 0.125,
            "durationTicks": 96,
            "midi": 52,
            "name": "E3",
            "ticks": 21888,
            "time": 28.5,
            "velocity": 0.03937007874015748
          },
          {
            "duration": 0.125,
            "durationTicks": 96,
            "midi": 49,
            "name": "C#3",
            "ticks": 21888,
            "time": 28.5,
            "velocity": 0.03937007874015748
          },
          {
            "duration": 0.125,
            "durationTicks": 96,
            "midi": 49,
            "name": "C#3",
            "ticks": 21984,
            "time": 28.625,
            "velocity": 0.03937007874015748
          },
          {
            "duration": 0.125,
            "durationTicks": 96,
            "midi": 52,
            "name": "E3",
            "ticks": 21984,
            "time": 28.625,
            "velocity": 0.03937007874015748
          },
          {
            "duration": 0.125,
            "durationTicks": 96,
            "midi": 56,
            "name": "G#3",
            "ticks": 21984,
            "time": 28.625,
            "velocity": 0.03937007874015748
          },
          {
            "duration": 0.125,
            "durationTicks": 96,
            "midi": 56,
            "name": "G#3",
            "ticks": 22080,
            "time": 28.75,
            "velocity": 0.03937007874015748
          },
          {
            "duration": 0.125,
            "durationTicks": 96,
            "midi": 49,
            "name": "C#3",
            "ticks": 22080,
            "time": 28.75,
            "velocity": 0.03937007874015748
          },
          {
            "duration": 0.125,
            "durationTicks": 96,
            "midi": 52,
            "name": "E3",
            "ticks": 22080,
            "time": 28.75,
            "velocity": 0.03937007874015748
          },
          {
            "duration": 0.125,
            "durationTicks": 96,
            "midi": 52,
            "name": "E3",
            "ticks": 22176,
            "time": 28.875,
            "velocity": 0.03937007874015748
          },
          {
            "duration": 0.125,
            "durationTicks": 96,
            "midi": 49,
            "name": "C#3",
            "ticks": 22176,
            "time": 28.875,
            "velocity": 0.03937007874015748
          },
          {
            "duration": 0.125,
            "durationTicks": 96,
            "midi": 56,
            "name": "G#3",
            "ticks": 22176,
            "time": 28.875,
            "velocity": 0.03937007874015748
          },
          {
            "duration": 0.125,
            "durationTicks": 96,
            "midi": 56,
            "name": "G#3",
            "ticks": 22272,
            "time": 29,
            "velocity": 0.03937007874015748
          },
          {
            "duration": 0.125,
            "durationTicks": 96,
            "midi": 52,
            "name": "E3",
            "ticks": 22272,
            "time": 29,
            "velocity": 0.03937007874015748
          },
          {
            "duration": 0.125,
            "durationTicks": 96,
            "midi": 49,
            "name": "C#3",
            "ticks": 22272,
            "time": 29,
            "velocity": 0.03937007874015748
          },
          {
            "duration": 0.125,
            "durationTicks": 96,
            "midi": 56,
            "name": "G#3",
            "ticks": 22368,
            "time": 29.125,
            "velocity": 0.03937007874015748
          },
          {
            "duration": 0.125,
            "durationTicks": 96,
            "midi": 52,
            "name": "E3",
            "ticks": 22368,
            "time": 29.125,
            "velocity": 0.03937007874015748
          },
          {
            "duration": 0.125,
            "durationTicks": 96,
            "midi": 49,
            "name": "C#3",
            "ticks": 22368,
            "time": 29.125,
            "velocity": 0.03937007874015748
          },
          {
            "duration": 0.125,
            "durationTicks": 96,
            "midi": 56,
            "name": "G#3",
            "ticks": 22464,
            "time": 29.25,
            "velocity": 0.03937007874015748
          },
          {
            "duration": 0.125,
            "durationTicks": 96,
            "midi": 52,
            "name": "E3",
            "ticks": 22464,
            "time": 29.25,
            "velocity": 0.03937007874015748
          },
          {
            "duration": 0.125,
            "durationTicks": 96,
            "midi": 49,
            "name": "C#3",
            "ticks": 22464,
            "time": 29.25,
            "velocity": 0.03937007874015748
          },
          {
            "duration": 0.125,
            "durationTicks": 96,
            "midi": 49,
            "name": "C#3",
            "ticks": 22560,
            "time": 29.375,
            "velocity": 0.03937007874015748
          },
          {
            "duration": 0.125,
            "durationTicks": 96,
            "midi": 52,
            "name": "E3",
            "ticks": 22560,
            "time": 29.375,
            "velocity": 0.03937007874015748
          },
          {
            "duration": 0.125,
            "durationTicks": 96,
            "midi": 56,
            "name": "G#3",
            "ticks": 22560,
            "time": 29.375,
            "velocity": 0.03937007874015748
          },
          {
            "duration": 0.125,
            "durationTicks": 96,
            "midi": 56,
            "name": "G#3",
            "ticks": 22656,
            "time": 29.5,
            "velocity": 0.03937007874015748
          },
          {
            "duration": 0.125,
            "durationTicks": 96,
            "midi": 52,
            "name": "E3",
            "ticks": 22656,
            "time": 29.5,
            "velocity": 0.03937007874015748
          },
          {
            "duration": 0.125,
            "durationTicks": 96,
            "midi": 49,
            "name": "C#3",
            "ticks": 22656,
            "time": 29.5,
            "velocity": 0.03937007874015748
          },
          {
            "duration": 0.125,
            "durationTicks": 96,
            "midi": 56,
            "name": "G#3",
            "ticks": 22752,
            "time": 29.625,
            "velocity": 0.03937007874015748
          },
          {
            "duration": 0.125,
            "durationTicks": 96,
            "midi": 52,
            "name": "E3",
            "ticks": 22752,
            "time": 29.625,
            "velocity": 0.03937007874015748
          },
          {
            "duration": 0.125,
            "durationTicks": 96,
            "midi": 49,
            "name": "C#3",
            "ticks": 22752,
            "time": 29.625,
            "velocity": 0.03937007874015748
          },
          {
            "duration": 0.125,
            "durationTicks": 96,
            "midi": 49,
            "name": "C#3",
            "ticks": 22848,
            "time": 29.75,
            "velocity": 0.03937007874015748
          },
          {
            "duration": 0.125,
            "durationTicks": 96,
            "midi": 52,
            "name": "E3",
            "ticks": 22848,
            "time": 29.75,
            "velocity": 0.03937007874015748
          },
          {
            "duration": 0.125,
            "durationTicks": 96,
            "midi": 56,
            "name": "G#3",
            "ticks": 22848,
            "time": 29.75,
            "velocity": 0.03937007874015748
          },
          {
            "duration": 0.125,
            "durationTicks": 96,
            "midi": 56,
            "name": "G#3",
            "ticks": 22944,
            "time": 29.875,
            "velocity": 0.03937007874015748
          },
          {
            "duration": 0.125,
            "durationTicks": 96,
            "midi": 49,
            "name": "C#3",
            "ticks": 22944,
            "time": 29.875,
            "velocity": 0.03937007874015748
          },
          {
            "duration": 0.125,
            "durationTicks": 96,
            "midi": 52,
            "name": "E3",
            "ticks": 22944,
            "time": 29.875,
            "velocity": 0.03937007874015748
          },
          {
            "duration": 0.125,
            "durationTicks": 96,
            "midi": 49,
            "name": "C#3",
            "ticks": 23040,
            "time": 30,
            "velocity": 0.03937007874015748
          },
          {
            "duration": 0.125,
            "durationTicks": 96,
            "midi": 52,
            "name": "E3",
            "ticks": 23040,
            "time": 30,
            "velocity": 0.03937007874015748
          },
          {
            "duration": 0.125,
            "durationTicks": 96,
            "midi": 56,
            "name": "G#3",
            "ticks": 23040,
            "time": 30,
            "velocity": 0.03937007874015748
          },
          {
            "duration": 0.125,
            "durationTicks": 96,
            "midi": 49,
            "name": "C#3",
            "ticks": 23136,
            "time": 30.125,
            "velocity": 0.03937007874015748
          },
          {
            "duration": 0.125,
            "durationTicks": 96,
            "midi": 52,
            "name": "E3",
            "ticks": 23136,
            "time": 30.125,
            "velocity": 0.03937007874015748
          },
          {
            "duration": 0.125,
            "durationTicks": 96,
            "midi": 56,
            "name": "G#3",
            "ticks": 23136,
            "time": 30.125,
            "velocity": 0.03937007874015748
          },
          {
            "duration": 0.125,
            "durationTicks": 96,
            "midi": 52,
            "name": "E3",
            "ticks": 23232,
            "time": 30.25,
            "velocity": 0.03937007874015748
          },
          {
            "duration": 0.125,
            "durationTicks": 96,
            "midi": 49,
            "name": "C#3",
            "ticks": 23232,
            "time": 30.25,
            "velocity": 0.03937007874015748
          },
          {
            "duration": 0.125,
            "durationTicks": 96,
            "midi": 56,
            "name": "G#3",
            "ticks": 23232,
            "time": 30.25,
            "velocity": 0.03937007874015748
          },
          {
            "duration": 0.125,
            "durationTicks": 96,
            "midi": 49,
            "name": "C#3",
            "ticks": 23328,
            "time": 30.375,
            "velocity": 0.03937007874015748
          },
          {
            "duration": 0.125,
            "durationTicks": 96,
            "midi": 56,
            "name": "G#3",
            "ticks": 23328,
            "time": 30.375,
            "velocity": 0.03937007874015748
          },
          {
            "duration": 0.125,
            "durationTicks": 96,
            "midi": 52,
            "name": "E3",
            "ticks": 23328,
            "time": 30.375,
            "velocity": 0.03937007874015748
          },
          {
            "duration": 0.125,
            "durationTicks": 96,
            "midi": 52,
            "name": "E3",
            "ticks": 23424,
            "time": 30.5,
            "velocity": 0.03937007874015748
          },
          {
            "duration": 0.125,
            "durationTicks": 96,
            "midi": 49,
            "name": "C#3",
            "ticks": 23424,
            "time": 30.5,
            "velocity": 0.03937007874015748
          },
          {
            "duration": 0.125,
            "durationTicks": 96,
            "midi": 56,
            "name": "G#3",
            "ticks": 23424,
            "time": 30.5,
            "velocity": 0.03937007874015748
          },
          {
            "duration": 0.125,
            "durationTicks": 96,
            "midi": 56,
            "name": "G#3",
            "ticks": 23520,
            "time": 30.625,
            "velocity": 0.03937007874015748
          },
          {
            "duration": 0.125,
            "durationTicks": 96,
            "midi": 49,
            "name": "C#3",
            "ticks": 23520,
            "time": 30.625,
            "velocity": 0.03937007874015748
          },
          {
            "duration": 0.125,
            "durationTicks": 96,
            "midi": 52,
            "name": "E3",
            "ticks": 23520,
            "time": 30.625,
            "velocity": 0.03937007874015748
          },
          {
            "duration": 0.125,
            "durationTicks": 96,
            "midi": 52,
            "name": "E3",
            "ticks": 23616,
            "time": 30.75,
            "velocity": 0.03937007874015748
          },
          {
            "duration": 0.125,
            "durationTicks": 96,
            "midi": 56,
            "name": "G#3",
            "ticks": 23616,
            "time": 30.75,
            "velocity": 0.03937007874015748
          },
          {
            "duration": 0.125,
            "durationTicks": 96,
            "midi": 49,
            "name": "C#3",
            "ticks": 23616,
            "time": 30.75,
            "velocity": 0.03937007874015748
          },
          {
            "duration": 0.125,
            "durationTicks": 96,
            "midi": 52,
            "name": "E3",
            "ticks": 23712,
            "time": 30.875,
            "velocity": 0.03937007874015748
          },
          {
            "duration": 0.125,
            "durationTicks": 96,
            "midi": 56,
            "name": "G#3",
            "ticks": 23712,
            "time": 30.875,
            "velocity": 0.03937007874015748
          },
          {
            "duration": 0.125,
            "durationTicks": 96,
            "midi": 49,
            "name": "C#3",
            "ticks": 23712,
            "time": 30.875,
            "velocity": 0.03937007874015748
          },
          {
            "duration": 0.125,
            "durationTicks": 96,
            "midi": 49,
            "name": "C#3",
            "ticks": 23808,
            "time": 31,
            "velocity": 0.03937007874015748
          },
          {
            "duration": 0.125,
            "durationTicks": 96,
            "midi": 52,
            "name": "E3",
            "ticks": 23808,
            "time": 31,
            "velocity": 0.03937007874015748
          },
          {
            "duration": 0.125,
            "durationTicks": 96,
            "midi": 56,
            "name": "G#3",
            "ticks": 23808,
            "time": 31,
            "velocity": 0.03937007874015748
          },
          {
            "duration": 0.125,
            "durationTicks": 96,
            "midi": 56,
            "name": "G#3",
            "ticks": 23904,
            "time": 31.125,
            "velocity": 0.03937007874015748
          },
          {
            "duration": 0.125,
            "durationTicks": 96,
            "midi": 49,
            "name": "C#3",
            "ticks": 23904,
            "time": 31.125,
            "velocity": 0.03937007874015748
          },
          {
            "duration": 0.125,
            "durationTicks": 96,
            "midi": 52,
            "name": "E3",
            "ticks": 23904,
            "time": 31.125,
            "velocity": 0.03937007874015748
          },
          {
            "duration": 0.125,
            "durationTicks": 96,
            "midi": 56,
            "name": "G#3",
            "ticks": 24000,
            "time": 31.25,
            "velocity": 0.03937007874015748
          },
          {
            "duration": 0.125,
            "durationTicks": 96,
            "midi": 49,
            "name": "C#3",
            "ticks": 24000,
            "time": 31.25,
            "velocity": 0.03937007874015748
          },
          {
            "duration": 0.125,
            "durationTicks": 96,
            "midi": 52,
            "name": "E3",
            "ticks": 24000,
            "time": 31.25,
            "velocity": 0.03937007874015748
          },
          {
            "duration": 0.125,
            "durationTicks": 96,
            "midi": 49,
            "name": "C#3",
            "ticks": 24096,
            "time": 31.375,
            "velocity": 0.03937007874015748
          },
          {
            "duration": 0.125,
            "durationTicks": 96,
            "midi": 56,
            "name": "G#3",
            "ticks": 24096,
            "time": 31.375,
            "velocity": 0.03937007874015748
          },
          {
            "duration": 0.125,
            "durationTicks": 96,
            "midi": 52,
            "name": "E3",
            "ticks": 24096,
            "time": 31.375,
            "velocity": 0.03937007874015748
          },
          {
            "duration": 0.125,
            "durationTicks": 96,
            "midi": 49,
            "name": "C#3",
            "ticks": 24192,
            "time": 31.5,
            "velocity": 0.03937007874015748
          },
          {
            "duration": 0.125,
            "durationTicks": 96,
            "midi": 52,
            "name": "E3",
            "ticks": 24192,
            "time": 31.5,
            "velocity": 0.03937007874015748
          },
          {
            "duration": 0.125,
            "durationTicks": 96,
            "midi": 56,
            "name": "G#3",
            "ticks": 24192,
            "time": 31.5,
            "velocity": 0.03937007874015748
          },
          {
            "duration": 0.125,
            "durationTicks": 96,
            "midi": 56,
            "name": "G#3",
            "ticks": 24288,
            "time": 31.625,
            "velocity": 0.03937007874015748
          },
          {
            "duration": 0.125,
            "durationTicks": 96,
            "midi": 52,
            "name": "E3",
            "ticks": 24288,
            "time": 31.625,
            "velocity": 0.03937007874015748
          },
          {
            "duration": 0.125,
            "durationTicks": 96,
            "midi": 49,
            "name": "C#3",
            "ticks": 24288,
            "time": 31.625,
            "velocity": 0.03937007874015748
          },
          {
            "duration": 0.125,
            "durationTicks": 96,
            "midi": 56,
            "name": "G#3",
            "ticks": 24384,
            "time": 31.75,
            "velocity": 0.03937007874015748
          },
          {
            "duration": 0.125,
            "durationTicks": 96,
            "midi": 49,
            "name": "C#3",
            "ticks": 24384,
            "time": 31.75,
            "velocity": 0.03937007874015748
          },
          {
            "duration": 0.125,
            "durationTicks": 96,
            "midi": 52,
            "name": "E3",
            "ticks": 24384,
            "time": 31.75,
            "velocity": 0.03937007874015748
          },
          {
            "duration": 0.125,
            "durationTicks": 96,
            "midi": 52,
            "name": "E3",
            "ticks": 24480,
            "time": 31.875,
            "velocity": 0.03937007874015748
          },
          {
            "duration": 0.125,
            "durationTicks": 96,
            "midi": 56,
            "name": "G#3",
            "ticks": 24480,
            "time": 31.875,
            "velocity": 0.03937007874015748
          },
          {
            "duration": 0.125,
            "durationTicks": 96,
            "midi": 49,
            "name": "C#3",
            "ticks": 24480,
            "time": 31.875,
            "velocity": 0.03937007874015748
          },
          {
            "duration": 0.125,
            "durationTicks": 96,
            "midi": 58,
            "name": "A#3",
            "ticks": 42432,
            "time": 55.25,
            "velocity": 0.06299212598425197
          },
          {
            "duration": 0.125,
            "durationTicks": 96,
            "midi": 61,
            "name": "C#4",
            "ticks": 42432,
            "time": 55.25,
            "velocity": 0.06299212598425197
          },
          {
            "duration": 0.125,
            "durationTicks": 96,
            "midi": 66,
            "name": "F#4",
            "ticks": 42432,
            "time": 55.25,
            "velocity": 0.06299212598425197
          },
          {
            "duration": 0.125,
            "durationTicks": 96,
            "midi": 58,
            "name": "A#3",
            "ticks": 42528,
            "time": 55.375,
            "velocity": 0.06299212598425197
          },
          {
            "duration": 0.125,
            "durationTicks": 96,
            "midi": 66,
            "name": "F#4",
            "ticks": 42528,
            "time": 55.375,
            "velocity": 0.06299212598425197
          },
          {
            "duration": 0.125,
            "durationTicks": 96,
            "midi": 61,
            "name": "C#4",
            "ticks": 42528,
            "time": 55.375,
            "velocity": 0.06299212598425197
          },
          {
            "duration": 0.125,
            "durationTicks": 96,
            "midi": 66,
            "name": "F#4",
            "ticks": 42624,
            "time": 55.5,
            "velocity": 0.07086614173228346
          },
          {
            "duration": 0.125,
            "durationTicks": 96,
            "midi": 61,
            "name": "C#4",
            "ticks": 42624,
            "time": 55.5,
            "velocity": 0.07086614173228346
          },
          {
            "duration": 0.125,
            "durationTicks": 96,
            "midi": 58,
            "name": "A#3",
            "ticks": 42624,
            "time": 55.5,
            "velocity": 0.07086614173228346
          },
          {
            "duration": 0.125,
            "durationTicks": 96,
            "midi": 58,
            "name": "A#3",
            "ticks": 42720,
            "time": 55.625,
            "velocity": 0.07086614173228346
          },
          {
            "duration": 0.125,
            "durationTicks": 96,
            "midi": 66,
            "name": "F#4",
            "ticks": 42720,
            "time": 55.625,
            "velocity": 0.07086614173228346
          },
          {
            "duration": 0.125,
            "durationTicks": 96,
            "midi": 61,
            "name": "C#4",
            "ticks": 42720,
            "time": 55.625,
            "velocity": 0.07086614173228346
          },
          {
            "duration": 0.125,
            "durationTicks": 96,
            "midi": 58,
            "name": "A#3",
            "ticks": 42816,
            "time": 55.75,
            "velocity": 0.06299212598425197
          },
          {
            "duration": 0.125,
            "durationTicks": 96,
            "midi": 61,
            "name": "C#4",
            "ticks": 42816,
            "time": 55.75,
            "velocity": 0.06299212598425197
          },
          {
            "duration": 0.125,
            "durationTicks": 96,
            "midi": 66,
            "name": "F#4",
            "ticks": 42816,
            "time": 55.75,
            "velocity": 0.06299212598425197
          },
          {
            "duration": 0.125,
            "durationTicks": 96,
            "midi": 66,
            "name": "F#4",
            "ticks": 42912,
            "time": 55.875,
            "velocity": 0.06299212598425197
          },
          {
            "duration": 0.125,
            "durationTicks": 96,
            "midi": 58,
            "name": "A#3",
            "ticks": 42912,
            "time": 55.875,
            "velocity": 0.06299212598425197
          },
          {
            "duration": 0.125,
            "durationTicks": 96,
            "midi": 61,
            "name": "C#4",
            "ticks": 42912,
            "time": 55.875,
            "velocity": 0.06299212598425197
          },
          {
            "duration": 0.125,
            "durationTicks": 96,
            "midi": 66,
            "name": "F#4",
            "ticks": 43008,
            "time": 56,
            "velocity": 0.06299212598425197
          },
          {
            "duration": 0.125,
            "durationTicks": 96,
            "midi": 58,
            "name": "A#3",
            "ticks": 43008,
            "time": 56,
            "velocity": 0.06299212598425197
          },
          {
            "duration": 0.125,
            "durationTicks": 96,
            "midi": 61,
            "name": "C#4",
            "ticks": 43008,
            "time": 56,
            "velocity": 0.06299212598425197
          },
          {
            "duration": 0.125,
            "durationTicks": 96,
            "midi": 61,
            "name": "C#4",
            "ticks": 43104,
            "time": 56.125,
            "velocity": 0.06299212598425197
          },
          {
            "duration": 0.125,
            "durationTicks": 96,
            "midi": 58,
            "name": "A#3",
            "ticks": 43104,
            "time": 56.125,
            "velocity": 0.06299212598425197
          },
          {
            "duration": 0.125,
            "durationTicks": 96,
            "midi": 66,
            "name": "F#4",
            "ticks": 43104,
            "time": 56.125,
            "velocity": 0.06299212598425197
          },
          {
            "duration": 0.125,
            "durationTicks": 96,
            "midi": 66,
            "name": "F#4",
            "ticks": 43200,
            "time": 56.25,
            "velocity": 0.05511811023622047
          },
          {
            "duration": 0.125,
            "durationTicks": 96,
            "midi": 58,
            "name": "A#3",
            "ticks": 43200,
            "time": 56.25,
            "velocity": 0.05511811023622047
          },
          {
            "duration": 0.125,
            "durationTicks": 96,
            "midi": 61,
            "name": "C#4",
            "ticks": 43200,
            "time": 56.25,
            "velocity": 0.05511811023622047
          },
          {
            "duration": 0.125,
            "durationTicks": 96,
            "midi": 58,
            "name": "A#3",
            "ticks": 43296,
            "time": 56.375,
            "velocity": 0.05511811023622047
          },
          {
            "duration": 0.125,
            "durationTicks": 96,
            "midi": 61,
            "name": "C#4",
            "ticks": 43296,
            "time": 56.375,
            "velocity": 0.05511811023622047
          },
          {
            "duration": 0.125,
            "durationTicks": 96,
            "midi": 66,
            "name": "F#4",
            "ticks": 43296,
            "time": 56.375,
            "velocity": 0.05511811023622047
          },
          {
            "duration": 0.125,
            "durationTicks": 96,
            "midi": 66,
            "name": "F#4",
            "ticks": 43392,
            "time": 56.5,
            "velocity": 0.05511811023622047
          },
          {
            "duration": 0.125,
            "durationTicks": 96,
            "midi": 61,
            "name": "C#4",
            "ticks": 43392,
            "time": 56.5,
            "velocity": 0.05511811023622047
          },
          {
            "duration": 0.125,
            "durationTicks": 96,
            "midi": 58,
            "name": "A#3",
            "ticks": 43392,
            "time": 56.5,
            "velocity": 0.05511811023622047
          },
          {
            "duration": 0.125,
            "durationTicks": 96,
            "midi": 61,
            "name": "C#4",
            "ticks": 43488,
            "time": 56.625,
            "velocity": 0.05511811023622047
          },
          {
            "duration": 0.125,
            "durationTicks": 96,
            "midi": 58,
            "name": "A#3",
            "ticks": 43488,
            "time": 56.625,
            "velocity": 0.05511811023622047
          },
          {
            "duration": 0.125,
            "durationTicks": 96,
            "midi": 66,
            "name": "F#4",
            "ticks": 43488,
            "time": 56.625,
            "velocity": 0.05511811023622047
          },
          {
            "duration": 0.125,
            "durationTicks": 96,
            "midi": 66,
            "name": "F#4",
            "ticks": 43584,
            "time": 56.75,
            "velocity": 0.047244094488188976
          },
          {
            "duration": 0.125,
            "durationTicks": 96,
            "midi": 61,
            "name": "C#4",
            "ticks": 43584,
            "time": 56.75,
            "velocity": 0.047244094488188976
          },
          {
            "duration": 0.125,
            "durationTicks": 96,
            "midi": 58,
            "name": "A#3",
            "ticks": 43584,
            "time": 56.75,
            "velocity": 0.047244094488188976
          },
          {
            "duration": 0.125,
            "durationTicks": 96,
            "midi": 66,
            "name": "F#4",
            "ticks": 43680,
            "time": 56.875,
            "velocity": 0.047244094488188976
          },
          {
            "duration": 0.125,
            "durationTicks": 96,
            "midi": 61,
            "name": "C#4",
            "ticks": 43680,
            "time": 56.875,
            "velocity": 0.047244094488188976
          },
          {
            "duration": 0.125,
            "durationTicks": 96,
            "midi": 58,
            "name": "A#3",
            "ticks": 43680,
            "time": 56.875,
            "velocity": 0.047244094488188976
          },
          {
            "duration": 0.125,
            "durationTicks": 96,
            "midi": 58,
            "name": "A#3",
            "ticks": 43776,
            "time": 57,
            "velocity": 0.047244094488188976
          },
          {
            "duration": 0.125,
            "durationTicks": 96,
            "midi": 66,
            "name": "F#4",
            "ticks": 43776,
            "time": 57,
            "velocity": 0.047244094488188976
          },
          {
            "duration": 0.125,
            "durationTicks": 96,
            "midi": 61,
            "name": "C#4",
            "ticks": 43776,
            "time": 57,
            "velocity": 0.047244094488188976
          },
          {
            "duration": 0.125,
            "durationTicks": 96,
            "midi": 66,
            "name": "F#4",
            "ticks": 43872,
            "time": 57.125,
            "velocity": 0.047244094488188976
          },
          {
            "duration": 0.125,
            "durationTicks": 96,
            "midi": 61,
            "name": "C#4",
            "ticks": 43872,
            "time": 57.125,
            "velocity": 0.047244094488188976
          },
          {
            "duration": 0.125,
            "durationTicks": 96,
            "midi": 58,
            "name": "A#3",
            "ticks": 43872,
            "time": 57.125,
            "velocity": 0.047244094488188976
          },
          {
            "duration": 0.125,
            "durationTicks": 96,
            "midi": 66,
            "name": "F#4",
            "ticks": 43968,
            "time": 57.25,
            "velocity": 0.03937007874015748
          },
          {
            "duration": 0.125,
            "durationTicks": 96,
            "midi": 61,
            "name": "C#4",
            "ticks": 43968,
            "time": 57.25,
            "velocity": 0.03937007874015748
          },
          {
            "duration": 0.125,
            "durationTicks": 96,
            "midi": 58,
            "name": "A#3",
            "ticks": 43968,
            "time": 57.25,
            "velocity": 0.03937007874015748
          },
          {
            "duration": 0.125,
            "durationTicks": 96,
            "midi": 66,
            "name": "F#4",
            "ticks": 44064,
            "time": 57.375,
            "velocity": 0.03937007874015748
          },
          {
            "duration": 0.125,
            "durationTicks": 96,
            "midi": 61,
            "name": "C#4",
            "ticks": 44064,
            "time": 57.375,
            "velocity": 0.03937007874015748
          },
          {
            "duration": 0.125,
            "durationTicks": 96,
            "midi": 58,
            "name": "A#3",
            "ticks": 44064,
            "time": 57.375,
            "velocity": 0.03937007874015748
          },
          {
            "duration": 0.125,
            "durationTicks": 96,
            "midi": 58,
            "name": "A#3",
            "ticks": 44160,
            "time": 57.5,
            "velocity": 0.031496062992125984
          },
          {
            "duration": 0.125,
            "durationTicks": 96,
            "midi": 61,
            "name": "C#4",
            "ticks": 44160,
            "time": 57.5,
            "velocity": 0.031496062992125984
          },
          {
            "duration": 0.125,
            "durationTicks": 96,
            "midi": 66,
            "name": "F#4",
            "ticks": 44160,
            "time": 57.5,
            "velocity": 0.031496062992125984
          },
          {
            "duration": 0.125,
            "durationTicks": 96,
            "midi": 66,
            "name": "F#4",
            "ticks": 44256,
            "time": 57.625,
            "velocity": 0.031496062992125984
          },
          {
            "duration": 0.125,
            "durationTicks": 96,
            "midi": 61,
            "name": "C#4",
            "ticks": 44256,
            "time": 57.625,
            "velocity": 0.031496062992125984
          },
          {
            "duration": 0.125,
            "durationTicks": 96,
            "midi": 58,
            "name": "A#3",
            "ticks": 44256,
            "time": 57.625,
            "velocity": 0.031496062992125984
          },
          {
            "duration": 0.125,
            "durationTicks": 96,
            "midi": 61,
            "name": "C#4",
            "ticks": 44352,
            "time": 57.75,
            "velocity": 0.031496062992125984
          },
          {
            "duration": 0.125,
            "durationTicks": 96,
            "midi": 58,
            "name": "A#3",
            "ticks": 44352,
            "time": 57.75,
            "velocity": 0.031496062992125984
          },
          {
            "duration": 0.125,
            "durationTicks": 96,
            "midi": 66,
            "name": "F#4",
            "ticks": 44352,
            "time": 57.75,
            "velocity": 0.031496062992125984
          },
          {
            "duration": 0.125,
            "durationTicks": 96,
            "midi": 61,
            "name": "C#4",
            "ticks": 44448,
            "time": 57.875,
            "velocity": 0.031496062992125984
          },
          {
            "duration": 0.125,
            "durationTicks": 96,
            "midi": 66,
            "name": "F#4",
            "ticks": 44448,
            "time": 57.875,
            "velocity": 0.031496062992125984
          },
          {
            "duration": 0.125,
            "durationTicks": 96,
            "midi": 58,
            "name": "A#3",
            "ticks": 44448,
            "time": 57.875,
            "velocity": 0.031496062992125984
          },
          {
            "duration": 0.125,
            "durationTicks": 96,
            "midi": 58,
            "name": "A#3",
            "ticks": 44544,
            "time": 58,
            "velocity": 0.023622047244094488
          },
          {
            "duration": 0.125,
            "durationTicks": 96,
            "midi": 66,
            "name": "F#4",
            "ticks": 44544,
            "time": 58,
            "velocity": 0.023622047244094488
          },
          {
            "duration": 0.125,
            "durationTicks": 96,
            "midi": 61,
            "name": "C#4",
            "ticks": 44544,
            "time": 58,
            "velocity": 0.023622047244094488
          },
          {
            "duration": 0.125,
            "durationTicks": 96,
            "midi": 58,
            "name": "A#3",
            "ticks": 44640,
            "time": 58.125,
            "velocity": 0.023622047244094488
          },
          {
            "duration": 0.125,
            "durationTicks": 96,
            "midi": 66,
            "name": "F#4",
            "ticks": 44640,
            "time": 58.125,
            "velocity": 0.023622047244094488
          },
          {
            "duration": 0.125,
            "durationTicks": 96,
            "midi": 61,
            "name": "C#4",
            "ticks": 44640,
            "time": 58.125,
            "velocity": 0.023622047244094488
          },
          {
            "duration": 0.125,
            "durationTicks": 96,
            "midi": 66,
            "name": "F#4",
            "ticks": 44736,
            "time": 58.25,
            "velocity": 0.023622047244094488
          },
          {
            "duration": 0.125,
            "durationTicks": 96,
            "midi": 58,
            "name": "A#3",
            "ticks": 44736,
            "time": 58.25,
            "velocity": 0.023622047244094488
          },
          {
            "duration": 0.125,
            "durationTicks": 96,
            "midi": 61,
            "name": "C#4",
            "ticks": 44736,
            "time": 58.25,
            "velocity": 0.023622047244094488
          },
          {
            "duration": 0.125,
            "durationTicks": 96,
            "midi": 58,
            "name": "A#3",
            "ticks": 44832,
            "time": 58.375,
            "velocity": 0.023622047244094488
          },
          {
            "duration": 0.125,
            "durationTicks": 96,
            "midi": 61,
            "name": "C#4",
            "ticks": 44832,
            "time": 58.375,
            "velocity": 0.023622047244094488
          },
          {
            "duration": 0.125,
            "durationTicks": 96,
            "midi": 66,
            "name": "F#4",
            "ticks": 44832,
            "time": 58.375,
            "velocity": 0.023622047244094488
          },
          {
            "duration": 0.125,
            "durationTicks": 96,
            "midi": 66,
            "name": "F#4",
            "ticks": 44928,
            "time": 58.5,
            "velocity": 0.015748031496062992
          },
          {
            "duration": 0.125,
            "durationTicks": 96,
            "midi": 61,
            "name": "C#4",
            "ticks": 44928,
            "time": 58.5,
            "velocity": 0.015748031496062992
          },
          {
            "duration": 0.125,
            "durationTicks": 96,
            "midi": 58,
            "name": "A#3",
            "ticks": 44928,
            "time": 58.5,
            "velocity": 0.015748031496062992
          },
          {
            "duration": 0.125,
            "durationTicks": 96,
            "midi": 61,
            "name": "C#4",
            "ticks": 45024,
            "time": 58.625,
            "velocity": 0.015748031496062992
          },
          {
            "duration": 0.125,
            "durationTicks": 96,
            "midi": 58,
            "name": "A#3",
            "ticks": 45024,
            "time": 58.625,
            "velocity": 0.015748031496062992
          },
          {
            "duration": 0.125,
            "durationTicks": 96,
            "midi": 66,
            "name": "F#4",
            "ticks": 45024,
            "time": 58.625,
            "velocity": 0.015748031496062992
          },
          {
            "duration": 0.125,
            "durationTicks": 96,
            "midi": 61,
            "name": "C#4",
            "ticks": 45120,
            "time": 58.75,
            "velocity": 0.015748031496062992
          },
          {
            "duration": 0.125,
            "durationTicks": 96,
            "midi": 58,
            "name": "A#3",
            "ticks": 45120,
            "time": 58.75,
            "velocity": 0.015748031496062992
          },
          {
            "duration": 0.125,
            "durationTicks": 96,
            "midi": 66,
            "name": "F#4",
            "ticks": 45120,
            "time": 58.75,
            "velocity": 0.015748031496062992
          },
          {
            "duration": 0.125,
            "durationTicks": 96,
            "midi": 66,
            "name": "F#4",
            "ticks": 45216,
            "time": 58.875,
            "velocity": 0.015748031496062992
          },
          {
            "duration": 0.125,
            "durationTicks": 96,
            "midi": 61,
            "name": "C#4",
            "ticks": 45216,
            "time": 58.875,
            "velocity": 0.015748031496062992
          },
          {
            "duration": 0.125,
            "durationTicks": 96,
            "midi": 58,
            "name": "A#3",
            "ticks": 45216,
            "time": 58.875,
            "velocity": 0.015748031496062992
          },
          {
            "duration": 0.125,
            "durationTicks": 96,
            "midi": 58,
            "name": "A#3",
            "ticks": 45312,
            "time": 59,
            "velocity": 0.007874015748031496
          },
          {
            "duration": 0.125,
            "durationTicks": 96,
            "midi": 61,
            "name": "C#4",
            "ticks": 45312,
            "time": 59,
            "velocity": 0.007874015748031496
          },
          {
            "duration": 0.125,
            "durationTicks": 96,
            "midi": 66,
            "name": "F#4",
            "ticks": 45312,
            "time": 59,
            "velocity": 0.007874015748031496
          },
          {
            "duration": 0.125,
            "durationTicks": 96,
            "midi": 58,
            "name": "A#3",
            "ticks": 45408,
            "time": 59.125,
            "velocity": 0.007874015748031496
          },
          {
            "duration": 0.125,
            "durationTicks": 96,
            "midi": 66,
            "name": "F#4",
            "ticks": 45408,
            "time": 59.125,
            "velocity": 0.007874015748031496
          },
          {
            "duration": 0.125,
            "durationTicks": 96,
            "midi": 61,
            "name": "C#4",
            "ticks": 45408,
            "time": 59.125,
            "velocity": 0.007874015748031496
          },
          {
            "duration": 0.125,
            "durationTicks": 96,
            "midi": 61,
            "name": "C#4",
            "ticks": 45504,
            "time": 59.25,
            "velocity": 0.007874015748031496
          },
          {
            "duration": 0.125,
            "durationTicks": 96,
            "midi": 66,
            "name": "F#4",
            "ticks": 45504,
            "time": 59.25,
            "velocity": 0.007874015748031496
          },
          {
            "duration": 0.125,
            "durationTicks": 96,
            "midi": 58,
            "name": "A#3",
            "ticks": 45504,
            "time": 59.25,
            "velocity": 0.007874015748031496
          },
          {
            "duration": 0.125,
            "durationTicks": 96,
            "midi": 66,
            "name": "F#4",
            "ticks": 45600,
            "time": 59.375,
            "velocity": 0.007874015748031496
          },
          {
            "duration": 0.125,
            "durationTicks": 96,
            "midi": 58,
            "name": "A#3",
            "ticks": 45600,
            "time": 59.375,
            "velocity": 0.007874015748031496
          },
          {
            "duration": 0.125,
            "durationTicks": 96,
            "midi": 61,
            "name": "C#4",
            "ticks": 45600,
            "time": 59.375,
            "velocity": 0.007874015748031496
          },
          {
            "duration": 0.125,
            "durationTicks": 96,
            "midi": 61,
            "name": "C#4",
            "ticks": 48576,
            "time": 63.25,
            "velocity": 0.06299212598425197
          },
          {
            "duration": 0.125,
            "durationTicks": 96,
            "midi": 66,
            "name": "F#4",
            "ticks": 48576,
            "time": 63.25,
            "velocity": 0.06299212598425197
          },
          {
            "duration": 0.125,
            "durationTicks": 96,
            "midi": 58,
            "name": "A#3",
            "ticks": 48576,
            "time": 63.25,
            "velocity": 0.06299212598425197
          },
          {
            "duration": 0.125,
            "durationTicks": 96,
            "midi": 61,
            "name": "C#4",
            "ticks": 48672,
            "time": 63.375,
            "velocity": 0.06299212598425197
          },
          {
            "duration": 0.125,
            "durationTicks": 96,
            "midi": 58,
            "name": "A#3",
            "ticks": 48672,
            "time": 63.375,
            "velocity": 0.06299212598425197
          },
          {
            "duration": 0.125,
            "durationTicks": 96,
            "midi": 66,
            "name": "F#4",
            "ticks": 48672,
            "time": 63.375,
            "velocity": 0.06299212598425197
          },
          {
            "duration": 0.125,
            "durationTicks": 96,
            "midi": 58,
            "name": "A#3",
            "ticks": 48768,
            "time": 63.5,
            "velocity": 0.07086614173228346
          },
          {
            "duration": 0.125,
            "durationTicks": 96,
            "midi": 61,
            "name": "C#4",
            "ticks": 48768,
            "time": 63.5,
            "velocity": 0.07086614173228346
          },
          {
            "duration": 0.125,
            "durationTicks": 96,
            "midi": 66,
            "name": "F#4",
            "ticks": 48768,
            "time": 63.5,
            "velocity": 0.07086614173228346
          },
          {
            "duration": 0.125,
            "durationTicks": 96,
            "midi": 66,
            "name": "F#4",
            "ticks": 48864,
            "time": 63.625,
            "velocity": 0.07086614173228346
          },
          {
            "duration": 0.125,
            "durationTicks": 96,
            "midi": 58,
            "name": "A#3",
            "ticks": 48864,
            "time": 63.625,
            "velocity": 0.07086614173228346
          },
          {
            "duration": 0.125,
            "durationTicks": 96,
            "midi": 61,
            "name": "C#4",
            "ticks": 48864,
            "time": 63.625,
            "velocity": 0.07086614173228346
          },
          {
            "duration": 0.125,
            "durationTicks": 96,
            "midi": 58,
            "name": "A#3",
            "ticks": 48960,
            "time": 63.75,
            "velocity": 0.06299212598425197
          },
          {
            "duration": 0.125,
            "durationTicks": 96,
            "midi": 61,
            "name": "C#4",
            "ticks": 48960,
            "time": 63.75,
            "velocity": 0.06299212598425197
          },
          {
            "duration": 0.125,
            "durationTicks": 96,
            "midi": 66,
            "name": "F#4",
            "ticks": 48960,
            "time": 63.75,
            "velocity": 0.06299212598425197
          },
          {
            "duration": 0.125,
            "durationTicks": 96,
            "midi": 66,
            "name": "F#4",
            "ticks": 49056,
            "time": 63.875,
            "velocity": 0.06299212598425197
          },
          {
            "duration": 0.125,
            "durationTicks": 96,
            "midi": 58,
            "name": "A#3",
            "ticks": 49056,
            "time": 63.875,
            "velocity": 0.06299212598425197
          },
          {
            "duration": 0.125,
            "durationTicks": 96,
            "midi": 61,
            "name": "C#4",
            "ticks": 49056,
            "time": 63.875,
            "velocity": 0.06299212598425197
          },
          {
            "duration": 0.125,
            "durationTicks": 96,
            "midi": 61,
            "name": "C#4",
            "ticks": 49152,
            "time": 64,
            "velocity": 0.06299212598425197
          },
          {
            "duration": 0.125,
            "durationTicks": 96,
            "midi": 66,
            "name": "F#4",
            "ticks": 49152,
            "time": 64,
            "velocity": 0.06299212598425197
          },
          {
            "duration": 0.125,
            "durationTicks": 96,
            "midi": 58,
            "name": "A#3",
            "ticks": 49152,
            "time": 64,
            "velocity": 0.06299212598425197
          },
          {
            "duration": 0.125,
            "durationTicks": 96,
            "midi": 58,
            "name": "A#3",
            "ticks": 49248,
            "time": 64.125,
            "velocity": 0.06299212598425197
          },
          {
            "duration": 0.125,
            "durationTicks": 96,
            "midi": 66,
            "name": "F#4",
            "ticks": 49248,
            "time": 64.125,
            "velocity": 0.06299212598425197
          },
          {
            "duration": 0.125,
            "durationTicks": 96,
            "midi": 61,
            "name": "C#4",
            "ticks": 49248,
            "time": 64.125,
            "velocity": 0.06299212598425197
          },
          {
            "duration": 0.125,
            "durationTicks": 96,
            "midi": 58,
            "name": "A#3",
            "ticks": 49344,
            "time": 64.25,
            "velocity": 0.05511811023622047
          },
          {
            "duration": 0.125,
            "durationTicks": 96,
            "midi": 66,
            "name": "F#4",
            "ticks": 49344,
            "time": 64.25,
            "velocity": 0.05511811023622047
          },
          {
            "duration": 0.125,
            "durationTicks": 96,
            "midi": 61,
            "name": "C#4",
            "ticks": 49344,
            "time": 64.25,
            "velocity": 0.05511811023622047
          },
          {
            "duration": 0.125,
            "durationTicks": 96,
            "midi": 66,
            "name": "F#4",
            "ticks": 49440,
            "time": 64.375,
            "velocity": 0.05511811023622047
          },
          {
            "duration": 0.125,
            "durationTicks": 96,
            "midi": 61,
            "name": "C#4",
            "ticks": 49440,
            "time": 64.375,
            "velocity": 0.05511811023622047
          },
          {
            "duration": 0.125,
            "durationTicks": 96,
            "midi": 58,
            "name": "A#3",
            "ticks": 49440,
            "time": 64.375,
            "velocity": 0.05511811023622047
          },
          {
            "duration": 0.125,
            "durationTicks": 96,
            "midi": 66,
            "name": "F#4",
            "ticks": 49536,
            "time": 64.5,
            "velocity": 0.05511811023622047
          },
          {
            "duration": 0.125,
            "durationTicks": 96,
            "midi": 61,
            "name": "C#4",
            "ticks": 49536,
            "time": 64.5,
            "velocity": 0.05511811023622047
          },
          {
            "duration": 0.125,
            "durationTicks": 96,
            "midi": 58,
            "name": "A#3",
            "ticks": 49536,
            "time": 64.5,
            "velocity": 0.05511811023622047
          },
          {
            "duration": 0.125,
            "durationTicks": 96,
            "midi": 58,
            "name": "A#3",
            "ticks": 49632,
            "time": 64.625,
            "velocity": 0.05511811023622047
          },
          {
            "duration": 0.125,
            "durationTicks": 96,
            "midi": 66,
            "name": "F#4",
            "ticks": 49632,
            "time": 64.625,
            "velocity": 0.05511811023622047
          },
          {
            "duration": 0.125,
            "durationTicks": 96,
            "midi": 61,
            "name": "C#4",
            "ticks": 49632,
            "time": 64.625,
            "velocity": 0.05511811023622047
          },
          {
            "duration": 0.125,
            "durationTicks": 96,
            "midi": 61,
            "name": "C#4",
            "ticks": 49728,
            "time": 64.75,
            "velocity": 0.047244094488188976
          },
          {
            "duration": 0.125,
            "durationTicks": 96,
            "midi": 58,
            "name": "A#3",
            "ticks": 49728,
            "time": 64.75,
            "velocity": 0.047244094488188976
          },
          {
            "duration": 0.125,
            "durationTicks": 96,
            "midi": 66,
            "name": "F#4",
            "ticks": 49728,
            "time": 64.75,
            "velocity": 0.047244094488188976
          },
          {
            "duration": 0.125,
            "durationTicks": 96,
            "midi": 66,
            "name": "F#4",
            "ticks": 49824,
            "time": 64.875,
            "velocity": 0.047244094488188976
          },
          {
            "duration": 0.125,
            "durationTicks": 96,
            "midi": 61,
            "name": "C#4",
            "ticks": 49824,
            "time": 64.875,
            "velocity": 0.047244094488188976
          },
          {
            "duration": 0.125,
            "durationTicks": 96,
            "midi": 58,
            "name": "A#3",
            "ticks": 49824,
            "time": 64.875,
            "velocity": 0.047244094488188976
          },
          {
            "duration": 0.125,
            "durationTicks": 96,
            "midi": 66,
            "name": "F#4",
            "ticks": 49920,
            "time": 65,
            "velocity": 0.047244094488188976
          },
          {
            "duration": 0.125,
            "durationTicks": 96,
            "midi": 61,
            "name": "C#4",
            "ticks": 49920,
            "time": 65,
            "velocity": 0.047244094488188976
          },
          {
            "duration": 0.125,
            "durationTicks": 96,
            "midi": 58,
            "name": "A#3",
            "ticks": 49920,
            "time": 65,
            "velocity": 0.047244094488188976
          },
          {
            "duration": 0.125,
            "durationTicks": 96,
            "midi": 58,
            "name": "A#3",
            "ticks": 50016,
            "time": 65.125,
            "velocity": 0.047244094488188976
          },
          {
            "duration": 0.125,
            "durationTicks": 96,
            "midi": 66,
            "name": "F#4",
            "ticks": 50016,
            "time": 65.125,
            "velocity": 0.047244094488188976
          },
          {
            "duration": 0.125,
            "durationTicks": 96,
            "midi": 61,
            "name": "C#4",
            "ticks": 50016,
            "time": 65.125,
            "velocity": 0.047244094488188976
          },
          {
            "duration": 0.125,
            "durationTicks": 96,
            "midi": 61,
            "name": "C#4",
            "ticks": 50112,
            "time": 65.25,
            "velocity": 0.03937007874015748
          },
          {
            "duration": 0.125,
            "durationTicks": 96,
            "midi": 66,
            "name": "F#4",
            "ticks": 50112,
            "time": 65.25,
            "velocity": 0.03937007874015748
          },
          {
            "duration": 0.125,
            "durationTicks": 96,
            "midi": 58,
            "name": "A#3",
            "ticks": 50112,
            "time": 65.25,
            "velocity": 0.03937007874015748
          },
          {
            "duration": 0.125,
            "durationTicks": 96,
            "midi": 66,
            "name": "F#4",
            "ticks": 50208,
            "time": 65.375,
            "velocity": 0.03937007874015748
          },
          {
            "duration": 0.125,
            "durationTicks": 96,
            "midi": 61,
            "name": "C#4",
            "ticks": 50208,
            "time": 65.375,
            "velocity": 0.03937007874015748
          },
          {
            "duration": 0.125,
            "durationTicks": 96,
            "midi": 58,
            "name": "A#3",
            "ticks": 50208,
            "time": 65.375,
            "velocity": 0.03937007874015748
          },
          {
            "duration": 0.125,
            "durationTicks": 96,
            "midi": 61,
            "name": "C#4",
            "ticks": 50304,
            "time": 65.5,
            "velocity": 0.031496062992125984
          },
          {
            "duration": 0.125,
            "durationTicks": 96,
            "midi": 58,
            "name": "A#3",
            "ticks": 50304,
            "time": 65.5,
            "velocity": 0.031496062992125984
          },
          {
            "duration": 0.125,
            "durationTicks": 96,
            "midi": 66,
            "name": "F#4",
            "ticks": 50304,
            "time": 65.5,
            "velocity": 0.031496062992125984
          },
          {
            "duration": 0.125,
            "durationTicks": 96,
            "midi": 66,
            "name": "F#4",
            "ticks": 50400,
            "time": 65.625,
            "velocity": 0.031496062992125984
          },
          {
            "duration": 0.125,
            "durationTicks": 96,
            "midi": 61,
            "name": "C#4",
            "ticks": 50400,
            "time": 65.625,
            "velocity": 0.031496062992125984
          },
          {
            "duration": 0.125,
            "durationTicks": 96,
            "midi": 58,
            "name": "A#3",
            "ticks": 50400,
            "time": 65.625,
            "velocity": 0.031496062992125984
          },
          {
            "duration": 0.125,
            "durationTicks": 96,
            "midi": 66,
            "name": "F#4",
            "ticks": 50496,
            "time": 65.75,
            "velocity": 0.031496062992125984
          },
          {
            "duration": 0.125,
            "durationTicks": 96,
            "midi": 61,
            "name": "C#4",
            "ticks": 50496,
            "time": 65.75,
            "velocity": 0.031496062992125984
          },
          {
            "duration": 0.125,
            "durationTicks": 96,
            "midi": 58,
            "name": "A#3",
            "ticks": 50496,
            "time": 65.75,
            "velocity": 0.031496062992125984
          },
          {
            "duration": 0.125,
            "durationTicks": 96,
            "midi": 61,
            "name": "C#4",
            "ticks": 50592,
            "time": 65.875,
            "velocity": 0.031496062992125984
          },
          {
            "duration": 0.125,
            "durationTicks": 96,
            "midi": 58,
            "name": "A#3",
            "ticks": 50592,
            "time": 65.875,
            "velocity": 0.031496062992125984
          },
          {
            "duration": 0.125,
            "durationTicks": 96,
            "midi": 66,
            "name": "F#4",
            "ticks": 50592,
            "time": 65.875,
            "velocity": 0.031496062992125984
          },
          {
            "duration": 0.125,
            "durationTicks": 96,
            "midi": 61,
            "name": "C#4",
            "ticks": 50688,
            "time": 66,
            "velocity": 0.023622047244094488
          },
          {
            "duration": 0.125,
            "durationTicks": 96,
            "midi": 58,
            "name": "A#3",
            "ticks": 50688,
            "time": 66,
            "velocity": 0.023622047244094488
          },
          {
            "duration": 0.125,
            "durationTicks": 96,
            "midi": 66,
            "name": "F#4",
            "ticks": 50688,
            "time": 66,
            "velocity": 0.023622047244094488
          },
          {
            "duration": 0.125,
            "durationTicks": 96,
            "midi": 66,
            "name": "F#4",
            "ticks": 50784,
            "time": 66.125,
            "velocity": 0.023622047244094488
          },
          {
            "duration": 0.125,
            "durationTicks": 96,
            "midi": 61,
            "name": "C#4",
            "ticks": 50784,
            "time": 66.125,
            "velocity": 0.023622047244094488
          },
          {
            "duration": 0.125,
            "durationTicks": 96,
            "midi": 58,
            "name": "A#3",
            "ticks": 50784,
            "time": 66.125,
            "velocity": 0.023622047244094488
          },
          {
            "duration": 0.125,
            "durationTicks": 96,
            "midi": 66,
            "name": "F#4",
            "ticks": 50880,
            "time": 66.25,
            "velocity": 0.023622047244094488
          },
          {
            "duration": 0.125,
            "durationTicks": 96,
            "midi": 61,
            "name": "C#4",
            "ticks": 50880,
            "time": 66.25,
            "velocity": 0.023622047244094488
          },
          {
            "duration": 0.125,
            "durationTicks": 96,
            "midi": 58,
            "name": "A#3",
            "ticks": 50880,
            "time": 66.25,
            "velocity": 0.023622047244094488
          },
          {
            "duration": 0.125,
            "durationTicks": 96,
            "midi": 61,
            "name": "C#4",
            "ticks": 50976,
            "time": 66.375,
            "velocity": 0.023622047244094488
          },
          {
            "duration": 0.125,
            "durationTicks": 96,
            "midi": 66,
            "name": "F#4",
            "ticks": 50976,
            "time": 66.375,
            "velocity": 0.023622047244094488
          },
          {
            "duration": 0.125,
            "durationTicks": 96,
            "midi": 58,
            "name": "A#3",
            "ticks": 50976,
            "time": 66.375,
            "velocity": 0.023622047244094488
          },
          {
            "duration": 0.125,
            "durationTicks": 96,
            "midi": 61,
            "name": "C#4",
            "ticks": 51072,
            "time": 66.5,
            "velocity": 0.015748031496062992
          },
          {
            "duration": 0.125,
            "durationTicks": 96,
            "midi": 58,
            "name": "A#3",
            "ticks": 51072,
            "time": 66.5,
            "velocity": 0.015748031496062992
          },
          {
            "duration": 0.125,
            "durationTicks": 96,
            "midi": 66,
            "name": "F#4",
            "ticks": 51072,
            "time": 66.5,
            "velocity": 0.015748031496062992
          },
          {
            "duration": 0.125,
            "durationTicks": 96,
            "midi": 66,
            "name": "F#4",
            "ticks": 51168,
            "time": 66.625,
            "velocity": 0.015748031496062992
          },
          {
            "duration": 0.125,
            "durationTicks": 96,
            "midi": 61,
            "name": "C#4",
            "ticks": 51168,
            "time": 66.625,
            "velocity": 0.015748031496062992
          },
          {
            "duration": 0.125,
            "durationTicks": 96,
            "midi": 58,
            "name": "A#3",
            "ticks": 51168,
            "time": 66.625,
            "velocity": 0.015748031496062992
          },
          {
            "duration": 0.125,
            "durationTicks": 96,
            "midi": 66,
            "name": "F#4",
            "ticks": 51264,
            "time": 66.75,
            "velocity": 0.015748031496062992
          },
          {
            "duration": 0.125,
            "durationTicks": 96,
            "midi": 61,
            "name": "C#4",
            "ticks": 51264,
            "time": 66.75,
            "velocity": 0.015748031496062992
          },
          {
            "duration": 0.125,
            "durationTicks": 96,
            "midi": 58,
            "name": "A#3",
            "ticks": 51264,
            "time": 66.75,
            "velocity": 0.015748031496062992
          },
          {
            "duration": 0.125,
            "durationTicks": 96,
            "midi": 58,
            "name": "A#3",
            "ticks": 51360,
            "time": 66.875,
            "velocity": 0.015748031496062992
          },
          {
            "duration": 0.125,
            "durationTicks": 96,
            "midi": 61,
            "name": "C#4",
            "ticks": 51360,
            "time": 66.875,
            "velocity": 0.015748031496062992
          },
          {
            "duration": 0.125,
            "durationTicks": 96,
            "midi": 66,
            "name": "F#4",
            "ticks": 51360,
            "time": 66.875,
            "velocity": 0.015748031496062992
          },
          {
            "duration": 0.125,
            "durationTicks": 96,
            "midi": 66,
            "name": "F#4",
            "ticks": 51456,
            "time": 67,
            "velocity": 0.007874015748031496
          },
          {
            "duration": 0.125,
            "durationTicks": 96,
            "midi": 61,
            "name": "C#4",
            "ticks": 51456,
            "time": 67,
            "velocity": 0.007874015748031496
          },
          {
            "duration": 0.125,
            "durationTicks": 96,
            "midi": 58,
            "name": "A#3",
            "ticks": 51456,
            "time": 67,
            "velocity": 0.007874015748031496
          },
          {
            "duration": 0.125,
            "durationTicks": 96,
            "midi": 61,
            "name": "C#4",
            "ticks": 51552,
            "time": 67.125,
            "velocity": 0.007874015748031496
          },
          {
            "duration": 0.125,
            "durationTicks": 96,
            "midi": 58,
            "name": "A#3",
            "ticks": 51552,
            "time": 67.125,
            "velocity": 0.007874015748031496
          },
          {
            "duration": 0.125,
            "durationTicks": 96,
            "midi": 66,
            "name": "F#4",
            "ticks": 51552,
            "time": 67.125,
            "velocity": 0.007874015748031496
          },
          {
            "duration": 0.125,
            "durationTicks": 96,
            "midi": 66,
            "name": "F#4",
            "ticks": 51648,
            "time": 67.25,
            "velocity": 0.007874015748031496
          },
          {
            "duration": 0.125,
            "durationTicks": 96,
            "midi": 61,
            "name": "C#4",
            "ticks": 51648,
            "time": 67.25,
            "velocity": 0.007874015748031496
          },
          {
            "duration": 0.125,
            "durationTicks": 96,
            "midi": 58,
            "name": "A#3",
            "ticks": 51648,
            "time": 67.25,
            "velocity": 0.007874015748031496
          },
          {
            "duration": 0.125,
            "durationTicks": 96,
            "midi": 61,
            "name": "C#4",
            "ticks": 51744,
            "time": 67.375,
            "velocity": 0.007874015748031496
          },
          {
            "duration": 0.125,
            "durationTicks": 96,
            "midi": 58,
            "name": "A#3",
            "ticks": 51744,
            "time": 67.375,
            "velocity": 0.007874015748031496
          },
          {
            "duration": 0.125,
            "durationTicks": 96,
            "midi": 66,
            "name": "F#4",
            "ticks": 51744,
            "time": 67.375,
            "velocity": 0.007874015748031496
          },
          {
            "duration": 0,
            "durationTicks": 0,
            "midi": 51,
            "name": "D#3",
            "ticks": 53952,
            "time": 70.25,
            "velocity": 0.007874015748031496
          },
          {
            "duration": 0,
            "durationTicks": 0,
            "midi": 54,
            "name": "F#3",
            "ticks": 53952,
            "time": 70.25,
            "velocity": 0.007874015748031496
          },
          {
            "duration": 0,
            "durationTicks": 0,
            "midi": 56,
            "name": "G#3",
            "ticks": 53952,
            "time": 70.25,
            "velocity": 0.007874015748031496
          },
          {
            "duration": 0,
            "durationTicks": 0,
            "midi": 51,
            "name": "D#3",
            "ticks": 54048,
            "time": 70.375,
            "velocity": 0.007874015748031496
          },
          {
            "duration": 0,
            "durationTicks": 0,
            "midi": 56,
            "name": "G#3",
            "ticks": 54048,
            "time": 70.375,
            "velocity": 0.007874015748031496
          },
          {
            "duration": 0,
            "durationTicks": 0,
            "midi": 54,
            "name": "F#3",
            "ticks": 54048,
            "time": 70.375,
            "velocity": 0.007874015748031496
          },
          {
            "duration": 0,
            "durationTicks": 0,
            "midi": 56,
            "name": "G#3",
            "ticks": 54144,
            "time": 70.5,
            "velocity": 0.015748031496062992
          },
          {
            "duration": 0,
            "durationTicks": 0,
            "midi": 51,
            "name": "D#3",
            "ticks": 54144,
            "time": 70.5,
            "velocity": 0.015748031496062992
          },
          {
            "duration": 0,
            "durationTicks": 0,
            "midi": 54,
            "name": "F#3",
            "ticks": 54144,
            "time": 70.5,
            "velocity": 0.015748031496062992
          },
          {
            "duration": 0,
            "durationTicks": 0,
            "midi": 56,
            "name": "G#3",
            "ticks": 54240,
            "time": 70.625,
            "velocity": 0.015748031496062992
          },
          {
            "duration": 0,
            "durationTicks": 0,
            "midi": 54,
            "name": "F#3",
            "ticks": 54240,
            "time": 70.625,
            "velocity": 0.015748031496062992
          },
          {
            "duration": 0,
            "durationTicks": 0,
            "midi": 51,
            "name": "D#3",
            "ticks": 54240,
            "time": 70.625,
            "velocity": 0.015748031496062992
          },
          {
            "duration": 0,
            "durationTicks": 0,
            "midi": 56,
            "name": "G#3",
            "ticks": 54336,
            "time": 70.75,
            "velocity": 0.015748031496062992
          },
          {
            "duration": 0,
            "durationTicks": 0,
            "midi": 51,
            "name": "D#3",
            "ticks": 54336,
            "time": 70.75,
            "velocity": 0.015748031496062992
          },
          {
            "duration": 0,
            "durationTicks": 0,
            "midi": 54,
            "name": "F#3",
            "ticks": 54336,
            "time": 70.75,
            "velocity": 0.015748031496062992
          },
          {
            "duration": 0,
            "durationTicks": 0,
            "midi": 51,
            "name": "D#3",
            "ticks": 54432,
            "time": 70.875,
            "velocity": 0.015748031496062992
          },
          {
            "duration": 0,
            "durationTicks": 0,
            "midi": 54,
            "name": "F#3",
            "ticks": 54432,
            "time": 70.875,
            "velocity": 0.015748031496062992
          },
          {
            "duration": 0,
            "durationTicks": 0,
            "midi": 56,
            "name": "G#3",
            "ticks": 54432,
            "time": 70.875,
            "velocity": 0.015748031496062992
          },
          {
            "duration": 0,
            "durationTicks": 0,
            "midi": 51,
            "name": "D#3",
            "ticks": 54528,
            "time": 71,
            "velocity": 0.023622047244094488
          },
          {
            "duration": 0,
            "durationTicks": 0,
            "midi": 56,
            "name": "G#3",
            "ticks": 54528,
            "time": 71,
            "velocity": 0.023622047244094488
          },
          {
            "duration": 0,
            "durationTicks": 0,
            "midi": 54,
            "name": "F#3",
            "ticks": 54528,
            "time": 71,
            "velocity": 0.023622047244094488
          },
          {
            "duration": 0,
            "durationTicks": 0,
            "midi": 54,
            "name": "F#3",
            "ticks": 54624,
            "time": 71.125,
            "velocity": 0.023622047244094488
          },
          {
            "duration": 0,
            "durationTicks": 0,
            "midi": 51,
            "name": "D#3",
            "ticks": 54624,
            "time": 71.125,
            "velocity": 0.023622047244094488
          },
          {
            "duration": 0,
            "durationTicks": 0,
            "midi": 56,
            "name": "G#3",
            "ticks": 54624,
            "time": 71.125,
            "velocity": 0.023622047244094488
          },
          {
            "duration": 0,
            "durationTicks": 0,
            "midi": 51,
            "name": "D#3",
            "ticks": 54720,
            "time": 71.25,
            "velocity": 0.023622047244094488
          },
          {
            "duration": 0,
            "durationTicks": 0,
            "midi": 54,
            "name": "F#3",
            "ticks": 54720,
            "time": 71.25,
            "velocity": 0.023622047244094488
          },
          {
            "duration": 0,
            "durationTicks": 0,
            "midi": 56,
            "name": "G#3",
            "ticks": 54720,
            "time": 71.25,
            "velocity": 0.023622047244094488
          },
          {
            "duration": 0,
            "durationTicks": 0,
            "midi": 54,
            "name": "F#3",
            "ticks": 54816,
            "time": 71.375,
            "velocity": 0.023622047244094488
          },
          {
            "duration": 0,
            "durationTicks": 0,
            "midi": 56,
            "name": "G#3",
            "ticks": 54816,
            "time": 71.375,
            "velocity": 0.023622047244094488
          },
          {
            "duration": 0,
            "durationTicks": 0,
            "midi": 51,
            "name": "D#3",
            "ticks": 54816,
            "time": 71.375,
            "velocity": 0.023622047244094488
          },
          {
            "duration": 0,
            "durationTicks": 0,
            "midi": 51,
            "name": "D#3",
            "ticks": 54912,
            "time": 71.5,
            "velocity": 0.031496062992125984
          },
          {
            "duration": 0,
            "durationTicks": 0,
            "midi": 56,
            "name": "G#3",
            "ticks": 54912,
            "time": 71.5,
            "velocity": 0.031496062992125984
          },
          {
            "duration": 0,
            "durationTicks": 0,
            "midi": 54,
            "name": "F#3",
            "ticks": 54912,
            "time": 71.5,
            "velocity": 0.031496062992125984
          },
          {
            "duration": 0,
            "durationTicks": 0,
            "midi": 54,
            "name": "F#3",
            "ticks": 55008,
            "time": 71.625,
            "velocity": 0.031496062992125984
          },
          {
            "duration": 0,
            "durationTicks": 0,
            "midi": 56,
            "name": "G#3",
            "ticks": 55008,
            "time": 71.625,
            "velocity": 0.031496062992125984
          },
          {
            "duration": 0,
            "durationTicks": 0,
            "midi": 51,
            "name": "D#3",
            "ticks": 55008,
            "time": 71.625,
            "velocity": 0.031496062992125984
          },
          {
            "duration": 0,
            "durationTicks": 0,
            "midi": 54,
            "name": "F#3",
            "ticks": 55104,
            "time": 71.75,
            "velocity": 0.031496062992125984
          },
          {
            "duration": 0,
            "durationTicks": 0,
            "midi": 51,
            "name": "D#3",
            "ticks": 55104,
            "time": 71.75,
            "velocity": 0.031496062992125984
          },
          {
            "duration": 0,
            "durationTicks": 0,
            "midi": 56,
            "name": "G#3",
            "ticks": 55104,
            "time": 71.75,
            "velocity": 0.031496062992125984
          },
          {
            "duration": 0,
            "durationTicks": 0,
            "midi": 54,
            "name": "F#3",
            "ticks": 55200,
            "time": 71.875,
            "velocity": 0.031496062992125984
          },
          {
            "duration": 0,
            "durationTicks": 0,
            "midi": 56,
            "name": "G#3",
            "ticks": 55200,
            "time": 71.875,
            "velocity": 0.031496062992125984
          },
          {
            "duration": 0,
            "durationTicks": 0,
            "midi": 51,
            "name": "D#3",
            "ticks": 55200,
            "time": 71.875,
            "velocity": 0.031496062992125984
          },
          {
            "duration": 0.125,
            "durationTicks": 96,
            "midi": 61,
            "name": "C#4",
            "ticks": 55296,
            "time": 72,
            "velocity": 0.03937007874015748
          },
          {
            "duration": 0.125,
            "durationTicks": 96,
            "midi": 52,
            "name": "E3",
            "ticks": 55296,
            "time": 72,
            "velocity": 0.03937007874015748
          },
          {
            "duration": 0,
            "durationTicks": 0,
            "midi": 56,
            "name": "G#3",
            "ticks": 55296,
            "time": 72,
            "velocity": 0.03937007874015748
          },
          {
            "duration": 0.125,
            "durationTicks": 96,
            "midi": 52,
            "name": "E3",
            "ticks": 55392,
            "time": 72.125,
            "velocity": 0.03937007874015748
          },
          {
            "duration": 0,
            "durationTicks": 0,
            "midi": 56,
            "name": "G#3",
            "ticks": 55392,
            "time": 72.125,
            "velocity": 0.03937007874015748
          },
          {
            "duration": 0.125,
            "durationTicks": 96,
            "midi": 61,
            "name": "C#4",
            "ticks": 55392,
            "time": 72.125,
            "velocity": 0.03937007874015748
          },
          {
            "duration": 0,
            "durationTicks": 0,
            "midi": 56,
            "name": "G#3",
            "ticks": 55488,
            "time": 72.25,
            "velocity": 0.031496062992125984
          },
          {
            "duration": 0.125,
            "durationTicks": 96,
            "midi": 61,
            "name": "C#4",
            "ticks": 55488,
            "time": 72.25,
            "velocity": 0.031496062992125984
          },
          {
            "duration": 0.125,
            "durationTicks": 96,
            "midi": 52,
            "name": "E3",
            "ticks": 55488,
            "time": 72.25,
            "velocity": 0.031496062992125984
          },
          {
            "duration": 0,
            "durationTicks": 0,
            "midi": 56,
            "name": "G#3",
            "ticks": 55584,
            "time": 72.375,
            "velocity": 0.03937007874015748
          },
          {
            "duration": 0.125,
            "durationTicks": 96,
            "midi": 59,
            "name": "B3",
            "ticks": 55584,
            "time": 72.375,
            "velocity": 0.03937007874015748
          },
          {
            "duration": 0.125,
            "durationTicks": 96,
            "midi": 52,
            "name": "E3",
            "ticks": 55584,
            "time": 72.375,
            "velocity": 0.03937007874015748
          },
          {
            "duration": 0,
            "durationTicks": 0,
            "midi": 56,
            "name": "G#3",
            "ticks": 55680,
            "time": 72.5,
            "velocity": 0.03937007874015748
          },
          {
            "duration": 0.125,
            "durationTicks": 96,
            "midi": 59,
            "name": "B3",
            "ticks": 55680,
            "time": 72.5,
            "velocity": 0.03937007874015748
          },
          {
            "duration": 0.125,
            "durationTicks": 96,
            "midi": 52,
            "name": "E3",
            "ticks": 55680,
            "time": 72.5,
            "velocity": 0.03937007874015748
          },
          {
            "duration": 0.125,
            "durationTicks": 96,
            "midi": 59,
            "name": "B3",
            "ticks": 55776,
            "time": 72.625,
            "velocity": 0.031496062992125984
          },
          {
            "duration": 0,
            "durationTicks": 0,
            "midi": 56,
            "name": "G#3",
            "ticks": 55776,
            "time": 72.625,
            "velocity": 0.031496062992125984
          },
          {
            "duration": 0.125,
            "durationTicks": 96,
            "midi": 52,
            "name": "E3",
            "ticks": 55776,
            "time": 72.625,
            "velocity": 0.031496062992125984
          },
          {
            "duration": 0.125,
            "durationTicks": 96,
            "midi": 59,
            "name": "B3",
            "ticks": 55872,
            "time": 72.75,
            "velocity": 0.031496062992125984
          },
          {
            "duration": 0,
            "durationTicks": 0,
            "midi": 56,
            "name": "G#3",
            "ticks": 55872,
            "time": 72.75,
            "velocity": 0.031496062992125984
          },
          {
            "duration": 0.125,
            "durationTicks": 96,
            "midi": 52,
            "name": "E3",
            "ticks": 55872,
            "time": 72.75,
            "velocity": 0.031496062992125984
          },
          {
            "duration": 0,
            "durationTicks": 0,
            "midi": 56,
            "name": "G#3",
            "ticks": 55968,
            "time": 72.875,
            "velocity": 0.031496062992125984
          },
          {
            "duration": 0.125,
            "durationTicks": 96,
            "midi": 59,
            "name": "B3",
            "ticks": 55968,
            "time": 72.875,
            "velocity": 0.031496062992125984
          },
          {
            "duration": 0.125,
            "durationTicks": 96,
            "midi": 52,
            "name": "E3",
            "ticks": 55968,
            "time": 72.875,
            "velocity": 0.031496062992125984
          },
          {
            "duration": 0,
            "durationTicks": 0,
            "midi": 56,
            "name": "G#3",
            "ticks": 56064,
            "time": 73,
            "velocity": 0.031496062992125984
          },
          {
            "duration": 0.125,
            "durationTicks": 96,
            "midi": 59,
            "name": "B3",
            "ticks": 56064,
            "time": 73,
            "velocity": 0.031496062992125984
          },
          {
            "duration": 0.125,
            "durationTicks": 96,
            "midi": 52,
            "name": "E3",
            "ticks": 56064,
            "time": 73,
            "velocity": 0.031496062992125984
          },
          {
            "duration": 0.125,
            "durationTicks": 96,
            "midi": 52,
            "name": "E3",
            "ticks": 56160,
            "time": 73.125,
            "velocity": 0.023622047244094488
          },
          {
            "duration": 0.125,
            "durationTicks": 96,
            "midi": 59,
            "name": "B3",
            "ticks": 56160,
            "time": 73.125,
            "velocity": 0.023622047244094488
          },
          {
            "duration": 0,
            "durationTicks": 0,
            "midi": 56,
            "name": "G#3",
            "ticks": 56160,
            "time": 73.125,
            "velocity": 0.023622047244094488
          },
          {
            "duration": 0.125,
            "durationTicks": 96,
            "midi": 59,
            "name": "B3",
            "ticks": 56256,
            "time": 73.25,
            "velocity": 0.023622047244094488
          },
          {
            "duration": 0,
            "durationTicks": 0,
            "midi": 56,
            "name": "G#3",
            "ticks": 56256,
            "time": 73.25,
            "velocity": 0.023622047244094488
          },
          {
            "duration": 0.125,
            "durationTicks": 96,
            "midi": 52,
            "name": "E3",
            "ticks": 56256,
            "time": 73.25,
            "velocity": 0.023622047244094488
          },
          {
            "duration": 0.125,
            "durationTicks": 96,
            "midi": 59,
            "name": "B3",
            "ticks": 56352,
            "time": 73.375,
            "velocity": 0.023622047244094488
          },
          {
            "duration": 0.125,
            "durationTicks": 96,
            "midi": 52,
            "name": "E3",
            "ticks": 56352,
            "time": 73.375,
            "velocity": 0.023622047244094488
          },
          {
            "duration": 0,
            "durationTicks": 0,
            "midi": 56,
            "name": "G#3",
            "ticks": 56352,
            "time": 73.375,
            "velocity": 0.023622047244094488
          },
          {
            "duration": 0.125,
            "durationTicks": 96,
            "midi": 52,
            "name": "E3",
            "ticks": 56448,
            "time": 73.5,
            "velocity": 0.023622047244094488
          },
          {
            "duration": 0.125,
            "durationTicks": 96,
            "midi": 59,
            "name": "B3",
            "ticks": 56448,
            "time": 73.5,
            "velocity": 0.023622047244094488
          },
          {
            "duration": 0,
            "durationTicks": 0,
            "midi": 56,
            "name": "G#3",
            "ticks": 56448,
            "time": 73.5,
            "velocity": 0.023622047244094488
          },
          {
            "duration": 0.125,
            "durationTicks": 96,
            "midi": 59,
            "name": "B3",
            "ticks": 56544,
            "time": 73.625,
            "velocity": 0.015748031496062992
          },
          {
            "duration": 0,
            "durationTicks": 0,
            "midi": 56,
            "name": "G#3",
            "ticks": 56544,
            "time": 73.625,
            "velocity": 0.015748031496062992
          },
          {
            "duration": 0.125,
            "durationTicks": 96,
            "midi": 52,
            "name": "E3",
            "ticks": 56544,
            "time": 73.625,
            "velocity": 0.015748031496062992
          },
          {
            "duration": 0.125,
            "durationTicks": 96,
            "midi": 52,
            "name": "E3",
            "ticks": 56640,
            "time": 73.75,
            "velocity": 0.015748031496062992
          },
          {
            "duration": 0,
            "durationTicks": 0,
            "midi": 56,
            "name": "G#3",
            "ticks": 56640,
            "time": 73.75,
            "velocity": 0.015748031496062992
          },
          {
            "duration": 0.125,
            "durationTicks": 96,
            "midi": 59,
            "name": "B3",
            "ticks": 56640,
            "time": 73.75,
            "velocity": 0.015748031496062992
          },
          {
            "duration": 0.125,
            "durationTicks": 96,
            "midi": 59,
            "name": "B3",
            "ticks": 56736,
            "time": 73.875,
            "velocity": 0.015748031496062992
          },
          {
            "duration": 0.125,
            "durationTicks": 96,
            "midi": 52,
            "name": "E3",
            "ticks": 56736,
            "time": 73.875,
            "velocity": 0.015748031496062992
          },
          {
            "duration": 0,
            "durationTicks": 0,
            "midi": 56,
            "name": "G#3",
            "ticks": 56736,
            "time": 73.875,
            "velocity": 0.015748031496062992
          },
          {
            "duration": 0.125,
            "durationTicks": 96,
            "midi": 59,
            "name": "B3",
            "ticks": 56832,
            "time": 74,
            "velocity": 0.03937007874015748
          },
          {
            "duration": 0.125,
            "durationTicks": 96,
            "midi": 52,
            "name": "E3",
            "ticks": 56832,
            "time": 74,
            "velocity": 0.03937007874015748
          },
          {
            "duration": 0,
            "durationTicks": 0,
            "midi": 56,
            "name": "G#3",
            "ticks": 56832,
            "time": 74,
            "velocity": 0.03937007874015748
          },
          {
            "duration": 0.125,
            "durationTicks": 96,
            "midi": 59,
            "name": "B3",
            "ticks": 56928,
            "time": 74.125,
            "velocity": 0.03937007874015748
          },
          {
            "duration": 0,
            "durationTicks": 0,
            "midi": 56,
            "name": "G#3",
            "ticks": 56928,
            "time": 74.125,
            "velocity": 0.03937007874015748
          },
          {
            "duration": 0.125,
            "durationTicks": 96,
            "midi": 52,
            "name": "E3",
            "ticks": 56928,
            "time": 74.125,
            "velocity": 0.03937007874015748
          },
          {
            "duration": 0.125,
            "durationTicks": 96,
            "midi": 59,
            "name": "B3",
            "ticks": 57024,
            "time": 74.25,
            "velocity": 0.031496062992125984
          },
          {
            "duration": 0.125,
            "durationTicks": 96,
            "midi": 52,
            "name": "E3",
            "ticks": 57024,
            "time": 74.25,
            "velocity": 0.031496062992125984
          },
          {
            "duration": 0,
            "durationTicks": 0,
            "midi": 56,
            "name": "G#3",
            "ticks": 57024,
            "time": 74.25,
            "velocity": 0.031496062992125984
          },
          {
            "duration": 0.125,
            "durationTicks": 96,
            "midi": 52,
            "name": "E3",
            "ticks": 57120,
            "time": 74.375,
            "velocity": 0.031496062992125984
          },
          {
            "duration": 0.125,
            "durationTicks": 96,
            "midi": 59,
            "name": "B3",
            "ticks": 57120,
            "time": 74.375,
            "velocity": 0.031496062992125984
          },
          {
            "duration": 0,
            "durationTicks": 0,
            "midi": 56,
            "name": "G#3",
            "ticks": 57120,
            "time": 74.375,
            "velocity": 0.031496062992125984
          },
          {
            "duration": 0.125,
            "durationTicks": 96,
            "midi": 58,
            "name": "A#3",
            "ticks": 57216,
            "time": 74.5,
            "velocity": 0.03937007874015748
          },
          {
            "duration": 0.125,
            "durationTicks": 96,
            "midi": 54,
            "name": "F#3",
            "ticks": 57216,
            "time": 74.5,
            "velocity": 0.03937007874015748
          },
          {
            "duration": 0.125,
            "durationTicks": 96,
            "midi": 49,
            "name": "C#3",
            "ticks": 57216,
            "time": 74.5,
            "velocity": 0.03937007874015748
          },
          {
            "duration": 0.125,
            "durationTicks": 96,
            "midi": 54,
            "name": "F#3",
            "ticks": 57312,
            "time": 74.625,
            "velocity": 0.03937007874015748
          },
          {
            "duration": 0.125,
            "durationTicks": 96,
            "midi": 58,
            "name": "A#3",
            "ticks": 57312,
            "time": 74.625,
            "velocity": 0.03937007874015748
          },
          {
            "duration": 0.125,
            "durationTicks": 96,
            "midi": 49,
            "name": "C#3",
            "ticks": 57312,
            "time": 74.625,
            "velocity": 0.03937007874015748
          },
          {
            "duration": 0.125,
            "durationTicks": 96,
            "midi": 54,
            "name": "F#3",
            "ticks": 57408,
            "time": 74.75,
            "velocity": 0.031496062992125984
          },
          {
            "duration": 0.125,
            "durationTicks": 96,
            "midi": 58,
            "name": "A#3",
            "ticks": 57408,
            "time": 74.75,
            "velocity": 0.031496062992125984
          },
          {
            "duration": 0.125,
            "durationTicks": 96,
            "midi": 49,
            "name": "C#3",
            "ticks": 57408,
            "time": 74.75,
            "velocity": 0.031496062992125984
          },
          {
            "duration": 0.125,
            "durationTicks": 96,
            "midi": 49,
            "name": "C#3",
            "ticks": 57504,
            "time": 74.875,
            "velocity": 0.031496062992125984
          },
          {
            "duration": 0.125,
            "durationTicks": 96,
            "midi": 54,
            "name": "F#3",
            "ticks": 57504,
            "time": 74.875,
            "velocity": 0.031496062992125984
          },
          {
            "duration": 0.125,
            "durationTicks": 96,
            "midi": 58,
            "name": "A#3",
            "ticks": 57504,
            "time": 74.875,
            "velocity": 0.031496062992125984
          },
          {
            "duration": 0.125,
            "durationTicks": 96,
            "midi": 49,
            "name": "C#3",
            "ticks": 57600,
            "time": 75,
            "velocity": 0.03937007874015748
          },
          {
            "duration": 0.125,
            "durationTicks": 96,
            "midi": 52,
            "name": "E3",
            "ticks": 57600,
            "time": 75,
            "velocity": 0.03937007874015748
          },
          {
            "duration": 0.125,
            "durationTicks": 96,
            "midi": 56,
            "name": "G#3",
            "ticks": 57600,
            "time": 75,
            "velocity": 0.03937007874015748
          },
          {
            "duration": 0.125,
            "durationTicks": 96,
            "midi": 52,
            "name": "E3",
            "ticks": 57696,
            "time": 75.125,
            "velocity": 0.03937007874015748
          },
          {
            "duration": 0.125,
            "durationTicks": 96,
            "midi": 56,
            "name": "G#3",
            "ticks": 57696,
            "time": 75.125,
            "velocity": 0.03937007874015748
          },
          {
            "duration": 0.125,
            "durationTicks": 96,
            "midi": 49,
            "name": "C#3",
            "ticks": 57696,
            "time": 75.125,
            "velocity": 0.03937007874015748
          },
          {
            "duration": 0.125,
            "durationTicks": 96,
            "midi": 49,
            "name": "C#3",
            "ticks": 57792,
            "time": 75.25,
            "velocity": 0.031496062992125984
          },
          {
            "duration": 0.125,
            "durationTicks": 96,
            "midi": 56,
            "name": "G#3",
            "ticks": 57792,
            "time": 75.25,
            "velocity": 0.031496062992125984
          },
          {
            "duration": 0.125,
            "durationTicks": 96,
            "midi": 52,
            "name": "E3",
            "ticks": 57792,
            "time": 75.25,
            "velocity": 0.031496062992125984
          },
          {
            "duration": 0.125,
            "durationTicks": 96,
            "midi": 52,
            "name": "E3",
            "ticks": 57888,
            "time": 75.375,
            "velocity": 0.031496062992125984
          },
          {
            "duration": 0.125,
            "durationTicks": 96,
            "midi": 56,
            "name": "G#3",
            "ticks": 57888,
            "time": 75.375,
            "velocity": 0.031496062992125984
          },
          {
            "duration": 0.125,
            "durationTicks": 96,
            "midi": 49,
            "name": "C#3",
            "ticks": 57888,
            "time": 75.375,
            "velocity": 0.031496062992125984
          },
          {
            "duration": 0.125,
            "durationTicks": 96,
            "midi": 49,
            "name": "C#3",
            "ticks": 57984,
            "time": 75.5,
            "velocity": 0.031496062992125984
          },
          {
            "duration": 0.125,
            "durationTicks": 96,
            "midi": 56,
            "name": "G#3",
            "ticks": 57984,
            "time": 75.5,
            "velocity": 0.031496062992125984
          },
          {
            "duration": 0.125,
            "durationTicks": 96,
            "midi": 52,
            "name": "E3",
            "ticks": 57984,
            "time": 75.5,
            "velocity": 0.031496062992125984
          },
          {
            "duration": 0.125,
            "durationTicks": 96,
            "midi": 52,
            "name": "E3",
            "ticks": 58080,
            "time": 75.625,
            "velocity": 0.031496062992125984
          },
          {
            "duration": 0.125,
            "durationTicks": 96,
            "midi": 56,
            "name": "G#3",
            "ticks": 58080,
            "time": 75.625,
            "velocity": 0.031496062992125984
          },
          {
            "duration": 0.125,
            "durationTicks": 96,
            "midi": 49,
            "name": "C#3",
            "ticks": 58080,
            "time": 75.625,
            "velocity": 0.031496062992125984
          },
          {
            "duration": 0.125,
            "durationTicks": 96,
            "midi": 52,
            "name": "E3",
            "ticks": 58176,
            "time": 75.75,
            "velocity": 0.023622047244094488
          },
          {
            "duration": 0.125,
            "durationTicks": 96,
            "midi": 56,
            "name": "G#3",
            "ticks": 58176,
            "time": 75.75,
            "velocity": 0.023622047244094488
          },
          {
            "duration": 0.125,
            "durationTicks": 96,
            "midi": 49,
            "name": "C#3",
            "ticks": 58176,
            "time": 75.75,
            "velocity": 0.023622047244094488
          },
          {
            "duration": 0.125,
            "durationTicks": 96,
            "midi": 52,
            "name": "E3",
            "ticks": 58272,
            "time": 75.875,
            "velocity": 0.023622047244094488
          },
          {
            "duration": 0.125,
            "durationTicks": 96,
            "midi": 49,
            "name": "C#3",
            "ticks": 58272,
            "time": 75.875,
            "velocity": 0.023622047244094488
          },
          {
            "duration": 0.125,
            "durationTicks": 96,
            "midi": 56,
            "name": "G#3",
            "ticks": 58272,
            "time": 75.875,
            "velocity": 0.023622047244094488
          },
          {
            "duration": 0.125,
            "durationTicks": 96,
            "midi": 49,
            "name": "C#3",
            "ticks": 58368,
            "time": 76,
            "velocity": 0.03937007874015748
          },
          {
            "duration": 0.125,
            "durationTicks": 96,
            "midi": 46,
            "name": "A#2",
            "ticks": 58368,
            "time": 76,
            "velocity": 0.03937007874015748
          },
          {
            "duration": 0.125,
            "durationTicks": 96,
            "midi": 54,
            "name": "F#3",
            "ticks": 58368,
            "time": 76,
            "velocity": 0.03937007874015748
          },
          {
            "duration": 0.125,
            "durationTicks": 96,
            "midi": 49,
            "name": "C#3",
            "ticks": 58464,
            "time": 76.125,
            "velocity": 0.03937007874015748
          },
          {
            "duration": 0.125,
            "durationTicks": 96,
            "midi": 54,
            "name": "F#3",
            "ticks": 58464,
            "time": 76.125,
            "velocity": 0.03937007874015748
          },
          {
            "duration": 0.125,
            "durationTicks": 96,
            "midi": 46,
            "name": "A#2",
            "ticks": 58464,
            "time": 76.125,
            "velocity": 0.03937007874015748
          },
          {
            "duration": 0.125,
            "durationTicks": 96,
            "midi": 46,
            "name": "A#2",
            "ticks": 58560,
            "time": 76.25,
            "velocity": 0.031496062992125984
          },
          {
            "duration": 0.125,
            "durationTicks": 96,
            "midi": 49,
            "name": "C#3",
            "ticks": 58560,
            "time": 76.25,
            "velocity": 0.031496062992125984
          },
          {
            "duration": 0.125,
            "durationTicks": 96,
            "midi": 54,
            "name": "F#3",
            "ticks": 58560,
            "time": 76.25,
            "velocity": 0.031496062992125984
          },
          {
            "duration": 0.125,
            "durationTicks": 96,
            "midi": 46,
            "name": "A#2",
            "ticks": 58656,
            "time": 76.375,
            "velocity": 0.031496062992125984
          },
          {
            "duration": 0.125,
            "durationTicks": 96,
            "midi": 49,
            "name": "C#3",
            "ticks": 58656,
            "time": 76.375,
            "velocity": 0.031496062992125984
          },
          {
            "duration": 0.125,
            "durationTicks": 96,
            "midi": 54,
            "name": "F#3",
            "ticks": 58656,
            "time": 76.375,
            "velocity": 0.031496062992125984
          },
          {
            "duration": 0.125,
            "durationTicks": 96,
            "midi": 49,
            "name": "C#3",
            "ticks": 58752,
            "time": 76.5,
            "velocity": 0.031496062992125984
          },
          {
            "duration": 0.125,
            "durationTicks": 96,
            "midi": 46,
            "name": "A#2",
            "ticks": 58752,
            "time": 76.5,
            "velocity": 0.031496062992125984
          },
          {
            "duration": 0.125,
            "durationTicks": 96,
            "midi": 54,
            "name": "F#3",
            "ticks": 58752,
            "time": 76.5,
            "velocity": 0.031496062992125984
          },
          {
            "duration": 0.125,
            "durationTicks": 96,
            "midi": 46,
            "name": "A#2",
            "ticks": 58848,
            "time": 76.625,
            "velocity": 0.031496062992125984
          },
          {
            "duration": 0.125,
            "durationTicks": 96,
            "midi": 54,
            "name": "F#3",
            "ticks": 58848,
            "time": 76.625,
            "velocity": 0.031496062992125984
          },
          {
            "duration": 0.125,
            "durationTicks": 96,
            "midi": 49,
            "name": "C#3",
            "ticks": 58848,
            "time": 76.625,
            "velocity": 0.031496062992125984
          },
          {
            "duration": 0.125,
            "durationTicks": 96,
            "midi": 46,
            "name": "A#2",
            "ticks": 58944,
            "time": 76.75,
            "velocity": 0.023622047244094488
          },
          {
            "duration": 0.125,
            "durationTicks": 96,
            "midi": 49,
            "name": "C#3",
            "ticks": 58944,
            "time": 76.75,
            "velocity": 0.023622047244094488
          },
          {
            "duration": 0.125,
            "durationTicks": 96,
            "midi": 54,
            "name": "F#3",
            "ticks": 58944,
            "time": 76.75,
            "velocity": 0.023622047244094488
          },
          {
            "duration": 0.125,
            "durationTicks": 96,
            "midi": 54,
            "name": "F#3",
            "ticks": 59040,
            "time": 76.875,
            "velocity": 0.023622047244094488
          },
          {
            "duration": 0.125,
            "durationTicks": 96,
            "midi": 49,
            "name": "C#3",
            "ticks": 59040,
            "time": 76.875,
            "velocity": 0.023622047244094488
          },
          {
            "duration": 0.125,
            "durationTicks": 96,
            "midi": 46,
            "name": "A#2",
            "ticks": 59040,
            "time": 76.875,
            "velocity": 0.023622047244094488
          },
          {
            "duration": 0.125,
            "durationTicks": 96,
            "midi": 54,
            "name": "F#3",
            "ticks": 59136,
            "time": 77,
            "velocity": 0.023622047244094488
          },
          {
            "duration": 0.125,
            "durationTicks": 96,
            "midi": 49,
            "name": "C#3",
            "ticks": 59136,
            "time": 77,
            "velocity": 0.023622047244094488
          },
          {
            "duration": 0.125,
            "durationTicks": 96,
            "midi": 46,
            "name": "A#2",
            "ticks": 59136,
            "time": 77,
            "velocity": 0.023622047244094488
          },
          {
            "duration": 0.125,
            "durationTicks": 96,
            "midi": 46,
            "name": "A#2",
            "ticks": 59232,
            "time": 77.125,
            "velocity": 0.023622047244094488
          },
          {
            "duration": 0.125,
            "durationTicks": 96,
            "midi": 54,
            "name": "F#3",
            "ticks": 59232,
            "time": 77.125,
            "velocity": 0.023622047244094488
          },
          {
            "duration": 0.125,
            "durationTicks": 96,
            "midi": 49,
            "name": "C#3",
            "ticks": 59232,
            "time": 77.125,
            "velocity": 0.023622047244094488
          },
          {
            "duration": 0.125,
            "durationTicks": 96,
            "midi": 46,
            "name": "A#2",
            "ticks": 59328,
            "time": 77.25,
            "velocity": 0.015748031496062992
          },
          {
            "duration": 0.125,
            "durationTicks": 96,
            "midi": 54,
            "name": "F#3",
            "ticks": 59328,
            "time": 77.25,
            "velocity": 0.015748031496062992
          },
          {
            "duration": 0.125,
            "durationTicks": 96,
            "midi": 49,
            "name": "C#3",
            "ticks": 59328,
            "time": 77.25,
            "velocity": 0.015748031496062992
          },
          {
            "duration": 0.125,
            "durationTicks": 96,
            "midi": 54,
            "name": "F#3",
            "ticks": 59424,
            "time": 77.375,
            "velocity": 0.015748031496062992
          },
          {
            "duration": 0.125,
            "durationTicks": 96,
            "midi": 49,
            "name": "C#3",
            "ticks": 59424,
            "time": 77.375,
            "velocity": 0.015748031496062992
          },
          {
            "duration": 0.125,
            "durationTicks": 96,
            "midi": 46,
            "name": "A#2",
            "ticks": 59424,
            "time": 77.375,
            "velocity": 0.015748031496062992
          },
          {
            "duration": 0.125,
            "durationTicks": 96,
            "midi": 46,
            "name": "A#2",
            "ticks": 59520,
            "time": 77.5,
            "velocity": 0.015748031496062992
          },
          {
            "duration": 0.125,
            "durationTicks": 96,
            "midi": 54,
            "name": "F#3",
            "ticks": 59520,
            "time": 77.5,
            "velocity": 0.015748031496062992
          },
          {
            "duration": 0.125,
            "durationTicks": 96,
            "midi": 49,
            "name": "C#3",
            "ticks": 59520,
            "time": 77.5,
            "velocity": 0.015748031496062992
          },
          {
            "duration": 0.125,
            "durationTicks": 96,
            "midi": 54,
            "name": "F#3",
            "ticks": 59616,
            "time": 77.625,
            "velocity": 0.015748031496062992
          },
          {
            "duration": 0.125,
            "durationTicks": 96,
            "midi": 49,
            "name": "C#3",
            "ticks": 59616,
            "time": 77.625,
            "velocity": 0.015748031496062992
          },
          {
            "duration": 0.125,
            "durationTicks": 96,
            "midi": 46,
            "name": "A#2",
            "ticks": 59616,
            "time": 77.625,
            "velocity": 0.015748031496062992
          },
          {
            "duration": 0.125,
            "durationTicks": 96,
            "midi": 49,
            "name": "C#3",
            "ticks": 59712,
            "time": 77.75,
            "velocity": 0.007874015748031496
          },
          {
            "duration": 0.125,
            "durationTicks": 96,
            "midi": 46,
            "name": "A#2",
            "ticks": 59712,
            "time": 77.75,
            "velocity": 0.007874015748031496
          },
          {
            "duration": 0.125,
            "durationTicks": 96,
            "midi": 54,
            "name": "F#3",
            "ticks": 59712,
            "time": 77.75,
            "velocity": 0.007874015748031496
          },
          {
            "duration": 0.125,
            "durationTicks": 96,
            "midi": 49,
            "name": "C#3",
            "ticks": 59808,
            "time": 77.875,
            "velocity": 0.007874015748031496
          },
          {
            "duration": 0.125,
            "durationTicks": 96,
            "midi": 54,
            "name": "F#3",
            "ticks": 59808,
            "time": 77.875,
            "velocity": 0.007874015748031496
          },
          {
            "duration": 0.125,
            "durationTicks": 96,
            "midi": 46,
            "name": "A#2",
            "ticks": 59808,
            "time": 77.875,
            "velocity": 0.007874015748031496
          },
          {
            "duration": 0.125,
            "durationTicks": 96,
            "midi": 52,
            "name": "E3",
            "ticks": 59904,
            "time": 78,
            "velocity": 0.03937007874015748
          },
          {
            "duration": 0.125,
            "durationTicks": 96,
            "midi": 47,
            "name": "B2",
            "ticks": 59904,
            "time": 78,
            "velocity": 0.03937007874015748
          },
          {
            "duration": 0.125,
            "durationTicks": 96,
            "midi": 44,
            "name": "G#2",
            "ticks": 59904,
            "time": 78,
            "velocity": 0.03937007874015748
          },
          {
            "duration": 0.125,
            "durationTicks": 96,
            "midi": 52,
            "name": "E3",
            "ticks": 60000,
            "time": 78.125,
            "velocity": 0.03937007874015748
          },
          {
            "duration": 0.125,
            "durationTicks": 96,
            "midi": 47,
            "name": "B2",
            "ticks": 60000,
            "time": 78.125,
            "velocity": 0.03937007874015748
          },
          {
            "duration": 0.125,
            "durationTicks": 96,
            "midi": 44,
            "name": "G#2",
            "ticks": 60000,
            "time": 78.125,
            "velocity": 0.03937007874015748
          },
          {
            "duration": 0.125,
            "durationTicks": 96,
            "midi": 44,
            "name": "G#2",
            "ticks": 60096,
            "time": 78.25,
            "velocity": 0.031496062992125984
          },
          {
            "duration": 0.125,
            "durationTicks": 96,
            "midi": 52,
            "name": "E3",
            "ticks": 60096,
            "time": 78.25,
            "velocity": 0.031496062992125984
          },
          {
            "duration": 0.125,
            "durationTicks": 96,
            "midi": 47,
            "name": "B2",
            "ticks": 60096,
            "time": 78.25,
            "velocity": 0.031496062992125984
          },
          {
            "duration": 0.125,
            "durationTicks": 96,
            "midi": 44,
            "name": "G#2",
            "ticks": 60192,
            "time": 78.375,
            "velocity": 0.031496062992125984
          },
          {
            "duration": 0.125,
            "durationTicks": 96,
            "midi": 52,
            "name": "E3",
            "ticks": 60192,
            "time": 78.375,
            "velocity": 0.031496062992125984
          },
          {
            "duration": 0.125,
            "durationTicks": 96,
            "midi": 47,
            "name": "B2",
            "ticks": 60192,
            "time": 78.375,
            "velocity": 0.031496062992125984
          },
          {
            "duration": 0.125,
            "durationTicks": 96,
            "midi": 47,
            "name": "B2",
            "ticks": 60288,
            "time": 78.5,
            "velocity": 0.031496062992125984
          },
          {
            "duration": 0.125,
            "durationTicks": 96,
            "midi": 44,
            "name": "G#2",
            "ticks": 60288,
            "time": 78.5,
            "velocity": 0.031496062992125984
          },
          {
            "duration": 0.125,
            "durationTicks": 96,
            "midi": 52,
            "name": "E3",
            "ticks": 60288,
            "time": 78.5,
            "velocity": 0.031496062992125984
          },
          {
            "duration": 0.125,
            "durationTicks": 96,
            "midi": 52,
            "name": "E3",
            "ticks": 60384,
            "time": 78.625,
            "velocity": 0.031496062992125984
          },
          {
            "duration": 0.125,
            "durationTicks": 96,
            "midi": 47,
            "name": "B2",
            "ticks": 60384,
            "time": 78.625,
            "velocity": 0.031496062992125984
          },
          {
            "duration": 0.125,
            "durationTicks": 96,
            "midi": 44,
            "name": "G#2",
            "ticks": 60384,
            "time": 78.625,
            "velocity": 0.031496062992125984
          },
          {
            "duration": 0.125,
            "durationTicks": 96,
            "midi": 44,
            "name": "G#2",
            "ticks": 60480,
            "time": 78.75,
            "velocity": 0.023622047244094488
          },
          {
            "duration": 0.125,
            "durationTicks": 96,
            "midi": 47,
            "name": "B2",
            "ticks": 60480,
            "time": 78.75,
            "velocity": 0.023622047244094488
          },
          {
            "duration": 0.125,
            "durationTicks": 96,
            "midi": 52,
            "name": "E3",
            "ticks": 60480,
            "time": 78.75,
            "velocity": 0.023622047244094488
          },
          {
            "duration": 0.125,
            "durationTicks": 96,
            "midi": 52,
            "name": "E3",
            "ticks": 60576,
            "time": 78.875,
            "velocity": 0.023622047244094488
          },
          {
            "duration": 0.125,
            "durationTicks": 96,
            "midi": 47,
            "name": "B2",
            "ticks": 60576,
            "time": 78.875,
            "velocity": 0.023622047244094488
          },
          {
            "duration": 0.125,
            "durationTicks": 96,
            "midi": 44,
            "name": "G#2",
            "ticks": 60576,
            "time": 78.875,
            "velocity": 0.023622047244094488
          },
          {
            "duration": 0.125,
            "durationTicks": 96,
            "midi": 47,
            "name": "B2",
            "ticks": 60672,
            "time": 79,
            "velocity": 0.023622047244094488
          },
          {
            "duration": 0.125,
            "durationTicks": 96,
            "midi": 44,
            "name": "G#2",
            "ticks": 60672,
            "time": 79,
            "velocity": 0.023622047244094488
          },
          {
            "duration": 0.125,
            "durationTicks": 96,
            "midi": 52,
            "name": "E3",
            "ticks": 60672,
            "time": 79,
            "velocity": 0.023622047244094488
          },
          {
            "duration": 0.125,
            "durationTicks": 96,
            "midi": 44,
            "name": "G#2",
            "ticks": 60768,
            "time": 79.125,
            "velocity": 0.023622047244094488
          },
          {
            "duration": 0.125,
            "durationTicks": 96,
            "midi": 52,
            "name": "E3",
            "ticks": 60768,
            "time": 79.125,
            "velocity": 0.023622047244094488
          },
          {
            "duration": 0.125,
            "durationTicks": 96,
            "midi": 47,
            "name": "B2",
            "ticks": 60768,
            "time": 79.125,
            "velocity": 0.023622047244094488
          },
          {
            "duration": 0.125,
            "durationTicks": 96,
            "midi": 47,
            "name": "B2",
            "ticks": 60864,
            "time": 79.25,
            "velocity": 0.015748031496062992
          },
          {
            "duration": 0.125,
            "durationTicks": 96,
            "midi": 52,
            "name": "E3",
            "ticks": 60864,
            "time": 79.25,
            "velocity": 0.015748031496062992
          },
          {
            "duration": 0.125,
            "durationTicks": 96,
            "midi": 44,
            "name": "G#2",
            "ticks": 60864,
            "time": 79.25,
            "velocity": 0.015748031496062992
          },
          {
            "duration": 0.125,
            "durationTicks": 96,
            "midi": 44,
            "name": "G#2",
            "ticks": 60960,
            "time": 79.375,
            "velocity": 0.015748031496062992
          },
          {
            "duration": 0.125,
            "durationTicks": 96,
            "midi": 47,
            "name": "B2",
            "ticks": 60960,
            "time": 79.375,
            "velocity": 0.015748031496062992
          },
          {
            "duration": 0.125,
            "durationTicks": 96,
            "midi": 52,
            "name": "E3",
            "ticks": 60960,
            "time": 79.375,
            "velocity": 0.015748031496062992
          },
          {
            "duration": 0.125,
            "durationTicks": 96,
            "midi": 44,
            "name": "G#2",
            "ticks": 61056,
            "time": 79.5,
            "velocity": 0.015748031496062992
          },
          {
            "duration": 0.125,
            "durationTicks": 96,
            "midi": 52,
            "name": "E3",
            "ticks": 61056,
            "time": 79.5,
            "velocity": 0.015748031496062992
          },
          {
            "duration": 0.125,
            "durationTicks": 96,
            "midi": 47,
            "name": "B2",
            "ticks": 61056,
            "time": 79.5,
            "velocity": 0.015748031496062992
          },
          {
            "duration": 0.125,
            "durationTicks": 96,
            "midi": 44,
            "name": "G#2",
            "ticks": 61152,
            "time": 79.625,
            "velocity": 0.015748031496062992
          },
          {
            "duration": 0.125,
            "durationTicks": 96,
            "midi": 47,
            "name": "B2",
            "ticks": 61152,
            "time": 79.625,
            "velocity": 0.015748031496062992
          },
          {
            "duration": 0.125,
            "durationTicks": 96,
            "midi": 52,
            "name": "E3",
            "ticks": 61152,
            "time": 79.625,
            "velocity": 0.015748031496062992
          },
          {
            "duration": 0.125,
            "durationTicks": 96,
            "midi": 52,
            "name": "E3",
            "ticks": 61248,
            "time": 79.75,
            "velocity": 0.007874015748031496
          },
          {
            "duration": 0.125,
            "durationTicks": 96,
            "midi": 47,
            "name": "B2",
            "ticks": 61248,
            "time": 79.75,
            "velocity": 0.007874015748031496
          },
          {
            "duration": 0.125,
            "durationTicks": 96,
            "midi": 44,
            "name": "G#2",
            "ticks": 61248,
            "time": 79.75,
            "velocity": 0.007874015748031496
          },
          {
            "duration": 0.125,
            "durationTicks": 96,
            "midi": 52,
            "name": "E3",
            "ticks": 61344,
            "time": 79.875,
            "velocity": 0.007874015748031496
          },
          {
            "duration": 0.125,
            "durationTicks": 96,
            "midi": 44,
            "name": "G#2",
            "ticks": 61344,
            "time": 79.875,
            "velocity": 0.007874015748031496
          },
          {
            "duration": 0.125,
            "durationTicks": 96,
            "midi": 47,
            "name": "B2",
            "ticks": 61344,
            "time": 79.875,
            "velocity": 0.007874015748031496
          },
          {
            "duration": 0.125,
            "durationTicks": 96,
            "midi": 61,
            "name": "C#4",
            "ticks": 61440,
            "time": 80,
            "velocity": 0.03937007874015748
          },
          {
            "duration": 0.125,
            "durationTicks": 96,
            "midi": 56,
            "name": "G#3",
            "ticks": 61440,
            "time": 80,
            "velocity": 0.03937007874015748
          },
          {
            "duration": 0.125,
            "durationTicks": 96,
            "midi": 52,
            "name": "E3",
            "ticks": 61440,
            "time": 80,
            "velocity": 0.03937007874015748
          },
          {
            "duration": 0.125,
            "durationTicks": 96,
            "midi": 56,
            "name": "G#3",
            "ticks": 61536,
            "time": 80.125,
            "velocity": 0.03937007874015748
          },
          {
            "duration": 0.125,
            "durationTicks": 96,
            "midi": 52,
            "name": "E3",
            "ticks": 61536,
            "time": 80.125,
            "velocity": 0.03937007874015748
          },
          {
            "duration": 0.125,
            "durationTicks": 96,
            "midi": 61,
            "name": "C#4",
            "ticks": 61536,
            "time": 80.125,
            "velocity": 0.03937007874015748
          },
          {
            "duration": 0.125,
            "durationTicks": 96,
            "midi": 61,
            "name": "C#4",
            "ticks": 61632,
            "time": 80.25,
            "velocity": 0.031496062992125984
          },
          {
            "duration": 0.125,
            "durationTicks": 96,
            "midi": 52,
            "name": "E3",
            "ticks": 61632,
            "time": 80.25,
            "velocity": 0.031496062992125984
          },
          {
            "duration": 0.125,
            "durationTicks": 96,
            "midi": 56,
            "name": "G#3",
            "ticks": 61632,
            "time": 80.25,
            "velocity": 0.031496062992125984
          },
          {
            "duration": 0.125,
            "durationTicks": 96,
            "midi": 52,
            "name": "E3",
            "ticks": 61728,
            "time": 80.375,
            "velocity": 0.03937007874015748
          },
          {
            "duration": 0.125,
            "durationTicks": 96,
            "midi": 56,
            "name": "G#3",
            "ticks": 61728,
            "time": 80.375,
            "velocity": 0.03937007874015748
          },
          {
            "duration": 0.125,
            "durationTicks": 96,
            "midi": 59,
            "name": "B3",
            "ticks": 61728,
            "time": 80.375,
            "velocity": 0.03937007874015748
          },
          {
            "duration": 0.125,
            "durationTicks": 96,
            "midi": 56,
            "name": "G#3",
            "ticks": 61824,
            "time": 80.5,
            "velocity": 0.03937007874015748
          },
          {
            "duration": 0.125,
            "durationTicks": 96,
            "midi": 52,
            "name": "E3",
            "ticks": 61824,
            "time": 80.5,
            "velocity": 0.03937007874015748
          },
          {
            "duration": 0.125,
            "durationTicks": 96,
            "midi": 59,
            "name": "B3",
            "ticks": 61824,
            "time": 80.5,
            "velocity": 0.03937007874015748
          },
          {
            "duration": 0.125,
            "durationTicks": 96,
            "midi": 59,
            "name": "B3",
            "ticks": 61920,
            "time": 80.625,
            "velocity": 0.031496062992125984
          },
          {
            "duration": 0.125,
            "durationTicks": 96,
            "midi": 52,
            "name": "E3",
            "ticks": 61920,
            "time": 80.625,
            "velocity": 0.031496062992125984
          },
          {
            "duration": 0.125,
            "durationTicks": 96,
            "midi": 56,
            "name": "G#3",
            "ticks": 61920,
            "time": 80.625,
            "velocity": 0.031496062992125984
          },
          {
            "duration": 0.125,
            "durationTicks": 96,
            "midi": 59,
            "name": "B3",
            "ticks": 62016,
            "time": 80.75,
            "velocity": 0.031496062992125984
          },
          {
            "duration": 0.125,
            "durationTicks": 96,
            "midi": 56,
            "name": "G#3",
            "ticks": 62016,
            "time": 80.75,
            "velocity": 0.031496062992125984
          },
          {
            "duration": 0.125,
            "durationTicks": 96,
            "midi": 52,
            "name": "E3",
            "ticks": 62016,
            "time": 80.75,
            "velocity": 0.031496062992125984
          },
          {
            "duration": 0.125,
            "durationTicks": 96,
            "midi": 56,
            "name": "G#3",
            "ticks": 62112,
            "time": 80.875,
            "velocity": 0.031496062992125984
          },
          {
            "duration": 0.125,
            "durationTicks": 96,
            "midi": 52,
            "name": "E3",
            "ticks": 62112,
            "time": 80.875,
            "velocity": 0.031496062992125984
          },
          {
            "duration": 0.125,
            "durationTicks": 96,
            "midi": 59,
            "name": "B3",
            "ticks": 62112,
            "time": 80.875,
            "velocity": 0.031496062992125984
          },
          {
            "duration": 0.125,
            "durationTicks": 96,
            "midi": 52,
            "name": "E3",
            "ticks": 62208,
            "time": 81,
            "velocity": 0.031496062992125984
          },
          {
            "duration": 0.125,
            "durationTicks": 96,
            "midi": 56,
            "name": "G#3",
            "ticks": 62208,
            "time": 81,
            "velocity": 0.031496062992125984
          },
          {
            "duration": 0.125,
            "durationTicks": 96,
            "midi": 59,
            "name": "B3",
            "ticks": 62208,
            "time": 81,
            "velocity": 0.031496062992125984
          },
          {
            "duration": 0.125,
            "durationTicks": 96,
            "midi": 52,
            "name": "E3",
            "ticks": 62304,
            "time": 81.125,
            "velocity": 0.023622047244094488
          },
          {
            "duration": 0.125,
            "durationTicks": 96,
            "midi": 56,
            "name": "G#3",
            "ticks": 62304,
            "time": 81.125,
            "velocity": 0.023622047244094488
          },
          {
            "duration": 0.125,
            "durationTicks": 96,
            "midi": 59,
            "name": "B3",
            "ticks": 62304,
            "time": 81.125,
            "velocity": 0.023622047244094488
          },
          {
            "duration": 0.125,
            "durationTicks": 96,
            "midi": 52,
            "name": "E3",
            "ticks": 62400,
            "time": 81.25,
            "velocity": 0.023622047244094488
          },
          {
            "duration": 0.125,
            "durationTicks": 96,
            "midi": 56,
            "name": "G#3",
            "ticks": 62400,
            "time": 81.25,
            "velocity": 0.023622047244094488
          },
          {
            "duration": 0.125,
            "durationTicks": 96,
            "midi": 59,
            "name": "B3",
            "ticks": 62400,
            "time": 81.25,
            "velocity": 0.023622047244094488
          },
          {
            "duration": 0.125,
            "durationTicks": 96,
            "midi": 59,
            "name": "B3",
            "ticks": 62496,
            "time": 81.375,
            "velocity": 0.023622047244094488
          },
          {
            "duration": 0.125,
            "durationTicks": 96,
            "midi": 56,
            "name": "G#3",
            "ticks": 62496,
            "time": 81.375,
            "velocity": 0.023622047244094488
          },
          {
            "duration": 0.125,
            "durationTicks": 96,
            "midi": 52,
            "name": "E3",
            "ticks": 62496,
            "time": 81.375,
            "velocity": 0.023622047244094488
          },
          {
            "duration": 0.125,
            "durationTicks": 96,
            "midi": 52,
            "name": "E3",
            "ticks": 62592,
            "time": 81.5,
            "velocity": 0.023622047244094488
          },
          {
            "duration": 0.125,
            "durationTicks": 96,
            "midi": 56,
            "name": "G#3",
            "ticks": 62592,
            "time": 81.5,
            "velocity": 0.023622047244094488
          },
          {
            "duration": 0.125,
            "durationTicks": 96,
            "midi": 59,
            "name": "B3",
            "ticks": 62592,
            "time": 81.5,
            "velocity": 0.023622047244094488
          },
          {
            "duration": 0.125,
            "durationTicks": 96,
            "midi": 52,
            "name": "E3",
            "ticks": 62688,
            "time": 81.625,
            "velocity": 0.015748031496062992
          },
          {
            "duration": 0.125,
            "durationTicks": 96,
            "midi": 56,
            "name": "G#3",
            "ticks": 62688,
            "time": 81.625,
            "velocity": 0.015748031496062992
          },
          {
            "duration": 0.125,
            "durationTicks": 96,
            "midi": 59,
            "name": "B3",
            "ticks": 62688,
            "time": 81.625,
            "velocity": 0.015748031496062992
          },
          {
            "duration": 0.125,
            "durationTicks": 96,
            "midi": 56,
            "name": "G#3",
            "ticks": 62784,
            "time": 81.75,
            "velocity": 0.015748031496062992
          },
          {
            "duration": 0.125,
            "durationTicks": 96,
            "midi": 52,
            "name": "E3",
            "ticks": 62784,
            "time": 81.75,
            "velocity": 0.015748031496062992
          },
          {
            "duration": 0.125,
            "durationTicks": 96,
            "midi": 59,
            "name": "B3",
            "ticks": 62784,
            "time": 81.75,
            "velocity": 0.015748031496062992
          },
          {
            "duration": 0.125,
            "durationTicks": 96,
            "midi": 52,
            "name": "E3",
            "ticks": 62880,
            "time": 81.875,
            "velocity": 0.015748031496062992
          },
          {
            "duration": 0.125,
            "durationTicks": 96,
            "midi": 59,
            "name": "B3",
            "ticks": 62880,
            "time": 81.875,
            "velocity": 0.015748031496062992
          },
          {
            "duration": 0.125,
            "durationTicks": 96,
            "midi": 56,
            "name": "G#3",
            "ticks": 62880,
            "time": 81.875,
            "velocity": 0.015748031496062992
          },
          {
            "duration": 0.125,
            "durationTicks": 96,
            "midi": 56,
            "name": "G#3",
            "ticks": 62976,
            "time": 82,
            "velocity": 0.03937007874015748
          },
          {
            "duration": 0.125,
            "durationTicks": 96,
            "midi": 52,
            "name": "E3",
            "ticks": 62976,
            "time": 82,
            "velocity": 0.03937007874015748
          },
          {
            "duration": 0.125,
            "durationTicks": 96,
            "midi": 59,
            "name": "B3",
            "ticks": 62976,
            "time": 82,
            "velocity": 0.03937007874015748
          },
          {
            "duration": 0.125,
            "durationTicks": 96,
            "midi": 59,
            "name": "B3",
            "ticks": 63072,
            "time": 82.125,
            "velocity": 0.03937007874015748
          },
          {
            "duration": 0.125,
            "durationTicks": 96,
            "midi": 56,
            "name": "G#3",
            "ticks": 63072,
            "time": 82.125,
            "velocity": 0.03937007874015748
          },
          {
            "duration": 0.125,
            "durationTicks": 96,
            "midi": 52,
            "name": "E3",
            "ticks": 63072,
            "time": 82.125,
            "velocity": 0.03937007874015748
          },
          {
            "duration": 0.125,
            "durationTicks": 96,
            "midi": 52,
            "name": "E3",
            "ticks": 63168,
            "time": 82.25,
            "velocity": 0.031496062992125984
          },
          {
            "duration": 0.125,
            "durationTicks": 96,
            "midi": 56,
            "name": "G#3",
            "ticks": 63168,
            "time": 82.25,
            "velocity": 0.031496062992125984
          },
          {
            "duration": 0.125,
            "durationTicks": 96,
            "midi": 59,
            "name": "B3",
            "ticks": 63168,
            "time": 82.25,
            "velocity": 0.031496062992125984
          },
          {
            "duration": 0.125,
            "durationTicks": 96,
            "midi": 59,
            "name": "B3",
            "ticks": 63264,
            "time": 82.375,
            "velocity": 0.031496062992125984
          },
          {
            "duration": 0.125,
            "durationTicks": 96,
            "midi": 56,
            "name": "G#3",
            "ticks": 63264,
            "time": 82.375,
            "velocity": 0.031496062992125984
          },
          {
            "duration": 0.125,
            "durationTicks": 96,
            "midi": 52,
            "name": "E3",
            "ticks": 63264,
            "time": 82.375,
            "velocity": 0.031496062992125984
          },
          {
            "duration": 0.125,
            "durationTicks": 96,
            "midi": 58,
            "name": "A#3",
            "ticks": 63360,
            "time": 82.5,
            "velocity": 0.03937007874015748
          },
          {
            "duration": 0.125,
            "durationTicks": 96,
            "midi": 49,
            "name": "C#3",
            "ticks": 63360,
            "time": 82.5,
            "velocity": 0.03937007874015748
          },
          {
            "duration": 0.125,
            "durationTicks": 96,
            "midi": 54,
            "name": "F#3",
            "ticks": 63360,
            "time": 82.5,
            "velocity": 0.03937007874015748
          },
          {
            "duration": 0.125,
            "durationTicks": 96,
            "midi": 58,
            "name": "A#3",
            "ticks": 63456,
            "time": 82.625,
            "velocity": 0.03937007874015748
          },
          {
            "duration": 0.125,
            "durationTicks": 96,
            "midi": 54,
            "name": "F#3",
            "ticks": 63456,
            "time": 82.625,
            "velocity": 0.03937007874015748
          },
          {
            "duration": 0.125,
            "durationTicks": 96,
            "midi": 49,
            "name": "C#3",
            "ticks": 63456,
            "time": 82.625,
            "velocity": 0.03937007874015748
          },
          {
            "duration": 0.125,
            "durationTicks": 96,
            "midi": 58,
            "name": "A#3",
            "ticks": 63552,
            "time": 82.75,
            "velocity": 0.031496062992125984
          },
          {
            "duration": 0.125,
            "durationTicks": 96,
            "midi": 54,
            "name": "F#3",
            "ticks": 63552,
            "time": 82.75,
            "velocity": 0.031496062992125984
          },
          {
            "duration": 0.125,
            "durationTicks": 96,
            "midi": 49,
            "name": "C#3",
            "ticks": 63552,
            "time": 82.75,
            "velocity": 0.031496062992125984
          },
          {
            "duration": 0.125,
            "durationTicks": 96,
            "midi": 49,
            "name": "C#3",
            "ticks": 63648,
            "time": 82.875,
            "velocity": 0.031496062992125984
          },
          {
            "duration": 0.125,
            "durationTicks": 96,
            "midi": 54,
            "name": "F#3",
            "ticks": 63648,
            "time": 82.875,
            "velocity": 0.031496062992125984
          },
          {
            "duration": 0.125,
            "durationTicks": 96,
            "midi": 58,
            "name": "A#3",
            "ticks": 63648,
            "time": 82.875,
            "velocity": 0.031496062992125984
          },
          {
            "duration": 0.125,
            "durationTicks": 96,
            "midi": 49,
            "name": "C#3",
            "ticks": 63744,
            "time": 83,
            "velocity": 0.03937007874015748
          },
          {
            "duration": 0.125,
            "durationTicks": 96,
            "midi": 56,
            "name": "G#3",
            "ticks": 63744,
            "time": 83,
            "velocity": 0.03937007874015748
          },
          {
            "duration": 0.125,
            "durationTicks": 96,
            "midi": 52,
            "name": "E3",
            "ticks": 63744,
            "time": 83,
            "velocity": 0.03937007874015748
          },
          {
            "duration": 0.125,
            "durationTicks": 96,
            "midi": 52,
            "name": "E3",
            "ticks": 63840,
            "time": 83.125,
            "velocity": 0.03937007874015748
          },
          {
            "duration": 0.125,
            "durationTicks": 96,
            "midi": 49,
            "name": "C#3",
            "ticks": 63840,
            "time": 83.125,
            "velocity": 0.03937007874015748
          },
          {
            "duration": 0.125,
            "durationTicks": 96,
            "midi": 56,
            "name": "G#3",
            "ticks": 63840,
            "time": 83.125,
            "velocity": 0.03937007874015748
          },
          {
            "duration": 0.125,
            "durationTicks": 96,
            "midi": 52,
            "name": "E3",
            "ticks": 63936,
            "time": 83.25,
            "velocity": 0.031496062992125984
          },
          {
            "duration": 0.125,
            "durationTicks": 96,
            "midi": 56,
            "name": "G#3",
            "ticks": 63936,
            "time": 83.25,
            "velocity": 0.031496062992125984
          },
          {
            "duration": 0.125,
            "durationTicks": 96,
            "midi": 49,
            "name": "C#3",
            "ticks": 63936,
            "time": 83.25,
            "velocity": 0.031496062992125984
          },
          {
            "duration": 0.125,
            "durationTicks": 96,
            "midi": 56,
            "name": "G#3",
            "ticks": 64032,
            "time": 83.375,
            "velocity": 0.031496062992125984
          },
          {
            "duration": 0.125,
            "durationTicks": 96,
            "midi": 49,
            "name": "C#3",
            "ticks": 64032,
            "time": 83.375,
            "velocity": 0.031496062992125984
          },
          {
            "duration": 0.125,
            "durationTicks": 96,
            "midi": 52,
            "name": "E3",
            "ticks": 64032,
            "time": 83.375,
            "velocity": 0.031496062992125984
          },
          {
            "duration": 0.125,
            "durationTicks": 96,
            "midi": 49,
            "name": "C#3",
            "ticks": 64128,
            "time": 83.5,
            "velocity": 0.031496062992125984
          },
          {
            "duration": 0.125,
            "durationTicks": 96,
            "midi": 56,
            "name": "G#3",
            "ticks": 64128,
            "time": 83.5,
            "velocity": 0.031496062992125984
          },
          {
            "duration": 0.125,
            "durationTicks": 96,
            "midi": 52,
            "name": "E3",
            "ticks": 64128,
            "time": 83.5,
            "velocity": 0.031496062992125984
          },
          {
            "duration": 0.125,
            "durationTicks": 96,
            "midi": 56,
            "name": "G#3",
            "ticks": 64224,
            "time": 83.625,
            "velocity": 0.031496062992125984
          },
          {
            "duration": 0.125,
            "durationTicks": 96,
            "midi": 52,
            "name": "E3",
            "ticks": 64224,
            "time": 83.625,
            "velocity": 0.031496062992125984
          },
          {
            "duration": 0.125,
            "durationTicks": 96,
            "midi": 49,
            "name": "C#3",
            "ticks": 64224,
            "time": 83.625,
            "velocity": 0.031496062992125984
          },
          {
            "duration": 0.125,
            "durationTicks": 96,
            "midi": 49,
            "name": "C#3",
            "ticks": 64320,
            "time": 83.75,
            "velocity": 0.023622047244094488
          },
          {
            "duration": 0.125,
            "durationTicks": 96,
            "midi": 56,
            "name": "G#3",
            "ticks": 64320,
            "time": 83.75,
            "velocity": 0.023622047244094488
          },
          {
            "duration": 0.125,
            "durationTicks": 96,
            "midi": 52,
            "name": "E3",
            "ticks": 64320,
            "time": 83.75,
            "velocity": 0.023622047244094488
          },
          {
            "duration": 0.125,
            "durationTicks": 96,
            "midi": 52,
            "name": "E3",
            "ticks": 64416,
            "time": 83.875,
            "velocity": 0.023622047244094488
          },
          {
            "duration": 0.125,
            "durationTicks": 96,
            "midi": 56,
            "name": "G#3",
            "ticks": 64416,
            "time": 83.875,
            "velocity": 0.023622047244094488
          },
          {
            "duration": 0.125,
            "durationTicks": 96,
            "midi": 49,
            "name": "C#3",
            "ticks": 64416,
            "time": 83.875,
            "velocity": 0.023622047244094488
          },
          {
            "duration": 0.125,
            "durationTicks": 96,
            "midi": 46,
            "name": "A#2",
            "ticks": 64512,
            "time": 84,
            "velocity": 0.03937007874015748
          },
          {
            "duration": 0.125,
            "durationTicks": 96,
            "midi": 49,
            "name": "C#3",
            "ticks": 64512,
            "time": 84,
            "velocity": 0.03937007874015748
          },
          {
            "duration": 0.125,
            "durationTicks": 96,
            "midi": 54,
            "name": "F#3",
            "ticks": 64512,
            "time": 84,
            "velocity": 0.03937007874015748
          },
          {
            "duration": 0.125,
            "durationTicks": 96,
            "midi": 54,
            "name": "F#3",
            "ticks": 64608,
            "time": 84.125,
            "velocity": 0.03937007874015748
          },
          {
            "duration": 0.125,
            "durationTicks": 96,
            "midi": 49,
            "name": "C#3",
            "ticks": 64608,
            "time": 84.125,
            "velocity": 0.03937007874015748
          },
          {
            "duration": 0.125,
            "durationTicks": 96,
            "midi": 46,
            "name": "A#2",
            "ticks": 64608,
            "time": 84.125,
            "velocity": 0.03937007874015748
          },
          {
            "duration": 0.125,
            "durationTicks": 96,
            "midi": 46,
            "name": "A#2",
            "ticks": 64704,
            "time": 84.25,
            "velocity": 0.031496062992125984
          },
          {
            "duration": 0.125,
            "durationTicks": 96,
            "midi": 54,
            "name": "F#3",
            "ticks": 64704,
            "time": 84.25,
            "velocity": 0.031496062992125984
          },
          {
            "duration": 0.125,
            "durationTicks": 96,
            "midi": 49,
            "name": "C#3",
            "ticks": 64704,
            "time": 84.25,
            "velocity": 0.031496062992125984
          },
          {
            "duration": 0.125,
            "durationTicks": 96,
            "midi": 54,
            "name": "F#3",
            "ticks": 64800,
            "time": 84.375,
            "velocity": 0.031496062992125984
          },
          {
            "duration": 0.125,
            "durationTicks": 96,
            "midi": 49,
            "name": "C#3",
            "ticks": 64800,
            "time": 84.375,
            "velocity": 0.031496062992125984
          },
          {
            "duration": 0.125,
            "durationTicks": 96,
            "midi": 46,
            "name": "A#2",
            "ticks": 64800,
            "time": 84.375,
            "velocity": 0.031496062992125984
          },
          {
            "duration": 0.125,
            "durationTicks": 96,
            "midi": 54,
            "name": "F#3",
            "ticks": 64896,
            "time": 84.5,
            "velocity": 0.031496062992125984
          },
          {
            "duration": 0.125,
            "durationTicks": 96,
            "midi": 49,
            "name": "C#3",
            "ticks": 64896,
            "time": 84.5,
            "velocity": 0.031496062992125984
          },
          {
            "duration": 0.125,
            "durationTicks": 96,
            "midi": 46,
            "name": "A#2",
            "ticks": 64896,
            "time": 84.5,
            "velocity": 0.031496062992125984
          },
          {
            "duration": 0.125,
            "durationTicks": 96,
            "midi": 49,
            "name": "C#3",
            "ticks": 64992,
            "time": 84.625,
            "velocity": 0.031496062992125984
          },
          {
            "duration": 0.125,
            "durationTicks": 96,
            "midi": 54,
            "name": "F#3",
            "ticks": 64992,
            "time": 84.625,
            "velocity": 0.031496062992125984
          },
          {
            "duration": 0.125,
            "durationTicks": 96,
            "midi": 46,
            "name": "A#2",
            "ticks": 64992,
            "time": 84.625,
            "velocity": 0.031496062992125984
          },
          {
            "duration": 0.125,
            "durationTicks": 96,
            "midi": 54,
            "name": "F#3",
            "ticks": 65088,
            "time": 84.75,
            "velocity": 0.023622047244094488
          },
          {
            "duration": 0.125,
            "durationTicks": 96,
            "midi": 49,
            "name": "C#3",
            "ticks": 65088,
            "time": 84.75,
            "velocity": 0.023622047244094488
          },
          {
            "duration": 0.125,
            "durationTicks": 96,
            "midi": 46,
            "name": "A#2",
            "ticks": 65088,
            "time": 84.75,
            "velocity": 0.023622047244094488
          },
          {
            "duration": 0.125,
            "durationTicks": 96,
            "midi": 46,
            "name": "A#2",
            "ticks": 65184,
            "time": 84.875,
            "velocity": 0.023622047244094488
          },
          {
            "duration": 0.125,
            "durationTicks": 96,
            "midi": 49,
            "name": "C#3",
            "ticks": 65184,
            "time": 84.875,
            "velocity": 0.023622047244094488
          },
          {
            "duration": 0.125,
            "durationTicks": 96,
            "midi": 54,
            "name": "F#3",
            "ticks": 65184,
            "time": 84.875,
            "velocity": 0.023622047244094488
          },
          {
            "duration": 0.125,
            "durationTicks": 96,
            "midi": 54,
            "name": "F#3",
            "ticks": 65280,
            "time": 85,
            "velocity": 0.023622047244094488
          },
          {
            "duration": 0.125,
            "durationTicks": 96,
            "midi": 49,
            "name": "C#3",
            "ticks": 65280,
            "time": 85,
            "velocity": 0.023622047244094488
          },
          {
            "duration": 0.125,
            "durationTicks": 96,
            "midi": 46,
            "name": "A#2",
            "ticks": 65280,
            "time": 85,
            "velocity": 0.023622047244094488
          },
          {
            "duration": 0.125,
            "durationTicks": 96,
            "midi": 54,
            "name": "F#3",
            "ticks": 65376,
            "time": 85.125,
            "velocity": 0.023622047244094488
          },
          {
            "duration": 0.125,
            "durationTicks": 96,
            "midi": 49,
            "name": "C#3",
            "ticks": 65376,
            "time": 85.125,
            "velocity": 0.023622047244094488
          },
          {
            "duration": 0.125,
            "durationTicks": 96,
            "midi": 46,
            "name": "A#2",
            "ticks": 65376,
            "time": 85.125,
            "velocity": 0.023622047244094488
          },
          {
            "duration": 0.125,
            "durationTicks": 96,
            "midi": 46,
            "name": "A#2",
            "ticks": 65472,
            "time": 85.25,
            "velocity": 0.015748031496062992
          },
          {
            "duration": 0.125,
            "durationTicks": 96,
            "midi": 54,
            "name": "F#3",
            "ticks": 65472,
            "time": 85.25,
            "velocity": 0.015748031496062992
          },
          {
            "duration": 0.125,
            "durationTicks": 96,
            "midi": 49,
            "name": "C#3",
            "ticks": 65472,
            "time": 85.25,
            "velocity": 0.015748031496062992
          },
          {
            "duration": 0.125,
            "durationTicks": 96,
            "midi": 49,
            "name": "C#3",
            "ticks": 65568,
            "time": 85.375,
            "velocity": 0.015748031496062992
          },
          {
            "duration": 0.125,
            "durationTicks": 96,
            "midi": 54,
            "name": "F#3",
            "ticks": 65568,
            "time": 85.375,
            "velocity": 0.015748031496062992
          },
          {
            "duration": 0.125,
            "durationTicks": 96,
            "midi": 46,
            "name": "A#2",
            "ticks": 65568,
            "time": 85.375,
            "velocity": 0.015748031496062992
          },
          {
            "duration": 0.125,
            "durationTicks": 96,
            "midi": 49,
            "name": "C#3",
            "ticks": 65664,
            "time": 85.5,
            "velocity": 0.015748031496062992
          },
          {
            "duration": 0.125,
            "durationTicks": 96,
            "midi": 46,
            "name": "A#2",
            "ticks": 65664,
            "time": 85.5,
            "velocity": 0.015748031496062992
          },
          {
            "duration": 0.125,
            "durationTicks": 96,
            "midi": 54,
            "name": "F#3",
            "ticks": 65664,
            "time": 85.5,
            "velocity": 0.015748031496062992
          },
          {
            "duration": 0.125,
            "durationTicks": 96,
            "midi": 54,
            "name": "F#3",
            "ticks": 65760,
            "time": 85.625,
            "velocity": 0.015748031496062992
          },
          {
            "duration": 0.125,
            "durationTicks": 96,
            "midi": 46,
            "name": "A#2",
            "ticks": 65760,
            "time": 85.625,
            "velocity": 0.015748031496062992
          },
          {
            "duration": 0.125,
            "durationTicks": 96,
            "midi": 49,
            "name": "C#3",
            "ticks": 65760,
            "time": 85.625,
            "velocity": 0.015748031496062992
          },
          {
            "duration": 0.125,
            "durationTicks": 96,
            "midi": 49,
            "name": "C#3",
            "ticks": 65856,
            "time": 85.75,
            "velocity": 0.007874015748031496
          },
          {
            "duration": 0.125,
            "durationTicks": 96,
            "midi": 54,
            "name": "F#3",
            "ticks": 65856,
            "time": 85.75,
            "velocity": 0.007874015748031496
          },
          {
            "duration": 0.125,
            "durationTicks": 96,
            "midi": 46,
            "name": "A#2",
            "ticks": 65856,
            "time": 85.75,
            "velocity": 0.007874015748031496
          },
          {
            "duration": 0.125,
            "durationTicks": 96,
            "midi": 46,
            "name": "A#2",
            "ticks": 65952,
            "time": 85.875,
            "velocity": 0.007874015748031496
          },
          {
            "duration": 0.125,
            "durationTicks": 96,
            "midi": 54,
            "name": "F#3",
            "ticks": 65952,
            "time": 85.875,
            "velocity": 0.007874015748031496
          },
          {
            "duration": 0.125,
            "durationTicks": 96,
            "midi": 49,
            "name": "C#3",
            "ticks": 65952,
            "time": 85.875,
            "velocity": 0.007874015748031496
          },
          {
            "duration": 0.125,
            "durationTicks": 96,
            "midi": 58,
            "name": "A#3",
            "ticks": 85440,
            "time": 111.25,
            "velocity": 0.06299212598425197
          },
          {
            "duration": 0.125,
            "durationTicks": 96,
            "midi": 61,
            "name": "C#4",
            "ticks": 85440,
            "time": 111.25,
            "velocity": 0.06299212598425197
          },
          {
            "duration": 0.125,
            "durationTicks": 96,
            "midi": 66,
            "name": "F#4",
            "ticks": 85440,
            "time": 111.25,
            "velocity": 0.06299212598425197
          },
          {
            "duration": 0.125,
            "durationTicks": 96,
            "midi": 66,
            "name": "F#4",
            "ticks": 85536,
            "time": 111.375,
            "velocity": 0.06299212598425197
          },
          {
            "duration": 0.125,
            "durationTicks": 96,
            "midi": 58,
            "name": "A#3",
            "ticks": 85536,
            "time": 111.375,
            "velocity": 0.06299212598425197
          },
          {
            "duration": 0.125,
            "durationTicks": 96,
            "midi": 61,
            "name": "C#4",
            "ticks": 85536,
            "time": 111.375,
            "velocity": 0.06299212598425197
          },
          {
            "duration": 0.125,
            "durationTicks": 96,
            "midi": 61,
            "name": "C#4",
            "ticks": 85632,
            "time": 111.5,
            "velocity": 0.07086614173228346
          },
          {
            "duration": 0.125,
            "durationTicks": 96,
            "midi": 66,
            "name": "F#4",
            "ticks": 85632,
            "time": 111.5,
            "velocity": 0.07086614173228346
          },
          {
            "duration": 0.125,
            "durationTicks": 96,
            "midi": 58,
            "name": "A#3",
            "ticks": 85632,
            "time": 111.5,
            "velocity": 0.07086614173228346
          },
          {
            "duration": 0.125,
            "durationTicks": 96,
            "midi": 61,
            "name": "C#4",
            "ticks": 85728,
            "time": 111.625,
            "velocity": 0.07086614173228346
          },
          {
            "duration": 0.125,
            "durationTicks": 96,
            "midi": 58,
            "name": "A#3",
            "ticks": 85728,
            "time": 111.625,
            "velocity": 0.07086614173228346
          },
          {
            "duration": 0.125,
            "durationTicks": 96,
            "midi": 66,
            "name": "F#4",
            "ticks": 85728,
            "time": 111.625,
            "velocity": 0.07086614173228346
          },
          {
            "duration": 0.125,
            "durationTicks": 96,
            "midi": 58,
            "name": "A#3",
            "ticks": 85824,
            "time": 111.75,
            "velocity": 0.06299212598425197
          },
          {
            "duration": 0.125,
            "durationTicks": 96,
            "midi": 61,
            "name": "C#4",
            "ticks": 85824,
            "time": 111.75,
            "velocity": 0.06299212598425197
          },
          {
            "duration": 0.125,
            "durationTicks": 96,
            "midi": 66,
            "name": "F#4",
            "ticks": 85824,
            "time": 111.75,
            "velocity": 0.06299212598425197
          },
          {
            "duration": 0.125,
            "durationTicks": 96,
            "midi": 61,
            "name": "C#4",
            "ticks": 85920,
            "time": 111.875,
            "velocity": 0.06299212598425197
          },
          {
            "duration": 0.125,
            "durationTicks": 96,
            "midi": 66,
            "name": "F#4",
            "ticks": 85920,
            "time": 111.875,
            "velocity": 0.06299212598425197
          },
          {
            "duration": 0.125,
            "durationTicks": 96,
            "midi": 58,
            "name": "A#3",
            "ticks": 85920,
            "time": 111.875,
            "velocity": 0.06299212598425197
          },
          {
            "duration": 0.125,
            "durationTicks": 96,
            "midi": 58,
            "name": "A#3",
            "ticks": 86016,
            "time": 112,
            "velocity": 0.06299212598425197
          },
          {
            "duration": 0.125,
            "durationTicks": 96,
            "midi": 61,
            "name": "C#4",
            "ticks": 86016,
            "time": 112,
            "velocity": 0.06299212598425197
          },
          {
            "duration": 0.125,
            "durationTicks": 96,
            "midi": 66,
            "name": "F#4",
            "ticks": 86016,
            "time": 112,
            "velocity": 0.06299212598425197
          },
          {
            "duration": 0.125,
            "durationTicks": 96,
            "midi": 66,
            "name": "F#4",
            "ticks": 86112,
            "time": 112.125,
            "velocity": 0.06299212598425197
          },
          {
            "duration": 0.125,
            "durationTicks": 96,
            "midi": 61,
            "name": "C#4",
            "ticks": 86112,
            "time": 112.125,
            "velocity": 0.06299212598425197
          },
          {
            "duration": 0.125,
            "durationTicks": 96,
            "midi": 58,
            "name": "A#3",
            "ticks": 86112,
            "time": 112.125,
            "velocity": 0.06299212598425197
          },
          {
            "duration": 0.125,
            "durationTicks": 96,
            "midi": 66,
            "name": "F#4",
            "ticks": 86208,
            "time": 112.25,
            "velocity": 0.05511811023622047
          },
          {
            "duration": 0.125,
            "durationTicks": 96,
            "midi": 61,
            "name": "C#4",
            "ticks": 86208,
            "time": 112.25,
            "velocity": 0.05511811023622047
          },
          {
            "duration": 0.125,
            "durationTicks": 96,
            "midi": 58,
            "name": "A#3",
            "ticks": 86208,
            "time": 112.25,
            "velocity": 0.05511811023622047
          },
          {
            "duration": 0.125,
            "durationTicks": 96,
            "midi": 66,
            "name": "F#4",
            "ticks": 86304,
            "time": 112.375,
            "velocity": 0.05511811023622047
          },
          {
            "duration": 0.125,
            "durationTicks": 96,
            "midi": 61,
            "name": "C#4",
            "ticks": 86304,
            "time": 112.375,
            "velocity": 0.05511811023622047
          },
          {
            "duration": 0.125,
            "durationTicks": 96,
            "midi": 58,
            "name": "A#3",
            "ticks": 86304,
            "time": 112.375,
            "velocity": 0.05511811023622047
          },
          {
            "duration": 0.125,
            "durationTicks": 96,
            "midi": 66,
            "name": "F#4",
            "ticks": 86400,
            "time": 112.5,
            "velocity": 0.05511811023622047
          },
          {
            "duration": 0.125,
            "durationTicks": 96,
            "midi": 61,
            "name": "C#4",
            "ticks": 86400,
            "time": 112.5,
            "velocity": 0.05511811023622047
          },
          {
            "duration": 0.125,
            "durationTicks": 96,
            "midi": 58,
            "name": "A#3",
            "ticks": 86400,
            "time": 112.5,
            "velocity": 0.05511811023622047
          },
          {
            "duration": 0.125,
            "durationTicks": 96,
            "midi": 58,
            "name": "A#3",
            "ticks": 86496,
            "time": 112.625,
            "velocity": 0.05511811023622047
          },
          {
            "duration": 0.125,
            "durationTicks": 96,
            "midi": 66,
            "name": "F#4",
            "ticks": 86496,
            "time": 112.625,
            "velocity": 0.05511811023622047
          },
          {
            "duration": 0.125,
            "durationTicks": 96,
            "midi": 61,
            "name": "C#4",
            "ticks": 86496,
            "time": 112.625,
            "velocity": 0.05511811023622047
          },
          {
            "duration": 0.125,
            "durationTicks": 96,
            "midi": 58,
            "name": "A#3",
            "ticks": 86592,
            "time": 112.75,
            "velocity": 0.047244094488188976
          },
          {
            "duration": 0.125,
            "durationTicks": 96,
            "midi": 61,
            "name": "C#4",
            "ticks": 86592,
            "time": 112.75,
            "velocity": 0.047244094488188976
          },
          {
            "duration": 0.125,
            "durationTicks": 96,
            "midi": 66,
            "name": "F#4",
            "ticks": 86592,
            "time": 112.75,
            "velocity": 0.047244094488188976
          },
          {
            "duration": 0.125,
            "durationTicks": 96,
            "midi": 58,
            "name": "A#3",
            "ticks": 86688,
            "time": 112.875,
            "velocity": 0.047244094488188976
          },
          {
            "duration": 0.125,
            "durationTicks": 96,
            "midi": 61,
            "name": "C#4",
            "ticks": 86688,
            "time": 112.875,
            "velocity": 0.047244094488188976
          },
          {
            "duration": 0.125,
            "durationTicks": 96,
            "midi": 66,
            "name": "F#4",
            "ticks": 86688,
            "time": 112.875,
            "velocity": 0.047244094488188976
          },
          {
            "duration": 0.125,
            "durationTicks": 96,
            "midi": 66,
            "name": "F#4",
            "ticks": 86784,
            "time": 113,
            "velocity": 0.047244094488188976
          },
          {
            "duration": 0.125,
            "durationTicks": 96,
            "midi": 61,
            "name": "C#4",
            "ticks": 86784,
            "time": 113,
            "velocity": 0.047244094488188976
          },
          {
            "duration": 0.125,
            "durationTicks": 96,
            "midi": 58,
            "name": "A#3",
            "ticks": 86784,
            "time": 113,
            "velocity": 0.047244094488188976
          },
          {
            "duration": 0.125,
            "durationTicks": 96,
            "midi": 66,
            "name": "F#4",
            "ticks": 86880,
            "time": 113.125,
            "velocity": 0.047244094488188976
          },
          {
            "duration": 0.125,
            "durationTicks": 96,
            "midi": 58,
            "name": "A#3",
            "ticks": 86880,
            "time": 113.125,
            "velocity": 0.047244094488188976
          },
          {
            "duration": 0.125,
            "durationTicks": 96,
            "midi": 61,
            "name": "C#4",
            "ticks": 86880,
            "time": 113.125,
            "velocity": 0.047244094488188976
          },
          {
            "duration": 0.125,
            "durationTicks": 96,
            "midi": 66,
            "name": "F#4",
            "ticks": 86976,
            "time": 113.25,
            "velocity": 0.03937007874015748
          },
          {
            "duration": 0.125,
            "durationTicks": 96,
            "midi": 61,
            "name": "C#4",
            "ticks": 86976,
            "time": 113.25,
            "velocity": 0.03937007874015748
          },
          {
            "duration": 0.125,
            "durationTicks": 96,
            "midi": 58,
            "name": "A#3",
            "ticks": 86976,
            "time": 113.25,
            "velocity": 0.03937007874015748
          },
          {
            "duration": 0.125,
            "durationTicks": 96,
            "midi": 66,
            "name": "F#4",
            "ticks": 87072,
            "time": 113.375,
            "velocity": 0.03937007874015748
          },
          {
            "duration": 0.125,
            "durationTicks": 96,
            "midi": 61,
            "name": "C#4",
            "ticks": 87072,
            "time": 113.375,
            "velocity": 0.03937007874015748
          },
          {
            "duration": 0.125,
            "durationTicks": 96,
            "midi": 58,
            "name": "A#3",
            "ticks": 87072,
            "time": 113.375,
            "velocity": 0.03937007874015748
          },
          {
            "duration": 0.125,
            "durationTicks": 96,
            "midi": 61,
            "name": "C#4",
            "ticks": 87168,
            "time": 113.5,
            "velocity": 0.031496062992125984
          },
          {
            "duration": 0.125,
            "durationTicks": 96,
            "midi": 58,
            "name": "A#3",
            "ticks": 87168,
            "time": 113.5,
            "velocity": 0.031496062992125984
          },
          {
            "duration": 0.125,
            "durationTicks": 96,
            "midi": 66,
            "name": "F#4",
            "ticks": 87168,
            "time": 113.5,
            "velocity": 0.031496062992125984
          },
          {
            "duration": 0.125,
            "durationTicks": 96,
            "midi": 66,
            "name": "F#4",
            "ticks": 87264,
            "time": 113.625,
            "velocity": 0.031496062992125984
          },
          {
            "duration": 0.125,
            "durationTicks": 96,
            "midi": 61,
            "name": "C#4",
            "ticks": 87264,
            "time": 113.625,
            "velocity": 0.031496062992125984
          },
          {
            "duration": 0.125,
            "durationTicks": 96,
            "midi": 58,
            "name": "A#3",
            "ticks": 87264,
            "time": 113.625,
            "velocity": 0.031496062992125984
          },
          {
            "duration": 0.125,
            "durationTicks": 96,
            "midi": 58,
            "name": "A#3",
            "ticks": 87360,
            "time": 113.75,
            "velocity": 0.031496062992125984
          },
          {
            "duration": 0.125,
            "durationTicks": 96,
            "midi": 61,
            "name": "C#4",
            "ticks": 87360,
            "time": 113.75,
            "velocity": 0.031496062992125984
          },
          {
            "duration": 0.125,
            "durationTicks": 96,
            "midi": 66,
            "name": "F#4",
            "ticks": 87360,
            "time": 113.75,
            "velocity": 0.031496062992125984
          },
          {
            "duration": 0.125,
            "durationTicks": 96,
            "midi": 66,
            "name": "F#4",
            "ticks": 87456,
            "time": 113.875,
            "velocity": 0.031496062992125984
          },
          {
            "duration": 0.125,
            "durationTicks": 96,
            "midi": 58,
            "name": "A#3",
            "ticks": 87456,
            "time": 113.875,
            "velocity": 0.031496062992125984
          },
          {
            "duration": 0.125,
            "durationTicks": 96,
            "midi": 61,
            "name": "C#4",
            "ticks": 87456,
            "time": 113.875,
            "velocity": 0.031496062992125984
          },
          {
            "duration": 0.125,
            "durationTicks": 96,
            "midi": 66,
            "name": "F#4",
            "ticks": 87552,
            "time": 114,
            "velocity": 0.023622047244094488
          },
          {
            "duration": 0.125,
            "durationTicks": 96,
            "midi": 61,
            "name": "C#4",
            "ticks": 87552,
            "time": 114,
            "velocity": 0.023622047244094488
          },
          {
            "duration": 0.125,
            "durationTicks": 96,
            "midi": 58,
            "name": "A#3",
            "ticks": 87552,
            "time": 114,
            "velocity": 0.023622047244094488
          },
          {
            "duration": 0.125,
            "durationTicks": 96,
            "midi": 58,
            "name": "A#3",
            "ticks": 87648,
            "time": 114.125,
            "velocity": 0.023622047244094488
          },
          {
            "duration": 0.125,
            "durationTicks": 96,
            "midi": 66,
            "name": "F#4",
            "ticks": 87648,
            "time": 114.125,
            "velocity": 0.023622047244094488
          },
          {
            "duration": 0.125,
            "durationTicks": 96,
            "midi": 61,
            "name": "C#4",
            "ticks": 87648,
            "time": 114.125,
            "velocity": 0.023622047244094488
          },
          {
            "duration": 0.125,
            "durationTicks": 96,
            "midi": 66,
            "name": "F#4",
            "ticks": 87744,
            "time": 114.25,
            "velocity": 0.023622047244094488
          },
          {
            "duration": 0.125,
            "durationTicks": 96,
            "midi": 61,
            "name": "C#4",
            "ticks": 87744,
            "time": 114.25,
            "velocity": 0.023622047244094488
          },
          {
            "duration": 0.125,
            "durationTicks": 96,
            "midi": 58,
            "name": "A#3",
            "ticks": 87744,
            "time": 114.25,
            "velocity": 0.023622047244094488
          },
          {
            "duration": 0.125,
            "durationTicks": 96,
            "midi": 66,
            "name": "F#4",
            "ticks": 87840,
            "time": 114.375,
            "velocity": 0.023622047244094488
          },
          {
            "duration": 0.125,
            "durationTicks": 96,
            "midi": 61,
            "name": "C#4",
            "ticks": 87840,
            "time": 114.375,
            "velocity": 0.023622047244094488
          },
          {
            "duration": 0.125,
            "durationTicks": 96,
            "midi": 58,
            "name": "A#3",
            "ticks": 87840,
            "time": 114.375,
            "velocity": 0.023622047244094488
          },
          {
            "duration": 0.125,
            "durationTicks": 96,
            "midi": 66,
            "name": "F#4",
            "ticks": 87936,
            "time": 114.5,
            "velocity": 0.015748031496062992
          },
          {
            "duration": 0.125,
            "durationTicks": 96,
            "midi": 61,
            "name": "C#4",
            "ticks": 87936,
            "time": 114.5,
            "velocity": 0.015748031496062992
          },
          {
            "duration": 0.125,
            "durationTicks": 96,
            "midi": 58,
            "name": "A#3",
            "ticks": 87936,
            "time": 114.5,
            "velocity": 0.015748031496062992
          },
          {
            "duration": 0.125,
            "durationTicks": 96,
            "midi": 58,
            "name": "A#3",
            "ticks": 88032,
            "time": 114.625,
            "velocity": 0.015748031496062992
          },
          {
            "duration": 0.125,
            "durationTicks": 96,
            "midi": 61,
            "name": "C#4",
            "ticks": 88032,
            "time": 114.625,
            "velocity": 0.015748031496062992
          },
          {
            "duration": 0.125,
            "durationTicks": 96,
            "midi": 66,
            "name": "F#4",
            "ticks": 88032,
            "time": 114.625,
            "velocity": 0.015748031496062992
          },
          {
            "duration": 0.125,
            "durationTicks": 96,
            "midi": 58,
            "name": "A#3",
            "ticks": 88128,
            "time": 114.75,
            "velocity": 0.015748031496062992
          },
          {
            "duration": 0.125,
            "durationTicks": 96,
            "midi": 66,
            "name": "F#4",
            "ticks": 88128,
            "time": 114.75,
            "velocity": 0.015748031496062992
          },
          {
            "duration": 0.125,
            "durationTicks": 96,
            "midi": 61,
            "name": "C#4",
            "ticks": 88128,
            "time": 114.75,
            "velocity": 0.015748031496062992
          },
          {
            "duration": 0.125,
            "durationTicks": 96,
            "midi": 66,
            "name": "F#4",
            "ticks": 88224,
            "time": 114.875,
            "velocity": 0.015748031496062992
          },
          {
            "duration": 0.125,
            "durationTicks": 96,
            "midi": 61,
            "name": "C#4",
            "ticks": 88224,
            "time": 114.875,
            "velocity": 0.015748031496062992
          },
          {
            "duration": 0.125,
            "durationTicks": 96,
            "midi": 58,
            "name": "A#3",
            "ticks": 88224,
            "time": 114.875,
            "velocity": 0.015748031496062992
          },
          {
            "duration": 0.125,
            "durationTicks": 96,
            "midi": 58,
            "name": "A#3",
            "ticks": 88320,
            "time": 115,
            "velocity": 0.007874015748031496
          },
          {
            "duration": 0.125,
            "durationTicks": 96,
            "midi": 66,
            "name": "F#4",
            "ticks": 88320,
            "time": 115,
            "velocity": 0.007874015748031496
          },
          {
            "duration": 0.125,
            "durationTicks": 96,
            "midi": 61,
            "name": "C#4",
            "ticks": 88320,
            "time": 115,
            "velocity": 0.007874015748031496
          },
          {
            "duration": 0.125,
            "durationTicks": 96,
            "midi": 66,
            "name": "F#4",
            "ticks": 88416,
            "time": 115.125,
            "velocity": 0.007874015748031496
          },
          {
            "duration": 0.125,
            "durationTicks": 96,
            "midi": 61,
            "name": "C#4",
            "ticks": 88416,
            "time": 115.125,
            "velocity": 0.007874015748031496
          },
          {
            "duration": 0.125,
            "durationTicks": 96,
            "midi": 58,
            "name": "A#3",
            "ticks": 88416,
            "time": 115.125,
            "velocity": 0.007874015748031496
          },
          {
            "duration": 0.125,
            "durationTicks": 96,
            "midi": 58,
            "name": "A#3",
            "ticks": 88512,
            "time": 115.25,
            "velocity": 0.007874015748031496
          },
          {
            "duration": 0.125,
            "durationTicks": 96,
            "midi": 61,
            "name": "C#4",
            "ticks": 88512,
            "time": 115.25,
            "velocity": 0.007874015748031496
          },
          {
            "duration": 0.125,
            "durationTicks": 96,
            "midi": 66,
            "name": "F#4",
            "ticks": 88512,
            "time": 115.25,
            "velocity": 0.007874015748031496
          },
          {
            "duration": 0.125,
            "durationTicks": 96,
            "midi": 58,
            "name": "A#3",
            "ticks": 88608,
            "time": 115.375,
            "velocity": 0.007874015748031496
          },
          {
            "duration": 0.125,
            "durationTicks": 96,
            "midi": 66,
            "name": "F#4",
            "ticks": 88608,
            "time": 115.375,
            "velocity": 0.007874015748031496
          },
          {
            "duration": 0.125,
            "durationTicks": 96,
            "midi": 61,
            "name": "C#4",
            "ticks": 88608,
            "time": 115.375,
            "velocity": 0.007874015748031496
          },
          {
            "duration": 0.125,
            "durationTicks": 96,
            "midi": 61,
            "name": "C#4",
            "ticks": 91584,
            "time": 119.25,
            "velocity": 0.06299212598425197
          },
          {
            "duration": 0.125,
            "durationTicks": 96,
            "midi": 66,
            "name": "F#4",
            "ticks": 91584,
            "time": 119.25,
            "velocity": 0.06299212598425197
          },
          {
            "duration": 0.125,
            "durationTicks": 96,
            "midi": 58,
            "name": "A#3",
            "ticks": 91584,
            "time": 119.25,
            "velocity": 0.06299212598425197
          },
          {
            "duration": 0.125,
            "durationTicks": 96,
            "midi": 66,
            "name": "F#4",
            "ticks": 91680,
            "time": 119.375,
            "velocity": 0.06299212598425197
          },
          {
            "duration": 0.125,
            "durationTicks": 96,
            "midi": 58,
            "name": "A#3",
            "ticks": 91680,
            "time": 119.375,
            "velocity": 0.06299212598425197
          },
          {
            "duration": 0.125,
            "durationTicks": 96,
            "midi": 61,
            "name": "C#4",
            "ticks": 91680,
            "time": 119.375,
            "velocity": 0.06299212598425197
          },
          {
            "duration": 0.125,
            "durationTicks": 96,
            "midi": 58,
            "name": "A#3",
            "ticks": 91776,
            "time": 119.5,
            "velocity": 0.07086614173228346
          },
          {
            "duration": 0.125,
            "durationTicks": 96,
            "midi": 61,
            "name": "C#4",
            "ticks": 91776,
            "time": 119.5,
            "velocity": 0.07086614173228346
          },
          {
            "duration": 0.125,
            "durationTicks": 96,
            "midi": 66,
            "name": "F#4",
            "ticks": 91776,
            "time": 119.5,
            "velocity": 0.07086614173228346
          },
          {
            "duration": 0.125,
            "durationTicks": 96,
            "midi": 66,
            "name": "F#4",
            "ticks": 91872,
            "time": 119.625,
            "velocity": 0.07086614173228346
          },
          {
            "duration": 0.125,
            "durationTicks": 96,
            "midi": 58,
            "name": "A#3",
            "ticks": 91872,
            "time": 119.625,
            "velocity": 0.07086614173228346
          },
          {
            "duration": 0.125,
            "durationTicks": 96,
            "midi": 61,
            "name": "C#4",
            "ticks": 91872,
            "time": 119.625,
            "velocity": 0.07086614173228346
          },
          {
            "duration": 0.125,
            "durationTicks": 96,
            "midi": 58,
            "name": "A#3",
            "ticks": 91968,
            "time": 119.75,
            "velocity": 0.06299212598425197
          },
          {
            "duration": 0.125,
            "durationTicks": 96,
            "midi": 66,
            "name": "F#4",
            "ticks": 91968,
            "time": 119.75,
            "velocity": 0.06299212598425197
          },
          {
            "duration": 0.125,
            "durationTicks": 96,
            "midi": 61,
            "name": "C#4",
            "ticks": 91968,
            "time": 119.75,
            "velocity": 0.06299212598425197
          },
          {
            "duration": 0.125,
            "durationTicks": 96,
            "midi": 58,
            "name": "A#3",
            "ticks": 92064,
            "time": 119.875,
            "velocity": 0.06299212598425197
          },
          {
            "duration": 0.125,
            "durationTicks": 96,
            "midi": 61,
            "name": "C#4",
            "ticks": 92064,
            "time": 119.875,
            "velocity": 0.06299212598425197
          },
          {
            "duration": 0.125,
            "durationTicks": 96,
            "midi": 66,
            "name": "F#4",
            "ticks": 92064,
            "time": 119.875,
            "velocity": 0.06299212598425197
          },
          {
            "duration": 0.125,
            "durationTicks": 96,
            "midi": 66,
            "name": "F#4",
            "ticks": 92160,
            "time": 120,
            "velocity": 0.06299212598425197
          },
          {
            "duration": 0.125,
            "durationTicks": 96,
            "midi": 61,
            "name": "C#4",
            "ticks": 92160,
            "time": 120,
            "velocity": 0.06299212598425197
          },
          {
            "duration": 0.125,
            "durationTicks": 96,
            "midi": 58,
            "name": "A#3",
            "ticks": 92160,
            "time": 120,
            "velocity": 0.06299212598425197
          },
          {
            "duration": 0.125,
            "durationTicks": 96,
            "midi": 58,
            "name": "A#3",
            "ticks": 92256,
            "time": 120.125,
            "velocity": 0.06299212598425197
          },
          {
            "duration": 0.125,
            "durationTicks": 96,
            "midi": 61,
            "name": "C#4",
            "ticks": 92256,
            "time": 120.125,
            "velocity": 0.06299212598425197
          },
          {
            "duration": 0.125,
            "durationTicks": 96,
            "midi": 66,
            "name": "F#4",
            "ticks": 92256,
            "time": 120.125,
            "velocity": 0.06299212598425197
          },
          {
            "duration": 0.125,
            "durationTicks": 96,
            "midi": 66,
            "name": "F#4",
            "ticks": 92352,
            "time": 120.25,
            "velocity": 0.05511811023622047
          },
          {
            "duration": 0.125,
            "durationTicks": 96,
            "midi": 61,
            "name": "C#4",
            "ticks": 92352,
            "time": 120.25,
            "velocity": 0.05511811023622047
          },
          {
            "duration": 0.125,
            "durationTicks": 96,
            "midi": 58,
            "name": "A#3",
            "ticks": 92352,
            "time": 120.25,
            "velocity": 0.05511811023622047
          },
          {
            "duration": 0.125,
            "durationTicks": 96,
            "midi": 58,
            "name": "A#3",
            "ticks": 92448,
            "time": 120.375,
            "velocity": 0.05511811023622047
          },
          {
            "duration": 0.125,
            "durationTicks": 96,
            "midi": 66,
            "name": "F#4",
            "ticks": 92448,
            "time": 120.375,
            "velocity": 0.05511811023622047
          },
          {
            "duration": 0.125,
            "durationTicks": 96,
            "midi": 61,
            "name": "C#4",
            "ticks": 92448,
            "time": 120.375,
            "velocity": 0.05511811023622047
          },
          {
            "duration": 0.125,
            "durationTicks": 96,
            "midi": 66,
            "name": "F#4",
            "ticks": 92544,
            "time": 120.5,
            "velocity": 0.05511811023622047
          },
          {
            "duration": 0.125,
            "durationTicks": 96,
            "midi": 61,
            "name": "C#4",
            "ticks": 92544,
            "time": 120.5,
            "velocity": 0.05511811023622047
          },
          {
            "duration": 0.125,
            "durationTicks": 96,
            "midi": 58,
            "name": "A#3",
            "ticks": 92544,
            "time": 120.5,
            "velocity": 0.05511811023622047
          },
          {
            "duration": 0.125,
            "durationTicks": 96,
            "midi": 61,
            "name": "C#4",
            "ticks": 92640,
            "time": 120.625,
            "velocity": 0.05511811023622047
          },
          {
            "duration": 0.125,
            "durationTicks": 96,
            "midi": 58,
            "name": "A#3",
            "ticks": 92640,
            "time": 120.625,
            "velocity": 0.05511811023622047
          },
          {
            "duration": 0.125,
            "durationTicks": 96,
            "midi": 66,
            "name": "F#4",
            "ticks": 92640,
            "time": 120.625,
            "velocity": 0.05511811023622047
          },
          {
            "duration": 0.125,
            "durationTicks": 96,
            "midi": 58,
            "name": "A#3",
            "ticks": 92736,
            "time": 120.75,
            "velocity": 0.047244094488188976
          },
          {
            "duration": 0.125,
            "durationTicks": 96,
            "midi": 66,
            "name": "F#4",
            "ticks": 92736,
            "time": 120.75,
            "velocity": 0.047244094488188976
          },
          {
            "duration": 0.125,
            "durationTicks": 96,
            "midi": 61,
            "name": "C#4",
            "ticks": 92736,
            "time": 120.75,
            "velocity": 0.047244094488188976
          },
          {
            "duration": 0.125,
            "durationTicks": 96,
            "midi": 66,
            "name": "F#4",
            "ticks": 92832,
            "time": 120.875,
            "velocity": 0.047244094488188976
          },
          {
            "duration": 0.125,
            "durationTicks": 96,
            "midi": 61,
            "name": "C#4",
            "ticks": 92832,
            "time": 120.875,
            "velocity": 0.047244094488188976
          },
          {
            "duration": 0.125,
            "durationTicks": 96,
            "midi": 58,
            "name": "A#3",
            "ticks": 92832,
            "time": 120.875,
            "velocity": 0.047244094488188976
          },
          {
            "duration": 0.125,
            "durationTicks": 96,
            "midi": 58,
            "name": "A#3",
            "ticks": 92928,
            "time": 121,
            "velocity": 0.047244094488188976
          },
          {
            "duration": 0.125,
            "durationTicks": 96,
            "midi": 61,
            "name": "C#4",
            "ticks": 92928,
            "time": 121,
            "velocity": 0.047244094488188976
          },
          {
            "duration": 0.125,
            "durationTicks": 96,
            "midi": 66,
            "name": "F#4",
            "ticks": 92928,
            "time": 121,
            "velocity": 0.047244094488188976
          },
          {
            "duration": 0.125,
            "durationTicks": 96,
            "midi": 58,
            "name": "A#3",
            "ticks": 93024,
            "time": 121.125,
            "velocity": 0.047244094488188976
          },
          {
            "duration": 0.125,
            "durationTicks": 96,
            "midi": 66,
            "name": "F#4",
            "ticks": 93024,
            "time": 121.125,
            "velocity": 0.047244094488188976
          },
          {
            "duration": 0.125,
            "durationTicks": 96,
            "midi": 61,
            "name": "C#4",
            "ticks": 93024,
            "time": 121.125,
            "velocity": 0.047244094488188976
          },
          {
            "duration": 0.125,
            "durationTicks": 96,
            "midi": 58,
            "name": "A#3",
            "ticks": 93120,
            "time": 121.25,
            "velocity": 0.03937007874015748
          },
          {
            "duration": 0.125,
            "durationTicks": 96,
            "midi": 66,
            "name": "F#4",
            "ticks": 93120,
            "time": 121.25,
            "velocity": 0.03937007874015748
          },
          {
            "duration": 0.125,
            "durationTicks": 96,
            "midi": 61,
            "name": "C#4",
            "ticks": 93120,
            "time": 121.25,
            "velocity": 0.03937007874015748
          },
          {
            "duration": 0.125,
            "durationTicks": 96,
            "midi": 61,
            "name": "C#4",
            "ticks": 93216,
            "time": 121.375,
            "velocity": 0.03937007874015748
          },
          {
            "duration": 0.125,
            "durationTicks": 96,
            "midi": 58,
            "name": "A#3",
            "ticks": 93216,
            "time": 121.375,
            "velocity": 0.03937007874015748
          },
          {
            "duration": 0.125,
            "durationTicks": 96,
            "midi": 66,
            "name": "F#4",
            "ticks": 93216,
            "time": 121.375,
            "velocity": 0.03937007874015748
          },
          {
            "duration": 0.125,
            "durationTicks": 96,
            "midi": 61,
            "name": "C#4",
            "ticks": 93312,
            "time": 121.5,
            "velocity": 0.031496062992125984
          },
          {
            "duration": 0.125,
            "durationTicks": 96,
            "midi": 58,
            "name": "A#3",
            "ticks": 93312,
            "time": 121.5,
            "velocity": 0.031496062992125984
          },
          {
            "duration": 0.125,
            "durationTicks": 96,
            "midi": 66,
            "name": "F#4",
            "ticks": 93312,
            "time": 121.5,
            "velocity": 0.031496062992125984
          },
          {
            "duration": 0.125,
            "durationTicks": 96,
            "midi": 61,
            "name": "C#4",
            "ticks": 93408,
            "time": 121.625,
            "velocity": 0.031496062992125984
          },
          {
            "duration": 0.125,
            "durationTicks": 96,
            "midi": 58,
            "name": "A#3",
            "ticks": 93408,
            "time": 121.625,
            "velocity": 0.031496062992125984
          },
          {
            "duration": 0.125,
            "durationTicks": 96,
            "midi": 66,
            "name": "F#4",
            "ticks": 93408,
            "time": 121.625,
            "velocity": 0.031496062992125984
          },
          {
            "duration": 0.125,
            "durationTicks": 96,
            "midi": 66,
            "name": "F#4",
            "ticks": 93504,
            "time": 121.75,
            "velocity": 0.031496062992125984
          },
          {
            "duration": 0.125,
            "durationTicks": 96,
            "midi": 61,
            "name": "C#4",
            "ticks": 93504,
            "time": 121.75,
            "velocity": 0.031496062992125984
          },
          {
            "duration": 0.125,
            "durationTicks": 96,
            "midi": 58,
            "name": "A#3",
            "ticks": 93504,
            "time": 121.75,
            "velocity": 0.031496062992125984
          },
          {
            "duration": 0.125,
            "durationTicks": 96,
            "midi": 61,
            "name": "C#4",
            "ticks": 93600,
            "time": 121.875,
            "velocity": 0.031496062992125984
          },
          {
            "duration": 0.125,
            "durationTicks": 96,
            "midi": 58,
            "name": "A#3",
            "ticks": 93600,
            "time": 121.875,
            "velocity": 0.031496062992125984
          },
          {
            "duration": 0.125,
            "durationTicks": 96,
            "midi": 66,
            "name": "F#4",
            "ticks": 93600,
            "time": 121.875,
            "velocity": 0.031496062992125984
          },
          {
            "duration": 0.125,
            "durationTicks": 96,
            "midi": 66,
            "name": "F#4",
            "ticks": 93696,
            "time": 122,
            "velocity": 0.023622047244094488
          },
          {
            "duration": 0.125,
            "durationTicks": 96,
            "midi": 61,
            "name": "C#4",
            "ticks": 93696,
            "time": 122,
            "velocity": 0.023622047244094488
          },
          {
            "duration": 0.125,
            "durationTicks": 96,
            "midi": 58,
            "name": "A#3",
            "ticks": 93696,
            "time": 122,
            "velocity": 0.023622047244094488
          },
          {
            "duration": 0.125,
            "durationTicks": 96,
            "midi": 58,
            "name": "A#3",
            "ticks": 93792,
            "time": 122.125,
            "velocity": 0.023622047244094488
          },
          {
            "duration": 0.125,
            "durationTicks": 96,
            "midi": 61,
            "name": "C#4",
            "ticks": 93792,
            "time": 122.125,
            "velocity": 0.023622047244094488
          },
          {
            "duration": 0.125,
            "durationTicks": 96,
            "midi": 66,
            "name": "F#4",
            "ticks": 93792,
            "time": 122.125,
            "velocity": 0.023622047244094488
          },
          {
            "duration": 0.125,
            "durationTicks": 96,
            "midi": 66,
            "name": "F#4",
            "ticks": 93888,
            "time": 122.25,
            "velocity": 0.023622047244094488
          },
          {
            "duration": 0.125,
            "durationTicks": 96,
            "midi": 58,
            "name": "A#3",
            "ticks": 93888,
            "time": 122.25,
            "velocity": 0.023622047244094488
          },
          {
            "duration": 0.125,
            "durationTicks": 96,
            "midi": 61,
            "name": "C#4",
            "ticks": 93888,
            "time": 122.25,
            "velocity": 0.023622047244094488
          },
          {
            "duration": 0.125,
            "durationTicks": 96,
            "midi": 58,
            "name": "A#3",
            "ticks": 93984,
            "time": 122.375,
            "velocity": 0.023622047244094488
          },
          {
            "duration": 0.125,
            "durationTicks": 96,
            "midi": 66,
            "name": "F#4",
            "ticks": 93984,
            "time": 122.375,
            "velocity": 0.023622047244094488
          },
          {
            "duration": 0.125,
            "durationTicks": 96,
            "midi": 61,
            "name": "C#4",
            "ticks": 93984,
            "time": 122.375,
            "velocity": 0.023622047244094488
          },
          {
            "duration": 0.125,
            "durationTicks": 96,
            "midi": 61,
            "name": "C#4",
            "ticks": 94080,
            "time": 122.5,
            "velocity": 0.015748031496062992
          },
          {
            "duration": 0.125,
            "durationTicks": 96,
            "midi": 66,
            "name": "F#4",
            "ticks": 94080,
            "time": 122.5,
            "velocity": 0.015748031496062992
          },
          {
            "duration": 0.125,
            "durationTicks": 96,
            "midi": 58,
            "name": "A#3",
            "ticks": 94080,
            "time": 122.5,
            "velocity": 0.015748031496062992
          },
          {
            "duration": 0.125,
            "durationTicks": 96,
            "midi": 58,
            "name": "A#3",
            "ticks": 94176,
            "time": 122.625,
            "velocity": 0.015748031496062992
          },
          {
            "duration": 0.125,
            "durationTicks": 96,
            "midi": 66,
            "name": "F#4",
            "ticks": 94176,
            "time": 122.625,
            "velocity": 0.015748031496062992
          },
          {
            "duration": 0.125,
            "durationTicks": 96,
            "midi": 61,
            "name": "C#4",
            "ticks": 94176,
            "time": 122.625,
            "velocity": 0.015748031496062992
          },
          {
            "duration": 0.125,
            "durationTicks": 96,
            "midi": 58,
            "name": "A#3",
            "ticks": 94272,
            "time": 122.75,
            "velocity": 0.015748031496062992
          },
          {
            "duration": 0.125,
            "durationTicks": 96,
            "midi": 66,
            "name": "F#4",
            "ticks": 94272,
            "time": 122.75,
            "velocity": 0.015748031496062992
          },
          {
            "duration": 0.125,
            "durationTicks": 96,
            "midi": 61,
            "name": "C#4",
            "ticks": 94272,
            "time": 122.75,
            "velocity": 0.015748031496062992
          },
          {
            "duration": 0.125,
            "durationTicks": 96,
            "midi": 61,
            "name": "C#4",
            "ticks": 94368,
            "time": 122.875,
            "velocity": 0.015748031496062992
          },
          {
            "duration": 0.125,
            "durationTicks": 96,
            "midi": 66,
            "name": "F#4",
            "ticks": 94368,
            "time": 122.875,
            "velocity": 0.015748031496062992
          },
          {
            "duration": 0.125,
            "durationTicks": 96,
            "midi": 58,
            "name": "A#3",
            "ticks": 94368,
            "time": 122.875,
            "velocity": 0.015748031496062992
          },
          {
            "duration": 0.125,
            "durationTicks": 96,
            "midi": 66,
            "name": "F#4",
            "ticks": 94464,
            "time": 123,
            "velocity": 0.007874015748031496
          },
          {
            "duration": 0.125,
            "durationTicks": 96,
            "midi": 58,
            "name": "A#3",
            "ticks": 94464,
            "time": 123,
            "velocity": 0.007874015748031496
          },
          {
            "duration": 0.125,
            "durationTicks": 96,
            "midi": 61,
            "name": "C#4",
            "ticks": 94464,
            "time": 123,
            "velocity": 0.007874015748031496
          },
          {
            "duration": 0.125,
            "durationTicks": 96,
            "midi": 58,
            "name": "A#3",
            "ticks": 94560,
            "time": 123.125,
            "velocity": 0.007874015748031496
          },
          {
            "duration": 0.125,
            "durationTicks": 96,
            "midi": 61,
            "name": "C#4",
            "ticks": 94560,
            "time": 123.125,
            "velocity": 0.007874015748031496
          },
          {
            "duration": 0.125,
            "durationTicks": 96,
            "midi": 66,
            "name": "F#4",
            "ticks": 94560,
            "time": 123.125,
            "velocity": 0.007874015748031496
          },
          {
            "duration": 0.125,
            "durationTicks": 96,
            "midi": 66,
            "name": "F#4",
            "ticks": 94656,
            "time": 123.25,
            "velocity": 0.007874015748031496
          },
          {
            "duration": 0.125,
            "durationTicks": 96,
            "midi": 61,
            "name": "C#4",
            "ticks": 94656,
            "time": 123.25,
            "velocity": 0.007874015748031496
          },
          {
            "duration": 0.125,
            "durationTicks": 96,
            "midi": 58,
            "name": "A#3",
            "ticks": 94656,
            "time": 123.25,
            "velocity": 0.007874015748031496
          },
          {
            "duration": 0.125,
            "durationTicks": 96,
            "midi": 58,
            "name": "A#3",
            "ticks": 94752,
            "time": 123.375,
            "velocity": 0.007874015748031496
          },
          {
            "duration": 0.125,
            "durationTicks": 96,
            "midi": 66,
            "name": "F#4",
            "ticks": 94752,
            "time": 123.375,
            "velocity": 0.007874015748031496
          },
          {
            "duration": 0.125,
            "durationTicks": 96,
            "midi": 61,
            "name": "C#4",
            "ticks": 94752,
            "time": 123.375,
            "velocity": 0.007874015748031496
          },
          {
            "duration": 0,
            "durationTicks": 0,
            "midi": 51,
            "name": "D#3",
            "ticks": 96960,
            "time": 126.25,
            "velocity": 0.007874015748031496
          },
          {
            "duration": 0,
            "durationTicks": 0,
            "midi": 56,
            "name": "G#3",
            "ticks": 96960,
            "time": 126.25,
            "velocity": 0.007874015748031496
          },
          {
            "duration": 0,
            "durationTicks": 0,
            "midi": 54,
            "name": "F#3",
            "ticks": 96960,
            "time": 126.25,
            "velocity": 0.007874015748031496
          },
          {
            "duration": 0,
            "durationTicks": 0,
            "midi": 51,
            "name": "D#3",
            "ticks": 97056,
            "time": 126.375,
            "velocity": 0.007874015748031496
          },
          {
            "duration": 0,
            "durationTicks": 0,
            "midi": 56,
            "name": "G#3",
            "ticks": 97056,
            "time": 126.375,
            "velocity": 0.007874015748031496
          },
          {
            "duration": 0,
            "durationTicks": 0,
            "midi": 54,
            "name": "F#3",
            "ticks": 97056,
            "time": 126.375,
            "velocity": 0.007874015748031496
          },
          {
            "duration": 0,
            "durationTicks": 0,
            "midi": 56,
            "name": "G#3",
            "ticks": 97152,
            "time": 126.5,
            "velocity": 0.015748031496062992
          },
          {
            "duration": 0,
            "durationTicks": 0,
            "midi": 54,
            "name": "F#3",
            "ticks": 97152,
            "time": 126.5,
            "velocity": 0.015748031496062992
          },
          {
            "duration": 0,
            "durationTicks": 0,
            "midi": 51,
            "name": "D#3",
            "ticks": 97152,
            "time": 126.5,
            "velocity": 0.015748031496062992
          },
          {
            "duration": 0,
            "durationTicks": 0,
            "midi": 56,
            "name": "G#3",
            "ticks": 97248,
            "time": 126.625,
            "velocity": 0.015748031496062992
          },
          {
            "duration": 0,
            "durationTicks": 0,
            "midi": 54,
            "name": "F#3",
            "ticks": 97248,
            "time": 126.625,
            "velocity": 0.015748031496062992
          },
          {
            "duration": 0,
            "durationTicks": 0,
            "midi": 51,
            "name": "D#3",
            "ticks": 97248,
            "time": 126.625,
            "velocity": 0.015748031496062992
          },
          {
            "duration": 0,
            "durationTicks": 0,
            "midi": 56,
            "name": "G#3",
            "ticks": 97344,
            "time": 126.75,
            "velocity": 0.015748031496062992
          },
          {
            "duration": 0,
            "durationTicks": 0,
            "midi": 51,
            "name": "D#3",
            "ticks": 97344,
            "time": 126.75,
            "velocity": 0.015748031496062992
          },
          {
            "duration": 0,
            "durationTicks": 0,
            "midi": 54,
            "name": "F#3",
            "ticks": 97344,
            "time": 126.75,
            "velocity": 0.015748031496062992
          },
          {
            "duration": 0,
            "durationTicks": 0,
            "midi": 54,
            "name": "F#3",
            "ticks": 97440,
            "time": 126.875,
            "velocity": 0.015748031496062992
          },
          {
            "duration": 0,
            "durationTicks": 0,
            "midi": 51,
            "name": "D#3",
            "ticks": 97440,
            "time": 126.875,
            "velocity": 0.015748031496062992
          },
          {
            "duration": 0,
            "durationTicks": 0,
            "midi": 56,
            "name": "G#3",
            "ticks": 97440,
            "time": 126.875,
            "velocity": 0.015748031496062992
          },
          {
            "duration": 0,
            "durationTicks": 0,
            "midi": 51,
            "name": "D#3",
            "ticks": 97536,
            "time": 127,
            "velocity": 0.023622047244094488
          },
          {
            "duration": 0,
            "durationTicks": 0,
            "midi": 54,
            "name": "F#3",
            "ticks": 97536,
            "time": 127,
            "velocity": 0.023622047244094488
          },
          {
            "duration": 0,
            "durationTicks": 0,
            "midi": 56,
            "name": "G#3",
            "ticks": 97536,
            "time": 127,
            "velocity": 0.023622047244094488
          },
          {
            "duration": 0,
            "durationTicks": 0,
            "midi": 56,
            "name": "G#3",
            "ticks": 97632,
            "time": 127.125,
            "velocity": 0.023622047244094488
          },
          {
            "duration": 0,
            "durationTicks": 0,
            "midi": 54,
            "name": "F#3",
            "ticks": 97632,
            "time": 127.125,
            "velocity": 0.023622047244094488
          },
          {
            "duration": 0,
            "durationTicks": 0,
            "midi": 51,
            "name": "D#3",
            "ticks": 97632,
            "time": 127.125,
            "velocity": 0.023622047244094488
          },
          {
            "duration": 0,
            "durationTicks": 0,
            "midi": 51,
            "name": "D#3",
            "ticks": 97728,
            "time": 127.25,
            "velocity": 0.023622047244094488
          },
          {
            "duration": 0,
            "durationTicks": 0,
            "midi": 56,
            "name": "G#3",
            "ticks": 97728,
            "time": 127.25,
            "velocity": 0.023622047244094488
          },
          {
            "duration": 0,
            "durationTicks": 0,
            "midi": 54,
            "name": "F#3",
            "ticks": 97728,
            "time": 127.25,
            "velocity": 0.023622047244094488
          },
          {
            "duration": 0,
            "durationTicks": 0,
            "midi": 51,
            "name": "D#3",
            "ticks": 97824,
            "time": 127.375,
            "velocity": 0.023622047244094488
          },
          {
            "duration": 0,
            "durationTicks": 0,
            "midi": 56,
            "name": "G#3",
            "ticks": 97824,
            "time": 127.375,
            "velocity": 0.023622047244094488
          },
          {
            "duration": 0,
            "durationTicks": 0,
            "midi": 54,
            "name": "F#3",
            "ticks": 97824,
            "time": 127.375,
            "velocity": 0.023622047244094488
          },
          {
            "duration": 0,
            "durationTicks": 0,
            "midi": 54,
            "name": "F#3",
            "ticks": 97920,
            "time": 127.5,
            "velocity": 0.031496062992125984
          },
          {
            "duration": 0,
            "durationTicks": 0,
            "midi": 51,
            "name": "D#3",
            "ticks": 97920,
            "time": 127.5,
            "velocity": 0.031496062992125984
          },
          {
            "duration": 0,
            "durationTicks": 0,
            "midi": 56,
            "name": "G#3",
            "ticks": 97920,
            "time": 127.5,
            "velocity": 0.031496062992125984
          },
          {
            "duration": 0,
            "durationTicks": 0,
            "midi": 54,
            "name": "F#3",
            "ticks": 98016,
            "time": 127.625,
            "velocity": 0.031496062992125984
          },
          {
            "duration": 0,
            "durationTicks": 0,
            "midi": 56,
            "name": "G#3",
            "ticks": 98016,
            "time": 127.625,
            "velocity": 0.031496062992125984
          },
          {
            "duration": 0,
            "durationTicks": 0,
            "midi": 51,
            "name": "D#3",
            "ticks": 98016,
            "time": 127.625,
            "velocity": 0.031496062992125984
          },
          {
            "duration": 0,
            "durationTicks": 0,
            "midi": 51,
            "name": "D#3",
            "ticks": 98112,
            "time": 127.75,
            "velocity": 0.031496062992125984
          },
          {
            "duration": 0,
            "durationTicks": 0,
            "midi": 56,
            "name": "G#3",
            "ticks": 98112,
            "time": 127.75,
            "velocity": 0.031496062992125984
          },
          {
            "duration": 0,
            "durationTicks": 0,
            "midi": 54,
            "name": "F#3",
            "ticks": 98112,
            "time": 127.75,
            "velocity": 0.031496062992125984
          },
          {
            "duration": 0,
            "durationTicks": 0,
            "midi": 54,
            "name": "F#3",
            "ticks": 98208,
            "time": 127.875,
            "velocity": 0.031496062992125984
          },
          {
            "duration": 0,
            "durationTicks": 0,
            "midi": 56,
            "name": "G#3",
            "ticks": 98208,
            "time": 127.875,
            "velocity": 0.031496062992125984
          },
          {
            "duration": 0,
            "durationTicks": 0,
            "midi": 51,
            "name": "D#3",
            "ticks": 98208,
            "time": 127.875,
            "velocity": 0.031496062992125984
          },
          {
            "duration": 0,
            "durationTicks": 0,
            "midi": 56,
            "name": "G#3",
            "ticks": 98304,
            "time": 128,
            "velocity": 0.03937007874015748
          },
          {
            "duration": 0.125,
            "durationTicks": 96,
            "midi": 61,
            "name": "C#4",
            "ticks": 98304,
            "time": 128,
            "velocity": 0.03937007874015748
          },
          {
            "duration": 0.125,
            "durationTicks": 96,
            "midi": 52,
            "name": "E3",
            "ticks": 98304,
            "time": 128,
            "velocity": 0.03937007874015748
          },
          {
            "duration": 0,
            "durationTicks": 0,
            "midi": 56,
            "name": "G#3",
            "ticks": 98400,
            "time": 128.125,
            "velocity": 0.03937007874015748
          },
          {
            "duration": 0.125,
            "durationTicks": 96,
            "midi": 52,
            "name": "E3",
            "ticks": 98400,
            "time": 128.125,
            "velocity": 0.03937007874015748
          },
          {
            "duration": 0.125,
            "durationTicks": 96,
            "midi": 61,
            "name": "C#4",
            "ticks": 98400,
            "time": 128.125,
            "velocity": 0.03937007874015748
          },
          {
            "duration": 0,
            "durationTicks": 0,
            "midi": 56,
            "name": "G#3",
            "ticks": 98496,
            "time": 128.25,
            "velocity": 0.031496062992125984
          },
          {
            "duration": 0.125,
            "durationTicks": 96,
            "midi": 61,
            "name": "C#4",
            "ticks": 98496,
            "time": 128.25,
            "velocity": 0.031496062992125984
          },
          {
            "duration": 0.125,
            "durationTicks": 96,
            "midi": 52,
            "name": "E3",
            "ticks": 98496,
            "time": 128.25,
            "velocity": 0.031496062992125984
          },
          {
            "duration": 0.125,
            "durationTicks": 96,
            "midi": 59,
            "name": "B3",
            "ticks": 98592,
            "time": 128.375,
            "velocity": 0.03937007874015748
          },
          {
            "duration": 0,
            "durationTicks": 0,
            "midi": 56,
            "name": "G#3",
            "ticks": 98592,
            "time": 128.375,
            "velocity": 0.03937007874015748
          },
          {
            "duration": 0.125,
            "durationTicks": 96,
            "midi": 52,
            "name": "E3",
            "ticks": 98592,
            "time": 128.375,
            "velocity": 0.03937007874015748
          },
          {
            "duration": 0,
            "durationTicks": 0,
            "midi": 56,
            "name": "G#3",
            "ticks": 98688,
            "time": 128.5,
            "velocity": 0.03937007874015748
          },
          {
            "duration": 0.125,
            "durationTicks": 96,
            "midi": 52,
            "name": "E3",
            "ticks": 98688,
            "time": 128.5,
            "velocity": 0.03937007874015748
          },
          {
            "duration": 0.125,
            "durationTicks": 96,
            "midi": 59,
            "name": "B3",
            "ticks": 98688,
            "time": 128.5,
            "velocity": 0.03937007874015748
          },
          {
            "duration": 0.125,
            "durationTicks": 96,
            "midi": 52,
            "name": "E3",
            "ticks": 98784,
            "time": 128.625,
            "velocity": 0.031496062992125984
          },
          {
            "duration": 0,
            "durationTicks": 0,
            "midi": 56,
            "name": "G#3",
            "ticks": 98784,
            "time": 128.625,
            "velocity": 0.031496062992125984
          },
          {
            "duration": 0.125,
            "durationTicks": 96,
            "midi": 59,
            "name": "B3",
            "ticks": 98784,
            "time": 128.625,
            "velocity": 0.031496062992125984
          },
          {
            "duration": 0.125,
            "durationTicks": 96,
            "midi": 52,
            "name": "E3",
            "ticks": 98880,
            "time": 128.75,
            "velocity": 0.031496062992125984
          },
          {
            "duration": 0.125,
            "durationTicks": 96,
            "midi": 59,
            "name": "B3",
            "ticks": 98880,
            "time": 128.75,
            "velocity": 0.031496062992125984
          },
          {
            "duration": 0,
            "durationTicks": 0,
            "midi": 56,
            "name": "G#3",
            "ticks": 98880,
            "time": 128.75,
            "velocity": 0.031496062992125984
          },
          {
            "duration": 0,
            "durationTicks": 0,
            "midi": 56,
            "name": "G#3",
            "ticks": 98976,
            "time": 128.875,
            "velocity": 0.031496062992125984
          },
          {
            "duration": 0.125,
            "durationTicks": 96,
            "midi": 52,
            "name": "E3",
            "ticks": 98976,
            "time": 128.875,
            "velocity": 0.031496062992125984
          },
          {
            "duration": 0.125,
            "durationTicks": 96,
            "midi": 59,
            "name": "B3",
            "ticks": 98976,
            "time": 128.875,
            "velocity": 0.031496062992125984
          },
          {
            "duration": 0.125,
            "durationTicks": 96,
            "midi": 52,
            "name": "E3",
            "ticks": 99072,
            "time": 129,
            "velocity": 0.031496062992125984
          },
          {
            "duration": 0.125,
            "durationTicks": 96,
            "midi": 59,
            "name": "B3",
            "ticks": 99072,
            "time": 129,
            "velocity": 0.031496062992125984
          },
          {
            "duration": 0,
            "durationTicks": 0,
            "midi": 56,
            "name": "G#3",
            "ticks": 99072,
            "time": 129,
            "velocity": 0.031496062992125984
          },
          {
            "duration": 0,
            "durationTicks": 0,
            "midi": 56,
            "name": "G#3",
            "ticks": 99168,
            "time": 129.125,
            "velocity": 0.023622047244094488
          },
          {
            "duration": 0.125,
            "durationTicks": 96,
            "midi": 52,
            "name": "E3",
            "ticks": 99168,
            "time": 129.125,
            "velocity": 0.023622047244094488
          },
          {
            "duration": 0.125,
            "durationTicks": 96,
            "midi": 59,
            "name": "B3",
            "ticks": 99168,
            "time": 129.125,
            "velocity": 0.023622047244094488
          },
          {
            "duration": 0,
            "durationTicks": 0,
            "midi": 56,
            "name": "G#3",
            "ticks": 99264,
            "time": 129.25,
            "velocity": 0.023622047244094488
          },
          {
            "duration": 0.125,
            "durationTicks": 96,
            "midi": 52,
            "name": "E3",
            "ticks": 99264,
            "time": 129.25,
            "velocity": 0.023622047244094488
          },
          {
            "duration": 0.125,
            "durationTicks": 96,
            "midi": 59,
            "name": "B3",
            "ticks": 99264,
            "time": 129.25,
            "velocity": 0.023622047244094488
          },
          {
            "duration": 0,
            "durationTicks": 0,
            "midi": 56,
            "name": "G#3",
            "ticks": 99360,
            "time": 129.375,
            "velocity": 0.023622047244094488
          },
          {
            "duration": 0.125,
            "durationTicks": 96,
            "midi": 59,
            "name": "B3",
            "ticks": 99360,
            "time": 129.375,
            "velocity": 0.023622047244094488
          },
          {
            "duration": 0.125,
            "durationTicks": 96,
            "midi": 52,
            "name": "E3",
            "ticks": 99360,
            "time": 129.375,
            "velocity": 0.023622047244094488
          },
          {
            "duration": 0,
            "durationTicks": 0,
            "midi": 56,
            "name": "G#3",
            "ticks": 99456,
            "time": 129.5,
            "velocity": 0.023622047244094488
          },
          {
            "duration": 0.125,
            "durationTicks": 96,
            "midi": 59,
            "name": "B3",
            "ticks": 99456,
            "time": 129.5,
            "velocity": 0.023622047244094488
          },
          {
            "duration": 0.125,
            "durationTicks": 96,
            "midi": 52,
            "name": "E3",
            "ticks": 99456,
            "time": 129.5,
            "velocity": 0.023622047244094488
          },
          {
            "duration": 0.125,
            "durationTicks": 96,
            "midi": 59,
            "name": "B3",
            "ticks": 99552,
            "time": 129.625,
            "velocity": 0.015748031496062992
          },
          {
            "duration": 0,
            "durationTicks": 0,
            "midi": 56,
            "name": "G#3",
            "ticks": 99552,
            "time": 129.625,
            "velocity": 0.015748031496062992
          },
          {
            "duration": 0.125,
            "durationTicks": 96,
            "midi": 52,
            "name": "E3",
            "ticks": 99552,
            "time": 129.625,
            "velocity": 0.015748031496062992
          },
          {
            "duration": 0.125,
            "durationTicks": 96,
            "midi": 52,
            "name": "E3",
            "ticks": 99648,
            "time": 129.75,
            "velocity": 0.015748031496062992
          },
          {
            "duration": 0.125,
            "durationTicks": 96,
            "midi": 59,
            "name": "B3",
            "ticks": 99648,
            "time": 129.75,
            "velocity": 0.015748031496062992
          },
          {
            "duration": 0,
            "durationTicks": 0,
            "midi": 56,
            "name": "G#3",
            "ticks": 99648,
            "time": 129.75,
            "velocity": 0.015748031496062992
          },
          {
            "duration": 0,
            "durationTicks": 0,
            "midi": 56,
            "name": "G#3",
            "ticks": 99744,
            "time": 129.875,
            "velocity": 0.015748031496062992
          },
          {
            "duration": 0.125,
            "durationTicks": 96,
            "midi": 52,
            "name": "E3",
            "ticks": 99744,
            "time": 129.875,
            "velocity": 0.015748031496062992
          },
          {
            "duration": 0.125,
            "durationTicks": 96,
            "midi": 59,
            "name": "B3",
            "ticks": 99744,
            "time": 129.875,
            "velocity": 0.015748031496062992
          },
          {
            "duration": 0.125,
            "durationTicks": 96,
            "midi": 52,
            "name": "E3",
            "ticks": 99840,
            "time": 130,
            "velocity": 0.03937007874015748
          },
          {
            "duration": 0.125,
            "durationTicks": 96,
            "midi": 59,
            "name": "B3",
            "ticks": 99840,
            "time": 130,
            "velocity": 0.03937007874015748
          },
          {
            "duration": 0,
            "durationTicks": 0,
            "midi": 56,
            "name": "G#3",
            "ticks": 99840,
            "time": 130,
            "velocity": 0.03937007874015748
          },
          {
            "duration": 0.125,
            "durationTicks": 96,
            "midi": 59,
            "name": "B3",
            "ticks": 99936,
            "time": 130.125,
            "velocity": 0.03937007874015748
          },
          {
            "duration": 0,
            "durationTicks": 0,
            "midi": 56,
            "name": "G#3",
            "ticks": 99936,
            "time": 130.125,
            "velocity": 0.03937007874015748
          },
          {
            "duration": 0.125,
            "durationTicks": 96,
            "midi": 52,
            "name": "E3",
            "ticks": 99936,
            "time": 130.125,
            "velocity": 0.03937007874015748
          },
          {
            "duration": 0.125,
            "durationTicks": 96,
            "midi": 59,
            "name": "B3",
            "ticks": 100032,
            "time": 130.25,
            "velocity": 0.031496062992125984
          },
          {
            "duration": 0.125,
            "durationTicks": 96,
            "midi": 52,
            "name": "E3",
            "ticks": 100032,
            "time": 130.25,
            "velocity": 0.031496062992125984
          },
          {
            "duration": 0,
            "durationTicks": 0,
            "midi": 56,
            "name": "G#3",
            "ticks": 100032,
            "time": 130.25,
            "velocity": 0.031496062992125984
          },
          {
            "duration": 0.125,
            "durationTicks": 96,
            "midi": 59,
            "name": "B3",
            "ticks": 100128,
            "time": 130.375,
            "velocity": 0.031496062992125984
          },
          {
            "duration": 0,
            "durationTicks": 0,
            "midi": 56,
            "name": "G#3",
            "ticks": 100128,
            "time": 130.375,
            "velocity": 0.031496062992125984
          },
          {
            "duration": 0.125,
            "durationTicks": 96,
            "midi": 52,
            "name": "E3",
            "ticks": 100128,
            "time": 130.375,
            "velocity": 0.031496062992125984
          },
          {
            "duration": 0.125,
            "durationTicks": 96,
            "midi": 49,
            "name": "C#3",
            "ticks": 100224,
            "time": 130.5,
            "velocity": 0.03937007874015748
          },
          {
            "duration": 0.125,
            "durationTicks": 96,
            "midi": 54,
            "name": "F#3",
            "ticks": 100224,
            "time": 130.5,
            "velocity": 0.03937007874015748
          },
          {
            "duration": 0.125,
            "durationTicks": 96,
            "midi": 58,
            "name": "A#3",
            "ticks": 100224,
            "time": 130.5,
            "velocity": 0.03937007874015748
          },
          {
            "duration": 0.125,
            "durationTicks": 96,
            "midi": 58,
            "name": "A#3",
            "ticks": 100320,
            "time": 130.625,
            "velocity": 0.03937007874015748
          },
          {
            "duration": 0.125,
            "durationTicks": 96,
            "midi": 54,
            "name": "F#3",
            "ticks": 100320,
            "time": 130.625,
            "velocity": 0.03937007874015748
          },
          {
            "duration": 0.125,
            "durationTicks": 96,
            "midi": 49,
            "name": "C#3",
            "ticks": 100320,
            "time": 130.625,
            "velocity": 0.03937007874015748
          },
          {
            "duration": 0.125,
            "durationTicks": 96,
            "midi": 58,
            "name": "A#3",
            "ticks": 100416,
            "time": 130.75,
            "velocity": 0.031496062992125984
          },
          {
            "duration": 0.125,
            "durationTicks": 96,
            "midi": 54,
            "name": "F#3",
            "ticks": 100416,
            "time": 130.75,
            "velocity": 0.031496062992125984
          },
          {
            "duration": 0.125,
            "durationTicks": 96,
            "midi": 49,
            "name": "C#3",
            "ticks": 100416,
            "time": 130.75,
            "velocity": 0.031496062992125984
          },
          {
            "duration": 0.125,
            "durationTicks": 96,
            "midi": 58,
            "name": "A#3",
            "ticks": 100512,
            "time": 130.875,
            "velocity": 0.031496062992125984
          },
          {
            "duration": 0.125,
            "durationTicks": 96,
            "midi": 54,
            "name": "F#3",
            "ticks": 100512,
            "time": 130.875,
            "velocity": 0.031496062992125984
          },
          {
            "duration": 0.125,
            "durationTicks": 96,
            "midi": 49,
            "name": "C#3",
            "ticks": 100512,
            "time": 130.875,
            "velocity": 0.031496062992125984
          },
          {
            "duration": 0.125,
            "durationTicks": 96,
            "midi": 52,
            "name": "E3",
            "ticks": 100608,
            "time": 131,
            "velocity": 0.03937007874015748
          },
          {
            "duration": 0.125,
            "durationTicks": 96,
            "midi": 56,
            "name": "G#3",
            "ticks": 100608,
            "time": 131,
            "velocity": 0.03937007874015748
          },
          {
            "duration": 0.125,
            "durationTicks": 96,
            "midi": 49,
            "name": "C#3",
            "ticks": 100608,
            "time": 131,
            "velocity": 0.03937007874015748
          },
          {
            "duration": 0.125,
            "durationTicks": 96,
            "midi": 49,
            "name": "C#3",
            "ticks": 100704,
            "time": 131.125,
            "velocity": 0.03937007874015748
          },
          {
            "duration": 0.125,
            "durationTicks": 96,
            "midi": 52,
            "name": "E3",
            "ticks": 100704,
            "time": 131.125,
            "velocity": 0.03937007874015748
          },
          {
            "duration": 0.125,
            "durationTicks": 96,
            "midi": 56,
            "name": "G#3",
            "ticks": 100704,
            "time": 131.125,
            "velocity": 0.03937007874015748
          },
          {
            "duration": 0.125,
            "durationTicks": 96,
            "midi": 56,
            "name": "G#3",
            "ticks": 100800,
            "time": 131.25,
            "velocity": 0.031496062992125984
          },
          {
            "duration": 0.125,
            "durationTicks": 96,
            "midi": 49,
            "name": "C#3",
            "ticks": 100800,
            "time": 131.25,
            "velocity": 0.031496062992125984
          },
          {
            "duration": 0.125,
            "durationTicks": 96,
            "midi": 52,
            "name": "E3",
            "ticks": 100800,
            "time": 131.25,
            "velocity": 0.031496062992125984
          },
          {
            "duration": 0.125,
            "durationTicks": 96,
            "midi": 56,
            "name": "G#3",
            "ticks": 100896,
            "time": 131.375,
            "velocity": 0.031496062992125984
          },
          {
            "duration": 0.125,
            "durationTicks": 96,
            "midi": 52,
            "name": "E3",
            "ticks": 100896,
            "time": 131.375,
            "velocity": 0.031496062992125984
          },
          {
            "duration": 0.125,
            "durationTicks": 96,
            "midi": 49,
            "name": "C#3",
            "ticks": 100896,
            "time": 131.375,
            "velocity": 0.031496062992125984
          },
          {
            "duration": 0.125,
            "durationTicks": 96,
            "midi": 52,
            "name": "E3",
            "ticks": 100992,
            "time": 131.5,
            "velocity": 0.031496062992125984
          },
          {
            "duration": 0.125,
            "durationTicks": 96,
            "midi": 49,
            "name": "C#3",
            "ticks": 100992,
            "time": 131.5,
            "velocity": 0.031496062992125984
          },
          {
            "duration": 0.125,
            "durationTicks": 96,
            "midi": 56,
            "name": "G#3",
            "ticks": 100992,
            "time": 131.5,
            "velocity": 0.031496062992125984
          },
          {
            "duration": 0.125,
            "durationTicks": 96,
            "midi": 52,
            "name": "E3",
            "ticks": 101088,
            "time": 131.625,
            "velocity": 0.031496062992125984
          },
          {
            "duration": 0.125,
            "durationTicks": 96,
            "midi": 56,
            "name": "G#3",
            "ticks": 101088,
            "time": 131.625,
            "velocity": 0.031496062992125984
          },
          {
            "duration": 0.125,
            "durationTicks": 96,
            "midi": 49,
            "name": "C#3",
            "ticks": 101088,
            "time": 131.625,
            "velocity": 0.031496062992125984
          },
          {
            "duration": 0.125,
            "durationTicks": 96,
            "midi": 49,
            "name": "C#3",
            "ticks": 101184,
            "time": 131.75,
            "velocity": 0.023622047244094488
          },
          {
            "duration": 0.125,
            "durationTicks": 96,
            "midi": 56,
            "name": "G#3",
            "ticks": 101184,
            "time": 131.75,
            "velocity": 0.023622047244094488
          },
          {
            "duration": 0.125,
            "durationTicks": 96,
            "midi": 52,
            "name": "E3",
            "ticks": 101184,
            "time": 131.75,
            "velocity": 0.023622047244094488
          },
          {
            "duration": 0.125,
            "durationTicks": 96,
            "midi": 52,
            "name": "E3",
            "ticks": 101280,
            "time": 131.875,
            "velocity": 0.023622047244094488
          },
          {
            "duration": 0.125,
            "durationTicks": 96,
            "midi": 56,
            "name": "G#3",
            "ticks": 101280,
            "time": 131.875,
            "velocity": 0.023622047244094488
          },
          {
            "duration": 0.125,
            "durationTicks": 96,
            "midi": 49,
            "name": "C#3",
            "ticks": 101280,
            "time": 131.875,
            "velocity": 0.023622047244094488
          },
          {
            "duration": 0.125,
            "durationTicks": 96,
            "midi": 54,
            "name": "F#3",
            "ticks": 101376,
            "time": 132,
            "velocity": 0.03937007874015748
          },
          {
            "duration": 0.125,
            "durationTicks": 96,
            "midi": 46,
            "name": "A#2",
            "ticks": 101376,
            "time": 132,
            "velocity": 0.03937007874015748
          },
          {
            "duration": 0.125,
            "durationTicks": 96,
            "midi": 49,
            "name": "C#3",
            "ticks": 101376,
            "time": 132,
            "velocity": 0.03937007874015748
          },
          {
            "duration": 0.125,
            "durationTicks": 96,
            "midi": 49,
            "name": "C#3",
            "ticks": 101472,
            "time": 132.125,
            "velocity": 0.03937007874015748
          },
          {
            "duration": 0.125,
            "durationTicks": 96,
            "midi": 54,
            "name": "F#3",
            "ticks": 101472,
            "time": 132.125,
            "velocity": 0.03937007874015748
          },
          {
            "duration": 0.125,
            "durationTicks": 96,
            "midi": 46,
            "name": "A#2",
            "ticks": 101472,
            "time": 132.125,
            "velocity": 0.03937007874015748
          },
          {
            "duration": 0.125,
            "durationTicks": 96,
            "midi": 46,
            "name": "A#2",
            "ticks": 101568,
            "time": 132.25,
            "velocity": 0.031496062992125984
          },
          {
            "duration": 0.125,
            "durationTicks": 96,
            "midi": 54,
            "name": "F#3",
            "ticks": 101568,
            "time": 132.25,
            "velocity": 0.031496062992125984
          },
          {
            "duration": 0.125,
            "durationTicks": 96,
            "midi": 49,
            "name": "C#3",
            "ticks": 101568,
            "time": 132.25,
            "velocity": 0.031496062992125984
          },
          {
            "duration": 0.125,
            "durationTicks": 96,
            "midi": 54,
            "name": "F#3",
            "ticks": 101664,
            "time": 132.375,
            "velocity": 0.031496062992125984
          },
          {
            "duration": 0.125,
            "durationTicks": 96,
            "midi": 49,
            "name": "C#3",
            "ticks": 101664,
            "time": 132.375,
            "velocity": 0.031496062992125984
          },
          {
            "duration": 0.125,
            "durationTicks": 96,
            "midi": 46,
            "name": "A#2",
            "ticks": 101664,
            "time": 132.375,
            "velocity": 0.031496062992125984
          },
          {
            "duration": 0.125,
            "durationTicks": 96,
            "midi": 54,
            "name": "F#3",
            "ticks": 101760,
            "time": 132.5,
            "velocity": 0.031496062992125984
          },
          {
            "duration": 0.125,
            "durationTicks": 96,
            "midi": 49,
            "name": "C#3",
            "ticks": 101760,
            "time": 132.5,
            "velocity": 0.031496062992125984
          },
          {
            "duration": 0.125,
            "durationTicks": 96,
            "midi": 46,
            "name": "A#2",
            "ticks": 101760,
            "time": 132.5,
            "velocity": 0.031496062992125984
          },
          {
            "duration": 0.125,
            "durationTicks": 96,
            "midi": 54,
            "name": "F#3",
            "ticks": 101856,
            "time": 132.625,
            "velocity": 0.031496062992125984
          },
          {
            "duration": 0.125,
            "durationTicks": 96,
            "midi": 49,
            "name": "C#3",
            "ticks": 101856,
            "time": 132.625,
            "velocity": 0.031496062992125984
          },
          {
            "duration": 0.125,
            "durationTicks": 96,
            "midi": 46,
            "name": "A#2",
            "ticks": 101856,
            "time": 132.625,
            "velocity": 0.031496062992125984
          },
          {
            "duration": 0.125,
            "durationTicks": 96,
            "midi": 54,
            "name": "F#3",
            "ticks": 101952,
            "time": 132.75,
            "velocity": 0.023622047244094488
          },
          {
            "duration": 0.125,
            "durationTicks": 96,
            "midi": 46,
            "name": "A#2",
            "ticks": 101952,
            "time": 132.75,
            "velocity": 0.023622047244094488
          },
          {
            "duration": 0.125,
            "durationTicks": 96,
            "midi": 49,
            "name": "C#3",
            "ticks": 101952,
            "time": 132.75,
            "velocity": 0.023622047244094488
          },
          {
            "duration": 0.125,
            "durationTicks": 96,
            "midi": 49,
            "name": "C#3",
            "ticks": 102048,
            "time": 132.875,
            "velocity": 0.023622047244094488
          },
          {
            "duration": 0.125,
            "durationTicks": 96,
            "midi": 46,
            "name": "A#2",
            "ticks": 102048,
            "time": 132.875,
            "velocity": 0.023622047244094488
          },
          {
            "duration": 0.125,
            "durationTicks": 96,
            "midi": 54,
            "name": "F#3",
            "ticks": 102048,
            "time": 132.875,
            "velocity": 0.023622047244094488
          },
          {
            "duration": 0.125,
            "durationTicks": 96,
            "midi": 46,
            "name": "A#2",
            "ticks": 102144,
            "time": 133,
            "velocity": 0.023622047244094488
          },
          {
            "duration": 0.125,
            "durationTicks": 96,
            "midi": 49,
            "name": "C#3",
            "ticks": 102144,
            "time": 133,
            "velocity": 0.023622047244094488
          },
          {
            "duration": 0.125,
            "durationTicks": 96,
            "midi": 54,
            "name": "F#3",
            "ticks": 102144,
            "time": 133,
            "velocity": 0.023622047244094488
          },
          {
            "duration": 0.125,
            "durationTicks": 96,
            "midi": 54,
            "name": "F#3",
            "ticks": 102240,
            "time": 133.125,
            "velocity": 0.023622047244094488
          },
          {
            "duration": 0.125,
            "durationTicks": 96,
            "midi": 49,
            "name": "C#3",
            "ticks": 102240,
            "time": 133.125,
            "velocity": 0.023622047244094488
          },
          {
            "duration": 0.125,
            "durationTicks": 96,
            "midi": 46,
            "name": "A#2",
            "ticks": 102240,
            "time": 133.125,
            "velocity": 0.023622047244094488
          },
          {
            "duration": 0.125,
            "durationTicks": 96,
            "midi": 49,
            "name": "C#3",
            "ticks": 102336,
            "time": 133.25,
            "velocity": 0.015748031496062992
          },
          {
            "duration": 0.125,
            "durationTicks": 96,
            "midi": 54,
            "name": "F#3",
            "ticks": 102336,
            "time": 133.25,
            "velocity": 0.015748031496062992
          },
          {
            "duration": 0.125,
            "durationTicks": 96,
            "midi": 46,
            "name": "A#2",
            "ticks": 102336,
            "time": 133.25,
            "velocity": 0.015748031496062992
          },
          {
            "duration": 0.125,
            "durationTicks": 96,
            "midi": 54,
            "name": "F#3",
            "ticks": 102432,
            "time": 133.375,
            "velocity": 0.015748031496062992
          },
          {
            "duration": 0.125,
            "durationTicks": 96,
            "midi": 49,
            "name": "C#3",
            "ticks": 102432,
            "time": 133.375,
            "velocity": 0.015748031496062992
          },
          {
            "duration": 0.125,
            "durationTicks": 96,
            "midi": 46,
            "name": "A#2",
            "ticks": 102432,
            "time": 133.375,
            "velocity": 0.015748031496062992
          },
          {
            "duration": 0.125,
            "durationTicks": 96,
            "midi": 49,
            "name": "C#3",
            "ticks": 102528,
            "time": 133.5,
            "velocity": 0.015748031496062992
          },
          {
            "duration": 0.125,
            "durationTicks": 96,
            "midi": 46,
            "name": "A#2",
            "ticks": 102528,
            "time": 133.5,
            "velocity": 0.015748031496062992
          },
          {
            "duration": 0.125,
            "durationTicks": 96,
            "midi": 54,
            "name": "F#3",
            "ticks": 102528,
            "time": 133.5,
            "velocity": 0.015748031496062992
          },
          {
            "duration": 0.125,
            "durationTicks": 96,
            "midi": 46,
            "name": "A#2",
            "ticks": 102624,
            "time": 133.625,
            "velocity": 0.015748031496062992
          },
          {
            "duration": 0.125,
            "durationTicks": 96,
            "midi": 49,
            "name": "C#3",
            "ticks": 102624,
            "time": 133.625,
            "velocity": 0.015748031496062992
          },
          {
            "duration": 0.125,
            "durationTicks": 96,
            "midi": 54,
            "name": "F#3",
            "ticks": 102624,
            "time": 133.625,
            "velocity": 0.015748031496062992
          },
          {
            "duration": 0.125,
            "durationTicks": 96,
            "midi": 54,
            "name": "F#3",
            "ticks": 102720,
            "time": 133.75,
            "velocity": 0.007874015748031496
          },
          {
            "duration": 0.125,
            "durationTicks": 96,
            "midi": 46,
            "name": "A#2",
            "ticks": 102720,
            "time": 133.75,
            "velocity": 0.007874015748031496
          },
          {
            "duration": 0.125,
            "durationTicks": 96,
            "midi": 49,
            "name": "C#3",
            "ticks": 102720,
            "time": 133.75,
            "velocity": 0.007874015748031496
          },
          {
            "duration": 0.125,
            "durationTicks": 96,
            "midi": 54,
            "name": "F#3",
            "ticks": 102816,
            "time": 133.875,
            "velocity": 0.007874015748031496
          },
          {
            "duration": 0.125,
            "durationTicks": 96,
            "midi": 49,
            "name": "C#3",
            "ticks": 102816,
            "time": 133.875,
            "velocity": 0.007874015748031496
          },
          {
            "duration": 0.125,
            "durationTicks": 96,
            "midi": 46,
            "name": "A#2",
            "ticks": 102816,
            "time": 133.875,
            "velocity": 0.007874015748031496
          },
          {
            "duration": 0.125,
            "durationTicks": 96,
            "midi": 44,
            "name": "G#2",
            "ticks": 102912,
            "time": 134,
            "velocity": 0.03937007874015748
          },
          {
            "duration": 0.125,
            "durationTicks": 96,
            "midi": 52,
            "name": "E3",
            "ticks": 102912,
            "time": 134,
            "velocity": 0.03937007874015748
          },
          {
            "duration": 0.125,
            "durationTicks": 96,
            "midi": 47,
            "name": "B2",
            "ticks": 102912,
            "time": 134,
            "velocity": 0.03937007874015748
          },
          {
            "duration": 0.125,
            "durationTicks": 96,
            "midi": 47,
            "name": "B2",
            "ticks": 103008,
            "time": 134.125,
            "velocity": 0.03937007874015748
          },
          {
            "duration": 0.125,
            "durationTicks": 96,
            "midi": 52,
            "name": "E3",
            "ticks": 103008,
            "time": 134.125,
            "velocity": 0.03937007874015748
          },
          {
            "duration": 0.125,
            "durationTicks": 96,
            "midi": 44,
            "name": "G#2",
            "ticks": 103008,
            "time": 134.125,
            "velocity": 0.03937007874015748
          },
          {
            "duration": 0.125,
            "durationTicks": 96,
            "midi": 47,
            "name": "B2",
            "ticks": 103104,
            "time": 134.25,
            "velocity": 0.031496062992125984
          },
          {
            "duration": 0.125,
            "durationTicks": 96,
            "midi": 52,
            "name": "E3",
            "ticks": 103104,
            "time": 134.25,
            "velocity": 0.031496062992125984
          },
          {
            "duration": 0.125,
            "durationTicks": 96,
            "midi": 44,
            "name": "G#2",
            "ticks": 103104,
            "time": 134.25,
            "velocity": 0.031496062992125984
          },
          {
            "duration": 0.125,
            "durationTicks": 96,
            "midi": 52,
            "name": "E3",
            "ticks": 103200,
            "time": 134.375,
            "velocity": 0.031496062992125984
          },
          {
            "duration": 0.125,
            "durationTicks": 96,
            "midi": 47,
            "name": "B2",
            "ticks": 103200,
            "time": 134.375,
            "velocity": 0.031496062992125984
          },
          {
            "duration": 0.125,
            "durationTicks": 96,
            "midi": 44,
            "name": "G#2",
            "ticks": 103200,
            "time": 134.375,
            "velocity": 0.031496062992125984
          },
          {
            "duration": 0.125,
            "durationTicks": 96,
            "midi": 52,
            "name": "E3",
            "ticks": 103296,
            "time": 134.5,
            "velocity": 0.031496062992125984
          },
          {
            "duration": 0.125,
            "durationTicks": 96,
            "midi": 47,
            "name": "B2",
            "ticks": 103296,
            "time": 134.5,
            "velocity": 0.031496062992125984
          },
          {
            "duration": 0.125,
            "durationTicks": 96,
            "midi": 44,
            "name": "G#2",
            "ticks": 103296,
            "time": 134.5,
            "velocity": 0.031496062992125984
          },
          {
            "duration": 0.125,
            "durationTicks": 96,
            "midi": 52,
            "name": "E3",
            "ticks": 103392,
            "time": 134.625,
            "velocity": 0.031496062992125984
          },
          {
            "duration": 0.125,
            "durationTicks": 96,
            "midi": 44,
            "name": "G#2",
            "ticks": 103392,
            "time": 134.625,
            "velocity": 0.031496062992125984
          },
          {
            "duration": 0.125,
            "durationTicks": 96,
            "midi": 47,
            "name": "B2",
            "ticks": 103392,
            "time": 134.625,
            "velocity": 0.031496062992125984
          },
          {
            "duration": 0.125,
            "durationTicks": 96,
            "midi": 47,
            "name": "B2",
            "ticks": 103488,
            "time": 134.75,
            "velocity": 0.023622047244094488
          },
          {
            "duration": 0.125,
            "durationTicks": 96,
            "midi": 52,
            "name": "E3",
            "ticks": 103488,
            "time": 134.75,
            "velocity": 0.023622047244094488
          },
          {
            "duration": 0.125,
            "durationTicks": 96,
            "midi": 44,
            "name": "G#2",
            "ticks": 103488,
            "time": 134.75,
            "velocity": 0.023622047244094488
          },
          {
            "duration": 0.125,
            "durationTicks": 96,
            "midi": 44,
            "name": "G#2",
            "ticks": 103584,
            "time": 134.875,
            "velocity": 0.023622047244094488
          },
          {
            "duration": 0.125,
            "durationTicks": 96,
            "midi": 47,
            "name": "B2",
            "ticks": 103584,
            "time": 134.875,
            "velocity": 0.023622047244094488
          },
          {
            "duration": 0.125,
            "durationTicks": 96,
            "midi": 52,
            "name": "E3",
            "ticks": 103584,
            "time": 134.875,
            "velocity": 0.023622047244094488
          },
          {
            "duration": 0.125,
            "durationTicks": 96,
            "midi": 47,
            "name": "B2",
            "ticks": 103680,
            "time": 135,
            "velocity": 0.023622047244094488
          },
          {
            "duration": 0.125,
            "durationTicks": 96,
            "midi": 44,
            "name": "G#2",
            "ticks": 103680,
            "time": 135,
            "velocity": 0.023622047244094488
          },
          {
            "duration": 0.125,
            "durationTicks": 96,
            "midi": 52,
            "name": "E3",
            "ticks": 103680,
            "time": 135,
            "velocity": 0.023622047244094488
          },
          {
            "duration": 0.125,
            "durationTicks": 96,
            "midi": 47,
            "name": "B2",
            "ticks": 103776,
            "time": 135.125,
            "velocity": 0.023622047244094488
          },
          {
            "duration": 0.125,
            "durationTicks": 96,
            "midi": 52,
            "name": "E3",
            "ticks": 103776,
            "time": 135.125,
            "velocity": 0.023622047244094488
          },
          {
            "duration": 0.125,
            "durationTicks": 96,
            "midi": 44,
            "name": "G#2",
            "ticks": 103776,
            "time": 135.125,
            "velocity": 0.023622047244094488
          },
          {
            "duration": 0.125,
            "durationTicks": 96,
            "midi": 52,
            "name": "E3",
            "ticks": 103872,
            "time": 135.25,
            "velocity": 0.015748031496062992
          },
          {
            "duration": 0.125,
            "durationTicks": 96,
            "midi": 47,
            "name": "B2",
            "ticks": 103872,
            "time": 135.25,
            "velocity": 0.015748031496062992
          },
          {
            "duration": 0.125,
            "durationTicks": 96,
            "midi": 44,
            "name": "G#2",
            "ticks": 103872,
            "time": 135.25,
            "velocity": 0.015748031496062992
          },
          {
            "duration": 0.125,
            "durationTicks": 96,
            "midi": 52,
            "name": "E3",
            "ticks": 103968,
            "time": 135.375,
            "velocity": 0.015748031496062992
          },
          {
            "duration": 0.125,
            "durationTicks": 96,
            "midi": 47,
            "name": "B2",
            "ticks": 103968,
            "time": 135.375,
            "velocity": 0.015748031496062992
          },
          {
            "duration": 0.125,
            "durationTicks": 96,
            "midi": 44,
            "name": "G#2",
            "ticks": 103968,
            "time": 135.375,
            "velocity": 0.015748031496062992
          },
          {
            "duration": 0.125,
            "durationTicks": 96,
            "midi": 52,
            "name": "E3",
            "ticks": 104064,
            "time": 135.5,
            "velocity": 0.015748031496062992
          },
          {
            "duration": 0.125,
            "durationTicks": 96,
            "midi": 44,
            "name": "G#2",
            "ticks": 104064,
            "time": 135.5,
            "velocity": 0.015748031496062992
          },
          {
            "duration": 0.125,
            "durationTicks": 96,
            "midi": 47,
            "name": "B2",
            "ticks": 104064,
            "time": 135.5,
            "velocity": 0.015748031496062992
          },
          {
            "duration": 0.125,
            "durationTicks": 96,
            "midi": 52,
            "name": "E3",
            "ticks": 104160,
            "time": 135.625,
            "velocity": 0.015748031496062992
          },
          {
            "duration": 0.125,
            "durationTicks": 96,
            "midi": 47,
            "name": "B2",
            "ticks": 104160,
            "time": 135.625,
            "velocity": 0.015748031496062992
          },
          {
            "duration": 0.125,
            "durationTicks": 96,
            "midi": 44,
            "name": "G#2",
            "ticks": 104160,
            "time": 135.625,
            "velocity": 0.015748031496062992
          },
          {
            "duration": 0.125,
            "durationTicks": 96,
            "midi": 44,
            "name": "G#2",
            "ticks": 104256,
            "time": 135.75,
            "velocity": 0.007874015748031496
          },
          {
            "duration": 0.125,
            "durationTicks": 96,
            "midi": 52,
            "name": "E3",
            "ticks": 104256,
            "time": 135.75,
            "velocity": 0.007874015748031496
          },
          {
            "duration": 0.125,
            "durationTicks": 96,
            "midi": 47,
            "name": "B2",
            "ticks": 104256,
            "time": 135.75,
            "velocity": 0.007874015748031496
          },
          {
            "duration": 0.125,
            "durationTicks": 96,
            "midi": 44,
            "name": "G#2",
            "ticks": 104352,
            "time": 135.875,
            "velocity": 0.007874015748031496
          },
          {
            "duration": 0.125,
            "durationTicks": 96,
            "midi": 52,
            "name": "E3",
            "ticks": 104352,
            "time": 135.875,
            "velocity": 0.007874015748031496
          },
          {
            "duration": 0.125,
            "durationTicks": 96,
            "midi": 47,
            "name": "B2",
            "ticks": 104352,
            "time": 135.875,
            "velocity": 0.007874015748031496
          },
          {
            "duration": 0.125,
            "durationTicks": 96,
            "midi": 61,
            "name": "C#4",
            "ticks": 104448,
            "time": 136,
            "velocity": 0.03937007874015748
          },
          {
            "duration": 0.125,
            "durationTicks": 96,
            "midi": 56,
            "name": "G#3",
            "ticks": 104448,
            "time": 136,
            "velocity": 0.03937007874015748
          },
          {
            "duration": 0.125,
            "durationTicks": 96,
            "midi": 52,
            "name": "E3",
            "ticks": 104448,
            "time": 136,
            "velocity": 0.03937007874015748
          },
          {
            "duration": 0.125,
            "durationTicks": 96,
            "midi": 61,
            "name": "C#4",
            "ticks": 104544,
            "time": 136.125,
            "velocity": 0.03937007874015748
          },
          {
            "duration": 0.125,
            "durationTicks": 96,
            "midi": 52,
            "name": "E3",
            "ticks": 104544,
            "time": 136.125,
            "velocity": 0.03937007874015748
          },
          {
            "duration": 0.125,
            "durationTicks": 96,
            "midi": 56,
            "name": "G#3",
            "ticks": 104544,
            "time": 136.125,
            "velocity": 0.03937007874015748
          },
          {
            "duration": 0.125,
            "durationTicks": 96,
            "midi": 56,
            "name": "G#3",
            "ticks": 104640,
            "time": 136.25,
            "velocity": 0.031496062992125984
          },
          {
            "duration": 0.125,
            "durationTicks": 96,
            "midi": 61,
            "name": "C#4",
            "ticks": 104640,
            "time": 136.25,
            "velocity": 0.031496062992125984
          },
          {
            "duration": 0.125,
            "durationTicks": 96,
            "midi": 52,
            "name": "E3",
            "ticks": 104640,
            "time": 136.25,
            "velocity": 0.031496062992125984
          },
          {
            "duration": 0.125,
            "durationTicks": 96,
            "midi": 59,
            "name": "B3",
            "ticks": 104736,
            "time": 136.375,
            "velocity": 0.03937007874015748
          },
          {
            "duration": 0.125,
            "durationTicks": 96,
            "midi": 56,
            "name": "G#3",
            "ticks": 104736,
            "time": 136.375,
            "velocity": 0.03937007874015748
          },
          {
            "duration": 0.125,
            "durationTicks": 96,
            "midi": 52,
            "name": "E3",
            "ticks": 104736,
            "time": 136.375,
            "velocity": 0.03937007874015748
          },
          {
            "duration": 0.125,
            "durationTicks": 96,
            "midi": 56,
            "name": "G#3",
            "ticks": 104832,
            "time": 136.5,
            "velocity": 0.03937007874015748
          },
          {
            "duration": 0.125,
            "durationTicks": 96,
            "midi": 52,
            "name": "E3",
            "ticks": 104832,
            "time": 136.5,
            "velocity": 0.03937007874015748
          },
          {
            "duration": 0.125,
            "durationTicks": 96,
            "midi": 59,
            "name": "B3",
            "ticks": 104832,
            "time": 136.5,
            "velocity": 0.03937007874015748
          },
          {
            "duration": 0.125,
            "durationTicks": 96,
            "midi": 56,
            "name": "G#3",
            "ticks": 104928,
            "time": 136.625,
            "velocity": 0.031496062992125984
          },
          {
            "duration": 0.125,
            "durationTicks": 96,
            "midi": 52,
            "name": "E3",
            "ticks": 104928,
            "time": 136.625,
            "velocity": 0.031496062992125984
          },
          {
            "duration": 0.125,
            "durationTicks": 96,
            "midi": 59,
            "name": "B3",
            "ticks": 104928,
            "time": 136.625,
            "velocity": 0.031496062992125984
          },
          {
            "duration": 0.125,
            "durationTicks": 96,
            "midi": 56,
            "name": "G#3",
            "ticks": 105024,
            "time": 136.75,
            "velocity": 0.031496062992125984
          },
          {
            "duration": 0.125,
            "durationTicks": 96,
            "midi": 59,
            "name": "B3",
            "ticks": 105024,
            "time": 136.75,
            "velocity": 0.031496062992125984
          },
          {
            "duration": 0.125,
            "durationTicks": 96,
            "midi": 52,
            "name": "E3",
            "ticks": 105024,
            "time": 136.75,
            "velocity": 0.031496062992125984
          },
          {
            "duration": 0.125,
            "durationTicks": 96,
            "midi": 52,
            "name": "E3",
            "ticks": 105120,
            "time": 136.875,
            "velocity": 0.031496062992125984
          },
          {
            "duration": 0.125,
            "durationTicks": 96,
            "midi": 56,
            "name": "G#3",
            "ticks": 105120,
            "time": 136.875,
            "velocity": 0.031496062992125984
          },
          {
            "duration": 0.125,
            "durationTicks": 96,
            "midi": 59,
            "name": "B3",
            "ticks": 105120,
            "time": 136.875,
            "velocity": 0.031496062992125984
          },
          {
            "duration": 0.125,
            "durationTicks": 96,
            "midi": 59,
            "name": "B3",
            "ticks": 105216,
            "time": 137,
            "velocity": 0.031496062992125984
          },
          {
            "duration": 0.125,
            "durationTicks": 96,
            "midi": 56,
            "name": "G#3",
            "ticks": 105216,
            "time": 137,
            "velocity": 0.031496062992125984
          },
          {
            "duration": 0.125,
            "durationTicks": 96,
            "midi": 52,
            "name": "E3",
            "ticks": 105216,
            "time": 137,
            "velocity": 0.031496062992125984
          },
          {
            "duration": 0.125,
            "durationTicks": 96,
            "midi": 59,
            "name": "B3",
            "ticks": 105312,
            "time": 137.125,
            "velocity": 0.023622047244094488
          },
          {
            "duration": 0.125,
            "durationTicks": 96,
            "midi": 52,
            "name": "E3",
            "ticks": 105312,
            "time": 137.125,
            "velocity": 0.023622047244094488
          },
          {
            "duration": 0.125,
            "durationTicks": 96,
            "midi": 56,
            "name": "G#3",
            "ticks": 105312,
            "time": 137.125,
            "velocity": 0.023622047244094488
          },
          {
            "duration": 0.125,
            "durationTicks": 96,
            "midi": 56,
            "name": "G#3",
            "ticks": 105408,
            "time": 137.25,
            "velocity": 0.023622047244094488
          },
          {
            "duration": 0.125,
            "durationTicks": 96,
            "midi": 59,
            "name": "B3",
            "ticks": 105408,
            "time": 137.25,
            "velocity": 0.023622047244094488
          },
          {
            "duration": 0.125,
            "durationTicks": 96,
            "midi": 52,
            "name": "E3",
            "ticks": 105408,
            "time": 137.25,
            "velocity": 0.023622047244094488
          },
          {
            "duration": 0.125,
            "durationTicks": 96,
            "midi": 56,
            "name": "G#3",
            "ticks": 105504,
            "time": 137.375,
            "velocity": 0.023622047244094488
          },
          {
            "duration": 0.125,
            "durationTicks": 96,
            "midi": 59,
            "name": "B3",
            "ticks": 105504,
            "time": 137.375,
            "velocity": 0.023622047244094488
          },
          {
            "duration": 0.125,
            "durationTicks": 96,
            "midi": 52,
            "name": "E3",
            "ticks": 105504,
            "time": 137.375,
            "velocity": 0.023622047244094488
          },
          {
            "duration": 0.125,
            "durationTicks": 96,
            "midi": 59,
            "name": "B3",
            "ticks": 105600,
            "time": 137.5,
            "velocity": 0.023622047244094488
          },
          {
            "duration": 0.125,
            "durationTicks": 96,
            "midi": 56,
            "name": "G#3",
            "ticks": 105600,
            "time": 137.5,
            "velocity": 0.023622047244094488
          },
          {
            "duration": 0.125,
            "durationTicks": 96,
            "midi": 52,
            "name": "E3",
            "ticks": 105600,
            "time": 137.5,
            "velocity": 0.023622047244094488
          },
          {
            "duration": 0.125,
            "durationTicks": 96,
            "midi": 52,
            "name": "E3",
            "ticks": 105696,
            "time": 137.625,
            "velocity": 0.015748031496062992
          },
          {
            "duration": 0.125,
            "durationTicks": 96,
            "midi": 56,
            "name": "G#3",
            "ticks": 105696,
            "time": 137.625,
            "velocity": 0.015748031496062992
          },
          {
            "duration": 0.125,
            "durationTicks": 96,
            "midi": 59,
            "name": "B3",
            "ticks": 105696,
            "time": 137.625,
            "velocity": 0.015748031496062992
          },
          {
            "duration": 0.125,
            "durationTicks": 96,
            "midi": 52,
            "name": "E3",
            "ticks": 105792,
            "time": 137.75,
            "velocity": 0.015748031496062992
          },
          {
            "duration": 0.125,
            "durationTicks": 96,
            "midi": 59,
            "name": "B3",
            "ticks": 105792,
            "time": 137.75,
            "velocity": 0.015748031496062992
          },
          {
            "duration": 0.125,
            "durationTicks": 96,
            "midi": 56,
            "name": "G#3",
            "ticks": 105792,
            "time": 137.75,
            "velocity": 0.015748031496062992
          },
          {
            "duration": 0.125,
            "durationTicks": 96,
            "midi": 56,
            "name": "G#3",
            "ticks": 105888,
            "time": 137.875,
            "velocity": 0.015748031496062992
          },
          {
            "duration": 0.125,
            "durationTicks": 96,
            "midi": 52,
            "name": "E3",
            "ticks": 105888,
            "time": 137.875,
            "velocity": 0.015748031496062992
          },
          {
            "duration": 0.125,
            "durationTicks": 96,
            "midi": 59,
            "name": "B3",
            "ticks": 105888,
            "time": 137.875,
            "velocity": 0.015748031496062992
          },
          {
            "duration": 0.125,
            "durationTicks": 96,
            "midi": 59,
            "name": "B3",
            "ticks": 105984,
            "time": 138,
            "velocity": 0.03937007874015748
          },
          {
            "duration": 0.125,
            "durationTicks": 96,
            "midi": 56,
            "name": "G#3",
            "ticks": 105984,
            "time": 138,
            "velocity": 0.03937007874015748
          },
          {
            "duration": 0.125,
            "durationTicks": 96,
            "midi": 52,
            "name": "E3",
            "ticks": 105984,
            "time": 138,
            "velocity": 0.03937007874015748
          },
          {
            "duration": 0.125,
            "durationTicks": 96,
            "midi": 56,
            "name": "G#3",
            "ticks": 106080,
            "time": 138.125,
            "velocity": 0.03937007874015748
          },
          {
            "duration": 0.125,
            "durationTicks": 96,
            "midi": 52,
            "name": "E3",
            "ticks": 106080,
            "time": 138.125,
            "velocity": 0.03937007874015748
          },
          {
            "duration": 0.125,
            "durationTicks": 96,
            "midi": 59,
            "name": "B3",
            "ticks": 106080,
            "time": 138.125,
            "velocity": 0.03937007874015748
          },
          {
            "duration": 0.125,
            "durationTicks": 96,
            "midi": 52,
            "name": "E3",
            "ticks": 106176,
            "time": 138.25,
            "velocity": 0.031496062992125984
          },
          {
            "duration": 0.125,
            "durationTicks": 96,
            "midi": 56,
            "name": "G#3",
            "ticks": 106176,
            "time": 138.25,
            "velocity": 0.031496062992125984
          },
          {
            "duration": 0.125,
            "durationTicks": 96,
            "midi": 59,
            "name": "B3",
            "ticks": 106176,
            "time": 138.25,
            "velocity": 0.031496062992125984
          },
          {
            "duration": 0.125,
            "durationTicks": 96,
            "midi": 56,
            "name": "G#3",
            "ticks": 106272,
            "time": 138.375,
            "velocity": 0.031496062992125984
          },
          {
            "duration": 0.125,
            "durationTicks": 96,
            "midi": 52,
            "name": "E3",
            "ticks": 106272,
            "time": 138.375,
            "velocity": 0.031496062992125984
          },
          {
            "duration": 0.125,
            "durationTicks": 96,
            "midi": 59,
            "name": "B3",
            "ticks": 106272,
            "time": 138.375,
            "velocity": 0.031496062992125984
          },
          {
            "duration": 0.125,
            "durationTicks": 96,
            "midi": 49,
            "name": "C#3",
            "ticks": 106368,
            "time": 138.5,
            "velocity": 0.03937007874015748
          },
          {
            "duration": 0.125,
            "durationTicks": 96,
            "midi": 54,
            "name": "F#3",
            "ticks": 106368,
            "time": 138.5,
            "velocity": 0.03937007874015748
          },
          {
            "duration": 0.125,
            "durationTicks": 96,
            "midi": 58,
            "name": "A#3",
            "ticks": 106368,
            "time": 138.5,
            "velocity": 0.03937007874015748
          },
          {
            "duration": 0.125,
            "durationTicks": 96,
            "midi": 54,
            "name": "F#3",
            "ticks": 106464,
            "time": 138.625,
            "velocity": 0.03937007874015748
          },
          {
            "duration": 0.125,
            "durationTicks": 96,
            "midi": 49,
            "name": "C#3",
            "ticks": 106464,
            "time": 138.625,
            "velocity": 0.03937007874015748
          },
          {
            "duration": 0.125,
            "durationTicks": 96,
            "midi": 58,
            "name": "A#3",
            "ticks": 106464,
            "time": 138.625,
            "velocity": 0.03937007874015748
          },
          {
            "duration": 0.125,
            "durationTicks": 96,
            "midi": 49,
            "name": "C#3",
            "ticks": 106560,
            "time": 138.75,
            "velocity": 0.031496062992125984
          },
          {
            "duration": 0.125,
            "durationTicks": 96,
            "midi": 58,
            "name": "A#3",
            "ticks": 106560,
            "time": 138.75,
            "velocity": 0.031496062992125984
          },
          {
            "duration": 0.125,
            "durationTicks": 96,
            "midi": 54,
            "name": "F#3",
            "ticks": 106560,
            "time": 138.75,
            "velocity": 0.031496062992125984
          },
          {
            "duration": 0.125,
            "durationTicks": 96,
            "midi": 54,
            "name": "F#3",
            "ticks": 106656,
            "time": 138.875,
            "velocity": 0.031496062992125984
          },
          {
            "duration": 0.125,
            "durationTicks": 96,
            "midi": 49,
            "name": "C#3",
            "ticks": 106656,
            "time": 138.875,
            "velocity": 0.031496062992125984
          },
          {
            "duration": 0.125,
            "durationTicks": 96,
            "midi": 58,
            "name": "A#3",
            "ticks": 106656,
            "time": 138.875,
            "velocity": 0.031496062992125984
          },
          {
            "duration": 0.125,
            "durationTicks": 96,
            "midi": 52,
            "name": "E3",
            "ticks": 106752,
            "time": 139,
            "velocity": 0.03937007874015748
          },
          {
            "duration": 0.125,
            "durationTicks": 96,
            "midi": 56,
            "name": "G#3",
            "ticks": 106752,
            "time": 139,
            "velocity": 0.03937007874015748
          },
          {
            "duration": 0.125,
            "durationTicks": 96,
            "midi": 49,
            "name": "C#3",
            "ticks": 106752,
            "time": 139,
            "velocity": 0.03937007874015748
          },
          {
            "duration": 0.125,
            "durationTicks": 96,
            "midi": 56,
            "name": "G#3",
            "ticks": 106848,
            "time": 139.125,
            "velocity": 0.03937007874015748
          },
          {
            "duration": 0.125,
            "durationTicks": 96,
            "midi": 49,
            "name": "C#3",
            "ticks": 106848,
            "time": 139.125,
            "velocity": 0.03937007874015748
          },
          {
            "duration": 0.125,
            "durationTicks": 96,
            "midi": 52,
            "name": "E3",
            "ticks": 106848,
            "time": 139.125,
            "velocity": 0.03937007874015748
          },
          {
            "duration": 0.125,
            "durationTicks": 96,
            "midi": 49,
            "name": "C#3",
            "ticks": 106944,
            "time": 139.25,
            "velocity": 0.031496062992125984
          },
          {
            "duration": 0.125,
            "durationTicks": 96,
            "midi": 52,
            "name": "E3",
            "ticks": 106944,
            "time": 139.25,
            "velocity": 0.031496062992125984
          },
          {
            "duration": 0.125,
            "durationTicks": 96,
            "midi": 56,
            "name": "G#3",
            "ticks": 106944,
            "time": 139.25,
            "velocity": 0.031496062992125984
          },
          {
            "duration": 0.125,
            "durationTicks": 96,
            "midi": 52,
            "name": "E3",
            "ticks": 107040,
            "time": 139.375,
            "velocity": 0.031496062992125984
          },
          {
            "duration": 0.125,
            "durationTicks": 96,
            "midi": 56,
            "name": "G#3",
            "ticks": 107040,
            "time": 139.375,
            "velocity": 0.031496062992125984
          },
          {
            "duration": 0.125,
            "durationTicks": 96,
            "midi": 49,
            "name": "C#3",
            "ticks": 107040,
            "time": 139.375,
            "velocity": 0.031496062992125984
          },
          {
            "duration": 0.125,
            "durationTicks": 96,
            "midi": 56,
            "name": "G#3",
            "ticks": 107136,
            "time": 139.5,
            "velocity": 0.031496062992125984
          },
          {
            "duration": 0.125,
            "durationTicks": 96,
            "midi": 52,
            "name": "E3",
            "ticks": 107136,
            "time": 139.5,
            "velocity": 0.031496062992125984
          },
          {
            "duration": 0.125,
            "durationTicks": 96,
            "midi": 49,
            "name": "C#3",
            "ticks": 107136,
            "time": 139.5,
            "velocity": 0.031496062992125984
          },
          {
            "duration": 0.125,
            "durationTicks": 96,
            "midi": 49,
            "name": "C#3",
            "ticks": 107232,
            "time": 139.625,
            "velocity": 0.031496062992125984
          },
          {
            "duration": 0.125,
            "durationTicks": 96,
            "midi": 52,
            "name": "E3",
            "ticks": 107232,
            "time": 139.625,
            "velocity": 0.031496062992125984
          },
          {
            "duration": 0.125,
            "durationTicks": 96,
            "midi": 56,
            "name": "G#3",
            "ticks": 107232,
            "time": 139.625,
            "velocity": 0.031496062992125984
          },
          {
            "duration": 0.125,
            "durationTicks": 96,
            "midi": 56,
            "name": "G#3",
            "ticks": 107328,
            "time": 139.75,
            "velocity": 0.023622047244094488
          },
          {
            "duration": 0.125,
            "durationTicks": 96,
            "midi": 49,
            "name": "C#3",
            "ticks": 107328,
            "time": 139.75,
            "velocity": 0.023622047244094488
          },
          {
            "duration": 0.125,
            "durationTicks": 96,
            "midi": 52,
            "name": "E3",
            "ticks": 107328,
            "time": 139.75,
            "velocity": 0.023622047244094488
          },
          {
            "duration": 0.125,
            "durationTicks": 96,
            "midi": 52,
            "name": "E3",
            "ticks": 107424,
            "time": 139.875,
            "velocity": 0.023622047244094488
          },
          {
            "duration": 0.125,
            "durationTicks": 96,
            "midi": 49,
            "name": "C#3",
            "ticks": 107424,
            "time": 139.875,
            "velocity": 0.023622047244094488
          },
          {
            "duration": 0.125,
            "durationTicks": 96,
            "midi": 56,
            "name": "G#3",
            "ticks": 107424,
            "time": 139.875,
            "velocity": 0.023622047244094488
          },
          {
            "duration": 0.125,
            "durationTicks": 96,
            "midi": 49,
            "name": "C#3",
            "ticks": 107520,
            "time": 140,
            "velocity": 0.03937007874015748
          },
          {
            "duration": 0.125,
            "durationTicks": 96,
            "midi": 54,
            "name": "F#3",
            "ticks": 107520,
            "time": 140,
            "velocity": 0.03937007874015748
          },
          {
            "duration": 0.125,
            "durationTicks": 96,
            "midi": 46,
            "name": "A#2",
            "ticks": 107520,
            "time": 140,
            "velocity": 0.03937007874015748
          },
          {
            "duration": 0.125,
            "durationTicks": 96,
            "midi": 54,
            "name": "F#3",
            "ticks": 107616,
            "time": 140.125,
            "velocity": 0.03937007874015748
          },
          {
            "duration": 0.125,
            "durationTicks": 96,
            "midi": 49,
            "name": "C#3",
            "ticks": 107616,
            "time": 140.125,
            "velocity": 0.03937007874015748
          },
          {
            "duration": 0.125,
            "durationTicks": 96,
            "midi": 46,
            "name": "A#2",
            "ticks": 107616,
            "time": 140.125,
            "velocity": 0.03937007874015748
          },
          {
            "duration": 0.125,
            "durationTicks": 96,
            "midi": 49,
            "name": "C#3",
            "ticks": 107712,
            "time": 140.25,
            "velocity": 0.031496062992125984
          },
          {
            "duration": 0.125,
            "durationTicks": 96,
            "midi": 54,
            "name": "F#3",
            "ticks": 107712,
            "time": 140.25,
            "velocity": 0.031496062992125984
          },
          {
            "duration": 0.125,
            "durationTicks": 96,
            "midi": 46,
            "name": "A#2",
            "ticks": 107712,
            "time": 140.25,
            "velocity": 0.031496062992125984
          },
          {
            "duration": 0.125,
            "durationTicks": 96,
            "midi": 49,
            "name": "C#3",
            "ticks": 107808,
            "time": 140.375,
            "velocity": 0.031496062992125984
          },
          {
            "duration": 0.125,
            "durationTicks": 96,
            "midi": 54,
            "name": "F#3",
            "ticks": 107808,
            "time": 140.375,
            "velocity": 0.031496062992125984
          },
          {
            "duration": 0.125,
            "durationTicks": 96,
            "midi": 46,
            "name": "A#2",
            "ticks": 107808,
            "time": 140.375,
            "velocity": 0.031496062992125984
          },
          {
            "duration": 0.125,
            "durationTicks": 96,
            "midi": 46,
            "name": "A#2",
            "ticks": 107904,
            "time": 140.5,
            "velocity": 0.031496062992125984
          },
          {
            "duration": 0.125,
            "durationTicks": 96,
            "midi": 49,
            "name": "C#3",
            "ticks": 107904,
            "time": 140.5,
            "velocity": 0.031496062992125984
          },
          {
            "duration": 0.125,
            "durationTicks": 96,
            "midi": 54,
            "name": "F#3",
            "ticks": 107904,
            "time": 140.5,
            "velocity": 0.031496062992125984
          },
          {
            "duration": 0.125,
            "durationTicks": 96,
            "midi": 46,
            "name": "A#2",
            "ticks": 108000,
            "time": 140.625,
            "velocity": 0.031496062992125984
          },
          {
            "duration": 0.125,
            "durationTicks": 96,
            "midi": 54,
            "name": "F#3",
            "ticks": 108000,
            "time": 140.625,
            "velocity": 0.031496062992125984
          },
          {
            "duration": 0.125,
            "durationTicks": 96,
            "midi": 49,
            "name": "C#3",
            "ticks": 108000,
            "time": 140.625,
            "velocity": 0.031496062992125984
          },
          {
            "duration": 0.125,
            "durationTicks": 96,
            "midi": 54,
            "name": "F#3",
            "ticks": 108096,
            "time": 140.75,
            "velocity": 0.023622047244094488
          },
          {
            "duration": 0.125,
            "durationTicks": 96,
            "midi": 49,
            "name": "C#3",
            "ticks": 108096,
            "time": 140.75,
            "velocity": 0.023622047244094488
          },
          {
            "duration": 0.125,
            "durationTicks": 96,
            "midi": 46,
            "name": "A#2",
            "ticks": 108096,
            "time": 140.75,
            "velocity": 0.023622047244094488
          },
          {
            "duration": 0.125,
            "durationTicks": 96,
            "midi": 46,
            "name": "A#2",
            "ticks": 108192,
            "time": 140.875,
            "velocity": 0.023622047244094488
          },
          {
            "duration": 0.125,
            "durationTicks": 96,
            "midi": 49,
            "name": "C#3",
            "ticks": 108192,
            "time": 140.875,
            "velocity": 0.023622047244094488
          },
          {
            "duration": 0.125,
            "durationTicks": 96,
            "midi": 54,
            "name": "F#3",
            "ticks": 108192,
            "time": 140.875,
            "velocity": 0.023622047244094488
          },
          {
            "duration": 0.125,
            "durationTicks": 96,
            "midi": 54,
            "name": "F#3",
            "ticks": 108288,
            "time": 141,
            "velocity": 0.023622047244094488
          },
          {
            "duration": 0.125,
            "durationTicks": 96,
            "midi": 49,
            "name": "C#3",
            "ticks": 108288,
            "time": 141,
            "velocity": 0.023622047244094488
          },
          {
            "duration": 0.125,
            "durationTicks": 96,
            "midi": 46,
            "name": "A#2",
            "ticks": 108288,
            "time": 141,
            "velocity": 0.023622047244094488
          },
          {
            "duration": 0.125,
            "durationTicks": 96,
            "midi": 46,
            "name": "A#2",
            "ticks": 108384,
            "time": 141.125,
            "velocity": 0.023622047244094488
          },
          {
            "duration": 0.125,
            "durationTicks": 96,
            "midi": 49,
            "name": "C#3",
            "ticks": 108384,
            "time": 141.125,
            "velocity": 0.023622047244094488
          },
          {
            "duration": 0.125,
            "durationTicks": 96,
            "midi": 54,
            "name": "F#3",
            "ticks": 108384,
            "time": 141.125,
            "velocity": 0.023622047244094488
          },
          {
            "duration": 0.125,
            "durationTicks": 96,
            "midi": 54,
            "name": "F#3",
            "ticks": 108480,
            "time": 141.25,
            "velocity": 0.015748031496062992
          },
          {
            "duration": 0.125,
            "durationTicks": 96,
            "midi": 46,
            "name": "A#2",
            "ticks": 108480,
            "time": 141.25,
            "velocity": 0.015748031496062992
          },
          {
            "duration": 0.125,
            "durationTicks": 96,
            "midi": 49,
            "name": "C#3",
            "ticks": 108480,
            "time": 141.25,
            "velocity": 0.015748031496062992
          },
          {
            "duration": 0.125,
            "durationTicks": 96,
            "midi": 46,
            "name": "A#2",
            "ticks": 108576,
            "time": 141.375,
            "velocity": 0.015748031496062992
          },
          {
            "duration": 0.125,
            "durationTicks": 96,
            "midi": 54,
            "name": "F#3",
            "ticks": 108576,
            "time": 141.375,
            "velocity": 0.015748031496062992
          },
          {
            "duration": 0.125,
            "durationTicks": 96,
            "midi": 49,
            "name": "C#3",
            "ticks": 108576,
            "time": 141.375,
            "velocity": 0.015748031496062992
          },
          {
            "duration": 0.125,
            "durationTicks": 96,
            "midi": 49,
            "name": "C#3",
            "ticks": 108672,
            "time": 141.5,
            "velocity": 0.015748031496062992
          },
          {
            "duration": 0.125,
            "durationTicks": 96,
            "midi": 46,
            "name": "A#2",
            "ticks": 108672,
            "time": 141.5,
            "velocity": 0.015748031496062992
          },
          {
            "duration": 0.125,
            "durationTicks": 96,
            "midi": 54,
            "name": "F#3",
            "ticks": 108672,
            "time": 141.5,
            "velocity": 0.015748031496062992
          },
          {
            "duration": 0.125,
            "durationTicks": 96,
            "midi": 46,
            "name": "A#2",
            "ticks": 108768,
            "time": 141.625,
            "velocity": 0.015748031496062992
          },
          {
            "duration": 0.125,
            "durationTicks": 96,
            "midi": 49,
            "name": "C#3",
            "ticks": 108768,
            "time": 141.625,
            "velocity": 0.015748031496062992
          },
          {
            "duration": 0.125,
            "durationTicks": 96,
            "midi": 54,
            "name": "F#3",
            "ticks": 108768,
            "time": 141.625,
            "velocity": 0.015748031496062992
          },
          {
            "duration": 0.125,
            "durationTicks": 96,
            "midi": 49,
            "name": "C#3",
            "ticks": 108864,
            "time": 141.75,
            "velocity": 0.007874015748031496
          },
          {
            "duration": 0.125,
            "durationTicks": 96,
            "midi": 54,
            "name": "F#3",
            "ticks": 108864,
            "time": 141.75,
            "velocity": 0.007874015748031496
          },
          {
            "duration": 0.125,
            "durationTicks": 96,
            "midi": 46,
            "name": "A#2",
            "ticks": 108864,
            "time": 141.75,
            "velocity": 0.007874015748031496
          },
          {
            "duration": 0.125,
            "durationTicks": 96,
            "midi": 49,
            "name": "C#3",
            "ticks": 108960,
            "time": 141.875,
            "velocity": 0.007874015748031496
          },
          {
            "duration": 0.125,
            "durationTicks": 96,
            "midi": 46,
            "name": "A#2",
            "ticks": 108960,
            "time": 141.875,
            "velocity": 0.007874015748031496
          },
          {
            "duration": 0.125,
            "durationTicks": 96,
            "midi": 54,
            "name": "F#3",
            "ticks": 108960,
            "time": 141.875,
            "velocity": 0.007874015748031496
          },
          {
            "duration": 0.125,
            "durationTicks": 96,
            "midi": 45,
            "name": "A2",
            "ticks": 109248,
            "time": 142.25,
            "velocity": 0.03937007874015748
          },
          {
            "duration": 0.125,
            "durationTicks": 96,
            "midi": 52,
            "name": "E3",
            "ticks": 109248,
            "time": 142.25,
            "velocity": 0.03937007874015748
          },
          {
            "duration": 0.125,
            "durationTicks": 96,
            "midi": 49,
            "name": "C#3",
            "ticks": 109248,
            "time": 142.25,
            "velocity": 0.03937007874015748
          },
          {
            "duration": 0.125,
            "durationTicks": 96,
            "midi": 45,
            "name": "A2",
            "ticks": 109344,
            "time": 142.375,
            "velocity": 0.023622047244094488
          },
          {
            "duration": 0.125,
            "durationTicks": 96,
            "midi": 52,
            "name": "E3",
            "ticks": 109344,
            "time": 142.375,
            "velocity": 0.023622047244094488
          },
          {
            "duration": 0.125,
            "durationTicks": 96,
            "midi": 49,
            "name": "C#3",
            "ticks": 109344,
            "time": 142.375,
            "velocity": 0.023622047244094488
          },
          {
            "duration": 0.125,
            "durationTicks": 96,
            "midi": 42,
            "name": "F#2",
            "ticks": 109440,
            "time": 142.5,
            "velocity": 0.03937007874015748
          },
          {
            "duration": 0.125,
            "durationTicks": 96,
            "midi": 49,
            "name": "C#3",
            "ticks": 109440,
            "time": 142.5,
            "velocity": 0.03937007874015748
          },
          {
            "duration": 0.125,
            "durationTicks": 96,
            "midi": 45,
            "name": "A2",
            "ticks": 109440,
            "time": 142.5,
            "velocity": 0.03937007874015748
          },
          {
            "duration": 0.125,
            "durationTicks": 96,
            "midi": 42,
            "name": "F#2",
            "ticks": 109536,
            "time": 142.625,
            "velocity": 0.023622047244094488
          },
          {
            "duration": 0.125,
            "durationTicks": 96,
            "midi": 45,
            "name": "A2",
            "ticks": 109536,
            "time": 142.625,
            "velocity": 0.023622047244094488
          },
          {
            "duration": 0.125,
            "durationTicks": 96,
            "midi": 49,
            "name": "C#3",
            "ticks": 109536,
            "time": 142.625,
            "velocity": 0.023622047244094488
          },
          {
            "duration": 0.125,
            "durationTicks": 96,
            "midi": 49,
            "name": "C#3",
            "ticks": 109824,
            "time": 143,
            "velocity": 0.03937007874015748
          },
          {
            "duration": 0.125,
            "durationTicks": 96,
            "midi": 55,
            "name": "G3",
            "ticks": 109824,
            "time": 143,
            "velocity": 0.03937007874015748
          },
          {
            "duration": 0.125,
            "durationTicks": 96,
            "midi": 52,
            "name": "E3",
            "ticks": 109824,
            "time": 143,
            "velocity": 0.03937007874015748
          },
          {
            "duration": 0.125,
            "durationTicks": 96,
            "midi": 55,
            "name": "G3",
            "ticks": 109920,
            "time": 143.125,
            "velocity": 0.023622047244094488
          },
          {
            "duration": 0.125,
            "durationTicks": 96,
            "midi": 52,
            "name": "E3",
            "ticks": 109920,
            "time": 143.125,
            "velocity": 0.023622047244094488
          },
          {
            "duration": 0.125,
            "durationTicks": 96,
            "midi": 49,
            "name": "C#3",
            "ticks": 109920,
            "time": 143.125,
            "velocity": 0.023622047244094488
          },
          {
            "duration": 0.125,
            "durationTicks": 96,
            "midi": 52,
            "name": "E3",
            "ticks": 110016,
            "time": 143.25,
            "velocity": 0.03937007874015748
          },
          {
            "duration": 0.125,
            "durationTicks": 96,
            "midi": 46,
            "name": "A#2",
            "ticks": 110016,
            "time": 143.25,
            "velocity": 0.03937007874015748
          },
          {
            "duration": 0.125,
            "durationTicks": 96,
            "midi": 49,
            "name": "C#3",
            "ticks": 110016,
            "time": 143.25,
            "velocity": 0.03937007874015748
          },
          {
            "duration": 0.125,
            "durationTicks": 96,
            "midi": 46,
            "name": "A#2",
            "ticks": 110112,
            "time": 143.375,
            "velocity": 0.023622047244094488
          },
          {
            "duration": 0.125,
            "durationTicks": 96,
            "midi": 49,
            "name": "C#3",
            "ticks": 110112,
            "time": 143.375,
            "velocity": 0.023622047244094488
          },
          {
            "duration": 0.125,
            "durationTicks": 96,
            "midi": 52,
            "name": "E3",
            "ticks": 110112,
            "time": 143.375,
            "velocity": 0.023622047244094488
          },
          {
            "duration": 0.125,
            "durationTicks": 96,
            "midi": 59,
            "name": "B3",
            "ticks": 110400,
            "time": 143.75,
            "velocity": 0.03937007874015748
          },
          {
            "duration": 0.125,
            "durationTicks": 96,
            "midi": 54,
            "name": "F#3",
            "ticks": 110400,
            "time": 143.75,
            "velocity": 0.03937007874015748
          },
          {
            "duration": 0.125,
            "durationTicks": 96,
            "midi": 52,
            "name": "E3",
            "ticks": 110400,
            "time": 143.75,
            "velocity": 0.03937007874015748
          },
          {
            "duration": 0.125,
            "durationTicks": 96,
            "midi": 59,
            "name": "B3",
            "ticks": 110496,
            "time": 143.875,
            "velocity": 0.023622047244094488
          },
          {
            "duration": 0.125,
            "durationTicks": 96,
            "midi": 52,
            "name": "E3",
            "ticks": 110496,
            "time": 143.875,
            "velocity": 0.023622047244094488
          },
          {
            "duration": 0.125,
            "durationTicks": 96,
            "midi": 54,
            "name": "F#3",
            "ticks": 110496,
            "time": 143.875,
            "velocity": 0.023622047244094488
          },
          {
            "duration": 0.125,
            "durationTicks": 96,
            "midi": 61,
            "name": "C#4",
            "ticks": 110592,
            "time": 144,
            "velocity": 0.03937007874015748
          },
          {
            "duration": 0.125,
            "durationTicks": 96,
            "midi": 52,
            "name": "E3",
            "ticks": 110592,
            "time": 144,
            "velocity": 0.03937007874015748
          },
          {
            "duration": 0.125,
            "durationTicks": 96,
            "midi": 56,
            "name": "G#3",
            "ticks": 110592,
            "time": 144,
            "velocity": 0.03937007874015748
          },
          {
            "duration": 0.125,
            "durationTicks": 96,
            "midi": 52,
            "name": "E3",
            "ticks": 110688,
            "time": 144.125,
            "velocity": 0.03937007874015748
          },
          {
            "duration": 0.125,
            "durationTicks": 96,
            "midi": 61,
            "name": "C#4",
            "ticks": 110688,
            "time": 144.125,
            "velocity": 0.03937007874015748
          },
          {
            "duration": 0.125,
            "durationTicks": 96,
            "midi": 56,
            "name": "G#3",
            "ticks": 110688,
            "time": 144.125,
            "velocity": 0.03937007874015748
          },
          {
            "duration": 0.125,
            "durationTicks": 96,
            "midi": 56,
            "name": "G#3",
            "ticks": 110784,
            "time": 144.25,
            "velocity": 0.03937007874015748
          },
          {
            "duration": 0.125,
            "durationTicks": 96,
            "midi": 61,
            "name": "C#4",
            "ticks": 110784,
            "time": 144.25,
            "velocity": 0.03937007874015748
          },
          {
            "duration": 0.125,
            "durationTicks": 96,
            "midi": 52,
            "name": "E3",
            "ticks": 110784,
            "time": 144.25,
            "velocity": 0.03937007874015748
          },
          {
            "duration": 0.125,
            "durationTicks": 96,
            "midi": 52,
            "name": "E3",
            "ticks": 110880,
            "time": 144.375,
            "velocity": 0.03937007874015748
          },
          {
            "duration": 0.125,
            "durationTicks": 96,
            "midi": 56,
            "name": "G#3",
            "ticks": 110880,
            "time": 144.375,
            "velocity": 0.03937007874015748
          },
          {
            "duration": 0.125,
            "durationTicks": 96,
            "midi": 61,
            "name": "C#4",
            "ticks": 110880,
            "time": 144.375,
            "velocity": 0.03937007874015748
          },
          {
            "duration": 0.125,
            "durationTicks": 96,
            "midi": 52,
            "name": "E3",
            "ticks": 110976,
            "time": 144.5,
            "velocity": 0.03937007874015748
          },
          {
            "duration": 0.125,
            "durationTicks": 96,
            "midi": 56,
            "name": "G#3",
            "ticks": 110976,
            "time": 144.5,
            "velocity": 0.03937007874015748
          },
          {
            "duration": 0.125,
            "durationTicks": 96,
            "midi": 61,
            "name": "C#4",
            "ticks": 110976,
            "time": 144.5,
            "velocity": 0.03937007874015748
          },
          {
            "duration": 0.125,
            "durationTicks": 96,
            "midi": 52,
            "name": "E3",
            "ticks": 111072,
            "time": 144.625,
            "velocity": 0.03937007874015748
          },
          {
            "duration": 0.125,
            "durationTicks": 96,
            "midi": 61,
            "name": "C#4",
            "ticks": 111072,
            "time": 144.625,
            "velocity": 0.03937007874015748
          },
          {
            "duration": 0.125,
            "durationTicks": 96,
            "midi": 56,
            "name": "G#3",
            "ticks": 111072,
            "time": 144.625,
            "velocity": 0.03937007874015748
          },
          {
            "duration": 0.125,
            "durationTicks": 96,
            "midi": 61,
            "name": "C#4",
            "ticks": 111168,
            "time": 144.75,
            "velocity": 0.03937007874015748
          },
          {
            "duration": 0.125,
            "durationTicks": 96,
            "midi": 56,
            "name": "G#3",
            "ticks": 111168,
            "time": 144.75,
            "velocity": 0.03937007874015748
          },
          {
            "duration": 0.125,
            "durationTicks": 96,
            "midi": 52,
            "name": "E3",
            "ticks": 111168,
            "time": 144.75,
            "velocity": 0.03937007874015748
          },
          {
            "duration": 0.125,
            "durationTicks": 96,
            "midi": 52,
            "name": "E3",
            "ticks": 111264,
            "time": 144.875,
            "velocity": 0.03937007874015748
          },
          {
            "duration": 0.125,
            "durationTicks": 96,
            "midi": 56,
            "name": "G#3",
            "ticks": 111264,
            "time": 144.875,
            "velocity": 0.03937007874015748
          },
          {
            "duration": 0.125,
            "durationTicks": 96,
            "midi": 61,
            "name": "C#4",
            "ticks": 111264,
            "time": 144.875,
            "velocity": 0.03937007874015748
          },
          {
            "duration": 0.125,
            "durationTicks": 96,
            "midi": 61,
            "name": "C#4",
            "ticks": 111360,
            "time": 145,
            "velocity": 0.03937007874015748
          },
          {
            "duration": 0.125,
            "durationTicks": 96,
            "midi": 56,
            "name": "G#3",
            "ticks": 111360,
            "time": 145,
            "velocity": 0.03937007874015748
          },
          {
            "duration": 0.125,
            "durationTicks": 96,
            "midi": 52,
            "name": "E3",
            "ticks": 111360,
            "time": 145,
            "velocity": 0.03937007874015748
          },
          {
            "duration": 0.125,
            "durationTicks": 96,
            "midi": 52,
            "name": "E3",
            "ticks": 111456,
            "time": 145.125,
            "velocity": 0.03937007874015748
          },
          {
            "duration": 0.125,
            "durationTicks": 96,
            "midi": 56,
            "name": "G#3",
            "ticks": 111456,
            "time": 145.125,
            "velocity": 0.03937007874015748
          },
          {
            "duration": 0.125,
            "durationTicks": 96,
            "midi": 61,
            "name": "C#4",
            "ticks": 111456,
            "time": 145.125,
            "velocity": 0.03937007874015748
          },
          {
            "duration": 0.125,
            "durationTicks": 96,
            "midi": 52,
            "name": "E3",
            "ticks": 111552,
            "time": 145.25,
            "velocity": 0.03937007874015748
          },
          {
            "duration": 0.125,
            "durationTicks": 96,
            "midi": 61,
            "name": "C#4",
            "ticks": 111552,
            "time": 145.25,
            "velocity": 0.03937007874015748
          },
          {
            "duration": 0.125,
            "durationTicks": 96,
            "midi": 56,
            "name": "G#3",
            "ticks": 111552,
            "time": 145.25,
            "velocity": 0.03937007874015748
          },
          {
            "duration": 0.125,
            "durationTicks": 96,
            "midi": 56,
            "name": "G#3",
            "ticks": 111648,
            "time": 145.375,
            "velocity": 0.03937007874015748
          },
          {
            "duration": 0.125,
            "durationTicks": 96,
            "midi": 52,
            "name": "E3",
            "ticks": 111648,
            "time": 145.375,
            "velocity": 0.03937007874015748
          },
          {
            "duration": 0.125,
            "durationTicks": 96,
            "midi": 61,
            "name": "C#4",
            "ticks": 111648,
            "time": 145.375,
            "velocity": 0.03937007874015748
          },
          {
            "duration": 0.125,
            "durationTicks": 96,
            "midi": 52,
            "name": "E3",
            "ticks": 111744,
            "time": 145.5,
            "velocity": 0.03937007874015748
          },
          {
            "duration": 0.125,
            "durationTicks": 96,
            "midi": 56,
            "name": "G#3",
            "ticks": 111744,
            "time": 145.5,
            "velocity": 0.03937007874015748
          },
          {
            "duration": 0.125,
            "durationTicks": 96,
            "midi": 61,
            "name": "C#4",
            "ticks": 111744,
            "time": 145.5,
            "velocity": 0.03937007874015748
          },
          {
            "duration": 0.125,
            "durationTicks": 96,
            "midi": 56,
            "name": "G#3",
            "ticks": 111840,
            "time": 145.625,
            "velocity": 0.03937007874015748
          },
          {
            "duration": 0.125,
            "durationTicks": 96,
            "midi": 61,
            "name": "C#4",
            "ticks": 111840,
            "time": 145.625,
            "velocity": 0.03937007874015748
          },
          {
            "duration": 0.125,
            "durationTicks": 96,
            "midi": 52,
            "name": "E3",
            "ticks": 111840,
            "time": 145.625,
            "velocity": 0.03937007874015748
          },
          {
            "duration": 0.125,
            "durationTicks": 96,
            "midi": 61,
            "name": "C#4",
            "ticks": 111936,
            "time": 145.75,
            "velocity": 0.03937007874015748
          },
          {
            "duration": 0.125,
            "durationTicks": 96,
            "midi": 56,
            "name": "G#3",
            "ticks": 111936,
            "time": 145.75,
            "velocity": 0.03937007874015748
          },
          {
            "duration": 0.125,
            "durationTicks": 96,
            "midi": 52,
            "name": "E3",
            "ticks": 111936,
            "time": 145.75,
            "velocity": 0.03937007874015748
          },
          {
            "duration": 0.125,
            "durationTicks": 96,
            "midi": 52,
            "name": "E3",
            "ticks": 112032,
            "time": 145.875,
            "velocity": 0.03937007874015748
          },
          {
            "duration": 0.125,
            "durationTicks": 96,
            "midi": 56,
            "name": "G#3",
            "ticks": 112032,
            "time": 145.875,
            "velocity": 0.03937007874015748
          },
          {
            "duration": 0.125,
            "durationTicks": 96,
            "midi": 61,
            "name": "C#4",
            "ticks": 112032,
            "time": 145.875,
            "velocity": 0.03937007874015748
          },
          {
            "duration": 0.125,
            "durationTicks": 96,
            "midi": 61,
            "name": "C#4",
            "ticks": 112128,
            "time": 146,
            "velocity": 0.031496062992125984
          },
          {
            "duration": 0.125,
            "durationTicks": 96,
            "midi": 56,
            "name": "G#3",
            "ticks": 112128,
            "time": 146,
            "velocity": 0.031496062992125984
          },
          {
            "duration": 0.125,
            "durationTicks": 96,
            "midi": 52,
            "name": "E3",
            "ticks": 112128,
            "time": 146,
            "velocity": 0.031496062992125984
          },
          {
            "duration": 0.125,
            "durationTicks": 96,
            "midi": 56,
            "name": "G#3",
            "ticks": 112224,
            "time": 146.125,
            "velocity": 0.031496062992125984
          },
          {
            "duration": 0.125,
            "durationTicks": 96,
            "midi": 52,
            "name": "E3",
            "ticks": 112224,
            "time": 146.125,
            "velocity": 0.031496062992125984
          },
          {
            "duration": 0.125,
            "durationTicks": 96,
            "midi": 61,
            "name": "C#4",
            "ticks": 112224,
            "time": 146.125,
            "velocity": 0.031496062992125984
          },
          {
            "duration": 0.125,
            "durationTicks": 96,
            "midi": 61,
            "name": "C#4",
            "ticks": 112320,
            "time": 146.25,
            "velocity": 0.031496062992125984
          },
          {
            "duration": 0.125,
            "durationTicks": 96,
            "midi": 52,
            "name": "E3",
            "ticks": 112320,
            "time": 146.25,
            "velocity": 0.031496062992125984
          },
          {
            "duration": 0.125,
            "durationTicks": 96,
            "midi": 56,
            "name": "G#3",
            "ticks": 112320,
            "time": 146.25,
            "velocity": 0.031496062992125984
          },
          {
            "duration": 0.125,
            "durationTicks": 96,
            "midi": 56,
            "name": "G#3",
            "ticks": 112416,
            "time": 146.375,
            "velocity": 0.031496062992125984
          },
          {
            "duration": 0.125,
            "durationTicks": 96,
            "midi": 61,
            "name": "C#4",
            "ticks": 112416,
            "time": 146.375,
            "velocity": 0.031496062992125984
          },
          {
            "duration": 0.125,
            "durationTicks": 96,
            "midi": 52,
            "name": "E3",
            "ticks": 112416,
            "time": 146.375,
            "velocity": 0.031496062992125984
          },
          {
            "duration": 0.125,
            "durationTicks": 96,
            "midi": 56,
            "name": "G#3",
            "ticks": 112512,
            "time": 146.5,
            "velocity": 0.023622047244094488
          },
          {
            "duration": 0.125,
            "durationTicks": 96,
            "midi": 61,
            "name": "C#4",
            "ticks": 112512,
            "time": 146.5,
            "velocity": 0.023622047244094488
          },
          {
            "duration": 0.125,
            "durationTicks": 96,
            "midi": 52,
            "name": "E3",
            "ticks": 112512,
            "time": 146.5,
            "velocity": 0.023622047244094488
          },
          {
            "duration": 0.125,
            "durationTicks": 96,
            "midi": 61,
            "name": "C#4",
            "ticks": 112608,
            "time": 146.625,
            "velocity": 0.023622047244094488
          },
          {
            "duration": 0.125,
            "durationTicks": 96,
            "midi": 56,
            "name": "G#3",
            "ticks": 112608,
            "time": 146.625,
            "velocity": 0.023622047244094488
          },
          {
            "duration": 0.125,
            "durationTicks": 96,
            "midi": 52,
            "name": "E3",
            "ticks": 112608,
            "time": 146.625,
            "velocity": 0.023622047244094488
          },
          {
            "duration": 0.125,
            "durationTicks": 96,
            "midi": 52,
            "name": "E3",
            "ticks": 112704,
            "time": 146.75,
            "velocity": 0.023622047244094488
          },
          {
            "duration": 0.125,
            "durationTicks": 96,
            "midi": 56,
            "name": "G#3",
            "ticks": 112704,
            "time": 146.75,
            "velocity": 0.023622047244094488
          },
          {
            "duration": 0.125,
            "durationTicks": 96,
            "midi": 61,
            "name": "C#4",
            "ticks": 112704,
            "time": 146.75,
            "velocity": 0.023622047244094488
          },
          {
            "duration": 0.125,
            "durationTicks": 96,
            "midi": 56,
            "name": "G#3",
            "ticks": 112800,
            "time": 146.875,
            "velocity": 0.023622047244094488
          },
          {
            "duration": 0.125,
            "durationTicks": 96,
            "midi": 52,
            "name": "E3",
            "ticks": 112800,
            "time": 146.875,
            "velocity": 0.023622047244094488
          },
          {
            "duration": 0.125,
            "durationTicks": 96,
            "midi": 61,
            "name": "C#4",
            "ticks": 112800,
            "time": 146.875,
            "velocity": 0.023622047244094488
          },
          {
            "duration": 0.125,
            "durationTicks": 96,
            "midi": 52,
            "name": "E3",
            "ticks": 112896,
            "time": 147,
            "velocity": 0.015748031496062992
          },
          {
            "duration": 0.125,
            "durationTicks": 96,
            "midi": 56,
            "name": "G#3",
            "ticks": 112896,
            "time": 147,
            "velocity": 0.015748031496062992
          },
          {
            "duration": 0.125,
            "durationTicks": 96,
            "midi": 61,
            "name": "C#4",
            "ticks": 112896,
            "time": 147,
            "velocity": 0.015748031496062992
          },
          {
            "duration": 0.125,
            "durationTicks": 96,
            "midi": 61,
            "name": "C#4",
            "ticks": 112992,
            "time": 147.125,
            "velocity": 0.015748031496062992
          },
          {
            "duration": 0.125,
            "durationTicks": 96,
            "midi": 56,
            "name": "G#3",
            "ticks": 112992,
            "time": 147.125,
            "velocity": 0.015748031496062992
          },
          {
            "duration": 0.125,
            "durationTicks": 96,
            "midi": 52,
            "name": "E3",
            "ticks": 112992,
            "time": 147.125,
            "velocity": 0.015748031496062992
          },
          {
            "duration": 0.125,
            "durationTicks": 96,
            "midi": 61,
            "name": "C#4",
            "ticks": 113088,
            "time": 147.25,
            "velocity": 0.015748031496062992
          },
          {
            "duration": 0.125,
            "durationTicks": 96,
            "midi": 56,
            "name": "G#3",
            "ticks": 113088,
            "time": 147.25,
            "velocity": 0.015748031496062992
          },
          {
            "duration": 0.125,
            "durationTicks": 96,
            "midi": 52,
            "name": "E3",
            "ticks": 113088,
            "time": 147.25,
            "velocity": 0.015748031496062992
          },
          {
            "duration": 0.125,
            "durationTicks": 96,
            "midi": 56,
            "name": "G#3",
            "ticks": 113184,
            "time": 147.375,
            "velocity": 0.015748031496062992
          },
          {
            "duration": 0.125,
            "durationTicks": 96,
            "midi": 52,
            "name": "E3",
            "ticks": 113184,
            "time": 147.375,
            "velocity": 0.015748031496062992
          },
          {
            "duration": 0.125,
            "durationTicks": 96,
            "midi": 61,
            "name": "C#4",
            "ticks": 113184,
            "time": 147.375,
            "velocity": 0.015748031496062992
          },
          {
            "duration": 0.125,
            "durationTicks": 96,
            "midi": 56,
            "name": "G#3",
            "ticks": 113280,
            "time": 147.5,
            "velocity": 0.007874015748031496
          },
          {
            "duration": 0.125,
            "durationTicks": 96,
            "midi": 52,
            "name": "E3",
            "ticks": 113280,
            "time": 147.5,
            "velocity": 0.007874015748031496
          },
          {
            "duration": 0.125,
            "durationTicks": 96,
            "midi": 61,
            "name": "C#4",
            "ticks": 113280,
            "time": 147.5,
            "velocity": 0.007874015748031496
          },
          {
            "duration": 0.125,
            "durationTicks": 96,
            "midi": 61,
            "name": "C#4",
            "ticks": 113376,
            "time": 147.625,
            "velocity": 0.007874015748031496
          },
          {
            "duration": 0.125,
            "durationTicks": 96,
            "midi": 56,
            "name": "G#3",
            "ticks": 113376,
            "time": 147.625,
            "velocity": 0.007874015748031496
          },
          {
            "duration": 0.125,
            "durationTicks": 96,
            "midi": 52,
            "name": "E3",
            "ticks": 113376,
            "time": 147.625,
            "velocity": 0.007874015748031496
          },
          {
            "duration": 0.125,
            "durationTicks": 96,
            "midi": 56,
            "name": "G#3",
            "ticks": 113472,
            "time": 147.75,
            "velocity": 0.007874015748031496
          },
          {
            "duration": 0.125,
            "durationTicks": 96,
            "midi": 52,
            "name": "E3",
            "ticks": 113472,
            "time": 147.75,
            "velocity": 0.007874015748031496
          },
          {
            "duration": 0.125,
            "durationTicks": 96,
            "midi": 61,
            "name": "C#4",
            "ticks": 113472,
            "time": 147.75,
            "velocity": 0.007874015748031496
          },
          {
            "duration": 0.125,
            "durationTicks": 96,
            "midi": 56,
            "name": "G#3",
            "ticks": 113568,
            "time": 147.875,
            "velocity": 0.007874015748031496
          },
          {
            "duration": 0.125,
            "durationTicks": 96,
            "midi": 52,
            "name": "E3",
            "ticks": 113568,
            "time": 147.875,
            "velocity": 0.007874015748031496
          },
          {
            "duration": 0.125,
            "durationTicks": 96,
            "midi": 61,
            "name": "C#4",
            "ticks": 113568,
            "time": 147.875,
            "velocity": 0.007874015748031496
          },
          {
            "duration": 0.125,
            "durationTicks": 96,
            "midi": 61,
            "name": "C#4",
            "ticks": 121728,
            "time": 158.5,
            "velocity": 0.03937007874015748
          },
          {
            "duration": 0.125,
            "durationTicks": 96,
            "midi": 54,
            "name": "F#3",
            "ticks": 121728,
            "time": 158.5,
            "velocity": 0.03937007874015748
          },
          {
            "duration": 0.125,
            "durationTicks": 96,
            "midi": 57,
            "name": "A3",
            "ticks": 121728,
            "time": 158.5,
            "velocity": 0.03937007874015748
          },
          {
            "duration": 0.125,
            "durationTicks": 96,
            "midi": 57,
            "name": "A3",
            "ticks": 121824,
            "time": 158.625,
            "velocity": 0.031496062992125984
          },
          {
            "duration": 0.125,
            "durationTicks": 96,
            "midi": 54,
            "name": "F#3",
            "ticks": 121824,
            "time": 158.625,
            "velocity": 0.031496062992125984
          },
          {
            "duration": 0.125,
            "durationTicks": 96,
            "midi": 61,
            "name": "C#4",
            "ticks": 121824,
            "time": 158.625,
            "velocity": 0.031496062992125984
          },
          {
            "duration": 0.125,
            "durationTicks": 96,
            "midi": 54,
            "name": "F#3",
            "ticks": 121920,
            "time": 158.75,
            "velocity": 0.031496062992125984
          },
          {
            "duration": 0.125,
            "durationTicks": 96,
            "midi": 57,
            "name": "A3",
            "ticks": 121920,
            "time": 158.75,
            "velocity": 0.031496062992125984
          },
          {
            "duration": 0.125,
            "durationTicks": 96,
            "midi": 61,
            "name": "C#4",
            "ticks": 121920,
            "time": 158.75,
            "velocity": 0.031496062992125984
          },
          {
            "duration": 0.125,
            "durationTicks": 96,
            "midi": 54,
            "name": "F#3",
            "ticks": 122016,
            "time": 158.875,
            "velocity": 0.023622047244094488
          },
          {
            "duration": 0.125,
            "durationTicks": 96,
            "midi": 57,
            "name": "A3",
            "ticks": 122016,
            "time": 158.875,
            "velocity": 0.023622047244094488
          },
          {
            "duration": 0.125,
            "durationTicks": 96,
            "midi": 61,
            "name": "C#4",
            "ticks": 122016,
            "time": 158.875,
            "velocity": 0.023622047244094488
          },
          {
            "duration": 0.125,
            "durationTicks": 96,
            "midi": 61,
            "name": "C#4",
            "ticks": 122112,
            "time": 159,
            "velocity": 0.03937007874015748
          },
          {
            "duration": 0.125,
            "durationTicks": 96,
            "midi": 64,
            "name": "E4",
            "ticks": 122112,
            "time": 159,
            "velocity": 0.03937007874015748
          },
          {
            "duration": 0.125,
            "durationTicks": 96,
            "midi": 57,
            "name": "A3",
            "ticks": 122112,
            "time": 159,
            "velocity": 0.03937007874015748
          },
          {
            "duration": 0.125,
            "durationTicks": 96,
            "midi": 64,
            "name": "E4",
            "ticks": 122208,
            "time": 159.125,
            "velocity": 0.031496062992125984
          },
          {
            "duration": 0.125,
            "durationTicks": 96,
            "midi": 61,
            "name": "C#4",
            "ticks": 122208,
            "time": 159.125,
            "velocity": 0.031496062992125984
          },
          {
            "duration": 0.125,
            "durationTicks": 96,
            "midi": 57,
            "name": "A3",
            "ticks": 122208,
            "time": 159.125,
            "velocity": 0.031496062992125984
          },
          {
            "duration": 0.125,
            "durationTicks": 96,
            "midi": 64,
            "name": "E4",
            "ticks": 122304,
            "time": 159.25,
            "velocity": 0.031496062992125984
          },
          {
            "duration": 0.125,
            "durationTicks": 96,
            "midi": 57,
            "name": "A3",
            "ticks": 122304,
            "time": 159.25,
            "velocity": 0.031496062992125984
          },
          {
            "duration": 0.125,
            "durationTicks": 96,
            "midi": 61,
            "name": "C#4",
            "ticks": 122304,
            "time": 159.25,
            "velocity": 0.031496062992125984
          },
          {
            "duration": 0.125,
            "durationTicks": 96,
            "midi": 64,
            "name": "E4",
            "ticks": 122400,
            "time": 159.375,
            "velocity": 0.023622047244094488
          },
          {
            "duration": 0.125,
            "durationTicks": 96,
            "midi": 61,
            "name": "C#4",
            "ticks": 122400,
            "time": 159.375,
            "velocity": 0.023622047244094488
          },
          {
            "duration": 0.125,
            "durationTicks": 96,
            "midi": 57,
            "name": "A3",
            "ticks": 122400,
            "time": 159.375,
            "velocity": 0.023622047244094488
          },
          {
            "duration": 0.125,
            "durationTicks": 96,
            "midi": 64,
            "name": "E4",
            "ticks": 122496,
            "time": 159.5,
            "velocity": 0.03937007874015748
          },
          {
            "duration": 0.125,
            "durationTicks": 96,
            "midi": 68,
            "name": "G#4",
            "ticks": 122496,
            "time": 159.5,
            "velocity": 0.03937007874015748
          },
          {
            "duration": 0.125,
            "durationTicks": 96,
            "midi": 71,
            "name": "B4",
            "ticks": 122496,
            "time": 159.5,
            "velocity": 0.03937007874015748
          },
          {
            "duration": 0.125,
            "durationTicks": 96,
            "midi": 64,
            "name": "E4",
            "ticks": 122592,
            "time": 159.625,
            "velocity": 0.031496062992125984
          },
          {
            "duration": 0.125,
            "durationTicks": 96,
            "midi": 68,
            "name": "G#4",
            "ticks": 122592,
            "time": 159.625,
            "velocity": 0.031496062992125984
          },
          {
            "duration": 0.125,
            "durationTicks": 96,
            "midi": 71,
            "name": "B4",
            "ticks": 122592,
            "time": 159.625,
            "velocity": 0.031496062992125984
          },
          {
            "duration": 0.125,
            "durationTicks": 96,
            "midi": 64,
            "name": "E4",
            "ticks": 122688,
            "time": 159.75,
            "velocity": 0.031496062992125984
          },
          {
            "duration": 0.125,
            "durationTicks": 96,
            "midi": 68,
            "name": "G#4",
            "ticks": 122688,
            "time": 159.75,
            "velocity": 0.031496062992125984
          },
          {
            "duration": 0.125,
            "durationTicks": 96,
            "midi": 71,
            "name": "B4",
            "ticks": 122688,
            "time": 159.75,
            "velocity": 0.031496062992125984
          },
          {
            "duration": 0.125,
            "durationTicks": 96,
            "midi": 71,
            "name": "B4",
            "ticks": 122784,
            "time": 159.875,
            "velocity": 0.023622047244094488
          },
          {
            "duration": 0.125,
            "durationTicks": 96,
            "midi": 68,
            "name": "G#4",
            "ticks": 122784,
            "time": 159.875,
            "velocity": 0.023622047244094488
          },
          {
            "duration": 0.125,
            "durationTicks": 96,
            "midi": 64,
            "name": "E4",
            "ticks": 122784,
            "time": 159.875,
            "velocity": 0.023622047244094488
          },
          {
            "duration": 0.125,
            "durationTicks": 96,
            "midi": 61,
            "name": "C#4",
            "ticks": 122880,
            "time": 160,
            "velocity": 0.03937007874015748
          },
          {
            "duration": 0.125,
            "durationTicks": 96,
            "midi": 64,
            "name": "E4",
            "ticks": 122880,
            "time": 160,
            "velocity": 0.03937007874015748
          },
          {
            "duration": 0.125,
            "durationTicks": 96,
            "midi": 68,
            "name": "G#4",
            "ticks": 122880,
            "time": 160,
            "velocity": 0.03937007874015748
          },
          {
            "duration": 0.125,
            "durationTicks": 96,
            "midi": 61,
            "name": "C#4",
            "ticks": 122976,
            "time": 160.125,
            "velocity": 0.03937007874015748
          },
          {
            "duration": 0.125,
            "durationTicks": 96,
            "midi": 64,
            "name": "E4",
            "ticks": 122976,
            "time": 160.125,
            "velocity": 0.03937007874015748
          },
          {
            "duration": 0.125,
            "durationTicks": 96,
            "midi": 68,
            "name": "G#4",
            "ticks": 122976,
            "time": 160.125,
            "velocity": 0.03937007874015748
          },
          {
            "duration": 0.125,
            "durationTicks": 96,
            "midi": 64,
            "name": "E4",
            "ticks": 123072,
            "time": 160.25,
            "velocity": 0.03937007874015748
          },
          {
            "duration": 0.125,
            "durationTicks": 96,
            "midi": 68,
            "name": "G#4",
            "ticks": 123072,
            "time": 160.25,
            "velocity": 0.03937007874015748
          },
          {
            "duration": 0.125,
            "durationTicks": 96,
            "midi": 61,
            "name": "C#4",
            "ticks": 123072,
            "time": 160.25,
            "velocity": 0.03937007874015748
          },
          {
            "duration": 0.125,
            "durationTicks": 96,
            "midi": 64,
            "name": "E4",
            "ticks": 123168,
            "time": 160.375,
            "velocity": 0.03937007874015748
          },
          {
            "duration": 0.125,
            "durationTicks": 96,
            "midi": 68,
            "name": "G#4",
            "ticks": 123168,
            "time": 160.375,
            "velocity": 0.03937007874015748
          },
          {
            "duration": 0.125,
            "durationTicks": 96,
            "midi": 61,
            "name": "C#4",
            "ticks": 123168,
            "time": 160.375,
            "velocity": 0.03937007874015748
          },
          {
            "duration": 0.125,
            "durationTicks": 96,
            "midi": 68,
            "name": "G#4",
            "ticks": 123264,
            "time": 160.5,
            "velocity": 0.03937007874015748
          },
          {
            "duration": 0.125,
            "durationTicks": 96,
            "midi": 64,
            "name": "E4",
            "ticks": 123264,
            "time": 160.5,
            "velocity": 0.03937007874015748
          },
          {
            "duration": 0.125,
            "durationTicks": 96,
            "midi": 61,
            "name": "C#4",
            "ticks": 123264,
            "time": 160.5,
            "velocity": 0.03937007874015748
          },
          {
            "duration": 0.125,
            "durationTicks": 96,
            "midi": 68,
            "name": "G#4",
            "ticks": 123360,
            "time": 160.625,
            "velocity": 0.03937007874015748
          },
          {
            "duration": 0.125,
            "durationTicks": 96,
            "midi": 64,
            "name": "E4",
            "ticks": 123360,
            "time": 160.625,
            "velocity": 0.03937007874015748
          },
          {
            "duration": 0.125,
            "durationTicks": 96,
            "midi": 61,
            "name": "C#4",
            "ticks": 123360,
            "time": 160.625,
            "velocity": 0.03937007874015748
          },
          {
            "duration": 0.125,
            "durationTicks": 96,
            "midi": 61,
            "name": "C#4",
            "ticks": 123456,
            "time": 160.75,
            "velocity": 0.03937007874015748
          },
          {
            "duration": 0.125,
            "durationTicks": 96,
            "midi": 64,
            "name": "E4",
            "ticks": 123456,
            "time": 160.75,
            "velocity": 0.03937007874015748
          },
          {
            "duration": 0.125,
            "durationTicks": 96,
            "midi": 68,
            "name": "G#4",
            "ticks": 123456,
            "time": 160.75,
            "velocity": 0.03937007874015748
          },
          {
            "duration": 0.125,
            "durationTicks": 96,
            "midi": 61,
            "name": "C#4",
            "ticks": 123552,
            "time": 160.875,
            "velocity": 0.03937007874015748
          },
          {
            "duration": 0.125,
            "durationTicks": 96,
            "midi": 64,
            "name": "E4",
            "ticks": 123552,
            "time": 160.875,
            "velocity": 0.03937007874015748
          },
          {
            "duration": 0.125,
            "durationTicks": 96,
            "midi": 68,
            "name": "G#4",
            "ticks": 123552,
            "time": 160.875,
            "velocity": 0.03937007874015748
          },
          {
            "duration": 0.125,
            "durationTicks": 96,
            "midi": 61,
            "name": "C#4",
            "ticks": 123648,
            "time": 161,
            "velocity": 0.03937007874015748
          },
          {
            "duration": 0.125,
            "durationTicks": 96,
            "midi": 68,
            "name": "G#4",
            "ticks": 123648,
            "time": 161,
            "velocity": 0.03937007874015748
          },
          {
            "duration": 0.125,
            "durationTicks": 96,
            "midi": 64,
            "name": "E4",
            "ticks": 123648,
            "time": 161,
            "velocity": 0.03937007874015748
          },
          {
            "duration": 0.125,
            "durationTicks": 96,
            "midi": 68,
            "name": "G#4",
            "ticks": 123744,
            "time": 161.125,
            "velocity": 0.03937007874015748
          },
          {
            "duration": 0.125,
            "durationTicks": 96,
            "midi": 64,
            "name": "E4",
            "ticks": 123744,
            "time": 161.125,
            "velocity": 0.03937007874015748
          },
          {
            "duration": 0.125,
            "durationTicks": 96,
            "midi": 61,
            "name": "C#4",
            "ticks": 123744,
            "time": 161.125,
            "velocity": 0.03937007874015748
          },
          {
            "duration": 0.125,
            "durationTicks": 96,
            "midi": 61,
            "name": "C#4",
            "ticks": 123840,
            "time": 161.25,
            "velocity": 0.03937007874015748
          },
          {
            "duration": 0.125,
            "durationTicks": 96,
            "midi": 64,
            "name": "E4",
            "ticks": 123840,
            "time": 161.25,
            "velocity": 0.03937007874015748
          },
          {
            "duration": 0.125,
            "durationTicks": 96,
            "midi": 68,
            "name": "G#4",
            "ticks": 123840,
            "time": 161.25,
            "velocity": 0.03937007874015748
          },
          {
            "duration": 0.125,
            "durationTicks": 96,
            "midi": 64,
            "name": "E4",
            "ticks": 123936,
            "time": 161.375,
            "velocity": 0.03937007874015748
          },
          {
            "duration": 0.125,
            "durationTicks": 96,
            "midi": 61,
            "name": "C#4",
            "ticks": 123936,
            "time": 161.375,
            "velocity": 0.03937007874015748
          },
          {
            "duration": 0.125,
            "durationTicks": 96,
            "midi": 68,
            "name": "G#4",
            "ticks": 123936,
            "time": 161.375,
            "velocity": 0.03937007874015748
          },
          {
            "duration": 0.125,
            "durationTicks": 96,
            "midi": 61,
            "name": "C#4",
            "ticks": 124032,
            "time": 161.5,
            "velocity": 0.03937007874015748
          },
          {
            "duration": 0.125,
            "durationTicks": 96,
            "midi": 64,
            "name": "E4",
            "ticks": 124032,
            "time": 161.5,
            "velocity": 0.03937007874015748
          },
          {
            "duration": 0.125,
            "durationTicks": 96,
            "midi": 68,
            "name": "G#4",
            "ticks": 124032,
            "time": 161.5,
            "velocity": 0.03937007874015748
          },
          {
            "duration": 0.125,
            "durationTicks": 96,
            "midi": 64,
            "name": "E4",
            "ticks": 124128,
            "time": 161.625,
            "velocity": 0.03937007874015748
          },
          {
            "duration": 0.125,
            "durationTicks": 96,
            "midi": 68,
            "name": "G#4",
            "ticks": 124128,
            "time": 161.625,
            "velocity": 0.03937007874015748
          },
          {
            "duration": 0.125,
            "durationTicks": 96,
            "midi": 61,
            "name": "C#4",
            "ticks": 124128,
            "time": 161.625,
            "velocity": 0.03937007874015748
          },
          {
            "duration": 0.125,
            "durationTicks": 96,
            "midi": 61,
            "name": "C#4",
            "ticks": 124224,
            "time": 161.75,
            "velocity": 0.03937007874015748
          },
          {
            "duration": 0.125,
            "durationTicks": 96,
            "midi": 68,
            "name": "G#4",
            "ticks": 124224,
            "time": 161.75,
            "velocity": 0.03937007874015748
          },
          {
            "duration": 0.125,
            "durationTicks": 96,
            "midi": 64,
            "name": "E4",
            "ticks": 124224,
            "time": 161.75,
            "velocity": 0.03937007874015748
          },
          {
            "duration": 0.125,
            "durationTicks": 96,
            "midi": 61,
            "name": "C#4",
            "ticks": 124320,
            "time": 161.875,
            "velocity": 0.03937007874015748
          },
          {
            "duration": 0.125,
            "durationTicks": 96,
            "midi": 68,
            "name": "G#4",
            "ticks": 124320,
            "time": 161.875,
            "velocity": 0.03937007874015748
          },
          {
            "duration": 0.125,
            "durationTicks": 96,
            "midi": 64,
            "name": "E4",
            "ticks": 124320,
            "time": 161.875,
            "velocity": 0.03937007874015748
          },
          {
            "duration": 0.125,
            "durationTicks": 96,
            "midi": 61,
            "name": "C#4",
            "ticks": 124416,
            "time": 162,
            "velocity": 0.031496062992125984
          },
          {
            "duration": 0.125,
            "durationTicks": 96,
            "midi": 64,
            "name": "E4",
            "ticks": 124416,
            "time": 162,
            "velocity": 0.031496062992125984
          },
          {
            "duration": 0.125,
            "durationTicks": 96,
            "midi": 68,
            "name": "G#4",
            "ticks": 124416,
            "time": 162,
            "velocity": 0.031496062992125984
          },
          {
            "duration": 0.125,
            "durationTicks": 96,
            "midi": 68,
            "name": "G#4",
            "ticks": 124512,
            "time": 162.125,
            "velocity": 0.031496062992125984
          },
          {
            "duration": 0.125,
            "durationTicks": 96,
            "midi": 64,
            "name": "E4",
            "ticks": 124512,
            "time": 162.125,
            "velocity": 0.031496062992125984
          },
          {
            "duration": 0.125,
            "durationTicks": 96,
            "midi": 61,
            "name": "C#4",
            "ticks": 124512,
            "time": 162.125,
            "velocity": 0.031496062992125984
          },
          {
            "duration": 0.125,
            "durationTicks": 96,
            "midi": 61,
            "name": "C#4",
            "ticks": 124608,
            "time": 162.25,
            "velocity": 0.031496062992125984
          },
          {
            "duration": 0.125,
            "durationTicks": 96,
            "midi": 68,
            "name": "G#4",
            "ticks": 124608,
            "time": 162.25,
            "velocity": 0.031496062992125984
          },
          {
            "duration": 0.125,
            "durationTicks": 96,
            "midi": 64,
            "name": "E4",
            "ticks": 124608,
            "time": 162.25,
            "velocity": 0.031496062992125984
          },
          {
            "duration": 0.125,
            "durationTicks": 96,
            "midi": 68,
            "name": "G#4",
            "ticks": 124704,
            "time": 162.375,
            "velocity": 0.031496062992125984
          },
          {
            "duration": 0.125,
            "durationTicks": 96,
            "midi": 61,
            "name": "C#4",
            "ticks": 124704,
            "time": 162.375,
            "velocity": 0.031496062992125984
          },
          {
            "duration": 0.125,
            "durationTicks": 96,
            "midi": 64,
            "name": "E4",
            "ticks": 124704,
            "time": 162.375,
            "velocity": 0.031496062992125984
          },
          {
            "duration": 0.125,
            "durationTicks": 96,
            "midi": 64,
            "name": "E4",
            "ticks": 124800,
            "time": 162.5,
            "velocity": 0.023622047244094488
          },
          {
            "duration": 0.125,
            "durationTicks": 96,
            "midi": 68,
            "name": "G#4",
            "ticks": 124800,
            "time": 162.5,
            "velocity": 0.023622047244094488
          },
          {
            "duration": 0.125,
            "durationTicks": 96,
            "midi": 61,
            "name": "C#4",
            "ticks": 124800,
            "time": 162.5,
            "velocity": 0.023622047244094488
          },
          {
            "duration": 0.125,
            "durationTicks": 96,
            "midi": 61,
            "name": "C#4",
            "ticks": 124896,
            "time": 162.625,
            "velocity": 0.023622047244094488
          },
          {
            "duration": 0.125,
            "durationTicks": 96,
            "midi": 64,
            "name": "E4",
            "ticks": 124896,
            "time": 162.625,
            "velocity": 0.023622047244094488
          },
          {
            "duration": 0.125,
            "durationTicks": 96,
            "midi": 68,
            "name": "G#4",
            "ticks": 124896,
            "time": 162.625,
            "velocity": 0.023622047244094488
          },
          {
            "duration": 0.125,
            "durationTicks": 96,
            "midi": 68,
            "name": "G#4",
            "ticks": 124992,
            "time": 162.75,
            "velocity": 0.023622047244094488
          },
          {
            "duration": 0.125,
            "durationTicks": 96,
            "midi": 64,
            "name": "E4",
            "ticks": 124992,
            "time": 162.75,
            "velocity": 0.023622047244094488
          },
          {
            "duration": 0.125,
            "durationTicks": 96,
            "midi": 61,
            "name": "C#4",
            "ticks": 124992,
            "time": 162.75,
            "velocity": 0.023622047244094488
          },
          {
            "duration": 0.125,
            "durationTicks": 96,
            "midi": 61,
            "name": "C#4",
            "ticks": 125088,
            "time": 162.875,
            "velocity": 0.023622047244094488
          },
          {
            "duration": 0.125,
            "durationTicks": 96,
            "midi": 68,
            "name": "G#4",
            "ticks": 125088,
            "time": 162.875,
            "velocity": 0.023622047244094488
          },
          {
            "duration": 0.125,
            "durationTicks": 96,
            "midi": 64,
            "name": "E4",
            "ticks": 125088,
            "time": 162.875,
            "velocity": 0.023622047244094488
          },
          {
            "duration": 0.125,
            "durationTicks": 96,
            "midi": 68,
            "name": "G#4",
            "ticks": 125184,
            "time": 163,
            "velocity": 0.015748031496062992
          },
          {
            "duration": 0.125,
            "durationTicks": 96,
            "midi": 64,
            "name": "E4",
            "ticks": 125184,
            "time": 163,
            "velocity": 0.015748031496062992
          },
          {
            "duration": 0.125,
            "durationTicks": 96,
            "midi": 61,
            "name": "C#4",
            "ticks": 125184,
            "time": 163,
            "velocity": 0.015748031496062992
          },
          {
            "duration": 0.125,
            "durationTicks": 96,
            "midi": 61,
            "name": "C#4",
            "ticks": 125280,
            "time": 163.125,
            "velocity": 0.015748031496062992
          },
          {
            "duration": 0.125,
            "durationTicks": 96,
            "midi": 64,
            "name": "E4",
            "ticks": 125280,
            "time": 163.125,
            "velocity": 0.015748031496062992
          },
          {
            "duration": 0.125,
            "durationTicks": 96,
            "midi": 68,
            "name": "G#4",
            "ticks": 125280,
            "time": 163.125,
            "velocity": 0.015748031496062992
          },
          {
            "duration": 0.125,
            "durationTicks": 96,
            "midi": 61,
            "name": "C#4",
            "ticks": 125376,
            "time": 163.25,
            "velocity": 0.015748031496062992
          },
          {
            "duration": 0.125,
            "durationTicks": 96,
            "midi": 68,
            "name": "G#4",
            "ticks": 125376,
            "time": 163.25,
            "velocity": 0.015748031496062992
          },
          {
            "duration": 0.125,
            "durationTicks": 96,
            "midi": 64,
            "name": "E4",
            "ticks": 125376,
            "time": 163.25,
            "velocity": 0.015748031496062992
          },
          {
            "duration": 0.125,
            "durationTicks": 96,
            "midi": 64,
            "name": "E4",
            "ticks": 125472,
            "time": 163.375,
            "velocity": 0.015748031496062992
          },
          {
            "duration": 0.125,
            "durationTicks": 96,
            "midi": 68,
            "name": "G#4",
            "ticks": 125472,
            "time": 163.375,
            "velocity": 0.015748031496062992
          },
          {
            "duration": 0.125,
            "durationTicks": 96,
            "midi": 61,
            "name": "C#4",
            "ticks": 125472,
            "time": 163.375,
            "velocity": 0.015748031496062992
          },
          {
            "duration": 0.125,
            "durationTicks": 96,
            "midi": 68,
            "name": "G#4",
            "ticks": 125568,
            "time": 163.5,
            "velocity": 0.007874015748031496
          },
          {
            "duration": 0.125,
            "durationTicks": 96,
            "midi": 64,
            "name": "E4",
            "ticks": 125568,
            "time": 163.5,
            "velocity": 0.007874015748031496
          },
          {
            "duration": 0.125,
            "durationTicks": 96,
            "midi": 61,
            "name": "C#4",
            "ticks": 125568,
            "time": 163.5,
            "velocity": 0.007874015748031496
          },
          {
            "duration": 0.125,
            "durationTicks": 96,
            "midi": 61,
            "name": "C#4",
            "ticks": 125664,
            "time": 163.625,
            "velocity": 0.007874015748031496
          },
          {
            "duration": 0.125,
            "durationTicks": 96,
            "midi": 64,
            "name": "E4",
            "ticks": 125664,
            "time": 163.625,
            "velocity": 0.007874015748031496
          },
          {
            "duration": 0.125,
            "durationTicks": 96,
            "midi": 68,
            "name": "G#4",
            "ticks": 125664,
            "time": 163.625,
            "velocity": 0.007874015748031496
          },
          {
            "duration": 0.125,
            "durationTicks": 96,
            "midi": 64,
            "name": "E4",
            "ticks": 125760,
            "time": 163.75,
            "velocity": 0.007874015748031496
          },
          {
            "duration": 0.125,
            "durationTicks": 96,
            "midi": 68,
            "name": "G#4",
            "ticks": 125760,
            "time": 163.75,
            "velocity": 0.007874015748031496
          },
          {
            "duration": 0.125,
            "durationTicks": 96,
            "midi": 61,
            "name": "C#4",
            "ticks": 125760,
            "time": 163.75,
            "velocity": 0.007874015748031496
          },
          {
            "duration": 0.125,
            "durationTicks": 96,
            "midi": 68,
            "name": "G#4",
            "ticks": 125856,
            "time": 163.875,
            "velocity": 0.007874015748031496
          },
          {
            "duration": 0.125,
            "durationTicks": 96,
            "midi": 61,
            "name": "C#4",
            "ticks": 125856,
            "time": 163.875,
            "velocity": 0.007874015748031496
          },
          {
            "duration": 0.125,
            "durationTicks": 96,
            "midi": 64,
            "name": "E4",
            "ticks": 125856,
            "time": 163.875,
            "velocity": 0.007874015748031496
          },
          {
            "duration": 0.125,
            "durationTicks": 96,
            "midi": 58,
            "name": "A#3",
            "ticks": 139200,
            "time": 181.25,
            "velocity": 0.06299212598425197
          },
          {
            "duration": 0.125,
            "durationTicks": 96,
            "midi": 66,
            "name": "F#4",
            "ticks": 139200,
            "time": 181.25,
            "velocity": 0.06299212598425197
          },
          {
            "duration": 0.125,
            "durationTicks": 96,
            "midi": 61,
            "name": "C#4",
            "ticks": 139200,
            "time": 181.25,
            "velocity": 0.06299212598425197
          },
          {
            "duration": 0.125,
            "durationTicks": 96,
            "midi": 58,
            "name": "A#3",
            "ticks": 139296,
            "time": 181.375,
            "velocity": 0.06299212598425197
          },
          {
            "duration": 0.125,
            "durationTicks": 96,
            "midi": 61,
            "name": "C#4",
            "ticks": 139296,
            "time": 181.375,
            "velocity": 0.06299212598425197
          },
          {
            "duration": 0.125,
            "durationTicks": 96,
            "midi": 66,
            "name": "F#4",
            "ticks": 139296,
            "time": 181.375,
            "velocity": 0.06299212598425197
          },
          {
            "duration": 0.125,
            "durationTicks": 96,
            "midi": 66,
            "name": "F#4",
            "ticks": 139392,
            "time": 181.5,
            "velocity": 0.07086614173228346
          },
          {
            "duration": 0.125,
            "durationTicks": 96,
            "midi": 58,
            "name": "A#3",
            "ticks": 139392,
            "time": 181.5,
            "velocity": 0.07086614173228346
          },
          {
            "duration": 0.125,
            "durationTicks": 96,
            "midi": 61,
            "name": "C#4",
            "ticks": 139392,
            "time": 181.5,
            "velocity": 0.07086614173228346
          },
          {
            "duration": 0.125,
            "durationTicks": 96,
            "midi": 66,
            "name": "F#4",
            "ticks": 139488,
            "time": 181.625,
            "velocity": 0.07086614173228346
          },
          {
            "duration": 0.125,
            "durationTicks": 96,
            "midi": 58,
            "name": "A#3",
            "ticks": 139488,
            "time": 181.625,
            "velocity": 0.07086614173228346
          },
          {
            "duration": 0.125,
            "durationTicks": 96,
            "midi": 61,
            "name": "C#4",
            "ticks": 139488,
            "time": 181.625,
            "velocity": 0.07086614173228346
          },
          {
            "duration": 0.125,
            "durationTicks": 96,
            "midi": 58,
            "name": "A#3",
            "ticks": 139584,
            "time": 181.75,
            "velocity": 0.06299212598425197
          },
          {
            "duration": 0.125,
            "durationTicks": 96,
            "midi": 66,
            "name": "F#4",
            "ticks": 139584,
            "time": 181.75,
            "velocity": 0.06299212598425197
          },
          {
            "duration": 0.125,
            "durationTicks": 96,
            "midi": 61,
            "name": "C#4",
            "ticks": 139584,
            "time": 181.75,
            "velocity": 0.06299212598425197
          },
          {
            "duration": 0.125,
            "durationTicks": 96,
            "midi": 58,
            "name": "A#3",
            "ticks": 139680,
            "time": 181.875,
            "velocity": 0.06299212598425197
          },
          {
            "duration": 0.125,
            "durationTicks": 96,
            "midi": 66,
            "name": "F#4",
            "ticks": 139680,
            "time": 181.875,
            "velocity": 0.06299212598425197
          },
          {
            "duration": 0.125,
            "durationTicks": 96,
            "midi": 61,
            "name": "C#4",
            "ticks": 139680,
            "time": 181.875,
            "velocity": 0.06299212598425197
          },
          {
            "duration": 0.125,
            "durationTicks": 96,
            "midi": 61,
            "name": "C#4",
            "ticks": 139776,
            "time": 182,
            "velocity": 0.06299212598425197
          },
          {
            "duration": 0.125,
            "durationTicks": 96,
            "midi": 66,
            "name": "F#4",
            "ticks": 139776,
            "time": 182,
            "velocity": 0.06299212598425197
          },
          {
            "duration": 0.125,
            "durationTicks": 96,
            "midi": 58,
            "name": "A#3",
            "ticks": 139776,
            "time": 182,
            "velocity": 0.06299212598425197
          },
          {
            "duration": 0.125,
            "durationTicks": 96,
            "midi": 66,
            "name": "F#4",
            "ticks": 139872,
            "time": 182.125,
            "velocity": 0.06299212598425197
          },
          {
            "duration": 0.125,
            "durationTicks": 96,
            "midi": 61,
            "name": "C#4",
            "ticks": 139872,
            "time": 182.125,
            "velocity": 0.06299212598425197
          },
          {
            "duration": 0.125,
            "durationTicks": 96,
            "midi": 58,
            "name": "A#3",
            "ticks": 139872,
            "time": 182.125,
            "velocity": 0.06299212598425197
          },
          {
            "duration": 0.125,
            "durationTicks": 96,
            "midi": 61,
            "name": "C#4",
            "ticks": 139968,
            "time": 182.25,
            "velocity": 0.05511811023622047
          },
          {
            "duration": 0.125,
            "durationTicks": 96,
            "midi": 58,
            "name": "A#3",
            "ticks": 139968,
            "time": 182.25,
            "velocity": 0.05511811023622047
          },
          {
            "duration": 0.125,
            "durationTicks": 96,
            "midi": 66,
            "name": "F#4",
            "ticks": 139968,
            "time": 182.25,
            "velocity": 0.05511811023622047
          },
          {
            "duration": 0.125,
            "durationTicks": 96,
            "midi": 66,
            "name": "F#4",
            "ticks": 140064,
            "time": 182.375,
            "velocity": 0.05511811023622047
          },
          {
            "duration": 0.125,
            "durationTicks": 96,
            "midi": 61,
            "name": "C#4",
            "ticks": 140064,
            "time": 182.375,
            "velocity": 0.05511811023622047
          },
          {
            "duration": 0.125,
            "durationTicks": 96,
            "midi": 58,
            "name": "A#3",
            "ticks": 140064,
            "time": 182.375,
            "velocity": 0.05511811023622047
          },
          {
            "duration": 0.125,
            "durationTicks": 96,
            "midi": 61,
            "name": "C#4",
            "ticks": 140160,
            "time": 182.5,
            "velocity": 0.05511811023622047
          },
          {
            "duration": 0.125,
            "durationTicks": 96,
            "midi": 66,
            "name": "F#4",
            "ticks": 140160,
            "time": 182.5,
            "velocity": 0.05511811023622047
          },
          {
            "duration": 0.125,
            "durationTicks": 96,
            "midi": 58,
            "name": "A#3",
            "ticks": 140160,
            "time": 182.5,
            "velocity": 0.05511811023622047
          },
          {
            "duration": 0.125,
            "durationTicks": 96,
            "midi": 58,
            "name": "A#3",
            "ticks": 140256,
            "time": 182.625,
            "velocity": 0.05511811023622047
          },
          {
            "duration": 0.125,
            "durationTicks": 96,
            "midi": 61,
            "name": "C#4",
            "ticks": 140256,
            "time": 182.625,
            "velocity": 0.05511811023622047
          },
          {
            "duration": 0.125,
            "durationTicks": 96,
            "midi": 66,
            "name": "F#4",
            "ticks": 140256,
            "time": 182.625,
            "velocity": 0.05511811023622047
          },
          {
            "duration": 0.125,
            "durationTicks": 96,
            "midi": 58,
            "name": "A#3",
            "ticks": 140352,
            "time": 182.75,
            "velocity": 0.047244094488188976
          },
          {
            "duration": 0.125,
            "durationTicks": 96,
            "midi": 66,
            "name": "F#4",
            "ticks": 140352,
            "time": 182.75,
            "velocity": 0.047244094488188976
          },
          {
            "duration": 0.125,
            "durationTicks": 96,
            "midi": 61,
            "name": "C#4",
            "ticks": 140352,
            "time": 182.75,
            "velocity": 0.047244094488188976
          },
          {
            "duration": 0.125,
            "durationTicks": 96,
            "midi": 66,
            "name": "F#4",
            "ticks": 140448,
            "time": 182.875,
            "velocity": 0.047244094488188976
          },
          {
            "duration": 0.125,
            "durationTicks": 96,
            "midi": 61,
            "name": "C#4",
            "ticks": 140448,
            "time": 182.875,
            "velocity": 0.047244094488188976
          },
          {
            "duration": 0.125,
            "durationTicks": 96,
            "midi": 58,
            "name": "A#3",
            "ticks": 140448,
            "time": 182.875,
            "velocity": 0.047244094488188976
          },
          {
            "duration": 0.125,
            "durationTicks": 96,
            "midi": 66,
            "name": "F#4",
            "ticks": 140544,
            "time": 183,
            "velocity": 0.047244094488188976
          },
          {
            "duration": 0.125,
            "durationTicks": 96,
            "midi": 58,
            "name": "A#3",
            "ticks": 140544,
            "time": 183,
            "velocity": 0.047244094488188976
          },
          {
            "duration": 0.125,
            "durationTicks": 96,
            "midi": 61,
            "name": "C#4",
            "ticks": 140544,
            "time": 183,
            "velocity": 0.047244094488188976
          },
          {
            "duration": 0.125,
            "durationTicks": 96,
            "midi": 66,
            "name": "F#4",
            "ticks": 140640,
            "time": 183.125,
            "velocity": 0.047244094488188976
          },
          {
            "duration": 0.125,
            "durationTicks": 96,
            "midi": 61,
            "name": "C#4",
            "ticks": 140640,
            "time": 183.125,
            "velocity": 0.047244094488188976
          },
          {
            "duration": 0.125,
            "durationTicks": 96,
            "midi": 58,
            "name": "A#3",
            "ticks": 140640,
            "time": 183.125,
            "velocity": 0.047244094488188976
          },
          {
            "duration": 0.125,
            "durationTicks": 96,
            "midi": 58,
            "name": "A#3",
            "ticks": 140736,
            "time": 183.25,
            "velocity": 0.03937007874015748
          },
          {
            "duration": 0.125,
            "durationTicks": 96,
            "midi": 66,
            "name": "F#4",
            "ticks": 140736,
            "time": 183.25,
            "velocity": 0.03937007874015748
          },
          {
            "duration": 0.125,
            "durationTicks": 96,
            "midi": 61,
            "name": "C#4",
            "ticks": 140736,
            "time": 183.25,
            "velocity": 0.03937007874015748
          },
          {
            "duration": 0.125,
            "durationTicks": 96,
            "midi": 66,
            "name": "F#4",
            "ticks": 140832,
            "time": 183.375,
            "velocity": 0.03937007874015748
          },
          {
            "duration": 0.125,
            "durationTicks": 96,
            "midi": 58,
            "name": "A#3",
            "ticks": 140832,
            "time": 183.375,
            "velocity": 0.03937007874015748
          },
          {
            "duration": 0.125,
            "durationTicks": 96,
            "midi": 61,
            "name": "C#4",
            "ticks": 140832,
            "time": 183.375,
            "velocity": 0.03937007874015748
          },
          {
            "duration": 0.125,
            "durationTicks": 96,
            "midi": 66,
            "name": "F#4",
            "ticks": 140928,
            "time": 183.5,
            "velocity": 0.031496062992125984
          },
          {
            "duration": 0.125,
            "durationTicks": 96,
            "midi": 61,
            "name": "C#4",
            "ticks": 140928,
            "time": 183.5,
            "velocity": 0.031496062992125984
          },
          {
            "duration": 0.125,
            "durationTicks": 96,
            "midi": 58,
            "name": "A#3",
            "ticks": 140928,
            "time": 183.5,
            "velocity": 0.031496062992125984
          },
          {
            "duration": 0.125,
            "durationTicks": 96,
            "midi": 58,
            "name": "A#3",
            "ticks": 141024,
            "time": 183.625,
            "velocity": 0.031496062992125984
          },
          {
            "duration": 0.125,
            "durationTicks": 96,
            "midi": 66,
            "name": "F#4",
            "ticks": 141024,
            "time": 183.625,
            "velocity": 0.031496062992125984
          },
          {
            "duration": 0.125,
            "durationTicks": 96,
            "midi": 61,
            "name": "C#4",
            "ticks": 141024,
            "time": 183.625,
            "velocity": 0.031496062992125984
          },
          {
            "duration": 0.125,
            "durationTicks": 96,
            "midi": 61,
            "name": "C#4",
            "ticks": 141120,
            "time": 183.75,
            "velocity": 0.031496062992125984
          },
          {
            "duration": 0.125,
            "durationTicks": 96,
            "midi": 66,
            "name": "F#4",
            "ticks": 141120,
            "time": 183.75,
            "velocity": 0.031496062992125984
          },
          {
            "duration": 0.125,
            "durationTicks": 96,
            "midi": 58,
            "name": "A#3",
            "ticks": 141120,
            "time": 183.75,
            "velocity": 0.031496062992125984
          },
          {
            "duration": 0.125,
            "durationTicks": 96,
            "midi": 61,
            "name": "C#4",
            "ticks": 141216,
            "time": 183.875,
            "velocity": 0.031496062992125984
          },
          {
            "duration": 0.125,
            "durationTicks": 96,
            "midi": 58,
            "name": "A#3",
            "ticks": 141216,
            "time": 183.875,
            "velocity": 0.031496062992125984
          },
          {
            "duration": 0.125,
            "durationTicks": 96,
            "midi": 66,
            "name": "F#4",
            "ticks": 141216,
            "time": 183.875,
            "velocity": 0.031496062992125984
          },
          {
            "duration": 0.125,
            "durationTicks": 96,
            "midi": 58,
            "name": "A#3",
            "ticks": 141312,
            "time": 184,
            "velocity": 0.023622047244094488
          },
          {
            "duration": 0.125,
            "durationTicks": 96,
            "midi": 61,
            "name": "C#4",
            "ticks": 141312,
            "time": 184,
            "velocity": 0.023622047244094488
          },
          {
            "duration": 0.125,
            "durationTicks": 96,
            "midi": 66,
            "name": "F#4",
            "ticks": 141312,
            "time": 184,
            "velocity": 0.023622047244094488
          },
          {
            "duration": 0.125,
            "durationTicks": 96,
            "midi": 66,
            "name": "F#4",
            "ticks": 141408,
            "time": 184.125,
            "velocity": 0.023622047244094488
          },
          {
            "duration": 0.125,
            "durationTicks": 96,
            "midi": 61,
            "name": "C#4",
            "ticks": 141408,
            "time": 184.125,
            "velocity": 0.023622047244094488
          },
          {
            "duration": 0.125,
            "durationTicks": 96,
            "midi": 58,
            "name": "A#3",
            "ticks": 141408,
            "time": 184.125,
            "velocity": 0.023622047244094488
          },
          {
            "duration": 0.125,
            "durationTicks": 96,
            "midi": 61,
            "name": "C#4",
            "ticks": 141504,
            "time": 184.25,
            "velocity": 0.023622047244094488
          },
          {
            "duration": 0.125,
            "durationTicks": 96,
            "midi": 58,
            "name": "A#3",
            "ticks": 141504,
            "time": 184.25,
            "velocity": 0.023622047244094488
          },
          {
            "duration": 0.125,
            "durationTicks": 96,
            "midi": 66,
            "name": "F#4",
            "ticks": 141504,
            "time": 184.25,
            "velocity": 0.023622047244094488
          },
          {
            "duration": 0.125,
            "durationTicks": 96,
            "midi": 61,
            "name": "C#4",
            "ticks": 141600,
            "time": 184.375,
            "velocity": 0.023622047244094488
          },
          {
            "duration": 0.125,
            "durationTicks": 96,
            "midi": 58,
            "name": "A#3",
            "ticks": 141600,
            "time": 184.375,
            "velocity": 0.023622047244094488
          },
          {
            "duration": 0.125,
            "durationTicks": 96,
            "midi": 66,
            "name": "F#4",
            "ticks": 141600,
            "time": 184.375,
            "velocity": 0.023622047244094488
          },
          {
            "duration": 0.125,
            "durationTicks": 96,
            "midi": 66,
            "name": "F#4",
            "ticks": 141696,
            "time": 184.5,
            "velocity": 0.015748031496062992
          },
          {
            "duration": 0.125,
            "durationTicks": 96,
            "midi": 61,
            "name": "C#4",
            "ticks": 141696,
            "time": 184.5,
            "velocity": 0.015748031496062992
          },
          {
            "duration": 0.125,
            "durationTicks": 96,
            "midi": 58,
            "name": "A#3",
            "ticks": 141696,
            "time": 184.5,
            "velocity": 0.015748031496062992
          },
          {
            "duration": 0.125,
            "durationTicks": 96,
            "midi": 61,
            "name": "C#4",
            "ticks": 141792,
            "time": 184.625,
            "velocity": 0.015748031496062992
          },
          {
            "duration": 0.125,
            "durationTicks": 96,
            "midi": 58,
            "name": "A#3",
            "ticks": 141792,
            "time": 184.625,
            "velocity": 0.015748031496062992
          },
          {
            "duration": 0.125,
            "durationTicks": 96,
            "midi": 66,
            "name": "F#4",
            "ticks": 141792,
            "time": 184.625,
            "velocity": 0.015748031496062992
          },
          {
            "duration": 0.125,
            "durationTicks": 96,
            "midi": 66,
            "name": "F#4",
            "ticks": 141888,
            "time": 184.75,
            "velocity": 0.015748031496062992
          },
          {
            "duration": 0.125,
            "durationTicks": 96,
            "midi": 61,
            "name": "C#4",
            "ticks": 141888,
            "time": 184.75,
            "velocity": 0.015748031496062992
          },
          {
            "duration": 0.125,
            "durationTicks": 96,
            "midi": 58,
            "name": "A#3",
            "ticks": 141888,
            "time": 184.75,
            "velocity": 0.015748031496062992
          },
          {
            "duration": 0.125,
            "durationTicks": 96,
            "midi": 66,
            "name": "F#4",
            "ticks": 141984,
            "time": 184.875,
            "velocity": 0.015748031496062992
          },
          {
            "duration": 0.125,
            "durationTicks": 96,
            "midi": 61,
            "name": "C#4",
            "ticks": 141984,
            "time": 184.875,
            "velocity": 0.015748031496062992
          },
          {
            "duration": 0.125,
            "durationTicks": 96,
            "midi": 58,
            "name": "A#3",
            "ticks": 141984,
            "time": 184.875,
            "velocity": 0.015748031496062992
          },
          {
            "duration": 0.125,
            "durationTicks": 96,
            "midi": 61,
            "name": "C#4",
            "ticks": 142080,
            "time": 185,
            "velocity": 0.007874015748031496
          },
          {
            "duration": 0.125,
            "durationTicks": 96,
            "midi": 58,
            "name": "A#3",
            "ticks": 142080,
            "time": 185,
            "velocity": 0.007874015748031496
          },
          {
            "duration": 0.125,
            "durationTicks": 96,
            "midi": 66,
            "name": "F#4",
            "ticks": 142080,
            "time": 185,
            "velocity": 0.007874015748031496
          },
          {
            "duration": 0.125,
            "durationTicks": 96,
            "midi": 66,
            "name": "F#4",
            "ticks": 142176,
            "time": 185.125,
            "velocity": 0.007874015748031496
          },
          {
            "duration": 0.125,
            "durationTicks": 96,
            "midi": 61,
            "name": "C#4",
            "ticks": 142176,
            "time": 185.125,
            "velocity": 0.007874015748031496
          },
          {
            "duration": 0.125,
            "durationTicks": 96,
            "midi": 58,
            "name": "A#3",
            "ticks": 142176,
            "time": 185.125,
            "velocity": 0.007874015748031496
          },
          {
            "duration": 0.125,
            "durationTicks": 96,
            "midi": 58,
            "name": "A#3",
            "ticks": 142272,
            "time": 185.25,
            "velocity": 0.007874015748031496
          },
          {
            "duration": 0.125,
            "durationTicks": 96,
            "midi": 66,
            "name": "F#4",
            "ticks": 142272,
            "time": 185.25,
            "velocity": 0.007874015748031496
          },
          {
            "duration": 0.125,
            "durationTicks": 96,
            "midi": 61,
            "name": "C#4",
            "ticks": 142272,
            "time": 185.25,
            "velocity": 0.007874015748031496
          },
          {
            "duration": 0.125,
            "durationTicks": 96,
            "midi": 61,
            "name": "C#4",
            "ticks": 142368,
            "time": 185.375,
            "velocity": 0.007874015748031496
          },
          {
            "duration": 0.125,
            "durationTicks": 96,
            "midi": 58,
            "name": "A#3",
            "ticks": 142368,
            "time": 185.375,
            "velocity": 0.007874015748031496
          },
          {
            "duration": 0.125,
            "durationTicks": 96,
            "midi": 66,
            "name": "F#4",
            "ticks": 142368,
            "time": 185.375,
            "velocity": 0.007874015748031496
          },
          {
            "duration": 0.125,
            "durationTicks": 96,
            "midi": 58,
            "name": "A#3",
            "ticks": 145344,
            "time": 189.25,
            "velocity": 0.06299212598425197
          },
          {
            "duration": 0.125,
            "durationTicks": 96,
            "midi": 66,
            "name": "F#4",
            "ticks": 145344,
            "time": 189.25,
            "velocity": 0.06299212598425197
          },
          {
            "duration": 0.125,
            "durationTicks": 96,
            "midi": 61,
            "name": "C#4",
            "ticks": 145344,
            "time": 189.25,
            "velocity": 0.06299212598425197
          },
          {
            "duration": 0.125,
            "durationTicks": 96,
            "midi": 66,
            "name": "F#4",
            "ticks": 145440,
            "time": 189.375,
            "velocity": 0.06299212598425197
          },
          {
            "duration": 0.125,
            "durationTicks": 96,
            "midi": 61,
            "name": "C#4",
            "ticks": 145440,
            "time": 189.375,
            "velocity": 0.06299212598425197
          },
          {
            "duration": 0.125,
            "durationTicks": 96,
            "midi": 58,
            "name": "A#3",
            "ticks": 145440,
            "time": 189.375,
            "velocity": 0.06299212598425197
          },
          {
            "duration": 0.125,
            "durationTicks": 96,
            "midi": 58,
            "name": "A#3",
            "ticks": 145536,
            "time": 189.5,
            "velocity": 0.07086614173228346
          },
          {
            "duration": 0.125,
            "durationTicks": 96,
            "midi": 61,
            "name": "C#4",
            "ticks": 145536,
            "time": 189.5,
            "velocity": 0.07086614173228346
          },
          {
            "duration": 0.125,
            "durationTicks": 96,
            "midi": 66,
            "name": "F#4",
            "ticks": 145536,
            "time": 189.5,
            "velocity": 0.07086614173228346
          },
          {
            "duration": 0.125,
            "durationTicks": 96,
            "midi": 66,
            "name": "F#4",
            "ticks": 145632,
            "time": 189.625,
            "velocity": 0.07086614173228346
          },
          {
            "duration": 0.125,
            "durationTicks": 96,
            "midi": 58,
            "name": "A#3",
            "ticks": 145632,
            "time": 189.625,
            "velocity": 0.07086614173228346
          },
          {
            "duration": 0.125,
            "durationTicks": 96,
            "midi": 61,
            "name": "C#4",
            "ticks": 145632,
            "time": 189.625,
            "velocity": 0.07086614173228346
          },
          {
            "duration": 0.125,
            "durationTicks": 96,
            "midi": 58,
            "name": "A#3",
            "ticks": 145728,
            "time": 189.75,
            "velocity": 0.06299212598425197
          },
          {
            "duration": 0.125,
            "durationTicks": 96,
            "midi": 61,
            "name": "C#4",
            "ticks": 145728,
            "time": 189.75,
            "velocity": 0.06299212598425197
          },
          {
            "duration": 0.125,
            "durationTicks": 96,
            "midi": 66,
            "name": "F#4",
            "ticks": 145728,
            "time": 189.75,
            "velocity": 0.06299212598425197
          },
          {
            "duration": 0.125,
            "durationTicks": 96,
            "midi": 61,
            "name": "C#4",
            "ticks": 145824,
            "time": 189.875,
            "velocity": 0.06299212598425197
          },
          {
            "duration": 0.125,
            "durationTicks": 96,
            "midi": 58,
            "name": "A#3",
            "ticks": 145824,
            "time": 189.875,
            "velocity": 0.06299212598425197
          },
          {
            "duration": 0.125,
            "durationTicks": 96,
            "midi": 66,
            "name": "F#4",
            "ticks": 145824,
            "time": 189.875,
            "velocity": 0.06299212598425197
          },
          {
            "duration": 0.125,
            "durationTicks": 96,
            "midi": 61,
            "name": "C#4",
            "ticks": 145920,
            "time": 190,
            "velocity": 0.06299212598425197
          },
          {
            "duration": 0.125,
            "durationTicks": 96,
            "midi": 58,
            "name": "A#3",
            "ticks": 145920,
            "time": 190,
            "velocity": 0.06299212598425197
          },
          {
            "duration": 0.125,
            "durationTicks": 96,
            "midi": 66,
            "name": "F#4",
            "ticks": 145920,
            "time": 190,
            "velocity": 0.06299212598425197
          },
          {
            "duration": 0.125,
            "durationTicks": 96,
            "midi": 58,
            "name": "A#3",
            "ticks": 146016,
            "time": 190.125,
            "velocity": 0.06299212598425197
          },
          {
            "duration": 0.125,
            "durationTicks": 96,
            "midi": 66,
            "name": "F#4",
            "ticks": 146016,
            "time": 190.125,
            "velocity": 0.06299212598425197
          },
          {
            "duration": 0.125,
            "durationTicks": 96,
            "midi": 61,
            "name": "C#4",
            "ticks": 146016,
            "time": 190.125,
            "velocity": 0.06299212598425197
          },
          {
            "duration": 0.125,
            "durationTicks": 96,
            "midi": 61,
            "name": "C#4",
            "ticks": 146112,
            "time": 190.25,
            "velocity": 0.05511811023622047
          },
          {
            "duration": 0.125,
            "durationTicks": 96,
            "midi": 58,
            "name": "A#3",
            "ticks": 146112,
            "time": 190.25,
            "velocity": 0.05511811023622047
          },
          {
            "duration": 0.125,
            "durationTicks": 96,
            "midi": 66,
            "name": "F#4",
            "ticks": 146112,
            "time": 190.25,
            "velocity": 0.05511811023622047
          },
          {
            "duration": 0.125,
            "durationTicks": 96,
            "midi": 66,
            "name": "F#4",
            "ticks": 146208,
            "time": 190.375,
            "velocity": 0.05511811023622047
          },
          {
            "duration": 0.125,
            "durationTicks": 96,
            "midi": 61,
            "name": "C#4",
            "ticks": 146208,
            "time": 190.375,
            "velocity": 0.05511811023622047
          },
          {
            "duration": 0.125,
            "durationTicks": 96,
            "midi": 58,
            "name": "A#3",
            "ticks": 146208,
            "time": 190.375,
            "velocity": 0.05511811023622047
          },
          {
            "duration": 0.125,
            "durationTicks": 96,
            "midi": 61,
            "name": "C#4",
            "ticks": 146304,
            "time": 190.5,
            "velocity": 0.05511811023622047
          },
          {
            "duration": 0.125,
            "durationTicks": 96,
            "midi": 66,
            "name": "F#4",
            "ticks": 146304,
            "time": 190.5,
            "velocity": 0.05511811023622047
          },
          {
            "duration": 0.125,
            "durationTicks": 96,
            "midi": 58,
            "name": "A#3",
            "ticks": 146304,
            "time": 190.5,
            "velocity": 0.05511811023622047
          },
          {
            "duration": 0.125,
            "durationTicks": 96,
            "midi": 66,
            "name": "F#4",
            "ticks": 146400,
            "time": 190.625,
            "velocity": 0.05511811023622047
          },
          {
            "duration": 0.125,
            "durationTicks": 96,
            "midi": 61,
            "name": "C#4",
            "ticks": 146400,
            "time": 190.625,
            "velocity": 0.05511811023622047
          },
          {
            "duration": 0.125,
            "durationTicks": 96,
            "midi": 58,
            "name": "A#3",
            "ticks": 146400,
            "time": 190.625,
            "velocity": 0.05511811023622047
          },
          {
            "duration": 0.125,
            "durationTicks": 96,
            "midi": 58,
            "name": "A#3",
            "ticks": 146496,
            "time": 190.75,
            "velocity": 0.047244094488188976
          },
          {
            "duration": 0.125,
            "durationTicks": 96,
            "midi": 61,
            "name": "C#4",
            "ticks": 146496,
            "time": 190.75,
            "velocity": 0.047244094488188976
          },
          {
            "duration": 0.125,
            "durationTicks": 96,
            "midi": 66,
            "name": "F#4",
            "ticks": 146496,
            "time": 190.75,
            "velocity": 0.047244094488188976
          },
          {
            "duration": 0.125,
            "durationTicks": 96,
            "midi": 66,
            "name": "F#4",
            "ticks": 146592,
            "time": 190.875,
            "velocity": 0.047244094488188976
          },
          {
            "duration": 0.125,
            "durationTicks": 96,
            "midi": 61,
            "name": "C#4",
            "ticks": 146592,
            "time": 190.875,
            "velocity": 0.047244094488188976
          },
          {
            "duration": 0.125,
            "durationTicks": 96,
            "midi": 58,
            "name": "A#3",
            "ticks": 146592,
            "time": 190.875,
            "velocity": 0.047244094488188976
          },
          {
            "duration": 0.125,
            "durationTicks": 96,
            "midi": 66,
            "name": "F#4",
            "ticks": 146688,
            "time": 191,
            "velocity": 0.047244094488188976
          },
          {
            "duration": 0.125,
            "durationTicks": 96,
            "midi": 61,
            "name": "C#4",
            "ticks": 146688,
            "time": 191,
            "velocity": 0.047244094488188976
          },
          {
            "duration": 0.125,
            "durationTicks": 96,
            "midi": 58,
            "name": "A#3",
            "ticks": 146688,
            "time": 191,
            "velocity": 0.047244094488188976
          },
          {
            "duration": 0.125,
            "durationTicks": 96,
            "midi": 61,
            "name": "C#4",
            "ticks": 146784,
            "time": 191.125,
            "velocity": 0.047244094488188976
          },
          {
            "duration": 0.125,
            "durationTicks": 96,
            "midi": 66,
            "name": "F#4",
            "ticks": 146784,
            "time": 191.125,
            "velocity": 0.047244094488188976
          },
          {
            "duration": 0.125,
            "durationTicks": 96,
            "midi": 58,
            "name": "A#3",
            "ticks": 146784,
            "time": 191.125,
            "velocity": 0.047244094488188976
          },
          {
            "duration": 0.125,
            "durationTicks": 96,
            "midi": 58,
            "name": "A#3",
            "ticks": 146880,
            "time": 191.25,
            "velocity": 0.03937007874015748
          },
          {
            "duration": 0.125,
            "durationTicks": 96,
            "midi": 66,
            "name": "F#4",
            "ticks": 146880,
            "time": 191.25,
            "velocity": 0.03937007874015748
          },
          {
            "duration": 0.125,
            "durationTicks": 96,
            "midi": 61,
            "name": "C#4",
            "ticks": 146880,
            "time": 191.25,
            "velocity": 0.03937007874015748
          },
          {
            "duration": 0.125,
            "durationTicks": 96,
            "midi": 66,
            "name": "F#4",
            "ticks": 146976,
            "time": 191.375,
            "velocity": 0.03937007874015748
          },
          {
            "duration": 0.125,
            "durationTicks": 96,
            "midi": 61,
            "name": "C#4",
            "ticks": 146976,
            "time": 191.375,
            "velocity": 0.03937007874015748
          },
          {
            "duration": 0.125,
            "durationTicks": 96,
            "midi": 58,
            "name": "A#3",
            "ticks": 146976,
            "time": 191.375,
            "velocity": 0.03937007874015748
          },
          {
            "duration": 0.125,
            "durationTicks": 96,
            "midi": 61,
            "name": "C#4",
            "ticks": 147072,
            "time": 191.5,
            "velocity": 0.031496062992125984
          },
          {
            "duration": 0.125,
            "durationTicks": 96,
            "midi": 66,
            "name": "F#4",
            "ticks": 147072,
            "time": 191.5,
            "velocity": 0.031496062992125984
          },
          {
            "duration": 0.125,
            "durationTicks": 96,
            "midi": 58,
            "name": "A#3",
            "ticks": 147072,
            "time": 191.5,
            "velocity": 0.031496062992125984
          },
          {
            "duration": 0.125,
            "durationTicks": 96,
            "midi": 58,
            "name": "A#3",
            "ticks": 147168,
            "time": 191.625,
            "velocity": 0.031496062992125984
          },
          {
            "duration": 0.125,
            "durationTicks": 96,
            "midi": 61,
            "name": "C#4",
            "ticks": 147168,
            "time": 191.625,
            "velocity": 0.031496062992125984
          },
          {
            "duration": 0.125,
            "durationTicks": 96,
            "midi": 66,
            "name": "F#4",
            "ticks": 147168,
            "time": 191.625,
            "velocity": 0.031496062992125984
          },
          {
            "duration": 0.125,
            "durationTicks": 96,
            "midi": 66,
            "name": "F#4",
            "ticks": 147264,
            "time": 191.75,
            "velocity": 0.031496062992125984
          },
          {
            "duration": 0.125,
            "durationTicks": 96,
            "midi": 61,
            "name": "C#4",
            "ticks": 147264,
            "time": 191.75,
            "velocity": 0.031496062992125984
          },
          {
            "duration": 0.125,
            "durationTicks": 96,
            "midi": 58,
            "name": "A#3",
            "ticks": 147264,
            "time": 191.75,
            "velocity": 0.031496062992125984
          },
          {
            "duration": 0.125,
            "durationTicks": 96,
            "midi": 61,
            "name": "C#4",
            "ticks": 147360,
            "time": 191.875,
            "velocity": 0.031496062992125984
          },
          {
            "duration": 0.125,
            "durationTicks": 96,
            "midi": 58,
            "name": "A#3",
            "ticks": 147360,
            "time": 191.875,
            "velocity": 0.031496062992125984
          },
          {
            "duration": 0.125,
            "durationTicks": 96,
            "midi": 66,
            "name": "F#4",
            "ticks": 147360,
            "time": 191.875,
            "velocity": 0.031496062992125984
          },
          {
            "duration": 0.125,
            "durationTicks": 96,
            "midi": 66,
            "name": "F#4",
            "ticks": 147456,
            "time": 192,
            "velocity": 0.023622047244094488
          },
          {
            "duration": 0.125,
            "durationTicks": 96,
            "midi": 61,
            "name": "C#4",
            "ticks": 147456,
            "time": 192,
            "velocity": 0.023622047244094488
          },
          {
            "duration": 0.125,
            "durationTicks": 96,
            "midi": 58,
            "name": "A#3",
            "ticks": 147456,
            "time": 192,
            "velocity": 0.023622047244094488
          },
          {
            "duration": 0.125,
            "durationTicks": 96,
            "midi": 66,
            "name": "F#4",
            "ticks": 147552,
            "time": 192.125,
            "velocity": 0.023622047244094488
          },
          {
            "duration": 0.125,
            "durationTicks": 96,
            "midi": 61,
            "name": "C#4",
            "ticks": 147552,
            "time": 192.125,
            "velocity": 0.023622047244094488
          },
          {
            "duration": 0.125,
            "durationTicks": 96,
            "midi": 58,
            "name": "A#3",
            "ticks": 147552,
            "time": 192.125,
            "velocity": 0.023622047244094488
          },
          {
            "duration": 0.125,
            "durationTicks": 96,
            "midi": 61,
            "name": "C#4",
            "ticks": 147648,
            "time": 192.25,
            "velocity": 0.023622047244094488
          },
          {
            "duration": 0.125,
            "durationTicks": 96,
            "midi": 58,
            "name": "A#3",
            "ticks": 147648,
            "time": 192.25,
            "velocity": 0.023622047244094488
          },
          {
            "duration": 0.125,
            "durationTicks": 96,
            "midi": 66,
            "name": "F#4",
            "ticks": 147648,
            "time": 192.25,
            "velocity": 0.023622047244094488
          },
          {
            "duration": 0.125,
            "durationTicks": 96,
            "midi": 58,
            "name": "A#3",
            "ticks": 147744,
            "time": 192.375,
            "velocity": 0.023622047244094488
          },
          {
            "duration": 0.125,
            "durationTicks": 96,
            "midi": 66,
            "name": "F#4",
            "ticks": 147744,
            "time": 192.375,
            "velocity": 0.023622047244094488
          },
          {
            "duration": 0.125,
            "durationTicks": 96,
            "midi": 61,
            "name": "C#4",
            "ticks": 147744,
            "time": 192.375,
            "velocity": 0.023622047244094488
          },
          {
            "duration": 0.125,
            "durationTicks": 96,
            "midi": 61,
            "name": "C#4",
            "ticks": 147840,
            "time": 192.5,
            "velocity": 0.015748031496062992
          },
          {
            "duration": 0.125,
            "durationTicks": 96,
            "midi": 58,
            "name": "A#3",
            "ticks": 147840,
            "time": 192.5,
            "velocity": 0.015748031496062992
          },
          {
            "duration": 0.125,
            "durationTicks": 96,
            "midi": 66,
            "name": "F#4",
            "ticks": 147840,
            "time": 192.5,
            "velocity": 0.015748031496062992
          },
          {
            "duration": 0.125,
            "durationTicks": 96,
            "midi": 61,
            "name": "C#4",
            "ticks": 147936,
            "time": 192.625,
            "velocity": 0.015748031496062992
          },
          {
            "duration": 0.125,
            "durationTicks": 96,
            "midi": 66,
            "name": "F#4",
            "ticks": 147936,
            "time": 192.625,
            "velocity": 0.015748031496062992
          },
          {
            "duration": 0.125,
            "durationTicks": 96,
            "midi": 58,
            "name": "A#3",
            "ticks": 147936,
            "time": 192.625,
            "velocity": 0.015748031496062992
          },
          {
            "duration": 0.125,
            "durationTicks": 96,
            "midi": 58,
            "name": "A#3",
            "ticks": 148032,
            "time": 192.75,
            "velocity": 0.015748031496062992
          },
          {
            "duration": 0.125,
            "durationTicks": 96,
            "midi": 66,
            "name": "F#4",
            "ticks": 148032,
            "time": 192.75,
            "velocity": 0.015748031496062992
          },
          {
            "duration": 0.125,
            "durationTicks": 96,
            "midi": 61,
            "name": "C#4",
            "ticks": 148032,
            "time": 192.75,
            "velocity": 0.015748031496062992
          },
          {
            "duration": 0.125,
            "durationTicks": 96,
            "midi": 58,
            "name": "A#3",
            "ticks": 148128,
            "time": 192.875,
            "velocity": 0.015748031496062992
          },
          {
            "duration": 0.125,
            "durationTicks": 96,
            "midi": 61,
            "name": "C#4",
            "ticks": 148128,
            "time": 192.875,
            "velocity": 0.015748031496062992
          },
          {
            "duration": 0.125,
            "durationTicks": 96,
            "midi": 66,
            "name": "F#4",
            "ticks": 148128,
            "time": 192.875,
            "velocity": 0.015748031496062992
          },
          {
            "duration": 0.125,
            "durationTicks": 96,
            "midi": 66,
            "name": "F#4",
            "ticks": 148224,
            "time": 193,
            "velocity": 0.007874015748031496
          },
          {
            "duration": 0.125,
            "durationTicks": 96,
            "midi": 61,
            "name": "C#4",
            "ticks": 148224,
            "time": 193,
            "velocity": 0.007874015748031496
          },
          {
            "duration": 0.125,
            "durationTicks": 96,
            "midi": 58,
            "name": "A#3",
            "ticks": 148224,
            "time": 193,
            "velocity": 0.007874015748031496
          },
          {
            "duration": 0.125,
            "durationTicks": 96,
            "midi": 61,
            "name": "C#4",
            "ticks": 148320,
            "time": 193.125,
            "velocity": 0.007874015748031496
          },
          {
            "duration": 0.125,
            "durationTicks": 96,
            "midi": 58,
            "name": "A#3",
            "ticks": 148320,
            "time": 193.125,
            "velocity": 0.007874015748031496
          },
          {
            "duration": 0.125,
            "durationTicks": 96,
            "midi": 66,
            "name": "F#4",
            "ticks": 148320,
            "time": 193.125,
            "velocity": 0.007874015748031496
          },
          {
            "duration": 0.125,
            "durationTicks": 96,
            "midi": 58,
            "name": "A#3",
            "ticks": 148416,
            "time": 193.25,
            "velocity": 0.007874015748031496
          },
          {
            "duration": 0.125,
            "durationTicks": 96,
            "midi": 66,
            "name": "F#4",
            "ticks": 148416,
            "time": 193.25,
            "velocity": 0.007874015748031496
          },
          {
            "duration": 0.125,
            "durationTicks": 96,
            "midi": 61,
            "name": "C#4",
            "ticks": 148416,
            "time": 193.25,
            "velocity": 0.007874015748031496
          },
          {
            "duration": 0.125,
            "durationTicks": 96,
            "midi": 58,
            "name": "A#3",
            "ticks": 148512,
            "time": 193.375,
            "velocity": 0.007874015748031496
          },
          {
            "duration": 0.125,
            "durationTicks": 96,
            "midi": 66,
            "name": "F#4",
            "ticks": 148512,
            "time": 193.375,
            "velocity": 0.007874015748031496
          },
          {
            "duration": 0.125,
            "durationTicks": 96,
            "midi": 61,
            "name": "C#4",
            "ticks": 148512,
            "time": 193.375,
            "velocity": 0.007874015748031496
          },
          {
            "duration": 0,
            "durationTicks": 0,
            "midi": 51,
            "name": "D#3",
            "ticks": 150720,
            "time": 196.25,
            "velocity": 0.007874015748031496
          },
          {
            "duration": 0,
            "durationTicks": 0,
            "midi": 56,
            "name": "G#3",
            "ticks": 150720,
            "time": 196.25,
            "velocity": 0.007874015748031496
          },
          {
            "duration": 0,
            "durationTicks": 0,
            "midi": 54,
            "name": "F#3",
            "ticks": 150720,
            "time": 196.25,
            "velocity": 0.007874015748031496
          },
          {
            "duration": 0,
            "durationTicks": 0,
            "midi": 54,
            "name": "F#3",
            "ticks": 150816,
            "time": 196.375,
            "velocity": 0.007874015748031496
          },
          {
            "duration": 0,
            "durationTicks": 0,
            "midi": 56,
            "name": "G#3",
            "ticks": 150816,
            "time": 196.375,
            "velocity": 0.007874015748031496
          },
          {
            "duration": 0,
            "durationTicks": 0,
            "midi": 51,
            "name": "D#3",
            "ticks": 150816,
            "time": 196.375,
            "velocity": 0.007874015748031496
          },
          {
            "duration": 0,
            "durationTicks": 0,
            "midi": 54,
            "name": "F#3",
            "ticks": 150912,
            "time": 196.5,
            "velocity": 0.015748031496062992
          },
          {
            "duration": 0,
            "durationTicks": 0,
            "midi": 51,
            "name": "D#3",
            "ticks": 150912,
            "time": 196.5,
            "velocity": 0.015748031496062992
          },
          {
            "duration": 0,
            "durationTicks": 0,
            "midi": 56,
            "name": "G#3",
            "ticks": 150912,
            "time": 196.5,
            "velocity": 0.015748031496062992
          },
          {
            "duration": 0,
            "durationTicks": 0,
            "midi": 56,
            "name": "G#3",
            "ticks": 151008,
            "time": 196.625,
            "velocity": 0.015748031496062992
          },
          {
            "duration": 0,
            "durationTicks": 0,
            "midi": 54,
            "name": "F#3",
            "ticks": 151008,
            "time": 196.625,
            "velocity": 0.015748031496062992
          },
          {
            "duration": 0,
            "durationTicks": 0,
            "midi": 51,
            "name": "D#3",
            "ticks": 151008,
            "time": 196.625,
            "velocity": 0.015748031496062992
          },
          {
            "duration": 0,
            "durationTicks": 0,
            "midi": 54,
            "name": "F#3",
            "ticks": 151104,
            "time": 196.75,
            "velocity": 0.015748031496062992
          },
          {
            "duration": 0,
            "durationTicks": 0,
            "midi": 56,
            "name": "G#3",
            "ticks": 151104,
            "time": 196.75,
            "velocity": 0.015748031496062992
          },
          {
            "duration": 0,
            "durationTicks": 0,
            "midi": 51,
            "name": "D#3",
            "ticks": 151104,
            "time": 196.75,
            "velocity": 0.015748031496062992
          },
          {
            "duration": 0,
            "durationTicks": 0,
            "midi": 56,
            "name": "G#3",
            "ticks": 151200,
            "time": 196.875,
            "velocity": 0.015748031496062992
          },
          {
            "duration": 0,
            "durationTicks": 0,
            "midi": 54,
            "name": "F#3",
            "ticks": 151200,
            "time": 196.875,
            "velocity": 0.015748031496062992
          },
          {
            "duration": 0,
            "durationTicks": 0,
            "midi": 51,
            "name": "D#3",
            "ticks": 151200,
            "time": 196.875,
            "velocity": 0.015748031496062992
          },
          {
            "duration": 0,
            "durationTicks": 0,
            "midi": 51,
            "name": "D#3",
            "ticks": 151296,
            "time": 197,
            "velocity": 0.023622047244094488
          },
          {
            "duration": 0,
            "durationTicks": 0,
            "midi": 56,
            "name": "G#3",
            "ticks": 151296,
            "time": 197,
            "velocity": 0.023622047244094488
          },
          {
            "duration": 0,
            "durationTicks": 0,
            "midi": 54,
            "name": "F#3",
            "ticks": 151296,
            "time": 197,
            "velocity": 0.023622047244094488
          },
          {
            "duration": 0,
            "durationTicks": 0,
            "midi": 54,
            "name": "F#3",
            "ticks": 151392,
            "time": 197.125,
            "velocity": 0.023622047244094488
          },
          {
            "duration": 0,
            "durationTicks": 0,
            "midi": 51,
            "name": "D#3",
            "ticks": 151392,
            "time": 197.125,
            "velocity": 0.023622047244094488
          },
          {
            "duration": 0,
            "durationTicks": 0,
            "midi": 56,
            "name": "G#3",
            "ticks": 151392,
            "time": 197.125,
            "velocity": 0.023622047244094488
          },
          {
            "duration": 0,
            "durationTicks": 0,
            "midi": 51,
            "name": "D#3",
            "ticks": 151488,
            "time": 197.25,
            "velocity": 0.023622047244094488
          },
          {
            "duration": 0,
            "durationTicks": 0,
            "midi": 56,
            "name": "G#3",
            "ticks": 151488,
            "time": 197.25,
            "velocity": 0.023622047244094488
          },
          {
            "duration": 0,
            "durationTicks": 0,
            "midi": 54,
            "name": "F#3",
            "ticks": 151488,
            "time": 197.25,
            "velocity": 0.023622047244094488
          },
          {
            "duration": 0,
            "durationTicks": 0,
            "midi": 56,
            "name": "G#3",
            "ticks": 151584,
            "time": 197.375,
            "velocity": 0.023622047244094488
          },
          {
            "duration": 0,
            "durationTicks": 0,
            "midi": 54,
            "name": "F#3",
            "ticks": 151584,
            "time": 197.375,
            "velocity": 0.023622047244094488
          },
          {
            "duration": 0,
            "durationTicks": 0,
            "midi": 51,
            "name": "D#3",
            "ticks": 151584,
            "time": 197.375,
            "velocity": 0.023622047244094488
          },
          {
            "duration": 0,
            "durationTicks": 0,
            "midi": 54,
            "name": "F#3",
            "ticks": 151680,
            "time": 197.5,
            "velocity": 0.031496062992125984
          },
          {
            "duration": 0,
            "durationTicks": 0,
            "midi": 51,
            "name": "D#3",
            "ticks": 151680,
            "time": 197.5,
            "velocity": 0.031496062992125984
          },
          {
            "duration": 0,
            "durationTicks": 0,
            "midi": 56,
            "name": "G#3",
            "ticks": 151680,
            "time": 197.5,
            "velocity": 0.031496062992125984
          },
          {
            "duration": 0,
            "durationTicks": 0,
            "midi": 51,
            "name": "D#3",
            "ticks": 151776,
            "time": 197.625,
            "velocity": 0.031496062992125984
          },
          {
            "duration": 0,
            "durationTicks": 0,
            "midi": 56,
            "name": "G#3",
            "ticks": 151776,
            "time": 197.625,
            "velocity": 0.031496062992125984
          },
          {
            "duration": 0,
            "durationTicks": 0,
            "midi": 54,
            "name": "F#3",
            "ticks": 151776,
            "time": 197.625,
            "velocity": 0.031496062992125984
          },
          {
            "duration": 0,
            "durationTicks": 0,
            "midi": 56,
            "name": "G#3",
            "ticks": 151872,
            "time": 197.75,
            "velocity": 0.031496062992125984
          },
          {
            "duration": 0,
            "durationTicks": 0,
            "midi": 51,
            "name": "D#3",
            "ticks": 151872,
            "time": 197.75,
            "velocity": 0.031496062992125984
          },
          {
            "duration": 0,
            "durationTicks": 0,
            "midi": 54,
            "name": "F#3",
            "ticks": 151872,
            "time": 197.75,
            "velocity": 0.031496062992125984
          },
          {
            "duration": 0,
            "durationTicks": 0,
            "midi": 56,
            "name": "G#3",
            "ticks": 151968,
            "time": 197.875,
            "velocity": 0.031496062992125984
          },
          {
            "duration": 0,
            "durationTicks": 0,
            "midi": 54,
            "name": "F#3",
            "ticks": 151968,
            "time": 197.875,
            "velocity": 0.031496062992125984
          },
          {
            "duration": 0,
            "durationTicks": 0,
            "midi": 51,
            "name": "D#3",
            "ticks": 151968,
            "time": 197.875,
            "velocity": 0.031496062992125984
          },
          {
            "duration": 0.125,
            "durationTicks": 96,
            "midi": 61,
            "name": "C#4",
            "ticks": 152064,
            "time": 198,
            "velocity": 0.03937007874015748
          },
          {
            "duration": 0,
            "durationTicks": 0,
            "midi": 56,
            "name": "G#3",
            "ticks": 152064,
            "time": 198,
            "velocity": 0.03937007874015748
          },
          {
            "duration": 0.125,
            "durationTicks": 96,
            "midi": 52,
            "name": "E3",
            "ticks": 152064,
            "time": 198,
            "velocity": 0.03937007874015748
          },
          {
            "duration": 0.125,
            "durationTicks": 96,
            "midi": 61,
            "name": "C#4",
            "ticks": 152160,
            "time": 198.125,
            "velocity": 0.03937007874015748
          },
          {
            "duration": 0,
            "durationTicks": 0,
            "midi": 56,
            "name": "G#3",
            "ticks": 152160,
            "time": 198.125,
            "velocity": 0.03937007874015748
          },
          {
            "duration": 0.125,
            "durationTicks": 96,
            "midi": 52,
            "name": "E3",
            "ticks": 152160,
            "time": 198.125,
            "velocity": 0.03937007874015748
          },
          {
            "duration": 0.125,
            "durationTicks": 96,
            "midi": 61,
            "name": "C#4",
            "ticks": 152256,
            "time": 198.25,
            "velocity": 0.031496062992125984
          },
          {
            "duration": 0.125,
            "durationTicks": 96,
            "midi": 52,
            "name": "E3",
            "ticks": 152256,
            "time": 198.25,
            "velocity": 0.031496062992125984
          },
          {
            "duration": 0,
            "durationTicks": 0,
            "midi": 56,
            "name": "G#3",
            "ticks": 152256,
            "time": 198.25,
            "velocity": 0.031496062992125984
          },
          {
            "duration": 0.125,
            "durationTicks": 96,
            "midi": 52,
            "name": "E3",
            "ticks": 152352,
            "time": 198.375,
            "velocity": 0.03937007874015748
          },
          {
            "duration": 0,
            "durationTicks": 0,
            "midi": 56,
            "name": "G#3",
            "ticks": 152352,
            "time": 198.375,
            "velocity": 0.03937007874015748
          },
          {
            "duration": 0.125,
            "durationTicks": 96,
            "midi": 59,
            "name": "B3",
            "ticks": 152352,
            "time": 198.375,
            "velocity": 0.03937007874015748
          },
          {
            "duration": 0.125,
            "durationTicks": 96,
            "midi": 59,
            "name": "B3",
            "ticks": 152448,
            "time": 198.5,
            "velocity": 0.03937007874015748
          },
          {
            "duration": 0.125,
            "durationTicks": 96,
            "midi": 52,
            "name": "E3",
            "ticks": 152448,
            "time": 198.5,
            "velocity": 0.03937007874015748
          },
          {
            "duration": 0,
            "durationTicks": 0,
            "midi": 56,
            "name": "G#3",
            "ticks": 152448,
            "time": 198.5,
            "velocity": 0.03937007874015748
          },
          {
            "duration": 0,
            "durationTicks": 0,
            "midi": 56,
            "name": "G#3",
            "ticks": 152544,
            "time": 198.625,
            "velocity": 0.031496062992125984
          },
          {
            "duration": 0.125,
            "durationTicks": 96,
            "midi": 59,
            "name": "B3",
            "ticks": 152544,
            "time": 198.625,
            "velocity": 0.031496062992125984
          },
          {
            "duration": 0.125,
            "durationTicks": 96,
            "midi": 52,
            "name": "E3",
            "ticks": 152544,
            "time": 198.625,
            "velocity": 0.031496062992125984
          },
          {
            "duration": 0.125,
            "durationTicks": 96,
            "midi": 59,
            "name": "B3",
            "ticks": 152640,
            "time": 198.75,
            "velocity": 0.031496062992125984
          },
          {
            "duration": 0,
            "durationTicks": 0,
            "midi": 56,
            "name": "G#3",
            "ticks": 152640,
            "time": 198.75,
            "velocity": 0.031496062992125984
          },
          {
            "duration": 0.125,
            "durationTicks": 96,
            "midi": 52,
            "name": "E3",
            "ticks": 152640,
            "time": 198.75,
            "velocity": 0.031496062992125984
          },
          {
            "duration": 0.125,
            "durationTicks": 96,
            "midi": 59,
            "name": "B3",
            "ticks": 152736,
            "time": 198.875,
            "velocity": 0.031496062992125984
          },
          {
            "duration": 0,
            "durationTicks": 0,
            "midi": 56,
            "name": "G#3",
            "ticks": 152736,
            "time": 198.875,
            "velocity": 0.031496062992125984
          },
          {
            "duration": 0.125,
            "durationTicks": 96,
            "midi": 52,
            "name": "E3",
            "ticks": 152736,
            "time": 198.875,
            "velocity": 0.031496062992125984
          },
          {
            "duration": 0,
            "durationTicks": 0,
            "midi": 56,
            "name": "G#3",
            "ticks": 152832,
            "time": 199,
            "velocity": 0.031496062992125984
          },
          {
            "duration": 0.125,
            "durationTicks": 96,
            "midi": 52,
            "name": "E3",
            "ticks": 152832,
            "time": 199,
            "velocity": 0.031496062992125984
          },
          {
            "duration": 0.125,
            "durationTicks": 96,
            "midi": 59,
            "name": "B3",
            "ticks": 152832,
            "time": 199,
            "velocity": 0.031496062992125984
          },
          {
            "duration": 0,
            "durationTicks": 0,
            "midi": 56,
            "name": "G#3",
            "ticks": 152928,
            "time": 199.125,
            "velocity": 0.023622047244094488
          },
          {
            "duration": 0.125,
            "durationTicks": 96,
            "midi": 59,
            "name": "B3",
            "ticks": 152928,
            "time": 199.125,
            "velocity": 0.023622047244094488
          },
          {
            "duration": 0.125,
            "durationTicks": 96,
            "midi": 52,
            "name": "E3",
            "ticks": 152928,
            "time": 199.125,
            "velocity": 0.023622047244094488
          },
          {
            "duration": 0.125,
            "durationTicks": 96,
            "midi": 59,
            "name": "B3",
            "ticks": 153024,
            "time": 199.25,
            "velocity": 0.023622047244094488
          },
          {
            "duration": 0,
            "durationTicks": 0,
            "midi": 56,
            "name": "G#3",
            "ticks": 153024,
            "time": 199.25,
            "velocity": 0.023622047244094488
          },
          {
            "duration": 0.125,
            "durationTicks": 96,
            "midi": 52,
            "name": "E3",
            "ticks": 153024,
            "time": 199.25,
            "velocity": 0.023622047244094488
          },
          {
            "duration": 0.125,
            "durationTicks": 96,
            "midi": 52,
            "name": "E3",
            "ticks": 153120,
            "time": 199.375,
            "velocity": 0.023622047244094488
          },
          {
            "duration": 0,
            "durationTicks": 0,
            "midi": 56,
            "name": "G#3",
            "ticks": 153120,
            "time": 199.375,
            "velocity": 0.023622047244094488
          },
          {
            "duration": 0.125,
            "durationTicks": 96,
            "midi": 59,
            "name": "B3",
            "ticks": 153120,
            "time": 199.375,
            "velocity": 0.023622047244094488
          },
          {
            "duration": 0,
            "durationTicks": 0,
            "midi": 56,
            "name": "G#3",
            "ticks": 153216,
            "time": 199.5,
            "velocity": 0.023622047244094488
          },
          {
            "duration": 0.125,
            "durationTicks": 96,
            "midi": 52,
            "name": "E3",
            "ticks": 153216,
            "time": 199.5,
            "velocity": 0.023622047244094488
          },
          {
            "duration": 0.125,
            "durationTicks": 96,
            "midi": 59,
            "name": "B3",
            "ticks": 153216,
            "time": 199.5,
            "velocity": 0.023622047244094488
          },
          {
            "duration": 0.125,
            "durationTicks": 96,
            "midi": 52,
            "name": "E3",
            "ticks": 153312,
            "time": 199.625,
            "velocity": 0.015748031496062992
          },
          {
            "duration": 0,
            "durationTicks": 0,
            "midi": 56,
            "name": "G#3",
            "ticks": 153312,
            "time": 199.625,
            "velocity": 0.015748031496062992
          },
          {
            "duration": 0.125,
            "durationTicks": 96,
            "midi": 59,
            "name": "B3",
            "ticks": 153312,
            "time": 199.625,
            "velocity": 0.015748031496062992
          },
          {
            "duration": 0.125,
            "durationTicks": 96,
            "midi": 52,
            "name": "E3",
            "ticks": 153408,
            "time": 199.75,
            "velocity": 0.015748031496062992
          },
          {
            "duration": 0,
            "durationTicks": 0,
            "midi": 56,
            "name": "G#3",
            "ticks": 153408,
            "time": 199.75,
            "velocity": 0.015748031496062992
          },
          {
            "duration": 0.125,
            "durationTicks": 96,
            "midi": 59,
            "name": "B3",
            "ticks": 153408,
            "time": 199.75,
            "velocity": 0.015748031496062992
          },
          {
            "duration": 0.125,
            "durationTicks": 96,
            "midi": 59,
            "name": "B3",
            "ticks": 153504,
            "time": 199.875,
            "velocity": 0.015748031496062992
          },
          {
            "duration": 0,
            "durationTicks": 0,
            "midi": 56,
            "name": "G#3",
            "ticks": 153504,
            "time": 199.875,
            "velocity": 0.015748031496062992
          },
          {
            "duration": 0.125,
            "durationTicks": 96,
            "midi": 52,
            "name": "E3",
            "ticks": 153504,
            "time": 199.875,
            "velocity": 0.015748031496062992
          },
          {
            "duration": 0,
            "durationTicks": 0,
            "midi": 56,
            "name": "G#3",
            "ticks": 153600,
            "time": 200,
            "velocity": 0.03937007874015748
          },
          {
            "duration": 0.125,
            "durationTicks": 96,
            "midi": 52,
            "name": "E3",
            "ticks": 153600,
            "time": 200,
            "velocity": 0.03937007874015748
          },
          {
            "duration": 0.125,
            "durationTicks": 96,
            "midi": 59,
            "name": "B3",
            "ticks": 153600,
            "time": 200,
            "velocity": 0.03937007874015748
          },
          {
            "duration": 0.125,
            "durationTicks": 96,
            "midi": 52,
            "name": "E3",
            "ticks": 153696,
            "time": 200.125,
            "velocity": 0.03937007874015748
          },
          {
            "duration": 0,
            "durationTicks": 0,
            "midi": 56,
            "name": "G#3",
            "ticks": 153696,
            "time": 200.125,
            "velocity": 0.03937007874015748
          },
          {
            "duration": 0.125,
            "durationTicks": 96,
            "midi": 59,
            "name": "B3",
            "ticks": 153696,
            "time": 200.125,
            "velocity": 0.03937007874015748
          },
          {
            "duration": 0.125,
            "durationTicks": 96,
            "midi": 52,
            "name": "E3",
            "ticks": 153792,
            "time": 200.25,
            "velocity": 0.031496062992125984
          },
          {
            "duration": 0.125,
            "durationTicks": 96,
            "midi": 59,
            "name": "B3",
            "ticks": 153792,
            "time": 200.25,
            "velocity": 0.031496062992125984
          },
          {
            "duration": 0,
            "durationTicks": 0,
            "midi": 56,
            "name": "G#3",
            "ticks": 153792,
            "time": 200.25,
            "velocity": 0.031496062992125984
          },
          {
            "duration": 0.125,
            "durationTicks": 96,
            "midi": 59,
            "name": "B3",
            "ticks": 153888,
            "time": 200.375,
            "velocity": 0.031496062992125984
          },
          {
            "duration": 0,
            "durationTicks": 0,
            "midi": 56,
            "name": "G#3",
            "ticks": 153888,
            "time": 200.375,
            "velocity": 0.031496062992125984
          },
          {
            "duration": 0.125,
            "durationTicks": 96,
            "midi": 52,
            "name": "E3",
            "ticks": 153888,
            "time": 200.375,
            "velocity": 0.031496062992125984
          },
          {
            "duration": 0.125,
            "durationTicks": 96,
            "midi": 58,
            "name": "A#3",
            "ticks": 153984,
            "time": 200.5,
            "velocity": 0.03937007874015748
          },
          {
            "duration": 0.125,
            "durationTicks": 96,
            "midi": 49,
            "name": "C#3",
            "ticks": 153984,
            "time": 200.5,
            "velocity": 0.03937007874015748
          },
          {
            "duration": 0.125,
            "durationTicks": 96,
            "midi": 54,
            "name": "F#3",
            "ticks": 153984,
            "time": 200.5,
            "velocity": 0.03937007874015748
          },
          {
            "duration": 0.125,
            "durationTicks": 96,
            "midi": 58,
            "name": "A#3",
            "ticks": 154080,
            "time": 200.625,
            "velocity": 0.03937007874015748
          },
          {
            "duration": 0.125,
            "durationTicks": 96,
            "midi": 49,
            "name": "C#3",
            "ticks": 154080,
            "time": 200.625,
            "velocity": 0.03937007874015748
          },
          {
            "duration": 0.125,
            "durationTicks": 96,
            "midi": 54,
            "name": "F#3",
            "ticks": 154080,
            "time": 200.625,
            "velocity": 0.03937007874015748
          },
          {
            "duration": 0.125,
            "durationTicks": 96,
            "midi": 58,
            "name": "A#3",
            "ticks": 154176,
            "time": 200.75,
            "velocity": 0.031496062992125984
          },
          {
            "duration": 0.125,
            "durationTicks": 96,
            "midi": 54,
            "name": "F#3",
            "ticks": 154176,
            "time": 200.75,
            "velocity": 0.031496062992125984
          },
          {
            "duration": 0.125,
            "durationTicks": 96,
            "midi": 49,
            "name": "C#3",
            "ticks": 154176,
            "time": 200.75,
            "velocity": 0.031496062992125984
          },
          {
            "duration": 0.125,
            "durationTicks": 96,
            "midi": 49,
            "name": "C#3",
            "ticks": 154272,
            "time": 200.875,
            "velocity": 0.031496062992125984
          },
          {
            "duration": 0.125,
            "durationTicks": 96,
            "midi": 54,
            "name": "F#3",
            "ticks": 154272,
            "time": 200.875,
            "velocity": 0.031496062992125984
          },
          {
            "duration": 0.125,
            "durationTicks": 96,
            "midi": 58,
            "name": "A#3",
            "ticks": 154272,
            "time": 200.875,
            "velocity": 0.031496062992125984
          },
          {
            "duration": 0.125,
            "durationTicks": 96,
            "midi": 52,
            "name": "E3",
            "ticks": 154368,
            "time": 201,
            "velocity": 0.03937007874015748
          },
          {
            "duration": 0.125,
            "durationTicks": 96,
            "midi": 56,
            "name": "G#3",
            "ticks": 154368,
            "time": 201,
            "velocity": 0.03937007874015748
          },
          {
            "duration": 0.125,
            "durationTicks": 96,
            "midi": 49,
            "name": "C#3",
            "ticks": 154368,
            "time": 201,
            "velocity": 0.03937007874015748
          },
          {
            "duration": 0.125,
            "durationTicks": 96,
            "midi": 56,
            "name": "G#3",
            "ticks": 154464,
            "time": 201.125,
            "velocity": 0.03937007874015748
          },
          {
            "duration": 0.125,
            "durationTicks": 96,
            "midi": 52,
            "name": "E3",
            "ticks": 154464,
            "time": 201.125,
            "velocity": 0.03937007874015748
          },
          {
            "duration": 0.125,
            "durationTicks": 96,
            "midi": 49,
            "name": "C#3",
            "ticks": 154464,
            "time": 201.125,
            "velocity": 0.03937007874015748
          },
          {
            "duration": 0.125,
            "durationTicks": 96,
            "midi": 49,
            "name": "C#3",
            "ticks": 154560,
            "time": 201.25,
            "velocity": 0.031496062992125984
          },
          {
            "duration": 0.125,
            "durationTicks": 96,
            "midi": 56,
            "name": "G#3",
            "ticks": 154560,
            "time": 201.25,
            "velocity": 0.031496062992125984
          },
          {
            "duration": 0.125,
            "durationTicks": 96,
            "midi": 52,
            "name": "E3",
            "ticks": 154560,
            "time": 201.25,
            "velocity": 0.031496062992125984
          },
          {
            "duration": 0.125,
            "durationTicks": 96,
            "midi": 49,
            "name": "C#3",
            "ticks": 154656,
            "time": 201.375,
            "velocity": 0.031496062992125984
          },
          {
            "duration": 0.125,
            "durationTicks": 96,
            "midi": 52,
            "name": "E3",
            "ticks": 154656,
            "time": 201.375,
            "velocity": 0.031496062992125984
          },
          {
            "duration": 0.125,
            "durationTicks": 96,
            "midi": 56,
            "name": "G#3",
            "ticks": 154656,
            "time": 201.375,
            "velocity": 0.031496062992125984
          },
          {
            "duration": 0.125,
            "durationTicks": 96,
            "midi": 52,
            "name": "E3",
            "ticks": 154752,
            "time": 201.5,
            "velocity": 0.031496062992125984
          },
          {
            "duration": 0.125,
            "durationTicks": 96,
            "midi": 49,
            "name": "C#3",
            "ticks": 154752,
            "time": 201.5,
            "velocity": 0.031496062992125984
          },
          {
            "duration": 0.125,
            "durationTicks": 96,
            "midi": 56,
            "name": "G#3",
            "ticks": 154752,
            "time": 201.5,
            "velocity": 0.031496062992125984
          },
          {
            "duration": 0.125,
            "durationTicks": 96,
            "midi": 49,
            "name": "C#3",
            "ticks": 154848,
            "time": 201.625,
            "velocity": 0.031496062992125984
          },
          {
            "duration": 0.125,
            "durationTicks": 96,
            "midi": 52,
            "name": "E3",
            "ticks": 154848,
            "time": 201.625,
            "velocity": 0.031496062992125984
          },
          {
            "duration": 0.125,
            "durationTicks": 96,
            "midi": 56,
            "name": "G#3",
            "ticks": 154848,
            "time": 201.625,
            "velocity": 0.031496062992125984
          },
          {
            "duration": 0.125,
            "durationTicks": 96,
            "midi": 49,
            "name": "C#3",
            "ticks": 154944,
            "time": 201.75,
            "velocity": 0.023622047244094488
          },
          {
            "duration": 0.125,
            "durationTicks": 96,
            "midi": 52,
            "name": "E3",
            "ticks": 154944,
            "time": 201.75,
            "velocity": 0.023622047244094488
          },
          {
            "duration": 0.125,
            "durationTicks": 96,
            "midi": 56,
            "name": "G#3",
            "ticks": 154944,
            "time": 201.75,
            "velocity": 0.023622047244094488
          },
          {
            "duration": 0.125,
            "durationTicks": 96,
            "midi": 49,
            "name": "C#3",
            "ticks": 155040,
            "time": 201.875,
            "velocity": 0.023622047244094488
          },
          {
            "duration": 0.125,
            "durationTicks": 96,
            "midi": 56,
            "name": "G#3",
            "ticks": 155040,
            "time": 201.875,
            "velocity": 0.023622047244094488
          },
          {
            "duration": 0.125,
            "durationTicks": 96,
            "midi": 52,
            "name": "E3",
            "ticks": 155040,
            "time": 201.875,
            "velocity": 0.023622047244094488
          },
          {
            "duration": 0.125,
            "durationTicks": 96,
            "midi": 49,
            "name": "C#3",
            "ticks": 155136,
            "time": 202,
            "velocity": 0.03937007874015748
          },
          {
            "duration": 0.125,
            "durationTicks": 96,
            "midi": 46,
            "name": "A#2",
            "ticks": 155136,
            "time": 202,
            "velocity": 0.03937007874015748
          },
          {
            "duration": 0.125,
            "durationTicks": 96,
            "midi": 54,
            "name": "F#3",
            "ticks": 155136,
            "time": 202,
            "velocity": 0.03937007874015748
          },
          {
            "duration": 0.125,
            "durationTicks": 96,
            "midi": 46,
            "name": "A#2",
            "ticks": 155232,
            "time": 202.125,
            "velocity": 0.03937007874015748
          },
          {
            "duration": 0.125,
            "durationTicks": 96,
            "midi": 49,
            "name": "C#3",
            "ticks": 155232,
            "time": 202.125,
            "velocity": 0.03937007874015748
          },
          {
            "duration": 0.125,
            "durationTicks": 96,
            "midi": 54,
            "name": "F#3",
            "ticks": 155232,
            "time": 202.125,
            "velocity": 0.03937007874015748
          },
          {
            "duration": 0.125,
            "durationTicks": 96,
            "midi": 49,
            "name": "C#3",
            "ticks": 155328,
            "time": 202.25,
            "velocity": 0.031496062992125984
          },
          {
            "duration": 0.125,
            "durationTicks": 96,
            "midi": 54,
            "name": "F#3",
            "ticks": 155328,
            "time": 202.25,
            "velocity": 0.031496062992125984
          },
          {
            "duration": 0.125,
            "durationTicks": 96,
            "midi": 46,
            "name": "A#2",
            "ticks": 155328,
            "time": 202.25,
            "velocity": 0.031496062992125984
          },
          {
            "duration": 0.125,
            "durationTicks": 96,
            "midi": 49,
            "name": "C#3",
            "ticks": 155424,
            "time": 202.375,
            "velocity": 0.031496062992125984
          },
          {
            "duration": 0.125,
            "durationTicks": 96,
            "midi": 54,
            "name": "F#3",
            "ticks": 155424,
            "time": 202.375,
            "velocity": 0.031496062992125984
          },
          {
            "duration": 0.125,
            "durationTicks": 96,
            "midi": 46,
            "name": "A#2",
            "ticks": 155424,
            "time": 202.375,
            "velocity": 0.031496062992125984
          },
          {
            "duration": 0.125,
            "durationTicks": 96,
            "midi": 46,
            "name": "A#2",
            "ticks": 155520,
            "time": 202.5,
            "velocity": 0.031496062992125984
          },
          {
            "duration": 0.125,
            "durationTicks": 96,
            "midi": 49,
            "name": "C#3",
            "ticks": 155520,
            "time": 202.5,
            "velocity": 0.031496062992125984
          },
          {
            "duration": 0.125,
            "durationTicks": 96,
            "midi": 54,
            "name": "F#3",
            "ticks": 155520,
            "time": 202.5,
            "velocity": 0.031496062992125984
          },
          {
            "duration": 0.125,
            "durationTicks": 96,
            "midi": 49,
            "name": "C#3",
            "ticks": 155616,
            "time": 202.625,
            "velocity": 0.031496062992125984
          },
          {
            "duration": 0.125,
            "durationTicks": 96,
            "midi": 46,
            "name": "A#2",
            "ticks": 155616,
            "time": 202.625,
            "velocity": 0.031496062992125984
          },
          {
            "duration": 0.125,
            "durationTicks": 96,
            "midi": 54,
            "name": "F#3",
            "ticks": 155616,
            "time": 202.625,
            "velocity": 0.031496062992125984
          },
          {
            "duration": 0.125,
            "durationTicks": 96,
            "midi": 54,
            "name": "F#3",
            "ticks": 155712,
            "time": 202.75,
            "velocity": 0.023622047244094488
          },
          {
            "duration": 0.125,
            "durationTicks": 96,
            "midi": 49,
            "name": "C#3",
            "ticks": 155712,
            "time": 202.75,
            "velocity": 0.023622047244094488
          },
          {
            "duration": 0.125,
            "durationTicks": 96,
            "midi": 46,
            "name": "A#2",
            "ticks": 155712,
            "time": 202.75,
            "velocity": 0.023622047244094488
          },
          {
            "duration": 0.125,
            "durationTicks": 96,
            "midi": 46,
            "name": "A#2",
            "ticks": 155808,
            "time": 202.875,
            "velocity": 0.023622047244094488
          },
          {
            "duration": 0.125,
            "durationTicks": 96,
            "midi": 54,
            "name": "F#3",
            "ticks": 155808,
            "time": 202.875,
            "velocity": 0.023622047244094488
          },
          {
            "duration": 0.125,
            "durationTicks": 96,
            "midi": 49,
            "name": "C#3",
            "ticks": 155808,
            "time": 202.875,
            "velocity": 0.023622047244094488
          },
          {
            "duration": 0.125,
            "durationTicks": 96,
            "midi": 54,
            "name": "F#3",
            "ticks": 155904,
            "time": 203,
            "velocity": 0.023622047244094488
          },
          {
            "duration": 0.125,
            "durationTicks": 96,
            "midi": 49,
            "name": "C#3",
            "ticks": 155904,
            "time": 203,
            "velocity": 0.023622047244094488
          },
          {
            "duration": 0.125,
            "durationTicks": 96,
            "midi": 46,
            "name": "A#2",
            "ticks": 155904,
            "time": 203,
            "velocity": 0.023622047244094488
          },
          {
            "duration": 0.125,
            "durationTicks": 96,
            "midi": 49,
            "name": "C#3",
            "ticks": 156000,
            "time": 203.125,
            "velocity": 0.023622047244094488
          },
          {
            "duration": 0.125,
            "durationTicks": 96,
            "midi": 46,
            "name": "A#2",
            "ticks": 156000,
            "time": 203.125,
            "velocity": 0.023622047244094488
          },
          {
            "duration": 0.125,
            "durationTicks": 96,
            "midi": 54,
            "name": "F#3",
            "ticks": 156000,
            "time": 203.125,
            "velocity": 0.023622047244094488
          },
          {
            "duration": 0.125,
            "durationTicks": 96,
            "midi": 54,
            "name": "F#3",
            "ticks": 156096,
            "time": 203.25,
            "velocity": 0.015748031496062992
          },
          {
            "duration": 0.125,
            "durationTicks": 96,
            "midi": 49,
            "name": "C#3",
            "ticks": 156096,
            "time": 203.25,
            "velocity": 0.015748031496062992
          },
          {
            "duration": 0.125,
            "durationTicks": 96,
            "midi": 46,
            "name": "A#2",
            "ticks": 156096,
            "time": 203.25,
            "velocity": 0.015748031496062992
          },
          {
            "duration": 0.125,
            "durationTicks": 96,
            "midi": 54,
            "name": "F#3",
            "ticks": 156192,
            "time": 203.375,
            "velocity": 0.015748031496062992
          },
          {
            "duration": 0.125,
            "durationTicks": 96,
            "midi": 49,
            "name": "C#3",
            "ticks": 156192,
            "time": 203.375,
            "velocity": 0.015748031496062992
          },
          {
            "duration": 0.125,
            "durationTicks": 96,
            "midi": 46,
            "name": "A#2",
            "ticks": 156192,
            "time": 203.375,
            "velocity": 0.015748031496062992
          },
          {
            "duration": 0.125,
            "durationTicks": 96,
            "midi": 54,
            "name": "F#3",
            "ticks": 156288,
            "time": 203.5,
            "velocity": 0.015748031496062992
          },
          {
            "duration": 0.125,
            "durationTicks": 96,
            "midi": 46,
            "name": "A#2",
            "ticks": 156288,
            "time": 203.5,
            "velocity": 0.015748031496062992
          },
          {
            "duration": 0.125,
            "durationTicks": 96,
            "midi": 49,
            "name": "C#3",
            "ticks": 156288,
            "time": 203.5,
            "velocity": 0.015748031496062992
          },
          {
            "duration": 0.125,
            "durationTicks": 96,
            "midi": 54,
            "name": "F#3",
            "ticks": 156384,
            "time": 203.625,
            "velocity": 0.015748031496062992
          },
          {
            "duration": 0.125,
            "durationTicks": 96,
            "midi": 49,
            "name": "C#3",
            "ticks": 156384,
            "time": 203.625,
            "velocity": 0.015748031496062992
          },
          {
            "duration": 0.125,
            "durationTicks": 96,
            "midi": 46,
            "name": "A#2",
            "ticks": 156384,
            "time": 203.625,
            "velocity": 0.015748031496062992
          },
          {
            "duration": 0.125,
            "durationTicks": 96,
            "midi": 49,
            "name": "C#3",
            "ticks": 156480,
            "time": 203.75,
            "velocity": 0.007874015748031496
          },
          {
            "duration": 0.125,
            "durationTicks": 96,
            "midi": 54,
            "name": "F#3",
            "ticks": 156480,
            "time": 203.75,
            "velocity": 0.007874015748031496
          },
          {
            "duration": 0.125,
            "durationTicks": 96,
            "midi": 46,
            "name": "A#2",
            "ticks": 156480,
            "time": 203.75,
            "velocity": 0.007874015748031496
          },
          {
            "duration": 0.125,
            "durationTicks": 96,
            "midi": 54,
            "name": "F#3",
            "ticks": 156576,
            "time": 203.875,
            "velocity": 0.007874015748031496
          },
          {
            "duration": 0.125,
            "durationTicks": 96,
            "midi": 46,
            "name": "A#2",
            "ticks": 156576,
            "time": 203.875,
            "velocity": 0.007874015748031496
          },
          {
            "duration": 0.125,
            "durationTicks": 96,
            "midi": 49,
            "name": "C#3",
            "ticks": 156576,
            "time": 203.875,
            "velocity": 0.007874015748031496
          },
          {
            "duration": 0.125,
            "durationTicks": 96,
            "midi": 44,
            "name": "G#2",
            "ticks": 156672,
            "time": 204,
            "velocity": 0.03937007874015748
          },
          {
            "duration": 0.125,
            "durationTicks": 96,
            "midi": 52,
            "name": "E3",
            "ticks": 156672,
            "time": 204,
            "velocity": 0.03937007874015748
          },
          {
            "duration": 0.125,
            "durationTicks": 96,
            "midi": 47,
            "name": "B2",
            "ticks": 156672,
            "time": 204,
            "velocity": 0.03937007874015748
          },
          {
            "duration": 0.125,
            "durationTicks": 96,
            "midi": 47,
            "name": "B2",
            "ticks": 156768,
            "time": 204.125,
            "velocity": 0.03937007874015748
          },
          {
            "duration": 0.125,
            "durationTicks": 96,
            "midi": 52,
            "name": "E3",
            "ticks": 156768,
            "time": 204.125,
            "velocity": 0.03937007874015748
          },
          {
            "duration": 0.125,
            "durationTicks": 96,
            "midi": 44,
            "name": "G#2",
            "ticks": 156768,
            "time": 204.125,
            "velocity": 0.03937007874015748
          },
          {
            "duration": 0.125,
            "durationTicks": 96,
            "midi": 44,
            "name": "G#2",
            "ticks": 156864,
            "time": 204.25,
            "velocity": 0.031496062992125984
          },
          {
            "duration": 0.125,
            "durationTicks": 96,
            "midi": 47,
            "name": "B2",
            "ticks": 156864,
            "time": 204.25,
            "velocity": 0.031496062992125984
          },
          {
            "duration": 0.125,
            "durationTicks": 96,
            "midi": 52,
            "name": "E3",
            "ticks": 156864,
            "time": 204.25,
            "velocity": 0.031496062992125984
          },
          {
            "duration": 0.125,
            "durationTicks": 96,
            "midi": 44,
            "name": "G#2",
            "ticks": 156960,
            "time": 204.375,
            "velocity": 0.031496062992125984
          },
          {
            "duration": 0.125,
            "durationTicks": 96,
            "midi": 47,
            "name": "B2",
            "ticks": 156960,
            "time": 204.375,
            "velocity": 0.031496062992125984
          },
          {
            "duration": 0.125,
            "durationTicks": 96,
            "midi": 52,
            "name": "E3",
            "ticks": 156960,
            "time": 204.375,
            "velocity": 0.031496062992125984
          },
          {
            "duration": 0.125,
            "durationTicks": 96,
            "midi": 52,
            "name": "E3",
            "ticks": 157056,
            "time": 204.5,
            "velocity": 0.031496062992125984
          },
          {
            "duration": 0.125,
            "durationTicks": 96,
            "midi": 47,
            "name": "B2",
            "ticks": 157056,
            "time": 204.5,
            "velocity": 0.031496062992125984
          },
          {
            "duration": 0.125,
            "durationTicks": 96,
            "midi": 44,
            "name": "G#2",
            "ticks": 157056,
            "time": 204.5,
            "velocity": 0.031496062992125984
          },
          {
            "duration": 0.125,
            "durationTicks": 96,
            "midi": 44,
            "name": "G#2",
            "ticks": 157152,
            "time": 204.625,
            "velocity": 0.031496062992125984
          },
          {
            "duration": 0.125,
            "durationTicks": 96,
            "midi": 47,
            "name": "B2",
            "ticks": 157152,
            "time": 204.625,
            "velocity": 0.031496062992125984
          },
          {
            "duration": 0.125,
            "durationTicks": 96,
            "midi": 52,
            "name": "E3",
            "ticks": 157152,
            "time": 204.625,
            "velocity": 0.031496062992125984
          },
          {
            "duration": 0.125,
            "durationTicks": 96,
            "midi": 52,
            "name": "E3",
            "ticks": 157248,
            "time": 204.75,
            "velocity": 0.023622047244094488
          },
          {
            "duration": 0.125,
            "durationTicks": 96,
            "midi": 47,
            "name": "B2",
            "ticks": 157248,
            "time": 204.75,
            "velocity": 0.023622047244094488
          },
          {
            "duration": 0.125,
            "durationTicks": 96,
            "midi": 44,
            "name": "G#2",
            "ticks": 157248,
            "time": 204.75,
            "velocity": 0.023622047244094488
          },
          {
            "duration": 0.125,
            "durationTicks": 96,
            "midi": 47,
            "name": "B2",
            "ticks": 157344,
            "time": 204.875,
            "velocity": 0.023622047244094488
          },
          {
            "duration": 0.125,
            "durationTicks": 96,
            "midi": 52,
            "name": "E3",
            "ticks": 157344,
            "time": 204.875,
            "velocity": 0.023622047244094488
          },
          {
            "duration": 0.125,
            "durationTicks": 96,
            "midi": 44,
            "name": "G#2",
            "ticks": 157344,
            "time": 204.875,
            "velocity": 0.023622047244094488
          },
          {
            "duration": 0.125,
            "durationTicks": 96,
            "midi": 52,
            "name": "E3",
            "ticks": 157440,
            "time": 205,
            "velocity": 0.023622047244094488
          },
          {
            "duration": 0.125,
            "durationTicks": 96,
            "midi": 47,
            "name": "B2",
            "ticks": 157440,
            "time": 205,
            "velocity": 0.023622047244094488
          },
          {
            "duration": 0.125,
            "durationTicks": 96,
            "midi": 44,
            "name": "G#2",
            "ticks": 157440,
            "time": 205,
            "velocity": 0.023622047244094488
          },
          {
            "duration": 0.125,
            "durationTicks": 96,
            "midi": 47,
            "name": "B2",
            "ticks": 157536,
            "time": 205.125,
            "velocity": 0.023622047244094488
          },
          {
            "duration": 0.125,
            "durationTicks": 96,
            "midi": 52,
            "name": "E3",
            "ticks": 157536,
            "time": 205.125,
            "velocity": 0.023622047244094488
          },
          {
            "duration": 0.125,
            "durationTicks": 96,
            "midi": 44,
            "name": "G#2",
            "ticks": 157536,
            "time": 205.125,
            "velocity": 0.023622047244094488
          },
          {
            "duration": 0.125,
            "durationTicks": 96,
            "midi": 44,
            "name": "G#2",
            "ticks": 157632,
            "time": 205.25,
            "velocity": 0.015748031496062992
          },
          {
            "duration": 0.125,
            "durationTicks": 96,
            "midi": 47,
            "name": "B2",
            "ticks": 157632,
            "time": 205.25,
            "velocity": 0.015748031496062992
          },
          {
            "duration": 0.125,
            "durationTicks": 96,
            "midi": 52,
            "name": "E3",
            "ticks": 157632,
            "time": 205.25,
            "velocity": 0.015748031496062992
          },
          {
            "duration": 0.125,
            "durationTicks": 96,
            "midi": 52,
            "name": "E3",
            "ticks": 157728,
            "time": 205.375,
            "velocity": 0.015748031496062992
          },
          {
            "duration": 0.125,
            "durationTicks": 96,
            "midi": 47,
            "name": "B2",
            "ticks": 157728,
            "time": 205.375,
            "velocity": 0.015748031496062992
          },
          {
            "duration": 0.125,
            "durationTicks": 96,
            "midi": 44,
            "name": "G#2",
            "ticks": 157728,
            "time": 205.375,
            "velocity": 0.015748031496062992
          },
          {
            "duration": 0.125,
            "durationTicks": 96,
            "midi": 44,
            "name": "G#2",
            "ticks": 157824,
            "time": 205.5,
            "velocity": 0.015748031496062992
          },
          {
            "duration": 0.125,
            "durationTicks": 96,
            "midi": 52,
            "name": "E3",
            "ticks": 157824,
            "time": 205.5,
            "velocity": 0.015748031496062992
          },
          {
            "duration": 0.125,
            "durationTicks": 96,
            "midi": 47,
            "name": "B2",
            "ticks": 157824,
            "time": 205.5,
            "velocity": 0.015748031496062992
          },
          {
            "duration": 0.125,
            "durationTicks": 96,
            "midi": 52,
            "name": "E3",
            "ticks": 157920,
            "time": 205.625,
            "velocity": 0.015748031496062992
          },
          {
            "duration": 0.125,
            "durationTicks": 96,
            "midi": 47,
            "name": "B2",
            "ticks": 157920,
            "time": 205.625,
            "velocity": 0.015748031496062992
          },
          {
            "duration": 0.125,
            "durationTicks": 96,
            "midi": 44,
            "name": "G#2",
            "ticks": 157920,
            "time": 205.625,
            "velocity": 0.015748031496062992
          },
          {
            "duration": 0.125,
            "durationTicks": 96,
            "midi": 52,
            "name": "E3",
            "ticks": 158016,
            "time": 205.75,
            "velocity": 0.007874015748031496
          },
          {
            "duration": 0.125,
            "durationTicks": 96,
            "midi": 47,
            "name": "B2",
            "ticks": 158016,
            "time": 205.75,
            "velocity": 0.007874015748031496
          },
          {
            "duration": 0.125,
            "durationTicks": 96,
            "midi": 44,
            "name": "G#2",
            "ticks": 158016,
            "time": 205.75,
            "velocity": 0.007874015748031496
          },
          {
            "duration": 0.125,
            "durationTicks": 96,
            "midi": 47,
            "name": "B2",
            "ticks": 158112,
            "time": 205.875,
            "velocity": 0.007874015748031496
          },
          {
            "duration": 0.125,
            "durationTicks": 96,
            "midi": 44,
            "name": "G#2",
            "ticks": 158112,
            "time": 205.875,
            "velocity": 0.007874015748031496
          },
          {
            "duration": 0.125,
            "durationTicks": 96,
            "midi": 52,
            "name": "E3",
            "ticks": 158112,
            "time": 205.875,
            "velocity": 0.007874015748031496
          },
          {
            "duration": 0.125,
            "durationTicks": 96,
            "midi": 56,
            "name": "G#3",
            "ticks": 158208,
            "time": 206,
            "velocity": 0.03937007874015748
          },
          {
            "duration": 0.125,
            "durationTicks": 96,
            "midi": 52,
            "name": "E3",
            "ticks": 158208,
            "time": 206,
            "velocity": 0.03937007874015748
          },
          {
            "duration": 0.125,
            "durationTicks": 96,
            "midi": 61,
            "name": "C#4",
            "ticks": 158208,
            "time": 206,
            "velocity": 0.03937007874015748
          },
          {
            "duration": 0.125,
            "durationTicks": 96,
            "midi": 56,
            "name": "G#3",
            "ticks": 158304,
            "time": 206.125,
            "velocity": 0.03937007874015748
          },
          {
            "duration": 0.125,
            "durationTicks": 96,
            "midi": 61,
            "name": "C#4",
            "ticks": 158304,
            "time": 206.125,
            "velocity": 0.03937007874015748
          },
          {
            "duration": 0.125,
            "durationTicks": 96,
            "midi": 52,
            "name": "E3",
            "ticks": 158304,
            "time": 206.125,
            "velocity": 0.03937007874015748
          },
          {
            "duration": 0.125,
            "durationTicks": 96,
            "midi": 61,
            "name": "C#4",
            "ticks": 158400,
            "time": 206.25,
            "velocity": 0.031496062992125984
          },
          {
            "duration": 0.125,
            "durationTicks": 96,
            "midi": 56,
            "name": "G#3",
            "ticks": 158400,
            "time": 206.25,
            "velocity": 0.031496062992125984
          },
          {
            "duration": 0.125,
            "durationTicks": 96,
            "midi": 52,
            "name": "E3",
            "ticks": 158400,
            "time": 206.25,
            "velocity": 0.031496062992125984
          },
          {
            "duration": 0.125,
            "durationTicks": 96,
            "midi": 52,
            "name": "E3",
            "ticks": 158496,
            "time": 206.375,
            "velocity": 0.03937007874015748
          },
          {
            "duration": 0.125,
            "durationTicks": 96,
            "midi": 59,
            "name": "B3",
            "ticks": 158496,
            "time": 206.375,
            "velocity": 0.03937007874015748
          },
          {
            "duration": 0.125,
            "durationTicks": 96,
            "midi": 56,
            "name": "G#3",
            "ticks": 158496,
            "time": 206.375,
            "velocity": 0.03937007874015748
          },
          {
            "duration": 0.125,
            "durationTicks": 96,
            "midi": 52,
            "name": "E3",
            "ticks": 158592,
            "time": 206.5,
            "velocity": 0.03937007874015748
          },
          {
            "duration": 0.125,
            "durationTicks": 96,
            "midi": 56,
            "name": "G#3",
            "ticks": 158592,
            "time": 206.5,
            "velocity": 0.03937007874015748
          },
          {
            "duration": 0.125,
            "durationTicks": 96,
            "midi": 59,
            "name": "B3",
            "ticks": 158592,
            "time": 206.5,
            "velocity": 0.03937007874015748
          },
          {
            "duration": 0.125,
            "durationTicks": 96,
            "midi": 52,
            "name": "E3",
            "ticks": 158688,
            "time": 206.625,
            "velocity": 0.031496062992125984
          },
          {
            "duration": 0.125,
            "durationTicks": 96,
            "midi": 56,
            "name": "G#3",
            "ticks": 158688,
            "time": 206.625,
            "velocity": 0.031496062992125984
          },
          {
            "duration": 0.125,
            "durationTicks": 96,
            "midi": 59,
            "name": "B3",
            "ticks": 158688,
            "time": 206.625,
            "velocity": 0.031496062992125984
          },
          {
            "duration": 0.125,
            "durationTicks": 96,
            "midi": 52,
            "name": "E3",
            "ticks": 158784,
            "time": 206.75,
            "velocity": 0.031496062992125984
          },
          {
            "duration": 0.125,
            "durationTicks": 96,
            "midi": 59,
            "name": "B3",
            "ticks": 158784,
            "time": 206.75,
            "velocity": 0.031496062992125984
          },
          {
            "duration": 0.125,
            "durationTicks": 96,
            "midi": 56,
            "name": "G#3",
            "ticks": 158784,
            "time": 206.75,
            "velocity": 0.031496062992125984
          },
          {
            "duration": 0.125,
            "durationTicks": 96,
            "midi": 59,
            "name": "B3",
            "ticks": 158880,
            "time": 206.875,
            "velocity": 0.031496062992125984
          },
          {
            "duration": 0.125,
            "durationTicks": 96,
            "midi": 52,
            "name": "E3",
            "ticks": 158880,
            "time": 206.875,
            "velocity": 0.031496062992125984
          },
          {
            "duration": 0.125,
            "durationTicks": 96,
            "midi": 56,
            "name": "G#3",
            "ticks": 158880,
            "time": 206.875,
            "velocity": 0.031496062992125984
          },
          {
            "duration": 0.125,
            "durationTicks": 96,
            "midi": 59,
            "name": "B3",
            "ticks": 158976,
            "time": 207,
            "velocity": 0.031496062992125984
          },
          {
            "duration": 0.125,
            "durationTicks": 96,
            "midi": 52,
            "name": "E3",
            "ticks": 158976,
            "time": 207,
            "velocity": 0.031496062992125984
          },
          {
            "duration": 0.125,
            "durationTicks": 96,
            "midi": 56,
            "name": "G#3",
            "ticks": 158976,
            "time": 207,
            "velocity": 0.031496062992125984
          },
          {
            "duration": 0.125,
            "durationTicks": 96,
            "midi": 59,
            "name": "B3",
            "ticks": 159072,
            "time": 207.125,
            "velocity": 0.023622047244094488
          },
          {
            "duration": 0.125,
            "durationTicks": 96,
            "midi": 52,
            "name": "E3",
            "ticks": 159072,
            "time": 207.125,
            "velocity": 0.023622047244094488
          },
          {
            "duration": 0.125,
            "durationTicks": 96,
            "midi": 56,
            "name": "G#3",
            "ticks": 159072,
            "time": 207.125,
            "velocity": 0.023622047244094488
          },
          {
            "duration": 0.125,
            "durationTicks": 96,
            "midi": 56,
            "name": "G#3",
            "ticks": 159168,
            "time": 207.25,
            "velocity": 0.023622047244094488
          },
          {
            "duration": 0.125,
            "durationTicks": 96,
            "midi": 52,
            "name": "E3",
            "ticks": 159168,
            "time": 207.25,
            "velocity": 0.023622047244094488
          },
          {
            "duration": 0.125,
            "durationTicks": 96,
            "midi": 59,
            "name": "B3",
            "ticks": 159168,
            "time": 207.25,
            "velocity": 0.023622047244094488
          },
          {
            "duration": 0.125,
            "durationTicks": 96,
            "midi": 52,
            "name": "E3",
            "ticks": 159264,
            "time": 207.375,
            "velocity": 0.023622047244094488
          },
          {
            "duration": 0.125,
            "durationTicks": 96,
            "midi": 56,
            "name": "G#3",
            "ticks": 159264,
            "time": 207.375,
            "velocity": 0.023622047244094488
          },
          {
            "duration": 0.125,
            "durationTicks": 96,
            "midi": 59,
            "name": "B3",
            "ticks": 159264,
            "time": 207.375,
            "velocity": 0.023622047244094488
          },
          {
            "duration": 0.125,
            "durationTicks": 96,
            "midi": 52,
            "name": "E3",
            "ticks": 159360,
            "time": 207.5,
            "velocity": 0.023622047244094488
          },
          {
            "duration": 0.125,
            "durationTicks": 96,
            "midi": 56,
            "name": "G#3",
            "ticks": 159360,
            "time": 207.5,
            "velocity": 0.023622047244094488
          },
          {
            "duration": 0.125,
            "durationTicks": 96,
            "midi": 59,
            "name": "B3",
            "ticks": 159360,
            "time": 207.5,
            "velocity": 0.023622047244094488
          },
          {
            "duration": 0.125,
            "durationTicks": 96,
            "midi": 52,
            "name": "E3",
            "ticks": 159456,
            "time": 207.625,
            "velocity": 0.015748031496062992
          },
          {
            "duration": 0.125,
            "durationTicks": 96,
            "midi": 59,
            "name": "B3",
            "ticks": 159456,
            "time": 207.625,
            "velocity": 0.015748031496062992
          },
          {
            "duration": 0.125,
            "durationTicks": 96,
            "midi": 56,
            "name": "G#3",
            "ticks": 159456,
            "time": 207.625,
            "velocity": 0.015748031496062992
          },
          {
            "duration": 0.125,
            "durationTicks": 96,
            "midi": 56,
            "name": "G#3",
            "ticks": 159552,
            "time": 207.75,
            "velocity": 0.015748031496062992
          },
          {
            "duration": 0.125,
            "durationTicks": 96,
            "midi": 52,
            "name": "E3",
            "ticks": 159552,
            "time": 207.75,
            "velocity": 0.015748031496062992
          },
          {
            "duration": 0.125,
            "durationTicks": 96,
            "midi": 59,
            "name": "B3",
            "ticks": 159552,
            "time": 207.75,
            "velocity": 0.015748031496062992
          },
          {
            "duration": 0.125,
            "durationTicks": 96,
            "midi": 59,
            "name": "B3",
            "ticks": 159648,
            "time": 207.875,
            "velocity": 0.015748031496062992
          },
          {
            "duration": 0.125,
            "durationTicks": 96,
            "midi": 52,
            "name": "E3",
            "ticks": 159648,
            "time": 207.875,
            "velocity": 0.015748031496062992
          },
          {
            "duration": 0.125,
            "durationTicks": 96,
            "midi": 56,
            "name": "G#3",
            "ticks": 159648,
            "time": 207.875,
            "velocity": 0.015748031496062992
          },
          {
            "duration": 0.125,
            "durationTicks": 96,
            "midi": 59,
            "name": "B3",
            "ticks": 159744,
            "time": 208,
            "velocity": 0.03937007874015748
          },
          {
            "duration": 0.125,
            "durationTicks": 96,
            "midi": 56,
            "name": "G#3",
            "ticks": 159744,
            "time": 208,
            "velocity": 0.03937007874015748
          },
          {
            "duration": 0.125,
            "durationTicks": 96,
            "midi": 52,
            "name": "E3",
            "ticks": 159744,
            "time": 208,
            "velocity": 0.03937007874015748
          },
          {
            "duration": 0.125,
            "durationTicks": 96,
            "midi": 52,
            "name": "E3",
            "ticks": 159840,
            "time": 208.125,
            "velocity": 0.03937007874015748
          },
          {
            "duration": 0.125,
            "durationTicks": 96,
            "midi": 56,
            "name": "G#3",
            "ticks": 159840,
            "time": 208.125,
            "velocity": 0.03937007874015748
          },
          {
            "duration": 0.125,
            "durationTicks": 96,
            "midi": 59,
            "name": "B3",
            "ticks": 159840,
            "time": 208.125,
            "velocity": 0.03937007874015748
          },
          {
            "duration": 0.125,
            "durationTicks": 96,
            "midi": 52,
            "name": "E3",
            "ticks": 159936,
            "time": 208.25,
            "velocity": 0.031496062992125984
          },
          {
            "duration": 0.125,
            "durationTicks": 96,
            "midi": 56,
            "name": "G#3",
            "ticks": 159936,
            "time": 208.25,
            "velocity": 0.031496062992125984
          },
          {
            "duration": 0.125,
            "durationTicks": 96,
            "midi": 59,
            "name": "B3",
            "ticks": 159936,
            "time": 208.25,
            "velocity": 0.031496062992125984
          },
          {
            "duration": 0.125,
            "durationTicks": 96,
            "midi": 59,
            "name": "B3",
            "ticks": 160032,
            "time": 208.375,
            "velocity": 0.031496062992125984
          },
          {
            "duration": 0.125,
            "durationTicks": 96,
            "midi": 56,
            "name": "G#3",
            "ticks": 160032,
            "time": 208.375,
            "velocity": 0.031496062992125984
          },
          {
            "duration": 0.125,
            "durationTicks": 96,
            "midi": 52,
            "name": "E3",
            "ticks": 160032,
            "time": 208.375,
            "velocity": 0.031496062992125984
          },
          {
            "duration": 0.125,
            "durationTicks": 96,
            "midi": 54,
            "name": "F#3",
            "ticks": 160128,
            "time": 208.5,
            "velocity": 0.03937007874015748
          },
          {
            "duration": 0.125,
            "durationTicks": 96,
            "midi": 58,
            "name": "A#3",
            "ticks": 160128,
            "time": 208.5,
            "velocity": 0.03937007874015748
          },
          {
            "duration": 0.125,
            "durationTicks": 96,
            "midi": 49,
            "name": "C#3",
            "ticks": 160128,
            "time": 208.5,
            "velocity": 0.03937007874015748
          },
          {
            "duration": 0.125,
            "durationTicks": 96,
            "midi": 49,
            "name": "C#3",
            "ticks": 160224,
            "time": 208.625,
            "velocity": 0.03937007874015748
          },
          {
            "duration": 0.125,
            "durationTicks": 96,
            "midi": 58,
            "name": "A#3",
            "ticks": 160224,
            "time": 208.625,
            "velocity": 0.03937007874015748
          },
          {
            "duration": 0.125,
            "durationTicks": 96,
            "midi": 54,
            "name": "F#3",
            "ticks": 160224,
            "time": 208.625,
            "velocity": 0.03937007874015748
          },
          {
            "duration": 0.125,
            "durationTicks": 96,
            "midi": 58,
            "name": "A#3",
            "ticks": 160320,
            "time": 208.75,
            "velocity": 0.031496062992125984
          },
          {
            "duration": 0.125,
            "durationTicks": 96,
            "midi": 49,
            "name": "C#3",
            "ticks": 160320,
            "time": 208.75,
            "velocity": 0.031496062992125984
          },
          {
            "duration": 0.125,
            "durationTicks": 96,
            "midi": 54,
            "name": "F#3",
            "ticks": 160320,
            "time": 208.75,
            "velocity": 0.031496062992125984
          },
          {
            "duration": 0.125,
            "durationTicks": 96,
            "midi": 49,
            "name": "C#3",
            "ticks": 160416,
            "time": 208.875,
            "velocity": 0.031496062992125984
          },
          {
            "duration": 0.125,
            "durationTicks": 96,
            "midi": 58,
            "name": "A#3",
            "ticks": 160416,
            "time": 208.875,
            "velocity": 0.031496062992125984
          },
          {
            "duration": 0.125,
            "durationTicks": 96,
            "midi": 54,
            "name": "F#3",
            "ticks": 160416,
            "time": 208.875,
            "velocity": 0.031496062992125984
          },
          {
            "duration": 0.125,
            "durationTicks": 96,
            "midi": 52,
            "name": "E3",
            "ticks": 160512,
            "time": 209,
            "velocity": 0.03937007874015748
          },
          {
            "duration": 0.125,
            "durationTicks": 96,
            "midi": 49,
            "name": "C#3",
            "ticks": 160512,
            "time": 209,
            "velocity": 0.03937007874015748
          },
          {
            "duration": 0.125,
            "durationTicks": 96,
            "midi": 56,
            "name": "G#3",
            "ticks": 160512,
            "time": 209,
            "velocity": 0.03937007874015748
          },
          {
            "duration": 0.125,
            "durationTicks": 96,
            "midi": 52,
            "name": "E3",
            "ticks": 160608,
            "time": 209.125,
            "velocity": 0.03937007874015748
          },
          {
            "duration": 0.125,
            "durationTicks": 96,
            "midi": 49,
            "name": "C#3",
            "ticks": 160608,
            "time": 209.125,
            "velocity": 0.03937007874015748
          },
          {
            "duration": 0.125,
            "durationTicks": 96,
            "midi": 56,
            "name": "G#3",
            "ticks": 160608,
            "time": 209.125,
            "velocity": 0.03937007874015748
          },
          {
            "duration": 0.125,
            "durationTicks": 96,
            "midi": 49,
            "name": "C#3",
            "ticks": 160704,
            "time": 209.25,
            "velocity": 0.031496062992125984
          },
          {
            "duration": 0.125,
            "durationTicks": 96,
            "midi": 56,
            "name": "G#3",
            "ticks": 160704,
            "time": 209.25,
            "velocity": 0.031496062992125984
          },
          {
            "duration": 0.125,
            "durationTicks": 96,
            "midi": 52,
            "name": "E3",
            "ticks": 160704,
            "time": 209.25,
            "velocity": 0.031496062992125984
          },
          {
            "duration": 0.125,
            "durationTicks": 96,
            "midi": 52,
            "name": "E3",
            "ticks": 160800,
            "time": 209.375,
            "velocity": 0.031496062992125984
          },
          {
            "duration": 0.125,
            "durationTicks": 96,
            "midi": 56,
            "name": "G#3",
            "ticks": 160800,
            "time": 209.375,
            "velocity": 0.031496062992125984
          },
          {
            "duration": 0.125,
            "durationTicks": 96,
            "midi": 49,
            "name": "C#3",
            "ticks": 160800,
            "time": 209.375,
            "velocity": 0.031496062992125984
          },
          {
            "duration": 0.125,
            "durationTicks": 96,
            "midi": 49,
            "name": "C#3",
            "ticks": 160896,
            "time": 209.5,
            "velocity": 0.031496062992125984
          },
          {
            "duration": 0.125,
            "durationTicks": 96,
            "midi": 56,
            "name": "G#3",
            "ticks": 160896,
            "time": 209.5,
            "velocity": 0.031496062992125984
          },
          {
            "duration": 0.125,
            "durationTicks": 96,
            "midi": 52,
            "name": "E3",
            "ticks": 160896,
            "time": 209.5,
            "velocity": 0.031496062992125984
          },
          {
            "duration": 0.125,
            "durationTicks": 96,
            "midi": 52,
            "name": "E3",
            "ticks": 160992,
            "time": 209.625,
            "velocity": 0.031496062992125984
          },
          {
            "duration": 0.125,
            "durationTicks": 96,
            "midi": 56,
            "name": "G#3",
            "ticks": 160992,
            "time": 209.625,
            "velocity": 0.031496062992125984
          },
          {
            "duration": 0.125,
            "durationTicks": 96,
            "midi": 49,
            "name": "C#3",
            "ticks": 160992,
            "time": 209.625,
            "velocity": 0.031496062992125984
          },
          {
            "duration": 0.125,
            "durationTicks": 96,
            "midi": 49,
            "name": "C#3",
            "ticks": 161088,
            "time": 209.75,
            "velocity": 0.023622047244094488
          },
          {
            "duration": 0.125,
            "durationTicks": 96,
            "midi": 56,
            "name": "G#3",
            "ticks": 161088,
            "time": 209.75,
            "velocity": 0.023622047244094488
          },
          {
            "duration": 0.125,
            "durationTicks": 96,
            "midi": 52,
            "name": "E3",
            "ticks": 161088,
            "time": 209.75,
            "velocity": 0.023622047244094488
          },
          {
            "duration": 0.125,
            "durationTicks": 96,
            "midi": 49,
            "name": "C#3",
            "ticks": 161184,
            "time": 209.875,
            "velocity": 0.023622047244094488
          },
          {
            "duration": 0.125,
            "durationTicks": 96,
            "midi": 56,
            "name": "G#3",
            "ticks": 161184,
            "time": 209.875,
            "velocity": 0.023622047244094488
          },
          {
            "duration": 0.125,
            "durationTicks": 96,
            "midi": 52,
            "name": "E3",
            "ticks": 161184,
            "time": 209.875,
            "velocity": 0.023622047244094488
          },
          {
            "duration": 0.125,
            "durationTicks": 96,
            "midi": 54,
            "name": "F#3",
            "ticks": 161280,
            "time": 210,
            "velocity": 0.03937007874015748
          },
          {
            "duration": 0.125,
            "durationTicks": 96,
            "midi": 49,
            "name": "C#3",
            "ticks": 161280,
            "time": 210,
            "velocity": 0.03937007874015748
          },
          {
            "duration": 0.125,
            "durationTicks": 96,
            "midi": 46,
            "name": "A#2",
            "ticks": 161280,
            "time": 210,
            "velocity": 0.03937007874015748
          },
          {
            "duration": 0.125,
            "durationTicks": 96,
            "midi": 54,
            "name": "F#3",
            "ticks": 161376,
            "time": 210.125,
            "velocity": 0.03937007874015748
          },
          {
            "duration": 0.125,
            "durationTicks": 96,
            "midi": 49,
            "name": "C#3",
            "ticks": 161376,
            "time": 210.125,
            "velocity": 0.03937007874015748
          },
          {
            "duration": 0.125,
            "durationTicks": 96,
            "midi": 46,
            "name": "A#2",
            "ticks": 161376,
            "time": 210.125,
            "velocity": 0.03937007874015748
          },
          {
            "duration": 0.125,
            "durationTicks": 96,
            "midi": 46,
            "name": "A#2",
            "ticks": 161472,
            "time": 210.25,
            "velocity": 0.031496062992125984
          },
          {
            "duration": 0.125,
            "durationTicks": 96,
            "midi": 49,
            "name": "C#3",
            "ticks": 161472,
            "time": 210.25,
            "velocity": 0.031496062992125984
          },
          {
            "duration": 0.125,
            "durationTicks": 96,
            "midi": 54,
            "name": "F#3",
            "ticks": 161472,
            "time": 210.25,
            "velocity": 0.031496062992125984
          },
          {
            "duration": 0.125,
            "durationTicks": 96,
            "midi": 54,
            "name": "F#3",
            "ticks": 161568,
            "time": 210.375,
            "velocity": 0.031496062992125984
          },
          {
            "duration": 0.125,
            "durationTicks": 96,
            "midi": 49,
            "name": "C#3",
            "ticks": 161568,
            "time": 210.375,
            "velocity": 0.031496062992125984
          },
          {
            "duration": 0.125,
            "durationTicks": 96,
            "midi": 46,
            "name": "A#2",
            "ticks": 161568,
            "time": 210.375,
            "velocity": 0.031496062992125984
          },
          {
            "duration": 0.125,
            "durationTicks": 96,
            "midi": 54,
            "name": "F#3",
            "ticks": 161664,
            "time": 210.5,
            "velocity": 0.031496062992125984
          },
          {
            "duration": 0.125,
            "durationTicks": 96,
            "midi": 46,
            "name": "A#2",
            "ticks": 161664,
            "time": 210.5,
            "velocity": 0.031496062992125984
          },
          {
            "duration": 0.125,
            "durationTicks": 96,
            "midi": 49,
            "name": "C#3",
            "ticks": 161664,
            "time": 210.5,
            "velocity": 0.031496062992125984
          },
          {
            "duration": 0.125,
            "durationTicks": 96,
            "midi": 54,
            "name": "F#3",
            "ticks": 161760,
            "time": 210.625,
            "velocity": 0.031496062992125984
          },
          {
            "duration": 0.125,
            "durationTicks": 96,
            "midi": 49,
            "name": "C#3",
            "ticks": 161760,
            "time": 210.625,
            "velocity": 0.031496062992125984
          },
          {
            "duration": 0.125,
            "durationTicks": 96,
            "midi": 46,
            "name": "A#2",
            "ticks": 161760,
            "time": 210.625,
            "velocity": 0.031496062992125984
          },
          {
            "duration": 0.125,
            "durationTicks": 96,
            "midi": 54,
            "name": "F#3",
            "ticks": 161856,
            "time": 210.75,
            "velocity": 0.023622047244094488
          },
          {
            "duration": 0.125,
            "durationTicks": 96,
            "midi": 49,
            "name": "C#3",
            "ticks": 161856,
            "time": 210.75,
            "velocity": 0.023622047244094488
          },
          {
            "duration": 0.125,
            "durationTicks": 96,
            "midi": 46,
            "name": "A#2",
            "ticks": 161856,
            "time": 210.75,
            "velocity": 0.023622047244094488
          },
          {
            "duration": 0.125,
            "durationTicks": 96,
            "midi": 54,
            "name": "F#3",
            "ticks": 161952,
            "time": 210.875,
            "velocity": 0.023622047244094488
          },
          {
            "duration": 0.125,
            "durationTicks": 96,
            "midi": 49,
            "name": "C#3",
            "ticks": 161952,
            "time": 210.875,
            "velocity": 0.023622047244094488
          },
          {
            "duration": 0.125,
            "durationTicks": 96,
            "midi": 46,
            "name": "A#2",
            "ticks": 161952,
            "time": 210.875,
            "velocity": 0.023622047244094488
          },
          {
            "duration": 0.125,
            "durationTicks": 96,
            "midi": 54,
            "name": "F#3",
            "ticks": 162048,
            "time": 211,
            "velocity": 0.023622047244094488
          },
          {
            "duration": 0.125,
            "durationTicks": 96,
            "midi": 49,
            "name": "C#3",
            "ticks": 162048,
            "time": 211,
            "velocity": 0.023622047244094488
          },
          {
            "duration": 0.125,
            "durationTicks": 96,
            "midi": 46,
            "name": "A#2",
            "ticks": 162048,
            "time": 211,
            "velocity": 0.023622047244094488
          },
          {
            "duration": 0.125,
            "durationTicks": 96,
            "midi": 54,
            "name": "F#3",
            "ticks": 162144,
            "time": 211.125,
            "velocity": 0.023622047244094488
          },
          {
            "duration": 0.125,
            "durationTicks": 96,
            "midi": 49,
            "name": "C#3",
            "ticks": 162144,
            "time": 211.125,
            "velocity": 0.023622047244094488
          },
          {
            "duration": 0.125,
            "durationTicks": 96,
            "midi": 46,
            "name": "A#2",
            "ticks": 162144,
            "time": 211.125,
            "velocity": 0.023622047244094488
          },
          {
            "duration": 0.125,
            "durationTicks": 96,
            "midi": 49,
            "name": "C#3",
            "ticks": 162240,
            "time": 211.25,
            "velocity": 0.015748031496062992
          },
          {
            "duration": 0.125,
            "durationTicks": 96,
            "midi": 46,
            "name": "A#2",
            "ticks": 162240,
            "time": 211.25,
            "velocity": 0.015748031496062992
          },
          {
            "duration": 0.125,
            "durationTicks": 96,
            "midi": 54,
            "name": "F#3",
            "ticks": 162240,
            "time": 211.25,
            "velocity": 0.015748031496062992
          },
          {
            "duration": 0.125,
            "durationTicks": 96,
            "midi": 49,
            "name": "C#3",
            "ticks": 162336,
            "time": 211.375,
            "velocity": 0.015748031496062992
          },
          {
            "duration": 0.125,
            "durationTicks": 96,
            "midi": 54,
            "name": "F#3",
            "ticks": 162336,
            "time": 211.375,
            "velocity": 0.015748031496062992
          },
          {
            "duration": 0.125,
            "durationTicks": 96,
            "midi": 46,
            "name": "A#2",
            "ticks": 162336,
            "time": 211.375,
            "velocity": 0.015748031496062992
          },
          {
            "duration": 0.125,
            "durationTicks": 96,
            "midi": 49,
            "name": "C#3",
            "ticks": 162432,
            "time": 211.5,
            "velocity": 0.015748031496062992
          },
          {
            "duration": 0.125,
            "durationTicks": 96,
            "midi": 46,
            "name": "A#2",
            "ticks": 162432,
            "time": 211.5,
            "velocity": 0.015748031496062992
          },
          {
            "duration": 0.125,
            "durationTicks": 96,
            "midi": 54,
            "name": "F#3",
            "ticks": 162432,
            "time": 211.5,
            "velocity": 0.015748031496062992
          },
          {
            "duration": 0.125,
            "durationTicks": 96,
            "midi": 46,
            "name": "A#2",
            "ticks": 162528,
            "time": 211.625,
            "velocity": 0.015748031496062992
          },
          {
            "duration": 0.125,
            "durationTicks": 96,
            "midi": 49,
            "name": "C#3",
            "ticks": 162528,
            "time": 211.625,
            "velocity": 0.015748031496062992
          },
          {
            "duration": 0.125,
            "durationTicks": 96,
            "midi": 54,
            "name": "F#3",
            "ticks": 162528,
            "time": 211.625,
            "velocity": 0.015748031496062992
          },
          {
            "duration": 0.125,
            "durationTicks": 96,
            "midi": 46,
            "name": "A#2",
            "ticks": 162624,
            "time": 211.75,
            "velocity": 0.007874015748031496
          },
          {
            "duration": 0.125,
            "durationTicks": 96,
            "midi": 49,
            "name": "C#3",
            "ticks": 162624,
            "time": 211.75,
            "velocity": 0.007874015748031496
          },
          {
            "duration": 0.125,
            "durationTicks": 96,
            "midi": 54,
            "name": "F#3",
            "ticks": 162624,
            "time": 211.75,
            "velocity": 0.007874015748031496
          },
          {
            "duration": 0.125,
            "durationTicks": 96,
            "midi": 54,
            "name": "F#3",
            "ticks": 162720,
            "time": 211.875,
            "velocity": 0.007874015748031496
          },
          {
            "duration": 0.125,
            "durationTicks": 96,
            "midi": 49,
            "name": "C#3",
            "ticks": 162720,
            "time": 211.875,
            "velocity": 0.007874015748031496
          },
          {
            "duration": 0.125,
            "durationTicks": 96,
            "midi": 46,
            "name": "A#2",
            "ticks": 162720,
            "time": 211.875,
            "velocity": 0.007874015748031496
          },
          {
            "duration": 0.125,
            "durationTicks": 96,
            "midi": 49,
            "name": "C#3",
            "ticks": 163008,
            "time": 212.25,
            "velocity": 0.03937007874015748
          },
          {
            "duration": 0.125,
            "durationTicks": 96,
            "midi": 45,
            "name": "A2",
            "ticks": 163008,
            "time": 212.25,
            "velocity": 0.03937007874015748
          },
          {
            "duration": 0.125,
            "durationTicks": 96,
            "midi": 52,
            "name": "E3",
            "ticks": 163008,
            "time": 212.25,
            "velocity": 0.03937007874015748
          },
          {
            "duration": 0.125,
            "durationTicks": 96,
            "midi": 49,
            "name": "C#3",
            "ticks": 163104,
            "time": 212.375,
            "velocity": 0.023622047244094488
          },
          {
            "duration": 0.125,
            "durationTicks": 96,
            "midi": 52,
            "name": "E3",
            "ticks": 163104,
            "time": 212.375,
            "velocity": 0.023622047244094488
          },
          {
            "duration": 0.125,
            "durationTicks": 96,
            "midi": 45,
            "name": "A2",
            "ticks": 163104,
            "time": 212.375,
            "velocity": 0.023622047244094488
          },
          {
            "duration": 0.125,
            "durationTicks": 96,
            "midi": 49,
            "name": "C#3",
            "ticks": 163200,
            "time": 212.5,
            "velocity": 0.03937007874015748
          },
          {
            "duration": 0.125,
            "durationTicks": 96,
            "midi": 45,
            "name": "A2",
            "ticks": 163200,
            "time": 212.5,
            "velocity": 0.03937007874015748
          },
          {
            "duration": 0.125,
            "durationTicks": 96,
            "midi": 42,
            "name": "F#2",
            "ticks": 163200,
            "time": 212.5,
            "velocity": 0.03937007874015748
          },
          {
            "duration": 0.125,
            "durationTicks": 96,
            "midi": 45,
            "name": "A2",
            "ticks": 163296,
            "time": 212.625,
            "velocity": 0.023622047244094488
          },
          {
            "duration": 0.125,
            "durationTicks": 96,
            "midi": 49,
            "name": "C#3",
            "ticks": 163296,
            "time": 212.625,
            "velocity": 0.023622047244094488
          },
          {
            "duration": 0.125,
            "durationTicks": 96,
            "midi": 42,
            "name": "F#2",
            "ticks": 163296,
            "time": 212.625,
            "velocity": 0.023622047244094488
          },
          {
            "duration": 0.125,
            "durationTicks": 96,
            "midi": 52,
            "name": "E3",
            "ticks": 163584,
            "time": 213,
            "velocity": 0.03937007874015748
          },
          {
            "duration": 0.125,
            "durationTicks": 96,
            "midi": 49,
            "name": "C#3",
            "ticks": 163584,
            "time": 213,
            "velocity": 0.03937007874015748
          },
          {
            "duration": 0.125,
            "durationTicks": 96,
            "midi": 55,
            "name": "G3",
            "ticks": 163584,
            "time": 213,
            "velocity": 0.03937007874015748
          },
          {
            "duration": 0.125,
            "durationTicks": 96,
            "midi": 52,
            "name": "E3",
            "ticks": 163680,
            "time": 213.125,
            "velocity": 0.023622047244094488
          },
          {
            "duration": 0.125,
            "durationTicks": 96,
            "midi": 49,
            "name": "C#3",
            "ticks": 163680,
            "time": 213.125,
            "velocity": 0.023622047244094488
          },
          {
            "duration": 0.125,
            "durationTicks": 96,
            "midi": 55,
            "name": "G3",
            "ticks": 163680,
            "time": 213.125,
            "velocity": 0.023622047244094488
          },
          {
            "duration": 0.125,
            "durationTicks": 96,
            "midi": 49,
            "name": "C#3",
            "ticks": 163776,
            "time": 213.25,
            "velocity": 0.03937007874015748
          },
          {
            "duration": 0.125,
            "durationTicks": 96,
            "midi": 46,
            "name": "A#2",
            "ticks": 163776,
            "time": 213.25,
            "velocity": 0.03937007874015748
          },
          {
            "duration": 0.125,
            "durationTicks": 96,
            "midi": 52,
            "name": "E3",
            "ticks": 163776,
            "time": 213.25,
            "velocity": 0.03937007874015748
          },
          {
            "duration": 0.125,
            "durationTicks": 96,
            "midi": 52,
            "name": "E3",
            "ticks": 163872,
            "time": 213.375,
            "velocity": 0.023622047244094488
          },
          {
            "duration": 0.125,
            "durationTicks": 96,
            "midi": 49,
            "name": "C#3",
            "ticks": 163872,
            "time": 213.375,
            "velocity": 0.023622047244094488
          },
          {
            "duration": 0.125,
            "durationTicks": 96,
            "midi": 46,
            "name": "A#2",
            "ticks": 163872,
            "time": 213.375,
            "velocity": 0.023622047244094488
          },
          {
            "duration": 0.125,
            "durationTicks": 96,
            "midi": 59,
            "name": "B3",
            "ticks": 164160,
            "time": 213.75,
            "velocity": 0.03937007874015748
          },
          {
            "duration": 0.125,
            "durationTicks": 96,
            "midi": 55,
            "name": "G3",
            "ticks": 164160,
            "time": 213.75,
            "velocity": 0.03937007874015748
          },
          {
            "duration": 0.125,
            "durationTicks": 96,
            "midi": 52,
            "name": "E3",
            "ticks": 164160,
            "time": 213.75,
            "velocity": 0.03937007874015748
          },
          {
            "duration": 0.125,
            "durationTicks": 96,
            "midi": 52,
            "name": "E3",
            "ticks": 164256,
            "time": 213.875,
            "velocity": 0.023622047244094488
          },
          {
            "duration": 0.125,
            "durationTicks": 96,
            "midi": 55,
            "name": "G3",
            "ticks": 164256,
            "time": 213.875,
            "velocity": 0.023622047244094488
          },
          {
            "duration": 0.125,
            "durationTicks": 96,
            "midi": 59,
            "name": "B3",
            "ticks": 164256,
            "time": 213.875,
            "velocity": 0.023622047244094488
          },
          {
            "duration": 0.125,
            "durationTicks": 96,
            "midi": 49,
            "name": "C#3",
            "ticks": 164352,
            "time": 214,
            "velocity": 0.03937007874015748
          },
          {
            "duration": 0.125,
            "durationTicks": 96,
            "midi": 52,
            "name": "E3",
            "ticks": 164352,
            "time": 214,
            "velocity": 0.03937007874015748
          },
          {
            "duration": 0.125,
            "durationTicks": 96,
            "midi": 55,
            "name": "G3",
            "ticks": 164352,
            "time": 214,
            "velocity": 0.03937007874015748
          },
          {
            "duration": 0.125,
            "durationTicks": 96,
            "midi": 52,
            "name": "E3",
            "ticks": 164448,
            "time": 214.125,
            "velocity": 0.023622047244094488
          },
          {
            "duration": 0.125,
            "durationTicks": 96,
            "midi": 49,
            "name": "C#3",
            "ticks": 164448,
            "time": 214.125,
            "velocity": 0.023622047244094488
          },
          {
            "duration": 0.125,
            "durationTicks": 96,
            "midi": 55,
            "name": "G3",
            "ticks": 164448,
            "time": 214.125,
            "velocity": 0.023622047244094488
          },
          {
            "duration": 0.125,
            "durationTicks": 96,
            "midi": 58,
            "name": "A#3",
            "ticks": 164736,
            "time": 214.5,
            "velocity": 0.03937007874015748
          },
          {
            "duration": 0.125,
            "durationTicks": 96,
            "midi": 55,
            "name": "G3",
            "ticks": 164736,
            "time": 214.5,
            "velocity": 0.03937007874015748
          },
          {
            "duration": 0.125,
            "durationTicks": 96,
            "midi": 61,
            "name": "C#4",
            "ticks": 164736,
            "time": 214.5,
            "velocity": 0.03937007874015748
          },
          {
            "duration": 0.125,
            "durationTicks": 96,
            "midi": 61,
            "name": "C#4",
            "ticks": 164832,
            "time": 214.625,
            "velocity": 0.023622047244094488
          },
          {
            "duration": 0.125,
            "durationTicks": 96,
            "midi": 58,
            "name": "A#3",
            "ticks": 164832,
            "time": 214.625,
            "velocity": 0.023622047244094488
          },
          {
            "duration": 0.125,
            "durationTicks": 96,
            "midi": 55,
            "name": "G3",
            "ticks": 164832,
            "time": 214.625,
            "velocity": 0.023622047244094488
          },
          {
            "duration": 0.125,
            "durationTicks": 96,
            "midi": 52,
            "name": "E3",
            "ticks": 164928,
            "time": 214.75,
            "velocity": 0.03937007874015748
          },
          {
            "duration": 0.125,
            "durationTicks": 96,
            "midi": 58,
            "name": "A#3",
            "ticks": 164928,
            "time": 214.75,
            "velocity": 0.03937007874015748
          },
          {
            "duration": 0.125,
            "durationTicks": 96,
            "midi": 55,
            "name": "G3",
            "ticks": 164928,
            "time": 214.75,
            "velocity": 0.03937007874015748
          },
          {
            "duration": 0.125,
            "durationTicks": 96,
            "midi": 58,
            "name": "A#3",
            "ticks": 165024,
            "time": 214.875,
            "velocity": 0.023622047244094488
          },
          {
            "duration": 0.125,
            "durationTicks": 96,
            "midi": 55,
            "name": "G3",
            "ticks": 165024,
            "time": 214.875,
            "velocity": 0.023622047244094488
          },
          {
            "duration": 0.125,
            "durationTicks": 96,
            "midi": 52,
            "name": "E3",
            "ticks": 165024,
            "time": 214.875,
            "velocity": 0.023622047244094488
          },
          {
            "duration": 0.125,
            "durationTicks": 96,
            "midi": 57,
            "name": "A3",
            "ticks": 165312,
            "time": 215.25,
            "velocity": 0.03937007874015748
          },
          {
            "duration": 0.125,
            "durationTicks": 96,
            "midi": 61,
            "name": "C#4",
            "ticks": 165312,
            "time": 215.25,
            "velocity": 0.03937007874015748
          },
          {
            "duration": 0.125,
            "durationTicks": 96,
            "midi": 64,
            "name": "E4",
            "ticks": 165312,
            "time": 215.25,
            "velocity": 0.03937007874015748
          },
          {
            "duration": 0.125,
            "durationTicks": 96,
            "midi": 61,
            "name": "C#4",
            "ticks": 165408,
            "time": 215.375,
            "velocity": 0.023622047244094488
          },
          {
            "duration": 0.125,
            "durationTicks": 96,
            "midi": 64,
            "name": "E4",
            "ticks": 165408,
            "time": 215.375,
            "velocity": 0.023622047244094488
          },
          {
            "duration": 0.125,
            "durationTicks": 96,
            "midi": 57,
            "name": "A3",
            "ticks": 165408,
            "time": 215.375,
            "velocity": 0.023622047244094488
          },
          {
            "duration": 0.125,
            "durationTicks": 96,
            "midi": 54,
            "name": "F#3",
            "ticks": 165504,
            "time": 215.5,
            "velocity": 0.03937007874015748
          },
          {
            "duration": 0.125,
            "durationTicks": 96,
            "midi": 61,
            "name": "C#4",
            "ticks": 165504,
            "time": 215.5,
            "velocity": 0.03937007874015748
          },
          {
            "duration": 0.125,
            "durationTicks": 96,
            "midi": 57,
            "name": "A3",
            "ticks": 165504,
            "time": 215.5,
            "velocity": 0.03937007874015748
          },
          {
            "duration": 0.125,
            "durationTicks": 96,
            "midi": 54,
            "name": "F#3",
            "ticks": 165600,
            "time": 215.625,
            "velocity": 0.023622047244094488
          },
          {
            "duration": 0.125,
            "durationTicks": 96,
            "midi": 57,
            "name": "A3",
            "ticks": 165600,
            "time": 215.625,
            "velocity": 0.023622047244094488
          },
          {
            "duration": 0.125,
            "durationTicks": 96,
            "midi": 61,
            "name": "C#4",
            "ticks": 165600,
            "time": 215.625,
            "velocity": 0.023622047244094488
          },
          {
            "duration": 0.125,
            "durationTicks": 96,
            "midi": 66,
            "name": "F#4",
            "ticks": 165696,
            "time": 215.75,
            "velocity": 0.047244094488188976
          },
          {
            "duration": 0.125,
            "durationTicks": 96,
            "midi": 64,
            "name": "E4",
            "ticks": 165696,
            "time": 215.75,
            "velocity": 0.047244094488188976
          },
          {
            "duration": 0.125,
            "durationTicks": 96,
            "midi": 59,
            "name": "B3",
            "ticks": 165696,
            "time": 215.75,
            "velocity": 0.047244094488188976
          },
          {
            "duration": 0.125,
            "durationTicks": 96,
            "midi": 64,
            "name": "E4",
            "ticks": 165792,
            "time": 215.875,
            "velocity": 0.047244094488188976
          },
          {
            "duration": 0.125,
            "durationTicks": 96,
            "midi": 66,
            "name": "F#4",
            "ticks": 165792,
            "time": 215.875,
            "velocity": 0.047244094488188976
          },
          {
            "duration": 0.125,
            "durationTicks": 96,
            "midi": 59,
            "name": "B3",
            "ticks": 165792,
            "time": 215.875,
            "velocity": 0.047244094488188976
          },
          {
            "duration": 0.125,
            "durationTicks": 96,
            "midi": 59,
            "name": "B3",
            "ticks": 165888,
            "time": 216,
            "velocity": 0.03937007874015748
          },
          {
            "duration": 0.125,
            "durationTicks": 96,
            "midi": 64,
            "name": "E4",
            "ticks": 165888,
            "time": 216,
            "velocity": 0.03937007874015748
          },
          {
            "duration": 0.125,
            "durationTicks": 96,
            "midi": 66,
            "name": "F#4",
            "ticks": 165888,
            "time": 216,
            "velocity": 0.03937007874015748
          },
          {
            "duration": 0.125,
            "durationTicks": 96,
            "midi": 66,
            "name": "F#4",
            "ticks": 165984,
            "time": 216.125,
            "velocity": 0.03937007874015748
          },
          {
            "duration": 0.125,
            "durationTicks": 96,
            "midi": 64,
            "name": "E4",
            "ticks": 165984,
            "time": 216.125,
            "velocity": 0.03937007874015748
          },
          {
            "duration": 0.125,
            "durationTicks": 96,
            "midi": 59,
            "name": "B3",
            "ticks": 165984,
            "time": 216.125,
            "velocity": 0.03937007874015748
          },
          {
            "duration": 0.125,
            "durationTicks": 96,
            "midi": 59,
            "name": "B3",
            "ticks": 166080,
            "time": 216.25,
            "velocity": 0.031496062992125984
          },
          {
            "duration": 0.125,
            "durationTicks": 96,
            "midi": 66,
            "name": "F#4",
            "ticks": 166080,
            "time": 216.25,
            "velocity": 0.031496062992125984
          },
          {
            "duration": 0.125,
            "durationTicks": 96,
            "midi": 64,
            "name": "E4",
            "ticks": 166080,
            "time": 216.25,
            "velocity": 0.031496062992125984
          },
          {
            "duration": 0.125,
            "durationTicks": 96,
            "midi": 66,
            "name": "F#4",
            "ticks": 166176,
            "time": 216.375,
            "velocity": 0.031496062992125984
          },
          {
            "duration": 0.125,
            "durationTicks": 96,
            "midi": 64,
            "name": "E4",
            "ticks": 166176,
            "time": 216.375,
            "velocity": 0.031496062992125984
          },
          {
            "duration": 0.125,
            "durationTicks": 96,
            "midi": 59,
            "name": "B3",
            "ticks": 166176,
            "time": 216.375,
            "velocity": 0.031496062992125984
          },
          {
            "duration": 0.125,
            "durationTicks": 96,
            "midi": 64,
            "name": "E4",
            "ticks": 166272,
            "time": 216.5,
            "velocity": 0.031496062992125984
          },
          {
            "duration": 0.125,
            "durationTicks": 96,
            "midi": 66,
            "name": "F#4",
            "ticks": 166272,
            "time": 216.5,
            "velocity": 0.031496062992125984
          },
          {
            "duration": 0.125,
            "durationTicks": 96,
            "midi": 59,
            "name": "B3",
            "ticks": 166272,
            "time": 216.5,
            "velocity": 0.031496062992125984
          },
          {
            "duration": 0.125,
            "durationTicks": 96,
            "midi": 66,
            "name": "F#4",
            "ticks": 166368,
            "time": 216.625,
            "velocity": 0.031496062992125984
          },
          {
            "duration": 0.125,
            "durationTicks": 96,
            "midi": 59,
            "name": "B3",
            "ticks": 166368,
            "time": 216.625,
            "velocity": 0.031496062992125984
          },
          {
            "duration": 0.125,
            "durationTicks": 96,
            "midi": 64,
            "name": "E4",
            "ticks": 166368,
            "time": 216.625,
            "velocity": 0.031496062992125984
          },
          {
            "duration": 0.125,
            "durationTicks": 96,
            "midi": 66,
            "name": "F#4",
            "ticks": 166464,
            "time": 216.75,
            "velocity": 0.023622047244094488
          },
          {
            "duration": 0.125,
            "durationTicks": 96,
            "midi": 64,
            "name": "E4",
            "ticks": 166464,
            "time": 216.75,
            "velocity": 0.023622047244094488
          },
          {
            "duration": 0.125,
            "durationTicks": 96,
            "midi": 59,
            "name": "B3",
            "ticks": 166464,
            "time": 216.75,
            "velocity": 0.023622047244094488
          },
          {
            "duration": 0.125,
            "durationTicks": 96,
            "midi": 59,
            "name": "B3",
            "ticks": 166560,
            "time": 216.875,
            "velocity": 0.023622047244094488
          },
          {
            "duration": 0.125,
            "durationTicks": 96,
            "midi": 66,
            "name": "F#4",
            "ticks": 166560,
            "time": 216.875,
            "velocity": 0.023622047244094488
          },
          {
            "duration": 0.125,
            "durationTicks": 96,
            "midi": 64,
            "name": "E4",
            "ticks": 166560,
            "time": 216.875,
            "velocity": 0.023622047244094488
          },
          {
            "duration": 0.125,
            "durationTicks": 96,
            "midi": 66,
            "name": "F#4",
            "ticks": 166656,
            "time": 217,
            "velocity": 0.023622047244094488
          },
          {
            "duration": 0.125,
            "durationTicks": 96,
            "midi": 59,
            "name": "B3",
            "ticks": 166656,
            "time": 217,
            "velocity": 0.023622047244094488
          },
          {
            "duration": 0.125,
            "durationTicks": 96,
            "midi": 64,
            "name": "E4",
            "ticks": 166656,
            "time": 217,
            "velocity": 0.023622047244094488
          },
          {
            "duration": 0.125,
            "durationTicks": 96,
            "midi": 64,
            "name": "E4",
            "ticks": 166752,
            "time": 217.125,
            "velocity": 0.023622047244094488
          },
          {
            "duration": 0.125,
            "durationTicks": 96,
            "midi": 66,
            "name": "F#4",
            "ticks": 166752,
            "time": 217.125,
            "velocity": 0.023622047244094488
          },
          {
            "duration": 0.125,
            "durationTicks": 96,
            "midi": 59,
            "name": "B3",
            "ticks": 166752,
            "time": 217.125,
            "velocity": 0.023622047244094488
          },
          {
            "duration": 0.125,
            "durationTicks": 96,
            "midi": 66,
            "name": "F#4",
            "ticks": 166848,
            "time": 217.25,
            "velocity": 0.015748031496062992
          },
          {
            "duration": 0.125,
            "durationTicks": 96,
            "midi": 59,
            "name": "B3",
            "ticks": 166848,
            "time": 217.25,
            "velocity": 0.015748031496062992
          },
          {
            "duration": 0.125,
            "durationTicks": 96,
            "midi": 64,
            "name": "E4",
            "ticks": 166848,
            "time": 217.25,
            "velocity": 0.015748031496062992
          },
          {
            "duration": 0.125,
            "durationTicks": 96,
            "midi": 59,
            "name": "B3",
            "ticks": 166944,
            "time": 217.375,
            "velocity": 0.015748031496062992
          },
          {
            "duration": 0.125,
            "durationTicks": 96,
            "midi": 64,
            "name": "E4",
            "ticks": 166944,
            "time": 217.375,
            "velocity": 0.015748031496062992
          },
          {
            "duration": 0.125,
            "durationTicks": 96,
            "midi": 66,
            "name": "F#4",
            "ticks": 166944,
            "time": 217.375,
            "velocity": 0.015748031496062992
          },
          {
            "duration": 0.125,
            "durationTicks": 96,
            "midi": 66,
            "name": "F#4",
            "ticks": 167040,
            "time": 217.5,
            "velocity": 0.015748031496062992
          },
          {
            "duration": 0.125,
            "durationTicks": 96,
            "midi": 64,
            "name": "E4",
            "ticks": 167040,
            "time": 217.5,
            "velocity": 0.015748031496062992
          },
          {
            "duration": 0.125,
            "durationTicks": 96,
            "midi": 59,
            "name": "B3",
            "ticks": 167040,
            "time": 217.5,
            "velocity": 0.015748031496062992
          },
          {
            "duration": 0.125,
            "durationTicks": 96,
            "midi": 64,
            "name": "E4",
            "ticks": 167136,
            "time": 217.625,
            "velocity": 0.015748031496062992
          },
          {
            "duration": 0.125,
            "durationTicks": 96,
            "midi": 59,
            "name": "B3",
            "ticks": 167136,
            "time": 217.625,
            "velocity": 0.015748031496062992
          },
          {
            "duration": 0.125,
            "durationTicks": 96,
            "midi": 66,
            "name": "F#4",
            "ticks": 167136,
            "time": 217.625,
            "velocity": 0.015748031496062992
          },
          {
            "duration": 0.125,
            "durationTicks": 96,
            "midi": 66,
            "name": "F#4",
            "ticks": 167232,
            "time": 217.75,
            "velocity": 0.007874015748031496
          },
          {
            "duration": 0.125,
            "durationTicks": 96,
            "midi": 64,
            "name": "E4",
            "ticks": 167232,
            "time": 217.75,
            "velocity": 0.007874015748031496
          },
          {
            "duration": 0.125,
            "durationTicks": 96,
            "midi": 59,
            "name": "B3",
            "ticks": 167232,
            "time": 217.75,
            "velocity": 0.007874015748031496
          },
          {
            "duration": 0.125,
            "durationTicks": 96,
            "midi": 59,
            "name": "B3",
            "ticks": 167328,
            "time": 217.875,
            "velocity": 0.007874015748031496
          },
          {
            "duration": 0.125,
            "durationTicks": 96,
            "midi": 66,
            "name": "F#4",
            "ticks": 167328,
            "time": 217.875,
            "velocity": 0.007874015748031496
          },
          {
            "duration": 0.125,
            "durationTicks": 96,
            "midi": 64,
            "name": "E4",
            "ticks": 167328,
            "time": 217.875,
            "velocity": 0.007874015748031496
          },
          {
            "duration": 0.125,
            "durationTicks": 96,
            "midi": 56,
            "name": "G#3",
            "ticks": 167424,
            "time": 218,
            "velocity": 0.03937007874015748
          },
          {
            "duration": 0.125,
            "durationTicks": 96,
            "midi": 52,
            "name": "E3",
            "ticks": 167424,
            "time": 218,
            "velocity": 0.03937007874015748
          },
          {
            "duration": 0.125,
            "durationTicks": 96,
            "midi": 61,
            "name": "C#4",
            "ticks": 167424,
            "time": 218,
            "velocity": 0.03937007874015748
          },
          {
            "duration": 0.125,
            "durationTicks": 96,
            "midi": 52,
            "name": "E3",
            "ticks": 167520,
            "time": 218.125,
            "velocity": 0.03937007874015748
          },
          {
            "duration": 0.125,
            "durationTicks": 96,
            "midi": 61,
            "name": "C#4",
            "ticks": 167520,
            "time": 218.125,
            "velocity": 0.03937007874015748
          },
          {
            "duration": 0.125,
            "durationTicks": 96,
            "midi": 56,
            "name": "G#3",
            "ticks": 167520,
            "time": 218.125,
            "velocity": 0.03937007874015748
          },
          {
            "duration": 0.125,
            "durationTicks": 96,
            "midi": 61,
            "name": "C#4",
            "ticks": 167616,
            "time": 218.25,
            "velocity": 0.031496062992125984
          },
          {
            "duration": 0.125,
            "durationTicks": 96,
            "midi": 56,
            "name": "G#3",
            "ticks": 167616,
            "time": 218.25,
            "velocity": 0.031496062992125984
          },
          {
            "duration": 0.125,
            "durationTicks": 96,
            "midi": 52,
            "name": "E3",
            "ticks": 167616,
            "time": 218.25,
            "velocity": 0.031496062992125984
          },
          {
            "duration": 0.125,
            "durationTicks": 96,
            "midi": 56,
            "name": "G#3",
            "ticks": 167712,
            "time": 218.375,
            "velocity": 0.03937007874015748
          },
          {
            "duration": 0.125,
            "durationTicks": 96,
            "midi": 52,
            "name": "E3",
            "ticks": 167712,
            "time": 218.375,
            "velocity": 0.03937007874015748
          },
          {
            "duration": 0.125,
            "durationTicks": 96,
            "midi": 59,
            "name": "B3",
            "ticks": 167712,
            "time": 218.375,
            "velocity": 0.03937007874015748
          },
          {
            "duration": 0.125,
            "durationTicks": 96,
            "midi": 59,
            "name": "B3",
            "ticks": 167808,
            "time": 218.5,
            "velocity": 0.03937007874015748
          },
          {
            "duration": 0.125,
            "durationTicks": 96,
            "midi": 52,
            "name": "E3",
            "ticks": 167808,
            "time": 218.5,
            "velocity": 0.03937007874015748
          },
          {
            "duration": 0.125,
            "durationTicks": 96,
            "midi": 56,
            "name": "G#3",
            "ticks": 167808,
            "time": 218.5,
            "velocity": 0.03937007874015748
          },
          {
            "duration": 0.125,
            "durationTicks": 96,
            "midi": 59,
            "name": "B3",
            "ticks": 167904,
            "time": 218.625,
            "velocity": 0.031496062992125984
          },
          {
            "duration": 0.125,
            "durationTicks": 96,
            "midi": 56,
            "name": "G#3",
            "ticks": 167904,
            "time": 218.625,
            "velocity": 0.031496062992125984
          },
          {
            "duration": 0.125,
            "durationTicks": 96,
            "midi": 52,
            "name": "E3",
            "ticks": 167904,
            "time": 218.625,
            "velocity": 0.031496062992125984
          },
          {
            "duration": 0.125,
            "durationTicks": 96,
            "midi": 59,
            "name": "B3",
            "ticks": 168000,
            "time": 218.75,
            "velocity": 0.031496062992125984
          },
          {
            "duration": 0.125,
            "durationTicks": 96,
            "midi": 56,
            "name": "G#3",
            "ticks": 168000,
            "time": 218.75,
            "velocity": 0.031496062992125984
          },
          {
            "duration": 0.125,
            "durationTicks": 96,
            "midi": 52,
            "name": "E3",
            "ticks": 168000,
            "time": 218.75,
            "velocity": 0.031496062992125984
          },
          {
            "duration": 0.125,
            "durationTicks": 96,
            "midi": 56,
            "name": "G#3",
            "ticks": 168096,
            "time": 218.875,
            "velocity": 0.031496062992125984
          },
          {
            "duration": 0.125,
            "durationTicks": 96,
            "midi": 59,
            "name": "B3",
            "ticks": 168096,
            "time": 218.875,
            "velocity": 0.031496062992125984
          },
          {
            "duration": 0.125,
            "durationTicks": 96,
            "midi": 52,
            "name": "E3",
            "ticks": 168096,
            "time": 218.875,
            "velocity": 0.031496062992125984
          },
          {
            "duration": 0.125,
            "durationTicks": 96,
            "midi": 52,
            "name": "E3",
            "ticks": 168192,
            "time": 219,
            "velocity": 0.031496062992125984
          },
          {
            "duration": 0.125,
            "durationTicks": 96,
            "midi": 56,
            "name": "G#3",
            "ticks": 168192,
            "time": 219,
            "velocity": 0.031496062992125984
          },
          {
            "duration": 0.125,
            "durationTicks": 96,
            "midi": 59,
            "name": "B3",
            "ticks": 168192,
            "time": 219,
            "velocity": 0.031496062992125984
          },
          {
            "duration": 0.125,
            "durationTicks": 96,
            "midi": 56,
            "name": "G#3",
            "ticks": 168288,
            "time": 219.125,
            "velocity": 0.023622047244094488
          },
          {
            "duration": 0.125,
            "durationTicks": 96,
            "midi": 52,
            "name": "E3",
            "ticks": 168288,
            "time": 219.125,
            "velocity": 0.023622047244094488
          },
          {
            "duration": 0.125,
            "durationTicks": 96,
            "midi": 59,
            "name": "B3",
            "ticks": 168288,
            "time": 219.125,
            "velocity": 0.023622047244094488
          },
          {
            "duration": 0.125,
            "durationTicks": 96,
            "midi": 56,
            "name": "G#3",
            "ticks": 168384,
            "time": 219.25,
            "velocity": 0.023622047244094488
          },
          {
            "duration": 0.125,
            "durationTicks": 96,
            "midi": 59,
            "name": "B3",
            "ticks": 168384,
            "time": 219.25,
            "velocity": 0.023622047244094488
          },
          {
            "duration": 0.125,
            "durationTicks": 96,
            "midi": 52,
            "name": "E3",
            "ticks": 168384,
            "time": 219.25,
            "velocity": 0.023622047244094488
          },
          {
            "duration": 0.125,
            "durationTicks": 96,
            "midi": 52,
            "name": "E3",
            "ticks": 168480,
            "time": 219.375,
            "velocity": 0.023622047244094488
          },
          {
            "duration": 0.125,
            "durationTicks": 96,
            "midi": 59,
            "name": "B3",
            "ticks": 168480,
            "time": 219.375,
            "velocity": 0.023622047244094488
          },
          {
            "duration": 0.125,
            "durationTicks": 96,
            "midi": 56,
            "name": "G#3",
            "ticks": 168480,
            "time": 219.375,
            "velocity": 0.023622047244094488
          },
          {
            "duration": 0.125,
            "durationTicks": 96,
            "midi": 59,
            "name": "B3",
            "ticks": 168576,
            "time": 219.5,
            "velocity": 0.023622047244094488
          },
          {
            "duration": 0.125,
            "durationTicks": 96,
            "midi": 56,
            "name": "G#3",
            "ticks": 168576,
            "time": 219.5,
            "velocity": 0.023622047244094488
          },
          {
            "duration": 0.125,
            "durationTicks": 96,
            "midi": 52,
            "name": "E3",
            "ticks": 168576,
            "time": 219.5,
            "velocity": 0.023622047244094488
          },
          {
            "duration": 0.125,
            "durationTicks": 96,
            "midi": 52,
            "name": "E3",
            "ticks": 168672,
            "time": 219.625,
            "velocity": 0.015748031496062992
          },
          {
            "duration": 0.125,
            "durationTicks": 96,
            "midi": 56,
            "name": "G#3",
            "ticks": 168672,
            "time": 219.625,
            "velocity": 0.015748031496062992
          },
          {
            "duration": 0.125,
            "durationTicks": 96,
            "midi": 59,
            "name": "B3",
            "ticks": 168672,
            "time": 219.625,
            "velocity": 0.015748031496062992
          },
          {
            "duration": 0.125,
            "durationTicks": 96,
            "midi": 59,
            "name": "B3",
            "ticks": 168768,
            "time": 219.75,
            "velocity": 0.015748031496062992
          },
          {
            "duration": 0.125,
            "durationTicks": 96,
            "midi": 56,
            "name": "G#3",
            "ticks": 168768,
            "time": 219.75,
            "velocity": 0.015748031496062992
          },
          {
            "duration": 0.125,
            "durationTicks": 96,
            "midi": 52,
            "name": "E3",
            "ticks": 168768,
            "time": 219.75,
            "velocity": 0.015748031496062992
          },
          {
            "duration": 0.125,
            "durationTicks": 96,
            "midi": 56,
            "name": "G#3",
            "ticks": 168864,
            "time": 219.875,
            "velocity": 0.015748031496062992
          },
          {
            "duration": 0.125,
            "durationTicks": 96,
            "midi": 52,
            "name": "E3",
            "ticks": 168864,
            "time": 219.875,
            "velocity": 0.015748031496062992
          },
          {
            "duration": 0.125,
            "durationTicks": 96,
            "midi": 59,
            "name": "B3",
            "ticks": 168864,
            "time": 219.875,
            "velocity": 0.015748031496062992
          },
          {
            "duration": 0.125,
            "durationTicks": 96,
            "midi": 56,
            "name": "G#3",
            "ticks": 168960,
            "time": 220,
            "velocity": 0.03937007874015748
          },
          {
            "duration": 0.125,
            "durationTicks": 96,
            "midi": 59,
            "name": "B3",
            "ticks": 168960,
            "time": 220,
            "velocity": 0.03937007874015748
          },
          {
            "duration": 0.125,
            "durationTicks": 96,
            "midi": 52,
            "name": "E3",
            "ticks": 168960,
            "time": 220,
            "velocity": 0.03937007874015748
          },
          {
            "duration": 0.125,
            "durationTicks": 96,
            "midi": 52,
            "name": "E3",
            "ticks": 169056,
            "time": 220.125,
            "velocity": 0.03937007874015748
          },
          {
            "duration": 0.125,
            "durationTicks": 96,
            "midi": 59,
            "name": "B3",
            "ticks": 169056,
            "time": 220.125,
            "velocity": 0.03937007874015748
          },
          {
            "duration": 0.125,
            "durationTicks": 96,
            "midi": 56,
            "name": "G#3",
            "ticks": 169056,
            "time": 220.125,
            "velocity": 0.03937007874015748
          },
          {
            "duration": 0.125,
            "durationTicks": 96,
            "midi": 52,
            "name": "E3",
            "ticks": 169152,
            "time": 220.25,
            "velocity": 0.031496062992125984
          },
          {
            "duration": 0.125,
            "durationTicks": 96,
            "midi": 59,
            "name": "B3",
            "ticks": 169152,
            "time": 220.25,
            "velocity": 0.031496062992125984
          },
          {
            "duration": 0.125,
            "durationTicks": 96,
            "midi": 56,
            "name": "G#3",
            "ticks": 169152,
            "time": 220.25,
            "velocity": 0.031496062992125984
          },
          {
            "duration": 0.125,
            "durationTicks": 96,
            "midi": 56,
            "name": "G#3",
            "ticks": 169248,
            "time": 220.375,
            "velocity": 0.031496062992125984
          },
          {
            "duration": 0.125,
            "durationTicks": 96,
            "midi": 59,
            "name": "B3",
            "ticks": 169248,
            "time": 220.375,
            "velocity": 0.031496062992125984
          },
          {
            "duration": 0.125,
            "durationTicks": 96,
            "midi": 52,
            "name": "E3",
            "ticks": 169248,
            "time": 220.375,
            "velocity": 0.031496062992125984
          },
          {
            "duration": 0.125,
            "durationTicks": 96,
            "midi": 54,
            "name": "F#3",
            "ticks": 169344,
            "time": 220.5,
            "velocity": 0.03937007874015748
          },
          {
            "duration": 0.125,
            "durationTicks": 96,
            "midi": 58,
            "name": "A#3",
            "ticks": 169344,
            "time": 220.5,
            "velocity": 0.03937007874015748
          },
          {
            "duration": 0.125,
            "durationTicks": 96,
            "midi": 49,
            "name": "C#3",
            "ticks": 169344,
            "time": 220.5,
            "velocity": 0.03937007874015748
          },
          {
            "duration": 0.125,
            "durationTicks": 96,
            "midi": 49,
            "name": "C#3",
            "ticks": 169440,
            "time": 220.625,
            "velocity": 0.03937007874015748
          },
          {
            "duration": 0.125,
            "durationTicks": 96,
            "midi": 54,
            "name": "F#3",
            "ticks": 169440,
            "time": 220.625,
            "velocity": 0.03937007874015748
          },
          {
            "duration": 0.125,
            "durationTicks": 96,
            "midi": 58,
            "name": "A#3",
            "ticks": 169440,
            "time": 220.625,
            "velocity": 0.03937007874015748
          },
          {
            "duration": 0.125,
            "durationTicks": 96,
            "midi": 54,
            "name": "F#3",
            "ticks": 169536,
            "time": 220.75,
            "velocity": 0.031496062992125984
          },
          {
            "duration": 0.125,
            "durationTicks": 96,
            "midi": 49,
            "name": "C#3",
            "ticks": 169536,
            "time": 220.75,
            "velocity": 0.031496062992125984
          },
          {
            "duration": 0.125,
            "durationTicks": 96,
            "midi": 58,
            "name": "A#3",
            "ticks": 169536,
            "time": 220.75,
            "velocity": 0.031496062992125984
          },
          {
            "duration": 0.125,
            "durationTicks": 96,
            "midi": 58,
            "name": "A#3",
            "ticks": 169632,
            "time": 220.875,
            "velocity": 0.031496062992125984
          },
          {
            "duration": 0.125,
            "durationTicks": 96,
            "midi": 49,
            "name": "C#3",
            "ticks": 169632,
            "time": 220.875,
            "velocity": 0.031496062992125984
          },
          {
            "duration": 0.125,
            "durationTicks": 96,
            "midi": 54,
            "name": "F#3",
            "ticks": 169632,
            "time": 220.875,
            "velocity": 0.031496062992125984
          },
          {
            "duration": 0.125,
            "durationTicks": 96,
            "midi": 52,
            "name": "E3",
            "ticks": 169728,
            "time": 221,
            "velocity": 0.03937007874015748
          },
          {
            "duration": 0.125,
            "durationTicks": 96,
            "midi": 56,
            "name": "G#3",
            "ticks": 169728,
            "time": 221,
            "velocity": 0.03937007874015748
          },
          {
            "duration": 0.125,
            "durationTicks": 96,
            "midi": 49,
            "name": "C#3",
            "ticks": 169728,
            "time": 221,
            "velocity": 0.03937007874015748
          },
          {
            "duration": 0.125,
            "durationTicks": 96,
            "midi": 52,
            "name": "E3",
            "ticks": 169824,
            "time": 221.125,
            "velocity": 0.03937007874015748
          },
          {
            "duration": 0.125,
            "durationTicks": 96,
            "midi": 49,
            "name": "C#3",
            "ticks": 169824,
            "time": 221.125,
            "velocity": 0.03937007874015748
          },
          {
            "duration": 0.125,
            "durationTicks": 96,
            "midi": 56,
            "name": "G#3",
            "ticks": 169824,
            "time": 221.125,
            "velocity": 0.03937007874015748
          },
          {
            "duration": 0.125,
            "durationTicks": 96,
            "midi": 52,
            "name": "E3",
            "ticks": 169920,
            "time": 221.25,
            "velocity": 0.031496062992125984
          },
          {
            "duration": 0.125,
            "durationTicks": 96,
            "midi": 49,
            "name": "C#3",
            "ticks": 169920,
            "time": 221.25,
            "velocity": 0.031496062992125984
          },
          {
            "duration": 0.125,
            "durationTicks": 96,
            "midi": 56,
            "name": "G#3",
            "ticks": 169920,
            "time": 221.25,
            "velocity": 0.031496062992125984
          },
          {
            "duration": 0.125,
            "durationTicks": 96,
            "midi": 56,
            "name": "G#3",
            "ticks": 170016,
            "time": 221.375,
            "velocity": 0.031496062992125984
          },
          {
            "duration": 0.125,
            "durationTicks": 96,
            "midi": 49,
            "name": "C#3",
            "ticks": 170016,
            "time": 221.375,
            "velocity": 0.031496062992125984
          },
          {
            "duration": 0.125,
            "durationTicks": 96,
            "midi": 52,
            "name": "E3",
            "ticks": 170016,
            "time": 221.375,
            "velocity": 0.031496062992125984
          },
          {
            "duration": 0.125,
            "durationTicks": 96,
            "midi": 56,
            "name": "G#3",
            "ticks": 170112,
            "time": 221.5,
            "velocity": 0.031496062992125984
          },
          {
            "duration": 0.125,
            "durationTicks": 96,
            "midi": 52,
            "name": "E3",
            "ticks": 170112,
            "time": 221.5,
            "velocity": 0.031496062992125984
          },
          {
            "duration": 0.125,
            "durationTicks": 96,
            "midi": 49,
            "name": "C#3",
            "ticks": 170112,
            "time": 221.5,
            "velocity": 0.031496062992125984
          },
          {
            "duration": 0.125,
            "durationTicks": 96,
            "midi": 52,
            "name": "E3",
            "ticks": 170208,
            "time": 221.625,
            "velocity": 0.031496062992125984
          },
          {
            "duration": 0.125,
            "durationTicks": 96,
            "midi": 49,
            "name": "C#3",
            "ticks": 170208,
            "time": 221.625,
            "velocity": 0.031496062992125984
          },
          {
            "duration": 0.125,
            "durationTicks": 96,
            "midi": 56,
            "name": "G#3",
            "ticks": 170208,
            "time": 221.625,
            "velocity": 0.031496062992125984
          },
          {
            "duration": 0.125,
            "durationTicks": 96,
            "midi": 56,
            "name": "G#3",
            "ticks": 170304,
            "time": 221.75,
            "velocity": 0.023622047244094488
          },
          {
            "duration": 0.125,
            "durationTicks": 96,
            "midi": 52,
            "name": "E3",
            "ticks": 170304,
            "time": 221.75,
            "velocity": 0.023622047244094488
          },
          {
            "duration": 0.125,
            "durationTicks": 96,
            "midi": 49,
            "name": "C#3",
            "ticks": 170304,
            "time": 221.75,
            "velocity": 0.023622047244094488
          },
          {
            "duration": 0.125,
            "durationTicks": 96,
            "midi": 56,
            "name": "G#3",
            "ticks": 170400,
            "time": 221.875,
            "velocity": 0.023622047244094488
          },
          {
            "duration": 0.125,
            "durationTicks": 96,
            "midi": 49,
            "name": "C#3",
            "ticks": 170400,
            "time": 221.875,
            "velocity": 0.023622047244094488
          },
          {
            "duration": 0.125,
            "durationTicks": 96,
            "midi": 52,
            "name": "E3",
            "ticks": 170400,
            "time": 221.875,
            "velocity": 0.023622047244094488
          },
          {
            "duration": 0.125,
            "durationTicks": 96,
            "midi": 46,
            "name": "A#2",
            "ticks": 170496,
            "time": 222,
            "velocity": 0.03937007874015748
          },
          {
            "duration": 0.125,
            "durationTicks": 96,
            "midi": 49,
            "name": "C#3",
            "ticks": 170496,
            "time": 222,
            "velocity": 0.03937007874015748
          },
          {
            "duration": 0.125,
            "durationTicks": 96,
            "midi": 54,
            "name": "F#3",
            "ticks": 170496,
            "time": 222,
            "velocity": 0.03937007874015748
          },
          {
            "duration": 0.125,
            "durationTicks": 96,
            "midi": 49,
            "name": "C#3",
            "ticks": 170592,
            "time": 222.125,
            "velocity": 0.03937007874015748
          },
          {
            "duration": 0.125,
            "durationTicks": 96,
            "midi": 46,
            "name": "A#2",
            "ticks": 170592,
            "time": 222.125,
            "velocity": 0.03937007874015748
          },
          {
            "duration": 0.125,
            "durationTicks": 96,
            "midi": 54,
            "name": "F#3",
            "ticks": 170592,
            "time": 222.125,
            "velocity": 0.03937007874015748
          },
          {
            "duration": 0.125,
            "durationTicks": 96,
            "midi": 54,
            "name": "F#3",
            "ticks": 170688,
            "time": 222.25,
            "velocity": 0.031496062992125984
          },
          {
            "duration": 0.125,
            "durationTicks": 96,
            "midi": 49,
            "name": "C#3",
            "ticks": 170688,
            "time": 222.25,
            "velocity": 0.031496062992125984
          },
          {
            "duration": 0.125,
            "durationTicks": 96,
            "midi": 46,
            "name": "A#2",
            "ticks": 170688,
            "time": 222.25,
            "velocity": 0.031496062992125984
          },
          {
            "duration": 0.125,
            "durationTicks": 96,
            "midi": 49,
            "name": "C#3",
            "ticks": 170784,
            "time": 222.375,
            "velocity": 0.031496062992125984
          },
          {
            "duration": 0.125,
            "durationTicks": 96,
            "midi": 46,
            "name": "A#2",
            "ticks": 170784,
            "time": 222.375,
            "velocity": 0.031496062992125984
          },
          {
            "duration": 0.125,
            "durationTicks": 96,
            "midi": 54,
            "name": "F#3",
            "ticks": 170784,
            "time": 222.375,
            "velocity": 0.031496062992125984
          },
          {
            "duration": 0.125,
            "durationTicks": 96,
            "midi": 54,
            "name": "F#3",
            "ticks": 170880,
            "time": 222.5,
            "velocity": 0.031496062992125984
          },
          {
            "duration": 0.125,
            "durationTicks": 96,
            "midi": 49,
            "name": "C#3",
            "ticks": 170880,
            "time": 222.5,
            "velocity": 0.031496062992125984
          },
          {
            "duration": 0.125,
            "durationTicks": 96,
            "midi": 46,
            "name": "A#2",
            "ticks": 170880,
            "time": 222.5,
            "velocity": 0.031496062992125984
          },
          {
            "duration": 0.125,
            "durationTicks": 96,
            "midi": 46,
            "name": "A#2",
            "ticks": 170976,
            "time": 222.625,
            "velocity": 0.031496062992125984
          },
          {
            "duration": 0.125,
            "durationTicks": 96,
            "midi": 49,
            "name": "C#3",
            "ticks": 170976,
            "time": 222.625,
            "velocity": 0.031496062992125984
          },
          {
            "duration": 0.125,
            "durationTicks": 96,
            "midi": 54,
            "name": "F#3",
            "ticks": 170976,
            "time": 222.625,
            "velocity": 0.031496062992125984
          },
          {
            "duration": 0.125,
            "durationTicks": 96,
            "midi": 49,
            "name": "C#3",
            "ticks": 171072,
            "time": 222.75,
            "velocity": 0.023622047244094488
          },
          {
            "duration": 0.125,
            "durationTicks": 96,
            "midi": 54,
            "name": "F#3",
            "ticks": 171072,
            "time": 222.75,
            "velocity": 0.023622047244094488
          },
          {
            "duration": 0.125,
            "durationTicks": 96,
            "midi": 46,
            "name": "A#2",
            "ticks": 171072,
            "time": 222.75,
            "velocity": 0.023622047244094488
          },
          {
            "duration": 0.125,
            "durationTicks": 96,
            "midi": 46,
            "name": "A#2",
            "ticks": 171168,
            "time": 222.875,
            "velocity": 0.023622047244094488
          },
          {
            "duration": 0.125,
            "durationTicks": 96,
            "midi": 49,
            "name": "C#3",
            "ticks": 171168,
            "time": 222.875,
            "velocity": 0.023622047244094488
          },
          {
            "duration": 0.125,
            "durationTicks": 96,
            "midi": 54,
            "name": "F#3",
            "ticks": 171168,
            "time": 222.875,
            "velocity": 0.023622047244094488
          },
          {
            "duration": 0.125,
            "durationTicks": 96,
            "midi": 46,
            "name": "A#2",
            "ticks": 171264,
            "time": 223,
            "velocity": 0.023622047244094488
          },
          {
            "duration": 0.125,
            "durationTicks": 96,
            "midi": 54,
            "name": "F#3",
            "ticks": 171264,
            "time": 223,
            "velocity": 0.023622047244094488
          },
          {
            "duration": 0.125,
            "durationTicks": 96,
            "midi": 49,
            "name": "C#3",
            "ticks": 171264,
            "time": 223,
            "velocity": 0.023622047244094488
          },
          {
            "duration": 0.125,
            "durationTicks": 96,
            "midi": 46,
            "name": "A#2",
            "ticks": 171360,
            "time": 223.125,
            "velocity": 0.023622047244094488
          },
          {
            "duration": 0.125,
            "durationTicks": 96,
            "midi": 54,
            "name": "F#3",
            "ticks": 171360,
            "time": 223.125,
            "velocity": 0.023622047244094488
          },
          {
            "duration": 0.125,
            "durationTicks": 96,
            "midi": 49,
            "name": "C#3",
            "ticks": 171360,
            "time": 223.125,
            "velocity": 0.023622047244094488
          },
          {
            "duration": 0.125,
            "durationTicks": 96,
            "midi": 46,
            "name": "A#2",
            "ticks": 171456,
            "time": 223.25,
            "velocity": 0.015748031496062992
          },
          {
            "duration": 0.125,
            "durationTicks": 96,
            "midi": 54,
            "name": "F#3",
            "ticks": 171456,
            "time": 223.25,
            "velocity": 0.015748031496062992
          },
          {
            "duration": 0.125,
            "durationTicks": 96,
            "midi": 49,
            "name": "C#3",
            "ticks": 171456,
            "time": 223.25,
            "velocity": 0.015748031496062992
          },
          {
            "duration": 0.125,
            "durationTicks": 96,
            "midi": 49,
            "name": "C#3",
            "ticks": 171552,
            "time": 223.375,
            "velocity": 0.015748031496062992
          },
          {
            "duration": 0.125,
            "durationTicks": 96,
            "midi": 46,
            "name": "A#2",
            "ticks": 171552,
            "time": 223.375,
            "velocity": 0.015748031496062992
          },
          {
            "duration": 0.125,
            "durationTicks": 96,
            "midi": 54,
            "name": "F#3",
            "ticks": 171552,
            "time": 223.375,
            "velocity": 0.015748031496062992
          },
          {
            "duration": 0.125,
            "durationTicks": 96,
            "midi": 54,
            "name": "F#3",
            "ticks": 171648,
            "time": 223.5,
            "velocity": 0.015748031496062992
          },
          {
            "duration": 0.125,
            "durationTicks": 96,
            "midi": 46,
            "name": "A#2",
            "ticks": 171648,
            "time": 223.5,
            "velocity": 0.015748031496062992
          },
          {
            "duration": 0.125,
            "durationTicks": 96,
            "midi": 49,
            "name": "C#3",
            "ticks": 171648,
            "time": 223.5,
            "velocity": 0.015748031496062992
          },
          {
            "duration": 0.125,
            "durationTicks": 96,
            "midi": 49,
            "name": "C#3",
            "ticks": 171744,
            "time": 223.625,
            "velocity": 0.015748031496062992
          },
          {
            "duration": 0.125,
            "durationTicks": 96,
            "midi": 46,
            "name": "A#2",
            "ticks": 171744,
            "time": 223.625,
            "velocity": 0.015748031496062992
          },
          {
            "duration": 0.125,
            "durationTicks": 96,
            "midi": 54,
            "name": "F#3",
            "ticks": 171744,
            "time": 223.625,
            "velocity": 0.015748031496062992
          },
          {
            "duration": 0.125,
            "durationTicks": 96,
            "midi": 46,
            "name": "A#2",
            "ticks": 171840,
            "time": 223.75,
            "velocity": 0.007874015748031496
          },
          {
            "duration": 0.125,
            "durationTicks": 96,
            "midi": 54,
            "name": "F#3",
            "ticks": 171840,
            "time": 223.75,
            "velocity": 0.007874015748031496
          },
          {
            "duration": 0.125,
            "durationTicks": 96,
            "midi": 49,
            "name": "C#3",
            "ticks": 171840,
            "time": 223.75,
            "velocity": 0.007874015748031496
          },
          {
            "duration": 0.125,
            "durationTicks": 96,
            "midi": 46,
            "name": "A#2",
            "ticks": 171936,
            "time": 223.875,
            "velocity": 0.007874015748031496
          },
          {
            "duration": 0.125,
            "durationTicks": 96,
            "midi": 49,
            "name": "C#3",
            "ticks": 171936,
            "time": 223.875,
            "velocity": 0.007874015748031496
          },
          {
            "duration": 0.125,
            "durationTicks": 96,
            "midi": 54,
            "name": "F#3",
            "ticks": 171936,
            "time": 223.875,
            "velocity": 0.007874015748031496
          },
          {
            "duration": 0.125,
            "durationTicks": 96,
            "midi": 47,
            "name": "B2",
            "ticks": 172032,
            "time": 224,
            "velocity": 0.03937007874015748
          },
          {
            "duration": 0.125,
            "durationTicks": 96,
            "midi": 44,
            "name": "G#2",
            "ticks": 172032,
            "time": 224,
            "velocity": 0.03937007874015748
          },
          {
            "duration": 0.125,
            "durationTicks": 96,
            "midi": 52,
            "name": "E3",
            "ticks": 172032,
            "time": 224,
            "velocity": 0.03937007874015748
          },
          {
            "duration": 0.125,
            "durationTicks": 96,
            "midi": 52,
            "name": "E3",
            "ticks": 172128,
            "time": 224.125,
            "velocity": 0.03937007874015748
          },
          {
            "duration": 0.125,
            "durationTicks": 96,
            "midi": 47,
            "name": "B2",
            "ticks": 172128,
            "time": 224.125,
            "velocity": 0.03937007874015748
          },
          {
            "duration": 0.125,
            "durationTicks": 96,
            "midi": 44,
            "name": "G#2",
            "ticks": 172128,
            "time": 224.125,
            "velocity": 0.03937007874015748
          },
          {
            "duration": 0.125,
            "durationTicks": 96,
            "midi": 47,
            "name": "B2",
            "ticks": 172224,
            "time": 224.25,
            "velocity": 0.031496062992125984
          },
          {
            "duration": 0.125,
            "durationTicks": 96,
            "midi": 44,
            "name": "G#2",
            "ticks": 172224,
            "time": 224.25,
            "velocity": 0.031496062992125984
          },
          {
            "duration": 0.125,
            "durationTicks": 96,
            "midi": 52,
            "name": "E3",
            "ticks": 172224,
            "time": 224.25,
            "velocity": 0.031496062992125984
          },
          {
            "duration": 0.125,
            "durationTicks": 96,
            "midi": 52,
            "name": "E3",
            "ticks": 172320,
            "time": 224.375,
            "velocity": 0.031496062992125984
          },
          {
            "duration": 0.125,
            "durationTicks": 96,
            "midi": 47,
            "name": "B2",
            "ticks": 172320,
            "time": 224.375,
            "velocity": 0.031496062992125984
          },
          {
            "duration": 0.125,
            "durationTicks": 96,
            "midi": 44,
            "name": "G#2",
            "ticks": 172320,
            "time": 224.375,
            "velocity": 0.031496062992125984
          },
          {
            "duration": 0.125,
            "durationTicks": 96,
            "midi": 44,
            "name": "G#2",
            "ticks": 172416,
            "time": 224.5,
            "velocity": 0.031496062992125984
          },
          {
            "duration": 0.125,
            "durationTicks": 96,
            "midi": 52,
            "name": "E3",
            "ticks": 172416,
            "time": 224.5,
            "velocity": 0.031496062992125984
          },
          {
            "duration": 0.125,
            "durationTicks": 96,
            "midi": 47,
            "name": "B2",
            "ticks": 172416,
            "time": 224.5,
            "velocity": 0.031496062992125984
          },
          {
            "duration": 0.125,
            "durationTicks": 96,
            "midi": 47,
            "name": "B2",
            "ticks": 172512,
            "time": 224.625,
            "velocity": 0.031496062992125984
          },
          {
            "duration": 0.125,
            "durationTicks": 96,
            "midi": 44,
            "name": "G#2",
            "ticks": 172512,
            "time": 224.625,
            "velocity": 0.031496062992125984
          },
          {
            "duration": 0.125,
            "durationTicks": 96,
            "midi": 52,
            "name": "E3",
            "ticks": 172512,
            "time": 224.625,
            "velocity": 0.031496062992125984
          },
          {
            "duration": 0.125,
            "durationTicks": 96,
            "midi": 47,
            "name": "B2",
            "ticks": 172608,
            "time": 224.75,
            "velocity": 0.023622047244094488
          },
          {
            "duration": 0.125,
            "durationTicks": 96,
            "midi": 44,
            "name": "G#2",
            "ticks": 172608,
            "time": 224.75,
            "velocity": 0.023622047244094488
          },
          {
            "duration": 0.125,
            "durationTicks": 96,
            "midi": 52,
            "name": "E3",
            "ticks": 172608,
            "time": 224.75,
            "velocity": 0.023622047244094488
          },
          {
            "duration": 0.125,
            "durationTicks": 96,
            "midi": 52,
            "name": "E3",
            "ticks": 172704,
            "time": 224.875,
            "velocity": 0.023622047244094488
          },
          {
            "duration": 0.125,
            "durationTicks": 96,
            "midi": 47,
            "name": "B2",
            "ticks": 172704,
            "time": 224.875,
            "velocity": 0.023622047244094488
          },
          {
            "duration": 0.125,
            "durationTicks": 96,
            "midi": 44,
            "name": "G#2",
            "ticks": 172704,
            "time": 224.875,
            "velocity": 0.023622047244094488
          },
          {
            "duration": 0.125,
            "durationTicks": 96,
            "midi": 44,
            "name": "G#2",
            "ticks": 172800,
            "time": 225,
            "velocity": 0.023622047244094488
          },
          {
            "duration": 0.125,
            "durationTicks": 96,
            "midi": 47,
            "name": "B2",
            "ticks": 172800,
            "time": 225,
            "velocity": 0.023622047244094488
          },
          {
            "duration": 0.125,
            "durationTicks": 96,
            "midi": 52,
            "name": "E3",
            "ticks": 172800,
            "time": 225,
            "velocity": 0.023622047244094488
          },
          {
            "duration": 0.125,
            "durationTicks": 96,
            "midi": 47,
            "name": "B2",
            "ticks": 172896,
            "time": 225.125,
            "velocity": 0.023622047244094488
          },
          {
            "duration": 0.125,
            "durationTicks": 96,
            "midi": 44,
            "name": "G#2",
            "ticks": 172896,
            "time": 225.125,
            "velocity": 0.023622047244094488
          },
          {
            "duration": 0.125,
            "durationTicks": 96,
            "midi": 52,
            "name": "E3",
            "ticks": 172896,
            "time": 225.125,
            "velocity": 0.023622047244094488
          },
          {
            "duration": 0.125,
            "durationTicks": 96,
            "midi": 47,
            "name": "B2",
            "ticks": 172992,
            "time": 225.25,
            "velocity": 0.015748031496062992
          },
          {
            "duration": 0.125,
            "durationTicks": 96,
            "midi": 52,
            "name": "E3",
            "ticks": 172992,
            "time": 225.25,
            "velocity": 0.015748031496062992
          },
          {
            "duration": 0.125,
            "durationTicks": 96,
            "midi": 44,
            "name": "G#2",
            "ticks": 172992,
            "time": 225.25,
            "velocity": 0.015748031496062992
          },
          {
            "duration": 0.125,
            "durationTicks": 96,
            "midi": 47,
            "name": "B2",
            "ticks": 173088,
            "time": 225.375,
            "velocity": 0.015748031496062992
          },
          {
            "duration": 0.125,
            "durationTicks": 96,
            "midi": 44,
            "name": "G#2",
            "ticks": 173088,
            "time": 225.375,
            "velocity": 0.015748031496062992
          },
          {
            "duration": 0.125,
            "durationTicks": 96,
            "midi": 52,
            "name": "E3",
            "ticks": 173088,
            "time": 225.375,
            "velocity": 0.015748031496062992
          },
          {
            "duration": 0.125,
            "durationTicks": 96,
            "midi": 52,
            "name": "E3",
            "ticks": 173184,
            "time": 225.5,
            "velocity": 0.015748031496062992
          },
          {
            "duration": 0.125,
            "durationTicks": 96,
            "midi": 47,
            "name": "B2",
            "ticks": 173184,
            "time": 225.5,
            "velocity": 0.015748031496062992
          },
          {
            "duration": 0.125,
            "durationTicks": 96,
            "midi": 44,
            "name": "G#2",
            "ticks": 173184,
            "time": 225.5,
            "velocity": 0.015748031496062992
          },
          {
            "duration": 0.125,
            "durationTicks": 96,
            "midi": 52,
            "name": "E3",
            "ticks": 173280,
            "time": 225.625,
            "velocity": 0.015748031496062992
          },
          {
            "duration": 0.125,
            "durationTicks": 96,
            "midi": 47,
            "name": "B2",
            "ticks": 173280,
            "time": 225.625,
            "velocity": 0.015748031496062992
          },
          {
            "duration": 0.125,
            "durationTicks": 96,
            "midi": 44,
            "name": "G#2",
            "ticks": 173280,
            "time": 225.625,
            "velocity": 0.015748031496062992
          },
          {
            "duration": 0.125,
            "durationTicks": 96,
            "midi": 44,
            "name": "G#2",
            "ticks": 173376,
            "time": 225.75,
            "velocity": 0.007874015748031496
          },
          {
            "duration": 0.125,
            "durationTicks": 96,
            "midi": 52,
            "name": "E3",
            "ticks": 173376,
            "time": 225.75,
            "velocity": 0.007874015748031496
          },
          {
            "duration": 0.125,
            "durationTicks": 96,
            "midi": 47,
            "name": "B2",
            "ticks": 173376,
            "time": 225.75,
            "velocity": 0.007874015748031496
          },
          {
            "duration": 0.125,
            "durationTicks": 96,
            "midi": 44,
            "name": "G#2",
            "ticks": 173472,
            "time": 225.875,
            "velocity": 0.007874015748031496
          },
          {
            "duration": 0.125,
            "durationTicks": 96,
            "midi": 52,
            "name": "E3",
            "ticks": 173472,
            "time": 225.875,
            "velocity": 0.007874015748031496
          },
          {
            "duration": 0.125,
            "durationTicks": 96,
            "midi": 47,
            "name": "B2",
            "ticks": 173472,
            "time": 225.875,
            "velocity": 0.007874015748031496
          },
          {
            "duration": 0.125,
            "durationTicks": 96,
            "midi": 56,
            "name": "G#3",
            "ticks": 173568,
            "time": 226,
            "velocity": 0.03937007874015748
          },
          {
            "duration": 0.125,
            "durationTicks": 96,
            "midi": 52,
            "name": "E3",
            "ticks": 173568,
            "time": 226,
            "velocity": 0.03937007874015748
          },
          {
            "duration": 0.125,
            "durationTicks": 96,
            "midi": 61,
            "name": "C#4",
            "ticks": 173568,
            "time": 226,
            "velocity": 0.03937007874015748
          },
          {
            "duration": 0.125,
            "durationTicks": 96,
            "midi": 61,
            "name": "C#4",
            "ticks": 173664,
            "time": 226.125,
            "velocity": 0.03937007874015748
          },
          {
            "duration": 0.125,
            "durationTicks": 96,
            "midi": 52,
            "name": "E3",
            "ticks": 173664,
            "time": 226.125,
            "velocity": 0.03937007874015748
          },
          {
            "duration": 0.125,
            "durationTicks": 96,
            "midi": 56,
            "name": "G#3",
            "ticks": 173664,
            "time": 226.125,
            "velocity": 0.03937007874015748
          },
          {
            "duration": 0.125,
            "durationTicks": 96,
            "midi": 61,
            "name": "C#4",
            "ticks": 173760,
            "time": 226.25,
            "velocity": 0.031496062992125984
          },
          {
            "duration": 0.125,
            "durationTicks": 96,
            "midi": 52,
            "name": "E3",
            "ticks": 173760,
            "time": 226.25,
            "velocity": 0.031496062992125984
          },
          {
            "duration": 0.125,
            "durationTicks": 96,
            "midi": 56,
            "name": "G#3",
            "ticks": 173760,
            "time": 226.25,
            "velocity": 0.031496062992125984
          },
          {
            "duration": 0.125,
            "durationTicks": 96,
            "midi": 59,
            "name": "B3",
            "ticks": 173856,
            "time": 226.375,
            "velocity": 0.03937007874015748
          },
          {
            "duration": 0.125,
            "durationTicks": 96,
            "midi": 52,
            "name": "E3",
            "ticks": 173856,
            "time": 226.375,
            "velocity": 0.03937007874015748
          },
          {
            "duration": 0.125,
            "durationTicks": 96,
            "midi": 56,
            "name": "G#3",
            "ticks": 173856,
            "time": 226.375,
            "velocity": 0.03937007874015748
          },
          {
            "duration": 0.125,
            "durationTicks": 96,
            "midi": 59,
            "name": "B3",
            "ticks": 173952,
            "time": 226.5,
            "velocity": 0.03937007874015748
          },
          {
            "duration": 0.125,
            "durationTicks": 96,
            "midi": 56,
            "name": "G#3",
            "ticks": 173952,
            "time": 226.5,
            "velocity": 0.03937007874015748
          },
          {
            "duration": 0.125,
            "durationTicks": 96,
            "midi": 52,
            "name": "E3",
            "ticks": 173952,
            "time": 226.5,
            "velocity": 0.03937007874015748
          },
          {
            "duration": 0.125,
            "durationTicks": 96,
            "midi": 56,
            "name": "G#3",
            "ticks": 174048,
            "time": 226.625,
            "velocity": 0.031496062992125984
          },
          {
            "duration": 0.125,
            "durationTicks": 96,
            "midi": 52,
            "name": "E3",
            "ticks": 174048,
            "time": 226.625,
            "velocity": 0.031496062992125984
          },
          {
            "duration": 0.125,
            "durationTicks": 96,
            "midi": 59,
            "name": "B3",
            "ticks": 174048,
            "time": 226.625,
            "velocity": 0.031496062992125984
          },
          {
            "duration": 0.125,
            "durationTicks": 96,
            "midi": 52,
            "name": "E3",
            "ticks": 174144,
            "time": 226.75,
            "velocity": 0.031496062992125984
          },
          {
            "duration": 0.125,
            "durationTicks": 96,
            "midi": 59,
            "name": "B3",
            "ticks": 174144,
            "time": 226.75,
            "velocity": 0.031496062992125984
          },
          {
            "duration": 0.125,
            "durationTicks": 96,
            "midi": 56,
            "name": "G#3",
            "ticks": 174144,
            "time": 226.75,
            "velocity": 0.031496062992125984
          },
          {
            "duration": 0.125,
            "durationTicks": 96,
            "midi": 59,
            "name": "B3",
            "ticks": 174240,
            "time": 226.875,
            "velocity": 0.031496062992125984
          },
          {
            "duration": 0.125,
            "durationTicks": 96,
            "midi": 56,
            "name": "G#3",
            "ticks": 174240,
            "time": 226.875,
            "velocity": 0.031496062992125984
          },
          {
            "duration": 0.125,
            "durationTicks": 96,
            "midi": 52,
            "name": "E3",
            "ticks": 174240,
            "time": 226.875,
            "velocity": 0.031496062992125984
          },
          {
            "duration": 0.125,
            "durationTicks": 96,
            "midi": 59,
            "name": "B3",
            "ticks": 174336,
            "time": 227,
            "velocity": 0.031496062992125984
          },
          {
            "duration": 0.125,
            "durationTicks": 96,
            "midi": 56,
            "name": "G#3",
            "ticks": 174336,
            "time": 227,
            "velocity": 0.031496062992125984
          },
          {
            "duration": 0.125,
            "durationTicks": 96,
            "midi": 52,
            "name": "E3",
            "ticks": 174336,
            "time": 227,
            "velocity": 0.031496062992125984
          },
          {
            "duration": 0.125,
            "durationTicks": 96,
            "midi": 59,
            "name": "B3",
            "ticks": 174432,
            "time": 227.125,
            "velocity": 0.023622047244094488
          },
          {
            "duration": 0.125,
            "durationTicks": 96,
            "midi": 56,
            "name": "G#3",
            "ticks": 174432,
            "time": 227.125,
            "velocity": 0.023622047244094488
          },
          {
            "duration": 0.125,
            "durationTicks": 96,
            "midi": 52,
            "name": "E3",
            "ticks": 174432,
            "time": 227.125,
            "velocity": 0.023622047244094488
          },
          {
            "duration": 0.125,
            "durationTicks": 96,
            "midi": 52,
            "name": "E3",
            "ticks": 174528,
            "time": 227.25,
            "velocity": 0.023622047244094488
          },
          {
            "duration": 0.125,
            "durationTicks": 96,
            "midi": 56,
            "name": "G#3",
            "ticks": 174528,
            "time": 227.25,
            "velocity": 0.023622047244094488
          },
          {
            "duration": 0.125,
            "durationTicks": 96,
            "midi": 59,
            "name": "B3",
            "ticks": 174528,
            "time": 227.25,
            "velocity": 0.023622047244094488
          },
          {
            "duration": 0.125,
            "durationTicks": 96,
            "midi": 59,
            "name": "B3",
            "ticks": 174624,
            "time": 227.375,
            "velocity": 0.023622047244094488
          },
          {
            "duration": 0.125,
            "durationTicks": 96,
            "midi": 56,
            "name": "G#3",
            "ticks": 174624,
            "time": 227.375,
            "velocity": 0.023622047244094488
          },
          {
            "duration": 0.125,
            "durationTicks": 96,
            "midi": 52,
            "name": "E3",
            "ticks": 174624,
            "time": 227.375,
            "velocity": 0.023622047244094488
          },
          {
            "duration": 0.125,
            "durationTicks": 96,
            "midi": 52,
            "name": "E3",
            "ticks": 174720,
            "time": 227.5,
            "velocity": 0.023622047244094488
          },
          {
            "duration": 0.125,
            "durationTicks": 96,
            "midi": 56,
            "name": "G#3",
            "ticks": 174720,
            "time": 227.5,
            "velocity": 0.023622047244094488
          },
          {
            "duration": 0.125,
            "durationTicks": 96,
            "midi": 59,
            "name": "B3",
            "ticks": 174720,
            "time": 227.5,
            "velocity": 0.023622047244094488
          },
          {
            "duration": 0.125,
            "durationTicks": 96,
            "midi": 59,
            "name": "B3",
            "ticks": 174816,
            "time": 227.625,
            "velocity": 0.015748031496062992
          },
          {
            "duration": 0.125,
            "durationTicks": 96,
            "midi": 56,
            "name": "G#3",
            "ticks": 174816,
            "time": 227.625,
            "velocity": 0.015748031496062992
          },
          {
            "duration": 0.125,
            "durationTicks": 96,
            "midi": 52,
            "name": "E3",
            "ticks": 174816,
            "time": 227.625,
            "velocity": 0.015748031496062992
          },
          {
            "duration": 0.125,
            "durationTicks": 96,
            "midi": 56,
            "name": "G#3",
            "ticks": 174912,
            "time": 227.75,
            "velocity": 0.015748031496062992
          },
          {
            "duration": 0.125,
            "durationTicks": 96,
            "midi": 59,
            "name": "B3",
            "ticks": 174912,
            "time": 227.75,
            "velocity": 0.015748031496062992
          },
          {
            "duration": 0.125,
            "durationTicks": 96,
            "midi": 52,
            "name": "E3",
            "ticks": 174912,
            "time": 227.75,
            "velocity": 0.015748031496062992
          },
          {
            "duration": 0.125,
            "durationTicks": 96,
            "midi": 59,
            "name": "B3",
            "ticks": 175008,
            "time": 227.875,
            "velocity": 0.015748031496062992
          },
          {
            "duration": 0.125,
            "durationTicks": 96,
            "midi": 56,
            "name": "G#3",
            "ticks": 175008,
            "time": 227.875,
            "velocity": 0.015748031496062992
          },
          {
            "duration": 0.125,
            "durationTicks": 96,
            "midi": 52,
            "name": "E3",
            "ticks": 175008,
            "time": 227.875,
            "velocity": 0.015748031496062992
          },
          {
            "duration": 0.125,
            "durationTicks": 96,
            "midi": 52,
            "name": "E3",
            "ticks": 175104,
            "time": 228,
            "velocity": 0.03937007874015748
          },
          {
            "duration": 0.125,
            "durationTicks": 96,
            "midi": 59,
            "name": "B3",
            "ticks": 175104,
            "time": 228,
            "velocity": 0.03937007874015748
          },
          {
            "duration": 0.125,
            "durationTicks": 96,
            "midi": 56,
            "name": "G#3",
            "ticks": 175104,
            "time": 228,
            "velocity": 0.03937007874015748
          },
          {
            "duration": 0.125,
            "durationTicks": 96,
            "midi": 52,
            "name": "E3",
            "ticks": 175200,
            "time": 228.125,
            "velocity": 0.03937007874015748
          },
          {
            "duration": 0.125,
            "durationTicks": 96,
            "midi": 59,
            "name": "B3",
            "ticks": 175200,
            "time": 228.125,
            "velocity": 0.03937007874015748
          },
          {
            "duration": 0.125,
            "durationTicks": 96,
            "midi": 56,
            "name": "G#3",
            "ticks": 175200,
            "time": 228.125,
            "velocity": 0.03937007874015748
          },
          {
            "duration": 0.125,
            "durationTicks": 96,
            "midi": 56,
            "name": "G#3",
            "ticks": 175296,
            "time": 228.25,
            "velocity": 0.031496062992125984
          },
          {
            "duration": 0.125,
            "durationTicks": 96,
            "midi": 52,
            "name": "E3",
            "ticks": 175296,
            "time": 228.25,
            "velocity": 0.031496062992125984
          },
          {
            "duration": 0.125,
            "durationTicks": 96,
            "midi": 59,
            "name": "B3",
            "ticks": 175296,
            "time": 228.25,
            "velocity": 0.031496062992125984
          },
          {
            "duration": 0.125,
            "durationTicks": 96,
            "midi": 56,
            "name": "G#3",
            "ticks": 175392,
            "time": 228.375,
            "velocity": 0.031496062992125984
          },
          {
            "duration": 0.125,
            "durationTicks": 96,
            "midi": 52,
            "name": "E3",
            "ticks": 175392,
            "time": 228.375,
            "velocity": 0.031496062992125984
          },
          {
            "duration": 0.125,
            "durationTicks": 96,
            "midi": 59,
            "name": "B3",
            "ticks": 175392,
            "time": 228.375,
            "velocity": 0.031496062992125984
          },
          {
            "duration": 0.125,
            "durationTicks": 96,
            "midi": 54,
            "name": "F#3",
            "ticks": 175488,
            "time": 228.5,
            "velocity": 0.03937007874015748
          },
          {
            "duration": 0.125,
            "durationTicks": 96,
            "midi": 49,
            "name": "C#3",
            "ticks": 175488,
            "time": 228.5,
            "velocity": 0.03937007874015748
          },
          {
            "duration": 0.125,
            "durationTicks": 96,
            "midi": 58,
            "name": "A#3",
            "ticks": 175488,
            "time": 228.5,
            "velocity": 0.03937007874015748
          },
          {
            "duration": 0.125,
            "durationTicks": 96,
            "midi": 49,
            "name": "C#3",
            "ticks": 175584,
            "time": 228.625,
            "velocity": 0.03937007874015748
          },
          {
            "duration": 0.125,
            "durationTicks": 96,
            "midi": 54,
            "name": "F#3",
            "ticks": 175584,
            "time": 228.625,
            "velocity": 0.03937007874015748
          },
          {
            "duration": 0.125,
            "durationTicks": 96,
            "midi": 58,
            "name": "A#3",
            "ticks": 175584,
            "time": 228.625,
            "velocity": 0.03937007874015748
          },
          {
            "duration": 0.125,
            "durationTicks": 96,
            "midi": 49,
            "name": "C#3",
            "ticks": 175680,
            "time": 228.75,
            "velocity": 0.031496062992125984
          },
          {
            "duration": 0.125,
            "durationTicks": 96,
            "midi": 58,
            "name": "A#3",
            "ticks": 175680,
            "time": 228.75,
            "velocity": 0.031496062992125984
          },
          {
            "duration": 0.125,
            "durationTicks": 96,
            "midi": 54,
            "name": "F#3",
            "ticks": 175680,
            "time": 228.75,
            "velocity": 0.031496062992125984
          },
          {
            "duration": 0.125,
            "durationTicks": 96,
            "midi": 54,
            "name": "F#3",
            "ticks": 175776,
            "time": 228.875,
            "velocity": 0.031496062992125984
          },
          {
            "duration": 0.125,
            "durationTicks": 96,
            "midi": 49,
            "name": "C#3",
            "ticks": 175776,
            "time": 228.875,
            "velocity": 0.031496062992125984
          },
          {
            "duration": 0.125,
            "durationTicks": 96,
            "midi": 58,
            "name": "A#3",
            "ticks": 175776,
            "time": 228.875,
            "velocity": 0.031496062992125984
          },
          {
            "duration": 0.125,
            "durationTicks": 96,
            "midi": 49,
            "name": "C#3",
            "ticks": 175872,
            "time": 229,
            "velocity": 0.03937007874015748
          },
          {
            "duration": 0.125,
            "durationTicks": 96,
            "midi": 52,
            "name": "E3",
            "ticks": 175872,
            "time": 229,
            "velocity": 0.03937007874015748
          },
          {
            "duration": 0.125,
            "durationTicks": 96,
            "midi": 56,
            "name": "G#3",
            "ticks": 175872,
            "time": 229,
            "velocity": 0.03937007874015748
          },
          {
            "duration": 0.125,
            "durationTicks": 96,
            "midi": 49,
            "name": "C#3",
            "ticks": 175968,
            "time": 229.125,
            "velocity": 0.03937007874015748
          },
          {
            "duration": 0.125,
            "durationTicks": 96,
            "midi": 56,
            "name": "G#3",
            "ticks": 175968,
            "time": 229.125,
            "velocity": 0.03937007874015748
          },
          {
            "duration": 0.125,
            "durationTicks": 96,
            "midi": 52,
            "name": "E3",
            "ticks": 175968,
            "time": 229.125,
            "velocity": 0.03937007874015748
          },
          {
            "duration": 0.125,
            "durationTicks": 96,
            "midi": 52,
            "name": "E3",
            "ticks": 176064,
            "time": 229.25,
            "velocity": 0.031496062992125984
          },
          {
            "duration": 0.125,
            "durationTicks": 96,
            "midi": 56,
            "name": "G#3",
            "ticks": 176064,
            "time": 229.25,
            "velocity": 0.031496062992125984
          },
          {
            "duration": 0.125,
            "durationTicks": 96,
            "midi": 49,
            "name": "C#3",
            "ticks": 176064,
            "time": 229.25,
            "velocity": 0.031496062992125984
          },
          {
            "duration": 0.125,
            "durationTicks": 96,
            "midi": 56,
            "name": "G#3",
            "ticks": 176160,
            "time": 229.375,
            "velocity": 0.031496062992125984
          },
          {
            "duration": 0.125,
            "durationTicks": 96,
            "midi": 49,
            "name": "C#3",
            "ticks": 176160,
            "time": 229.375,
            "velocity": 0.031496062992125984
          },
          {
            "duration": 0.125,
            "durationTicks": 96,
            "midi": 52,
            "name": "E3",
            "ticks": 176160,
            "time": 229.375,
            "velocity": 0.031496062992125984
          },
          {
            "duration": 0.125,
            "durationTicks": 96,
            "midi": 56,
            "name": "G#3",
            "ticks": 176256,
            "time": 229.5,
            "velocity": 0.031496062992125984
          },
          {
            "duration": 0.125,
            "durationTicks": 96,
            "midi": 49,
            "name": "C#3",
            "ticks": 176256,
            "time": 229.5,
            "velocity": 0.031496062992125984
          },
          {
            "duration": 0.125,
            "durationTicks": 96,
            "midi": 52,
            "name": "E3",
            "ticks": 176256,
            "time": 229.5,
            "velocity": 0.031496062992125984
          },
          {
            "duration": 0.125,
            "durationTicks": 96,
            "midi": 52,
            "name": "E3",
            "ticks": 176352,
            "time": 229.625,
            "velocity": 0.031496062992125984
          },
          {
            "duration": 0.125,
            "durationTicks": 96,
            "midi": 56,
            "name": "G#3",
            "ticks": 176352,
            "time": 229.625,
            "velocity": 0.031496062992125984
          },
          {
            "duration": 0.125,
            "durationTicks": 96,
            "midi": 49,
            "name": "C#3",
            "ticks": 176352,
            "time": 229.625,
            "velocity": 0.031496062992125984
          },
          {
            "duration": 0.125,
            "durationTicks": 96,
            "midi": 56,
            "name": "G#3",
            "ticks": 176448,
            "time": 229.75,
            "velocity": 0.023622047244094488
          },
          {
            "duration": 0.125,
            "durationTicks": 96,
            "midi": 49,
            "name": "C#3",
            "ticks": 176448,
            "time": 229.75,
            "velocity": 0.023622047244094488
          },
          {
            "duration": 0.125,
            "durationTicks": 96,
            "midi": 52,
            "name": "E3",
            "ticks": 176448,
            "time": 229.75,
            "velocity": 0.023622047244094488
          },
          {
            "duration": 0.125,
            "durationTicks": 96,
            "midi": 56,
            "name": "G#3",
            "ticks": 176544,
            "time": 229.875,
            "velocity": 0.023622047244094488
          },
          {
            "duration": 0.125,
            "durationTicks": 96,
            "midi": 49,
            "name": "C#3",
            "ticks": 176544,
            "time": 229.875,
            "velocity": 0.023622047244094488
          },
          {
            "duration": 0.125,
            "durationTicks": 96,
            "midi": 52,
            "name": "E3",
            "ticks": 176544,
            "time": 229.875,
            "velocity": 0.023622047244094488
          },
          {
            "duration": 0.125,
            "durationTicks": 96,
            "midi": 46,
            "name": "A#2",
            "ticks": 176640,
            "time": 230,
            "velocity": 0.03937007874015748
          },
          {
            "duration": 0.125,
            "durationTicks": 96,
            "midi": 49,
            "name": "C#3",
            "ticks": 176640,
            "time": 230,
            "velocity": 0.03937007874015748
          },
          {
            "duration": 0.125,
            "durationTicks": 96,
            "midi": 54,
            "name": "F#3",
            "ticks": 176640,
            "time": 230,
            "velocity": 0.03937007874015748
          },
          {
            "duration": 0.125,
            "durationTicks": 96,
            "midi": 54,
            "name": "F#3",
            "ticks": 176736,
            "time": 230.125,
            "velocity": 0.03937007874015748
          },
          {
            "duration": 0.125,
            "durationTicks": 96,
            "midi": 49,
            "name": "C#3",
            "ticks": 176736,
            "time": 230.125,
            "velocity": 0.03937007874015748
          },
          {
            "duration": 0.125,
            "durationTicks": 96,
            "midi": 46,
            "name": "A#2",
            "ticks": 176736,
            "time": 230.125,
            "velocity": 0.03937007874015748
          },
          {
            "duration": 0.125,
            "durationTicks": 96,
            "midi": 54,
            "name": "F#3",
            "ticks": 176832,
            "time": 230.25,
            "velocity": 0.031496062992125984
          },
          {
            "duration": 0.125,
            "durationTicks": 96,
            "midi": 46,
            "name": "A#2",
            "ticks": 176832,
            "time": 230.25,
            "velocity": 0.031496062992125984
          },
          {
            "duration": 0.125,
            "durationTicks": 96,
            "midi": 49,
            "name": "C#3",
            "ticks": 176832,
            "time": 230.25,
            "velocity": 0.031496062992125984
          },
          {
            "duration": 0.125,
            "durationTicks": 96,
            "midi": 49,
            "name": "C#3",
            "ticks": 176928,
            "time": 230.375,
            "velocity": 0.031496062992125984
          },
          {
            "duration": 0.125,
            "durationTicks": 96,
            "midi": 54,
            "name": "F#3",
            "ticks": 176928,
            "time": 230.375,
            "velocity": 0.031496062992125984
          },
          {
            "duration": 0.125,
            "durationTicks": 96,
            "midi": 46,
            "name": "A#2",
            "ticks": 176928,
            "time": 230.375,
            "velocity": 0.031496062992125984
          },
          {
            "duration": 0.125,
            "durationTicks": 96,
            "midi": 54,
            "name": "F#3",
            "ticks": 177024,
            "time": 230.5,
            "velocity": 0.031496062992125984
          },
          {
            "duration": 0.125,
            "durationTicks": 96,
            "midi": 49,
            "name": "C#3",
            "ticks": 177024,
            "time": 230.5,
            "velocity": 0.031496062992125984
          },
          {
            "duration": 0.125,
            "durationTicks": 96,
            "midi": 46,
            "name": "A#2",
            "ticks": 177024,
            "time": 230.5,
            "velocity": 0.031496062992125984
          },
          {
            "duration": 0.125,
            "durationTicks": 96,
            "midi": 54,
            "name": "F#3",
            "ticks": 177120,
            "time": 230.625,
            "velocity": 0.031496062992125984
          },
          {
            "duration": 0.125,
            "durationTicks": 96,
            "midi": 49,
            "name": "C#3",
            "ticks": 177120,
            "time": 230.625,
            "velocity": 0.031496062992125984
          },
          {
            "duration": 0.125,
            "durationTicks": 96,
            "midi": 46,
            "name": "A#2",
            "ticks": 177120,
            "time": 230.625,
            "velocity": 0.031496062992125984
          },
          {
            "duration": 0.125,
            "durationTicks": 96,
            "midi": 46,
            "name": "A#2",
            "ticks": 177216,
            "time": 230.75,
            "velocity": 0.023622047244094488
          },
          {
            "duration": 0.125,
            "durationTicks": 96,
            "midi": 54,
            "name": "F#3",
            "ticks": 177216,
            "time": 230.75,
            "velocity": 0.023622047244094488
          },
          {
            "duration": 0.125,
            "durationTicks": 96,
            "midi": 49,
            "name": "C#3",
            "ticks": 177216,
            "time": 230.75,
            "velocity": 0.023622047244094488
          },
          {
            "duration": 0.125,
            "durationTicks": 96,
            "midi": 49,
            "name": "C#3",
            "ticks": 177312,
            "time": 230.875,
            "velocity": 0.023622047244094488
          },
          {
            "duration": 0.125,
            "durationTicks": 96,
            "midi": 46,
            "name": "A#2",
            "ticks": 177312,
            "time": 230.875,
            "velocity": 0.023622047244094488
          },
          {
            "duration": 0.125,
            "durationTicks": 96,
            "midi": 54,
            "name": "F#3",
            "ticks": 177312,
            "time": 230.875,
            "velocity": 0.023622047244094488
          },
          {
            "duration": 0.125,
            "durationTicks": 96,
            "midi": 54,
            "name": "F#3",
            "ticks": 177408,
            "time": 231,
            "velocity": 0.023622047244094488
          },
          {
            "duration": 0.125,
            "durationTicks": 96,
            "midi": 49,
            "name": "C#3",
            "ticks": 177408,
            "time": 231,
            "velocity": 0.023622047244094488
          },
          {
            "duration": 0.125,
            "durationTicks": 96,
            "midi": 46,
            "name": "A#2",
            "ticks": 177408,
            "time": 231,
            "velocity": 0.023622047244094488
          },
          {
            "duration": 0.125,
            "durationTicks": 96,
            "midi": 46,
            "name": "A#2",
            "ticks": 177504,
            "time": 231.125,
            "velocity": 0.023622047244094488
          },
          {
            "duration": 0.125,
            "durationTicks": 96,
            "midi": 54,
            "name": "F#3",
            "ticks": 177504,
            "time": 231.125,
            "velocity": 0.023622047244094488
          },
          {
            "duration": 0.125,
            "durationTicks": 96,
            "midi": 49,
            "name": "C#3",
            "ticks": 177504,
            "time": 231.125,
            "velocity": 0.023622047244094488
          },
          {
            "duration": 0.125,
            "durationTicks": 96,
            "midi": 46,
            "name": "A#2",
            "ticks": 177600,
            "time": 231.25,
            "velocity": 0.015748031496062992
          },
          {
            "duration": 0.125,
            "durationTicks": 96,
            "midi": 49,
            "name": "C#3",
            "ticks": 177600,
            "time": 231.25,
            "velocity": 0.015748031496062992
          },
          {
            "duration": 0.125,
            "durationTicks": 96,
            "midi": 54,
            "name": "F#3",
            "ticks": 177600,
            "time": 231.25,
            "velocity": 0.015748031496062992
          },
          {
            "duration": 0.125,
            "durationTicks": 96,
            "midi": 49,
            "name": "C#3",
            "ticks": 177696,
            "time": 231.375,
            "velocity": 0.015748031496062992
          },
          {
            "duration": 0.125,
            "durationTicks": 96,
            "midi": 46,
            "name": "A#2",
            "ticks": 177696,
            "time": 231.375,
            "velocity": 0.015748031496062992
          },
          {
            "duration": 0.125,
            "durationTicks": 96,
            "midi": 54,
            "name": "F#3",
            "ticks": 177696,
            "time": 231.375,
            "velocity": 0.015748031496062992
          },
          {
            "duration": 0.125,
            "durationTicks": 96,
            "midi": 54,
            "name": "F#3",
            "ticks": 177792,
            "time": 231.5,
            "velocity": 0.015748031496062992
          },
          {
            "duration": 0.125,
            "durationTicks": 96,
            "midi": 49,
            "name": "C#3",
            "ticks": 177792,
            "time": 231.5,
            "velocity": 0.015748031496062992
          },
          {
            "duration": 0.125,
            "durationTicks": 96,
            "midi": 46,
            "name": "A#2",
            "ticks": 177792,
            "time": 231.5,
            "velocity": 0.015748031496062992
          },
          {
            "duration": 0.125,
            "durationTicks": 96,
            "midi": 49,
            "name": "C#3",
            "ticks": 177888,
            "time": 231.625,
            "velocity": 0.015748031496062992
          },
          {
            "duration": 0.125,
            "durationTicks": 96,
            "midi": 46,
            "name": "A#2",
            "ticks": 177888,
            "time": 231.625,
            "velocity": 0.015748031496062992
          },
          {
            "duration": 0.125,
            "durationTicks": 96,
            "midi": 54,
            "name": "F#3",
            "ticks": 177888,
            "time": 231.625,
            "velocity": 0.015748031496062992
          },
          {
            "duration": 0.125,
            "durationTicks": 96,
            "midi": 54,
            "name": "F#3",
            "ticks": 177984,
            "time": 231.75,
            "velocity": 0.007874015748031496
          },
          {
            "duration": 0.125,
            "durationTicks": 96,
            "midi": 49,
            "name": "C#3",
            "ticks": 177984,
            "time": 231.75,
            "velocity": 0.007874015748031496
          },
          {
            "duration": 0.125,
            "durationTicks": 96,
            "midi": 46,
            "name": "A#2",
            "ticks": 177984,
            "time": 231.75,
            "velocity": 0.007874015748031496
          },
          {
            "duration": 0.125,
            "durationTicks": 96,
            "midi": 54,
            "name": "F#3",
            "ticks": 178080,
            "time": 231.875,
            "velocity": 0.007874015748031496
          },
          {
            "duration": 0.125,
            "durationTicks": 96,
            "midi": 49,
            "name": "C#3",
            "ticks": 178080,
            "time": 231.875,
            "velocity": 0.007874015748031496
          },
          {
            "duration": 0.125,
            "durationTicks": 96,
            "midi": 46,
            "name": "A#2",
            "ticks": 178080,
            "time": 231.875,
            "velocity": 0.007874015748031496
          },
          {
            "duration": 0.125,
            "durationTicks": 96,
            "midi": 49,
            "name": "C#3",
            "ticks": 178368,
            "time": 232.25,
            "velocity": 0.03937007874015748
          },
          {
            "duration": 0.125,
            "durationTicks": 96,
            "midi": 45,
            "name": "A2",
            "ticks": 178368,
            "time": 232.25,
            "velocity": 0.03937007874015748
          },
          {
            "duration": 0.125,
            "durationTicks": 96,
            "midi": 52,
            "name": "E3",
            "ticks": 178368,
            "time": 232.25,
            "velocity": 0.03937007874015748
          },
          {
            "duration": 0.125,
            "durationTicks": 96,
            "midi": 45,
            "name": "A2",
            "ticks": 178464,
            "time": 232.375,
            "velocity": 0.023622047244094488
          },
          {
            "duration": 0.125,
            "durationTicks": 96,
            "midi": 52,
            "name": "E3",
            "ticks": 178464,
            "time": 232.375,
            "velocity": 0.023622047244094488
          },
          {
            "duration": 0.125,
            "durationTicks": 96,
            "midi": 49,
            "name": "C#3",
            "ticks": 178464,
            "time": 232.375,
            "velocity": 0.023622047244094488
          },
          {
            "duration": 0.125,
            "durationTicks": 96,
            "midi": 42,
            "name": "F#2",
            "ticks": 178560,
            "time": 232.5,
            "velocity": 0.03937007874015748
          },
          {
            "duration": 0.125,
            "durationTicks": 96,
            "midi": 45,
            "name": "A2",
            "ticks": 178560,
            "time": 232.5,
            "velocity": 0.03937007874015748
          },
          {
            "duration": 0.125,
            "durationTicks": 96,
            "midi": 49,
            "name": "C#3",
            "ticks": 178560,
            "time": 232.5,
            "velocity": 0.03937007874015748
          },
          {
            "duration": 0.125,
            "durationTicks": 96,
            "midi": 42,
            "name": "F#2",
            "ticks": 178656,
            "time": 232.625,
            "velocity": 0.023622047244094488
          },
          {
            "duration": 0.125,
            "durationTicks": 96,
            "midi": 45,
            "name": "A2",
            "ticks": 178656,
            "time": 232.625,
            "velocity": 0.023622047244094488
          },
          {
            "duration": 0.125,
            "durationTicks": 96,
            "midi": 49,
            "name": "C#3",
            "ticks": 178656,
            "time": 232.625,
            "velocity": 0.023622047244094488
          },
          {
            "duration": 0.125,
            "durationTicks": 96,
            "midi": 55,
            "name": "G3",
            "ticks": 178944,
            "time": 233,
            "velocity": 0.03937007874015748
          },
          {
            "duration": 0.125,
            "durationTicks": 96,
            "midi": 49,
            "name": "C#3",
            "ticks": 178944,
            "time": 233,
            "velocity": 0.03937007874015748
          },
          {
            "duration": 0.125,
            "durationTicks": 96,
            "midi": 52,
            "name": "E3",
            "ticks": 178944,
            "time": 233,
            "velocity": 0.03937007874015748
          },
          {
            "duration": 0.125,
            "durationTicks": 96,
            "midi": 49,
            "name": "C#3",
            "ticks": 179040,
            "time": 233.125,
            "velocity": 0.023622047244094488
          },
          {
            "duration": 0.125,
            "durationTicks": 96,
            "midi": 55,
            "name": "G3",
            "ticks": 179040,
            "time": 233.125,
            "velocity": 0.023622047244094488
          },
          {
            "duration": 0.125,
            "durationTicks": 96,
            "midi": 52,
            "name": "E3",
            "ticks": 179040,
            "time": 233.125,
            "velocity": 0.023622047244094488
          },
          {
            "duration": 0.125,
            "durationTicks": 96,
            "midi": 46,
            "name": "A#2",
            "ticks": 179136,
            "time": 233.25,
            "velocity": 0.03937007874015748
          },
          {
            "duration": 0.125,
            "durationTicks": 96,
            "midi": 49,
            "name": "C#3",
            "ticks": 179136,
            "time": 233.25,
            "velocity": 0.03937007874015748
          },
          {
            "duration": 0.125,
            "durationTicks": 96,
            "midi": 52,
            "name": "E3",
            "ticks": 179136,
            "time": 233.25,
            "velocity": 0.03937007874015748
          },
          {
            "duration": 0.125,
            "durationTicks": 96,
            "midi": 46,
            "name": "A#2",
            "ticks": 179232,
            "time": 233.375,
            "velocity": 0.023622047244094488
          },
          {
            "duration": 0.125,
            "durationTicks": 96,
            "midi": 49,
            "name": "C#3",
            "ticks": 179232,
            "time": 233.375,
            "velocity": 0.023622047244094488
          },
          {
            "duration": 0.125,
            "durationTicks": 96,
            "midi": 52,
            "name": "E3",
            "ticks": 179232,
            "time": 233.375,
            "velocity": 0.023622047244094488
          },
          {
            "duration": 0.125,
            "durationTicks": 96,
            "midi": 56,
            "name": "G#3",
            "ticks": 179520,
            "time": 233.75,
            "velocity": 0.03937007874015748
          },
          {
            "duration": 0.125,
            "durationTicks": 96,
            "midi": 52,
            "name": "E3",
            "ticks": 179520,
            "time": 233.75,
            "velocity": 0.03937007874015748
          },
          {
            "duration": 0.125,
            "durationTicks": 96,
            "midi": 61,
            "name": "C#4",
            "ticks": 179520,
            "time": 233.75,
            "velocity": 0.03937007874015748
          },
          {
            "duration": 0.125,
            "durationTicks": 96,
            "midi": 61,
            "name": "C#4",
            "ticks": 179616,
            "time": 233.875,
            "velocity": 0.023622047244094488
          },
          {
            "duration": 0.125,
            "durationTicks": 96,
            "midi": 52,
            "name": "E3",
            "ticks": 179616,
            "time": 233.875,
            "velocity": 0.023622047244094488
          },
          {
            "duration": 0.125,
            "durationTicks": 96,
            "midi": 56,
            "name": "G#3",
            "ticks": 179616,
            "time": 233.875,
            "velocity": 0.023622047244094488
          },
          {
            "duration": 0.0625,
            "durationTicks": 48,
            "midi": 61,
            "name": "C#4",
            "ticks": 198048,
            "time": 257.875,
            "velocity": 0.03937007874015748
          },
          {
            "duration": 0.0625,
            "durationTicks": 48,
            "midi": 64,
            "name": "E4",
            "ticks": 198048,
            "time": 257.875,
            "velocity": 0.03937007874015748
          },
          {
            "duration": 0.0625,
            "durationTicks": 48,
            "midi": 68,
            "name": "G#4",
            "ticks": 198048,
            "time": 257.875,
            "velocity": 0.03937007874015748
          },
          {
            "duration": 0.0625,
            "durationTicks": 48,
            "midi": 68,
            "name": "G#4",
            "ticks": 198144,
            "time": 258,
            "velocity": 0.03937007874015748
          },
          {
            "duration": 0.0625,
            "durationTicks": 48,
            "midi": 64,
            "name": "E4",
            "ticks": 198144,
            "time": 258,
            "velocity": 0.03937007874015748
          },
          {
            "duration": 0.0625,
            "durationTicks": 48,
            "midi": 61,
            "name": "C#4",
            "ticks": 198144,
            "time": 258,
            "velocity": 0.03937007874015748
          },
          {
            "duration": 0.0625,
            "durationTicks": 48,
            "midi": 68,
            "name": "G#4",
            "ticks": 198240,
            "time": 258.125,
            "velocity": 0.03937007874015748
          },
          {
            "duration": 0.0625,
            "durationTicks": 48,
            "midi": 64,
            "name": "E4",
            "ticks": 198240,
            "time": 258.125,
            "velocity": 0.03937007874015748
          },
          {
            "duration": 0.0625,
            "durationTicks": 48,
            "midi": 61,
            "name": "C#4",
            "ticks": 198240,
            "time": 258.125,
            "velocity": 0.03937007874015748
          },
          {
            "duration": 0.0625,
            "durationTicks": 48,
            "midi": 61,
            "name": "C#4",
            "ticks": 198336,
            "time": 258.25,
            "velocity": 0.03937007874015748
          },
          {
            "duration": 0.0625,
            "durationTicks": 48,
            "midi": 64,
            "name": "E4",
            "ticks": 198336,
            "time": 258.25,
            "velocity": 0.03937007874015748
          },
          {
            "duration": 0.0625,
            "durationTicks": 48,
            "midi": 68,
            "name": "G#4",
            "ticks": 198336,
            "time": 258.25,
            "velocity": 0.03937007874015748
          },
          {
            "duration": 0.0625,
            "durationTicks": 48,
            "midi": 64,
            "name": "E4",
            "ticks": 198432,
            "time": 258.375,
            "velocity": 0.03937007874015748
          },
          {
            "duration": 0.0625,
            "durationTicks": 48,
            "midi": 68,
            "name": "G#4",
            "ticks": 198432,
            "time": 258.375,
            "velocity": 0.03937007874015748
          },
          {
            "duration": 0.0625,
            "durationTicks": 48,
            "midi": 61,
            "name": "C#4",
            "ticks": 198432,
            "time": 258.375,
            "velocity": 0.03937007874015748
          },
          {
            "duration": 0.0625,
            "durationTicks": 48,
            "midi": 61,
            "name": "C#4",
            "ticks": 198528,
            "time": 258.5,
            "velocity": 0.03937007874015748
          },
          {
            "duration": 0.0625,
            "durationTicks": 48,
            "midi": 64,
            "name": "E4",
            "ticks": 198528,
            "time": 258.5,
            "velocity": 0.03937007874015748
          },
          {
            "duration": 0.0625,
            "durationTicks": 48,
            "midi": 68,
            "name": "G#4",
            "ticks": 198528,
            "time": 258.5,
            "velocity": 0.03937007874015748
          },
          {
            "duration": 0.0625,
            "durationTicks": 48,
            "midi": 64,
            "name": "E4",
            "ticks": 198624,
            "time": 258.625,
            "velocity": 0.03937007874015748
          },
          {
            "duration": 0.0625,
            "durationTicks": 48,
            "midi": 68,
            "name": "G#4",
            "ticks": 198624,
            "time": 258.625,
            "velocity": 0.03937007874015748
          },
          {
            "duration": 0.0625,
            "durationTicks": 48,
            "midi": 61,
            "name": "C#4",
            "ticks": 198624,
            "time": 258.625,
            "velocity": 0.03937007874015748
          },
          {
            "duration": 0.0625,
            "durationTicks": 48,
            "midi": 61,
            "name": "C#4",
            "ticks": 198720,
            "time": 258.75,
            "velocity": 0.03937007874015748
          },
          {
            "duration": 0.0625,
            "durationTicks": 48,
            "midi": 68,
            "name": "G#4",
            "ticks": 198720,
            "time": 258.75,
            "velocity": 0.03937007874015748
          },
          {
            "duration": 0.0625,
            "durationTicks": 48,
            "midi": 64,
            "name": "E4",
            "ticks": 198720,
            "time": 258.75,
            "velocity": 0.03937007874015748
          },
          {
            "duration": 0.0625,
            "durationTicks": 48,
            "midi": 61,
            "name": "C#4",
            "ticks": 198816,
            "time": 258.875,
            "velocity": 0.03937007874015748
          },
          {
            "duration": 0.0625,
            "durationTicks": 48,
            "midi": 68,
            "name": "G#4",
            "ticks": 198816,
            "time": 258.875,
            "velocity": 0.03937007874015748
          },
          {
            "duration": 0.0625,
            "durationTicks": 48,
            "midi": 64,
            "name": "E4",
            "ticks": 198816,
            "time": 258.875,
            "velocity": 0.03937007874015748
          },
          {
            "duration": 0.0625,
            "durationTicks": 48,
            "midi": 64,
            "name": "E4",
            "ticks": 198912,
            "time": 259,
            "velocity": 0.03937007874015748
          },
          {
            "duration": 0.0625,
            "durationTicks": 48,
            "midi": 61,
            "name": "C#4",
            "ticks": 198912,
            "time": 259,
            "velocity": 0.03937007874015748
          },
          {
            "duration": 0.0625,
            "durationTicks": 48,
            "midi": 68,
            "name": "G#4",
            "ticks": 198912,
            "time": 259,
            "velocity": 0.03937007874015748
          },
          {
            "duration": 0.0625,
            "durationTicks": 48,
            "midi": 64,
            "name": "E4",
            "ticks": 199008,
            "time": 259.125,
            "velocity": 0.03937007874015748
          },
          {
            "duration": 0.0625,
            "durationTicks": 48,
            "midi": 61,
            "name": "C#4",
            "ticks": 199008,
            "time": 259.125,
            "velocity": 0.03937007874015748
          },
          {
            "duration": 0.0625,
            "durationTicks": 48,
            "midi": 68,
            "name": "G#4",
            "ticks": 199008,
            "time": 259.125,
            "velocity": 0.03937007874015748
          },
          {
            "duration": 0.0625,
            "durationTicks": 48,
            "midi": 64,
            "name": "E4",
            "ticks": 199104,
            "time": 259.25,
            "velocity": 0.03937007874015748
          },
          {
            "duration": 0.0625,
            "durationTicks": 48,
            "midi": 61,
            "name": "C#4",
            "ticks": 199104,
            "time": 259.25,
            "velocity": 0.03937007874015748
          },
          {
            "duration": 0.0625,
            "durationTicks": 48,
            "midi": 68,
            "name": "G#4",
            "ticks": 199104,
            "time": 259.25,
            "velocity": 0.03937007874015748
          },
          {
            "duration": 0.0625,
            "durationTicks": 48,
            "midi": 61,
            "name": "C#4",
            "ticks": 199200,
            "time": 259.375,
            "velocity": 0.03937007874015748
          },
          {
            "duration": 0.0625,
            "durationTicks": 48,
            "midi": 64,
            "name": "E4",
            "ticks": 199200,
            "time": 259.375,
            "velocity": 0.03937007874015748
          },
          {
            "duration": 0.0625,
            "durationTicks": 48,
            "midi": 68,
            "name": "G#4",
            "ticks": 199200,
            "time": 259.375,
            "velocity": 0.03937007874015748
          },
          {
            "duration": 0.0625,
            "durationTicks": 48,
            "midi": 64,
            "name": "E4",
            "ticks": 199296,
            "time": 259.5,
            "velocity": 0.03937007874015748
          },
          {
            "duration": 0.0625,
            "durationTicks": 48,
            "midi": 61,
            "name": "C#4",
            "ticks": 199296,
            "time": 259.5,
            "velocity": 0.03937007874015748
          },
          {
            "duration": 0.0625,
            "durationTicks": 48,
            "midi": 68,
            "name": "G#4",
            "ticks": 199296,
            "time": 259.5,
            "velocity": 0.03937007874015748
          },
          {
            "duration": 0.0625,
            "durationTicks": 48,
            "midi": 64,
            "name": "E4",
            "ticks": 199392,
            "time": 259.625,
            "velocity": 0.03937007874015748
          },
          {
            "duration": 0.0625,
            "durationTicks": 48,
            "midi": 68,
            "name": "G#4",
            "ticks": 199392,
            "time": 259.625,
            "velocity": 0.03937007874015748
          },
          {
            "duration": 0.0625,
            "durationTicks": 48,
            "midi": 61,
            "name": "C#4",
            "ticks": 199392,
            "time": 259.625,
            "velocity": 0.03937007874015748
          },
          {
            "duration": 0.0625,
            "durationTicks": 48,
            "midi": 68,
            "name": "G#4",
            "ticks": 199488,
            "time": 259.75,
            "velocity": 0.03937007874015748
          },
          {
            "duration": 0.0625,
            "durationTicks": 48,
            "midi": 64,
            "name": "E4",
            "ticks": 199488,
            "time": 259.75,
            "velocity": 0.03937007874015748
          },
          {
            "duration": 0.0625,
            "durationTicks": 48,
            "midi": 61,
            "name": "C#4",
            "ticks": 199488,
            "time": 259.75,
            "velocity": 0.03937007874015748
          },
          {
            "duration": 0.0625,
            "durationTicks": 48,
            "midi": 61,
            "name": "C#4",
            "ticks": 199584,
            "time": 259.875,
            "velocity": 0.03937007874015748
          },
          {
            "duration": 0.0625,
            "durationTicks": 48,
            "midi": 64,
            "name": "E4",
            "ticks": 199584,
            "time": 259.875,
            "velocity": 0.03937007874015748
          },
          {
            "duration": 0.0625,
            "durationTicks": 48,
            "midi": 69,
            "name": "A4",
            "ticks": 199584,
            "time": 259.875,
            "velocity": 0.03937007874015748
          },
          {
            "duration": 0.0625,
            "durationTicks": 48,
            "midi": 69,
            "name": "A4",
            "ticks": 199680,
            "time": 260,
            "velocity": 0.03937007874015748
          },
          {
            "duration": 0.0625,
            "durationTicks": 48,
            "midi": 61,
            "name": "C#4",
            "ticks": 199680,
            "time": 260,
            "velocity": 0.03937007874015748
          },
          {
            "duration": 0.0625,
            "durationTicks": 48,
            "midi": 64,
            "name": "E4",
            "ticks": 199680,
            "time": 260,
            "velocity": 0.03937007874015748
          },
          {
            "duration": 0.0625,
            "durationTicks": 48,
            "midi": 61,
            "name": "C#4",
            "ticks": 199776,
            "time": 260.125,
            "velocity": 0.03937007874015748
          },
          {
            "duration": 0.0625,
            "durationTicks": 48,
            "midi": 64,
            "name": "E4",
            "ticks": 199776,
            "time": 260.125,
            "velocity": 0.03937007874015748
          },
          {
            "duration": 0.0625,
            "durationTicks": 48,
            "midi": 69,
            "name": "A4",
            "ticks": 199776,
            "time": 260.125,
            "velocity": 0.03937007874015748
          },
          {
            "duration": 0.0625,
            "durationTicks": 48,
            "midi": 69,
            "name": "A4",
            "ticks": 199872,
            "time": 260.25,
            "velocity": 0.03937007874015748
          },
          {
            "duration": 0.0625,
            "durationTicks": 48,
            "midi": 61,
            "name": "C#4",
            "ticks": 199872,
            "time": 260.25,
            "velocity": 0.03937007874015748
          },
          {
            "duration": 0.0625,
            "durationTicks": 48,
            "midi": 64,
            "name": "E4",
            "ticks": 199872,
            "time": 260.25,
            "velocity": 0.03937007874015748
          },
          {
            "duration": 0.0625,
            "durationTicks": 48,
            "midi": 64,
            "name": "E4",
            "ticks": 199968,
            "time": 260.375,
            "velocity": 0.03937007874015748
          },
          {
            "duration": 0.0625,
            "durationTicks": 48,
            "midi": 69,
            "name": "A4",
            "ticks": 199968,
            "time": 260.375,
            "velocity": 0.03937007874015748
          },
          {
            "duration": 0.0625,
            "durationTicks": 48,
            "midi": 61,
            "name": "C#4",
            "ticks": 199968,
            "time": 260.375,
            "velocity": 0.03937007874015748
          },
          {
            "duration": 0.0625,
            "durationTicks": 48,
            "midi": 64,
            "name": "E4",
            "ticks": 200064,
            "time": 260.5,
            "velocity": 0.03937007874015748
          },
          {
            "duration": 0.0625,
            "durationTicks": 48,
            "midi": 69,
            "name": "A4",
            "ticks": 200064,
            "time": 260.5,
            "velocity": 0.03937007874015748
          },
          {
            "duration": 0.0625,
            "durationTicks": 48,
            "midi": 61,
            "name": "C#4",
            "ticks": 200064,
            "time": 260.5,
            "velocity": 0.03937007874015748
          },
          {
            "duration": 0.0625,
            "durationTicks": 48,
            "midi": 69,
            "name": "A4",
            "ticks": 200160,
            "time": 260.625,
            "velocity": 0.03937007874015748
          },
          {
            "duration": 0.0625,
            "durationTicks": 48,
            "midi": 64,
            "name": "E4",
            "ticks": 200160,
            "time": 260.625,
            "velocity": 0.03937007874015748
          },
          {
            "duration": 0.0625,
            "durationTicks": 48,
            "midi": 61,
            "name": "C#4",
            "ticks": 200160,
            "time": 260.625,
            "velocity": 0.03937007874015748
          },
          {
            "duration": 0.0625,
            "durationTicks": 48,
            "midi": 61,
            "name": "C#4",
            "ticks": 200256,
            "time": 260.75,
            "velocity": 0.03937007874015748
          },
          {
            "duration": 0.0625,
            "durationTicks": 48,
            "midi": 69,
            "name": "A4",
            "ticks": 200256,
            "time": 260.75,
            "velocity": 0.03937007874015748
          },
          {
            "duration": 0.0625,
            "durationTicks": 48,
            "midi": 64,
            "name": "E4",
            "ticks": 200256,
            "time": 260.75,
            "velocity": 0.03937007874015748
          },
          {
            "duration": 0.0625,
            "durationTicks": 48,
            "midi": 69,
            "name": "A4",
            "ticks": 200352,
            "time": 260.875,
            "velocity": 0.03937007874015748
          },
          {
            "duration": 0.0625,
            "durationTicks": 48,
            "midi": 61,
            "name": "C#4",
            "ticks": 200352,
            "time": 260.875,
            "velocity": 0.03937007874015748
          },
          {
            "duration": 0.0625,
            "durationTicks": 48,
            "midi": 64,
            "name": "E4",
            "ticks": 200352,
            "time": 260.875,
            "velocity": 0.03937007874015748
          },
          {
            "duration": 0.0625,
            "durationTicks": 48,
            "midi": 64,
            "name": "E4",
            "ticks": 200448,
            "time": 261,
            "velocity": 0.03937007874015748
          },
          {
            "duration": 0.0625,
            "durationTicks": 48,
            "midi": 69,
            "name": "A4",
            "ticks": 200448,
            "time": 261,
            "velocity": 0.03937007874015748
          },
          {
            "duration": 0.0625,
            "durationTicks": 48,
            "midi": 61,
            "name": "C#4",
            "ticks": 200448,
            "time": 261,
            "velocity": 0.03937007874015748
          },
          {
            "duration": 0.0625,
            "durationTicks": 48,
            "midi": 69,
            "name": "A4",
            "ticks": 200544,
            "time": 261.125,
            "velocity": 0.03937007874015748
          },
          {
            "duration": 0.0625,
            "durationTicks": 48,
            "midi": 61,
            "name": "C#4",
            "ticks": 200544,
            "time": 261.125,
            "velocity": 0.03937007874015748
          },
          {
            "duration": 0.0625,
            "durationTicks": 48,
            "midi": 64,
            "name": "E4",
            "ticks": 200544,
            "time": 261.125,
            "velocity": 0.03937007874015748
          },
          {
            "duration": 0.0625,
            "durationTicks": 48,
            "midi": 61,
            "name": "C#4",
            "ticks": 200640,
            "time": 261.25,
            "velocity": 0.03937007874015748
          },
          {
            "duration": 0.0625,
            "durationTicks": 48,
            "midi": 69,
            "name": "A4",
            "ticks": 200640,
            "time": 261.25,
            "velocity": 0.03937007874015748
          },
          {
            "duration": 0.0625,
            "durationTicks": 48,
            "midi": 64,
            "name": "E4",
            "ticks": 200640,
            "time": 261.25,
            "velocity": 0.03937007874015748
          },
          {
            "duration": 0.0625,
            "durationTicks": 48,
            "midi": 64,
            "name": "E4",
            "ticks": 200736,
            "time": 261.375,
            "velocity": 0.03937007874015748
          },
          {
            "duration": 0.0625,
            "durationTicks": 48,
            "midi": 69,
            "name": "A4",
            "ticks": 200736,
            "time": 261.375,
            "velocity": 0.03937007874015748
          },
          {
            "duration": 0.0625,
            "durationTicks": 48,
            "midi": 61,
            "name": "C#4",
            "ticks": 200736,
            "time": 261.375,
            "velocity": 0.03937007874015748
          },
          {
            "duration": 0.0625,
            "durationTicks": 48,
            "midi": 69,
            "name": "A4",
            "ticks": 200832,
            "time": 261.5,
            "velocity": 0.03937007874015748
          },
          {
            "duration": 0.0625,
            "durationTicks": 48,
            "midi": 64,
            "name": "E4",
            "ticks": 200832,
            "time": 261.5,
            "velocity": 0.03937007874015748
          },
          {
            "duration": 0.0625,
            "durationTicks": 48,
            "midi": 61,
            "name": "C#4",
            "ticks": 200832,
            "time": 261.5,
            "velocity": 0.03937007874015748
          },
          {
            "duration": 0.0625,
            "durationTicks": 48,
            "midi": 64,
            "name": "E4",
            "ticks": 200928,
            "time": 261.625,
            "velocity": 0.03937007874015748
          },
          {
            "duration": 0.0625,
            "durationTicks": 48,
            "midi": 69,
            "name": "A4",
            "ticks": 200928,
            "time": 261.625,
            "velocity": 0.03937007874015748
          },
          {
            "duration": 0.0625,
            "durationTicks": 48,
            "midi": 61,
            "name": "C#4",
            "ticks": 200928,
            "time": 261.625,
            "velocity": 0.03937007874015748
          },
          {
            "duration": 0.0625,
            "durationTicks": 48,
            "midi": 69,
            "name": "A4",
            "ticks": 201024,
            "time": 261.75,
            "velocity": 0.03937007874015748
          },
          {
            "duration": 0.0625,
            "durationTicks": 48,
            "midi": 64,
            "name": "E4",
            "ticks": 201024,
            "time": 261.75,
            "velocity": 0.03937007874015748
          },
          {
            "duration": 0.0625,
            "durationTicks": 48,
            "midi": 61,
            "name": "C#4",
            "ticks": 201024,
            "time": 261.75,
            "velocity": 0.03937007874015748
          },
          {
            "duration": 0.0625,
            "durationTicks": 48,
            "midi": 59,
            "name": "B3",
            "ticks": 201120,
            "time": 261.875,
            "velocity": 0.03937007874015748
          },
          {
            "duration": 0.0625,
            "durationTicks": 48,
            "midi": 63,
            "name": "D#4",
            "ticks": 201120,
            "time": 261.875,
            "velocity": 0.03937007874015748
          },
          {
            "duration": 0.0625,
            "durationTicks": 48,
            "midi": 66,
            "name": "F#4",
            "ticks": 201120,
            "time": 261.875,
            "velocity": 0.03937007874015748
          },
          {
            "duration": 0.0625,
            "durationTicks": 48,
            "midi": 66,
            "name": "F#4",
            "ticks": 201216,
            "time": 262,
            "velocity": 0.03937007874015748
          },
          {
            "duration": 0.0625,
            "durationTicks": 48,
            "midi": 59,
            "name": "B3",
            "ticks": 201216,
            "time": 262,
            "velocity": 0.03937007874015748
          },
          {
            "duration": 0.0625,
            "durationTicks": 48,
            "midi": 63,
            "name": "D#4",
            "ticks": 201216,
            "time": 262,
            "velocity": 0.03937007874015748
          },
          {
            "duration": 0.0625,
            "durationTicks": 48,
            "midi": 59,
            "name": "B3",
            "ticks": 201312,
            "time": 262.125,
            "velocity": 0.03937007874015748
          },
          {
            "duration": 0.0625,
            "durationTicks": 48,
            "midi": 66,
            "name": "F#4",
            "ticks": 201312,
            "time": 262.125,
            "velocity": 0.03937007874015748
          },
          {
            "duration": 0.0625,
            "durationTicks": 48,
            "midi": 63,
            "name": "D#4",
            "ticks": 201312,
            "time": 262.125,
            "velocity": 0.03937007874015748
          },
          {
            "duration": 0.0625,
            "durationTicks": 48,
            "midi": 66,
            "name": "F#4",
            "ticks": 201408,
            "time": 262.25,
            "velocity": 0.03937007874015748
          },
          {
            "duration": 0.0625,
            "durationTicks": 48,
            "midi": 59,
            "name": "B3",
            "ticks": 201408,
            "time": 262.25,
            "velocity": 0.03937007874015748
          },
          {
            "duration": 0.0625,
            "durationTicks": 48,
            "midi": 63,
            "name": "D#4",
            "ticks": 201408,
            "time": 262.25,
            "velocity": 0.03937007874015748
          },
          {
            "duration": 0.0625,
            "durationTicks": 48,
            "midi": 63,
            "name": "D#4",
            "ticks": 201504,
            "time": 262.375,
            "velocity": 0.03937007874015748
          },
          {
            "duration": 0.0625,
            "durationTicks": 48,
            "midi": 59,
            "name": "B3",
            "ticks": 201504,
            "time": 262.375,
            "velocity": 0.03937007874015748
          },
          {
            "duration": 0.0625,
            "durationTicks": 48,
            "midi": 66,
            "name": "F#4",
            "ticks": 201504,
            "time": 262.375,
            "velocity": 0.03937007874015748
          },
          {
            "duration": 0.0625,
            "durationTicks": 48,
            "midi": 66,
            "name": "F#4",
            "ticks": 201600,
            "time": 262.5,
            "velocity": 0.03937007874015748
          },
          {
            "duration": 0.0625,
            "durationTicks": 48,
            "midi": 63,
            "name": "D#4",
            "ticks": 201600,
            "time": 262.5,
            "velocity": 0.03937007874015748
          },
          {
            "duration": 0.0625,
            "durationTicks": 48,
            "midi": 59,
            "name": "B3",
            "ticks": 201600,
            "time": 262.5,
            "velocity": 0.03937007874015748
          },
          {
            "duration": 0.0625,
            "durationTicks": 48,
            "midi": 63,
            "name": "D#4",
            "ticks": 201696,
            "time": 262.625,
            "velocity": 0.03937007874015748
          },
          {
            "duration": 0.0625,
            "durationTicks": 48,
            "midi": 66,
            "name": "F#4",
            "ticks": 201696,
            "time": 262.625,
            "velocity": 0.03937007874015748
          },
          {
            "duration": 0.0625,
            "durationTicks": 48,
            "midi": 59,
            "name": "B3",
            "ticks": 201696,
            "time": 262.625,
            "velocity": 0.03937007874015748
          },
          {
            "duration": 0.0625,
            "durationTicks": 48,
            "midi": 63,
            "name": "D#4",
            "ticks": 201792,
            "time": 262.75,
            "velocity": 0.03937007874015748
          },
          {
            "duration": 0.0625,
            "durationTicks": 48,
            "midi": 59,
            "name": "B3",
            "ticks": 201792,
            "time": 262.75,
            "velocity": 0.03937007874015748
          },
          {
            "duration": 0.0625,
            "durationTicks": 48,
            "midi": 66,
            "name": "F#4",
            "ticks": 201792,
            "time": 262.75,
            "velocity": 0.03937007874015748
          },
          {
            "duration": 0.0625,
            "durationTicks": 48,
            "midi": 63,
            "name": "D#4",
            "ticks": 201888,
            "time": 262.875,
            "velocity": 0.03937007874015748
          },
          {
            "duration": 0.0625,
            "durationTicks": 48,
            "midi": 59,
            "name": "B3",
            "ticks": 201888,
            "time": 262.875,
            "velocity": 0.03937007874015748
          },
          {
            "duration": 0.0625,
            "durationTicks": 48,
            "midi": 66,
            "name": "F#4",
            "ticks": 201888,
            "time": 262.875,
            "velocity": 0.03937007874015748
          },
          {
            "duration": 0.0625,
            "durationTicks": 48,
            "midi": 66,
            "name": "F#4",
            "ticks": 201984,
            "time": 263,
            "velocity": 0.03937007874015748
          },
          {
            "duration": 0.0625,
            "durationTicks": 48,
            "midi": 63,
            "name": "D#4",
            "ticks": 201984,
            "time": 263,
            "velocity": 0.03937007874015748
          },
          {
            "duration": 0.0625,
            "durationTicks": 48,
            "midi": 59,
            "name": "B3",
            "ticks": 201984,
            "time": 263,
            "velocity": 0.03937007874015748
          },
          {
            "duration": 0.0625,
            "durationTicks": 48,
            "midi": 59,
            "name": "B3",
            "ticks": 202080,
            "time": 263.125,
            "velocity": 0.03937007874015748
          },
          {
            "duration": 0.0625,
            "durationTicks": 48,
            "midi": 63,
            "name": "D#4",
            "ticks": 202080,
            "time": 263.125,
            "velocity": 0.03937007874015748
          },
          {
            "duration": 0.0625,
            "durationTicks": 48,
            "midi": 66,
            "name": "F#4",
            "ticks": 202080,
            "time": 263.125,
            "velocity": 0.03937007874015748
          },
          {
            "duration": 0.0625,
            "durationTicks": 48,
            "midi": 66,
            "name": "F#4",
            "ticks": 202176,
            "time": 263.25,
            "velocity": 0.03937007874015748
          },
          {
            "duration": 0.0625,
            "durationTicks": 48,
            "midi": 63,
            "name": "D#4",
            "ticks": 202176,
            "time": 263.25,
            "velocity": 0.03937007874015748
          },
          {
            "duration": 0.0625,
            "durationTicks": 48,
            "midi": 59,
            "name": "B3",
            "ticks": 202176,
            "time": 263.25,
            "velocity": 0.03937007874015748
          },
          {
            "duration": 0.0625,
            "durationTicks": 48,
            "midi": 59,
            "name": "B3",
            "ticks": 202272,
            "time": 263.375,
            "velocity": 0.03937007874015748
          },
          {
            "duration": 0.0625,
            "durationTicks": 48,
            "midi": 63,
            "name": "D#4",
            "ticks": 202272,
            "time": 263.375,
            "velocity": 0.03937007874015748
          },
          {
            "duration": 0.0625,
            "durationTicks": 48,
            "midi": 66,
            "name": "F#4",
            "ticks": 202272,
            "time": 263.375,
            "velocity": 0.03937007874015748
          },
          {
            "duration": 0.0625,
            "durationTicks": 48,
            "midi": 59,
            "name": "B3",
            "ticks": 202368,
            "time": 263.5,
            "velocity": 0.03937007874015748
          },
          {
            "duration": 0.0625,
            "durationTicks": 48,
            "midi": 66,
            "name": "F#4",
            "ticks": 202368,
            "time": 263.5,
            "velocity": 0.03937007874015748
          },
          {
            "duration": 0.0625,
            "durationTicks": 48,
            "midi": 63,
            "name": "D#4",
            "ticks": 202368,
            "time": 263.5,
            "velocity": 0.03937007874015748
          },
          {
            "duration": 0.0625,
            "durationTicks": 48,
            "midi": 66,
            "name": "F#4",
            "ticks": 202464,
            "time": 263.625,
            "velocity": 0.03937007874015748
          },
          {
            "duration": 0.0625,
            "durationTicks": 48,
            "midi": 63,
            "name": "D#4",
            "ticks": 202464,
            "time": 263.625,
            "velocity": 0.03937007874015748
          },
          {
            "duration": 0.0625,
            "durationTicks": 48,
            "midi": 59,
            "name": "B3",
            "ticks": 202464,
            "time": 263.625,
            "velocity": 0.03937007874015748
          },
          {
            "duration": 0.0625,
            "durationTicks": 48,
            "midi": 66,
            "name": "F#4",
            "ticks": 202560,
            "time": 263.75,
            "velocity": 0.03937007874015748
          },
          {
            "duration": 0.0625,
            "durationTicks": 48,
            "midi": 59,
            "name": "B3",
            "ticks": 202560,
            "time": 263.75,
            "velocity": 0.03937007874015748
          },
          {
            "duration": 0.0625,
            "durationTicks": 48,
            "midi": 63,
            "name": "D#4",
            "ticks": 202560,
            "time": 263.75,
            "velocity": 0.03937007874015748
          },
          {
            "duration": 0.0625,
            "durationTicks": 48,
            "midi": 58,
            "name": "A#3",
            "ticks": 202656,
            "time": 263.875,
            "velocity": 0.03937007874015748
          },
          {
            "duration": 0.0625,
            "durationTicks": 48,
            "midi": 61,
            "name": "C#4",
            "ticks": 202656,
            "time": 263.875,
            "velocity": 0.03937007874015748
          },
          {
            "duration": 0.0625,
            "durationTicks": 48,
            "midi": 66,
            "name": "F#4",
            "ticks": 202656,
            "time": 263.875,
            "velocity": 0.03937007874015748
          },
          {
            "duration": 0.0625,
            "durationTicks": 48,
            "midi": 58,
            "name": "A#3",
            "ticks": 202752,
            "time": 264,
            "velocity": 0.03937007874015748
          },
          {
            "duration": 0.0625,
            "durationTicks": 48,
            "midi": 66,
            "name": "F#4",
            "ticks": 202752,
            "time": 264,
            "velocity": 0.03937007874015748
          },
          {
            "duration": 0.0625,
            "durationTicks": 48,
            "midi": 61,
            "name": "C#4",
            "ticks": 202752,
            "time": 264,
            "velocity": 0.03937007874015748
          },
          {
            "duration": 0.0625,
            "durationTicks": 48,
            "midi": 61,
            "name": "C#4",
            "ticks": 202848,
            "time": 264.125,
            "velocity": 0.03937007874015748
          },
          {
            "duration": 0.0625,
            "durationTicks": 48,
            "midi": 66,
            "name": "F#4",
            "ticks": 202848,
            "time": 264.125,
            "velocity": 0.03937007874015748
          },
          {
            "duration": 0.0625,
            "durationTicks": 48,
            "midi": 58,
            "name": "A#3",
            "ticks": 202848,
            "time": 264.125,
            "velocity": 0.03937007874015748
          },
          {
            "duration": 0.0625,
            "durationTicks": 48,
            "midi": 58,
            "name": "A#3",
            "ticks": 202944,
            "time": 264.25,
            "velocity": 0.03937007874015748
          },
          {
            "duration": 0.0625,
            "durationTicks": 48,
            "midi": 61,
            "name": "C#4",
            "ticks": 202944,
            "time": 264.25,
            "velocity": 0.03937007874015748
          },
          {
            "duration": 0.0625,
            "durationTicks": 48,
            "midi": 66,
            "name": "F#4",
            "ticks": 202944,
            "time": 264.25,
            "velocity": 0.03937007874015748
          },
          {
            "duration": 0.0625,
            "durationTicks": 48,
            "midi": 61,
            "name": "C#4",
            "ticks": 203040,
            "time": 264.375,
            "velocity": 0.03937007874015748
          },
          {
            "duration": 0.0625,
            "durationTicks": 48,
            "midi": 58,
            "name": "A#3",
            "ticks": 203040,
            "time": 264.375,
            "velocity": 0.03937007874015748
          },
          {
            "duration": 0.0625,
            "durationTicks": 48,
            "midi": 66,
            "name": "F#4",
            "ticks": 203040,
            "time": 264.375,
            "velocity": 0.03937007874015748
          },
          {
            "duration": 0.0625,
            "durationTicks": 48,
            "midi": 61,
            "name": "C#4",
            "ticks": 203136,
            "time": 264.5,
            "velocity": 0.03937007874015748
          },
          {
            "duration": 0.0625,
            "durationTicks": 48,
            "midi": 66,
            "name": "F#4",
            "ticks": 203136,
            "time": 264.5,
            "velocity": 0.03937007874015748
          },
          {
            "duration": 0.0625,
            "durationTicks": 48,
            "midi": 58,
            "name": "A#3",
            "ticks": 203136,
            "time": 264.5,
            "velocity": 0.03937007874015748
          },
          {
            "duration": 0.0625,
            "durationTicks": 48,
            "midi": 58,
            "name": "A#3",
            "ticks": 203232,
            "time": 264.625,
            "velocity": 0.03937007874015748
          },
          {
            "duration": 0.0625,
            "durationTicks": 48,
            "midi": 61,
            "name": "C#4",
            "ticks": 203232,
            "time": 264.625,
            "velocity": 0.03937007874015748
          },
          {
            "duration": 0.0625,
            "durationTicks": 48,
            "midi": 66,
            "name": "F#4",
            "ticks": 203232,
            "time": 264.625,
            "velocity": 0.03937007874015748
          },
          {
            "duration": 0.0625,
            "durationTicks": 48,
            "midi": 66,
            "name": "F#4",
            "ticks": 203328,
            "time": 264.75,
            "velocity": 0.03937007874015748
          },
          {
            "duration": 0.0625,
            "durationTicks": 48,
            "midi": 61,
            "name": "C#4",
            "ticks": 203328,
            "time": 264.75,
            "velocity": 0.03937007874015748
          },
          {
            "duration": 0.0625,
            "durationTicks": 48,
            "midi": 58,
            "name": "A#3",
            "ticks": 203328,
            "time": 264.75,
            "velocity": 0.03937007874015748
          },
          {
            "duration": 0.0625,
            "durationTicks": 48,
            "midi": 58,
            "name": "A#3",
            "ticks": 203424,
            "time": 264.875,
            "velocity": 0.03937007874015748
          },
          {
            "duration": 0.0625,
            "durationTicks": 48,
            "midi": 66,
            "name": "F#4",
            "ticks": 203424,
            "time": 264.875,
            "velocity": 0.03937007874015748
          },
          {
            "duration": 0.0625,
            "durationTicks": 48,
            "midi": 61,
            "name": "C#4",
            "ticks": 203424,
            "time": 264.875,
            "velocity": 0.03937007874015748
          },
          {
            "duration": 0.0625,
            "durationTicks": 48,
            "midi": 58,
            "name": "A#3",
            "ticks": 203520,
            "time": 265,
            "velocity": 0.03937007874015748
          },
          {
            "duration": 0.0625,
            "durationTicks": 48,
            "midi": 66,
            "name": "F#4",
            "ticks": 203520,
            "time": 265,
            "velocity": 0.03937007874015748
          },
          {
            "duration": 0.0625,
            "durationTicks": 48,
            "midi": 61,
            "name": "C#4",
            "ticks": 203520,
            "time": 265,
            "velocity": 0.03937007874015748
          },
          {
            "duration": 0.0625,
            "durationTicks": 48,
            "midi": 58,
            "name": "A#3",
            "ticks": 203616,
            "time": 265.125,
            "velocity": 0.03937007874015748
          },
          {
            "duration": 0.0625,
            "durationTicks": 48,
            "midi": 66,
            "name": "F#4",
            "ticks": 203616,
            "time": 265.125,
            "velocity": 0.03937007874015748
          },
          {
            "duration": 0.0625,
            "durationTicks": 48,
            "midi": 61,
            "name": "C#4",
            "ticks": 203616,
            "time": 265.125,
            "velocity": 0.03937007874015748
          },
          {
            "duration": 0.0625,
            "durationTicks": 48,
            "midi": 61,
            "name": "C#4",
            "ticks": 203712,
            "time": 265.25,
            "velocity": 0.03937007874015748
          },
          {
            "duration": 0.0625,
            "durationTicks": 48,
            "midi": 66,
            "name": "F#4",
            "ticks": 203712,
            "time": 265.25,
            "velocity": 0.03937007874015748
          },
          {
            "duration": 0.0625,
            "durationTicks": 48,
            "midi": 58,
            "name": "A#3",
            "ticks": 203712,
            "time": 265.25,
            "velocity": 0.03937007874015748
          },
          {
            "duration": 0.0625,
            "durationTicks": 48,
            "midi": 66,
            "name": "F#4",
            "ticks": 203808,
            "time": 265.375,
            "velocity": 0.03937007874015748
          },
          {
            "duration": 0.0625,
            "durationTicks": 48,
            "midi": 61,
            "name": "C#4",
            "ticks": 203808,
            "time": 265.375,
            "velocity": 0.03937007874015748
          },
          {
            "duration": 0.0625,
            "durationTicks": 48,
            "midi": 58,
            "name": "A#3",
            "ticks": 203808,
            "time": 265.375,
            "velocity": 0.03937007874015748
          },
          {
            "duration": 0.0625,
            "durationTicks": 48,
            "midi": 61,
            "name": "C#4",
            "ticks": 203904,
            "time": 265.5,
            "velocity": 0.03937007874015748
          },
          {
            "duration": 0.0625,
            "durationTicks": 48,
            "midi": 66,
            "name": "F#4",
            "ticks": 203904,
            "time": 265.5,
            "velocity": 0.03937007874015748
          },
          {
            "duration": 0.0625,
            "durationTicks": 48,
            "midi": 58,
            "name": "A#3",
            "ticks": 203904,
            "time": 265.5,
            "velocity": 0.03937007874015748
          },
          {
            "duration": 0.0625,
            "durationTicks": 48,
            "midi": 66,
            "name": "F#4",
            "ticks": 204000,
            "time": 265.625,
            "velocity": 0.03937007874015748
          },
          {
            "duration": 0.0625,
            "durationTicks": 48,
            "midi": 58,
            "name": "A#3",
            "ticks": 204000,
            "time": 265.625,
            "velocity": 0.03937007874015748
          },
          {
            "duration": 0.0625,
            "durationTicks": 48,
            "midi": 61,
            "name": "C#4",
            "ticks": 204000,
            "time": 265.625,
            "velocity": 0.03937007874015748
          },
          {
            "duration": 0.0625,
            "durationTicks": 48,
            "midi": 58,
            "name": "A#3",
            "ticks": 204096,
            "time": 265.75,
            "velocity": 0.03937007874015748
          },
          {
            "duration": 0.0625,
            "durationTicks": 48,
            "midi": 66,
            "name": "F#4",
            "ticks": 204096,
            "time": 265.75,
            "velocity": 0.03937007874015748
          },
          {
            "duration": 0.0625,
            "durationTicks": 48,
            "midi": 61,
            "name": "C#4",
            "ticks": 204096,
            "time": 265.75,
            "velocity": 0.03937007874015748
          },
          {
            "duration": 0.0625,
            "durationTicks": 48,
            "midi": 68,
            "name": "G#4",
            "ticks": 204192,
            "time": 265.875,
            "velocity": 0.03937007874015748
          },
          {
            "duration": 0.0625,
            "durationTicks": 48,
            "midi": 61,
            "name": "C#4",
            "ticks": 204192,
            "time": 265.875,
            "velocity": 0.03937007874015748
          },
          {
            "duration": 0.0625,
            "durationTicks": 48,
            "midi": 64,
            "name": "E4",
            "ticks": 204192,
            "time": 265.875,
            "velocity": 0.03937007874015748
          },
          {
            "duration": 0.0625,
            "durationTicks": 48,
            "midi": 64,
            "name": "E4",
            "ticks": 204288,
            "time": 266,
            "velocity": 0.03937007874015748
          },
          {
            "duration": 0.0625,
            "durationTicks": 48,
            "midi": 68,
            "name": "G#4",
            "ticks": 204288,
            "time": 266,
            "velocity": 0.03937007874015748
          },
          {
            "duration": 0.0625,
            "durationTicks": 48,
            "midi": 61,
            "name": "C#4",
            "ticks": 204288,
            "time": 266,
            "velocity": 0.03937007874015748
          },
          {
            "duration": 0.0625,
            "durationTicks": 48,
            "midi": 64,
            "name": "E4",
            "ticks": 204384,
            "time": 266.125,
            "velocity": 0.03937007874015748
          },
          {
            "duration": 0.0625,
            "durationTicks": 48,
            "midi": 61,
            "name": "C#4",
            "ticks": 204384,
            "time": 266.125,
            "velocity": 0.03937007874015748
          },
          {
            "duration": 0.0625,
            "durationTicks": 48,
            "midi": 68,
            "name": "G#4",
            "ticks": 204384,
            "time": 266.125,
            "velocity": 0.03937007874015748
          },
          {
            "duration": 0.0625,
            "durationTicks": 48,
            "midi": 68,
            "name": "G#4",
            "ticks": 204480,
            "time": 266.25,
            "velocity": 0.03937007874015748
          },
          {
            "duration": 0.0625,
            "durationTicks": 48,
            "midi": 64,
            "name": "E4",
            "ticks": 204480,
            "time": 266.25,
            "velocity": 0.03937007874015748
          },
          {
            "duration": 0.0625,
            "durationTicks": 48,
            "midi": 61,
            "name": "C#4",
            "ticks": 204480,
            "time": 266.25,
            "velocity": 0.03937007874015748
          },
          {
            "duration": 0.0625,
            "durationTicks": 48,
            "midi": 64,
            "name": "E4",
            "ticks": 204576,
            "time": 266.375,
            "velocity": 0.03937007874015748
          },
          {
            "duration": 0.0625,
            "durationTicks": 48,
            "midi": 61,
            "name": "C#4",
            "ticks": 204576,
            "time": 266.375,
            "velocity": 0.03937007874015748
          },
          {
            "duration": 0.0625,
            "durationTicks": 48,
            "midi": 68,
            "name": "G#4",
            "ticks": 204576,
            "time": 266.375,
            "velocity": 0.03937007874015748
          },
          {
            "duration": 0.0625,
            "durationTicks": 48,
            "midi": 64,
            "name": "E4",
            "ticks": 204672,
            "time": 266.5,
            "velocity": 0.03937007874015748
          },
          {
            "duration": 0.0625,
            "durationTicks": 48,
            "midi": 68,
            "name": "G#4",
            "ticks": 204672,
            "time": 266.5,
            "velocity": 0.03937007874015748
          },
          {
            "duration": 0.0625,
            "durationTicks": 48,
            "midi": 61,
            "name": "C#4",
            "ticks": 204672,
            "time": 266.5,
            "velocity": 0.03937007874015748
          },
          {
            "duration": 0.0625,
            "durationTicks": 48,
            "midi": 68,
            "name": "G#4",
            "ticks": 204768,
            "time": 266.625,
            "velocity": 0.03937007874015748
          },
          {
            "duration": 0.0625,
            "durationTicks": 48,
            "midi": 61,
            "name": "C#4",
            "ticks": 204768,
            "time": 266.625,
            "velocity": 0.03937007874015748
          },
          {
            "duration": 0.0625,
            "durationTicks": 48,
            "midi": 64,
            "name": "E4",
            "ticks": 204768,
            "time": 266.625,
            "velocity": 0.03937007874015748
          },
          {
            "duration": 0.0625,
            "durationTicks": 48,
            "midi": 61,
            "name": "C#4",
            "ticks": 204864,
            "time": 266.75,
            "velocity": 0.03937007874015748
          },
          {
            "duration": 0.0625,
            "durationTicks": 48,
            "midi": 64,
            "name": "E4",
            "ticks": 204864,
            "time": 266.75,
            "velocity": 0.03937007874015748
          },
          {
            "duration": 0.0625,
            "durationTicks": 48,
            "midi": 68,
            "name": "G#4",
            "ticks": 204864,
            "time": 266.75,
            "velocity": 0.03937007874015748
          },
          {
            "duration": 0.0625,
            "durationTicks": 48,
            "midi": 64,
            "name": "E4",
            "ticks": 204960,
            "time": 266.875,
            "velocity": 0.03937007874015748
          },
          {
            "duration": 0.0625,
            "durationTicks": 48,
            "midi": 68,
            "name": "G#4",
            "ticks": 204960,
            "time": 266.875,
            "velocity": 0.03937007874015748
          },
          {
            "duration": 0.0625,
            "durationTicks": 48,
            "midi": 61,
            "name": "C#4",
            "ticks": 204960,
            "time": 266.875,
            "velocity": 0.03937007874015748
          },
          {
            "duration": 0.0625,
            "durationTicks": 48,
            "midi": 61,
            "name": "C#4",
            "ticks": 205056,
            "time": 267,
            "velocity": 0.03937007874015748
          },
          {
            "duration": 0.0625,
            "durationTicks": 48,
            "midi": 64,
            "name": "E4",
            "ticks": 205056,
            "time": 267,
            "velocity": 0.03937007874015748
          },
          {
            "duration": 0.0625,
            "durationTicks": 48,
            "midi": 68,
            "name": "G#4",
            "ticks": 205056,
            "time": 267,
            "velocity": 0.03937007874015748
          },
          {
            "duration": 0.0625,
            "durationTicks": 48,
            "midi": 64,
            "name": "E4",
            "ticks": 205152,
            "time": 267.125,
            "velocity": 0.03937007874015748
          },
          {
            "duration": 0.0625,
            "durationTicks": 48,
            "midi": 68,
            "name": "G#4",
            "ticks": 205152,
            "time": 267.125,
            "velocity": 0.03937007874015748
          },
          {
            "duration": 0.0625,
            "durationTicks": 48,
            "midi": 61,
            "name": "C#4",
            "ticks": 205152,
            "time": 267.125,
            "velocity": 0.03937007874015748
          },
          {
            "duration": 0.0625,
            "durationTicks": 48,
            "midi": 64,
            "name": "E4",
            "ticks": 205248,
            "time": 267.25,
            "velocity": 0.03937007874015748
          },
          {
            "duration": 0.0625,
            "durationTicks": 48,
            "midi": 68,
            "name": "G#4",
            "ticks": 205248,
            "time": 267.25,
            "velocity": 0.03937007874015748
          },
          {
            "duration": 0.0625,
            "durationTicks": 48,
            "midi": 61,
            "name": "C#4",
            "ticks": 205248,
            "time": 267.25,
            "velocity": 0.03937007874015748
          },
          {
            "duration": 0.0625,
            "durationTicks": 48,
            "midi": 68,
            "name": "G#4",
            "ticks": 205344,
            "time": 267.375,
            "velocity": 0.03937007874015748
          },
          {
            "duration": 0.0625,
            "durationTicks": 48,
            "midi": 64,
            "name": "E4",
            "ticks": 205344,
            "time": 267.375,
            "velocity": 0.03937007874015748
          },
          {
            "duration": 0.0625,
            "durationTicks": 48,
            "midi": 61,
            "name": "C#4",
            "ticks": 205344,
            "time": 267.375,
            "velocity": 0.03937007874015748
          },
          {
            "duration": 0.0625,
            "durationTicks": 48,
            "midi": 64,
            "name": "E4",
            "ticks": 205440,
            "time": 267.5,
            "velocity": 0.03937007874015748
          },
          {
            "duration": 0.0625,
            "durationTicks": 48,
            "midi": 61,
            "name": "C#4",
            "ticks": 205440,
            "time": 267.5,
            "velocity": 0.03937007874015748
          },
          {
            "duration": 0.0625,
            "durationTicks": 48,
            "midi": 68,
            "name": "G#4",
            "ticks": 205440,
            "time": 267.5,
            "velocity": 0.03937007874015748
          },
          {
            "duration": 0.0625,
            "durationTicks": 48,
            "midi": 64,
            "name": "E4",
            "ticks": 205536,
            "time": 267.625,
            "velocity": 0.03937007874015748
          },
          {
            "duration": 0.0625,
            "durationTicks": 48,
            "midi": 68,
            "name": "G#4",
            "ticks": 205536,
            "time": 267.625,
            "velocity": 0.03937007874015748
          },
          {
            "duration": 0.0625,
            "durationTicks": 48,
            "midi": 61,
            "name": "C#4",
            "ticks": 205536,
            "time": 267.625,
            "velocity": 0.03937007874015748
          },
          {
            "duration": 0.0625,
            "durationTicks": 48,
            "midi": 61,
            "name": "C#4",
            "ticks": 205632,
            "time": 267.75,
            "velocity": 0.03937007874015748
          },
          {
            "duration": 0.0625,
            "durationTicks": 48,
            "midi": 64,
            "name": "E4",
            "ticks": 205632,
            "time": 267.75,
            "velocity": 0.03937007874015748
          },
          {
            "duration": 0.0625,
            "durationTicks": 48,
            "midi": 68,
            "name": "G#4",
            "ticks": 205632,
            "time": 267.75,
            "velocity": 0.03937007874015748
          },
          {
            "duration": 0.0625,
            "durationTicks": 48,
            "midi": 64,
            "name": "E4",
            "ticks": 205728,
            "time": 267.875,
            "velocity": 0.03937007874015748
          },
          {
            "duration": 0.0625,
            "durationTicks": 48,
            "midi": 61,
            "name": "C#4",
            "ticks": 205728,
            "time": 267.875,
            "velocity": 0.03937007874015748
          },
          {
            "duration": 0.0625,
            "durationTicks": 48,
            "midi": 69,
            "name": "A4",
            "ticks": 205728,
            "time": 267.875,
            "velocity": 0.03937007874015748
          },
          {
            "duration": 0.0625,
            "durationTicks": 48,
            "midi": 61,
            "name": "C#4",
            "ticks": 205824,
            "time": 268,
            "velocity": 0.03937007874015748
          },
          {
            "duration": 0.0625,
            "durationTicks": 48,
            "midi": 64,
            "name": "E4",
            "ticks": 205824,
            "time": 268,
            "velocity": 0.03937007874015748
          },
          {
            "duration": 0.0625,
            "durationTicks": 48,
            "midi": 69,
            "name": "A4",
            "ticks": 205824,
            "time": 268,
            "velocity": 0.03937007874015748
          },
          {
            "duration": 0.0625,
            "durationTicks": 48,
            "midi": 69,
            "name": "A4",
            "ticks": 205920,
            "time": 268.125,
            "velocity": 0.03937007874015748
          },
          {
            "duration": 0.0625,
            "durationTicks": 48,
            "midi": 64,
            "name": "E4",
            "ticks": 205920,
            "time": 268.125,
            "velocity": 0.03937007874015748
          },
          {
            "duration": 0.0625,
            "durationTicks": 48,
            "midi": 61,
            "name": "C#4",
            "ticks": 205920,
            "time": 268.125,
            "velocity": 0.03937007874015748
          },
          {
            "duration": 0.0625,
            "durationTicks": 48,
            "midi": 61,
            "name": "C#4",
            "ticks": 206016,
            "time": 268.25,
            "velocity": 0.03937007874015748
          },
          {
            "duration": 0.0625,
            "durationTicks": 48,
            "midi": 69,
            "name": "A4",
            "ticks": 206016,
            "time": 268.25,
            "velocity": 0.03937007874015748
          },
          {
            "duration": 0.0625,
            "durationTicks": 48,
            "midi": 64,
            "name": "E4",
            "ticks": 206016,
            "time": 268.25,
            "velocity": 0.03937007874015748
          },
          {
            "duration": 0.0625,
            "durationTicks": 48,
            "midi": 61,
            "name": "C#4",
            "ticks": 206112,
            "time": 268.375,
            "velocity": 0.03937007874015748
          },
          {
            "duration": 0.0625,
            "durationTicks": 48,
            "midi": 69,
            "name": "A4",
            "ticks": 206112,
            "time": 268.375,
            "velocity": 0.03937007874015748
          },
          {
            "duration": 0.0625,
            "durationTicks": 48,
            "midi": 64,
            "name": "E4",
            "ticks": 206112,
            "time": 268.375,
            "velocity": 0.03937007874015748
          },
          {
            "duration": 0.0625,
            "durationTicks": 48,
            "midi": 64,
            "name": "E4",
            "ticks": 206208,
            "time": 268.5,
            "velocity": 0.03937007874015748
          },
          {
            "duration": 0.0625,
            "durationTicks": 48,
            "midi": 61,
            "name": "C#4",
            "ticks": 206208,
            "time": 268.5,
            "velocity": 0.03937007874015748
          },
          {
            "duration": 0.0625,
            "durationTicks": 48,
            "midi": 69,
            "name": "A4",
            "ticks": 206208,
            "time": 268.5,
            "velocity": 0.03937007874015748
          },
          {
            "duration": 0.0625,
            "durationTicks": 48,
            "midi": 69,
            "name": "A4",
            "ticks": 206304,
            "time": 268.625,
            "velocity": 0.03937007874015748
          },
          {
            "duration": 0.0625,
            "durationTicks": 48,
            "midi": 61,
            "name": "C#4",
            "ticks": 206304,
            "time": 268.625,
            "velocity": 0.03937007874015748
          },
          {
            "duration": 0.0625,
            "durationTicks": 48,
            "midi": 64,
            "name": "E4",
            "ticks": 206304,
            "time": 268.625,
            "velocity": 0.03937007874015748
          },
          {
            "duration": 0.0625,
            "durationTicks": 48,
            "midi": 61,
            "name": "C#4",
            "ticks": 206400,
            "time": 268.75,
            "velocity": 0.03937007874015748
          },
          {
            "duration": 0.0625,
            "durationTicks": 48,
            "midi": 69,
            "name": "A4",
            "ticks": 206400,
            "time": 268.75,
            "velocity": 0.03937007874015748
          },
          {
            "duration": 0.0625,
            "durationTicks": 48,
            "midi": 64,
            "name": "E4",
            "ticks": 206400,
            "time": 268.75,
            "velocity": 0.03937007874015748
          },
          {
            "duration": 0.0625,
            "durationTicks": 48,
            "midi": 69,
            "name": "A4",
            "ticks": 206496,
            "time": 268.875,
            "velocity": 0.03937007874015748
          },
          {
            "duration": 0.0625,
            "durationTicks": 48,
            "midi": 61,
            "name": "C#4",
            "ticks": 206496,
            "time": 268.875,
            "velocity": 0.03937007874015748
          },
          {
            "duration": 0.0625,
            "durationTicks": 48,
            "midi": 64,
            "name": "E4",
            "ticks": 206496,
            "time": 268.875,
            "velocity": 0.03937007874015748
          },
          {
            "duration": 0.0625,
            "durationTicks": 48,
            "midi": 64,
            "name": "E4",
            "ticks": 206592,
            "time": 269,
            "velocity": 0.03937007874015748
          },
          {
            "duration": 0.0625,
            "durationTicks": 48,
            "midi": 61,
            "name": "C#4",
            "ticks": 206592,
            "time": 269,
            "velocity": 0.03937007874015748
          },
          {
            "duration": 0.0625,
            "durationTicks": 48,
            "midi": 69,
            "name": "A4",
            "ticks": 206592,
            "time": 269,
            "velocity": 0.03937007874015748
          },
          {
            "duration": 0.0625,
            "durationTicks": 48,
            "midi": 69,
            "name": "A4",
            "ticks": 206688,
            "time": 269.125,
            "velocity": 0.03937007874015748
          },
          {
            "duration": 0.0625,
            "durationTicks": 48,
            "midi": 61,
            "name": "C#4",
            "ticks": 206688,
            "time": 269.125,
            "velocity": 0.03937007874015748
          },
          {
            "duration": 0.0625,
            "durationTicks": 48,
            "midi": 64,
            "name": "E4",
            "ticks": 206688,
            "time": 269.125,
            "velocity": 0.03937007874015748
          },
          {
            "duration": 0.0625,
            "durationTicks": 48,
            "midi": 69,
            "name": "A4",
            "ticks": 206784,
            "time": 269.25,
            "velocity": 0.03937007874015748
          },
          {
            "duration": 0.0625,
            "durationTicks": 48,
            "midi": 64,
            "name": "E4",
            "ticks": 206784,
            "time": 269.25,
            "velocity": 0.03937007874015748
          },
          {
            "duration": 0.0625,
            "durationTicks": 48,
            "midi": 61,
            "name": "C#4",
            "ticks": 206784,
            "time": 269.25,
            "velocity": 0.03937007874015748
          },
          {
            "duration": 0.0625,
            "durationTicks": 48,
            "midi": 69,
            "name": "A4",
            "ticks": 206880,
            "time": 269.375,
            "velocity": 0.03937007874015748
          },
          {
            "duration": 0.0625,
            "durationTicks": 48,
            "midi": 64,
            "name": "E4",
            "ticks": 206880,
            "time": 269.375,
            "velocity": 0.03937007874015748
          },
          {
            "duration": 0.0625,
            "durationTicks": 48,
            "midi": 61,
            "name": "C#4",
            "ticks": 206880,
            "time": 269.375,
            "velocity": 0.03937007874015748
          },
          {
            "duration": 0.0625,
            "durationTicks": 48,
            "midi": 61,
            "name": "C#4",
            "ticks": 206976,
            "time": 269.5,
            "velocity": 0.03937007874015748
          },
          {
            "duration": 0.0625,
            "durationTicks": 48,
            "midi": 64,
            "name": "E4",
            "ticks": 206976,
            "time": 269.5,
            "velocity": 0.03937007874015748
          },
          {
            "duration": 0.0625,
            "durationTicks": 48,
            "midi": 69,
            "name": "A4",
            "ticks": 206976,
            "time": 269.5,
            "velocity": 0.03937007874015748
          },
          {
            "duration": 0.0625,
            "durationTicks": 48,
            "midi": 64,
            "name": "E4",
            "ticks": 207072,
            "time": 269.625,
            "velocity": 0.03937007874015748
          },
          {
            "duration": 0.0625,
            "durationTicks": 48,
            "midi": 69,
            "name": "A4",
            "ticks": 207072,
            "time": 269.625,
            "velocity": 0.03937007874015748
          },
          {
            "duration": 0.0625,
            "durationTicks": 48,
            "midi": 61,
            "name": "C#4",
            "ticks": 207072,
            "time": 269.625,
            "velocity": 0.03937007874015748
          },
          {
            "duration": 0.0625,
            "durationTicks": 48,
            "midi": 61,
            "name": "C#4",
            "ticks": 207168,
            "time": 269.75,
            "velocity": 0.03937007874015748
          },
          {
            "duration": 0.0625,
            "durationTicks": 48,
            "midi": 69,
            "name": "A4",
            "ticks": 207168,
            "time": 269.75,
            "velocity": 0.03937007874015748
          },
          {
            "duration": 0.0625,
            "durationTicks": 48,
            "midi": 64,
            "name": "E4",
            "ticks": 207168,
            "time": 269.75,
            "velocity": 0.03937007874015748
          },
          {
            "duration": 0.0625,
            "durationTicks": 48,
            "midi": 59,
            "name": "B3",
            "ticks": 207264,
            "time": 269.875,
            "velocity": 0.03937007874015748
          },
          {
            "duration": 0.0625,
            "durationTicks": 48,
            "midi": 63,
            "name": "D#4",
            "ticks": 207264,
            "time": 269.875,
            "velocity": 0.03937007874015748
          },
          {
            "duration": 0.0625,
            "durationTicks": 48,
            "midi": 66,
            "name": "F#4",
            "ticks": 207264,
            "time": 269.875,
            "velocity": 0.03937007874015748
          },
          {
            "duration": 0.0625,
            "durationTicks": 48,
            "midi": 63,
            "name": "D#4",
            "ticks": 207360,
            "time": 270,
            "velocity": 0.03937007874015748
          },
          {
            "duration": 0.0625,
            "durationTicks": 48,
            "midi": 59,
            "name": "B3",
            "ticks": 207360,
            "time": 270,
            "velocity": 0.03937007874015748
          },
          {
            "duration": 0.0625,
            "durationTicks": 48,
            "midi": 66,
            "name": "F#4",
            "ticks": 207360,
            "time": 270,
            "velocity": 0.03937007874015748
          },
          {
            "duration": 0.0625,
            "durationTicks": 48,
            "midi": 59,
            "name": "B3",
            "ticks": 207456,
            "time": 270.125,
            "velocity": 0.03937007874015748
          },
          {
            "duration": 0.0625,
            "durationTicks": 48,
            "midi": 63,
            "name": "D#4",
            "ticks": 207456,
            "time": 270.125,
            "velocity": 0.03937007874015748
          },
          {
            "duration": 0.0625,
            "durationTicks": 48,
            "midi": 66,
            "name": "F#4",
            "ticks": 207456,
            "time": 270.125,
            "velocity": 0.03937007874015748
          },
          {
            "duration": 0.0625,
            "durationTicks": 48,
            "midi": 63,
            "name": "D#4",
            "ticks": 207552,
            "time": 270.25,
            "velocity": 0.03937007874015748
          },
          {
            "duration": 0.0625,
            "durationTicks": 48,
            "midi": 66,
            "name": "F#4",
            "ticks": 207552,
            "time": 270.25,
            "velocity": 0.03937007874015748
          },
          {
            "duration": 0.0625,
            "durationTicks": 48,
            "midi": 59,
            "name": "B3",
            "ticks": 207552,
            "time": 270.25,
            "velocity": 0.03937007874015748
          },
          {
            "duration": 0.0625,
            "durationTicks": 48,
            "midi": 63,
            "name": "D#4",
            "ticks": 207648,
            "time": 270.375,
            "velocity": 0.03937007874015748
          },
          {
            "duration": 0.0625,
            "durationTicks": 48,
            "midi": 66,
            "name": "F#4",
            "ticks": 207648,
            "time": 270.375,
            "velocity": 0.03937007874015748
          },
          {
            "duration": 0.0625,
            "durationTicks": 48,
            "midi": 59,
            "name": "B3",
            "ticks": 207648,
            "time": 270.375,
            "velocity": 0.03937007874015748
          },
          {
            "duration": 0.0625,
            "durationTicks": 48,
            "midi": 63,
            "name": "D#4",
            "ticks": 207744,
            "time": 270.5,
            "velocity": 0.03937007874015748
          },
          {
            "duration": 0.0625,
            "durationTicks": 48,
            "midi": 59,
            "name": "B3",
            "ticks": 207744,
            "time": 270.5,
            "velocity": 0.03937007874015748
          },
          {
            "duration": 0.0625,
            "durationTicks": 48,
            "midi": 66,
            "name": "F#4",
            "ticks": 207744,
            "time": 270.5,
            "velocity": 0.03937007874015748
          },
          {
            "duration": 0.0625,
            "durationTicks": 48,
            "midi": 63,
            "name": "D#4",
            "ticks": 207840,
            "time": 270.625,
            "velocity": 0.03937007874015748
          },
          {
            "duration": 0.0625,
            "durationTicks": 48,
            "midi": 66,
            "name": "F#4",
            "ticks": 207840,
            "time": 270.625,
            "velocity": 0.03937007874015748
          },
          {
            "duration": 0.0625,
            "durationTicks": 48,
            "midi": 59,
            "name": "B3",
            "ticks": 207840,
            "time": 270.625,
            "velocity": 0.03937007874015748
          },
          {
            "duration": 0.0625,
            "durationTicks": 48,
            "midi": 59,
            "name": "B3",
            "ticks": 207936,
            "time": 270.75,
            "velocity": 0.03937007874015748
          },
          {
            "duration": 0.0625,
            "durationTicks": 48,
            "midi": 66,
            "name": "F#4",
            "ticks": 207936,
            "time": 270.75,
            "velocity": 0.03937007874015748
          },
          {
            "duration": 0.0625,
            "durationTicks": 48,
            "midi": 63,
            "name": "D#4",
            "ticks": 207936,
            "time": 270.75,
            "velocity": 0.03937007874015748
          },
          {
            "duration": 0.0625,
            "durationTicks": 48,
            "midi": 66,
            "name": "F#4",
            "ticks": 208032,
            "time": 270.875,
            "velocity": 0.03937007874015748
          },
          {
            "duration": 0.0625,
            "durationTicks": 48,
            "midi": 59,
            "name": "B3",
            "ticks": 208032,
            "time": 270.875,
            "velocity": 0.03937007874015748
          },
          {
            "duration": 0.0625,
            "durationTicks": 48,
            "midi": 63,
            "name": "D#4",
            "ticks": 208032,
            "time": 270.875,
            "velocity": 0.03937007874015748
          },
          {
            "duration": 0.0625,
            "durationTicks": 48,
            "midi": 63,
            "name": "D#4",
            "ticks": 208128,
            "time": 271,
            "velocity": 0.03937007874015748
          },
          {
            "duration": 0.0625,
            "durationTicks": 48,
            "midi": 66,
            "name": "F#4",
            "ticks": 208128,
            "time": 271,
            "velocity": 0.03937007874015748
          },
          {
            "duration": 0.0625,
            "durationTicks": 48,
            "midi": 59,
            "name": "B3",
            "ticks": 208128,
            "time": 271,
            "velocity": 0.03937007874015748
          },
          {
            "duration": 0.0625,
            "durationTicks": 48,
            "midi": 66,
            "name": "F#4",
            "ticks": 208224,
            "time": 271.125,
            "velocity": 0.03937007874015748
          },
          {
            "duration": 0.0625,
            "durationTicks": 48,
            "midi": 59,
            "name": "B3",
            "ticks": 208224,
            "time": 271.125,
            "velocity": 0.03937007874015748
          },
          {
            "duration": 0.0625,
            "durationTicks": 48,
            "midi": 63,
            "name": "D#4",
            "ticks": 208224,
            "time": 271.125,
            "velocity": 0.03937007874015748
          },
          {
            "duration": 0.0625,
            "durationTicks": 48,
            "midi": 59,
            "name": "B3",
            "ticks": 208320,
            "time": 271.25,
            "velocity": 0.03937007874015748
          },
          {
            "duration": 0.0625,
            "durationTicks": 48,
            "midi": 63,
            "name": "D#4",
            "ticks": 208320,
            "time": 271.25,
            "velocity": 0.03937007874015748
          },
          {
            "duration": 0.0625,
            "durationTicks": 48,
            "midi": 66,
            "name": "F#4",
            "ticks": 208320,
            "time": 271.25,
            "velocity": 0.03937007874015748
          },
          {
            "duration": 0.0625,
            "durationTicks": 48,
            "midi": 59,
            "name": "B3",
            "ticks": 208416,
            "time": 271.375,
            "velocity": 0.03937007874015748
          },
          {
            "duration": 0.0625,
            "durationTicks": 48,
            "midi": 66,
            "name": "F#4",
            "ticks": 208416,
            "time": 271.375,
            "velocity": 0.03937007874015748
          },
          {
            "duration": 0.0625,
            "durationTicks": 48,
            "midi": 63,
            "name": "D#4",
            "ticks": 208416,
            "time": 271.375,
            "velocity": 0.03937007874015748
          },
          {
            "duration": 0.0625,
            "durationTicks": 48,
            "midi": 66,
            "name": "F#4",
            "ticks": 208512,
            "time": 271.5,
            "velocity": 0.03937007874015748
          },
          {
            "duration": 0.0625,
            "durationTicks": 48,
            "midi": 63,
            "name": "D#4",
            "ticks": 208512,
            "time": 271.5,
            "velocity": 0.03937007874015748
          },
          {
            "duration": 0.0625,
            "durationTicks": 48,
            "midi": 59,
            "name": "B3",
            "ticks": 208512,
            "time": 271.5,
            "velocity": 0.03937007874015748
          },
          {
            "duration": 0.0625,
            "durationTicks": 48,
            "midi": 63,
            "name": "D#4",
            "ticks": 208608,
            "time": 271.625,
            "velocity": 0.03937007874015748
          },
          {
            "duration": 0.0625,
            "durationTicks": 48,
            "midi": 59,
            "name": "B3",
            "ticks": 208608,
            "time": 271.625,
            "velocity": 0.03937007874015748
          },
          {
            "duration": 0.0625,
            "durationTicks": 48,
            "midi": 66,
            "name": "F#4",
            "ticks": 208608,
            "time": 271.625,
            "velocity": 0.03937007874015748
          },
          {
            "duration": 0.0625,
            "durationTicks": 48,
            "midi": 66,
            "name": "F#4",
            "ticks": 208704,
            "time": 271.75,
            "velocity": 0.03937007874015748
          },
          {
            "duration": 0.0625,
            "durationTicks": 48,
            "midi": 59,
            "name": "B3",
            "ticks": 208704,
            "time": 271.75,
            "velocity": 0.03937007874015748
          },
          {
            "duration": 0.0625,
            "durationTicks": 48,
            "midi": 63,
            "name": "D#4",
            "ticks": 208704,
            "time": 271.75,
            "velocity": 0.03937007874015748
          },
          {
            "duration": 0.0625,
            "durationTicks": 48,
            "midi": 58,
            "name": "A#3",
            "ticks": 208800,
            "time": 271.875,
            "velocity": 0.03937007874015748
          },
          {
            "duration": 0.0625,
            "durationTicks": 48,
            "midi": 61,
            "name": "C#4",
            "ticks": 208800,
            "time": 271.875,
            "velocity": 0.03937007874015748
          },
          {
            "duration": 0.0625,
            "durationTicks": 48,
            "midi": 66,
            "name": "F#4",
            "ticks": 208800,
            "time": 271.875,
            "velocity": 0.03937007874015748
          },
          {
            "duration": 0.0625,
            "durationTicks": 48,
            "midi": 58,
            "name": "A#3",
            "ticks": 208896,
            "time": 272,
            "velocity": 0.03937007874015748
          },
          {
            "duration": 0.0625,
            "durationTicks": 48,
            "midi": 61,
            "name": "C#4",
            "ticks": 208896,
            "time": 272,
            "velocity": 0.03937007874015748
          },
          {
            "duration": 0.0625,
            "durationTicks": 48,
            "midi": 66,
            "name": "F#4",
            "ticks": 208896,
            "time": 272,
            "velocity": 0.03937007874015748
          },
          {
            "duration": 0.0625,
            "durationTicks": 48,
            "midi": 66,
            "name": "F#4",
            "ticks": 208992,
            "time": 272.125,
            "velocity": 0.03937007874015748
          },
          {
            "duration": 0.0625,
            "durationTicks": 48,
            "midi": 61,
            "name": "C#4",
            "ticks": 208992,
            "time": 272.125,
            "velocity": 0.03937007874015748
          },
          {
            "duration": 0.0625,
            "durationTicks": 48,
            "midi": 58,
            "name": "A#3",
            "ticks": 208992,
            "time": 272.125,
            "velocity": 0.03937007874015748
          },
          {
            "duration": 0.0625,
            "durationTicks": 48,
            "midi": 58,
            "name": "A#3",
            "ticks": 209088,
            "time": 272.25,
            "velocity": 0.03937007874015748
          },
          {
            "duration": 0.0625,
            "durationTicks": 48,
            "midi": 61,
            "name": "C#4",
            "ticks": 209088,
            "time": 272.25,
            "velocity": 0.03937007874015748
          },
          {
            "duration": 0.0625,
            "durationTicks": 48,
            "midi": 66,
            "name": "F#4",
            "ticks": 209088,
            "time": 272.25,
            "velocity": 0.03937007874015748
          },
          {
            "duration": 0.0625,
            "durationTicks": 48,
            "midi": 61,
            "name": "C#4",
            "ticks": 209184,
            "time": 272.375,
            "velocity": 0.03937007874015748
          },
          {
            "duration": 0.0625,
            "durationTicks": 48,
            "midi": 66,
            "name": "F#4",
            "ticks": 209184,
            "time": 272.375,
            "velocity": 0.03937007874015748
          },
          {
            "duration": 0.0625,
            "durationTicks": 48,
            "midi": 58,
            "name": "A#3",
            "ticks": 209184,
            "time": 272.375,
            "velocity": 0.03937007874015748
          },
          {
            "duration": 0.0625,
            "durationTicks": 48,
            "midi": 61,
            "name": "C#4",
            "ticks": 209280,
            "time": 272.5,
            "velocity": 0.03937007874015748
          },
          {
            "duration": 0.0625,
            "durationTicks": 48,
            "midi": 66,
            "name": "F#4",
            "ticks": 209280,
            "time": 272.5,
            "velocity": 0.03937007874015748
          },
          {
            "duration": 0.0625,
            "durationTicks": 48,
            "midi": 58,
            "name": "A#3",
            "ticks": 209280,
            "time": 272.5,
            "velocity": 0.03937007874015748
          },
          {
            "duration": 0.0625,
            "durationTicks": 48,
            "midi": 58,
            "name": "A#3",
            "ticks": 209376,
            "time": 272.625,
            "velocity": 0.03937007874015748
          },
          {
            "duration": 0.0625,
            "durationTicks": 48,
            "midi": 61,
            "name": "C#4",
            "ticks": 209376,
            "time": 272.625,
            "velocity": 0.03937007874015748
          },
          {
            "duration": 0.0625,
            "durationTicks": 48,
            "midi": 66,
            "name": "F#4",
            "ticks": 209376,
            "time": 272.625,
            "velocity": 0.03937007874015748
          },
          {
            "duration": 0.0625,
            "durationTicks": 48,
            "midi": 66,
            "name": "F#4",
            "ticks": 209472,
            "time": 272.75,
            "velocity": 0.03937007874015748
          },
          {
            "duration": 0.0625,
            "durationTicks": 48,
            "midi": 58,
            "name": "A#3",
            "ticks": 209472,
            "time": 272.75,
            "velocity": 0.03937007874015748
          },
          {
            "duration": 0.0625,
            "durationTicks": 48,
            "midi": 61,
            "name": "C#4",
            "ticks": 209472,
            "time": 272.75,
            "velocity": 0.03937007874015748
          },
          {
            "duration": 0.0625,
            "durationTicks": 48,
            "midi": 61,
            "name": "C#4",
            "ticks": 209568,
            "time": 272.875,
            "velocity": 0.03937007874015748
          },
          {
            "duration": 0.0625,
            "durationTicks": 48,
            "midi": 58,
            "name": "A#3",
            "ticks": 209568,
            "time": 272.875,
            "velocity": 0.03937007874015748
          },
          {
            "duration": 0.0625,
            "durationTicks": 48,
            "midi": 66,
            "name": "F#4",
            "ticks": 209568,
            "time": 272.875,
            "velocity": 0.03937007874015748
          },
          {
            "duration": 0.0625,
            "durationTicks": 48,
            "midi": 58,
            "name": "A#3",
            "ticks": 209664,
            "time": 273,
            "velocity": 0.03937007874015748
          },
          {
            "duration": 0.0625,
            "durationTicks": 48,
            "midi": 66,
            "name": "F#4",
            "ticks": 209664,
            "time": 273,
            "velocity": 0.03937007874015748
          },
          {
            "duration": 0.0625,
            "durationTicks": 48,
            "midi": 61,
            "name": "C#4",
            "ticks": 209664,
            "time": 273,
            "velocity": 0.03937007874015748
          },
          {
            "duration": 0.0625,
            "durationTicks": 48,
            "midi": 66,
            "name": "F#4",
            "ticks": 209760,
            "time": 273.125,
            "velocity": 0.03937007874015748
          },
          {
            "duration": 0.0625,
            "durationTicks": 48,
            "midi": 58,
            "name": "A#3",
            "ticks": 209760,
            "time": 273.125,
            "velocity": 0.03937007874015748
          },
          {
            "duration": 0.0625,
            "durationTicks": 48,
            "midi": 61,
            "name": "C#4",
            "ticks": 209760,
            "time": 273.125,
            "velocity": 0.03937007874015748
          },
          {
            "duration": 0.0625,
            "durationTicks": 48,
            "midi": 58,
            "name": "A#3",
            "ticks": 209856,
            "time": 273.25,
            "velocity": 0.03937007874015748
          },
          {
            "duration": 0.0625,
            "durationTicks": 48,
            "midi": 61,
            "name": "C#4",
            "ticks": 209856,
            "time": 273.25,
            "velocity": 0.03937007874015748
          },
          {
            "duration": 0.0625,
            "durationTicks": 48,
            "midi": 66,
            "name": "F#4",
            "ticks": 209856,
            "time": 273.25,
            "velocity": 0.03937007874015748
          },
          {
            "duration": 0.0625,
            "durationTicks": 48,
            "midi": 58,
            "name": "A#3",
            "ticks": 209952,
            "time": 273.375,
            "velocity": 0.03937007874015748
          },
          {
            "duration": 0.0625,
            "durationTicks": 48,
            "midi": 61,
            "name": "C#4",
            "ticks": 209952,
            "time": 273.375,
            "velocity": 0.03937007874015748
          },
          {
            "duration": 0.0625,
            "durationTicks": 48,
            "midi": 66,
            "name": "F#4",
            "ticks": 209952,
            "time": 273.375,
            "velocity": 0.03937007874015748
          },
          {
            "duration": 0.0625,
            "durationTicks": 48,
            "midi": 61,
            "name": "C#4",
            "ticks": 210048,
            "time": 273.5,
            "velocity": 0.03937007874015748
          },
          {
            "duration": 0.0625,
            "durationTicks": 48,
            "midi": 58,
            "name": "A#3",
            "ticks": 210048,
            "time": 273.5,
            "velocity": 0.03937007874015748
          },
          {
            "duration": 0.0625,
            "durationTicks": 48,
            "midi": 66,
            "name": "F#4",
            "ticks": 210048,
            "time": 273.5,
            "velocity": 0.03937007874015748
          },
          {
            "duration": 0.0625,
            "durationTicks": 48,
            "midi": 58,
            "name": "A#3",
            "ticks": 210144,
            "time": 273.625,
            "velocity": 0.03937007874015748
          },
          {
            "duration": 0.0625,
            "durationTicks": 48,
            "midi": 66,
            "name": "F#4",
            "ticks": 210144,
            "time": 273.625,
            "velocity": 0.03937007874015748
          },
          {
            "duration": 0.0625,
            "durationTicks": 48,
            "midi": 61,
            "name": "C#4",
            "ticks": 210144,
            "time": 273.625,
            "velocity": 0.03937007874015748
          },
          {
            "duration": 0.0625,
            "durationTicks": 48,
            "midi": 58,
            "name": "A#3",
            "ticks": 210240,
            "time": 273.75,
            "velocity": 0.03937007874015748
          },
          {
            "duration": 0.0625,
            "durationTicks": 48,
            "midi": 66,
            "name": "F#4",
            "ticks": 210240,
            "time": 273.75,
            "velocity": 0.03937007874015748
          },
          {
            "duration": 0.0625,
            "durationTicks": 48,
            "midi": 61,
            "name": "C#4",
            "ticks": 210240,
            "time": 273.75,
            "velocity": 0.03937007874015748
          },
          {
            "duration": 0.0625,
            "durationTicks": 48,
            "midi": 68,
            "name": "G#4",
            "ticks": 210336,
            "time": 273.875,
            "velocity": 0.03937007874015748
          },
          {
            "duration": 0.0625,
            "durationTicks": 48,
            "midi": 61,
            "name": "C#4",
            "ticks": 210336,
            "time": 273.875,
            "velocity": 0.03937007874015748
          },
          {
            "duration": 0.0625,
            "durationTicks": 48,
            "midi": 64,
            "name": "E4",
            "ticks": 210336,
            "time": 273.875,
            "velocity": 0.03937007874015748
          },
          {
            "duration": 0.0625,
            "durationTicks": 48,
            "midi": 61,
            "name": "C#4",
            "ticks": 210432,
            "time": 274,
            "velocity": 0.03937007874015748
          },
          {
            "duration": 0.0625,
            "durationTicks": 48,
            "midi": 64,
            "name": "E4",
            "ticks": 210432,
            "time": 274,
            "velocity": 0.03937007874015748
          },
          {
            "duration": 0.0625,
            "durationTicks": 48,
            "midi": 68,
            "name": "G#4",
            "ticks": 210432,
            "time": 274,
            "velocity": 0.03937007874015748
          },
          {
            "duration": 0.0625,
            "durationTicks": 48,
            "midi": 61,
            "name": "C#4",
            "ticks": 210528,
            "time": 274.125,
            "velocity": 0.03937007874015748
          },
          {
            "duration": 0.0625,
            "durationTicks": 48,
            "midi": 64,
            "name": "E4",
            "ticks": 210528,
            "time": 274.125,
            "velocity": 0.03937007874015748
          },
          {
            "duration": 0.0625,
            "durationTicks": 48,
            "midi": 68,
            "name": "G#4",
            "ticks": 210528,
            "time": 274.125,
            "velocity": 0.03937007874015748
          },
          {
            "duration": 0.0625,
            "durationTicks": 48,
            "midi": 64,
            "name": "E4",
            "ticks": 210624,
            "time": 274.25,
            "velocity": 0.03937007874015748
          },
          {
            "duration": 0.0625,
            "durationTicks": 48,
            "midi": 68,
            "name": "G#4",
            "ticks": 210624,
            "time": 274.25,
            "velocity": 0.03937007874015748
          },
          {
            "duration": 0.0625,
            "durationTicks": 48,
            "midi": 61,
            "name": "C#4",
            "ticks": 210624,
            "time": 274.25,
            "velocity": 0.03937007874015748
          },
          {
            "duration": 0.0625,
            "durationTicks": 48,
            "midi": 61,
            "name": "C#4",
            "ticks": 210720,
            "time": 274.375,
            "velocity": 0.03937007874015748
          },
          {
            "duration": 0.0625,
            "durationTicks": 48,
            "midi": 68,
            "name": "G#4",
            "ticks": 210720,
            "time": 274.375,
            "velocity": 0.03937007874015748
          },
          {
            "duration": 0.0625,
            "durationTicks": 48,
            "midi": 64,
            "name": "E4",
            "ticks": 210720,
            "time": 274.375,
            "velocity": 0.03937007874015748
          },
          {
            "duration": 0.0625,
            "durationTicks": 48,
            "midi": 68,
            "name": "G#4",
            "ticks": 210816,
            "time": 274.5,
            "velocity": 0.03937007874015748
          },
          {
            "duration": 0.0625,
            "durationTicks": 48,
            "midi": 61,
            "name": "C#4",
            "ticks": 210816,
            "time": 274.5,
            "velocity": 0.03937007874015748
          },
          {
            "duration": 0.0625,
            "durationTicks": 48,
            "midi": 64,
            "name": "E4",
            "ticks": 210816,
            "time": 274.5,
            "velocity": 0.03937007874015748
          },
          {
            "duration": 0.0625,
            "durationTicks": 48,
            "midi": 64,
            "name": "E4",
            "ticks": 210912,
            "time": 274.625,
            "velocity": 0.03937007874015748
          },
          {
            "duration": 0.0625,
            "durationTicks": 48,
            "midi": 68,
            "name": "G#4",
            "ticks": 210912,
            "time": 274.625,
            "velocity": 0.03937007874015748
          },
          {
            "duration": 0.0625,
            "durationTicks": 48,
            "midi": 61,
            "name": "C#4",
            "ticks": 210912,
            "time": 274.625,
            "velocity": 0.03937007874015748
          },
          {
            "duration": 0.0625,
            "durationTicks": 48,
            "midi": 64,
            "name": "E4",
            "ticks": 211008,
            "time": 274.75,
            "velocity": 0.03937007874015748
          },
          {
            "duration": 0.0625,
            "durationTicks": 48,
            "midi": 61,
            "name": "C#4",
            "ticks": 211008,
            "time": 274.75,
            "velocity": 0.03937007874015748
          },
          {
            "duration": 0.0625,
            "durationTicks": 48,
            "midi": 68,
            "name": "G#4",
            "ticks": 211008,
            "time": 274.75,
            "velocity": 0.03937007874015748
          },
          {
            "duration": 0.0625,
            "durationTicks": 48,
            "midi": 64,
            "name": "E4",
            "ticks": 211104,
            "time": 274.875,
            "velocity": 0.03937007874015748
          },
          {
            "duration": 0.0625,
            "durationTicks": 48,
            "midi": 68,
            "name": "G#4",
            "ticks": 211104,
            "time": 274.875,
            "velocity": 0.03937007874015748
          },
          {
            "duration": 0.0625,
            "durationTicks": 48,
            "midi": 61,
            "name": "C#4",
            "ticks": 211104,
            "time": 274.875,
            "velocity": 0.03937007874015748
          },
          {
            "duration": 0.0625,
            "durationTicks": 48,
            "midi": 68,
            "name": "G#4",
            "ticks": 211200,
            "time": 275,
            "velocity": 0.03937007874015748
          },
          {
            "duration": 0.0625,
            "durationTicks": 48,
            "midi": 61,
            "name": "C#4",
            "ticks": 211200,
            "time": 275,
            "velocity": 0.03937007874015748
          },
          {
            "duration": 0.0625,
            "durationTicks": 48,
            "midi": 64,
            "name": "E4",
            "ticks": 211200,
            "time": 275,
            "velocity": 0.03937007874015748
          },
          {
            "duration": 0.0625,
            "durationTicks": 48,
            "midi": 64,
            "name": "E4",
            "ticks": 211296,
            "time": 275.125,
            "velocity": 0.03937007874015748
          },
          {
            "duration": 0.0625,
            "durationTicks": 48,
            "midi": 68,
            "name": "G#4",
            "ticks": 211296,
            "time": 275.125,
            "velocity": 0.03937007874015748
          },
          {
            "duration": 0.0625,
            "durationTicks": 48,
            "midi": 61,
            "name": "C#4",
            "ticks": 211296,
            "time": 275.125,
            "velocity": 0.03937007874015748
          },
          {
            "duration": 0.0625,
            "durationTicks": 48,
            "midi": 61,
            "name": "C#4",
            "ticks": 211392,
            "time": 275.25,
            "velocity": 0.03937007874015748
          },
          {
            "duration": 0.0625,
            "durationTicks": 48,
            "midi": 64,
            "name": "E4",
            "ticks": 211392,
            "time": 275.25,
            "velocity": 0.03937007874015748
          },
          {
            "duration": 0.0625,
            "durationTicks": 48,
            "midi": 68,
            "name": "G#4",
            "ticks": 211392,
            "time": 275.25,
            "velocity": 0.03937007874015748
          },
          {
            "duration": 0.0625,
            "durationTicks": 48,
            "midi": 68,
            "name": "G#4",
            "ticks": 211488,
            "time": 275.375,
            "velocity": 0.03937007874015748
          },
          {
            "duration": 0.0625,
            "durationTicks": 48,
            "midi": 61,
            "name": "C#4",
            "ticks": 211488,
            "time": 275.375,
            "velocity": 0.03937007874015748
          },
          {
            "duration": 0.0625,
            "durationTicks": 48,
            "midi": 64,
            "name": "E4",
            "ticks": 211488,
            "time": 275.375,
            "velocity": 0.03937007874015748
          },
          {
            "duration": 0.0625,
            "durationTicks": 48,
            "midi": 68,
            "name": "G#4",
            "ticks": 211584,
            "time": 275.5,
            "velocity": 0.03937007874015748
          },
          {
            "duration": 0.0625,
            "durationTicks": 48,
            "midi": 64,
            "name": "E4",
            "ticks": 211584,
            "time": 275.5,
            "velocity": 0.03937007874015748
          },
          {
            "duration": 0.0625,
            "durationTicks": 48,
            "midi": 61,
            "name": "C#4",
            "ticks": 211584,
            "time": 275.5,
            "velocity": 0.03937007874015748
          },
          {
            "duration": 0.0625,
            "durationTicks": 48,
            "midi": 64,
            "name": "E4",
            "ticks": 211680,
            "time": 275.625,
            "velocity": 0.03937007874015748
          },
          {
            "duration": 0.0625,
            "durationTicks": 48,
            "midi": 68,
            "name": "G#4",
            "ticks": 211680,
            "time": 275.625,
            "velocity": 0.03937007874015748
          },
          {
            "duration": 0.0625,
            "durationTicks": 48,
            "midi": 61,
            "name": "C#4",
            "ticks": 211680,
            "time": 275.625,
            "velocity": 0.03937007874015748
          },
          {
            "duration": 0.0625,
            "durationTicks": 48,
            "midi": 68,
            "name": "G#4",
            "ticks": 211776,
            "time": 275.75,
            "velocity": 0.03937007874015748
          },
          {
            "duration": 0.0625,
            "durationTicks": 48,
            "midi": 64,
            "name": "E4",
            "ticks": 211776,
            "time": 275.75,
            "velocity": 0.03937007874015748
          },
          {
            "duration": 0.0625,
            "durationTicks": 48,
            "midi": 61,
            "name": "C#4",
            "ticks": 211776,
            "time": 275.75,
            "velocity": 0.03937007874015748
          },
          {
            "duration": 0.0625,
            "durationTicks": 48,
            "midi": 61,
            "name": "C#4",
            "ticks": 211872,
            "time": 275.875,
            "velocity": 0.03937007874015748
          },
          {
            "duration": 0.0625,
            "durationTicks": 48,
            "midi": 69,
            "name": "A4",
            "ticks": 211872,
            "time": 275.875,
            "velocity": 0.03937007874015748
          },
          {
            "duration": 0.0625,
            "durationTicks": 48,
            "midi": 64,
            "name": "E4",
            "ticks": 211872,
            "time": 275.875,
            "velocity": 0.03937007874015748
          },
          {
            "duration": 0.0625,
            "durationTicks": 48,
            "midi": 64,
            "name": "E4",
            "ticks": 211968,
            "time": 276,
            "velocity": 0.03937007874015748
          },
          {
            "duration": 0.0625,
            "durationTicks": 48,
            "midi": 61,
            "name": "C#4",
            "ticks": 211968,
            "time": 276,
            "velocity": 0.03937007874015748
          },
          {
            "duration": 0.0625,
            "durationTicks": 48,
            "midi": 69,
            "name": "A4",
            "ticks": 211968,
            "time": 276,
            "velocity": 0.03937007874015748
          },
          {
            "duration": 0.0625,
            "durationTicks": 48,
            "midi": 61,
            "name": "C#4",
            "ticks": 212064,
            "time": 276.125,
            "velocity": 0.03937007874015748
          },
          {
            "duration": 0.0625,
            "durationTicks": 48,
            "midi": 69,
            "name": "A4",
            "ticks": 212064,
            "time": 276.125,
            "velocity": 0.03937007874015748
          },
          {
            "duration": 0.0625,
            "durationTicks": 48,
            "midi": 64,
            "name": "E4",
            "ticks": 212064,
            "time": 276.125,
            "velocity": 0.03937007874015748
          },
          {
            "duration": 0.0625,
            "durationTicks": 48,
            "midi": 69,
            "name": "A4",
            "ticks": 212160,
            "time": 276.25,
            "velocity": 0.03937007874015748
          },
          {
            "duration": 0.0625,
            "durationTicks": 48,
            "midi": 64,
            "name": "E4",
            "ticks": 212160,
            "time": 276.25,
            "velocity": 0.03937007874015748
          },
          {
            "duration": 0.0625,
            "durationTicks": 48,
            "midi": 61,
            "name": "C#4",
            "ticks": 212160,
            "time": 276.25,
            "velocity": 0.03937007874015748
          },
          {
            "duration": 0.0625,
            "durationTicks": 48,
            "midi": 69,
            "name": "A4",
            "ticks": 212256,
            "time": 276.375,
            "velocity": 0.03937007874015748
          },
          {
            "duration": 0.0625,
            "durationTicks": 48,
            "midi": 64,
            "name": "E4",
            "ticks": 212256,
            "time": 276.375,
            "velocity": 0.03937007874015748
          },
          {
            "duration": 0.0625,
            "durationTicks": 48,
            "midi": 61,
            "name": "C#4",
            "ticks": 212256,
            "time": 276.375,
            "velocity": 0.03937007874015748
          },
          {
            "duration": 0.0625,
            "durationTicks": 48,
            "midi": 61,
            "name": "C#4",
            "ticks": 212352,
            "time": 276.5,
            "velocity": 0.03937007874015748
          },
          {
            "duration": 0.0625,
            "durationTicks": 48,
            "midi": 69,
            "name": "A4",
            "ticks": 212352,
            "time": 276.5,
            "velocity": 0.03937007874015748
          },
          {
            "duration": 0.0625,
            "durationTicks": 48,
            "midi": 64,
            "name": "E4",
            "ticks": 212352,
            "time": 276.5,
            "velocity": 0.03937007874015748
          },
          {
            "duration": 0.0625,
            "durationTicks": 48,
            "midi": 64,
            "name": "E4",
            "ticks": 212448,
            "time": 276.625,
            "velocity": 0.03937007874015748
          },
          {
            "duration": 0.0625,
            "durationTicks": 48,
            "midi": 61,
            "name": "C#4",
            "ticks": 212448,
            "time": 276.625,
            "velocity": 0.03937007874015748
          },
          {
            "duration": 0.0625,
            "durationTicks": 48,
            "midi": 69,
            "name": "A4",
            "ticks": 212448,
            "time": 276.625,
            "velocity": 0.03937007874015748
          },
          {
            "duration": 0.0625,
            "durationTicks": 48,
            "midi": 61,
            "name": "C#4",
            "ticks": 212544,
            "time": 276.75,
            "velocity": 0.03937007874015748
          },
          {
            "duration": 0.0625,
            "durationTicks": 48,
            "midi": 69,
            "name": "A4",
            "ticks": 212544,
            "time": 276.75,
            "velocity": 0.03937007874015748
          },
          {
            "duration": 0.0625,
            "durationTicks": 48,
            "midi": 64,
            "name": "E4",
            "ticks": 212544,
            "time": 276.75,
            "velocity": 0.03937007874015748
          },
          {
            "duration": 0.0625,
            "durationTicks": 48,
            "midi": 64,
            "name": "E4",
            "ticks": 212640,
            "time": 276.875,
            "velocity": 0.03937007874015748
          },
          {
            "duration": 0.0625,
            "durationTicks": 48,
            "midi": 69,
            "name": "A4",
            "ticks": 212640,
            "time": 276.875,
            "velocity": 0.03937007874015748
          },
          {
            "duration": 0.0625,
            "durationTicks": 48,
            "midi": 61,
            "name": "C#4",
            "ticks": 212640,
            "time": 276.875,
            "velocity": 0.03937007874015748
          },
          {
            "duration": 0.0625,
            "durationTicks": 48,
            "midi": 69,
            "name": "A4",
            "ticks": 212736,
            "time": 277,
            "velocity": 0.03937007874015748
          },
          {
            "duration": 0.0625,
            "durationTicks": 48,
            "midi": 61,
            "name": "C#4",
            "ticks": 212736,
            "time": 277,
            "velocity": 0.03937007874015748
          },
          {
            "duration": 0.0625,
            "durationTicks": 48,
            "midi": 64,
            "name": "E4",
            "ticks": 212736,
            "time": 277,
            "velocity": 0.03937007874015748
          },
          {
            "duration": 0.0625,
            "durationTicks": 48,
            "midi": 61,
            "name": "C#4",
            "ticks": 212832,
            "time": 277.125,
            "velocity": 0.03937007874015748
          },
          {
            "duration": 0.0625,
            "durationTicks": 48,
            "midi": 64,
            "name": "E4",
            "ticks": 212832,
            "time": 277.125,
            "velocity": 0.03937007874015748
          },
          {
            "duration": 0.0625,
            "durationTicks": 48,
            "midi": 69,
            "name": "A4",
            "ticks": 212832,
            "time": 277.125,
            "velocity": 0.03937007874015748
          },
          {
            "duration": 0.0625,
            "durationTicks": 48,
            "midi": 69,
            "name": "A4",
            "ticks": 212928,
            "time": 277.25,
            "velocity": 0.03937007874015748
          },
          {
            "duration": 0.0625,
            "durationTicks": 48,
            "midi": 61,
            "name": "C#4",
            "ticks": 212928,
            "time": 277.25,
            "velocity": 0.03937007874015748
          },
          {
            "duration": 0.0625,
            "durationTicks": 48,
            "midi": 64,
            "name": "E4",
            "ticks": 212928,
            "time": 277.25,
            "velocity": 0.03937007874015748
          },
          {
            "duration": 0.0625,
            "durationTicks": 48,
            "midi": 61,
            "name": "C#4",
            "ticks": 213024,
            "time": 277.375,
            "velocity": 0.03937007874015748
          },
          {
            "duration": 0.0625,
            "durationTicks": 48,
            "midi": 69,
            "name": "A4",
            "ticks": 213024,
            "time": 277.375,
            "velocity": 0.03937007874015748
          },
          {
            "duration": 0.0625,
            "durationTicks": 48,
            "midi": 64,
            "name": "E4",
            "ticks": 213024,
            "time": 277.375,
            "velocity": 0.03937007874015748
          },
          {
            "duration": 0.0625,
            "durationTicks": 48,
            "midi": 69,
            "name": "A4",
            "ticks": 213120,
            "time": 277.5,
            "velocity": 0.03937007874015748
          },
          {
            "duration": 0.0625,
            "durationTicks": 48,
            "midi": 61,
            "name": "C#4",
            "ticks": 213120,
            "time": 277.5,
            "velocity": 0.03937007874015748
          },
          {
            "duration": 0.0625,
            "durationTicks": 48,
            "midi": 64,
            "name": "E4",
            "ticks": 213120,
            "time": 277.5,
            "velocity": 0.03937007874015748
          },
          {
            "duration": 0.0625,
            "durationTicks": 48,
            "midi": 61,
            "name": "C#4",
            "ticks": 213216,
            "time": 277.625,
            "velocity": 0.03937007874015748
          },
          {
            "duration": 0.0625,
            "durationTicks": 48,
            "midi": 69,
            "name": "A4",
            "ticks": 213216,
            "time": 277.625,
            "velocity": 0.03937007874015748
          },
          {
            "duration": 0.0625,
            "durationTicks": 48,
            "midi": 64,
            "name": "E4",
            "ticks": 213216,
            "time": 277.625,
            "velocity": 0.03937007874015748
          },
          {
            "duration": 0.0625,
            "durationTicks": 48,
            "midi": 69,
            "name": "A4",
            "ticks": 213312,
            "time": 277.75,
            "velocity": 0.03937007874015748
          },
          {
            "duration": 0.0625,
            "durationTicks": 48,
            "midi": 61,
            "name": "C#4",
            "ticks": 213312,
            "time": 277.75,
            "velocity": 0.03937007874015748
          },
          {
            "duration": 0.0625,
            "durationTicks": 48,
            "midi": 64,
            "name": "E4",
            "ticks": 213312,
            "time": 277.75,
            "velocity": 0.03937007874015748
          },
          {
            "duration": 0.0625,
            "durationTicks": 48,
            "midi": 66,
            "name": "F#4",
            "ticks": 213408,
            "time": 277.875,
            "velocity": 0.03937007874015748
          },
          {
            "duration": 0.0625,
            "durationTicks": 48,
            "midi": 63,
            "name": "D#4",
            "ticks": 213408,
            "time": 277.875,
            "velocity": 0.03937007874015748
          },
          {
            "duration": 0.0625,
            "durationTicks": 48,
            "midi": 59,
            "name": "B3",
            "ticks": 213408,
            "time": 277.875,
            "velocity": 0.03937007874015748
          },
          {
            "duration": 0.0625,
            "durationTicks": 48,
            "midi": 66,
            "name": "F#4",
            "ticks": 213504,
            "time": 278,
            "velocity": 0.03937007874015748
          },
          {
            "duration": 0.0625,
            "durationTicks": 48,
            "midi": 59,
            "name": "B3",
            "ticks": 213504,
            "time": 278,
            "velocity": 0.03937007874015748
          },
          {
            "duration": 0.0625,
            "durationTicks": 48,
            "midi": 63,
            "name": "D#4",
            "ticks": 213504,
            "time": 278,
            "velocity": 0.03937007874015748
          },
          {
            "duration": 0.0625,
            "durationTicks": 48,
            "midi": 66,
            "name": "F#4",
            "ticks": 213600,
            "time": 278.125,
            "velocity": 0.03937007874015748
          },
          {
            "duration": 0.0625,
            "durationTicks": 48,
            "midi": 63,
            "name": "D#4",
            "ticks": 213600,
            "time": 278.125,
            "velocity": 0.03937007874015748
          },
          {
            "duration": 0.0625,
            "durationTicks": 48,
            "midi": 59,
            "name": "B3",
            "ticks": 213600,
            "time": 278.125,
            "velocity": 0.03937007874015748
          },
          {
            "duration": 0.0625,
            "durationTicks": 48,
            "midi": 63,
            "name": "D#4",
            "ticks": 213696,
            "time": 278.25,
            "velocity": 0.03937007874015748
          },
          {
            "duration": 0.0625,
            "durationTicks": 48,
            "midi": 66,
            "name": "F#4",
            "ticks": 213696,
            "time": 278.25,
            "velocity": 0.03937007874015748
          },
          {
            "duration": 0.0625,
            "durationTicks": 48,
            "midi": 59,
            "name": "B3",
            "ticks": 213696,
            "time": 278.25,
            "velocity": 0.03937007874015748
          },
          {
            "duration": 0.0625,
            "durationTicks": 48,
            "midi": 66,
            "name": "F#4",
            "ticks": 213792,
            "time": 278.375,
            "velocity": 0.03937007874015748
          },
          {
            "duration": 0.0625,
            "durationTicks": 48,
            "midi": 59,
            "name": "B3",
            "ticks": 213792,
            "time": 278.375,
            "velocity": 0.03937007874015748
          },
          {
            "duration": 0.0625,
            "durationTicks": 48,
            "midi": 63,
            "name": "D#4",
            "ticks": 213792,
            "time": 278.375,
            "velocity": 0.03937007874015748
          },
          {
            "duration": 0.0625,
            "durationTicks": 48,
            "midi": 63,
            "name": "D#4",
            "ticks": 213888,
            "time": 278.5,
            "velocity": 0.03937007874015748
          },
          {
            "duration": 0.0625,
            "durationTicks": 48,
            "midi": 66,
            "name": "F#4",
            "ticks": 213888,
            "time": 278.5,
            "velocity": 0.03937007874015748
          },
          {
            "duration": 0.0625,
            "durationTicks": 48,
            "midi": 59,
            "name": "B3",
            "ticks": 213888,
            "time": 278.5,
            "velocity": 0.03937007874015748
          },
          {
            "duration": 0.0625,
            "durationTicks": 48,
            "midi": 59,
            "name": "B3",
            "ticks": 213984,
            "time": 278.625,
            "velocity": 0.03937007874015748
          },
          {
            "duration": 0.0625,
            "durationTicks": 48,
            "midi": 66,
            "name": "F#4",
            "ticks": 213984,
            "time": 278.625,
            "velocity": 0.03937007874015748
          },
          {
            "duration": 0.0625,
            "durationTicks": 48,
            "midi": 63,
            "name": "D#4",
            "ticks": 213984,
            "time": 278.625,
            "velocity": 0.03937007874015748
          },
          {
            "duration": 0.0625,
            "durationTicks": 48,
            "midi": 59,
            "name": "B3",
            "ticks": 214080,
            "time": 278.75,
            "velocity": 0.03937007874015748
          },
          {
            "duration": 0.0625,
            "durationTicks": 48,
            "midi": 63,
            "name": "D#4",
            "ticks": 214080,
            "time": 278.75,
            "velocity": 0.03937007874015748
          },
          {
            "duration": 0.0625,
            "durationTicks": 48,
            "midi": 66,
            "name": "F#4",
            "ticks": 214080,
            "time": 278.75,
            "velocity": 0.03937007874015748
          },
          {
            "duration": 0.0625,
            "durationTicks": 48,
            "midi": 63,
            "name": "D#4",
            "ticks": 214176,
            "time": 278.875,
            "velocity": 0.03937007874015748
          },
          {
            "duration": 0.0625,
            "durationTicks": 48,
            "midi": 59,
            "name": "B3",
            "ticks": 214176,
            "time": 278.875,
            "velocity": 0.03937007874015748
          },
          {
            "duration": 0.0625,
            "durationTicks": 48,
            "midi": 66,
            "name": "F#4",
            "ticks": 214176,
            "time": 278.875,
            "velocity": 0.03937007874015748
          },
          {
            "duration": 0.0625,
            "durationTicks": 48,
            "midi": 66,
            "name": "F#4",
            "ticks": 214272,
            "time": 279,
            "velocity": 0.03937007874015748
          },
          {
            "duration": 0.0625,
            "durationTicks": 48,
            "midi": 59,
            "name": "B3",
            "ticks": 214272,
            "time": 279,
            "velocity": 0.03937007874015748
          },
          {
            "duration": 0.0625,
            "durationTicks": 48,
            "midi": 63,
            "name": "D#4",
            "ticks": 214272,
            "time": 279,
            "velocity": 0.03937007874015748
          },
          {
            "duration": 0.0625,
            "durationTicks": 48,
            "midi": 59,
            "name": "B3",
            "ticks": 214368,
            "time": 279.125,
            "velocity": 0.03937007874015748
          },
          {
            "duration": 0.0625,
            "durationTicks": 48,
            "midi": 63,
            "name": "D#4",
            "ticks": 214368,
            "time": 279.125,
            "velocity": 0.03937007874015748
          },
          {
            "duration": 0.0625,
            "durationTicks": 48,
            "midi": 66,
            "name": "F#4",
            "ticks": 214368,
            "time": 279.125,
            "velocity": 0.03937007874015748
          },
          {
            "duration": 0.0625,
            "durationTicks": 48,
            "midi": 66,
            "name": "F#4",
            "ticks": 214464,
            "time": 279.25,
            "velocity": 0.03937007874015748
          },
          {
            "duration": 0.0625,
            "durationTicks": 48,
            "midi": 59,
            "name": "B3",
            "ticks": 214464,
            "time": 279.25,
            "velocity": 0.03937007874015748
          },
          {
            "duration": 0.0625,
            "durationTicks": 48,
            "midi": 63,
            "name": "D#4",
            "ticks": 214464,
            "time": 279.25,
            "velocity": 0.03937007874015748
          },
          {
            "duration": 0.0625,
            "durationTicks": 48,
            "midi": 66,
            "name": "F#4",
            "ticks": 214560,
            "time": 279.375,
            "velocity": 0.03937007874015748
          },
          {
            "duration": 0.0625,
            "durationTicks": 48,
            "midi": 59,
            "name": "B3",
            "ticks": 214560,
            "time": 279.375,
            "velocity": 0.03937007874015748
          },
          {
            "duration": 0.0625,
            "durationTicks": 48,
            "midi": 63,
            "name": "D#4",
            "ticks": 214560,
            "time": 279.375,
            "velocity": 0.03937007874015748
          },
          {
            "duration": 0.0625,
            "durationTicks": 48,
            "midi": 63,
            "name": "D#4",
            "ticks": 214656,
            "time": 279.5,
            "velocity": 0.03937007874015748
          },
          {
            "duration": 0.0625,
            "durationTicks": 48,
            "midi": 66,
            "name": "F#4",
            "ticks": 214656,
            "time": 279.5,
            "velocity": 0.03937007874015748
          },
          {
            "duration": 0.0625,
            "durationTicks": 48,
            "midi": 59,
            "name": "B3",
            "ticks": 214656,
            "time": 279.5,
            "velocity": 0.03937007874015748
          },
          {
            "duration": 0.0625,
            "durationTicks": 48,
            "midi": 63,
            "name": "D#4",
            "ticks": 214752,
            "time": 279.625,
            "velocity": 0.03937007874015748
          },
          {
            "duration": 0.0625,
            "durationTicks": 48,
            "midi": 59,
            "name": "B3",
            "ticks": 214752,
            "time": 279.625,
            "velocity": 0.03937007874015748
          },
          {
            "duration": 0.0625,
            "durationTicks": 48,
            "midi": 66,
            "name": "F#4",
            "ticks": 214752,
            "time": 279.625,
            "velocity": 0.03937007874015748
          },
          {
            "duration": 0.0625,
            "durationTicks": 48,
            "midi": 66,
            "name": "F#4",
            "ticks": 214848,
            "time": 279.75,
            "velocity": 0.03937007874015748
          },
          {
            "duration": 0.0625,
            "durationTicks": 48,
            "midi": 59,
            "name": "B3",
            "ticks": 214848,
            "time": 279.75,
            "velocity": 0.03937007874015748
          },
          {
            "duration": 0.0625,
            "durationTicks": 48,
            "midi": 63,
            "name": "D#4",
            "ticks": 214848,
            "time": 279.75,
            "velocity": 0.03937007874015748
          },
          {
            "duration": 0.0625,
            "durationTicks": 48,
            "midi": 61,
            "name": "C#4",
            "ticks": 214944,
            "time": 279.875,
            "velocity": 0.03937007874015748
          },
          {
            "duration": 0.0625,
            "durationTicks": 48,
            "midi": 58,
            "name": "A#3",
            "ticks": 214944,
            "time": 279.875,
            "velocity": 0.03937007874015748
          },
          {
            "duration": 0.0625,
            "durationTicks": 48,
            "midi": 66,
            "name": "F#4",
            "ticks": 214944,
            "time": 279.875,
            "velocity": 0.03937007874015748
          },
          {
            "duration": 0.0625,
            "durationTicks": 48,
            "midi": 61,
            "name": "C#4",
            "ticks": 215040,
            "time": 280,
            "velocity": 0.03937007874015748
          },
          {
            "duration": 0.0625,
            "durationTicks": 48,
            "midi": 58,
            "name": "A#3",
            "ticks": 215040,
            "time": 280,
            "velocity": 0.03937007874015748
          },
          {
            "duration": 0.0625,
            "durationTicks": 48,
            "midi": 66,
            "name": "F#4",
            "ticks": 215040,
            "time": 280,
            "velocity": 0.03937007874015748
          },
          {
            "duration": 0.0625,
            "durationTicks": 48,
            "midi": 66,
            "name": "F#4",
            "ticks": 215136,
            "time": 280.125,
            "velocity": 0.03937007874015748
          },
          {
            "duration": 0.0625,
            "durationTicks": 48,
            "midi": 58,
            "name": "A#3",
            "ticks": 215136,
            "time": 280.125,
            "velocity": 0.03937007874015748
          },
          {
            "duration": 0.0625,
            "durationTicks": 48,
            "midi": 61,
            "name": "C#4",
            "ticks": 215136,
            "time": 280.125,
            "velocity": 0.03937007874015748
          },
          {
            "duration": 0.0625,
            "durationTicks": 48,
            "midi": 61,
            "name": "C#4",
            "ticks": 215232,
            "time": 280.25,
            "velocity": 0.03937007874015748
          },
          {
            "duration": 0.0625,
            "durationTicks": 48,
            "midi": 66,
            "name": "F#4",
            "ticks": 215232,
            "time": 280.25,
            "velocity": 0.03937007874015748
          },
          {
            "duration": 0.0625,
            "durationTicks": 48,
            "midi": 58,
            "name": "A#3",
            "ticks": 215232,
            "time": 280.25,
            "velocity": 0.03937007874015748
          },
          {
            "duration": 0.0625,
            "durationTicks": 48,
            "midi": 61,
            "name": "C#4",
            "ticks": 215328,
            "time": 280.375,
            "velocity": 0.03937007874015748
          },
          {
            "duration": 0.0625,
            "durationTicks": 48,
            "midi": 66,
            "name": "F#4",
            "ticks": 215328,
            "time": 280.375,
            "velocity": 0.03937007874015748
          },
          {
            "duration": 0.0625,
            "durationTicks": 48,
            "midi": 58,
            "name": "A#3",
            "ticks": 215328,
            "time": 280.375,
            "velocity": 0.03937007874015748
          },
          {
            "duration": 0.0625,
            "durationTicks": 48,
            "midi": 66,
            "name": "F#4",
            "ticks": 215424,
            "time": 280.5,
            "velocity": 0.03937007874015748
          },
          {
            "duration": 0.0625,
            "durationTicks": 48,
            "midi": 61,
            "name": "C#4",
            "ticks": 215424,
            "time": 280.5,
            "velocity": 0.03937007874015748
          },
          {
            "duration": 0.0625,
            "durationTicks": 48,
            "midi": 58,
            "name": "A#3",
            "ticks": 215424,
            "time": 280.5,
            "velocity": 0.03937007874015748
          },
          {
            "duration": 0.0625,
            "durationTicks": 48,
            "midi": 58,
            "name": "A#3",
            "ticks": 215520,
            "time": 280.625,
            "velocity": 0.03937007874015748
          },
          {
            "duration": 0.0625,
            "durationTicks": 48,
            "midi": 66,
            "name": "F#4",
            "ticks": 215520,
            "time": 280.625,
            "velocity": 0.03937007874015748
          },
          {
            "duration": 0.0625,
            "durationTicks": 48,
            "midi": 61,
            "name": "C#4",
            "ticks": 215520,
            "time": 280.625,
            "velocity": 0.03937007874015748
          },
          {
            "duration": 0.0625,
            "durationTicks": 48,
            "midi": 61,
            "name": "C#4",
            "ticks": 215616,
            "time": 280.75,
            "velocity": 0.03937007874015748
          },
          {
            "duration": 0.0625,
            "durationTicks": 48,
            "midi": 66,
            "name": "F#4",
            "ticks": 215616,
            "time": 280.75,
            "velocity": 0.03937007874015748
          },
          {
            "duration": 0.0625,
            "durationTicks": 48,
            "midi": 58,
            "name": "A#3",
            "ticks": 215616,
            "time": 280.75,
            "velocity": 0.03937007874015748
          },
          {
            "duration": 0.0625,
            "durationTicks": 48,
            "midi": 61,
            "name": "C#4",
            "ticks": 215712,
            "time": 280.875,
            "velocity": 0.03937007874015748
          },
          {
            "duration": 0.0625,
            "durationTicks": 48,
            "midi": 66,
            "name": "F#4",
            "ticks": 215712,
            "time": 280.875,
            "velocity": 0.03937007874015748
          },
          {
            "duration": 0.0625,
            "durationTicks": 48,
            "midi": 58,
            "name": "A#3",
            "ticks": 215712,
            "time": 280.875,
            "velocity": 0.03937007874015748
          },
          {
            "duration": 0.0625,
            "durationTicks": 48,
            "midi": 58,
            "name": "A#3",
            "ticks": 215808,
            "time": 281,
            "velocity": 0.03937007874015748
          },
          {
            "duration": 0.0625,
            "durationTicks": 48,
            "midi": 61,
            "name": "C#4",
            "ticks": 215808,
            "time": 281,
            "velocity": 0.03937007874015748
          },
          {
            "duration": 0.0625,
            "durationTicks": 48,
            "midi": 66,
            "name": "F#4",
            "ticks": 215808,
            "time": 281,
            "velocity": 0.03937007874015748
          },
          {
            "duration": 0.0625,
            "durationTicks": 48,
            "midi": 61,
            "name": "C#4",
            "ticks": 215904,
            "time": 281.125,
            "velocity": 0.03937007874015748
          },
          {
            "duration": 0.0625,
            "durationTicks": 48,
            "midi": 66,
            "name": "F#4",
            "ticks": 215904,
            "time": 281.125,
            "velocity": 0.03937007874015748
          },
          {
            "duration": 0.0625,
            "durationTicks": 48,
            "midi": 58,
            "name": "A#3",
            "ticks": 215904,
            "time": 281.125,
            "velocity": 0.03937007874015748
          },
          {
            "duration": 0.0625,
            "durationTicks": 48,
            "midi": 61,
            "name": "C#4",
            "ticks": 216000,
            "time": 281.25,
            "velocity": 0.03937007874015748
          },
          {
            "duration": 0.0625,
            "durationTicks": 48,
            "midi": 58,
            "name": "A#3",
            "ticks": 216000,
            "time": 281.25,
            "velocity": 0.03937007874015748
          },
          {
            "duration": 0.0625,
            "durationTicks": 48,
            "midi": 66,
            "name": "F#4",
            "ticks": 216000,
            "time": 281.25,
            "velocity": 0.03937007874015748
          },
          {
            "duration": 0.0625,
            "durationTicks": 48,
            "midi": 66,
            "name": "F#4",
            "ticks": 216096,
            "time": 281.375,
            "velocity": 0.03937007874015748
          },
          {
            "duration": 0.0625,
            "durationTicks": 48,
            "midi": 61,
            "name": "C#4",
            "ticks": 216096,
            "time": 281.375,
            "velocity": 0.03937007874015748
          },
          {
            "duration": 0.0625,
            "durationTicks": 48,
            "midi": 58,
            "name": "A#3",
            "ticks": 216096,
            "time": 281.375,
            "velocity": 0.03937007874015748
          },
          {
            "duration": 0.0625,
            "durationTicks": 48,
            "midi": 66,
            "name": "F#4",
            "ticks": 216192,
            "time": 281.5,
            "velocity": 0.03937007874015748
          },
          {
            "duration": 0.0625,
            "durationTicks": 48,
            "midi": 58,
            "name": "A#3",
            "ticks": 216192,
            "time": 281.5,
            "velocity": 0.03937007874015748
          },
          {
            "duration": 0.0625,
            "durationTicks": 48,
            "midi": 61,
            "name": "C#4",
            "ticks": 216192,
            "time": 281.5,
            "velocity": 0.03937007874015748
          },
          {
            "duration": 0.0625,
            "durationTicks": 48,
            "midi": 66,
            "name": "F#4",
            "ticks": 216288,
            "time": 281.625,
            "velocity": 0.03937007874015748
          },
          {
            "duration": 0.0625,
            "durationTicks": 48,
            "midi": 58,
            "name": "A#3",
            "ticks": 216288,
            "time": 281.625,
            "velocity": 0.03937007874015748
          },
          {
            "duration": 0.0625,
            "durationTicks": 48,
            "midi": 61,
            "name": "C#4",
            "ticks": 216288,
            "time": 281.625,
            "velocity": 0.03937007874015748
          },
          {
            "duration": 0.0625,
            "durationTicks": 48,
            "midi": 66,
            "name": "F#4",
            "ticks": 216384,
            "time": 281.75,
            "velocity": 0.03937007874015748
          },
          {
            "duration": 0.0625,
            "durationTicks": 48,
            "midi": 61,
            "name": "C#4",
            "ticks": 216384,
            "time": 281.75,
            "velocity": 0.03937007874015748
          },
          {
            "duration": 0.0625,
            "durationTicks": 48,
            "midi": 58,
            "name": "A#3",
            "ticks": 216384,
            "time": 281.75,
            "velocity": 0.03937007874015748
          },
          {
            "duration": 0.0625,
            "durationTicks": 48,
            "midi": 64,
            "name": "E4",
            "ticks": 216480,
            "time": 281.875,
            "velocity": 0.03937007874015748
          },
          {
            "duration": 0.0625,
            "durationTicks": 48,
            "midi": 68,
            "name": "G#4",
            "ticks": 216480,
            "time": 281.875,
            "velocity": 0.03937007874015748
          },
          {
            "duration": 0.0625,
            "durationTicks": 48,
            "midi": 61,
            "name": "C#4",
            "ticks": 216480,
            "time": 281.875,
            "velocity": 0.03937007874015748
          },
          {
            "duration": 0.0625,
            "durationTicks": 48,
            "midi": 68,
            "name": "G#4",
            "ticks": 216576,
            "time": 282,
            "velocity": 0.03937007874015748
          },
          {
            "duration": 0.0625,
            "durationTicks": 48,
            "midi": 61,
            "name": "C#4",
            "ticks": 216576,
            "time": 282,
            "velocity": 0.03937007874015748
          },
          {
            "duration": 0.0625,
            "durationTicks": 48,
            "midi": 64,
            "name": "E4",
            "ticks": 216576,
            "time": 282,
            "velocity": 0.03937007874015748
          },
          {
            "duration": 0.0625,
            "durationTicks": 48,
            "midi": 64,
            "name": "E4",
            "ticks": 216672,
            "time": 282.125,
            "velocity": 0.03937007874015748
          },
          {
            "duration": 0.0625,
            "durationTicks": 48,
            "midi": 61,
            "name": "C#4",
            "ticks": 216672,
            "time": 282.125,
            "velocity": 0.03937007874015748
          },
          {
            "duration": 0.0625,
            "durationTicks": 48,
            "midi": 68,
            "name": "G#4",
            "ticks": 216672,
            "time": 282.125,
            "velocity": 0.03937007874015748
          },
          {
            "duration": 0.0625,
            "durationTicks": 48,
            "midi": 64,
            "name": "E4",
            "ticks": 216768,
            "time": 282.25,
            "velocity": 0.03937007874015748
          },
          {
            "duration": 0.0625,
            "durationTicks": 48,
            "midi": 68,
            "name": "G#4",
            "ticks": 216768,
            "time": 282.25,
            "velocity": 0.03937007874015748
          },
          {
            "duration": 0.0625,
            "durationTicks": 48,
            "midi": 61,
            "name": "C#4",
            "ticks": 216768,
            "time": 282.25,
            "velocity": 0.03937007874015748
          },
          {
            "duration": 0.0625,
            "durationTicks": 48,
            "midi": 61,
            "name": "C#4",
            "ticks": 216864,
            "time": 282.375,
            "velocity": 0.03937007874015748
          },
          {
            "duration": 0.0625,
            "durationTicks": 48,
            "midi": 64,
            "name": "E4",
            "ticks": 216864,
            "time": 282.375,
            "velocity": 0.03937007874015748
          },
          {
            "duration": 0.0625,
            "durationTicks": 48,
            "midi": 68,
            "name": "G#4",
            "ticks": 216864,
            "time": 282.375,
            "velocity": 0.03937007874015748
          },
          {
            "duration": 0.0625,
            "durationTicks": 48,
            "midi": 61,
            "name": "C#4",
            "ticks": 216960,
            "time": 282.5,
            "velocity": 0.03937007874015748
          },
          {
            "duration": 0.0625,
            "durationTicks": 48,
            "midi": 68,
            "name": "G#4",
            "ticks": 216960,
            "time": 282.5,
            "velocity": 0.03937007874015748
          },
          {
            "duration": 0.0625,
            "durationTicks": 48,
            "midi": 64,
            "name": "E4",
            "ticks": 216960,
            "time": 282.5,
            "velocity": 0.03937007874015748
          },
          {
            "duration": 0.0625,
            "durationTicks": 48,
            "midi": 64,
            "name": "E4",
            "ticks": 217056,
            "time": 282.625,
            "velocity": 0.03937007874015748
          },
          {
            "duration": 0.0625,
            "durationTicks": 48,
            "midi": 61,
            "name": "C#4",
            "ticks": 217056,
            "time": 282.625,
            "velocity": 0.03937007874015748
          },
          {
            "duration": 0.0625,
            "durationTicks": 48,
            "midi": 68,
            "name": "G#4",
            "ticks": 217056,
            "time": 282.625,
            "velocity": 0.03937007874015748
          },
          {
            "duration": 0.0625,
            "durationTicks": 48,
            "midi": 61,
            "name": "C#4",
            "ticks": 217152,
            "time": 282.75,
            "velocity": 0.03937007874015748
          },
          {
            "duration": 0.0625,
            "durationTicks": 48,
            "midi": 68,
            "name": "G#4",
            "ticks": 217152,
            "time": 282.75,
            "velocity": 0.03937007874015748
          },
          {
            "duration": 0.0625,
            "durationTicks": 48,
            "midi": 64,
            "name": "E4",
            "ticks": 217152,
            "time": 282.75,
            "velocity": 0.03937007874015748
          },
          {
            "duration": 0.0625,
            "durationTicks": 48,
            "midi": 68,
            "name": "G#4",
            "ticks": 217248,
            "time": 282.875,
            "velocity": 0.03937007874015748
          },
          {
            "duration": 0.0625,
            "durationTicks": 48,
            "midi": 61,
            "name": "C#4",
            "ticks": 217248,
            "time": 282.875,
            "velocity": 0.03937007874015748
          },
          {
            "duration": 0.0625,
            "durationTicks": 48,
            "midi": 64,
            "name": "E4",
            "ticks": 217248,
            "time": 282.875,
            "velocity": 0.03937007874015748
          },
          {
            "duration": 0.0625,
            "durationTicks": 48,
            "midi": 61,
            "name": "C#4",
            "ticks": 217344,
            "time": 283,
            "velocity": 0.03937007874015748
          },
          {
            "duration": 0.0625,
            "durationTicks": 48,
            "midi": 68,
            "name": "G#4",
            "ticks": 217344,
            "time": 283,
            "velocity": 0.03937007874015748
          },
          {
            "duration": 0.0625,
            "durationTicks": 48,
            "midi": 64,
            "name": "E4",
            "ticks": 217344,
            "time": 283,
            "velocity": 0.03937007874015748
          },
          {
            "duration": 0.0625,
            "durationTicks": 48,
            "midi": 61,
            "name": "C#4",
            "ticks": 217440,
            "time": 283.125,
            "velocity": 0.03937007874015748
          },
          {
            "duration": 0.0625,
            "durationTicks": 48,
            "midi": 64,
            "name": "E4",
            "ticks": 217440,
            "time": 283.125,
            "velocity": 0.03937007874015748
          },
          {
            "duration": 0.0625,
            "durationTicks": 48,
            "midi": 68,
            "name": "G#4",
            "ticks": 217440,
            "time": 283.125,
            "velocity": 0.03937007874015748
          },
          {
            "duration": 0.0625,
            "durationTicks": 48,
            "midi": 61,
            "name": "C#4",
            "ticks": 217536,
            "time": 283.25,
            "velocity": 0.03937007874015748
          },
          {
            "duration": 0.0625,
            "durationTicks": 48,
            "midi": 64,
            "name": "E4",
            "ticks": 217536,
            "time": 283.25,
            "velocity": 0.03937007874015748
          },
          {
            "duration": 0.0625,
            "durationTicks": 48,
            "midi": 68,
            "name": "G#4",
            "ticks": 217536,
            "time": 283.25,
            "velocity": 0.03937007874015748
          },
          {
            "duration": 0.0625,
            "durationTicks": 48,
            "midi": 64,
            "name": "E4",
            "ticks": 217632,
            "time": 283.375,
            "velocity": 0.03937007874015748
          },
          {
            "duration": 0.0625,
            "durationTicks": 48,
            "midi": 68,
            "name": "G#4",
            "ticks": 217632,
            "time": 283.375,
            "velocity": 0.03937007874015748
          },
          {
            "duration": 0.0625,
            "durationTicks": 48,
            "midi": 61,
            "name": "C#4",
            "ticks": 217632,
            "time": 283.375,
            "velocity": 0.03937007874015748
          },
          {
            "duration": 0.0625,
            "durationTicks": 48,
            "midi": 61,
            "name": "C#4",
            "ticks": 217728,
            "time": 283.5,
            "velocity": 0.03937007874015748
          },
          {
            "duration": 0.0625,
            "durationTicks": 48,
            "midi": 64,
            "name": "E4",
            "ticks": 217728,
            "time": 283.5,
            "velocity": 0.03937007874015748
          },
          {
            "duration": 0.0625,
            "durationTicks": 48,
            "midi": 68,
            "name": "G#4",
            "ticks": 217728,
            "time": 283.5,
            "velocity": 0.03937007874015748
          },
          {
            "duration": 0.0625,
            "durationTicks": 48,
            "midi": 64,
            "name": "E4",
            "ticks": 217824,
            "time": 283.625,
            "velocity": 0.03937007874015748
          },
          {
            "duration": 0.0625,
            "durationTicks": 48,
            "midi": 61,
            "name": "C#4",
            "ticks": 217824,
            "time": 283.625,
            "velocity": 0.03937007874015748
          },
          {
            "duration": 0.0625,
            "durationTicks": 48,
            "midi": 68,
            "name": "G#4",
            "ticks": 217824,
            "time": 283.625,
            "velocity": 0.03937007874015748
          },
          {
            "duration": 0.0625,
            "durationTicks": 48,
            "midi": 68,
            "name": "G#4",
            "ticks": 217920,
            "time": 283.75,
            "velocity": 0.03937007874015748
          },
          {
            "duration": 0.0625,
            "durationTicks": 48,
            "midi": 64,
            "name": "E4",
            "ticks": 217920,
            "time": 283.75,
            "velocity": 0.03937007874015748
          },
          {
            "duration": 0.0625,
            "durationTicks": 48,
            "midi": 61,
            "name": "C#4",
            "ticks": 217920,
            "time": 283.75,
            "velocity": 0.03937007874015748
          },
          {
            "duration": 0.0625,
            "durationTicks": 48,
            "midi": 61,
            "name": "C#4",
            "ticks": 218016,
            "time": 283.875,
            "velocity": 0.03937007874015748
          },
          {
            "duration": 0.0625,
            "durationTicks": 48,
            "midi": 69,
            "name": "A4",
            "ticks": 218016,
            "time": 283.875,
            "velocity": 0.03937007874015748
          },
          {
            "duration": 0.0625,
            "durationTicks": 48,
            "midi": 64,
            "name": "E4",
            "ticks": 218016,
            "time": 283.875,
            "velocity": 0.03937007874015748
          },
          {
            "duration": 0.0625,
            "durationTicks": 48,
            "midi": 61,
            "name": "C#4",
            "ticks": 218112,
            "time": 284,
            "velocity": 0.03937007874015748
          },
          {
            "duration": 0.0625,
            "durationTicks": 48,
            "midi": 69,
            "name": "A4",
            "ticks": 218112,
            "time": 284,
            "velocity": 0.03937007874015748
          },
          {
            "duration": 0.0625,
            "durationTicks": 48,
            "midi": 64,
            "name": "E4",
            "ticks": 218112,
            "time": 284,
            "velocity": 0.03937007874015748
          },
          {
            "duration": 0.0625,
            "durationTicks": 48,
            "midi": 69,
            "name": "A4",
            "ticks": 218208,
            "time": 284.125,
            "velocity": 0.03937007874015748
          },
          {
            "duration": 0.0625,
            "durationTicks": 48,
            "midi": 64,
            "name": "E4",
            "ticks": 218208,
            "time": 284.125,
            "velocity": 0.03937007874015748
          },
          {
            "duration": 0.0625,
            "durationTicks": 48,
            "midi": 61,
            "name": "C#4",
            "ticks": 218208,
            "time": 284.125,
            "velocity": 0.03937007874015748
          },
          {
            "duration": 0.0625,
            "durationTicks": 48,
            "midi": 69,
            "name": "A4",
            "ticks": 218304,
            "time": 284.25,
            "velocity": 0.03937007874015748
          },
          {
            "duration": 0.0625,
            "durationTicks": 48,
            "midi": 61,
            "name": "C#4",
            "ticks": 218304,
            "time": 284.25,
            "velocity": 0.03937007874015748
          },
          {
            "duration": 0.0625,
            "durationTicks": 48,
            "midi": 64,
            "name": "E4",
            "ticks": 218304,
            "time": 284.25,
            "velocity": 0.03937007874015748
          },
          {
            "duration": 0.0625,
            "durationTicks": 48,
            "midi": 69,
            "name": "A4",
            "ticks": 218400,
            "time": 284.375,
            "velocity": 0.03937007874015748
          },
          {
            "duration": 0.0625,
            "durationTicks": 48,
            "midi": 64,
            "name": "E4",
            "ticks": 218400,
            "time": 284.375,
            "velocity": 0.03937007874015748
          },
          {
            "duration": 0.0625,
            "durationTicks": 48,
            "midi": 61,
            "name": "C#4",
            "ticks": 218400,
            "time": 284.375,
            "velocity": 0.03937007874015748
          },
          {
            "duration": 0.0625,
            "durationTicks": 48,
            "midi": 64,
            "name": "E4",
            "ticks": 218496,
            "time": 284.5,
            "velocity": 0.03937007874015748
          },
          {
            "duration": 0.0625,
            "durationTicks": 48,
            "midi": 69,
            "name": "A4",
            "ticks": 218496,
            "time": 284.5,
            "velocity": 0.03937007874015748
          },
          {
            "duration": 0.0625,
            "durationTicks": 48,
            "midi": 61,
            "name": "C#4",
            "ticks": 218496,
            "time": 284.5,
            "velocity": 0.03937007874015748
          },
          {
            "duration": 0.0625,
            "durationTicks": 48,
            "midi": 69,
            "name": "A4",
            "ticks": 218592,
            "time": 284.625,
            "velocity": 0.03937007874015748
          },
          {
            "duration": 0.0625,
            "durationTicks": 48,
            "midi": 61,
            "name": "C#4",
            "ticks": 218592,
            "time": 284.625,
            "velocity": 0.03937007874015748
          },
          {
            "duration": 0.0625,
            "durationTicks": 48,
            "midi": 64,
            "name": "E4",
            "ticks": 218592,
            "time": 284.625,
            "velocity": 0.03937007874015748
          },
          {
            "duration": 0.0625,
            "durationTicks": 48,
            "midi": 64,
            "name": "E4",
            "ticks": 218688,
            "time": 284.75,
            "velocity": 0.03937007874015748
          },
          {
            "duration": 0.0625,
            "durationTicks": 48,
            "midi": 61,
            "name": "C#4",
            "ticks": 218688,
            "time": 284.75,
            "velocity": 0.03937007874015748
          },
          {
            "duration": 0.0625,
            "durationTicks": 48,
            "midi": 69,
            "name": "A4",
            "ticks": 218688,
            "time": 284.75,
            "velocity": 0.03937007874015748
          },
          {
            "duration": 0.0625,
            "durationTicks": 48,
            "midi": 69,
            "name": "A4",
            "ticks": 218784,
            "time": 284.875,
            "velocity": 0.03937007874015748
          },
          {
            "duration": 0.0625,
            "durationTicks": 48,
            "midi": 61,
            "name": "C#4",
            "ticks": 218784,
            "time": 284.875,
            "velocity": 0.03937007874015748
          },
          {
            "duration": 0.0625,
            "durationTicks": 48,
            "midi": 64,
            "name": "E4",
            "ticks": 218784,
            "time": 284.875,
            "velocity": 0.03937007874015748
          },
          {
            "duration": 0.0625,
            "durationTicks": 48,
            "midi": 64,
            "name": "E4",
            "ticks": 218880,
            "time": 285,
            "velocity": 0.03937007874015748
          },
          {
            "duration": 0.0625,
            "durationTicks": 48,
            "midi": 69,
            "name": "A4",
            "ticks": 218880,
            "time": 285,
            "velocity": 0.03937007874015748
          },
          {
            "duration": 0.0625,
            "durationTicks": 48,
            "midi": 61,
            "name": "C#4",
            "ticks": 218880,
            "time": 285,
            "velocity": 0.03937007874015748
          },
          {
            "duration": 0.0625,
            "durationTicks": 48,
            "midi": 69,
            "name": "A4",
            "ticks": 218976,
            "time": 285.125,
            "velocity": 0.03937007874015748
          },
          {
            "duration": 0.0625,
            "durationTicks": 48,
            "midi": 61,
            "name": "C#4",
            "ticks": 218976,
            "time": 285.125,
            "velocity": 0.03937007874015748
          },
          {
            "duration": 0.0625,
            "durationTicks": 48,
            "midi": 64,
            "name": "E4",
            "ticks": 218976,
            "time": 285.125,
            "velocity": 0.03937007874015748
          },
          {
            "duration": 0.0625,
            "durationTicks": 48,
            "midi": 69,
            "name": "A4",
            "ticks": 219072,
            "time": 285.25,
            "velocity": 0.03937007874015748
          },
          {
            "duration": 0.0625,
            "durationTicks": 48,
            "midi": 61,
            "name": "C#4",
            "ticks": 219072,
            "time": 285.25,
            "velocity": 0.03937007874015748
          },
          {
            "duration": 0.0625,
            "durationTicks": 48,
            "midi": 64,
            "name": "E4",
            "ticks": 219072,
            "time": 285.25,
            "velocity": 0.03937007874015748
          },
          {
            "duration": 0.0625,
            "durationTicks": 48,
            "midi": 64,
            "name": "E4",
            "ticks": 219168,
            "time": 285.375,
            "velocity": 0.03937007874015748
          },
          {
            "duration": 0.0625,
            "durationTicks": 48,
            "midi": 69,
            "name": "A4",
            "ticks": 219168,
            "time": 285.375,
            "velocity": 0.03937007874015748
          },
          {
            "duration": 0.0625,
            "durationTicks": 48,
            "midi": 61,
            "name": "C#4",
            "ticks": 219168,
            "time": 285.375,
            "velocity": 0.03937007874015748
          },
          {
            "duration": 0.0625,
            "durationTicks": 48,
            "midi": 64,
            "name": "E4",
            "ticks": 219264,
            "time": 285.5,
            "velocity": 0.03937007874015748
          },
          {
            "duration": 0.0625,
            "durationTicks": 48,
            "midi": 69,
            "name": "A4",
            "ticks": 219264,
            "time": 285.5,
            "velocity": 0.03937007874015748
          },
          {
            "duration": 0.0625,
            "durationTicks": 48,
            "midi": 61,
            "name": "C#4",
            "ticks": 219264,
            "time": 285.5,
            "velocity": 0.03937007874015748
          },
          {
            "duration": 0.0625,
            "durationTicks": 48,
            "midi": 61,
            "name": "C#4",
            "ticks": 219360,
            "time": 285.625,
            "velocity": 0.03937007874015748
          },
          {
            "duration": 0.0625,
            "durationTicks": 48,
            "midi": 64,
            "name": "E4",
            "ticks": 219360,
            "time": 285.625,
            "velocity": 0.03937007874015748
          },
          {
            "duration": 0.0625,
            "durationTicks": 48,
            "midi": 69,
            "name": "A4",
            "ticks": 219360,
            "time": 285.625,
            "velocity": 0.03937007874015748
          },
          {
            "duration": 0.0625,
            "durationTicks": 48,
            "midi": 69,
            "name": "A4",
            "ticks": 219456,
            "time": 285.75,
            "velocity": 0.03937007874015748
          },
          {
            "duration": 0.0625,
            "durationTicks": 48,
            "midi": 61,
            "name": "C#4",
            "ticks": 219456,
            "time": 285.75,
            "velocity": 0.03937007874015748
          },
          {
            "duration": 0.0625,
            "durationTicks": 48,
            "midi": 64,
            "name": "E4",
            "ticks": 219456,
            "time": 285.75,
            "velocity": 0.03937007874015748
          },
          {
            "duration": 0.0625,
            "durationTicks": 48,
            "midi": 63,
            "name": "D#4",
            "ticks": 219552,
            "time": 285.875,
            "velocity": 0.03937007874015748
          },
          {
            "duration": 0.0625,
            "durationTicks": 48,
            "midi": 66,
            "name": "F#4",
            "ticks": 219552,
            "time": 285.875,
            "velocity": 0.03937007874015748
          },
          {
            "duration": 0.0625,
            "durationTicks": 48,
            "midi": 59,
            "name": "B3",
            "ticks": 219552,
            "time": 285.875,
            "velocity": 0.03937007874015748
          },
          {
            "duration": 0.0625,
            "durationTicks": 48,
            "midi": 59,
            "name": "B3",
            "ticks": 219648,
            "time": 286,
            "velocity": 0.03937007874015748
          },
          {
            "duration": 0.0625,
            "durationTicks": 48,
            "midi": 63,
            "name": "D#4",
            "ticks": 219648,
            "time": 286,
            "velocity": 0.03937007874015748
          },
          {
            "duration": 0.0625,
            "durationTicks": 48,
            "midi": 66,
            "name": "F#4",
            "ticks": 219648,
            "time": 286,
            "velocity": 0.03937007874015748
          },
          {
            "duration": 0.0625,
            "durationTicks": 48,
            "midi": 63,
            "name": "D#4",
            "ticks": 219744,
            "time": 286.125,
            "velocity": 0.03937007874015748
          },
          {
            "duration": 0.0625,
            "durationTicks": 48,
            "midi": 59,
            "name": "B3",
            "ticks": 219744,
            "time": 286.125,
            "velocity": 0.03937007874015748
          },
          {
            "duration": 0.0625,
            "durationTicks": 48,
            "midi": 66,
            "name": "F#4",
            "ticks": 219744,
            "time": 286.125,
            "velocity": 0.03937007874015748
          },
          {
            "duration": 0.0625,
            "durationTicks": 48,
            "midi": 63,
            "name": "D#4",
            "ticks": 219840,
            "time": 286.25,
            "velocity": 0.03937007874015748
          },
          {
            "duration": 0.0625,
            "durationTicks": 48,
            "midi": 59,
            "name": "B3",
            "ticks": 219840,
            "time": 286.25,
            "velocity": 0.03937007874015748
          },
          {
            "duration": 0.0625,
            "durationTicks": 48,
            "midi": 66,
            "name": "F#4",
            "ticks": 219840,
            "time": 286.25,
            "velocity": 0.03937007874015748
          },
          {
            "duration": 0.0625,
            "durationTicks": 48,
            "midi": 63,
            "name": "D#4",
            "ticks": 219936,
            "time": 286.375,
            "velocity": 0.03937007874015748
          },
          {
            "duration": 0.0625,
            "durationTicks": 48,
            "midi": 66,
            "name": "F#4",
            "ticks": 219936,
            "time": 286.375,
            "velocity": 0.03937007874015748
          },
          {
            "duration": 0.0625,
            "durationTicks": 48,
            "midi": 59,
            "name": "B3",
            "ticks": 219936,
            "time": 286.375,
            "velocity": 0.03937007874015748
          },
          {
            "duration": 0.0625,
            "durationTicks": 48,
            "midi": 66,
            "name": "F#4",
            "ticks": 220032,
            "time": 286.5,
            "velocity": 0.03937007874015748
          },
          {
            "duration": 0.0625,
            "durationTicks": 48,
            "midi": 59,
            "name": "B3",
            "ticks": 220032,
            "time": 286.5,
            "velocity": 0.03937007874015748
          },
          {
            "duration": 0.0625,
            "durationTicks": 48,
            "midi": 63,
            "name": "D#4",
            "ticks": 220032,
            "time": 286.5,
            "velocity": 0.03937007874015748
          },
          {
            "duration": 0.0625,
            "durationTicks": 48,
            "midi": 63,
            "name": "D#4",
            "ticks": 220128,
            "time": 286.625,
            "velocity": 0.03937007874015748
          },
          {
            "duration": 0.0625,
            "durationTicks": 48,
            "midi": 59,
            "name": "B3",
            "ticks": 220128,
            "time": 286.625,
            "velocity": 0.03937007874015748
          },
          {
            "duration": 0.0625,
            "durationTicks": 48,
            "midi": 66,
            "name": "F#4",
            "ticks": 220128,
            "time": 286.625,
            "velocity": 0.03937007874015748
          },
          {
            "duration": 0.0625,
            "durationTicks": 48,
            "midi": 59,
            "name": "B3",
            "ticks": 220224,
            "time": 286.75,
            "velocity": 0.03937007874015748
          },
          {
            "duration": 0.0625,
            "durationTicks": 48,
            "midi": 63,
            "name": "D#4",
            "ticks": 220224,
            "time": 286.75,
            "velocity": 0.03937007874015748
          },
          {
            "duration": 0.0625,
            "durationTicks": 48,
            "midi": 66,
            "name": "F#4",
            "ticks": 220224,
            "time": 286.75,
            "velocity": 0.03937007874015748
          },
          {
            "duration": 0.0625,
            "durationTicks": 48,
            "midi": 59,
            "name": "B3",
            "ticks": 220320,
            "time": 286.875,
            "velocity": 0.03937007874015748
          },
          {
            "duration": 0.0625,
            "durationTicks": 48,
            "midi": 63,
            "name": "D#4",
            "ticks": 220320,
            "time": 286.875,
            "velocity": 0.03937007874015748
          },
          {
            "duration": 0.0625,
            "durationTicks": 48,
            "midi": 66,
            "name": "F#4",
            "ticks": 220320,
            "time": 286.875,
            "velocity": 0.03937007874015748
          },
          {
            "duration": 0.0625,
            "durationTicks": 48,
            "midi": 66,
            "name": "F#4",
            "ticks": 220416,
            "time": 287,
            "velocity": 0.03937007874015748
          },
          {
            "duration": 0.0625,
            "durationTicks": 48,
            "midi": 63,
            "name": "D#4",
            "ticks": 220416,
            "time": 287,
            "velocity": 0.03937007874015748
          },
          {
            "duration": 0.0625,
            "durationTicks": 48,
            "midi": 59,
            "name": "B3",
            "ticks": 220416,
            "time": 287,
            "velocity": 0.03937007874015748
          },
          {
            "duration": 0.0625,
            "durationTicks": 48,
            "midi": 63,
            "name": "D#4",
            "ticks": 220512,
            "time": 287.125,
            "velocity": 0.03937007874015748
          },
          {
            "duration": 0.0625,
            "durationTicks": 48,
            "midi": 66,
            "name": "F#4",
            "ticks": 220512,
            "time": 287.125,
            "velocity": 0.03937007874015748
          },
          {
            "duration": 0.0625,
            "durationTicks": 48,
            "midi": 59,
            "name": "B3",
            "ticks": 220512,
            "time": 287.125,
            "velocity": 0.03937007874015748
          },
          {
            "duration": 0.0625,
            "durationTicks": 48,
            "midi": 63,
            "name": "D#4",
            "ticks": 220608,
            "time": 287.25,
            "velocity": 0.03937007874015748
          },
          {
            "duration": 0.0625,
            "durationTicks": 48,
            "midi": 66,
            "name": "F#4",
            "ticks": 220608,
            "time": 287.25,
            "velocity": 0.03937007874015748
          },
          {
            "duration": 0.0625,
            "durationTicks": 48,
            "midi": 59,
            "name": "B3",
            "ticks": 220608,
            "time": 287.25,
            "velocity": 0.03937007874015748
          },
          {
            "duration": 0.0625,
            "durationTicks": 48,
            "midi": 63,
            "name": "D#4",
            "ticks": 220704,
            "time": 287.375,
            "velocity": 0.03937007874015748
          },
          {
            "duration": 0.0625,
            "durationTicks": 48,
            "midi": 66,
            "name": "F#4",
            "ticks": 220704,
            "time": 287.375,
            "velocity": 0.03937007874015748
          },
          {
            "duration": 0.0625,
            "durationTicks": 48,
            "midi": 59,
            "name": "B3",
            "ticks": 220704,
            "time": 287.375,
            "velocity": 0.03937007874015748
          },
          {
            "duration": 0.0625,
            "durationTicks": 48,
            "midi": 66,
            "name": "F#4",
            "ticks": 220800,
            "time": 287.5,
            "velocity": 0.03937007874015748
          },
          {
            "duration": 0.0625,
            "durationTicks": 48,
            "midi": 59,
            "name": "B3",
            "ticks": 220800,
            "time": 287.5,
            "velocity": 0.03937007874015748
          },
          {
            "duration": 0.0625,
            "durationTicks": 48,
            "midi": 63,
            "name": "D#4",
            "ticks": 220800,
            "time": 287.5,
            "velocity": 0.03937007874015748
          },
          {
            "duration": 0.0625,
            "durationTicks": 48,
            "midi": 59,
            "name": "B3",
            "ticks": 220896,
            "time": 287.625,
            "velocity": 0.03937007874015748
          },
          {
            "duration": 0.0625,
            "durationTicks": 48,
            "midi": 66,
            "name": "F#4",
            "ticks": 220896,
            "time": 287.625,
            "velocity": 0.03937007874015748
          },
          {
            "duration": 0.0625,
            "durationTicks": 48,
            "midi": 63,
            "name": "D#4",
            "ticks": 220896,
            "time": 287.625,
            "velocity": 0.03937007874015748
          },
          {
            "duration": 0.0625,
            "durationTicks": 48,
            "midi": 59,
            "name": "B3",
            "ticks": 220992,
            "time": 287.75,
            "velocity": 0.03937007874015748
          },
          {
            "duration": 0.0625,
            "durationTicks": 48,
            "midi": 66,
            "name": "F#4",
            "ticks": 220992,
            "time": 287.75,
            "velocity": 0.03937007874015748
          },
          {
            "duration": 0.0625,
            "durationTicks": 48,
            "midi": 63,
            "name": "D#4",
            "ticks": 220992,
            "time": 287.75,
            "velocity": 0.03937007874015748
          },
          {
            "duration": 0.0625,
            "durationTicks": 48,
            "midi": 66,
            "name": "F#4",
            "ticks": 221088,
            "time": 287.875,
            "velocity": 0.03937007874015748
          },
          {
            "duration": 0.0625,
            "durationTicks": 48,
            "midi": 61,
            "name": "C#4",
            "ticks": 221088,
            "time": 287.875,
            "velocity": 0.03937007874015748
          },
          {
            "duration": 0.0625,
            "durationTicks": 48,
            "midi": 58,
            "name": "A#3",
            "ticks": 221088,
            "time": 287.875,
            "velocity": 0.03937007874015748
          },
          {
            "duration": 0.0625,
            "durationTicks": 48,
            "midi": 61,
            "name": "C#4",
            "ticks": 221184,
            "time": 288,
            "velocity": 0.03937007874015748
          },
          {
            "duration": 0.0625,
            "durationTicks": 48,
            "midi": 58,
            "name": "A#3",
            "ticks": 221184,
            "time": 288,
            "velocity": 0.03937007874015748
          },
          {
            "duration": 0.0625,
            "durationTicks": 48,
            "midi": 66,
            "name": "F#4",
            "ticks": 221184,
            "time": 288,
            "velocity": 0.03937007874015748
          },
          {
            "duration": 0.0625,
            "durationTicks": 48,
            "midi": 61,
            "name": "C#4",
            "ticks": 221280,
            "time": 288.125,
            "velocity": 0.03937007874015748
          },
          {
            "duration": 0.0625,
            "durationTicks": 48,
            "midi": 66,
            "name": "F#4",
            "ticks": 221280,
            "time": 288.125,
            "velocity": 0.03937007874015748
          },
          {
            "duration": 0.0625,
            "durationTicks": 48,
            "midi": 58,
            "name": "A#3",
            "ticks": 221280,
            "time": 288.125,
            "velocity": 0.03937007874015748
          },
          {
            "duration": 0.0625,
            "durationTicks": 48,
            "midi": 58,
            "name": "A#3",
            "ticks": 221376,
            "time": 288.25,
            "velocity": 0.03937007874015748
          },
          {
            "duration": 0.0625,
            "durationTicks": 48,
            "midi": 66,
            "name": "F#4",
            "ticks": 221376,
            "time": 288.25,
            "velocity": 0.03937007874015748
          },
          {
            "duration": 0.0625,
            "durationTicks": 48,
            "midi": 61,
            "name": "C#4",
            "ticks": 221376,
            "time": 288.25,
            "velocity": 0.03937007874015748
          },
          {
            "duration": 0.0625,
            "durationTicks": 48,
            "midi": 58,
            "name": "A#3",
            "ticks": 221472,
            "time": 288.375,
            "velocity": 0.03937007874015748
          },
          {
            "duration": 0.0625,
            "durationTicks": 48,
            "midi": 66,
            "name": "F#4",
            "ticks": 221472,
            "time": 288.375,
            "velocity": 0.03937007874015748
          },
          {
            "duration": 0.0625,
            "durationTicks": 48,
            "midi": 61,
            "name": "C#4",
            "ticks": 221472,
            "time": 288.375,
            "velocity": 0.03937007874015748
          },
          {
            "duration": 0.0625,
            "durationTicks": 48,
            "midi": 61,
            "name": "C#4",
            "ticks": 221568,
            "time": 288.5,
            "velocity": 0.03937007874015748
          },
          {
            "duration": 0.0625,
            "durationTicks": 48,
            "midi": 66,
            "name": "F#4",
            "ticks": 221568,
            "time": 288.5,
            "velocity": 0.03937007874015748
          },
          {
            "duration": 0.0625,
            "durationTicks": 48,
            "midi": 58,
            "name": "A#3",
            "ticks": 221568,
            "time": 288.5,
            "velocity": 0.03937007874015748
          },
          {
            "duration": 0.0625,
            "durationTicks": 48,
            "midi": 66,
            "name": "F#4",
            "ticks": 221664,
            "time": 288.625,
            "velocity": 0.03937007874015748
          },
          {
            "duration": 0.0625,
            "durationTicks": 48,
            "midi": 58,
            "name": "A#3",
            "ticks": 221664,
            "time": 288.625,
            "velocity": 0.03937007874015748
          },
          {
            "duration": 0.0625,
            "durationTicks": 48,
            "midi": 61,
            "name": "C#4",
            "ticks": 221664,
            "time": 288.625,
            "velocity": 0.03937007874015748
          },
          {
            "duration": 0.0625,
            "durationTicks": 48,
            "midi": 58,
            "name": "A#3",
            "ticks": 221760,
            "time": 288.75,
            "velocity": 0.03937007874015748
          },
          {
            "duration": 0.0625,
            "durationTicks": 48,
            "midi": 66,
            "name": "F#4",
            "ticks": 221760,
            "time": 288.75,
            "velocity": 0.03937007874015748
          },
          {
            "duration": 0.0625,
            "durationTicks": 48,
            "midi": 61,
            "name": "C#4",
            "ticks": 221760,
            "time": 288.75,
            "velocity": 0.03937007874015748
          },
          {
            "duration": 0.0625,
            "durationTicks": 48,
            "midi": 66,
            "name": "F#4",
            "ticks": 221856,
            "time": 288.875,
            "velocity": 0.03937007874015748
          },
          {
            "duration": 0.0625,
            "durationTicks": 48,
            "midi": 61,
            "name": "C#4",
            "ticks": 221856,
            "time": 288.875,
            "velocity": 0.03937007874015748
          },
          {
            "duration": 0.0625,
            "durationTicks": 48,
            "midi": 58,
            "name": "A#3",
            "ticks": 221856,
            "time": 288.875,
            "velocity": 0.03937007874015748
          },
          {
            "duration": 0.0625,
            "durationTicks": 48,
            "midi": 58,
            "name": "A#3",
            "ticks": 221952,
            "time": 289,
            "velocity": 0.03937007874015748
          },
          {
            "duration": 0.0625,
            "durationTicks": 48,
            "midi": 61,
            "name": "C#4",
            "ticks": 221952,
            "time": 289,
            "velocity": 0.03937007874015748
          },
          {
            "duration": 0.0625,
            "durationTicks": 48,
            "midi": 66,
            "name": "F#4",
            "ticks": 221952,
            "time": 289,
            "velocity": 0.03937007874015748
          },
          {
            "duration": 0.0625,
            "durationTicks": 48,
            "midi": 58,
            "name": "A#3",
            "ticks": 222048,
            "time": 289.125,
            "velocity": 0.03937007874015748
          },
          {
            "duration": 0.0625,
            "durationTicks": 48,
            "midi": 66,
            "name": "F#4",
            "ticks": 222048,
            "time": 289.125,
            "velocity": 0.03937007874015748
          },
          {
            "duration": 0.0625,
            "durationTicks": 48,
            "midi": 61,
            "name": "C#4",
            "ticks": 222048,
            "time": 289.125,
            "velocity": 0.03937007874015748
          },
          {
            "duration": 0.0625,
            "durationTicks": 48,
            "midi": 58,
            "name": "A#3",
            "ticks": 222144,
            "time": 289.25,
            "velocity": 0.03937007874015748
          },
          {
            "duration": 0.0625,
            "durationTicks": 48,
            "midi": 66,
            "name": "F#4",
            "ticks": 222144,
            "time": 289.25,
            "velocity": 0.03937007874015748
          },
          {
            "duration": 0.0625,
            "durationTicks": 48,
            "midi": 61,
            "name": "C#4",
            "ticks": 222144,
            "time": 289.25,
            "velocity": 0.03937007874015748
          },
          {
            "duration": 0.0625,
            "durationTicks": 48,
            "midi": 58,
            "name": "A#3",
            "ticks": 222240,
            "time": 289.375,
            "velocity": 0.03937007874015748
          },
          {
            "duration": 0.0625,
            "durationTicks": 48,
            "midi": 61,
            "name": "C#4",
            "ticks": 222240,
            "time": 289.375,
            "velocity": 0.03937007874015748
          },
          {
            "duration": 0.0625,
            "durationTicks": 48,
            "midi": 66,
            "name": "F#4",
            "ticks": 222240,
            "time": 289.375,
            "velocity": 0.03937007874015748
          },
          {
            "duration": 0.0625,
            "durationTicks": 48,
            "midi": 58,
            "name": "A#3",
            "ticks": 222336,
            "time": 289.5,
            "velocity": 0.03937007874015748
          },
          {
            "duration": 0.0625,
            "durationTicks": 48,
            "midi": 66,
            "name": "F#4",
            "ticks": 222336,
            "time": 289.5,
            "velocity": 0.03937007874015748
          },
          {
            "duration": 0.0625,
            "durationTicks": 48,
            "midi": 61,
            "name": "C#4",
            "ticks": 222336,
            "time": 289.5,
            "velocity": 0.03937007874015748
          },
          {
            "duration": 0.0625,
            "durationTicks": 48,
            "midi": 66,
            "name": "F#4",
            "ticks": 222432,
            "time": 289.625,
            "velocity": 0.03937007874015748
          },
          {
            "duration": 0.0625,
            "durationTicks": 48,
            "midi": 61,
            "name": "C#4",
            "ticks": 222432,
            "time": 289.625,
            "velocity": 0.03937007874015748
          },
          {
            "duration": 0.0625,
            "durationTicks": 48,
            "midi": 58,
            "name": "A#3",
            "ticks": 222432,
            "time": 289.625,
            "velocity": 0.03937007874015748
          },
          {
            "duration": 0.0625,
            "durationTicks": 48,
            "midi": 66,
            "name": "F#4",
            "ticks": 222528,
            "time": 289.75,
            "velocity": 0.03937007874015748
          },
          {
            "duration": 0.0625,
            "durationTicks": 48,
            "midi": 61,
            "name": "C#4",
            "ticks": 222528,
            "time": 289.75,
            "velocity": 0.03937007874015748
          },
          {
            "duration": 0.0625,
            "durationTicks": 48,
            "midi": 58,
            "name": "A#3",
            "ticks": 222528,
            "time": 289.75,
            "velocity": 0.03937007874015748
          },
          {
            "duration": 0.0625,
            "durationTicks": 48,
            "midi": 68,
            "name": "G#4",
            "ticks": 222624,
            "time": 289.875,
            "velocity": 0.03937007874015748
          },
          {
            "duration": 0.0625,
            "durationTicks": 48,
            "midi": 61,
            "name": "C#4",
            "ticks": 222624,
            "time": 289.875,
            "velocity": 0.03937007874015748
          },
          {
            "duration": 0.0625,
            "durationTicks": 48,
            "midi": 64,
            "name": "E4",
            "ticks": 222624,
            "time": 289.875,
            "velocity": 0.03937007874015748
          },
          {
            "duration": 0.0625,
            "durationTicks": 48,
            "midi": 68,
            "name": "G#4",
            "ticks": 222720,
            "time": 290,
            "velocity": 0.03937007874015748
          },
          {
            "duration": 0.0625,
            "durationTicks": 48,
            "midi": 64,
            "name": "E4",
            "ticks": 222720,
            "time": 290,
            "velocity": 0.03937007874015748
          },
          {
            "duration": 0.0625,
            "durationTicks": 48,
            "midi": 61,
            "name": "C#4",
            "ticks": 222720,
            "time": 290,
            "velocity": 0.03937007874015748
          },
          {
            "duration": 0.0625,
            "durationTicks": 48,
            "midi": 61,
            "name": "C#4",
            "ticks": 222816,
            "time": 290.125,
            "velocity": 0.03937007874015748
          },
          {
            "duration": 0.0625,
            "durationTicks": 48,
            "midi": 64,
            "name": "E4",
            "ticks": 222816,
            "time": 290.125,
            "velocity": 0.03937007874015748
          },
          {
            "duration": 0.0625,
            "durationTicks": 48,
            "midi": 68,
            "name": "G#4",
            "ticks": 222816,
            "time": 290.125,
            "velocity": 0.03937007874015748
          },
          {
            "duration": 0.0625,
            "durationTicks": 48,
            "midi": 61,
            "name": "C#4",
            "ticks": 222912,
            "time": 290.25,
            "velocity": 0.03937007874015748
          },
          {
            "duration": 0.0625,
            "durationTicks": 48,
            "midi": 68,
            "name": "G#4",
            "ticks": 222912,
            "time": 290.25,
            "velocity": 0.03937007874015748
          },
          {
            "duration": 0.0625,
            "durationTicks": 48,
            "midi": 64,
            "name": "E4",
            "ticks": 222912,
            "time": 290.25,
            "velocity": 0.03937007874015748
          },
          {
            "duration": 0.0625,
            "durationTicks": 48,
            "midi": 68,
            "name": "G#4",
            "ticks": 223008,
            "time": 290.375,
            "velocity": 0.03937007874015748
          },
          {
            "duration": 0.0625,
            "durationTicks": 48,
            "midi": 64,
            "name": "E4",
            "ticks": 223008,
            "time": 290.375,
            "velocity": 0.03937007874015748
          },
          {
            "duration": 0.0625,
            "durationTicks": 48,
            "midi": 61,
            "name": "C#4",
            "ticks": 223008,
            "time": 290.375,
            "velocity": 0.03937007874015748
          },
          {
            "duration": 0.0625,
            "durationTicks": 48,
            "midi": 68,
            "name": "G#4",
            "ticks": 223104,
            "time": 290.5,
            "velocity": 0.03937007874015748
          },
          {
            "duration": 0.0625,
            "durationTicks": 48,
            "midi": 64,
            "name": "E4",
            "ticks": 223104,
            "time": 290.5,
            "velocity": 0.03937007874015748
          },
          {
            "duration": 0.0625,
            "durationTicks": 48,
            "midi": 61,
            "name": "C#4",
            "ticks": 223104,
            "time": 290.5,
            "velocity": 0.03937007874015748
          },
          {
            "duration": 0.0625,
            "durationTicks": 48,
            "midi": 68,
            "name": "G#4",
            "ticks": 223200,
            "time": 290.625,
            "velocity": 0.03937007874015748
          },
          {
            "duration": 0.0625,
            "durationTicks": 48,
            "midi": 61,
            "name": "C#4",
            "ticks": 223200,
            "time": 290.625,
            "velocity": 0.03937007874015748
          },
          {
            "duration": 0.0625,
            "durationTicks": 48,
            "midi": 64,
            "name": "E4",
            "ticks": 223200,
            "time": 290.625,
            "velocity": 0.03937007874015748
          },
          {
            "duration": 0.0625,
            "durationTicks": 48,
            "midi": 64,
            "name": "E4",
            "ticks": 223296,
            "time": 290.75,
            "velocity": 0.03937007874015748
          },
          {
            "duration": 0.0625,
            "durationTicks": 48,
            "midi": 61,
            "name": "C#4",
            "ticks": 223296,
            "time": 290.75,
            "velocity": 0.03937007874015748
          },
          {
            "duration": 0.0625,
            "durationTicks": 48,
            "midi": 68,
            "name": "G#4",
            "ticks": 223296,
            "time": 290.75,
            "velocity": 0.03937007874015748
          },
          {
            "duration": 0.0625,
            "durationTicks": 48,
            "midi": 68,
            "name": "G#4",
            "ticks": 223392,
            "time": 290.875,
            "velocity": 0.03937007874015748
          },
          {
            "duration": 0.0625,
            "durationTicks": 48,
            "midi": 64,
            "name": "E4",
            "ticks": 223392,
            "time": 290.875,
            "velocity": 0.03937007874015748
          },
          {
            "duration": 0.0625,
            "durationTicks": 48,
            "midi": 61,
            "name": "C#4",
            "ticks": 223392,
            "time": 290.875,
            "velocity": 0.03937007874015748
          },
          {
            "duration": 0.0625,
            "durationTicks": 48,
            "midi": 64,
            "name": "E4",
            "ticks": 223488,
            "time": 291,
            "velocity": 0.03937007874015748
          },
          {
            "duration": 0.0625,
            "durationTicks": 48,
            "midi": 68,
            "name": "G#4",
            "ticks": 223488,
            "time": 291,
            "velocity": 0.03937007874015748
          },
          {
            "duration": 0.0625,
            "durationTicks": 48,
            "midi": 61,
            "name": "C#4",
            "ticks": 223488,
            "time": 291,
            "velocity": 0.03937007874015748
          },
          {
            "duration": 0.0625,
            "durationTicks": 48,
            "midi": 64,
            "name": "E4",
            "ticks": 223584,
            "time": 291.125,
            "velocity": 0.03937007874015748
          },
          {
            "duration": 0.0625,
            "durationTicks": 48,
            "midi": 68,
            "name": "G#4",
            "ticks": 223584,
            "time": 291.125,
            "velocity": 0.03937007874015748
          },
          {
            "duration": 0.0625,
            "durationTicks": 48,
            "midi": 61,
            "name": "C#4",
            "ticks": 223584,
            "time": 291.125,
            "velocity": 0.03937007874015748
          },
          {
            "duration": 0.0625,
            "durationTicks": 48,
            "midi": 61,
            "name": "C#4",
            "ticks": 223680,
            "time": 291.25,
            "velocity": 0.03937007874015748
          },
          {
            "duration": 0.0625,
            "durationTicks": 48,
            "midi": 68,
            "name": "G#4",
            "ticks": 223680,
            "time": 291.25,
            "velocity": 0.03937007874015748
          },
          {
            "duration": 0.0625,
            "durationTicks": 48,
            "midi": 64,
            "name": "E4",
            "ticks": 223680,
            "time": 291.25,
            "velocity": 0.03937007874015748
          },
          {
            "duration": 0.0625,
            "durationTicks": 48,
            "midi": 61,
            "name": "C#4",
            "ticks": 223776,
            "time": 291.375,
            "velocity": 0.03937007874015748
          },
          {
            "duration": 0.0625,
            "durationTicks": 48,
            "midi": 64,
            "name": "E4",
            "ticks": 223776,
            "time": 291.375,
            "velocity": 0.03937007874015748
          },
          {
            "duration": 0.0625,
            "durationTicks": 48,
            "midi": 68,
            "name": "G#4",
            "ticks": 223776,
            "time": 291.375,
            "velocity": 0.03937007874015748
          },
          {
            "duration": 0.0625,
            "durationTicks": 48,
            "midi": 61,
            "name": "C#4",
            "ticks": 223872,
            "time": 291.5,
            "velocity": 0.03937007874015748
          },
          {
            "duration": 0.0625,
            "durationTicks": 48,
            "midi": 68,
            "name": "G#4",
            "ticks": 223872,
            "time": 291.5,
            "velocity": 0.03937007874015748
          },
          {
            "duration": 0.0625,
            "durationTicks": 48,
            "midi": 64,
            "name": "E4",
            "ticks": 223872,
            "time": 291.5,
            "velocity": 0.03937007874015748
          },
          {
            "duration": 0.0625,
            "durationTicks": 48,
            "midi": 64,
            "name": "E4",
            "ticks": 223968,
            "time": 291.625,
            "velocity": 0.03937007874015748
          },
          {
            "duration": 0.0625,
            "durationTicks": 48,
            "midi": 61,
            "name": "C#4",
            "ticks": 223968,
            "time": 291.625,
            "velocity": 0.03937007874015748
          },
          {
            "duration": 0.0625,
            "durationTicks": 48,
            "midi": 68,
            "name": "G#4",
            "ticks": 223968,
            "time": 291.625,
            "velocity": 0.03937007874015748
          },
          {
            "duration": 0.0625,
            "durationTicks": 48,
            "midi": 61,
            "name": "C#4",
            "ticks": 224064,
            "time": 291.75,
            "velocity": 0.03937007874015748
          },
          {
            "duration": 0.0625,
            "durationTicks": 48,
            "midi": 68,
            "name": "G#4",
            "ticks": 224064,
            "time": 291.75,
            "velocity": 0.03937007874015748
          },
          {
            "duration": 0.0625,
            "durationTicks": 48,
            "midi": 64,
            "name": "E4",
            "ticks": 224064,
            "time": 291.75,
            "velocity": 0.03937007874015748
          },
          {
            "duration": 0.0625,
            "durationTicks": 48,
            "midi": 69,
            "name": "A4",
            "ticks": 224160,
            "time": 291.875,
            "velocity": 0.03937007874015748
          },
          {
            "duration": 0.0625,
            "durationTicks": 48,
            "midi": 61,
            "name": "C#4",
            "ticks": 224160,
            "time": 291.875,
            "velocity": 0.03937007874015748
          },
          {
            "duration": 0.0625,
            "durationTicks": 48,
            "midi": 64,
            "name": "E4",
            "ticks": 224160,
            "time": 291.875,
            "velocity": 0.03937007874015748
          },
          {
            "duration": 0.0625,
            "durationTicks": 48,
            "midi": 61,
            "name": "C#4",
            "ticks": 224256,
            "time": 292,
            "velocity": 0.03937007874015748
          },
          {
            "duration": 0.0625,
            "durationTicks": 48,
            "midi": 64,
            "name": "E4",
            "ticks": 224256,
            "time": 292,
            "velocity": 0.03937007874015748
          },
          {
            "duration": 0.0625,
            "durationTicks": 48,
            "midi": 69,
            "name": "A4",
            "ticks": 224256,
            "time": 292,
            "velocity": 0.03937007874015748
          },
          {
            "duration": 0.0625,
            "durationTicks": 48,
            "midi": 69,
            "name": "A4",
            "ticks": 224352,
            "time": 292.125,
            "velocity": 0.03937007874015748
          },
          {
            "duration": 0.0625,
            "durationTicks": 48,
            "midi": 61,
            "name": "C#4",
            "ticks": 224352,
            "time": 292.125,
            "velocity": 0.03937007874015748
          },
          {
            "duration": 0.0625,
            "durationTicks": 48,
            "midi": 64,
            "name": "E4",
            "ticks": 224352,
            "time": 292.125,
            "velocity": 0.03937007874015748
          },
          {
            "duration": 0.0625,
            "durationTicks": 48,
            "midi": 61,
            "name": "C#4",
            "ticks": 224448,
            "time": 292.25,
            "velocity": 0.03937007874015748
          },
          {
            "duration": 0.0625,
            "durationTicks": 48,
            "midi": 64,
            "name": "E4",
            "ticks": 224448,
            "time": 292.25,
            "velocity": 0.03937007874015748
          },
          {
            "duration": 0.0625,
            "durationTicks": 48,
            "midi": 69,
            "name": "A4",
            "ticks": 224448,
            "time": 292.25,
            "velocity": 0.03937007874015748
          },
          {
            "duration": 0.0625,
            "durationTicks": 48,
            "midi": 69,
            "name": "A4",
            "ticks": 224544,
            "time": 292.375,
            "velocity": 0.03937007874015748
          },
          {
            "duration": 0.0625,
            "durationTicks": 48,
            "midi": 61,
            "name": "C#4",
            "ticks": 224544,
            "time": 292.375,
            "velocity": 0.03937007874015748
          },
          {
            "duration": 0.0625,
            "durationTicks": 48,
            "midi": 64,
            "name": "E4",
            "ticks": 224544,
            "time": 292.375,
            "velocity": 0.03937007874015748
          },
          {
            "duration": 0.0625,
            "durationTicks": 48,
            "midi": 64,
            "name": "E4",
            "ticks": 224640,
            "time": 292.5,
            "velocity": 0.03937007874015748
          },
          {
            "duration": 0.0625,
            "durationTicks": 48,
            "midi": 61,
            "name": "C#4",
            "ticks": 224640,
            "time": 292.5,
            "velocity": 0.03937007874015748
          },
          {
            "duration": 0.0625,
            "durationTicks": 48,
            "midi": 69,
            "name": "A4",
            "ticks": 224640,
            "time": 292.5,
            "velocity": 0.03937007874015748
          },
          {
            "duration": 0.0625,
            "durationTicks": 48,
            "midi": 69,
            "name": "A4",
            "ticks": 224736,
            "time": 292.625,
            "velocity": 0.03937007874015748
          },
          {
            "duration": 0.0625,
            "durationTicks": 48,
            "midi": 61,
            "name": "C#4",
            "ticks": 224736,
            "time": 292.625,
            "velocity": 0.03937007874015748
          },
          {
            "duration": 0.0625,
            "durationTicks": 48,
            "midi": 64,
            "name": "E4",
            "ticks": 224736,
            "time": 292.625,
            "velocity": 0.03937007874015748
          },
          {
            "duration": 0.0625,
            "durationTicks": 48,
            "midi": 64,
            "name": "E4",
            "ticks": 224832,
            "time": 292.75,
            "velocity": 0.03937007874015748
          },
          {
            "duration": 0.0625,
            "durationTicks": 48,
            "midi": 61,
            "name": "C#4",
            "ticks": 224832,
            "time": 292.75,
            "velocity": 0.03937007874015748
          },
          {
            "duration": 0.0625,
            "durationTicks": 48,
            "midi": 69,
            "name": "A4",
            "ticks": 224832,
            "time": 292.75,
            "velocity": 0.03937007874015748
          },
          {
            "duration": 0.0625,
            "durationTicks": 48,
            "midi": 69,
            "name": "A4",
            "ticks": 224928,
            "time": 292.875,
            "velocity": 0.03937007874015748
          },
          {
            "duration": 0.0625,
            "durationTicks": 48,
            "midi": 61,
            "name": "C#4",
            "ticks": 224928,
            "time": 292.875,
            "velocity": 0.03937007874015748
          },
          {
            "duration": 0.0625,
            "durationTicks": 48,
            "midi": 64,
            "name": "E4",
            "ticks": 224928,
            "time": 292.875,
            "velocity": 0.03937007874015748
          },
          {
            "duration": 0.0625,
            "durationTicks": 48,
            "midi": 61,
            "name": "C#4",
            "ticks": 225024,
            "time": 293,
            "velocity": 0.03937007874015748
          },
          {
            "duration": 0.0625,
            "durationTicks": 48,
            "midi": 64,
            "name": "E4",
            "ticks": 225024,
            "time": 293,
            "velocity": 0.03937007874015748
          },
          {
            "duration": 0.0625,
            "durationTicks": 48,
            "midi": 69,
            "name": "A4",
            "ticks": 225024,
            "time": 293,
            "velocity": 0.03937007874015748
          },
          {
            "duration": 0.0625,
            "durationTicks": 48,
            "midi": 61,
            "name": "C#4",
            "ticks": 225120,
            "time": 293.125,
            "velocity": 0.03937007874015748
          },
          {
            "duration": 0.0625,
            "durationTicks": 48,
            "midi": 64,
            "name": "E4",
            "ticks": 225120,
            "time": 293.125,
            "velocity": 0.03937007874015748
          },
          {
            "duration": 0.0625,
            "durationTicks": 48,
            "midi": 69,
            "name": "A4",
            "ticks": 225120,
            "time": 293.125,
            "velocity": 0.03937007874015748
          },
          {
            "duration": 0.0625,
            "durationTicks": 48,
            "midi": 69,
            "name": "A4",
            "ticks": 225216,
            "time": 293.25,
            "velocity": 0.03937007874015748
          },
          {
            "duration": 0.0625,
            "durationTicks": 48,
            "midi": 64,
            "name": "E4",
            "ticks": 225216,
            "time": 293.25,
            "velocity": 0.03937007874015748
          },
          {
            "duration": 0.0625,
            "durationTicks": 48,
            "midi": 61,
            "name": "C#4",
            "ticks": 225216,
            "time": 293.25,
            "velocity": 0.03937007874015748
          },
          {
            "duration": 0.0625,
            "durationTicks": 48,
            "midi": 61,
            "name": "C#4",
            "ticks": 225312,
            "time": 293.375,
            "velocity": 0.03937007874015748
          },
          {
            "duration": 0.0625,
            "durationTicks": 48,
            "midi": 69,
            "name": "A4",
            "ticks": 225312,
            "time": 293.375,
            "velocity": 0.03937007874015748
          },
          {
            "duration": 0.0625,
            "durationTicks": 48,
            "midi": 64,
            "name": "E4",
            "ticks": 225312,
            "time": 293.375,
            "velocity": 0.03937007874015748
          },
          {
            "duration": 0.0625,
            "durationTicks": 48,
            "midi": 61,
            "name": "C#4",
            "ticks": 225408,
            "time": 293.5,
            "velocity": 0.03937007874015748
          },
          {
            "duration": 0.0625,
            "durationTicks": 48,
            "midi": 64,
            "name": "E4",
            "ticks": 225408,
            "time": 293.5,
            "velocity": 0.03937007874015748
          },
          {
            "duration": 0.0625,
            "durationTicks": 48,
            "midi": 69,
            "name": "A4",
            "ticks": 225408,
            "time": 293.5,
            "velocity": 0.03937007874015748
          },
          {
            "duration": 0.0625,
            "durationTicks": 48,
            "midi": 61,
            "name": "C#4",
            "ticks": 225504,
            "time": 293.625,
            "velocity": 0.03937007874015748
          },
          {
            "duration": 0.0625,
            "durationTicks": 48,
            "midi": 69,
            "name": "A4",
            "ticks": 225504,
            "time": 293.625,
            "velocity": 0.03937007874015748
          },
          {
            "duration": 0.0625,
            "durationTicks": 48,
            "midi": 64,
            "name": "E4",
            "ticks": 225504,
            "time": 293.625,
            "velocity": 0.03937007874015748
          },
          {
            "duration": 0.0625,
            "durationTicks": 48,
            "midi": 61,
            "name": "C#4",
            "ticks": 225600,
            "time": 293.75,
            "velocity": 0.03937007874015748
          },
          {
            "duration": 0.0625,
            "durationTicks": 48,
            "midi": 64,
            "name": "E4",
            "ticks": 225600,
            "time": 293.75,
            "velocity": 0.03937007874015748
          },
          {
            "duration": 0.0625,
            "durationTicks": 48,
            "midi": 69,
            "name": "A4",
            "ticks": 225600,
            "time": 293.75,
            "velocity": 0.03937007874015748
          },
          {
            "duration": 0.0625,
            "durationTicks": 48,
            "midi": 66,
            "name": "F#4",
            "ticks": 225696,
            "time": 293.875,
            "velocity": 0.03937007874015748
          },
          {
            "duration": 0.0625,
            "durationTicks": 48,
            "midi": 59,
            "name": "B3",
            "ticks": 225696,
            "time": 293.875,
            "velocity": 0.03937007874015748
          },
          {
            "duration": 0.0625,
            "durationTicks": 48,
            "midi": 63,
            "name": "D#4",
            "ticks": 225696,
            "time": 293.875,
            "velocity": 0.03937007874015748
          },
          {
            "duration": 0.0625,
            "durationTicks": 48,
            "midi": 63,
            "name": "D#4",
            "ticks": 225792,
            "time": 294,
            "velocity": 0.03937007874015748
          },
          {
            "duration": 0.0625,
            "durationTicks": 48,
            "midi": 59,
            "name": "B3",
            "ticks": 225792,
            "time": 294,
            "velocity": 0.03937007874015748
          },
          {
            "duration": 0.0625,
            "durationTicks": 48,
            "midi": 66,
            "name": "F#4",
            "ticks": 225792,
            "time": 294,
            "velocity": 0.03937007874015748
          },
          {
            "duration": 0.0625,
            "durationTicks": 48,
            "midi": 63,
            "name": "D#4",
            "ticks": 225888,
            "time": 294.125,
            "velocity": 0.03937007874015748
          },
          {
            "duration": 0.0625,
            "durationTicks": 48,
            "midi": 66,
            "name": "F#4",
            "ticks": 225888,
            "time": 294.125,
            "velocity": 0.03937007874015748
          },
          {
            "duration": 0.0625,
            "durationTicks": 48,
            "midi": 59,
            "name": "B3",
            "ticks": 225888,
            "time": 294.125,
            "velocity": 0.03937007874015748
          },
          {
            "duration": 0.0625,
            "durationTicks": 48,
            "midi": 59,
            "name": "B3",
            "ticks": 225984,
            "time": 294.25,
            "velocity": 0.03937007874015748
          },
          {
            "duration": 0.0625,
            "durationTicks": 48,
            "midi": 66,
            "name": "F#4",
            "ticks": 225984,
            "time": 294.25,
            "velocity": 0.03937007874015748
          },
          {
            "duration": 0.0625,
            "durationTicks": 48,
            "midi": 63,
            "name": "D#4",
            "ticks": 225984,
            "time": 294.25,
            "velocity": 0.03937007874015748
          },
          {
            "duration": 0.0625,
            "durationTicks": 48,
            "midi": 59,
            "name": "B3",
            "ticks": 226080,
            "time": 294.375,
            "velocity": 0.03937007874015748
          },
          {
            "duration": 0.0625,
            "durationTicks": 48,
            "midi": 66,
            "name": "F#4",
            "ticks": 226080,
            "time": 294.375,
            "velocity": 0.03937007874015748
          },
          {
            "duration": 0.0625,
            "durationTicks": 48,
            "midi": 63,
            "name": "D#4",
            "ticks": 226080,
            "time": 294.375,
            "velocity": 0.03937007874015748
          },
          {
            "duration": 0.0625,
            "durationTicks": 48,
            "midi": 63,
            "name": "D#4",
            "ticks": 226176,
            "time": 294.5,
            "velocity": 0.03937007874015748
          },
          {
            "duration": 0.0625,
            "durationTicks": 48,
            "midi": 59,
            "name": "B3",
            "ticks": 226176,
            "time": 294.5,
            "velocity": 0.03937007874015748
          },
          {
            "duration": 0.0625,
            "durationTicks": 48,
            "midi": 66,
            "name": "F#4",
            "ticks": 226176,
            "time": 294.5,
            "velocity": 0.03937007874015748
          },
          {
            "duration": 0.0625,
            "durationTicks": 48,
            "midi": 66,
            "name": "F#4",
            "ticks": 226272,
            "time": 294.625,
            "velocity": 0.03937007874015748
          },
          {
            "duration": 0.0625,
            "durationTicks": 48,
            "midi": 63,
            "name": "D#4",
            "ticks": 226272,
            "time": 294.625,
            "velocity": 0.03937007874015748
          },
          {
            "duration": 0.0625,
            "durationTicks": 48,
            "midi": 59,
            "name": "B3",
            "ticks": 226272,
            "time": 294.625,
            "velocity": 0.03937007874015748
          },
          {
            "duration": 0.0625,
            "durationTicks": 48,
            "midi": 59,
            "name": "B3",
            "ticks": 226368,
            "time": 294.75,
            "velocity": 0.03937007874015748
          },
          {
            "duration": 0.0625,
            "durationTicks": 48,
            "midi": 66,
            "name": "F#4",
            "ticks": 226368,
            "time": 294.75,
            "velocity": 0.03937007874015748
          },
          {
            "duration": 0.0625,
            "durationTicks": 48,
            "midi": 63,
            "name": "D#4",
            "ticks": 226368,
            "time": 294.75,
            "velocity": 0.03937007874015748
          },
          {
            "duration": 0.0625,
            "durationTicks": 48,
            "midi": 63,
            "name": "D#4",
            "ticks": 226464,
            "time": 294.875,
            "velocity": 0.03937007874015748
          },
          {
            "duration": 0.0625,
            "durationTicks": 48,
            "midi": 66,
            "name": "F#4",
            "ticks": 226464,
            "time": 294.875,
            "velocity": 0.03937007874015748
          },
          {
            "duration": 0.0625,
            "durationTicks": 48,
            "midi": 59,
            "name": "B3",
            "ticks": 226464,
            "time": 294.875,
            "velocity": 0.03937007874015748
          },
          {
            "duration": 0.0625,
            "durationTicks": 48,
            "midi": 59,
            "name": "B3",
            "ticks": 226560,
            "time": 295,
            "velocity": 0.03937007874015748
          },
          {
            "duration": 0.0625,
            "durationTicks": 48,
            "midi": 66,
            "name": "F#4",
            "ticks": 226560,
            "time": 295,
            "velocity": 0.03937007874015748
          },
          {
            "duration": 0.0625,
            "durationTicks": 48,
            "midi": 63,
            "name": "D#4",
            "ticks": 226560,
            "time": 295,
            "velocity": 0.03937007874015748
          },
          {
            "duration": 0.0625,
            "durationTicks": 48,
            "midi": 59,
            "name": "B3",
            "ticks": 226656,
            "time": 295.125,
            "velocity": 0.03937007874015748
          },
          {
            "duration": 0.0625,
            "durationTicks": 48,
            "midi": 63,
            "name": "D#4",
            "ticks": 226656,
            "time": 295.125,
            "velocity": 0.03937007874015748
          },
          {
            "duration": 0.0625,
            "durationTicks": 48,
            "midi": 66,
            "name": "F#4",
            "ticks": 226656,
            "time": 295.125,
            "velocity": 0.03937007874015748
          },
          {
            "duration": 0.0625,
            "durationTicks": 48,
            "midi": 59,
            "name": "B3",
            "ticks": 226752,
            "time": 295.25,
            "velocity": 0.03937007874015748
          },
          {
            "duration": 0.0625,
            "durationTicks": 48,
            "midi": 63,
            "name": "D#4",
            "ticks": 226752,
            "time": 295.25,
            "velocity": 0.03937007874015748
          },
          {
            "duration": 0.0625,
            "durationTicks": 48,
            "midi": 66,
            "name": "F#4",
            "ticks": 226752,
            "time": 295.25,
            "velocity": 0.03937007874015748
          },
          {
            "duration": 0.0625,
            "durationTicks": 48,
            "midi": 63,
            "name": "D#4",
            "ticks": 226848,
            "time": 295.375,
            "velocity": 0.03937007874015748
          },
          {
            "duration": 0.0625,
            "durationTicks": 48,
            "midi": 59,
            "name": "B3",
            "ticks": 226848,
            "time": 295.375,
            "velocity": 0.03937007874015748
          },
          {
            "duration": 0.0625,
            "durationTicks": 48,
            "midi": 66,
            "name": "F#4",
            "ticks": 226848,
            "time": 295.375,
            "velocity": 0.03937007874015748
          },
          {
            "duration": 0.0625,
            "durationTicks": 48,
            "midi": 66,
            "name": "F#4",
            "ticks": 226944,
            "time": 295.5,
            "velocity": 0.03937007874015748
          },
          {
            "duration": 0.0625,
            "durationTicks": 48,
            "midi": 63,
            "name": "D#4",
            "ticks": 226944,
            "time": 295.5,
            "velocity": 0.03937007874015748
          },
          {
            "duration": 0.0625,
            "durationTicks": 48,
            "midi": 59,
            "name": "B3",
            "ticks": 226944,
            "time": 295.5,
            "velocity": 0.03937007874015748
          },
          {
            "duration": 0.0625,
            "durationTicks": 48,
            "midi": 63,
            "name": "D#4",
            "ticks": 227040,
            "time": 295.625,
            "velocity": 0.03937007874015748
          },
          {
            "duration": 0.0625,
            "durationTicks": 48,
            "midi": 59,
            "name": "B3",
            "ticks": 227040,
            "time": 295.625,
            "velocity": 0.03937007874015748
          },
          {
            "duration": 0.0625,
            "durationTicks": 48,
            "midi": 66,
            "name": "F#4",
            "ticks": 227040,
            "time": 295.625,
            "velocity": 0.03937007874015748
          },
          {
            "duration": 0.0625,
            "durationTicks": 48,
            "midi": 59,
            "name": "B3",
            "ticks": 227136,
            "time": 295.75,
            "velocity": 0.03937007874015748
          },
          {
            "duration": 0.0625,
            "durationTicks": 48,
            "midi": 66,
            "name": "F#4",
            "ticks": 227136,
            "time": 295.75,
            "velocity": 0.03937007874015748
          },
          {
            "duration": 0.0625,
            "durationTicks": 48,
            "midi": 63,
            "name": "D#4",
            "ticks": 227136,
            "time": 295.75,
            "velocity": 0.03937007874015748
          },
          {
            "duration": 0.0625,
            "durationTicks": 48,
            "midi": 61,
            "name": "C#4",
            "ticks": 227232,
            "time": 295.875,
            "velocity": 0.03937007874015748
          },
          {
            "duration": 0.0625,
            "durationTicks": 48,
            "midi": 66,
            "name": "F#4",
            "ticks": 227232,
            "time": 295.875,
            "velocity": 0.03937007874015748
          },
          {
            "duration": 0.0625,
            "durationTicks": 48,
            "midi": 58,
            "name": "A#3",
            "ticks": 227232,
            "time": 295.875,
            "velocity": 0.03937007874015748
          },
          {
            "duration": 0.0625,
            "durationTicks": 48,
            "midi": 61,
            "name": "C#4",
            "ticks": 227328,
            "time": 296,
            "velocity": 0.03937007874015748
          },
          {
            "duration": 0.0625,
            "durationTicks": 48,
            "midi": 58,
            "name": "A#3",
            "ticks": 227328,
            "time": 296,
            "velocity": 0.03937007874015748
          },
          {
            "duration": 0.0625,
            "durationTicks": 48,
            "midi": 66,
            "name": "F#4",
            "ticks": 227328,
            "time": 296,
            "velocity": 0.03937007874015748
          },
          {
            "duration": 0.0625,
            "durationTicks": 48,
            "midi": 58,
            "name": "A#3",
            "ticks": 227424,
            "time": 296.125,
            "velocity": 0.03937007874015748
          },
          {
            "duration": 0.0625,
            "durationTicks": 48,
            "midi": 66,
            "name": "F#4",
            "ticks": 227424,
            "time": 296.125,
            "velocity": 0.03937007874015748
          },
          {
            "duration": 0.0625,
            "durationTicks": 48,
            "midi": 61,
            "name": "C#4",
            "ticks": 227424,
            "time": 296.125,
            "velocity": 0.03937007874015748
          },
          {
            "duration": 0.0625,
            "durationTicks": 48,
            "midi": 61,
            "name": "C#4",
            "ticks": 227520,
            "time": 296.25,
            "velocity": 0.03937007874015748
          },
          {
            "duration": 0.0625,
            "durationTicks": 48,
            "midi": 58,
            "name": "A#3",
            "ticks": 227520,
            "time": 296.25,
            "velocity": 0.03937007874015748
          },
          {
            "duration": 0.0625,
            "durationTicks": 48,
            "midi": 66,
            "name": "F#4",
            "ticks": 227520,
            "time": 296.25,
            "velocity": 0.03937007874015748
          },
          {
            "duration": 0.0625,
            "durationTicks": 48,
            "midi": 58,
            "name": "A#3",
            "ticks": 227616,
            "time": 296.375,
            "velocity": 0.03937007874015748
          },
          {
            "duration": 0.0625,
            "durationTicks": 48,
            "midi": 66,
            "name": "F#4",
            "ticks": 227616,
            "time": 296.375,
            "velocity": 0.03937007874015748
          },
          {
            "duration": 0.0625,
            "durationTicks": 48,
            "midi": 61,
            "name": "C#4",
            "ticks": 227616,
            "time": 296.375,
            "velocity": 0.03937007874015748
          },
          {
            "duration": 0.0625,
            "durationTicks": 48,
            "midi": 61,
            "name": "C#4",
            "ticks": 227712,
            "time": 296.5,
            "velocity": 0.03937007874015748
          },
          {
            "duration": 0.0625,
            "durationTicks": 48,
            "midi": 66,
            "name": "F#4",
            "ticks": 227712,
            "time": 296.5,
            "velocity": 0.03937007874015748
          },
          {
            "duration": 0.0625,
            "durationTicks": 48,
            "midi": 58,
            "name": "A#3",
            "ticks": 227712,
            "time": 296.5,
            "velocity": 0.03937007874015748
          },
          {
            "duration": 0.0625,
            "durationTicks": 48,
            "midi": 58,
            "name": "A#3",
            "ticks": 227808,
            "time": 296.625,
            "velocity": 0.03937007874015748
          },
          {
            "duration": 0.0625,
            "durationTicks": 48,
            "midi": 66,
            "name": "F#4",
            "ticks": 227808,
            "time": 296.625,
            "velocity": 0.03937007874015748
          },
          {
            "duration": 0.0625,
            "durationTicks": 48,
            "midi": 61,
            "name": "C#4",
            "ticks": 227808,
            "time": 296.625,
            "velocity": 0.03937007874015748
          },
          {
            "duration": 0.0625,
            "durationTicks": 48,
            "midi": 61,
            "name": "C#4",
            "ticks": 227904,
            "time": 296.75,
            "velocity": 0.03937007874015748
          },
          {
            "duration": 0.0625,
            "durationTicks": 48,
            "midi": 66,
            "name": "F#4",
            "ticks": 227904,
            "time": 296.75,
            "velocity": 0.03937007874015748
          },
          {
            "duration": 0.0625,
            "durationTicks": 48,
            "midi": 58,
            "name": "A#3",
            "ticks": 227904,
            "time": 296.75,
            "velocity": 0.03937007874015748
          },
          {
            "duration": 0.0625,
            "durationTicks": 48,
            "midi": 61,
            "name": "C#4",
            "ticks": 228000,
            "time": 296.875,
            "velocity": 0.03937007874015748
          },
          {
            "duration": 0.0625,
            "durationTicks": 48,
            "midi": 66,
            "name": "F#4",
            "ticks": 228000,
            "time": 296.875,
            "velocity": 0.03937007874015748
          },
          {
            "duration": 0.0625,
            "durationTicks": 48,
            "midi": 58,
            "name": "A#3",
            "ticks": 228000,
            "time": 296.875,
            "velocity": 0.03937007874015748
          },
          {
            "duration": 0.0625,
            "durationTicks": 48,
            "midi": 66,
            "name": "F#4",
            "ticks": 228096,
            "time": 297,
            "velocity": 0.03937007874015748
          },
          {
            "duration": 0.0625,
            "durationTicks": 48,
            "midi": 61,
            "name": "C#4",
            "ticks": 228096,
            "time": 297,
            "velocity": 0.03937007874015748
          },
          {
            "duration": 0.0625,
            "durationTicks": 48,
            "midi": 58,
            "name": "A#3",
            "ticks": 228096,
            "time": 297,
            "velocity": 0.03937007874015748
          },
          {
            "duration": 0.0625,
            "durationTicks": 48,
            "midi": 58,
            "name": "A#3",
            "ticks": 228192,
            "time": 297.125,
            "velocity": 0.03937007874015748
          },
          {
            "duration": 0.0625,
            "durationTicks": 48,
            "midi": 66,
            "name": "F#4",
            "ticks": 228192,
            "time": 297.125,
            "velocity": 0.03937007874015748
          },
          {
            "duration": 0.0625,
            "durationTicks": 48,
            "midi": 61,
            "name": "C#4",
            "ticks": 228192,
            "time": 297.125,
            "velocity": 0.03937007874015748
          },
          {
            "duration": 0.0625,
            "durationTicks": 48,
            "midi": 61,
            "name": "C#4",
            "ticks": 228288,
            "time": 297.25,
            "velocity": 0.03937007874015748
          },
          {
            "duration": 0.0625,
            "durationTicks": 48,
            "midi": 58,
            "name": "A#3",
            "ticks": 228288,
            "time": 297.25,
            "velocity": 0.03937007874015748
          },
          {
            "duration": 0.0625,
            "durationTicks": 48,
            "midi": 66,
            "name": "F#4",
            "ticks": 228288,
            "time": 297.25,
            "velocity": 0.03937007874015748
          },
          {
            "duration": 0.0625,
            "durationTicks": 48,
            "midi": 61,
            "name": "C#4",
            "ticks": 228384,
            "time": 297.375,
            "velocity": 0.03937007874015748
          },
          {
            "duration": 0.0625,
            "durationTicks": 48,
            "midi": 58,
            "name": "A#3",
            "ticks": 228384,
            "time": 297.375,
            "velocity": 0.03937007874015748
          },
          {
            "duration": 0.0625,
            "durationTicks": 48,
            "midi": 66,
            "name": "F#4",
            "ticks": 228384,
            "time": 297.375,
            "velocity": 0.03937007874015748
          },
          {
            "duration": 0.0625,
            "durationTicks": 48,
            "midi": 61,
            "name": "C#4",
            "ticks": 228480,
            "time": 297.5,
            "velocity": 0.03937007874015748
          },
          {
            "duration": 0.0625,
            "durationTicks": 48,
            "midi": 66,
            "name": "F#4",
            "ticks": 228480,
            "time": 297.5,
            "velocity": 0.03937007874015748
          },
          {
            "duration": 0.0625,
            "durationTicks": 48,
            "midi": 58,
            "name": "A#3",
            "ticks": 228480,
            "time": 297.5,
            "velocity": 0.03937007874015748
          },
          {
            "duration": 0.0625,
            "durationTicks": 48,
            "midi": 58,
            "name": "A#3",
            "ticks": 228576,
            "time": 297.625,
            "velocity": 0.03937007874015748
          },
          {
            "duration": 0.0625,
            "durationTicks": 48,
            "midi": 66,
            "name": "F#4",
            "ticks": 228576,
            "time": 297.625,
            "velocity": 0.03937007874015748
          },
          {
            "duration": 0.0625,
            "durationTicks": 48,
            "midi": 61,
            "name": "C#4",
            "ticks": 228576,
            "time": 297.625,
            "velocity": 0.03937007874015748
          },
          {
            "duration": 0.0625,
            "durationTicks": 48,
            "midi": 66,
            "name": "F#4",
            "ticks": 228672,
            "time": 297.75,
            "velocity": 0.03937007874015748
          },
          {
            "duration": 0.0625,
            "durationTicks": 48,
            "midi": 61,
            "name": "C#4",
            "ticks": 228672,
            "time": 297.75,
            "velocity": 0.03937007874015748
          },
          {
            "duration": 0.0625,
            "durationTicks": 48,
            "midi": 58,
            "name": "A#3",
            "ticks": 228672,
            "time": 297.75,
            "velocity": 0.03937007874015748
          },
          {
            "duration": 0.0625,
            "durationTicks": 48,
            "midi": 68,
            "name": "G#4",
            "ticks": 228768,
            "time": 297.875,
            "velocity": 0.03937007874015748
          },
          {
            "duration": 0.0625,
            "durationTicks": 48,
            "midi": 64,
            "name": "E4",
            "ticks": 228768,
            "time": 297.875,
            "velocity": 0.03937007874015748
          },
          {
            "duration": 0.0625,
            "durationTicks": 48,
            "midi": 61,
            "name": "C#4",
            "ticks": 228768,
            "time": 297.875,
            "velocity": 0.03937007874015748
          },
          {
            "duration": 0.0625,
            "durationTicks": 48,
            "midi": 61,
            "name": "C#4",
            "ticks": 228864,
            "time": 298,
            "velocity": 0.03937007874015748
          },
          {
            "duration": 0.0625,
            "durationTicks": 48,
            "midi": 64,
            "name": "E4",
            "ticks": 228864,
            "time": 298,
            "velocity": 0.03937007874015748
          },
          {
            "duration": 0.0625,
            "durationTicks": 48,
            "midi": 68,
            "name": "G#4",
            "ticks": 228864,
            "time": 298,
            "velocity": 0.03937007874015748
          },
          {
            "duration": 0.0625,
            "durationTicks": 48,
            "midi": 61,
            "name": "C#4",
            "ticks": 228960,
            "time": 298.125,
            "velocity": 0.03937007874015748
          },
          {
            "duration": 0.0625,
            "durationTicks": 48,
            "midi": 68,
            "name": "G#4",
            "ticks": 228960,
            "time": 298.125,
            "velocity": 0.03937007874015748
          },
          {
            "duration": 0.0625,
            "durationTicks": 48,
            "midi": 64,
            "name": "E4",
            "ticks": 228960,
            "time": 298.125,
            "velocity": 0.03937007874015748
          },
          {
            "duration": 0.0625,
            "durationTicks": 48,
            "midi": 61,
            "name": "C#4",
            "ticks": 229056,
            "time": 298.25,
            "velocity": 0.03937007874015748
          },
          {
            "duration": 0.0625,
            "durationTicks": 48,
            "midi": 68,
            "name": "G#4",
            "ticks": 229056,
            "time": 298.25,
            "velocity": 0.03937007874015748
          },
          {
            "duration": 0.0625,
            "durationTicks": 48,
            "midi": 64,
            "name": "E4",
            "ticks": 229056,
            "time": 298.25,
            "velocity": 0.03937007874015748
          },
          {
            "duration": 0.0625,
            "durationTicks": 48,
            "midi": 61,
            "name": "C#4",
            "ticks": 229152,
            "time": 298.375,
            "velocity": 0.03937007874015748
          },
          {
            "duration": 0.0625,
            "durationTicks": 48,
            "midi": 68,
            "name": "G#4",
            "ticks": 229152,
            "time": 298.375,
            "velocity": 0.03937007874015748
          },
          {
            "duration": 0.0625,
            "durationTicks": 48,
            "midi": 64,
            "name": "E4",
            "ticks": 229152,
            "time": 298.375,
            "velocity": 0.03937007874015748
          },
          {
            "duration": 0.0625,
            "durationTicks": 48,
            "midi": 64,
            "name": "E4",
            "ticks": 229248,
            "time": 298.5,
            "velocity": 0.03937007874015748
          },
          {
            "duration": 0.0625,
            "durationTicks": 48,
            "midi": 68,
            "name": "G#4",
            "ticks": 229248,
            "time": 298.5,
            "velocity": 0.03937007874015748
          },
          {
            "duration": 0.0625,
            "durationTicks": 48,
            "midi": 61,
            "name": "C#4",
            "ticks": 229248,
            "time": 298.5,
            "velocity": 0.03937007874015748
          },
          {
            "duration": 0.0625,
            "durationTicks": 48,
            "midi": 68,
            "name": "G#4",
            "ticks": 229344,
            "time": 298.625,
            "velocity": 0.03937007874015748
          },
          {
            "duration": 0.0625,
            "durationTicks": 48,
            "midi": 61,
            "name": "C#4",
            "ticks": 229344,
            "time": 298.625,
            "velocity": 0.03937007874015748
          },
          {
            "duration": 0.0625,
            "durationTicks": 48,
            "midi": 64,
            "name": "E4",
            "ticks": 229344,
            "time": 298.625,
            "velocity": 0.03937007874015748
          },
          {
            "duration": 0.0625,
            "durationTicks": 48,
            "midi": 68,
            "name": "G#4",
            "ticks": 229440,
            "time": 298.75,
            "velocity": 0.03937007874015748
          },
          {
            "duration": 0.0625,
            "durationTicks": 48,
            "midi": 61,
            "name": "C#4",
            "ticks": 229440,
            "time": 298.75,
            "velocity": 0.03937007874015748
          },
          {
            "duration": 0.0625,
            "durationTicks": 48,
            "midi": 64,
            "name": "E4",
            "ticks": 229440,
            "time": 298.75,
            "velocity": 0.03937007874015748
          },
          {
            "duration": 0.0625,
            "durationTicks": 48,
            "midi": 61,
            "name": "C#4",
            "ticks": 229536,
            "time": 298.875,
            "velocity": 0.03937007874015748
          },
          {
            "duration": 0.0625,
            "durationTicks": 48,
            "midi": 68,
            "name": "G#4",
            "ticks": 229536,
            "time": 298.875,
            "velocity": 0.03937007874015748
          },
          {
            "duration": 0.0625,
            "durationTicks": 48,
            "midi": 64,
            "name": "E4",
            "ticks": 229536,
            "time": 298.875,
            "velocity": 0.03937007874015748
          },
          {
            "duration": 0.0625,
            "durationTicks": 48,
            "midi": 68,
            "name": "G#4",
            "ticks": 229632,
            "time": 299,
            "velocity": 0.03937007874015748
          },
          {
            "duration": 0.0625,
            "durationTicks": 48,
            "midi": 64,
            "name": "E4",
            "ticks": 229632,
            "time": 299,
            "velocity": 0.03937007874015748
          },
          {
            "duration": 0.0625,
            "durationTicks": 48,
            "midi": 61,
            "name": "C#4",
            "ticks": 229632,
            "time": 299,
            "velocity": 0.03937007874015748
          },
          {
            "duration": 0.0625,
            "durationTicks": 48,
            "midi": 64,
            "name": "E4",
            "ticks": 229728,
            "time": 299.125,
            "velocity": 0.03937007874015748
          },
          {
            "duration": 0.0625,
            "durationTicks": 48,
            "midi": 68,
            "name": "G#4",
            "ticks": 229728,
            "time": 299.125,
            "velocity": 0.03937007874015748
          },
          {
            "duration": 0.0625,
            "durationTicks": 48,
            "midi": 61,
            "name": "C#4",
            "ticks": 229728,
            "time": 299.125,
            "velocity": 0.03937007874015748
          },
          {
            "duration": 0.0625,
            "durationTicks": 48,
            "midi": 64,
            "name": "E4",
            "ticks": 229824,
            "time": 299.25,
            "velocity": 0.03937007874015748
          },
          {
            "duration": 0.0625,
            "durationTicks": 48,
            "midi": 61,
            "name": "C#4",
            "ticks": 229824,
            "time": 299.25,
            "velocity": 0.03937007874015748
          },
          {
            "duration": 0.0625,
            "durationTicks": 48,
            "midi": 68,
            "name": "G#4",
            "ticks": 229824,
            "time": 299.25,
            "velocity": 0.03937007874015748
          },
          {
            "duration": 0.0625,
            "durationTicks": 48,
            "midi": 64,
            "name": "E4",
            "ticks": 229920,
            "time": 299.375,
            "velocity": 0.03937007874015748
          },
          {
            "duration": 0.0625,
            "durationTicks": 48,
            "midi": 68,
            "name": "G#4",
            "ticks": 229920,
            "time": 299.375,
            "velocity": 0.03937007874015748
          },
          {
            "duration": 0.0625,
            "durationTicks": 48,
            "midi": 61,
            "name": "C#4",
            "ticks": 229920,
            "time": 299.375,
            "velocity": 0.03937007874015748
          },
          {
            "duration": 0.0625,
            "durationTicks": 48,
            "midi": 64,
            "name": "E4",
            "ticks": 230016,
            "time": 299.5,
            "velocity": 0.03937007874015748
          },
          {
            "duration": 0.0625,
            "durationTicks": 48,
            "midi": 61,
            "name": "C#4",
            "ticks": 230016,
            "time": 299.5,
            "velocity": 0.03937007874015748
          },
          {
            "duration": 0.0625,
            "durationTicks": 48,
            "midi": 68,
            "name": "G#4",
            "ticks": 230016,
            "time": 299.5,
            "velocity": 0.03937007874015748
          },
          {
            "duration": 0.0625,
            "durationTicks": 48,
            "midi": 68,
            "name": "G#4",
            "ticks": 230112,
            "time": 299.625,
            "velocity": 0.03937007874015748
          },
          {
            "duration": 0.0625,
            "durationTicks": 48,
            "midi": 64,
            "name": "E4",
            "ticks": 230112,
            "time": 299.625,
            "velocity": 0.03937007874015748
          },
          {
            "duration": 0.0625,
            "durationTicks": 48,
            "midi": 61,
            "name": "C#4",
            "ticks": 230112,
            "time": 299.625,
            "velocity": 0.03937007874015748
          },
          {
            "duration": 0.0625,
            "durationTicks": 48,
            "midi": 61,
            "name": "C#4",
            "ticks": 230208,
            "time": 299.75,
            "velocity": 0.03937007874015748
          },
          {
            "duration": 0.0625,
            "durationTicks": 48,
            "midi": 68,
            "name": "G#4",
            "ticks": 230208,
            "time": 299.75,
            "velocity": 0.03937007874015748
          },
          {
            "duration": 0.0625,
            "durationTicks": 48,
            "midi": 64,
            "name": "E4",
            "ticks": 230208,
            "time": 299.75,
            "velocity": 0.03937007874015748
          },
          {
            "duration": 0.0625,
            "durationTicks": 48,
            "midi": 64,
            "name": "E4",
            "ticks": 230304,
            "time": 299.875,
            "velocity": 0.03937007874015748
          },
          {
            "duration": 0.0625,
            "durationTicks": 48,
            "midi": 61,
            "name": "C#4",
            "ticks": 230304,
            "time": 299.875,
            "velocity": 0.03937007874015748
          },
          {
            "duration": 0.0625,
            "durationTicks": 48,
            "midi": 69,
            "name": "A4",
            "ticks": 230304,
            "time": 299.875,
            "velocity": 0.03937007874015748
          },
          {
            "duration": 0.0625,
            "durationTicks": 48,
            "midi": 69,
            "name": "A4",
            "ticks": 230400,
            "time": 300,
            "velocity": 0.03937007874015748
          },
          {
            "duration": 0.0625,
            "durationTicks": 48,
            "midi": 61,
            "name": "C#4",
            "ticks": 230400,
            "time": 300,
            "velocity": 0.03937007874015748
          },
          {
            "duration": 0.0625,
            "durationTicks": 48,
            "midi": 64,
            "name": "E4",
            "ticks": 230400,
            "time": 300,
            "velocity": 0.03937007874015748
          },
          {
            "duration": 0.0625,
            "durationTicks": 48,
            "midi": 69,
            "name": "A4",
            "ticks": 230496,
            "time": 300.125,
            "velocity": 0.03937007874015748
          },
          {
            "duration": 0.0625,
            "durationTicks": 48,
            "midi": 61,
            "name": "C#4",
            "ticks": 230496,
            "time": 300.125,
            "velocity": 0.03937007874015748
          },
          {
            "duration": 0.0625,
            "durationTicks": 48,
            "midi": 64,
            "name": "E4",
            "ticks": 230496,
            "time": 300.125,
            "velocity": 0.03937007874015748
          },
          {
            "duration": 0.0625,
            "durationTicks": 48,
            "midi": 64,
            "name": "E4",
            "ticks": 230592,
            "time": 300.25,
            "velocity": 0.03937007874015748
          },
          {
            "duration": 0.0625,
            "durationTicks": 48,
            "midi": 61,
            "name": "C#4",
            "ticks": 230592,
            "time": 300.25,
            "velocity": 0.03937007874015748
          },
          {
            "duration": 0.0625,
            "durationTicks": 48,
            "midi": 69,
            "name": "A4",
            "ticks": 230592,
            "time": 300.25,
            "velocity": 0.03937007874015748
          },
          {
            "duration": 0.0625,
            "durationTicks": 48,
            "midi": 61,
            "name": "C#4",
            "ticks": 230688,
            "time": 300.375,
            "velocity": 0.03937007874015748
          },
          {
            "duration": 0.0625,
            "durationTicks": 48,
            "midi": 64,
            "name": "E4",
            "ticks": 230688,
            "time": 300.375,
            "velocity": 0.03937007874015748
          },
          {
            "duration": 0.0625,
            "durationTicks": 48,
            "midi": 69,
            "name": "A4",
            "ticks": 230688,
            "time": 300.375,
            "velocity": 0.03937007874015748
          },
          {
            "duration": 0.0625,
            "durationTicks": 48,
            "midi": 69,
            "name": "A4",
            "ticks": 230784,
            "time": 300.5,
            "velocity": 0.03937007874015748
          },
          {
            "duration": 0.0625,
            "durationTicks": 48,
            "midi": 64,
            "name": "E4",
            "ticks": 230784,
            "time": 300.5,
            "velocity": 0.03937007874015748
          },
          {
            "duration": 0.0625,
            "durationTicks": 48,
            "midi": 61,
            "name": "C#4",
            "ticks": 230784,
            "time": 300.5,
            "velocity": 0.03937007874015748
          },
          {
            "duration": 0.0625,
            "durationTicks": 48,
            "midi": 69,
            "name": "A4",
            "ticks": 230880,
            "time": 300.625,
            "velocity": 0.03937007874015748
          },
          {
            "duration": 0.0625,
            "durationTicks": 48,
            "midi": 64,
            "name": "E4",
            "ticks": 230880,
            "time": 300.625,
            "velocity": 0.03937007874015748
          },
          {
            "duration": 0.0625,
            "durationTicks": 48,
            "midi": 61,
            "name": "C#4",
            "ticks": 230880,
            "time": 300.625,
            "velocity": 0.03937007874015748
          },
          {
            "duration": 0.0625,
            "durationTicks": 48,
            "midi": 69,
            "name": "A4",
            "ticks": 230976,
            "time": 300.75,
            "velocity": 0.03937007874015748
          },
          {
            "duration": 0.0625,
            "durationTicks": 48,
            "midi": 61,
            "name": "C#4",
            "ticks": 230976,
            "time": 300.75,
            "velocity": 0.03937007874015748
          },
          {
            "duration": 0.0625,
            "durationTicks": 48,
            "midi": 64,
            "name": "E4",
            "ticks": 230976,
            "time": 300.75,
            "velocity": 0.03937007874015748
          },
          {
            "duration": 0.0625,
            "durationTicks": 48,
            "midi": 61,
            "name": "C#4",
            "ticks": 231072,
            "time": 300.875,
            "velocity": 0.03937007874015748
          },
          {
            "duration": 0.0625,
            "durationTicks": 48,
            "midi": 69,
            "name": "A4",
            "ticks": 231072,
            "time": 300.875,
            "velocity": 0.03937007874015748
          },
          {
            "duration": 0.0625,
            "durationTicks": 48,
            "midi": 64,
            "name": "E4",
            "ticks": 231072,
            "time": 300.875,
            "velocity": 0.03937007874015748
          },
          {
            "duration": 0.0625,
            "durationTicks": 48,
            "midi": 61,
            "name": "C#4",
            "ticks": 231168,
            "time": 301,
            "velocity": 0.03937007874015748
          },
          {
            "duration": 0.0625,
            "durationTicks": 48,
            "midi": 69,
            "name": "A4",
            "ticks": 231168,
            "time": 301,
            "velocity": 0.03937007874015748
          },
          {
            "duration": 0.0625,
            "durationTicks": 48,
            "midi": 64,
            "name": "E4",
            "ticks": 231168,
            "time": 301,
            "velocity": 0.03937007874015748
          },
          {
            "duration": 0.0625,
            "durationTicks": 48,
            "midi": 69,
            "name": "A4",
            "ticks": 231264,
            "time": 301.125,
            "velocity": 0.03937007874015748
          },
          {
            "duration": 0.0625,
            "durationTicks": 48,
            "midi": 64,
            "name": "E4",
            "ticks": 231264,
            "time": 301.125,
            "velocity": 0.03937007874015748
          },
          {
            "duration": 0.0625,
            "durationTicks": 48,
            "midi": 61,
            "name": "C#4",
            "ticks": 231264,
            "time": 301.125,
            "velocity": 0.03937007874015748
          },
          {
            "duration": 0.0625,
            "durationTicks": 48,
            "midi": 69,
            "name": "A4",
            "ticks": 231360,
            "time": 301.25,
            "velocity": 0.03937007874015748
          },
          {
            "duration": 0.0625,
            "durationTicks": 48,
            "midi": 64,
            "name": "E4",
            "ticks": 231360,
            "time": 301.25,
            "velocity": 0.03937007874015748
          },
          {
            "duration": 0.0625,
            "durationTicks": 48,
            "midi": 61,
            "name": "C#4",
            "ticks": 231360,
            "time": 301.25,
            "velocity": 0.03937007874015748
          },
          {
            "duration": 0.0625,
            "durationTicks": 48,
            "midi": 69,
            "name": "A4",
            "ticks": 231456,
            "time": 301.375,
            "velocity": 0.03937007874015748
          },
          {
            "duration": 0.0625,
            "durationTicks": 48,
            "midi": 64,
            "name": "E4",
            "ticks": 231456,
            "time": 301.375,
            "velocity": 0.03937007874015748
          },
          {
            "duration": 0.0625,
            "durationTicks": 48,
            "midi": 61,
            "name": "C#4",
            "ticks": 231456,
            "time": 301.375,
            "velocity": 0.03937007874015748
          },
          {
            "duration": 0.0625,
            "durationTicks": 48,
            "midi": 64,
            "name": "E4",
            "ticks": 231552,
            "time": 301.5,
            "velocity": 0.03937007874015748
          },
          {
            "duration": 0.0625,
            "durationTicks": 48,
            "midi": 69,
            "name": "A4",
            "ticks": 231552,
            "time": 301.5,
            "velocity": 0.03937007874015748
          },
          {
            "duration": 0.0625,
            "durationTicks": 48,
            "midi": 61,
            "name": "C#4",
            "ticks": 231552,
            "time": 301.5,
            "velocity": 0.03937007874015748
          },
          {
            "duration": 0.0625,
            "durationTicks": 48,
            "midi": 61,
            "name": "C#4",
            "ticks": 231648,
            "time": 301.625,
            "velocity": 0.03937007874015748
          },
          {
            "duration": 0.0625,
            "durationTicks": 48,
            "midi": 64,
            "name": "E4",
            "ticks": 231648,
            "time": 301.625,
            "velocity": 0.03937007874015748
          },
          {
            "duration": 0.0625,
            "durationTicks": 48,
            "midi": 69,
            "name": "A4",
            "ticks": 231648,
            "time": 301.625,
            "velocity": 0.03937007874015748
          },
          {
            "duration": 0.0625,
            "durationTicks": 48,
            "midi": 69,
            "name": "A4",
            "ticks": 231744,
            "time": 301.75,
            "velocity": 0.03937007874015748
          },
          {
            "duration": 0.0625,
            "durationTicks": 48,
            "midi": 64,
            "name": "E4",
            "ticks": 231744,
            "time": 301.75,
            "velocity": 0.03937007874015748
          },
          {
            "duration": 0.0625,
            "durationTicks": 48,
            "midi": 61,
            "name": "C#4",
            "ticks": 231744,
            "time": 301.75,
            "velocity": 0.03937007874015748
          },
          {
            "duration": 0.0625,
            "durationTicks": 48,
            "midi": 66,
            "name": "F#4",
            "ticks": 231840,
            "time": 301.875,
            "velocity": 0.03937007874015748
          },
          {
            "duration": 0.0625,
            "durationTicks": 48,
            "midi": 63,
            "name": "D#4",
            "ticks": 231840,
            "time": 301.875,
            "velocity": 0.03937007874015748
          },
          {
            "duration": 0.0625,
            "durationTicks": 48,
            "midi": 59,
            "name": "B3",
            "ticks": 231840,
            "time": 301.875,
            "velocity": 0.03937007874015748
          },
          {
            "duration": 0.0625,
            "durationTicks": 48,
            "midi": 59,
            "name": "B3",
            "ticks": 231936,
            "time": 302,
            "velocity": 0.03937007874015748
          },
          {
            "duration": 0.0625,
            "durationTicks": 48,
            "midi": 63,
            "name": "D#4",
            "ticks": 231936,
            "time": 302,
            "velocity": 0.03937007874015748
          },
          {
            "duration": 0.0625,
            "durationTicks": 48,
            "midi": 66,
            "name": "F#4",
            "ticks": 231936,
            "time": 302,
            "velocity": 0.03937007874015748
          },
          {
            "duration": 0.0625,
            "durationTicks": 48,
            "midi": 66,
            "name": "F#4",
            "ticks": 232032,
            "time": 302.125,
            "velocity": 0.03937007874015748
          },
          {
            "duration": 0.0625,
            "durationTicks": 48,
            "midi": 59,
            "name": "B3",
            "ticks": 232032,
            "time": 302.125,
            "velocity": 0.03937007874015748
          },
          {
            "duration": 0.0625,
            "durationTicks": 48,
            "midi": 63,
            "name": "D#4",
            "ticks": 232032,
            "time": 302.125,
            "velocity": 0.03937007874015748
          },
          {
            "duration": 0.0625,
            "durationTicks": 48,
            "midi": 66,
            "name": "F#4",
            "ticks": 232128,
            "time": 302.25,
            "velocity": 0.03937007874015748
          },
          {
            "duration": 0.0625,
            "durationTicks": 48,
            "midi": 59,
            "name": "B3",
            "ticks": 232128,
            "time": 302.25,
            "velocity": 0.03937007874015748
          },
          {
            "duration": 0.0625,
            "durationTicks": 48,
            "midi": 63,
            "name": "D#4",
            "ticks": 232128,
            "time": 302.25,
            "velocity": 0.03937007874015748
          },
          {
            "duration": 0.0625,
            "durationTicks": 48,
            "midi": 63,
            "name": "D#4",
            "ticks": 232224,
            "time": 302.375,
            "velocity": 0.03937007874015748
          },
          {
            "duration": 0.0625,
            "durationTicks": 48,
            "midi": 66,
            "name": "F#4",
            "ticks": 232224,
            "time": 302.375,
            "velocity": 0.03937007874015748
          },
          {
            "duration": 0.0625,
            "durationTicks": 48,
            "midi": 59,
            "name": "B3",
            "ticks": 232224,
            "time": 302.375,
            "velocity": 0.03937007874015748
          },
          {
            "duration": 0.0625,
            "durationTicks": 48,
            "midi": 66,
            "name": "F#4",
            "ticks": 232320,
            "time": 302.5,
            "velocity": 0.03937007874015748
          },
          {
            "duration": 0.0625,
            "durationTicks": 48,
            "midi": 59,
            "name": "B3",
            "ticks": 232320,
            "time": 302.5,
            "velocity": 0.03937007874015748
          },
          {
            "duration": 0.0625,
            "durationTicks": 48,
            "midi": 63,
            "name": "D#4",
            "ticks": 232320,
            "time": 302.5,
            "velocity": 0.03937007874015748
          },
          {
            "duration": 0.0625,
            "durationTicks": 48,
            "midi": 59,
            "name": "B3",
            "ticks": 232416,
            "time": 302.625,
            "velocity": 0.03937007874015748
          },
          {
            "duration": 0.0625,
            "durationTicks": 48,
            "midi": 63,
            "name": "D#4",
            "ticks": 232416,
            "time": 302.625,
            "velocity": 0.03937007874015748
          },
          {
            "duration": 0.0625,
            "durationTicks": 48,
            "midi": 66,
            "name": "F#4",
            "ticks": 232416,
            "time": 302.625,
            "velocity": 0.03937007874015748
          },
          {
            "duration": 0.0625,
            "durationTicks": 48,
            "midi": 59,
            "name": "B3",
            "ticks": 232512,
            "time": 302.75,
            "velocity": 0.03937007874015748
          },
          {
            "duration": 0.0625,
            "durationTicks": 48,
            "midi": 66,
            "name": "F#4",
            "ticks": 232512,
            "time": 302.75,
            "velocity": 0.03937007874015748
          },
          {
            "duration": 0.0625,
            "durationTicks": 48,
            "midi": 63,
            "name": "D#4",
            "ticks": 232512,
            "time": 302.75,
            "velocity": 0.03937007874015748
          },
          {
            "duration": 0.0625,
            "durationTicks": 48,
            "midi": 63,
            "name": "D#4",
            "ticks": 232608,
            "time": 302.875,
            "velocity": 0.03937007874015748
          },
          {
            "duration": 0.0625,
            "durationTicks": 48,
            "midi": 66,
            "name": "F#4",
            "ticks": 232608,
            "time": 302.875,
            "velocity": 0.03937007874015748
          },
          {
            "duration": 0.0625,
            "durationTicks": 48,
            "midi": 59,
            "name": "B3",
            "ticks": 232608,
            "time": 302.875,
            "velocity": 0.03937007874015748
          },
          {
            "duration": 0.0625,
            "durationTicks": 48,
            "midi": 59,
            "name": "B3",
            "ticks": 232704,
            "time": 303,
            "velocity": 0.03937007874015748
          },
          {
            "duration": 0.0625,
            "durationTicks": 48,
            "midi": 66,
            "name": "F#4",
            "ticks": 232704,
            "time": 303,
            "velocity": 0.03937007874015748
          },
          {
            "duration": 0.0625,
            "durationTicks": 48,
            "midi": 63,
            "name": "D#4",
            "ticks": 232704,
            "time": 303,
            "velocity": 0.03937007874015748
          },
          {
            "duration": 0.0625,
            "durationTicks": 48,
            "midi": 63,
            "name": "D#4",
            "ticks": 232800,
            "time": 303.125,
            "velocity": 0.03937007874015748
          },
          {
            "duration": 0.0625,
            "durationTicks": 48,
            "midi": 59,
            "name": "B3",
            "ticks": 232800,
            "time": 303.125,
            "velocity": 0.03937007874015748
          },
          {
            "duration": 0.0625,
            "durationTicks": 48,
            "midi": 66,
            "name": "F#4",
            "ticks": 232800,
            "time": 303.125,
            "velocity": 0.03937007874015748
          },
          {
            "duration": 0.0625,
            "durationTicks": 48,
            "midi": 63,
            "name": "D#4",
            "ticks": 232896,
            "time": 303.25,
            "velocity": 0.03937007874015748
          },
          {
            "duration": 0.0625,
            "durationTicks": 48,
            "midi": 59,
            "name": "B3",
            "ticks": 232896,
            "time": 303.25,
            "velocity": 0.03937007874015748
          },
          {
            "duration": 0.0625,
            "durationTicks": 48,
            "midi": 66,
            "name": "F#4",
            "ticks": 232896,
            "time": 303.25,
            "velocity": 0.03937007874015748
          },
          {
            "duration": 0.0625,
            "durationTicks": 48,
            "midi": 66,
            "name": "F#4",
            "ticks": 232992,
            "time": 303.375,
            "velocity": 0.03937007874015748
          },
          {
            "duration": 0.0625,
            "durationTicks": 48,
            "midi": 59,
            "name": "B3",
            "ticks": 232992,
            "time": 303.375,
            "velocity": 0.03937007874015748
          },
          {
            "duration": 0.0625,
            "durationTicks": 48,
            "midi": 63,
            "name": "D#4",
            "ticks": 232992,
            "time": 303.375,
            "velocity": 0.03937007874015748
          },
          {
            "duration": 0.0625,
            "durationTicks": 48,
            "midi": 66,
            "name": "F#4",
            "ticks": 233088,
            "time": 303.5,
            "velocity": 0.03937007874015748
          },
          {
            "duration": 0.0625,
            "durationTicks": 48,
            "midi": 63,
            "name": "D#4",
            "ticks": 233088,
            "time": 303.5,
            "velocity": 0.03937007874015748
          },
          {
            "duration": 0.0625,
            "durationTicks": 48,
            "midi": 59,
            "name": "B3",
            "ticks": 233088,
            "time": 303.5,
            "velocity": 0.03937007874015748
          },
          {
            "duration": 0.0625,
            "durationTicks": 48,
            "midi": 66,
            "name": "F#4",
            "ticks": 233184,
            "time": 303.625,
            "velocity": 0.03937007874015748
          },
          {
            "duration": 0.0625,
            "durationTicks": 48,
            "midi": 59,
            "name": "B3",
            "ticks": 233184,
            "time": 303.625,
            "velocity": 0.03937007874015748
          },
          {
            "duration": 0.0625,
            "durationTicks": 48,
            "midi": 63,
            "name": "D#4",
            "ticks": 233184,
            "time": 303.625,
            "velocity": 0.03937007874015748
          },
          {
            "duration": 0.0625,
            "durationTicks": 48,
            "midi": 59,
            "name": "B3",
            "ticks": 233280,
            "time": 303.75,
            "velocity": 0.03937007874015748
          },
          {
            "duration": 0.0625,
            "durationTicks": 48,
            "midi": 63,
            "name": "D#4",
            "ticks": 233280,
            "time": 303.75,
            "velocity": 0.03937007874015748
          },
          {
            "duration": 0.0625,
            "durationTicks": 48,
            "midi": 66,
            "name": "F#4",
            "ticks": 233280,
            "time": 303.75,
            "velocity": 0.03937007874015748
          },
          {
            "duration": 0.0625,
            "durationTicks": 48,
            "midi": 66,
            "name": "F#4",
            "ticks": 233376,
            "time": 303.875,
            "velocity": 0.03937007874015748
          },
          {
            "duration": 0.0625,
            "durationTicks": 48,
            "midi": 58,
            "name": "A#3",
            "ticks": 233376,
            "time": 303.875,
            "velocity": 0.03937007874015748
          },
          {
            "duration": 0.0625,
            "durationTicks": 48,
            "midi": 61,
            "name": "C#4",
            "ticks": 233376,
            "time": 303.875,
            "velocity": 0.03937007874015748
          },
          {
            "duration": 0.0625,
            "durationTicks": 48,
            "midi": 58,
            "name": "A#3",
            "ticks": 233472,
            "time": 304,
            "velocity": 0.03937007874015748
          },
          {
            "duration": 0.0625,
            "durationTicks": 48,
            "midi": 61,
            "name": "C#4",
            "ticks": 233472,
            "time": 304,
            "velocity": 0.03937007874015748
          },
          {
            "duration": 0.0625,
            "durationTicks": 48,
            "midi": 66,
            "name": "F#4",
            "ticks": 233472,
            "time": 304,
            "velocity": 0.03937007874015748
          },
          {
            "duration": 0.0625,
            "durationTicks": 48,
            "midi": 58,
            "name": "A#3",
            "ticks": 233568,
            "time": 304.125,
            "velocity": 0.03937007874015748
          },
          {
            "duration": 0.0625,
            "durationTicks": 48,
            "midi": 61,
            "name": "C#4",
            "ticks": 233568,
            "time": 304.125,
            "velocity": 0.03937007874015748
          },
          {
            "duration": 0.0625,
            "durationTicks": 48,
            "midi": 66,
            "name": "F#4",
            "ticks": 233568,
            "time": 304.125,
            "velocity": 0.03937007874015748
          },
          {
            "duration": 0.0625,
            "durationTicks": 48,
            "midi": 66,
            "name": "F#4",
            "ticks": 233664,
            "time": 304.25,
            "velocity": 0.03937007874015748
          },
          {
            "duration": 0.0625,
            "durationTicks": 48,
            "midi": 61,
            "name": "C#4",
            "ticks": 233664,
            "time": 304.25,
            "velocity": 0.03937007874015748
          },
          {
            "duration": 0.0625,
            "durationTicks": 48,
            "midi": 58,
            "name": "A#3",
            "ticks": 233664,
            "time": 304.25,
            "velocity": 0.03937007874015748
          },
          {
            "duration": 0.0625,
            "durationTicks": 48,
            "midi": 66,
            "name": "F#4",
            "ticks": 233760,
            "time": 304.375,
            "velocity": 0.03937007874015748
          },
          {
            "duration": 0.0625,
            "durationTicks": 48,
            "midi": 58,
            "name": "A#3",
            "ticks": 233760,
            "time": 304.375,
            "velocity": 0.03937007874015748
          },
          {
            "duration": 0.0625,
            "durationTicks": 48,
            "midi": 61,
            "name": "C#4",
            "ticks": 233760,
            "time": 304.375,
            "velocity": 0.03937007874015748
          },
          {
            "duration": 0.0625,
            "durationTicks": 48,
            "midi": 61,
            "name": "C#4",
            "ticks": 233856,
            "time": 304.5,
            "velocity": 0.03937007874015748
          },
          {
            "duration": 0.0625,
            "durationTicks": 48,
            "midi": 66,
            "name": "F#4",
            "ticks": 233856,
            "time": 304.5,
            "velocity": 0.03937007874015748
          },
          {
            "duration": 0.0625,
            "durationTicks": 48,
            "midi": 58,
            "name": "A#3",
            "ticks": 233856,
            "time": 304.5,
            "velocity": 0.03937007874015748
          },
          {
            "duration": 0.0625,
            "durationTicks": 48,
            "midi": 66,
            "name": "F#4",
            "ticks": 233952,
            "time": 304.625,
            "velocity": 0.03937007874015748
          },
          {
            "duration": 0.0625,
            "durationTicks": 48,
            "midi": 58,
            "name": "A#3",
            "ticks": 233952,
            "time": 304.625,
            "velocity": 0.03937007874015748
          },
          {
            "duration": 0.0625,
            "durationTicks": 48,
            "midi": 61,
            "name": "C#4",
            "ticks": 233952,
            "time": 304.625,
            "velocity": 0.03937007874015748
          },
          {
            "duration": 0.0625,
            "durationTicks": 48,
            "midi": 66,
            "name": "F#4",
            "ticks": 234048,
            "time": 304.75,
            "velocity": 0.03937007874015748
          },
          {
            "duration": 0.0625,
            "durationTicks": 48,
            "midi": 58,
            "name": "A#3",
            "ticks": 234048,
            "time": 304.75,
            "velocity": 0.03937007874015748
          },
          {
            "duration": 0.0625,
            "durationTicks": 48,
            "midi": 61,
            "name": "C#4",
            "ticks": 234048,
            "time": 304.75,
            "velocity": 0.03937007874015748
          },
          {
            "duration": 0.0625,
            "durationTicks": 48,
            "midi": 66,
            "name": "F#4",
            "ticks": 234144,
            "time": 304.875,
            "velocity": 0.03937007874015748
          },
          {
            "duration": 0.0625,
            "durationTicks": 48,
            "midi": 58,
            "name": "A#3",
            "ticks": 234144,
            "time": 304.875,
            "velocity": 0.03937007874015748
          },
          {
            "duration": 0.0625,
            "durationTicks": 48,
            "midi": 61,
            "name": "C#4",
            "ticks": 234144,
            "time": 304.875,
            "velocity": 0.03937007874015748
          },
          {
            "duration": 0.0625,
            "durationTicks": 48,
            "midi": 58,
            "name": "A#3",
            "ticks": 234240,
            "time": 305,
            "velocity": 0.03937007874015748
          },
          {
            "duration": 0.0625,
            "durationTicks": 48,
            "midi": 61,
            "name": "C#4",
            "ticks": 234240,
            "time": 305,
            "velocity": 0.03937007874015748
          },
          {
            "duration": 0.0625,
            "durationTicks": 48,
            "midi": 66,
            "name": "F#4",
            "ticks": 234240,
            "time": 305,
            "velocity": 0.03937007874015748
          },
          {
            "duration": 0.0625,
            "durationTicks": 48,
            "midi": 66,
            "name": "F#4",
            "ticks": 234336,
            "time": 305.125,
            "velocity": 0.03937007874015748
          },
          {
            "duration": 0.0625,
            "durationTicks": 48,
            "midi": 58,
            "name": "A#3",
            "ticks": 234336,
            "time": 305.125,
            "velocity": 0.03937007874015748
          },
          {
            "duration": 0.0625,
            "durationTicks": 48,
            "midi": 61,
            "name": "C#4",
            "ticks": 234336,
            "time": 305.125,
            "velocity": 0.03937007874015748
          },
          {
            "duration": 0.0625,
            "durationTicks": 48,
            "midi": 58,
            "name": "A#3",
            "ticks": 234432,
            "time": 305.25,
            "velocity": 0.03937007874015748
          },
          {
            "duration": 0.0625,
            "durationTicks": 48,
            "midi": 61,
            "name": "C#4",
            "ticks": 234432,
            "time": 305.25,
            "velocity": 0.03937007874015748
          },
          {
            "duration": 0.0625,
            "durationTicks": 48,
            "midi": 66,
            "name": "F#4",
            "ticks": 234432,
            "time": 305.25,
            "velocity": 0.03937007874015748
          },
          {
            "duration": 0.0625,
            "durationTicks": 48,
            "midi": 66,
            "name": "F#4",
            "ticks": 234528,
            "time": 305.375,
            "velocity": 0.03937007874015748
          },
          {
            "duration": 0.0625,
            "durationTicks": 48,
            "midi": 58,
            "name": "A#3",
            "ticks": 234528,
            "time": 305.375,
            "velocity": 0.03937007874015748
          },
          {
            "duration": 0.0625,
            "durationTicks": 48,
            "midi": 61,
            "name": "C#4",
            "ticks": 234528,
            "time": 305.375,
            "velocity": 0.03937007874015748
          },
          {
            "duration": 0.0625,
            "durationTicks": 48,
            "midi": 66,
            "name": "F#4",
            "ticks": 234624,
            "time": 305.5,
            "velocity": 0.03937007874015748
          },
          {
            "duration": 0.0625,
            "durationTicks": 48,
            "midi": 58,
            "name": "A#3",
            "ticks": 234624,
            "time": 305.5,
            "velocity": 0.03937007874015748
          },
          {
            "duration": 0.0625,
            "durationTicks": 48,
            "midi": 61,
            "name": "C#4",
            "ticks": 234624,
            "time": 305.5,
            "velocity": 0.03937007874015748
          },
          {
            "duration": 0.0625,
            "durationTicks": 48,
            "midi": 58,
            "name": "A#3",
            "ticks": 234720,
            "time": 305.625,
            "velocity": 0.03937007874015748
          },
          {
            "duration": 0.0625,
            "durationTicks": 48,
            "midi": 61,
            "name": "C#4",
            "ticks": 234720,
            "time": 305.625,
            "velocity": 0.03937007874015748
          },
          {
            "duration": 0.0625,
            "durationTicks": 48,
            "midi": 66,
            "name": "F#4",
            "ticks": 234720,
            "time": 305.625,
            "velocity": 0.03937007874015748
          },
          {
            "duration": 0.0625,
            "durationTicks": 48,
            "midi": 61,
            "name": "C#4",
            "ticks": 234816,
            "time": 305.75,
            "velocity": 0.03937007874015748
          },
          {
            "duration": 0.0625,
            "durationTicks": 48,
            "midi": 66,
            "name": "F#4",
            "ticks": 234816,
            "time": 305.75,
            "velocity": 0.03937007874015748
          },
          {
            "duration": 0.0625,
            "durationTicks": 48,
            "midi": 58,
            "name": "A#3",
            "ticks": 234816,
            "time": 305.75,
            "velocity": 0.03937007874015748
          },
          {
            "duration": 0.0625,
            "durationTicks": 48,
            "midi": 68,
            "name": "G#4",
            "ticks": 234912,
            "time": 305.875,
            "velocity": 0.03937007874015748
          },
          {
            "duration": 0.0625,
            "durationTicks": 48,
            "midi": 64,
            "name": "E4",
            "ticks": 234912,
            "time": 305.875,
            "velocity": 0.03937007874015748
          },
          {
            "duration": 0.0625,
            "durationTicks": 48,
            "midi": 61,
            "name": "C#4",
            "ticks": 234912,
            "time": 305.875,
            "velocity": 0.03937007874015748
          },
          {
            "duration": 0.0625,
            "durationTicks": 48,
            "midi": 64,
            "name": "E4",
            "ticks": 235008,
            "time": 306,
            "velocity": 0.03937007874015748
          },
          {
            "duration": 0.0625,
            "durationTicks": 48,
            "midi": 61,
            "name": "C#4",
            "ticks": 235008,
            "time": 306,
            "velocity": 0.03937007874015748
          },
          {
            "duration": 0.0625,
            "durationTicks": 48,
            "midi": 68,
            "name": "G#4",
            "ticks": 235008,
            "time": 306,
            "velocity": 0.03937007874015748
          },
          {
            "duration": 0.0625,
            "durationTicks": 48,
            "midi": 64,
            "name": "E4",
            "ticks": 235104,
            "time": 306.125,
            "velocity": 0.03937007874015748
          },
          {
            "duration": 0.0625,
            "durationTicks": 48,
            "midi": 61,
            "name": "C#4",
            "ticks": 235104,
            "time": 306.125,
            "velocity": 0.03937007874015748
          },
          {
            "duration": 0.0625,
            "durationTicks": 48,
            "midi": 68,
            "name": "G#4",
            "ticks": 235104,
            "time": 306.125,
            "velocity": 0.03937007874015748
          },
          {
            "duration": 0.0625,
            "durationTicks": 48,
            "midi": 64,
            "name": "E4",
            "ticks": 235200,
            "time": 306.25,
            "velocity": 0.03937007874015748
          },
          {
            "duration": 0.0625,
            "durationTicks": 48,
            "midi": 68,
            "name": "G#4",
            "ticks": 235200,
            "time": 306.25,
            "velocity": 0.03937007874015748
          },
          {
            "duration": 0.0625,
            "durationTicks": 48,
            "midi": 61,
            "name": "C#4",
            "ticks": 235200,
            "time": 306.25,
            "velocity": 0.03937007874015748
          },
          {
            "duration": 0.0625,
            "durationTicks": 48,
            "midi": 61,
            "name": "C#4",
            "ticks": 235296,
            "time": 306.375,
            "velocity": 0.03937007874015748
          },
          {
            "duration": 0.0625,
            "durationTicks": 48,
            "midi": 64,
            "name": "E4",
            "ticks": 235296,
            "time": 306.375,
            "velocity": 0.03937007874015748
          },
          {
            "duration": 0.0625,
            "durationTicks": 48,
            "midi": 68,
            "name": "G#4",
            "ticks": 235296,
            "time": 306.375,
            "velocity": 0.03937007874015748
          },
          {
            "duration": 0.0625,
            "durationTicks": 48,
            "midi": 64,
            "name": "E4",
            "ticks": 235392,
            "time": 306.5,
            "velocity": 0.03937007874015748
          },
          {
            "duration": 0.0625,
            "durationTicks": 48,
            "midi": 68,
            "name": "G#4",
            "ticks": 235392,
            "time": 306.5,
            "velocity": 0.03937007874015748
          },
          {
            "duration": 0.0625,
            "durationTicks": 48,
            "midi": 61,
            "name": "C#4",
            "ticks": 235392,
            "time": 306.5,
            "velocity": 0.03937007874015748
          },
          {
            "duration": 0.0625,
            "durationTicks": 48,
            "midi": 68,
            "name": "G#4",
            "ticks": 235488,
            "time": 306.625,
            "velocity": 0.03937007874015748
          },
          {
            "duration": 0.0625,
            "durationTicks": 48,
            "midi": 64,
            "name": "E4",
            "ticks": 235488,
            "time": 306.625,
            "velocity": 0.03937007874015748
          },
          {
            "duration": 0.0625,
            "durationTicks": 48,
            "midi": 61,
            "name": "C#4",
            "ticks": 235488,
            "time": 306.625,
            "velocity": 0.03937007874015748
          },
          {
            "duration": 0.0625,
            "durationTicks": 48,
            "midi": 68,
            "name": "G#4",
            "ticks": 235584,
            "time": 306.75,
            "velocity": 0.03937007874015748
          },
          {
            "duration": 0.0625,
            "durationTicks": 48,
            "midi": 61,
            "name": "C#4",
            "ticks": 235584,
            "time": 306.75,
            "velocity": 0.03937007874015748
          },
          {
            "duration": 0.0625,
            "durationTicks": 48,
            "midi": 64,
            "name": "E4",
            "ticks": 235584,
            "time": 306.75,
            "velocity": 0.03937007874015748
          },
          {
            "duration": 0.0625,
            "durationTicks": 48,
            "midi": 64,
            "name": "E4",
            "ticks": 235680,
            "time": 306.875,
            "velocity": 0.03937007874015748
          },
          {
            "duration": 0.0625,
            "durationTicks": 48,
            "midi": 68,
            "name": "G#4",
            "ticks": 235680,
            "time": 306.875,
            "velocity": 0.03937007874015748
          },
          {
            "duration": 0.0625,
            "durationTicks": 48,
            "midi": 61,
            "name": "C#4",
            "ticks": 235680,
            "time": 306.875,
            "velocity": 0.03937007874015748
          },
          {
            "duration": 0.0625,
            "durationTicks": 48,
            "midi": 64,
            "name": "E4",
            "ticks": 235776,
            "time": 307,
            "velocity": 0.03937007874015748
          },
          {
            "duration": 0.0625,
            "durationTicks": 48,
            "midi": 61,
            "name": "C#4",
            "ticks": 235776,
            "time": 307,
            "velocity": 0.03937007874015748
          },
          {
            "duration": 0.0625,
            "durationTicks": 48,
            "midi": 68,
            "name": "G#4",
            "ticks": 235776,
            "time": 307,
            "velocity": 0.03937007874015748
          },
          {
            "duration": 0.0625,
            "durationTicks": 48,
            "midi": 64,
            "name": "E4",
            "ticks": 235872,
            "time": 307.125,
            "velocity": 0.03937007874015748
          },
          {
            "duration": 0.0625,
            "durationTicks": 48,
            "midi": 68,
            "name": "G#4",
            "ticks": 235872,
            "time": 307.125,
            "velocity": 0.03937007874015748
          },
          {
            "duration": 0.0625,
            "durationTicks": 48,
            "midi": 61,
            "name": "C#4",
            "ticks": 235872,
            "time": 307.125,
            "velocity": 0.03937007874015748
          },
          {
            "duration": 0.0625,
            "durationTicks": 48,
            "midi": 68,
            "name": "G#4",
            "ticks": 235968,
            "time": 307.25,
            "velocity": 0.03937007874015748
          },
          {
            "duration": 0.0625,
            "durationTicks": 48,
            "midi": 64,
            "name": "E4",
            "ticks": 235968,
            "time": 307.25,
            "velocity": 0.03937007874015748
          },
          {
            "duration": 0.0625,
            "durationTicks": 48,
            "midi": 61,
            "name": "C#4",
            "ticks": 235968,
            "time": 307.25,
            "velocity": 0.03937007874015748
          },
          {
            "duration": 0.0625,
            "durationTicks": 48,
            "midi": 68,
            "name": "G#4",
            "ticks": 236064,
            "time": 307.375,
            "velocity": 0.03937007874015748
          },
          {
            "duration": 0.0625,
            "durationTicks": 48,
            "midi": 61,
            "name": "C#4",
            "ticks": 236064,
            "time": 307.375,
            "velocity": 0.03937007874015748
          },
          {
            "duration": 0.0625,
            "durationTicks": 48,
            "midi": 64,
            "name": "E4",
            "ticks": 236064,
            "time": 307.375,
            "velocity": 0.03937007874015748
          },
          {
            "duration": 0.0625,
            "durationTicks": 48,
            "midi": 64,
            "name": "E4",
            "ticks": 236160,
            "time": 307.5,
            "velocity": 0.03937007874015748
          },
          {
            "duration": 0.0625,
            "durationTicks": 48,
            "midi": 61,
            "name": "C#4",
            "ticks": 236160,
            "time": 307.5,
            "velocity": 0.03937007874015748
          },
          {
            "duration": 0.0625,
            "durationTicks": 48,
            "midi": 68,
            "name": "G#4",
            "ticks": 236160,
            "time": 307.5,
            "velocity": 0.03937007874015748
          },
          {
            "duration": 0.0625,
            "durationTicks": 48,
            "midi": 64,
            "name": "E4",
            "ticks": 236256,
            "time": 307.625,
            "velocity": 0.03937007874015748
          },
          {
            "duration": 0.0625,
            "durationTicks": 48,
            "midi": 68,
            "name": "G#4",
            "ticks": 236256,
            "time": 307.625,
            "velocity": 0.03937007874015748
          },
          {
            "duration": 0.0625,
            "durationTicks": 48,
            "midi": 61,
            "name": "C#4",
            "ticks": 236256,
            "time": 307.625,
            "velocity": 0.03937007874015748
          },
          {
            "duration": 0.0625,
            "durationTicks": 48,
            "midi": 64,
            "name": "E4",
            "ticks": 236352,
            "time": 307.75,
            "velocity": 0.03937007874015748
          },
          {
            "duration": 0.0625,
            "durationTicks": 48,
            "midi": 61,
            "name": "C#4",
            "ticks": 236352,
            "time": 307.75,
            "velocity": 0.03937007874015748
          },
          {
            "duration": 0.0625,
            "durationTicks": 48,
            "midi": 68,
            "name": "G#4",
            "ticks": 236352,
            "time": 307.75,
            "velocity": 0.03937007874015748
          },
          {
            "duration": 0.0625,
            "durationTicks": 48,
            "midi": 69,
            "name": "A4",
            "ticks": 236448,
            "time": 307.875,
            "velocity": 0.03937007874015748
          },
          {
            "duration": 0.0625,
            "durationTicks": 48,
            "midi": 61,
            "name": "C#4",
            "ticks": 236448,
            "time": 307.875,
            "velocity": 0.03937007874015748
          },
          {
            "duration": 0.0625,
            "durationTicks": 48,
            "midi": 64,
            "name": "E4",
            "ticks": 236448,
            "time": 307.875,
            "velocity": 0.03937007874015748
          },
          {
            "duration": 0.0625,
            "durationTicks": 48,
            "midi": 64,
            "name": "E4",
            "ticks": 236544,
            "time": 308,
            "velocity": 0.03937007874015748
          },
          {
            "duration": 0.0625,
            "durationTicks": 48,
            "midi": 69,
            "name": "A4",
            "ticks": 236544,
            "time": 308,
            "velocity": 0.03937007874015748
          },
          {
            "duration": 0.0625,
            "durationTicks": 48,
            "midi": 61,
            "name": "C#4",
            "ticks": 236544,
            "time": 308,
            "velocity": 0.03937007874015748
          },
          {
            "duration": 0.0625,
            "durationTicks": 48,
            "midi": 69,
            "name": "A4",
            "ticks": 236640,
            "time": 308.125,
            "velocity": 0.03937007874015748
          },
          {
            "duration": 0.0625,
            "durationTicks": 48,
            "midi": 64,
            "name": "E4",
            "ticks": 236640,
            "time": 308.125,
            "velocity": 0.03937007874015748
          },
          {
            "duration": 0.0625,
            "durationTicks": 48,
            "midi": 61,
            "name": "C#4",
            "ticks": 236640,
            "time": 308.125,
            "velocity": 0.03937007874015748
          },
          {
            "duration": 0.0625,
            "durationTicks": 48,
            "midi": 69,
            "name": "A4",
            "ticks": 236736,
            "time": 308.25,
            "velocity": 0.03937007874015748
          },
          {
            "duration": 0.0625,
            "durationTicks": 48,
            "midi": 64,
            "name": "E4",
            "ticks": 236736,
            "time": 308.25,
            "velocity": 0.03937007874015748
          },
          {
            "duration": 0.0625,
            "durationTicks": 48,
            "midi": 61,
            "name": "C#4",
            "ticks": 236736,
            "time": 308.25,
            "velocity": 0.03937007874015748
          },
          {
            "duration": 0.0625,
            "durationTicks": 48,
            "midi": 64,
            "name": "E4",
            "ticks": 236832,
            "time": 308.375,
            "velocity": 0.03937007874015748
          },
          {
            "duration": 0.0625,
            "durationTicks": 48,
            "midi": 69,
            "name": "A4",
            "ticks": 236832,
            "time": 308.375,
            "velocity": 0.03937007874015748
          },
          {
            "duration": 0.0625,
            "durationTicks": 48,
            "midi": 61,
            "name": "C#4",
            "ticks": 236832,
            "time": 308.375,
            "velocity": 0.03937007874015748
          },
          {
            "duration": 0.0625,
            "durationTicks": 48,
            "midi": 69,
            "name": "A4",
            "ticks": 236928,
            "time": 308.5,
            "velocity": 0.03937007874015748
          },
          {
            "duration": 0.0625,
            "durationTicks": 48,
            "midi": 64,
            "name": "E4",
            "ticks": 236928,
            "time": 308.5,
            "velocity": 0.03937007874015748
          },
          {
            "duration": 0.0625,
            "durationTicks": 48,
            "midi": 61,
            "name": "C#4",
            "ticks": 236928,
            "time": 308.5,
            "velocity": 0.03937007874015748
          },
          {
            "duration": 0.0625,
            "durationTicks": 48,
            "midi": 69,
            "name": "A4",
            "ticks": 237024,
            "time": 308.625,
            "velocity": 0.03937007874015748
          },
          {
            "duration": 0.0625,
            "durationTicks": 48,
            "midi": 64,
            "name": "E4",
            "ticks": 237024,
            "time": 308.625,
            "velocity": 0.03937007874015748
          },
          {
            "duration": 0.0625,
            "durationTicks": 48,
            "midi": 61,
            "name": "C#4",
            "ticks": 237024,
            "time": 308.625,
            "velocity": 0.03937007874015748
          },
          {
            "duration": 0.0625,
            "durationTicks": 48,
            "midi": 69,
            "name": "A4",
            "ticks": 237120,
            "time": 308.75,
            "velocity": 0.03937007874015748
          },
          {
            "duration": 0.0625,
            "durationTicks": 48,
            "midi": 61,
            "name": "C#4",
            "ticks": 237120,
            "time": 308.75,
            "velocity": 0.03937007874015748
          },
          {
            "duration": 0.0625,
            "durationTicks": 48,
            "midi": 64,
            "name": "E4",
            "ticks": 237120,
            "time": 308.75,
            "velocity": 0.03937007874015748
          },
          {
            "duration": 0.0625,
            "durationTicks": 48,
            "midi": 64,
            "name": "E4",
            "ticks": 237216,
            "time": 308.875,
            "velocity": 0.03937007874015748
          },
          {
            "duration": 0.0625,
            "durationTicks": 48,
            "midi": 69,
            "name": "A4",
            "ticks": 237216,
            "time": 308.875,
            "velocity": 0.03937007874015748
          },
          {
            "duration": 0.0625,
            "durationTicks": 48,
            "midi": 61,
            "name": "C#4",
            "ticks": 237216,
            "time": 308.875,
            "velocity": 0.03937007874015748
          },
          {
            "duration": 0.0625,
            "durationTicks": 48,
            "midi": 64,
            "name": "E4",
            "ticks": 237312,
            "time": 309,
            "velocity": 0.03937007874015748
          },
          {
            "duration": 0.0625,
            "durationTicks": 48,
            "midi": 69,
            "name": "A4",
            "ticks": 237312,
            "time": 309,
            "velocity": 0.03937007874015748
          },
          {
            "duration": 0.0625,
            "durationTicks": 48,
            "midi": 61,
            "name": "C#4",
            "ticks": 237312,
            "time": 309,
            "velocity": 0.03937007874015748
          },
          {
            "duration": 0.0625,
            "durationTicks": 48,
            "midi": 64,
            "name": "E4",
            "ticks": 237408,
            "time": 309.125,
            "velocity": 0.03937007874015748
          },
          {
            "duration": 0.0625,
            "durationTicks": 48,
            "midi": 61,
            "name": "C#4",
            "ticks": 237408,
            "time": 309.125,
            "velocity": 0.03937007874015748
          },
          {
            "duration": 0.0625,
            "durationTicks": 48,
            "midi": 69,
            "name": "A4",
            "ticks": 237408,
            "time": 309.125,
            "velocity": 0.03937007874015748
          },
          {
            "duration": 0.0625,
            "durationTicks": 48,
            "midi": 69,
            "name": "A4",
            "ticks": 237504,
            "time": 309.25,
            "velocity": 0.03937007874015748
          },
          {
            "duration": 0.0625,
            "durationTicks": 48,
            "midi": 61,
            "name": "C#4",
            "ticks": 237504,
            "time": 309.25,
            "velocity": 0.03937007874015748
          },
          {
            "duration": 0.0625,
            "durationTicks": 48,
            "midi": 64,
            "name": "E4",
            "ticks": 237504,
            "time": 309.25,
            "velocity": 0.03937007874015748
          },
          {
            "duration": 0.0625,
            "durationTicks": 48,
            "midi": 69,
            "name": "A4",
            "ticks": 237600,
            "time": 309.375,
            "velocity": 0.03937007874015748
          },
          {
            "duration": 0.0625,
            "durationTicks": 48,
            "midi": 64,
            "name": "E4",
            "ticks": 237600,
            "time": 309.375,
            "velocity": 0.03937007874015748
          },
          {
            "duration": 0.0625,
            "durationTicks": 48,
            "midi": 61,
            "name": "C#4",
            "ticks": 237600,
            "time": 309.375,
            "velocity": 0.03937007874015748
          },
          {
            "duration": 0.0625,
            "durationTicks": 48,
            "midi": 61,
            "name": "C#4",
            "ticks": 237696,
            "time": 309.5,
            "velocity": 0.03937007874015748
          },
          {
            "duration": 0.0625,
            "durationTicks": 48,
            "midi": 64,
            "name": "E4",
            "ticks": 237696,
            "time": 309.5,
            "velocity": 0.03937007874015748
          },
          {
            "duration": 0.0625,
            "durationTicks": 48,
            "midi": 69,
            "name": "A4",
            "ticks": 237696,
            "time": 309.5,
            "velocity": 0.03937007874015748
          },
          {
            "duration": 0.0625,
            "durationTicks": 48,
            "midi": 61,
            "name": "C#4",
            "ticks": 237792,
            "time": 309.625,
            "velocity": 0.03937007874015748
          },
          {
            "duration": 0.0625,
            "durationTicks": 48,
            "midi": 64,
            "name": "E4",
            "ticks": 237792,
            "time": 309.625,
            "velocity": 0.03937007874015748
          },
          {
            "duration": 0.0625,
            "durationTicks": 48,
            "midi": 69,
            "name": "A4",
            "ticks": 237792,
            "time": 309.625,
            "velocity": 0.03937007874015748
          },
          {
            "duration": 0.0625,
            "durationTicks": 48,
            "midi": 61,
            "name": "C#4",
            "ticks": 237888,
            "time": 309.75,
            "velocity": 0.03937007874015748
          },
          {
            "duration": 0.0625,
            "durationTicks": 48,
            "midi": 64,
            "name": "E4",
            "ticks": 237888,
            "time": 309.75,
            "velocity": 0.03937007874015748
          },
          {
            "duration": 0.0625,
            "durationTicks": 48,
            "midi": 69,
            "name": "A4",
            "ticks": 237888,
            "time": 309.75,
            "velocity": 0.03937007874015748
          },
          {
            "duration": 0.0625,
            "durationTicks": 48,
            "midi": 63,
            "name": "D#4",
            "ticks": 237984,
            "time": 309.875,
            "velocity": 0.03937007874015748
          },
          {
            "duration": 0.0625,
            "durationTicks": 48,
            "midi": 66,
            "name": "F#4",
            "ticks": 237984,
            "time": 309.875,
            "velocity": 0.03937007874015748
          },
          {
            "duration": 0.0625,
            "durationTicks": 48,
            "midi": 59,
            "name": "B3",
            "ticks": 237984,
            "time": 309.875,
            "velocity": 0.03937007874015748
          },
          {
            "duration": 0.0625,
            "durationTicks": 48,
            "midi": 66,
            "name": "F#4",
            "ticks": 238080,
            "time": 310,
            "velocity": 0.03937007874015748
          },
          {
            "duration": 0.0625,
            "durationTicks": 48,
            "midi": 59,
            "name": "B3",
            "ticks": 238080,
            "time": 310,
            "velocity": 0.03937007874015748
          },
          {
            "duration": 0.0625,
            "durationTicks": 48,
            "midi": 63,
            "name": "D#4",
            "ticks": 238080,
            "time": 310,
            "velocity": 0.03937007874015748
          },
          {
            "duration": 0.0625,
            "durationTicks": 48,
            "midi": 63,
            "name": "D#4",
            "ticks": 238176,
            "time": 310.125,
            "velocity": 0.03937007874015748
          },
          {
            "duration": 0.0625,
            "durationTicks": 48,
            "midi": 66,
            "name": "F#4",
            "ticks": 238176,
            "time": 310.125,
            "velocity": 0.03937007874015748
          },
          {
            "duration": 0.0625,
            "durationTicks": 48,
            "midi": 59,
            "name": "B3",
            "ticks": 238176,
            "time": 310.125,
            "velocity": 0.03937007874015748
          },
          {
            "duration": 0.0625,
            "durationTicks": 48,
            "midi": 63,
            "name": "D#4",
            "ticks": 238272,
            "time": 310.25,
            "velocity": 0.03937007874015748
          },
          {
            "duration": 0.0625,
            "durationTicks": 48,
            "midi": 66,
            "name": "F#4",
            "ticks": 238272,
            "time": 310.25,
            "velocity": 0.03937007874015748
          },
          {
            "duration": 0.0625,
            "durationTicks": 48,
            "midi": 59,
            "name": "B3",
            "ticks": 238272,
            "time": 310.25,
            "velocity": 0.03937007874015748
          },
          {
            "duration": 0.0625,
            "durationTicks": 48,
            "midi": 59,
            "name": "B3",
            "ticks": 238368,
            "time": 310.375,
            "velocity": 0.03937007874015748
          },
          {
            "duration": 0.0625,
            "durationTicks": 48,
            "midi": 66,
            "name": "F#4",
            "ticks": 238368,
            "time": 310.375,
            "velocity": 0.03937007874015748
          },
          {
            "duration": 0.0625,
            "durationTicks": 48,
            "midi": 63,
            "name": "D#4",
            "ticks": 238368,
            "time": 310.375,
            "velocity": 0.03937007874015748
          },
          {
            "duration": 0.0625,
            "durationTicks": 48,
            "midi": 63,
            "name": "D#4",
            "ticks": 238464,
            "time": 310.5,
            "velocity": 0.03937007874015748
          },
          {
            "duration": 0.0625,
            "durationTicks": 48,
            "midi": 66,
            "name": "F#4",
            "ticks": 238464,
            "time": 310.5,
            "velocity": 0.03937007874015748
          },
          {
            "duration": 0.0625,
            "durationTicks": 48,
            "midi": 59,
            "name": "B3",
            "ticks": 238464,
            "time": 310.5,
            "velocity": 0.03937007874015748
          },
          {
            "duration": 0.0625,
            "durationTicks": 48,
            "midi": 66,
            "name": "F#4",
            "ticks": 238560,
            "time": 310.625,
            "velocity": 0.03937007874015748
          },
          {
            "duration": 0.0625,
            "durationTicks": 48,
            "midi": 63,
            "name": "D#4",
            "ticks": 238560,
            "time": 310.625,
            "velocity": 0.03937007874015748
          },
          {
            "duration": 0.0625,
            "durationTicks": 48,
            "midi": 59,
            "name": "B3",
            "ticks": 238560,
            "time": 310.625,
            "velocity": 0.03937007874015748
          },
          {
            "duration": 0.0625,
            "durationTicks": 48,
            "midi": 66,
            "name": "F#4",
            "ticks": 238656,
            "time": 310.75,
            "velocity": 0.03937007874015748
          },
          {
            "duration": 0.0625,
            "durationTicks": 48,
            "midi": 63,
            "name": "D#4",
            "ticks": 238656,
            "time": 310.75,
            "velocity": 0.03937007874015748
          },
          {
            "duration": 0.0625,
            "durationTicks": 48,
            "midi": 59,
            "name": "B3",
            "ticks": 238656,
            "time": 310.75,
            "velocity": 0.03937007874015748
          },
          {
            "duration": 0.0625,
            "durationTicks": 48,
            "midi": 59,
            "name": "B3",
            "ticks": 238752,
            "time": 310.875,
            "velocity": 0.03937007874015748
          },
          {
            "duration": 0.0625,
            "durationTicks": 48,
            "midi": 66,
            "name": "F#4",
            "ticks": 238752,
            "time": 310.875,
            "velocity": 0.03937007874015748
          },
          {
            "duration": 0.0625,
            "durationTicks": 48,
            "midi": 63,
            "name": "D#4",
            "ticks": 238752,
            "time": 310.875,
            "velocity": 0.03937007874015748
          },
          {
            "duration": 0.0625,
            "durationTicks": 48,
            "midi": 63,
            "name": "D#4",
            "ticks": 238848,
            "time": 311,
            "velocity": 0.03937007874015748
          },
          {
            "duration": 0.0625,
            "durationTicks": 48,
            "midi": 59,
            "name": "B3",
            "ticks": 238848,
            "time": 311,
            "velocity": 0.03937007874015748
          },
          {
            "duration": 0.0625,
            "durationTicks": 48,
            "midi": 66,
            "name": "F#4",
            "ticks": 238848,
            "time": 311,
            "velocity": 0.03937007874015748
          },
          {
            "duration": 0.0625,
            "durationTicks": 48,
            "midi": 63,
            "name": "D#4",
            "ticks": 238944,
            "time": 311.125,
            "velocity": 0.03937007874015748
          },
          {
            "duration": 0.0625,
            "durationTicks": 48,
            "midi": 66,
            "name": "F#4",
            "ticks": 238944,
            "time": 311.125,
            "velocity": 0.03937007874015748
          },
          {
            "duration": 0.0625,
            "durationTicks": 48,
            "midi": 59,
            "name": "B3",
            "ticks": 238944,
            "time": 311.125,
            "velocity": 0.03937007874015748
          },
          {
            "duration": 0.0625,
            "durationTicks": 48,
            "midi": 59,
            "name": "B3",
            "ticks": 239040,
            "time": 311.25,
            "velocity": 0.03937007874015748
          },
          {
            "duration": 0.0625,
            "durationTicks": 48,
            "midi": 66,
            "name": "F#4",
            "ticks": 239040,
            "time": 311.25,
            "velocity": 0.03937007874015748
          },
          {
            "duration": 0.0625,
            "durationTicks": 48,
            "midi": 63,
            "name": "D#4",
            "ticks": 239040,
            "time": 311.25,
            "velocity": 0.03937007874015748
          },
          {
            "duration": 0.0625,
            "durationTicks": 48,
            "midi": 66,
            "name": "F#4",
            "ticks": 239136,
            "time": 311.375,
            "velocity": 0.03937007874015748
          },
          {
            "duration": 0.0625,
            "durationTicks": 48,
            "midi": 63,
            "name": "D#4",
            "ticks": 239136,
            "time": 311.375,
            "velocity": 0.03937007874015748
          },
          {
            "duration": 0.0625,
            "durationTicks": 48,
            "midi": 59,
            "name": "B3",
            "ticks": 239136,
            "time": 311.375,
            "velocity": 0.03937007874015748
          },
          {
            "duration": 0.0625,
            "durationTicks": 48,
            "midi": 59,
            "name": "B3",
            "ticks": 239232,
            "time": 311.5,
            "velocity": 0.03937007874015748
          },
          {
            "duration": 0.0625,
            "durationTicks": 48,
            "midi": 63,
            "name": "D#4",
            "ticks": 239232,
            "time": 311.5,
            "velocity": 0.03937007874015748
          },
          {
            "duration": 0.0625,
            "durationTicks": 48,
            "midi": 66,
            "name": "F#4",
            "ticks": 239232,
            "time": 311.5,
            "velocity": 0.03937007874015748
          },
          {
            "duration": 0.0625,
            "durationTicks": 48,
            "midi": 63,
            "name": "D#4",
            "ticks": 239328,
            "time": 311.625,
            "velocity": 0.03937007874015748
          },
          {
            "duration": 0.0625,
            "durationTicks": 48,
            "midi": 59,
            "name": "B3",
            "ticks": 239328,
            "time": 311.625,
            "velocity": 0.03937007874015748
          },
          {
            "duration": 0.0625,
            "durationTicks": 48,
            "midi": 66,
            "name": "F#4",
            "ticks": 239328,
            "time": 311.625,
            "velocity": 0.03937007874015748
          },
          {
            "duration": 0.0625,
            "durationTicks": 48,
            "midi": 59,
            "name": "B3",
            "ticks": 239424,
            "time": 311.75,
            "velocity": 0.03937007874015748
          },
          {
            "duration": 0.0625,
            "durationTicks": 48,
            "midi": 66,
            "name": "F#4",
            "ticks": 239424,
            "time": 311.75,
            "velocity": 0.03937007874015748
          },
          {
            "duration": 0.0625,
            "durationTicks": 48,
            "midi": 63,
            "name": "D#4",
            "ticks": 239424,
            "time": 311.75,
            "velocity": 0.03937007874015748
          },
          {
            "duration": 0.0625,
            "durationTicks": 48,
            "midi": 66,
            "name": "F#4",
            "ticks": 239520,
            "time": 311.875,
            "velocity": 0.03937007874015748
          },
          {
            "duration": 0.0625,
            "durationTicks": 48,
            "midi": 58,
            "name": "A#3",
            "ticks": 239520,
            "time": 311.875,
            "velocity": 0.03937007874015748
          },
          {
            "duration": 0.0625,
            "durationTicks": 48,
            "midi": 61,
            "name": "C#4",
            "ticks": 239520,
            "time": 311.875,
            "velocity": 0.03937007874015748
          },
          {
            "duration": 0.0625,
            "durationTicks": 48,
            "midi": 58,
            "name": "A#3",
            "ticks": 239616,
            "time": 312,
            "velocity": 0.03937007874015748
          },
          {
            "duration": 0.0625,
            "durationTicks": 48,
            "midi": 61,
            "name": "C#4",
            "ticks": 239616,
            "time": 312,
            "velocity": 0.03937007874015748
          },
          {
            "duration": 0.0625,
            "durationTicks": 48,
            "midi": 66,
            "name": "F#4",
            "ticks": 239616,
            "time": 312,
            "velocity": 0.03937007874015748
          },
          {
            "duration": 0.0625,
            "durationTicks": 48,
            "midi": 61,
            "name": "C#4",
            "ticks": 239712,
            "time": 312.125,
            "velocity": 0.03937007874015748
          },
          {
            "duration": 0.0625,
            "durationTicks": 48,
            "midi": 66,
            "name": "F#4",
            "ticks": 239712,
            "time": 312.125,
            "velocity": 0.03937007874015748
          },
          {
            "duration": 0.0625,
            "durationTicks": 48,
            "midi": 58,
            "name": "A#3",
            "ticks": 239712,
            "time": 312.125,
            "velocity": 0.03937007874015748
          },
          {
            "duration": 0.0625,
            "durationTicks": 48,
            "midi": 66,
            "name": "F#4",
            "ticks": 239808,
            "time": 312.25,
            "velocity": 0.03937007874015748
          },
          {
            "duration": 0.0625,
            "durationTicks": 48,
            "midi": 61,
            "name": "C#4",
            "ticks": 239808,
            "time": 312.25,
            "velocity": 0.03937007874015748
          },
          {
            "duration": 0.0625,
            "durationTicks": 48,
            "midi": 58,
            "name": "A#3",
            "ticks": 239808,
            "time": 312.25,
            "velocity": 0.03937007874015748
          },
          {
            "duration": 0.0625,
            "durationTicks": 48,
            "midi": 61,
            "name": "C#4",
            "ticks": 239904,
            "time": 312.375,
            "velocity": 0.03937007874015748
          },
          {
            "duration": 0.0625,
            "durationTicks": 48,
            "midi": 58,
            "name": "A#3",
            "ticks": 239904,
            "time": 312.375,
            "velocity": 0.03937007874015748
          },
          {
            "duration": 0.0625,
            "durationTicks": 48,
            "midi": 66,
            "name": "F#4",
            "ticks": 239904,
            "time": 312.375,
            "velocity": 0.03937007874015748
          },
          {
            "duration": 0.0625,
            "durationTicks": 48,
            "midi": 61,
            "name": "C#4",
            "ticks": 240000,
            "time": 312.5,
            "velocity": 0.03937007874015748
          },
          {
            "duration": 0.0625,
            "durationTicks": 48,
            "midi": 58,
            "name": "A#3",
            "ticks": 240000,
            "time": 312.5,
            "velocity": 0.03937007874015748
          },
          {
            "duration": 0.0625,
            "durationTicks": 48,
            "midi": 66,
            "name": "F#4",
            "ticks": 240000,
            "time": 312.5,
            "velocity": 0.03937007874015748
          },
          {
            "duration": 0.0625,
            "durationTicks": 48,
            "midi": 58,
            "name": "A#3",
            "ticks": 240096,
            "time": 312.625,
            "velocity": 0.03937007874015748
          },
          {
            "duration": 0.0625,
            "durationTicks": 48,
            "midi": 61,
            "name": "C#4",
            "ticks": 240096,
            "time": 312.625,
            "velocity": 0.03937007874015748
          },
          {
            "duration": 0.0625,
            "durationTicks": 48,
            "midi": 66,
            "name": "F#4",
            "ticks": 240096,
            "time": 312.625,
            "velocity": 0.03937007874015748
          },
          {
            "duration": 0.0625,
            "durationTicks": 48,
            "midi": 66,
            "name": "F#4",
            "ticks": 240192,
            "time": 312.75,
            "velocity": 0.03937007874015748
          },
          {
            "duration": 0.0625,
            "durationTicks": 48,
            "midi": 61,
            "name": "C#4",
            "ticks": 240192,
            "time": 312.75,
            "velocity": 0.03937007874015748
          },
          {
            "duration": 0.0625,
            "durationTicks": 48,
            "midi": 58,
            "name": "A#3",
            "ticks": 240192,
            "time": 312.75,
            "velocity": 0.03937007874015748
          },
          {
            "duration": 0.0625,
            "durationTicks": 48,
            "midi": 58,
            "name": "A#3",
            "ticks": 240288,
            "time": 312.875,
            "velocity": 0.03937007874015748
          },
          {
            "duration": 0.0625,
            "durationTicks": 48,
            "midi": 66,
            "name": "F#4",
            "ticks": 240288,
            "time": 312.875,
            "velocity": 0.03937007874015748
          },
          {
            "duration": 0.0625,
            "durationTicks": 48,
            "midi": 61,
            "name": "C#4",
            "ticks": 240288,
            "time": 312.875,
            "velocity": 0.03937007874015748
          },
          {
            "duration": 0.0625,
            "durationTicks": 48,
            "midi": 61,
            "name": "C#4",
            "ticks": 240384,
            "time": 313,
            "velocity": 0.03937007874015748
          },
          {
            "duration": 0.0625,
            "durationTicks": 48,
            "midi": 58,
            "name": "A#3",
            "ticks": 240384,
            "time": 313,
            "velocity": 0.03937007874015748
          },
          {
            "duration": 0.0625,
            "durationTicks": 48,
            "midi": 66,
            "name": "F#4",
            "ticks": 240384,
            "time": 313,
            "velocity": 0.03937007874015748
          },
          {
            "duration": 0.0625,
            "durationTicks": 48,
            "midi": 61,
            "name": "C#4",
            "ticks": 240480,
            "time": 313.125,
            "velocity": 0.03937007874015748
          },
          {
            "duration": 0.0625,
            "durationTicks": 48,
            "midi": 58,
            "name": "A#3",
            "ticks": 240480,
            "time": 313.125,
            "velocity": 0.03937007874015748
          },
          {
            "duration": 0.0625,
            "durationTicks": 48,
            "midi": 66,
            "name": "F#4",
            "ticks": 240480,
            "time": 313.125,
            "velocity": 0.03937007874015748
          },
          {
            "duration": 0.0625,
            "durationTicks": 48,
            "midi": 61,
            "name": "C#4",
            "ticks": 240576,
            "time": 313.25,
            "velocity": 0.03937007874015748
          },
          {
            "duration": 0.0625,
            "durationTicks": 48,
            "midi": 58,
            "name": "A#3",
            "ticks": 240576,
            "time": 313.25,
            "velocity": 0.03937007874015748
          },
          {
            "duration": 0.0625,
            "durationTicks": 48,
            "midi": 66,
            "name": "F#4",
            "ticks": 240576,
            "time": 313.25,
            "velocity": 0.03937007874015748
          },
          {
            "duration": 0.0625,
            "durationTicks": 48,
            "midi": 66,
            "name": "F#4",
            "ticks": 240672,
            "time": 313.375,
            "velocity": 0.03937007874015748
          },
          {
            "duration": 0.0625,
            "durationTicks": 48,
            "midi": 61,
            "name": "C#4",
            "ticks": 240672,
            "time": 313.375,
            "velocity": 0.03937007874015748
          },
          {
            "duration": 0.0625,
            "durationTicks": 48,
            "midi": 58,
            "name": "A#3",
            "ticks": 240672,
            "time": 313.375,
            "velocity": 0.03937007874015748
          },
          {
            "duration": 0.0625,
            "durationTicks": 48,
            "midi": 66,
            "name": "F#4",
            "ticks": 240768,
            "time": 313.5,
            "velocity": 0.03937007874015748
          },
          {
            "duration": 0.0625,
            "durationTicks": 48,
            "midi": 61,
            "name": "C#4",
            "ticks": 240768,
            "time": 313.5,
            "velocity": 0.03937007874015748
          },
          {
            "duration": 0.0625,
            "durationTicks": 48,
            "midi": 58,
            "name": "A#3",
            "ticks": 240768,
            "time": 313.5,
            "velocity": 0.03937007874015748
          },
          {
            "duration": 0.0625,
            "durationTicks": 48,
            "midi": 61,
            "name": "C#4",
            "ticks": 240864,
            "time": 313.625,
            "velocity": 0.03937007874015748
          },
          {
            "duration": 0.0625,
            "durationTicks": 48,
            "midi": 66,
            "name": "F#4",
            "ticks": 240864,
            "time": 313.625,
            "velocity": 0.03937007874015748
          },
          {
            "duration": 0.0625,
            "durationTicks": 48,
            "midi": 58,
            "name": "A#3",
            "ticks": 240864,
            "time": 313.625,
            "velocity": 0.03937007874015748
          },
          {
            "duration": 0.0625,
            "durationTicks": 48,
            "midi": 61,
            "name": "C#4",
            "ticks": 240960,
            "time": 313.75,
            "velocity": 0.03937007874015748
          },
          {
            "duration": 0.0625,
            "durationTicks": 48,
            "midi": 66,
            "name": "F#4",
            "ticks": 240960,
            "time": 313.75,
            "velocity": 0.03937007874015748
          },
          {
            "duration": 0.0625,
            "durationTicks": 48,
            "midi": 58,
            "name": "A#3",
            "ticks": 240960,
            "time": 313.75,
            "velocity": 0.03937007874015748
          },
          {
            "duration": 0.0625,
            "durationTicks": 48,
            "midi": 61,
            "name": "C#4",
            "ticks": 241056,
            "time": 313.875,
            "velocity": 0.03937007874015748
          },
          {
            "duration": 0.0625,
            "durationTicks": 48,
            "midi": 64,
            "name": "E4",
            "ticks": 241056,
            "time": 313.875,
            "velocity": 0.03937007874015748
          },
          {
            "duration": 0.0625,
            "durationTicks": 48,
            "midi": 68,
            "name": "G#4",
            "ticks": 241056,
            "time": 313.875,
            "velocity": 0.03937007874015748
          },
          {
            "duration": 0.0625,
            "durationTicks": 48,
            "midi": 61,
            "name": "C#4",
            "ticks": 241152,
            "time": 314,
            "velocity": 0.03937007874015748
          },
          {
            "duration": 0.0625,
            "durationTicks": 48,
            "midi": 64,
            "name": "E4",
            "ticks": 241152,
            "time": 314,
            "velocity": 0.03937007874015748
          },
          {
            "duration": 0.0625,
            "durationTicks": 48,
            "midi": 68,
            "name": "G#4",
            "ticks": 241152,
            "time": 314,
            "velocity": 0.03937007874015748
          },
          {
            "duration": 0.0625,
            "durationTicks": 48,
            "midi": 68,
            "name": "G#4",
            "ticks": 241248,
            "time": 314.125,
            "velocity": 0.03937007874015748
          },
          {
            "duration": 0.0625,
            "durationTicks": 48,
            "midi": 64,
            "name": "E4",
            "ticks": 241248,
            "time": 314.125,
            "velocity": 0.03937007874015748
          },
          {
            "duration": 0.0625,
            "durationTicks": 48,
            "midi": 61,
            "name": "C#4",
            "ticks": 241248,
            "time": 314.125,
            "velocity": 0.03937007874015748
          },
          {
            "duration": 0.0625,
            "durationTicks": 48,
            "midi": 61,
            "name": "C#4",
            "ticks": 241344,
            "time": 314.25,
            "velocity": 0.03937007874015748
          },
          {
            "duration": 0.0625,
            "durationTicks": 48,
            "midi": 68,
            "name": "G#4",
            "ticks": 241344,
            "time": 314.25,
            "velocity": 0.03937007874015748
          },
          {
            "duration": 0.0625,
            "durationTicks": 48,
            "midi": 64,
            "name": "E4",
            "ticks": 241344,
            "time": 314.25,
            "velocity": 0.03937007874015748
          },
          {
            "duration": 0.0625,
            "durationTicks": 48,
            "midi": 61,
            "name": "C#4",
            "ticks": 241440,
            "time": 314.375,
            "velocity": 0.03937007874015748
          },
          {
            "duration": 0.0625,
            "durationTicks": 48,
            "midi": 64,
            "name": "E4",
            "ticks": 241440,
            "time": 314.375,
            "velocity": 0.03937007874015748
          },
          {
            "duration": 0.0625,
            "durationTicks": 48,
            "midi": 68,
            "name": "G#4",
            "ticks": 241440,
            "time": 314.375,
            "velocity": 0.03937007874015748
          },
          {
            "duration": 0.0625,
            "durationTicks": 48,
            "midi": 64,
            "name": "E4",
            "ticks": 241536,
            "time": 314.5,
            "velocity": 0.03937007874015748
          },
          {
            "duration": 0.0625,
            "durationTicks": 48,
            "midi": 68,
            "name": "G#4",
            "ticks": 241536,
            "time": 314.5,
            "velocity": 0.03937007874015748
          },
          {
            "duration": 0.0625,
            "durationTicks": 48,
            "midi": 61,
            "name": "C#4",
            "ticks": 241536,
            "time": 314.5,
            "velocity": 0.03937007874015748
          },
          {
            "duration": 0.0625,
            "durationTicks": 48,
            "midi": 68,
            "name": "G#4",
            "ticks": 241632,
            "time": 314.625,
            "velocity": 0.03937007874015748
          },
          {
            "duration": 0.0625,
            "durationTicks": 48,
            "midi": 61,
            "name": "C#4",
            "ticks": 241632,
            "time": 314.625,
            "velocity": 0.03937007874015748
          },
          {
            "duration": 0.0625,
            "durationTicks": 48,
            "midi": 64,
            "name": "E4",
            "ticks": 241632,
            "time": 314.625,
            "velocity": 0.03937007874015748
          },
          {
            "duration": 0.0625,
            "durationTicks": 48,
            "midi": 68,
            "name": "G#4",
            "ticks": 241728,
            "time": 314.75,
            "velocity": 0.03937007874015748
          },
          {
            "duration": 0.0625,
            "durationTicks": 48,
            "midi": 64,
            "name": "E4",
            "ticks": 241728,
            "time": 314.75,
            "velocity": 0.03937007874015748
          },
          {
            "duration": 0.0625,
            "durationTicks": 48,
            "midi": 61,
            "name": "C#4",
            "ticks": 241728,
            "time": 314.75,
            "velocity": 0.03937007874015748
          },
          {
            "duration": 0.0625,
            "durationTicks": 48,
            "midi": 64,
            "name": "E4",
            "ticks": 241824,
            "time": 314.875,
            "velocity": 0.03937007874015748
          },
          {
            "duration": 0.0625,
            "durationTicks": 48,
            "midi": 68,
            "name": "G#4",
            "ticks": 241824,
            "time": 314.875,
            "velocity": 0.03937007874015748
          },
          {
            "duration": 0.0625,
            "durationTicks": 48,
            "midi": 61,
            "name": "C#4",
            "ticks": 241824,
            "time": 314.875,
            "velocity": 0.03937007874015748
          },
          {
            "duration": 0.0625,
            "durationTicks": 48,
            "midi": 64,
            "name": "E4",
            "ticks": 241920,
            "time": 315,
            "velocity": 0.03937007874015748
          },
          {
            "duration": 0.0625,
            "durationTicks": 48,
            "midi": 68,
            "name": "G#4",
            "ticks": 241920,
            "time": 315,
            "velocity": 0.03937007874015748
          },
          {
            "duration": 0.0625,
            "durationTicks": 48,
            "midi": 61,
            "name": "C#4",
            "ticks": 241920,
            "time": 315,
            "velocity": 0.03937007874015748
          },
          {
            "duration": 0.0625,
            "durationTicks": 48,
            "midi": 61,
            "name": "C#4",
            "ticks": 242016,
            "time": 315.125,
            "velocity": 0.03937007874015748
          },
          {
            "duration": 0.0625,
            "durationTicks": 48,
            "midi": 64,
            "name": "E4",
            "ticks": 242016,
            "time": 315.125,
            "velocity": 0.03937007874015748
          },
          {
            "duration": 0.0625,
            "durationTicks": 48,
            "midi": 68,
            "name": "G#4",
            "ticks": 242016,
            "time": 315.125,
            "velocity": 0.03937007874015748
          },
          {
            "duration": 0.0625,
            "durationTicks": 48,
            "midi": 68,
            "name": "G#4",
            "ticks": 242112,
            "time": 315.25,
            "velocity": 0.03937007874015748
          },
          {
            "duration": 0.0625,
            "durationTicks": 48,
            "midi": 64,
            "name": "E4",
            "ticks": 242112,
            "time": 315.25,
            "velocity": 0.03937007874015748
          },
          {
            "duration": 0.0625,
            "durationTicks": 48,
            "midi": 61,
            "name": "C#4",
            "ticks": 242112,
            "time": 315.25,
            "velocity": 0.03937007874015748
          },
          {
            "duration": 0.0625,
            "durationTicks": 48,
            "midi": 61,
            "name": "C#4",
            "ticks": 242208,
            "time": 315.375,
            "velocity": 0.03937007874015748
          },
          {
            "duration": 0.0625,
            "durationTicks": 48,
            "midi": 64,
            "name": "E4",
            "ticks": 242208,
            "time": 315.375,
            "velocity": 0.03937007874015748
          },
          {
            "duration": 0.0625,
            "durationTicks": 48,
            "midi": 68,
            "name": "G#4",
            "ticks": 242208,
            "time": 315.375,
            "velocity": 0.03937007874015748
          },
          {
            "duration": 0.0625,
            "durationTicks": 48,
            "midi": 64,
            "name": "E4",
            "ticks": 242304,
            "time": 315.5,
            "velocity": 0.03937007874015748
          },
          {
            "duration": 0.0625,
            "durationTicks": 48,
            "midi": 61,
            "name": "C#4",
            "ticks": 242304,
            "time": 315.5,
            "velocity": 0.03937007874015748
          },
          {
            "duration": 0.0625,
            "durationTicks": 48,
            "midi": 68,
            "name": "G#4",
            "ticks": 242304,
            "time": 315.5,
            "velocity": 0.03937007874015748
          },
          {
            "duration": 0.0625,
            "durationTicks": 48,
            "midi": 64,
            "name": "E4",
            "ticks": 242400,
            "time": 315.625,
            "velocity": 0.03937007874015748
          },
          {
            "duration": 0.0625,
            "durationTicks": 48,
            "midi": 61,
            "name": "C#4",
            "ticks": 242400,
            "time": 315.625,
            "velocity": 0.03937007874015748
          },
          {
            "duration": 0.0625,
            "durationTicks": 48,
            "midi": 68,
            "name": "G#4",
            "ticks": 242400,
            "time": 315.625,
            "velocity": 0.03937007874015748
          },
          {
            "duration": 0.0625,
            "durationTicks": 48,
            "midi": 68,
            "name": "G#4",
            "ticks": 242496,
            "time": 315.75,
            "velocity": 0.03937007874015748
          },
          {
            "duration": 0.0625,
            "durationTicks": 48,
            "midi": 64,
            "name": "E4",
            "ticks": 242496,
            "time": 315.75,
            "velocity": 0.03937007874015748
          },
          {
            "duration": 0.0625,
            "durationTicks": 48,
            "midi": 61,
            "name": "C#4",
            "ticks": 242496,
            "time": 315.75,
            "velocity": 0.03937007874015748
          },
          {
            "duration": 0.0625,
            "durationTicks": 48,
            "midi": 69,
            "name": "A4",
            "ticks": 242592,
            "time": 315.875,
            "velocity": 0.03937007874015748
          },
          {
            "duration": 0.0625,
            "durationTicks": 48,
            "midi": 61,
            "name": "C#4",
            "ticks": 242592,
            "time": 315.875,
            "velocity": 0.03937007874015748
          },
          {
            "duration": 0.0625,
            "durationTicks": 48,
            "midi": 64,
            "name": "E4",
            "ticks": 242592,
            "time": 315.875,
            "velocity": 0.03937007874015748
          },
          {
            "duration": 0.0625,
            "durationTicks": 48,
            "midi": 64,
            "name": "E4",
            "ticks": 242688,
            "time": 316,
            "velocity": 0.03937007874015748
          },
          {
            "duration": 0.0625,
            "durationTicks": 48,
            "midi": 61,
            "name": "C#4",
            "ticks": 242688,
            "time": 316,
            "velocity": 0.03937007874015748
          },
          {
            "duration": 0.0625,
            "durationTicks": 48,
            "midi": 69,
            "name": "A4",
            "ticks": 242688,
            "time": 316,
            "velocity": 0.03937007874015748
          },
          {
            "duration": 0.0625,
            "durationTicks": 48,
            "midi": 61,
            "name": "C#4",
            "ticks": 242784,
            "time": 316.125,
            "velocity": 0.03937007874015748
          },
          {
            "duration": 0.0625,
            "durationTicks": 48,
            "midi": 69,
            "name": "A4",
            "ticks": 242784,
            "time": 316.125,
            "velocity": 0.03937007874015748
          },
          {
            "duration": 0.0625,
            "durationTicks": 48,
            "midi": 64,
            "name": "E4",
            "ticks": 242784,
            "time": 316.125,
            "velocity": 0.03937007874015748
          },
          {
            "duration": 0.0625,
            "durationTicks": 48,
            "midi": 64,
            "name": "E4",
            "ticks": 242880,
            "time": 316.25,
            "velocity": 0.03937007874015748
          },
          {
            "duration": 0.0625,
            "durationTicks": 48,
            "midi": 61,
            "name": "C#4",
            "ticks": 242880,
            "time": 316.25,
            "velocity": 0.03937007874015748
          },
          {
            "duration": 0.0625,
            "durationTicks": 48,
            "midi": 69,
            "name": "A4",
            "ticks": 242880,
            "time": 316.25,
            "velocity": 0.03937007874015748
          },
          {
            "duration": 0.0625,
            "durationTicks": 48,
            "midi": 69,
            "name": "A4",
            "ticks": 242976,
            "time": 316.375,
            "velocity": 0.03937007874015748
          },
          {
            "duration": 0.0625,
            "durationTicks": 48,
            "midi": 61,
            "name": "C#4",
            "ticks": 242976,
            "time": 316.375,
            "velocity": 0.03937007874015748
          },
          {
            "duration": 0.0625,
            "durationTicks": 48,
            "midi": 64,
            "name": "E4",
            "ticks": 242976,
            "time": 316.375,
            "velocity": 0.03937007874015748
          },
          {
            "duration": 0.0625,
            "durationTicks": 48,
            "midi": 64,
            "name": "E4",
            "ticks": 243072,
            "time": 316.5,
            "velocity": 0.03937007874015748
          },
          {
            "duration": 0.0625,
            "durationTicks": 48,
            "midi": 61,
            "name": "C#4",
            "ticks": 243072,
            "time": 316.5,
            "velocity": 0.03937007874015748
          },
          {
            "duration": 0.0625,
            "durationTicks": 48,
            "midi": 69,
            "name": "A4",
            "ticks": 243072,
            "time": 316.5,
            "velocity": 0.03937007874015748
          },
          {
            "duration": 0.0625,
            "durationTicks": 48,
            "midi": 69,
            "name": "A4",
            "ticks": 243168,
            "time": 316.625,
            "velocity": 0.03937007874015748
          },
          {
            "duration": 0.0625,
            "durationTicks": 48,
            "midi": 61,
            "name": "C#4",
            "ticks": 243168,
            "time": 316.625,
            "velocity": 0.03937007874015748
          },
          {
            "duration": 0.0625,
            "durationTicks": 48,
            "midi": 64,
            "name": "E4",
            "ticks": 243168,
            "time": 316.625,
            "velocity": 0.03937007874015748
          },
          {
            "duration": 0.0625,
            "durationTicks": 48,
            "midi": 64,
            "name": "E4",
            "ticks": 243264,
            "time": 316.75,
            "velocity": 0.03937007874015748
          },
          {
            "duration": 0.0625,
            "durationTicks": 48,
            "midi": 61,
            "name": "C#4",
            "ticks": 243264,
            "time": 316.75,
            "velocity": 0.03937007874015748
          },
          {
            "duration": 0.0625,
            "durationTicks": 48,
            "midi": 69,
            "name": "A4",
            "ticks": 243264,
            "time": 316.75,
            "velocity": 0.03937007874015748
          },
          {
            "duration": 0.0625,
            "durationTicks": 48,
            "midi": 69,
            "name": "A4",
            "ticks": 243360,
            "time": 316.875,
            "velocity": 0.03937007874015748
          },
          {
            "duration": 0.0625,
            "durationTicks": 48,
            "midi": 61,
            "name": "C#4",
            "ticks": 243360,
            "time": 316.875,
            "velocity": 0.03937007874015748
          },
          {
            "duration": 0.0625,
            "durationTicks": 48,
            "midi": 64,
            "name": "E4",
            "ticks": 243360,
            "time": 316.875,
            "velocity": 0.03937007874015748
          },
          {
            "duration": 0.0625,
            "durationTicks": 48,
            "midi": 61,
            "name": "C#4",
            "ticks": 243456,
            "time": 317,
            "velocity": 0.03937007874015748
          },
          {
            "duration": 0.0625,
            "durationTicks": 48,
            "midi": 64,
            "name": "E4",
            "ticks": 243456,
            "time": 317,
            "velocity": 0.03937007874015748
          },
          {
            "duration": 0.0625,
            "durationTicks": 48,
            "midi": 69,
            "name": "A4",
            "ticks": 243456,
            "time": 317,
            "velocity": 0.03937007874015748
          },
          {
            "duration": 0.0625,
            "durationTicks": 48,
            "midi": 61,
            "name": "C#4",
            "ticks": 243552,
            "time": 317.125,
            "velocity": 0.03937007874015748
          },
          {
            "duration": 0.0625,
            "durationTicks": 48,
            "midi": 64,
            "name": "E4",
            "ticks": 243552,
            "time": 317.125,
            "velocity": 0.03937007874015748
          },
          {
            "duration": 0.0625,
            "durationTicks": 48,
            "midi": 69,
            "name": "A4",
            "ticks": 243552,
            "time": 317.125,
            "velocity": 0.03937007874015748
          },
          {
            "duration": 0.0625,
            "durationTicks": 48,
            "midi": 64,
            "name": "E4",
            "ticks": 243648,
            "time": 317.25,
            "velocity": 0.03937007874015748
          },
          {
            "duration": 0.0625,
            "durationTicks": 48,
            "midi": 69,
            "name": "A4",
            "ticks": 243648,
            "time": 317.25,
            "velocity": 0.03937007874015748
          },
          {
            "duration": 0.0625,
            "durationTicks": 48,
            "midi": 61,
            "name": "C#4",
            "ticks": 243648,
            "time": 317.25,
            "velocity": 0.03937007874015748
          },
          {
            "duration": 0.0625,
            "durationTicks": 48,
            "midi": 69,
            "name": "A4",
            "ticks": 243744,
            "time": 317.375,
            "velocity": 0.03937007874015748
          },
          {
            "duration": 0.0625,
            "durationTicks": 48,
            "midi": 64,
            "name": "E4",
            "ticks": 243744,
            "time": 317.375,
            "velocity": 0.03937007874015748
          },
          {
            "duration": 0.0625,
            "durationTicks": 48,
            "midi": 61,
            "name": "C#4",
            "ticks": 243744,
            "time": 317.375,
            "velocity": 0.03937007874015748
          },
          {
            "duration": 0.0625,
            "durationTicks": 48,
            "midi": 61,
            "name": "C#4",
            "ticks": 243840,
            "time": 317.5,
            "velocity": 0.03937007874015748
          },
          {
            "duration": 0.0625,
            "durationTicks": 48,
            "midi": 64,
            "name": "E4",
            "ticks": 243840,
            "time": 317.5,
            "velocity": 0.03937007874015748
          },
          {
            "duration": 0.0625,
            "durationTicks": 48,
            "midi": 69,
            "name": "A4",
            "ticks": 243840,
            "time": 317.5,
            "velocity": 0.03937007874015748
          },
          {
            "duration": 0.0625,
            "durationTicks": 48,
            "midi": 69,
            "name": "A4",
            "ticks": 243936,
            "time": 317.625,
            "velocity": 0.03937007874015748
          },
          {
            "duration": 0.0625,
            "durationTicks": 48,
            "midi": 61,
            "name": "C#4",
            "ticks": 243936,
            "time": 317.625,
            "velocity": 0.03937007874015748
          },
          {
            "duration": 0.0625,
            "durationTicks": 48,
            "midi": 64,
            "name": "E4",
            "ticks": 243936,
            "time": 317.625,
            "velocity": 0.03937007874015748
          },
          {
            "duration": 0.0625,
            "durationTicks": 48,
            "midi": 69,
            "name": "A4",
            "ticks": 244032,
            "time": 317.75,
            "velocity": 0.03937007874015748
          },
          {
            "duration": 0.0625,
            "durationTicks": 48,
            "midi": 61,
            "name": "C#4",
            "ticks": 244032,
            "time": 317.75,
            "velocity": 0.03937007874015748
          },
          {
            "duration": 0.0625,
            "durationTicks": 48,
            "midi": 64,
            "name": "E4",
            "ticks": 244032,
            "time": 317.75,
            "velocity": 0.03937007874015748
          },
          {
            "duration": 0.0625,
            "durationTicks": 48,
            "midi": 66,
            "name": "F#4",
            "ticks": 244128,
            "time": 317.875,
            "velocity": 0.03937007874015748
          },
          {
            "duration": 0.0625,
            "durationTicks": 48,
            "midi": 59,
            "name": "B3",
            "ticks": 244128,
            "time": 317.875,
            "velocity": 0.03937007874015748
          },
          {
            "duration": 0.0625,
            "durationTicks": 48,
            "midi": 63,
            "name": "D#4",
            "ticks": 244128,
            "time": 317.875,
            "velocity": 0.03937007874015748
          },
          {
            "duration": 0.0625,
            "durationTicks": 48,
            "midi": 63,
            "name": "D#4",
            "ticks": 244224,
            "time": 318,
            "velocity": 0.03937007874015748
          },
          {
            "duration": 0.0625,
            "durationTicks": 48,
            "midi": 59,
            "name": "B3",
            "ticks": 244224,
            "time": 318,
            "velocity": 0.03937007874015748
          },
          {
            "duration": 0.0625,
            "durationTicks": 48,
            "midi": 66,
            "name": "F#4",
            "ticks": 244224,
            "time": 318,
            "velocity": 0.03937007874015748
          },
          {
            "duration": 0.0625,
            "durationTicks": 48,
            "midi": 63,
            "name": "D#4",
            "ticks": 244320,
            "time": 318.125,
            "velocity": 0.03937007874015748
          },
          {
            "duration": 0.0625,
            "durationTicks": 48,
            "midi": 66,
            "name": "F#4",
            "ticks": 244320,
            "time": 318.125,
            "velocity": 0.03937007874015748
          },
          {
            "duration": 0.0625,
            "durationTicks": 48,
            "midi": 59,
            "name": "B3",
            "ticks": 244320,
            "time": 318.125,
            "velocity": 0.03937007874015748
          },
          {
            "duration": 0.0625,
            "durationTicks": 48,
            "midi": 63,
            "name": "D#4",
            "ticks": 244416,
            "time": 318.25,
            "velocity": 0.03937007874015748
          },
          {
            "duration": 0.0625,
            "durationTicks": 48,
            "midi": 66,
            "name": "F#4",
            "ticks": 244416,
            "time": 318.25,
            "velocity": 0.03937007874015748
          },
          {
            "duration": 0.0625,
            "durationTicks": 48,
            "midi": 59,
            "name": "B3",
            "ticks": 244416,
            "time": 318.25,
            "velocity": 0.03937007874015748
          },
          {
            "duration": 0.0625,
            "durationTicks": 48,
            "midi": 63,
            "name": "D#4",
            "ticks": 244512,
            "time": 318.375,
            "velocity": 0.03937007874015748
          },
          {
            "duration": 0.0625,
            "durationTicks": 48,
            "midi": 59,
            "name": "B3",
            "ticks": 244512,
            "time": 318.375,
            "velocity": 0.03937007874015748
          },
          {
            "duration": 0.0625,
            "durationTicks": 48,
            "midi": 66,
            "name": "F#4",
            "ticks": 244512,
            "time": 318.375,
            "velocity": 0.03937007874015748
          },
          {
            "duration": 0.0625,
            "durationTicks": 48,
            "midi": 59,
            "name": "B3",
            "ticks": 244608,
            "time": 318.5,
            "velocity": 0.03937007874015748
          },
          {
            "duration": 0.0625,
            "durationTicks": 48,
            "midi": 63,
            "name": "D#4",
            "ticks": 244608,
            "time": 318.5,
            "velocity": 0.03937007874015748
          },
          {
            "duration": 0.0625,
            "durationTicks": 48,
            "midi": 66,
            "name": "F#4",
            "ticks": 244608,
            "time": 318.5,
            "velocity": 0.03937007874015748
          },
          {
            "duration": 0.0625,
            "durationTicks": 48,
            "midi": 59,
            "name": "B3",
            "ticks": 244704,
            "time": 318.625,
            "velocity": 0.03937007874015748
          },
          {
            "duration": 0.0625,
            "durationTicks": 48,
            "midi": 63,
            "name": "D#4",
            "ticks": 244704,
            "time": 318.625,
            "velocity": 0.03937007874015748
          },
          {
            "duration": 0.0625,
            "durationTicks": 48,
            "midi": 66,
            "name": "F#4",
            "ticks": 244704,
            "time": 318.625,
            "velocity": 0.03937007874015748
          },
          {
            "duration": 0.0625,
            "durationTicks": 48,
            "midi": 63,
            "name": "D#4",
            "ticks": 244800,
            "time": 318.75,
            "velocity": 0.03937007874015748
          },
          {
            "duration": 0.0625,
            "durationTicks": 48,
            "midi": 66,
            "name": "F#4",
            "ticks": 244800,
            "time": 318.75,
            "velocity": 0.03937007874015748
          },
          {
            "duration": 0.0625,
            "durationTicks": 48,
            "midi": 59,
            "name": "B3",
            "ticks": 244800,
            "time": 318.75,
            "velocity": 0.03937007874015748
          },
          {
            "duration": 0.0625,
            "durationTicks": 48,
            "midi": 66,
            "name": "F#4",
            "ticks": 244896,
            "time": 318.875,
            "velocity": 0.03937007874015748
          },
          {
            "duration": 0.0625,
            "durationTicks": 48,
            "midi": 63,
            "name": "D#4",
            "ticks": 244896,
            "time": 318.875,
            "velocity": 0.03937007874015748
          },
          {
            "duration": 0.0625,
            "durationTicks": 48,
            "midi": 59,
            "name": "B3",
            "ticks": 244896,
            "time": 318.875,
            "velocity": 0.03937007874015748
          },
          {
            "duration": 0.0625,
            "durationTicks": 48,
            "midi": 63,
            "name": "D#4",
            "ticks": 244992,
            "time": 319,
            "velocity": 0.03937007874015748
          },
          {
            "duration": 0.0625,
            "durationTicks": 48,
            "midi": 59,
            "name": "B3",
            "ticks": 244992,
            "time": 319,
            "velocity": 0.03937007874015748
          },
          {
            "duration": 0.0625,
            "durationTicks": 48,
            "midi": 66,
            "name": "F#4",
            "ticks": 244992,
            "time": 319,
            "velocity": 0.03937007874015748
          },
          {
            "duration": 0.0625,
            "durationTicks": 48,
            "midi": 66,
            "name": "F#4",
            "ticks": 245088,
            "time": 319.125,
            "velocity": 0.03937007874015748
          },
          {
            "duration": 0.0625,
            "durationTicks": 48,
            "midi": 59,
            "name": "B3",
            "ticks": 245088,
            "time": 319.125,
            "velocity": 0.03937007874015748
          },
          {
            "duration": 0.0625,
            "durationTicks": 48,
            "midi": 63,
            "name": "D#4",
            "ticks": 245088,
            "time": 319.125,
            "velocity": 0.03937007874015748
          },
          {
            "duration": 0.0625,
            "durationTicks": 48,
            "midi": 66,
            "name": "F#4",
            "ticks": 245184,
            "time": 319.25,
            "velocity": 0.03937007874015748
          },
          {
            "duration": 0.0625,
            "durationTicks": 48,
            "midi": 63,
            "name": "D#4",
            "ticks": 245184,
            "time": 319.25,
            "velocity": 0.03937007874015748
          },
          {
            "duration": 0.0625,
            "durationTicks": 48,
            "midi": 59,
            "name": "B3",
            "ticks": 245184,
            "time": 319.25,
            "velocity": 0.03937007874015748
          },
          {
            "duration": 0.0625,
            "durationTicks": 48,
            "midi": 63,
            "name": "D#4",
            "ticks": 245280,
            "time": 319.375,
            "velocity": 0.03937007874015748
          },
          {
            "duration": 0.0625,
            "durationTicks": 48,
            "midi": 66,
            "name": "F#4",
            "ticks": 245280,
            "time": 319.375,
            "velocity": 0.03937007874015748
          },
          {
            "duration": 0.0625,
            "durationTicks": 48,
            "midi": 59,
            "name": "B3",
            "ticks": 245280,
            "time": 319.375,
            "velocity": 0.03937007874015748
          },
          {
            "duration": 0.0625,
            "durationTicks": 48,
            "midi": 66,
            "name": "F#4",
            "ticks": 245376,
            "time": 319.5,
            "velocity": 0.03937007874015748
          },
          {
            "duration": 0.0625,
            "durationTicks": 48,
            "midi": 63,
            "name": "D#4",
            "ticks": 245376,
            "time": 319.5,
            "velocity": 0.03937007874015748
          },
          {
            "duration": 0.0625,
            "durationTicks": 48,
            "midi": 59,
            "name": "B3",
            "ticks": 245376,
            "time": 319.5,
            "velocity": 0.03937007874015748
          },
          {
            "duration": 0.0625,
            "durationTicks": 48,
            "midi": 59,
            "name": "B3",
            "ticks": 245472,
            "time": 319.625,
            "velocity": 0.03937007874015748
          },
          {
            "duration": 0.0625,
            "durationTicks": 48,
            "midi": 63,
            "name": "D#4",
            "ticks": 245472,
            "time": 319.625,
            "velocity": 0.03937007874015748
          },
          {
            "duration": 0.0625,
            "durationTicks": 48,
            "midi": 66,
            "name": "F#4",
            "ticks": 245472,
            "time": 319.625,
            "velocity": 0.03937007874015748
          },
          {
            "duration": 0.0625,
            "durationTicks": 48,
            "midi": 66,
            "name": "F#4",
            "ticks": 245568,
            "time": 319.75,
            "velocity": 0.03937007874015748
          },
          {
            "duration": 0.0625,
            "durationTicks": 48,
            "midi": 59,
            "name": "B3",
            "ticks": 245568,
            "time": 319.75,
            "velocity": 0.03937007874015748
          },
          {
            "duration": 0.0625,
            "durationTicks": 48,
            "midi": 63,
            "name": "D#4",
            "ticks": 245568,
            "time": 319.75,
            "velocity": 0.03937007874015748
          },
          {
            "duration": 0.0625,
            "durationTicks": 48,
            "midi": 66,
            "name": "F#4",
            "ticks": 245664,
            "time": 319.875,
            "velocity": 0.03937007874015748
          },
          {
            "duration": 0.0625,
            "durationTicks": 48,
            "midi": 61,
            "name": "C#4",
            "ticks": 245664,
            "time": 319.875,
            "velocity": 0.03937007874015748
          },
          {
            "duration": 0.0625,
            "durationTicks": 48,
            "midi": 58,
            "name": "A#3",
            "ticks": 245664,
            "time": 319.875,
            "velocity": 0.03937007874015748
          },
          {
            "duration": 0.0625,
            "durationTicks": 48,
            "midi": 66,
            "name": "F#4",
            "ticks": 245760,
            "time": 320,
            "velocity": 0.03937007874015748
          },
          {
            "duration": 0.0625,
            "durationTicks": 48,
            "midi": 61,
            "name": "C#4",
            "ticks": 245760,
            "time": 320,
            "velocity": 0.03937007874015748
          },
          {
            "duration": 0.0625,
            "durationTicks": 48,
            "midi": 58,
            "name": "A#3",
            "ticks": 245760,
            "time": 320,
            "velocity": 0.03937007874015748
          },
          {
            "duration": 0.0625,
            "durationTicks": 48,
            "midi": 66,
            "name": "F#4",
            "ticks": 245856,
            "time": 320.125,
            "velocity": 0.03937007874015748
          },
          {
            "duration": 0.0625,
            "durationTicks": 48,
            "midi": 61,
            "name": "C#4",
            "ticks": 245856,
            "time": 320.125,
            "velocity": 0.03937007874015748
          },
          {
            "duration": 0.0625,
            "durationTicks": 48,
            "midi": 58,
            "name": "A#3",
            "ticks": 245856,
            "time": 320.125,
            "velocity": 0.03937007874015748
          },
          {
            "duration": 0.0625,
            "durationTicks": 48,
            "midi": 58,
            "name": "A#3",
            "ticks": 245952,
            "time": 320.25,
            "velocity": 0.03937007874015748
          },
          {
            "duration": 0.0625,
            "durationTicks": 48,
            "midi": 61,
            "name": "C#4",
            "ticks": 245952,
            "time": 320.25,
            "velocity": 0.03937007874015748
          },
          {
            "duration": 0.0625,
            "durationTicks": 48,
            "midi": 66,
            "name": "F#4",
            "ticks": 245952,
            "time": 320.25,
            "velocity": 0.03937007874015748
          },
          {
            "duration": 0.0625,
            "durationTicks": 48,
            "midi": 61,
            "name": "C#4",
            "ticks": 246048,
            "time": 320.375,
            "velocity": 0.03937007874015748
          },
          {
            "duration": 0.0625,
            "durationTicks": 48,
            "midi": 58,
            "name": "A#3",
            "ticks": 246048,
            "time": 320.375,
            "velocity": 0.03937007874015748
          },
          {
            "duration": 0.0625,
            "durationTicks": 48,
            "midi": 66,
            "name": "F#4",
            "ticks": 246048,
            "time": 320.375,
            "velocity": 0.03937007874015748
          },
          {
            "duration": 0.0625,
            "durationTicks": 48,
            "midi": 58,
            "name": "A#3",
            "ticks": 246144,
            "time": 320.5,
            "velocity": 0.03937007874015748
          },
          {
            "duration": 0.0625,
            "durationTicks": 48,
            "midi": 61,
            "name": "C#4",
            "ticks": 246144,
            "time": 320.5,
            "velocity": 0.03937007874015748
          },
          {
            "duration": 0.0625,
            "durationTicks": 48,
            "midi": 66,
            "name": "F#4",
            "ticks": 246144,
            "time": 320.5,
            "velocity": 0.03937007874015748
          },
          {
            "duration": 0.0625,
            "durationTicks": 48,
            "midi": 61,
            "name": "C#4",
            "ticks": 246240,
            "time": 320.625,
            "velocity": 0.03937007874015748
          },
          {
            "duration": 0.0625,
            "durationTicks": 48,
            "midi": 58,
            "name": "A#3",
            "ticks": 246240,
            "time": 320.625,
            "velocity": 0.03937007874015748
          },
          {
            "duration": 0.0625,
            "durationTicks": 48,
            "midi": 66,
            "name": "F#4",
            "ticks": 246240,
            "time": 320.625,
            "velocity": 0.03937007874015748
          },
          {
            "duration": 0.0625,
            "durationTicks": 48,
            "midi": 66,
            "name": "F#4",
            "ticks": 246336,
            "time": 320.75,
            "velocity": 0.03937007874015748
          },
          {
            "duration": 0.0625,
            "durationTicks": 48,
            "midi": 58,
            "name": "A#3",
            "ticks": 246336,
            "time": 320.75,
            "velocity": 0.03937007874015748
          },
          {
            "duration": 0.0625,
            "durationTicks": 48,
            "midi": 61,
            "name": "C#4",
            "ticks": 246336,
            "time": 320.75,
            "velocity": 0.03937007874015748
          },
          {
            "duration": 0.0625,
            "durationTicks": 48,
            "midi": 66,
            "name": "F#4",
            "ticks": 246432,
            "time": 320.875,
            "velocity": 0.03937007874015748
          },
          {
            "duration": 0.0625,
            "durationTicks": 48,
            "midi": 58,
            "name": "A#3",
            "ticks": 246432,
            "time": 320.875,
            "velocity": 0.03937007874015748
          },
          {
            "duration": 0.0625,
            "durationTicks": 48,
            "midi": 61,
            "name": "C#4",
            "ticks": 246432,
            "time": 320.875,
            "velocity": 0.03937007874015748
          },
          {
            "duration": 0.0625,
            "durationTicks": 48,
            "midi": 58,
            "name": "A#3",
            "ticks": 246528,
            "time": 321,
            "velocity": 0.03937007874015748
          },
          {
            "duration": 0.0625,
            "durationTicks": 48,
            "midi": 66,
            "name": "F#4",
            "ticks": 246528,
            "time": 321,
            "velocity": 0.03937007874015748
          },
          {
            "duration": 0.0625,
            "durationTicks": 48,
            "midi": 61,
            "name": "C#4",
            "ticks": 246528,
            "time": 321,
            "velocity": 0.03937007874015748
          },
          {
            "duration": 0.0625,
            "durationTicks": 48,
            "midi": 66,
            "name": "F#4",
            "ticks": 246624,
            "time": 321.125,
            "velocity": 0.03937007874015748
          },
          {
            "duration": 0.0625,
            "durationTicks": 48,
            "midi": 61,
            "name": "C#4",
            "ticks": 246624,
            "time": 321.125,
            "velocity": 0.03937007874015748
          },
          {
            "duration": 0.0625,
            "durationTicks": 48,
            "midi": 58,
            "name": "A#3",
            "ticks": 246624,
            "time": 321.125,
            "velocity": 0.03937007874015748
          },
          {
            "duration": 0.0625,
            "durationTicks": 48,
            "midi": 64,
            "name": "E4",
            "ticks": 247104,
            "time": 321.75,
            "velocity": 0.03937007874015748
          },
          {
            "duration": 0.0625,
            "durationTicks": 48,
            "midi": 61,
            "name": "C#4",
            "ticks": 247104,
            "time": 321.75,
            "velocity": 0.03937007874015748
          },
          {
            "duration": 0.0625,
            "durationTicks": 48,
            "midi": 56,
            "name": "G#3",
            "ticks": 247104,
            "time": 321.75,
            "velocity": 0.03937007874015748
          },
          {
            "duration": 0.0625,
            "durationTicks": 48,
            "midi": 56,
            "name": "G#3",
            "ticks": 247200,
            "time": 321.875,
            "velocity": 0.03937007874015748
          },
          {
            "duration": 0.0625,
            "durationTicks": 48,
            "midi": 64,
            "name": "E4",
            "ticks": 247200,
            "time": 321.875,
            "velocity": 0.03937007874015748
          },
          {
            "duration": 0.0625,
            "durationTicks": 48,
            "midi": 61,
            "name": "C#4",
            "ticks": 247200,
            "time": 321.875,
            "velocity": 0.03937007874015748
          }
        ],
        "endOfTrackTicks": 247248
      },
      {
        "channel": 3,
        "controlChanges": {},
        "pitchBends": [],
        "instrument": {
          "family": "guitar",
          "number": 29,
          "name": "overdriven guitar"
        },
        "name": "Electric Guitar",
        "notes": [
          {
            "duration": 0.125,
            "durationTicks": 96,
            "midi": 56,
            "name": "G#3",
            "ticks": 43200,
            "time": 56.25,
            "velocity": 0.03937007874015748
          },
          {
            "duration": 0.125,
            "durationTicks": 96,
            "midi": 54,
            "name": "F#3",
            "ticks": 43296,
            "time": 56.375,
            "velocity": 0.03937007874015748
          },
          {
            "duration": 0.125,
            "durationTicks": 96,
            "midi": 56,
            "name": "G#3",
            "ticks": 43392,
            "time": 56.5,
            "velocity": 0.03937007874015748
          },
          {
            "duration": 0.125,
            "durationTicks": 96,
            "midi": 56,
            "name": "G#3",
            "ticks": 43584,
            "time": 56.75,
            "velocity": 0.03937007874015748
          },
          {
            "duration": 0.125,
            "durationTicks": 96,
            "midi": 54,
            "name": "F#3",
            "ticks": 43680,
            "time": 56.875,
            "velocity": 0.03937007874015748
          },
          {
            "duration": 0.125,
            "durationTicks": 96,
            "midi": 56,
            "name": "G#3",
            "ticks": 43776,
            "time": 57,
            "velocity": 0.03937007874015748
          },
          {
            "duration": 0.125,
            "durationTicks": 96,
            "midi": 56,
            "name": "G#3",
            "ticks": 43968,
            "time": 57.25,
            "velocity": 0.03937007874015748
          },
          {
            "duration": 0.125,
            "durationTicks": 96,
            "midi": 54,
            "name": "F#3",
            "ticks": 44064,
            "time": 57.375,
            "velocity": 0.03937007874015748
          },
          {
            "duration": 0.125,
            "durationTicks": 96,
            "midi": 56,
            "name": "G#3",
            "ticks": 44160,
            "time": 57.5,
            "velocity": 0.03937007874015748
          },
          {
            "duration": 0.125,
            "durationTicks": 96,
            "midi": 59,
            "name": "B3",
            "ticks": 44256,
            "time": 57.625,
            "velocity": 0.03937007874015748
          },
          {
            "duration": 0.125,
            "durationTicks": 96,
            "midi": 61,
            "name": "C#4",
            "ticks": 44448,
            "time": 57.875,
            "velocity": 0.03937007874015748
          },
          {
            "duration": 0.125,
            "durationTicks": 96,
            "midi": 61,
            "name": "C#4",
            "ticks": 44640,
            "time": 58.125,
            "velocity": 0.03937007874015748
          },
          {
            "duration": 0.125,
            "durationTicks": 96,
            "midi": 56,
            "name": "G#3",
            "ticks": 44736,
            "time": 58.25,
            "velocity": 0.03937007874015748
          },
          {
            "duration": 0.125,
            "durationTicks": 96,
            "midi": 54,
            "name": "F#3",
            "ticks": 44832,
            "time": 58.375,
            "velocity": 0.03937007874015748
          },
          {
            "duration": 0.125,
            "durationTicks": 96,
            "midi": 56,
            "name": "G#3",
            "ticks": 44928,
            "time": 58.5,
            "velocity": 0.03937007874015748
          },
          {
            "duration": 0.125,
            "durationTicks": 96,
            "midi": 56,
            "name": "G#3",
            "ticks": 45120,
            "time": 58.75,
            "velocity": 0.03937007874015748
          },
          {
            "duration": 0.125,
            "durationTicks": 96,
            "midi": 54,
            "name": "F#3",
            "ticks": 45216,
            "time": 58.875,
            "velocity": 0.03937007874015748
          },
          {
            "duration": 0.125,
            "durationTicks": 96,
            "midi": 56,
            "name": "G#3",
            "ticks": 45312,
            "time": 59,
            "velocity": 0.03937007874015748
          },
          {
            "duration": 0.125,
            "durationTicks": 96,
            "midi": 56,
            "name": "G#3",
            "ticks": 45504,
            "time": 59.25,
            "velocity": 0.03937007874015748
          },
          {
            "duration": 0.125,
            "durationTicks": 96,
            "midi": 54,
            "name": "F#3",
            "ticks": 45600,
            "time": 59.375,
            "velocity": 0.03937007874015748
          },
          {
            "duration": 0.125,
            "durationTicks": 96,
            "midi": 56,
            "name": "G#3",
            "ticks": 45696,
            "time": 59.5,
            "velocity": 0.03937007874015748
          },
          {
            "duration": 0.125,
            "durationTicks": 96,
            "midi": 59,
            "name": "B3",
            "ticks": 45792,
            "time": 59.625,
            "velocity": 0.03937007874015748
          },
          {
            "duration": 0.125,
            "durationTicks": 96,
            "midi": 61,
            "name": "C#4",
            "ticks": 45984,
            "time": 59.875,
            "velocity": 0.03937007874015748
          },
          {
            "duration": 0.125,
            "durationTicks": 96,
            "midi": 61,
            "name": "C#4",
            "ticks": 46176,
            "time": 60.125,
            "velocity": 0.03937007874015748
          },
          {
            "duration": 0.125,
            "durationTicks": 96,
            "midi": 56,
            "name": "G#3",
            "ticks": 46272,
            "time": 60.25,
            "velocity": 0.03937007874015748
          },
          {
            "duration": 0.125,
            "durationTicks": 96,
            "midi": 54,
            "name": "F#3",
            "ticks": 46368,
            "time": 60.375,
            "velocity": 0.03937007874015748
          },
          {
            "duration": 0.125,
            "durationTicks": 96,
            "midi": 56,
            "name": "G#3",
            "ticks": 46464,
            "time": 60.5,
            "velocity": 0.03937007874015748
          },
          {
            "duration": 0.125,
            "durationTicks": 96,
            "midi": 56,
            "name": "G#3",
            "ticks": 46656,
            "time": 60.75,
            "velocity": 0.03937007874015748
          },
          {
            "duration": 0.125,
            "durationTicks": 96,
            "midi": 54,
            "name": "F#3",
            "ticks": 46752,
            "time": 60.875,
            "velocity": 0.03937007874015748
          },
          {
            "duration": 0.125,
            "durationTicks": 96,
            "midi": 56,
            "name": "G#3",
            "ticks": 46848,
            "time": 61,
            "velocity": 0.03937007874015748
          },
          {
            "duration": 0.125,
            "durationTicks": 96,
            "midi": 56,
            "name": "G#3",
            "ticks": 47040,
            "time": 61.25,
            "velocity": 0.03937007874015748
          },
          {
            "duration": 0.125,
            "durationTicks": 96,
            "midi": 54,
            "name": "F#3",
            "ticks": 47136,
            "time": 61.375,
            "velocity": 0.03937007874015748
          },
          {
            "duration": 0.125,
            "durationTicks": 96,
            "midi": 56,
            "name": "G#3",
            "ticks": 47232,
            "time": 61.5,
            "velocity": 0.03937007874015748
          },
          {
            "duration": 0.125,
            "durationTicks": 96,
            "midi": 59,
            "name": "B3",
            "ticks": 47328,
            "time": 61.625,
            "velocity": 0.03937007874015748
          },
          {
            "duration": 0.125,
            "durationTicks": 96,
            "midi": 61,
            "name": "C#4",
            "ticks": 47520,
            "time": 61.875,
            "velocity": 0.03937007874015748
          },
          {
            "duration": 0.125,
            "durationTicks": 96,
            "midi": 61,
            "name": "C#4",
            "ticks": 47712,
            "time": 62.125,
            "velocity": 0.03937007874015748
          },
          {
            "duration": 0.125,
            "durationTicks": 96,
            "midi": 56,
            "name": "G#3",
            "ticks": 47808,
            "time": 62.25,
            "velocity": 0.03937007874015748
          },
          {
            "duration": 0.125,
            "durationTicks": 96,
            "midi": 54,
            "name": "F#3",
            "ticks": 47904,
            "time": 62.375,
            "velocity": 0.03937007874015748
          },
          {
            "duration": 0.125,
            "durationTicks": 96,
            "midi": 56,
            "name": "G#3",
            "ticks": 48000,
            "time": 62.5,
            "velocity": 0.03937007874015748
          },
          {
            "duration": 0.125,
            "durationTicks": 96,
            "midi": 56,
            "name": "G#3",
            "ticks": 48192,
            "time": 62.75,
            "velocity": 0.03937007874015748
          },
          {
            "duration": 0.125,
            "durationTicks": 96,
            "midi": 54,
            "name": "F#3",
            "ticks": 48288,
            "time": 62.875,
            "velocity": 0.03937007874015748
          },
          {
            "duration": 0.125,
            "durationTicks": 96,
            "midi": 56,
            "name": "G#3",
            "ticks": 48384,
            "time": 63,
            "velocity": 0.03937007874015748
          },
          {
            "duration": 0.125,
            "durationTicks": 96,
            "midi": 56,
            "name": "G#3",
            "ticks": 48576,
            "time": 63.25,
            "velocity": 0.03937007874015748
          },
          {
            "duration": 0.125,
            "durationTicks": 96,
            "midi": 54,
            "name": "F#3",
            "ticks": 48672,
            "time": 63.375,
            "velocity": 0.03937007874015748
          },
          {
            "duration": 0.125,
            "durationTicks": 96,
            "midi": 56,
            "name": "G#3",
            "ticks": 48768,
            "time": 63.5,
            "velocity": 0.03937007874015748
          },
          {
            "duration": 0.125,
            "durationTicks": 96,
            "midi": 59,
            "name": "B3",
            "ticks": 48864,
            "time": 63.625,
            "velocity": 0.03937007874015748
          },
          {
            "duration": 0.125,
            "durationTicks": 96,
            "midi": 61,
            "name": "C#4",
            "ticks": 49056,
            "time": 63.875,
            "velocity": 0.03937007874015748
          },
          {
            "duration": 0.125,
            "durationTicks": 96,
            "midi": 61,
            "name": "C#4",
            "ticks": 49248,
            "time": 64.125,
            "velocity": 0.03937007874015748
          },
          {
            "duration": 0.125,
            "durationTicks": 96,
            "midi": 56,
            "name": "G#3",
            "ticks": 49344,
            "time": 64.25,
            "velocity": 0.03937007874015748
          },
          {
            "duration": 0.125,
            "durationTicks": 96,
            "midi": 54,
            "name": "F#3",
            "ticks": 49440,
            "time": 64.375,
            "velocity": 0.03937007874015748
          },
          {
            "duration": 0.125,
            "durationTicks": 96,
            "midi": 56,
            "name": "G#3",
            "ticks": 49536,
            "time": 64.5,
            "velocity": 0.03937007874015748
          },
          {
            "duration": 0.125,
            "durationTicks": 96,
            "midi": 56,
            "name": "G#3",
            "ticks": 49728,
            "time": 64.75,
            "velocity": 0.03937007874015748
          },
          {
            "duration": 0.125,
            "durationTicks": 96,
            "midi": 54,
            "name": "F#3",
            "ticks": 49824,
            "time": 64.875,
            "velocity": 0.03937007874015748
          },
          {
            "duration": 0.125,
            "durationTicks": 96,
            "midi": 56,
            "name": "G#3",
            "ticks": 49920,
            "time": 65,
            "velocity": 0.03937007874015748
          },
          {
            "duration": 0.125,
            "durationTicks": 96,
            "midi": 56,
            "name": "G#3",
            "ticks": 50112,
            "time": 65.25,
            "velocity": 0.03937007874015748
          },
          {
            "duration": 0.125,
            "durationTicks": 96,
            "midi": 54,
            "name": "F#3",
            "ticks": 50208,
            "time": 65.375,
            "velocity": 0.03937007874015748
          },
          {
            "duration": 0.125,
            "durationTicks": 96,
            "midi": 56,
            "name": "G#3",
            "ticks": 50304,
            "time": 65.5,
            "velocity": 0.03937007874015748
          },
          {
            "duration": 0.125,
            "durationTicks": 96,
            "midi": 59,
            "name": "B3",
            "ticks": 50400,
            "time": 65.625,
            "velocity": 0.03937007874015748
          },
          {
            "duration": 0.125,
            "durationTicks": 96,
            "midi": 61,
            "name": "C#4",
            "ticks": 50592,
            "time": 65.875,
            "velocity": 0.03937007874015748
          },
          {
            "duration": 0.125,
            "durationTicks": 96,
            "midi": 61,
            "name": "C#4",
            "ticks": 50784,
            "time": 66.125,
            "velocity": 0.03937007874015748
          },
          {
            "duration": 0.125,
            "durationTicks": 96,
            "midi": 56,
            "name": "G#3",
            "ticks": 50880,
            "time": 66.25,
            "velocity": 0.03937007874015748
          },
          {
            "duration": 0.125,
            "durationTicks": 96,
            "midi": 54,
            "name": "F#3",
            "ticks": 50976,
            "time": 66.375,
            "velocity": 0.03937007874015748
          },
          {
            "duration": 0.125,
            "durationTicks": 96,
            "midi": 56,
            "name": "G#3",
            "ticks": 51072,
            "time": 66.5,
            "velocity": 0.03937007874015748
          },
          {
            "duration": 0.125,
            "durationTicks": 96,
            "midi": 56,
            "name": "G#3",
            "ticks": 51264,
            "time": 66.75,
            "velocity": 0.03937007874015748
          },
          {
            "duration": 0.125,
            "durationTicks": 96,
            "midi": 54,
            "name": "F#3",
            "ticks": 51360,
            "time": 66.875,
            "velocity": 0.03937007874015748
          },
          {
            "duration": 0.125,
            "durationTicks": 96,
            "midi": 56,
            "name": "G#3",
            "ticks": 51456,
            "time": 67,
            "velocity": 0.03937007874015748
          },
          {
            "duration": 0.125,
            "durationTicks": 96,
            "midi": 56,
            "name": "G#3",
            "ticks": 51648,
            "time": 67.25,
            "velocity": 0.03937007874015748
          },
          {
            "duration": 0.125,
            "durationTicks": 96,
            "midi": 54,
            "name": "F#3",
            "ticks": 51744,
            "time": 67.375,
            "velocity": 0.03937007874015748
          },
          {
            "duration": 0.125,
            "durationTicks": 96,
            "midi": 56,
            "name": "G#3",
            "ticks": 51840,
            "time": 67.5,
            "velocity": 0.03937007874015748
          },
          {
            "duration": 0.125,
            "durationTicks": 96,
            "midi": 59,
            "name": "B3",
            "ticks": 51936,
            "time": 67.625,
            "velocity": 0.03937007874015748
          },
          {
            "duration": 0.125,
            "durationTicks": 96,
            "midi": 61,
            "name": "C#4",
            "ticks": 52128,
            "time": 67.875,
            "velocity": 0.03937007874015748
          },
          {
            "duration": 0.125,
            "durationTicks": 96,
            "midi": 61,
            "name": "C#4",
            "ticks": 52320,
            "time": 68.125,
            "velocity": 0.03937007874015748
          },
          {
            "duration": 0.125,
            "durationTicks": 96,
            "midi": 56,
            "name": "G#3",
            "ticks": 52416,
            "time": 68.25,
            "velocity": 0.03937007874015748
          },
          {
            "duration": 0.125,
            "durationTicks": 96,
            "midi": 54,
            "name": "F#3",
            "ticks": 52512,
            "time": 68.375,
            "velocity": 0.03937007874015748
          },
          {
            "duration": 0.125,
            "durationTicks": 96,
            "midi": 56,
            "name": "G#3",
            "ticks": 52608,
            "time": 68.5,
            "velocity": 0.03937007874015748
          },
          {
            "duration": 0.125,
            "durationTicks": 96,
            "midi": 56,
            "name": "G#3",
            "ticks": 52800,
            "time": 68.75,
            "velocity": 0.03937007874015748
          },
          {
            "duration": 0.125,
            "durationTicks": 96,
            "midi": 54,
            "name": "F#3",
            "ticks": 52896,
            "time": 68.875,
            "velocity": 0.03937007874015748
          },
          {
            "duration": 0.125,
            "durationTicks": 96,
            "midi": 56,
            "name": "G#3",
            "ticks": 52992,
            "time": 69,
            "velocity": 0.03937007874015748
          },
          {
            "duration": 0.125,
            "durationTicks": 96,
            "midi": 56,
            "name": "G#3",
            "ticks": 53184,
            "time": 69.25,
            "velocity": 0.03937007874015748
          },
          {
            "duration": 0.125,
            "durationTicks": 96,
            "midi": 54,
            "name": "F#3",
            "ticks": 53280,
            "time": 69.375,
            "velocity": 0.03937007874015748
          },
          {
            "duration": 0.125,
            "durationTicks": 96,
            "midi": 56,
            "name": "G#3",
            "ticks": 53376,
            "time": 69.5,
            "velocity": 0.03937007874015748
          },
          {
            "duration": 0.125,
            "durationTicks": 96,
            "midi": 59,
            "name": "B3",
            "ticks": 53472,
            "time": 69.625,
            "velocity": 0.03937007874015748
          },
          {
            "duration": 0.125,
            "durationTicks": 96,
            "midi": 61,
            "name": "C#4",
            "ticks": 53664,
            "time": 69.875,
            "velocity": 0.03937007874015748
          },
          {
            "duration": 0.125,
            "durationTicks": 96,
            "midi": 61,
            "name": "C#4",
            "ticks": 53856,
            "time": 70.125,
            "velocity": 0.03937007874015748
          },
          {
            "duration": 0.125,
            "durationTicks": 96,
            "midi": 56,
            "name": "G#3",
            "ticks": 53952,
            "time": 70.25,
            "velocity": 0.03937007874015748
          },
          {
            "duration": 0.125,
            "durationTicks": 96,
            "midi": 54,
            "name": "F#3",
            "ticks": 54048,
            "time": 70.375,
            "velocity": 0.03937007874015748
          },
          {
            "duration": 0.125,
            "durationTicks": 96,
            "midi": 56,
            "name": "G#3",
            "ticks": 54144,
            "time": 70.5,
            "velocity": 0.03937007874015748
          },
          {
            "duration": 0.125,
            "durationTicks": 96,
            "midi": 56,
            "name": "G#3",
            "ticks": 54336,
            "time": 70.75,
            "velocity": 0.03937007874015748
          },
          {
            "duration": 0.125,
            "durationTicks": 96,
            "midi": 54,
            "name": "F#3",
            "ticks": 54432,
            "time": 70.875,
            "velocity": 0.03937007874015748
          },
          {
            "duration": 0.125,
            "durationTicks": 96,
            "midi": 56,
            "name": "G#3",
            "ticks": 54528,
            "time": 71,
            "velocity": 0.03937007874015748
          },
          {
            "duration": 0.125,
            "durationTicks": 96,
            "midi": 56,
            "name": "G#3",
            "ticks": 54720,
            "time": 71.25,
            "velocity": 0.03937007874015748
          },
          {
            "duration": 0.125,
            "durationTicks": 96,
            "midi": 54,
            "name": "F#3",
            "ticks": 54816,
            "time": 71.375,
            "velocity": 0.03937007874015748
          },
          {
            "duration": 0.125,
            "durationTicks": 96,
            "midi": 56,
            "name": "G#3",
            "ticks": 54912,
            "time": 71.5,
            "velocity": 0.03937007874015748
          },
          {
            "duration": 0.125,
            "durationTicks": 96,
            "midi": 59,
            "name": "B3",
            "ticks": 55008,
            "time": 71.625,
            "velocity": 0.03937007874015748
          },
          {
            "duration": 0.125,
            "durationTicks": 96,
            "midi": 61,
            "name": "C#4",
            "ticks": 55200,
            "time": 71.875,
            "velocity": 0.03937007874015748
          },
          {
            "duration": 0.125,
            "durationTicks": 96,
            "midi": 61,
            "name": "C#4",
            "ticks": 55488,
            "time": 72.25,
            "velocity": 0.03937007874015748
          },
          {
            "duration": 0.125,
            "durationTicks": 96,
            "midi": 59,
            "name": "B3",
            "ticks": 55584,
            "time": 72.375,
            "velocity": 0.03937007874015748
          },
          {
            "duration": 0.125,
            "durationTicks": 96,
            "midi": 61,
            "name": "C#4",
            "ticks": 55776,
            "time": 72.625,
            "velocity": 0.03937007874015748
          },
          {
            "duration": 0.125,
            "durationTicks": 96,
            "midi": 59,
            "name": "B3",
            "ticks": 55968,
            "time": 72.875,
            "velocity": 0.03937007874015748
          },
          {
            "duration": 0.25,
            "durationTicks": 192,
            "midi": 61,
            "name": "C#4",
            "ticks": 56064,
            "time": 73,
            "velocity": 0.03937007874015748
          },
          {
            "duration": 0.25,
            "durationTicks": 192,
            "midi": 64,
            "name": "E4",
            "ticks": 56256,
            "time": 73.25,
            "velocity": 0.03937007874015748
          },
          {
            "duration": 0.75,
            "durationTicks": 576,
            "midi": 68,
            "name": "G#4",
            "ticks": 56448,
            "time": 73.5,
            "velocity": 0.03937007874015748
          },
          {
            "duration": 0.125,
            "durationTicks": 96,
            "midi": 61,
            "name": "C#4",
            "ticks": 57024,
            "time": 74.25,
            "velocity": 0.03937007874015748
          },
          {
            "duration": 0.125,
            "durationTicks": 96,
            "midi": 59,
            "name": "B3",
            "ticks": 57120,
            "time": 74.375,
            "velocity": 0.03937007874015748
          },
          {
            "duration": 0.125,
            "durationTicks": 96,
            "midi": 61,
            "name": "C#4",
            "ticks": 57312,
            "time": 74.625,
            "velocity": 0.03937007874015748
          },
          {
            "duration": 0.125,
            "durationTicks": 96,
            "midi": 59,
            "name": "B3",
            "ticks": 57504,
            "time": 74.875,
            "velocity": 0.03937007874015748
          },
          {
            "duration": 0.25,
            "durationTicks": 192,
            "midi": 61,
            "name": "C#4",
            "ticks": 57600,
            "time": 75,
            "velocity": 0.03937007874015748
          },
          {
            "duration": 0.25,
            "durationTicks": 192,
            "midi": 64,
            "name": "E4",
            "ticks": 57792,
            "time": 75.25,
            "velocity": 0.03937007874015748
          },
          {
            "duration": 0.75,
            "durationTicks": 576,
            "midi": 68,
            "name": "G#4",
            "ticks": 57984,
            "time": 75.5,
            "velocity": 0.03937007874015748
          },
          {
            "duration": 0.125,
            "durationTicks": 96,
            "midi": 61,
            "name": "C#4",
            "ticks": 58560,
            "time": 76.25,
            "velocity": 0.03937007874015748
          },
          {
            "duration": 0.125,
            "durationTicks": 96,
            "midi": 59,
            "name": "B3",
            "ticks": 58656,
            "time": 76.375,
            "velocity": 0.03937007874015748
          },
          {
            "duration": 0.125,
            "durationTicks": 96,
            "midi": 61,
            "name": "C#4",
            "ticks": 58848,
            "time": 76.625,
            "velocity": 0.03937007874015748
          },
          {
            "duration": 0.125,
            "durationTicks": 96,
            "midi": 59,
            "name": "B3",
            "ticks": 59040,
            "time": 76.875,
            "velocity": 0.03937007874015748
          },
          {
            "duration": 0.25,
            "durationTicks": 192,
            "midi": 61,
            "name": "C#4",
            "ticks": 59136,
            "time": 77,
            "velocity": 0.03937007874015748
          },
          {
            "duration": 0.25,
            "durationTicks": 192,
            "midi": 64,
            "name": "E4",
            "ticks": 59328,
            "time": 77.25,
            "velocity": 0.03937007874015748
          },
          {
            "duration": 0.75,
            "durationTicks": 576,
            "midi": 68,
            "name": "G#4",
            "ticks": 59520,
            "time": 77.5,
            "velocity": 0.03937007874015748
          },
          {
            "duration": 0.125,
            "durationTicks": 96,
            "midi": 61,
            "name": "C#4",
            "ticks": 60096,
            "time": 78.25,
            "velocity": 0.03937007874015748
          },
          {
            "duration": 0.125,
            "durationTicks": 96,
            "midi": 59,
            "name": "B3",
            "ticks": 60192,
            "time": 78.375,
            "velocity": 0.03937007874015748
          },
          {
            "duration": 0.125,
            "durationTicks": 96,
            "midi": 61,
            "name": "C#4",
            "ticks": 60384,
            "time": 78.625,
            "velocity": 0.03937007874015748
          },
          {
            "duration": 0.125,
            "durationTicks": 96,
            "midi": 59,
            "name": "B3",
            "ticks": 60576,
            "time": 78.875,
            "velocity": 0.03937007874015748
          },
          {
            "duration": 0.25,
            "durationTicks": 192,
            "midi": 61,
            "name": "C#4",
            "ticks": 60672,
            "time": 79,
            "velocity": 0.03937007874015748
          },
          {
            "duration": 0.25,
            "durationTicks": 192,
            "midi": 64,
            "name": "E4",
            "ticks": 60864,
            "time": 79.25,
            "velocity": 0.03937007874015748
          },
          {
            "duration": 0.75,
            "durationTicks": 576,
            "midi": 68,
            "name": "G#4",
            "ticks": 61056,
            "time": 79.5,
            "velocity": 0.03937007874015748
          },
          {
            "duration": 0.125,
            "durationTicks": 96,
            "midi": 61,
            "name": "C#4",
            "ticks": 61632,
            "time": 80.25,
            "velocity": 0.03937007874015748
          },
          {
            "duration": 0.125,
            "durationTicks": 96,
            "midi": 59,
            "name": "B3",
            "ticks": 61728,
            "time": 80.375,
            "velocity": 0.03937007874015748
          },
          {
            "duration": 0.125,
            "durationTicks": 96,
            "midi": 61,
            "name": "C#4",
            "ticks": 61920,
            "time": 80.625,
            "velocity": 0.03937007874015748
          },
          {
            "duration": 0.125,
            "durationTicks": 96,
            "midi": 59,
            "name": "B3",
            "ticks": 62112,
            "time": 80.875,
            "velocity": 0.03937007874015748
          },
          {
            "duration": 0.25,
            "durationTicks": 192,
            "midi": 61,
            "name": "C#4",
            "ticks": 62208,
            "time": 81,
            "velocity": 0.03937007874015748
          },
          {
            "duration": 0.25,
            "durationTicks": 192,
            "midi": 64,
            "name": "E4",
            "ticks": 62400,
            "time": 81.25,
            "velocity": 0.03937007874015748
          },
          {
            "duration": 0.75,
            "durationTicks": 576,
            "midi": 68,
            "name": "G#4",
            "ticks": 62592,
            "time": 81.5,
            "velocity": 0.03937007874015748
          },
          {
            "duration": 0.125,
            "durationTicks": 96,
            "midi": 61,
            "name": "C#4",
            "ticks": 63168,
            "time": 82.25,
            "velocity": 0.03937007874015748
          },
          {
            "duration": 0.125,
            "durationTicks": 96,
            "midi": 59,
            "name": "B3",
            "ticks": 63264,
            "time": 82.375,
            "velocity": 0.03937007874015748
          },
          {
            "duration": 0.125,
            "durationTicks": 96,
            "midi": 61,
            "name": "C#4",
            "ticks": 63456,
            "time": 82.625,
            "velocity": 0.03937007874015748
          },
          {
            "duration": 0.125,
            "durationTicks": 96,
            "midi": 59,
            "name": "B3",
            "ticks": 63648,
            "time": 82.875,
            "velocity": 0.03937007874015748
          },
          {
            "duration": 0.25,
            "durationTicks": 192,
            "midi": 61,
            "name": "C#4",
            "ticks": 63744,
            "time": 83,
            "velocity": 0.03937007874015748
          },
          {
            "duration": 0.25,
            "durationTicks": 192,
            "midi": 64,
            "name": "E4",
            "ticks": 63936,
            "time": 83.25,
            "velocity": 0.03937007874015748
          },
          {
            "duration": 0.75,
            "durationTicks": 576,
            "midi": 68,
            "name": "G#4",
            "ticks": 64128,
            "time": 83.5,
            "velocity": 0.03937007874015748
          },
          {
            "duration": 0.125,
            "durationTicks": 96,
            "midi": 61,
            "name": "C#4",
            "ticks": 64704,
            "time": 84.25,
            "velocity": 0.03937007874015748
          },
          {
            "duration": 0.125,
            "durationTicks": 96,
            "midi": 59,
            "name": "B3",
            "ticks": 64800,
            "time": 84.375,
            "velocity": 0.03937007874015748
          },
          {
            "duration": 0.125,
            "durationTicks": 96,
            "midi": 61,
            "name": "C#4",
            "ticks": 64992,
            "time": 84.625,
            "velocity": 0.03937007874015748
          },
          {
            "duration": 0.125,
            "durationTicks": 96,
            "midi": 59,
            "name": "B3",
            "ticks": 65184,
            "time": 84.875,
            "velocity": 0.03937007874015748
          },
          {
            "duration": 0.25,
            "durationTicks": 192,
            "midi": 61,
            "name": "C#4",
            "ticks": 65280,
            "time": 85,
            "velocity": 0.03937007874015748
          },
          {
            "duration": 0.25,
            "durationTicks": 192,
            "midi": 64,
            "name": "E4",
            "ticks": 65472,
            "time": 85.25,
            "velocity": 0.03937007874015748
          },
          {
            "duration": 0.75,
            "durationTicks": 576,
            "midi": 68,
            "name": "G#4",
            "ticks": 65664,
            "time": 85.5,
            "velocity": 0.03937007874015748
          },
          {
            "duration": 0.125,
            "durationTicks": 96,
            "midi": 56,
            "name": "G#3",
            "ticks": 67776,
            "time": 88.25,
            "velocity": 0.03937007874015748
          },
          {
            "duration": 0.125,
            "durationTicks": 96,
            "midi": 54,
            "name": "F#3",
            "ticks": 67872,
            "time": 88.375,
            "velocity": 0.03937007874015748
          },
          {
            "duration": 0.125,
            "durationTicks": 96,
            "midi": 56,
            "name": "G#3",
            "ticks": 67968,
            "time": 88.5,
            "velocity": 0.03937007874015748
          },
          {
            "duration": 0.125,
            "durationTicks": 96,
            "midi": 56,
            "name": "G#3",
            "ticks": 68160,
            "time": 88.75,
            "velocity": 0.03937007874015748
          },
          {
            "duration": 0.125,
            "durationTicks": 96,
            "midi": 54,
            "name": "F#3",
            "ticks": 68256,
            "time": 88.875,
            "velocity": 0.03937007874015748
          },
          {
            "duration": 0.125,
            "durationTicks": 96,
            "midi": 56,
            "name": "G#3",
            "ticks": 68352,
            "time": 89,
            "velocity": 0.03937007874015748
          },
          {
            "duration": 0.125,
            "durationTicks": 96,
            "midi": 56,
            "name": "G#3",
            "ticks": 68544,
            "time": 89.25,
            "velocity": 0.03937007874015748
          },
          {
            "duration": 0.125,
            "durationTicks": 96,
            "midi": 54,
            "name": "F#3",
            "ticks": 68640,
            "time": 89.375,
            "velocity": 0.03937007874015748
          },
          {
            "duration": 0.125,
            "durationTicks": 96,
            "midi": 56,
            "name": "G#3",
            "ticks": 68736,
            "time": 89.5,
            "velocity": 0.03937007874015748
          },
          {
            "duration": 0.125,
            "durationTicks": 96,
            "midi": 59,
            "name": "B3",
            "ticks": 68832,
            "time": 89.625,
            "velocity": 0.03937007874015748
          },
          {
            "duration": 0.125,
            "durationTicks": 96,
            "midi": 61,
            "name": "C#4",
            "ticks": 69024,
            "time": 89.875,
            "velocity": 0.03937007874015748
          },
          {
            "duration": 0.125,
            "durationTicks": 96,
            "midi": 61,
            "name": "C#4",
            "ticks": 69216,
            "time": 90.125,
            "velocity": 0.03937007874015748
          },
          {
            "duration": 0.125,
            "durationTicks": 96,
            "midi": 56,
            "name": "G#3",
            "ticks": 69312,
            "time": 90.25,
            "velocity": 0.03937007874015748
          },
          {
            "duration": 0.125,
            "durationTicks": 96,
            "midi": 54,
            "name": "F#3",
            "ticks": 69408,
            "time": 90.375,
            "velocity": 0.03937007874015748
          },
          {
            "duration": 0.125,
            "durationTicks": 96,
            "midi": 56,
            "name": "G#3",
            "ticks": 69504,
            "time": 90.5,
            "velocity": 0.03937007874015748
          },
          {
            "duration": 0.125,
            "durationTicks": 96,
            "midi": 56,
            "name": "G#3",
            "ticks": 69696,
            "time": 90.75,
            "velocity": 0.03937007874015748
          },
          {
            "duration": 0.125,
            "durationTicks": 96,
            "midi": 54,
            "name": "F#3",
            "ticks": 69792,
            "time": 90.875,
            "velocity": 0.03937007874015748
          },
          {
            "duration": 0.125,
            "durationTicks": 96,
            "midi": 56,
            "name": "G#3",
            "ticks": 69888,
            "time": 91,
            "velocity": 0.03937007874015748
          },
          {
            "duration": 0.125,
            "durationTicks": 96,
            "midi": 56,
            "name": "G#3",
            "ticks": 70080,
            "time": 91.25,
            "velocity": 0.03937007874015748
          },
          {
            "duration": 0.125,
            "durationTicks": 96,
            "midi": 54,
            "name": "F#3",
            "ticks": 70176,
            "time": 91.375,
            "velocity": 0.03937007874015748
          },
          {
            "duration": 0.125,
            "durationTicks": 96,
            "midi": 56,
            "name": "G#3",
            "ticks": 70272,
            "time": 91.5,
            "velocity": 0.03937007874015748
          },
          {
            "duration": 0.125,
            "durationTicks": 96,
            "midi": 59,
            "name": "B3",
            "ticks": 70368,
            "time": 91.625,
            "velocity": 0.03937007874015748
          },
          {
            "duration": 0.125,
            "durationTicks": 96,
            "midi": 61,
            "name": "C#4",
            "ticks": 70560,
            "time": 91.875,
            "velocity": 0.03937007874015748
          },
          {
            "duration": 0.125,
            "durationTicks": 96,
            "midi": 61,
            "name": "C#4",
            "ticks": 70752,
            "time": 92.125,
            "velocity": 0.03937007874015748
          },
          {
            "duration": 0.125,
            "durationTicks": 96,
            "midi": 56,
            "name": "G#3",
            "ticks": 70848,
            "time": 92.25,
            "velocity": 0.03937007874015748
          },
          {
            "duration": 0.125,
            "durationTicks": 96,
            "midi": 54,
            "name": "F#3",
            "ticks": 70944,
            "time": 92.375,
            "velocity": 0.03937007874015748
          },
          {
            "duration": 0.125,
            "durationTicks": 96,
            "midi": 56,
            "name": "G#3",
            "ticks": 71040,
            "time": 92.5,
            "velocity": 0.03937007874015748
          },
          {
            "duration": 0.125,
            "durationTicks": 96,
            "midi": 56,
            "name": "G#3",
            "ticks": 71232,
            "time": 92.75,
            "velocity": 0.03937007874015748
          },
          {
            "duration": 0.125,
            "durationTicks": 96,
            "midi": 54,
            "name": "F#3",
            "ticks": 71328,
            "time": 92.875,
            "velocity": 0.03937007874015748
          },
          {
            "duration": 0.125,
            "durationTicks": 96,
            "midi": 56,
            "name": "G#3",
            "ticks": 71424,
            "time": 93,
            "velocity": 0.03937007874015748
          },
          {
            "duration": 0.125,
            "durationTicks": 96,
            "midi": 56,
            "name": "G#3",
            "ticks": 71616,
            "time": 93.25,
            "velocity": 0.03937007874015748
          },
          {
            "duration": 0.125,
            "durationTicks": 96,
            "midi": 54,
            "name": "F#3",
            "ticks": 71712,
            "time": 93.375,
            "velocity": 0.03937007874015748
          },
          {
            "duration": 0.125,
            "durationTicks": 96,
            "midi": 56,
            "name": "G#3",
            "ticks": 71808,
            "time": 93.5,
            "velocity": 0.03937007874015748
          },
          {
            "duration": 0.125,
            "durationTicks": 96,
            "midi": 59,
            "name": "B3",
            "ticks": 71904,
            "time": 93.625,
            "velocity": 0.03937007874015748
          },
          {
            "duration": 0.125,
            "durationTicks": 96,
            "midi": 61,
            "name": "C#4",
            "ticks": 72096,
            "time": 93.875,
            "velocity": 0.03937007874015748
          },
          {
            "duration": 0.125,
            "durationTicks": 96,
            "midi": 61,
            "name": "C#4",
            "ticks": 72288,
            "time": 94.125,
            "velocity": 0.03937007874015748
          },
          {
            "duration": 0.125,
            "durationTicks": 96,
            "midi": 56,
            "name": "G#3",
            "ticks": 72384,
            "time": 94.25,
            "velocity": 0.03937007874015748
          },
          {
            "duration": 0.125,
            "durationTicks": 96,
            "midi": 54,
            "name": "F#3",
            "ticks": 72480,
            "time": 94.375,
            "velocity": 0.03937007874015748
          },
          {
            "duration": 0.125,
            "durationTicks": 96,
            "midi": 56,
            "name": "G#3",
            "ticks": 72576,
            "time": 94.5,
            "velocity": 0.03937007874015748
          },
          {
            "duration": 0.125,
            "durationTicks": 96,
            "midi": 56,
            "name": "G#3",
            "ticks": 72768,
            "time": 94.75,
            "velocity": 0.03937007874015748
          },
          {
            "duration": 0.125,
            "durationTicks": 96,
            "midi": 54,
            "name": "F#3",
            "ticks": 72864,
            "time": 94.875,
            "velocity": 0.03937007874015748
          },
          {
            "duration": 0.125,
            "durationTicks": 96,
            "midi": 56,
            "name": "G#3",
            "ticks": 72960,
            "time": 95,
            "velocity": 0.03937007874015748
          },
          {
            "duration": 0.125,
            "durationTicks": 96,
            "midi": 56,
            "name": "G#3",
            "ticks": 73152,
            "time": 95.25,
            "velocity": 0.03937007874015748
          },
          {
            "duration": 0.125,
            "durationTicks": 96,
            "midi": 54,
            "name": "F#3",
            "ticks": 73248,
            "time": 95.375,
            "velocity": 0.03937007874015748
          },
          {
            "duration": 0.125,
            "durationTicks": 96,
            "midi": 56,
            "name": "G#3",
            "ticks": 73344,
            "time": 95.5,
            "velocity": 0.03937007874015748
          },
          {
            "duration": 0.125,
            "durationTicks": 96,
            "midi": 59,
            "name": "B3",
            "ticks": 73440,
            "time": 95.625,
            "velocity": 0.03937007874015748
          },
          {
            "duration": 0.125,
            "durationTicks": 96,
            "midi": 61,
            "name": "C#4",
            "ticks": 73632,
            "time": 95.875,
            "velocity": 0.03937007874015748
          },
          {
            "duration": 0.125,
            "durationTicks": 96,
            "midi": 61,
            "name": "C#4",
            "ticks": 73824,
            "time": 96.125,
            "velocity": 0.03937007874015748
          },
          {
            "duration": 0.125,
            "durationTicks": 96,
            "midi": 56,
            "name": "G#3",
            "ticks": 73920,
            "time": 96.25,
            "velocity": 0.03937007874015748
          },
          {
            "duration": 0.125,
            "durationTicks": 96,
            "midi": 54,
            "name": "F#3",
            "ticks": 74016,
            "time": 96.375,
            "velocity": 0.03937007874015748
          },
          {
            "duration": 0.125,
            "durationTicks": 96,
            "midi": 56,
            "name": "G#3",
            "ticks": 74112,
            "time": 96.5,
            "velocity": 0.03937007874015748
          },
          {
            "duration": 0.125,
            "durationTicks": 96,
            "midi": 56,
            "name": "G#3",
            "ticks": 74304,
            "time": 96.75,
            "velocity": 0.03937007874015748
          },
          {
            "duration": 0.125,
            "durationTicks": 96,
            "midi": 54,
            "name": "F#3",
            "ticks": 74400,
            "time": 96.875,
            "velocity": 0.03937007874015748
          },
          {
            "duration": 0.125,
            "durationTicks": 96,
            "midi": 56,
            "name": "G#3",
            "ticks": 74496,
            "time": 97,
            "velocity": 0.03937007874015748
          },
          {
            "duration": 0.125,
            "durationTicks": 96,
            "midi": 56,
            "name": "G#3",
            "ticks": 74688,
            "time": 97.25,
            "velocity": 0.03937007874015748
          },
          {
            "duration": 0.125,
            "durationTicks": 96,
            "midi": 54,
            "name": "F#3",
            "ticks": 74784,
            "time": 97.375,
            "velocity": 0.03937007874015748
          },
          {
            "duration": 0.125,
            "durationTicks": 96,
            "midi": 56,
            "name": "G#3",
            "ticks": 74880,
            "time": 97.5,
            "velocity": 0.03937007874015748
          },
          {
            "duration": 0.125,
            "durationTicks": 96,
            "midi": 59,
            "name": "B3",
            "ticks": 74976,
            "time": 97.625,
            "velocity": 0.03937007874015748
          },
          {
            "duration": 0.125,
            "durationTicks": 96,
            "midi": 61,
            "name": "C#4",
            "ticks": 75168,
            "time": 97.875,
            "velocity": 0.03937007874015748
          },
          {
            "duration": 0.125,
            "durationTicks": 96,
            "midi": 61,
            "name": "C#4",
            "ticks": 75360,
            "time": 98.125,
            "velocity": 0.03937007874015748
          },
          {
            "duration": 0.125,
            "durationTicks": 96,
            "midi": 56,
            "name": "G#3",
            "ticks": 75456,
            "time": 98.25,
            "velocity": 0.03937007874015748
          },
          {
            "duration": 0.125,
            "durationTicks": 96,
            "midi": 54,
            "name": "F#3",
            "ticks": 75552,
            "time": 98.375,
            "velocity": 0.03937007874015748
          },
          {
            "duration": 0.125,
            "durationTicks": 96,
            "midi": 56,
            "name": "G#3",
            "ticks": 75648,
            "time": 98.5,
            "velocity": 0.03937007874015748
          },
          {
            "duration": 0.125,
            "durationTicks": 96,
            "midi": 56,
            "name": "G#3",
            "ticks": 75840,
            "time": 98.75,
            "velocity": 0.03937007874015748
          },
          {
            "duration": 0.125,
            "durationTicks": 96,
            "midi": 54,
            "name": "F#3",
            "ticks": 75936,
            "time": 98.875,
            "velocity": 0.03937007874015748
          },
          {
            "duration": 0.125,
            "durationTicks": 96,
            "midi": 56,
            "name": "G#3",
            "ticks": 76032,
            "time": 99,
            "velocity": 0.03937007874015748
          },
          {
            "duration": 0.125,
            "durationTicks": 96,
            "midi": 56,
            "name": "G#3",
            "ticks": 76224,
            "time": 99.25,
            "velocity": 0.03937007874015748
          },
          {
            "duration": 0.125,
            "durationTicks": 96,
            "midi": 54,
            "name": "F#3",
            "ticks": 76320,
            "time": 99.375,
            "velocity": 0.03937007874015748
          },
          {
            "duration": 0.125,
            "durationTicks": 96,
            "midi": 56,
            "name": "G#3",
            "ticks": 76416,
            "time": 99.5,
            "velocity": 0.03937007874015748
          },
          {
            "duration": 0.125,
            "durationTicks": 96,
            "midi": 59,
            "name": "B3",
            "ticks": 76512,
            "time": 99.625,
            "velocity": 0.03937007874015748
          },
          {
            "duration": 0.125,
            "durationTicks": 96,
            "midi": 61,
            "name": "C#4",
            "ticks": 76704,
            "time": 99.875,
            "velocity": 0.03937007874015748
          },
          {
            "duration": 0.125,
            "durationTicks": 96,
            "midi": 61,
            "name": "C#4",
            "ticks": 76896,
            "time": 100.125,
            "velocity": 0.03937007874015748
          },
          {
            "duration": 0.125,
            "durationTicks": 96,
            "midi": 56,
            "name": "G#3",
            "ticks": 76992,
            "time": 100.25,
            "velocity": 0.03937007874015748
          },
          {
            "duration": 0.125,
            "durationTicks": 96,
            "midi": 54,
            "name": "F#3",
            "ticks": 77088,
            "time": 100.375,
            "velocity": 0.03937007874015748
          },
          {
            "duration": 0.125,
            "durationTicks": 96,
            "midi": 56,
            "name": "G#3",
            "ticks": 77184,
            "time": 100.5,
            "velocity": 0.03937007874015748
          },
          {
            "duration": 0.125,
            "durationTicks": 96,
            "midi": 56,
            "name": "G#3",
            "ticks": 77376,
            "time": 100.75,
            "velocity": 0.03937007874015748
          },
          {
            "duration": 0.125,
            "durationTicks": 96,
            "midi": 54,
            "name": "F#3",
            "ticks": 77472,
            "time": 100.875,
            "velocity": 0.03937007874015748
          },
          {
            "duration": 0.125,
            "durationTicks": 96,
            "midi": 56,
            "name": "G#3",
            "ticks": 77568,
            "time": 101,
            "velocity": 0.03937007874015748
          },
          {
            "duration": 0.125,
            "durationTicks": 96,
            "midi": 56,
            "name": "G#3",
            "ticks": 77760,
            "time": 101.25,
            "velocity": 0.03937007874015748
          },
          {
            "duration": 0.125,
            "durationTicks": 96,
            "midi": 54,
            "name": "F#3",
            "ticks": 77856,
            "time": 101.375,
            "velocity": 0.03937007874015748
          },
          {
            "duration": 0.125,
            "durationTicks": 96,
            "midi": 56,
            "name": "G#3",
            "ticks": 77952,
            "time": 101.5,
            "velocity": 0.03937007874015748
          },
          {
            "duration": 0.125,
            "durationTicks": 96,
            "midi": 59,
            "name": "B3",
            "ticks": 78048,
            "time": 101.625,
            "velocity": 0.03937007874015748
          },
          {
            "duration": 0.125,
            "durationTicks": 96,
            "midi": 61,
            "name": "C#4",
            "ticks": 78240,
            "time": 101.875,
            "velocity": 0.03937007874015748
          },
          {
            "duration": 0.125,
            "durationTicks": 96,
            "midi": 61,
            "name": "C#4",
            "ticks": 78432,
            "time": 102.125,
            "velocity": 0.03937007874015748
          },
          {
            "duration": 0.125,
            "durationTicks": 96,
            "midi": 56,
            "name": "G#3",
            "ticks": 78528,
            "time": 102.25,
            "velocity": 0.03937007874015748
          },
          {
            "duration": 0.125,
            "durationTicks": 96,
            "midi": 54,
            "name": "F#3",
            "ticks": 78624,
            "time": 102.375,
            "velocity": 0.03937007874015748
          },
          {
            "duration": 0.125,
            "durationTicks": 96,
            "midi": 56,
            "name": "G#3",
            "ticks": 78720,
            "time": 102.5,
            "velocity": 0.03937007874015748
          },
          {
            "duration": 0.125,
            "durationTicks": 96,
            "midi": 56,
            "name": "G#3",
            "ticks": 78912,
            "time": 102.75,
            "velocity": 0.03937007874015748
          },
          {
            "duration": 0.125,
            "durationTicks": 96,
            "midi": 54,
            "name": "F#3",
            "ticks": 79008,
            "time": 102.875,
            "velocity": 0.03937007874015748
          },
          {
            "duration": 0.125,
            "durationTicks": 96,
            "midi": 56,
            "name": "G#3",
            "ticks": 79104,
            "time": 103,
            "velocity": 0.03937007874015748
          },
          {
            "duration": 0.125,
            "durationTicks": 96,
            "midi": 56,
            "name": "G#3",
            "ticks": 79296,
            "time": 103.25,
            "velocity": 0.03937007874015748
          },
          {
            "duration": 0.125,
            "durationTicks": 96,
            "midi": 54,
            "name": "F#3",
            "ticks": 79392,
            "time": 103.375,
            "velocity": 0.03937007874015748
          },
          {
            "duration": 0.125,
            "durationTicks": 96,
            "midi": 56,
            "name": "G#3",
            "ticks": 79488,
            "time": 103.5,
            "velocity": 0.03937007874015748
          },
          {
            "duration": 0.125,
            "durationTicks": 96,
            "midi": 59,
            "name": "B3",
            "ticks": 79584,
            "time": 103.625,
            "velocity": 0.03937007874015748
          },
          {
            "duration": 0.125,
            "durationTicks": 96,
            "midi": 61,
            "name": "C#4",
            "ticks": 79776,
            "time": 103.875,
            "velocity": 0.03937007874015748
          },
          {
            "duration": 0.125,
            "durationTicks": 96,
            "midi": 61,
            "name": "C#4",
            "ticks": 79968,
            "time": 104.125,
            "velocity": 0.03937007874015748
          },
          {
            "duration": 0.125,
            "durationTicks": 96,
            "midi": 56,
            "name": "G#3",
            "ticks": 80064,
            "time": 104.25,
            "velocity": 0.03937007874015748
          },
          {
            "duration": 0.125,
            "durationTicks": 96,
            "midi": 54,
            "name": "F#3",
            "ticks": 80160,
            "time": 104.375,
            "velocity": 0.03937007874015748
          },
          {
            "duration": 0.125,
            "durationTicks": 96,
            "midi": 56,
            "name": "G#3",
            "ticks": 80256,
            "time": 104.5,
            "velocity": 0.03937007874015748
          },
          {
            "duration": 0.125,
            "durationTicks": 96,
            "midi": 56,
            "name": "G#3",
            "ticks": 80448,
            "time": 104.75,
            "velocity": 0.03937007874015748
          },
          {
            "duration": 0.125,
            "durationTicks": 96,
            "midi": 54,
            "name": "F#3",
            "ticks": 80544,
            "time": 104.875,
            "velocity": 0.03937007874015748
          },
          {
            "duration": 0.125,
            "durationTicks": 96,
            "midi": 56,
            "name": "G#3",
            "ticks": 80640,
            "time": 105,
            "velocity": 0.03937007874015748
          },
          {
            "duration": 0.125,
            "durationTicks": 96,
            "midi": 56,
            "name": "G#3",
            "ticks": 80832,
            "time": 105.25,
            "velocity": 0.03937007874015748
          },
          {
            "duration": 0.125,
            "durationTicks": 96,
            "midi": 54,
            "name": "F#3",
            "ticks": 80928,
            "time": 105.375,
            "velocity": 0.03937007874015748
          },
          {
            "duration": 0.125,
            "durationTicks": 96,
            "midi": 56,
            "name": "G#3",
            "ticks": 81024,
            "time": 105.5,
            "velocity": 0.03937007874015748
          },
          {
            "duration": 0.125,
            "durationTicks": 96,
            "midi": 59,
            "name": "B3",
            "ticks": 81120,
            "time": 105.625,
            "velocity": 0.03937007874015748
          },
          {
            "duration": 0.125,
            "durationTicks": 96,
            "midi": 61,
            "name": "C#4",
            "ticks": 81312,
            "time": 105.875,
            "velocity": 0.03937007874015748
          },
          {
            "duration": 0.125,
            "durationTicks": 96,
            "midi": 61,
            "name": "C#4",
            "ticks": 81504,
            "time": 106.125,
            "velocity": 0.03937007874015748
          },
          {
            "duration": 0.125,
            "durationTicks": 96,
            "midi": 56,
            "name": "G#3",
            "ticks": 81600,
            "time": 106.25,
            "velocity": 0.03937007874015748
          },
          {
            "duration": 0.125,
            "durationTicks": 96,
            "midi": 54,
            "name": "F#3",
            "ticks": 81696,
            "time": 106.375,
            "velocity": 0.03937007874015748
          },
          {
            "duration": 0.125,
            "durationTicks": 96,
            "midi": 56,
            "name": "G#3",
            "ticks": 81792,
            "time": 106.5,
            "velocity": 0.03937007874015748
          },
          {
            "duration": 0.125,
            "durationTicks": 96,
            "midi": 56,
            "name": "G#3",
            "ticks": 81984,
            "time": 106.75,
            "velocity": 0.03937007874015748
          },
          {
            "duration": 0.125,
            "durationTicks": 96,
            "midi": 54,
            "name": "F#3",
            "ticks": 82080,
            "time": 106.875,
            "velocity": 0.03937007874015748
          },
          {
            "duration": 0.125,
            "durationTicks": 96,
            "midi": 56,
            "name": "G#3",
            "ticks": 82176,
            "time": 107,
            "velocity": 0.03937007874015748
          },
          {
            "duration": 0.125,
            "durationTicks": 96,
            "midi": 56,
            "name": "G#3",
            "ticks": 82368,
            "time": 107.25,
            "velocity": 0.03937007874015748
          },
          {
            "duration": 0.125,
            "durationTicks": 96,
            "midi": 54,
            "name": "F#3",
            "ticks": 82464,
            "time": 107.375,
            "velocity": 0.03937007874015748
          },
          {
            "duration": 0.125,
            "durationTicks": 96,
            "midi": 56,
            "name": "G#3",
            "ticks": 82560,
            "time": 107.5,
            "velocity": 0.03937007874015748
          },
          {
            "duration": 0.125,
            "durationTicks": 96,
            "midi": 59,
            "name": "B3",
            "ticks": 82656,
            "time": 107.625,
            "velocity": 0.03937007874015748
          },
          {
            "duration": 0.125,
            "durationTicks": 96,
            "midi": 61,
            "name": "C#4",
            "ticks": 82848,
            "time": 107.875,
            "velocity": 0.03937007874015748
          },
          {
            "duration": 0.125,
            "durationTicks": 96,
            "midi": 61,
            "name": "C#4",
            "ticks": 83040,
            "time": 108.125,
            "velocity": 0.03937007874015748
          },
          {
            "duration": 0.125,
            "durationTicks": 96,
            "midi": 56,
            "name": "G#3",
            "ticks": 83136,
            "time": 108.25,
            "velocity": 0.03937007874015748
          },
          {
            "duration": 0.125,
            "durationTicks": 96,
            "midi": 54,
            "name": "F#3",
            "ticks": 83232,
            "time": 108.375,
            "velocity": 0.03937007874015748
          },
          {
            "duration": 0.125,
            "durationTicks": 96,
            "midi": 56,
            "name": "G#3",
            "ticks": 83328,
            "time": 108.5,
            "velocity": 0.03937007874015748
          },
          {
            "duration": 0.125,
            "durationTicks": 96,
            "midi": 56,
            "name": "G#3",
            "ticks": 83520,
            "time": 108.75,
            "velocity": 0.03937007874015748
          },
          {
            "duration": 0.125,
            "durationTicks": 96,
            "midi": 54,
            "name": "F#3",
            "ticks": 83616,
            "time": 108.875,
            "velocity": 0.03937007874015748
          },
          {
            "duration": 0.125,
            "durationTicks": 96,
            "midi": 56,
            "name": "G#3",
            "ticks": 83712,
            "time": 109,
            "velocity": 0.03937007874015748
          },
          {
            "duration": 0.125,
            "durationTicks": 96,
            "midi": 56,
            "name": "G#3",
            "ticks": 83904,
            "time": 109.25,
            "velocity": 0.03937007874015748
          },
          {
            "duration": 0.125,
            "durationTicks": 96,
            "midi": 54,
            "name": "F#3",
            "ticks": 84000,
            "time": 109.375,
            "velocity": 0.03937007874015748
          },
          {
            "duration": 0.125,
            "durationTicks": 96,
            "midi": 56,
            "name": "G#3",
            "ticks": 84096,
            "time": 109.5,
            "velocity": 0.03937007874015748
          },
          {
            "duration": 0.125,
            "durationTicks": 96,
            "midi": 59,
            "name": "B3",
            "ticks": 84192,
            "time": 109.625,
            "velocity": 0.03937007874015748
          },
          {
            "duration": 0.125,
            "durationTicks": 96,
            "midi": 61,
            "name": "C#4",
            "ticks": 84384,
            "time": 109.875,
            "velocity": 0.03937007874015748
          },
          {
            "duration": 0.125,
            "durationTicks": 96,
            "midi": 61,
            "name": "C#4",
            "ticks": 84576,
            "time": 110.125,
            "velocity": 0.03937007874015748
          },
          {
            "duration": 0.125,
            "durationTicks": 96,
            "midi": 56,
            "name": "G#3",
            "ticks": 84672,
            "time": 110.25,
            "velocity": 0.03937007874015748
          },
          {
            "duration": 0.125,
            "durationTicks": 96,
            "midi": 54,
            "name": "F#3",
            "ticks": 84768,
            "time": 110.375,
            "velocity": 0.03937007874015748
          },
          {
            "duration": 0.125,
            "durationTicks": 96,
            "midi": 56,
            "name": "G#3",
            "ticks": 84864,
            "time": 110.5,
            "velocity": 0.03937007874015748
          },
          {
            "duration": 0.125,
            "durationTicks": 96,
            "midi": 56,
            "name": "G#3",
            "ticks": 85056,
            "time": 110.75,
            "velocity": 0.03937007874015748
          },
          {
            "duration": 0.125,
            "durationTicks": 96,
            "midi": 54,
            "name": "F#3",
            "ticks": 85152,
            "time": 110.875,
            "velocity": 0.03937007874015748
          },
          {
            "duration": 0.125,
            "durationTicks": 96,
            "midi": 56,
            "name": "G#3",
            "ticks": 85248,
            "time": 111,
            "velocity": 0.03937007874015748
          },
          {
            "duration": 0.125,
            "durationTicks": 96,
            "midi": 56,
            "name": "G#3",
            "ticks": 85440,
            "time": 111.25,
            "velocity": 0.03937007874015748
          },
          {
            "duration": 0.125,
            "durationTicks": 96,
            "midi": 54,
            "name": "F#3",
            "ticks": 85536,
            "time": 111.375,
            "velocity": 0.03937007874015748
          },
          {
            "duration": 0.125,
            "durationTicks": 96,
            "midi": 56,
            "name": "G#3",
            "ticks": 85632,
            "time": 111.5,
            "velocity": 0.03937007874015748
          },
          {
            "duration": 0.125,
            "durationTicks": 96,
            "midi": 59,
            "name": "B3",
            "ticks": 85728,
            "time": 111.625,
            "velocity": 0.03937007874015748
          },
          {
            "duration": 0.125,
            "durationTicks": 96,
            "midi": 61,
            "name": "C#4",
            "ticks": 85920,
            "time": 111.875,
            "velocity": 0.03937007874015748
          },
          {
            "duration": 0.125,
            "durationTicks": 96,
            "midi": 61,
            "name": "C#4",
            "ticks": 86112,
            "time": 112.125,
            "velocity": 0.03937007874015748
          },
          {
            "duration": 0.125,
            "durationTicks": 96,
            "midi": 56,
            "name": "G#3",
            "ticks": 86208,
            "time": 112.25,
            "velocity": 0.03937007874015748
          },
          {
            "duration": 0.125,
            "durationTicks": 96,
            "midi": 54,
            "name": "F#3",
            "ticks": 86304,
            "time": 112.375,
            "velocity": 0.03937007874015748
          },
          {
            "duration": 0.125,
            "durationTicks": 96,
            "midi": 56,
            "name": "G#3",
            "ticks": 86400,
            "time": 112.5,
            "velocity": 0.03937007874015748
          },
          {
            "duration": 0.125,
            "durationTicks": 96,
            "midi": 56,
            "name": "G#3",
            "ticks": 86592,
            "time": 112.75,
            "velocity": 0.03937007874015748
          },
          {
            "duration": 0.125,
            "durationTicks": 96,
            "midi": 54,
            "name": "F#3",
            "ticks": 86688,
            "time": 112.875,
            "velocity": 0.03937007874015748
          },
          {
            "duration": 0.125,
            "durationTicks": 96,
            "midi": 56,
            "name": "G#3",
            "ticks": 86784,
            "time": 113,
            "velocity": 0.03937007874015748
          },
          {
            "duration": 0.125,
            "durationTicks": 96,
            "midi": 56,
            "name": "G#3",
            "ticks": 86976,
            "time": 113.25,
            "velocity": 0.03937007874015748
          },
          {
            "duration": 0.125,
            "durationTicks": 96,
            "midi": 54,
            "name": "F#3",
            "ticks": 87072,
            "time": 113.375,
            "velocity": 0.03937007874015748
          },
          {
            "duration": 0.125,
            "durationTicks": 96,
            "midi": 56,
            "name": "G#3",
            "ticks": 87168,
            "time": 113.5,
            "velocity": 0.03937007874015748
          },
          {
            "duration": 0.125,
            "durationTicks": 96,
            "midi": 59,
            "name": "B3",
            "ticks": 87264,
            "time": 113.625,
            "velocity": 0.03937007874015748
          },
          {
            "duration": 0.125,
            "durationTicks": 96,
            "midi": 61,
            "name": "C#4",
            "ticks": 87456,
            "time": 113.875,
            "velocity": 0.03937007874015748
          },
          {
            "duration": 0.125,
            "durationTicks": 96,
            "midi": 61,
            "name": "C#4",
            "ticks": 87648,
            "time": 114.125,
            "velocity": 0.03937007874015748
          },
          {
            "duration": 0.125,
            "durationTicks": 96,
            "midi": 56,
            "name": "G#3",
            "ticks": 87744,
            "time": 114.25,
            "velocity": 0.03937007874015748
          },
          {
            "duration": 0.125,
            "durationTicks": 96,
            "midi": 54,
            "name": "F#3",
            "ticks": 87840,
            "time": 114.375,
            "velocity": 0.03937007874015748
          },
          {
            "duration": 0.125,
            "durationTicks": 96,
            "midi": 56,
            "name": "G#3",
            "ticks": 87936,
            "time": 114.5,
            "velocity": 0.03937007874015748
          },
          {
            "duration": 0.125,
            "durationTicks": 96,
            "midi": 56,
            "name": "G#3",
            "ticks": 88128,
            "time": 114.75,
            "velocity": 0.03937007874015748
          },
          {
            "duration": 0.125,
            "durationTicks": 96,
            "midi": 54,
            "name": "F#3",
            "ticks": 88224,
            "time": 114.875,
            "velocity": 0.03937007874015748
          },
          {
            "duration": 0.125,
            "durationTicks": 96,
            "midi": 56,
            "name": "G#3",
            "ticks": 88320,
            "time": 115,
            "velocity": 0.03937007874015748
          },
          {
            "duration": 0.125,
            "durationTicks": 96,
            "midi": 56,
            "name": "G#3",
            "ticks": 88512,
            "time": 115.25,
            "velocity": 0.03937007874015748
          },
          {
            "duration": 0.125,
            "durationTicks": 96,
            "midi": 54,
            "name": "F#3",
            "ticks": 88608,
            "time": 115.375,
            "velocity": 0.03937007874015748
          },
          {
            "duration": 0.125,
            "durationTicks": 96,
            "midi": 56,
            "name": "G#3",
            "ticks": 88704,
            "time": 115.5,
            "velocity": 0.03937007874015748
          },
          {
            "duration": 0.125,
            "durationTicks": 96,
            "midi": 59,
            "name": "B3",
            "ticks": 88800,
            "time": 115.625,
            "velocity": 0.03937007874015748
          },
          {
            "duration": 0.125,
            "durationTicks": 96,
            "midi": 61,
            "name": "C#4",
            "ticks": 88992,
            "time": 115.875,
            "velocity": 0.03937007874015748
          },
          {
            "duration": 0.125,
            "durationTicks": 96,
            "midi": 61,
            "name": "C#4",
            "ticks": 89184,
            "time": 116.125,
            "velocity": 0.03937007874015748
          },
          {
            "duration": 0.125,
            "durationTicks": 96,
            "midi": 56,
            "name": "G#3",
            "ticks": 89280,
            "time": 116.25,
            "velocity": 0.03937007874015748
          },
          {
            "duration": 0.125,
            "durationTicks": 96,
            "midi": 54,
            "name": "F#3",
            "ticks": 89376,
            "time": 116.375,
            "velocity": 0.03937007874015748
          },
          {
            "duration": 0.125,
            "durationTicks": 96,
            "midi": 56,
            "name": "G#3",
            "ticks": 89472,
            "time": 116.5,
            "velocity": 0.03937007874015748
          },
          {
            "duration": 0.125,
            "durationTicks": 96,
            "midi": 56,
            "name": "G#3",
            "ticks": 89664,
            "time": 116.75,
            "velocity": 0.03937007874015748
          },
          {
            "duration": 0.125,
            "durationTicks": 96,
            "midi": 54,
            "name": "F#3",
            "ticks": 89760,
            "time": 116.875,
            "velocity": 0.03937007874015748
          },
          {
            "duration": 0.125,
            "durationTicks": 96,
            "midi": 56,
            "name": "G#3",
            "ticks": 89856,
            "time": 117,
            "velocity": 0.03937007874015748
          },
          {
            "duration": 0.125,
            "durationTicks": 96,
            "midi": 56,
            "name": "G#3",
            "ticks": 90048,
            "time": 117.25,
            "velocity": 0.03937007874015748
          },
          {
            "duration": 0.125,
            "durationTicks": 96,
            "midi": 54,
            "name": "F#3",
            "ticks": 90144,
            "time": 117.375,
            "velocity": 0.03937007874015748
          },
          {
            "duration": 0.125,
            "durationTicks": 96,
            "midi": 56,
            "name": "G#3",
            "ticks": 90240,
            "time": 117.5,
            "velocity": 0.03937007874015748
          },
          {
            "duration": 0.125,
            "durationTicks": 96,
            "midi": 59,
            "name": "B3",
            "ticks": 90336,
            "time": 117.625,
            "velocity": 0.03937007874015748
          },
          {
            "duration": 0.125,
            "durationTicks": 96,
            "midi": 61,
            "name": "C#4",
            "ticks": 90528,
            "time": 117.875,
            "velocity": 0.03937007874015748
          },
          {
            "duration": 0.125,
            "durationTicks": 96,
            "midi": 61,
            "name": "C#4",
            "ticks": 90720,
            "time": 118.125,
            "velocity": 0.03937007874015748
          },
          {
            "duration": 0.125,
            "durationTicks": 96,
            "midi": 56,
            "name": "G#3",
            "ticks": 90816,
            "time": 118.25,
            "velocity": 0.03937007874015748
          },
          {
            "duration": 0.125,
            "durationTicks": 96,
            "midi": 54,
            "name": "F#3",
            "ticks": 90912,
            "time": 118.375,
            "velocity": 0.03937007874015748
          },
          {
            "duration": 0.125,
            "durationTicks": 96,
            "midi": 56,
            "name": "G#3",
            "ticks": 91008,
            "time": 118.5,
            "velocity": 0.03937007874015748
          },
          {
            "duration": 0.125,
            "durationTicks": 96,
            "midi": 56,
            "name": "G#3",
            "ticks": 91200,
            "time": 118.75,
            "velocity": 0.03937007874015748
          },
          {
            "duration": 0.125,
            "durationTicks": 96,
            "midi": 54,
            "name": "F#3",
            "ticks": 91296,
            "time": 118.875,
            "velocity": 0.03937007874015748
          },
          {
            "duration": 0.125,
            "durationTicks": 96,
            "midi": 56,
            "name": "G#3",
            "ticks": 91392,
            "time": 119,
            "velocity": 0.03937007874015748
          },
          {
            "duration": 0.125,
            "durationTicks": 96,
            "midi": 56,
            "name": "G#3",
            "ticks": 91584,
            "time": 119.25,
            "velocity": 0.03937007874015748
          },
          {
            "duration": 0.125,
            "durationTicks": 96,
            "midi": 54,
            "name": "F#3",
            "ticks": 91680,
            "time": 119.375,
            "velocity": 0.03937007874015748
          },
          {
            "duration": 0.125,
            "durationTicks": 96,
            "midi": 56,
            "name": "G#3",
            "ticks": 91776,
            "time": 119.5,
            "velocity": 0.03937007874015748
          },
          {
            "duration": 0.125,
            "durationTicks": 96,
            "midi": 59,
            "name": "B3",
            "ticks": 91872,
            "time": 119.625,
            "velocity": 0.03937007874015748
          },
          {
            "duration": 0.125,
            "durationTicks": 96,
            "midi": 61,
            "name": "C#4",
            "ticks": 92064,
            "time": 119.875,
            "velocity": 0.03937007874015748
          },
          {
            "duration": 0.125,
            "durationTicks": 96,
            "midi": 61,
            "name": "C#4",
            "ticks": 92256,
            "time": 120.125,
            "velocity": 0.03937007874015748
          },
          {
            "duration": 0.125,
            "durationTicks": 96,
            "midi": 56,
            "name": "G#3",
            "ticks": 92352,
            "time": 120.25,
            "velocity": 0.03937007874015748
          },
          {
            "duration": 0.125,
            "durationTicks": 96,
            "midi": 54,
            "name": "F#3",
            "ticks": 92448,
            "time": 120.375,
            "velocity": 0.03937007874015748
          },
          {
            "duration": 0.125,
            "durationTicks": 96,
            "midi": 56,
            "name": "G#3",
            "ticks": 92544,
            "time": 120.5,
            "velocity": 0.03937007874015748
          },
          {
            "duration": 0.125,
            "durationTicks": 96,
            "midi": 56,
            "name": "G#3",
            "ticks": 92736,
            "time": 120.75,
            "velocity": 0.03937007874015748
          },
          {
            "duration": 0.125,
            "durationTicks": 96,
            "midi": 54,
            "name": "F#3",
            "ticks": 92832,
            "time": 120.875,
            "velocity": 0.03937007874015748
          },
          {
            "duration": 0.125,
            "durationTicks": 96,
            "midi": 56,
            "name": "G#3",
            "ticks": 92928,
            "time": 121,
            "velocity": 0.03937007874015748
          },
          {
            "duration": 0.125,
            "durationTicks": 96,
            "midi": 56,
            "name": "G#3",
            "ticks": 93120,
            "time": 121.25,
            "velocity": 0.03937007874015748
          },
          {
            "duration": 0.125,
            "durationTicks": 96,
            "midi": 54,
            "name": "F#3",
            "ticks": 93216,
            "time": 121.375,
            "velocity": 0.03937007874015748
          },
          {
            "duration": 0.125,
            "durationTicks": 96,
            "midi": 56,
            "name": "G#3",
            "ticks": 93312,
            "time": 121.5,
            "velocity": 0.03937007874015748
          },
          {
            "duration": 0.125,
            "durationTicks": 96,
            "midi": 59,
            "name": "B3",
            "ticks": 93408,
            "time": 121.625,
            "velocity": 0.03937007874015748
          },
          {
            "duration": 0.125,
            "durationTicks": 96,
            "midi": 61,
            "name": "C#4",
            "ticks": 93600,
            "time": 121.875,
            "velocity": 0.03937007874015748
          },
          {
            "duration": 0.125,
            "durationTicks": 96,
            "midi": 61,
            "name": "C#4",
            "ticks": 93792,
            "time": 122.125,
            "velocity": 0.03937007874015748
          },
          {
            "duration": 0.125,
            "durationTicks": 96,
            "midi": 56,
            "name": "G#3",
            "ticks": 93888,
            "time": 122.25,
            "velocity": 0.03937007874015748
          },
          {
            "duration": 0.125,
            "durationTicks": 96,
            "midi": 54,
            "name": "F#3",
            "ticks": 93984,
            "time": 122.375,
            "velocity": 0.03937007874015748
          },
          {
            "duration": 0.125,
            "durationTicks": 96,
            "midi": 56,
            "name": "G#3",
            "ticks": 94080,
            "time": 122.5,
            "velocity": 0.03937007874015748
          },
          {
            "duration": 0.125,
            "durationTicks": 96,
            "midi": 56,
            "name": "G#3",
            "ticks": 94272,
            "time": 122.75,
            "velocity": 0.03937007874015748
          },
          {
            "duration": 0.125,
            "durationTicks": 96,
            "midi": 54,
            "name": "F#3",
            "ticks": 94368,
            "time": 122.875,
            "velocity": 0.03937007874015748
          },
          {
            "duration": 0.125,
            "durationTicks": 96,
            "midi": 56,
            "name": "G#3",
            "ticks": 94464,
            "time": 123,
            "velocity": 0.03937007874015748
          },
          {
            "duration": 0.125,
            "durationTicks": 96,
            "midi": 56,
            "name": "G#3",
            "ticks": 94656,
            "time": 123.25,
            "velocity": 0.03937007874015748
          },
          {
            "duration": 0.125,
            "durationTicks": 96,
            "midi": 54,
            "name": "F#3",
            "ticks": 94752,
            "time": 123.375,
            "velocity": 0.03937007874015748
          },
          {
            "duration": 0.125,
            "durationTicks": 96,
            "midi": 56,
            "name": "G#3",
            "ticks": 94848,
            "time": 123.5,
            "velocity": 0.03937007874015748
          },
          {
            "duration": 0.125,
            "durationTicks": 96,
            "midi": 59,
            "name": "B3",
            "ticks": 94944,
            "time": 123.625,
            "velocity": 0.03937007874015748
          },
          {
            "duration": 0.125,
            "durationTicks": 96,
            "midi": 61,
            "name": "C#4",
            "ticks": 95136,
            "time": 123.875,
            "velocity": 0.03937007874015748
          },
          {
            "duration": 0.125,
            "durationTicks": 96,
            "midi": 61,
            "name": "C#4",
            "ticks": 95328,
            "time": 124.125,
            "velocity": 0.03937007874015748
          },
          {
            "duration": 0.125,
            "durationTicks": 96,
            "midi": 56,
            "name": "G#3",
            "ticks": 95424,
            "time": 124.25,
            "velocity": 0.03937007874015748
          },
          {
            "duration": 0.125,
            "durationTicks": 96,
            "midi": 54,
            "name": "F#3",
            "ticks": 95520,
            "time": 124.375,
            "velocity": 0.03937007874015748
          },
          {
            "duration": 0.125,
            "durationTicks": 96,
            "midi": 56,
            "name": "G#3",
            "ticks": 95616,
            "time": 124.5,
            "velocity": 0.03937007874015748
          },
          {
            "duration": 0.125,
            "durationTicks": 96,
            "midi": 56,
            "name": "G#3",
            "ticks": 95808,
            "time": 124.75,
            "velocity": 0.03937007874015748
          },
          {
            "duration": 0.125,
            "durationTicks": 96,
            "midi": 54,
            "name": "F#3",
            "ticks": 95904,
            "time": 124.875,
            "velocity": 0.03937007874015748
          },
          {
            "duration": 0.125,
            "durationTicks": 96,
            "midi": 56,
            "name": "G#3",
            "ticks": 96000,
            "time": 125,
            "velocity": 0.03937007874015748
          },
          {
            "duration": 0.125,
            "durationTicks": 96,
            "midi": 56,
            "name": "G#3",
            "ticks": 96192,
            "time": 125.25,
            "velocity": 0.03937007874015748
          },
          {
            "duration": 0.125,
            "durationTicks": 96,
            "midi": 54,
            "name": "F#3",
            "ticks": 96288,
            "time": 125.375,
            "velocity": 0.03937007874015748
          },
          {
            "duration": 0.125,
            "durationTicks": 96,
            "midi": 56,
            "name": "G#3",
            "ticks": 96384,
            "time": 125.5,
            "velocity": 0.03937007874015748
          },
          {
            "duration": 0.125,
            "durationTicks": 96,
            "midi": 59,
            "name": "B3",
            "ticks": 96480,
            "time": 125.625,
            "velocity": 0.03937007874015748
          },
          {
            "duration": 0.125,
            "durationTicks": 96,
            "midi": 61,
            "name": "C#4",
            "ticks": 96672,
            "time": 125.875,
            "velocity": 0.03937007874015748
          },
          {
            "duration": 0.125,
            "durationTicks": 96,
            "midi": 61,
            "name": "C#4",
            "ticks": 96864,
            "time": 126.125,
            "velocity": 0.03937007874015748
          },
          {
            "duration": 0.125,
            "durationTicks": 96,
            "midi": 56,
            "name": "G#3",
            "ticks": 96960,
            "time": 126.25,
            "velocity": 0.03937007874015748
          },
          {
            "duration": 0.125,
            "durationTicks": 96,
            "midi": 54,
            "name": "F#3",
            "ticks": 97056,
            "time": 126.375,
            "velocity": 0.03937007874015748
          },
          {
            "duration": 0.125,
            "durationTicks": 96,
            "midi": 56,
            "name": "G#3",
            "ticks": 97152,
            "time": 126.5,
            "velocity": 0.03937007874015748
          },
          {
            "duration": 0.125,
            "durationTicks": 96,
            "midi": 56,
            "name": "G#3",
            "ticks": 97344,
            "time": 126.75,
            "velocity": 0.03937007874015748
          },
          {
            "duration": 0.125,
            "durationTicks": 96,
            "midi": 54,
            "name": "F#3",
            "ticks": 97440,
            "time": 126.875,
            "velocity": 0.03937007874015748
          },
          {
            "duration": 0.125,
            "durationTicks": 96,
            "midi": 56,
            "name": "G#3",
            "ticks": 97536,
            "time": 127,
            "velocity": 0.03937007874015748
          },
          {
            "duration": 0.125,
            "durationTicks": 96,
            "midi": 56,
            "name": "G#3",
            "ticks": 97728,
            "time": 127.25,
            "velocity": 0.03937007874015748
          },
          {
            "duration": 0.125,
            "durationTicks": 96,
            "midi": 54,
            "name": "F#3",
            "ticks": 97824,
            "time": 127.375,
            "velocity": 0.03937007874015748
          },
          {
            "duration": 0.125,
            "durationTicks": 96,
            "midi": 56,
            "name": "G#3",
            "ticks": 97920,
            "time": 127.5,
            "velocity": 0.03937007874015748
          },
          {
            "duration": 0.125,
            "durationTicks": 96,
            "midi": 59,
            "name": "B3",
            "ticks": 98016,
            "time": 127.625,
            "velocity": 0.03937007874015748
          },
          {
            "duration": 0.125,
            "durationTicks": 96,
            "midi": 61,
            "name": "C#4",
            "ticks": 98208,
            "time": 127.875,
            "velocity": 0.03937007874015748
          },
          {
            "duration": 0.125,
            "durationTicks": 96,
            "midi": 61,
            "name": "C#4",
            "ticks": 98496,
            "time": 128.25,
            "velocity": 0.03937007874015748
          },
          {
            "duration": 0.125,
            "durationTicks": 96,
            "midi": 59,
            "name": "B3",
            "ticks": 98592,
            "time": 128.375,
            "velocity": 0.03937007874015748
          },
          {
            "duration": 0.125,
            "durationTicks": 96,
            "midi": 61,
            "name": "C#4",
            "ticks": 98784,
            "time": 128.625,
            "velocity": 0.03937007874015748
          },
          {
            "duration": 0.125,
            "durationTicks": 96,
            "midi": 59,
            "name": "B3",
            "ticks": 98976,
            "time": 128.875,
            "velocity": 0.03937007874015748
          },
          {
            "duration": 0.25,
            "durationTicks": 192,
            "midi": 61,
            "name": "C#4",
            "ticks": 99072,
            "time": 129,
            "velocity": 0.03937007874015748
          },
          {
            "duration": 0.25,
            "durationTicks": 192,
            "midi": 64,
            "name": "E4",
            "ticks": 99264,
            "time": 129.25,
            "velocity": 0.03937007874015748
          },
          {
            "duration": 0.75,
            "durationTicks": 576,
            "midi": 68,
            "name": "G#4",
            "ticks": 99456,
            "time": 129.5,
            "velocity": 0.03937007874015748
          },
          {
            "duration": 0.125,
            "durationTicks": 96,
            "midi": 61,
            "name": "C#4",
            "ticks": 100032,
            "time": 130.25,
            "velocity": 0.03937007874015748
          },
          {
            "duration": 0.125,
            "durationTicks": 96,
            "midi": 59,
            "name": "B3",
            "ticks": 100128,
            "time": 130.375,
            "velocity": 0.03937007874015748
          },
          {
            "duration": 0.125,
            "durationTicks": 96,
            "midi": 61,
            "name": "C#4",
            "ticks": 100320,
            "time": 130.625,
            "velocity": 0.03937007874015748
          },
          {
            "duration": 0.125,
            "durationTicks": 96,
            "midi": 59,
            "name": "B3",
            "ticks": 100512,
            "time": 130.875,
            "velocity": 0.03937007874015748
          },
          {
            "duration": 0.25,
            "durationTicks": 192,
            "midi": 61,
            "name": "C#4",
            "ticks": 100608,
            "time": 131,
            "velocity": 0.03937007874015748
          },
          {
            "duration": 0.25,
            "durationTicks": 192,
            "midi": 64,
            "name": "E4",
            "ticks": 100800,
            "time": 131.25,
            "velocity": 0.03937007874015748
          },
          {
            "duration": 0.75,
            "durationTicks": 576,
            "midi": 68,
            "name": "G#4",
            "ticks": 100992,
            "time": 131.5,
            "velocity": 0.03937007874015748
          },
          {
            "duration": 0.125,
            "durationTicks": 96,
            "midi": 61,
            "name": "C#4",
            "ticks": 101568,
            "time": 132.25,
            "velocity": 0.03937007874015748
          },
          {
            "duration": 0.125,
            "durationTicks": 96,
            "midi": 59,
            "name": "B3",
            "ticks": 101664,
            "time": 132.375,
            "velocity": 0.03937007874015748
          },
          {
            "duration": 0.125,
            "durationTicks": 96,
            "midi": 61,
            "name": "C#4",
            "ticks": 101856,
            "time": 132.625,
            "velocity": 0.03937007874015748
          },
          {
            "duration": 0.125,
            "durationTicks": 96,
            "midi": 59,
            "name": "B3",
            "ticks": 102048,
            "time": 132.875,
            "velocity": 0.03937007874015748
          },
          {
            "duration": 0.25,
            "durationTicks": 192,
            "midi": 61,
            "name": "C#4",
            "ticks": 102144,
            "time": 133,
            "velocity": 0.03937007874015748
          },
          {
            "duration": 0.25,
            "durationTicks": 192,
            "midi": 64,
            "name": "E4",
            "ticks": 102336,
            "time": 133.25,
            "velocity": 0.03937007874015748
          },
          {
            "duration": 0.75,
            "durationTicks": 576,
            "midi": 68,
            "name": "G#4",
            "ticks": 102528,
            "time": 133.5,
            "velocity": 0.03937007874015748
          },
          {
            "duration": 0.125,
            "durationTicks": 96,
            "midi": 61,
            "name": "C#4",
            "ticks": 103104,
            "time": 134.25,
            "velocity": 0.03937007874015748
          },
          {
            "duration": 0.125,
            "durationTicks": 96,
            "midi": 59,
            "name": "B3",
            "ticks": 103200,
            "time": 134.375,
            "velocity": 0.03937007874015748
          },
          {
            "duration": 0.125,
            "durationTicks": 96,
            "midi": 61,
            "name": "C#4",
            "ticks": 103392,
            "time": 134.625,
            "velocity": 0.03937007874015748
          },
          {
            "duration": 0.125,
            "durationTicks": 96,
            "midi": 59,
            "name": "B3",
            "ticks": 103584,
            "time": 134.875,
            "velocity": 0.03937007874015748
          },
          {
            "duration": 0.25,
            "durationTicks": 192,
            "midi": 61,
            "name": "C#4",
            "ticks": 103680,
            "time": 135,
            "velocity": 0.03937007874015748
          },
          {
            "duration": 0.25,
            "durationTicks": 192,
            "midi": 64,
            "name": "E4",
            "ticks": 103872,
            "time": 135.25,
            "velocity": 0.03937007874015748
          },
          {
            "duration": 0.75,
            "durationTicks": 576,
            "midi": 68,
            "name": "G#4",
            "ticks": 104064,
            "time": 135.5,
            "velocity": 0.03937007874015748
          },
          {
            "duration": 0.125,
            "durationTicks": 96,
            "midi": 61,
            "name": "C#4",
            "ticks": 104640,
            "time": 136.25,
            "velocity": 0.03937007874015748
          },
          {
            "duration": 0.125,
            "durationTicks": 96,
            "midi": 59,
            "name": "B3",
            "ticks": 104736,
            "time": 136.375,
            "velocity": 0.03937007874015748
          },
          {
            "duration": 0.125,
            "durationTicks": 96,
            "midi": 61,
            "name": "C#4",
            "ticks": 104928,
            "time": 136.625,
            "velocity": 0.03937007874015748
          },
          {
            "duration": 0.125,
            "durationTicks": 96,
            "midi": 59,
            "name": "B3",
            "ticks": 105120,
            "time": 136.875,
            "velocity": 0.03937007874015748
          },
          {
            "duration": 0.25,
            "durationTicks": 192,
            "midi": 61,
            "name": "C#4",
            "ticks": 105216,
            "time": 137,
            "velocity": 0.03937007874015748
          },
          {
            "duration": 0.25,
            "durationTicks": 192,
            "midi": 64,
            "name": "E4",
            "ticks": 105408,
            "time": 137.25,
            "velocity": 0.03937007874015748
          },
          {
            "duration": 0.75,
            "durationTicks": 576,
            "midi": 68,
            "name": "G#4",
            "ticks": 105600,
            "time": 137.5,
            "velocity": 0.03937007874015748
          },
          {
            "duration": 0.125,
            "durationTicks": 96,
            "midi": 61,
            "name": "C#4",
            "ticks": 106176,
            "time": 138.25,
            "velocity": 0.03937007874015748
          },
          {
            "duration": 0.125,
            "durationTicks": 96,
            "midi": 59,
            "name": "B3",
            "ticks": 106272,
            "time": 138.375,
            "velocity": 0.03937007874015748
          },
          {
            "duration": 0.125,
            "durationTicks": 96,
            "midi": 61,
            "name": "C#4",
            "ticks": 106464,
            "time": 138.625,
            "velocity": 0.03937007874015748
          },
          {
            "duration": 0.125,
            "durationTicks": 96,
            "midi": 59,
            "name": "B3",
            "ticks": 106656,
            "time": 138.875,
            "velocity": 0.03937007874015748
          },
          {
            "duration": 0.25,
            "durationTicks": 192,
            "midi": 61,
            "name": "C#4",
            "ticks": 106752,
            "time": 139,
            "velocity": 0.03937007874015748
          },
          {
            "duration": 0.25,
            "durationTicks": 192,
            "midi": 64,
            "name": "E4",
            "ticks": 106944,
            "time": 139.25,
            "velocity": 0.03937007874015748
          },
          {
            "duration": 0.75,
            "durationTicks": 576,
            "midi": 68,
            "name": "G#4",
            "ticks": 107136,
            "time": 139.5,
            "velocity": 0.03937007874015748
          },
          {
            "duration": 0.125,
            "durationTicks": 96,
            "midi": 61,
            "name": "C#4",
            "ticks": 107712,
            "time": 140.25,
            "velocity": 0.03937007874015748
          },
          {
            "duration": 0.125,
            "durationTicks": 96,
            "midi": 59,
            "name": "B3",
            "ticks": 107808,
            "time": 140.375,
            "velocity": 0.03937007874015748
          },
          {
            "duration": 0.125,
            "durationTicks": 96,
            "midi": 61,
            "name": "C#4",
            "ticks": 108000,
            "time": 140.625,
            "velocity": 0.03937007874015748
          },
          {
            "duration": 0.125,
            "durationTicks": 96,
            "midi": 59,
            "name": "B3",
            "ticks": 108192,
            "time": 140.875,
            "velocity": 0.03937007874015748
          },
          {
            "duration": 0.25,
            "durationTicks": 192,
            "midi": 61,
            "name": "C#4",
            "ticks": 108288,
            "time": 141,
            "velocity": 0.03937007874015748
          },
          {
            "duration": 0.25,
            "durationTicks": 192,
            "midi": 64,
            "name": "E4",
            "ticks": 108480,
            "time": 141.25,
            "velocity": 0.03937007874015748
          },
          {
            "duration": 0.75,
            "durationTicks": 576,
            "midi": 68,
            "name": "G#4",
            "ticks": 108672,
            "time": 141.5,
            "velocity": 0.03937007874015748
          },
          {
            "duration": 0.125,
            "durationTicks": 96,
            "midi": 61,
            "name": "C#4",
            "ticks": 127584,
            "time": 166.125,
            "velocity": 0.03937007874015748
          },
          {
            "duration": 0.125,
            "durationTicks": 96,
            "midi": 56,
            "name": "G#3",
            "ticks": 127680,
            "time": 166.25,
            "velocity": 0.03937007874015748
          },
          {
            "duration": 0.125,
            "durationTicks": 96,
            "midi": 54,
            "name": "F#3",
            "ticks": 127776,
            "time": 166.375,
            "velocity": 0.03937007874015748
          },
          {
            "duration": 0.125,
            "durationTicks": 96,
            "midi": 56,
            "name": "G#3",
            "ticks": 127872,
            "time": 166.5,
            "velocity": 0.03937007874015748
          },
          {
            "duration": 0.125,
            "durationTicks": 96,
            "midi": 56,
            "name": "G#3",
            "ticks": 128064,
            "time": 166.75,
            "velocity": 0.03937007874015748
          },
          {
            "duration": 0.125,
            "durationTicks": 96,
            "midi": 54,
            "name": "F#3",
            "ticks": 128160,
            "time": 166.875,
            "velocity": 0.03937007874015748
          },
          {
            "duration": 0.125,
            "durationTicks": 96,
            "midi": 56,
            "name": "G#3",
            "ticks": 128256,
            "time": 167,
            "velocity": 0.03937007874015748
          },
          {
            "duration": 0.125,
            "durationTicks": 96,
            "midi": 56,
            "name": "G#3",
            "ticks": 128448,
            "time": 167.25,
            "velocity": 0.03937007874015748
          },
          {
            "duration": 0.125,
            "durationTicks": 96,
            "midi": 54,
            "name": "F#3",
            "ticks": 128544,
            "time": 167.375,
            "velocity": 0.03937007874015748
          },
          {
            "duration": 0.125,
            "durationTicks": 96,
            "midi": 56,
            "name": "G#3",
            "ticks": 128640,
            "time": 167.5,
            "velocity": 0.03937007874015748
          },
          {
            "duration": 0.125,
            "durationTicks": 96,
            "midi": 59,
            "name": "B3",
            "ticks": 128736,
            "time": 167.625,
            "velocity": 0.03937007874015748
          },
          {
            "duration": 0.125,
            "durationTicks": 96,
            "midi": 61,
            "name": "C#4",
            "ticks": 128928,
            "time": 167.875,
            "velocity": 0.03937007874015748
          },
          {
            "duration": 0.125,
            "durationTicks": 96,
            "midi": 61,
            "name": "C#4",
            "ticks": 129120,
            "time": 168.125,
            "velocity": 0.03937007874015748
          },
          {
            "duration": 0.125,
            "durationTicks": 96,
            "midi": 56,
            "name": "G#3",
            "ticks": 129216,
            "time": 168.25,
            "velocity": 0.03937007874015748
          },
          {
            "duration": 0.125,
            "durationTicks": 96,
            "midi": 54,
            "name": "F#3",
            "ticks": 129312,
            "time": 168.375,
            "velocity": 0.03937007874015748
          },
          {
            "duration": 0.125,
            "durationTicks": 96,
            "midi": 56,
            "name": "G#3",
            "ticks": 129408,
            "time": 168.5,
            "velocity": 0.03937007874015748
          },
          {
            "duration": 0.125,
            "durationTicks": 96,
            "midi": 56,
            "name": "G#3",
            "ticks": 129600,
            "time": 168.75,
            "velocity": 0.03937007874015748
          },
          {
            "duration": 0.125,
            "durationTicks": 96,
            "midi": 54,
            "name": "F#3",
            "ticks": 129696,
            "time": 168.875,
            "velocity": 0.03937007874015748
          },
          {
            "duration": 0.125,
            "durationTicks": 96,
            "midi": 56,
            "name": "G#3",
            "ticks": 129792,
            "time": 169,
            "velocity": 0.03937007874015748
          },
          {
            "duration": 0.125,
            "durationTicks": 96,
            "midi": 56,
            "name": "G#3",
            "ticks": 129984,
            "time": 169.25,
            "velocity": 0.03937007874015748
          },
          {
            "duration": 0.125,
            "durationTicks": 96,
            "midi": 54,
            "name": "F#3",
            "ticks": 130080,
            "time": 169.375,
            "velocity": 0.03937007874015748
          },
          {
            "duration": 0.125,
            "durationTicks": 96,
            "midi": 56,
            "name": "G#3",
            "ticks": 130176,
            "time": 169.5,
            "velocity": 0.03937007874015748
          },
          {
            "duration": 0.125,
            "durationTicks": 96,
            "midi": 59,
            "name": "B3",
            "ticks": 130272,
            "time": 169.625,
            "velocity": 0.03937007874015748
          },
          {
            "duration": 0.125,
            "durationTicks": 96,
            "midi": 61,
            "name": "C#4",
            "ticks": 130464,
            "time": 169.875,
            "velocity": 0.03937007874015748
          },
          {
            "duration": 0.125,
            "durationTicks": 96,
            "midi": 61,
            "name": "C#4",
            "ticks": 130656,
            "time": 170.125,
            "velocity": 0.03937007874015748
          },
          {
            "duration": 0.125,
            "durationTicks": 96,
            "midi": 56,
            "name": "G#3",
            "ticks": 130752,
            "time": 170.25,
            "velocity": 0.03937007874015748
          },
          {
            "duration": 0.125,
            "durationTicks": 96,
            "midi": 54,
            "name": "F#3",
            "ticks": 130848,
            "time": 170.375,
            "velocity": 0.03937007874015748
          },
          {
            "duration": 0.125,
            "durationTicks": 96,
            "midi": 56,
            "name": "G#3",
            "ticks": 130944,
            "time": 170.5,
            "velocity": 0.03937007874015748
          },
          {
            "duration": 0.125,
            "durationTicks": 96,
            "midi": 56,
            "name": "G#3",
            "ticks": 131136,
            "time": 170.75,
            "velocity": 0.03937007874015748
          },
          {
            "duration": 0.125,
            "durationTicks": 96,
            "midi": 54,
            "name": "F#3",
            "ticks": 131232,
            "time": 170.875,
            "velocity": 0.03937007874015748
          },
          {
            "duration": 0.125,
            "durationTicks": 96,
            "midi": 56,
            "name": "G#3",
            "ticks": 131328,
            "time": 171,
            "velocity": 0.03937007874015748
          },
          {
            "duration": 0.125,
            "durationTicks": 96,
            "midi": 56,
            "name": "G#3",
            "ticks": 131520,
            "time": 171.25,
            "velocity": 0.03937007874015748
          },
          {
            "duration": 0.125,
            "durationTicks": 96,
            "midi": 54,
            "name": "F#3",
            "ticks": 131616,
            "time": 171.375,
            "velocity": 0.03937007874015748
          },
          {
            "duration": 0.125,
            "durationTicks": 96,
            "midi": 56,
            "name": "G#3",
            "ticks": 131712,
            "time": 171.5,
            "velocity": 0.03937007874015748
          },
          {
            "duration": 0.125,
            "durationTicks": 96,
            "midi": 59,
            "name": "B3",
            "ticks": 131808,
            "time": 171.625,
            "velocity": 0.03937007874015748
          },
          {
            "duration": 0.125,
            "durationTicks": 96,
            "midi": 61,
            "name": "C#4",
            "ticks": 132000,
            "time": 171.875,
            "velocity": 0.03937007874015748
          },
          {
            "duration": 0.125,
            "durationTicks": 96,
            "midi": 61,
            "name": "C#4",
            "ticks": 132192,
            "time": 172.125,
            "velocity": 0.03937007874015748
          },
          {
            "duration": 0.125,
            "durationTicks": 96,
            "midi": 56,
            "name": "G#3",
            "ticks": 132288,
            "time": 172.25,
            "velocity": 0.03937007874015748
          },
          {
            "duration": 0.125,
            "durationTicks": 96,
            "midi": 54,
            "name": "F#3",
            "ticks": 132384,
            "time": 172.375,
            "velocity": 0.03937007874015748
          },
          {
            "duration": 0.125,
            "durationTicks": 96,
            "midi": 56,
            "name": "G#3",
            "ticks": 132480,
            "time": 172.5,
            "velocity": 0.03937007874015748
          },
          {
            "duration": 0.125,
            "durationTicks": 96,
            "midi": 56,
            "name": "G#3",
            "ticks": 132672,
            "time": 172.75,
            "velocity": 0.03937007874015748
          },
          {
            "duration": 0.125,
            "durationTicks": 96,
            "midi": 54,
            "name": "F#3",
            "ticks": 132768,
            "time": 172.875,
            "velocity": 0.03937007874015748
          },
          {
            "duration": 0.125,
            "durationTicks": 96,
            "midi": 56,
            "name": "G#3",
            "ticks": 132864,
            "time": 173,
            "velocity": 0.03937007874015748
          },
          {
            "duration": 0.125,
            "durationTicks": 96,
            "midi": 56,
            "name": "G#3",
            "ticks": 133056,
            "time": 173.25,
            "velocity": 0.03937007874015748
          },
          {
            "duration": 0.125,
            "durationTicks": 96,
            "midi": 54,
            "name": "F#3",
            "ticks": 133152,
            "time": 173.375,
            "velocity": 0.03937007874015748
          },
          {
            "duration": 0.125,
            "durationTicks": 96,
            "midi": 56,
            "name": "G#3",
            "ticks": 133248,
            "time": 173.5,
            "velocity": 0.03937007874015748
          },
          {
            "duration": 0.125,
            "durationTicks": 96,
            "midi": 59,
            "name": "B3",
            "ticks": 133344,
            "time": 173.625,
            "velocity": 0.03937007874015748
          },
          {
            "duration": 0.125,
            "durationTicks": 96,
            "midi": 61,
            "name": "C#4",
            "ticks": 133536,
            "time": 173.875,
            "velocity": 0.03937007874015748
          },
          {
            "duration": 0.125,
            "durationTicks": 96,
            "midi": 61,
            "name": "C#4",
            "ticks": 133728,
            "time": 174.125,
            "velocity": 0.03937007874015748
          },
          {
            "duration": 0.125,
            "durationTicks": 96,
            "midi": 56,
            "name": "G#3",
            "ticks": 133824,
            "time": 174.25,
            "velocity": 0.03937007874015748
          },
          {
            "duration": 0.125,
            "durationTicks": 96,
            "midi": 54,
            "name": "F#3",
            "ticks": 133920,
            "time": 174.375,
            "velocity": 0.03937007874015748
          },
          {
            "duration": 0.125,
            "durationTicks": 96,
            "midi": 56,
            "name": "G#3",
            "ticks": 134016,
            "time": 174.5,
            "velocity": 0.03937007874015748
          },
          {
            "duration": 0.125,
            "durationTicks": 96,
            "midi": 56,
            "name": "G#3",
            "ticks": 134208,
            "time": 174.75,
            "velocity": 0.03937007874015748
          },
          {
            "duration": 0.125,
            "durationTicks": 96,
            "midi": 54,
            "name": "F#3",
            "ticks": 134304,
            "time": 174.875,
            "velocity": 0.03937007874015748
          },
          {
            "duration": 0.125,
            "durationTicks": 96,
            "midi": 56,
            "name": "G#3",
            "ticks": 134400,
            "time": 175,
            "velocity": 0.03937007874015748
          },
          {
            "duration": 0.125,
            "durationTicks": 96,
            "midi": 56,
            "name": "G#3",
            "ticks": 134592,
            "time": 175.25,
            "velocity": 0.03937007874015748
          },
          {
            "duration": 0.125,
            "durationTicks": 96,
            "midi": 54,
            "name": "F#3",
            "ticks": 134688,
            "time": 175.375,
            "velocity": 0.03937007874015748
          },
          {
            "duration": 0.125,
            "durationTicks": 96,
            "midi": 56,
            "name": "G#3",
            "ticks": 134784,
            "time": 175.5,
            "velocity": 0.03937007874015748
          },
          {
            "duration": 0.125,
            "durationTicks": 96,
            "midi": 59,
            "name": "B3",
            "ticks": 134880,
            "time": 175.625,
            "velocity": 0.03937007874015748
          },
          {
            "duration": 0.125,
            "durationTicks": 96,
            "midi": 61,
            "name": "C#4",
            "ticks": 135072,
            "time": 175.875,
            "velocity": 0.03937007874015748
          },
          {
            "duration": 0.125,
            "durationTicks": 96,
            "midi": 61,
            "name": "C#4",
            "ticks": 135264,
            "time": 176.125,
            "velocity": 0.03937007874015748
          },
          {
            "duration": 0.125,
            "durationTicks": 96,
            "midi": 56,
            "name": "G#3",
            "ticks": 135360,
            "time": 176.25,
            "velocity": 0.03937007874015748
          },
          {
            "duration": 0.125,
            "durationTicks": 96,
            "midi": 54,
            "name": "F#3",
            "ticks": 135456,
            "time": 176.375,
            "velocity": 0.03937007874015748
          },
          {
            "duration": 0.125,
            "durationTicks": 96,
            "midi": 56,
            "name": "G#3",
            "ticks": 135552,
            "time": 176.5,
            "velocity": 0.03937007874015748
          },
          {
            "duration": 0.125,
            "durationTicks": 96,
            "midi": 56,
            "name": "G#3",
            "ticks": 135744,
            "time": 176.75,
            "velocity": 0.03937007874015748
          },
          {
            "duration": 0.125,
            "durationTicks": 96,
            "midi": 54,
            "name": "F#3",
            "ticks": 135840,
            "time": 176.875,
            "velocity": 0.03937007874015748
          },
          {
            "duration": 0.125,
            "durationTicks": 96,
            "midi": 56,
            "name": "G#3",
            "ticks": 135936,
            "time": 177,
            "velocity": 0.03937007874015748
          },
          {
            "duration": 0.125,
            "durationTicks": 96,
            "midi": 56,
            "name": "G#3",
            "ticks": 136128,
            "time": 177.25,
            "velocity": 0.03937007874015748
          },
          {
            "duration": 0.125,
            "durationTicks": 96,
            "midi": 54,
            "name": "F#3",
            "ticks": 136224,
            "time": 177.375,
            "velocity": 0.03937007874015748
          },
          {
            "duration": 0.125,
            "durationTicks": 96,
            "midi": 56,
            "name": "G#3",
            "ticks": 136320,
            "time": 177.5,
            "velocity": 0.03937007874015748
          },
          {
            "duration": 0.125,
            "durationTicks": 96,
            "midi": 59,
            "name": "B3",
            "ticks": 136416,
            "time": 177.625,
            "velocity": 0.03937007874015748
          },
          {
            "duration": 0.125,
            "durationTicks": 96,
            "midi": 61,
            "name": "C#4",
            "ticks": 136608,
            "time": 177.875,
            "velocity": 0.03937007874015748
          },
          {
            "duration": 0.125,
            "durationTicks": 96,
            "midi": 61,
            "name": "C#4",
            "ticks": 136800,
            "time": 178.125,
            "velocity": 0.03937007874015748
          },
          {
            "duration": 0.125,
            "durationTicks": 96,
            "midi": 56,
            "name": "G#3",
            "ticks": 136896,
            "time": 178.25,
            "velocity": 0.03937007874015748
          },
          {
            "duration": 0.125,
            "durationTicks": 96,
            "midi": 54,
            "name": "F#3",
            "ticks": 136992,
            "time": 178.375,
            "velocity": 0.03937007874015748
          },
          {
            "duration": 0.125,
            "durationTicks": 96,
            "midi": 56,
            "name": "G#3",
            "ticks": 137088,
            "time": 178.5,
            "velocity": 0.03937007874015748
          },
          {
            "duration": 0.125,
            "durationTicks": 96,
            "midi": 56,
            "name": "G#3",
            "ticks": 137280,
            "time": 178.75,
            "velocity": 0.03937007874015748
          },
          {
            "duration": 0.125,
            "durationTicks": 96,
            "midi": 54,
            "name": "F#3",
            "ticks": 137376,
            "time": 178.875,
            "velocity": 0.03937007874015748
          },
          {
            "duration": 0.125,
            "durationTicks": 96,
            "midi": 56,
            "name": "G#3",
            "ticks": 137472,
            "time": 179,
            "velocity": 0.03937007874015748
          },
          {
            "duration": 0.125,
            "durationTicks": 96,
            "midi": 56,
            "name": "G#3",
            "ticks": 137664,
            "time": 179.25,
            "velocity": 0.03937007874015748
          },
          {
            "duration": 0.125,
            "durationTicks": 96,
            "midi": 54,
            "name": "F#3",
            "ticks": 137760,
            "time": 179.375,
            "velocity": 0.03937007874015748
          },
          {
            "duration": 0.125,
            "durationTicks": 96,
            "midi": 56,
            "name": "G#3",
            "ticks": 137856,
            "time": 179.5,
            "velocity": 0.03937007874015748
          },
          {
            "duration": 0.125,
            "durationTicks": 96,
            "midi": 59,
            "name": "B3",
            "ticks": 137952,
            "time": 179.625,
            "velocity": 0.03937007874015748
          },
          {
            "duration": 0.125,
            "durationTicks": 96,
            "midi": 61,
            "name": "C#4",
            "ticks": 138144,
            "time": 179.875,
            "velocity": 0.03937007874015748
          },
          {
            "duration": 0.125,
            "durationTicks": 96,
            "midi": 61,
            "name": "C#4",
            "ticks": 138336,
            "time": 180.125,
            "velocity": 0.03937007874015748
          },
          {
            "duration": 0.125,
            "durationTicks": 96,
            "midi": 56,
            "name": "G#3",
            "ticks": 138432,
            "time": 180.25,
            "velocity": 0.03937007874015748
          },
          {
            "duration": 0.125,
            "durationTicks": 96,
            "midi": 54,
            "name": "F#3",
            "ticks": 138528,
            "time": 180.375,
            "velocity": 0.03937007874015748
          },
          {
            "duration": 0.125,
            "durationTicks": 96,
            "midi": 56,
            "name": "G#3",
            "ticks": 138624,
            "time": 180.5,
            "velocity": 0.03937007874015748
          },
          {
            "duration": 0.125,
            "durationTicks": 96,
            "midi": 56,
            "name": "G#3",
            "ticks": 138816,
            "time": 180.75,
            "velocity": 0.03937007874015748
          },
          {
            "duration": 0.125,
            "durationTicks": 96,
            "midi": 54,
            "name": "F#3",
            "ticks": 138912,
            "time": 180.875,
            "velocity": 0.03937007874015748
          },
          {
            "duration": 0.125,
            "durationTicks": 96,
            "midi": 56,
            "name": "G#3",
            "ticks": 139008,
            "time": 181,
            "velocity": 0.03937007874015748
          },
          {
            "duration": 0.125,
            "durationTicks": 96,
            "midi": 56,
            "name": "G#3",
            "ticks": 139200,
            "time": 181.25,
            "velocity": 0.03937007874015748
          },
          {
            "duration": 0.125,
            "durationTicks": 96,
            "midi": 54,
            "name": "F#3",
            "ticks": 139296,
            "time": 181.375,
            "velocity": 0.03937007874015748
          },
          {
            "duration": 0.125,
            "durationTicks": 96,
            "midi": 56,
            "name": "G#3",
            "ticks": 139392,
            "time": 181.5,
            "velocity": 0.03937007874015748
          },
          {
            "duration": 0.125,
            "durationTicks": 96,
            "midi": 59,
            "name": "B3",
            "ticks": 139488,
            "time": 181.625,
            "velocity": 0.03937007874015748
          },
          {
            "duration": 0.125,
            "durationTicks": 96,
            "midi": 61,
            "name": "C#4",
            "ticks": 139680,
            "time": 181.875,
            "velocity": 0.03937007874015748
          },
          {
            "duration": 0.125,
            "durationTicks": 96,
            "midi": 61,
            "name": "C#4",
            "ticks": 139872,
            "time": 182.125,
            "velocity": 0.03937007874015748
          },
          {
            "duration": 0.125,
            "durationTicks": 96,
            "midi": 56,
            "name": "G#3",
            "ticks": 139968,
            "time": 182.25,
            "velocity": 0.03937007874015748
          },
          {
            "duration": 0.125,
            "durationTicks": 96,
            "midi": 54,
            "name": "F#3",
            "ticks": 140064,
            "time": 182.375,
            "velocity": 0.03937007874015748
          },
          {
            "duration": 0.125,
            "durationTicks": 96,
            "midi": 56,
            "name": "G#3",
            "ticks": 140160,
            "time": 182.5,
            "velocity": 0.03937007874015748
          },
          {
            "duration": 0.125,
            "durationTicks": 96,
            "midi": 56,
            "name": "G#3",
            "ticks": 140352,
            "time": 182.75,
            "velocity": 0.03937007874015748
          },
          {
            "duration": 0.125,
            "durationTicks": 96,
            "midi": 54,
            "name": "F#3",
            "ticks": 140448,
            "time": 182.875,
            "velocity": 0.03937007874015748
          },
          {
            "duration": 0.125,
            "durationTicks": 96,
            "midi": 56,
            "name": "G#3",
            "ticks": 140544,
            "time": 183,
            "velocity": 0.03937007874015748
          },
          {
            "duration": 0.125,
            "durationTicks": 96,
            "midi": 56,
            "name": "G#3",
            "ticks": 140736,
            "time": 183.25,
            "velocity": 0.03937007874015748
          },
          {
            "duration": 0.125,
            "durationTicks": 96,
            "midi": 54,
            "name": "F#3",
            "ticks": 140832,
            "time": 183.375,
            "velocity": 0.03937007874015748
          },
          {
            "duration": 0.125,
            "durationTicks": 96,
            "midi": 56,
            "name": "G#3",
            "ticks": 140928,
            "time": 183.5,
            "velocity": 0.03937007874015748
          },
          {
            "duration": 0.125,
            "durationTicks": 96,
            "midi": 59,
            "name": "B3",
            "ticks": 141024,
            "time": 183.625,
            "velocity": 0.03937007874015748
          },
          {
            "duration": 0.125,
            "durationTicks": 96,
            "midi": 61,
            "name": "C#4",
            "ticks": 141216,
            "time": 183.875,
            "velocity": 0.03937007874015748
          },
          {
            "duration": 0.125,
            "durationTicks": 96,
            "midi": 61,
            "name": "C#4",
            "ticks": 141408,
            "time": 184.125,
            "velocity": 0.03937007874015748
          },
          {
            "duration": 0.125,
            "durationTicks": 96,
            "midi": 56,
            "name": "G#3",
            "ticks": 141504,
            "time": 184.25,
            "velocity": 0.03937007874015748
          },
          {
            "duration": 0.125,
            "durationTicks": 96,
            "midi": 54,
            "name": "F#3",
            "ticks": 141600,
            "time": 184.375,
            "velocity": 0.03937007874015748
          },
          {
            "duration": 0.125,
            "durationTicks": 96,
            "midi": 56,
            "name": "G#3",
            "ticks": 141696,
            "time": 184.5,
            "velocity": 0.03937007874015748
          },
          {
            "duration": 0.125,
            "durationTicks": 96,
            "midi": 56,
            "name": "G#3",
            "ticks": 141888,
            "time": 184.75,
            "velocity": 0.03937007874015748
          },
          {
            "duration": 0.125,
            "durationTicks": 96,
            "midi": 54,
            "name": "F#3",
            "ticks": 141984,
            "time": 184.875,
            "velocity": 0.03937007874015748
          },
          {
            "duration": 0.125,
            "durationTicks": 96,
            "midi": 56,
            "name": "G#3",
            "ticks": 142080,
            "time": 185,
            "velocity": 0.03937007874015748
          },
          {
            "duration": 0.125,
            "durationTicks": 96,
            "midi": 56,
            "name": "G#3",
            "ticks": 142272,
            "time": 185.25,
            "velocity": 0.03937007874015748
          },
          {
            "duration": 0.125,
            "durationTicks": 96,
            "midi": 54,
            "name": "F#3",
            "ticks": 142368,
            "time": 185.375,
            "velocity": 0.03937007874015748
          },
          {
            "duration": 0.125,
            "durationTicks": 96,
            "midi": 56,
            "name": "G#3",
            "ticks": 142464,
            "time": 185.5,
            "velocity": 0.03937007874015748
          },
          {
            "duration": 0.125,
            "durationTicks": 96,
            "midi": 59,
            "name": "B3",
            "ticks": 142560,
            "time": 185.625,
            "velocity": 0.03937007874015748
          },
          {
            "duration": 0.125,
            "durationTicks": 96,
            "midi": 61,
            "name": "C#4",
            "ticks": 142752,
            "time": 185.875,
            "velocity": 0.03937007874015748
          },
          {
            "duration": 0.125,
            "durationTicks": 96,
            "midi": 61,
            "name": "C#4",
            "ticks": 142944,
            "time": 186.125,
            "velocity": 0.03937007874015748
          },
          {
            "duration": 0.125,
            "durationTicks": 96,
            "midi": 56,
            "name": "G#3",
            "ticks": 143040,
            "time": 186.25,
            "velocity": 0.03937007874015748
          },
          {
            "duration": 0.125,
            "durationTicks": 96,
            "midi": 54,
            "name": "F#3",
            "ticks": 143136,
            "time": 186.375,
            "velocity": 0.03937007874015748
          },
          {
            "duration": 0.125,
            "durationTicks": 96,
            "midi": 56,
            "name": "G#3",
            "ticks": 143232,
            "time": 186.5,
            "velocity": 0.03937007874015748
          },
          {
            "duration": 0.125,
            "durationTicks": 96,
            "midi": 56,
            "name": "G#3",
            "ticks": 143424,
            "time": 186.75,
            "velocity": 0.03937007874015748
          },
          {
            "duration": 0.125,
            "durationTicks": 96,
            "midi": 54,
            "name": "F#3",
            "ticks": 143520,
            "time": 186.875,
            "velocity": 0.03937007874015748
          },
          {
            "duration": 0.125,
            "durationTicks": 96,
            "midi": 56,
            "name": "G#3",
            "ticks": 143616,
            "time": 187,
            "velocity": 0.03937007874015748
          },
          {
            "duration": 0.125,
            "durationTicks": 96,
            "midi": 56,
            "name": "G#3",
            "ticks": 143808,
            "time": 187.25,
            "velocity": 0.03937007874015748
          },
          {
            "duration": 0.125,
            "durationTicks": 96,
            "midi": 54,
            "name": "F#3",
            "ticks": 143904,
            "time": 187.375,
            "velocity": 0.03937007874015748
          },
          {
            "duration": 0.125,
            "durationTicks": 96,
            "midi": 56,
            "name": "G#3",
            "ticks": 144000,
            "time": 187.5,
            "velocity": 0.03937007874015748
          },
          {
            "duration": 0.125,
            "durationTicks": 96,
            "midi": 59,
            "name": "B3",
            "ticks": 144096,
            "time": 187.625,
            "velocity": 0.03937007874015748
          },
          {
            "duration": 0.125,
            "durationTicks": 96,
            "midi": 61,
            "name": "C#4",
            "ticks": 144288,
            "time": 187.875,
            "velocity": 0.03937007874015748
          },
          {
            "duration": 0.125,
            "durationTicks": 96,
            "midi": 61,
            "name": "C#4",
            "ticks": 144480,
            "time": 188.125,
            "velocity": 0.03937007874015748
          },
          {
            "duration": 0.125,
            "durationTicks": 96,
            "midi": 56,
            "name": "G#3",
            "ticks": 144576,
            "time": 188.25,
            "velocity": 0.03937007874015748
          },
          {
            "duration": 0.125,
            "durationTicks": 96,
            "midi": 54,
            "name": "F#3",
            "ticks": 144672,
            "time": 188.375,
            "velocity": 0.03937007874015748
          },
          {
            "duration": 0.125,
            "durationTicks": 96,
            "midi": 56,
            "name": "G#3",
            "ticks": 144768,
            "time": 188.5,
            "velocity": 0.03937007874015748
          },
          {
            "duration": 0.125,
            "durationTicks": 96,
            "midi": 56,
            "name": "G#3",
            "ticks": 144960,
            "time": 188.75,
            "velocity": 0.03937007874015748
          },
          {
            "duration": 0.125,
            "durationTicks": 96,
            "midi": 54,
            "name": "F#3",
            "ticks": 145056,
            "time": 188.875,
            "velocity": 0.03937007874015748
          },
          {
            "duration": 0.125,
            "durationTicks": 96,
            "midi": 56,
            "name": "G#3",
            "ticks": 145152,
            "time": 189,
            "velocity": 0.03937007874015748
          },
          {
            "duration": 0.125,
            "durationTicks": 96,
            "midi": 56,
            "name": "G#3",
            "ticks": 145344,
            "time": 189.25,
            "velocity": 0.03937007874015748
          },
          {
            "duration": 0.125,
            "durationTicks": 96,
            "midi": 54,
            "name": "F#3",
            "ticks": 145440,
            "time": 189.375,
            "velocity": 0.03937007874015748
          },
          {
            "duration": 0.125,
            "durationTicks": 96,
            "midi": 56,
            "name": "G#3",
            "ticks": 145536,
            "time": 189.5,
            "velocity": 0.03937007874015748
          },
          {
            "duration": 0.125,
            "durationTicks": 96,
            "midi": 59,
            "name": "B3",
            "ticks": 145632,
            "time": 189.625,
            "velocity": 0.03937007874015748
          },
          {
            "duration": 0.125,
            "durationTicks": 96,
            "midi": 61,
            "name": "C#4",
            "ticks": 145824,
            "time": 189.875,
            "velocity": 0.03937007874015748
          },
          {
            "duration": 0.125,
            "durationTicks": 96,
            "midi": 61,
            "name": "C#4",
            "ticks": 146016,
            "time": 190.125,
            "velocity": 0.03937007874015748
          },
          {
            "duration": 0.125,
            "durationTicks": 96,
            "midi": 56,
            "name": "G#3",
            "ticks": 146112,
            "time": 190.25,
            "velocity": 0.03937007874015748
          },
          {
            "duration": 0.125,
            "durationTicks": 96,
            "midi": 54,
            "name": "F#3",
            "ticks": 146208,
            "time": 190.375,
            "velocity": 0.03937007874015748
          },
          {
            "duration": 0.125,
            "durationTicks": 96,
            "midi": 56,
            "name": "G#3",
            "ticks": 146304,
            "time": 190.5,
            "velocity": 0.03937007874015748
          },
          {
            "duration": 0.125,
            "durationTicks": 96,
            "midi": 56,
            "name": "G#3",
            "ticks": 146496,
            "time": 190.75,
            "velocity": 0.03937007874015748
          },
          {
            "duration": 0.125,
            "durationTicks": 96,
            "midi": 54,
            "name": "F#3",
            "ticks": 146592,
            "time": 190.875,
            "velocity": 0.03937007874015748
          },
          {
            "duration": 0.125,
            "durationTicks": 96,
            "midi": 56,
            "name": "G#3",
            "ticks": 146688,
            "time": 191,
            "velocity": 0.03937007874015748
          },
          {
            "duration": 0.125,
            "durationTicks": 96,
            "midi": 56,
            "name": "G#3",
            "ticks": 146880,
            "time": 191.25,
            "velocity": 0.03937007874015748
          },
          {
            "duration": 0.125,
            "durationTicks": 96,
            "midi": 54,
            "name": "F#3",
            "ticks": 146976,
            "time": 191.375,
            "velocity": 0.03937007874015748
          },
          {
            "duration": 0.125,
            "durationTicks": 96,
            "midi": 56,
            "name": "G#3",
            "ticks": 147072,
            "time": 191.5,
            "velocity": 0.03937007874015748
          },
          {
            "duration": 0.125,
            "durationTicks": 96,
            "midi": 59,
            "name": "B3",
            "ticks": 147168,
            "time": 191.625,
            "velocity": 0.03937007874015748
          },
          {
            "duration": 0.125,
            "durationTicks": 96,
            "midi": 61,
            "name": "C#4",
            "ticks": 147360,
            "time": 191.875,
            "velocity": 0.03937007874015748
          },
          {
            "duration": 0.125,
            "durationTicks": 96,
            "midi": 61,
            "name": "C#4",
            "ticks": 147552,
            "time": 192.125,
            "velocity": 0.03937007874015748
          },
          {
            "duration": 0.125,
            "durationTicks": 96,
            "midi": 56,
            "name": "G#3",
            "ticks": 147648,
            "time": 192.25,
            "velocity": 0.03937007874015748
          },
          {
            "duration": 0.125,
            "durationTicks": 96,
            "midi": 54,
            "name": "F#3",
            "ticks": 147744,
            "time": 192.375,
            "velocity": 0.03937007874015748
          },
          {
            "duration": 0.125,
            "durationTicks": 96,
            "midi": 56,
            "name": "G#3",
            "ticks": 147840,
            "time": 192.5,
            "velocity": 0.03937007874015748
          },
          {
            "duration": 0.125,
            "durationTicks": 96,
            "midi": 56,
            "name": "G#3",
            "ticks": 148032,
            "time": 192.75,
            "velocity": 0.03937007874015748
          },
          {
            "duration": 0.125,
            "durationTicks": 96,
            "midi": 54,
            "name": "F#3",
            "ticks": 148128,
            "time": 192.875,
            "velocity": 0.03937007874015748
          },
          {
            "duration": 0.125,
            "durationTicks": 96,
            "midi": 56,
            "name": "G#3",
            "ticks": 148224,
            "time": 193,
            "velocity": 0.03937007874015748
          },
          {
            "duration": 0.125,
            "durationTicks": 96,
            "midi": 56,
            "name": "G#3",
            "ticks": 148416,
            "time": 193.25,
            "velocity": 0.03937007874015748
          },
          {
            "duration": 0.125,
            "durationTicks": 96,
            "midi": 54,
            "name": "F#3",
            "ticks": 148512,
            "time": 193.375,
            "velocity": 0.03937007874015748
          },
          {
            "duration": 0.125,
            "durationTicks": 96,
            "midi": 56,
            "name": "G#3",
            "ticks": 148608,
            "time": 193.5,
            "velocity": 0.03937007874015748
          },
          {
            "duration": 0.125,
            "durationTicks": 96,
            "midi": 59,
            "name": "B3",
            "ticks": 148704,
            "time": 193.625,
            "velocity": 0.03937007874015748
          },
          {
            "duration": 0.125,
            "durationTicks": 96,
            "midi": 61,
            "name": "C#4",
            "ticks": 148896,
            "time": 193.875,
            "velocity": 0.03937007874015748
          },
          {
            "duration": 0.125,
            "durationTicks": 96,
            "midi": 61,
            "name": "C#4",
            "ticks": 149088,
            "time": 194.125,
            "velocity": 0.03937007874015748
          },
          {
            "duration": 0.125,
            "durationTicks": 96,
            "midi": 56,
            "name": "G#3",
            "ticks": 149184,
            "time": 194.25,
            "velocity": 0.03937007874015748
          },
          {
            "duration": 0.125,
            "durationTicks": 96,
            "midi": 54,
            "name": "F#3",
            "ticks": 149280,
            "time": 194.375,
            "velocity": 0.03937007874015748
          },
          {
            "duration": 0.125,
            "durationTicks": 96,
            "midi": 56,
            "name": "G#3",
            "ticks": 149376,
            "time": 194.5,
            "velocity": 0.03937007874015748
          },
          {
            "duration": 0.125,
            "durationTicks": 96,
            "midi": 56,
            "name": "G#3",
            "ticks": 149568,
            "time": 194.75,
            "velocity": 0.03937007874015748
          },
          {
            "duration": 0.125,
            "durationTicks": 96,
            "midi": 54,
            "name": "F#3",
            "ticks": 149664,
            "time": 194.875,
            "velocity": 0.03937007874015748
          },
          {
            "duration": 0.125,
            "durationTicks": 96,
            "midi": 56,
            "name": "G#3",
            "ticks": 149760,
            "time": 195,
            "velocity": 0.03937007874015748
          },
          {
            "duration": 0.125,
            "durationTicks": 96,
            "midi": 56,
            "name": "G#3",
            "ticks": 149952,
            "time": 195.25,
            "velocity": 0.03937007874015748
          },
          {
            "duration": 0.125,
            "durationTicks": 96,
            "midi": 54,
            "name": "F#3",
            "ticks": 150048,
            "time": 195.375,
            "velocity": 0.03937007874015748
          },
          {
            "duration": 0.125,
            "durationTicks": 96,
            "midi": 56,
            "name": "G#3",
            "ticks": 150144,
            "time": 195.5,
            "velocity": 0.03937007874015748
          },
          {
            "duration": 0.125,
            "durationTicks": 96,
            "midi": 59,
            "name": "B3",
            "ticks": 150240,
            "time": 195.625,
            "velocity": 0.03937007874015748
          },
          {
            "duration": 0.125,
            "durationTicks": 96,
            "midi": 61,
            "name": "C#4",
            "ticks": 150432,
            "time": 195.875,
            "velocity": 0.03937007874015748
          },
          {
            "duration": 0.125,
            "durationTicks": 96,
            "midi": 61,
            "name": "C#4",
            "ticks": 150624,
            "time": 196.125,
            "velocity": 0.03937007874015748
          },
          {
            "duration": 0.125,
            "durationTicks": 96,
            "midi": 56,
            "name": "G#3",
            "ticks": 150720,
            "time": 196.25,
            "velocity": 0.03937007874015748
          },
          {
            "duration": 0.125,
            "durationTicks": 96,
            "midi": 54,
            "name": "F#3",
            "ticks": 150816,
            "time": 196.375,
            "velocity": 0.03937007874015748
          },
          {
            "duration": 0.125,
            "durationTicks": 96,
            "midi": 56,
            "name": "G#3",
            "ticks": 150912,
            "time": 196.5,
            "velocity": 0.03937007874015748
          },
          {
            "duration": 0.125,
            "durationTicks": 96,
            "midi": 56,
            "name": "G#3",
            "ticks": 151104,
            "time": 196.75,
            "velocity": 0.03937007874015748
          },
          {
            "duration": 0.125,
            "durationTicks": 96,
            "midi": 54,
            "name": "F#3",
            "ticks": 151200,
            "time": 196.875,
            "velocity": 0.03937007874015748
          },
          {
            "duration": 0.125,
            "durationTicks": 96,
            "midi": 56,
            "name": "G#3",
            "ticks": 151296,
            "time": 197,
            "velocity": 0.03937007874015748
          },
          {
            "duration": 0.125,
            "durationTicks": 96,
            "midi": 56,
            "name": "G#3",
            "ticks": 151488,
            "time": 197.25,
            "velocity": 0.03937007874015748
          },
          {
            "duration": 0.125,
            "durationTicks": 96,
            "midi": 54,
            "name": "F#3",
            "ticks": 151584,
            "time": 197.375,
            "velocity": 0.03937007874015748
          },
          {
            "duration": 0.125,
            "durationTicks": 96,
            "midi": 56,
            "name": "G#3",
            "ticks": 151680,
            "time": 197.5,
            "velocity": 0.03937007874015748
          },
          {
            "duration": 0.125,
            "durationTicks": 96,
            "midi": 59,
            "name": "B3",
            "ticks": 151776,
            "time": 197.625,
            "velocity": 0.03937007874015748
          },
          {
            "duration": 0.125,
            "durationTicks": 96,
            "midi": 61,
            "name": "C#4",
            "ticks": 151968,
            "time": 197.875,
            "velocity": 0.03937007874015748
          },
          {
            "duration": 0.125,
            "durationTicks": 96,
            "midi": 61,
            "name": "C#4",
            "ticks": 152256,
            "time": 198.25,
            "velocity": 0.03937007874015748
          },
          {
            "duration": 0.125,
            "durationTicks": 96,
            "midi": 59,
            "name": "B3",
            "ticks": 152352,
            "time": 198.375,
            "velocity": 0.03937007874015748
          },
          {
            "duration": 0.125,
            "durationTicks": 96,
            "midi": 61,
            "name": "C#4",
            "ticks": 152544,
            "time": 198.625,
            "velocity": 0.03937007874015748
          },
          {
            "duration": 0.125,
            "durationTicks": 96,
            "midi": 59,
            "name": "B3",
            "ticks": 152736,
            "time": 198.875,
            "velocity": 0.03937007874015748
          },
          {
            "duration": 0.25,
            "durationTicks": 192,
            "midi": 61,
            "name": "C#4",
            "ticks": 152832,
            "time": 199,
            "velocity": 0.03937007874015748
          },
          {
            "duration": 0.25,
            "durationTicks": 192,
            "midi": 64,
            "name": "E4",
            "ticks": 153024,
            "time": 199.25,
            "velocity": 0.03937007874015748
          },
          {
            "duration": 0.75,
            "durationTicks": 576,
            "midi": 68,
            "name": "G#4",
            "ticks": 153216,
            "time": 199.5,
            "velocity": 0.03937007874015748
          },
          {
            "duration": 0.125,
            "durationTicks": 96,
            "midi": 61,
            "name": "C#4",
            "ticks": 153792,
            "time": 200.25,
            "velocity": 0.03937007874015748
          },
          {
            "duration": 0.125,
            "durationTicks": 96,
            "midi": 59,
            "name": "B3",
            "ticks": 153888,
            "time": 200.375,
            "velocity": 0.03937007874015748
          },
          {
            "duration": 0.125,
            "durationTicks": 96,
            "midi": 61,
            "name": "C#4",
            "ticks": 154080,
            "time": 200.625,
            "velocity": 0.03937007874015748
          },
          {
            "duration": 0.125,
            "durationTicks": 96,
            "midi": 59,
            "name": "B3",
            "ticks": 154272,
            "time": 200.875,
            "velocity": 0.03937007874015748
          },
          {
            "duration": 0.25,
            "durationTicks": 192,
            "midi": 61,
            "name": "C#4",
            "ticks": 154368,
            "time": 201,
            "velocity": 0.03937007874015748
          },
          {
            "duration": 0.25,
            "durationTicks": 192,
            "midi": 64,
            "name": "E4",
            "ticks": 154560,
            "time": 201.25,
            "velocity": 0.03937007874015748
          },
          {
            "duration": 0.75,
            "durationTicks": 576,
            "midi": 68,
            "name": "G#4",
            "ticks": 154752,
            "time": 201.5,
            "velocity": 0.03937007874015748
          },
          {
            "duration": 0.125,
            "durationTicks": 96,
            "midi": 61,
            "name": "C#4",
            "ticks": 155328,
            "time": 202.25,
            "velocity": 0.03937007874015748
          },
          {
            "duration": 0.125,
            "durationTicks": 96,
            "midi": 59,
            "name": "B3",
            "ticks": 155424,
            "time": 202.375,
            "velocity": 0.03937007874015748
          },
          {
            "duration": 0.125,
            "durationTicks": 96,
            "midi": 61,
            "name": "C#4",
            "ticks": 155616,
            "time": 202.625,
            "velocity": 0.03937007874015748
          },
          {
            "duration": 0.125,
            "durationTicks": 96,
            "midi": 59,
            "name": "B3",
            "ticks": 155808,
            "time": 202.875,
            "velocity": 0.03937007874015748
          },
          {
            "duration": 0.25,
            "durationTicks": 192,
            "midi": 61,
            "name": "C#4",
            "ticks": 155904,
            "time": 203,
            "velocity": 0.03937007874015748
          },
          {
            "duration": 0.25,
            "durationTicks": 192,
            "midi": 64,
            "name": "E4",
            "ticks": 156096,
            "time": 203.25,
            "velocity": 0.03937007874015748
          },
          {
            "duration": 0.75,
            "durationTicks": 576,
            "midi": 68,
            "name": "G#4",
            "ticks": 156288,
            "time": 203.5,
            "velocity": 0.03937007874015748
          },
          {
            "duration": 0.125,
            "durationTicks": 96,
            "midi": 61,
            "name": "C#4",
            "ticks": 156864,
            "time": 204.25,
            "velocity": 0.03937007874015748
          },
          {
            "duration": 0.125,
            "durationTicks": 96,
            "midi": 59,
            "name": "B3",
            "ticks": 156960,
            "time": 204.375,
            "velocity": 0.03937007874015748
          },
          {
            "duration": 0.125,
            "durationTicks": 96,
            "midi": 61,
            "name": "C#4",
            "ticks": 157152,
            "time": 204.625,
            "velocity": 0.03937007874015748
          },
          {
            "duration": 0.125,
            "durationTicks": 96,
            "midi": 59,
            "name": "B3",
            "ticks": 157344,
            "time": 204.875,
            "velocity": 0.03937007874015748
          },
          {
            "duration": 0.25,
            "durationTicks": 192,
            "midi": 61,
            "name": "C#4",
            "ticks": 157440,
            "time": 205,
            "velocity": 0.03937007874015748
          },
          {
            "duration": 0.25,
            "durationTicks": 192,
            "midi": 64,
            "name": "E4",
            "ticks": 157632,
            "time": 205.25,
            "velocity": 0.03937007874015748
          },
          {
            "duration": 0.75,
            "durationTicks": 576,
            "midi": 68,
            "name": "G#4",
            "ticks": 157824,
            "time": 205.5,
            "velocity": 0.03937007874015748
          },
          {
            "duration": 0.125,
            "durationTicks": 96,
            "midi": 61,
            "name": "C#4",
            "ticks": 158400,
            "time": 206.25,
            "velocity": 0.03937007874015748
          },
          {
            "duration": 0.125,
            "durationTicks": 96,
            "midi": 59,
            "name": "B3",
            "ticks": 158496,
            "time": 206.375,
            "velocity": 0.03937007874015748
          },
          {
            "duration": 0.125,
            "durationTicks": 96,
            "midi": 61,
            "name": "C#4",
            "ticks": 158688,
            "time": 206.625,
            "velocity": 0.03937007874015748
          },
          {
            "duration": 0.125,
            "durationTicks": 96,
            "midi": 59,
            "name": "B3",
            "ticks": 158880,
            "time": 206.875,
            "velocity": 0.03937007874015748
          },
          {
            "duration": 0.25,
            "durationTicks": 192,
            "midi": 61,
            "name": "C#4",
            "ticks": 158976,
            "time": 207,
            "velocity": 0.03937007874015748
          },
          {
            "duration": 0.25,
            "durationTicks": 192,
            "midi": 64,
            "name": "E4",
            "ticks": 159168,
            "time": 207.25,
            "velocity": 0.03937007874015748
          },
          {
            "duration": 0.75,
            "durationTicks": 576,
            "midi": 68,
            "name": "G#4",
            "ticks": 159360,
            "time": 207.5,
            "velocity": 0.03937007874015748
          },
          {
            "duration": 0.125,
            "durationTicks": 96,
            "midi": 61,
            "name": "C#4",
            "ticks": 159936,
            "time": 208.25,
            "velocity": 0.03937007874015748
          },
          {
            "duration": 0.125,
            "durationTicks": 96,
            "midi": 59,
            "name": "B3",
            "ticks": 160032,
            "time": 208.375,
            "velocity": 0.03937007874015748
          },
          {
            "duration": 0.125,
            "durationTicks": 96,
            "midi": 61,
            "name": "C#4",
            "ticks": 160224,
            "time": 208.625,
            "velocity": 0.03937007874015748
          },
          {
            "duration": 0.125,
            "durationTicks": 96,
            "midi": 59,
            "name": "B3",
            "ticks": 160416,
            "time": 208.875,
            "velocity": 0.03937007874015748
          },
          {
            "duration": 0.25,
            "durationTicks": 192,
            "midi": 61,
            "name": "C#4",
            "ticks": 160512,
            "time": 209,
            "velocity": 0.03937007874015748
          },
          {
            "duration": 0.25,
            "durationTicks": 192,
            "midi": 64,
            "name": "E4",
            "ticks": 160704,
            "time": 209.25,
            "velocity": 0.03937007874015748
          },
          {
            "duration": 0.75,
            "durationTicks": 576,
            "midi": 68,
            "name": "G#4",
            "ticks": 160896,
            "time": 209.5,
            "velocity": 0.03937007874015748
          },
          {
            "duration": 0.125,
            "durationTicks": 96,
            "midi": 61,
            "name": "C#4",
            "ticks": 161472,
            "time": 210.25,
            "velocity": 0.03937007874015748
          },
          {
            "duration": 0.125,
            "durationTicks": 96,
            "midi": 59,
            "name": "B3",
            "ticks": 161568,
            "time": 210.375,
            "velocity": 0.03937007874015748
          },
          {
            "duration": 0.125,
            "durationTicks": 96,
            "midi": 61,
            "name": "C#4",
            "ticks": 161760,
            "time": 210.625,
            "velocity": 0.03937007874015748
          },
          {
            "duration": 0.125,
            "durationTicks": 96,
            "midi": 59,
            "name": "B3",
            "ticks": 161952,
            "time": 210.875,
            "velocity": 0.03937007874015748
          },
          {
            "duration": 0.25,
            "durationTicks": 192,
            "midi": 61,
            "name": "C#4",
            "ticks": 162048,
            "time": 211,
            "velocity": 0.03937007874015748
          },
          {
            "duration": 0.25,
            "durationTicks": 192,
            "midi": 64,
            "name": "E4",
            "ticks": 162240,
            "time": 211.25,
            "velocity": 0.03937007874015748
          },
          {
            "duration": 0.75,
            "durationTicks": 576,
            "midi": 68,
            "name": "G#4",
            "ticks": 162432,
            "time": 211.5,
            "velocity": 0.03937007874015748
          },
          {
            "duration": 0.125,
            "durationTicks": 96,
            "midi": 61,
            "name": "C#4",
            "ticks": 167616,
            "time": 218.25,
            "velocity": 0.03937007874015748
          },
          {
            "duration": 0.125,
            "durationTicks": 96,
            "midi": 59,
            "name": "B3",
            "ticks": 167712,
            "time": 218.375,
            "velocity": 0.03937007874015748
          },
          {
            "duration": 0.125,
            "durationTicks": 96,
            "midi": 61,
            "name": "C#4",
            "ticks": 167904,
            "time": 218.625,
            "velocity": 0.03937007874015748
          },
          {
            "duration": 0.125,
            "durationTicks": 96,
            "midi": 59,
            "name": "B3",
            "ticks": 168096,
            "time": 218.875,
            "velocity": 0.03937007874015748
          },
          {
            "duration": 0.25,
            "durationTicks": 192,
            "midi": 61,
            "name": "C#4",
            "ticks": 168192,
            "time": 219,
            "velocity": 0.03937007874015748
          },
          {
            "duration": 0.25,
            "durationTicks": 192,
            "midi": 64,
            "name": "E4",
            "ticks": 168384,
            "time": 219.25,
            "velocity": 0.03937007874015748
          },
          {
            "duration": 0.75,
            "durationTicks": 576,
            "midi": 68,
            "name": "G#4",
            "ticks": 168576,
            "time": 219.5,
            "velocity": 0.03937007874015748
          },
          {
            "duration": 0.125,
            "durationTicks": 96,
            "midi": 61,
            "name": "C#4",
            "ticks": 169152,
            "time": 220.25,
            "velocity": 0.03937007874015748
          },
          {
            "duration": 0.125,
            "durationTicks": 96,
            "midi": 59,
            "name": "B3",
            "ticks": 169248,
            "time": 220.375,
            "velocity": 0.03937007874015748
          },
          {
            "duration": 0.125,
            "durationTicks": 96,
            "midi": 61,
            "name": "C#4",
            "ticks": 169440,
            "time": 220.625,
            "velocity": 0.03937007874015748
          },
          {
            "duration": 0.125,
            "durationTicks": 96,
            "midi": 59,
            "name": "B3",
            "ticks": 169632,
            "time": 220.875,
            "velocity": 0.03937007874015748
          },
          {
            "duration": 0.25,
            "durationTicks": 192,
            "midi": 61,
            "name": "C#4",
            "ticks": 169728,
            "time": 221,
            "velocity": 0.03937007874015748
          },
          {
            "duration": 0.25,
            "durationTicks": 192,
            "midi": 64,
            "name": "E4",
            "ticks": 169920,
            "time": 221.25,
            "velocity": 0.03937007874015748
          },
          {
            "duration": 0.75,
            "durationTicks": 576,
            "midi": 68,
            "name": "G#4",
            "ticks": 170112,
            "time": 221.5,
            "velocity": 0.03937007874015748
          },
          {
            "duration": 0.125,
            "durationTicks": 96,
            "midi": 61,
            "name": "C#4",
            "ticks": 170688,
            "time": 222.25,
            "velocity": 0.03937007874015748
          },
          {
            "duration": 0.125,
            "durationTicks": 96,
            "midi": 59,
            "name": "B3",
            "ticks": 170784,
            "time": 222.375,
            "velocity": 0.03937007874015748
          },
          {
            "duration": 0.125,
            "durationTicks": 96,
            "midi": 61,
            "name": "C#4",
            "ticks": 170976,
            "time": 222.625,
            "velocity": 0.03937007874015748
          },
          {
            "duration": 0.125,
            "durationTicks": 96,
            "midi": 59,
            "name": "B3",
            "ticks": 171168,
            "time": 222.875,
            "velocity": 0.03937007874015748
          },
          {
            "duration": 0.25,
            "durationTicks": 192,
            "midi": 61,
            "name": "C#4",
            "ticks": 171264,
            "time": 223,
            "velocity": 0.03937007874015748
          },
          {
            "duration": 0.25,
            "durationTicks": 192,
            "midi": 64,
            "name": "E4",
            "ticks": 171456,
            "time": 223.25,
            "velocity": 0.03937007874015748
          },
          {
            "duration": 0.75,
            "durationTicks": 576,
            "midi": 68,
            "name": "G#4",
            "ticks": 171648,
            "time": 223.5,
            "velocity": 0.03937007874015748
          },
          {
            "duration": 0.125,
            "durationTicks": 96,
            "midi": 61,
            "name": "C#4",
            "ticks": 172224,
            "time": 224.25,
            "velocity": 0.03937007874015748
          },
          {
            "duration": 0.125,
            "durationTicks": 96,
            "midi": 59,
            "name": "B3",
            "ticks": 172320,
            "time": 224.375,
            "velocity": 0.03937007874015748
          },
          {
            "duration": 0.125,
            "durationTicks": 96,
            "midi": 61,
            "name": "C#4",
            "ticks": 172512,
            "time": 224.625,
            "velocity": 0.03937007874015748
          },
          {
            "duration": 0.125,
            "durationTicks": 96,
            "midi": 59,
            "name": "B3",
            "ticks": 172704,
            "time": 224.875,
            "velocity": 0.03937007874015748
          },
          {
            "duration": 0.25,
            "durationTicks": 192,
            "midi": 61,
            "name": "C#4",
            "ticks": 172800,
            "time": 225,
            "velocity": 0.03937007874015748
          },
          {
            "duration": 0.25,
            "durationTicks": 192,
            "midi": 64,
            "name": "E4",
            "ticks": 172992,
            "time": 225.25,
            "velocity": 0.03937007874015748
          },
          {
            "duration": 0.75,
            "durationTicks": 576,
            "midi": 68,
            "name": "G#4",
            "ticks": 173184,
            "time": 225.5,
            "velocity": 0.03937007874015748
          },
          {
            "duration": 0.125,
            "durationTicks": 96,
            "midi": 61,
            "name": "C#4",
            "ticks": 173760,
            "time": 226.25,
            "velocity": 0.03937007874015748
          },
          {
            "duration": 0.125,
            "durationTicks": 96,
            "midi": 59,
            "name": "B3",
            "ticks": 173856,
            "time": 226.375,
            "velocity": 0.03937007874015748
          },
          {
            "duration": 0.125,
            "durationTicks": 96,
            "midi": 61,
            "name": "C#4",
            "ticks": 174048,
            "time": 226.625,
            "velocity": 0.03937007874015748
          },
          {
            "duration": 0.125,
            "durationTicks": 96,
            "midi": 59,
            "name": "B3",
            "ticks": 174240,
            "time": 226.875,
            "velocity": 0.03937007874015748
          },
          {
            "duration": 0.25,
            "durationTicks": 192,
            "midi": 61,
            "name": "C#4",
            "ticks": 174336,
            "time": 227,
            "velocity": 0.03937007874015748
          },
          {
            "duration": 0.25,
            "durationTicks": 192,
            "midi": 64,
            "name": "E4",
            "ticks": 174528,
            "time": 227.25,
            "velocity": 0.03937007874015748
          },
          {
            "duration": 0.75,
            "durationTicks": 576,
            "midi": 68,
            "name": "G#4",
            "ticks": 174720,
            "time": 227.5,
            "velocity": 0.03937007874015748
          },
          {
            "duration": 0.125,
            "durationTicks": 96,
            "midi": 61,
            "name": "C#4",
            "ticks": 175296,
            "time": 228.25,
            "velocity": 0.03937007874015748
          },
          {
            "duration": 0.125,
            "durationTicks": 96,
            "midi": 59,
            "name": "B3",
            "ticks": 175392,
            "time": 228.375,
            "velocity": 0.03937007874015748
          },
          {
            "duration": 0.125,
            "durationTicks": 96,
            "midi": 61,
            "name": "C#4",
            "ticks": 175584,
            "time": 228.625,
            "velocity": 0.03937007874015748
          },
          {
            "duration": 0.125,
            "durationTicks": 96,
            "midi": 59,
            "name": "B3",
            "ticks": 175776,
            "time": 228.875,
            "velocity": 0.03937007874015748
          },
          {
            "duration": 0.25,
            "durationTicks": 192,
            "midi": 61,
            "name": "C#4",
            "ticks": 175872,
            "time": 229,
            "velocity": 0.03937007874015748
          },
          {
            "duration": 0.25,
            "durationTicks": 192,
            "midi": 64,
            "name": "E4",
            "ticks": 176064,
            "time": 229.25,
            "velocity": 0.03937007874015748
          },
          {
            "duration": 0.75,
            "durationTicks": 576,
            "midi": 68,
            "name": "G#4",
            "ticks": 176256,
            "time": 229.5,
            "velocity": 0.03937007874015748
          },
          {
            "duration": 0.125,
            "durationTicks": 96,
            "midi": 61,
            "name": "C#4",
            "ticks": 176832,
            "time": 230.25,
            "velocity": 0.03937007874015748
          },
          {
            "duration": 0.125,
            "durationTicks": 96,
            "midi": 59,
            "name": "B3",
            "ticks": 176928,
            "time": 230.375,
            "velocity": 0.03937007874015748
          },
          {
            "duration": 0.125,
            "durationTicks": 96,
            "midi": 61,
            "name": "C#4",
            "ticks": 177120,
            "time": 230.625,
            "velocity": 0.03937007874015748
          },
          {
            "duration": 0.125,
            "durationTicks": 96,
            "midi": 59,
            "name": "B3",
            "ticks": 177312,
            "time": 230.875,
            "velocity": 0.03937007874015748
          },
          {
            "duration": 0.25,
            "durationTicks": 192,
            "midi": 61,
            "name": "C#4",
            "ticks": 177408,
            "time": 231,
            "velocity": 0.03937007874015748
          },
          {
            "duration": 0.25,
            "durationTicks": 192,
            "midi": 64,
            "name": "E4",
            "ticks": 177600,
            "time": 231.25,
            "velocity": 0.03937007874015748
          },
          {
            "duration": 0.75,
            "durationTicks": 576,
            "midi": 68,
            "name": "G#4",
            "ticks": 177792,
            "time": 231.5,
            "velocity": 0.03937007874015748
          },
          {
            "duration": 0.125,
            "durationTicks": 96,
            "midi": 61,
            "name": "C#4",
            "ticks": 179904,
            "time": 234.25,
            "velocity": 0.03937007874015748
          },
          {
            "duration": 0.125,
            "durationTicks": 96,
            "midi": 59,
            "name": "B3",
            "ticks": 180000,
            "time": 234.375,
            "velocity": 0.03937007874015748
          },
          {
            "duration": 0.125,
            "durationTicks": 96,
            "midi": 61,
            "name": "C#4",
            "ticks": 180192,
            "time": 234.625,
            "velocity": 0.03937007874015748
          },
          {
            "duration": 0.125,
            "durationTicks": 96,
            "midi": 59,
            "name": "B3",
            "ticks": 180384,
            "time": 234.875,
            "velocity": 0.03937007874015748
          },
          {
            "duration": 0.125,
            "durationTicks": 96,
            "midi": 61,
            "name": "C#4",
            "ticks": 180480,
            "time": 235,
            "velocity": 0.03937007874015748
          },
          {
            "duration": 0.125,
            "durationTicks": 96,
            "midi": 59,
            "name": "B3",
            "ticks": 180672,
            "time": 235.25,
            "velocity": 0.03937007874015748
          },
          {
            "duration": 0.125,
            "durationTicks": 96,
            "midi": 61,
            "name": "C#4",
            "ticks": 180864,
            "time": 235.5,
            "velocity": 0.03937007874015748
          },
          {
            "duration": 0.125,
            "durationTicks": 96,
            "midi": 61,
            "name": "C#4",
            "ticks": 181440,
            "time": 236.25,
            "velocity": 0.03937007874015748
          },
          {
            "duration": 0.125,
            "durationTicks": 96,
            "midi": 59,
            "name": "B3",
            "ticks": 181536,
            "time": 236.375,
            "velocity": 0.03937007874015748
          },
          {
            "duration": 0.125,
            "durationTicks": 96,
            "midi": 61,
            "name": "C#4",
            "ticks": 181728,
            "time": 236.625,
            "velocity": 0.03937007874015748
          },
          {
            "duration": 0.125,
            "durationTicks": 96,
            "midi": 59,
            "name": "B3",
            "ticks": 181920,
            "time": 236.875,
            "velocity": 0.03937007874015748
          },
          {
            "duration": 0.25,
            "durationTicks": 192,
            "midi": 61,
            "name": "C#4",
            "ticks": 182016,
            "time": 237,
            "velocity": 0.03937007874015748
          },
          {
            "duration": 0.25,
            "durationTicks": 192,
            "midi": 64,
            "name": "E4",
            "ticks": 182208,
            "time": 237.25,
            "velocity": 0.03937007874015748
          },
          {
            "duration": 0.25,
            "durationTicks": 192,
            "midi": 68,
            "name": "G#4",
            "ticks": 182400,
            "time": 237.5,
            "velocity": 0.03937007874015748
          },
          {
            "duration": 0.5,
            "durationTicks": 384,
            "midi": 66,
            "name": "F#4",
            "ticks": 182592,
            "time": 237.75,
            "velocity": 0.03937007874015748
          },
          {
            "duration": 0.125,
            "durationTicks": 96,
            "midi": 61,
            "name": "C#4",
            "ticks": 182976,
            "time": 238.25,
            "velocity": 0.03937007874015748
          },
          {
            "duration": 0.125,
            "durationTicks": 96,
            "midi": 59,
            "name": "B3",
            "ticks": 183072,
            "time": 238.375,
            "velocity": 0.03937007874015748
          },
          {
            "duration": 0.125,
            "durationTicks": 96,
            "midi": 61,
            "name": "C#4",
            "ticks": 183264,
            "time": 238.625,
            "velocity": 0.03937007874015748
          },
          {
            "duration": 0.125,
            "durationTicks": 96,
            "midi": 59,
            "name": "B3",
            "ticks": 183456,
            "time": 238.875,
            "velocity": 0.03937007874015748
          },
          {
            "duration": 0.125,
            "durationTicks": 96,
            "midi": 61,
            "name": "C#4",
            "ticks": 183552,
            "time": 239,
            "velocity": 0.03937007874015748
          },
          {
            "duration": 0.125,
            "durationTicks": 96,
            "midi": 59,
            "name": "B3",
            "ticks": 183744,
            "time": 239.25,
            "velocity": 0.03937007874015748
          },
          {
            "duration": 0.125,
            "durationTicks": 96,
            "midi": 61,
            "name": "C#4",
            "ticks": 183936,
            "time": 239.5,
            "velocity": 0.03937007874015748
          },
          {
            "duration": 0.125,
            "durationTicks": 96,
            "midi": 61,
            "name": "C#4",
            "ticks": 184512,
            "time": 240.25,
            "velocity": 0.03937007874015748
          },
          {
            "duration": 0.125,
            "durationTicks": 96,
            "midi": 59,
            "name": "B3",
            "ticks": 184608,
            "time": 240.375,
            "velocity": 0.03937007874015748
          },
          {
            "duration": 0.125,
            "durationTicks": 96,
            "midi": 61,
            "name": "C#4",
            "ticks": 184800,
            "time": 240.625,
            "velocity": 0.03937007874015748
          },
          {
            "duration": 0.125,
            "durationTicks": 96,
            "midi": 59,
            "name": "B3",
            "ticks": 184992,
            "time": 240.875,
            "velocity": 0.03937007874015748
          },
          {
            "duration": 0.25,
            "durationTicks": 192,
            "midi": 61,
            "name": "C#4",
            "ticks": 185088,
            "time": 241,
            "velocity": 0.03937007874015748
          },
          {
            "duration": 0.25,
            "durationTicks": 192,
            "midi": 64,
            "name": "E4",
            "ticks": 185280,
            "time": 241.25,
            "velocity": 0.03937007874015748
          },
          {
            "duration": 0.25,
            "durationTicks": 192,
            "midi": 68,
            "name": "G#4",
            "ticks": 185472,
            "time": 241.5,
            "velocity": 0.03937007874015748
          },
          {
            "duration": 0.5,
            "durationTicks": 384,
            "midi": 66,
            "name": "F#4",
            "ticks": 185664,
            "time": 241.75,
            "velocity": 0.03937007874015748
          },
          {
            "duration": 0.125,
            "durationTicks": 96,
            "midi": 61,
            "name": "C#4",
            "ticks": 186048,
            "time": 242.25,
            "velocity": 0.03937007874015748
          },
          {
            "duration": 0.125,
            "durationTicks": 96,
            "midi": 59,
            "name": "B3",
            "ticks": 186144,
            "time": 242.375,
            "velocity": 0.03937007874015748
          },
          {
            "duration": 0.125,
            "durationTicks": 96,
            "midi": 61,
            "name": "C#4",
            "ticks": 186336,
            "time": 242.625,
            "velocity": 0.03937007874015748
          },
          {
            "duration": 0.125,
            "durationTicks": 96,
            "midi": 59,
            "name": "B3",
            "ticks": 186528,
            "time": 242.875,
            "velocity": 0.03937007874015748
          },
          {
            "duration": 0.125,
            "durationTicks": 96,
            "midi": 61,
            "name": "C#4",
            "ticks": 186624,
            "time": 243,
            "velocity": 0.03937007874015748
          },
          {
            "duration": 0.125,
            "durationTicks": 96,
            "midi": 59,
            "name": "B3",
            "ticks": 186816,
            "time": 243.25,
            "velocity": 0.03937007874015748
          },
          {
            "duration": 0.125,
            "durationTicks": 96,
            "midi": 61,
            "name": "C#4",
            "ticks": 187008,
            "time": 243.5,
            "velocity": 0.03937007874015748
          },
          {
            "duration": 0.125,
            "durationTicks": 96,
            "midi": 61,
            "name": "C#4",
            "ticks": 187584,
            "time": 244.25,
            "velocity": 0.03937007874015748
          },
          {
            "duration": 0.125,
            "durationTicks": 96,
            "midi": 59,
            "name": "B3",
            "ticks": 187680,
            "time": 244.375,
            "velocity": 0.03937007874015748
          },
          {
            "duration": 0.125,
            "durationTicks": 96,
            "midi": 61,
            "name": "C#4",
            "ticks": 187872,
            "time": 244.625,
            "velocity": 0.03937007874015748
          },
          {
            "duration": 0.125,
            "durationTicks": 96,
            "midi": 59,
            "name": "B3",
            "ticks": 188064,
            "time": 244.875,
            "velocity": 0.03937007874015748
          },
          {
            "duration": 0.25,
            "durationTicks": 192,
            "midi": 61,
            "name": "C#4",
            "ticks": 188160,
            "time": 245,
            "velocity": 0.03937007874015748
          },
          {
            "duration": 0.25,
            "durationTicks": 192,
            "midi": 64,
            "name": "E4",
            "ticks": 188352,
            "time": 245.25,
            "velocity": 0.03937007874015748
          },
          {
            "duration": 0.25,
            "durationTicks": 192,
            "midi": 68,
            "name": "G#4",
            "ticks": 188544,
            "time": 245.5,
            "velocity": 0.03937007874015748
          },
          {
            "duration": 0.5,
            "durationTicks": 384,
            "midi": 66,
            "name": "F#4",
            "ticks": 188736,
            "time": 245.75,
            "velocity": 0.03937007874015748
          },
          {
            "duration": 0.125,
            "durationTicks": 96,
            "midi": 61,
            "name": "C#4",
            "ticks": 189120,
            "time": 246.25,
            "velocity": 0.03937007874015748
          },
          {
            "duration": 0.125,
            "durationTicks": 96,
            "midi": 59,
            "name": "B3",
            "ticks": 189216,
            "time": 246.375,
            "velocity": 0.03937007874015748
          },
          {
            "duration": 0.125,
            "durationTicks": 96,
            "midi": 61,
            "name": "C#4",
            "ticks": 189408,
            "time": 246.625,
            "velocity": 0.03937007874015748
          },
          {
            "duration": 0.125,
            "durationTicks": 96,
            "midi": 59,
            "name": "B3",
            "ticks": 189600,
            "time": 246.875,
            "velocity": 0.03937007874015748
          },
          {
            "duration": 0.125,
            "durationTicks": 96,
            "midi": 61,
            "name": "C#4",
            "ticks": 189696,
            "time": 247,
            "velocity": 0.03937007874015748
          },
          {
            "duration": 0.125,
            "durationTicks": 96,
            "midi": 59,
            "name": "B3",
            "ticks": 189888,
            "time": 247.25,
            "velocity": 0.03937007874015748
          },
          {
            "duration": 0.125,
            "durationTicks": 96,
            "midi": 61,
            "name": "C#4",
            "ticks": 190080,
            "time": 247.5,
            "velocity": 0.03937007874015748
          },
          {
            "duration": 0.125,
            "durationTicks": 96,
            "midi": 61,
            "name": "C#4",
            "ticks": 190656,
            "time": 248.25,
            "velocity": 0.03937007874015748
          },
          {
            "duration": 0.125,
            "durationTicks": 96,
            "midi": 59,
            "name": "B3",
            "ticks": 190752,
            "time": 248.375,
            "velocity": 0.03937007874015748
          },
          {
            "duration": 0.125,
            "durationTicks": 96,
            "midi": 61,
            "name": "C#4",
            "ticks": 190944,
            "time": 248.625,
            "velocity": 0.03937007874015748
          },
          {
            "duration": 0.125,
            "durationTicks": 96,
            "midi": 59,
            "name": "B3",
            "ticks": 191136,
            "time": 248.875,
            "velocity": 0.03937007874015748
          },
          {
            "duration": 0.25,
            "durationTicks": 192,
            "midi": 61,
            "name": "C#4",
            "ticks": 191232,
            "time": 249,
            "velocity": 0.03937007874015748
          },
          {
            "duration": 0.25,
            "durationTicks": 192,
            "midi": 64,
            "name": "E4",
            "ticks": 191424,
            "time": 249.25,
            "velocity": 0.03937007874015748
          },
          {
            "duration": 0.25,
            "durationTicks": 192,
            "midi": 68,
            "name": "G#4",
            "ticks": 191616,
            "time": 249.5,
            "velocity": 0.03937007874015748
          },
          {
            "duration": 0.5,
            "durationTicks": 384,
            "midi": 66,
            "name": "F#4",
            "ticks": 191808,
            "time": 249.75,
            "velocity": 0.03937007874015748
          },
          {
            "duration": 0.125,
            "durationTicks": 96,
            "midi": 61,
            "name": "C#4",
            "ticks": 192192,
            "time": 250.25,
            "velocity": 0.03937007874015748
          },
          {
            "duration": 0.125,
            "durationTicks": 96,
            "midi": 59,
            "name": "B3",
            "ticks": 192288,
            "time": 250.375,
            "velocity": 0.03937007874015748
          },
          {
            "duration": 0.125,
            "durationTicks": 96,
            "midi": 61,
            "name": "C#4",
            "ticks": 192480,
            "time": 250.625,
            "velocity": 0.03937007874015748
          },
          {
            "duration": 0.125,
            "durationTicks": 96,
            "midi": 59,
            "name": "B3",
            "ticks": 192672,
            "time": 250.875,
            "velocity": 0.03937007874015748
          },
          {
            "duration": 0.125,
            "durationTicks": 96,
            "midi": 61,
            "name": "C#4",
            "ticks": 192768,
            "time": 251,
            "velocity": 0.03937007874015748
          },
          {
            "duration": 0.125,
            "durationTicks": 96,
            "midi": 59,
            "name": "B3",
            "ticks": 192960,
            "time": 251.25,
            "velocity": 0.03937007874015748
          },
          {
            "duration": 0.125,
            "durationTicks": 96,
            "midi": 61,
            "name": "C#4",
            "ticks": 193152,
            "time": 251.5,
            "velocity": 0.03937007874015748
          },
          {
            "duration": 0.125,
            "durationTicks": 96,
            "midi": 61,
            "name": "C#4",
            "ticks": 193728,
            "time": 252.25,
            "velocity": 0.03937007874015748
          },
          {
            "duration": 0.125,
            "durationTicks": 96,
            "midi": 59,
            "name": "B3",
            "ticks": 193824,
            "time": 252.375,
            "velocity": 0.03937007874015748
          },
          {
            "duration": 0.125,
            "durationTicks": 96,
            "midi": 61,
            "name": "C#4",
            "ticks": 194016,
            "time": 252.625,
            "velocity": 0.03937007874015748
          },
          {
            "duration": 0.125,
            "durationTicks": 96,
            "midi": 59,
            "name": "B3",
            "ticks": 194208,
            "time": 252.875,
            "velocity": 0.03937007874015748
          },
          {
            "duration": 0.25,
            "durationTicks": 192,
            "midi": 61,
            "name": "C#4",
            "ticks": 194304,
            "time": 253,
            "velocity": 0.03937007874015748
          },
          {
            "duration": 0.25,
            "durationTicks": 192,
            "midi": 64,
            "name": "E4",
            "ticks": 194496,
            "time": 253.25,
            "velocity": 0.03937007874015748
          },
          {
            "duration": 0.25,
            "durationTicks": 192,
            "midi": 68,
            "name": "G#4",
            "ticks": 194688,
            "time": 253.5,
            "velocity": 0.03937007874015748
          },
          {
            "duration": 0.5,
            "durationTicks": 384,
            "midi": 66,
            "name": "F#4",
            "ticks": 194880,
            "time": 253.75,
            "velocity": 0.03937007874015748
          },
          {
            "duration": 0.125,
            "durationTicks": 96,
            "midi": 61,
            "name": "C#4",
            "ticks": 195264,
            "time": 254.25,
            "velocity": 0.03937007874015748
          },
          {
            "duration": 0.125,
            "durationTicks": 96,
            "midi": 59,
            "name": "B3",
            "ticks": 195360,
            "time": 254.375,
            "velocity": 0.03937007874015748
          },
          {
            "duration": 0.125,
            "durationTicks": 96,
            "midi": 61,
            "name": "C#4",
            "ticks": 195552,
            "time": 254.625,
            "velocity": 0.03937007874015748
          },
          {
            "duration": 0.125,
            "durationTicks": 96,
            "midi": 59,
            "name": "B3",
            "ticks": 195744,
            "time": 254.875,
            "velocity": 0.03937007874015748
          },
          {
            "duration": 0.125,
            "durationTicks": 96,
            "midi": 61,
            "name": "C#4",
            "ticks": 195840,
            "time": 255,
            "velocity": 0.03937007874015748
          },
          {
            "duration": 0.125,
            "durationTicks": 96,
            "midi": 59,
            "name": "B3",
            "ticks": 196032,
            "time": 255.25,
            "velocity": 0.03937007874015748
          },
          {
            "duration": 0.125,
            "durationTicks": 96,
            "midi": 61,
            "name": "C#4",
            "ticks": 196224,
            "time": 255.5,
            "velocity": 0.03937007874015748
          },
          {
            "duration": 0.125,
            "durationTicks": 96,
            "midi": 61,
            "name": "C#4",
            "ticks": 196800,
            "time": 256.25,
            "velocity": 0.03937007874015748
          },
          {
            "duration": 0.125,
            "durationTicks": 96,
            "midi": 59,
            "name": "B3",
            "ticks": 196896,
            "time": 256.375,
            "velocity": 0.03937007874015748
          },
          {
            "duration": 0.125,
            "durationTicks": 96,
            "midi": 61,
            "name": "C#4",
            "ticks": 197088,
            "time": 256.625,
            "velocity": 0.03937007874015748
          },
          {
            "duration": 0.125,
            "durationTicks": 96,
            "midi": 59,
            "name": "B3",
            "ticks": 197280,
            "time": 256.875,
            "velocity": 0.03937007874015748
          },
          {
            "duration": 0.25,
            "durationTicks": 192,
            "midi": 61,
            "name": "C#4",
            "ticks": 197376,
            "time": 257,
            "velocity": 0.03937007874015748
          },
          {
            "duration": 0.25,
            "durationTicks": 192,
            "midi": 64,
            "name": "E4",
            "ticks": 197568,
            "time": 257.25,
            "velocity": 0.03937007874015748
          },
          {
            "duration": 0.25,
            "durationTicks": 192,
            "midi": 68,
            "name": "G#4",
            "ticks": 197760,
            "time": 257.5,
            "velocity": 0.03937007874015748
          },
          {
            "duration": 0.5,
            "durationTicks": 384,
            "midi": 66,
            "name": "F#4",
            "ticks": 197952,
            "time": 257.75,
            "velocity": 0.03937007874015748
          },
          {
            "duration": 0.125,
            "durationTicks": 96,
            "midi": 61,
            "name": "C#4",
            "ticks": 198336,
            "time": 258.25,
            "velocity": 0.03937007874015748
          },
          {
            "duration": 0.125,
            "durationTicks": 96,
            "midi": 59,
            "name": "B3",
            "ticks": 198432,
            "time": 258.375,
            "velocity": 0.03937007874015748
          },
          {
            "duration": 0.125,
            "durationTicks": 96,
            "midi": 61,
            "name": "C#4",
            "ticks": 198624,
            "time": 258.625,
            "velocity": 0.03937007874015748
          },
          {
            "duration": 0.125,
            "durationTicks": 96,
            "midi": 59,
            "name": "B3",
            "ticks": 198816,
            "time": 258.875,
            "velocity": 0.03937007874015748
          },
          {
            "duration": 0.125,
            "durationTicks": 96,
            "midi": 61,
            "name": "C#4",
            "ticks": 198912,
            "time": 259,
            "velocity": 0.03937007874015748
          },
          {
            "duration": 0.125,
            "durationTicks": 96,
            "midi": 59,
            "name": "B3",
            "ticks": 199104,
            "time": 259.25,
            "velocity": 0.03937007874015748
          },
          {
            "duration": 0.125,
            "durationTicks": 96,
            "midi": 61,
            "name": "C#4",
            "ticks": 199296,
            "time": 259.5,
            "velocity": 0.03937007874015748
          },
          {
            "duration": 0.125,
            "durationTicks": 96,
            "midi": 61,
            "name": "C#4",
            "ticks": 199872,
            "time": 260.25,
            "velocity": 0.03937007874015748
          },
          {
            "duration": 0.125,
            "durationTicks": 96,
            "midi": 59,
            "name": "B3",
            "ticks": 199968,
            "time": 260.375,
            "velocity": 0.03937007874015748
          },
          {
            "duration": 0.125,
            "durationTicks": 96,
            "midi": 61,
            "name": "C#4",
            "ticks": 200160,
            "time": 260.625,
            "velocity": 0.03937007874015748
          },
          {
            "duration": 0.125,
            "durationTicks": 96,
            "midi": 59,
            "name": "B3",
            "ticks": 200352,
            "time": 260.875,
            "velocity": 0.03937007874015748
          },
          {
            "duration": 0.25,
            "durationTicks": 192,
            "midi": 61,
            "name": "C#4",
            "ticks": 200448,
            "time": 261,
            "velocity": 0.03937007874015748
          },
          {
            "duration": 0.25,
            "durationTicks": 192,
            "midi": 64,
            "name": "E4",
            "ticks": 200640,
            "time": 261.25,
            "velocity": 0.03937007874015748
          },
          {
            "duration": 0.25,
            "durationTicks": 192,
            "midi": 68,
            "name": "G#4",
            "ticks": 200832,
            "time": 261.5,
            "velocity": 0.03937007874015748
          },
          {
            "duration": 0.5,
            "durationTicks": 384,
            "midi": 66,
            "name": "F#4",
            "ticks": 201024,
            "time": 261.75,
            "velocity": 0.03937007874015748
          },
          {
            "duration": 0.125,
            "durationTicks": 96,
            "midi": 61,
            "name": "C#4",
            "ticks": 201408,
            "time": 262.25,
            "velocity": 0.03937007874015748
          },
          {
            "duration": 0.125,
            "durationTicks": 96,
            "midi": 59,
            "name": "B3",
            "ticks": 201504,
            "time": 262.375,
            "velocity": 0.03937007874015748
          },
          {
            "duration": 0.125,
            "durationTicks": 96,
            "midi": 61,
            "name": "C#4",
            "ticks": 201696,
            "time": 262.625,
            "velocity": 0.03937007874015748
          },
          {
            "duration": 0.125,
            "durationTicks": 96,
            "midi": 59,
            "name": "B3",
            "ticks": 201888,
            "time": 262.875,
            "velocity": 0.03937007874015748
          },
          {
            "duration": 0.125,
            "durationTicks": 96,
            "midi": 61,
            "name": "C#4",
            "ticks": 201984,
            "time": 263,
            "velocity": 0.03937007874015748
          },
          {
            "duration": 0.125,
            "durationTicks": 96,
            "midi": 59,
            "name": "B3",
            "ticks": 202176,
            "time": 263.25,
            "velocity": 0.03937007874015748
          },
          {
            "duration": 0.125,
            "durationTicks": 96,
            "midi": 61,
            "name": "C#4",
            "ticks": 202368,
            "time": 263.5,
            "velocity": 0.03937007874015748
          },
          {
            "duration": 0.125,
            "durationTicks": 96,
            "midi": 61,
            "name": "C#4",
            "ticks": 202944,
            "time": 264.25,
            "velocity": 0.03937007874015748
          },
          {
            "duration": 0.125,
            "durationTicks": 96,
            "midi": 59,
            "name": "B3",
            "ticks": 203040,
            "time": 264.375,
            "velocity": 0.03937007874015748
          },
          {
            "duration": 0.125,
            "durationTicks": 96,
            "midi": 61,
            "name": "C#4",
            "ticks": 203232,
            "time": 264.625,
            "velocity": 0.03937007874015748
          },
          {
            "duration": 0.125,
            "durationTicks": 96,
            "midi": 59,
            "name": "B3",
            "ticks": 203424,
            "time": 264.875,
            "velocity": 0.03937007874015748
          },
          {
            "duration": 0.25,
            "durationTicks": 192,
            "midi": 61,
            "name": "C#4",
            "ticks": 203520,
            "time": 265,
            "velocity": 0.03937007874015748
          },
          {
            "duration": 0.25,
            "durationTicks": 192,
            "midi": 64,
            "name": "E4",
            "ticks": 203712,
            "time": 265.25,
            "velocity": 0.03937007874015748
          },
          {
            "duration": 0.25,
            "durationTicks": 192,
            "midi": 68,
            "name": "G#4",
            "ticks": 203904,
            "time": 265.5,
            "velocity": 0.03937007874015748
          },
          {
            "duration": 0.5,
            "durationTicks": 384,
            "midi": 66,
            "name": "F#4",
            "ticks": 204096,
            "time": 265.75,
            "velocity": 0.03937007874015748
          },
          {
            "duration": 0.125,
            "durationTicks": 96,
            "midi": 61,
            "name": "C#4",
            "ticks": 204480,
            "time": 266.25,
            "velocity": 0.03937007874015748
          },
          {
            "duration": 0.125,
            "durationTicks": 96,
            "midi": 59,
            "name": "B3",
            "ticks": 204576,
            "time": 266.375,
            "velocity": 0.03937007874015748
          },
          {
            "duration": 0.125,
            "durationTicks": 96,
            "midi": 61,
            "name": "C#4",
            "ticks": 204768,
            "time": 266.625,
            "velocity": 0.03937007874015748
          },
          {
            "duration": 0.125,
            "durationTicks": 96,
            "midi": 59,
            "name": "B3",
            "ticks": 204960,
            "time": 266.875,
            "velocity": 0.03937007874015748
          },
          {
            "duration": 0.125,
            "durationTicks": 96,
            "midi": 61,
            "name": "C#4",
            "ticks": 205056,
            "time": 267,
            "velocity": 0.03937007874015748
          },
          {
            "duration": 0.125,
            "durationTicks": 96,
            "midi": 59,
            "name": "B3",
            "ticks": 205248,
            "time": 267.25,
            "velocity": 0.03937007874015748
          },
          {
            "duration": 0.125,
            "durationTicks": 96,
            "midi": 61,
            "name": "C#4",
            "ticks": 205440,
            "time": 267.5,
            "velocity": 0.03937007874015748
          },
          {
            "duration": 0.125,
            "durationTicks": 96,
            "midi": 61,
            "name": "C#4",
            "ticks": 206016,
            "time": 268.25,
            "velocity": 0.03937007874015748
          },
          {
            "duration": 0.125,
            "durationTicks": 96,
            "midi": 59,
            "name": "B3",
            "ticks": 206112,
            "time": 268.375,
            "velocity": 0.03937007874015748
          },
          {
            "duration": 0.125,
            "durationTicks": 96,
            "midi": 61,
            "name": "C#4",
            "ticks": 206304,
            "time": 268.625,
            "velocity": 0.03937007874015748
          },
          {
            "duration": 0.125,
            "durationTicks": 96,
            "midi": 59,
            "name": "B3",
            "ticks": 206496,
            "time": 268.875,
            "velocity": 0.03937007874015748
          },
          {
            "duration": 0.25,
            "durationTicks": 192,
            "midi": 61,
            "name": "C#4",
            "ticks": 206592,
            "time": 269,
            "velocity": 0.03937007874015748
          },
          {
            "duration": 0.25,
            "durationTicks": 192,
            "midi": 64,
            "name": "E4",
            "ticks": 206784,
            "time": 269.25,
            "velocity": 0.03937007874015748
          },
          {
            "duration": 0.25,
            "durationTicks": 192,
            "midi": 68,
            "name": "G#4",
            "ticks": 206976,
            "time": 269.5,
            "velocity": 0.03937007874015748
          },
          {
            "duration": 0.5,
            "durationTicks": 384,
            "midi": 66,
            "name": "F#4",
            "ticks": 207168,
            "time": 269.75,
            "velocity": 0.03937007874015748
          },
          {
            "duration": 0.125,
            "durationTicks": 96,
            "midi": 61,
            "name": "C#4",
            "ticks": 207552,
            "time": 270.25,
            "velocity": 0.03937007874015748
          },
          {
            "duration": 0.125,
            "durationTicks": 96,
            "midi": 59,
            "name": "B3",
            "ticks": 207648,
            "time": 270.375,
            "velocity": 0.03937007874015748
          },
          {
            "duration": 0.125,
            "durationTicks": 96,
            "midi": 61,
            "name": "C#4",
            "ticks": 207840,
            "time": 270.625,
            "velocity": 0.03937007874015748
          },
          {
            "duration": 0.125,
            "durationTicks": 96,
            "midi": 59,
            "name": "B3",
            "ticks": 208032,
            "time": 270.875,
            "velocity": 0.03937007874015748
          },
          {
            "duration": 0.125,
            "durationTicks": 96,
            "midi": 61,
            "name": "C#4",
            "ticks": 208128,
            "time": 271,
            "velocity": 0.03937007874015748
          },
          {
            "duration": 0.125,
            "durationTicks": 96,
            "midi": 59,
            "name": "B3",
            "ticks": 208320,
            "time": 271.25,
            "velocity": 0.03937007874015748
          },
          {
            "duration": 0.125,
            "durationTicks": 96,
            "midi": 61,
            "name": "C#4",
            "ticks": 208512,
            "time": 271.5,
            "velocity": 0.03937007874015748
          },
          {
            "duration": 0.125,
            "durationTicks": 96,
            "midi": 61,
            "name": "C#4",
            "ticks": 209088,
            "time": 272.25,
            "velocity": 0.03937007874015748
          },
          {
            "duration": 0.125,
            "durationTicks": 96,
            "midi": 59,
            "name": "B3",
            "ticks": 209184,
            "time": 272.375,
            "velocity": 0.03937007874015748
          },
          {
            "duration": 0.125,
            "durationTicks": 96,
            "midi": 61,
            "name": "C#4",
            "ticks": 209376,
            "time": 272.625,
            "velocity": 0.03937007874015748
          },
          {
            "duration": 0.125,
            "durationTicks": 96,
            "midi": 59,
            "name": "B3",
            "ticks": 209568,
            "time": 272.875,
            "velocity": 0.03937007874015748
          },
          {
            "duration": 0.25,
            "durationTicks": 192,
            "midi": 61,
            "name": "C#4",
            "ticks": 209664,
            "time": 273,
            "velocity": 0.03937007874015748
          },
          {
            "duration": 0.25,
            "durationTicks": 192,
            "midi": 64,
            "name": "E4",
            "ticks": 209856,
            "time": 273.25,
            "velocity": 0.03937007874015748
          },
          {
            "duration": 0.25,
            "durationTicks": 192,
            "midi": 68,
            "name": "G#4",
            "ticks": 210048,
            "time": 273.5,
            "velocity": 0.03937007874015748
          },
          {
            "duration": 0.5,
            "durationTicks": 384,
            "midi": 66,
            "name": "F#4",
            "ticks": 210240,
            "time": 273.75,
            "velocity": 0.03937007874015748
          },
          {
            "duration": 0.125,
            "durationTicks": 96,
            "midi": 61,
            "name": "C#4",
            "ticks": 210624,
            "time": 274.25,
            "velocity": 0.03937007874015748
          },
          {
            "duration": 0.125,
            "durationTicks": 96,
            "midi": 59,
            "name": "B3",
            "ticks": 210720,
            "time": 274.375,
            "velocity": 0.03937007874015748
          },
          {
            "duration": 0.125,
            "durationTicks": 96,
            "midi": 61,
            "name": "C#4",
            "ticks": 210912,
            "time": 274.625,
            "velocity": 0.03937007874015748
          },
          {
            "duration": 0.125,
            "durationTicks": 96,
            "midi": 59,
            "name": "B3",
            "ticks": 211104,
            "time": 274.875,
            "velocity": 0.03937007874015748
          },
          {
            "duration": 0.125,
            "durationTicks": 96,
            "midi": 61,
            "name": "C#4",
            "ticks": 211200,
            "time": 275,
            "velocity": 0.03937007874015748
          },
          {
            "duration": 0.125,
            "durationTicks": 96,
            "midi": 59,
            "name": "B3",
            "ticks": 211392,
            "time": 275.25,
            "velocity": 0.03937007874015748
          },
          {
            "duration": 0.125,
            "durationTicks": 96,
            "midi": 61,
            "name": "C#4",
            "ticks": 211584,
            "time": 275.5,
            "velocity": 0.03937007874015748
          },
          {
            "duration": 0.125,
            "durationTicks": 96,
            "midi": 61,
            "name": "C#4",
            "ticks": 212160,
            "time": 276.25,
            "velocity": 0.03937007874015748
          },
          {
            "duration": 0.125,
            "durationTicks": 96,
            "midi": 59,
            "name": "B3",
            "ticks": 212256,
            "time": 276.375,
            "velocity": 0.03937007874015748
          },
          {
            "duration": 0.125,
            "durationTicks": 96,
            "midi": 61,
            "name": "C#4",
            "ticks": 212448,
            "time": 276.625,
            "velocity": 0.03937007874015748
          },
          {
            "duration": 0.125,
            "durationTicks": 96,
            "midi": 59,
            "name": "B3",
            "ticks": 212640,
            "time": 276.875,
            "velocity": 0.03937007874015748
          },
          {
            "duration": 0.25,
            "durationTicks": 192,
            "midi": 61,
            "name": "C#4",
            "ticks": 212736,
            "time": 277,
            "velocity": 0.03937007874015748
          },
          {
            "duration": 0.25,
            "durationTicks": 192,
            "midi": 64,
            "name": "E4",
            "ticks": 212928,
            "time": 277.25,
            "velocity": 0.03937007874015748
          },
          {
            "duration": 0.25,
            "durationTicks": 192,
            "midi": 68,
            "name": "G#4",
            "ticks": 213120,
            "time": 277.5,
            "velocity": 0.03937007874015748
          },
          {
            "duration": 0.5,
            "durationTicks": 384,
            "midi": 66,
            "name": "F#4",
            "ticks": 213312,
            "time": 277.75,
            "velocity": 0.03937007874015748
          },
          {
            "duration": 0.125,
            "durationTicks": 96,
            "midi": 61,
            "name": "C#4",
            "ticks": 213696,
            "time": 278.25,
            "velocity": 0.03937007874015748
          },
          {
            "duration": 0.125,
            "durationTicks": 96,
            "midi": 59,
            "name": "B3",
            "ticks": 213792,
            "time": 278.375,
            "velocity": 0.03937007874015748
          },
          {
            "duration": 0.125,
            "durationTicks": 96,
            "midi": 61,
            "name": "C#4",
            "ticks": 213984,
            "time": 278.625,
            "velocity": 0.03937007874015748
          },
          {
            "duration": 0.125,
            "durationTicks": 96,
            "midi": 59,
            "name": "B3",
            "ticks": 214176,
            "time": 278.875,
            "velocity": 0.03937007874015748
          },
          {
            "duration": 0.125,
            "durationTicks": 96,
            "midi": 61,
            "name": "C#4",
            "ticks": 214272,
            "time": 279,
            "velocity": 0.03937007874015748
          },
          {
            "duration": 0.125,
            "durationTicks": 96,
            "midi": 59,
            "name": "B3",
            "ticks": 214464,
            "time": 279.25,
            "velocity": 0.03937007874015748
          },
          {
            "duration": 0.125,
            "durationTicks": 96,
            "midi": 61,
            "name": "C#4",
            "ticks": 214656,
            "time": 279.5,
            "velocity": 0.03937007874015748
          },
          {
            "duration": 0.125,
            "durationTicks": 96,
            "midi": 61,
            "name": "C#4",
            "ticks": 215232,
            "time": 280.25,
            "velocity": 0.03937007874015748
          },
          {
            "duration": 0.125,
            "durationTicks": 96,
            "midi": 59,
            "name": "B3",
            "ticks": 215328,
            "time": 280.375,
            "velocity": 0.03937007874015748
          },
          {
            "duration": 0.125,
            "durationTicks": 96,
            "midi": 61,
            "name": "C#4",
            "ticks": 215520,
            "time": 280.625,
            "velocity": 0.03937007874015748
          },
          {
            "duration": 0.125,
            "durationTicks": 96,
            "midi": 59,
            "name": "B3",
            "ticks": 215712,
            "time": 280.875,
            "velocity": 0.03937007874015748
          },
          {
            "duration": 0.25,
            "durationTicks": 192,
            "midi": 61,
            "name": "C#4",
            "ticks": 215808,
            "time": 281,
            "velocity": 0.03937007874015748
          },
          {
            "duration": 0.25,
            "durationTicks": 192,
            "midi": 64,
            "name": "E4",
            "ticks": 216000,
            "time": 281.25,
            "velocity": 0.03937007874015748
          },
          {
            "duration": 0.25,
            "durationTicks": 192,
            "midi": 68,
            "name": "G#4",
            "ticks": 216192,
            "time": 281.5,
            "velocity": 0.03937007874015748
          },
          {
            "duration": 0.5,
            "durationTicks": 384,
            "midi": 66,
            "name": "F#4",
            "ticks": 216384,
            "time": 281.75,
            "velocity": 0.03937007874015748
          },
          {
            "duration": 0.125,
            "durationTicks": 96,
            "midi": 61,
            "name": "C#4",
            "ticks": 216768,
            "time": 282.25,
            "velocity": 0.03937007874015748
          },
          {
            "duration": 0.125,
            "durationTicks": 96,
            "midi": 59,
            "name": "B3",
            "ticks": 216864,
            "time": 282.375,
            "velocity": 0.03937007874015748
          },
          {
            "duration": 0.125,
            "durationTicks": 96,
            "midi": 61,
            "name": "C#4",
            "ticks": 217056,
            "time": 282.625,
            "velocity": 0.03937007874015748
          },
          {
            "duration": 0.125,
            "durationTicks": 96,
            "midi": 59,
            "name": "B3",
            "ticks": 217248,
            "time": 282.875,
            "velocity": 0.03937007874015748
          },
          {
            "duration": 0.125,
            "durationTicks": 96,
            "midi": 61,
            "name": "C#4",
            "ticks": 217344,
            "time": 283,
            "velocity": 0.03937007874015748
          },
          {
            "duration": 0.125,
            "durationTicks": 96,
            "midi": 59,
            "name": "B3",
            "ticks": 217536,
            "time": 283.25,
            "velocity": 0.03937007874015748
          },
          {
            "duration": 0.125,
            "durationTicks": 96,
            "midi": 61,
            "name": "C#4",
            "ticks": 217728,
            "time": 283.5,
            "velocity": 0.03937007874015748
          },
          {
            "duration": 0.125,
            "durationTicks": 96,
            "midi": 61,
            "name": "C#4",
            "ticks": 218304,
            "time": 284.25,
            "velocity": 0.03937007874015748
          },
          {
            "duration": 0.125,
            "durationTicks": 96,
            "midi": 59,
            "name": "B3",
            "ticks": 218400,
            "time": 284.375,
            "velocity": 0.03937007874015748
          },
          {
            "duration": 0.125,
            "durationTicks": 96,
            "midi": 61,
            "name": "C#4",
            "ticks": 218592,
            "time": 284.625,
            "velocity": 0.03937007874015748
          },
          {
            "duration": 0.125,
            "durationTicks": 96,
            "midi": 59,
            "name": "B3",
            "ticks": 218784,
            "time": 284.875,
            "velocity": 0.03937007874015748
          },
          {
            "duration": 0.25,
            "durationTicks": 192,
            "midi": 61,
            "name": "C#4",
            "ticks": 218880,
            "time": 285,
            "velocity": 0.03937007874015748
          },
          {
            "duration": 0.25,
            "durationTicks": 192,
            "midi": 64,
            "name": "E4",
            "ticks": 219072,
            "time": 285.25,
            "velocity": 0.03937007874015748
          },
          {
            "duration": 0.25,
            "durationTicks": 192,
            "midi": 68,
            "name": "G#4",
            "ticks": 219264,
            "time": 285.5,
            "velocity": 0.03937007874015748
          },
          {
            "duration": 0.5,
            "durationTicks": 384,
            "midi": 66,
            "name": "F#4",
            "ticks": 219456,
            "time": 285.75,
            "velocity": 0.03937007874015748
          },
          {
            "duration": 0.125,
            "durationTicks": 96,
            "midi": 61,
            "name": "C#4",
            "ticks": 219840,
            "time": 286.25,
            "velocity": 0.03937007874015748
          },
          {
            "duration": 0.125,
            "durationTicks": 96,
            "midi": 59,
            "name": "B3",
            "ticks": 219936,
            "time": 286.375,
            "velocity": 0.03937007874015748
          },
          {
            "duration": 0.125,
            "durationTicks": 96,
            "midi": 61,
            "name": "C#4",
            "ticks": 220128,
            "time": 286.625,
            "velocity": 0.03937007874015748
          },
          {
            "duration": 0.125,
            "durationTicks": 96,
            "midi": 59,
            "name": "B3",
            "ticks": 220320,
            "time": 286.875,
            "velocity": 0.03937007874015748
          },
          {
            "duration": 0.125,
            "durationTicks": 96,
            "midi": 61,
            "name": "C#4",
            "ticks": 220416,
            "time": 287,
            "velocity": 0.03937007874015748
          },
          {
            "duration": 0.125,
            "durationTicks": 96,
            "midi": 59,
            "name": "B3",
            "ticks": 220608,
            "time": 287.25,
            "velocity": 0.03937007874015748
          },
          {
            "duration": 0.125,
            "durationTicks": 96,
            "midi": 61,
            "name": "C#4",
            "ticks": 220800,
            "time": 287.5,
            "velocity": 0.03937007874015748
          },
          {
            "duration": 0.125,
            "durationTicks": 96,
            "midi": 61,
            "name": "C#4",
            "ticks": 221376,
            "time": 288.25,
            "velocity": 0.03937007874015748
          },
          {
            "duration": 0.125,
            "durationTicks": 96,
            "midi": 59,
            "name": "B3",
            "ticks": 221472,
            "time": 288.375,
            "velocity": 0.03937007874015748
          },
          {
            "duration": 0.125,
            "durationTicks": 96,
            "midi": 61,
            "name": "C#4",
            "ticks": 221664,
            "time": 288.625,
            "velocity": 0.03937007874015748
          },
          {
            "duration": 0.125,
            "durationTicks": 96,
            "midi": 59,
            "name": "B3",
            "ticks": 221856,
            "time": 288.875,
            "velocity": 0.03937007874015748
          },
          {
            "duration": 0.25,
            "durationTicks": 192,
            "midi": 61,
            "name": "C#4",
            "ticks": 221952,
            "time": 289,
            "velocity": 0.03937007874015748
          },
          {
            "duration": 0.25,
            "durationTicks": 192,
            "midi": 64,
            "name": "E4",
            "ticks": 222144,
            "time": 289.25,
            "velocity": 0.03937007874015748
          },
          {
            "duration": 0.25,
            "durationTicks": 192,
            "midi": 68,
            "name": "G#4",
            "ticks": 222336,
            "time": 289.5,
            "velocity": 0.03937007874015748
          },
          {
            "duration": 0.5,
            "durationTicks": 384,
            "midi": 66,
            "name": "F#4",
            "ticks": 222528,
            "time": 289.75,
            "velocity": 0.03937007874015748
          },
          {
            "duration": 0.125,
            "durationTicks": 96,
            "midi": 61,
            "name": "C#4",
            "ticks": 222912,
            "time": 290.25,
            "velocity": 0.03937007874015748
          },
          {
            "duration": 0.125,
            "durationTicks": 96,
            "midi": 59,
            "name": "B3",
            "ticks": 223008,
            "time": 290.375,
            "velocity": 0.03937007874015748
          },
          {
            "duration": 0.125,
            "durationTicks": 96,
            "midi": 61,
            "name": "C#4",
            "ticks": 223200,
            "time": 290.625,
            "velocity": 0.03937007874015748
          },
          {
            "duration": 0.125,
            "durationTicks": 96,
            "midi": 59,
            "name": "B3",
            "ticks": 223392,
            "time": 290.875,
            "velocity": 0.03937007874015748
          },
          {
            "duration": 0.125,
            "durationTicks": 96,
            "midi": 61,
            "name": "C#4",
            "ticks": 223488,
            "time": 291,
            "velocity": 0.03937007874015748
          },
          {
            "duration": 0.125,
            "durationTicks": 96,
            "midi": 59,
            "name": "B3",
            "ticks": 223680,
            "time": 291.25,
            "velocity": 0.03937007874015748
          },
          {
            "duration": 0.125,
            "durationTicks": 96,
            "midi": 61,
            "name": "C#4",
            "ticks": 223872,
            "time": 291.5,
            "velocity": 0.03937007874015748
          },
          {
            "duration": 0.125,
            "durationTicks": 96,
            "midi": 61,
            "name": "C#4",
            "ticks": 224448,
            "time": 292.25,
            "velocity": 0.03937007874015748
          },
          {
            "duration": 0.125,
            "durationTicks": 96,
            "midi": 59,
            "name": "B3",
            "ticks": 224544,
            "time": 292.375,
            "velocity": 0.03937007874015748
          },
          {
            "duration": 0.125,
            "durationTicks": 96,
            "midi": 61,
            "name": "C#4",
            "ticks": 224736,
            "time": 292.625,
            "velocity": 0.03937007874015748
          },
          {
            "duration": 0.125,
            "durationTicks": 96,
            "midi": 59,
            "name": "B3",
            "ticks": 224928,
            "time": 292.875,
            "velocity": 0.03937007874015748
          },
          {
            "duration": 0.25,
            "durationTicks": 192,
            "midi": 61,
            "name": "C#4",
            "ticks": 225024,
            "time": 293,
            "velocity": 0.03937007874015748
          },
          {
            "duration": 0.25,
            "durationTicks": 192,
            "midi": 64,
            "name": "E4",
            "ticks": 225216,
            "time": 293.25,
            "velocity": 0.03937007874015748
          },
          {
            "duration": 0.25,
            "durationTicks": 192,
            "midi": 68,
            "name": "G#4",
            "ticks": 225408,
            "time": 293.5,
            "velocity": 0.03937007874015748
          },
          {
            "duration": 0.5,
            "durationTicks": 384,
            "midi": 66,
            "name": "F#4",
            "ticks": 225600,
            "time": 293.75,
            "velocity": 0.03937007874015748
          },
          {
            "duration": 0.125,
            "durationTicks": 96,
            "midi": 61,
            "name": "C#4",
            "ticks": 225984,
            "time": 294.25,
            "velocity": 0.03937007874015748
          },
          {
            "duration": 0.125,
            "durationTicks": 96,
            "midi": 59,
            "name": "B3",
            "ticks": 226080,
            "time": 294.375,
            "velocity": 0.03937007874015748
          },
          {
            "duration": 0.125,
            "durationTicks": 96,
            "midi": 61,
            "name": "C#4",
            "ticks": 226272,
            "time": 294.625,
            "velocity": 0.03937007874015748
          },
          {
            "duration": 0.125,
            "durationTicks": 96,
            "midi": 59,
            "name": "B3",
            "ticks": 226464,
            "time": 294.875,
            "velocity": 0.03937007874015748
          },
          {
            "duration": 0.125,
            "durationTicks": 96,
            "midi": 61,
            "name": "C#4",
            "ticks": 226560,
            "time": 295,
            "velocity": 0.03937007874015748
          },
          {
            "duration": 0.125,
            "durationTicks": 96,
            "midi": 59,
            "name": "B3",
            "ticks": 226752,
            "time": 295.25,
            "velocity": 0.03937007874015748
          },
          {
            "duration": 0.125,
            "durationTicks": 96,
            "midi": 61,
            "name": "C#4",
            "ticks": 226944,
            "time": 295.5,
            "velocity": 0.03937007874015748
          },
          {
            "duration": 0.125,
            "durationTicks": 96,
            "midi": 61,
            "name": "C#4",
            "ticks": 227520,
            "time": 296.25,
            "velocity": 0.03937007874015748
          },
          {
            "duration": 0.125,
            "durationTicks": 96,
            "midi": 59,
            "name": "B3",
            "ticks": 227616,
            "time": 296.375,
            "velocity": 0.03937007874015748
          },
          {
            "duration": 0.125,
            "durationTicks": 96,
            "midi": 61,
            "name": "C#4",
            "ticks": 227808,
            "time": 296.625,
            "velocity": 0.03937007874015748
          },
          {
            "duration": 0.125,
            "durationTicks": 96,
            "midi": 59,
            "name": "B3",
            "ticks": 228000,
            "time": 296.875,
            "velocity": 0.03937007874015748
          },
          {
            "duration": 0.25,
            "durationTicks": 192,
            "midi": 61,
            "name": "C#4",
            "ticks": 228096,
            "time": 297,
            "velocity": 0.03937007874015748
          },
          {
            "duration": 0.25,
            "durationTicks": 192,
            "midi": 64,
            "name": "E4",
            "ticks": 228288,
            "time": 297.25,
            "velocity": 0.03937007874015748
          },
          {
            "duration": 0.25,
            "durationTicks": 192,
            "midi": 68,
            "name": "G#4",
            "ticks": 228480,
            "time": 297.5,
            "velocity": 0.03937007874015748
          },
          {
            "duration": 0.5,
            "durationTicks": 384,
            "midi": 66,
            "name": "F#4",
            "ticks": 228672,
            "time": 297.75,
            "velocity": 0.03937007874015748
          },
          {
            "duration": 0.125,
            "durationTicks": 96,
            "midi": 61,
            "name": "C#4",
            "ticks": 229056,
            "time": 298.25,
            "velocity": 0.03937007874015748
          },
          {
            "duration": 0.125,
            "durationTicks": 96,
            "midi": 59,
            "name": "B3",
            "ticks": 229152,
            "time": 298.375,
            "velocity": 0.03937007874015748
          },
          {
            "duration": 0.125,
            "durationTicks": 96,
            "midi": 61,
            "name": "C#4",
            "ticks": 229344,
            "time": 298.625,
            "velocity": 0.03937007874015748
          },
          {
            "duration": 0.125,
            "durationTicks": 96,
            "midi": 59,
            "name": "B3",
            "ticks": 229536,
            "time": 298.875,
            "velocity": 0.03937007874015748
          },
          {
            "duration": 0.125,
            "durationTicks": 96,
            "midi": 61,
            "name": "C#4",
            "ticks": 229632,
            "time": 299,
            "velocity": 0.03937007874015748
          },
          {
            "duration": 0.125,
            "durationTicks": 96,
            "midi": 59,
            "name": "B3",
            "ticks": 229824,
            "time": 299.25,
            "velocity": 0.03937007874015748
          },
          {
            "duration": 0.125,
            "durationTicks": 96,
            "midi": 61,
            "name": "C#4",
            "ticks": 230016,
            "time": 299.5,
            "velocity": 0.03937007874015748
          },
          {
            "duration": 0.125,
            "durationTicks": 96,
            "midi": 61,
            "name": "C#4",
            "ticks": 230592,
            "time": 300.25,
            "velocity": 0.03937007874015748
          },
          {
            "duration": 0.125,
            "durationTicks": 96,
            "midi": 59,
            "name": "B3",
            "ticks": 230688,
            "time": 300.375,
            "velocity": 0.03937007874015748
          },
          {
            "duration": 0.125,
            "durationTicks": 96,
            "midi": 61,
            "name": "C#4",
            "ticks": 230880,
            "time": 300.625,
            "velocity": 0.03937007874015748
          },
          {
            "duration": 0.125,
            "durationTicks": 96,
            "midi": 59,
            "name": "B3",
            "ticks": 231072,
            "time": 300.875,
            "velocity": 0.03937007874015748
          },
          {
            "duration": 0.25,
            "durationTicks": 192,
            "midi": 61,
            "name": "C#4",
            "ticks": 231168,
            "time": 301,
            "velocity": 0.03937007874015748
          },
          {
            "duration": 0.25,
            "durationTicks": 192,
            "midi": 64,
            "name": "E4",
            "ticks": 231360,
            "time": 301.25,
            "velocity": 0.03937007874015748
          },
          {
            "duration": 0.25,
            "durationTicks": 192,
            "midi": 68,
            "name": "G#4",
            "ticks": 231552,
            "time": 301.5,
            "velocity": 0.03937007874015748
          },
          {
            "duration": 0.5,
            "durationTicks": 384,
            "midi": 66,
            "name": "F#4",
            "ticks": 231744,
            "time": 301.75,
            "velocity": 0.03937007874015748
          },
          {
            "duration": 0.125,
            "durationTicks": 96,
            "midi": 61,
            "name": "C#4",
            "ticks": 232128,
            "time": 302.25,
            "velocity": 0.03937007874015748
          },
          {
            "duration": 0.125,
            "durationTicks": 96,
            "midi": 59,
            "name": "B3",
            "ticks": 232224,
            "time": 302.375,
            "velocity": 0.03937007874015748
          },
          {
            "duration": 0.125,
            "durationTicks": 96,
            "midi": 61,
            "name": "C#4",
            "ticks": 232416,
            "time": 302.625,
            "velocity": 0.03937007874015748
          },
          {
            "duration": 0.125,
            "durationTicks": 96,
            "midi": 59,
            "name": "B3",
            "ticks": 232608,
            "time": 302.875,
            "velocity": 0.03937007874015748
          },
          {
            "duration": 0.125,
            "durationTicks": 96,
            "midi": 61,
            "name": "C#4",
            "ticks": 232704,
            "time": 303,
            "velocity": 0.03937007874015748
          },
          {
            "duration": 0.125,
            "durationTicks": 96,
            "midi": 59,
            "name": "B3",
            "ticks": 232896,
            "time": 303.25,
            "velocity": 0.03937007874015748
          },
          {
            "duration": 0.125,
            "durationTicks": 96,
            "midi": 61,
            "name": "C#4",
            "ticks": 233088,
            "time": 303.5,
            "velocity": 0.03937007874015748
          },
          {
            "duration": 0.125,
            "durationTicks": 96,
            "midi": 61,
            "name": "C#4",
            "ticks": 233664,
            "time": 304.25,
            "velocity": 0.03937007874015748
          },
          {
            "duration": 0.125,
            "durationTicks": 96,
            "midi": 59,
            "name": "B3",
            "ticks": 233760,
            "time": 304.375,
            "velocity": 0.03937007874015748
          },
          {
            "duration": 0.125,
            "durationTicks": 96,
            "midi": 61,
            "name": "C#4",
            "ticks": 233952,
            "time": 304.625,
            "velocity": 0.03937007874015748
          },
          {
            "duration": 0.125,
            "durationTicks": 96,
            "midi": 59,
            "name": "B3",
            "ticks": 234144,
            "time": 304.875,
            "velocity": 0.03937007874015748
          },
          {
            "duration": 0.25,
            "durationTicks": 192,
            "midi": 61,
            "name": "C#4",
            "ticks": 234240,
            "time": 305,
            "velocity": 0.03937007874015748
          },
          {
            "duration": 0.25,
            "durationTicks": 192,
            "midi": 64,
            "name": "E4",
            "ticks": 234432,
            "time": 305.25,
            "velocity": 0.03937007874015748
          },
          {
            "duration": 0.25,
            "durationTicks": 192,
            "midi": 68,
            "name": "G#4",
            "ticks": 234624,
            "time": 305.5,
            "velocity": 0.03937007874015748
          },
          {
            "duration": 0.5,
            "durationTicks": 384,
            "midi": 66,
            "name": "F#4",
            "ticks": 234816,
            "time": 305.75,
            "velocity": 0.03937007874015748
          },
          {
            "duration": 0.125,
            "durationTicks": 96,
            "midi": 61,
            "name": "C#4",
            "ticks": 235200,
            "time": 306.25,
            "velocity": 0.03937007874015748
          },
          {
            "duration": 0.125,
            "durationTicks": 96,
            "midi": 59,
            "name": "B3",
            "ticks": 235296,
            "time": 306.375,
            "velocity": 0.03937007874015748
          },
          {
            "duration": 0.125,
            "durationTicks": 96,
            "midi": 61,
            "name": "C#4",
            "ticks": 235488,
            "time": 306.625,
            "velocity": 0.03937007874015748
          },
          {
            "duration": 0.125,
            "durationTicks": 96,
            "midi": 59,
            "name": "B3",
            "ticks": 235680,
            "time": 306.875,
            "velocity": 0.03937007874015748
          },
          {
            "duration": 0.125,
            "durationTicks": 96,
            "midi": 61,
            "name": "C#4",
            "ticks": 235776,
            "time": 307,
            "velocity": 0.03937007874015748
          },
          {
            "duration": 0.125,
            "durationTicks": 96,
            "midi": 59,
            "name": "B3",
            "ticks": 235968,
            "time": 307.25,
            "velocity": 0.03937007874015748
          },
          {
            "duration": 0.125,
            "durationTicks": 96,
            "midi": 61,
            "name": "C#4",
            "ticks": 236160,
            "time": 307.5,
            "velocity": 0.03937007874015748
          },
          {
            "duration": 0.125,
            "durationTicks": 96,
            "midi": 61,
            "name": "C#4",
            "ticks": 236736,
            "time": 308.25,
            "velocity": 0.03937007874015748
          },
          {
            "duration": 0.125,
            "durationTicks": 96,
            "midi": 59,
            "name": "B3",
            "ticks": 236832,
            "time": 308.375,
            "velocity": 0.03937007874015748
          },
          {
            "duration": 0.125,
            "durationTicks": 96,
            "midi": 61,
            "name": "C#4",
            "ticks": 237024,
            "time": 308.625,
            "velocity": 0.03937007874015748
          },
          {
            "duration": 0.125,
            "durationTicks": 96,
            "midi": 59,
            "name": "B3",
            "ticks": 237216,
            "time": 308.875,
            "velocity": 0.03937007874015748
          },
          {
            "duration": 0.25,
            "durationTicks": 192,
            "midi": 61,
            "name": "C#4",
            "ticks": 237312,
            "time": 309,
            "velocity": 0.03937007874015748
          },
          {
            "duration": 0.25,
            "durationTicks": 192,
            "midi": 64,
            "name": "E4",
            "ticks": 237504,
            "time": 309.25,
            "velocity": 0.03937007874015748
          },
          {
            "duration": 0.25,
            "durationTicks": 192,
            "midi": 68,
            "name": "G#4",
            "ticks": 237696,
            "time": 309.5,
            "velocity": 0.03937007874015748
          },
          {
            "duration": 0.5,
            "durationTicks": 384,
            "midi": 66,
            "name": "F#4",
            "ticks": 237888,
            "time": 309.75,
            "velocity": 0.03937007874015748
          },
          {
            "duration": 0.125,
            "durationTicks": 96,
            "midi": 61,
            "name": "C#4",
            "ticks": 238272,
            "time": 310.25,
            "velocity": 0.03937007874015748
          },
          {
            "duration": 0.125,
            "durationTicks": 96,
            "midi": 59,
            "name": "B3",
            "ticks": 238368,
            "time": 310.375,
            "velocity": 0.03937007874015748
          },
          {
            "duration": 0.125,
            "durationTicks": 96,
            "midi": 61,
            "name": "C#4",
            "ticks": 238560,
            "time": 310.625,
            "velocity": 0.03937007874015748
          },
          {
            "duration": 0.125,
            "durationTicks": 96,
            "midi": 59,
            "name": "B3",
            "ticks": 238752,
            "time": 310.875,
            "velocity": 0.03937007874015748
          },
          {
            "duration": 0.125,
            "durationTicks": 96,
            "midi": 61,
            "name": "C#4",
            "ticks": 238848,
            "time": 311,
            "velocity": 0.03937007874015748
          },
          {
            "duration": 0.125,
            "durationTicks": 96,
            "midi": 59,
            "name": "B3",
            "ticks": 239040,
            "time": 311.25,
            "velocity": 0.03937007874015748
          },
          {
            "duration": 0.125,
            "durationTicks": 96,
            "midi": 61,
            "name": "C#4",
            "ticks": 239232,
            "time": 311.5,
            "velocity": 0.03937007874015748
          },
          {
            "duration": 0.125,
            "durationTicks": 96,
            "midi": 61,
            "name": "C#4",
            "ticks": 239808,
            "time": 312.25,
            "velocity": 0.03937007874015748
          },
          {
            "duration": 0.125,
            "durationTicks": 96,
            "midi": 59,
            "name": "B3",
            "ticks": 239904,
            "time": 312.375,
            "velocity": 0.03937007874015748
          },
          {
            "duration": 0.125,
            "durationTicks": 96,
            "midi": 61,
            "name": "C#4",
            "ticks": 240096,
            "time": 312.625,
            "velocity": 0.03937007874015748
          },
          {
            "duration": 0.125,
            "durationTicks": 96,
            "midi": 59,
            "name": "B3",
            "ticks": 240288,
            "time": 312.875,
            "velocity": 0.03937007874015748
          },
          {
            "duration": 0.25,
            "durationTicks": 192,
            "midi": 61,
            "name": "C#4",
            "ticks": 240384,
            "time": 313,
            "velocity": 0.03937007874015748
          },
          {
            "duration": 0.25,
            "durationTicks": 192,
            "midi": 64,
            "name": "E4",
            "ticks": 240576,
            "time": 313.25,
            "velocity": 0.03937007874015748
          },
          {
            "duration": 0.25,
            "durationTicks": 192,
            "midi": 68,
            "name": "G#4",
            "ticks": 240768,
            "time": 313.5,
            "velocity": 0.03937007874015748
          },
          {
            "duration": 0.5,
            "durationTicks": 384,
            "midi": 66,
            "name": "F#4",
            "ticks": 240960,
            "time": 313.75,
            "velocity": 0.03937007874015748
          },
          {
            "duration": 0.125,
            "durationTicks": 96,
            "midi": 61,
            "name": "C#4",
            "ticks": 241344,
            "time": 314.25,
            "velocity": 0.03937007874015748
          },
          {
            "duration": 0.125,
            "durationTicks": 96,
            "midi": 59,
            "name": "B3",
            "ticks": 241440,
            "time": 314.375,
            "velocity": 0.03937007874015748
          },
          {
            "duration": 0.125,
            "durationTicks": 96,
            "midi": 61,
            "name": "C#4",
            "ticks": 241632,
            "time": 314.625,
            "velocity": 0.03937007874015748
          },
          {
            "duration": 0.125,
            "durationTicks": 96,
            "midi": 59,
            "name": "B3",
            "ticks": 241824,
            "time": 314.875,
            "velocity": 0.03937007874015748
          },
          {
            "duration": 0.125,
            "durationTicks": 96,
            "midi": 61,
            "name": "C#4",
            "ticks": 241920,
            "time": 315,
            "velocity": 0.03937007874015748
          },
          {
            "duration": 0.125,
            "durationTicks": 96,
            "midi": 59,
            "name": "B3",
            "ticks": 242112,
            "time": 315.25,
            "velocity": 0.03937007874015748
          },
          {
            "duration": 0.125,
            "durationTicks": 96,
            "midi": 61,
            "name": "C#4",
            "ticks": 242304,
            "time": 315.5,
            "velocity": 0.03937007874015748
          },
          {
            "duration": 0.125,
            "durationTicks": 96,
            "midi": 61,
            "name": "C#4",
            "ticks": 242880,
            "time": 316.25,
            "velocity": 0.03937007874015748
          },
          {
            "duration": 0.125,
            "durationTicks": 96,
            "midi": 59,
            "name": "B3",
            "ticks": 242976,
            "time": 316.375,
            "velocity": 0.03937007874015748
          },
          {
            "duration": 0.125,
            "durationTicks": 96,
            "midi": 61,
            "name": "C#4",
            "ticks": 243168,
            "time": 316.625,
            "velocity": 0.03937007874015748
          },
          {
            "duration": 0.125,
            "durationTicks": 96,
            "midi": 59,
            "name": "B3",
            "ticks": 243360,
            "time": 316.875,
            "velocity": 0.03937007874015748
          },
          {
            "duration": 0.25,
            "durationTicks": 192,
            "midi": 61,
            "name": "C#4",
            "ticks": 243456,
            "time": 317,
            "velocity": 0.03937007874015748
          },
          {
            "duration": 0.25,
            "durationTicks": 192,
            "midi": 64,
            "name": "E4",
            "ticks": 243648,
            "time": 317.25,
            "velocity": 0.03937007874015748
          },
          {
            "duration": 0.25,
            "durationTicks": 192,
            "midi": 68,
            "name": "G#4",
            "ticks": 243840,
            "time": 317.5,
            "velocity": 0.03937007874015748
          },
          {
            "duration": 0.5,
            "durationTicks": 384,
            "midi": 66,
            "name": "F#4",
            "ticks": 244032,
            "time": 317.75,
            "velocity": 0.03937007874015748
          },
          {
            "duration": 0.125,
            "durationTicks": 96,
            "midi": 61,
            "name": "C#4",
            "ticks": 244416,
            "time": 318.25,
            "velocity": 0.03937007874015748
          },
          {
            "duration": 0.125,
            "durationTicks": 96,
            "midi": 59,
            "name": "B3",
            "ticks": 244512,
            "time": 318.375,
            "velocity": 0.03937007874015748
          },
          {
            "duration": 0.125,
            "durationTicks": 96,
            "midi": 61,
            "name": "C#4",
            "ticks": 244704,
            "time": 318.625,
            "velocity": 0.03937007874015748
          },
          {
            "duration": 0.125,
            "durationTicks": 96,
            "midi": 59,
            "name": "B3",
            "ticks": 244896,
            "time": 318.875,
            "velocity": 0.03937007874015748
          },
          {
            "duration": 0.125,
            "durationTicks": 96,
            "midi": 61,
            "name": "C#4",
            "ticks": 244992,
            "time": 319,
            "velocity": 0.03937007874015748
          },
          {
            "duration": 0.125,
            "durationTicks": 96,
            "midi": 59,
            "name": "B3",
            "ticks": 245184,
            "time": 319.25,
            "velocity": 0.03937007874015748
          },
          {
            "duration": 0.125,
            "durationTicks": 96,
            "midi": 61,
            "name": "C#4",
            "ticks": 245376,
            "time": 319.5,
            "velocity": 0.03937007874015748
          },
          {
            "duration": 0.125,
            "durationTicks": 96,
            "midi": 61,
            "name": "C#4",
            "ticks": 245952,
            "time": 320.25,
            "velocity": 0.03937007874015748
          },
          {
            "duration": 0.125,
            "durationTicks": 96,
            "midi": 59,
            "name": "B3",
            "ticks": 246048,
            "time": 320.375,
            "velocity": 0.03937007874015748
          },
          {
            "duration": 0.125,
            "durationTicks": 96,
            "midi": 61,
            "name": "C#4",
            "ticks": 246240,
            "time": 320.625,
            "velocity": 0.03937007874015748
          },
          {
            "duration": 0.125,
            "durationTicks": 96,
            "midi": 59,
            "name": "B3",
            "ticks": 246432,
            "time": 320.875,
            "velocity": 0.03937007874015748
          },
          {
            "duration": 0.25,
            "durationTicks": 192,
            "midi": 61,
            "name": "C#4",
            "ticks": 246528,
            "time": 321,
            "velocity": 0.03937007874015748
          },
          {
            "duration": 0.25,
            "durationTicks": 192,
            "midi": 64,
            "name": "E4",
            "ticks": 246720,
            "time": 321.25,
            "velocity": 0.03937007874015748
          },
          {
            "duration": 0.25,
            "durationTicks": 192,
            "midi": 68,
            "name": "G#4",
            "ticks": 246912,
            "time": 321.5,
            "velocity": 0.03937007874015748
          },
          {
            "duration": 0.5,
            "durationTicks": 384,
            "midi": 66,
            "name": "F#4",
            "ticks": 247104,
            "time": 321.75,
            "velocity": 0.03937007874015748
          }
        ],
        "endOfTrackTicks": 247488
      },
      {
        "channel": 4,
        "controlChanges": {},
        "pitchBends": [],
        "instrument": {
          "family": "bass",
          "number": 32,
          "name": "acoustic bass"
        },
        "name": "Bass (Classic)",
        "notes": [
          {
            "duration": 0.125,
            "durationTicks": 96,
            "midi": 37,
            "name": "C#2",
            "ticks": 18336,
            "time": 23.875,
            "velocity": 0.3937007874015748
          },
          {
            "duration": 0.125,
            "durationTicks": 96,
            "midi": 37,
            "name": "C#2",
            "ticks": 18432,
            "time": 24,
            "velocity": 0.3937007874015748
          },
          {
            "duration": 0.125,
            "durationTicks": 96,
            "midi": 37,
            "name": "C#2",
            "ticks": 18624,
            "time": 24.25,
            "velocity": 0.3937007874015748
          },
          {
            "duration": 0.125,
            "durationTicks": 96,
            "midi": 37,
            "name": "C#2",
            "ticks": 18816,
            "time": 24.5,
            "velocity": 0.3937007874015748
          },
          {
            "duration": 0.125,
            "durationTicks": 96,
            "midi": 37,
            "name": "C#2",
            "ticks": 19008,
            "time": 24.75,
            "velocity": 0.3937007874015748
          },
          {
            "duration": 0.125,
            "durationTicks": 96,
            "midi": 37,
            "name": "C#2",
            "ticks": 19200,
            "time": 25,
            "velocity": 0.3937007874015748
          },
          {
            "duration": 0.125,
            "durationTicks": 96,
            "midi": 37,
            "name": "C#2",
            "ticks": 19488,
            "time": 25.375,
            "velocity": 0.3937007874015748
          },
          {
            "duration": 0.125,
            "durationTicks": 96,
            "midi": 37,
            "name": "C#2",
            "ticks": 19872,
            "time": 25.875,
            "velocity": 0.3937007874015748
          },
          {
            "duration": 0.125,
            "durationTicks": 96,
            "midi": 37,
            "name": "C#2",
            "ticks": 19968,
            "time": 26,
            "velocity": 0.3937007874015748
          },
          {
            "duration": 0.125,
            "durationTicks": 96,
            "midi": 37,
            "name": "C#2",
            "ticks": 20160,
            "time": 26.25,
            "velocity": 0.3937007874015748
          },
          {
            "duration": 0.125,
            "durationTicks": 96,
            "midi": 37,
            "name": "C#2",
            "ticks": 20352,
            "time": 26.5,
            "velocity": 0.3937007874015748
          },
          {
            "duration": 0.125,
            "durationTicks": 96,
            "midi": 37,
            "name": "C#2",
            "ticks": 20544,
            "time": 26.75,
            "velocity": 0.3937007874015748
          },
          {
            "duration": 0.125,
            "durationTicks": 96,
            "midi": 37,
            "name": "C#2",
            "ticks": 20736,
            "time": 27,
            "velocity": 0.3937007874015748
          },
          {
            "duration": 0.125,
            "durationTicks": 96,
            "midi": 37,
            "name": "C#2",
            "ticks": 21024,
            "time": 27.375,
            "velocity": 0.3937007874015748
          },
          {
            "duration": 0.125,
            "durationTicks": 96,
            "midi": 37,
            "name": "C#2",
            "ticks": 21408,
            "time": 27.875,
            "velocity": 0.3937007874015748
          },
          {
            "duration": 0.125,
            "durationTicks": 96,
            "midi": 37,
            "name": "C#2",
            "ticks": 21504,
            "time": 28,
            "velocity": 0.3937007874015748
          },
          {
            "duration": 0.125,
            "durationTicks": 96,
            "midi": 37,
            "name": "C#2",
            "ticks": 21696,
            "time": 28.25,
            "velocity": 0.3937007874015748
          },
          {
            "duration": 0.125,
            "durationTicks": 96,
            "midi": 37,
            "name": "C#2",
            "ticks": 21888,
            "time": 28.5,
            "velocity": 0.3937007874015748
          },
          {
            "duration": 0.125,
            "durationTicks": 96,
            "midi": 37,
            "name": "C#2",
            "ticks": 22080,
            "time": 28.75,
            "velocity": 0.3937007874015748
          },
          {
            "duration": 0.125,
            "durationTicks": 96,
            "midi": 37,
            "name": "C#2",
            "ticks": 22272,
            "time": 29,
            "velocity": 0.3937007874015748
          },
          {
            "duration": 0.125,
            "durationTicks": 96,
            "midi": 37,
            "name": "C#2",
            "ticks": 22560,
            "time": 29.375,
            "velocity": 0.3937007874015748
          },
          {
            "duration": 0.125,
            "durationTicks": 96,
            "midi": 37,
            "name": "C#2",
            "ticks": 22944,
            "time": 29.875,
            "velocity": 0.3937007874015748
          },
          {
            "duration": 0.125,
            "durationTicks": 96,
            "midi": 37,
            "name": "C#2",
            "ticks": 23040,
            "time": 30,
            "velocity": 0.3937007874015748
          },
          {
            "duration": 0.125,
            "durationTicks": 96,
            "midi": 37,
            "name": "C#2",
            "ticks": 23232,
            "time": 30.25,
            "velocity": 0.3937007874015748
          },
          {
            "duration": 0.125,
            "durationTicks": 96,
            "midi": 37,
            "name": "C#2",
            "ticks": 23424,
            "time": 30.5,
            "velocity": 0.3937007874015748
          },
          {
            "duration": 0.125,
            "durationTicks": 96,
            "midi": 37,
            "name": "C#2",
            "ticks": 23616,
            "time": 30.75,
            "velocity": 0.3937007874015748
          },
          {
            "duration": 0.125,
            "durationTicks": 96,
            "midi": 37,
            "name": "C#2",
            "ticks": 23808,
            "time": 31,
            "velocity": 0.3937007874015748
          },
          {
            "duration": 0.125,
            "durationTicks": 96,
            "midi": 37,
            "name": "C#2",
            "ticks": 24096,
            "time": 31.375,
            "velocity": 0.3937007874015748
          },
          {
            "duration": 0.125,
            "durationTicks": 96,
            "midi": 37,
            "name": "C#2",
            "ticks": 24480,
            "time": 31.875,
            "velocity": 0.3937007874015748
          },
          {
            "duration": 0.125,
            "durationTicks": 96,
            "midi": 37,
            "name": "C#2",
            "ticks": 24576,
            "time": 32,
            "velocity": 0.3937007874015748
          },
          {
            "duration": 0.125,
            "durationTicks": 96,
            "midi": 37,
            "name": "C#2",
            "ticks": 24768,
            "time": 32.25,
            "velocity": 0.3937007874015748
          },
          {
            "duration": 0.125,
            "durationTicks": 96,
            "midi": 37,
            "name": "C#2",
            "ticks": 24960,
            "time": 32.5,
            "velocity": 0.3937007874015748
          },
          {
            "duration": 0.125,
            "durationTicks": 96,
            "midi": 37,
            "name": "C#2",
            "ticks": 25152,
            "time": 32.75,
            "velocity": 0.3937007874015748
          },
          {
            "duration": 0.125,
            "durationTicks": 96,
            "midi": 37,
            "name": "C#2",
            "ticks": 25344,
            "time": 33,
            "velocity": 0.3937007874015748
          },
          {
            "duration": 0.125,
            "durationTicks": 96,
            "midi": 37,
            "name": "C#2",
            "ticks": 25632,
            "time": 33.375,
            "velocity": 0.3937007874015748
          },
          {
            "duration": 0.125,
            "durationTicks": 96,
            "midi": 37,
            "name": "C#2",
            "ticks": 26016,
            "time": 33.875,
            "velocity": 0.3937007874015748
          },
          {
            "duration": 0.125,
            "durationTicks": 96,
            "midi": 37,
            "name": "C#2",
            "ticks": 26112,
            "time": 34,
            "velocity": 0.3937007874015748
          },
          {
            "duration": 0.125,
            "durationTicks": 96,
            "midi": 37,
            "name": "C#2",
            "ticks": 26304,
            "time": 34.25,
            "velocity": 0.3937007874015748
          },
          {
            "duration": 0.125,
            "durationTicks": 96,
            "midi": 37,
            "name": "C#2",
            "ticks": 26496,
            "time": 34.5,
            "velocity": 0.3937007874015748
          },
          {
            "duration": 0.125,
            "durationTicks": 96,
            "midi": 37,
            "name": "C#2",
            "ticks": 26688,
            "time": 34.75,
            "velocity": 0.3937007874015748
          },
          {
            "duration": 0.125,
            "durationTicks": 96,
            "midi": 37,
            "name": "C#2",
            "ticks": 26880,
            "time": 35,
            "velocity": 0.3937007874015748
          },
          {
            "duration": 0.125,
            "durationTicks": 96,
            "midi": 37,
            "name": "C#2",
            "ticks": 27168,
            "time": 35.375,
            "velocity": 0.3937007874015748
          },
          {
            "duration": 0.125,
            "durationTicks": 96,
            "midi": 37,
            "name": "C#2",
            "ticks": 27552,
            "time": 35.875,
            "velocity": 0.3937007874015748
          },
          {
            "duration": 0.125,
            "durationTicks": 96,
            "midi": 37,
            "name": "C#2",
            "ticks": 27648,
            "time": 36,
            "velocity": 0.3937007874015748
          },
          {
            "duration": 0.125,
            "durationTicks": 96,
            "midi": 37,
            "name": "C#2",
            "ticks": 27840,
            "time": 36.25,
            "velocity": 0.3937007874015748
          },
          {
            "duration": 0.125,
            "durationTicks": 96,
            "midi": 37,
            "name": "C#2",
            "ticks": 28032,
            "time": 36.5,
            "velocity": 0.3937007874015748
          },
          {
            "duration": 0.125,
            "durationTicks": 96,
            "midi": 37,
            "name": "C#2",
            "ticks": 28224,
            "time": 36.75,
            "velocity": 0.3937007874015748
          },
          {
            "duration": 0.125,
            "durationTicks": 96,
            "midi": 37,
            "name": "C#2",
            "ticks": 28416,
            "time": 37,
            "velocity": 0.3937007874015748
          },
          {
            "duration": 0.125,
            "durationTicks": 96,
            "midi": 37,
            "name": "C#2",
            "ticks": 28704,
            "time": 37.375,
            "velocity": 0.3937007874015748
          },
          {
            "duration": 0.125,
            "durationTicks": 96,
            "midi": 37,
            "name": "C#2",
            "ticks": 29088,
            "time": 37.875,
            "velocity": 0.3937007874015748
          },
          {
            "duration": 0.125,
            "durationTicks": 96,
            "midi": 37,
            "name": "C#2",
            "ticks": 29184,
            "time": 38,
            "velocity": 0.3937007874015748
          },
          {
            "duration": 0.125,
            "durationTicks": 96,
            "midi": 37,
            "name": "C#2",
            "ticks": 29376,
            "time": 38.25,
            "velocity": 0.3937007874015748
          },
          {
            "duration": 0.125,
            "durationTicks": 96,
            "midi": 37,
            "name": "C#2",
            "ticks": 29568,
            "time": 38.5,
            "velocity": 0.3937007874015748
          },
          {
            "duration": 0.125,
            "durationTicks": 96,
            "midi": 37,
            "name": "C#2",
            "ticks": 29760,
            "time": 38.75,
            "velocity": 0.3937007874015748
          },
          {
            "duration": 0.125,
            "durationTicks": 96,
            "midi": 37,
            "name": "C#2",
            "ticks": 29952,
            "time": 39,
            "velocity": 0.3937007874015748
          },
          {
            "duration": 0.125,
            "durationTicks": 96,
            "midi": 37,
            "name": "C#2",
            "ticks": 30240,
            "time": 39.375,
            "velocity": 0.3937007874015748
          },
          {
            "duration": 0.125,
            "durationTicks": 96,
            "midi": 37,
            "name": "C#2",
            "ticks": 30624,
            "time": 39.875,
            "velocity": 0.3937007874015748
          },
          {
            "duration": 0.125,
            "durationTicks": 96,
            "midi": 37,
            "name": "C#2",
            "ticks": 30720,
            "time": 40,
            "velocity": 0.3937007874015748
          },
          {
            "duration": 0.125,
            "durationTicks": 96,
            "midi": 37,
            "name": "C#2",
            "ticks": 30912,
            "time": 40.25,
            "velocity": 0.3937007874015748
          },
          {
            "duration": 0.125,
            "durationTicks": 96,
            "midi": 37,
            "name": "C#2",
            "ticks": 31104,
            "time": 40.5,
            "velocity": 0.3937007874015748
          },
          {
            "duration": 0.125,
            "durationTicks": 96,
            "midi": 37,
            "name": "C#2",
            "ticks": 31296,
            "time": 40.75,
            "velocity": 0.3937007874015748
          },
          {
            "duration": 0.125,
            "durationTicks": 96,
            "midi": 37,
            "name": "C#2",
            "ticks": 31488,
            "time": 41,
            "velocity": 0.3937007874015748
          },
          {
            "duration": 0.125,
            "durationTicks": 96,
            "midi": 37,
            "name": "C#2",
            "ticks": 31776,
            "time": 41.375,
            "velocity": 0.3937007874015748
          },
          {
            "duration": 0.125,
            "durationTicks": 96,
            "midi": 37,
            "name": "C#2",
            "ticks": 32160,
            "time": 41.875,
            "velocity": 0.3937007874015748
          },
          {
            "duration": 0.125,
            "durationTicks": 96,
            "midi": 37,
            "name": "C#2",
            "ticks": 32256,
            "time": 42,
            "velocity": 0.3937007874015748
          },
          {
            "duration": 0.125,
            "durationTicks": 96,
            "midi": 37,
            "name": "C#2",
            "ticks": 32448,
            "time": 42.25,
            "velocity": 0.3937007874015748
          },
          {
            "duration": 0.125,
            "durationTicks": 96,
            "midi": 37,
            "name": "C#2",
            "ticks": 32640,
            "time": 42.5,
            "velocity": 0.3937007874015748
          },
          {
            "duration": 0.125,
            "durationTicks": 96,
            "midi": 37,
            "name": "C#2",
            "ticks": 32832,
            "time": 42.75,
            "velocity": 0.3937007874015748
          },
          {
            "duration": 0.125,
            "durationTicks": 96,
            "midi": 37,
            "name": "C#2",
            "ticks": 33024,
            "time": 43,
            "velocity": 0.3937007874015748
          },
          {
            "duration": 0.125,
            "durationTicks": 96,
            "midi": 37,
            "name": "C#2",
            "ticks": 33312,
            "time": 43.375,
            "velocity": 0.3937007874015748
          },
          {
            "duration": 0.125,
            "durationTicks": 96,
            "midi": 37,
            "name": "C#2",
            "ticks": 33696,
            "time": 43.875,
            "velocity": 0.3937007874015748
          },
          {
            "duration": 0.125,
            "durationTicks": 96,
            "midi": 37,
            "name": "C#2",
            "ticks": 33792,
            "time": 44,
            "velocity": 0.3937007874015748
          },
          {
            "duration": 0.125,
            "durationTicks": 96,
            "midi": 37,
            "name": "C#2",
            "ticks": 33984,
            "time": 44.25,
            "velocity": 0.3937007874015748
          },
          {
            "duration": 0.125,
            "durationTicks": 96,
            "midi": 37,
            "name": "C#2",
            "ticks": 34176,
            "time": 44.5,
            "velocity": 0.3937007874015748
          },
          {
            "duration": 0.125,
            "durationTicks": 96,
            "midi": 37,
            "name": "C#2",
            "ticks": 34368,
            "time": 44.75,
            "velocity": 0.3937007874015748
          },
          {
            "duration": 0.125,
            "durationTicks": 96,
            "midi": 37,
            "name": "C#2",
            "ticks": 34560,
            "time": 45,
            "velocity": 0.3937007874015748
          },
          {
            "duration": 0.125,
            "durationTicks": 96,
            "midi": 37,
            "name": "C#2",
            "ticks": 34848,
            "time": 45.375,
            "velocity": 0.3937007874015748
          },
          {
            "duration": 0.125,
            "durationTicks": 96,
            "midi": 37,
            "name": "C#2",
            "ticks": 35232,
            "time": 45.875,
            "velocity": 0.3937007874015748
          },
          {
            "duration": 0.125,
            "durationTicks": 96,
            "midi": 37,
            "name": "C#2",
            "ticks": 35328,
            "time": 46,
            "velocity": 0.3937007874015748
          },
          {
            "duration": 0.125,
            "durationTicks": 96,
            "midi": 37,
            "name": "C#2",
            "ticks": 35520,
            "time": 46.25,
            "velocity": 0.3937007874015748
          },
          {
            "duration": 0.125,
            "durationTicks": 96,
            "midi": 37,
            "name": "C#2",
            "ticks": 35712,
            "time": 46.5,
            "velocity": 0.3937007874015748
          },
          {
            "duration": 0.125,
            "durationTicks": 96,
            "midi": 37,
            "name": "C#2",
            "ticks": 35904,
            "time": 46.75,
            "velocity": 0.3937007874015748
          },
          {
            "duration": 0.125,
            "durationTicks": 96,
            "midi": 37,
            "name": "C#2",
            "ticks": 36096,
            "time": 47,
            "velocity": 0.3937007874015748
          },
          {
            "duration": 0.125,
            "durationTicks": 96,
            "midi": 37,
            "name": "C#2",
            "ticks": 36384,
            "time": 47.375,
            "velocity": 0.3937007874015748
          },
          {
            "duration": 0.125,
            "durationTicks": 96,
            "midi": 37,
            "name": "C#2",
            "ticks": 36768,
            "time": 47.875,
            "velocity": 0.3937007874015748
          },
          {
            "duration": 0.125,
            "durationTicks": 96,
            "midi": 37,
            "name": "C#2",
            "ticks": 36864,
            "time": 48,
            "velocity": 0.3937007874015748
          },
          {
            "duration": 0.125,
            "durationTicks": 96,
            "midi": 37,
            "name": "C#2",
            "ticks": 37056,
            "time": 48.25,
            "velocity": 0.3937007874015748
          },
          {
            "duration": 0.125,
            "durationTicks": 96,
            "midi": 37,
            "name": "C#2",
            "ticks": 37248,
            "time": 48.5,
            "velocity": 0.3937007874015748
          },
          {
            "duration": 0.125,
            "durationTicks": 96,
            "midi": 37,
            "name": "C#2",
            "ticks": 37440,
            "time": 48.75,
            "velocity": 0.3937007874015748
          },
          {
            "duration": 0.125,
            "durationTicks": 96,
            "midi": 37,
            "name": "C#2",
            "ticks": 37632,
            "time": 49,
            "velocity": 0.3937007874015748
          },
          {
            "duration": 0.125,
            "durationTicks": 96,
            "midi": 37,
            "name": "C#2",
            "ticks": 37920,
            "time": 49.375,
            "velocity": 0.3937007874015748
          },
          {
            "duration": 0.125,
            "durationTicks": 96,
            "midi": 37,
            "name": "C#2",
            "ticks": 38304,
            "time": 49.875,
            "velocity": 0.3937007874015748
          },
          {
            "duration": 0.125,
            "durationTicks": 96,
            "midi": 37,
            "name": "C#2",
            "ticks": 38400,
            "time": 50,
            "velocity": 0.3937007874015748
          },
          {
            "duration": 0.125,
            "durationTicks": 96,
            "midi": 37,
            "name": "C#2",
            "ticks": 38592,
            "time": 50.25,
            "velocity": 0.3937007874015748
          },
          {
            "duration": 0.125,
            "durationTicks": 96,
            "midi": 37,
            "name": "C#2",
            "ticks": 38784,
            "time": 50.5,
            "velocity": 0.3937007874015748
          },
          {
            "duration": 0.125,
            "durationTicks": 96,
            "midi": 37,
            "name": "C#2",
            "ticks": 38976,
            "time": 50.75,
            "velocity": 0.3937007874015748
          },
          {
            "duration": 0.125,
            "durationTicks": 96,
            "midi": 37,
            "name": "C#2",
            "ticks": 39168,
            "time": 51,
            "velocity": 0.3937007874015748
          },
          {
            "duration": 0.125,
            "durationTicks": 96,
            "midi": 37,
            "name": "C#2",
            "ticks": 39456,
            "time": 51.375,
            "velocity": 0.3937007874015748
          },
          {
            "duration": 0.125,
            "durationTicks": 96,
            "midi": 37,
            "name": "C#2",
            "ticks": 39840,
            "time": 51.875,
            "velocity": 0.3937007874015748
          },
          {
            "duration": 0.125,
            "durationTicks": 96,
            "midi": 37,
            "name": "C#2",
            "ticks": 39936,
            "time": 52,
            "velocity": 0.3937007874015748
          },
          {
            "duration": 0.125,
            "durationTicks": 96,
            "midi": 37,
            "name": "C#2",
            "ticks": 40128,
            "time": 52.25,
            "velocity": 0.3937007874015748
          },
          {
            "duration": 0.125,
            "durationTicks": 96,
            "midi": 37,
            "name": "C#2",
            "ticks": 40320,
            "time": 52.5,
            "velocity": 0.3937007874015748
          },
          {
            "duration": 0.125,
            "durationTicks": 96,
            "midi": 37,
            "name": "C#2",
            "ticks": 40512,
            "time": 52.75,
            "velocity": 0.3937007874015748
          },
          {
            "duration": 0.125,
            "durationTicks": 96,
            "midi": 37,
            "name": "C#2",
            "ticks": 40704,
            "time": 53,
            "velocity": 0.3937007874015748
          },
          {
            "duration": 0.125,
            "durationTicks": 96,
            "midi": 37,
            "name": "C#2",
            "ticks": 40992,
            "time": 53.375,
            "velocity": 0.3937007874015748
          },
          {
            "duration": 0.125,
            "durationTicks": 96,
            "midi": 37,
            "name": "C#2",
            "ticks": 41376,
            "time": 53.875,
            "velocity": 0.3937007874015748
          },
          {
            "duration": 0.125,
            "durationTicks": 96,
            "midi": 37,
            "name": "C#2",
            "ticks": 41472,
            "time": 54,
            "velocity": 0.3937007874015748
          },
          {
            "duration": 0.125,
            "durationTicks": 96,
            "midi": 37,
            "name": "C#2",
            "ticks": 41664,
            "time": 54.25,
            "velocity": 0.3937007874015748
          },
          {
            "duration": 0.125,
            "durationTicks": 96,
            "midi": 37,
            "name": "C#2",
            "ticks": 41856,
            "time": 54.5,
            "velocity": 0.3937007874015748
          },
          {
            "duration": 0.125,
            "durationTicks": 96,
            "midi": 37,
            "name": "C#2",
            "ticks": 42048,
            "time": 54.75,
            "velocity": 0.3937007874015748
          },
          {
            "duration": 0.125,
            "durationTicks": 96,
            "midi": 37,
            "name": "C#2",
            "ticks": 42240,
            "time": 55,
            "velocity": 0.3937007874015748
          },
          {
            "duration": 0.125,
            "durationTicks": 96,
            "midi": 37,
            "name": "C#2",
            "ticks": 42528,
            "time": 55.375,
            "velocity": 0.3937007874015748
          },
          {
            "duration": 0.125,
            "durationTicks": 96,
            "midi": 37,
            "name": "C#2",
            "ticks": 42912,
            "time": 55.875,
            "velocity": 0.3937007874015748
          },
          {
            "duration": 0.125,
            "durationTicks": 96,
            "midi": 37,
            "name": "C#2",
            "ticks": 43008,
            "time": 56,
            "velocity": 0.3937007874015748
          },
          {
            "duration": 0.125,
            "durationTicks": 96,
            "midi": 37,
            "name": "C#2",
            "ticks": 43200,
            "time": 56.25,
            "velocity": 0.3937007874015748
          },
          {
            "duration": 0.125,
            "durationTicks": 96,
            "midi": 37,
            "name": "C#2",
            "ticks": 43392,
            "time": 56.5,
            "velocity": 0.3937007874015748
          },
          {
            "duration": 0.125,
            "durationTicks": 96,
            "midi": 37,
            "name": "C#2",
            "ticks": 43584,
            "time": 56.75,
            "velocity": 0.3937007874015748
          },
          {
            "duration": 0.125,
            "durationTicks": 96,
            "midi": 37,
            "name": "C#2",
            "ticks": 43776,
            "time": 57,
            "velocity": 0.3937007874015748
          },
          {
            "duration": 0.125,
            "durationTicks": 96,
            "midi": 37,
            "name": "C#2",
            "ticks": 44064,
            "time": 57.375,
            "velocity": 0.3937007874015748
          },
          {
            "duration": 0.125,
            "durationTicks": 96,
            "midi": 37,
            "name": "C#2",
            "ticks": 44448,
            "time": 57.875,
            "velocity": 0.3937007874015748
          },
          {
            "duration": 0.125,
            "durationTicks": 96,
            "midi": 37,
            "name": "C#2",
            "ticks": 44544,
            "time": 58,
            "velocity": 0.3937007874015748
          },
          {
            "duration": 0.125,
            "durationTicks": 96,
            "midi": 37,
            "name": "C#2",
            "ticks": 44736,
            "time": 58.25,
            "velocity": 0.3937007874015748
          },
          {
            "duration": 0.125,
            "durationTicks": 96,
            "midi": 37,
            "name": "C#2",
            "ticks": 44928,
            "time": 58.5,
            "velocity": 0.3937007874015748
          },
          {
            "duration": 0.125,
            "durationTicks": 96,
            "midi": 37,
            "name": "C#2",
            "ticks": 45120,
            "time": 58.75,
            "velocity": 0.3937007874015748
          },
          {
            "duration": 0.125,
            "durationTicks": 96,
            "midi": 37,
            "name": "C#2",
            "ticks": 45312,
            "time": 59,
            "velocity": 0.3937007874015748
          },
          {
            "duration": 0.125,
            "durationTicks": 96,
            "midi": 37,
            "name": "C#2",
            "ticks": 45600,
            "time": 59.375,
            "velocity": 0.3937007874015748
          },
          {
            "duration": 0.125,
            "durationTicks": 96,
            "midi": 37,
            "name": "C#2",
            "ticks": 45984,
            "time": 59.875,
            "velocity": 0.3937007874015748
          },
          {
            "duration": 0.125,
            "durationTicks": 96,
            "midi": 37,
            "name": "C#2",
            "ticks": 46080,
            "time": 60,
            "velocity": 0.3937007874015748
          },
          {
            "duration": 0.125,
            "durationTicks": 96,
            "midi": 37,
            "name": "C#2",
            "ticks": 46272,
            "time": 60.25,
            "velocity": 0.3937007874015748
          },
          {
            "duration": 0.125,
            "durationTicks": 96,
            "midi": 37,
            "name": "C#2",
            "ticks": 46464,
            "time": 60.5,
            "velocity": 0.3937007874015748
          },
          {
            "duration": 0.125,
            "durationTicks": 96,
            "midi": 37,
            "name": "C#2",
            "ticks": 46656,
            "time": 60.75,
            "velocity": 0.3937007874015748
          },
          {
            "duration": 0.125,
            "durationTicks": 96,
            "midi": 37,
            "name": "C#2",
            "ticks": 46848,
            "time": 61,
            "velocity": 0.3937007874015748
          },
          {
            "duration": 0.125,
            "durationTicks": 96,
            "midi": 37,
            "name": "C#2",
            "ticks": 47136,
            "time": 61.375,
            "velocity": 0.3937007874015748
          },
          {
            "duration": 0.125,
            "durationTicks": 96,
            "midi": 37,
            "name": "C#2",
            "ticks": 47520,
            "time": 61.875,
            "velocity": 0.3937007874015748
          },
          {
            "duration": 0.125,
            "durationTicks": 96,
            "midi": 37,
            "name": "C#2",
            "ticks": 47616,
            "time": 62,
            "velocity": 0.3937007874015748
          },
          {
            "duration": 0.125,
            "durationTicks": 96,
            "midi": 37,
            "name": "C#2",
            "ticks": 47808,
            "time": 62.25,
            "velocity": 0.3937007874015748
          },
          {
            "duration": 0.125,
            "durationTicks": 96,
            "midi": 37,
            "name": "C#2",
            "ticks": 48000,
            "time": 62.5,
            "velocity": 0.3937007874015748
          },
          {
            "duration": 0.125,
            "durationTicks": 96,
            "midi": 37,
            "name": "C#2",
            "ticks": 48192,
            "time": 62.75,
            "velocity": 0.3937007874015748
          },
          {
            "duration": 0.125,
            "durationTicks": 96,
            "midi": 37,
            "name": "C#2",
            "ticks": 48384,
            "time": 63,
            "velocity": 0.3937007874015748
          },
          {
            "duration": 0.125,
            "durationTicks": 96,
            "midi": 37,
            "name": "C#2",
            "ticks": 48672,
            "time": 63.375,
            "velocity": 0.3937007874015748
          },
          {
            "duration": 0.125,
            "durationTicks": 96,
            "midi": 37,
            "name": "C#2",
            "ticks": 49056,
            "time": 63.875,
            "velocity": 0.3937007874015748
          },
          {
            "duration": 0.125,
            "durationTicks": 96,
            "midi": 37,
            "name": "C#2",
            "ticks": 49152,
            "time": 64,
            "velocity": 0.3937007874015748
          },
          {
            "duration": 0.125,
            "durationTicks": 96,
            "midi": 37,
            "name": "C#2",
            "ticks": 49344,
            "time": 64.25,
            "velocity": 0.3937007874015748
          },
          {
            "duration": 0.125,
            "durationTicks": 96,
            "midi": 37,
            "name": "C#2",
            "ticks": 49536,
            "time": 64.5,
            "velocity": 0.3937007874015748
          },
          {
            "duration": 0.125,
            "durationTicks": 96,
            "midi": 37,
            "name": "C#2",
            "ticks": 49728,
            "time": 64.75,
            "velocity": 0.3937007874015748
          },
          {
            "duration": 0.125,
            "durationTicks": 96,
            "midi": 37,
            "name": "C#2",
            "ticks": 49920,
            "time": 65,
            "velocity": 0.3937007874015748
          },
          {
            "duration": 0.125,
            "durationTicks": 96,
            "midi": 37,
            "name": "C#2",
            "ticks": 50208,
            "time": 65.375,
            "velocity": 0.3937007874015748
          },
          {
            "duration": 0.125,
            "durationTicks": 96,
            "midi": 37,
            "name": "C#2",
            "ticks": 50592,
            "time": 65.875,
            "velocity": 0.3937007874015748
          },
          {
            "duration": 0.125,
            "durationTicks": 96,
            "midi": 37,
            "name": "C#2",
            "ticks": 50688,
            "time": 66,
            "velocity": 0.3937007874015748
          },
          {
            "duration": 0.125,
            "durationTicks": 96,
            "midi": 37,
            "name": "C#2",
            "ticks": 50880,
            "time": 66.25,
            "velocity": 0.3937007874015748
          },
          {
            "duration": 0.125,
            "durationTicks": 96,
            "midi": 37,
            "name": "C#2",
            "ticks": 51072,
            "time": 66.5,
            "velocity": 0.3937007874015748
          },
          {
            "duration": 0.125,
            "durationTicks": 96,
            "midi": 37,
            "name": "C#2",
            "ticks": 51264,
            "time": 66.75,
            "velocity": 0.3937007874015748
          },
          {
            "duration": 0.125,
            "durationTicks": 96,
            "midi": 37,
            "name": "C#2",
            "ticks": 51456,
            "time": 67,
            "velocity": 0.3937007874015748
          },
          {
            "duration": 0.125,
            "durationTicks": 96,
            "midi": 37,
            "name": "C#2",
            "ticks": 51744,
            "time": 67.375,
            "velocity": 0.3937007874015748
          },
          {
            "duration": 0.125,
            "durationTicks": 96,
            "midi": 37,
            "name": "C#2",
            "ticks": 52128,
            "time": 67.875,
            "velocity": 0.3937007874015748
          },
          {
            "duration": 0.125,
            "durationTicks": 96,
            "midi": 37,
            "name": "C#2",
            "ticks": 52224,
            "time": 68,
            "velocity": 0.3937007874015748
          },
          {
            "duration": 0.125,
            "durationTicks": 96,
            "midi": 37,
            "name": "C#2",
            "ticks": 52416,
            "time": 68.25,
            "velocity": 0.3937007874015748
          },
          {
            "duration": 0.125,
            "durationTicks": 96,
            "midi": 37,
            "name": "C#2",
            "ticks": 52608,
            "time": 68.5,
            "velocity": 0.3937007874015748
          },
          {
            "duration": 0.125,
            "durationTicks": 96,
            "midi": 37,
            "name": "C#2",
            "ticks": 52800,
            "time": 68.75,
            "velocity": 0.3937007874015748
          },
          {
            "duration": 0.125,
            "durationTicks": 96,
            "midi": 37,
            "name": "C#2",
            "ticks": 52992,
            "time": 69,
            "velocity": 0.3937007874015748
          },
          {
            "duration": 0.125,
            "durationTicks": 96,
            "midi": 37,
            "name": "C#2",
            "ticks": 53280,
            "time": 69.375,
            "velocity": 0.3937007874015748
          },
          {
            "duration": 0.125,
            "durationTicks": 96,
            "midi": 37,
            "name": "C#2",
            "ticks": 53664,
            "time": 69.875,
            "velocity": 0.3937007874015748
          },
          {
            "duration": 0.125,
            "durationTicks": 96,
            "midi": 37,
            "name": "C#2",
            "ticks": 53760,
            "time": 70,
            "velocity": 0.3937007874015748
          },
          {
            "duration": 0.125,
            "durationTicks": 96,
            "midi": 37,
            "name": "C#2",
            "ticks": 53952,
            "time": 70.25,
            "velocity": 0.3937007874015748
          },
          {
            "duration": 0.125,
            "durationTicks": 96,
            "midi": 37,
            "name": "C#2",
            "ticks": 54144,
            "time": 70.5,
            "velocity": 0.3937007874015748
          },
          {
            "duration": 0.125,
            "durationTicks": 96,
            "midi": 37,
            "name": "C#2",
            "ticks": 54336,
            "time": 70.75,
            "velocity": 0.3937007874015748
          },
          {
            "duration": 0.125,
            "durationTicks": 96,
            "midi": 37,
            "name": "C#2",
            "ticks": 54528,
            "time": 71,
            "velocity": 0.3937007874015748
          },
          {
            "duration": 0.125,
            "durationTicks": 96,
            "midi": 37,
            "name": "C#2",
            "ticks": 54816,
            "time": 71.375,
            "velocity": 0.3937007874015748
          },
          {
            "duration": 0.125,
            "durationTicks": 96,
            "midi": 37,
            "name": "C#2",
            "ticks": 55200,
            "time": 71.875,
            "velocity": 0.3937007874015748
          },
          {
            "duration": 0.125,
            "durationTicks": 96,
            "midi": 37,
            "name": "C#2",
            "ticks": 55296,
            "time": 72,
            "velocity": 0.3937007874015748
          },
          {
            "duration": 0.125,
            "durationTicks": 96,
            "midi": 37,
            "name": "C#2",
            "ticks": 55488,
            "time": 72.25,
            "velocity": 0.3937007874015748
          },
          {
            "duration": 0.125,
            "durationTicks": 96,
            "midi": 37,
            "name": "C#2",
            "ticks": 55680,
            "time": 72.5,
            "velocity": 0.3937007874015748
          },
          {
            "duration": 0.125,
            "durationTicks": 96,
            "midi": 37,
            "name": "C#2",
            "ticks": 55872,
            "time": 72.75,
            "velocity": 0.3937007874015748
          },
          {
            "duration": 0.125,
            "durationTicks": 96,
            "midi": 37,
            "name": "C#2",
            "ticks": 56064,
            "time": 73,
            "velocity": 0.3937007874015748
          },
          {
            "duration": 0.125,
            "durationTicks": 96,
            "midi": 37,
            "name": "C#2",
            "ticks": 56352,
            "time": 73.375,
            "velocity": 0.3937007874015748
          },
          {
            "duration": 0.125,
            "durationTicks": 96,
            "midi": 37,
            "name": "C#2",
            "ticks": 56736,
            "time": 73.875,
            "velocity": 0.3937007874015748
          },
          {
            "duration": 0.125,
            "durationTicks": 96,
            "midi": 37,
            "name": "C#2",
            "ticks": 56832,
            "time": 74,
            "velocity": 0.3937007874015748
          },
          {
            "duration": 0.125,
            "durationTicks": 96,
            "midi": 37,
            "name": "C#2",
            "ticks": 57024,
            "time": 74.25,
            "velocity": 0.3937007874015748
          },
          {
            "duration": 0.125,
            "durationTicks": 96,
            "midi": 37,
            "name": "C#2",
            "ticks": 57216,
            "time": 74.5,
            "velocity": 0.3937007874015748
          },
          {
            "duration": 0.125,
            "durationTicks": 96,
            "midi": 37,
            "name": "C#2",
            "ticks": 57408,
            "time": 74.75,
            "velocity": 0.3937007874015748
          },
          {
            "duration": 0.125,
            "durationTicks": 96,
            "midi": 37,
            "name": "C#2",
            "ticks": 57600,
            "time": 75,
            "velocity": 0.3937007874015748
          },
          {
            "duration": 0.125,
            "durationTicks": 96,
            "midi": 37,
            "name": "C#2",
            "ticks": 57888,
            "time": 75.375,
            "velocity": 0.3937007874015748
          },
          {
            "duration": 0.125,
            "durationTicks": 96,
            "midi": 37,
            "name": "C#2",
            "ticks": 58272,
            "time": 75.875,
            "velocity": 0.3937007874015748
          },
          {
            "duration": 0.125,
            "durationTicks": 96,
            "midi": 37,
            "name": "C#2",
            "ticks": 58368,
            "time": 76,
            "velocity": 0.3937007874015748
          },
          {
            "duration": 0.125,
            "durationTicks": 96,
            "midi": 37,
            "name": "C#2",
            "ticks": 58560,
            "time": 76.25,
            "velocity": 0.3937007874015748
          },
          {
            "duration": 0.125,
            "durationTicks": 96,
            "midi": 37,
            "name": "C#2",
            "ticks": 58752,
            "time": 76.5,
            "velocity": 0.3937007874015748
          },
          {
            "duration": 0.125,
            "durationTicks": 96,
            "midi": 37,
            "name": "C#2",
            "ticks": 58944,
            "time": 76.75,
            "velocity": 0.3937007874015748
          },
          {
            "duration": 0.125,
            "durationTicks": 96,
            "midi": 37,
            "name": "C#2",
            "ticks": 59136,
            "time": 77,
            "velocity": 0.3937007874015748
          },
          {
            "duration": 0.125,
            "durationTicks": 96,
            "midi": 37,
            "name": "C#2",
            "ticks": 59424,
            "time": 77.375,
            "velocity": 0.3937007874015748
          },
          {
            "duration": 0.125,
            "durationTicks": 96,
            "midi": 37,
            "name": "C#2",
            "ticks": 59808,
            "time": 77.875,
            "velocity": 0.3937007874015748
          },
          {
            "duration": 0.125,
            "durationTicks": 96,
            "midi": 37,
            "name": "C#2",
            "ticks": 59904,
            "time": 78,
            "velocity": 0.3937007874015748
          },
          {
            "duration": 0.125,
            "durationTicks": 96,
            "midi": 37,
            "name": "C#2",
            "ticks": 60096,
            "time": 78.25,
            "velocity": 0.3937007874015748
          },
          {
            "duration": 0.125,
            "durationTicks": 96,
            "midi": 37,
            "name": "C#2",
            "ticks": 60288,
            "time": 78.5,
            "velocity": 0.3937007874015748
          },
          {
            "duration": 0.125,
            "durationTicks": 96,
            "midi": 37,
            "name": "C#2",
            "ticks": 60480,
            "time": 78.75,
            "velocity": 0.3937007874015748
          },
          {
            "duration": 0.125,
            "durationTicks": 96,
            "midi": 37,
            "name": "C#2",
            "ticks": 60672,
            "time": 79,
            "velocity": 0.3937007874015748
          },
          {
            "duration": 0.125,
            "durationTicks": 96,
            "midi": 37,
            "name": "C#2",
            "ticks": 60960,
            "time": 79.375,
            "velocity": 0.3937007874015748
          },
          {
            "duration": 0.125,
            "durationTicks": 96,
            "midi": 37,
            "name": "C#2",
            "ticks": 61344,
            "time": 79.875,
            "velocity": 0.3937007874015748
          },
          {
            "duration": 0.125,
            "durationTicks": 96,
            "midi": 37,
            "name": "C#2",
            "ticks": 61440,
            "time": 80,
            "velocity": 0.3937007874015748
          },
          {
            "duration": 0.125,
            "durationTicks": 96,
            "midi": 37,
            "name": "C#2",
            "ticks": 61632,
            "time": 80.25,
            "velocity": 0.3937007874015748
          },
          {
            "duration": 0.125,
            "durationTicks": 96,
            "midi": 37,
            "name": "C#2",
            "ticks": 61824,
            "time": 80.5,
            "velocity": 0.3937007874015748
          },
          {
            "duration": 0.125,
            "durationTicks": 96,
            "midi": 37,
            "name": "C#2",
            "ticks": 62016,
            "time": 80.75,
            "velocity": 0.3937007874015748
          },
          {
            "duration": 0.125,
            "durationTicks": 96,
            "midi": 37,
            "name": "C#2",
            "ticks": 62208,
            "time": 81,
            "velocity": 0.3937007874015748
          },
          {
            "duration": 0.125,
            "durationTicks": 96,
            "midi": 37,
            "name": "C#2",
            "ticks": 62496,
            "time": 81.375,
            "velocity": 0.3937007874015748
          },
          {
            "duration": 0.125,
            "durationTicks": 96,
            "midi": 37,
            "name": "C#2",
            "ticks": 62880,
            "time": 81.875,
            "velocity": 0.3937007874015748
          },
          {
            "duration": 0.125,
            "durationTicks": 96,
            "midi": 37,
            "name": "C#2",
            "ticks": 62976,
            "time": 82,
            "velocity": 0.3937007874015748
          },
          {
            "duration": 0.125,
            "durationTicks": 96,
            "midi": 37,
            "name": "C#2",
            "ticks": 63168,
            "time": 82.25,
            "velocity": 0.3937007874015748
          },
          {
            "duration": 0.125,
            "durationTicks": 96,
            "midi": 37,
            "name": "C#2",
            "ticks": 63360,
            "time": 82.5,
            "velocity": 0.3937007874015748
          },
          {
            "duration": 0.125,
            "durationTicks": 96,
            "midi": 37,
            "name": "C#2",
            "ticks": 63552,
            "time": 82.75,
            "velocity": 0.3937007874015748
          },
          {
            "duration": 0.125,
            "durationTicks": 96,
            "midi": 37,
            "name": "C#2",
            "ticks": 63744,
            "time": 83,
            "velocity": 0.3937007874015748
          },
          {
            "duration": 0.125,
            "durationTicks": 96,
            "midi": 37,
            "name": "C#2",
            "ticks": 64032,
            "time": 83.375,
            "velocity": 0.3937007874015748
          },
          {
            "duration": 0.125,
            "durationTicks": 96,
            "midi": 37,
            "name": "C#2",
            "ticks": 64416,
            "time": 83.875,
            "velocity": 0.3937007874015748
          },
          {
            "duration": 0.125,
            "durationTicks": 96,
            "midi": 37,
            "name": "C#2",
            "ticks": 64512,
            "time": 84,
            "velocity": 0.3937007874015748
          },
          {
            "duration": 0.125,
            "durationTicks": 96,
            "midi": 37,
            "name": "C#2",
            "ticks": 64704,
            "time": 84.25,
            "velocity": 0.3937007874015748
          },
          {
            "duration": 0.125,
            "durationTicks": 96,
            "midi": 37,
            "name": "C#2",
            "ticks": 64896,
            "time": 84.5,
            "velocity": 0.3937007874015748
          },
          {
            "duration": 0.125,
            "durationTicks": 96,
            "midi": 37,
            "name": "C#2",
            "ticks": 65088,
            "time": 84.75,
            "velocity": 0.3937007874015748
          },
          {
            "duration": 0.125,
            "durationTicks": 96,
            "midi": 37,
            "name": "C#2",
            "ticks": 65280,
            "time": 85,
            "velocity": 0.3937007874015748
          },
          {
            "duration": 0.125,
            "durationTicks": 96,
            "midi": 37,
            "name": "C#2",
            "ticks": 65568,
            "time": 85.375,
            "velocity": 0.3937007874015748
          },
          {
            "duration": 0.125,
            "durationTicks": 96,
            "midi": 37,
            "name": "C#2",
            "ticks": 65952,
            "time": 85.875,
            "velocity": 0.3937007874015748
          },
          {
            "duration": 0.125,
            "durationTicks": 96,
            "midi": 37,
            "name": "C#2",
            "ticks": 66048,
            "time": 86,
            "velocity": 0.3937007874015748
          },
          {
            "duration": 0.125,
            "durationTicks": 96,
            "midi": 37,
            "name": "C#2",
            "ticks": 66624,
            "time": 86.75,
            "velocity": 0.3937007874015748
          },
          {
            "duration": 0.125,
            "durationTicks": 96,
            "midi": 37,
            "name": "C#2",
            "ticks": 67200,
            "time": 87.5,
            "velocity": 0.3937007874015748
          },
          {
            "duration": 0.125,
            "durationTicks": 96,
            "midi": 37,
            "name": "C#2",
            "ticks": 67488,
            "time": 87.875,
            "velocity": 0.3937007874015748
          },
          {
            "duration": 0.125,
            "durationTicks": 96,
            "midi": 37,
            "name": "C#2",
            "ticks": 67584,
            "time": 88,
            "velocity": 0.3937007874015748
          },
          {
            "duration": 0.125,
            "durationTicks": 96,
            "midi": 37,
            "name": "C#2",
            "ticks": 67776,
            "time": 88.25,
            "velocity": 0.3937007874015748
          },
          {
            "duration": 0.125,
            "durationTicks": 96,
            "midi": 37,
            "name": "C#2",
            "ticks": 67968,
            "time": 88.5,
            "velocity": 0.3937007874015748
          },
          {
            "duration": 0.125,
            "durationTicks": 96,
            "midi": 37,
            "name": "C#2",
            "ticks": 68160,
            "time": 88.75,
            "velocity": 0.3937007874015748
          },
          {
            "duration": 0.125,
            "durationTicks": 96,
            "midi": 37,
            "name": "C#2",
            "ticks": 68352,
            "time": 89,
            "velocity": 0.3937007874015748
          },
          {
            "duration": 0.125,
            "durationTicks": 96,
            "midi": 37,
            "name": "C#2",
            "ticks": 68640,
            "time": 89.375,
            "velocity": 0.3937007874015748
          },
          {
            "duration": 0.125,
            "durationTicks": 96,
            "midi": 37,
            "name": "C#2",
            "ticks": 69024,
            "time": 89.875,
            "velocity": 0.3937007874015748
          },
          {
            "duration": 0.125,
            "durationTicks": 96,
            "midi": 37,
            "name": "C#2",
            "ticks": 69120,
            "time": 90,
            "velocity": 0.3937007874015748
          },
          {
            "duration": 0.125,
            "durationTicks": 96,
            "midi": 37,
            "name": "C#2",
            "ticks": 69312,
            "time": 90.25,
            "velocity": 0.3937007874015748
          },
          {
            "duration": 0.125,
            "durationTicks": 96,
            "midi": 37,
            "name": "C#2",
            "ticks": 69504,
            "time": 90.5,
            "velocity": 0.3937007874015748
          },
          {
            "duration": 0.125,
            "durationTicks": 96,
            "midi": 37,
            "name": "C#2",
            "ticks": 69696,
            "time": 90.75,
            "velocity": 0.3937007874015748
          },
          {
            "duration": 0.125,
            "durationTicks": 96,
            "midi": 37,
            "name": "C#2",
            "ticks": 69888,
            "time": 91,
            "velocity": 0.3937007874015748
          },
          {
            "duration": 0.125,
            "durationTicks": 96,
            "midi": 37,
            "name": "C#2",
            "ticks": 70176,
            "time": 91.375,
            "velocity": 0.3937007874015748
          },
          {
            "duration": 0.125,
            "durationTicks": 96,
            "midi": 37,
            "name": "C#2",
            "ticks": 70560,
            "time": 91.875,
            "velocity": 0.3937007874015748
          },
          {
            "duration": 0.125,
            "durationTicks": 96,
            "midi": 37,
            "name": "C#2",
            "ticks": 70656,
            "time": 92,
            "velocity": 0.3937007874015748
          },
          {
            "duration": 0.125,
            "durationTicks": 96,
            "midi": 37,
            "name": "C#2",
            "ticks": 70848,
            "time": 92.25,
            "velocity": 0.3937007874015748
          },
          {
            "duration": 0.125,
            "durationTicks": 96,
            "midi": 37,
            "name": "C#2",
            "ticks": 71040,
            "time": 92.5,
            "velocity": 0.3937007874015748
          },
          {
            "duration": 0.125,
            "durationTicks": 96,
            "midi": 37,
            "name": "C#2",
            "ticks": 71232,
            "time": 92.75,
            "velocity": 0.3937007874015748
          },
          {
            "duration": 0.125,
            "durationTicks": 96,
            "midi": 37,
            "name": "C#2",
            "ticks": 71424,
            "time": 93,
            "velocity": 0.3937007874015748
          },
          {
            "duration": 0.125,
            "durationTicks": 96,
            "midi": 37,
            "name": "C#2",
            "ticks": 71712,
            "time": 93.375,
            "velocity": 0.3937007874015748
          },
          {
            "duration": 0.125,
            "durationTicks": 96,
            "midi": 37,
            "name": "C#2",
            "ticks": 72096,
            "time": 93.875,
            "velocity": 0.3937007874015748
          },
          {
            "duration": 0.125,
            "durationTicks": 96,
            "midi": 37,
            "name": "C#2",
            "ticks": 72192,
            "time": 94,
            "velocity": 0.3937007874015748
          },
          {
            "duration": 0.125,
            "durationTicks": 96,
            "midi": 37,
            "name": "C#2",
            "ticks": 72384,
            "time": 94.25,
            "velocity": 0.3937007874015748
          },
          {
            "duration": 0.125,
            "durationTicks": 96,
            "midi": 37,
            "name": "C#2",
            "ticks": 72576,
            "time": 94.5,
            "velocity": 0.3937007874015748
          },
          {
            "duration": 0.125,
            "durationTicks": 96,
            "midi": 37,
            "name": "C#2",
            "ticks": 72768,
            "time": 94.75,
            "velocity": 0.3937007874015748
          },
          {
            "duration": 0.125,
            "durationTicks": 96,
            "midi": 37,
            "name": "C#2",
            "ticks": 72960,
            "time": 95,
            "velocity": 0.3937007874015748
          },
          {
            "duration": 0.125,
            "durationTicks": 96,
            "midi": 37,
            "name": "C#2",
            "ticks": 73248,
            "time": 95.375,
            "velocity": 0.3937007874015748
          },
          {
            "duration": 0.125,
            "durationTicks": 96,
            "midi": 37,
            "name": "C#2",
            "ticks": 73632,
            "time": 95.875,
            "velocity": 0.3937007874015748
          },
          {
            "duration": 0.125,
            "durationTicks": 96,
            "midi": 37,
            "name": "C#2",
            "ticks": 73728,
            "time": 96,
            "velocity": 0.3937007874015748
          },
          {
            "duration": 0.125,
            "durationTicks": 96,
            "midi": 37,
            "name": "C#2",
            "ticks": 73920,
            "time": 96.25,
            "velocity": 0.3937007874015748
          },
          {
            "duration": 0.125,
            "durationTicks": 96,
            "midi": 37,
            "name": "C#2",
            "ticks": 74112,
            "time": 96.5,
            "velocity": 0.3937007874015748
          },
          {
            "duration": 0.125,
            "durationTicks": 96,
            "midi": 37,
            "name": "C#2",
            "ticks": 74304,
            "time": 96.75,
            "velocity": 0.3937007874015748
          },
          {
            "duration": 0.125,
            "durationTicks": 96,
            "midi": 37,
            "name": "C#2",
            "ticks": 74496,
            "time": 97,
            "velocity": 0.3937007874015748
          },
          {
            "duration": 0.125,
            "durationTicks": 96,
            "midi": 37,
            "name": "C#2",
            "ticks": 74784,
            "time": 97.375,
            "velocity": 0.3937007874015748
          },
          {
            "duration": 0.125,
            "durationTicks": 96,
            "midi": 37,
            "name": "C#2",
            "ticks": 75168,
            "time": 97.875,
            "velocity": 0.3937007874015748
          },
          {
            "duration": 0.125,
            "durationTicks": 96,
            "midi": 37,
            "name": "C#2",
            "ticks": 75264,
            "time": 98,
            "velocity": 0.3937007874015748
          },
          {
            "duration": 0.125,
            "durationTicks": 96,
            "midi": 37,
            "name": "C#2",
            "ticks": 75456,
            "time": 98.25,
            "velocity": 0.3937007874015748
          },
          {
            "duration": 0.125,
            "durationTicks": 96,
            "midi": 37,
            "name": "C#2",
            "ticks": 75648,
            "time": 98.5,
            "velocity": 0.3937007874015748
          },
          {
            "duration": 0.125,
            "durationTicks": 96,
            "midi": 37,
            "name": "C#2",
            "ticks": 75840,
            "time": 98.75,
            "velocity": 0.3937007874015748
          },
          {
            "duration": 0.125,
            "durationTicks": 96,
            "midi": 37,
            "name": "C#2",
            "ticks": 76032,
            "time": 99,
            "velocity": 0.3937007874015748
          },
          {
            "duration": 0.125,
            "durationTicks": 96,
            "midi": 37,
            "name": "C#2",
            "ticks": 76320,
            "time": 99.375,
            "velocity": 0.3937007874015748
          },
          {
            "duration": 0.125,
            "durationTicks": 96,
            "midi": 37,
            "name": "C#2",
            "ticks": 76704,
            "time": 99.875,
            "velocity": 0.3937007874015748
          },
          {
            "duration": 0.125,
            "durationTicks": 96,
            "midi": 37,
            "name": "C#2",
            "ticks": 76800,
            "time": 100,
            "velocity": 0.3937007874015748
          },
          {
            "duration": 0.125,
            "durationTicks": 96,
            "midi": 37,
            "name": "C#2",
            "ticks": 76992,
            "time": 100.25,
            "velocity": 0.3937007874015748
          },
          {
            "duration": 0.125,
            "durationTicks": 96,
            "midi": 37,
            "name": "C#2",
            "ticks": 77184,
            "time": 100.5,
            "velocity": 0.3937007874015748
          },
          {
            "duration": 0.125,
            "durationTicks": 96,
            "midi": 37,
            "name": "C#2",
            "ticks": 77376,
            "time": 100.75,
            "velocity": 0.3937007874015748
          },
          {
            "duration": 0.125,
            "durationTicks": 96,
            "midi": 37,
            "name": "C#2",
            "ticks": 77568,
            "time": 101,
            "velocity": 0.3937007874015748
          },
          {
            "duration": 0.125,
            "durationTicks": 96,
            "midi": 37,
            "name": "C#2",
            "ticks": 77856,
            "time": 101.375,
            "velocity": 0.3937007874015748
          },
          {
            "duration": 0.125,
            "durationTicks": 96,
            "midi": 37,
            "name": "C#2",
            "ticks": 78240,
            "time": 101.875,
            "velocity": 0.3937007874015748
          },
          {
            "duration": 0.125,
            "durationTicks": 96,
            "midi": 37,
            "name": "C#2",
            "ticks": 78336,
            "time": 102,
            "velocity": 0.3937007874015748
          },
          {
            "duration": 0.125,
            "durationTicks": 96,
            "midi": 37,
            "name": "C#2",
            "ticks": 78528,
            "time": 102.25,
            "velocity": 0.3937007874015748
          },
          {
            "duration": 0.125,
            "durationTicks": 96,
            "midi": 37,
            "name": "C#2",
            "ticks": 78720,
            "time": 102.5,
            "velocity": 0.3937007874015748
          },
          {
            "duration": 0.125,
            "durationTicks": 96,
            "midi": 37,
            "name": "C#2",
            "ticks": 78912,
            "time": 102.75,
            "velocity": 0.3937007874015748
          },
          {
            "duration": 0.125,
            "durationTicks": 96,
            "midi": 37,
            "name": "C#2",
            "ticks": 79104,
            "time": 103,
            "velocity": 0.3937007874015748
          },
          {
            "duration": 0.125,
            "durationTicks": 96,
            "midi": 37,
            "name": "C#2",
            "ticks": 79392,
            "time": 103.375,
            "velocity": 0.3937007874015748
          },
          {
            "duration": 0.125,
            "durationTicks": 96,
            "midi": 37,
            "name": "C#2",
            "ticks": 79776,
            "time": 103.875,
            "velocity": 0.3937007874015748
          },
          {
            "duration": 0.125,
            "durationTicks": 96,
            "midi": 37,
            "name": "C#2",
            "ticks": 79872,
            "time": 104,
            "velocity": 0.3937007874015748
          },
          {
            "duration": 0.125,
            "durationTicks": 96,
            "midi": 37,
            "name": "C#2",
            "ticks": 80064,
            "time": 104.25,
            "velocity": 0.3937007874015748
          },
          {
            "duration": 0.125,
            "durationTicks": 96,
            "midi": 37,
            "name": "C#2",
            "ticks": 80256,
            "time": 104.5,
            "velocity": 0.3937007874015748
          },
          {
            "duration": 0.125,
            "durationTicks": 96,
            "midi": 37,
            "name": "C#2",
            "ticks": 80448,
            "time": 104.75,
            "velocity": 0.3937007874015748
          },
          {
            "duration": 0.125,
            "durationTicks": 96,
            "midi": 37,
            "name": "C#2",
            "ticks": 80640,
            "time": 105,
            "velocity": 0.3937007874015748
          },
          {
            "duration": 0.125,
            "durationTicks": 96,
            "midi": 37,
            "name": "C#2",
            "ticks": 80928,
            "time": 105.375,
            "velocity": 0.3937007874015748
          },
          {
            "duration": 0.125,
            "durationTicks": 96,
            "midi": 37,
            "name": "C#2",
            "ticks": 81312,
            "time": 105.875,
            "velocity": 0.3937007874015748
          },
          {
            "duration": 0.125,
            "durationTicks": 96,
            "midi": 37,
            "name": "C#2",
            "ticks": 81408,
            "time": 106,
            "velocity": 0.3937007874015748
          },
          {
            "duration": 0.125,
            "durationTicks": 96,
            "midi": 37,
            "name": "C#2",
            "ticks": 81600,
            "time": 106.25,
            "velocity": 0.3937007874015748
          },
          {
            "duration": 0.125,
            "durationTicks": 96,
            "midi": 37,
            "name": "C#2",
            "ticks": 81792,
            "time": 106.5,
            "velocity": 0.3937007874015748
          },
          {
            "duration": 0.125,
            "durationTicks": 96,
            "midi": 37,
            "name": "C#2",
            "ticks": 81984,
            "time": 106.75,
            "velocity": 0.3937007874015748
          },
          {
            "duration": 0.125,
            "durationTicks": 96,
            "midi": 37,
            "name": "C#2",
            "ticks": 82176,
            "time": 107,
            "velocity": 0.3937007874015748
          },
          {
            "duration": 0.125,
            "durationTicks": 96,
            "midi": 37,
            "name": "C#2",
            "ticks": 82464,
            "time": 107.375,
            "velocity": 0.3937007874015748
          },
          {
            "duration": 0.125,
            "durationTicks": 96,
            "midi": 37,
            "name": "C#2",
            "ticks": 82848,
            "time": 107.875,
            "velocity": 0.3937007874015748
          },
          {
            "duration": 0.125,
            "durationTicks": 96,
            "midi": 37,
            "name": "C#2",
            "ticks": 82944,
            "time": 108,
            "velocity": 0.3937007874015748
          },
          {
            "duration": 0.125,
            "durationTicks": 96,
            "midi": 37,
            "name": "C#2",
            "ticks": 83136,
            "time": 108.25,
            "velocity": 0.3937007874015748
          },
          {
            "duration": 0.125,
            "durationTicks": 96,
            "midi": 37,
            "name": "C#2",
            "ticks": 83328,
            "time": 108.5,
            "velocity": 0.3937007874015748
          },
          {
            "duration": 0.125,
            "durationTicks": 96,
            "midi": 37,
            "name": "C#2",
            "ticks": 83520,
            "time": 108.75,
            "velocity": 0.3937007874015748
          },
          {
            "duration": 0.125,
            "durationTicks": 96,
            "midi": 37,
            "name": "C#2",
            "ticks": 83712,
            "time": 109,
            "velocity": 0.3937007874015748
          },
          {
            "duration": 0.125,
            "durationTicks": 96,
            "midi": 37,
            "name": "C#2",
            "ticks": 84000,
            "time": 109.375,
            "velocity": 0.3937007874015748
          },
          {
            "duration": 0.125,
            "durationTicks": 96,
            "midi": 37,
            "name": "C#2",
            "ticks": 84384,
            "time": 109.875,
            "velocity": 0.3937007874015748
          },
          {
            "duration": 0.125,
            "durationTicks": 96,
            "midi": 37,
            "name": "C#2",
            "ticks": 84480,
            "time": 110,
            "velocity": 0.3937007874015748
          },
          {
            "duration": 0.125,
            "durationTicks": 96,
            "midi": 37,
            "name": "C#2",
            "ticks": 84672,
            "time": 110.25,
            "velocity": 0.3937007874015748
          },
          {
            "duration": 0.125,
            "durationTicks": 96,
            "midi": 37,
            "name": "C#2",
            "ticks": 84864,
            "time": 110.5,
            "velocity": 0.3937007874015748
          },
          {
            "duration": 0.125,
            "durationTicks": 96,
            "midi": 37,
            "name": "C#2",
            "ticks": 85056,
            "time": 110.75,
            "velocity": 0.3937007874015748
          },
          {
            "duration": 0.125,
            "durationTicks": 96,
            "midi": 37,
            "name": "C#2",
            "ticks": 85248,
            "time": 111,
            "velocity": 0.3937007874015748
          },
          {
            "duration": 0.125,
            "durationTicks": 96,
            "midi": 37,
            "name": "C#2",
            "ticks": 85536,
            "time": 111.375,
            "velocity": 0.3937007874015748
          },
          {
            "duration": 0.125,
            "durationTicks": 96,
            "midi": 37,
            "name": "C#2",
            "ticks": 85920,
            "time": 111.875,
            "velocity": 0.3937007874015748
          },
          {
            "duration": 0.125,
            "durationTicks": 96,
            "midi": 37,
            "name": "C#2",
            "ticks": 86016,
            "time": 112,
            "velocity": 0.3937007874015748
          },
          {
            "duration": 0.125,
            "durationTicks": 96,
            "midi": 37,
            "name": "C#2",
            "ticks": 86208,
            "time": 112.25,
            "velocity": 0.3937007874015748
          },
          {
            "duration": 0.125,
            "durationTicks": 96,
            "midi": 37,
            "name": "C#2",
            "ticks": 86400,
            "time": 112.5,
            "velocity": 0.3937007874015748
          },
          {
            "duration": 0.125,
            "durationTicks": 96,
            "midi": 37,
            "name": "C#2",
            "ticks": 86592,
            "time": 112.75,
            "velocity": 0.3937007874015748
          },
          {
            "duration": 0.125,
            "durationTicks": 96,
            "midi": 37,
            "name": "C#2",
            "ticks": 86784,
            "time": 113,
            "velocity": 0.3937007874015748
          },
          {
            "duration": 0.125,
            "durationTicks": 96,
            "midi": 37,
            "name": "C#2",
            "ticks": 87072,
            "time": 113.375,
            "velocity": 0.3937007874015748
          },
          {
            "duration": 0.125,
            "durationTicks": 96,
            "midi": 37,
            "name": "C#2",
            "ticks": 87456,
            "time": 113.875,
            "velocity": 0.3937007874015748
          },
          {
            "duration": 0.125,
            "durationTicks": 96,
            "midi": 37,
            "name": "C#2",
            "ticks": 87552,
            "time": 114,
            "velocity": 0.3937007874015748
          },
          {
            "duration": 0.125,
            "durationTicks": 96,
            "midi": 37,
            "name": "C#2",
            "ticks": 87744,
            "time": 114.25,
            "velocity": 0.3937007874015748
          },
          {
            "duration": 0.125,
            "durationTicks": 96,
            "midi": 37,
            "name": "C#2",
            "ticks": 87936,
            "time": 114.5,
            "velocity": 0.3937007874015748
          },
          {
            "duration": 0.125,
            "durationTicks": 96,
            "midi": 37,
            "name": "C#2",
            "ticks": 88128,
            "time": 114.75,
            "velocity": 0.3937007874015748
          },
          {
            "duration": 0.125,
            "durationTicks": 96,
            "midi": 37,
            "name": "C#2",
            "ticks": 88320,
            "time": 115,
            "velocity": 0.3937007874015748
          },
          {
            "duration": 0.125,
            "durationTicks": 96,
            "midi": 37,
            "name": "C#2",
            "ticks": 88608,
            "time": 115.375,
            "velocity": 0.3937007874015748
          },
          {
            "duration": 0.125,
            "durationTicks": 96,
            "midi": 37,
            "name": "C#2",
            "ticks": 88992,
            "time": 115.875,
            "velocity": 0.3937007874015748
          },
          {
            "duration": 0.125,
            "durationTicks": 96,
            "midi": 37,
            "name": "C#2",
            "ticks": 89088,
            "time": 116,
            "velocity": 0.3937007874015748
          },
          {
            "duration": 0.125,
            "durationTicks": 96,
            "midi": 37,
            "name": "C#2",
            "ticks": 89280,
            "time": 116.25,
            "velocity": 0.3937007874015748
          },
          {
            "duration": 0.125,
            "durationTicks": 96,
            "midi": 37,
            "name": "C#2",
            "ticks": 89472,
            "time": 116.5,
            "velocity": 0.3937007874015748
          },
          {
            "duration": 0.125,
            "durationTicks": 96,
            "midi": 37,
            "name": "C#2",
            "ticks": 89664,
            "time": 116.75,
            "velocity": 0.3937007874015748
          },
          {
            "duration": 0.125,
            "durationTicks": 96,
            "midi": 37,
            "name": "C#2",
            "ticks": 89856,
            "time": 117,
            "velocity": 0.3937007874015748
          },
          {
            "duration": 0.125,
            "durationTicks": 96,
            "midi": 37,
            "name": "C#2",
            "ticks": 90144,
            "time": 117.375,
            "velocity": 0.3937007874015748
          },
          {
            "duration": 0.125,
            "durationTicks": 96,
            "midi": 37,
            "name": "C#2",
            "ticks": 90528,
            "time": 117.875,
            "velocity": 0.3937007874015748
          },
          {
            "duration": 0.125,
            "durationTicks": 96,
            "midi": 37,
            "name": "C#2",
            "ticks": 90624,
            "time": 118,
            "velocity": 0.3937007874015748
          },
          {
            "duration": 0.125,
            "durationTicks": 96,
            "midi": 37,
            "name": "C#2",
            "ticks": 90816,
            "time": 118.25,
            "velocity": 0.3937007874015748
          },
          {
            "duration": 0.125,
            "durationTicks": 96,
            "midi": 37,
            "name": "C#2",
            "ticks": 91008,
            "time": 118.5,
            "velocity": 0.3937007874015748
          },
          {
            "duration": 0.125,
            "durationTicks": 96,
            "midi": 37,
            "name": "C#2",
            "ticks": 91200,
            "time": 118.75,
            "velocity": 0.3937007874015748
          },
          {
            "duration": 0.125,
            "durationTicks": 96,
            "midi": 37,
            "name": "C#2",
            "ticks": 91392,
            "time": 119,
            "velocity": 0.3937007874015748
          },
          {
            "duration": 0.125,
            "durationTicks": 96,
            "midi": 37,
            "name": "C#2",
            "ticks": 91680,
            "time": 119.375,
            "velocity": 0.3937007874015748
          },
          {
            "duration": 0.125,
            "durationTicks": 96,
            "midi": 37,
            "name": "C#2",
            "ticks": 92064,
            "time": 119.875,
            "velocity": 0.3937007874015748
          },
          {
            "duration": 0.125,
            "durationTicks": 96,
            "midi": 37,
            "name": "C#2",
            "ticks": 92160,
            "time": 120,
            "velocity": 0.3937007874015748
          },
          {
            "duration": 0.125,
            "durationTicks": 96,
            "midi": 37,
            "name": "C#2",
            "ticks": 92352,
            "time": 120.25,
            "velocity": 0.3937007874015748
          },
          {
            "duration": 0.125,
            "durationTicks": 96,
            "midi": 37,
            "name": "C#2",
            "ticks": 92544,
            "time": 120.5,
            "velocity": 0.3937007874015748
          },
          {
            "duration": 0.125,
            "durationTicks": 96,
            "midi": 37,
            "name": "C#2",
            "ticks": 92736,
            "time": 120.75,
            "velocity": 0.3937007874015748
          },
          {
            "duration": 0.125,
            "durationTicks": 96,
            "midi": 37,
            "name": "C#2",
            "ticks": 92928,
            "time": 121,
            "velocity": 0.3937007874015748
          },
          {
            "duration": 0.125,
            "durationTicks": 96,
            "midi": 37,
            "name": "C#2",
            "ticks": 93216,
            "time": 121.375,
            "velocity": 0.3937007874015748
          },
          {
            "duration": 0.125,
            "durationTicks": 96,
            "midi": 37,
            "name": "C#2",
            "ticks": 93600,
            "time": 121.875,
            "velocity": 0.3937007874015748
          },
          {
            "duration": 0.125,
            "durationTicks": 96,
            "midi": 37,
            "name": "C#2",
            "ticks": 93696,
            "time": 122,
            "velocity": 0.3937007874015748
          },
          {
            "duration": 0.125,
            "durationTicks": 96,
            "midi": 37,
            "name": "C#2",
            "ticks": 93888,
            "time": 122.25,
            "velocity": 0.3937007874015748
          },
          {
            "duration": 0.125,
            "durationTicks": 96,
            "midi": 37,
            "name": "C#2",
            "ticks": 94080,
            "time": 122.5,
            "velocity": 0.3937007874015748
          },
          {
            "duration": 0.125,
            "durationTicks": 96,
            "midi": 37,
            "name": "C#2",
            "ticks": 94272,
            "time": 122.75,
            "velocity": 0.3937007874015748
          },
          {
            "duration": 0.125,
            "durationTicks": 96,
            "midi": 37,
            "name": "C#2",
            "ticks": 94464,
            "time": 123,
            "velocity": 0.3937007874015748
          },
          {
            "duration": 0.125,
            "durationTicks": 96,
            "midi": 37,
            "name": "C#2",
            "ticks": 94752,
            "time": 123.375,
            "velocity": 0.3937007874015748
          },
          {
            "duration": 0.125,
            "durationTicks": 96,
            "midi": 37,
            "name": "C#2",
            "ticks": 95136,
            "time": 123.875,
            "velocity": 0.3937007874015748
          },
          {
            "duration": 0.125,
            "durationTicks": 96,
            "midi": 37,
            "name": "C#2",
            "ticks": 95232,
            "time": 124,
            "velocity": 0.3937007874015748
          },
          {
            "duration": 0.125,
            "durationTicks": 96,
            "midi": 37,
            "name": "C#2",
            "ticks": 95424,
            "time": 124.25,
            "velocity": 0.3937007874015748
          },
          {
            "duration": 0.125,
            "durationTicks": 96,
            "midi": 37,
            "name": "C#2",
            "ticks": 95616,
            "time": 124.5,
            "velocity": 0.3937007874015748
          },
          {
            "duration": 0.125,
            "durationTicks": 96,
            "midi": 37,
            "name": "C#2",
            "ticks": 95808,
            "time": 124.75,
            "velocity": 0.3937007874015748
          },
          {
            "duration": 0.125,
            "durationTicks": 96,
            "midi": 37,
            "name": "C#2",
            "ticks": 96000,
            "time": 125,
            "velocity": 0.3937007874015748
          },
          {
            "duration": 0.125,
            "durationTicks": 96,
            "midi": 37,
            "name": "C#2",
            "ticks": 96288,
            "time": 125.375,
            "velocity": 0.3937007874015748
          },
          {
            "duration": 0.125,
            "durationTicks": 96,
            "midi": 37,
            "name": "C#2",
            "ticks": 96672,
            "time": 125.875,
            "velocity": 0.3937007874015748
          },
          {
            "duration": 0.125,
            "durationTicks": 96,
            "midi": 37,
            "name": "C#2",
            "ticks": 96768,
            "time": 126,
            "velocity": 0.3937007874015748
          },
          {
            "duration": 0.125,
            "durationTicks": 96,
            "midi": 37,
            "name": "C#2",
            "ticks": 96960,
            "time": 126.25,
            "velocity": 0.3937007874015748
          },
          {
            "duration": 0.125,
            "durationTicks": 96,
            "midi": 37,
            "name": "C#2",
            "ticks": 97152,
            "time": 126.5,
            "velocity": 0.3937007874015748
          },
          {
            "duration": 0.125,
            "durationTicks": 96,
            "midi": 37,
            "name": "C#2",
            "ticks": 97344,
            "time": 126.75,
            "velocity": 0.3937007874015748
          },
          {
            "duration": 0.125,
            "durationTicks": 96,
            "midi": 37,
            "name": "C#2",
            "ticks": 97536,
            "time": 127,
            "velocity": 0.3937007874015748
          },
          {
            "duration": 0.125,
            "durationTicks": 96,
            "midi": 37,
            "name": "C#2",
            "ticks": 97824,
            "time": 127.375,
            "velocity": 0.3937007874015748
          },
          {
            "duration": 0.125,
            "durationTicks": 96,
            "midi": 37,
            "name": "C#2",
            "ticks": 98208,
            "time": 127.875,
            "velocity": 0.3937007874015748
          },
          {
            "duration": 0.125,
            "durationTicks": 96,
            "midi": 37,
            "name": "C#2",
            "ticks": 98304,
            "time": 128,
            "velocity": 0.3937007874015748
          },
          {
            "duration": 0.125,
            "durationTicks": 96,
            "midi": 37,
            "name": "C#2",
            "ticks": 98496,
            "time": 128.25,
            "velocity": 0.3937007874015748
          },
          {
            "duration": 0.125,
            "durationTicks": 96,
            "midi": 37,
            "name": "C#2",
            "ticks": 98688,
            "time": 128.5,
            "velocity": 0.3937007874015748
          },
          {
            "duration": 0.125,
            "durationTicks": 96,
            "midi": 37,
            "name": "C#2",
            "ticks": 98880,
            "time": 128.75,
            "velocity": 0.3937007874015748
          },
          {
            "duration": 0.125,
            "durationTicks": 96,
            "midi": 37,
            "name": "C#2",
            "ticks": 99072,
            "time": 129,
            "velocity": 0.3937007874015748
          },
          {
            "duration": 0.125,
            "durationTicks": 96,
            "midi": 37,
            "name": "C#2",
            "ticks": 99360,
            "time": 129.375,
            "velocity": 0.3937007874015748
          },
          {
            "duration": 0.125,
            "durationTicks": 96,
            "midi": 37,
            "name": "C#2",
            "ticks": 99744,
            "time": 129.875,
            "velocity": 0.3937007874015748
          },
          {
            "duration": 0.125,
            "durationTicks": 96,
            "midi": 37,
            "name": "C#2",
            "ticks": 99840,
            "time": 130,
            "velocity": 0.3937007874015748
          },
          {
            "duration": 0.125,
            "durationTicks": 96,
            "midi": 37,
            "name": "C#2",
            "ticks": 100032,
            "time": 130.25,
            "velocity": 0.3937007874015748
          },
          {
            "duration": 0.125,
            "durationTicks": 96,
            "midi": 37,
            "name": "C#2",
            "ticks": 100224,
            "time": 130.5,
            "velocity": 0.3937007874015748
          },
          {
            "duration": 0.125,
            "durationTicks": 96,
            "midi": 37,
            "name": "C#2",
            "ticks": 100416,
            "time": 130.75,
            "velocity": 0.3937007874015748
          },
          {
            "duration": 0.125,
            "durationTicks": 96,
            "midi": 37,
            "name": "C#2",
            "ticks": 100608,
            "time": 131,
            "velocity": 0.3937007874015748
          },
          {
            "duration": 0.125,
            "durationTicks": 96,
            "midi": 37,
            "name": "C#2",
            "ticks": 100896,
            "time": 131.375,
            "velocity": 0.3937007874015748
          },
          {
            "duration": 0.125,
            "durationTicks": 96,
            "midi": 37,
            "name": "C#2",
            "ticks": 101280,
            "time": 131.875,
            "velocity": 0.3937007874015748
          },
          {
            "duration": 0.125,
            "durationTicks": 96,
            "midi": 37,
            "name": "C#2",
            "ticks": 101376,
            "time": 132,
            "velocity": 0.3937007874015748
          },
          {
            "duration": 0.125,
            "durationTicks": 96,
            "midi": 37,
            "name": "C#2",
            "ticks": 101568,
            "time": 132.25,
            "velocity": 0.3937007874015748
          },
          {
            "duration": 0.125,
            "durationTicks": 96,
            "midi": 37,
            "name": "C#2",
            "ticks": 101760,
            "time": 132.5,
            "velocity": 0.3937007874015748
          },
          {
            "duration": 0.125,
            "durationTicks": 96,
            "midi": 37,
            "name": "C#2",
            "ticks": 101952,
            "time": 132.75,
            "velocity": 0.3937007874015748
          },
          {
            "duration": 0.125,
            "durationTicks": 96,
            "midi": 37,
            "name": "C#2",
            "ticks": 102144,
            "time": 133,
            "velocity": 0.3937007874015748
          },
          {
            "duration": 0.125,
            "durationTicks": 96,
            "midi": 37,
            "name": "C#2",
            "ticks": 102432,
            "time": 133.375,
            "velocity": 0.3937007874015748
          },
          {
            "duration": 0.125,
            "durationTicks": 96,
            "midi": 37,
            "name": "C#2",
            "ticks": 102816,
            "time": 133.875,
            "velocity": 0.3937007874015748
          },
          {
            "duration": 0.125,
            "durationTicks": 96,
            "midi": 37,
            "name": "C#2",
            "ticks": 102912,
            "time": 134,
            "velocity": 0.3937007874015748
          },
          {
            "duration": 0.125,
            "durationTicks": 96,
            "midi": 37,
            "name": "C#2",
            "ticks": 103104,
            "time": 134.25,
            "velocity": 0.3937007874015748
          },
          {
            "duration": 0.125,
            "durationTicks": 96,
            "midi": 37,
            "name": "C#2",
            "ticks": 103296,
            "time": 134.5,
            "velocity": 0.3937007874015748
          },
          {
            "duration": 0.125,
            "durationTicks": 96,
            "midi": 37,
            "name": "C#2",
            "ticks": 103488,
            "time": 134.75,
            "velocity": 0.3937007874015748
          },
          {
            "duration": 0.125,
            "durationTicks": 96,
            "midi": 37,
            "name": "C#2",
            "ticks": 103680,
            "time": 135,
            "velocity": 0.3937007874015748
          },
          {
            "duration": 0.125,
            "durationTicks": 96,
            "midi": 37,
            "name": "C#2",
            "ticks": 103968,
            "time": 135.375,
            "velocity": 0.3937007874015748
          },
          {
            "duration": 0.125,
            "durationTicks": 96,
            "midi": 37,
            "name": "C#2",
            "ticks": 104352,
            "time": 135.875,
            "velocity": 0.3937007874015748
          },
          {
            "duration": 0.125,
            "durationTicks": 96,
            "midi": 37,
            "name": "C#2",
            "ticks": 104448,
            "time": 136,
            "velocity": 0.3937007874015748
          },
          {
            "duration": 0.125,
            "durationTicks": 96,
            "midi": 37,
            "name": "C#2",
            "ticks": 104640,
            "time": 136.25,
            "velocity": 0.3937007874015748
          },
          {
            "duration": 0.125,
            "durationTicks": 96,
            "midi": 37,
            "name": "C#2",
            "ticks": 104832,
            "time": 136.5,
            "velocity": 0.3937007874015748
          },
          {
            "duration": 0.125,
            "durationTicks": 96,
            "midi": 37,
            "name": "C#2",
            "ticks": 105024,
            "time": 136.75,
            "velocity": 0.3937007874015748
          },
          {
            "duration": 0.125,
            "durationTicks": 96,
            "midi": 37,
            "name": "C#2",
            "ticks": 105216,
            "time": 137,
            "velocity": 0.3937007874015748
          },
          {
            "duration": 0.125,
            "durationTicks": 96,
            "midi": 37,
            "name": "C#2",
            "ticks": 105504,
            "time": 137.375,
            "velocity": 0.3937007874015748
          },
          {
            "duration": 0.125,
            "durationTicks": 96,
            "midi": 37,
            "name": "C#2",
            "ticks": 105888,
            "time": 137.875,
            "velocity": 0.3937007874015748
          },
          {
            "duration": 0.125,
            "durationTicks": 96,
            "midi": 37,
            "name": "C#2",
            "ticks": 105984,
            "time": 138,
            "velocity": 0.3937007874015748
          },
          {
            "duration": 0.125,
            "durationTicks": 96,
            "midi": 37,
            "name": "C#2",
            "ticks": 106176,
            "time": 138.25,
            "velocity": 0.3937007874015748
          },
          {
            "duration": 0.125,
            "durationTicks": 96,
            "midi": 37,
            "name": "C#2",
            "ticks": 106368,
            "time": 138.5,
            "velocity": 0.3937007874015748
          },
          {
            "duration": 0.125,
            "durationTicks": 96,
            "midi": 37,
            "name": "C#2",
            "ticks": 106560,
            "time": 138.75,
            "velocity": 0.3937007874015748
          },
          {
            "duration": 0.125,
            "durationTicks": 96,
            "midi": 37,
            "name": "C#2",
            "ticks": 106752,
            "time": 139,
            "velocity": 0.3937007874015748
          },
          {
            "duration": 0.125,
            "durationTicks": 96,
            "midi": 37,
            "name": "C#2",
            "ticks": 107040,
            "time": 139.375,
            "velocity": 0.3937007874015748
          },
          {
            "duration": 0.125,
            "durationTicks": 96,
            "midi": 37,
            "name": "C#2",
            "ticks": 107424,
            "time": 139.875,
            "velocity": 0.3937007874015748
          },
          {
            "duration": 0.125,
            "durationTicks": 96,
            "midi": 37,
            "name": "C#2",
            "ticks": 107520,
            "time": 140,
            "velocity": 0.3937007874015748
          },
          {
            "duration": 0.125,
            "durationTicks": 96,
            "midi": 37,
            "name": "C#2",
            "ticks": 107712,
            "time": 140.25,
            "velocity": 0.3937007874015748
          },
          {
            "duration": 0.125,
            "durationTicks": 96,
            "midi": 37,
            "name": "C#2",
            "ticks": 107904,
            "time": 140.5,
            "velocity": 0.3937007874015748
          },
          {
            "duration": 0.125,
            "durationTicks": 96,
            "midi": 37,
            "name": "C#2",
            "ticks": 108096,
            "time": 140.75,
            "velocity": 0.3937007874015748
          },
          {
            "duration": 0.125,
            "durationTicks": 96,
            "midi": 37,
            "name": "C#2",
            "ticks": 108288,
            "time": 141,
            "velocity": 0.3937007874015748
          },
          {
            "duration": 0.125,
            "durationTicks": 96,
            "midi": 37,
            "name": "C#2",
            "ticks": 108576,
            "time": 141.375,
            "velocity": 0.3937007874015748
          },
          {
            "duration": 0.125,
            "durationTicks": 96,
            "midi": 37,
            "name": "C#2",
            "ticks": 108768,
            "time": 141.625,
            "velocity": 0.3937007874015748
          },
          {
            "duration": 0.125,
            "durationTicks": 96,
            "midi": 37,
            "name": "C#2",
            "ticks": 108864,
            "time": 141.75,
            "velocity": 0.3937007874015748
          },
          {
            "duration": 0.125,
            "durationTicks": 96,
            "midi": 37,
            "name": "C#2",
            "ticks": 108960,
            "time": 141.875,
            "velocity": 0.3937007874015748
          },
          {
            "duration": 0.125,
            "durationTicks": 96,
            "midi": 37,
            "name": "C#2",
            "ticks": 109056,
            "time": 142,
            "velocity": 0.3937007874015748
          },
          {
            "duration": 0.125,
            "durationTicks": 96,
            "midi": 37,
            "name": "C#2",
            "ticks": 109632,
            "time": 142.75,
            "velocity": 0.3937007874015748
          },
          {
            "duration": 0.125,
            "durationTicks": 96,
            "midi": 37,
            "name": "C#2",
            "ticks": 110208,
            "time": 143.5,
            "velocity": 0.3937007874015748
          },
          {
            "duration": 0.125,
            "durationTicks": 96,
            "midi": 37,
            "name": "C#2",
            "ticks": 110784,
            "time": 144.25,
            "velocity": 0.3937007874015748
          },
          {
            "duration": 0.125,
            "durationTicks": 96,
            "midi": 37,
            "name": "C#2",
            "ticks": 110976,
            "time": 144.5,
            "velocity": 0.3937007874015748
          },
          {
            "duration": 0.125,
            "durationTicks": 96,
            "midi": 37,
            "name": "C#2",
            "ticks": 111072,
            "time": 144.625,
            "velocity": 0.3937007874015748
          },
          {
            "duration": 0.125,
            "durationTicks": 96,
            "midi": 37,
            "name": "C#2",
            "ticks": 111168,
            "time": 144.75,
            "velocity": 0.3937007874015748
          },
          {
            "duration": 0.125,
            "durationTicks": 96,
            "midi": 37,
            "name": "C#2",
            "ticks": 111264,
            "time": 144.875,
            "velocity": 0.3937007874015748
          },
          {
            "duration": 0.125,
            "durationTicks": 96,
            "midi": 37,
            "name": "C#2",
            "ticks": 111552,
            "time": 145.25,
            "velocity": 0.3937007874015748
          },
          {
            "duration": 0.125,
            "durationTicks": 96,
            "midi": 37,
            "name": "C#2",
            "ticks": 111744,
            "time": 145.5,
            "velocity": 0.3937007874015748
          },
          {
            "duration": 0.125,
            "durationTicks": 96,
            "midi": 37,
            "name": "C#2",
            "ticks": 112800,
            "time": 146.875,
            "velocity": 0.3937007874015748
          },
          {
            "duration": 0.125,
            "durationTicks": 96,
            "midi": 37,
            "name": "C#2",
            "ticks": 112896,
            "time": 147,
            "velocity": 0.3937007874015748
          },
          {
            "duration": 0.125,
            "durationTicks": 96,
            "midi": 37,
            "name": "C#2",
            "ticks": 113472,
            "time": 147.75,
            "velocity": 0.3937007874015748
          },
          {
            "duration": 0.125,
            "durationTicks": 96,
            "midi": 37,
            "name": "C#2",
            "ticks": 113568,
            "time": 147.875,
            "velocity": 0.3937007874015748
          },
          {
            "duration": 0.125,
            "durationTicks": 96,
            "midi": 37,
            "name": "C#2",
            "ticks": 113664,
            "time": 148,
            "velocity": 0.3937007874015748
          },
          {
            "duration": 0.125,
            "durationTicks": 96,
            "midi": 37,
            "name": "C#2",
            "ticks": 114432,
            "time": 149,
            "velocity": 0.3937007874015748
          },
          {
            "duration": 0.125,
            "durationTicks": 96,
            "midi": 37,
            "name": "C#2",
            "ticks": 114720,
            "time": 149.375,
            "velocity": 0.3937007874015748
          },
          {
            "duration": 0.125,
            "durationTicks": 96,
            "midi": 37,
            "name": "C#2",
            "ticks": 115008,
            "time": 149.75,
            "velocity": 0.3937007874015748
          },
          {
            "duration": 0.125,
            "durationTicks": 96,
            "midi": 37,
            "name": "C#2",
            "ticks": 115968,
            "time": 151,
            "velocity": 0.3937007874015748
          },
          {
            "duration": 0.125,
            "durationTicks": 96,
            "midi": 37,
            "name": "C#2",
            "ticks": 116544,
            "time": 151.75,
            "velocity": 0.3937007874015748
          },
          {
            "duration": 0.125,
            "durationTicks": 96,
            "midi": 37,
            "name": "C#2",
            "ticks": 116640,
            "time": 151.875,
            "velocity": 0.3937007874015748
          },
          {
            "duration": 0.125,
            "durationTicks": 96,
            "midi": 37,
            "name": "C#2",
            "ticks": 116736,
            "time": 152,
            "velocity": 0.3937007874015748
          },
          {
            "duration": 0.125,
            "durationTicks": 96,
            "midi": 37,
            "name": "C#2",
            "ticks": 117504,
            "time": 153,
            "velocity": 0.3937007874015748
          },
          {
            "duration": 0.125,
            "durationTicks": 96,
            "midi": 37,
            "name": "C#2",
            "ticks": 117792,
            "time": 153.375,
            "velocity": 0.3937007874015748
          },
          {
            "duration": 0.125,
            "durationTicks": 96,
            "midi": 37,
            "name": "C#2",
            "ticks": 118080,
            "time": 153.75,
            "velocity": 0.3937007874015748
          },
          {
            "duration": 0.125,
            "durationTicks": 96,
            "midi": 37,
            "name": "C#2",
            "ticks": 119040,
            "time": 155,
            "velocity": 0.3937007874015748
          },
          {
            "duration": 0.125,
            "durationTicks": 96,
            "midi": 37,
            "name": "C#2",
            "ticks": 119232,
            "time": 155.25,
            "velocity": 0.3937007874015748
          },
          {
            "duration": 0.125,
            "durationTicks": 96,
            "midi": 37,
            "name": "C#2",
            "ticks": 119424,
            "time": 155.5,
            "velocity": 0.3937007874015748
          },
          {
            "duration": 0.125,
            "durationTicks": 96,
            "midi": 37,
            "name": "C#2",
            "ticks": 119616,
            "time": 155.75,
            "velocity": 0.3937007874015748
          },
          {
            "duration": 0.125,
            "durationTicks": 96,
            "midi": 37,
            "name": "C#2",
            "ticks": 119808,
            "time": 156,
            "velocity": 0.3937007874015748
          },
          {
            "duration": 0.125,
            "durationTicks": 96,
            "midi": 37,
            "name": "C#2",
            "ticks": 120480,
            "time": 156.875,
            "velocity": 0.3937007874015748
          },
          {
            "duration": 0.125,
            "durationTicks": 96,
            "midi": 37,
            "name": "C#2",
            "ticks": 120576,
            "time": 157,
            "velocity": 0.3937007874015748
          },
          {
            "duration": 0.125,
            "durationTicks": 96,
            "midi": 37,
            "name": "C#2",
            "ticks": 121152,
            "time": 157.75,
            "velocity": 0.3937007874015748
          },
          {
            "duration": 0.125,
            "durationTicks": 96,
            "midi": 37,
            "name": "C#2",
            "ticks": 121248,
            "time": 157.875,
            "velocity": 0.3937007874015748
          },
          {
            "duration": 0.125,
            "durationTicks": 96,
            "midi": 37,
            "name": "C#2",
            "ticks": 121344,
            "time": 158,
            "velocity": 0.3937007874015748
          },
          {
            "duration": 0.125,
            "durationTicks": 96,
            "midi": 37,
            "name": "C#2",
            "ticks": 122016,
            "time": 158.875,
            "velocity": 0.3937007874015748
          },
          {
            "duration": 0.125,
            "durationTicks": 96,
            "midi": 37,
            "name": "C#2",
            "ticks": 122112,
            "time": 159,
            "velocity": 0.3937007874015748
          },
          {
            "duration": 0.125,
            "durationTicks": 96,
            "midi": 37,
            "name": "C#2",
            "ticks": 122784,
            "time": 159.875,
            "velocity": 0.3937007874015748
          },
          {
            "duration": 0.125,
            "durationTicks": 96,
            "midi": 37,
            "name": "C#2",
            "ticks": 122880,
            "time": 160,
            "velocity": 0.3937007874015748
          },
          {
            "duration": 0.125,
            "durationTicks": 96,
            "midi": 37,
            "name": "C#2",
            "ticks": 123552,
            "time": 160.875,
            "velocity": 0.3937007874015748
          },
          {
            "duration": 0.125,
            "durationTicks": 96,
            "midi": 37,
            "name": "C#2",
            "ticks": 123648,
            "time": 161,
            "velocity": 0.3937007874015748
          },
          {
            "duration": 0.125,
            "durationTicks": 96,
            "midi": 37,
            "name": "C#2",
            "ticks": 123840,
            "time": 161.25,
            "velocity": 0.3937007874015748
          },
          {
            "duration": 0.125,
            "durationTicks": 96,
            "midi": 37,
            "name": "C#2",
            "ticks": 124032,
            "time": 161.5,
            "velocity": 0.3937007874015748
          },
          {
            "duration": 0.125,
            "durationTicks": 96,
            "midi": 37,
            "name": "C#2",
            "ticks": 124416,
            "time": 162,
            "velocity": 0.3937007874015748
          },
          {
            "duration": 0.125,
            "durationTicks": 96,
            "midi": 37,
            "name": "C#2",
            "ticks": 124512,
            "time": 162.125,
            "velocity": 0.3937007874015748
          },
          {
            "duration": 0.125,
            "durationTicks": 96,
            "midi": 37,
            "name": "C#2",
            "ticks": 125088,
            "time": 162.875,
            "velocity": 0.3937007874015748
          },
          {
            "duration": 0.125,
            "durationTicks": 96,
            "midi": 37,
            "name": "C#2",
            "ticks": 125184,
            "time": 163,
            "velocity": 0.3937007874015748
          },
          {
            "duration": 0.125,
            "durationTicks": 96,
            "midi": 37,
            "name": "C#2",
            "ticks": 125760,
            "time": 163.75,
            "velocity": 0.3937007874015748
          },
          {
            "duration": 0.125,
            "durationTicks": 96,
            "midi": 37,
            "name": "C#2",
            "ticks": 125856,
            "time": 163.875,
            "velocity": 0.3937007874015748
          },
          {
            "duration": 0.125,
            "durationTicks": 96,
            "midi": 37,
            "name": "C#2",
            "ticks": 125952,
            "time": 164,
            "velocity": 0.3937007874015748
          },
          {
            "duration": 0.125,
            "durationTicks": 96,
            "midi": 37,
            "name": "C#2",
            "ticks": 126720,
            "time": 165,
            "velocity": 0.3937007874015748
          },
          {
            "duration": 0.125,
            "durationTicks": 96,
            "midi": 37,
            "name": "C#2",
            "ticks": 126912,
            "time": 165.25,
            "velocity": 0.3937007874015748
          },
          {
            "duration": 0.125,
            "durationTicks": 96,
            "midi": 37,
            "name": "C#2",
            "ticks": 127104,
            "time": 165.5,
            "velocity": 0.3937007874015748
          },
          {
            "duration": 0.125,
            "durationTicks": 96,
            "midi": 37,
            "name": "C#2",
            "ticks": 127200,
            "time": 165.625,
            "velocity": 0.3937007874015748
          },
          {
            "duration": 0.125,
            "durationTicks": 96,
            "midi": 37,
            "name": "C#2",
            "ticks": 127296,
            "time": 165.75,
            "velocity": 0.3937007874015748
          },
          {
            "duration": 0.125,
            "durationTicks": 96,
            "midi": 37,
            "name": "C#2",
            "ticks": 127392,
            "time": 165.875,
            "velocity": 0.3937007874015748
          },
          {
            "duration": 0.125,
            "durationTicks": 96,
            "midi": 37,
            "name": "C#2",
            "ticks": 127488,
            "time": 166,
            "velocity": 0.3937007874015748
          },
          {
            "duration": 0.125,
            "durationTicks": 96,
            "midi": 37,
            "name": "C#2",
            "ticks": 127680,
            "time": 166.25,
            "velocity": 0.3937007874015748
          },
          {
            "duration": 0.125,
            "durationTicks": 96,
            "midi": 37,
            "name": "C#2",
            "ticks": 127872,
            "time": 166.5,
            "velocity": 0.3937007874015748
          },
          {
            "duration": 0.125,
            "durationTicks": 96,
            "midi": 37,
            "name": "C#2",
            "ticks": 128064,
            "time": 166.75,
            "velocity": 0.3937007874015748
          },
          {
            "duration": 0.125,
            "durationTicks": 96,
            "midi": 37,
            "name": "C#2",
            "ticks": 128256,
            "time": 167,
            "velocity": 0.3937007874015748
          },
          {
            "duration": 0.125,
            "durationTicks": 96,
            "midi": 37,
            "name": "C#2",
            "ticks": 128544,
            "time": 167.375,
            "velocity": 0.3937007874015748
          },
          {
            "duration": 0.125,
            "durationTicks": 96,
            "midi": 37,
            "name": "C#2",
            "ticks": 128928,
            "time": 167.875,
            "velocity": 0.3937007874015748
          },
          {
            "duration": 0.125,
            "durationTicks": 96,
            "midi": 37,
            "name": "C#2",
            "ticks": 129024,
            "time": 168,
            "velocity": 0.3937007874015748
          },
          {
            "duration": 0.125,
            "durationTicks": 96,
            "midi": 37,
            "name": "C#2",
            "ticks": 129216,
            "time": 168.25,
            "velocity": 0.3937007874015748
          },
          {
            "duration": 0.125,
            "durationTicks": 96,
            "midi": 37,
            "name": "C#2",
            "ticks": 129408,
            "time": 168.5,
            "velocity": 0.3937007874015748
          },
          {
            "duration": 0.125,
            "durationTicks": 96,
            "midi": 37,
            "name": "C#2",
            "ticks": 129600,
            "time": 168.75,
            "velocity": 0.3937007874015748
          },
          {
            "duration": 0.125,
            "durationTicks": 96,
            "midi": 37,
            "name": "C#2",
            "ticks": 129792,
            "time": 169,
            "velocity": 0.3937007874015748
          },
          {
            "duration": 0.125,
            "durationTicks": 96,
            "midi": 37,
            "name": "C#2",
            "ticks": 130080,
            "time": 169.375,
            "velocity": 0.3937007874015748
          },
          {
            "duration": 0.125,
            "durationTicks": 96,
            "midi": 37,
            "name": "C#2",
            "ticks": 130464,
            "time": 169.875,
            "velocity": 0.3937007874015748
          },
          {
            "duration": 0.125,
            "durationTicks": 96,
            "midi": 37,
            "name": "C#2",
            "ticks": 130560,
            "time": 170,
            "velocity": 0.3937007874015748
          },
          {
            "duration": 0.125,
            "durationTicks": 96,
            "midi": 37,
            "name": "C#2",
            "ticks": 130752,
            "time": 170.25,
            "velocity": 0.3937007874015748
          },
          {
            "duration": 0.125,
            "durationTicks": 96,
            "midi": 37,
            "name": "C#2",
            "ticks": 130944,
            "time": 170.5,
            "velocity": 0.3937007874015748
          },
          {
            "duration": 0.125,
            "durationTicks": 96,
            "midi": 37,
            "name": "C#2",
            "ticks": 131136,
            "time": 170.75,
            "velocity": 0.3937007874015748
          },
          {
            "duration": 0.125,
            "durationTicks": 96,
            "midi": 37,
            "name": "C#2",
            "ticks": 131328,
            "time": 171,
            "velocity": 0.3937007874015748
          },
          {
            "duration": 0.125,
            "durationTicks": 96,
            "midi": 37,
            "name": "C#2",
            "ticks": 131616,
            "time": 171.375,
            "velocity": 0.3937007874015748
          },
          {
            "duration": 0.125,
            "durationTicks": 96,
            "midi": 37,
            "name": "C#2",
            "ticks": 132000,
            "time": 171.875,
            "velocity": 0.3937007874015748
          },
          {
            "duration": 0.125,
            "durationTicks": 96,
            "midi": 37,
            "name": "C#2",
            "ticks": 132096,
            "time": 172,
            "velocity": 0.3937007874015748
          },
          {
            "duration": 0.125,
            "durationTicks": 96,
            "midi": 37,
            "name": "C#2",
            "ticks": 132288,
            "time": 172.25,
            "velocity": 0.3937007874015748
          },
          {
            "duration": 0.125,
            "durationTicks": 96,
            "midi": 37,
            "name": "C#2",
            "ticks": 132480,
            "time": 172.5,
            "velocity": 0.3937007874015748
          },
          {
            "duration": 0.125,
            "durationTicks": 96,
            "midi": 37,
            "name": "C#2",
            "ticks": 132672,
            "time": 172.75,
            "velocity": 0.3937007874015748
          },
          {
            "duration": 0.125,
            "durationTicks": 96,
            "midi": 37,
            "name": "C#2",
            "ticks": 132864,
            "time": 173,
            "velocity": 0.3937007874015748
          },
          {
            "duration": 0.125,
            "durationTicks": 96,
            "midi": 37,
            "name": "C#2",
            "ticks": 133152,
            "time": 173.375,
            "velocity": 0.3937007874015748
          },
          {
            "duration": 0.125,
            "durationTicks": 96,
            "midi": 37,
            "name": "C#2",
            "ticks": 133536,
            "time": 173.875,
            "velocity": 0.3937007874015748
          },
          {
            "duration": 0.125,
            "durationTicks": 96,
            "midi": 37,
            "name": "C#2",
            "ticks": 133632,
            "time": 174,
            "velocity": 0.3937007874015748
          },
          {
            "duration": 0.125,
            "durationTicks": 96,
            "midi": 37,
            "name": "C#2",
            "ticks": 133824,
            "time": 174.25,
            "velocity": 0.3937007874015748
          },
          {
            "duration": 0.125,
            "durationTicks": 96,
            "midi": 37,
            "name": "C#2",
            "ticks": 134016,
            "time": 174.5,
            "velocity": 0.3937007874015748
          },
          {
            "duration": 0.125,
            "durationTicks": 96,
            "midi": 37,
            "name": "C#2",
            "ticks": 134208,
            "time": 174.75,
            "velocity": 0.3937007874015748
          },
          {
            "duration": 0.125,
            "durationTicks": 96,
            "midi": 37,
            "name": "C#2",
            "ticks": 134400,
            "time": 175,
            "velocity": 0.3937007874015748
          },
          {
            "duration": 0.125,
            "durationTicks": 96,
            "midi": 37,
            "name": "C#2",
            "ticks": 134688,
            "time": 175.375,
            "velocity": 0.3937007874015748
          },
          {
            "duration": 0.125,
            "durationTicks": 96,
            "midi": 37,
            "name": "C#2",
            "ticks": 135072,
            "time": 175.875,
            "velocity": 0.3937007874015748
          },
          {
            "duration": 0.125,
            "durationTicks": 96,
            "midi": 37,
            "name": "C#2",
            "ticks": 135168,
            "time": 176,
            "velocity": 0.3937007874015748
          },
          {
            "duration": 0.125,
            "durationTicks": 96,
            "midi": 37,
            "name": "C#2",
            "ticks": 135360,
            "time": 176.25,
            "velocity": 0.3937007874015748
          },
          {
            "duration": 0.125,
            "durationTicks": 96,
            "midi": 37,
            "name": "C#2",
            "ticks": 135552,
            "time": 176.5,
            "velocity": 0.3937007874015748
          },
          {
            "duration": 0.125,
            "durationTicks": 96,
            "midi": 37,
            "name": "C#2",
            "ticks": 135744,
            "time": 176.75,
            "velocity": 0.3937007874015748
          },
          {
            "duration": 0.125,
            "durationTicks": 96,
            "midi": 37,
            "name": "C#2",
            "ticks": 135936,
            "time": 177,
            "velocity": 0.3937007874015748
          },
          {
            "duration": 0.125,
            "durationTicks": 96,
            "midi": 37,
            "name": "C#2",
            "ticks": 136224,
            "time": 177.375,
            "velocity": 0.3937007874015748
          },
          {
            "duration": 0.125,
            "durationTicks": 96,
            "midi": 37,
            "name": "C#2",
            "ticks": 136608,
            "time": 177.875,
            "velocity": 0.3937007874015748
          },
          {
            "duration": 0.125,
            "durationTicks": 96,
            "midi": 37,
            "name": "C#2",
            "ticks": 136704,
            "time": 178,
            "velocity": 0.3937007874015748
          },
          {
            "duration": 0.125,
            "durationTicks": 96,
            "midi": 37,
            "name": "C#2",
            "ticks": 136896,
            "time": 178.25,
            "velocity": 0.3937007874015748
          },
          {
            "duration": 0.125,
            "durationTicks": 96,
            "midi": 37,
            "name": "C#2",
            "ticks": 137088,
            "time": 178.5,
            "velocity": 0.3937007874015748
          },
          {
            "duration": 0.125,
            "durationTicks": 96,
            "midi": 37,
            "name": "C#2",
            "ticks": 137280,
            "time": 178.75,
            "velocity": 0.3937007874015748
          },
          {
            "duration": 0.125,
            "durationTicks": 96,
            "midi": 37,
            "name": "C#2",
            "ticks": 137472,
            "time": 179,
            "velocity": 0.3937007874015748
          },
          {
            "duration": 0.125,
            "durationTicks": 96,
            "midi": 37,
            "name": "C#2",
            "ticks": 137760,
            "time": 179.375,
            "velocity": 0.3937007874015748
          },
          {
            "duration": 0.125,
            "durationTicks": 96,
            "midi": 37,
            "name": "C#2",
            "ticks": 138144,
            "time": 179.875,
            "velocity": 0.3937007874015748
          },
          {
            "duration": 0.125,
            "durationTicks": 96,
            "midi": 37,
            "name": "C#2",
            "ticks": 138240,
            "time": 180,
            "velocity": 0.3937007874015748
          },
          {
            "duration": 0.125,
            "durationTicks": 96,
            "midi": 37,
            "name": "C#2",
            "ticks": 138432,
            "time": 180.25,
            "velocity": 0.3937007874015748
          },
          {
            "duration": 0.125,
            "durationTicks": 96,
            "midi": 37,
            "name": "C#2",
            "ticks": 138624,
            "time": 180.5,
            "velocity": 0.3937007874015748
          },
          {
            "duration": 0.125,
            "durationTicks": 96,
            "midi": 37,
            "name": "C#2",
            "ticks": 138816,
            "time": 180.75,
            "velocity": 0.3937007874015748
          },
          {
            "duration": 0.125,
            "durationTicks": 96,
            "midi": 37,
            "name": "C#2",
            "ticks": 139008,
            "time": 181,
            "velocity": 0.3937007874015748
          },
          {
            "duration": 0.125,
            "durationTicks": 96,
            "midi": 37,
            "name": "C#2",
            "ticks": 139296,
            "time": 181.375,
            "velocity": 0.3937007874015748
          },
          {
            "duration": 0.125,
            "durationTicks": 96,
            "midi": 37,
            "name": "C#2",
            "ticks": 139680,
            "time": 181.875,
            "velocity": 0.3937007874015748
          },
          {
            "duration": 0.125,
            "durationTicks": 96,
            "midi": 37,
            "name": "C#2",
            "ticks": 139776,
            "time": 182,
            "velocity": 0.3937007874015748
          },
          {
            "duration": 0.125,
            "durationTicks": 96,
            "midi": 37,
            "name": "C#2",
            "ticks": 139968,
            "time": 182.25,
            "velocity": 0.3937007874015748
          },
          {
            "duration": 0.125,
            "durationTicks": 96,
            "midi": 37,
            "name": "C#2",
            "ticks": 140160,
            "time": 182.5,
            "velocity": 0.3937007874015748
          },
          {
            "duration": 0.125,
            "durationTicks": 96,
            "midi": 37,
            "name": "C#2",
            "ticks": 140352,
            "time": 182.75,
            "velocity": 0.3937007874015748
          },
          {
            "duration": 0.125,
            "durationTicks": 96,
            "midi": 37,
            "name": "C#2",
            "ticks": 140544,
            "time": 183,
            "velocity": 0.3937007874015748
          },
          {
            "duration": 0.125,
            "durationTicks": 96,
            "midi": 37,
            "name": "C#2",
            "ticks": 140832,
            "time": 183.375,
            "velocity": 0.3937007874015748
          },
          {
            "duration": 0.125,
            "durationTicks": 96,
            "midi": 37,
            "name": "C#2",
            "ticks": 141216,
            "time": 183.875,
            "velocity": 0.3937007874015748
          },
          {
            "duration": 0.125,
            "durationTicks": 96,
            "midi": 37,
            "name": "C#2",
            "ticks": 141312,
            "time": 184,
            "velocity": 0.3937007874015748
          },
          {
            "duration": 0.125,
            "durationTicks": 96,
            "midi": 37,
            "name": "C#2",
            "ticks": 141504,
            "time": 184.25,
            "velocity": 0.3937007874015748
          },
          {
            "duration": 0.125,
            "durationTicks": 96,
            "midi": 37,
            "name": "C#2",
            "ticks": 141696,
            "time": 184.5,
            "velocity": 0.3937007874015748
          },
          {
            "duration": 0.125,
            "durationTicks": 96,
            "midi": 37,
            "name": "C#2",
            "ticks": 141888,
            "time": 184.75,
            "velocity": 0.3937007874015748
          },
          {
            "duration": 0.125,
            "durationTicks": 96,
            "midi": 37,
            "name": "C#2",
            "ticks": 142080,
            "time": 185,
            "velocity": 0.3937007874015748
          },
          {
            "duration": 0.125,
            "durationTicks": 96,
            "midi": 37,
            "name": "C#2",
            "ticks": 142368,
            "time": 185.375,
            "velocity": 0.3937007874015748
          },
          {
            "duration": 0.125,
            "durationTicks": 96,
            "midi": 37,
            "name": "C#2",
            "ticks": 142752,
            "time": 185.875,
            "velocity": 0.3937007874015748
          },
          {
            "duration": 0.125,
            "durationTicks": 96,
            "midi": 37,
            "name": "C#2",
            "ticks": 142848,
            "time": 186,
            "velocity": 0.3937007874015748
          },
          {
            "duration": 0.125,
            "durationTicks": 96,
            "midi": 37,
            "name": "C#2",
            "ticks": 143040,
            "time": 186.25,
            "velocity": 0.3937007874015748
          },
          {
            "duration": 0.125,
            "durationTicks": 96,
            "midi": 37,
            "name": "C#2",
            "ticks": 143232,
            "time": 186.5,
            "velocity": 0.3937007874015748
          },
          {
            "duration": 0.125,
            "durationTicks": 96,
            "midi": 37,
            "name": "C#2",
            "ticks": 143424,
            "time": 186.75,
            "velocity": 0.3937007874015748
          },
          {
            "duration": 0.125,
            "durationTicks": 96,
            "midi": 37,
            "name": "C#2",
            "ticks": 143616,
            "time": 187,
            "velocity": 0.3937007874015748
          },
          {
            "duration": 0.125,
            "durationTicks": 96,
            "midi": 37,
            "name": "C#2",
            "ticks": 143904,
            "time": 187.375,
            "velocity": 0.3937007874015748
          },
          {
            "duration": 0.125,
            "durationTicks": 96,
            "midi": 37,
            "name": "C#2",
            "ticks": 144288,
            "time": 187.875,
            "velocity": 0.3937007874015748
          },
          {
            "duration": 0.125,
            "durationTicks": 96,
            "midi": 37,
            "name": "C#2",
            "ticks": 144384,
            "time": 188,
            "velocity": 0.3937007874015748
          },
          {
            "duration": 0.125,
            "durationTicks": 96,
            "midi": 37,
            "name": "C#2",
            "ticks": 144576,
            "time": 188.25,
            "velocity": 0.3937007874015748
          },
          {
            "duration": 0.125,
            "durationTicks": 96,
            "midi": 37,
            "name": "C#2",
            "ticks": 144768,
            "time": 188.5,
            "velocity": 0.3937007874015748
          },
          {
            "duration": 0.125,
            "durationTicks": 96,
            "midi": 37,
            "name": "C#2",
            "ticks": 144960,
            "time": 188.75,
            "velocity": 0.3937007874015748
          },
          {
            "duration": 0.125,
            "durationTicks": 96,
            "midi": 37,
            "name": "C#2",
            "ticks": 145152,
            "time": 189,
            "velocity": 0.3937007874015748
          },
          {
            "duration": 0.125,
            "durationTicks": 96,
            "midi": 37,
            "name": "C#2",
            "ticks": 145440,
            "time": 189.375,
            "velocity": 0.3937007874015748
          },
          {
            "duration": 0.125,
            "durationTicks": 96,
            "midi": 37,
            "name": "C#2",
            "ticks": 145824,
            "time": 189.875,
            "velocity": 0.3937007874015748
          },
          {
            "duration": 0.125,
            "durationTicks": 96,
            "midi": 37,
            "name": "C#2",
            "ticks": 145920,
            "time": 190,
            "velocity": 0.3937007874015748
          },
          {
            "duration": 0.125,
            "durationTicks": 96,
            "midi": 37,
            "name": "C#2",
            "ticks": 146112,
            "time": 190.25,
            "velocity": 0.3937007874015748
          },
          {
            "duration": 0.125,
            "durationTicks": 96,
            "midi": 37,
            "name": "C#2",
            "ticks": 146304,
            "time": 190.5,
            "velocity": 0.3937007874015748
          },
          {
            "duration": 0.125,
            "durationTicks": 96,
            "midi": 37,
            "name": "C#2",
            "ticks": 146496,
            "time": 190.75,
            "velocity": 0.3937007874015748
          },
          {
            "duration": 0.125,
            "durationTicks": 96,
            "midi": 37,
            "name": "C#2",
            "ticks": 146688,
            "time": 191,
            "velocity": 0.3937007874015748
          },
          {
            "duration": 0.125,
            "durationTicks": 96,
            "midi": 37,
            "name": "C#2",
            "ticks": 146976,
            "time": 191.375,
            "velocity": 0.3937007874015748
          },
          {
            "duration": 0.125,
            "durationTicks": 96,
            "midi": 37,
            "name": "C#2",
            "ticks": 147360,
            "time": 191.875,
            "velocity": 0.3937007874015748
          },
          {
            "duration": 0.125,
            "durationTicks": 96,
            "midi": 37,
            "name": "C#2",
            "ticks": 147456,
            "time": 192,
            "velocity": 0.3937007874015748
          },
          {
            "duration": 0.125,
            "durationTicks": 96,
            "midi": 37,
            "name": "C#2",
            "ticks": 147648,
            "time": 192.25,
            "velocity": 0.3937007874015748
          },
          {
            "duration": 0.125,
            "durationTicks": 96,
            "midi": 37,
            "name": "C#2",
            "ticks": 147840,
            "time": 192.5,
            "velocity": 0.3937007874015748
          },
          {
            "duration": 0.125,
            "durationTicks": 96,
            "midi": 37,
            "name": "C#2",
            "ticks": 148032,
            "time": 192.75,
            "velocity": 0.3937007874015748
          },
          {
            "duration": 0.125,
            "durationTicks": 96,
            "midi": 37,
            "name": "C#2",
            "ticks": 148224,
            "time": 193,
            "velocity": 0.3937007874015748
          },
          {
            "duration": 0.125,
            "durationTicks": 96,
            "midi": 37,
            "name": "C#2",
            "ticks": 148512,
            "time": 193.375,
            "velocity": 0.3937007874015748
          },
          {
            "duration": 0.125,
            "durationTicks": 96,
            "midi": 37,
            "name": "C#2",
            "ticks": 148896,
            "time": 193.875,
            "velocity": 0.3937007874015748
          },
          {
            "duration": 0.125,
            "durationTicks": 96,
            "midi": 37,
            "name": "C#2",
            "ticks": 148992,
            "time": 194,
            "velocity": 0.3937007874015748
          },
          {
            "duration": 0.125,
            "durationTicks": 96,
            "midi": 37,
            "name": "C#2",
            "ticks": 149184,
            "time": 194.25,
            "velocity": 0.3937007874015748
          },
          {
            "duration": 0.125,
            "durationTicks": 96,
            "midi": 37,
            "name": "C#2",
            "ticks": 149376,
            "time": 194.5,
            "velocity": 0.3937007874015748
          },
          {
            "duration": 0.125,
            "durationTicks": 96,
            "midi": 37,
            "name": "C#2",
            "ticks": 149568,
            "time": 194.75,
            "velocity": 0.3937007874015748
          },
          {
            "duration": 0.125,
            "durationTicks": 96,
            "midi": 37,
            "name": "C#2",
            "ticks": 149760,
            "time": 195,
            "velocity": 0.3937007874015748
          },
          {
            "duration": 0.125,
            "durationTicks": 96,
            "midi": 37,
            "name": "C#2",
            "ticks": 150048,
            "time": 195.375,
            "velocity": 0.3937007874015748
          },
          {
            "duration": 0.125,
            "durationTicks": 96,
            "midi": 37,
            "name": "C#2",
            "ticks": 150432,
            "time": 195.875,
            "velocity": 0.3937007874015748
          },
          {
            "duration": 0.125,
            "durationTicks": 96,
            "midi": 37,
            "name": "C#2",
            "ticks": 150528,
            "time": 196,
            "velocity": 0.3937007874015748
          },
          {
            "duration": 0.125,
            "durationTicks": 96,
            "midi": 37,
            "name": "C#2",
            "ticks": 150720,
            "time": 196.25,
            "velocity": 0.3937007874015748
          },
          {
            "duration": 0.125,
            "durationTicks": 96,
            "midi": 37,
            "name": "C#2",
            "ticks": 150912,
            "time": 196.5,
            "velocity": 0.3937007874015748
          },
          {
            "duration": 0.125,
            "durationTicks": 96,
            "midi": 37,
            "name": "C#2",
            "ticks": 151104,
            "time": 196.75,
            "velocity": 0.3937007874015748
          },
          {
            "duration": 0.125,
            "durationTicks": 96,
            "midi": 37,
            "name": "C#2",
            "ticks": 151296,
            "time": 197,
            "velocity": 0.3937007874015748
          },
          {
            "duration": 0.125,
            "durationTicks": 96,
            "midi": 37,
            "name": "C#2",
            "ticks": 151584,
            "time": 197.375,
            "velocity": 0.3937007874015748
          },
          {
            "duration": 0.125,
            "durationTicks": 96,
            "midi": 37,
            "name": "C#2",
            "ticks": 151968,
            "time": 197.875,
            "velocity": 0.3937007874015748
          },
          {
            "duration": 0.125,
            "durationTicks": 96,
            "midi": 37,
            "name": "C#2",
            "ticks": 152064,
            "time": 198,
            "velocity": 0.3937007874015748
          },
          {
            "duration": 0.125,
            "durationTicks": 96,
            "midi": 37,
            "name": "C#2",
            "ticks": 152256,
            "time": 198.25,
            "velocity": 0.3937007874015748
          },
          {
            "duration": 0.125,
            "durationTicks": 96,
            "midi": 37,
            "name": "C#2",
            "ticks": 152448,
            "time": 198.5,
            "velocity": 0.3937007874015748
          },
          {
            "duration": 0.125,
            "durationTicks": 96,
            "midi": 37,
            "name": "C#2",
            "ticks": 152640,
            "time": 198.75,
            "velocity": 0.3937007874015748
          },
          {
            "duration": 0.125,
            "durationTicks": 96,
            "midi": 37,
            "name": "C#2",
            "ticks": 152832,
            "time": 199,
            "velocity": 0.3937007874015748
          },
          {
            "duration": 0.125,
            "durationTicks": 96,
            "midi": 37,
            "name": "C#2",
            "ticks": 153120,
            "time": 199.375,
            "velocity": 0.3937007874015748
          },
          {
            "duration": 0.125,
            "durationTicks": 96,
            "midi": 37,
            "name": "C#2",
            "ticks": 153504,
            "time": 199.875,
            "velocity": 0.3937007874015748
          },
          {
            "duration": 0.125,
            "durationTicks": 96,
            "midi": 37,
            "name": "C#2",
            "ticks": 153600,
            "time": 200,
            "velocity": 0.3937007874015748
          },
          {
            "duration": 0.125,
            "durationTicks": 96,
            "midi": 37,
            "name": "C#2",
            "ticks": 153792,
            "time": 200.25,
            "velocity": 0.3937007874015748
          },
          {
            "duration": 0.125,
            "durationTicks": 96,
            "midi": 37,
            "name": "C#2",
            "ticks": 153984,
            "time": 200.5,
            "velocity": 0.3937007874015748
          },
          {
            "duration": 0.125,
            "durationTicks": 96,
            "midi": 37,
            "name": "C#2",
            "ticks": 154176,
            "time": 200.75,
            "velocity": 0.3937007874015748
          },
          {
            "duration": 0.125,
            "durationTicks": 96,
            "midi": 37,
            "name": "C#2",
            "ticks": 154368,
            "time": 201,
            "velocity": 0.3937007874015748
          },
          {
            "duration": 0.125,
            "durationTicks": 96,
            "midi": 37,
            "name": "C#2",
            "ticks": 154656,
            "time": 201.375,
            "velocity": 0.3937007874015748
          },
          {
            "duration": 0.125,
            "durationTicks": 96,
            "midi": 37,
            "name": "C#2",
            "ticks": 155040,
            "time": 201.875,
            "velocity": 0.3937007874015748
          },
          {
            "duration": 0.125,
            "durationTicks": 96,
            "midi": 37,
            "name": "C#2",
            "ticks": 155136,
            "time": 202,
            "velocity": 0.3937007874015748
          },
          {
            "duration": 0.125,
            "durationTicks": 96,
            "midi": 37,
            "name": "C#2",
            "ticks": 155328,
            "time": 202.25,
            "velocity": 0.3937007874015748
          },
          {
            "duration": 0.125,
            "durationTicks": 96,
            "midi": 37,
            "name": "C#2",
            "ticks": 155520,
            "time": 202.5,
            "velocity": 0.3937007874015748
          },
          {
            "duration": 0.125,
            "durationTicks": 96,
            "midi": 37,
            "name": "C#2",
            "ticks": 155712,
            "time": 202.75,
            "velocity": 0.3937007874015748
          },
          {
            "duration": 0.125,
            "durationTicks": 96,
            "midi": 37,
            "name": "C#2",
            "ticks": 155904,
            "time": 203,
            "velocity": 0.3937007874015748
          },
          {
            "duration": 0.125,
            "durationTicks": 96,
            "midi": 37,
            "name": "C#2",
            "ticks": 156192,
            "time": 203.375,
            "velocity": 0.3937007874015748
          },
          {
            "duration": 0.125,
            "durationTicks": 96,
            "midi": 37,
            "name": "C#2",
            "ticks": 156576,
            "time": 203.875,
            "velocity": 0.3937007874015748
          },
          {
            "duration": 0.125,
            "durationTicks": 96,
            "midi": 37,
            "name": "C#2",
            "ticks": 156672,
            "time": 204,
            "velocity": 0.3937007874015748
          },
          {
            "duration": 0.125,
            "durationTicks": 96,
            "midi": 37,
            "name": "C#2",
            "ticks": 156864,
            "time": 204.25,
            "velocity": 0.3937007874015748
          },
          {
            "duration": 0.125,
            "durationTicks": 96,
            "midi": 37,
            "name": "C#2",
            "ticks": 157056,
            "time": 204.5,
            "velocity": 0.3937007874015748
          },
          {
            "duration": 0.125,
            "durationTicks": 96,
            "midi": 37,
            "name": "C#2",
            "ticks": 157248,
            "time": 204.75,
            "velocity": 0.3937007874015748
          },
          {
            "duration": 0.125,
            "durationTicks": 96,
            "midi": 37,
            "name": "C#2",
            "ticks": 157440,
            "time": 205,
            "velocity": 0.3937007874015748
          },
          {
            "duration": 0.125,
            "durationTicks": 96,
            "midi": 37,
            "name": "C#2",
            "ticks": 157728,
            "time": 205.375,
            "velocity": 0.3937007874015748
          },
          {
            "duration": 0.125,
            "durationTicks": 96,
            "midi": 37,
            "name": "C#2",
            "ticks": 158112,
            "time": 205.875,
            "velocity": 0.3937007874015748
          },
          {
            "duration": 0.125,
            "durationTicks": 96,
            "midi": 37,
            "name": "C#2",
            "ticks": 158208,
            "time": 206,
            "velocity": 0.3937007874015748
          },
          {
            "duration": 0.125,
            "durationTicks": 96,
            "midi": 37,
            "name": "C#2",
            "ticks": 158400,
            "time": 206.25,
            "velocity": 0.3937007874015748
          },
          {
            "duration": 0.125,
            "durationTicks": 96,
            "midi": 37,
            "name": "C#2",
            "ticks": 158592,
            "time": 206.5,
            "velocity": 0.3937007874015748
          },
          {
            "duration": 0.125,
            "durationTicks": 96,
            "midi": 37,
            "name": "C#2",
            "ticks": 158784,
            "time": 206.75,
            "velocity": 0.3937007874015748
          },
          {
            "duration": 0.125,
            "durationTicks": 96,
            "midi": 37,
            "name": "C#2",
            "ticks": 158976,
            "time": 207,
            "velocity": 0.3937007874015748
          },
          {
            "duration": 0.125,
            "durationTicks": 96,
            "midi": 37,
            "name": "C#2",
            "ticks": 159264,
            "time": 207.375,
            "velocity": 0.3937007874015748
          },
          {
            "duration": 0.125,
            "durationTicks": 96,
            "midi": 37,
            "name": "C#2",
            "ticks": 159648,
            "time": 207.875,
            "velocity": 0.3937007874015748
          },
          {
            "duration": 0.125,
            "durationTicks": 96,
            "midi": 37,
            "name": "C#2",
            "ticks": 159744,
            "time": 208,
            "velocity": 0.3937007874015748
          },
          {
            "duration": 0.125,
            "durationTicks": 96,
            "midi": 37,
            "name": "C#2",
            "ticks": 159936,
            "time": 208.25,
            "velocity": 0.3937007874015748
          },
          {
            "duration": 0.125,
            "durationTicks": 96,
            "midi": 37,
            "name": "C#2",
            "ticks": 160128,
            "time": 208.5,
            "velocity": 0.3937007874015748
          },
          {
            "duration": 0.125,
            "durationTicks": 96,
            "midi": 37,
            "name": "C#2",
            "ticks": 160320,
            "time": 208.75,
            "velocity": 0.3937007874015748
          },
          {
            "duration": 0.125,
            "durationTicks": 96,
            "midi": 37,
            "name": "C#2",
            "ticks": 160512,
            "time": 209,
            "velocity": 0.3937007874015748
          },
          {
            "duration": 0.125,
            "durationTicks": 96,
            "midi": 37,
            "name": "C#2",
            "ticks": 160800,
            "time": 209.375,
            "velocity": 0.3937007874015748
          },
          {
            "duration": 0.125,
            "durationTicks": 96,
            "midi": 37,
            "name": "C#2",
            "ticks": 161184,
            "time": 209.875,
            "velocity": 0.3937007874015748
          },
          {
            "duration": 0.125,
            "durationTicks": 96,
            "midi": 37,
            "name": "C#2",
            "ticks": 161280,
            "time": 210,
            "velocity": 0.3937007874015748
          },
          {
            "duration": 0.125,
            "durationTicks": 96,
            "midi": 37,
            "name": "C#2",
            "ticks": 161472,
            "time": 210.25,
            "velocity": 0.3937007874015748
          },
          {
            "duration": 0.125,
            "durationTicks": 96,
            "midi": 37,
            "name": "C#2",
            "ticks": 161664,
            "time": 210.5,
            "velocity": 0.3937007874015748
          },
          {
            "duration": 0.125,
            "durationTicks": 96,
            "midi": 37,
            "name": "C#2",
            "ticks": 161856,
            "time": 210.75,
            "velocity": 0.3937007874015748
          },
          {
            "duration": 0.125,
            "durationTicks": 96,
            "midi": 37,
            "name": "C#2",
            "ticks": 162048,
            "time": 211,
            "velocity": 0.3937007874015748
          },
          {
            "duration": 0.125,
            "durationTicks": 96,
            "midi": 37,
            "name": "C#2",
            "ticks": 162336,
            "time": 211.375,
            "velocity": 0.3937007874015748
          },
          {
            "duration": 0.125,
            "durationTicks": 96,
            "midi": 37,
            "name": "C#2",
            "ticks": 162432,
            "time": 211.5,
            "velocity": 0.3937007874015748
          },
          {
            "duration": 0.125,
            "durationTicks": 96,
            "midi": 37,
            "name": "C#2",
            "ticks": 162528,
            "time": 211.625,
            "velocity": 0.3937007874015748
          },
          {
            "duration": 0.125,
            "durationTicks": 96,
            "midi": 37,
            "name": "C#2",
            "ticks": 162624,
            "time": 211.75,
            "velocity": 0.3937007874015748
          },
          {
            "duration": 0.125,
            "durationTicks": 96,
            "midi": 37,
            "name": "C#2",
            "ticks": 162720,
            "time": 211.875,
            "velocity": 0.3937007874015748
          },
          {
            "duration": 0.125,
            "durationTicks": 96,
            "midi": 37,
            "name": "C#2",
            "ticks": 162816,
            "time": 212,
            "velocity": 0.3937007874015748
          },
          {
            "duration": 0.125,
            "durationTicks": 96,
            "midi": 37,
            "name": "C#2",
            "ticks": 163392,
            "time": 212.75,
            "velocity": 0.3937007874015748
          },
          {
            "duration": 0.125,
            "durationTicks": 96,
            "midi": 37,
            "name": "C#2",
            "ticks": 163968,
            "time": 213.5,
            "velocity": 0.3937007874015748
          },
          {
            "duration": 0.125,
            "durationTicks": 96,
            "midi": 37,
            "name": "C#2",
            "ticks": 164544,
            "time": 214.25,
            "velocity": 0.3937007874015748
          },
          {
            "duration": 0.125,
            "durationTicks": 96,
            "midi": 37,
            "name": "C#2",
            "ticks": 165120,
            "time": 215,
            "velocity": 0.3937007874015748
          },
          {
            "duration": 0.125,
            "durationTicks": 96,
            "midi": 37,
            "name": "C#2",
            "ticks": 165696,
            "time": 215.75,
            "velocity": 0.3937007874015748
          },
          {
            "duration": 0.125,
            "durationTicks": 96,
            "midi": 37,
            "name": "C#2",
            "ticks": 166272,
            "time": 216.5,
            "velocity": 0.3937007874015748
          },
          {
            "duration": 0.125,
            "durationTicks": 96,
            "midi": 37,
            "name": "C#2",
            "ticks": 166560,
            "time": 216.875,
            "velocity": 0.3937007874015748
          },
          {
            "duration": 0.125,
            "durationTicks": 96,
            "midi": 37,
            "name": "C#2",
            "ticks": 166656,
            "time": 217,
            "velocity": 0.3937007874015748
          },
          {
            "duration": 0.125,
            "durationTicks": 96,
            "midi": 37,
            "name": "C#2",
            "ticks": 166944,
            "time": 217.375,
            "velocity": 0.3937007874015748
          },
          {
            "duration": 0.125,
            "durationTicks": 96,
            "midi": 37,
            "name": "C#2",
            "ticks": 167040,
            "time": 217.5,
            "velocity": 0.3937007874015748
          },
          {
            "duration": 0.125,
            "durationTicks": 96,
            "midi": 37,
            "name": "C#2",
            "ticks": 167136,
            "time": 217.625,
            "velocity": 0.3937007874015748
          },
          {
            "duration": 0.125,
            "durationTicks": 96,
            "midi": 37,
            "name": "C#2",
            "ticks": 167232,
            "time": 217.75,
            "velocity": 0.3937007874015748
          },
          {
            "duration": 0.125,
            "durationTicks": 96,
            "midi": 37,
            "name": "C#2",
            "ticks": 167328,
            "time": 217.875,
            "velocity": 0.3937007874015748
          },
          {
            "duration": 0.125,
            "durationTicks": 96,
            "midi": 37,
            "name": "C#2",
            "ticks": 167424,
            "time": 218,
            "velocity": 0.3937007874015748
          },
          {
            "duration": 0.125,
            "durationTicks": 96,
            "midi": 37,
            "name": "C#2",
            "ticks": 167616,
            "time": 218.25,
            "velocity": 0.3937007874015748
          },
          {
            "duration": 0.125,
            "durationTicks": 96,
            "midi": 37,
            "name": "C#2",
            "ticks": 167808,
            "time": 218.5,
            "velocity": 0.3937007874015748
          },
          {
            "duration": 0.125,
            "durationTicks": 96,
            "midi": 37,
            "name": "C#2",
            "ticks": 168000,
            "time": 218.75,
            "velocity": 0.3937007874015748
          },
          {
            "duration": 0.125,
            "durationTicks": 96,
            "midi": 37,
            "name": "C#2",
            "ticks": 168192,
            "time": 219,
            "velocity": 0.3937007874015748
          },
          {
            "duration": 0.125,
            "durationTicks": 96,
            "midi": 37,
            "name": "C#2",
            "ticks": 168480,
            "time": 219.375,
            "velocity": 0.3937007874015748
          },
          {
            "duration": 0.125,
            "durationTicks": 96,
            "midi": 37,
            "name": "C#2",
            "ticks": 168864,
            "time": 219.875,
            "velocity": 0.3937007874015748
          },
          {
            "duration": 0.125,
            "durationTicks": 96,
            "midi": 37,
            "name": "C#2",
            "ticks": 168960,
            "time": 220,
            "velocity": 0.3937007874015748
          },
          {
            "duration": 0.125,
            "durationTicks": 96,
            "midi": 37,
            "name": "C#2",
            "ticks": 169152,
            "time": 220.25,
            "velocity": 0.3937007874015748
          },
          {
            "duration": 0.125,
            "durationTicks": 96,
            "midi": 37,
            "name": "C#2",
            "ticks": 169344,
            "time": 220.5,
            "velocity": 0.3937007874015748
          },
          {
            "duration": 0.125,
            "durationTicks": 96,
            "midi": 37,
            "name": "C#2",
            "ticks": 169536,
            "time": 220.75,
            "velocity": 0.3937007874015748
          },
          {
            "duration": 0.125,
            "durationTicks": 96,
            "midi": 37,
            "name": "C#2",
            "ticks": 169728,
            "time": 221,
            "velocity": 0.3937007874015748
          },
          {
            "duration": 0.125,
            "durationTicks": 96,
            "midi": 37,
            "name": "C#2",
            "ticks": 170016,
            "time": 221.375,
            "velocity": 0.3937007874015748
          },
          {
            "duration": 0.125,
            "durationTicks": 96,
            "midi": 37,
            "name": "C#2",
            "ticks": 170400,
            "time": 221.875,
            "velocity": 0.3937007874015748
          },
          {
            "duration": 0.125,
            "durationTicks": 96,
            "midi": 37,
            "name": "C#2",
            "ticks": 170496,
            "time": 222,
            "velocity": 0.3937007874015748
          },
          {
            "duration": 0.125,
            "durationTicks": 96,
            "midi": 37,
            "name": "C#2",
            "ticks": 170688,
            "time": 222.25,
            "velocity": 0.3937007874015748
          },
          {
            "duration": 0.125,
            "durationTicks": 96,
            "midi": 37,
            "name": "C#2",
            "ticks": 170880,
            "time": 222.5,
            "velocity": 0.3937007874015748
          },
          {
            "duration": 0.125,
            "durationTicks": 96,
            "midi": 37,
            "name": "C#2",
            "ticks": 171072,
            "time": 222.75,
            "velocity": 0.3937007874015748
          },
          {
            "duration": 0.125,
            "durationTicks": 96,
            "midi": 37,
            "name": "C#2",
            "ticks": 171264,
            "time": 223,
            "velocity": 0.3937007874015748
          },
          {
            "duration": 0.125,
            "durationTicks": 96,
            "midi": 37,
            "name": "C#2",
            "ticks": 171552,
            "time": 223.375,
            "velocity": 0.3937007874015748
          },
          {
            "duration": 0.125,
            "durationTicks": 96,
            "midi": 37,
            "name": "C#2",
            "ticks": 171936,
            "time": 223.875,
            "velocity": 0.3937007874015748
          },
          {
            "duration": 0.125,
            "durationTicks": 96,
            "midi": 37,
            "name": "C#2",
            "ticks": 172032,
            "time": 224,
            "velocity": 0.3937007874015748
          },
          {
            "duration": 0.125,
            "durationTicks": 96,
            "midi": 37,
            "name": "C#2",
            "ticks": 172224,
            "time": 224.25,
            "velocity": 0.3937007874015748
          },
          {
            "duration": 0.125,
            "durationTicks": 96,
            "midi": 37,
            "name": "C#2",
            "ticks": 172416,
            "time": 224.5,
            "velocity": 0.3937007874015748
          },
          {
            "duration": 0.125,
            "durationTicks": 96,
            "midi": 37,
            "name": "C#2",
            "ticks": 172608,
            "time": 224.75,
            "velocity": 0.3937007874015748
          },
          {
            "duration": 0.125,
            "durationTicks": 96,
            "midi": 37,
            "name": "C#2",
            "ticks": 172800,
            "time": 225,
            "velocity": 0.3937007874015748
          },
          {
            "duration": 0.125,
            "durationTicks": 96,
            "midi": 37,
            "name": "C#2",
            "ticks": 173088,
            "time": 225.375,
            "velocity": 0.3937007874015748
          },
          {
            "duration": 0.125,
            "durationTicks": 96,
            "midi": 37,
            "name": "C#2",
            "ticks": 173472,
            "time": 225.875,
            "velocity": 0.3937007874015748
          },
          {
            "duration": 0.125,
            "durationTicks": 96,
            "midi": 37,
            "name": "C#2",
            "ticks": 173568,
            "time": 226,
            "velocity": 0.3937007874015748
          },
          {
            "duration": 0.125,
            "durationTicks": 96,
            "midi": 37,
            "name": "C#2",
            "ticks": 173760,
            "time": 226.25,
            "velocity": 0.3937007874015748
          },
          {
            "duration": 0.125,
            "durationTicks": 96,
            "midi": 37,
            "name": "C#2",
            "ticks": 173952,
            "time": 226.5,
            "velocity": 0.3937007874015748
          },
          {
            "duration": 0.125,
            "durationTicks": 96,
            "midi": 37,
            "name": "C#2",
            "ticks": 174144,
            "time": 226.75,
            "velocity": 0.3937007874015748
          },
          {
            "duration": 0.125,
            "durationTicks": 96,
            "midi": 37,
            "name": "C#2",
            "ticks": 174336,
            "time": 227,
            "velocity": 0.3937007874015748
          },
          {
            "duration": 0.125,
            "durationTicks": 96,
            "midi": 37,
            "name": "C#2",
            "ticks": 174624,
            "time": 227.375,
            "velocity": 0.3937007874015748
          },
          {
            "duration": 0.125,
            "durationTicks": 96,
            "midi": 37,
            "name": "C#2",
            "ticks": 175008,
            "time": 227.875,
            "velocity": 0.3937007874015748
          },
          {
            "duration": 0.125,
            "durationTicks": 96,
            "midi": 37,
            "name": "C#2",
            "ticks": 175104,
            "time": 228,
            "velocity": 0.3937007874015748
          },
          {
            "duration": 0.125,
            "durationTicks": 96,
            "midi": 37,
            "name": "C#2",
            "ticks": 175296,
            "time": 228.25,
            "velocity": 0.3937007874015748
          },
          {
            "duration": 0.125,
            "durationTicks": 96,
            "midi": 37,
            "name": "C#2",
            "ticks": 175488,
            "time": 228.5,
            "velocity": 0.3937007874015748
          },
          {
            "duration": 0.125,
            "durationTicks": 96,
            "midi": 37,
            "name": "C#2",
            "ticks": 175680,
            "time": 228.75,
            "velocity": 0.3937007874015748
          },
          {
            "duration": 0.125,
            "durationTicks": 96,
            "midi": 37,
            "name": "C#2",
            "ticks": 175872,
            "time": 229,
            "velocity": 0.3937007874015748
          },
          {
            "duration": 0.125,
            "durationTicks": 96,
            "midi": 37,
            "name": "C#2",
            "ticks": 176160,
            "time": 229.375,
            "velocity": 0.3937007874015748
          },
          {
            "duration": 0.125,
            "durationTicks": 96,
            "midi": 37,
            "name": "C#2",
            "ticks": 176544,
            "time": 229.875,
            "velocity": 0.3937007874015748
          },
          {
            "duration": 0.125,
            "durationTicks": 96,
            "midi": 37,
            "name": "C#2",
            "ticks": 176640,
            "time": 230,
            "velocity": 0.3937007874015748
          },
          {
            "duration": 0.125,
            "durationTicks": 96,
            "midi": 37,
            "name": "C#2",
            "ticks": 176832,
            "time": 230.25,
            "velocity": 0.3937007874015748
          },
          {
            "duration": 0.125,
            "durationTicks": 96,
            "midi": 37,
            "name": "C#2",
            "ticks": 177024,
            "time": 230.5,
            "velocity": 0.3937007874015748
          },
          {
            "duration": 0.125,
            "durationTicks": 96,
            "midi": 37,
            "name": "C#2",
            "ticks": 177216,
            "time": 230.75,
            "velocity": 0.3937007874015748
          },
          {
            "duration": 0.125,
            "durationTicks": 96,
            "midi": 37,
            "name": "C#2",
            "ticks": 177408,
            "time": 231,
            "velocity": 0.3937007874015748
          },
          {
            "duration": 0.125,
            "durationTicks": 96,
            "midi": 37,
            "name": "C#2",
            "ticks": 177696,
            "time": 231.375,
            "velocity": 0.3937007874015748
          },
          {
            "duration": 0.125,
            "durationTicks": 96,
            "midi": 37,
            "name": "C#2",
            "ticks": 177792,
            "time": 231.5,
            "velocity": 0.3937007874015748
          },
          {
            "duration": 0.125,
            "durationTicks": 96,
            "midi": 37,
            "name": "C#2",
            "ticks": 177888,
            "time": 231.625,
            "velocity": 0.3937007874015748
          },
          {
            "duration": 0.125,
            "durationTicks": 96,
            "midi": 37,
            "name": "C#2",
            "ticks": 177984,
            "time": 231.75,
            "velocity": 0.3937007874015748
          },
          {
            "duration": 0.125,
            "durationTicks": 96,
            "midi": 37,
            "name": "C#2",
            "ticks": 178080,
            "time": 231.875,
            "velocity": 0.3937007874015748
          },
          {
            "duration": 0.125,
            "durationTicks": 96,
            "midi": 37,
            "name": "C#2",
            "ticks": 178176,
            "time": 232,
            "velocity": 0.3937007874015748
          },
          {
            "duration": 0.125,
            "durationTicks": 96,
            "midi": 37,
            "name": "C#2",
            "ticks": 178752,
            "time": 232.75,
            "velocity": 0.3937007874015748
          },
          {
            "duration": 0.125,
            "durationTicks": 96,
            "midi": 37,
            "name": "C#2",
            "ticks": 179328,
            "time": 233.5,
            "velocity": 0.3937007874015748
          },
          {
            "duration": 0.125,
            "durationTicks": 96,
            "midi": 37,
            "name": "C#2",
            "ticks": 179616,
            "time": 233.875,
            "velocity": 0.3937007874015748
          },
          {
            "duration": 0.125,
            "durationTicks": 96,
            "midi": 37,
            "name": "C#2",
            "ticks": 179808,
            "time": 234.125,
            "velocity": 0.3937007874015748
          },
          {
            "duration": 0.125,
            "durationTicks": 96,
            "midi": 37,
            "name": "C#2",
            "ticks": 181152,
            "time": 235.875,
            "velocity": 0.3937007874015748
          },
          {
            "duration": 0.125,
            "durationTicks": 96,
            "midi": 37,
            "name": "C#2",
            "ticks": 181344,
            "time": 236.125,
            "velocity": 0.3937007874015748
          },
          {
            "duration": 0.125,
            "durationTicks": 96,
            "midi": 37,
            "name": "C#2",
            "ticks": 182688,
            "time": 237.875,
            "velocity": 0.3937007874015748
          },
          {
            "duration": 0.125,
            "durationTicks": 96,
            "midi": 37,
            "name": "C#2",
            "ticks": 182880,
            "time": 238.125,
            "velocity": 0.3937007874015748
          },
          {
            "duration": 0.125,
            "durationTicks": 96,
            "midi": 37,
            "name": "C#2",
            "ticks": 184224,
            "time": 239.875,
            "velocity": 0.3937007874015748
          },
          {
            "duration": 0.125,
            "durationTicks": 96,
            "midi": 37,
            "name": "C#2",
            "ticks": 184416,
            "time": 240.125,
            "velocity": 0.3937007874015748
          },
          {
            "duration": 0.125,
            "durationTicks": 96,
            "midi": 37,
            "name": "C#2",
            "ticks": 185760,
            "time": 241.875,
            "velocity": 0.3937007874015748
          },
          {
            "duration": 0.125,
            "durationTicks": 96,
            "midi": 37,
            "name": "C#2",
            "ticks": 185952,
            "time": 242.125,
            "velocity": 0.3937007874015748
          },
          {
            "duration": 0.125,
            "durationTicks": 96,
            "midi": 37,
            "name": "C#2",
            "ticks": 187296,
            "time": 243.875,
            "velocity": 0.3937007874015748
          },
          {
            "duration": 0.125,
            "durationTicks": 96,
            "midi": 37,
            "name": "C#2",
            "ticks": 187488,
            "time": 244.125,
            "velocity": 0.3937007874015748
          },
          {
            "duration": 0.125,
            "durationTicks": 96,
            "midi": 37,
            "name": "C#2",
            "ticks": 188832,
            "time": 245.875,
            "velocity": 0.3937007874015748
          },
          {
            "duration": 0.125,
            "durationTicks": 96,
            "midi": 37,
            "name": "C#2",
            "ticks": 189024,
            "time": 246.125,
            "velocity": 0.3937007874015748
          },
          {
            "duration": 0.125,
            "durationTicks": 96,
            "midi": 37,
            "name": "C#2",
            "ticks": 190368,
            "time": 247.875,
            "velocity": 0.3937007874015748
          },
          {
            "duration": 0.125,
            "durationTicks": 96,
            "midi": 37,
            "name": "C#2",
            "ticks": 190560,
            "time": 248.125,
            "velocity": 0.3937007874015748
          },
          {
            "duration": 0.125,
            "durationTicks": 96,
            "midi": 37,
            "name": "C#2",
            "ticks": 191904,
            "time": 249.875,
            "velocity": 0.3937007874015748
          },
          {
            "duration": 0.125,
            "durationTicks": 96,
            "midi": 37,
            "name": "C#2",
            "ticks": 192096,
            "time": 250.125,
            "velocity": 0.3937007874015748
          },
          {
            "duration": 0.125,
            "durationTicks": 96,
            "midi": 37,
            "name": "C#2",
            "ticks": 193440,
            "time": 251.875,
            "velocity": 0.3937007874015748
          },
          {
            "duration": 0.125,
            "durationTicks": 96,
            "midi": 37,
            "name": "C#2",
            "ticks": 193632,
            "time": 252.125,
            "velocity": 0.3937007874015748
          },
          {
            "duration": 0.125,
            "durationTicks": 96,
            "midi": 37,
            "name": "C#2",
            "ticks": 194976,
            "time": 253.875,
            "velocity": 0.3937007874015748
          },
          {
            "duration": 0.125,
            "durationTicks": 96,
            "midi": 37,
            "name": "C#2",
            "ticks": 195168,
            "time": 254.125,
            "velocity": 0.3937007874015748
          },
          {
            "duration": 0.125,
            "durationTicks": 96,
            "midi": 37,
            "name": "C#2",
            "ticks": 196512,
            "time": 255.875,
            "velocity": 0.3937007874015748
          },
          {
            "duration": 0.125,
            "durationTicks": 96,
            "midi": 37,
            "name": "C#2",
            "ticks": 196704,
            "time": 256.125,
            "velocity": 0.3937007874015748
          },
          {
            "duration": 0.125,
            "durationTicks": 96,
            "midi": 37,
            "name": "C#2",
            "ticks": 198048,
            "time": 257.875,
            "velocity": 0.3937007874015748
          },
          {
            "duration": 0.125,
            "durationTicks": 96,
            "midi": 37,
            "name": "C#2",
            "ticks": 198240,
            "time": 258.125,
            "velocity": 0.3937007874015748
          },
          {
            "duration": 0.125,
            "durationTicks": 96,
            "midi": 37,
            "name": "C#2",
            "ticks": 199584,
            "time": 259.875,
            "velocity": 0.3937007874015748
          },
          {
            "duration": 0.125,
            "durationTicks": 96,
            "midi": 37,
            "name": "C#2",
            "ticks": 199776,
            "time": 260.125,
            "velocity": 0.3937007874015748
          },
          {
            "duration": 0.125,
            "durationTicks": 96,
            "midi": 37,
            "name": "C#2",
            "ticks": 201120,
            "time": 261.875,
            "velocity": 0.3937007874015748
          },
          {
            "duration": 0.125,
            "durationTicks": 96,
            "midi": 37,
            "name": "C#2",
            "ticks": 201312,
            "time": 262.125,
            "velocity": 0.3937007874015748
          },
          {
            "duration": 0.125,
            "durationTicks": 96,
            "midi": 37,
            "name": "C#2",
            "ticks": 202656,
            "time": 263.875,
            "velocity": 0.3937007874015748
          },
          {
            "duration": 0.125,
            "durationTicks": 96,
            "midi": 37,
            "name": "C#2",
            "ticks": 202848,
            "time": 264.125,
            "velocity": 0.3937007874015748
          },
          {
            "duration": 0.125,
            "durationTicks": 96,
            "midi": 37,
            "name": "C#2",
            "ticks": 204192,
            "time": 265.875,
            "velocity": 0.3937007874015748
          },
          {
            "duration": 0.125,
            "durationTicks": 96,
            "midi": 37,
            "name": "C#2",
            "ticks": 204384,
            "time": 266.125,
            "velocity": 0.3937007874015748
          },
          {
            "duration": 0.125,
            "durationTicks": 96,
            "midi": 37,
            "name": "C#2",
            "ticks": 205728,
            "time": 267.875,
            "velocity": 0.3937007874015748
          },
          {
            "duration": 0.125,
            "durationTicks": 96,
            "midi": 37,
            "name": "C#2",
            "ticks": 205920,
            "time": 268.125,
            "velocity": 0.3937007874015748
          },
          {
            "duration": 0.125,
            "durationTicks": 96,
            "midi": 37,
            "name": "C#2",
            "ticks": 207264,
            "time": 269.875,
            "velocity": 0.3937007874015748
          },
          {
            "duration": 0.125,
            "durationTicks": 96,
            "midi": 37,
            "name": "C#2",
            "ticks": 207456,
            "time": 270.125,
            "velocity": 0.3937007874015748
          },
          {
            "duration": 0.125,
            "durationTicks": 96,
            "midi": 37,
            "name": "C#2",
            "ticks": 208800,
            "time": 271.875,
            "velocity": 0.3937007874015748
          },
          {
            "duration": 0.125,
            "durationTicks": 96,
            "midi": 37,
            "name": "C#2",
            "ticks": 208992,
            "time": 272.125,
            "velocity": 0.3937007874015748
          },
          {
            "duration": 0.125,
            "durationTicks": 96,
            "midi": 37,
            "name": "C#2",
            "ticks": 210336,
            "time": 273.875,
            "velocity": 0.3937007874015748
          },
          {
            "duration": 0.125,
            "durationTicks": 96,
            "midi": 37,
            "name": "C#2",
            "ticks": 210528,
            "time": 274.125,
            "velocity": 0.3937007874015748
          },
          {
            "duration": 0.125,
            "durationTicks": 96,
            "midi": 37,
            "name": "C#2",
            "ticks": 211872,
            "time": 275.875,
            "velocity": 0.3937007874015748
          },
          {
            "duration": 0.125,
            "durationTicks": 96,
            "midi": 37,
            "name": "C#2",
            "ticks": 212064,
            "time": 276.125,
            "velocity": 0.3937007874015748
          },
          {
            "duration": 0.125,
            "durationTicks": 96,
            "midi": 37,
            "name": "C#2",
            "ticks": 213408,
            "time": 277.875,
            "velocity": 0.3937007874015748
          },
          {
            "duration": 0.125,
            "durationTicks": 96,
            "midi": 37,
            "name": "C#2",
            "ticks": 213600,
            "time": 278.125,
            "velocity": 0.3937007874015748
          },
          {
            "duration": 0.125,
            "durationTicks": 96,
            "midi": 37,
            "name": "C#2",
            "ticks": 214944,
            "time": 279.875,
            "velocity": 0.3937007874015748
          },
          {
            "duration": 0.125,
            "durationTicks": 96,
            "midi": 37,
            "name": "C#2",
            "ticks": 215136,
            "time": 280.125,
            "velocity": 0.3937007874015748
          },
          {
            "duration": 0.125,
            "durationTicks": 96,
            "midi": 37,
            "name": "C#2",
            "ticks": 216480,
            "time": 281.875,
            "velocity": 0.3937007874015748
          },
          {
            "duration": 0.125,
            "durationTicks": 96,
            "midi": 37,
            "name": "C#2",
            "ticks": 216672,
            "time": 282.125,
            "velocity": 0.3937007874015748
          },
          {
            "duration": 0.125,
            "durationTicks": 96,
            "midi": 37,
            "name": "C#2",
            "ticks": 218016,
            "time": 283.875,
            "velocity": 0.3937007874015748
          },
          {
            "duration": 0.125,
            "durationTicks": 96,
            "midi": 37,
            "name": "C#2",
            "ticks": 218208,
            "time": 284.125,
            "velocity": 0.3937007874015748
          },
          {
            "duration": 0.125,
            "durationTicks": 96,
            "midi": 37,
            "name": "C#2",
            "ticks": 219552,
            "time": 285.875,
            "velocity": 0.3937007874015748
          },
          {
            "duration": 0.125,
            "durationTicks": 96,
            "midi": 37,
            "name": "C#2",
            "ticks": 219744,
            "time": 286.125,
            "velocity": 0.3937007874015748
          },
          {
            "duration": 0.125,
            "durationTicks": 96,
            "midi": 37,
            "name": "C#2",
            "ticks": 221088,
            "time": 287.875,
            "velocity": 0.3937007874015748
          },
          {
            "duration": 0.125,
            "durationTicks": 96,
            "midi": 37,
            "name": "C#2",
            "ticks": 221280,
            "time": 288.125,
            "velocity": 0.3937007874015748
          },
          {
            "duration": 0.125,
            "durationTicks": 96,
            "midi": 37,
            "name": "C#2",
            "ticks": 222624,
            "time": 289.875,
            "velocity": 0.3937007874015748
          },
          {
            "duration": 0.125,
            "durationTicks": 96,
            "midi": 37,
            "name": "C#2",
            "ticks": 222816,
            "time": 290.125,
            "velocity": 0.3937007874015748
          },
          {
            "duration": 0.125,
            "durationTicks": 96,
            "midi": 37,
            "name": "C#2",
            "ticks": 224160,
            "time": 291.875,
            "velocity": 0.3937007874015748
          },
          {
            "duration": 0.125,
            "durationTicks": 96,
            "midi": 37,
            "name": "C#2",
            "ticks": 224352,
            "time": 292.125,
            "velocity": 0.3937007874015748
          },
          {
            "duration": 0.125,
            "durationTicks": 96,
            "midi": 37,
            "name": "C#2",
            "ticks": 225696,
            "time": 293.875,
            "velocity": 0.3937007874015748
          },
          {
            "duration": 0.125,
            "durationTicks": 96,
            "midi": 37,
            "name": "C#2",
            "ticks": 225888,
            "time": 294.125,
            "velocity": 0.3937007874015748
          },
          {
            "duration": 0.125,
            "durationTicks": 96,
            "midi": 37,
            "name": "C#2",
            "ticks": 227232,
            "time": 295.875,
            "velocity": 0.3937007874015748
          },
          {
            "duration": 0.125,
            "durationTicks": 96,
            "midi": 37,
            "name": "C#2",
            "ticks": 227424,
            "time": 296.125,
            "velocity": 0.3937007874015748
          },
          {
            "duration": 0.125,
            "durationTicks": 96,
            "midi": 37,
            "name": "C#2",
            "ticks": 228768,
            "time": 297.875,
            "velocity": 0.3937007874015748
          },
          {
            "duration": 0.125,
            "durationTicks": 96,
            "midi": 37,
            "name": "C#2",
            "ticks": 228960,
            "time": 298.125,
            "velocity": 0.3937007874015748
          },
          {
            "duration": 0.125,
            "durationTicks": 96,
            "midi": 37,
            "name": "C#2",
            "ticks": 230304,
            "time": 299.875,
            "velocity": 0.3937007874015748
          },
          {
            "duration": 0.125,
            "durationTicks": 96,
            "midi": 37,
            "name": "C#2",
            "ticks": 230496,
            "time": 300.125,
            "velocity": 0.3937007874015748
          },
          {
            "duration": 0.125,
            "durationTicks": 96,
            "midi": 37,
            "name": "C#2",
            "ticks": 231840,
            "time": 301.875,
            "velocity": 0.3937007874015748
          },
          {
            "duration": 0.125,
            "durationTicks": 96,
            "midi": 37,
            "name": "C#2",
            "ticks": 232032,
            "time": 302.125,
            "velocity": 0.3937007874015748
          },
          {
            "duration": 0.125,
            "durationTicks": 96,
            "midi": 37,
            "name": "C#2",
            "ticks": 233376,
            "time": 303.875,
            "velocity": 0.3937007874015748
          },
          {
            "duration": 0.125,
            "durationTicks": 96,
            "midi": 37,
            "name": "C#2",
            "ticks": 233568,
            "time": 304.125,
            "velocity": 0.3937007874015748
          },
          {
            "duration": 0.125,
            "durationTicks": 96,
            "midi": 37,
            "name": "C#2",
            "ticks": 234912,
            "time": 305.875,
            "velocity": 0.3937007874015748
          },
          {
            "duration": 0.125,
            "durationTicks": 96,
            "midi": 37,
            "name": "C#2",
            "ticks": 235104,
            "time": 306.125,
            "velocity": 0.3937007874015748
          },
          {
            "duration": 0.125,
            "durationTicks": 96,
            "midi": 37,
            "name": "C#2",
            "ticks": 236448,
            "time": 307.875,
            "velocity": 0.3937007874015748
          },
          {
            "duration": 0.125,
            "durationTicks": 96,
            "midi": 37,
            "name": "C#2",
            "ticks": 236640,
            "time": 308.125,
            "velocity": 0.3937007874015748
          },
          {
            "duration": 0.125,
            "durationTicks": 96,
            "midi": 37,
            "name": "C#2",
            "ticks": 237984,
            "time": 309.875,
            "velocity": 0.3937007874015748
          },
          {
            "duration": 0.125,
            "durationTicks": 96,
            "midi": 37,
            "name": "C#2",
            "ticks": 238176,
            "time": 310.125,
            "velocity": 0.3937007874015748
          },
          {
            "duration": 0.125,
            "durationTicks": 96,
            "midi": 37,
            "name": "C#2",
            "ticks": 239520,
            "time": 311.875,
            "velocity": 0.3937007874015748
          },
          {
            "duration": 0.125,
            "durationTicks": 96,
            "midi": 37,
            "name": "C#2",
            "ticks": 239712,
            "time": 312.125,
            "velocity": 0.3937007874015748
          },
          {
            "duration": 0.125,
            "durationTicks": 96,
            "midi": 37,
            "name": "C#2",
            "ticks": 241056,
            "time": 313.875,
            "velocity": 0.3937007874015748
          },
          {
            "duration": 0.125,
            "durationTicks": 96,
            "midi": 37,
            "name": "C#2",
            "ticks": 241248,
            "time": 314.125,
            "velocity": 0.3937007874015748
          },
          {
            "duration": 0.125,
            "durationTicks": 96,
            "midi": 37,
            "name": "C#2",
            "ticks": 242592,
            "time": 315.875,
            "velocity": 0.3937007874015748
          },
          {
            "duration": 0.125,
            "durationTicks": 96,
            "midi": 37,
            "name": "C#2",
            "ticks": 242784,
            "time": 316.125,
            "velocity": 0.3937007874015748
          },
          {
            "duration": 0.125,
            "durationTicks": 96,
            "midi": 37,
            "name": "C#2",
            "ticks": 244128,
            "time": 317.875,
            "velocity": 0.3937007874015748
          },
          {
            "duration": 0.125,
            "durationTicks": 96,
            "midi": 37,
            "name": "C#2",
            "ticks": 244320,
            "time": 318.125,
            "velocity": 0.3937007874015748
          },
          {
            "duration": 0.125,
            "durationTicks": 96,
            "midi": 37,
            "name": "C#2",
            "ticks": 245664,
            "time": 319.875,
            "velocity": 0.3937007874015748
          },
          {
            "duration": 0.125,
            "durationTicks": 96,
            "midi": 37,
            "name": "C#2",
            "ticks": 245856,
            "time": 320.125,
            "velocity": 0.3937007874015748
          },
          {
            "duration": 0.125,
            "durationTicks": 96,
            "midi": 37,
            "name": "C#2",
            "ticks": 247200,
            "time": 321.875,
            "velocity": 0.3937007874015748
          },
          {
            "duration": 0.125,
            "durationTicks": 96,
            "midi": 37,
            "name": "C#2",
            "ticks": 247392,
            "time": 322.125,
            "velocity": 0.3937007874015748
          }
        ],
        "endOfTrackTicks": 247488
      },
      {
        "channel": 0,
        "controlChanges": {},
        "pitchBends": [],
        "instrument": {
          "family": "synth effects",
          "number": 99,
          "name": "fx 4 (atmosphere)"
        },
        "name": "Scifi",
        "notes": [],
        "endOfTrackTicks": 2208
      },
      {
        "channel": 6,
        "controlChanges": {},
        "pitchBends": [],
        "instrument": {
          "family": "piano",
          "number": 0,
          "name": "acoustic grand piano"
        },
        "name": "Grand Piano (Classic)",
        "notes": [
          {
            "duration": 0.125,
            "durationTicks": 96,
            "midi": 56,
            "name": "G#3",
            "ticks": 42432,
            "time": 55.25,
            "velocity": 0.2677165354330709
          },
          {
            "duration": 0.125,
            "durationTicks": 96,
            "midi": 52,
            "name": "E3",
            "ticks": 42432,
            "time": 55.25,
            "velocity": 0.2677165354330709
          },
          {
            "duration": 0.125,
            "durationTicks": 96,
            "midi": 61,
            "name": "C#4",
            "ticks": 42432,
            "time": 55.25,
            "velocity": 0.2677165354330709
          },
          {
            "duration": 0.125,
            "durationTicks": 96,
            "midi": 64,
            "name": "E4",
            "ticks": 42624,
            "time": 55.5,
            "velocity": 0.2677165354330709
          },
          {
            "duration": 0.125,
            "durationTicks": 96,
            "midi": 56,
            "name": "G#3",
            "ticks": 42624,
            "time": 55.5,
            "velocity": 0.2677165354330709
          },
          {
            "duration": 0.125,
            "durationTicks": 96,
            "midi": 59,
            "name": "B3",
            "ticks": 42624,
            "time": 55.5,
            "velocity": 0.2677165354330709
          },
          {
            "duration": 0.125,
            "durationTicks": 96,
            "midi": 64,
            "name": "E4",
            "ticks": 42816,
            "time": 55.75,
            "velocity": 0.2677165354330709
          },
          {
            "duration": 0.125,
            "durationTicks": 96,
            "midi": 68,
            "name": "G#4",
            "ticks": 42816,
            "time": 55.75,
            "velocity": 0.2677165354330709
          },
          {
            "duration": 0.125,
            "durationTicks": 96,
            "midi": 59,
            "name": "B3",
            "ticks": 42816,
            "time": 55.75,
            "velocity": 0.2677165354330709
          },
          {
            "duration": 0.125,
            "durationTicks": 96,
            "midi": 58,
            "name": "A#3",
            "ticks": 42912,
            "time": 55.875,
            "velocity": 0.2677165354330709
          },
          {
            "duration": 0.125,
            "durationTicks": 96,
            "midi": 66,
            "name": "F#4",
            "ticks": 42912,
            "time": 55.875,
            "velocity": 0.2677165354330709
          },
          {
            "duration": 0.125,
            "durationTicks": 96,
            "midi": 61,
            "name": "C#4",
            "ticks": 42912,
            "time": 55.875,
            "velocity": 0.2677165354330709
          },
          {
            "duration": 0.125,
            "durationTicks": 96,
            "midi": 56,
            "name": "G#3",
            "ticks": 48576,
            "time": 63.25,
            "velocity": 0.2677165354330709
          },
          {
            "duration": 0.125,
            "durationTicks": 96,
            "midi": 61,
            "name": "C#4",
            "ticks": 48576,
            "time": 63.25,
            "velocity": 0.2677165354330709
          },
          {
            "duration": 0.125,
            "durationTicks": 96,
            "midi": 52,
            "name": "E3",
            "ticks": 48576,
            "time": 63.25,
            "velocity": 0.2677165354330709
          },
          {
            "duration": 0.125,
            "durationTicks": 96,
            "midi": 59,
            "name": "B3",
            "ticks": 48768,
            "time": 63.5,
            "velocity": 0.2677165354330709
          },
          {
            "duration": 0.125,
            "durationTicks": 96,
            "midi": 56,
            "name": "G#3",
            "ticks": 48768,
            "time": 63.5,
            "velocity": 0.2677165354330709
          },
          {
            "duration": 0.125,
            "durationTicks": 96,
            "midi": 64,
            "name": "E4",
            "ticks": 48768,
            "time": 63.5,
            "velocity": 0.2677165354330709
          },
          {
            "duration": 0.125,
            "durationTicks": 96,
            "midi": 59,
            "name": "B3",
            "ticks": 48960,
            "time": 63.75,
            "velocity": 0.2677165354330709
          },
          {
            "duration": 0.125,
            "durationTicks": 96,
            "midi": 68,
            "name": "G#4",
            "ticks": 48960,
            "time": 63.75,
            "velocity": 0.2677165354330709
          },
          {
            "duration": 0.125,
            "durationTicks": 96,
            "midi": 64,
            "name": "E4",
            "ticks": 48960,
            "time": 63.75,
            "velocity": 0.2677165354330709
          },
          {
            "duration": 0.125,
            "durationTicks": 96,
            "midi": 61,
            "name": "C#4",
            "ticks": 49056,
            "time": 63.875,
            "velocity": 0.2677165354330709
          },
          {
            "duration": 0.125,
            "durationTicks": 96,
            "midi": 58,
            "name": "A#3",
            "ticks": 49056,
            "time": 63.875,
            "velocity": 0.2677165354330709
          },
          {
            "duration": 0.125,
            "durationTicks": 96,
            "midi": 66,
            "name": "F#4",
            "ticks": 49056,
            "time": 63.875,
            "velocity": 0.2677165354330709
          },
          {
            "duration": 0.125,
            "durationTicks": 96,
            "midi": 64,
            "name": "E4",
            "ticks": 55296,
            "time": 72,
            "velocity": 0.2677165354330709
          },
          {
            "duration": 0.125,
            "durationTicks": 96,
            "midi": 68,
            "name": "G#4",
            "ticks": 55296,
            "time": 72,
            "velocity": 0.2677165354330709
          },
          {
            "duration": 0.125,
            "durationTicks": 96,
            "midi": 73,
            "name": "C#5",
            "ticks": 55296,
            "time": 72,
            "velocity": 0.2677165354330709
          },
          {
            "duration": 0.125,
            "durationTicks": 96,
            "midi": 64,
            "name": "E4",
            "ticks": 55584,
            "time": 72.375,
            "velocity": 0.2677165354330709
          },
          {
            "duration": 0.125,
            "durationTicks": 96,
            "midi": 68,
            "name": "G#4",
            "ticks": 55584,
            "time": 72.375,
            "velocity": 0.2677165354330709
          },
          {
            "duration": 0.125,
            "durationTicks": 96,
            "midi": 71,
            "name": "B4",
            "ticks": 55584,
            "time": 72.375,
            "velocity": 0.2677165354330709
          },
          {
            "duration": 0.125,
            "durationTicks": 96,
            "midi": 68,
            "name": "G#4",
            "ticks": 56832,
            "time": 74,
            "velocity": 0.2677165354330709
          },
          {
            "duration": 0.125,
            "durationTicks": 96,
            "midi": 71,
            "name": "B4",
            "ticks": 56832,
            "time": 74,
            "velocity": 0.2677165354330709
          },
          {
            "duration": 0.125,
            "durationTicks": 96,
            "midi": 64,
            "name": "E4",
            "ticks": 56832,
            "time": 74,
            "velocity": 0.2677165354330709
          },
          {
            "duration": 0.125,
            "durationTicks": 96,
            "midi": 66,
            "name": "F#4",
            "ticks": 57216,
            "time": 74.5,
            "velocity": 0.2677165354330709
          },
          {
            "duration": 0.125,
            "durationTicks": 96,
            "midi": 61,
            "name": "C#4",
            "ticks": 57216,
            "time": 74.5,
            "velocity": 0.2677165354330709
          },
          {
            "duration": 0.125,
            "durationTicks": 96,
            "midi": 70,
            "name": "A#4",
            "ticks": 57216,
            "time": 74.5,
            "velocity": 0.2677165354330709
          },
          {
            "duration": 0.125,
            "durationTicks": 96,
            "midi": 68,
            "name": "G#4",
            "ticks": 57600,
            "time": 75,
            "velocity": 0.2677165354330709
          },
          {
            "duration": 0.125,
            "durationTicks": 96,
            "midi": 64,
            "name": "E4",
            "ticks": 57600,
            "time": 75,
            "velocity": 0.2677165354330709
          },
          {
            "duration": 0.125,
            "durationTicks": 96,
            "midi": 61,
            "name": "C#4",
            "ticks": 57600,
            "time": 75,
            "velocity": 0.2677165354330709
          },
          {
            "duration": 0.125,
            "durationTicks": 96,
            "midi": 61,
            "name": "C#4",
            "ticks": 58368,
            "time": 76,
            "velocity": 0.2677165354330709
          },
          {
            "duration": 0.125,
            "durationTicks": 96,
            "midi": 58,
            "name": "A#3",
            "ticks": 58368,
            "time": 76,
            "velocity": 0.2677165354330709
          },
          {
            "duration": 0.125,
            "durationTicks": 96,
            "midi": 66,
            "name": "F#4",
            "ticks": 58368,
            "time": 76,
            "velocity": 0.2677165354330709
          },
          {
            "duration": 0.125,
            "durationTicks": 96,
            "midi": 64,
            "name": "E4",
            "ticks": 61440,
            "time": 80,
            "velocity": 0.2677165354330709
          },
          {
            "duration": 0.125,
            "durationTicks": 96,
            "midi": 68,
            "name": "G#4",
            "ticks": 61440,
            "time": 80,
            "velocity": 0.2677165354330709
          },
          {
            "duration": 0.125,
            "durationTicks": 96,
            "midi": 73,
            "name": "C#5",
            "ticks": 61440,
            "time": 80,
            "velocity": 0.2677165354330709
          },
          {
            "duration": 0.125,
            "durationTicks": 96,
            "midi": 68,
            "name": "G#4",
            "ticks": 61728,
            "time": 80.375,
            "velocity": 0.2677165354330709
          },
          {
            "duration": 0.125,
            "durationTicks": 96,
            "midi": 64,
            "name": "E4",
            "ticks": 61728,
            "time": 80.375,
            "velocity": 0.2677165354330709
          },
          {
            "duration": 0.125,
            "durationTicks": 96,
            "midi": 71,
            "name": "B4",
            "ticks": 61728,
            "time": 80.375,
            "velocity": 0.2677165354330709
          },
          {
            "duration": 0.125,
            "durationTicks": 96,
            "midi": 71,
            "name": "B4",
            "ticks": 62976,
            "time": 82,
            "velocity": 0.2677165354330709
          },
          {
            "duration": 0.125,
            "durationTicks": 96,
            "midi": 64,
            "name": "E4",
            "ticks": 62976,
            "time": 82,
            "velocity": 0.2677165354330709
          },
          {
            "duration": 0.125,
            "durationTicks": 96,
            "midi": 68,
            "name": "G#4",
            "ticks": 62976,
            "time": 82,
            "velocity": 0.2677165354330709
          },
          {
            "duration": 0.125,
            "durationTicks": 96,
            "midi": 70,
            "name": "A#4",
            "ticks": 63360,
            "time": 82.5,
            "velocity": 0.2677165354330709
          },
          {
            "duration": 0.125,
            "durationTicks": 96,
            "midi": 61,
            "name": "C#4",
            "ticks": 63360,
            "time": 82.5,
            "velocity": 0.2677165354330709
          },
          {
            "duration": 0.125,
            "durationTicks": 96,
            "midi": 66,
            "name": "F#4",
            "ticks": 63360,
            "time": 82.5,
            "velocity": 0.2677165354330709
          },
          {
            "duration": 0.125,
            "durationTicks": 96,
            "midi": 68,
            "name": "G#4",
            "ticks": 63744,
            "time": 83,
            "velocity": 0.2677165354330709
          },
          {
            "duration": 0.125,
            "durationTicks": 96,
            "midi": 61,
            "name": "C#4",
            "ticks": 63744,
            "time": 83,
            "velocity": 0.2677165354330709
          },
          {
            "duration": 0.125,
            "durationTicks": 96,
            "midi": 64,
            "name": "E4",
            "ticks": 63744,
            "time": 83,
            "velocity": 0.2677165354330709
          },
          {
            "duration": 0.125,
            "durationTicks": 96,
            "midi": 58,
            "name": "A#3",
            "ticks": 64512,
            "time": 84,
            "velocity": 0.2677165354330709
          },
          {
            "duration": 0.125,
            "durationTicks": 96,
            "midi": 66,
            "name": "F#4",
            "ticks": 64512,
            "time": 84,
            "velocity": 0.2677165354330709
          },
          {
            "duration": 0.125,
            "durationTicks": 96,
            "midi": 61,
            "name": "C#4",
            "ticks": 64512,
            "time": 84,
            "velocity": 0.2677165354330709
          },
          {
            "duration": 0.125,
            "durationTicks": 96,
            "midi": 52,
            "name": "E3",
            "ticks": 85440,
            "time": 111.25,
            "velocity": 0.2677165354330709
          },
          {
            "duration": 0.125,
            "durationTicks": 96,
            "midi": 56,
            "name": "G#3",
            "ticks": 85440,
            "time": 111.25,
            "velocity": 0.2677165354330709
          },
          {
            "duration": 0.125,
            "durationTicks": 96,
            "midi": 61,
            "name": "C#4",
            "ticks": 85440,
            "time": 111.25,
            "velocity": 0.2677165354330709
          },
          {
            "duration": 0.125,
            "durationTicks": 96,
            "midi": 59,
            "name": "B3",
            "ticks": 85632,
            "time": 111.5,
            "velocity": 0.2677165354330709
          },
          {
            "duration": 0.125,
            "durationTicks": 96,
            "midi": 56,
            "name": "G#3",
            "ticks": 85632,
            "time": 111.5,
            "velocity": 0.2677165354330709
          },
          {
            "duration": 0.125,
            "durationTicks": 96,
            "midi": 64,
            "name": "E4",
            "ticks": 85632,
            "time": 111.5,
            "velocity": 0.2677165354330709
          },
          {
            "duration": 0.125,
            "durationTicks": 96,
            "midi": 68,
            "name": "G#4",
            "ticks": 85824,
            "time": 111.75,
            "velocity": 0.2677165354330709
          },
          {
            "duration": 0.125,
            "durationTicks": 96,
            "midi": 59,
            "name": "B3",
            "ticks": 85824,
            "time": 111.75,
            "velocity": 0.2677165354330709
          },
          {
            "duration": 0.125,
            "durationTicks": 96,
            "midi": 64,
            "name": "E4",
            "ticks": 85824,
            "time": 111.75,
            "velocity": 0.2677165354330709
          },
          {
            "duration": 0.125,
            "durationTicks": 96,
            "midi": 61,
            "name": "C#4",
            "ticks": 85920,
            "time": 111.875,
            "velocity": 0.2677165354330709
          },
          {
            "duration": 0.125,
            "durationTicks": 96,
            "midi": 58,
            "name": "A#3",
            "ticks": 85920,
            "time": 111.875,
            "velocity": 0.2677165354330709
          },
          {
            "duration": 0.125,
            "durationTicks": 96,
            "midi": 66,
            "name": "F#4",
            "ticks": 85920,
            "time": 111.875,
            "velocity": 0.2677165354330709
          },
          {
            "duration": 0.125,
            "durationTicks": 96,
            "midi": 56,
            "name": "G#3",
            "ticks": 91584,
            "time": 119.25,
            "velocity": 0.2677165354330709
          },
          {
            "duration": 0.125,
            "durationTicks": 96,
            "midi": 52,
            "name": "E3",
            "ticks": 91584,
            "time": 119.25,
            "velocity": 0.2677165354330709
          },
          {
            "duration": 0.125,
            "durationTicks": 96,
            "midi": 61,
            "name": "C#4",
            "ticks": 91584,
            "time": 119.25,
            "velocity": 0.2677165354330709
          },
          {
            "duration": 0.125,
            "durationTicks": 96,
            "midi": 59,
            "name": "B3",
            "ticks": 91776,
            "time": 119.5,
            "velocity": 0.2677165354330709
          },
          {
            "duration": 0.125,
            "durationTicks": 96,
            "midi": 64,
            "name": "E4",
            "ticks": 91776,
            "time": 119.5,
            "velocity": 0.2677165354330709
          },
          {
            "duration": 0.125,
            "durationTicks": 96,
            "midi": 56,
            "name": "G#3",
            "ticks": 91776,
            "time": 119.5,
            "velocity": 0.2677165354330709
          },
          {
            "duration": 0.125,
            "durationTicks": 96,
            "midi": 64,
            "name": "E4",
            "ticks": 91968,
            "time": 119.75,
            "velocity": 0.2677165354330709
          },
          {
            "duration": 0.125,
            "durationTicks": 96,
            "midi": 59,
            "name": "B3",
            "ticks": 91968,
            "time": 119.75,
            "velocity": 0.2677165354330709
          },
          {
            "duration": 0.125,
            "durationTicks": 96,
            "midi": 68,
            "name": "G#4",
            "ticks": 91968,
            "time": 119.75,
            "velocity": 0.2677165354330709
          },
          {
            "duration": 0.125,
            "durationTicks": 96,
            "midi": 61,
            "name": "C#4",
            "ticks": 92064,
            "time": 119.875,
            "velocity": 0.2677165354330709
          },
          {
            "duration": 0.125,
            "durationTicks": 96,
            "midi": 66,
            "name": "F#4",
            "ticks": 92064,
            "time": 119.875,
            "velocity": 0.2677165354330709
          },
          {
            "duration": 0.125,
            "durationTicks": 96,
            "midi": 58,
            "name": "A#3",
            "ticks": 92064,
            "time": 119.875,
            "velocity": 0.2677165354330709
          },
          {
            "duration": 0.125,
            "durationTicks": 96,
            "midi": 68,
            "name": "G#4",
            "ticks": 98304,
            "time": 128,
            "velocity": 0.2677165354330709
          },
          {
            "duration": 0.125,
            "durationTicks": 96,
            "midi": 73,
            "name": "C#5",
            "ticks": 98304,
            "time": 128,
            "velocity": 0.2677165354330709
          },
          {
            "duration": 0.125,
            "durationTicks": 96,
            "midi": 64,
            "name": "E4",
            "ticks": 98304,
            "time": 128,
            "velocity": 0.2677165354330709
          },
          {
            "duration": 0.125,
            "durationTicks": 96,
            "midi": 64,
            "name": "E4",
            "ticks": 98592,
            "time": 128.375,
            "velocity": 0.2677165354330709
          },
          {
            "duration": 0.125,
            "durationTicks": 96,
            "midi": 68,
            "name": "G#4",
            "ticks": 98592,
            "time": 128.375,
            "velocity": 0.2677165354330709
          },
          {
            "duration": 0.125,
            "durationTicks": 96,
            "midi": 71,
            "name": "B4",
            "ticks": 98592,
            "time": 128.375,
            "velocity": 0.2677165354330709
          },
          {
            "duration": 0.125,
            "durationTicks": 96,
            "midi": 64,
            "name": "E4",
            "ticks": 99840,
            "time": 130,
            "velocity": 0.2677165354330709
          },
          {
            "duration": 0.125,
            "durationTicks": 96,
            "midi": 68,
            "name": "G#4",
            "ticks": 99840,
            "time": 130,
            "velocity": 0.2677165354330709
          },
          {
            "duration": 0.125,
            "durationTicks": 96,
            "midi": 71,
            "name": "B4",
            "ticks": 99840,
            "time": 130,
            "velocity": 0.2677165354330709
          },
          {
            "duration": 0.125,
            "durationTicks": 96,
            "midi": 70,
            "name": "A#4",
            "ticks": 100224,
            "time": 130.5,
            "velocity": 0.2677165354330709
          },
          {
            "duration": 0.125,
            "durationTicks": 96,
            "midi": 66,
            "name": "F#4",
            "ticks": 100224,
            "time": 130.5,
            "velocity": 0.2677165354330709
          },
          {
            "duration": 0.125,
            "durationTicks": 96,
            "midi": 61,
            "name": "C#4",
            "ticks": 100224,
            "time": 130.5,
            "velocity": 0.2677165354330709
          },
          {
            "duration": 0.125,
            "durationTicks": 96,
            "midi": 61,
            "name": "C#4",
            "ticks": 100608,
            "time": 131,
            "velocity": 0.2677165354330709
          },
          {
            "duration": 0.125,
            "durationTicks": 96,
            "midi": 64,
            "name": "E4",
            "ticks": 100608,
            "time": 131,
            "velocity": 0.2677165354330709
          },
          {
            "duration": 0.125,
            "durationTicks": 96,
            "midi": 68,
            "name": "G#4",
            "ticks": 100608,
            "time": 131,
            "velocity": 0.2677165354330709
          },
          {
            "duration": 0.125,
            "durationTicks": 96,
            "midi": 58,
            "name": "A#3",
            "ticks": 101376,
            "time": 132,
            "velocity": 0.2677165354330709
          },
          {
            "duration": 0.125,
            "durationTicks": 96,
            "midi": 61,
            "name": "C#4",
            "ticks": 101376,
            "time": 132,
            "velocity": 0.2677165354330709
          },
          {
            "duration": 0.125,
            "durationTicks": 96,
            "midi": 66,
            "name": "F#4",
            "ticks": 101376,
            "time": 132,
            "velocity": 0.2677165354330709
          },
          {
            "duration": 0.125,
            "durationTicks": 96,
            "midi": 73,
            "name": "C#5",
            "ticks": 104448,
            "time": 136,
            "velocity": 0.2677165354330709
          },
          {
            "duration": 0.125,
            "durationTicks": 96,
            "midi": 68,
            "name": "G#4",
            "ticks": 104448,
            "time": 136,
            "velocity": 0.2677165354330709
          },
          {
            "duration": 0.125,
            "durationTicks": 96,
            "midi": 64,
            "name": "E4",
            "ticks": 104448,
            "time": 136,
            "velocity": 0.2677165354330709
          },
          {
            "duration": 0.125,
            "durationTicks": 96,
            "midi": 71,
            "name": "B4",
            "ticks": 104736,
            "time": 136.375,
            "velocity": 0.2677165354330709
          },
          {
            "duration": 0.125,
            "durationTicks": 96,
            "midi": 68,
            "name": "G#4",
            "ticks": 104736,
            "time": 136.375,
            "velocity": 0.2677165354330709
          },
          {
            "duration": 0.125,
            "durationTicks": 96,
            "midi": 64,
            "name": "E4",
            "ticks": 104736,
            "time": 136.375,
            "velocity": 0.2677165354330709
          },
          {
            "duration": 0.125,
            "durationTicks": 96,
            "midi": 71,
            "name": "B4",
            "ticks": 105984,
            "time": 138,
            "velocity": 0.2677165354330709
          },
          {
            "duration": 0.125,
            "durationTicks": 96,
            "midi": 68,
            "name": "G#4",
            "ticks": 105984,
            "time": 138,
            "velocity": 0.2677165354330709
          },
          {
            "duration": 0.125,
            "durationTicks": 96,
            "midi": 64,
            "name": "E4",
            "ticks": 105984,
            "time": 138,
            "velocity": 0.2677165354330709
          },
          {
            "duration": 0.125,
            "durationTicks": 96,
            "midi": 70,
            "name": "A#4",
            "ticks": 106368,
            "time": 138.5,
            "velocity": 0.2677165354330709
          },
          {
            "duration": 0.125,
            "durationTicks": 96,
            "midi": 66,
            "name": "F#4",
            "ticks": 106368,
            "time": 138.5,
            "velocity": 0.2677165354330709
          },
          {
            "duration": 0.125,
            "durationTicks": 96,
            "midi": 61,
            "name": "C#4",
            "ticks": 106368,
            "time": 138.5,
            "velocity": 0.2677165354330709
          },
          {
            "duration": 0.125,
            "durationTicks": 96,
            "midi": 64,
            "name": "E4",
            "ticks": 106752,
            "time": 139,
            "velocity": 0.2677165354330709
          },
          {
            "duration": 0.125,
            "durationTicks": 96,
            "midi": 68,
            "name": "G#4",
            "ticks": 106752,
            "time": 139,
            "velocity": 0.2677165354330709
          },
          {
            "duration": 0.125,
            "durationTicks": 96,
            "midi": 61,
            "name": "C#4",
            "ticks": 106752,
            "time": 139,
            "velocity": 0.2677165354330709
          },
          {
            "duration": 0.125,
            "durationTicks": 96,
            "midi": 58,
            "name": "A#3",
            "ticks": 107520,
            "time": 140,
            "velocity": 0.2677165354330709
          },
          {
            "duration": 0.125,
            "durationTicks": 96,
            "midi": 66,
            "name": "F#4",
            "ticks": 107520,
            "time": 140,
            "velocity": 0.2677165354330709
          },
          {
            "duration": 0.125,
            "durationTicks": 96,
            "midi": 61,
            "name": "C#4",
            "ticks": 107520,
            "time": 140,
            "velocity": 0.2677165354330709
          },
          {
            "duration": 0.125,
            "durationTicks": 96,
            "midi": 64,
            "name": "E4",
            "ticks": 109248,
            "time": 142.25,
            "velocity": 0.2677165354330709
          },
          {
            "duration": 0.125,
            "durationTicks": 96,
            "midi": 57,
            "name": "A3",
            "ticks": 109248,
            "time": 142.25,
            "velocity": 0.2677165354330709
          },
          {
            "duration": 0.125,
            "durationTicks": 96,
            "midi": 61,
            "name": "C#4",
            "ticks": 109248,
            "time": 142.25,
            "velocity": 0.2677165354330709
          },
          {
            "duration": 0.125,
            "durationTicks": 96,
            "midi": 54,
            "name": "F#3",
            "ticks": 109440,
            "time": 142.5,
            "velocity": 0.2677165354330709
          },
          {
            "duration": 0.125,
            "durationTicks": 96,
            "midi": 57,
            "name": "A3",
            "ticks": 109440,
            "time": 142.5,
            "velocity": 0.2677165354330709
          },
          {
            "duration": 0.125,
            "durationTicks": 96,
            "midi": 61,
            "name": "C#4",
            "ticks": 109440,
            "time": 142.5,
            "velocity": 0.2677165354330709
          },
          {
            "duration": 0.125,
            "durationTicks": 96,
            "midi": 61,
            "name": "C#4",
            "ticks": 109824,
            "time": 143,
            "velocity": 0.2677165354330709
          },
          {
            "duration": 0.125,
            "durationTicks": 96,
            "midi": 67,
            "name": "G4",
            "ticks": 109824,
            "time": 143,
            "velocity": 0.2677165354330709
          },
          {
            "duration": 0.125,
            "durationTicks": 96,
            "midi": 64,
            "name": "E4",
            "ticks": 109824,
            "time": 143,
            "velocity": 0.2677165354330709
          },
          {
            "duration": 0.125,
            "durationTicks": 96,
            "midi": 64,
            "name": "E4",
            "ticks": 110016,
            "time": 143.25,
            "velocity": 0.2677165354330709
          },
          {
            "duration": 0.125,
            "durationTicks": 96,
            "midi": 61,
            "name": "C#4",
            "ticks": 110016,
            "time": 143.25,
            "velocity": 0.2677165354330709
          },
          {
            "duration": 0.125,
            "durationTicks": 96,
            "midi": 58,
            "name": "A#3",
            "ticks": 110016,
            "time": 143.25,
            "velocity": 0.2677165354330709
          },
          {
            "duration": 0.125,
            "durationTicks": 96,
            "midi": 71,
            "name": "B4",
            "ticks": 110400,
            "time": 143.75,
            "velocity": 0.2677165354330709
          },
          {
            "duration": 0.125,
            "durationTicks": 96,
            "midi": 64,
            "name": "E4",
            "ticks": 110400,
            "time": 143.75,
            "velocity": 0.2677165354330709
          },
          {
            "duration": 0.125,
            "durationTicks": 96,
            "midi": 66,
            "name": "F#4",
            "ticks": 110400,
            "time": 143.75,
            "velocity": 0.2677165354330709
          },
          {
            "duration": 0.125,
            "durationTicks": 96,
            "midi": 64,
            "name": "E4",
            "ticks": 110592,
            "time": 144,
            "velocity": 0.2677165354330709
          },
          {
            "duration": 0.125,
            "durationTicks": 96,
            "midi": 68,
            "name": "G#4",
            "ticks": 110592,
            "time": 144,
            "velocity": 0.2677165354330709
          },
          {
            "duration": 0.125,
            "durationTicks": 96,
            "midi": 73,
            "name": "C#5",
            "ticks": 110592,
            "time": 144,
            "velocity": 0.2677165354330709
          },
          {
            "duration": 0.125,
            "durationTicks": 96,
            "midi": 61,
            "name": "C#4",
            "ticks": 121728,
            "time": 158.5,
            "velocity": 0.2677165354330709
          },
          {
            "duration": 0.125,
            "durationTicks": 96,
            "midi": 54,
            "name": "F#3",
            "ticks": 121728,
            "time": 158.5,
            "velocity": 0.2677165354330709
          },
          {
            "duration": 0.125,
            "durationTicks": 96,
            "midi": 57,
            "name": "A3",
            "ticks": 121728,
            "time": 158.5,
            "velocity": 0.2677165354330709
          },
          {
            "duration": 0.125,
            "durationTicks": 96,
            "midi": 57,
            "name": "A3",
            "ticks": 122112,
            "time": 159,
            "velocity": 0.2677165354330709
          },
          {
            "duration": 0.125,
            "durationTicks": 96,
            "midi": 61,
            "name": "C#4",
            "ticks": 122112,
            "time": 159,
            "velocity": 0.2677165354330709
          },
          {
            "duration": 0.125,
            "durationTicks": 96,
            "midi": 64,
            "name": "E4",
            "ticks": 122112,
            "time": 159,
            "velocity": 0.2677165354330709
          },
          {
            "duration": 0.125,
            "durationTicks": 96,
            "midi": 64,
            "name": "E4",
            "ticks": 122496,
            "time": 159.5,
            "velocity": 0.2677165354330709
          },
          {
            "duration": 0.125,
            "durationTicks": 96,
            "midi": 71,
            "name": "B4",
            "ticks": 122496,
            "time": 159.5,
            "velocity": 0.2677165354330709
          },
          {
            "duration": 0.125,
            "durationTicks": 96,
            "midi": 68,
            "name": "G#4",
            "ticks": 122496,
            "time": 159.5,
            "velocity": 0.2677165354330709
          },
          {
            "duration": 0.125,
            "durationTicks": 96,
            "midi": 64,
            "name": "E4",
            "ticks": 122880,
            "time": 160,
            "velocity": 0.2677165354330709
          },
          {
            "duration": 0.125,
            "durationTicks": 96,
            "midi": 61,
            "name": "C#4",
            "ticks": 122880,
            "time": 160,
            "velocity": 0.2677165354330709
          },
          {
            "duration": 0.125,
            "durationTicks": 96,
            "midi": 68,
            "name": "G#4",
            "ticks": 122880,
            "time": 160,
            "velocity": 0.2677165354330709
          },
          {
            "duration": 0.125,
            "durationTicks": 96,
            "midi": 61,
            "name": "C#4",
            "ticks": 139200,
            "time": 181.25,
            "velocity": 0.2677165354330709
          },
          {
            "duration": 0.125,
            "durationTicks": 96,
            "midi": 56,
            "name": "G#3",
            "ticks": 139200,
            "time": 181.25,
            "velocity": 0.2677165354330709
          },
          {
            "duration": 0.125,
            "durationTicks": 96,
            "midi": 52,
            "name": "E3",
            "ticks": 139200,
            "time": 181.25,
            "velocity": 0.2677165354330709
          },
          {
            "duration": 0.125,
            "durationTicks": 96,
            "midi": 59,
            "name": "B3",
            "ticks": 139392,
            "time": 181.5,
            "velocity": 0.2677165354330709
          },
          {
            "duration": 0.125,
            "durationTicks": 96,
            "midi": 64,
            "name": "E4",
            "ticks": 139392,
            "time": 181.5,
            "velocity": 0.2677165354330709
          },
          {
            "duration": 0.125,
            "durationTicks": 96,
            "midi": 56,
            "name": "G#3",
            "ticks": 139392,
            "time": 181.5,
            "velocity": 0.2677165354330709
          },
          {
            "duration": 0.125,
            "durationTicks": 96,
            "midi": 64,
            "name": "E4",
            "ticks": 139584,
            "time": 181.75,
            "velocity": 0.2677165354330709
          },
          {
            "duration": 0.125,
            "durationTicks": 96,
            "midi": 68,
            "name": "G#4",
            "ticks": 139584,
            "time": 181.75,
            "velocity": 0.2677165354330709
          },
          {
            "duration": 0.125,
            "durationTicks": 96,
            "midi": 59,
            "name": "B3",
            "ticks": 139584,
            "time": 181.75,
            "velocity": 0.2677165354330709
          },
          {
            "duration": 0.125,
            "durationTicks": 96,
            "midi": 66,
            "name": "F#4",
            "ticks": 139680,
            "time": 181.875,
            "velocity": 0.2677165354330709
          },
          {
            "duration": 0.125,
            "durationTicks": 96,
            "midi": 61,
            "name": "C#4",
            "ticks": 139680,
            "time": 181.875,
            "velocity": 0.2677165354330709
          },
          {
            "duration": 0.125,
            "durationTicks": 96,
            "midi": 58,
            "name": "A#3",
            "ticks": 139680,
            "time": 181.875,
            "velocity": 0.2677165354330709
          },
          {
            "duration": 0.125,
            "durationTicks": 96,
            "midi": 61,
            "name": "C#4",
            "ticks": 145344,
            "time": 189.25,
            "velocity": 0.2677165354330709
          },
          {
            "duration": 0.125,
            "durationTicks": 96,
            "midi": 52,
            "name": "E3",
            "ticks": 145344,
            "time": 189.25,
            "velocity": 0.2677165354330709
          },
          {
            "duration": 0.125,
            "durationTicks": 96,
            "midi": 56,
            "name": "G#3",
            "ticks": 145344,
            "time": 189.25,
            "velocity": 0.2677165354330709
          },
          {
            "duration": 0.125,
            "durationTicks": 96,
            "midi": 64,
            "name": "E4",
            "ticks": 145536,
            "time": 189.5,
            "velocity": 0.2677165354330709
          },
          {
            "duration": 0.125,
            "durationTicks": 96,
            "midi": 59,
            "name": "B3",
            "ticks": 145536,
            "time": 189.5,
            "velocity": 0.2677165354330709
          },
          {
            "duration": 0.125,
            "durationTicks": 96,
            "midi": 56,
            "name": "G#3",
            "ticks": 145536,
            "time": 189.5,
            "velocity": 0.2677165354330709
          },
          {
            "duration": 0.125,
            "durationTicks": 96,
            "midi": 68,
            "name": "G#4",
            "ticks": 145728,
            "time": 189.75,
            "velocity": 0.2677165354330709
          },
          {
            "duration": 0.125,
            "durationTicks": 96,
            "midi": 59,
            "name": "B3",
            "ticks": 145728,
            "time": 189.75,
            "velocity": 0.2677165354330709
          },
          {
            "duration": 0.125,
            "durationTicks": 96,
            "midi": 64,
            "name": "E4",
            "ticks": 145728,
            "time": 189.75,
            "velocity": 0.2677165354330709
          },
          {
            "duration": 0.125,
            "durationTicks": 96,
            "midi": 66,
            "name": "F#4",
            "ticks": 145824,
            "time": 189.875,
            "velocity": 0.2677165354330709
          },
          {
            "duration": 0.125,
            "durationTicks": 96,
            "midi": 61,
            "name": "C#4",
            "ticks": 145824,
            "time": 189.875,
            "velocity": 0.2677165354330709
          },
          {
            "duration": 0.125,
            "durationTicks": 96,
            "midi": 58,
            "name": "A#3",
            "ticks": 145824,
            "time": 189.875,
            "velocity": 0.2677165354330709
          },
          {
            "duration": 0.125,
            "durationTicks": 96,
            "midi": 73,
            "name": "C#5",
            "ticks": 152064,
            "time": 198,
            "velocity": 0.2677165354330709
          },
          {
            "duration": 0.125,
            "durationTicks": 96,
            "midi": 64,
            "name": "E4",
            "ticks": 152064,
            "time": 198,
            "velocity": 0.2677165354330709
          },
          {
            "duration": 0.125,
            "durationTicks": 96,
            "midi": 68,
            "name": "G#4",
            "ticks": 152064,
            "time": 198,
            "velocity": 0.2677165354330709
          },
          {
            "duration": 0.125,
            "durationTicks": 96,
            "midi": 71,
            "name": "B4",
            "ticks": 152352,
            "time": 198.375,
            "velocity": 0.2677165354330709
          },
          {
            "duration": 0.125,
            "durationTicks": 96,
            "midi": 64,
            "name": "E4",
            "ticks": 152352,
            "time": 198.375,
            "velocity": 0.2677165354330709
          },
          {
            "duration": 0.125,
            "durationTicks": 96,
            "midi": 68,
            "name": "G#4",
            "ticks": 152352,
            "time": 198.375,
            "velocity": 0.2677165354330709
          },
          {
            "duration": 0.125,
            "durationTicks": 96,
            "midi": 71,
            "name": "B4",
            "ticks": 153600,
            "time": 200,
            "velocity": 0.2677165354330709
          },
          {
            "duration": 0.125,
            "durationTicks": 96,
            "midi": 64,
            "name": "E4",
            "ticks": 153600,
            "time": 200,
            "velocity": 0.2677165354330709
          },
          {
            "duration": 0.125,
            "durationTicks": 96,
            "midi": 68,
            "name": "G#4",
            "ticks": 153600,
            "time": 200,
            "velocity": 0.2677165354330709
          },
          {
            "duration": 0.125,
            "durationTicks": 96,
            "midi": 66,
            "name": "F#4",
            "ticks": 153984,
            "time": 200.5,
            "velocity": 0.2677165354330709
          },
          {
            "duration": 0.125,
            "durationTicks": 96,
            "midi": 61,
            "name": "C#4",
            "ticks": 153984,
            "time": 200.5,
            "velocity": 0.2677165354330709
          },
          {
            "duration": 0.125,
            "durationTicks": 96,
            "midi": 70,
            "name": "A#4",
            "ticks": 153984,
            "time": 200.5,
            "velocity": 0.2677165354330709
          },
          {
            "duration": 0.125,
            "durationTicks": 96,
            "midi": 61,
            "name": "C#4",
            "ticks": 154368,
            "time": 201,
            "velocity": 0.2677165354330709
          },
          {
            "duration": 0.125,
            "durationTicks": 96,
            "midi": 68,
            "name": "G#4",
            "ticks": 154368,
            "time": 201,
            "velocity": 0.2677165354330709
          },
          {
            "duration": 0.125,
            "durationTicks": 96,
            "midi": 64,
            "name": "E4",
            "ticks": 154368,
            "time": 201,
            "velocity": 0.2677165354330709
          },
          {
            "duration": 0.125,
            "durationTicks": 96,
            "midi": 58,
            "name": "A#3",
            "ticks": 155136,
            "time": 202,
            "velocity": 0.2677165354330709
          },
          {
            "duration": 0.125,
            "durationTicks": 96,
            "midi": 66,
            "name": "F#4",
            "ticks": 155136,
            "time": 202,
            "velocity": 0.2677165354330709
          },
          {
            "duration": 0.125,
            "durationTicks": 96,
            "midi": 61,
            "name": "C#4",
            "ticks": 155136,
            "time": 202,
            "velocity": 0.2677165354330709
          },
          {
            "duration": 0.125,
            "durationTicks": 96,
            "midi": 73,
            "name": "C#5",
            "ticks": 158208,
            "time": 206,
            "velocity": 0.2677165354330709
          },
          {
            "duration": 0.125,
            "durationTicks": 96,
            "midi": 68,
            "name": "G#4",
            "ticks": 158208,
            "time": 206,
            "velocity": 0.2677165354330709
          },
          {
            "duration": 0.125,
            "durationTicks": 96,
            "midi": 64,
            "name": "E4",
            "ticks": 158208,
            "time": 206,
            "velocity": 0.2677165354330709
          },
          {
            "duration": 0.125,
            "durationTicks": 96,
            "midi": 71,
            "name": "B4",
            "ticks": 158496,
            "time": 206.375,
            "velocity": 0.2677165354330709
          },
          {
            "duration": 0.125,
            "durationTicks": 96,
            "midi": 68,
            "name": "G#4",
            "ticks": 158496,
            "time": 206.375,
            "velocity": 0.2677165354330709
          },
          {
            "duration": 0.125,
            "durationTicks": 96,
            "midi": 64,
            "name": "E4",
            "ticks": 158496,
            "time": 206.375,
            "velocity": 0.2677165354330709
          },
          {
            "duration": 0.125,
            "durationTicks": 96,
            "midi": 68,
            "name": "G#4",
            "ticks": 159744,
            "time": 208,
            "velocity": 0.2677165354330709
          },
          {
            "duration": 0.125,
            "durationTicks": 96,
            "midi": 64,
            "name": "E4",
            "ticks": 159744,
            "time": 208,
            "velocity": 0.2677165354330709
          },
          {
            "duration": 0.125,
            "durationTicks": 96,
            "midi": 71,
            "name": "B4",
            "ticks": 159744,
            "time": 208,
            "velocity": 0.2677165354330709
          },
          {
            "duration": 0.125,
            "durationTicks": 96,
            "midi": 70,
            "name": "A#4",
            "ticks": 160128,
            "time": 208.5,
            "velocity": 0.2677165354330709
          },
          {
            "duration": 0.125,
            "durationTicks": 96,
            "midi": 66,
            "name": "F#4",
            "ticks": 160128,
            "time": 208.5,
            "velocity": 0.2677165354330709
          },
          {
            "duration": 0.125,
            "durationTicks": 96,
            "midi": 61,
            "name": "C#4",
            "ticks": 160128,
            "time": 208.5,
            "velocity": 0.2677165354330709
          },
          {
            "duration": 0.125,
            "durationTicks": 96,
            "midi": 64,
            "name": "E4",
            "ticks": 160512,
            "time": 209,
            "velocity": 0.2677165354330709
          },
          {
            "duration": 0.125,
            "durationTicks": 96,
            "midi": 61,
            "name": "C#4",
            "ticks": 160512,
            "time": 209,
            "velocity": 0.2677165354330709
          },
          {
            "duration": 0.125,
            "durationTicks": 96,
            "midi": 68,
            "name": "G#4",
            "ticks": 160512,
            "time": 209,
            "velocity": 0.2677165354330709
          },
          {
            "duration": 0.125,
            "durationTicks": 96,
            "midi": 66,
            "name": "F#4",
            "ticks": 161280,
            "time": 210,
            "velocity": 0.2677165354330709
          },
          {
            "duration": 0.125,
            "durationTicks": 96,
            "midi": 58,
            "name": "A#3",
            "ticks": 161280,
            "time": 210,
            "velocity": 0.2677165354330709
          },
          {
            "duration": 0.125,
            "durationTicks": 96,
            "midi": 61,
            "name": "C#4",
            "ticks": 161280,
            "time": 210,
            "velocity": 0.2677165354330709
          },
          {
            "duration": 0.125,
            "durationTicks": 96,
            "midi": 61,
            "name": "C#4",
            "ticks": 163008,
            "time": 212.25,
            "velocity": 0.2677165354330709
          },
          {
            "duration": 0.125,
            "durationTicks": 96,
            "midi": 64,
            "name": "E4",
            "ticks": 163008,
            "time": 212.25,
            "velocity": 0.2677165354330709
          },
          {
            "duration": 0.125,
            "durationTicks": 96,
            "midi": 57,
            "name": "A3",
            "ticks": 163008,
            "time": 212.25,
            "velocity": 0.2677165354330709
          },
          {
            "duration": 0.125,
            "durationTicks": 96,
            "midi": 57,
            "name": "A3",
            "ticks": 163200,
            "time": 212.5,
            "velocity": 0.2677165354330709
          },
          {
            "duration": 0.125,
            "durationTicks": 96,
            "midi": 54,
            "name": "F#3",
            "ticks": 163200,
            "time": 212.5,
            "velocity": 0.2677165354330709
          },
          {
            "duration": 0.125,
            "durationTicks": 96,
            "midi": 61,
            "name": "C#4",
            "ticks": 163200,
            "time": 212.5,
            "velocity": 0.2677165354330709
          },
          {
            "duration": 0.125,
            "durationTicks": 96,
            "midi": 61,
            "name": "C#4",
            "ticks": 163584,
            "time": 213,
            "velocity": 0.2677165354330709
          },
          {
            "duration": 0.125,
            "durationTicks": 96,
            "midi": 67,
            "name": "G4",
            "ticks": 163584,
            "time": 213,
            "velocity": 0.2677165354330709
          },
          {
            "duration": 0.125,
            "durationTicks": 96,
            "midi": 64,
            "name": "E4",
            "ticks": 163584,
            "time": 213,
            "velocity": 0.2677165354330709
          },
          {
            "duration": 0.125,
            "durationTicks": 96,
            "midi": 64,
            "name": "E4",
            "ticks": 163776,
            "time": 213.25,
            "velocity": 0.2677165354330709
          },
          {
            "duration": 0.125,
            "durationTicks": 96,
            "midi": 61,
            "name": "C#4",
            "ticks": 163776,
            "time": 213.25,
            "velocity": 0.2677165354330709
          },
          {
            "duration": 0.125,
            "durationTicks": 96,
            "midi": 58,
            "name": "A#3",
            "ticks": 163776,
            "time": 213.25,
            "velocity": 0.2677165354330709
          },
          {
            "duration": 0.125,
            "durationTicks": 96,
            "midi": 67,
            "name": "G4",
            "ticks": 164160,
            "time": 213.75,
            "velocity": 0.2677165354330709
          },
          {
            "duration": 0.125,
            "durationTicks": 96,
            "midi": 64,
            "name": "E4",
            "ticks": 164160,
            "time": 213.75,
            "velocity": 0.2677165354330709
          },
          {
            "duration": 0.125,
            "durationTicks": 96,
            "midi": 71,
            "name": "B4",
            "ticks": 164160,
            "time": 213.75,
            "velocity": 0.2677165354330709
          },
          {
            "duration": 0.125,
            "durationTicks": 96,
            "midi": 64,
            "name": "E4",
            "ticks": 164352,
            "time": 214,
            "velocity": 0.2677165354330709
          },
          {
            "duration": 0.125,
            "durationTicks": 96,
            "midi": 67,
            "name": "G4",
            "ticks": 164352,
            "time": 214,
            "velocity": 0.2677165354330709
          },
          {
            "duration": 0.125,
            "durationTicks": 96,
            "midi": 61,
            "name": "C#4",
            "ticks": 164352,
            "time": 214,
            "velocity": 0.2677165354330709
          },
          {
            "duration": 0.125,
            "durationTicks": 96,
            "midi": 73,
            "name": "C#5",
            "ticks": 164736,
            "time": 214.5,
            "velocity": 0.2677165354330709
          },
          {
            "duration": 0.125,
            "durationTicks": 96,
            "midi": 67,
            "name": "G4",
            "ticks": 164736,
            "time": 214.5,
            "velocity": 0.2677165354330709
          },
          {
            "duration": 0.125,
            "durationTicks": 96,
            "midi": 70,
            "name": "A#4",
            "ticks": 164736,
            "time": 214.5,
            "velocity": 0.2677165354330709
          },
          {
            "duration": 0.125,
            "durationTicks": 96,
            "midi": 67,
            "name": "G4",
            "ticks": 164928,
            "time": 214.75,
            "velocity": 0.2677165354330709
          },
          {
            "duration": 0.125,
            "durationTicks": 96,
            "midi": 64,
            "name": "E4",
            "ticks": 164928,
            "time": 214.75,
            "velocity": 0.2677165354330709
          },
          {
            "duration": 0.125,
            "durationTicks": 96,
            "midi": 70,
            "name": "A#4",
            "ticks": 164928,
            "time": 214.75,
            "velocity": 0.2677165354330709
          },
          {
            "duration": 0.125,
            "durationTicks": 96,
            "midi": 76,
            "name": "E5",
            "ticks": 165312,
            "time": 215.25,
            "velocity": 0.2677165354330709
          },
          {
            "duration": 0.125,
            "durationTicks": 96,
            "midi": 73,
            "name": "C#5",
            "ticks": 165312,
            "time": 215.25,
            "velocity": 0.2677165354330709
          },
          {
            "duration": 0.125,
            "durationTicks": 96,
            "midi": 69,
            "name": "A4",
            "ticks": 165312,
            "time": 215.25,
            "velocity": 0.2677165354330709
          },
          {
            "duration": 0.125,
            "durationTicks": 96,
            "midi": 69,
            "name": "A4",
            "ticks": 165504,
            "time": 215.5,
            "velocity": 0.2677165354330709
          },
          {
            "duration": 0.125,
            "durationTicks": 96,
            "midi": 73,
            "name": "C#5",
            "ticks": 165504,
            "time": 215.5,
            "velocity": 0.2677165354330709
          },
          {
            "duration": 0.125,
            "durationTicks": 96,
            "midi": 66,
            "name": "F#4",
            "ticks": 165504,
            "time": 215.5,
            "velocity": 0.2677165354330709
          },
          {
            "duration": 0.125,
            "durationTicks": 96,
            "midi": 78,
            "name": "F#5",
            "ticks": 165696,
            "time": 215.75,
            "velocity": 0.2677165354330709
          },
          {
            "duration": 0.125,
            "durationTicks": 96,
            "midi": 71,
            "name": "B4",
            "ticks": 165696,
            "time": 215.75,
            "velocity": 0.2677165354330709
          },
          {
            "duration": 0.125,
            "durationTicks": 96,
            "midi": 76,
            "name": "E5",
            "ticks": 165696,
            "time": 215.75,
            "velocity": 0.2677165354330709
          },
          {
            "duration": 0.125,
            "durationTicks": 96,
            "midi": 73,
            "name": "C#5",
            "ticks": 167424,
            "time": 218,
            "velocity": 0.2677165354330709
          },
          {
            "duration": 0.125,
            "durationTicks": 96,
            "midi": 64,
            "name": "E4",
            "ticks": 167424,
            "time": 218,
            "velocity": 0.2677165354330709
          },
          {
            "duration": 0.125,
            "durationTicks": 96,
            "midi": 68,
            "name": "G#4",
            "ticks": 167424,
            "time": 218,
            "velocity": 0.2677165354330709
          },
          {
            "duration": 0.125,
            "durationTicks": 96,
            "midi": 64,
            "name": "E4",
            "ticks": 167712,
            "time": 218.375,
            "velocity": 0.2677165354330709
          },
          {
            "duration": 0.125,
            "durationTicks": 96,
            "midi": 71,
            "name": "B4",
            "ticks": 167712,
            "time": 218.375,
            "velocity": 0.2677165354330709
          },
          {
            "duration": 0.125,
            "durationTicks": 96,
            "midi": 68,
            "name": "G#4",
            "ticks": 167712,
            "time": 218.375,
            "velocity": 0.2677165354330709
          },
          {
            "duration": 0.125,
            "durationTicks": 96,
            "midi": 64,
            "name": "E4",
            "ticks": 168960,
            "time": 220,
            "velocity": 0.2677165354330709
          },
          {
            "duration": 0.125,
            "durationTicks": 96,
            "midi": 71,
            "name": "B4",
            "ticks": 168960,
            "time": 220,
            "velocity": 0.2677165354330709
          },
          {
            "duration": 0.125,
            "durationTicks": 96,
            "midi": 68,
            "name": "G#4",
            "ticks": 168960,
            "time": 220,
            "velocity": 0.2677165354330709
          },
          {
            "duration": 0.125,
            "durationTicks": 96,
            "midi": 70,
            "name": "A#4",
            "ticks": 169344,
            "time": 220.5,
            "velocity": 0.2677165354330709
          },
          {
            "duration": 0.125,
            "durationTicks": 96,
            "midi": 61,
            "name": "C#4",
            "ticks": 169344,
            "time": 220.5,
            "velocity": 0.2677165354330709
          },
          {
            "duration": 0.125,
            "durationTicks": 96,
            "midi": 66,
            "name": "F#4",
            "ticks": 169344,
            "time": 220.5,
            "velocity": 0.2677165354330709
          },
          {
            "duration": 0.125,
            "durationTicks": 96,
            "midi": 64,
            "name": "E4",
            "ticks": 169728,
            "time": 221,
            "velocity": 0.2677165354330709
          },
          {
            "duration": 0.125,
            "durationTicks": 96,
            "midi": 68,
            "name": "G#4",
            "ticks": 169728,
            "time": 221,
            "velocity": 0.2677165354330709
          },
          {
            "duration": 0.125,
            "durationTicks": 96,
            "midi": 61,
            "name": "C#4",
            "ticks": 169728,
            "time": 221,
            "velocity": 0.2677165354330709
          },
          {
            "duration": 0.125,
            "durationTicks": 96,
            "midi": 61,
            "name": "C#4",
            "ticks": 170496,
            "time": 222,
            "velocity": 0.2677165354330709
          },
          {
            "duration": 0.125,
            "durationTicks": 96,
            "midi": 58,
            "name": "A#3",
            "ticks": 170496,
            "time": 222,
            "velocity": 0.2677165354330709
          },
          {
            "duration": 0.125,
            "durationTicks": 96,
            "midi": 66,
            "name": "F#4",
            "ticks": 170496,
            "time": 222,
            "velocity": 0.2677165354330709
          },
          {
            "duration": 0.125,
            "durationTicks": 96,
            "midi": 73,
            "name": "C#5",
            "ticks": 173568,
            "time": 226,
            "velocity": 0.2677165354330709
          },
          {
            "duration": 0.125,
            "durationTicks": 96,
            "midi": 64,
            "name": "E4",
            "ticks": 173568,
            "time": 226,
            "velocity": 0.2677165354330709
          },
          {
            "duration": 0.125,
            "durationTicks": 96,
            "midi": 68,
            "name": "G#4",
            "ticks": 173568,
            "time": 226,
            "velocity": 0.2677165354330709
          },
          {
            "duration": 0.125,
            "durationTicks": 96,
            "midi": 68,
            "name": "G#4",
            "ticks": 173856,
            "time": 226.375,
            "velocity": 0.2677165354330709
          },
          {
            "duration": 0.125,
            "durationTicks": 96,
            "midi": 64,
            "name": "E4",
            "ticks": 173856,
            "time": 226.375,
            "velocity": 0.2677165354330709
          },
          {
            "duration": 0.125,
            "durationTicks": 96,
            "midi": 71,
            "name": "B4",
            "ticks": 173856,
            "time": 226.375,
            "velocity": 0.2677165354330709
          },
          {
            "duration": 0.125,
            "durationTicks": 96,
            "midi": 71,
            "name": "B4",
            "ticks": 175104,
            "time": 228,
            "velocity": 0.2677165354330709
          },
          {
            "duration": 0.125,
            "durationTicks": 96,
            "midi": 68,
            "name": "G#4",
            "ticks": 175104,
            "time": 228,
            "velocity": 0.2677165354330709
          },
          {
            "duration": 0.125,
            "durationTicks": 96,
            "midi": 64,
            "name": "E4",
            "ticks": 175104,
            "time": 228,
            "velocity": 0.2677165354330709
          },
          {
            "duration": 0.125,
            "durationTicks": 96,
            "midi": 66,
            "name": "F#4",
            "ticks": 175488,
            "time": 228.5,
            "velocity": 0.2677165354330709
          },
          {
            "duration": 0.125,
            "durationTicks": 96,
            "midi": 61,
            "name": "C#4",
            "ticks": 175488,
            "time": 228.5,
            "velocity": 0.2677165354330709
          },
          {
            "duration": 0.125,
            "durationTicks": 96,
            "midi": 70,
            "name": "A#4",
            "ticks": 175488,
            "time": 228.5,
            "velocity": 0.2677165354330709
          },
          {
            "duration": 0.125,
            "durationTicks": 96,
            "midi": 64,
            "name": "E4",
            "ticks": 175872,
            "time": 229,
            "velocity": 0.2677165354330709
          },
          {
            "duration": 0.125,
            "durationTicks": 96,
            "midi": 68,
            "name": "G#4",
            "ticks": 175872,
            "time": 229,
            "velocity": 0.2677165354330709
          },
          {
            "duration": 0.125,
            "durationTicks": 96,
            "midi": 61,
            "name": "C#4",
            "ticks": 175872,
            "time": 229,
            "velocity": 0.2677165354330709
          },
          {
            "duration": 0.125,
            "durationTicks": 96,
            "midi": 66,
            "name": "F#4",
            "ticks": 176640,
            "time": 230,
            "velocity": 0.2677165354330709
          },
          {
            "duration": 0.125,
            "durationTicks": 96,
            "midi": 61,
            "name": "C#4",
            "ticks": 176640,
            "time": 230,
            "velocity": 0.2677165354330709
          },
          {
            "duration": 0.125,
            "durationTicks": 96,
            "midi": 58,
            "name": "A#3",
            "ticks": 176640,
            "time": 230,
            "velocity": 0.2677165354330709
          },
          {
            "duration": 0.125,
            "durationTicks": 96,
            "midi": 64,
            "name": "E4",
            "ticks": 178368,
            "time": 232.25,
            "velocity": 0.2677165354330709
          },
          {
            "duration": 0.125,
            "durationTicks": 96,
            "midi": 61,
            "name": "C#4",
            "ticks": 178368,
            "time": 232.25,
            "velocity": 0.2677165354330709
          },
          {
            "duration": 0.125,
            "durationTicks": 96,
            "midi": 57,
            "name": "A3",
            "ticks": 178368,
            "time": 232.25,
            "velocity": 0.2677165354330709
          },
          {
            "duration": 0.125,
            "durationTicks": 96,
            "midi": 61,
            "name": "C#4",
            "ticks": 178560,
            "time": 232.5,
            "velocity": 0.2677165354330709
          },
          {
            "duration": 0.125,
            "durationTicks": 96,
            "midi": 54,
            "name": "F#3",
            "ticks": 178560,
            "time": 232.5,
            "velocity": 0.2677165354330709
          },
          {
            "duration": 0.125,
            "durationTicks": 96,
            "midi": 57,
            "name": "A3",
            "ticks": 178560,
            "time": 232.5,
            "velocity": 0.2677165354330709
          },
          {
            "duration": 0.125,
            "durationTicks": 96,
            "midi": 67,
            "name": "G4",
            "ticks": 178944,
            "time": 233,
            "velocity": 0.2677165354330709
          },
          {
            "duration": 0.125,
            "durationTicks": 96,
            "midi": 64,
            "name": "E4",
            "ticks": 178944,
            "time": 233,
            "velocity": 0.2677165354330709
          },
          {
            "duration": 0.125,
            "durationTicks": 96,
            "midi": 61,
            "name": "C#4",
            "ticks": 178944,
            "time": 233,
            "velocity": 0.2677165354330709
          },
          {
            "duration": 0.125,
            "durationTicks": 96,
            "midi": 61,
            "name": "C#4",
            "ticks": 179136,
            "time": 233.25,
            "velocity": 0.2677165354330709
          },
          {
            "duration": 0.125,
            "durationTicks": 96,
            "midi": 58,
            "name": "A#3",
            "ticks": 179136,
            "time": 233.25,
            "velocity": 0.2677165354330709
          },
          {
            "duration": 0.125,
            "durationTicks": 96,
            "midi": 64,
            "name": "E4",
            "ticks": 179136,
            "time": 233.25,
            "velocity": 0.2677165354330709
          },
          {
            "duration": 0.25,
            "durationTicks": 192,
            "midi": 78,
            "name": "F#5",
            "ticks": 210624,
            "time": 274.25,
            "velocity": 0.1732283464566929
          },
          {
            "duration": 0.25,
            "durationTicks": 192,
            "midi": 76,
            "name": "E5",
            "ticks": 210912,
            "time": 274.625,
            "velocity": 0.1732283464566929
          },
          {
            "duration": 0.75,
            "durationTicks": 576,
            "midi": 73,
            "name": "C#5",
            "ticks": 211200,
            "time": 275,
            "velocity": 0.1732283464566929
          },
          {
            "duration": 0.125,
            "durationTicks": 96,
            "midi": 67,
            "name": "G4",
            "ticks": 213312,
            "time": 277.75,
            "velocity": 0.2047244094488189
          },
          {
            "duration": 0.25,
            "durationTicks": 192,
            "midi": 66,
            "name": "F#4",
            "ticks": 213408,
            "time": 277.875,
            "velocity": 0.2047244094488189
          },
          {
            "duration": 0.625,
            "durationTicks": 480,
            "midi": 66,
            "name": "F#4",
            "ticks": 213552,
            "time": 278.0625,
            "velocity": 0.2047244094488189
          },
          {
            "duration": 0.75,
            "durationTicks": 576,
            "midi": 61,
            "name": "C#4",
            "ticks": 214080,
            "time": 278.75,
            "velocity": 0.1732283464566929
          },
          {
            "duration": 0.625,
            "durationTicks": 480,
            "midi": 64,
            "name": "E4",
            "ticks": 214608,
            "time": 279.4375,
            "velocity": 0.13385826771653545
          },
          {
            "duration": 0.25,
            "durationTicks": 192,
            "midi": 67,
            "name": "G4",
            "ticks": 216000,
            "time": 281.25,
            "velocity": 0.2047244094488189
          },
          {
            "duration": 0.5,
            "durationTicks": 384,
            "midi": 64,
            "name": "E4",
            "ticks": 216288,
            "time": 281.625,
            "velocity": 0.2047244094488189
          },
          {
            "duration": 0.625,
            "durationTicks": 480,
            "midi": 61,
            "name": "C#4",
            "ticks": 216672,
            "time": 282.125,
            "velocity": 0.1732283464566929
          },
          {
            "duration": 0.375,
            "durationTicks": 288,
            "midi": 78,
            "name": "F#5",
            "ticks": 217536,
            "time": 283.25,
            "velocity": 0.2047244094488189
          },
          {
            "duration": 0.375,
            "durationTicks": 288,
            "midi": 76,
            "name": "E5",
            "ticks": 217824,
            "time": 283.625,
            "velocity": 0.2047244094488189
          },
          {
            "duration": 0.625,
            "durationTicks": 480,
            "midi": 73,
            "name": "C#5",
            "ticks": 218112,
            "time": 284,
            "velocity": 0.2047244094488189
          },
          {
            "duration": 0.375,
            "durationTicks": 288,
            "midi": 78,
            "name": "F#5",
            "ticks": 219072,
            "time": 285.25,
            "velocity": 0.2047244094488189
          },
          {
            "duration": 0.375,
            "durationTicks": 288,
            "midi": 76,
            "name": "E5",
            "ticks": 219360,
            "time": 285.625,
            "velocity": 0.2047244094488189
          },
          {
            "duration": 0.5,
            "durationTicks": 384,
            "midi": 73,
            "name": "C#5",
            "ticks": 219648,
            "time": 286,
            "velocity": 0.2047244094488189
          },
          {
            "duration": 0.375,
            "durationTicks": 288,
            "midi": 78,
            "name": "F#5",
            "ticks": 239808,
            "time": 312.25,
            "velocity": 0.13385826771653545
          },
          {
            "duration": 0.375,
            "durationTicks": 288,
            "midi": 76,
            "name": "E5",
            "ticks": 240096,
            "time": 312.625,
            "velocity": 0.13385826771653545
          },
          {
            "duration": 0.625,
            "durationTicks": 480,
            "midi": 73,
            "name": "C#5",
            "ticks": 240384,
            "time": 313,
            "velocity": 0.13385826771653545
          },
          {
            "duration": 0.375,
            "durationTicks": 288,
            "midi": 78,
            "name": "F#5",
            "ticks": 245952,
            "time": 320.25,
            "velocity": 0.13385826771653545
          },
          {
            "duration": 0.375,
            "durationTicks": 288,
            "midi": 77,
            "name": "F5",
            "ticks": 246240,
            "time": 320.625,
            "velocity": 0.13385826771653545
          },
          {
            "duration": 0.5,
            "durationTicks": 384,
            "midi": 73,
            "name": "C#5",
            "ticks": 246528,
            "time": 321,
            "velocity": 0.13385826771653545
          }
        ],
        "endOfTrackTicks": 246912
      },
      {
        "channel": 7,
        "controlChanges": {},
        "pitchBends": [],
        "instrument": {
          "family": "brass",
          "number": 60,
          "name": "french horn"
        },
        "name": "French Horn",
        "notes": [
          {
            "duration": 0.125,
            "durationTicks": 96,
            "midi": 67,
            "name": "G4",
            "ticks": 66048,
            "time": 86,
            "velocity": 0.4330708661417323
          },
          {
            "duration": 0.125,
            "durationTicks": 96,
            "midi": 79,
            "name": "G5",
            "ticks": 66048,
            "time": 86,
            "velocity": 0.4330708661417323
          },
          {
            "duration": 0.125,
            "durationTicks": 96,
            "midi": 55,
            "name": "G3",
            "ticks": 66048,
            "time": 86,
            "velocity": 0.4330708661417323
          },
          {
            "duration": 0.125,
            "durationTicks": 96,
            "midi": 52,
            "name": "E3",
            "ticks": 66624,
            "time": 86.75,
            "velocity": 0.4330708661417323
          },
          {
            "duration": 0.125,
            "durationTicks": 96,
            "midi": 76,
            "name": "E5",
            "ticks": 66624,
            "time": 86.75,
            "velocity": 0.4330708661417323
          },
          {
            "duration": 0.125,
            "durationTicks": 96,
            "midi": 64,
            "name": "E4",
            "ticks": 66624,
            "time": 86.75,
            "velocity": 0.4330708661417323
          },
          {
            "duration": 0.125,
            "durationTicks": 96,
            "midi": 64,
            "name": "E4",
            "ticks": 67200,
            "time": 87.5,
            "velocity": 0.4330708661417323
          },
          {
            "duration": 0.125,
            "durationTicks": 96,
            "midi": 76,
            "name": "E5",
            "ticks": 67200,
            "time": 87.5,
            "velocity": 0.4330708661417323
          },
          {
            "duration": 0.125,
            "durationTicks": 96,
            "midi": 52,
            "name": "E3",
            "ticks": 67200,
            "time": 87.5,
            "velocity": 0.4330708661417323
          },
          {
            "duration": 0.125,
            "durationTicks": 96,
            "midi": 56,
            "name": "G#3",
            "ticks": 73344,
            "time": 95.5,
            "velocity": 0.3464566929133858
          },
          {
            "duration": 0.125,
            "durationTicks": 96,
            "midi": 68,
            "name": "G#4",
            "ticks": 73344,
            "time": 95.5,
            "velocity": 0.3464566929133858
          },
          {
            "duration": 0.125,
            "durationTicks": 96,
            "midi": 59,
            "name": "B3",
            "ticks": 73440,
            "time": 95.625,
            "velocity": 0.3464566929133858
          },
          {
            "duration": 0.125,
            "durationTicks": 96,
            "midi": 71,
            "name": "B4",
            "ticks": 73440,
            "time": 95.625,
            "velocity": 0.3464566929133858
          },
          {
            "duration": 0.125,
            "durationTicks": 96,
            "midi": 61,
            "name": "C#4",
            "ticks": 73632,
            "time": 95.875,
            "velocity": 0.3464566929133858
          },
          {
            "duration": 0.125,
            "durationTicks": 96,
            "midi": 73,
            "name": "C#5",
            "ticks": 73632,
            "time": 95.875,
            "velocity": 0.3464566929133858
          },
          {
            "duration": 0.125,
            "durationTicks": 96,
            "midi": 76,
            "name": "E5",
            "ticks": 79296,
            "time": 103.25,
            "velocity": 0.25984251968503935
          },
          {
            "duration": 0.125,
            "durationTicks": 96,
            "midi": 64,
            "name": "E4",
            "ticks": 79296,
            "time": 103.25,
            "velocity": 0.25984251968503935
          },
          {
            "duration": 0.125,
            "durationTicks": 96,
            "midi": 61,
            "name": "C#4",
            "ticks": 79392,
            "time": 103.375,
            "velocity": 0.25984251968503935
          },
          {
            "duration": 0.125,
            "durationTicks": 96,
            "midi": 73,
            "name": "C#5",
            "ticks": 79392,
            "time": 103.375,
            "velocity": 0.25984251968503935
          },
          {
            "duration": 0.125,
            "durationTicks": 96,
            "midi": 59,
            "name": "B3",
            "ticks": 79680,
            "time": 103.75,
            "velocity": 0.25984251968503935
          },
          {
            "duration": 0.125,
            "durationTicks": 96,
            "midi": 71,
            "name": "B4",
            "ticks": 79680,
            "time": 103.75,
            "velocity": 0.25984251968503935
          },
          {
            "duration": 0.125,
            "durationTicks": 96,
            "midi": 68,
            "name": "G#4",
            "ticks": 79776,
            "time": 103.875,
            "velocity": 0.25984251968503935
          },
          {
            "duration": 0.125,
            "durationTicks": 96,
            "midi": 56,
            "name": "G#3",
            "ticks": 79776,
            "time": 103.875,
            "velocity": 0.25984251968503935
          },
          {
            "duration": 0.125,
            "durationTicks": 96,
            "midi": 64,
            "name": "E4",
            "ticks": 85056,
            "time": 110.75,
            "velocity": 0.25984251968503935
          },
          {
            "duration": 0.125,
            "durationTicks": 96,
            "midi": 76,
            "name": "E5",
            "ticks": 85056,
            "time": 110.75,
            "velocity": 0.25984251968503935
          },
          {
            "duration": 0.125,
            "durationTicks": 96,
            "midi": 61,
            "name": "C#4",
            "ticks": 85152,
            "time": 110.875,
            "velocity": 0.25984251968503935
          },
          {
            "duration": 0.125,
            "durationTicks": 96,
            "midi": 73,
            "name": "C#5",
            "ticks": 85152,
            "time": 110.875,
            "velocity": 0.25984251968503935
          },
          {
            "duration": 0.125,
            "durationTicks": 96,
            "midi": 76,
            "name": "E5",
            "ticks": 98688,
            "time": 128.5,
            "velocity": 0.3464566929133858
          },
          {
            "duration": 0.125,
            "durationTicks": 96,
            "midi": 64,
            "name": "E4",
            "ticks": 98688,
            "time": 128.5,
            "velocity": 0.3464566929133858
          },
          {
            "duration": 0.125,
            "durationTicks": 96,
            "midi": 66,
            "name": "F#4",
            "ticks": 98784,
            "time": 128.625,
            "velocity": 0.3464566929133858
          },
          {
            "duration": 0.125,
            "durationTicks": 96,
            "midi": 78,
            "name": "F#5",
            "ticks": 98784,
            "time": 128.625,
            "velocity": 0.3464566929133858
          },
          {
            "duration": 0.125,
            "durationTicks": 96,
            "midi": 76,
            "name": "E5",
            "ticks": 98880,
            "time": 128.75,
            "velocity": 0.3464566929133858
          },
          {
            "duration": 0.125,
            "durationTicks": 96,
            "midi": 64,
            "name": "E4",
            "ticks": 98880,
            "time": 128.75,
            "velocity": 0.3464566929133858
          },
          {
            "duration": 0.125,
            "durationTicks": 96,
            "midi": 61,
            "name": "C#4",
            "ticks": 98976,
            "time": 128.875,
            "velocity": 0.3464566929133858
          },
          {
            "duration": 0.125,
            "durationTicks": 96,
            "midi": 73,
            "name": "C#5",
            "ticks": 98976,
            "time": 128.875,
            "velocity": 0.3464566929133858
          },
          {
            "duration": 0.125,
            "durationTicks": 96,
            "midi": 76,
            "name": "E5",
            "ticks": 100608,
            "time": 131,
            "velocity": 0.3464566929133858
          },
          {
            "duration": 0.125,
            "durationTicks": 96,
            "midi": 64,
            "name": "E4",
            "ticks": 100608,
            "time": 131,
            "velocity": 0.3464566929133858
          },
          {
            "duration": 0.125,
            "durationTicks": 96,
            "midi": 66,
            "name": "F#4",
            "ticks": 100704,
            "time": 131.125,
            "velocity": 0.3464566929133858
          },
          {
            "duration": 0.125,
            "durationTicks": 96,
            "midi": 78,
            "name": "F#5",
            "ticks": 100704,
            "time": 131.125,
            "velocity": 0.3464566929133858
          },
          {
            "duration": 0.125,
            "durationTicks": 96,
            "midi": 64,
            "name": "E4",
            "ticks": 100800,
            "time": 131.25,
            "velocity": 0.3464566929133858
          },
          {
            "duration": 0.125,
            "durationTicks": 96,
            "midi": 76,
            "name": "E5",
            "ticks": 100800,
            "time": 131.25,
            "velocity": 0.3464566929133858
          },
          {
            "duration": 0.125,
            "durationTicks": 96,
            "midi": 61,
            "name": "C#4",
            "ticks": 100896,
            "time": 131.375,
            "velocity": 0.3464566929133858
          },
          {
            "duration": 0.125,
            "durationTicks": 96,
            "midi": 73,
            "name": "C#5",
            "ticks": 100896,
            "time": 131.375,
            "velocity": 0.3464566929133858
          },
          {
            "duration": 0.125,
            "durationTicks": 96,
            "midi": 76,
            "name": "E5",
            "ticks": 100992,
            "time": 131.5,
            "velocity": 0.3464566929133858
          },
          {
            "duration": 0.125,
            "durationTicks": 96,
            "midi": 64,
            "name": "E4",
            "ticks": 100992,
            "time": 131.5,
            "velocity": 0.3464566929133858
          },
          {
            "duration": 0.125,
            "durationTicks": 96,
            "midi": 66,
            "name": "F#4",
            "ticks": 101088,
            "time": 131.625,
            "velocity": 0.3464566929133858
          },
          {
            "duration": 0.125,
            "durationTicks": 96,
            "midi": 78,
            "name": "F#5",
            "ticks": 101088,
            "time": 131.625,
            "velocity": 0.3464566929133858
          },
          {
            "duration": 0.125,
            "durationTicks": 96,
            "midi": 76,
            "name": "E5",
            "ticks": 101184,
            "time": 131.75,
            "velocity": 0.3464566929133858
          },
          {
            "duration": 0.125,
            "durationTicks": 96,
            "midi": 64,
            "name": "E4",
            "ticks": 101184,
            "time": 131.75,
            "velocity": 0.3464566929133858
          },
          {
            "duration": 0.125,
            "durationTicks": 96,
            "midi": 61,
            "name": "C#4",
            "ticks": 101280,
            "time": 131.875,
            "velocity": 0.3464566929133858
          },
          {
            "duration": 0.125,
            "durationTicks": 96,
            "midi": 73,
            "name": "C#5",
            "ticks": 101280,
            "time": 131.875,
            "velocity": 0.3464566929133858
          },
          {
            "duration": 0.125,
            "durationTicks": 96,
            "midi": 64,
            "name": "E4",
            "ticks": 104832,
            "time": 136.5,
            "velocity": 0.3464566929133858
          },
          {
            "duration": 0.125,
            "durationTicks": 96,
            "midi": 76,
            "name": "E5",
            "ticks": 104832,
            "time": 136.5,
            "velocity": 0.3464566929133858
          },
          {
            "duration": 0.125,
            "durationTicks": 96,
            "midi": 78,
            "name": "F#5",
            "ticks": 104928,
            "time": 136.625,
            "velocity": 0.3464566929133858
          },
          {
            "duration": 0.125,
            "durationTicks": 96,
            "midi": 66,
            "name": "F#4",
            "ticks": 104928,
            "time": 136.625,
            "velocity": 0.3464566929133858
          },
          {
            "duration": 0.125,
            "durationTicks": 96,
            "midi": 76,
            "name": "E5",
            "ticks": 105024,
            "time": 136.75,
            "velocity": 0.3464566929133858
          },
          {
            "duration": 0.125,
            "durationTicks": 96,
            "midi": 64,
            "name": "E4",
            "ticks": 105024,
            "time": 136.75,
            "velocity": 0.3464566929133858
          },
          {
            "duration": 0.125,
            "durationTicks": 96,
            "midi": 73,
            "name": "C#5",
            "ticks": 105120,
            "time": 136.875,
            "velocity": 0.3464566929133858
          },
          {
            "duration": 0.125,
            "durationTicks": 96,
            "midi": 61,
            "name": "C#4",
            "ticks": 105120,
            "time": 136.875,
            "velocity": 0.3464566929133858
          },
          {
            "duration": 0.125,
            "durationTicks": 96,
            "midi": 76,
            "name": "E5",
            "ticks": 106752,
            "time": 139,
            "velocity": 0.3464566929133858
          },
          {
            "duration": 0.125,
            "durationTicks": 96,
            "midi": 64,
            "name": "E4",
            "ticks": 106752,
            "time": 139,
            "velocity": 0.3464566929133858
          },
          {
            "duration": 0.125,
            "durationTicks": 96,
            "midi": 78,
            "name": "F#5",
            "ticks": 106848,
            "time": 139.125,
            "velocity": 0.3464566929133858
          },
          {
            "duration": 0.125,
            "durationTicks": 96,
            "midi": 66,
            "name": "F#4",
            "ticks": 106848,
            "time": 139.125,
            "velocity": 0.3464566929133858
          },
          {
            "duration": 0.125,
            "durationTicks": 96,
            "midi": 64,
            "name": "E4",
            "ticks": 106944,
            "time": 139.25,
            "velocity": 0.3464566929133858
          },
          {
            "duration": 0.125,
            "durationTicks": 96,
            "midi": 76,
            "name": "E5",
            "ticks": 106944,
            "time": 139.25,
            "velocity": 0.3464566929133858
          },
          {
            "duration": 0.125,
            "durationTicks": 96,
            "midi": 61,
            "name": "C#4",
            "ticks": 107040,
            "time": 139.375,
            "velocity": 0.3464566929133858
          },
          {
            "duration": 0.125,
            "durationTicks": 96,
            "midi": 73,
            "name": "C#5",
            "ticks": 107040,
            "time": 139.375,
            "velocity": 0.3464566929133858
          },
          {
            "duration": 0.125,
            "durationTicks": 96,
            "midi": 76,
            "name": "E5",
            "ticks": 107136,
            "time": 139.5,
            "velocity": 0.3464566929133858
          },
          {
            "duration": 0.125,
            "durationTicks": 96,
            "midi": 64,
            "name": "E4",
            "ticks": 107136,
            "time": 139.5,
            "velocity": 0.3464566929133858
          },
          {
            "duration": 0.125,
            "durationTicks": 96,
            "midi": 66,
            "name": "F#4",
            "ticks": 107232,
            "time": 139.625,
            "velocity": 0.3464566929133858
          },
          {
            "duration": 0.125,
            "durationTicks": 96,
            "midi": 78,
            "name": "F#5",
            "ticks": 107232,
            "time": 139.625,
            "velocity": 0.3464566929133858
          },
          {
            "duration": 0.125,
            "durationTicks": 96,
            "midi": 64,
            "name": "E4",
            "ticks": 107328,
            "time": 139.75,
            "velocity": 0.3464566929133858
          },
          {
            "duration": 0.125,
            "durationTicks": 96,
            "midi": 76,
            "name": "E5",
            "ticks": 107328,
            "time": 139.75,
            "velocity": 0.3464566929133858
          },
          {
            "duration": 0.125,
            "durationTicks": 96,
            "midi": 61,
            "name": "C#4",
            "ticks": 107424,
            "time": 139.875,
            "velocity": 0.3464566929133858
          },
          {
            "duration": 0.125,
            "durationTicks": 96,
            "midi": 73,
            "name": "C#5",
            "ticks": 107424,
            "time": 139.875,
            "velocity": 0.3464566929133858
          },
          {
            "duration": 0.125,
            "durationTicks": 96,
            "midi": 79,
            "name": "G5",
            "ticks": 109056,
            "time": 142,
            "velocity": 0.4330708661417323
          },
          {
            "duration": 0.125,
            "durationTicks": 96,
            "midi": 55,
            "name": "G3",
            "ticks": 109056,
            "time": 142,
            "velocity": 0.4330708661417323
          },
          {
            "duration": 0.125,
            "durationTicks": 96,
            "midi": 67,
            "name": "G4",
            "ticks": 109056,
            "time": 142,
            "velocity": 0.4330708661417323
          },
          {
            "duration": 0.125,
            "durationTicks": 96,
            "midi": 76,
            "name": "E5",
            "ticks": 109632,
            "time": 142.75,
            "velocity": 0.4330708661417323
          },
          {
            "duration": 0.125,
            "durationTicks": 96,
            "midi": 64,
            "name": "E4",
            "ticks": 109632,
            "time": 142.75,
            "velocity": 0.4330708661417323
          },
          {
            "duration": 0.125,
            "durationTicks": 96,
            "midi": 52,
            "name": "E3",
            "ticks": 109632,
            "time": 142.75,
            "velocity": 0.4330708661417323
          },
          {
            "duration": 0.125,
            "durationTicks": 96,
            "midi": 76,
            "name": "E5",
            "ticks": 110208,
            "time": 143.5,
            "velocity": 0.4330708661417323
          },
          {
            "duration": 0.125,
            "durationTicks": 96,
            "midi": 64,
            "name": "E4",
            "ticks": 110208,
            "time": 143.5,
            "velocity": 0.4330708661417323
          },
          {
            "duration": 0.125,
            "durationTicks": 96,
            "midi": 52,
            "name": "E3",
            "ticks": 110208,
            "time": 143.5,
            "velocity": 0.4330708661417323
          },
          {
            "duration": 0.125,
            "durationTicks": 96,
            "midi": 49,
            "name": "C#3",
            "ticks": 124608,
            "time": 162.25,
            "velocity": 0.4330708661417323
          },
          {
            "duration": 0.125,
            "durationTicks": 96,
            "midi": 61,
            "name": "C#4",
            "ticks": 124608,
            "time": 162.25,
            "velocity": 0.4330708661417323
          },
          {
            "duration": 0.125,
            "durationTicks": 96,
            "midi": 73,
            "name": "C#5",
            "ticks": 124608,
            "time": 162.25,
            "velocity": 0.4330708661417323
          },
          {
            "duration": 0.125,
            "durationTicks": 96,
            "midi": 61,
            "name": "C#4",
            "ticks": 124896,
            "time": 162.625,
            "velocity": 0.4330708661417323
          },
          {
            "duration": 0.125,
            "durationTicks": 96,
            "midi": 49,
            "name": "C#3",
            "ticks": 124896,
            "time": 162.625,
            "velocity": 0.4330708661417323
          },
          {
            "duration": 0.125,
            "durationTicks": 96,
            "midi": 73,
            "name": "C#5",
            "ticks": 124896,
            "time": 162.625,
            "velocity": 0.4330708661417323
          },
          {
            "duration": 0.125,
            "durationTicks": 96,
            "midi": 51,
            "name": "D#3",
            "ticks": 125184,
            "time": 163,
            "velocity": 0.4330708661417323
          },
          {
            "duration": 0.125,
            "durationTicks": 96,
            "midi": 63,
            "name": "D#4",
            "ticks": 125184,
            "time": 163,
            "velocity": 0.4330708661417323
          },
          {
            "duration": 0.125,
            "durationTicks": 96,
            "midi": 75,
            "name": "D#5",
            "ticks": 125184,
            "time": 163,
            "velocity": 0.4330708661417323
          },
          {
            "duration": 0.125,
            "durationTicks": 96,
            "midi": 54,
            "name": "F#3",
            "ticks": 125472,
            "time": 163.375,
            "velocity": 0.4330708661417323
          },
          {
            "duration": 0.125,
            "durationTicks": 96,
            "midi": 66,
            "name": "F#4",
            "ticks": 125472,
            "time": 163.375,
            "velocity": 0.4330708661417323
          },
          {
            "duration": 0.125,
            "durationTicks": 96,
            "midi": 78,
            "name": "F#5",
            "ticks": 125472,
            "time": 163.375,
            "velocity": 0.4330708661417323
          },
          {
            "duration": 0.125,
            "durationTicks": 96,
            "midi": 56,
            "name": "G#3",
            "ticks": 125760,
            "time": 163.75,
            "velocity": 0.4330708661417323
          },
          {
            "duration": 0.125,
            "durationTicks": 96,
            "midi": 68,
            "name": "G#4",
            "ticks": 125760,
            "time": 163.75,
            "velocity": 0.4330708661417323
          },
          {
            "duration": 0.125,
            "durationTicks": 96,
            "midi": 80,
            "name": "G#5",
            "ticks": 125760,
            "time": 163.75,
            "velocity": 0.4330708661417323
          },
          {
            "duration": 0.125,
            "durationTicks": 96,
            "midi": 76,
            "name": "E5",
            "ticks": 126912,
            "time": 165.25,
            "velocity": 0.4330708661417323
          },
          {
            "duration": 0.125,
            "durationTicks": 96,
            "midi": 64,
            "name": "E4",
            "ticks": 126912,
            "time": 165.25,
            "velocity": 0.4330708661417323
          },
          {
            "duration": 0.125,
            "durationTicks": 96,
            "midi": 52,
            "name": "E3",
            "ticks": 126912,
            "time": 165.25,
            "velocity": 0.4330708661417323
          },
          {
            "duration": 0.125,
            "durationTicks": 96,
            "midi": 49,
            "name": "C#3",
            "ticks": 127104,
            "time": 165.5,
            "velocity": 0.4330708661417323
          },
          {
            "duration": 0.125,
            "durationTicks": 96,
            "midi": 61,
            "name": "C#4",
            "ticks": 127104,
            "time": 165.5,
            "velocity": 0.4330708661417323
          },
          {
            "duration": 0.125,
            "durationTicks": 96,
            "midi": 73,
            "name": "C#5",
            "ticks": 127104,
            "time": 165.5,
            "velocity": 0.4330708661417323
          },
          {
            "duration": 0.125,
            "durationTicks": 96,
            "midi": 59,
            "name": "B3",
            "ticks": 127200,
            "time": 165.625,
            "velocity": 0.4330708661417323
          },
          {
            "duration": 0.125,
            "durationTicks": 96,
            "midi": 71,
            "name": "B4",
            "ticks": 127200,
            "time": 165.625,
            "velocity": 0.4330708661417323
          },
          {
            "duration": 0.125,
            "durationTicks": 96,
            "midi": 47,
            "name": "B2",
            "ticks": 127200,
            "time": 165.625,
            "velocity": 0.4330708661417323
          },
          {
            "duration": 0.125,
            "durationTicks": 96,
            "midi": 61,
            "name": "C#4",
            "ticks": 127392,
            "time": 165.875,
            "velocity": 0.4330708661417323
          },
          {
            "duration": 0.125,
            "durationTicks": 96,
            "midi": 49,
            "name": "C#3",
            "ticks": 127392,
            "time": 165.875,
            "velocity": 0.4330708661417323
          },
          {
            "duration": 0.125,
            "durationTicks": 96,
            "midi": 73,
            "name": "C#5",
            "ticks": 127392,
            "time": 165.875,
            "velocity": 0.4330708661417323
          },
          {
            "duration": 0.125,
            "durationTicks": 96,
            "midi": 76,
            "name": "E5",
            "ticks": 133056,
            "time": 173.25,
            "velocity": 0.25984251968503935
          },
          {
            "duration": 0.125,
            "durationTicks": 96,
            "midi": 64,
            "name": "E4",
            "ticks": 133056,
            "time": 173.25,
            "velocity": 0.25984251968503935
          },
          {
            "duration": 0.125,
            "durationTicks": 96,
            "midi": 61,
            "name": "C#4",
            "ticks": 133152,
            "time": 173.375,
            "velocity": 0.25984251968503935
          },
          {
            "duration": 0.125,
            "durationTicks": 96,
            "midi": 73,
            "name": "C#5",
            "ticks": 133152,
            "time": 173.375,
            "velocity": 0.25984251968503935
          },
          {
            "duration": 0.125,
            "durationTicks": 96,
            "midi": 71,
            "name": "B4",
            "ticks": 133440,
            "time": 173.75,
            "velocity": 0.25984251968503935
          },
          {
            "duration": 0.125,
            "durationTicks": 96,
            "midi": 59,
            "name": "B3",
            "ticks": 133440,
            "time": 173.75,
            "velocity": 0.25984251968503935
          },
          {
            "duration": 0.125,
            "durationTicks": 96,
            "midi": 68,
            "name": "G#4",
            "ticks": 133536,
            "time": 173.875,
            "velocity": 0.25984251968503935
          },
          {
            "duration": 0.125,
            "durationTicks": 96,
            "midi": 56,
            "name": "G#3",
            "ticks": 133536,
            "time": 173.875,
            "velocity": 0.25984251968503935
          },
          {
            "duration": 0.125,
            "durationTicks": 96,
            "midi": 76,
            "name": "E5",
            "ticks": 138816,
            "time": 180.75,
            "velocity": 0.25984251968503935
          },
          {
            "duration": 0.125,
            "durationTicks": 96,
            "midi": 64,
            "name": "E4",
            "ticks": 138816,
            "time": 180.75,
            "velocity": 0.25984251968503935
          },
          {
            "duration": 0.125,
            "durationTicks": 96,
            "midi": 61,
            "name": "C#4",
            "ticks": 138912,
            "time": 180.875,
            "velocity": 0.25984251968503935
          },
          {
            "duration": 0.125,
            "durationTicks": 96,
            "midi": 73,
            "name": "C#5",
            "ticks": 138912,
            "time": 180.875,
            "velocity": 0.25984251968503935
          },
          {
            "duration": 0.125,
            "durationTicks": 96,
            "midi": 64,
            "name": "E4",
            "ticks": 152448,
            "time": 198.5,
            "velocity": 0.3464566929133858
          },
          {
            "duration": 0.125,
            "durationTicks": 96,
            "midi": 76,
            "name": "E5",
            "ticks": 152448,
            "time": 198.5,
            "velocity": 0.3464566929133858
          },
          {
            "duration": 0.125,
            "durationTicks": 96,
            "midi": 66,
            "name": "F#4",
            "ticks": 152544,
            "time": 198.625,
            "velocity": 0.3464566929133858
          },
          {
            "duration": 0.125,
            "durationTicks": 96,
            "midi": 78,
            "name": "F#5",
            "ticks": 152544,
            "time": 198.625,
            "velocity": 0.3464566929133858
          },
          {
            "duration": 0.125,
            "durationTicks": 96,
            "midi": 64,
            "name": "E4",
            "ticks": 152640,
            "time": 198.75,
            "velocity": 0.3464566929133858
          },
          {
            "duration": 0.125,
            "durationTicks": 96,
            "midi": 76,
            "name": "E5",
            "ticks": 152640,
            "time": 198.75,
            "velocity": 0.3464566929133858
          },
          {
            "duration": 0.125,
            "durationTicks": 96,
            "midi": 73,
            "name": "C#5",
            "ticks": 152736,
            "time": 198.875,
            "velocity": 0.3464566929133858
          },
          {
            "duration": 0.125,
            "durationTicks": 96,
            "midi": 61,
            "name": "C#4",
            "ticks": 152736,
            "time": 198.875,
            "velocity": 0.3464566929133858
          },
          {
            "duration": 0.125,
            "durationTicks": 96,
            "midi": 76,
            "name": "E5",
            "ticks": 154368,
            "time": 201,
            "velocity": 0.3464566929133858
          },
          {
            "duration": 0.125,
            "durationTicks": 96,
            "midi": 64,
            "name": "E4",
            "ticks": 154368,
            "time": 201,
            "velocity": 0.3464566929133858
          },
          {
            "duration": 0.125,
            "durationTicks": 96,
            "midi": 78,
            "name": "F#5",
            "ticks": 154464,
            "time": 201.125,
            "velocity": 0.3464566929133858
          },
          {
            "duration": 0.125,
            "durationTicks": 96,
            "midi": 66,
            "name": "F#4",
            "ticks": 154464,
            "time": 201.125,
            "velocity": 0.3464566929133858
          },
          {
            "duration": 0.125,
            "durationTicks": 96,
            "midi": 64,
            "name": "E4",
            "ticks": 154560,
            "time": 201.25,
            "velocity": 0.3464566929133858
          },
          {
            "duration": 0.125,
            "durationTicks": 96,
            "midi": 76,
            "name": "E5",
            "ticks": 154560,
            "time": 201.25,
            "velocity": 0.3464566929133858
          },
          {
            "duration": 0.125,
            "durationTicks": 96,
            "midi": 73,
            "name": "C#5",
            "ticks": 154656,
            "time": 201.375,
            "velocity": 0.3464566929133858
          },
          {
            "duration": 0.125,
            "durationTicks": 96,
            "midi": 61,
            "name": "C#4",
            "ticks": 154656,
            "time": 201.375,
            "velocity": 0.3464566929133858
          },
          {
            "duration": 0.125,
            "durationTicks": 96,
            "midi": 64,
            "name": "E4",
            "ticks": 154752,
            "time": 201.5,
            "velocity": 0.3464566929133858
          },
          {
            "duration": 0.125,
            "durationTicks": 96,
            "midi": 76,
            "name": "E5",
            "ticks": 154752,
            "time": 201.5,
            "velocity": 0.3464566929133858
          },
          {
            "duration": 0.125,
            "durationTicks": 96,
            "midi": 66,
            "name": "F#4",
            "ticks": 154848,
            "time": 201.625,
            "velocity": 0.3464566929133858
          },
          {
            "duration": 0.125,
            "durationTicks": 96,
            "midi": 78,
            "name": "F#5",
            "ticks": 154848,
            "time": 201.625,
            "velocity": 0.3464566929133858
          },
          {
            "duration": 0.125,
            "durationTicks": 96,
            "midi": 64,
            "name": "E4",
            "ticks": 154944,
            "time": 201.75,
            "velocity": 0.3464566929133858
          },
          {
            "duration": 0.125,
            "durationTicks": 96,
            "midi": 76,
            "name": "E5",
            "ticks": 154944,
            "time": 201.75,
            "velocity": 0.3464566929133858
          },
          {
            "duration": 0.125,
            "durationTicks": 96,
            "midi": 61,
            "name": "C#4",
            "ticks": 155040,
            "time": 201.875,
            "velocity": 0.3464566929133858
          },
          {
            "duration": 0.125,
            "durationTicks": 96,
            "midi": 73,
            "name": "C#5",
            "ticks": 155040,
            "time": 201.875,
            "velocity": 0.3464566929133858
          },
          {
            "duration": 0.125,
            "durationTicks": 96,
            "midi": 64,
            "name": "E4",
            "ticks": 158592,
            "time": 206.5,
            "velocity": 0.3464566929133858
          },
          {
            "duration": 0.125,
            "durationTicks": 96,
            "midi": 76,
            "name": "E5",
            "ticks": 158592,
            "time": 206.5,
            "velocity": 0.3464566929133858
          },
          {
            "duration": 0.125,
            "durationTicks": 96,
            "midi": 66,
            "name": "F#4",
            "ticks": 158688,
            "time": 206.625,
            "velocity": 0.3464566929133858
          },
          {
            "duration": 0.125,
            "durationTicks": 96,
            "midi": 78,
            "name": "F#5",
            "ticks": 158688,
            "time": 206.625,
            "velocity": 0.3464566929133858
          },
          {
            "duration": 0.125,
            "durationTicks": 96,
            "midi": 64,
            "name": "E4",
            "ticks": 158784,
            "time": 206.75,
            "velocity": 0.3464566929133858
          },
          {
            "duration": 0.125,
            "durationTicks": 96,
            "midi": 76,
            "name": "E5",
            "ticks": 158784,
            "time": 206.75,
            "velocity": 0.3464566929133858
          },
          {
            "duration": 0.125,
            "durationTicks": 96,
            "midi": 61,
            "name": "C#4",
            "ticks": 158880,
            "time": 206.875,
            "velocity": 0.3464566929133858
          },
          {
            "duration": 0.125,
            "durationTicks": 96,
            "midi": 73,
            "name": "C#5",
            "ticks": 158880,
            "time": 206.875,
            "velocity": 0.3464566929133858
          },
          {
            "duration": 0.125,
            "durationTicks": 96,
            "midi": 64,
            "name": "E4",
            "ticks": 160512,
            "time": 209,
            "velocity": 0.3464566929133858
          },
          {
            "duration": 0.125,
            "durationTicks": 96,
            "midi": 76,
            "name": "E5",
            "ticks": 160512,
            "time": 209,
            "velocity": 0.3464566929133858
          },
          {
            "duration": 0.125,
            "durationTicks": 96,
            "midi": 66,
            "name": "F#4",
            "ticks": 160608,
            "time": 209.125,
            "velocity": 0.3464566929133858
          },
          {
            "duration": 0.125,
            "durationTicks": 96,
            "midi": 78,
            "name": "F#5",
            "ticks": 160608,
            "time": 209.125,
            "velocity": 0.3464566929133858
          },
          {
            "duration": 0.125,
            "durationTicks": 96,
            "midi": 76,
            "name": "E5",
            "ticks": 160704,
            "time": 209.25,
            "velocity": 0.3464566929133858
          },
          {
            "duration": 0.125,
            "durationTicks": 96,
            "midi": 64,
            "name": "E4",
            "ticks": 160704,
            "time": 209.25,
            "velocity": 0.3464566929133858
          },
          {
            "duration": 0.125,
            "durationTicks": 96,
            "midi": 73,
            "name": "C#5",
            "ticks": 160800,
            "time": 209.375,
            "velocity": 0.3464566929133858
          },
          {
            "duration": 0.125,
            "durationTicks": 96,
            "midi": 61,
            "name": "C#4",
            "ticks": 160800,
            "time": 209.375,
            "velocity": 0.3464566929133858
          },
          {
            "duration": 0.125,
            "durationTicks": 96,
            "midi": 76,
            "name": "E5",
            "ticks": 160896,
            "time": 209.5,
            "velocity": 0.3464566929133858
          },
          {
            "duration": 0.125,
            "durationTicks": 96,
            "midi": 64,
            "name": "E4",
            "ticks": 160896,
            "time": 209.5,
            "velocity": 0.3464566929133858
          },
          {
            "duration": 0.125,
            "durationTicks": 96,
            "midi": 66,
            "name": "F#4",
            "ticks": 160992,
            "time": 209.625,
            "velocity": 0.3464566929133858
          },
          {
            "duration": 0.125,
            "durationTicks": 96,
            "midi": 78,
            "name": "F#5",
            "ticks": 160992,
            "time": 209.625,
            "velocity": 0.3464566929133858
          },
          {
            "duration": 0.125,
            "durationTicks": 96,
            "midi": 64,
            "name": "E4",
            "ticks": 161088,
            "time": 209.75,
            "velocity": 0.3464566929133858
          },
          {
            "duration": 0.125,
            "durationTicks": 96,
            "midi": 76,
            "name": "E5",
            "ticks": 161088,
            "time": 209.75,
            "velocity": 0.3464566929133858
          },
          {
            "duration": 0.125,
            "durationTicks": 96,
            "midi": 61,
            "name": "C#4",
            "ticks": 161184,
            "time": 209.875,
            "velocity": 0.3464566929133858
          },
          {
            "duration": 0.125,
            "durationTicks": 96,
            "midi": 73,
            "name": "C#5",
            "ticks": 161184,
            "time": 209.875,
            "velocity": 0.3464566929133858
          },
          {
            "duration": 0.125,
            "durationTicks": 96,
            "midi": 55,
            "name": "G3",
            "ticks": 162816,
            "time": 212,
            "velocity": 0.4330708661417323
          },
          {
            "duration": 0.125,
            "durationTicks": 96,
            "midi": 67,
            "name": "G4",
            "ticks": 162816,
            "time": 212,
            "velocity": 0.4330708661417323
          },
          {
            "duration": 0.125,
            "durationTicks": 96,
            "midi": 79,
            "name": "G5",
            "ticks": 162816,
            "time": 212,
            "velocity": 0.4330708661417323
          },
          {
            "duration": 0.125,
            "durationTicks": 96,
            "midi": 76,
            "name": "E5",
            "ticks": 163392,
            "time": 212.75,
            "velocity": 0.4330708661417323
          },
          {
            "duration": 0.125,
            "durationTicks": 96,
            "midi": 64,
            "name": "E4",
            "ticks": 163392,
            "time": 212.75,
            "velocity": 0.4330708661417323
          },
          {
            "duration": 0.125,
            "durationTicks": 96,
            "midi": 52,
            "name": "E3",
            "ticks": 163392,
            "time": 212.75,
            "velocity": 0.4330708661417323
          },
          {
            "duration": 0.125,
            "durationTicks": 96,
            "midi": 52,
            "name": "E3",
            "ticks": 163968,
            "time": 213.5,
            "velocity": 0.4330708661417323
          },
          {
            "duration": 0.125,
            "durationTicks": 96,
            "midi": 64,
            "name": "E4",
            "ticks": 163968,
            "time": 213.5,
            "velocity": 0.4330708661417323
          },
          {
            "duration": 0.125,
            "durationTicks": 96,
            "midi": 76,
            "name": "E5",
            "ticks": 163968,
            "time": 213.5,
            "velocity": 0.4330708661417323
          },
          {
            "duration": 0.125,
            "durationTicks": 96,
            "midi": 55,
            "name": "G3",
            "ticks": 164544,
            "time": 214.25,
            "velocity": 0.4330708661417323
          },
          {
            "duration": 0.125,
            "durationTicks": 96,
            "midi": 79,
            "name": "G5",
            "ticks": 164544,
            "time": 214.25,
            "velocity": 0.4330708661417323
          },
          {
            "duration": 0.125,
            "durationTicks": 96,
            "midi": 67,
            "name": "G4",
            "ticks": 164544,
            "time": 214.25,
            "velocity": 0.4330708661417323
          },
          {
            "duration": 0.125,
            "durationTicks": 96,
            "midi": 57,
            "name": "A3",
            "ticks": 165120,
            "time": 215,
            "velocity": 0.4330708661417323
          },
          {
            "duration": 0.125,
            "durationTicks": 96,
            "midi": 69,
            "name": "A4",
            "ticks": 165120,
            "time": 215,
            "velocity": 0.4330708661417323
          },
          {
            "duration": 0.125,
            "durationTicks": 96,
            "midi": 81,
            "name": "A5",
            "ticks": 165120,
            "time": 215,
            "velocity": 0.4330708661417323
          },
          {
            "duration": 0.125,
            "durationTicks": 96,
            "midi": 76,
            "name": "E5",
            "ticks": 167808,
            "time": 218.5,
            "velocity": 0.3464566929133858
          },
          {
            "duration": 0.125,
            "durationTicks": 96,
            "midi": 64,
            "name": "E4",
            "ticks": 167808,
            "time": 218.5,
            "velocity": 0.3464566929133858
          },
          {
            "duration": 0.125,
            "durationTicks": 96,
            "midi": 66,
            "name": "F#4",
            "ticks": 167904,
            "time": 218.625,
            "velocity": 0.3464566929133858
          },
          {
            "duration": 0.125,
            "durationTicks": 96,
            "midi": 78,
            "name": "F#5",
            "ticks": 167904,
            "time": 218.625,
            "velocity": 0.3464566929133858
          },
          {
            "duration": 0.125,
            "durationTicks": 96,
            "midi": 64,
            "name": "E4",
            "ticks": 168000,
            "time": 218.75,
            "velocity": 0.3464566929133858
          },
          {
            "duration": 0.125,
            "durationTicks": 96,
            "midi": 76,
            "name": "E5",
            "ticks": 168000,
            "time": 218.75,
            "velocity": 0.3464566929133858
          },
          {
            "duration": 0.125,
            "durationTicks": 96,
            "midi": 73,
            "name": "C#5",
            "ticks": 168096,
            "time": 218.875,
            "velocity": 0.3464566929133858
          },
          {
            "duration": 0.125,
            "durationTicks": 96,
            "midi": 61,
            "name": "C#4",
            "ticks": 168096,
            "time": 218.875,
            "velocity": 0.3464566929133858
          },
          {
            "duration": 0.125,
            "durationTicks": 96,
            "midi": 64,
            "name": "E4",
            "ticks": 169728,
            "time": 221,
            "velocity": 0.3464566929133858
          },
          {
            "duration": 0.125,
            "durationTicks": 96,
            "midi": 76,
            "name": "E5",
            "ticks": 169728,
            "time": 221,
            "velocity": 0.3464566929133858
          },
          {
            "duration": 0.125,
            "durationTicks": 96,
            "midi": 78,
            "name": "F#5",
            "ticks": 169824,
            "time": 221.125,
            "velocity": 0.3464566929133858
          },
          {
            "duration": 0.125,
            "durationTicks": 96,
            "midi": 66,
            "name": "F#4",
            "ticks": 169824,
            "time": 221.125,
            "velocity": 0.3464566929133858
          },
          {
            "duration": 0.125,
            "durationTicks": 96,
            "midi": 64,
            "name": "E4",
            "ticks": 169920,
            "time": 221.25,
            "velocity": 0.3464566929133858
          },
          {
            "duration": 0.125,
            "durationTicks": 96,
            "midi": 76,
            "name": "E5",
            "ticks": 169920,
            "time": 221.25,
            "velocity": 0.3464566929133858
          },
          {
            "duration": 0.125,
            "durationTicks": 96,
            "midi": 73,
            "name": "C#5",
            "ticks": 170016,
            "time": 221.375,
            "velocity": 0.3464566929133858
          },
          {
            "duration": 0.125,
            "durationTicks": 96,
            "midi": 61,
            "name": "C#4",
            "ticks": 170016,
            "time": 221.375,
            "velocity": 0.3464566929133858
          },
          {
            "duration": 0.125,
            "durationTicks": 96,
            "midi": 76,
            "name": "E5",
            "ticks": 170112,
            "time": 221.5,
            "velocity": 0.3464566929133858
          },
          {
            "duration": 0.125,
            "durationTicks": 96,
            "midi": 64,
            "name": "E4",
            "ticks": 170112,
            "time": 221.5,
            "velocity": 0.3464566929133858
          },
          {
            "duration": 0.125,
            "durationTicks": 96,
            "midi": 66,
            "name": "F#4",
            "ticks": 170208,
            "time": 221.625,
            "velocity": 0.3464566929133858
          },
          {
            "duration": 0.125,
            "durationTicks": 96,
            "midi": 78,
            "name": "F#5",
            "ticks": 170208,
            "time": 221.625,
            "velocity": 0.3464566929133858
          },
          {
            "duration": 0.125,
            "durationTicks": 96,
            "midi": 76,
            "name": "E5",
            "ticks": 170304,
            "time": 221.75,
            "velocity": 0.3464566929133858
          },
          {
            "duration": 0.125,
            "durationTicks": 96,
            "midi": 64,
            "name": "E4",
            "ticks": 170304,
            "time": 221.75,
            "velocity": 0.3464566929133858
          },
          {
            "duration": 0.125,
            "durationTicks": 96,
            "midi": 61,
            "name": "C#4",
            "ticks": 170400,
            "time": 221.875,
            "velocity": 0.3464566929133858
          },
          {
            "duration": 0.125,
            "durationTicks": 96,
            "midi": 73,
            "name": "C#5",
            "ticks": 170400,
            "time": 221.875,
            "velocity": 0.3464566929133858
          },
          {
            "duration": 0.125,
            "durationTicks": 96,
            "midi": 64,
            "name": "E4",
            "ticks": 173952,
            "time": 226.5,
            "velocity": 0.3464566929133858
          },
          {
            "duration": 0.125,
            "durationTicks": 96,
            "midi": 76,
            "name": "E5",
            "ticks": 173952,
            "time": 226.5,
            "velocity": 0.3464566929133858
          },
          {
            "duration": 0.125,
            "durationTicks": 96,
            "midi": 78,
            "name": "F#5",
            "ticks": 174048,
            "time": 226.625,
            "velocity": 0.3464566929133858
          },
          {
            "duration": 0.125,
            "durationTicks": 96,
            "midi": 66,
            "name": "F#4",
            "ticks": 174048,
            "time": 226.625,
            "velocity": 0.3464566929133858
          },
          {
            "duration": 0.125,
            "durationTicks": 96,
            "midi": 64,
            "name": "E4",
            "ticks": 174144,
            "time": 226.75,
            "velocity": 0.3464566929133858
          },
          {
            "duration": 0.125,
            "durationTicks": 96,
            "midi": 76,
            "name": "E5",
            "ticks": 174144,
            "time": 226.75,
            "velocity": 0.3464566929133858
          },
          {
            "duration": 0.125,
            "durationTicks": 96,
            "midi": 73,
            "name": "C#5",
            "ticks": 174240,
            "time": 226.875,
            "velocity": 0.3464566929133858
          },
          {
            "duration": 0.125,
            "durationTicks": 96,
            "midi": 61,
            "name": "C#4",
            "ticks": 174240,
            "time": 226.875,
            "velocity": 0.3464566929133858
          },
          {
            "duration": 0.125,
            "durationTicks": 96,
            "midi": 64,
            "name": "E4",
            "ticks": 175872,
            "time": 229,
            "velocity": 0.3464566929133858
          },
          {
            "duration": 0.125,
            "durationTicks": 96,
            "midi": 76,
            "name": "E5",
            "ticks": 175872,
            "time": 229,
            "velocity": 0.3464566929133858
          },
          {
            "duration": 0.125,
            "durationTicks": 96,
            "midi": 66,
            "name": "F#4",
            "ticks": 175968,
            "time": 229.125,
            "velocity": 0.3464566929133858
          },
          {
            "duration": 0.125,
            "durationTicks": 96,
            "midi": 78,
            "name": "F#5",
            "ticks": 175968,
            "time": 229.125,
            "velocity": 0.3464566929133858
          },
          {
            "duration": 0.125,
            "durationTicks": 96,
            "midi": 76,
            "name": "E5",
            "ticks": 176064,
            "time": 229.25,
            "velocity": 0.3464566929133858
          },
          {
            "duration": 0.125,
            "durationTicks": 96,
            "midi": 64,
            "name": "E4",
            "ticks": 176064,
            "time": 229.25,
            "velocity": 0.3464566929133858
          },
          {
            "duration": 0.125,
            "durationTicks": 96,
            "midi": 61,
            "name": "C#4",
            "ticks": 176160,
            "time": 229.375,
            "velocity": 0.3464566929133858
          },
          {
            "duration": 0.125,
            "durationTicks": 96,
            "midi": 73,
            "name": "C#5",
            "ticks": 176160,
            "time": 229.375,
            "velocity": 0.3464566929133858
          },
          {
            "duration": 0.125,
            "durationTicks": 96,
            "midi": 76,
            "name": "E5",
            "ticks": 176256,
            "time": 229.5,
            "velocity": 0.3464566929133858
          },
          {
            "duration": 0.125,
            "durationTicks": 96,
            "midi": 64,
            "name": "E4",
            "ticks": 176256,
            "time": 229.5,
            "velocity": 0.3464566929133858
          },
          {
            "duration": 0.125,
            "durationTicks": 96,
            "midi": 66,
            "name": "F#4",
            "ticks": 176352,
            "time": 229.625,
            "velocity": 0.3464566929133858
          },
          {
            "duration": 0.125,
            "durationTicks": 96,
            "midi": 78,
            "name": "F#5",
            "ticks": 176352,
            "time": 229.625,
            "velocity": 0.3464566929133858
          },
          {
            "duration": 0.125,
            "durationTicks": 96,
            "midi": 76,
            "name": "E5",
            "ticks": 176448,
            "time": 229.75,
            "velocity": 0.3464566929133858
          },
          {
            "duration": 0.125,
            "durationTicks": 96,
            "midi": 64,
            "name": "E4",
            "ticks": 176448,
            "time": 229.75,
            "velocity": 0.3464566929133858
          },
          {
            "duration": 0.125,
            "durationTicks": 96,
            "midi": 61,
            "name": "C#4",
            "ticks": 176544,
            "time": 229.875,
            "velocity": 0.3464566929133858
          },
          {
            "duration": 0.125,
            "durationTicks": 96,
            "midi": 73,
            "name": "C#5",
            "ticks": 176544,
            "time": 229.875,
            "velocity": 0.3464566929133858
          },
          {
            "duration": 0.125,
            "durationTicks": 96,
            "midi": 79,
            "name": "G5",
            "ticks": 178176,
            "time": 232,
            "velocity": 0.4330708661417323
          },
          {
            "duration": 0.125,
            "durationTicks": 96,
            "midi": 67,
            "name": "G4",
            "ticks": 178176,
            "time": 232,
            "velocity": 0.4330708661417323
          },
          {
            "duration": 0.125,
            "durationTicks": 96,
            "midi": 55,
            "name": "G3",
            "ticks": 178176,
            "time": 232,
            "velocity": 0.4330708661417323
          },
          {
            "duration": 0.125,
            "durationTicks": 96,
            "midi": 52,
            "name": "E3",
            "ticks": 178752,
            "time": 232.75,
            "velocity": 0.4330708661417323
          },
          {
            "duration": 0.125,
            "durationTicks": 96,
            "midi": 76,
            "name": "E5",
            "ticks": 178752,
            "time": 232.75,
            "velocity": 0.4330708661417323
          },
          {
            "duration": 0.125,
            "durationTicks": 96,
            "midi": 64,
            "name": "E4",
            "ticks": 178752,
            "time": 232.75,
            "velocity": 0.4330708661417323
          },
          {
            "duration": 0.125,
            "durationTicks": 96,
            "midi": 64,
            "name": "E4",
            "ticks": 179328,
            "time": 233.5,
            "velocity": 0.4330708661417323
          },
          {
            "duration": 0.125,
            "durationTicks": 96,
            "midi": 52,
            "name": "E3",
            "ticks": 179328,
            "time": 233.5,
            "velocity": 0.4330708661417323
          },
          {
            "duration": 0.125,
            "durationTicks": 96,
            "midi": 76,
            "name": "E5",
            "ticks": 179328,
            "time": 233.5,
            "velocity": 0.4330708661417323
          },
          {
            "duration": 0.125,
            "durationTicks": 96,
            "midi": 68,
            "name": "G#4",
            "ticks": 246912,
            "time": 321.5,
            "velocity": 0.4330708661417323
          },
          {
            "duration": 0.125,
            "durationTicks": 96,
            "midi": 44,
            "name": "G#2",
            "ticks": 246912,
            "time": 321.5,
            "velocity": 0.4330708661417323
          },
          {
            "duration": 0.125,
            "durationTicks": 96,
            "midi": 56,
            "name": "G#3",
            "ticks": 246912,
            "time": 321.5,
            "velocity": 0.4330708661417323
          },
          {
            "duration": 0.125,
            "durationTicks": 96,
            "midi": 47,
            "name": "B2",
            "ticks": 247008,
            "time": 321.625,
            "velocity": 0.4330708661417323
          },
          {
            "duration": 0.125,
            "durationTicks": 96,
            "midi": 59,
            "name": "B3",
            "ticks": 247008,
            "time": 321.625,
            "velocity": 0.4330708661417323
          },
          {
            "duration": 0.125,
            "durationTicks": 96,
            "midi": 71,
            "name": "B4",
            "ticks": 247008,
            "time": 321.625,
            "velocity": 0.4330708661417323
          },
          {
            "duration": 0.125,
            "durationTicks": 96,
            "midi": 73,
            "name": "C#5",
            "ticks": 247200,
            "time": 321.875,
            "velocity": 0.4330708661417323
          },
          {
            "duration": 0.125,
            "durationTicks": 96,
            "midi": 61,
            "name": "C#4",
            "ticks": 247200,
            "time": 321.875,
            "velocity": 0.4330708661417323
          },
          {
            "duration": 0.125,
            "durationTicks": 96,
            "midi": 49,
            "name": "C#3",
            "ticks": 247200,
            "time": 321.875,
            "velocity": 0.4330708661417323
          }
        ],
        "endOfTrackTicks": 247296
      },
      {
        "channel": 8,
        "controlChanges": {},
        "pitchBends": [],
        "instrument": {
          "family": "brass",
          "number": 57,
          "name": "trombone"
        },
        "name": "Trombone",
        "notes": [
          {
            "duration": 0.125,
            "durationTicks": 96,
            "midi": 55,
            "name": "G3",
            "ticks": 66048,
            "time": 86,
            "velocity": 0.31496062992125984
          },
          {
            "duration": 0.125,
            "durationTicks": 96,
            "midi": 79,
            "name": "G5",
            "ticks": 66048,
            "time": 86,
            "velocity": 0.31496062992125984
          },
          {
            "duration": 0.125,
            "durationTicks": 96,
            "midi": 67,
            "name": "G4",
            "ticks": 66048,
            "time": 86,
            "velocity": 0.31496062992125984
          },
          {
            "duration": 0.125,
            "durationTicks": 96,
            "midi": 52,
            "name": "E3",
            "ticks": 66624,
            "time": 86.75,
            "velocity": 0.31496062992125984
          },
          {
            "duration": 0.125,
            "durationTicks": 96,
            "midi": 76,
            "name": "E5",
            "ticks": 66624,
            "time": 86.75,
            "velocity": 0.31496062992125984
          },
          {
            "duration": 0.125,
            "durationTicks": 96,
            "midi": 64,
            "name": "E4",
            "ticks": 66624,
            "time": 86.75,
            "velocity": 0.31496062992125984
          },
          {
            "duration": 0.125,
            "durationTicks": 96,
            "midi": 76,
            "name": "E5",
            "ticks": 67200,
            "time": 87.5,
            "velocity": 0.31496062992125984
          },
          {
            "duration": 0.125,
            "durationTicks": 96,
            "midi": 64,
            "name": "E4",
            "ticks": 67200,
            "time": 87.5,
            "velocity": 0.31496062992125984
          },
          {
            "duration": 0.125,
            "durationTicks": 96,
            "midi": 52,
            "name": "E3",
            "ticks": 67200,
            "time": 87.5,
            "velocity": 0.31496062992125984
          },
          {
            "duration": 0.125,
            "durationTicks": 96,
            "midi": 68,
            "name": "G#4",
            "ticks": 73344,
            "time": 95.5,
            "velocity": 0.25196850393700787
          },
          {
            "duration": 0.125,
            "durationTicks": 96,
            "midi": 56,
            "name": "G#3",
            "ticks": 73344,
            "time": 95.5,
            "velocity": 0.25196850393700787
          },
          {
            "duration": 0.125,
            "durationTicks": 96,
            "midi": 71,
            "name": "B4",
            "ticks": 73440,
            "time": 95.625,
            "velocity": 0.25196850393700787
          },
          {
            "duration": 0.125,
            "durationTicks": 96,
            "midi": 59,
            "name": "B3",
            "ticks": 73440,
            "time": 95.625,
            "velocity": 0.25196850393700787
          },
          {
            "duration": 0.125,
            "durationTicks": 96,
            "midi": 73,
            "name": "C#5",
            "ticks": 73632,
            "time": 95.875,
            "velocity": 0.25196850393700787
          },
          {
            "duration": 0.125,
            "durationTicks": 96,
            "midi": 61,
            "name": "C#4",
            "ticks": 73632,
            "time": 95.875,
            "velocity": 0.25196850393700787
          },
          {
            "duration": 0.125,
            "durationTicks": 96,
            "midi": 64,
            "name": "E4",
            "ticks": 79296,
            "time": 103.25,
            "velocity": 0.1889763779527559
          },
          {
            "duration": 0.125,
            "durationTicks": 96,
            "midi": 76,
            "name": "E5",
            "ticks": 79296,
            "time": 103.25,
            "velocity": 0.1889763779527559
          },
          {
            "duration": 0.125,
            "durationTicks": 96,
            "midi": 61,
            "name": "C#4",
            "ticks": 79392,
            "time": 103.375,
            "velocity": 0.1889763779527559
          },
          {
            "duration": 0.125,
            "durationTicks": 96,
            "midi": 73,
            "name": "C#5",
            "ticks": 79392,
            "time": 103.375,
            "velocity": 0.1889763779527559
          },
          {
            "duration": 0.125,
            "durationTicks": 96,
            "midi": 71,
            "name": "B4",
            "ticks": 79680,
            "time": 103.75,
            "velocity": 0.1889763779527559
          },
          {
            "duration": 0.125,
            "durationTicks": 96,
            "midi": 59,
            "name": "B3",
            "ticks": 79680,
            "time": 103.75,
            "velocity": 0.1889763779527559
          },
          {
            "duration": 0.125,
            "durationTicks": 96,
            "midi": 68,
            "name": "G#4",
            "ticks": 79776,
            "time": 103.875,
            "velocity": 0.1889763779527559
          },
          {
            "duration": 0.125,
            "durationTicks": 96,
            "midi": 56,
            "name": "G#3",
            "ticks": 79776,
            "time": 103.875,
            "velocity": 0.1889763779527559
          },
          {
            "duration": 0.125,
            "durationTicks": 96,
            "midi": 64,
            "name": "E4",
            "ticks": 85056,
            "time": 110.75,
            "velocity": 0.1889763779527559
          },
          {
            "duration": 0.125,
            "durationTicks": 96,
            "midi": 76,
            "name": "E5",
            "ticks": 85056,
            "time": 110.75,
            "velocity": 0.1889763779527559
          },
          {
            "duration": 0.125,
            "durationTicks": 96,
            "midi": 73,
            "name": "C#5",
            "ticks": 85152,
            "time": 110.875,
            "velocity": 0.1889763779527559
          },
          {
            "duration": 0.125,
            "durationTicks": 96,
            "midi": 61,
            "name": "C#4",
            "ticks": 85152,
            "time": 110.875,
            "velocity": 0.1889763779527559
          },
          {
            "duration": 0.125,
            "durationTicks": 96,
            "midi": 76,
            "name": "E5",
            "ticks": 98688,
            "time": 128.5,
            "velocity": 0.25196850393700787
          },
          {
            "duration": 0.125,
            "durationTicks": 96,
            "midi": 64,
            "name": "E4",
            "ticks": 98688,
            "time": 128.5,
            "velocity": 0.25196850393700787
          },
          {
            "duration": 0.125,
            "durationTicks": 96,
            "midi": 66,
            "name": "F#4",
            "ticks": 98784,
            "time": 128.625,
            "velocity": 0.25196850393700787
          },
          {
            "duration": 0.125,
            "durationTicks": 96,
            "midi": 78,
            "name": "F#5",
            "ticks": 98784,
            "time": 128.625,
            "velocity": 0.25196850393700787
          },
          {
            "duration": 0.125,
            "durationTicks": 96,
            "midi": 64,
            "name": "E4",
            "ticks": 98880,
            "time": 128.75,
            "velocity": 0.25196850393700787
          },
          {
            "duration": 0.125,
            "durationTicks": 96,
            "midi": 76,
            "name": "E5",
            "ticks": 98880,
            "time": 128.75,
            "velocity": 0.25196850393700787
          },
          {
            "duration": 0.125,
            "durationTicks": 96,
            "midi": 73,
            "name": "C#5",
            "ticks": 98976,
            "time": 128.875,
            "velocity": 0.25196850393700787
          },
          {
            "duration": 0.125,
            "durationTicks": 96,
            "midi": 61,
            "name": "C#4",
            "ticks": 98976,
            "time": 128.875,
            "velocity": 0.25196850393700787
          },
          {
            "duration": 0.125,
            "durationTicks": 96,
            "midi": 76,
            "name": "E5",
            "ticks": 100608,
            "time": 131,
            "velocity": 0.25196850393700787
          },
          {
            "duration": 0.125,
            "durationTicks": 96,
            "midi": 64,
            "name": "E4",
            "ticks": 100608,
            "time": 131,
            "velocity": 0.25196850393700787
          },
          {
            "duration": 0.125,
            "durationTicks": 96,
            "midi": 78,
            "name": "F#5",
            "ticks": 100704,
            "time": 131.125,
            "velocity": 0.25196850393700787
          },
          {
            "duration": 0.125,
            "durationTicks": 96,
            "midi": 66,
            "name": "F#4",
            "ticks": 100704,
            "time": 131.125,
            "velocity": 0.25196850393700787
          },
          {
            "duration": 0.125,
            "durationTicks": 96,
            "midi": 64,
            "name": "E4",
            "ticks": 100800,
            "time": 131.25,
            "velocity": 0.25196850393700787
          },
          {
            "duration": 0.125,
            "durationTicks": 96,
            "midi": 76,
            "name": "E5",
            "ticks": 100800,
            "time": 131.25,
            "velocity": 0.25196850393700787
          },
          {
            "duration": 0.125,
            "durationTicks": 96,
            "midi": 73,
            "name": "C#5",
            "ticks": 100896,
            "time": 131.375,
            "velocity": 0.25196850393700787
          },
          {
            "duration": 0.125,
            "durationTicks": 96,
            "midi": 61,
            "name": "C#4",
            "ticks": 100896,
            "time": 131.375,
            "velocity": 0.25196850393700787
          },
          {
            "duration": 0.125,
            "durationTicks": 96,
            "midi": 76,
            "name": "E5",
            "ticks": 100992,
            "time": 131.5,
            "velocity": 0.25196850393700787
          },
          {
            "duration": 0.125,
            "durationTicks": 96,
            "midi": 64,
            "name": "E4",
            "ticks": 100992,
            "time": 131.5,
            "velocity": 0.25196850393700787
          },
          {
            "duration": 0.125,
            "durationTicks": 96,
            "midi": 78,
            "name": "F#5",
            "ticks": 101088,
            "time": 131.625,
            "velocity": 0.25196850393700787
          },
          {
            "duration": 0.125,
            "durationTicks": 96,
            "midi": 66,
            "name": "F#4",
            "ticks": 101088,
            "time": 131.625,
            "velocity": 0.25196850393700787
          },
          {
            "duration": 0.125,
            "durationTicks": 96,
            "midi": 64,
            "name": "E4",
            "ticks": 101184,
            "time": 131.75,
            "velocity": 0.25196850393700787
          },
          {
            "duration": 0.125,
            "durationTicks": 96,
            "midi": 76,
            "name": "E5",
            "ticks": 101184,
            "time": 131.75,
            "velocity": 0.25196850393700787
          },
          {
            "duration": 0.125,
            "durationTicks": 96,
            "midi": 61,
            "name": "C#4",
            "ticks": 101280,
            "time": 131.875,
            "velocity": 0.25196850393700787
          },
          {
            "duration": 0.125,
            "durationTicks": 96,
            "midi": 73,
            "name": "C#5",
            "ticks": 101280,
            "time": 131.875,
            "velocity": 0.25196850393700787
          },
          {
            "duration": 0.125,
            "durationTicks": 96,
            "midi": 76,
            "name": "E5",
            "ticks": 104832,
            "time": 136.5,
            "velocity": 0.25196850393700787
          },
          {
            "duration": 0.125,
            "durationTicks": 96,
            "midi": 64,
            "name": "E4",
            "ticks": 104832,
            "time": 136.5,
            "velocity": 0.25196850393700787
          },
          {
            "duration": 0.125,
            "durationTicks": 96,
            "midi": 66,
            "name": "F#4",
            "ticks": 104928,
            "time": 136.625,
            "velocity": 0.25196850393700787
          },
          {
            "duration": 0.125,
            "durationTicks": 96,
            "midi": 78,
            "name": "F#5",
            "ticks": 104928,
            "time": 136.625,
            "velocity": 0.25196850393700787
          },
          {
            "duration": 0.125,
            "durationTicks": 96,
            "midi": 76,
            "name": "E5",
            "ticks": 105024,
            "time": 136.75,
            "velocity": 0.25196850393700787
          },
          {
            "duration": 0.125,
            "durationTicks": 96,
            "midi": 64,
            "name": "E4",
            "ticks": 105024,
            "time": 136.75,
            "velocity": 0.25196850393700787
          },
          {
            "duration": 0.125,
            "durationTicks": 96,
            "midi": 73,
            "name": "C#5",
            "ticks": 105120,
            "time": 136.875,
            "velocity": 0.25196850393700787
          },
          {
            "duration": 0.125,
            "durationTicks": 96,
            "midi": 61,
            "name": "C#4",
            "ticks": 105120,
            "time": 136.875,
            "velocity": 0.25196850393700787
          },
          {
            "duration": 0.125,
            "durationTicks": 96,
            "midi": 76,
            "name": "E5",
            "ticks": 106752,
            "time": 139,
            "velocity": 0.25196850393700787
          },
          {
            "duration": 0.125,
            "durationTicks": 96,
            "midi": 64,
            "name": "E4",
            "ticks": 106752,
            "time": 139,
            "velocity": 0.25196850393700787
          },
          {
            "duration": 0.125,
            "durationTicks": 96,
            "midi": 66,
            "name": "F#4",
            "ticks": 106848,
            "time": 139.125,
            "velocity": 0.25196850393700787
          },
          {
            "duration": 0.125,
            "durationTicks": 96,
            "midi": 78,
            "name": "F#5",
            "ticks": 106848,
            "time": 139.125,
            "velocity": 0.25196850393700787
          },
          {
            "duration": 0.125,
            "durationTicks": 96,
            "midi": 64,
            "name": "E4",
            "ticks": 106944,
            "time": 139.25,
            "velocity": 0.25196850393700787
          },
          {
            "duration": 0.125,
            "durationTicks": 96,
            "midi": 76,
            "name": "E5",
            "ticks": 106944,
            "time": 139.25,
            "velocity": 0.25196850393700787
          },
          {
            "duration": 0.125,
            "durationTicks": 96,
            "midi": 61,
            "name": "C#4",
            "ticks": 107040,
            "time": 139.375,
            "velocity": 0.25196850393700787
          },
          {
            "duration": 0.125,
            "durationTicks": 96,
            "midi": 73,
            "name": "C#5",
            "ticks": 107040,
            "time": 139.375,
            "velocity": 0.25196850393700787
          },
          {
            "duration": 0.125,
            "durationTicks": 96,
            "midi": 76,
            "name": "E5",
            "ticks": 107136,
            "time": 139.5,
            "velocity": 0.25196850393700787
          },
          {
            "duration": 0.125,
            "durationTicks": 96,
            "midi": 64,
            "name": "E4",
            "ticks": 107136,
            "time": 139.5,
            "velocity": 0.25196850393700787
          },
          {
            "duration": 0.125,
            "durationTicks": 96,
            "midi": 66,
            "name": "F#4",
            "ticks": 107232,
            "time": 139.625,
            "velocity": 0.25196850393700787
          },
          {
            "duration": 0.125,
            "durationTicks": 96,
            "midi": 78,
            "name": "F#5",
            "ticks": 107232,
            "time": 139.625,
            "velocity": 0.25196850393700787
          },
          {
            "duration": 0.125,
            "durationTicks": 96,
            "midi": 64,
            "name": "E4",
            "ticks": 107328,
            "time": 139.75,
            "velocity": 0.25196850393700787
          },
          {
            "duration": 0.125,
            "durationTicks": 96,
            "midi": 76,
            "name": "E5",
            "ticks": 107328,
            "time": 139.75,
            "velocity": 0.25196850393700787
          },
          {
            "duration": 0.125,
            "durationTicks": 96,
            "midi": 73,
            "name": "C#5",
            "ticks": 107424,
            "time": 139.875,
            "velocity": 0.25196850393700787
          },
          {
            "duration": 0.125,
            "durationTicks": 96,
            "midi": 61,
            "name": "C#4",
            "ticks": 107424,
            "time": 139.875,
            "velocity": 0.25196850393700787
          },
          {
            "duration": 0.125,
            "durationTicks": 96,
            "midi": 55,
            "name": "G3",
            "ticks": 109056,
            "time": 142,
            "velocity": 0.31496062992125984
          },
          {
            "duration": 0.125,
            "durationTicks": 96,
            "midi": 79,
            "name": "G5",
            "ticks": 109056,
            "time": 142,
            "velocity": 0.31496062992125984
          },
          {
            "duration": 0.125,
            "durationTicks": 96,
            "midi": 67,
            "name": "G4",
            "ticks": 109056,
            "time": 142,
            "velocity": 0.31496062992125984
          },
          {
            "duration": 0.125,
            "durationTicks": 96,
            "midi": 52,
            "name": "E3",
            "ticks": 109632,
            "time": 142.75,
            "velocity": 0.31496062992125984
          },
          {
            "duration": 0.125,
            "durationTicks": 96,
            "midi": 76,
            "name": "E5",
            "ticks": 109632,
            "time": 142.75,
            "velocity": 0.31496062992125984
          },
          {
            "duration": 0.125,
            "durationTicks": 96,
            "midi": 64,
            "name": "E4",
            "ticks": 109632,
            "time": 142.75,
            "velocity": 0.31496062992125984
          },
          {
            "duration": 0.125,
            "durationTicks": 96,
            "midi": 52,
            "name": "E3",
            "ticks": 110208,
            "time": 143.5,
            "velocity": 0.31496062992125984
          },
          {
            "duration": 0.125,
            "durationTicks": 96,
            "midi": 76,
            "name": "E5",
            "ticks": 110208,
            "time": 143.5,
            "velocity": 0.31496062992125984
          },
          {
            "duration": 0.125,
            "durationTicks": 96,
            "midi": 64,
            "name": "E4",
            "ticks": 110208,
            "time": 143.5,
            "velocity": 0.31496062992125984
          },
          {
            "duration": 0.125,
            "durationTicks": 96,
            "midi": 73,
            "name": "C#5",
            "ticks": 124608,
            "time": 162.25,
            "velocity": 0.31496062992125984
          },
          {
            "duration": 0.125,
            "durationTicks": 96,
            "midi": 49,
            "name": "C#3",
            "ticks": 124608,
            "time": 162.25,
            "velocity": 0.31496062992125984
          },
          {
            "duration": 0.125,
            "durationTicks": 96,
            "midi": 61,
            "name": "C#4",
            "ticks": 124608,
            "time": 162.25,
            "velocity": 0.31496062992125984
          },
          {
            "duration": 0.125,
            "durationTicks": 96,
            "midi": 73,
            "name": "C#5",
            "ticks": 124896,
            "time": 162.625,
            "velocity": 0.31496062992125984
          },
          {
            "duration": 0.125,
            "durationTicks": 96,
            "midi": 61,
            "name": "C#4",
            "ticks": 124896,
            "time": 162.625,
            "velocity": 0.31496062992125984
          },
          {
            "duration": 0.125,
            "durationTicks": 96,
            "midi": 49,
            "name": "C#3",
            "ticks": 124896,
            "time": 162.625,
            "velocity": 0.31496062992125984
          },
          {
            "duration": 0.125,
            "durationTicks": 96,
            "midi": 63,
            "name": "D#4",
            "ticks": 125184,
            "time": 163,
            "velocity": 0.31496062992125984
          },
          {
            "duration": 0.125,
            "durationTicks": 96,
            "midi": 51,
            "name": "D#3",
            "ticks": 125184,
            "time": 163,
            "velocity": 0.31496062992125984
          },
          {
            "duration": 0.125,
            "durationTicks": 96,
            "midi": 75,
            "name": "D#5",
            "ticks": 125184,
            "time": 163,
            "velocity": 0.31496062992125984
          },
          {
            "duration": 0.125,
            "durationTicks": 96,
            "midi": 78,
            "name": "F#5",
            "ticks": 125472,
            "time": 163.375,
            "velocity": 0.31496062992125984
          },
          {
            "duration": 0.125,
            "durationTicks": 96,
            "midi": 54,
            "name": "F#3",
            "ticks": 125472,
            "time": 163.375,
            "velocity": 0.31496062992125984
          },
          {
            "duration": 0.125,
            "durationTicks": 96,
            "midi": 66,
            "name": "F#4",
            "ticks": 125472,
            "time": 163.375,
            "velocity": 0.31496062992125984
          },
          {
            "duration": 0.125,
            "durationTicks": 96,
            "midi": 56,
            "name": "G#3",
            "ticks": 125760,
            "time": 163.75,
            "velocity": 0.31496062992125984
          },
          {
            "duration": 0.125,
            "durationTicks": 96,
            "midi": 80,
            "name": "G#5",
            "ticks": 125760,
            "time": 163.75,
            "velocity": 0.31496062992125984
          },
          {
            "duration": 0.125,
            "durationTicks": 96,
            "midi": 68,
            "name": "G#4",
            "ticks": 125760,
            "time": 163.75,
            "velocity": 0.31496062992125984
          },
          {
            "duration": 0.125,
            "durationTicks": 96,
            "midi": 52,
            "name": "E3",
            "ticks": 126912,
            "time": 165.25,
            "velocity": 0.31496062992125984
          },
          {
            "duration": 0.125,
            "durationTicks": 96,
            "midi": 76,
            "name": "E5",
            "ticks": 126912,
            "time": 165.25,
            "velocity": 0.31496062992125984
          },
          {
            "duration": 0.125,
            "durationTicks": 96,
            "midi": 64,
            "name": "E4",
            "ticks": 126912,
            "time": 165.25,
            "velocity": 0.31496062992125984
          },
          {
            "duration": 0.125,
            "durationTicks": 96,
            "midi": 61,
            "name": "C#4",
            "ticks": 127104,
            "time": 165.5,
            "velocity": 0.31496062992125984
          },
          {
            "duration": 0.125,
            "durationTicks": 96,
            "midi": 49,
            "name": "C#3",
            "ticks": 127104,
            "time": 165.5,
            "velocity": 0.31496062992125984
          },
          {
            "duration": 0.125,
            "durationTicks": 96,
            "midi": 73,
            "name": "C#5",
            "ticks": 127104,
            "time": 165.5,
            "velocity": 0.31496062992125984
          },
          {
            "duration": 0.125,
            "durationTicks": 96,
            "midi": 47,
            "name": "B2",
            "ticks": 127200,
            "time": 165.625,
            "velocity": 0.31496062992125984
          },
          {
            "duration": 0.125,
            "durationTicks": 96,
            "midi": 59,
            "name": "B3",
            "ticks": 127200,
            "time": 165.625,
            "velocity": 0.31496062992125984
          },
          {
            "duration": 0.125,
            "durationTicks": 96,
            "midi": 71,
            "name": "B4",
            "ticks": 127200,
            "time": 165.625,
            "velocity": 0.31496062992125984
          },
          {
            "duration": 0.125,
            "durationTicks": 96,
            "midi": 61,
            "name": "C#4",
            "ticks": 127392,
            "time": 165.875,
            "velocity": 0.31496062992125984
          },
          {
            "duration": 0.125,
            "durationTicks": 96,
            "midi": 49,
            "name": "C#3",
            "ticks": 127392,
            "time": 165.875,
            "velocity": 0.31496062992125984
          },
          {
            "duration": 0.125,
            "durationTicks": 96,
            "midi": 73,
            "name": "C#5",
            "ticks": 127392,
            "time": 165.875,
            "velocity": 0.31496062992125984
          },
          {
            "duration": 0.125,
            "durationTicks": 96,
            "midi": 76,
            "name": "E5",
            "ticks": 133056,
            "time": 173.25,
            "velocity": 0.1889763779527559
          },
          {
            "duration": 0.125,
            "durationTicks": 96,
            "midi": 64,
            "name": "E4",
            "ticks": 133056,
            "time": 173.25,
            "velocity": 0.1889763779527559
          },
          {
            "duration": 0.125,
            "durationTicks": 96,
            "midi": 73,
            "name": "C#5",
            "ticks": 133152,
            "time": 173.375,
            "velocity": 0.1889763779527559
          },
          {
            "duration": 0.125,
            "durationTicks": 96,
            "midi": 61,
            "name": "C#4",
            "ticks": 133152,
            "time": 173.375,
            "velocity": 0.1889763779527559
          },
          {
            "duration": 0.125,
            "durationTicks": 96,
            "midi": 59,
            "name": "B3",
            "ticks": 133440,
            "time": 173.75,
            "velocity": 0.1889763779527559
          },
          {
            "duration": 0.125,
            "durationTicks": 96,
            "midi": 71,
            "name": "B4",
            "ticks": 133440,
            "time": 173.75,
            "velocity": 0.1889763779527559
          },
          {
            "duration": 0.125,
            "durationTicks": 96,
            "midi": 56,
            "name": "G#3",
            "ticks": 133536,
            "time": 173.875,
            "velocity": 0.1889763779527559
          },
          {
            "duration": 0.125,
            "durationTicks": 96,
            "midi": 68,
            "name": "G#4",
            "ticks": 133536,
            "time": 173.875,
            "velocity": 0.1889763779527559
          },
          {
            "duration": 0.125,
            "durationTicks": 96,
            "midi": 76,
            "name": "E5",
            "ticks": 138816,
            "time": 180.75,
            "velocity": 0.1889763779527559
          },
          {
            "duration": 0.125,
            "durationTicks": 96,
            "midi": 64,
            "name": "E4",
            "ticks": 138816,
            "time": 180.75,
            "velocity": 0.1889763779527559
          },
          {
            "duration": 0.125,
            "durationTicks": 96,
            "midi": 73,
            "name": "C#5",
            "ticks": 138912,
            "time": 180.875,
            "velocity": 0.1889763779527559
          },
          {
            "duration": 0.125,
            "durationTicks": 96,
            "midi": 61,
            "name": "C#4",
            "ticks": 138912,
            "time": 180.875,
            "velocity": 0.1889763779527559
          },
          {
            "duration": 0.125,
            "durationTicks": 96,
            "midi": 76,
            "name": "E5",
            "ticks": 152448,
            "time": 198.5,
            "velocity": 0.25196850393700787
          },
          {
            "duration": 0.125,
            "durationTicks": 96,
            "midi": 64,
            "name": "E4",
            "ticks": 152448,
            "time": 198.5,
            "velocity": 0.25196850393700787
          },
          {
            "duration": 0.125,
            "durationTicks": 96,
            "midi": 78,
            "name": "F#5",
            "ticks": 152544,
            "time": 198.625,
            "velocity": 0.25196850393700787
          },
          {
            "duration": 0.125,
            "durationTicks": 96,
            "midi": 66,
            "name": "F#4",
            "ticks": 152544,
            "time": 198.625,
            "velocity": 0.25196850393700787
          },
          {
            "duration": 0.125,
            "durationTicks": 96,
            "midi": 76,
            "name": "E5",
            "ticks": 152640,
            "time": 198.75,
            "velocity": 0.25196850393700787
          },
          {
            "duration": 0.125,
            "durationTicks": 96,
            "midi": 64,
            "name": "E4",
            "ticks": 152640,
            "time": 198.75,
            "velocity": 0.25196850393700787
          },
          {
            "duration": 0.125,
            "durationTicks": 96,
            "midi": 61,
            "name": "C#4",
            "ticks": 152736,
            "time": 198.875,
            "velocity": 0.25196850393700787
          },
          {
            "duration": 0.125,
            "durationTicks": 96,
            "midi": 73,
            "name": "C#5",
            "ticks": 152736,
            "time": 198.875,
            "velocity": 0.25196850393700787
          },
          {
            "duration": 0.125,
            "durationTicks": 96,
            "midi": 76,
            "name": "E5",
            "ticks": 154368,
            "time": 201,
            "velocity": 0.25196850393700787
          },
          {
            "duration": 0.125,
            "durationTicks": 96,
            "midi": 64,
            "name": "E4",
            "ticks": 154368,
            "time": 201,
            "velocity": 0.25196850393700787
          },
          {
            "duration": 0.125,
            "durationTicks": 96,
            "midi": 66,
            "name": "F#4",
            "ticks": 154464,
            "time": 201.125,
            "velocity": 0.25196850393700787
          },
          {
            "duration": 0.125,
            "durationTicks": 96,
            "midi": 78,
            "name": "F#5",
            "ticks": 154464,
            "time": 201.125,
            "velocity": 0.25196850393700787
          },
          {
            "duration": 0.125,
            "durationTicks": 96,
            "midi": 76,
            "name": "E5",
            "ticks": 154560,
            "time": 201.25,
            "velocity": 0.25196850393700787
          },
          {
            "duration": 0.125,
            "durationTicks": 96,
            "midi": 64,
            "name": "E4",
            "ticks": 154560,
            "time": 201.25,
            "velocity": 0.25196850393700787
          },
          {
            "duration": 0.125,
            "durationTicks": 96,
            "midi": 73,
            "name": "C#5",
            "ticks": 154656,
            "time": 201.375,
            "velocity": 0.25196850393700787
          },
          {
            "duration": 0.125,
            "durationTicks": 96,
            "midi": 61,
            "name": "C#4",
            "ticks": 154656,
            "time": 201.375,
            "velocity": 0.25196850393700787
          },
          {
            "duration": 0.125,
            "durationTicks": 96,
            "midi": 76,
            "name": "E5",
            "ticks": 154752,
            "time": 201.5,
            "velocity": 0.25196850393700787
          },
          {
            "duration": 0.125,
            "durationTicks": 96,
            "midi": 64,
            "name": "E4",
            "ticks": 154752,
            "time": 201.5,
            "velocity": 0.25196850393700787
          },
          {
            "duration": 0.125,
            "durationTicks": 96,
            "midi": 78,
            "name": "F#5",
            "ticks": 154848,
            "time": 201.625,
            "velocity": 0.25196850393700787
          },
          {
            "duration": 0.125,
            "durationTicks": 96,
            "midi": 66,
            "name": "F#4",
            "ticks": 154848,
            "time": 201.625,
            "velocity": 0.25196850393700787
          },
          {
            "duration": 0.125,
            "durationTicks": 96,
            "midi": 76,
            "name": "E5",
            "ticks": 154944,
            "time": 201.75,
            "velocity": 0.25196850393700787
          },
          {
            "duration": 0.125,
            "durationTicks": 96,
            "midi": 64,
            "name": "E4",
            "ticks": 154944,
            "time": 201.75,
            "velocity": 0.25196850393700787
          },
          {
            "duration": 0.125,
            "durationTicks": 96,
            "midi": 61,
            "name": "C#4",
            "ticks": 155040,
            "time": 201.875,
            "velocity": 0.25196850393700787
          },
          {
            "duration": 0.125,
            "durationTicks": 96,
            "midi": 73,
            "name": "C#5",
            "ticks": 155040,
            "time": 201.875,
            "velocity": 0.25196850393700787
          },
          {
            "duration": 0.125,
            "durationTicks": 96,
            "midi": 76,
            "name": "E5",
            "ticks": 158592,
            "time": 206.5,
            "velocity": 0.25196850393700787
          },
          {
            "duration": 0.125,
            "durationTicks": 96,
            "midi": 64,
            "name": "E4",
            "ticks": 158592,
            "time": 206.5,
            "velocity": 0.25196850393700787
          },
          {
            "duration": 0.125,
            "durationTicks": 96,
            "midi": 66,
            "name": "F#4",
            "ticks": 158688,
            "time": 206.625,
            "velocity": 0.25196850393700787
          },
          {
            "duration": 0.125,
            "durationTicks": 96,
            "midi": 78,
            "name": "F#5",
            "ticks": 158688,
            "time": 206.625,
            "velocity": 0.25196850393700787
          },
          {
            "duration": 0.125,
            "durationTicks": 96,
            "midi": 76,
            "name": "E5",
            "ticks": 158784,
            "time": 206.75,
            "velocity": 0.25196850393700787
          },
          {
            "duration": 0.125,
            "durationTicks": 96,
            "midi": 64,
            "name": "E4",
            "ticks": 158784,
            "time": 206.75,
            "velocity": 0.25196850393700787
          },
          {
            "duration": 0.125,
            "durationTicks": 96,
            "midi": 73,
            "name": "C#5",
            "ticks": 158880,
            "time": 206.875,
            "velocity": 0.25196850393700787
          },
          {
            "duration": 0.125,
            "durationTicks": 96,
            "midi": 61,
            "name": "C#4",
            "ticks": 158880,
            "time": 206.875,
            "velocity": 0.25196850393700787
          },
          {
            "duration": 0.125,
            "durationTicks": 96,
            "midi": 76,
            "name": "E5",
            "ticks": 160512,
            "time": 209,
            "velocity": 0.25196850393700787
          },
          {
            "duration": 0.125,
            "durationTicks": 96,
            "midi": 64,
            "name": "E4",
            "ticks": 160512,
            "time": 209,
            "velocity": 0.25196850393700787
          },
          {
            "duration": 0.125,
            "durationTicks": 96,
            "midi": 78,
            "name": "F#5",
            "ticks": 160608,
            "time": 209.125,
            "velocity": 0.25196850393700787
          },
          {
            "duration": 0.125,
            "durationTicks": 96,
            "midi": 66,
            "name": "F#4",
            "ticks": 160608,
            "time": 209.125,
            "velocity": 0.25196850393700787
          },
          {
            "duration": 0.125,
            "durationTicks": 96,
            "midi": 76,
            "name": "E5",
            "ticks": 160704,
            "time": 209.25,
            "velocity": 0.25196850393700787
          },
          {
            "duration": 0.125,
            "durationTicks": 96,
            "midi": 64,
            "name": "E4",
            "ticks": 160704,
            "time": 209.25,
            "velocity": 0.25196850393700787
          },
          {
            "duration": 0.125,
            "durationTicks": 96,
            "midi": 61,
            "name": "C#4",
            "ticks": 160800,
            "time": 209.375,
            "velocity": 0.25196850393700787
          },
          {
            "duration": 0.125,
            "durationTicks": 96,
            "midi": 73,
            "name": "C#5",
            "ticks": 160800,
            "time": 209.375,
            "velocity": 0.25196850393700787
          },
          {
            "duration": 0.125,
            "durationTicks": 96,
            "midi": 64,
            "name": "E4",
            "ticks": 160896,
            "time": 209.5,
            "velocity": 0.25196850393700787
          },
          {
            "duration": 0.125,
            "durationTicks": 96,
            "midi": 76,
            "name": "E5",
            "ticks": 160896,
            "time": 209.5,
            "velocity": 0.25196850393700787
          },
          {
            "duration": 0.125,
            "durationTicks": 96,
            "midi": 66,
            "name": "F#4",
            "ticks": 160992,
            "time": 209.625,
            "velocity": 0.25196850393700787
          },
          {
            "duration": 0.125,
            "durationTicks": 96,
            "midi": 78,
            "name": "F#5",
            "ticks": 160992,
            "time": 209.625,
            "velocity": 0.25196850393700787
          },
          {
            "duration": 0.125,
            "durationTicks": 96,
            "midi": 64,
            "name": "E4",
            "ticks": 161088,
            "time": 209.75,
            "velocity": 0.25196850393700787
          },
          {
            "duration": 0.125,
            "durationTicks": 96,
            "midi": 76,
            "name": "E5",
            "ticks": 161088,
            "time": 209.75,
            "velocity": 0.25196850393700787
          },
          {
            "duration": 0.125,
            "durationTicks": 96,
            "midi": 61,
            "name": "C#4",
            "ticks": 161184,
            "time": 209.875,
            "velocity": 0.25196850393700787
          },
          {
            "duration": 0.125,
            "durationTicks": 96,
            "midi": 73,
            "name": "C#5",
            "ticks": 161184,
            "time": 209.875,
            "velocity": 0.25196850393700787
          },
          {
            "duration": 0.125,
            "durationTicks": 96,
            "midi": 67,
            "name": "G4",
            "ticks": 162816,
            "time": 212,
            "velocity": 0.31496062992125984
          },
          {
            "duration": 0.125,
            "durationTicks": 96,
            "midi": 79,
            "name": "G5",
            "ticks": 162816,
            "time": 212,
            "velocity": 0.31496062992125984
          },
          {
            "duration": 0.125,
            "durationTicks": 96,
            "midi": 55,
            "name": "G3",
            "ticks": 162816,
            "time": 212,
            "velocity": 0.31496062992125984
          },
          {
            "duration": 0.125,
            "durationTicks": 96,
            "midi": 76,
            "name": "E5",
            "ticks": 163392,
            "time": 212.75,
            "velocity": 0.31496062992125984
          },
          {
            "duration": 0.125,
            "durationTicks": 96,
            "midi": 64,
            "name": "E4",
            "ticks": 163392,
            "time": 212.75,
            "velocity": 0.31496062992125984
          },
          {
            "duration": 0.125,
            "durationTicks": 96,
            "midi": 52,
            "name": "E3",
            "ticks": 163392,
            "time": 212.75,
            "velocity": 0.31496062992125984
          },
          {
            "duration": 0.125,
            "durationTicks": 96,
            "midi": 52,
            "name": "E3",
            "ticks": 163968,
            "time": 213.5,
            "velocity": 0.31496062992125984
          },
          {
            "duration": 0.125,
            "durationTicks": 96,
            "midi": 76,
            "name": "E5",
            "ticks": 163968,
            "time": 213.5,
            "velocity": 0.31496062992125984
          },
          {
            "duration": 0.125,
            "durationTicks": 96,
            "midi": 64,
            "name": "E4",
            "ticks": 163968,
            "time": 213.5,
            "velocity": 0.31496062992125984
          },
          {
            "duration": 0.125,
            "durationTicks": 96,
            "midi": 67,
            "name": "G4",
            "ticks": 164544,
            "time": 214.25,
            "velocity": 0.31496062992125984
          },
          {
            "duration": 0.125,
            "durationTicks": 96,
            "midi": 79,
            "name": "G5",
            "ticks": 164544,
            "time": 214.25,
            "velocity": 0.31496062992125984
          },
          {
            "duration": 0.125,
            "durationTicks": 96,
            "midi": 55,
            "name": "G3",
            "ticks": 164544,
            "time": 214.25,
            "velocity": 0.31496062992125984
          },
          {
            "duration": 0.125,
            "durationTicks": 96,
            "midi": 81,
            "name": "A5",
            "ticks": 165120,
            "time": 215,
            "velocity": 0.31496062992125984
          },
          {
            "duration": 0.125,
            "durationTicks": 96,
            "midi": 69,
            "name": "A4",
            "ticks": 165120,
            "time": 215,
            "velocity": 0.31496062992125984
          },
          {
            "duration": 0.125,
            "durationTicks": 96,
            "midi": 57,
            "name": "A3",
            "ticks": 165120,
            "time": 215,
            "velocity": 0.31496062992125984
          },
          {
            "duration": 0.125,
            "durationTicks": 96,
            "midi": 76,
            "name": "E5",
            "ticks": 167808,
            "time": 218.5,
            "velocity": 0.25196850393700787
          },
          {
            "duration": 0.125,
            "durationTicks": 96,
            "midi": 64,
            "name": "E4",
            "ticks": 167808,
            "time": 218.5,
            "velocity": 0.25196850393700787
          },
          {
            "duration": 0.125,
            "durationTicks": 96,
            "midi": 78,
            "name": "F#5",
            "ticks": 167904,
            "time": 218.625,
            "velocity": 0.25196850393700787
          },
          {
            "duration": 0.125,
            "durationTicks": 96,
            "midi": 66,
            "name": "F#4",
            "ticks": 167904,
            "time": 218.625,
            "velocity": 0.25196850393700787
          },
          {
            "duration": 0.125,
            "durationTicks": 96,
            "midi": 64,
            "name": "E4",
            "ticks": 168000,
            "time": 218.75,
            "velocity": 0.25196850393700787
          },
          {
            "duration": 0.125,
            "durationTicks": 96,
            "midi": 76,
            "name": "E5",
            "ticks": 168000,
            "time": 218.75,
            "velocity": 0.25196850393700787
          },
          {
            "duration": 0.125,
            "durationTicks": 96,
            "midi": 61,
            "name": "C#4",
            "ticks": 168096,
            "time": 218.875,
            "velocity": 0.25196850393700787
          },
          {
            "duration": 0.125,
            "durationTicks": 96,
            "midi": 73,
            "name": "C#5",
            "ticks": 168096,
            "time": 218.875,
            "velocity": 0.25196850393700787
          },
          {
            "duration": 0.125,
            "durationTicks": 96,
            "midi": 76,
            "name": "E5",
            "ticks": 169728,
            "time": 221,
            "velocity": 0.25196850393700787
          },
          {
            "duration": 0.125,
            "durationTicks": 96,
            "midi": 64,
            "name": "E4",
            "ticks": 169728,
            "time": 221,
            "velocity": 0.25196850393700787
          },
          {
            "duration": 0.125,
            "durationTicks": 96,
            "midi": 66,
            "name": "F#4",
            "ticks": 169824,
            "time": 221.125,
            "velocity": 0.25196850393700787
          },
          {
            "duration": 0.125,
            "durationTicks": 96,
            "midi": 78,
            "name": "F#5",
            "ticks": 169824,
            "time": 221.125,
            "velocity": 0.25196850393700787
          },
          {
            "duration": 0.125,
            "durationTicks": 96,
            "midi": 76,
            "name": "E5",
            "ticks": 169920,
            "time": 221.25,
            "velocity": 0.25196850393700787
          },
          {
            "duration": 0.125,
            "durationTicks": 96,
            "midi": 64,
            "name": "E4",
            "ticks": 169920,
            "time": 221.25,
            "velocity": 0.25196850393700787
          },
          {
            "duration": 0.125,
            "durationTicks": 96,
            "midi": 73,
            "name": "C#5",
            "ticks": 170016,
            "time": 221.375,
            "velocity": 0.25196850393700787
          },
          {
            "duration": 0.125,
            "durationTicks": 96,
            "midi": 61,
            "name": "C#4",
            "ticks": 170016,
            "time": 221.375,
            "velocity": 0.25196850393700787
          },
          {
            "duration": 0.125,
            "durationTicks": 96,
            "midi": 76,
            "name": "E5",
            "ticks": 170112,
            "time": 221.5,
            "velocity": 0.25196850393700787
          },
          {
            "duration": 0.125,
            "durationTicks": 96,
            "midi": 64,
            "name": "E4",
            "ticks": 170112,
            "time": 221.5,
            "velocity": 0.25196850393700787
          },
          {
            "duration": 0.125,
            "durationTicks": 96,
            "midi": 78,
            "name": "F#5",
            "ticks": 170208,
            "time": 221.625,
            "velocity": 0.25196850393700787
          },
          {
            "duration": 0.125,
            "durationTicks": 96,
            "midi": 66,
            "name": "F#4",
            "ticks": 170208,
            "time": 221.625,
            "velocity": 0.25196850393700787
          },
          {
            "duration": 0.125,
            "durationTicks": 96,
            "midi": 64,
            "name": "E4",
            "ticks": 170304,
            "time": 221.75,
            "velocity": 0.25196850393700787
          },
          {
            "duration": 0.125,
            "durationTicks": 96,
            "midi": 76,
            "name": "E5",
            "ticks": 170304,
            "time": 221.75,
            "velocity": 0.25196850393700787
          },
          {
            "duration": 0.125,
            "durationTicks": 96,
            "midi": 61,
            "name": "C#4",
            "ticks": 170400,
            "time": 221.875,
            "velocity": 0.25196850393700787
          },
          {
            "duration": 0.125,
            "durationTicks": 96,
            "midi": 73,
            "name": "C#5",
            "ticks": 170400,
            "time": 221.875,
            "velocity": 0.25196850393700787
          },
          {
            "duration": 0.125,
            "durationTicks": 96,
            "midi": 76,
            "name": "E5",
            "ticks": 173952,
            "time": 226.5,
            "velocity": 0.25196850393700787
          },
          {
            "duration": 0.125,
            "durationTicks": 96,
            "midi": 64,
            "name": "E4",
            "ticks": 173952,
            "time": 226.5,
            "velocity": 0.25196850393700787
          },
          {
            "duration": 0.125,
            "durationTicks": 96,
            "midi": 66,
            "name": "F#4",
            "ticks": 174048,
            "time": 226.625,
            "velocity": 0.25196850393700787
          },
          {
            "duration": 0.125,
            "durationTicks": 96,
            "midi": 78,
            "name": "F#5",
            "ticks": 174048,
            "time": 226.625,
            "velocity": 0.25196850393700787
          },
          {
            "duration": 0.125,
            "durationTicks": 96,
            "midi": 64,
            "name": "E4",
            "ticks": 174144,
            "time": 226.75,
            "velocity": 0.25196850393700787
          },
          {
            "duration": 0.125,
            "durationTicks": 96,
            "midi": 76,
            "name": "E5",
            "ticks": 174144,
            "time": 226.75,
            "velocity": 0.25196850393700787
          },
          {
            "duration": 0.125,
            "durationTicks": 96,
            "midi": 73,
            "name": "C#5",
            "ticks": 174240,
            "time": 226.875,
            "velocity": 0.25196850393700787
          },
          {
            "duration": 0.125,
            "durationTicks": 96,
            "midi": 61,
            "name": "C#4",
            "ticks": 174240,
            "time": 226.875,
            "velocity": 0.25196850393700787
          },
          {
            "duration": 0.125,
            "durationTicks": 96,
            "midi": 76,
            "name": "E5",
            "ticks": 175872,
            "time": 229,
            "velocity": 0.25196850393700787
          },
          {
            "duration": 0.125,
            "durationTicks": 96,
            "midi": 64,
            "name": "E4",
            "ticks": 175872,
            "time": 229,
            "velocity": 0.25196850393700787
          },
          {
            "duration": 0.125,
            "durationTicks": 96,
            "midi": 66,
            "name": "F#4",
            "ticks": 175968,
            "time": 229.125,
            "velocity": 0.25196850393700787
          },
          {
            "duration": 0.125,
            "durationTicks": 96,
            "midi": 78,
            "name": "F#5",
            "ticks": 175968,
            "time": 229.125,
            "velocity": 0.25196850393700787
          },
          {
            "duration": 0.125,
            "durationTicks": 96,
            "midi": 64,
            "name": "E4",
            "ticks": 176064,
            "time": 229.25,
            "velocity": 0.25196850393700787
          },
          {
            "duration": 0.125,
            "durationTicks": 96,
            "midi": 76,
            "name": "E5",
            "ticks": 176064,
            "time": 229.25,
            "velocity": 0.25196850393700787
          },
          {
            "duration": 0.125,
            "durationTicks": 96,
            "midi": 61,
            "name": "C#4",
            "ticks": 176160,
            "time": 229.375,
            "velocity": 0.25196850393700787
          },
          {
            "duration": 0.125,
            "durationTicks": 96,
            "midi": 73,
            "name": "C#5",
            "ticks": 176160,
            "time": 229.375,
            "velocity": 0.25196850393700787
          },
          {
            "duration": 0.125,
            "durationTicks": 96,
            "midi": 76,
            "name": "E5",
            "ticks": 176256,
            "time": 229.5,
            "velocity": 0.25196850393700787
          },
          {
            "duration": 0.125,
            "durationTicks": 96,
            "midi": 64,
            "name": "E4",
            "ticks": 176256,
            "time": 229.5,
            "velocity": 0.25196850393700787
          },
          {
            "duration": 0.125,
            "durationTicks": 96,
            "midi": 66,
            "name": "F#4",
            "ticks": 176352,
            "time": 229.625,
            "velocity": 0.25196850393700787
          },
          {
            "duration": 0.125,
            "durationTicks": 96,
            "midi": 78,
            "name": "F#5",
            "ticks": 176352,
            "time": 229.625,
            "velocity": 0.25196850393700787
          },
          {
            "duration": 0.125,
            "durationTicks": 96,
            "midi": 76,
            "name": "E5",
            "ticks": 176448,
            "time": 229.75,
            "velocity": 0.25196850393700787
          },
          {
            "duration": 0.125,
            "durationTicks": 96,
            "midi": 64,
            "name": "E4",
            "ticks": 176448,
            "time": 229.75,
            "velocity": 0.25196850393700787
          },
          {
            "duration": 0.125,
            "durationTicks": 96,
            "midi": 73,
            "name": "C#5",
            "ticks": 176544,
            "time": 229.875,
            "velocity": 0.25196850393700787
          },
          {
            "duration": 0.125,
            "durationTicks": 96,
            "midi": 61,
            "name": "C#4",
            "ticks": 176544,
            "time": 229.875,
            "velocity": 0.25196850393700787
          },
          {
            "duration": 0.125,
            "durationTicks": 96,
            "midi": 67,
            "name": "G4",
            "ticks": 178176,
            "time": 232,
            "velocity": 0.31496062992125984
          },
          {
            "duration": 0.125,
            "durationTicks": 96,
            "midi": 79,
            "name": "G5",
            "ticks": 178176,
            "time": 232,
            "velocity": 0.31496062992125984
          },
          {
            "duration": 0.125,
            "durationTicks": 96,
            "midi": 55,
            "name": "G3",
            "ticks": 178176,
            "time": 232,
            "velocity": 0.31496062992125984
          },
          {
            "duration": 0.125,
            "durationTicks": 96,
            "midi": 52,
            "name": "E3",
            "ticks": 178752,
            "time": 232.75,
            "velocity": 0.31496062992125984
          },
          {
            "duration": 0.125,
            "durationTicks": 96,
            "midi": 64,
            "name": "E4",
            "ticks": 178752,
            "time": 232.75,
            "velocity": 0.31496062992125984
          },
          {
            "duration": 0.125,
            "durationTicks": 96,
            "midi": 76,
            "name": "E5",
            "ticks": 178752,
            "time": 232.75,
            "velocity": 0.31496062992125984
          },
          {
            "duration": 0.125,
            "durationTicks": 96,
            "midi": 64,
            "name": "E4",
            "ticks": 179328,
            "time": 233.5,
            "velocity": 0.31496062992125984
          },
          {
            "duration": 0.125,
            "durationTicks": 96,
            "midi": 52,
            "name": "E3",
            "ticks": 179328,
            "time": 233.5,
            "velocity": 0.31496062992125984
          },
          {
            "duration": 0.125,
            "durationTicks": 96,
            "midi": 76,
            "name": "E5",
            "ticks": 179328,
            "time": 233.5,
            "velocity": 0.31496062992125984
          },
          {
            "duration": 0.125,
            "durationTicks": 96,
            "midi": 44,
            "name": "G#2",
            "ticks": 246912,
            "time": 321.5,
            "velocity": 0.31496062992125984
          },
          {
            "duration": 0.125,
            "durationTicks": 96,
            "midi": 56,
            "name": "G#3",
            "ticks": 246912,
            "time": 321.5,
            "velocity": 0.31496062992125984
          },
          {
            "duration": 0.125,
            "durationTicks": 96,
            "midi": 68,
            "name": "G#4",
            "ticks": 246912,
            "time": 321.5,
            "velocity": 0.31496062992125984
          },
          {
            "duration": 0.125,
            "durationTicks": 96,
            "midi": 71,
            "name": "B4",
            "ticks": 247008,
            "time": 321.625,
            "velocity": 0.31496062992125984
          },
          {
            "duration": 0.125,
            "durationTicks": 96,
            "midi": 59,
            "name": "B3",
            "ticks": 247008,
            "time": 321.625,
            "velocity": 0.31496062992125984
          },
          {
            "duration": 0.125,
            "durationTicks": 96,
            "midi": 47,
            "name": "B2",
            "ticks": 247008,
            "time": 321.625,
            "velocity": 0.31496062992125984
          },
          {
            "duration": 0.125,
            "durationTicks": 96,
            "midi": 73,
            "name": "C#5",
            "ticks": 247200,
            "time": 321.875,
            "velocity": 0.31496062992125984
          },
          {
            "duration": 0.125,
            "durationTicks": 96,
            "midi": 61,
            "name": "C#4",
            "ticks": 247200,
            "time": 321.875,
            "velocity": 0.31496062992125984
          },
          {
            "duration": 0.125,
            "durationTicks": 96,
            "midi": 49,
            "name": "C#3",
            "ticks": 247200,
            "time": 321.875,
            "velocity": 0.31496062992125984
          }
        ],
        "endOfTrackTicks": 247296
      },
      {
        "channel": 0,
        "controlChanges": {},
        "pitchBends": [],
        "instrument": {
          "family": "strings",
          "number": 40,
          "name": "violin"
        },
        "name": "Violin",
        "notes": [],
        "endOfTrackTicks": 7104
      },
      {
        "channel": 0,
        "controlChanges": {},
        "pitchBends": [],
        "instrument": {
          "family": "strings",
          "number": 42,
          "name": "cello"
        },
        "name": "Cello",
        "notes": [],
        "endOfTrackTicks": 9600
      },
      {
        "channel": 0,
        "controlChanges": {},
        "pitchBends": [],
        "instrument": {
          "family": "synth lead",
          "number": 82,
          "name": "lead 3 (calliope)"
        },
        "name": "8-Bit Sine",
        "notes": [],
        "endOfTrackTicks": 247296
      },
      {
        "channel": 0,
        "controlChanges": {},
        "pitchBends": [],
        "instrument": {
          "family": "synth lead",
          "number": 80,
          "name": "lead 1 (square)"
        },
        "name": "8-Bit Square",
        "notes": [],
        "endOfTrackTicks": 247296
      },
      {
        "channel": 14,
        "controlChanges": {},
        "pitchBends": [],
        "instrument": {
          "family": "synth lead",
          "number": 81,
          "name": "lead 2 (sawtooth)"
        },
        "name": "8-Bit Sawtooth",
        "notes": [
          {
            "duration": 3.75,
            "durationTicks": 2880,
            "midi": 73,
            "name": "C#5",
            "ticks": 432,
            "time": 0.5625,
            "velocity": 0.015748031496062992
          },
          {
            "duration": 0.375,
            "durationTicks": 288,
            "midi": 61,
            "name": "C#4",
            "ticks": 15360,
            "time": 20,
            "velocity": 0.015748031496062992
          },
          {
            "duration": 0.375,
            "durationTicks": 288,
            "midi": 73,
            "name": "C#5",
            "ticks": 15360,
            "time": 20,
            "velocity": 0.015748031496062992
          },
          {
            "duration": 0.34375,
            "durationTicks": 264,
            "midi": 68,
            "name": "G#4",
            "ticks": 15360,
            "time": 20,
            "velocity": 0.015748031496062992
          },
          {
            "duration": 0.375,
            "durationTicks": 288,
            "midi": 37,
            "name": "C#2",
            "ticks": 15360,
            "time": 20,
            "velocity": 0.015748031496062992
          },
          {
            "duration": 0.34375,
            "durationTicks": 264,
            "midi": 52,
            "name": "E3",
            "ticks": 15360,
            "time": 20,
            "velocity": 0.015748031496062992
          },
          {
            "duration": 0.34375,
            "durationTicks": 264,
            "midi": 64,
            "name": "E4",
            "ticks": 15360,
            "time": 20,
            "velocity": 0.015748031496062992
          },
          {
            "duration": 0.34375,
            "durationTicks": 264,
            "midi": 56,
            "name": "G#3",
            "ticks": 15360,
            "time": 20,
            "velocity": 0.015748031496062992
          },
          {
            "duration": 1.59375,
            "durationTicks": 1224,
            "midi": 64,
            "name": "E4",
            "ticks": 15648,
            "time": 20.375,
            "velocity": 0.015748031496062992
          },
          {
            "duration": 1.59375,
            "durationTicks": 1224,
            "midi": 40,
            "name": "E2",
            "ticks": 15648,
            "time": 20.375,
            "velocity": 0.015748031496062992
          },
          {
            "duration": 1.625,
            "durationTicks": 1248,
            "midi": 59,
            "name": "B3",
            "ticks": 15648,
            "time": 20.375,
            "velocity": 0.015748031496062992
          },
          {
            "duration": 1.625,
            "durationTicks": 1248,
            "midi": 52,
            "name": "E3",
            "ticks": 15648,
            "time": 20.375,
            "velocity": 0.015748031496062992
          },
          {
            "duration": 1.59375,
            "durationTicks": 1224,
            "midi": 71,
            "name": "B4",
            "ticks": 15648,
            "time": 20.375,
            "velocity": 0.015748031496062992
          },
          {
            "duration": 1.625,
            "durationTicks": 1248,
            "midi": 56,
            "name": "G#3",
            "ticks": 15648,
            "time": 20.375,
            "velocity": 0.015748031496062992
          },
          {
            "duration": 1.59375,
            "durationTicks": 1224,
            "midi": 68,
            "name": "G#4",
            "ticks": 15648,
            "time": 20.375,
            "velocity": 0.015748031496062992
          },
          {
            "duration": 0.5,
            "durationTicks": 384,
            "midi": 59,
            "name": "B3",
            "ticks": 16896,
            "time": 22,
            "velocity": 0.015748031496062992
          },
          {
            "duration": 0.5,
            "durationTicks": 384,
            "midi": 56,
            "name": "G#3",
            "ticks": 16896,
            "time": 22,
            "velocity": 0.015748031496062992
          },
          {
            "duration": 0.5,
            "durationTicks": 384,
            "midi": 68,
            "name": "G#4",
            "ticks": 16896,
            "time": 22,
            "velocity": 0.015748031496062992
          },
          {
            "duration": 0.5,
            "durationTicks": 384,
            "midi": 64,
            "name": "E4",
            "ticks": 16896,
            "time": 22,
            "velocity": 0.015748031496062992
          },
          {
            "duration": 0.5,
            "durationTicks": 384,
            "midi": 52,
            "name": "E3",
            "ticks": 16896,
            "time": 22,
            "velocity": 0.015748031496062992
          },
          {
            "duration": 0.5,
            "durationTicks": 384,
            "midi": 71,
            "name": "B4",
            "ticks": 16896,
            "time": 22,
            "velocity": 0.015748031496062992
          },
          {
            "duration": 0.46875,
            "durationTicks": 360,
            "midi": 40,
            "name": "E2",
            "ticks": 16896,
            "time": 22,
            "velocity": 0.015748031496062992
          },
          {
            "duration": 0.46875,
            "durationTicks": 360,
            "midi": 49,
            "name": "C#3",
            "ticks": 17280,
            "time": 22.5,
            "velocity": 0.015748031496062992
          },
          {
            "duration": 0.5,
            "durationTicks": 384,
            "midi": 70,
            "name": "A#4",
            "ticks": 17280,
            "time": 22.5,
            "velocity": 0.015748031496062992
          },
          {
            "duration": 0.46875,
            "durationTicks": 360,
            "midi": 61,
            "name": "C#4",
            "ticks": 17280,
            "time": 22.5,
            "velocity": 0.015748031496062992
          },
          {
            "duration": 0.5,
            "durationTicks": 384,
            "midi": 66,
            "name": "F#4",
            "ticks": 17280,
            "time": 22.5,
            "velocity": 0.015748031496062992
          },
          {
            "duration": 0.5,
            "durationTicks": 384,
            "midi": 54,
            "name": "F#3",
            "ticks": 17280,
            "time": 22.5,
            "velocity": 0.015748031496062992
          },
          {
            "duration": 0.5,
            "durationTicks": 384,
            "midi": 42,
            "name": "F#2",
            "ticks": 17280,
            "time": 22.5,
            "velocity": 0.015748031496062992
          },
          {
            "duration": 0.5,
            "durationTicks": 384,
            "midi": 58,
            "name": "A#3",
            "ticks": 17280,
            "time": 22.5,
            "velocity": 0.015748031496062992
          },
          {
            "duration": 1,
            "durationTicks": 768,
            "midi": 37,
            "name": "C#2",
            "ticks": 17664,
            "time": 23,
            "velocity": 0.015748031496062992
          },
          {
            "duration": 1,
            "durationTicks": 768,
            "midi": 49,
            "name": "C#3",
            "ticks": 17664,
            "time": 23,
            "velocity": 0.015748031496062992
          },
          {
            "duration": 1,
            "durationTicks": 768,
            "midi": 52,
            "name": "E3",
            "ticks": 17664,
            "time": 23,
            "velocity": 0.015748031496062992
          },
          {
            "duration": 0.625,
            "durationTicks": 480,
            "midi": 68,
            "name": "G#4",
            "ticks": 17664,
            "time": 23,
            "velocity": 0.015748031496062992
          },
          {
            "duration": 0.625,
            "durationTicks": 480,
            "midi": 64,
            "name": "E4",
            "ticks": 17664,
            "time": 23,
            "velocity": 0.015748031496062992
          },
          {
            "duration": 0.625,
            "durationTicks": 480,
            "midi": 61,
            "name": "C#4",
            "ticks": 17664,
            "time": 23,
            "velocity": 0.015748031496062992
          },
          {
            "duration": 1,
            "durationTicks": 768,
            "midi": 56,
            "name": "G#3",
            "ticks": 17664,
            "time": 23,
            "velocity": 0.015748031496062992
          },
          {
            "duration": 0.0625,
            "durationTicks": 48,
            "midi": 67,
            "name": "G4",
            "ticks": 18144,
            "time": 23.625,
            "velocity": 0.015748031496062992
          },
          {
            "duration": 0.0625,
            "durationTicks": 48,
            "midi": 60,
            "name": "C4",
            "ticks": 18144,
            "time": 23.625,
            "velocity": 0.015748031496062992
          },
          {
            "duration": 0.0625,
            "durationTicks": 48,
            "midi": 63,
            "name": "D#4",
            "ticks": 18144,
            "time": 23.625,
            "velocity": 0.015748031496062992
          },
          {
            "duration": 0.0625,
            "durationTicks": 48,
            "midi": 66,
            "name": "F#4",
            "ticks": 18192,
            "time": 23.6875,
            "velocity": 0.015748031496062992
          },
          {
            "duration": 0.0625,
            "durationTicks": 48,
            "midi": 59,
            "name": "B3",
            "ticks": 18192,
            "time": 23.6875,
            "velocity": 0.015748031496062992
          },
          {
            "duration": 0.0625,
            "durationTicks": 48,
            "midi": 62,
            "name": "D4",
            "ticks": 18192,
            "time": 23.6875,
            "velocity": 0.015748031496062992
          },
          {
            "duration": 0.0625,
            "durationTicks": 48,
            "midi": 65,
            "name": "F4",
            "ticks": 18240,
            "time": 23.75,
            "velocity": 0.015748031496062992
          },
          {
            "duration": 0.0625,
            "durationTicks": 48,
            "midi": 58,
            "name": "A#3",
            "ticks": 18240,
            "time": 23.75,
            "velocity": 0.015748031496062992
          },
          {
            "duration": 0.0625,
            "durationTicks": 48,
            "midi": 61,
            "name": "C#4",
            "ticks": 18240,
            "time": 23.75,
            "velocity": 0.015748031496062992
          },
          {
            "duration": 0.0625,
            "durationTicks": 48,
            "midi": 57,
            "name": "A3",
            "ticks": 18288,
            "time": 23.8125,
            "velocity": 0.015748031496062992
          },
          {
            "duration": 0.0625,
            "durationTicks": 48,
            "midi": 64,
            "name": "E4",
            "ticks": 18288,
            "time": 23.8125,
            "velocity": 0.015748031496062992
          },
          {
            "duration": 0.0625,
            "durationTicks": 48,
            "midi": 60,
            "name": "C4",
            "ticks": 18288,
            "time": 23.8125,
            "velocity": 0.015748031496062992
          },
          {
            "duration": 0.125,
            "durationTicks": 96,
            "midi": 37,
            "name": "C#2",
            "ticks": 18432,
            "time": 24,
            "velocity": 0.015748031496062992
          },
          {
            "duration": 2,
            "durationTicks": 1536,
            "midi": 56,
            "name": "G#3",
            "ticks": 18432,
            "time": 24,
            "velocity": 0.015748031496062992
          },
          {
            "duration": 2,
            "durationTicks": 1536,
            "midi": 49,
            "name": "C#3",
            "ticks": 18432,
            "time": 24,
            "velocity": 0.015748031496062992
          },
          {
            "duration": 2,
            "durationTicks": 1536,
            "midi": 52,
            "name": "E3",
            "ticks": 18432,
            "time": 24,
            "velocity": 0.015748031496062992
          },
          {
            "duration": 0.125,
            "durationTicks": 96,
            "midi": 37,
            "name": "C#2",
            "ticks": 18528,
            "time": 24.125,
            "velocity": 0.007874015748031496
          },
          {
            "duration": 0.125,
            "durationTicks": 96,
            "midi": 37,
            "name": "C#2",
            "ticks": 18624,
            "time": 24.25,
            "velocity": 0.007874015748031496
          },
          {
            "duration": 2,
            "durationTicks": 1536,
            "midi": 56,
            "name": "G#3",
            "ticks": 19968,
            "time": 26,
            "velocity": 0.015748031496062992
          },
          {
            "duration": 2,
            "durationTicks": 1536,
            "midi": 49,
            "name": "C#3",
            "ticks": 19968,
            "time": 26,
            "velocity": 0.015748031496062992
          },
          {
            "duration": 2,
            "durationTicks": 1536,
            "midi": 52,
            "name": "E3",
            "ticks": 19968,
            "time": 26,
            "velocity": 0.015748031496062992
          },
          {
            "duration": 2,
            "durationTicks": 1536,
            "midi": 49,
            "name": "C#3",
            "ticks": 21504,
            "time": 28,
            "velocity": 0.015748031496062992
          },
          {
            "duration": 2,
            "durationTicks": 1536,
            "midi": 52,
            "name": "E3",
            "ticks": 21504,
            "time": 28,
            "velocity": 0.015748031496062992
          },
          {
            "duration": 2,
            "durationTicks": 1536,
            "midi": 56,
            "name": "G#3",
            "ticks": 21504,
            "time": 28,
            "velocity": 0.015748031496062992
          },
          {
            "duration": 2,
            "durationTicks": 1536,
            "midi": 52,
            "name": "E3",
            "ticks": 23040,
            "time": 30,
            "velocity": 0.015748031496062992
          },
          {
            "duration": 2,
            "durationTicks": 1536,
            "midi": 49,
            "name": "C#3",
            "ticks": 23040,
            "time": 30,
            "velocity": 0.015748031496062992
          },
          {
            "duration": 2,
            "durationTicks": 1536,
            "midi": 56,
            "name": "G#3",
            "ticks": 23040,
            "time": 30,
            "velocity": 0.015748031496062992
          },
          {
            "duration": 2,
            "durationTicks": 1536,
            "midi": 49,
            "name": "C#3",
            "ticks": 30720,
            "time": 40,
            "velocity": 0.007874015748031496
          },
          {
            "duration": 2,
            "durationTicks": 1536,
            "midi": 46,
            "name": "A#2",
            "ticks": 30720,
            "time": 40,
            "velocity": 0.007874015748031496
          },
          {
            "duration": 2,
            "durationTicks": 1536,
            "midi": 42,
            "name": "F#2",
            "ticks": 30720,
            "time": 40,
            "velocity": 0.007874015748031496
          },
          {
            "duration": 2,
            "durationTicks": 1536,
            "midi": 46,
            "name": "A#2",
            "ticks": 32256,
            "time": 42,
            "velocity": 0.007874015748031496
          },
          {
            "duration": 2,
            "durationTicks": 1536,
            "midi": 42,
            "name": "F#2",
            "ticks": 32256,
            "time": 42,
            "velocity": 0.007874015748031496
          },
          {
            "duration": 2,
            "durationTicks": 1536,
            "midi": 49,
            "name": "C#3",
            "ticks": 32256,
            "time": 42,
            "velocity": 0.007874015748031496
          },
          {
            "duration": 2,
            "durationTicks": 1536,
            "midi": 52,
            "name": "E3",
            "ticks": 33792,
            "time": 44,
            "velocity": 0.007874015748031496
          },
          {
            "duration": 2,
            "durationTicks": 1536,
            "midi": 47,
            "name": "B2",
            "ticks": 33792,
            "time": 44,
            "velocity": 0.007874015748031496
          },
          {
            "duration": 2,
            "durationTicks": 1536,
            "midi": 44,
            "name": "G#2",
            "ticks": 33792,
            "time": 44,
            "velocity": 0.007874015748031496
          },
          {
            "duration": 2,
            "durationTicks": 1536,
            "midi": 44,
            "name": "G#2",
            "ticks": 35328,
            "time": 46,
            "velocity": 0.007874015748031496
          },
          {
            "duration": 2,
            "durationTicks": 1536,
            "midi": 47,
            "name": "B2",
            "ticks": 35328,
            "time": 46,
            "velocity": 0.007874015748031496
          },
          {
            "duration": 2,
            "durationTicks": 1536,
            "midi": 52,
            "name": "E3",
            "ticks": 35328,
            "time": 46,
            "velocity": 0.007874015748031496
          },
          {
            "duration": 2,
            "durationTicks": 1536,
            "midi": 42,
            "name": "F#2",
            "ticks": 36864,
            "time": 48,
            "velocity": 0.007874015748031496
          },
          {
            "duration": 2,
            "durationTicks": 1536,
            "midi": 49,
            "name": "C#3",
            "ticks": 36864,
            "time": 48,
            "velocity": 0.007874015748031496
          },
          {
            "duration": 2,
            "durationTicks": 1536,
            "midi": 46,
            "name": "A#2",
            "ticks": 36864,
            "time": 48,
            "velocity": 0.007874015748031496
          },
          {
            "duration": 2,
            "durationTicks": 1536,
            "midi": 46,
            "name": "A#2",
            "ticks": 38400,
            "time": 50,
            "velocity": 0.007874015748031496
          },
          {
            "duration": 2,
            "durationTicks": 1536,
            "midi": 42,
            "name": "F#2",
            "ticks": 38400,
            "time": 50,
            "velocity": 0.007874015748031496
          },
          {
            "duration": 2,
            "durationTicks": 1536,
            "midi": 49,
            "name": "C#3",
            "ticks": 38400,
            "time": 50,
            "velocity": 0.007874015748031496
          },
          {
            "duration": 2,
            "durationTicks": 1536,
            "midi": 47,
            "name": "B2",
            "ticks": 39936,
            "time": 52,
            "velocity": 0.007874015748031496
          },
          {
            "duration": 2,
            "durationTicks": 1536,
            "midi": 44,
            "name": "G#2",
            "ticks": 39936,
            "time": 52,
            "velocity": 0.007874015748031496
          },
          {
            "duration": 2,
            "durationTicks": 1536,
            "midi": 52,
            "name": "E3",
            "ticks": 39936,
            "time": 52,
            "velocity": 0.007874015748031496
          },
          {
            "duration": 2,
            "durationTicks": 1536,
            "midi": 52,
            "name": "E3",
            "ticks": 41472,
            "time": 54,
            "velocity": 0.007874015748031496
          },
          {
            "duration": 2,
            "durationTicks": 1536,
            "midi": 47,
            "name": "B2",
            "ticks": 41472,
            "time": 54,
            "velocity": 0.007874015748031496
          },
          {
            "duration": 2,
            "durationTicks": 1536,
            "midi": 44,
            "name": "G#2",
            "ticks": 41472,
            "time": 54,
            "velocity": 0.007874015748031496
          },
          {
            "duration": 2,
            "durationTicks": 1536,
            "midi": 49,
            "name": "C#3",
            "ticks": 43008,
            "time": 56,
            "velocity": 0.007874015748031496
          },
          {
            "duration": 2,
            "durationTicks": 1536,
            "midi": 54,
            "name": "F#3",
            "ticks": 43008,
            "time": 56,
            "velocity": 0.007874015748031496
          },
          {
            "duration": 2,
            "durationTicks": 1536,
            "midi": 46,
            "name": "A#2",
            "ticks": 43008,
            "time": 56,
            "velocity": 0.007874015748031496
          },
          {
            "duration": 2,
            "durationTicks": 1536,
            "midi": 54,
            "name": "F#3",
            "ticks": 44544,
            "time": 58,
            "velocity": 0.007874015748031496
          },
          {
            "duration": 2,
            "durationTicks": 1536,
            "midi": 49,
            "name": "C#3",
            "ticks": 44544,
            "time": 58,
            "velocity": 0.007874015748031496
          },
          {
            "duration": 2,
            "durationTicks": 1536,
            "midi": 46,
            "name": "A#2",
            "ticks": 44544,
            "time": 58,
            "velocity": 0.007874015748031496
          },
          {
            "duration": 2,
            "durationTicks": 1536,
            "midi": 56,
            "name": "G#3",
            "ticks": 46080,
            "time": 60,
            "velocity": 0.007874015748031496
          },
          {
            "duration": 2,
            "durationTicks": 1536,
            "midi": 52,
            "name": "E3",
            "ticks": 46080,
            "time": 60,
            "velocity": 0.007874015748031496
          },
          {
            "duration": 2,
            "durationTicks": 1536,
            "midi": 47,
            "name": "B2",
            "ticks": 46080,
            "time": 60,
            "velocity": 0.007874015748031496
          },
          {
            "duration": 2,
            "durationTicks": 1536,
            "midi": 52,
            "name": "E3",
            "ticks": 47616,
            "time": 62,
            "velocity": 0.007874015748031496
          },
          {
            "duration": 2,
            "durationTicks": 1536,
            "midi": 47,
            "name": "B2",
            "ticks": 47616,
            "time": 62,
            "velocity": 0.007874015748031496
          },
          {
            "duration": 2,
            "durationTicks": 1536,
            "midi": 56,
            "name": "G#3",
            "ticks": 47616,
            "time": 62,
            "velocity": 0.007874015748031496
          },
          {
            "duration": 2,
            "durationTicks": 1536,
            "midi": 54,
            "name": "F#3",
            "ticks": 49152,
            "time": 64,
            "velocity": 0.007874015748031496
          },
          {
            "duration": 2,
            "durationTicks": 1536,
            "midi": 49,
            "name": "C#3",
            "ticks": 49152,
            "time": 64,
            "velocity": 0.007874015748031496
          },
          {
            "duration": 2,
            "durationTicks": 1536,
            "midi": 46,
            "name": "A#2",
            "ticks": 49152,
            "time": 64,
            "velocity": 0.007874015748031496
          },
          {
            "duration": 2,
            "durationTicks": 1536,
            "midi": 46,
            "name": "A#2",
            "ticks": 50688,
            "time": 66,
            "velocity": 0.007874015748031496
          },
          {
            "duration": 2,
            "durationTicks": 1536,
            "midi": 54,
            "name": "F#3",
            "ticks": 50688,
            "time": 66,
            "velocity": 0.007874015748031496
          },
          {
            "duration": 2,
            "durationTicks": 1536,
            "midi": 49,
            "name": "C#3",
            "ticks": 50688,
            "time": 66,
            "velocity": 0.007874015748031496
          },
          {
            "duration": 2,
            "durationTicks": 1536,
            "midi": 56,
            "name": "G#3",
            "ticks": 52224,
            "time": 68,
            "velocity": 0.007874015748031496
          },
          {
            "duration": 2,
            "durationTicks": 1536,
            "midi": 49,
            "name": "C#3",
            "ticks": 52224,
            "time": 68,
            "velocity": 0.007874015748031496
          },
          {
            "duration": 2,
            "durationTicks": 1536,
            "midi": 52,
            "name": "E3",
            "ticks": 52224,
            "time": 68,
            "velocity": 0.007874015748031496
          },
          {
            "duration": 2,
            "durationTicks": 1536,
            "midi": 44,
            "name": "G#2",
            "ticks": 53760,
            "time": 70,
            "velocity": 0.007874015748031496
          },
          {
            "duration": 2,
            "durationTicks": 1536,
            "midi": 51,
            "name": "D#3",
            "ticks": 53760,
            "time": 70,
            "velocity": 0.007874015748031496
          },
          {
            "duration": 2,
            "durationTicks": 1536,
            "midi": 54,
            "name": "F#3",
            "ticks": 53760,
            "time": 70,
            "velocity": 0.007874015748031496
          },
          {
            "duration": 0.375,
            "durationTicks": 288,
            "midi": 64,
            "name": "E4",
            "ticks": 55296,
            "time": 72,
            "velocity": 0.007874015748031496
          },
          {
            "duration": 0.375,
            "durationTicks": 288,
            "midi": 68,
            "name": "G#4",
            "ticks": 55296,
            "time": 72,
            "velocity": 0.007874015748031496
          },
          {
            "duration": 0.375,
            "durationTicks": 288,
            "midi": 56,
            "name": "G#3",
            "ticks": 55296,
            "time": 72,
            "velocity": 0.015748031496062992
          },
          {
            "duration": 0.375,
            "durationTicks": 288,
            "midi": 49,
            "name": "C#3",
            "ticks": 55296,
            "time": 72,
            "velocity": 0.007874015748031496
          },
          {
            "duration": 0.375,
            "durationTicks": 288,
            "midi": 40,
            "name": "E2",
            "ticks": 55296,
            "time": 72,
            "velocity": 0.007874015748031496
          },
          {
            "duration": 0.375,
            "durationTicks": 288,
            "midi": 44,
            "name": "G#2",
            "ticks": 55296,
            "time": 72,
            "velocity": 0.007874015748031496
          },
          {
            "duration": 0.375,
            "durationTicks": 288,
            "midi": 61,
            "name": "C#4",
            "ticks": 55296,
            "time": 72,
            "velocity": 0.015748031496062992
          },
          {
            "duration": 0.375,
            "durationTicks": 288,
            "midi": 52,
            "name": "E3",
            "ticks": 55296,
            "time": 72,
            "velocity": 0.015748031496062992
          },
          {
            "duration": 0.375,
            "durationTicks": 288,
            "midi": 73,
            "name": "C#5",
            "ticks": 55296,
            "time": 72,
            "velocity": 0.007874015748031496
          },
          {
            "duration": 1.625,
            "durationTicks": 1248,
            "midi": 56,
            "name": "G#3",
            "ticks": 55584,
            "time": 72.375,
            "velocity": 0.015748031496062992
          },
          {
            "duration": 1.625,
            "durationTicks": 1248,
            "midi": 59,
            "name": "B3",
            "ticks": 55584,
            "time": 72.375,
            "velocity": 0.015748031496062992
          },
          {
            "duration": 1.625,
            "durationTicks": 1248,
            "midi": 52,
            "name": "E3",
            "ticks": 55584,
            "time": 72.375,
            "velocity": 0.015748031496062992
          },
          {
            "duration": 1.625,
            "durationTicks": 1248,
            "midi": 44,
            "name": "G#2",
            "ticks": 55584,
            "time": 72.375,
            "velocity": 0.007874015748031496
          },
          {
            "duration": 1.625,
            "durationTicks": 1248,
            "midi": 40,
            "name": "E2",
            "ticks": 55584,
            "time": 72.375,
            "velocity": 0.007874015748031496
          },
          {
            "duration": 1.625,
            "durationTicks": 1248,
            "midi": 47,
            "name": "B2",
            "ticks": 55584,
            "time": 72.375,
            "velocity": 0.007874015748031496
          },
          {
            "duration": 1.625,
            "durationTicks": 1248,
            "midi": 68,
            "name": "G#4",
            "ticks": 55584,
            "time": 72.375,
            "velocity": 0.007874015748031496
          },
          {
            "duration": 1.625,
            "durationTicks": 1248,
            "midi": 64,
            "name": "E4",
            "ticks": 55584,
            "time": 72.375,
            "velocity": 0.007874015748031496
          },
          {
            "duration": 1.625,
            "durationTicks": 1248,
            "midi": 71,
            "name": "B4",
            "ticks": 55584,
            "time": 72.375,
            "velocity": 0.007874015748031496
          },
          {
            "duration": 0.5,
            "durationTicks": 384,
            "midi": 59,
            "name": "B3",
            "ticks": 56832,
            "time": 74,
            "velocity": 0.015748031496062992
          },
          {
            "duration": 0.5,
            "durationTicks": 384,
            "midi": 71,
            "name": "B4",
            "ticks": 56832,
            "time": 74,
            "velocity": 0.007874015748031496
          },
          {
            "duration": 0.5,
            "durationTicks": 384,
            "midi": 40,
            "name": "E2",
            "ticks": 56832,
            "time": 74,
            "velocity": 0.007874015748031496
          },
          {
            "duration": 0.5,
            "durationTicks": 384,
            "midi": 56,
            "name": "G#3",
            "ticks": 56832,
            "time": 74,
            "velocity": 0.015748031496062992
          },
          {
            "duration": 0.5,
            "durationTicks": 384,
            "midi": 47,
            "name": "B2",
            "ticks": 56832,
            "time": 74,
            "velocity": 0.007874015748031496
          },
          {
            "duration": 0.5,
            "durationTicks": 384,
            "midi": 44,
            "name": "G#2",
            "ticks": 56832,
            "time": 74,
            "velocity": 0.007874015748031496
          },
          {
            "duration": 0.5,
            "durationTicks": 384,
            "midi": 68,
            "name": "G#4",
            "ticks": 56832,
            "time": 74,
            "velocity": 0.007874015748031496
          },
          {
            "duration": 0.5,
            "durationTicks": 384,
            "midi": 52,
            "name": "E3",
            "ticks": 56832,
            "time": 74,
            "velocity": 0.015748031496062992
          },
          {
            "duration": 0.5,
            "durationTicks": 384,
            "midi": 64,
            "name": "E4",
            "ticks": 56832,
            "time": 74,
            "velocity": 0.007874015748031496
          },
          {
            "duration": 0.5,
            "durationTicks": 384,
            "midi": 54,
            "name": "F#3",
            "ticks": 57216,
            "time": 74.5,
            "velocity": 0.015748031496062992
          },
          {
            "duration": 0.5,
            "durationTicks": 384,
            "midi": 58,
            "name": "A#3",
            "ticks": 57216,
            "time": 74.5,
            "velocity": 0.015748031496062992
          },
          {
            "duration": 0.5,
            "durationTicks": 384,
            "midi": 49,
            "name": "C#3",
            "ticks": 57216,
            "time": 74.5,
            "velocity": 0.015748031496062992
          },
          {
            "duration": 0.5,
            "durationTicks": 384,
            "midi": 66,
            "name": "F#4",
            "ticks": 57216,
            "time": 74.5,
            "velocity": 0.007874015748031496
          },
          {
            "duration": 0.5,
            "durationTicks": 384,
            "midi": 42,
            "name": "F#2",
            "ticks": 57216,
            "time": 74.5,
            "velocity": 0.007874015748031496
          },
          {
            "duration": 0.5,
            "durationTicks": 384,
            "midi": 46,
            "name": "A#2",
            "ticks": 57216,
            "time": 74.5,
            "velocity": 0.007874015748031496
          },
          {
            "duration": 0.5,
            "durationTicks": 384,
            "midi": 37,
            "name": "C#2",
            "ticks": 57216,
            "time": 74.5,
            "velocity": 0.007874015748031496
          },
          {
            "duration": 0.5,
            "durationTicks": 384,
            "midi": 61,
            "name": "C#4",
            "ticks": 57216,
            "time": 74.5,
            "velocity": 0.007874015748031496
          },
          {
            "duration": 0.5,
            "durationTicks": 384,
            "midi": 70,
            "name": "A#4",
            "ticks": 57216,
            "time": 74.5,
            "velocity": 0.007874015748031496
          },
          {
            "duration": 1,
            "durationTicks": 768,
            "midi": 49,
            "name": "C#3",
            "ticks": 57600,
            "time": 75,
            "velocity": 0.015748031496062992
          },
          {
            "duration": 1,
            "durationTicks": 768,
            "midi": 37,
            "name": "C#2",
            "ticks": 57600,
            "time": 75,
            "velocity": 0.007874015748031496
          },
          {
            "duration": 1,
            "durationTicks": 768,
            "midi": 64,
            "name": "E4",
            "ticks": 57600,
            "time": 75,
            "velocity": 0.007874015748031496
          },
          {
            "duration": 1,
            "durationTicks": 768,
            "midi": 52,
            "name": "E3",
            "ticks": 57600,
            "time": 75,
            "velocity": 0.015748031496062992
          },
          {
            "duration": 1,
            "durationTicks": 768,
            "midi": 56,
            "name": "G#3",
            "ticks": 57600,
            "time": 75,
            "velocity": 0.015748031496062992
          },
          {
            "duration": 1,
            "durationTicks": 768,
            "midi": 44,
            "name": "G#2",
            "ticks": 57600,
            "time": 75,
            "velocity": 0.007874015748031496
          },
          {
            "duration": 1,
            "durationTicks": 768,
            "midi": 61,
            "name": "C#4",
            "ticks": 57600,
            "time": 75,
            "velocity": 0.007874015748031496
          },
          {
            "duration": 1,
            "durationTicks": 768,
            "midi": 40,
            "name": "E2",
            "ticks": 57600,
            "time": 75,
            "velocity": 0.007874015748031496
          },
          {
            "duration": 1,
            "durationTicks": 768,
            "midi": 68,
            "name": "G#4",
            "ticks": 57600,
            "time": 75,
            "velocity": 0.007874015748031496
          },
          {
            "duration": 2,
            "durationTicks": 1536,
            "midi": 61,
            "name": "C#4",
            "ticks": 58368,
            "time": 76,
            "velocity": 0.007874015748031496
          },
          {
            "duration": 2,
            "durationTicks": 1536,
            "midi": 66,
            "name": "F#4",
            "ticks": 58368,
            "time": 76,
            "velocity": 0.007874015748031496
          },
          {
            "duration": 2,
            "durationTicks": 1536,
            "midi": 58,
            "name": "A#3",
            "ticks": 58368,
            "time": 76,
            "velocity": 0.007874015748031496
          },
          {
            "duration": 2,
            "durationTicks": 1536,
            "midi": 34,
            "name": "A#1",
            "ticks": 58368,
            "time": 76,
            "velocity": 0.007874015748031496
          },
          {
            "duration": 2,
            "durationTicks": 1536,
            "midi": 42,
            "name": "F#2",
            "ticks": 58368,
            "time": 76,
            "velocity": 0.007874015748031496
          },
          {
            "duration": 2,
            "durationTicks": 1536,
            "midi": 54,
            "name": "F#3",
            "ticks": 58368,
            "time": 76,
            "velocity": 0.015748031496062992
          },
          {
            "duration": 2,
            "durationTicks": 1536,
            "midi": 37,
            "name": "C#2",
            "ticks": 58368,
            "time": 76,
            "velocity": 0.007874015748031496
          },
          {
            "duration": 2,
            "durationTicks": 1536,
            "midi": 49,
            "name": "C#3",
            "ticks": 58368,
            "time": 76,
            "velocity": 0.015748031496062992
          },
          {
            "duration": 2,
            "durationTicks": 1536,
            "midi": 46,
            "name": "A#2",
            "ticks": 58368,
            "time": 76,
            "velocity": 0.015748031496062992
          },
          {
            "duration": 2,
            "durationTicks": 1536,
            "midi": 56,
            "name": "G#3",
            "ticks": 59904,
            "time": 78,
            "velocity": 0.007874015748031496
          },
          {
            "duration": 2,
            "durationTicks": 1536,
            "midi": 32,
            "name": "G#1",
            "ticks": 59904,
            "time": 78,
            "velocity": 0.007874015748031496
          },
          {
            "duration": 2,
            "durationTicks": 1536,
            "midi": 47,
            "name": "B2",
            "ticks": 59904,
            "time": 78,
            "velocity": 0.015748031496062992
          },
          {
            "duration": 2,
            "durationTicks": 1536,
            "midi": 64,
            "name": "E4",
            "ticks": 59904,
            "time": 78,
            "velocity": 0.007874015748031496
          },
          {
            "duration": 2,
            "durationTicks": 1536,
            "midi": 52,
            "name": "E3",
            "ticks": 59904,
            "time": 78,
            "velocity": 0.015748031496062992
          },
          {
            "duration": 2,
            "durationTicks": 1536,
            "midi": 44,
            "name": "G#2",
            "ticks": 59904,
            "time": 78,
            "velocity": 0.015748031496062992
          },
          {
            "duration": 2,
            "durationTicks": 1536,
            "midi": 59,
            "name": "B3",
            "ticks": 59904,
            "time": 78,
            "velocity": 0.007874015748031496
          },
          {
            "duration": 2,
            "durationTicks": 1536,
            "midi": 40,
            "name": "E2",
            "ticks": 59904,
            "time": 78,
            "velocity": 0.007874015748031496
          },
          {
            "duration": 2,
            "durationTicks": 1536,
            "midi": 35,
            "name": "B1",
            "ticks": 59904,
            "time": 78,
            "velocity": 0.007874015748031496
          },
          {
            "duration": 0.375,
            "durationTicks": 288,
            "midi": 49,
            "name": "C#3",
            "ticks": 61440,
            "time": 80,
            "velocity": 0.007874015748031496
          },
          {
            "duration": 0.375,
            "durationTicks": 288,
            "midi": 40,
            "name": "E2",
            "ticks": 61440,
            "time": 80,
            "velocity": 0.007874015748031496
          },
          {
            "duration": 0.375,
            "durationTicks": 288,
            "midi": 44,
            "name": "G#2",
            "ticks": 61440,
            "time": 80,
            "velocity": 0.007874015748031496
          },
          {
            "duration": 0.375,
            "durationTicks": 288,
            "midi": 64,
            "name": "E4",
            "ticks": 61440,
            "time": 80,
            "velocity": 0.007874015748031496
          },
          {
            "duration": 0.375,
            "durationTicks": 288,
            "midi": 56,
            "name": "G#3",
            "ticks": 61440,
            "time": 80,
            "velocity": 0.015748031496062992
          },
          {
            "duration": 0.375,
            "durationTicks": 288,
            "midi": 61,
            "name": "C#4",
            "ticks": 61440,
            "time": 80,
            "velocity": 0.015748031496062992
          },
          {
            "duration": 0.375,
            "durationTicks": 288,
            "midi": 52,
            "name": "E3",
            "ticks": 61440,
            "time": 80,
            "velocity": 0.015748031496062992
          },
          {
            "duration": 0.375,
            "durationTicks": 288,
            "midi": 73,
            "name": "C#5",
            "ticks": 61440,
            "time": 80,
            "velocity": 0.007874015748031496
          },
          {
            "duration": 0.375,
            "durationTicks": 288,
            "midi": 68,
            "name": "G#4",
            "ticks": 61440,
            "time": 80,
            "velocity": 0.007874015748031496
          },
          {
            "duration": 1.625,
            "durationTicks": 1248,
            "midi": 56,
            "name": "G#3",
            "ticks": 61728,
            "time": 80.375,
            "velocity": 0.015748031496062992
          },
          {
            "duration": 1.625,
            "durationTicks": 1248,
            "midi": 59,
            "name": "B3",
            "ticks": 61728,
            "time": 80.375,
            "velocity": 0.015748031496062992
          },
          {
            "duration": 1.625,
            "durationTicks": 1248,
            "midi": 47,
            "name": "B2",
            "ticks": 61728,
            "time": 80.375,
            "velocity": 0.007874015748031496
          },
          {
            "duration": 1.625,
            "durationTicks": 1248,
            "midi": 68,
            "name": "G#4",
            "ticks": 61728,
            "time": 80.375,
            "velocity": 0.007874015748031496
          },
          {
            "duration": 1.625,
            "durationTicks": 1248,
            "midi": 52,
            "name": "E3",
            "ticks": 61728,
            "time": 80.375,
            "velocity": 0.015748031496062992
          },
          {
            "duration": 1.625,
            "durationTicks": 1248,
            "midi": 64,
            "name": "E4",
            "ticks": 61728,
            "time": 80.375,
            "velocity": 0.007874015748031496
          },
          {
            "duration": 1.625,
            "durationTicks": 1248,
            "midi": 40,
            "name": "E2",
            "ticks": 61728,
            "time": 80.375,
            "velocity": 0.007874015748031496
          },
          {
            "duration": 1.625,
            "durationTicks": 1248,
            "midi": 71,
            "name": "B4",
            "ticks": 61728,
            "time": 80.375,
            "velocity": 0.007874015748031496
          },
          {
            "duration": 1.625,
            "durationTicks": 1248,
            "midi": 44,
            "name": "G#2",
            "ticks": 61728,
            "time": 80.375,
            "velocity": 0.007874015748031496
          },
          {
            "duration": 0.5,
            "durationTicks": 384,
            "midi": 44,
            "name": "G#2",
            "ticks": 62976,
            "time": 82,
            "velocity": 0.007874015748031496
          },
          {
            "duration": 0.5,
            "durationTicks": 384,
            "midi": 47,
            "name": "B2",
            "ticks": 62976,
            "time": 82,
            "velocity": 0.007874015748031496
          },
          {
            "duration": 0.5,
            "durationTicks": 384,
            "midi": 68,
            "name": "G#4",
            "ticks": 62976,
            "time": 82,
            "velocity": 0.007874015748031496
          },
          {
            "duration": 0.5,
            "durationTicks": 384,
            "midi": 40,
            "name": "E2",
            "ticks": 62976,
            "time": 82,
            "velocity": 0.007874015748031496
          },
          {
            "duration": 0.5,
            "durationTicks": 384,
            "midi": 52,
            "name": "E3",
            "ticks": 62976,
            "time": 82,
            "velocity": 0.015748031496062992
          },
          {
            "duration": 0.5,
            "durationTicks": 384,
            "midi": 59,
            "name": "B3",
            "ticks": 62976,
            "time": 82,
            "velocity": 0.015748031496062992
          },
          {
            "duration": 0.5,
            "durationTicks": 384,
            "midi": 71,
            "name": "B4",
            "ticks": 62976,
            "time": 82,
            "velocity": 0.007874015748031496
          },
          {
            "duration": 0.5,
            "durationTicks": 384,
            "midi": 56,
            "name": "G#3",
            "ticks": 62976,
            "time": 82,
            "velocity": 0.015748031496062992
          },
          {
            "duration": 0.5,
            "durationTicks": 384,
            "midi": 64,
            "name": "E4",
            "ticks": 62976,
            "time": 82,
            "velocity": 0.007874015748031496
          },
          {
            "duration": 0.5,
            "durationTicks": 384,
            "midi": 54,
            "name": "F#3",
            "ticks": 63360,
            "time": 82.5,
            "velocity": 0.015748031496062992
          },
          {
            "duration": 0.5,
            "durationTicks": 384,
            "midi": 61,
            "name": "C#4",
            "ticks": 63360,
            "time": 82.5,
            "velocity": 0.007874015748031496
          },
          {
            "duration": 0.5,
            "durationTicks": 384,
            "midi": 58,
            "name": "A#3",
            "ticks": 63360,
            "time": 82.5,
            "velocity": 0.015748031496062992
          },
          {
            "duration": 0.5,
            "durationTicks": 384,
            "midi": 66,
            "name": "F#4",
            "ticks": 63360,
            "time": 82.5,
            "velocity": 0.007874015748031496
          },
          {
            "duration": 0.5,
            "durationTicks": 384,
            "midi": 70,
            "name": "A#4",
            "ticks": 63360,
            "time": 82.5,
            "velocity": 0.007874015748031496
          },
          {
            "duration": 0.5,
            "durationTicks": 384,
            "midi": 37,
            "name": "C#2",
            "ticks": 63360,
            "time": 82.5,
            "velocity": 0.007874015748031496
          },
          {
            "duration": 0.5,
            "durationTicks": 384,
            "midi": 46,
            "name": "A#2",
            "ticks": 63360,
            "time": 82.5,
            "velocity": 0.007874015748031496
          },
          {
            "duration": 0.5,
            "durationTicks": 384,
            "midi": 49,
            "name": "C#3",
            "ticks": 63360,
            "time": 82.5,
            "velocity": 0.015748031496062992
          },
          {
            "duration": 0.5,
            "durationTicks": 384,
            "midi": 42,
            "name": "F#2",
            "ticks": 63360,
            "time": 82.5,
            "velocity": 0.007874015748031496
          },
          {
            "duration": 1,
            "durationTicks": 768,
            "midi": 68,
            "name": "G#4",
            "ticks": 63744,
            "time": 83,
            "velocity": 0.007874015748031496
          },
          {
            "duration": 1,
            "durationTicks": 768,
            "midi": 64,
            "name": "E4",
            "ticks": 63744,
            "time": 83,
            "velocity": 0.007874015748031496
          },
          {
            "duration": 1,
            "durationTicks": 768,
            "midi": 52,
            "name": "E3",
            "ticks": 63744,
            "time": 83,
            "velocity": 0.015748031496062992
          },
          {
            "duration": 1,
            "durationTicks": 768,
            "midi": 49,
            "name": "C#3",
            "ticks": 63744,
            "time": 83,
            "velocity": 0.015748031496062992
          },
          {
            "duration": 1,
            "durationTicks": 768,
            "midi": 37,
            "name": "C#2",
            "ticks": 63744,
            "time": 83,
            "velocity": 0.007874015748031496
          },
          {
            "duration": 1,
            "durationTicks": 768,
            "midi": 56,
            "name": "G#3",
            "ticks": 63744,
            "time": 83,
            "velocity": 0.015748031496062992
          },
          {
            "duration": 1,
            "durationTicks": 768,
            "midi": 40,
            "name": "E2",
            "ticks": 63744,
            "time": 83,
            "velocity": 0.007874015748031496
          },
          {
            "duration": 1,
            "durationTicks": 768,
            "midi": 61,
            "name": "C#4",
            "ticks": 63744,
            "time": 83,
            "velocity": 0.007874015748031496
          },
          {
            "duration": 1,
            "durationTicks": 768,
            "midi": 44,
            "name": "G#2",
            "ticks": 63744,
            "time": 83,
            "velocity": 0.007874015748031496
          },
          {
            "duration": 2,
            "durationTicks": 1536,
            "midi": 42,
            "name": "F#2",
            "ticks": 64512,
            "time": 84,
            "velocity": 0.007874015748031496
          },
          {
            "duration": 2,
            "durationTicks": 1536,
            "midi": 49,
            "name": "C#3",
            "ticks": 64512,
            "time": 84,
            "velocity": 0.015748031496062992
          },
          {
            "duration": 2,
            "durationTicks": 1536,
            "midi": 34,
            "name": "A#1",
            "ticks": 64512,
            "time": 84,
            "velocity": 0.007874015748031496
          },
          {
            "duration": 2,
            "durationTicks": 1536,
            "midi": 54,
            "name": "F#3",
            "ticks": 64512,
            "time": 84,
            "velocity": 0.015748031496062992
          },
          {
            "duration": 2,
            "durationTicks": 1536,
            "midi": 37,
            "name": "C#2",
            "ticks": 64512,
            "time": 84,
            "velocity": 0.007874015748031496
          },
          {
            "duration": 2,
            "durationTicks": 1536,
            "midi": 66,
            "name": "F#4",
            "ticks": 64512,
            "time": 84,
            "velocity": 0.007874015748031496
          },
          {
            "duration": 2,
            "durationTicks": 1536,
            "midi": 46,
            "name": "A#2",
            "ticks": 64512,
            "time": 84,
            "velocity": 0.015748031496062992
          },
          {
            "duration": 2,
            "durationTicks": 1536,
            "midi": 61,
            "name": "C#4",
            "ticks": 64512,
            "time": 84,
            "velocity": 0.007874015748031496
          },
          {
            "duration": 2,
            "durationTicks": 1536,
            "midi": 58,
            "name": "A#3",
            "ticks": 64512,
            "time": 84,
            "velocity": 0.007874015748031496
          },
          {
            "duration": 2,
            "durationTicks": 1536,
            "midi": 49,
            "name": "C#3",
            "ticks": 73728,
            "time": 96,
            "velocity": 0.007874015748031496
          },
          {
            "duration": 2,
            "durationTicks": 1536,
            "midi": 42,
            "name": "F#2",
            "ticks": 73728,
            "time": 96,
            "velocity": 0.007874015748031496
          },
          {
            "duration": 2,
            "durationTicks": 1536,
            "midi": 46,
            "name": "A#2",
            "ticks": 73728,
            "time": 96,
            "velocity": 0.007874015748031496
          },
          {
            "duration": 2,
            "durationTicks": 1536,
            "midi": 25,
            "name": "C#1",
            "ticks": 73728,
            "time": 96,
            "velocity": 0.007874015748031496
          },
          {
            "duration": 2,
            "durationTicks": 1536,
            "midi": 25,
            "name": "C#1",
            "ticks": 75264,
            "time": 98,
            "velocity": 0.007874015748031496
          },
          {
            "duration": 2,
            "durationTicks": 1536,
            "midi": 46,
            "name": "A#2",
            "ticks": 75264,
            "time": 98,
            "velocity": 0.007874015748031496
          },
          {
            "duration": 2,
            "durationTicks": 1536,
            "midi": 42,
            "name": "F#2",
            "ticks": 75264,
            "time": 98,
            "velocity": 0.007874015748031496
          },
          {
            "duration": 2,
            "durationTicks": 1536,
            "midi": 49,
            "name": "C#3",
            "ticks": 75264,
            "time": 98,
            "velocity": 0.007874015748031496
          },
          {
            "duration": 2,
            "durationTicks": 1536,
            "midi": 28,
            "name": "E1",
            "ticks": 76800,
            "time": 100,
            "velocity": 0.007874015748031496
          },
          {
            "duration": 2,
            "durationTicks": 1536,
            "midi": 47,
            "name": "B2",
            "ticks": 76800,
            "time": 100,
            "velocity": 0.007874015748031496
          },
          {
            "duration": 2,
            "durationTicks": 1536,
            "midi": 44,
            "name": "G#2",
            "ticks": 76800,
            "time": 100,
            "velocity": 0.007874015748031496
          },
          {
            "duration": 2,
            "durationTicks": 1536,
            "midi": 52,
            "name": "E3",
            "ticks": 76800,
            "time": 100,
            "velocity": 0.007874015748031496
          },
          {
            "duration": 2,
            "durationTicks": 1536,
            "midi": 44,
            "name": "G#2",
            "ticks": 78336,
            "time": 102,
            "velocity": 0.007874015748031496
          },
          {
            "duration": 2,
            "durationTicks": 1536,
            "midi": 52,
            "name": "E3",
            "ticks": 78336,
            "time": 102,
            "velocity": 0.007874015748031496
          },
          {
            "duration": 2,
            "durationTicks": 1536,
            "midi": 47,
            "name": "B2",
            "ticks": 78336,
            "time": 102,
            "velocity": 0.007874015748031496
          },
          {
            "duration": 2,
            "durationTicks": 1536,
            "midi": 28,
            "name": "E1",
            "ticks": 78336,
            "time": 102,
            "velocity": 0.007874015748031496
          },
          {
            "duration": 2,
            "durationTicks": 1536,
            "midi": 46,
            "name": "A#2",
            "ticks": 79872,
            "time": 104,
            "velocity": 0.007874015748031496
          },
          {
            "duration": 2,
            "durationTicks": 1536,
            "midi": 25,
            "name": "C#1",
            "ticks": 79872,
            "time": 104,
            "velocity": 0.007874015748031496
          },
          {
            "duration": 2,
            "durationTicks": 1536,
            "midi": 42,
            "name": "F#2",
            "ticks": 79872,
            "time": 104,
            "velocity": 0.007874015748031496
          },
          {
            "duration": 2,
            "durationTicks": 1536,
            "midi": 49,
            "name": "C#3",
            "ticks": 79872,
            "time": 104,
            "velocity": 0.007874015748031496
          },
          {
            "duration": 2,
            "durationTicks": 1536,
            "midi": 25,
            "name": "C#1",
            "ticks": 81408,
            "time": 106,
            "velocity": 0.007874015748031496
          },
          {
            "duration": 2,
            "durationTicks": 1536,
            "midi": 49,
            "name": "C#3",
            "ticks": 81408,
            "time": 106,
            "velocity": 0.007874015748031496
          },
          {
            "duration": 2,
            "durationTicks": 1536,
            "midi": 46,
            "name": "A#2",
            "ticks": 81408,
            "time": 106,
            "velocity": 0.007874015748031496
          },
          {
            "duration": 2,
            "durationTicks": 1536,
            "midi": 42,
            "name": "F#2",
            "ticks": 81408,
            "time": 106,
            "velocity": 0.007874015748031496
          },
          {
            "duration": 2,
            "durationTicks": 1536,
            "midi": 44,
            "name": "G#2",
            "ticks": 82944,
            "time": 108,
            "velocity": 0.007874015748031496
          },
          {
            "duration": 2,
            "durationTicks": 1536,
            "midi": 47,
            "name": "B2",
            "ticks": 82944,
            "time": 108,
            "velocity": 0.007874015748031496
          },
          {
            "duration": 2,
            "durationTicks": 1536,
            "midi": 28,
            "name": "E1",
            "ticks": 82944,
            "time": 108,
            "velocity": 0.007874015748031496
          },
          {
            "duration": 2,
            "durationTicks": 1536,
            "midi": 52,
            "name": "E3",
            "ticks": 82944,
            "time": 108,
            "velocity": 0.007874015748031496
          },
          {
            "duration": 2,
            "durationTicks": 1536,
            "midi": 52,
            "name": "E3",
            "ticks": 84480,
            "time": 110,
            "velocity": 0.007874015748031496
          },
          {
            "duration": 2,
            "durationTicks": 1536,
            "midi": 44,
            "name": "G#2",
            "ticks": 84480,
            "time": 110,
            "velocity": 0.007874015748031496
          },
          {
            "duration": 2,
            "durationTicks": 1536,
            "midi": 47,
            "name": "B2",
            "ticks": 84480,
            "time": 110,
            "velocity": 0.007874015748031496
          },
          {
            "duration": 2,
            "durationTicks": 1536,
            "midi": 28,
            "name": "E1",
            "ticks": 84480,
            "time": 110,
            "velocity": 0.007874015748031496
          },
          {
            "duration": 2,
            "durationTicks": 1536,
            "midi": 46,
            "name": "A#2",
            "ticks": 86016,
            "time": 112,
            "velocity": 0.007874015748031496
          },
          {
            "duration": 2,
            "durationTicks": 1536,
            "midi": 54,
            "name": "F#3",
            "ticks": 86016,
            "time": 112,
            "velocity": 0.007874015748031496
          },
          {
            "duration": 2,
            "durationTicks": 1536,
            "midi": 49,
            "name": "C#3",
            "ticks": 86016,
            "time": 112,
            "velocity": 0.007874015748031496
          },
          {
            "duration": 2,
            "durationTicks": 1536,
            "midi": 46,
            "name": "A#2",
            "ticks": 87552,
            "time": 114,
            "velocity": 0.007874015748031496
          },
          {
            "duration": 2,
            "durationTicks": 1536,
            "midi": 54,
            "name": "F#3",
            "ticks": 87552,
            "time": 114,
            "velocity": 0.007874015748031496
          },
          {
            "duration": 2,
            "durationTicks": 1536,
            "midi": 49,
            "name": "C#3",
            "ticks": 87552,
            "time": 114,
            "velocity": 0.007874015748031496
          },
          {
            "duration": 2,
            "durationTicks": 1536,
            "midi": 47,
            "name": "B2",
            "ticks": 89088,
            "time": 116,
            "velocity": 0.007874015748031496
          },
          {
            "duration": 2,
            "durationTicks": 1536,
            "midi": 56,
            "name": "G#3",
            "ticks": 89088,
            "time": 116,
            "velocity": 0.007874015748031496
          },
          {
            "duration": 2,
            "durationTicks": 1536,
            "midi": 52,
            "name": "E3",
            "ticks": 89088,
            "time": 116,
            "velocity": 0.007874015748031496
          },
          {
            "duration": 2,
            "durationTicks": 1536,
            "midi": 56,
            "name": "G#3",
            "ticks": 90624,
            "time": 118,
            "velocity": 0.007874015748031496
          },
          {
            "duration": 2,
            "durationTicks": 1536,
            "midi": 47,
            "name": "B2",
            "ticks": 90624,
            "time": 118,
            "velocity": 0.007874015748031496
          },
          {
            "duration": 2,
            "durationTicks": 1536,
            "midi": 52,
            "name": "E3",
            "ticks": 90624,
            "time": 118,
            "velocity": 0.007874015748031496
          },
          {
            "duration": 2,
            "durationTicks": 1536,
            "midi": 46,
            "name": "A#2",
            "ticks": 92160,
            "time": 120,
            "velocity": 0.007874015748031496
          },
          {
            "duration": 2,
            "durationTicks": 1536,
            "midi": 54,
            "name": "F#3",
            "ticks": 92160,
            "time": 120,
            "velocity": 0.007874015748031496
          },
          {
            "duration": 2,
            "durationTicks": 1536,
            "midi": 49,
            "name": "C#3",
            "ticks": 92160,
            "time": 120,
            "velocity": 0.007874015748031496
          },
          {
            "duration": 2,
            "durationTicks": 1536,
            "midi": 49,
            "name": "C#3",
            "ticks": 93696,
            "time": 122,
            "velocity": 0.007874015748031496
          },
          {
            "duration": 2,
            "durationTicks": 1536,
            "midi": 46,
            "name": "A#2",
            "ticks": 93696,
            "time": 122,
            "velocity": 0.007874015748031496
          },
          {
            "duration": 2,
            "durationTicks": 1536,
            "midi": 54,
            "name": "F#3",
            "ticks": 93696,
            "time": 122,
            "velocity": 0.007874015748031496
          },
          {
            "duration": 2,
            "durationTicks": 1536,
            "midi": 52,
            "name": "E3",
            "ticks": 95232,
            "time": 124,
            "velocity": 0.007874015748031496
          },
          {
            "duration": 2,
            "durationTicks": 1536,
            "midi": 56,
            "name": "G#3",
            "ticks": 95232,
            "time": 124,
            "velocity": 0.007874015748031496
          },
          {
            "duration": 2,
            "durationTicks": 1536,
            "midi": 49,
            "name": "C#3",
            "ticks": 95232,
            "time": 124,
            "velocity": 0.007874015748031496
          },
          {
            "duration": 2,
            "durationTicks": 1536,
            "midi": 51,
            "name": "D#3",
            "ticks": 96768,
            "time": 126,
            "velocity": 0.007874015748031496
          },
          {
            "duration": 2,
            "durationTicks": 1536,
            "midi": 54,
            "name": "F#3",
            "ticks": 96768,
            "time": 126,
            "velocity": 0.007874015748031496
          },
          {
            "duration": 2,
            "durationTicks": 1536,
            "midi": 44,
            "name": "G#2",
            "ticks": 96768,
            "time": 126,
            "velocity": 0.007874015748031496
          },
          {
            "duration": 0.375,
            "durationTicks": 288,
            "midi": 56,
            "name": "G#3",
            "ticks": 98304,
            "time": 128,
            "velocity": 0.015748031496062992
          },
          {
            "duration": 0.375,
            "durationTicks": 288,
            "midi": 61,
            "name": "C#4",
            "ticks": 98304,
            "time": 128,
            "velocity": 0.015748031496062992
          },
          {
            "duration": 0.375,
            "durationTicks": 288,
            "midi": 64,
            "name": "E4",
            "ticks": 98304,
            "time": 128,
            "velocity": 0.007874015748031496
          },
          {
            "duration": 0.375,
            "durationTicks": 288,
            "midi": 52,
            "name": "E3",
            "ticks": 98304,
            "time": 128,
            "velocity": 0.015748031496062992
          },
          {
            "duration": 0.375,
            "durationTicks": 288,
            "midi": 68,
            "name": "G#4",
            "ticks": 98304,
            "time": 128,
            "velocity": 0.007874015748031496
          },
          {
            "duration": 0.375,
            "durationTicks": 288,
            "midi": 40,
            "name": "E2",
            "ticks": 98304,
            "time": 128,
            "velocity": 0.007874015748031496
          },
          {
            "duration": 0.375,
            "durationTicks": 288,
            "midi": 49,
            "name": "C#3",
            "ticks": 98304,
            "time": 128,
            "velocity": 0.007874015748031496
          },
          {
            "duration": 0.375,
            "durationTicks": 288,
            "midi": 73,
            "name": "C#5",
            "ticks": 98304,
            "time": 128,
            "velocity": 0.007874015748031496
          },
          {
            "duration": 0.375,
            "durationTicks": 288,
            "midi": 44,
            "name": "G#2",
            "ticks": 98304,
            "time": 128,
            "velocity": 0.007874015748031496
          },
          {
            "duration": 1.625,
            "durationTicks": 1248,
            "midi": 52,
            "name": "E3",
            "ticks": 98592,
            "time": 128.375,
            "velocity": 0.015748031496062992
          },
          {
            "duration": 1.625,
            "durationTicks": 1248,
            "midi": 71,
            "name": "B4",
            "ticks": 98592,
            "time": 128.375,
            "velocity": 0.007874015748031496
          },
          {
            "duration": 1.625,
            "durationTicks": 1248,
            "midi": 56,
            "name": "G#3",
            "ticks": 98592,
            "time": 128.375,
            "velocity": 0.015748031496062992
          },
          {
            "duration": 1.625,
            "durationTicks": 1248,
            "midi": 59,
            "name": "B3",
            "ticks": 98592,
            "time": 128.375,
            "velocity": 0.015748031496062992
          },
          {
            "duration": 1.625,
            "durationTicks": 1248,
            "midi": 44,
            "name": "G#2",
            "ticks": 98592,
            "time": 128.375,
            "velocity": 0.007874015748031496
          },
          {
            "duration": 1.625,
            "durationTicks": 1248,
            "midi": 40,
            "name": "E2",
            "ticks": 98592,
            "time": 128.375,
            "velocity": 0.007874015748031496
          },
          {
            "duration": 1.625,
            "durationTicks": 1248,
            "midi": 47,
            "name": "B2",
            "ticks": 98592,
            "time": 128.375,
            "velocity": 0.007874015748031496
          },
          {
            "duration": 1.625,
            "durationTicks": 1248,
            "midi": 64,
            "name": "E4",
            "ticks": 98592,
            "time": 128.375,
            "velocity": 0.007874015748031496
          },
          {
            "duration": 1.625,
            "durationTicks": 1248,
            "midi": 68,
            "name": "G#4",
            "ticks": 98592,
            "time": 128.375,
            "velocity": 0.007874015748031496
          },
          {
            "duration": 0.5,
            "durationTicks": 384,
            "midi": 64,
            "name": "E4",
            "ticks": 99840,
            "time": 130,
            "velocity": 0.007874015748031496
          },
          {
            "duration": 0.5,
            "durationTicks": 384,
            "midi": 59,
            "name": "B3",
            "ticks": 99840,
            "time": 130,
            "velocity": 0.015748031496062992
          },
          {
            "duration": 0.5,
            "durationTicks": 384,
            "midi": 56,
            "name": "G#3",
            "ticks": 99840,
            "time": 130,
            "velocity": 0.015748031496062992
          },
          {
            "duration": 0.5,
            "durationTicks": 384,
            "midi": 68,
            "name": "G#4",
            "ticks": 99840,
            "time": 130,
            "velocity": 0.007874015748031496
          },
          {
            "duration": 0.5,
            "durationTicks": 384,
            "midi": 52,
            "name": "E3",
            "ticks": 99840,
            "time": 130,
            "velocity": 0.015748031496062992
          },
          {
            "duration": 0.5,
            "durationTicks": 384,
            "midi": 44,
            "name": "G#2",
            "ticks": 99840,
            "time": 130,
            "velocity": 0.007874015748031496
          },
          {
            "duration": 0.5,
            "durationTicks": 384,
            "midi": 71,
            "name": "B4",
            "ticks": 99840,
            "time": 130,
            "velocity": 0.007874015748031496
          },
          {
            "duration": 0.5,
            "durationTicks": 384,
            "midi": 47,
            "name": "B2",
            "ticks": 99840,
            "time": 130,
            "velocity": 0.007874015748031496
          },
          {
            "duration": 0.5,
            "durationTicks": 384,
            "midi": 40,
            "name": "E2",
            "ticks": 99840,
            "time": 130,
            "velocity": 0.007874015748031496
          },
          {
            "duration": 0.5,
            "durationTicks": 384,
            "midi": 61,
            "name": "C#4",
            "ticks": 100224,
            "time": 130.5,
            "velocity": 0.007874015748031496
          },
          {
            "duration": 0.5,
            "durationTicks": 384,
            "midi": 54,
            "name": "F#3",
            "ticks": 100224,
            "time": 130.5,
            "velocity": 0.015748031496062992
          },
          {
            "duration": 0.5,
            "durationTicks": 384,
            "midi": 42,
            "name": "F#2",
            "ticks": 100224,
            "time": 130.5,
            "velocity": 0.007874015748031496
          },
          {
            "duration": 0.5,
            "durationTicks": 384,
            "midi": 49,
            "name": "C#3",
            "ticks": 100224,
            "time": 130.5,
            "velocity": 0.015748031496062992
          },
          {
            "duration": 0.5,
            "durationTicks": 384,
            "midi": 37,
            "name": "C#2",
            "ticks": 100224,
            "time": 130.5,
            "velocity": 0.007874015748031496
          },
          {
            "duration": 0.5,
            "durationTicks": 384,
            "midi": 58,
            "name": "A#3",
            "ticks": 100224,
            "time": 130.5,
            "velocity": 0.015748031496062992
          },
          {
            "duration": 0.5,
            "durationTicks": 384,
            "midi": 70,
            "name": "A#4",
            "ticks": 100224,
            "time": 130.5,
            "velocity": 0.007874015748031496
          },
          {
            "duration": 0.5,
            "durationTicks": 384,
            "midi": 66,
            "name": "F#4",
            "ticks": 100224,
            "time": 130.5,
            "velocity": 0.007874015748031496
          },
          {
            "duration": 0.5,
            "durationTicks": 384,
            "midi": 46,
            "name": "A#2",
            "ticks": 100224,
            "time": 130.5,
            "velocity": 0.007874015748031496
          },
          {
            "duration": 1,
            "durationTicks": 768,
            "midi": 40,
            "name": "E2",
            "ticks": 100608,
            "time": 131,
            "velocity": 0.007874015748031496
          },
          {
            "duration": 1,
            "durationTicks": 768,
            "midi": 56,
            "name": "G#3",
            "ticks": 100608,
            "time": 131,
            "velocity": 0.015748031496062992
          },
          {
            "duration": 1,
            "durationTicks": 768,
            "midi": 64,
            "name": "E4",
            "ticks": 100608,
            "time": 131,
            "velocity": 0.007874015748031496
          },
          {
            "duration": 1,
            "durationTicks": 768,
            "midi": 52,
            "name": "E3",
            "ticks": 100608,
            "time": 131,
            "velocity": 0.015748031496062992
          },
          {
            "duration": 1,
            "durationTicks": 768,
            "midi": 44,
            "name": "G#2",
            "ticks": 100608,
            "time": 131,
            "velocity": 0.007874015748031496
          },
          {
            "duration": 1,
            "durationTicks": 768,
            "midi": 49,
            "name": "C#3",
            "ticks": 100608,
            "time": 131,
            "velocity": 0.015748031496062992
          },
          {
            "duration": 1,
            "durationTicks": 768,
            "midi": 68,
            "name": "G#4",
            "ticks": 100608,
            "time": 131,
            "velocity": 0.007874015748031496
          },
          {
            "duration": 1,
            "durationTicks": 768,
            "midi": 61,
            "name": "C#4",
            "ticks": 100608,
            "time": 131,
            "velocity": 0.007874015748031496
          },
          {
            "duration": 1,
            "durationTicks": 768,
            "midi": 37,
            "name": "C#2",
            "ticks": 100608,
            "time": 131,
            "velocity": 0.007874015748031496
          },
          {
            "duration": 2,
            "durationTicks": 1536,
            "midi": 54,
            "name": "F#3",
            "ticks": 101376,
            "time": 132,
            "velocity": 0.015748031496062992
          },
          {
            "duration": 2,
            "durationTicks": 1536,
            "midi": 58,
            "name": "A#3",
            "ticks": 101376,
            "time": 132,
            "velocity": 0.007874015748031496
          },
          {
            "duration": 2,
            "durationTicks": 1536,
            "midi": 46,
            "name": "A#2",
            "ticks": 101376,
            "time": 132,
            "velocity": 0.015748031496062992
          },
          {
            "duration": 2,
            "durationTicks": 1536,
            "midi": 34,
            "name": "A#1",
            "ticks": 101376,
            "time": 132,
            "velocity": 0.007874015748031496
          },
          {
            "duration": 2,
            "durationTicks": 1536,
            "midi": 66,
            "name": "F#4",
            "ticks": 101376,
            "time": 132,
            "velocity": 0.007874015748031496
          },
          {
            "duration": 2,
            "durationTicks": 1536,
            "midi": 61,
            "name": "C#4",
            "ticks": 101376,
            "time": 132,
            "velocity": 0.007874015748031496
          },
          {
            "duration": 2,
            "durationTicks": 1536,
            "midi": 42,
            "name": "F#2",
            "ticks": 101376,
            "time": 132,
            "velocity": 0.007874015748031496
          },
          {
            "duration": 2,
            "durationTicks": 1536,
            "midi": 37,
            "name": "C#2",
            "ticks": 101376,
            "time": 132,
            "velocity": 0.007874015748031496
          },
          {
            "duration": 2,
            "durationTicks": 1536,
            "midi": 49,
            "name": "C#3",
            "ticks": 101376,
            "time": 132,
            "velocity": 0.015748031496062992
          },
          {
            "duration": 2,
            "durationTicks": 1536,
            "midi": 40,
            "name": "E2",
            "ticks": 102912,
            "time": 134,
            "velocity": 0.007874015748031496
          },
          {
            "duration": 2,
            "durationTicks": 1536,
            "midi": 35,
            "name": "B1",
            "ticks": 102912,
            "time": 134,
            "velocity": 0.007874015748031496
          },
          {
            "duration": 2,
            "durationTicks": 1536,
            "midi": 32,
            "name": "G#1",
            "ticks": 102912,
            "time": 134,
            "velocity": 0.007874015748031496
          },
          {
            "duration": 2,
            "durationTicks": 1536,
            "midi": 59,
            "name": "B3",
            "ticks": 102912,
            "time": 134,
            "velocity": 0.007874015748031496
          },
          {
            "duration": 2,
            "durationTicks": 1536,
            "midi": 44,
            "name": "G#2",
            "ticks": 102912,
            "time": 134,
            "velocity": 0.015748031496062992
          },
          {
            "duration": 2,
            "durationTicks": 1536,
            "midi": 52,
            "name": "E3",
            "ticks": 102912,
            "time": 134,
            "velocity": 0.015748031496062992
          },
          {
            "duration": 2,
            "durationTicks": 1536,
            "midi": 47,
            "name": "B2",
            "ticks": 102912,
            "time": 134,
            "velocity": 0.015748031496062992
          },
          {
            "duration": 2,
            "durationTicks": 1536,
            "midi": 64,
            "name": "E4",
            "ticks": 102912,
            "time": 134,
            "velocity": 0.007874015748031496
          },
          {
            "duration": 2,
            "durationTicks": 1536,
            "midi": 56,
            "name": "G#3",
            "ticks": 102912,
            "time": 134,
            "velocity": 0.007874015748031496
          },
          {
            "duration": 0.375,
            "durationTicks": 288,
            "midi": 61,
            "name": "C#4",
            "ticks": 104448,
            "time": 136,
            "velocity": 0.015748031496062992
          },
          {
            "duration": 0.375,
            "durationTicks": 288,
            "midi": 68,
            "name": "G#4",
            "ticks": 104448,
            "time": 136,
            "velocity": 0.007874015748031496
          },
          {
            "duration": 0.375,
            "durationTicks": 288,
            "midi": 56,
            "name": "G#3",
            "ticks": 104448,
            "time": 136,
            "velocity": 0.015748031496062992
          },
          {
            "duration": 0.375,
            "durationTicks": 288,
            "midi": 44,
            "name": "G#2",
            "ticks": 104448,
            "time": 136,
            "velocity": 0.007874015748031496
          },
          {
            "duration": 0.375,
            "durationTicks": 288,
            "midi": 64,
            "name": "E4",
            "ticks": 104448,
            "time": 136,
            "velocity": 0.007874015748031496
          },
          {
            "duration": 0.375,
            "durationTicks": 288,
            "midi": 49,
            "name": "C#3",
            "ticks": 104448,
            "time": 136,
            "velocity": 0.007874015748031496
          },
          {
            "duration": 0.375,
            "durationTicks": 288,
            "midi": 73,
            "name": "C#5",
            "ticks": 104448,
            "time": 136,
            "velocity": 0.007874015748031496
          },
          {
            "duration": 0.375,
            "durationTicks": 288,
            "midi": 40,
            "name": "E2",
            "ticks": 104448,
            "time": 136,
            "velocity": 0.007874015748031496
          },
          {
            "duration": 0.375,
            "durationTicks": 288,
            "midi": 52,
            "name": "E3",
            "ticks": 104448,
            "time": 136,
            "velocity": 0.015748031496062992
          },
          {
            "duration": 1.625,
            "durationTicks": 1248,
            "midi": 47,
            "name": "B2",
            "ticks": 104736,
            "time": 136.375,
            "velocity": 0.007874015748031496
          },
          {
            "duration": 1.625,
            "durationTicks": 1248,
            "midi": 44,
            "name": "G#2",
            "ticks": 104736,
            "time": 136.375,
            "velocity": 0.007874015748031496
          },
          {
            "duration": 1.625,
            "durationTicks": 1248,
            "midi": 68,
            "name": "G#4",
            "ticks": 104736,
            "time": 136.375,
            "velocity": 0.007874015748031496
          },
          {
            "duration": 1.625,
            "durationTicks": 1248,
            "midi": 40,
            "name": "E2",
            "ticks": 104736,
            "time": 136.375,
            "velocity": 0.007874015748031496
          },
          {
            "duration": 1.625,
            "durationTicks": 1248,
            "midi": 52,
            "name": "E3",
            "ticks": 104736,
            "time": 136.375,
            "velocity": 0.015748031496062992
          },
          {
            "duration": 1.625,
            "durationTicks": 1248,
            "midi": 71,
            "name": "B4",
            "ticks": 104736,
            "time": 136.375,
            "velocity": 0.007874015748031496
          },
          {
            "duration": 1.625,
            "durationTicks": 1248,
            "midi": 59,
            "name": "B3",
            "ticks": 104736,
            "time": 136.375,
            "velocity": 0.015748031496062992
          },
          {
            "duration": 1.625,
            "durationTicks": 1248,
            "midi": 64,
            "name": "E4",
            "ticks": 104736,
            "time": 136.375,
            "velocity": 0.007874015748031496
          },
          {
            "duration": 1.625,
            "durationTicks": 1248,
            "midi": 56,
            "name": "G#3",
            "ticks": 104736,
            "time": 136.375,
            "velocity": 0.015748031496062992
          },
          {
            "duration": 0.5,
            "durationTicks": 384,
            "midi": 52,
            "name": "E3",
            "ticks": 105984,
            "time": 138,
            "velocity": 0.015748031496062992
          },
          {
            "duration": 0.5,
            "durationTicks": 384,
            "midi": 56,
            "name": "G#3",
            "ticks": 105984,
            "time": 138,
            "velocity": 0.015748031496062992
          },
          {
            "duration": 0.5,
            "durationTicks": 384,
            "midi": 71,
            "name": "B4",
            "ticks": 105984,
            "time": 138,
            "velocity": 0.007874015748031496
          },
          {
            "duration": 0.5,
            "durationTicks": 384,
            "midi": 44,
            "name": "G#2",
            "ticks": 105984,
            "time": 138,
            "velocity": 0.007874015748031496
          },
          {
            "duration": 0.5,
            "durationTicks": 384,
            "midi": 47,
            "name": "B2",
            "ticks": 105984,
            "time": 138,
            "velocity": 0.007874015748031496
          },
          {
            "duration": 0.5,
            "durationTicks": 384,
            "midi": 64,
            "name": "E4",
            "ticks": 105984,
            "time": 138,
            "velocity": 0.007874015748031496
          },
          {
            "duration": 0.5,
            "durationTicks": 384,
            "midi": 68,
            "name": "G#4",
            "ticks": 105984,
            "time": 138,
            "velocity": 0.007874015748031496
          },
          {
            "duration": 0.5,
            "durationTicks": 384,
            "midi": 40,
            "name": "E2",
            "ticks": 105984,
            "time": 138,
            "velocity": 0.007874015748031496
          },
          {
            "duration": 0.5,
            "durationTicks": 384,
            "midi": 59,
            "name": "B3",
            "ticks": 105984,
            "time": 138,
            "velocity": 0.015748031496062992
          },
          {
            "duration": 0.5,
            "durationTicks": 384,
            "midi": 49,
            "name": "C#3",
            "ticks": 106368,
            "time": 138.5,
            "velocity": 0.015748031496062992
          },
          {
            "duration": 0.5,
            "durationTicks": 384,
            "midi": 54,
            "name": "F#3",
            "ticks": 106368,
            "time": 138.5,
            "velocity": 0.015748031496062992
          },
          {
            "duration": 0.5,
            "durationTicks": 384,
            "midi": 58,
            "name": "A#3",
            "ticks": 106368,
            "time": 138.5,
            "velocity": 0.015748031496062992
          },
          {
            "duration": 0.5,
            "durationTicks": 384,
            "midi": 42,
            "name": "F#2",
            "ticks": 106368,
            "time": 138.5,
            "velocity": 0.007874015748031496
          },
          {
            "duration": 0.5,
            "durationTicks": 384,
            "midi": 70,
            "name": "A#4",
            "ticks": 106368,
            "time": 138.5,
            "velocity": 0.007874015748031496
          },
          {
            "duration": 0.5,
            "durationTicks": 384,
            "midi": 46,
            "name": "A#2",
            "ticks": 106368,
            "time": 138.5,
            "velocity": 0.007874015748031496
          },
          {
            "duration": 0.5,
            "durationTicks": 384,
            "midi": 66,
            "name": "F#4",
            "ticks": 106368,
            "time": 138.5,
            "velocity": 0.007874015748031496
          },
          {
            "duration": 0.5,
            "durationTicks": 384,
            "midi": 61,
            "name": "C#4",
            "ticks": 106368,
            "time": 138.5,
            "velocity": 0.007874015748031496
          },
          {
            "duration": 0.5,
            "durationTicks": 384,
            "midi": 37,
            "name": "C#2",
            "ticks": 106368,
            "time": 138.5,
            "velocity": 0.007874015748031496
          },
          {
            "duration": 1,
            "durationTicks": 768,
            "midi": 37,
            "name": "C#2",
            "ticks": 106752,
            "time": 139,
            "velocity": 0.007874015748031496
          },
          {
            "duration": 1,
            "durationTicks": 768,
            "midi": 68,
            "name": "G#4",
            "ticks": 106752,
            "time": 139,
            "velocity": 0.007874015748031496
          },
          {
            "duration": 1,
            "durationTicks": 768,
            "midi": 44,
            "name": "G#2",
            "ticks": 106752,
            "time": 139,
            "velocity": 0.007874015748031496
          },
          {
            "duration": 1,
            "durationTicks": 768,
            "midi": 61,
            "name": "C#4",
            "ticks": 106752,
            "time": 139,
            "velocity": 0.007874015748031496
          },
          {
            "duration": 1,
            "durationTicks": 768,
            "midi": 64,
            "name": "E4",
            "ticks": 106752,
            "time": 139,
            "velocity": 0.007874015748031496
          },
          {
            "duration": 1,
            "durationTicks": 768,
            "midi": 40,
            "name": "E2",
            "ticks": 106752,
            "time": 139,
            "velocity": 0.007874015748031496
          },
          {
            "duration": 1,
            "durationTicks": 768,
            "midi": 49,
            "name": "C#3",
            "ticks": 106752,
            "time": 139,
            "velocity": 0.015748031496062992
          },
          {
            "duration": 1,
            "durationTicks": 768,
            "midi": 52,
            "name": "E3",
            "ticks": 106752,
            "time": 139,
            "velocity": 0.015748031496062992
          },
          {
            "duration": 1,
            "durationTicks": 768,
            "midi": 56,
            "name": "G#3",
            "ticks": 106752,
            "time": 139,
            "velocity": 0.015748031496062992
          },
          {
            "duration": 2,
            "durationTicks": 1536,
            "midi": 37,
            "name": "C#2",
            "ticks": 107520,
            "time": 140,
            "velocity": 0.007874015748031496
          },
          {
            "duration": 2,
            "durationTicks": 1536,
            "midi": 66,
            "name": "F#4",
            "ticks": 107520,
            "time": 140,
            "velocity": 0.007874015748031496
          },
          {
            "duration": 2,
            "durationTicks": 1536,
            "midi": 58,
            "name": "A#3",
            "ticks": 107520,
            "time": 140,
            "velocity": 0.007874015748031496
          },
          {
            "duration": 2,
            "durationTicks": 1536,
            "midi": 54,
            "name": "F#3",
            "ticks": 107520,
            "time": 140,
            "velocity": 0.015748031496062992
          },
          {
            "duration": 2,
            "durationTicks": 1536,
            "midi": 46,
            "name": "A#2",
            "ticks": 107520,
            "time": 140,
            "velocity": 0.015748031496062992
          },
          {
            "duration": 2,
            "durationTicks": 1536,
            "midi": 42,
            "name": "F#2",
            "ticks": 107520,
            "time": 140,
            "velocity": 0.007874015748031496
          },
          {
            "duration": 2,
            "durationTicks": 1536,
            "midi": 61,
            "name": "C#4",
            "ticks": 107520,
            "time": 140,
            "velocity": 0.007874015748031496
          },
          {
            "duration": 2,
            "durationTicks": 1536,
            "midi": 34,
            "name": "A#1",
            "ticks": 107520,
            "time": 140,
            "velocity": 0.007874015748031496
          },
          {
            "duration": 2,
            "durationTicks": 1536,
            "midi": 49,
            "name": "C#3",
            "ticks": 107520,
            "time": 140,
            "velocity": 0.015748031496062992
          },
          {
            "duration": 0.25,
            "durationTicks": 192,
            "midi": 37,
            "name": "C#2",
            "ticks": 111552,
            "time": 145.25,
            "velocity": 0.015748031496062992
          },
          {
            "duration": 0.25,
            "durationTicks": 192,
            "midi": 47,
            "name": "B2",
            "ticks": 111552,
            "time": 145.25,
            "velocity": 0.015748031496062992
          },
          {
            "duration": 0.25,
            "durationTicks": 192,
            "midi": 52,
            "name": "E3",
            "ticks": 111552,
            "time": 145.25,
            "velocity": 0.015748031496062992
          },
          {
            "duration": 0.25,
            "durationTicks": 192,
            "midi": 44,
            "name": "G#2",
            "ticks": 111552,
            "time": 145.25,
            "velocity": 0.015748031496062992
          },
          {
            "duration": 0.25,
            "durationTicks": 192,
            "midi": 40,
            "name": "E2",
            "ticks": 111552,
            "time": 145.25,
            "velocity": 0.015748031496062992
          },
          {
            "duration": 2.5,
            "durationTicks": 1920,
            "midi": 54,
            "name": "F#3",
            "ticks": 111744,
            "time": 145.5,
            "velocity": 0.015748031496062992
          },
          {
            "duration": 2.5,
            "durationTicks": 1920,
            "midi": 49,
            "name": "C#3",
            "ticks": 111744,
            "time": 145.5,
            "velocity": 0.015748031496062992
          },
          {
            "duration": 0.5,
            "durationTicks": 384,
            "midi": 37,
            "name": "C#2",
            "ticks": 111744,
            "time": 145.5,
            "velocity": 0.015748031496062992
          },
          {
            "duration": 0.5,
            "durationTicks": 384,
            "midi": 46,
            "name": "A#2",
            "ticks": 111744,
            "time": 145.5,
            "velocity": 0.015748031496062992
          },
          {
            "duration": 0.5,
            "durationTicks": 384,
            "midi": 42,
            "name": "F#2",
            "ticks": 111744,
            "time": 145.5,
            "velocity": 0.015748031496062992
          },
          {
            "duration": 0.125,
            "durationTicks": 96,
            "midi": 37,
            "name": "C#2",
            "ticks": 112128,
            "time": 146,
            "velocity": 0.015748031496062992
          },
          {
            "duration": 0.125,
            "durationTicks": 96,
            "midi": 42,
            "name": "F#2",
            "ticks": 112128,
            "time": 146,
            "velocity": 0.015748031496062992
          },
          {
            "duration": 0.125,
            "durationTicks": 96,
            "midi": 46,
            "name": "A#2",
            "ticks": 112128,
            "time": 146,
            "velocity": 0.015748031496062992
          },
          {
            "duration": 0.125,
            "durationTicks": 96,
            "midi": 46,
            "name": "A#2",
            "ticks": 112224,
            "time": 146.125,
            "velocity": 0.015748031496062992
          },
          {
            "duration": 0.125,
            "durationTicks": 96,
            "midi": 37,
            "name": "C#2",
            "ticks": 112224,
            "time": 146.125,
            "velocity": 0.015748031496062992
          },
          {
            "duration": 0.125,
            "durationTicks": 96,
            "midi": 42,
            "name": "F#2",
            "ticks": 112224,
            "time": 146.125,
            "velocity": 0.015748031496062992
          },
          {
            "duration": 0.125,
            "durationTicks": 96,
            "midi": 46,
            "name": "A#2",
            "ticks": 112320,
            "time": 146.25,
            "velocity": 0.015748031496062992
          },
          {
            "duration": 0.125,
            "durationTicks": 96,
            "midi": 42,
            "name": "F#2",
            "ticks": 112320,
            "time": 146.25,
            "velocity": 0.015748031496062992
          },
          {
            "duration": 0.125,
            "durationTicks": 96,
            "midi": 37,
            "name": "C#2",
            "ticks": 112320,
            "time": 146.25,
            "velocity": 0.015748031496062992
          },
          {
            "duration": 0.125,
            "durationTicks": 96,
            "midi": 46,
            "name": "A#2",
            "ticks": 112416,
            "time": 146.375,
            "velocity": 0.015748031496062992
          },
          {
            "duration": 0.125,
            "durationTicks": 96,
            "midi": 42,
            "name": "F#2",
            "ticks": 112416,
            "time": 146.375,
            "velocity": 0.015748031496062992
          },
          {
            "duration": 0.125,
            "durationTicks": 96,
            "midi": 37,
            "name": "C#2",
            "ticks": 112416,
            "time": 146.375,
            "velocity": 0.015748031496062992
          },
          {
            "duration": 0.125,
            "durationTicks": 96,
            "midi": 42,
            "name": "F#2",
            "ticks": 112512,
            "time": 146.5,
            "velocity": 0.007874015748031496
          },
          {
            "duration": 0.125,
            "durationTicks": 96,
            "midi": 37,
            "name": "C#2",
            "ticks": 112512,
            "time": 146.5,
            "velocity": 0.007874015748031496
          },
          {
            "duration": 0.125,
            "durationTicks": 96,
            "midi": 46,
            "name": "A#2",
            "ticks": 112512,
            "time": 146.5,
            "velocity": 0.007874015748031496
          },
          {
            "duration": 0.125,
            "durationTicks": 96,
            "midi": 42,
            "name": "F#2",
            "ticks": 112608,
            "time": 146.625,
            "velocity": 0.007874015748031496
          },
          {
            "duration": 0.125,
            "durationTicks": 96,
            "midi": 37,
            "name": "C#2",
            "ticks": 112608,
            "time": 146.625,
            "velocity": 0.007874015748031496
          },
          {
            "duration": 0.125,
            "durationTicks": 96,
            "midi": 46,
            "name": "A#2",
            "ticks": 112608,
            "time": 146.625,
            "velocity": 0.007874015748031496
          },
          {
            "duration": 0.125,
            "durationTicks": 96,
            "midi": 46,
            "name": "A#2",
            "ticks": 112704,
            "time": 146.75,
            "velocity": 0.007874015748031496
          },
          {
            "duration": 0.125,
            "durationTicks": 96,
            "midi": 37,
            "name": "C#2",
            "ticks": 112704,
            "time": 146.75,
            "velocity": 0.007874015748031496
          },
          {
            "duration": 0.125,
            "durationTicks": 96,
            "midi": 42,
            "name": "F#2",
            "ticks": 112704,
            "time": 146.75,
            "velocity": 0.007874015748031496
          },
          {
            "duration": 0.125,
            "durationTicks": 96,
            "midi": 37,
            "name": "C#2",
            "ticks": 112800,
            "time": 146.875,
            "velocity": 0.007874015748031496
          },
          {
            "duration": 0.125,
            "durationTicks": 96,
            "midi": 46,
            "name": "A#2",
            "ticks": 112800,
            "time": 146.875,
            "velocity": 0.007874015748031496
          },
          {
            "duration": 0.125,
            "durationTicks": 96,
            "midi": 42,
            "name": "F#2",
            "ticks": 112800,
            "time": 146.875,
            "velocity": 0.007874015748031496
          },
          {
            "duration": 0.125,
            "durationTicks": 96,
            "midi": 37,
            "name": "C#2",
            "ticks": 112896,
            "time": 147,
            "velocity": 0.007874015748031496
          },
          {
            "duration": 0.125,
            "durationTicks": 96,
            "midi": 42,
            "name": "F#2",
            "ticks": 112896,
            "time": 147,
            "velocity": 0.007874015748031496
          },
          {
            "duration": 0.125,
            "durationTicks": 96,
            "midi": 46,
            "name": "A#2",
            "ticks": 112896,
            "time": 147,
            "velocity": 0.007874015748031496
          },
          {
            "duration": 0.125,
            "durationTicks": 96,
            "midi": 42,
            "name": "F#2",
            "ticks": 112992,
            "time": 147.125,
            "velocity": 0.007874015748031496
          },
          {
            "duration": 0.125,
            "durationTicks": 96,
            "midi": 46,
            "name": "A#2",
            "ticks": 112992,
            "time": 147.125,
            "velocity": 0.007874015748031496
          },
          {
            "duration": 0.125,
            "durationTicks": 96,
            "midi": 37,
            "name": "C#2",
            "ticks": 112992,
            "time": 147.125,
            "velocity": 0.007874015748031496
          },
          {
            "duration": 0.125,
            "durationTicks": 96,
            "midi": 37,
            "name": "C#2",
            "ticks": 113088,
            "time": 147.25,
            "velocity": 0.007874015748031496
          },
          {
            "duration": 0.125,
            "durationTicks": 96,
            "midi": 42,
            "name": "F#2",
            "ticks": 113088,
            "time": 147.25,
            "velocity": 0.007874015748031496
          },
          {
            "duration": 0.125,
            "durationTicks": 96,
            "midi": 46,
            "name": "A#2",
            "ticks": 113088,
            "time": 147.25,
            "velocity": 0.007874015748031496
          },
          {
            "duration": 0.125,
            "durationTicks": 96,
            "midi": 46,
            "name": "A#2",
            "ticks": 113184,
            "time": 147.375,
            "velocity": 0.007874015748031496
          },
          {
            "duration": 0.125,
            "durationTicks": 96,
            "midi": 37,
            "name": "C#2",
            "ticks": 113184,
            "time": 147.375,
            "velocity": 0.007874015748031496
          },
          {
            "duration": 0.125,
            "durationTicks": 96,
            "midi": 42,
            "name": "F#2",
            "ticks": 113184,
            "time": 147.375,
            "velocity": 0.007874015748031496
          },
          {
            "duration": 0.75,
            "durationTicks": 576,
            "midi": 54,
            "name": "F#3",
            "ticks": 113664,
            "time": 148,
            "velocity": 0.015748031496062992
          },
          {
            "duration": 0.75,
            "durationTicks": 576,
            "midi": 49,
            "name": "C#3",
            "ticks": 113664,
            "time": 148,
            "velocity": 0.015748031496062992
          },
          {
            "duration": 0.375,
            "durationTicks": 288,
            "midi": 49,
            "name": "C#3",
            "ticks": 114432,
            "time": 149,
            "velocity": 0.015748031496062992
          },
          {
            "duration": 0.375,
            "durationTicks": 288,
            "midi": 54,
            "name": "F#3",
            "ticks": 114432,
            "time": 149,
            "velocity": 0.015748031496062992
          },
          {
            "duration": 0.125,
            "durationTicks": 96,
            "midi": 49,
            "name": "C#3",
            "ticks": 114720,
            "time": 149.375,
            "velocity": 0.015748031496062992
          },
          {
            "duration": 0.125,
            "durationTicks": 96,
            "midi": 52,
            "name": "E3",
            "ticks": 114720,
            "time": 149.375,
            "velocity": 0.015748031496062992
          },
          {
            "duration": 2.1875,
            "durationTicks": 1680,
            "midi": 52,
            "name": "E3",
            "ticks": 115008,
            "time": 149.75,
            "velocity": 0.015748031496062992
          },
          {
            "duration": 2.1875,
            "durationTicks": 1680,
            "midi": 49,
            "name": "C#3",
            "ticks": 115008,
            "time": 149.75,
            "velocity": 0.015748031496062992
          },
          {
            "duration": 0.75,
            "durationTicks": 576,
            "midi": 49,
            "name": "C#3",
            "ticks": 116736,
            "time": 152,
            "velocity": 0.015748031496062992
          },
          {
            "duration": 0.75,
            "durationTicks": 576,
            "midi": 52,
            "name": "E3",
            "ticks": 116736,
            "time": 152,
            "velocity": 0.015748031496062992
          },
          {
            "duration": 0.375,
            "durationTicks": 288,
            "midi": 49,
            "name": "C#3",
            "ticks": 117504,
            "time": 153,
            "velocity": 0.015748031496062992
          },
          {
            "duration": 0.375,
            "durationTicks": 288,
            "midi": 52,
            "name": "E3",
            "ticks": 117504,
            "time": 153,
            "velocity": 0.015748031496062992
          },
          {
            "duration": 0.125,
            "durationTicks": 96,
            "midi": 54,
            "name": "F#3",
            "ticks": 117792,
            "time": 153.375,
            "velocity": 0.015748031496062992
          },
          {
            "duration": 0.125,
            "durationTicks": 96,
            "midi": 51,
            "name": "D#3",
            "ticks": 117792,
            "time": 153.375,
            "velocity": 0.015748031496062992
          },
          {
            "duration": 2.25,
            "durationTicks": 1728,
            "midi": 52,
            "name": "E3",
            "ticks": 118080,
            "time": 153.75,
            "velocity": 0.015748031496062992
          },
          {
            "duration": 2.25,
            "durationTicks": 1728,
            "midi": 56,
            "name": "G#3",
            "ticks": 118080,
            "time": 153.75,
            "velocity": 0.015748031496062992
          },
          {
            "duration": 1.5,
            "durationTicks": 1152,
            "midi": 56,
            "name": "G#3",
            "ticks": 119808,
            "time": 156,
            "velocity": 0.015748031496062992
          },
          {
            "duration": 1.5,
            "durationTicks": 1152,
            "midi": 52,
            "name": "E3",
            "ticks": 119808,
            "time": 156,
            "velocity": 0.015748031496062992
          },
          {
            "duration": 2,
            "durationTicks": 1536,
            "midi": 56,
            "name": "G#3",
            "ticks": 121344,
            "time": 158,
            "velocity": 0.015748031496062992
          },
          {
            "duration": 2,
            "durationTicks": 1536,
            "midi": 52,
            "name": "E3",
            "ticks": 121344,
            "time": 158,
            "velocity": 0.015748031496062992
          },
          {
            "duration": 2,
            "durationTicks": 1536,
            "midi": 52,
            "name": "E3",
            "ticks": 122880,
            "time": 160,
            "velocity": 0.015748031496062992
          },
          {
            "duration": 2,
            "durationTicks": 1536,
            "midi": 56,
            "name": "G#3",
            "ticks": 122880,
            "time": 160,
            "velocity": 0.015748031496062992
          },
          {
            "duration": 0.125,
            "durationTicks": 96,
            "midi": 52,
            "name": "E3",
            "ticks": 124416,
            "time": 162,
            "velocity": 0.015748031496062992
          },
          {
            "duration": 2,
            "durationTicks": 1536,
            "midi": 56,
            "name": "G#3",
            "ticks": 124416,
            "time": 162,
            "velocity": 0.015748031496062992
          },
          {
            "duration": 0.125,
            "durationTicks": 96,
            "midi": 52,
            "name": "E3",
            "ticks": 124512,
            "time": 162.125,
            "velocity": 0.015748031496062992
          },
          {
            "duration": 0.125,
            "durationTicks": 96,
            "midi": 52,
            "name": "E3",
            "ticks": 124608,
            "time": 162.25,
            "velocity": 0.015748031496062992
          },
          {
            "duration": 0.3125,
            "durationTicks": 240,
            "midi": 61,
            "name": "C#4",
            "ticks": 124608,
            "time": 162.25,
            "velocity": 0.015748031496062992
          },
          {
            "duration": 0.3125,
            "durationTicks": 240,
            "midi": 49,
            "name": "C#3",
            "ticks": 124608,
            "time": 162.25,
            "velocity": 0.015748031496062992
          },
          {
            "duration": 0.3125,
            "durationTicks": 240,
            "midi": 37,
            "name": "C#2",
            "ticks": 124608,
            "time": 162.25,
            "velocity": 0.015748031496062992
          },
          {
            "duration": 0.125,
            "durationTicks": 96,
            "midi": 52,
            "name": "E3",
            "ticks": 124704,
            "time": 162.375,
            "velocity": 0.015748031496062992
          },
          {
            "duration": 0.125,
            "durationTicks": 96,
            "midi": 52,
            "name": "E3",
            "ticks": 124800,
            "time": 162.5,
            "velocity": 0.007874015748031496
          },
          {
            "duration": 0.125,
            "durationTicks": 96,
            "midi": 37,
            "name": "C#2",
            "ticks": 124896,
            "time": 162.625,
            "velocity": 0.015748031496062992
          },
          {
            "duration": 0.125,
            "durationTicks": 96,
            "midi": 49,
            "name": "C#3",
            "ticks": 124896,
            "time": 162.625,
            "velocity": 0.015748031496062992
          },
          {
            "duration": 0.125,
            "durationTicks": 96,
            "midi": 61,
            "name": "C#4",
            "ticks": 124896,
            "time": 162.625,
            "velocity": 0.015748031496062992
          },
          {
            "duration": 0.125,
            "durationTicks": 96,
            "midi": 52,
            "name": "E3",
            "ticks": 124896,
            "time": 162.625,
            "velocity": 0.007874015748031496
          },
          {
            "duration": 0.125,
            "durationTicks": 96,
            "midi": 52,
            "name": "E3",
            "ticks": 124992,
            "time": 162.75,
            "velocity": 0.007874015748031496
          },
          {
            "duration": 0.125,
            "durationTicks": 96,
            "midi": 52,
            "name": "E3",
            "ticks": 125088,
            "time": 162.875,
            "velocity": 0.007874015748031496
          },
          {
            "duration": 0.3125,
            "durationTicks": 240,
            "midi": 39,
            "name": "D#2",
            "ticks": 125184,
            "time": 163,
            "velocity": 0.015748031496062992
          },
          {
            "duration": 0.3125,
            "durationTicks": 240,
            "midi": 63,
            "name": "D#4",
            "ticks": 125184,
            "time": 163,
            "velocity": 0.015748031496062992
          },
          {
            "duration": 0.3125,
            "durationTicks": 240,
            "midi": 51,
            "name": "D#3",
            "ticks": 125184,
            "time": 163,
            "velocity": 0.015748031496062992
          },
          {
            "duration": 0.125,
            "durationTicks": 96,
            "midi": 52,
            "name": "E3",
            "ticks": 125184,
            "time": 163,
            "velocity": 0.007874015748031496
          },
          {
            "duration": 0.125,
            "durationTicks": 96,
            "midi": 52,
            "name": "E3",
            "ticks": 125280,
            "time": 163.125,
            "velocity": 0.007874015748031496
          },
          {
            "duration": 0.125,
            "durationTicks": 96,
            "midi": 52,
            "name": "E3",
            "ticks": 125376,
            "time": 163.25,
            "velocity": 0.007874015748031496
          },
          {
            "duration": 0.125,
            "durationTicks": 96,
            "midi": 52,
            "name": "E3",
            "ticks": 125472,
            "time": 163.375,
            "velocity": 0.007874015748031496
          },
          {
            "duration": 0.125,
            "durationTicks": 96,
            "midi": 54,
            "name": "F#3",
            "ticks": 125472,
            "time": 163.375,
            "velocity": 0.015748031496062992
          },
          {
            "duration": 0.125,
            "durationTicks": 96,
            "midi": 66,
            "name": "F#4",
            "ticks": 125472,
            "time": 163.375,
            "velocity": 0.015748031496062992
          },
          {
            "duration": 0.125,
            "durationTicks": 96,
            "midi": 42,
            "name": "F#2",
            "ticks": 125472,
            "time": 163.375,
            "velocity": 0.015748031496062992
          },
          {
            "duration": 1.5,
            "durationTicks": 1152,
            "midi": 68,
            "name": "G#4",
            "ticks": 125760,
            "time": 163.75,
            "velocity": 0.015748031496062992
          },
          {
            "duration": 1.5,
            "durationTicks": 1152,
            "midi": 44,
            "name": "G#2",
            "ticks": 125760,
            "time": 163.75,
            "velocity": 0.015748031496062992
          },
          {
            "duration": 1.5,
            "durationTicks": 1152,
            "midi": 56,
            "name": "G#3",
            "ticks": 125760,
            "time": 163.75,
            "velocity": 0.015748031496062992
          },
          {
            "duration": 1.5,
            "durationTicks": 1152,
            "midi": 56,
            "name": "G#3",
            "ticks": 125952,
            "time": 164,
            "velocity": 0.015748031496062992
          },
          {
            "duration": 0.1875,
            "durationTicks": 144,
            "midi": 52,
            "name": "E3",
            "ticks": 126912,
            "time": 165.25,
            "velocity": 0.015748031496062992
          },
          {
            "duration": 0.1875,
            "durationTicks": 144,
            "midi": 64,
            "name": "E4",
            "ticks": 126912,
            "time": 165.25,
            "velocity": 0.015748031496062992
          },
          {
            "duration": 0.1875,
            "durationTicks": 144,
            "midi": 76,
            "name": "E5",
            "ticks": 126912,
            "time": 165.25,
            "velocity": 0.015748031496062992
          },
          {
            "duration": 0.125,
            "durationTicks": 96,
            "midi": 49,
            "name": "C#3",
            "ticks": 127104,
            "time": 165.5,
            "velocity": 0.015748031496062992
          },
          {
            "duration": 0.125,
            "durationTicks": 96,
            "midi": 73,
            "name": "C#5",
            "ticks": 127104,
            "time": 165.5,
            "velocity": 0.015748031496062992
          },
          {
            "duration": 0.125,
            "durationTicks": 96,
            "midi": 61,
            "name": "C#4",
            "ticks": 127104,
            "time": 165.5,
            "velocity": 0.015748031496062992
          },
          {
            "duration": 0.125,
            "durationTicks": 96,
            "midi": 71,
            "name": "B4",
            "ticks": 127200,
            "time": 165.625,
            "velocity": 0.015748031496062992
          },
          {
            "duration": 0.125,
            "durationTicks": 96,
            "midi": 59,
            "name": "B3",
            "ticks": 127200,
            "time": 165.625,
            "velocity": 0.015748031496062992
          },
          {
            "duration": 0.125,
            "durationTicks": 96,
            "midi": 47,
            "name": "B2",
            "ticks": 127200,
            "time": 165.625,
            "velocity": 0.015748031496062992
          },
          {
            "duration": 0.125,
            "durationTicks": 96,
            "midi": 49,
            "name": "C#3",
            "ticks": 127392,
            "time": 165.875,
            "velocity": 0.015748031496062992
          },
          {
            "duration": 0.125,
            "durationTicks": 96,
            "midi": 61,
            "name": "C#4",
            "ticks": 127392,
            "time": 165.875,
            "velocity": 0.015748031496062992
          },
          {
            "duration": 0.125,
            "durationTicks": 96,
            "midi": 73,
            "name": "C#5",
            "ticks": 127392,
            "time": 165.875,
            "velocity": 0.015748031496062992
          },
          {
            "duration": 2,
            "durationTicks": 1536,
            "midi": 49,
            "name": "C#3",
            "ticks": 127488,
            "time": 166,
            "velocity": 0.007874015748031496
          },
          {
            "duration": 2,
            "durationTicks": 1536,
            "midi": 42,
            "name": "F#2",
            "ticks": 127488,
            "time": 166,
            "velocity": 0.007874015748031496
          },
          {
            "duration": 2,
            "durationTicks": 1536,
            "midi": 25,
            "name": "C#1",
            "ticks": 127488,
            "time": 166,
            "velocity": 0.007874015748031496
          },
          {
            "duration": 2,
            "durationTicks": 1536,
            "midi": 46,
            "name": "A#2",
            "ticks": 127488,
            "time": 166,
            "velocity": 0.007874015748031496
          },
          {
            "duration": 2,
            "durationTicks": 1536,
            "midi": 25,
            "name": "C#1",
            "ticks": 129024,
            "time": 168,
            "velocity": 0.007874015748031496
          },
          {
            "duration": 2,
            "durationTicks": 1536,
            "midi": 49,
            "name": "C#3",
            "ticks": 129024,
            "time": 168,
            "velocity": 0.007874015748031496
          },
          {
            "duration": 2,
            "durationTicks": 1536,
            "midi": 42,
            "name": "F#2",
            "ticks": 129024,
            "time": 168,
            "velocity": 0.007874015748031496
          },
          {
            "duration": 2,
            "durationTicks": 1536,
            "midi": 46,
            "name": "A#2",
            "ticks": 129024,
            "time": 168,
            "velocity": 0.007874015748031496
          },
          {
            "duration": 2,
            "durationTicks": 1536,
            "midi": 47,
            "name": "B2",
            "ticks": 130560,
            "time": 170,
            "velocity": 0.007874015748031496
          },
          {
            "duration": 2,
            "durationTicks": 1536,
            "midi": 44,
            "name": "G#2",
            "ticks": 130560,
            "time": 170,
            "velocity": 0.007874015748031496
          },
          {
            "duration": 2,
            "durationTicks": 1536,
            "midi": 28,
            "name": "E1",
            "ticks": 130560,
            "time": 170,
            "velocity": 0.007874015748031496
          },
          {
            "duration": 2,
            "durationTicks": 1536,
            "midi": 52,
            "name": "E3",
            "ticks": 130560,
            "time": 170,
            "velocity": 0.007874015748031496
          },
          {
            "duration": 2,
            "durationTicks": 1536,
            "midi": 44,
            "name": "G#2",
            "ticks": 132096,
            "time": 172,
            "velocity": 0.007874015748031496
          },
          {
            "duration": 2,
            "durationTicks": 1536,
            "midi": 47,
            "name": "B2",
            "ticks": 132096,
            "time": 172,
            "velocity": 0.007874015748031496
          },
          {
            "duration": 2,
            "durationTicks": 1536,
            "midi": 52,
            "name": "E3",
            "ticks": 132096,
            "time": 172,
            "velocity": 0.007874015748031496
          },
          {
            "duration": 2,
            "durationTicks": 1536,
            "midi": 28,
            "name": "E1",
            "ticks": 132096,
            "time": 172,
            "velocity": 0.007874015748031496
          },
          {
            "duration": 2,
            "durationTicks": 1536,
            "midi": 42,
            "name": "F#2",
            "ticks": 133632,
            "time": 174,
            "velocity": 0.007874015748031496
          },
          {
            "duration": 2,
            "durationTicks": 1536,
            "midi": 49,
            "name": "C#3",
            "ticks": 133632,
            "time": 174,
            "velocity": 0.007874015748031496
          },
          {
            "duration": 2,
            "durationTicks": 1536,
            "midi": 25,
            "name": "C#1",
            "ticks": 133632,
            "time": 174,
            "velocity": 0.007874015748031496
          },
          {
            "duration": 2,
            "durationTicks": 1536,
            "midi": 46,
            "name": "A#2",
            "ticks": 133632,
            "time": 174,
            "velocity": 0.007874015748031496
          },
          {
            "duration": 2,
            "durationTicks": 1536,
            "midi": 42,
            "name": "F#2",
            "ticks": 135168,
            "time": 176,
            "velocity": 0.007874015748031496
          },
          {
            "duration": 2,
            "durationTicks": 1536,
            "midi": 25,
            "name": "C#1",
            "ticks": 135168,
            "time": 176,
            "velocity": 0.007874015748031496
          },
          {
            "duration": 2,
            "durationTicks": 1536,
            "midi": 49,
            "name": "C#3",
            "ticks": 135168,
            "time": 176,
            "velocity": 0.007874015748031496
          },
          {
            "duration": 2,
            "durationTicks": 1536,
            "midi": 46,
            "name": "A#2",
            "ticks": 135168,
            "time": 176,
            "velocity": 0.007874015748031496
          },
          {
            "duration": 2,
            "durationTicks": 1536,
            "midi": 52,
            "name": "E3",
            "ticks": 136704,
            "time": 178,
            "velocity": 0.007874015748031496
          },
          {
            "duration": 2,
            "durationTicks": 1536,
            "midi": 44,
            "name": "G#2",
            "ticks": 136704,
            "time": 178,
            "velocity": 0.007874015748031496
          },
          {
            "duration": 2,
            "durationTicks": 1536,
            "midi": 28,
            "name": "E1",
            "ticks": 136704,
            "time": 178,
            "velocity": 0.007874015748031496
          },
          {
            "duration": 2,
            "durationTicks": 1536,
            "midi": 47,
            "name": "B2",
            "ticks": 136704,
            "time": 178,
            "velocity": 0.007874015748031496
          },
          {
            "duration": 2,
            "durationTicks": 1536,
            "midi": 28,
            "name": "E1",
            "ticks": 138240,
            "time": 180,
            "velocity": 0.007874015748031496
          },
          {
            "duration": 2,
            "durationTicks": 1536,
            "midi": 44,
            "name": "G#2",
            "ticks": 138240,
            "time": 180,
            "velocity": 0.007874015748031496
          },
          {
            "duration": 2,
            "durationTicks": 1536,
            "midi": 47,
            "name": "B2",
            "ticks": 138240,
            "time": 180,
            "velocity": 0.007874015748031496
          },
          {
            "duration": 2,
            "durationTicks": 1536,
            "midi": 52,
            "name": "E3",
            "ticks": 138240,
            "time": 180,
            "velocity": 0.007874015748031496
          },
          {
            "duration": 2,
            "durationTicks": 1536,
            "midi": 49,
            "name": "C#3",
            "ticks": 139776,
            "time": 182,
            "velocity": 0.007874015748031496
          },
          {
            "duration": 2,
            "durationTicks": 1536,
            "midi": 46,
            "name": "A#2",
            "ticks": 139776,
            "time": 182,
            "velocity": 0.007874015748031496
          },
          {
            "duration": 2,
            "durationTicks": 1536,
            "midi": 54,
            "name": "F#3",
            "ticks": 139776,
            "time": 182,
            "velocity": 0.007874015748031496
          },
          {
            "duration": 2,
            "durationTicks": 1536,
            "midi": 46,
            "name": "A#2",
            "ticks": 141312,
            "time": 184,
            "velocity": 0.007874015748031496
          },
          {
            "duration": 2,
            "durationTicks": 1536,
            "midi": 49,
            "name": "C#3",
            "ticks": 141312,
            "time": 184,
            "velocity": 0.007874015748031496
          },
          {
            "duration": 2,
            "durationTicks": 1536,
            "midi": 54,
            "name": "F#3",
            "ticks": 141312,
            "time": 184,
            "velocity": 0.007874015748031496
          },
          {
            "duration": 2,
            "durationTicks": 1536,
            "midi": 56,
            "name": "G#3",
            "ticks": 142848,
            "time": 186,
            "velocity": 0.007874015748031496
          },
          {
            "duration": 2,
            "durationTicks": 1536,
            "midi": 47,
            "name": "B2",
            "ticks": 142848,
            "time": 186,
            "velocity": 0.007874015748031496
          },
          {
            "duration": 2,
            "durationTicks": 1536,
            "midi": 52,
            "name": "E3",
            "ticks": 142848,
            "time": 186,
            "velocity": 0.007874015748031496
          },
          {
            "duration": 2,
            "durationTicks": 1536,
            "midi": 52,
            "name": "E3",
            "ticks": 144384,
            "time": 188,
            "velocity": 0.007874015748031496
          },
          {
            "duration": 2,
            "durationTicks": 1536,
            "midi": 56,
            "name": "G#3",
            "ticks": 144384,
            "time": 188,
            "velocity": 0.007874015748031496
          },
          {
            "duration": 2,
            "durationTicks": 1536,
            "midi": 47,
            "name": "B2",
            "ticks": 144384,
            "time": 188,
            "velocity": 0.007874015748031496
          },
          {
            "duration": 2,
            "durationTicks": 1536,
            "midi": 54,
            "name": "F#3",
            "ticks": 145920,
            "time": 190,
            "velocity": 0.007874015748031496
          },
          {
            "duration": 2,
            "durationTicks": 1536,
            "midi": 49,
            "name": "C#3",
            "ticks": 145920,
            "time": 190,
            "velocity": 0.007874015748031496
          },
          {
            "duration": 2,
            "durationTicks": 1536,
            "midi": 46,
            "name": "A#2",
            "ticks": 145920,
            "time": 190,
            "velocity": 0.007874015748031496
          },
          {
            "duration": 2,
            "durationTicks": 1536,
            "midi": 46,
            "name": "A#2",
            "ticks": 147456,
            "time": 192,
            "velocity": 0.007874015748031496
          },
          {
            "duration": 2,
            "durationTicks": 1536,
            "midi": 49,
            "name": "C#3",
            "ticks": 147456,
            "time": 192,
            "velocity": 0.007874015748031496
          },
          {
            "duration": 2,
            "durationTicks": 1536,
            "midi": 54,
            "name": "F#3",
            "ticks": 147456,
            "time": 192,
            "velocity": 0.007874015748031496
          },
          {
            "duration": 2,
            "durationTicks": 1536,
            "midi": 52,
            "name": "E3",
            "ticks": 148992,
            "time": 194,
            "velocity": 0.007874015748031496
          },
          {
            "duration": 2,
            "durationTicks": 1536,
            "midi": 49,
            "name": "C#3",
            "ticks": 148992,
            "time": 194,
            "velocity": 0.007874015748031496
          },
          {
            "duration": 2,
            "durationTicks": 1536,
            "midi": 56,
            "name": "G#3",
            "ticks": 148992,
            "time": 194,
            "velocity": 0.007874015748031496
          },
          {
            "duration": 2,
            "durationTicks": 1536,
            "midi": 51,
            "name": "D#3",
            "ticks": 150528,
            "time": 196,
            "velocity": 0.007874015748031496
          },
          {
            "duration": 2,
            "durationTicks": 1536,
            "midi": 54,
            "name": "F#3",
            "ticks": 150528,
            "time": 196,
            "velocity": 0.007874015748031496
          },
          {
            "duration": 2,
            "durationTicks": 1536,
            "midi": 44,
            "name": "G#2",
            "ticks": 150528,
            "time": 196,
            "velocity": 0.007874015748031496
          },
          {
            "duration": 0.375,
            "durationTicks": 288,
            "midi": 44,
            "name": "G#2",
            "ticks": 152064,
            "time": 198,
            "velocity": 0.007874015748031496
          },
          {
            "duration": 0.375,
            "durationTicks": 288,
            "midi": 61,
            "name": "C#4",
            "ticks": 152064,
            "time": 198,
            "velocity": 0.015748031496062992
          },
          {
            "duration": 0.375,
            "durationTicks": 288,
            "midi": 73,
            "name": "C#5",
            "ticks": 152064,
            "time": 198,
            "velocity": 0.007874015748031496
          },
          {
            "duration": 0.375,
            "durationTicks": 288,
            "midi": 56,
            "name": "G#3",
            "ticks": 152064,
            "time": 198,
            "velocity": 0.015748031496062992
          },
          {
            "duration": 0.375,
            "durationTicks": 288,
            "midi": 52,
            "name": "E3",
            "ticks": 152064,
            "time": 198,
            "velocity": 0.015748031496062992
          },
          {
            "duration": 0.375,
            "durationTicks": 288,
            "midi": 40,
            "name": "E2",
            "ticks": 152064,
            "time": 198,
            "velocity": 0.007874015748031496
          },
          {
            "duration": 0.375,
            "durationTicks": 288,
            "midi": 68,
            "name": "G#4",
            "ticks": 152064,
            "time": 198,
            "velocity": 0.007874015748031496
          },
          {
            "duration": 0.375,
            "durationTicks": 288,
            "midi": 49,
            "name": "C#3",
            "ticks": 152064,
            "time": 198,
            "velocity": 0.007874015748031496
          },
          {
            "duration": 0.375,
            "durationTicks": 288,
            "midi": 64,
            "name": "E4",
            "ticks": 152064,
            "time": 198,
            "velocity": 0.007874015748031496
          },
          {
            "duration": 1.625,
            "durationTicks": 1248,
            "midi": 59,
            "name": "B3",
            "ticks": 152352,
            "time": 198.375,
            "velocity": 0.015748031496062992
          },
          {
            "duration": 1.625,
            "durationTicks": 1248,
            "midi": 71,
            "name": "B4",
            "ticks": 152352,
            "time": 198.375,
            "velocity": 0.007874015748031496
          },
          {
            "duration": 1.625,
            "durationTicks": 1248,
            "midi": 47,
            "name": "B2",
            "ticks": 152352,
            "time": 198.375,
            "velocity": 0.007874015748031496
          },
          {
            "duration": 1.625,
            "durationTicks": 1248,
            "midi": 44,
            "name": "G#2",
            "ticks": 152352,
            "time": 198.375,
            "velocity": 0.007874015748031496
          },
          {
            "duration": 1.625,
            "durationTicks": 1248,
            "midi": 68,
            "name": "G#4",
            "ticks": 152352,
            "time": 198.375,
            "velocity": 0.007874015748031496
          },
          {
            "duration": 1.625,
            "durationTicks": 1248,
            "midi": 52,
            "name": "E3",
            "ticks": 152352,
            "time": 198.375,
            "velocity": 0.015748031496062992
          },
          {
            "duration": 1.625,
            "durationTicks": 1248,
            "midi": 56,
            "name": "G#3",
            "ticks": 152352,
            "time": 198.375,
            "velocity": 0.015748031496062992
          },
          {
            "duration": 1.625,
            "durationTicks": 1248,
            "midi": 40,
            "name": "E2",
            "ticks": 152352,
            "time": 198.375,
            "velocity": 0.007874015748031496
          },
          {
            "duration": 1.625,
            "durationTicks": 1248,
            "midi": 64,
            "name": "E4",
            "ticks": 152352,
            "time": 198.375,
            "velocity": 0.007874015748031496
          },
          {
            "duration": 0.5,
            "durationTicks": 384,
            "midi": 64,
            "name": "E4",
            "ticks": 153600,
            "time": 200,
            "velocity": 0.007874015748031496
          },
          {
            "duration": 0.5,
            "durationTicks": 384,
            "midi": 71,
            "name": "B4",
            "ticks": 153600,
            "time": 200,
            "velocity": 0.007874015748031496
          },
          {
            "duration": 0.5,
            "durationTicks": 384,
            "midi": 56,
            "name": "G#3",
            "ticks": 153600,
            "time": 200,
            "velocity": 0.015748031496062992
          },
          {
            "duration": 0.5,
            "durationTicks": 384,
            "midi": 44,
            "name": "G#2",
            "ticks": 153600,
            "time": 200,
            "velocity": 0.007874015748031496
          },
          {
            "duration": 0.5,
            "durationTicks": 384,
            "midi": 40,
            "name": "E2",
            "ticks": 153600,
            "time": 200,
            "velocity": 0.007874015748031496
          },
          {
            "duration": 0.5,
            "durationTicks": 384,
            "midi": 52,
            "name": "E3",
            "ticks": 153600,
            "time": 200,
            "velocity": 0.015748031496062992
          },
          {
            "duration": 0.5,
            "durationTicks": 384,
            "midi": 59,
            "name": "B3",
            "ticks": 153600,
            "time": 200,
            "velocity": 0.015748031496062992
          },
          {
            "duration": 0.5,
            "durationTicks": 384,
            "midi": 68,
            "name": "G#4",
            "ticks": 153600,
            "time": 200,
            "velocity": 0.007874015748031496
          },
          {
            "duration": 0.5,
            "durationTicks": 384,
            "midi": 47,
            "name": "B2",
            "ticks": 153600,
            "time": 200,
            "velocity": 0.007874015748031496
          },
          {
            "duration": 0.5,
            "durationTicks": 384,
            "midi": 49,
            "name": "C#3",
            "ticks": 153984,
            "time": 200.5,
            "velocity": 0.015748031496062992
          },
          {
            "duration": 0.5,
            "durationTicks": 384,
            "midi": 37,
            "name": "C#2",
            "ticks": 153984,
            "time": 200.5,
            "velocity": 0.007874015748031496
          },
          {
            "duration": 0.5,
            "durationTicks": 384,
            "midi": 61,
            "name": "C#4",
            "ticks": 153984,
            "time": 200.5,
            "velocity": 0.007874015748031496
          },
          {
            "duration": 0.5,
            "durationTicks": 384,
            "midi": 70,
            "name": "A#4",
            "ticks": 153984,
            "time": 200.5,
            "velocity": 0.007874015748031496
          },
          {
            "duration": 0.5,
            "durationTicks": 384,
            "midi": 58,
            "name": "A#3",
            "ticks": 153984,
            "time": 200.5,
            "velocity": 0.015748031496062992
          },
          {
            "duration": 0.5,
            "durationTicks": 384,
            "midi": 66,
            "name": "F#4",
            "ticks": 153984,
            "time": 200.5,
            "velocity": 0.007874015748031496
          },
          {
            "duration": 0.5,
            "durationTicks": 384,
            "midi": 42,
            "name": "F#2",
            "ticks": 153984,
            "time": 200.5,
            "velocity": 0.007874015748031496
          },
          {
            "duration": 0.5,
            "durationTicks": 384,
            "midi": 54,
            "name": "F#3",
            "ticks": 153984,
            "time": 200.5,
            "velocity": 0.015748031496062992
          },
          {
            "duration": 0.5,
            "durationTicks": 384,
            "midi": 46,
            "name": "A#2",
            "ticks": 153984,
            "time": 200.5,
            "velocity": 0.007874015748031496
          },
          {
            "duration": 1,
            "durationTicks": 768,
            "midi": 61,
            "name": "C#4",
            "ticks": 154368,
            "time": 201,
            "velocity": 0.007874015748031496
          },
          {
            "duration": 1,
            "durationTicks": 768,
            "midi": 56,
            "name": "G#3",
            "ticks": 154368,
            "time": 201,
            "velocity": 0.015748031496062992
          },
          {
            "duration": 1,
            "durationTicks": 768,
            "midi": 40,
            "name": "E2",
            "ticks": 154368,
            "time": 201,
            "velocity": 0.007874015748031496
          },
          {
            "duration": 1,
            "durationTicks": 768,
            "midi": 37,
            "name": "C#2",
            "ticks": 154368,
            "time": 201,
            "velocity": 0.007874015748031496
          },
          {
            "duration": 1,
            "durationTicks": 768,
            "midi": 64,
            "name": "E4",
            "ticks": 154368,
            "time": 201,
            "velocity": 0.007874015748031496
          },
          {
            "duration": 1,
            "durationTicks": 768,
            "midi": 49,
            "name": "C#3",
            "ticks": 154368,
            "time": 201,
            "velocity": 0.015748031496062992
          },
          {
            "duration": 1,
            "durationTicks": 768,
            "midi": 52,
            "name": "E3",
            "ticks": 154368,
            "time": 201,
            "velocity": 0.015748031496062992
          },
          {
            "duration": 1,
            "durationTicks": 768,
            "midi": 68,
            "name": "G#4",
            "ticks": 154368,
            "time": 201,
            "velocity": 0.007874015748031496
          },
          {
            "duration": 1,
            "durationTicks": 768,
            "midi": 44,
            "name": "G#2",
            "ticks": 154368,
            "time": 201,
            "velocity": 0.007874015748031496
          },
          {
            "duration": 2,
            "durationTicks": 1536,
            "midi": 58,
            "name": "A#3",
            "ticks": 155136,
            "time": 202,
            "velocity": 0.007874015748031496
          },
          {
            "duration": 2,
            "durationTicks": 1536,
            "midi": 49,
            "name": "C#3",
            "ticks": 155136,
            "time": 202,
            "velocity": 0.015748031496062992
          },
          {
            "duration": 2,
            "durationTicks": 1536,
            "midi": 37,
            "name": "C#2",
            "ticks": 155136,
            "time": 202,
            "velocity": 0.007874015748031496
          },
          {
            "duration": 2,
            "durationTicks": 1536,
            "midi": 54,
            "name": "F#3",
            "ticks": 155136,
            "time": 202,
            "velocity": 0.015748031496062992
          },
          {
            "duration": 2,
            "durationTicks": 1536,
            "midi": 34,
            "name": "A#1",
            "ticks": 155136,
            "time": 202,
            "velocity": 0.007874015748031496
          },
          {
            "duration": 2,
            "durationTicks": 1536,
            "midi": 61,
            "name": "C#4",
            "ticks": 155136,
            "time": 202,
            "velocity": 0.007874015748031496
          },
          {
            "duration": 2,
            "durationTicks": 1536,
            "midi": 42,
            "name": "F#2",
            "ticks": 155136,
            "time": 202,
            "velocity": 0.007874015748031496
          },
          {
            "duration": 2,
            "durationTicks": 1536,
            "midi": 46,
            "name": "A#2",
            "ticks": 155136,
            "time": 202,
            "velocity": 0.015748031496062992
          },
          {
            "duration": 2,
            "durationTicks": 1536,
            "midi": 66,
            "name": "F#4",
            "ticks": 155136,
            "time": 202,
            "velocity": 0.007874015748031496
          },
          {
            "duration": 2,
            "durationTicks": 1536,
            "midi": 56,
            "name": "G#3",
            "ticks": 156672,
            "time": 204,
            "velocity": 0.007874015748031496
          },
          {
            "duration": 2,
            "durationTicks": 1536,
            "midi": 52,
            "name": "E3",
            "ticks": 156672,
            "time": 204,
            "velocity": 0.015748031496062992
          },
          {
            "duration": 2,
            "durationTicks": 1536,
            "midi": 40,
            "name": "E2",
            "ticks": 156672,
            "time": 204,
            "velocity": 0.007874015748031496
          },
          {
            "duration": 2,
            "durationTicks": 1536,
            "midi": 64,
            "name": "E4",
            "ticks": 156672,
            "time": 204,
            "velocity": 0.007874015748031496
          },
          {
            "duration": 2,
            "durationTicks": 1536,
            "midi": 35,
            "name": "B1",
            "ticks": 156672,
            "time": 204,
            "velocity": 0.007874015748031496
          },
          {
            "duration": 2,
            "durationTicks": 1536,
            "midi": 47,
            "name": "B2",
            "ticks": 156672,
            "time": 204,
            "velocity": 0.015748031496062992
          },
          {
            "duration": 2,
            "durationTicks": 1536,
            "midi": 32,
            "name": "G#1",
            "ticks": 156672,
            "time": 204,
            "velocity": 0.007874015748031496
          },
          {
            "duration": 2,
            "durationTicks": 1536,
            "midi": 59,
            "name": "B3",
            "ticks": 156672,
            "time": 204,
            "velocity": 0.007874015748031496
          },
          {
            "duration": 2,
            "durationTicks": 1536,
            "midi": 44,
            "name": "G#2",
            "ticks": 156672,
            "time": 204,
            "velocity": 0.015748031496062992
          },
          {
            "duration": 0.375,
            "durationTicks": 288,
            "midi": 44,
            "name": "G#2",
            "ticks": 158208,
            "time": 206,
            "velocity": 0.007874015748031496
          },
          {
            "duration": 0.375,
            "durationTicks": 288,
            "midi": 40,
            "name": "E2",
            "ticks": 158208,
            "time": 206,
            "velocity": 0.007874015748031496
          },
          {
            "duration": 0.375,
            "durationTicks": 288,
            "midi": 52,
            "name": "E3",
            "ticks": 158208,
            "time": 206,
            "velocity": 0.015748031496062992
          },
          {
            "duration": 0.375,
            "durationTicks": 288,
            "midi": 68,
            "name": "G#4",
            "ticks": 158208,
            "time": 206,
            "velocity": 0.007874015748031496
          },
          {
            "duration": 0.375,
            "durationTicks": 288,
            "midi": 64,
            "name": "E4",
            "ticks": 158208,
            "time": 206,
            "velocity": 0.007874015748031496
          },
          {
            "duration": 0.375,
            "durationTicks": 288,
            "midi": 73,
            "name": "C#5",
            "ticks": 158208,
            "time": 206,
            "velocity": 0.007874015748031496
          },
          {
            "duration": 0.375,
            "durationTicks": 288,
            "midi": 61,
            "name": "C#4",
            "ticks": 158208,
            "time": 206,
            "velocity": 0.015748031496062992
          },
          {
            "duration": 0.375,
            "durationTicks": 288,
            "midi": 49,
            "name": "C#3",
            "ticks": 158208,
            "time": 206,
            "velocity": 0.007874015748031496
          },
          {
            "duration": 0.375,
            "durationTicks": 288,
            "midi": 56,
            "name": "G#3",
            "ticks": 158208,
            "time": 206,
            "velocity": 0.015748031496062992
          },
          {
            "duration": 1.625,
            "durationTicks": 1248,
            "midi": 68,
            "name": "G#4",
            "ticks": 158496,
            "time": 206.375,
            "velocity": 0.007874015748031496
          },
          {
            "duration": 1.625,
            "durationTicks": 1248,
            "midi": 52,
            "name": "E3",
            "ticks": 158496,
            "time": 206.375,
            "velocity": 0.015748031496062992
          },
          {
            "duration": 1.625,
            "durationTicks": 1248,
            "midi": 44,
            "name": "G#2",
            "ticks": 158496,
            "time": 206.375,
            "velocity": 0.007874015748031496
          },
          {
            "duration": 1.625,
            "durationTicks": 1248,
            "midi": 56,
            "name": "G#3",
            "ticks": 158496,
            "time": 206.375,
            "velocity": 0.015748031496062992
          },
          {
            "duration": 1.625,
            "durationTicks": 1248,
            "midi": 47,
            "name": "B2",
            "ticks": 158496,
            "time": 206.375,
            "velocity": 0.007874015748031496
          },
          {
            "duration": 1.625,
            "durationTicks": 1248,
            "midi": 71,
            "name": "B4",
            "ticks": 158496,
            "time": 206.375,
            "velocity": 0.007874015748031496
          },
          {
            "duration": 1.625,
            "durationTicks": 1248,
            "midi": 64,
            "name": "E4",
            "ticks": 158496,
            "time": 206.375,
            "velocity": 0.007874015748031496
          },
          {
            "duration": 1.625,
            "durationTicks": 1248,
            "midi": 40,
            "name": "E2",
            "ticks": 158496,
            "time": 206.375,
            "velocity": 0.007874015748031496
          },
          {
            "duration": 1.625,
            "durationTicks": 1248,
            "midi": 59,
            "name": "B3",
            "ticks": 158496,
            "time": 206.375,
            "velocity": 0.015748031496062992
          },
          {
            "duration": 0.5,
            "durationTicks": 384,
            "midi": 56,
            "name": "G#3",
            "ticks": 159744,
            "time": 208,
            "velocity": 0.015748031496062992
          },
          {
            "duration": 0.5,
            "durationTicks": 384,
            "midi": 64,
            "name": "E4",
            "ticks": 159744,
            "time": 208,
            "velocity": 0.007874015748031496
          },
          {
            "duration": 0.5,
            "durationTicks": 384,
            "midi": 52,
            "name": "E3",
            "ticks": 159744,
            "time": 208,
            "velocity": 0.015748031496062992
          },
          {
            "duration": 0.5,
            "durationTicks": 384,
            "midi": 40,
            "name": "E2",
            "ticks": 159744,
            "time": 208,
            "velocity": 0.007874015748031496
          },
          {
            "duration": 0.5,
            "durationTicks": 384,
            "midi": 47,
            "name": "B2",
            "ticks": 159744,
            "time": 208,
            "velocity": 0.007874015748031496
          },
          {
            "duration": 0.5,
            "durationTicks": 384,
            "midi": 59,
            "name": "B3",
            "ticks": 159744,
            "time": 208,
            "velocity": 0.015748031496062992
          },
          {
            "duration": 0.5,
            "durationTicks": 384,
            "midi": 68,
            "name": "G#4",
            "ticks": 159744,
            "time": 208,
            "velocity": 0.007874015748031496
          },
          {
            "duration": 0.5,
            "durationTicks": 384,
            "midi": 44,
            "name": "G#2",
            "ticks": 159744,
            "time": 208,
            "velocity": 0.007874015748031496
          },
          {
            "duration": 0.5,
            "durationTicks": 384,
            "midi": 71,
            "name": "B4",
            "ticks": 159744,
            "time": 208,
            "velocity": 0.007874015748031496
          },
          {
            "duration": 0.5,
            "durationTicks": 384,
            "midi": 66,
            "name": "F#4",
            "ticks": 160128,
            "time": 208.5,
            "velocity": 0.007874015748031496
          },
          {
            "duration": 0.5,
            "durationTicks": 384,
            "midi": 58,
            "name": "A#3",
            "ticks": 160128,
            "time": 208.5,
            "velocity": 0.015748031496062992
          },
          {
            "duration": 0.5,
            "durationTicks": 384,
            "midi": 37,
            "name": "C#2",
            "ticks": 160128,
            "time": 208.5,
            "velocity": 0.007874015748031496
          },
          {
            "duration": 0.5,
            "durationTicks": 384,
            "midi": 49,
            "name": "C#3",
            "ticks": 160128,
            "time": 208.5,
            "velocity": 0.015748031496062992
          },
          {
            "duration": 0.5,
            "durationTicks": 384,
            "midi": 42,
            "name": "F#2",
            "ticks": 160128,
            "time": 208.5,
            "velocity": 0.007874015748031496
          },
          {
            "duration": 0.5,
            "durationTicks": 384,
            "midi": 61,
            "name": "C#4",
            "ticks": 160128,
            "time": 208.5,
            "velocity": 0.007874015748031496
          },
          {
            "duration": 0.5,
            "durationTicks": 384,
            "midi": 70,
            "name": "A#4",
            "ticks": 160128,
            "time": 208.5,
            "velocity": 0.007874015748031496
          },
          {
            "duration": 0.5,
            "durationTicks": 384,
            "midi": 54,
            "name": "F#3",
            "ticks": 160128,
            "time": 208.5,
            "velocity": 0.015748031496062992
          },
          {
            "duration": 0.5,
            "durationTicks": 384,
            "midi": 46,
            "name": "A#2",
            "ticks": 160128,
            "time": 208.5,
            "velocity": 0.007874015748031496
          },
          {
            "duration": 1,
            "durationTicks": 768,
            "midi": 37,
            "name": "C#2",
            "ticks": 160512,
            "time": 209,
            "velocity": 0.007874015748031496
          },
          {
            "duration": 1,
            "durationTicks": 768,
            "midi": 56,
            "name": "G#3",
            "ticks": 160512,
            "time": 209,
            "velocity": 0.015748031496062992
          },
          {
            "duration": 1,
            "durationTicks": 768,
            "midi": 64,
            "name": "E4",
            "ticks": 160512,
            "time": 209,
            "velocity": 0.007874015748031496
          },
          {
            "duration": 1,
            "durationTicks": 768,
            "midi": 44,
            "name": "G#2",
            "ticks": 160512,
            "time": 209,
            "velocity": 0.007874015748031496
          },
          {
            "duration": 1,
            "durationTicks": 768,
            "midi": 49,
            "name": "C#3",
            "ticks": 160512,
            "time": 209,
            "velocity": 0.015748031496062992
          },
          {
            "duration": 1,
            "durationTicks": 768,
            "midi": 68,
            "name": "G#4",
            "ticks": 160512,
            "time": 209,
            "velocity": 0.007874015748031496
          },
          {
            "duration": 1,
            "durationTicks": 768,
            "midi": 61,
            "name": "C#4",
            "ticks": 160512,
            "time": 209,
            "velocity": 0.007874015748031496
          },
          {
            "duration": 1,
            "durationTicks": 768,
            "midi": 52,
            "name": "E3",
            "ticks": 160512,
            "time": 209,
            "velocity": 0.015748031496062992
          },
          {
            "duration": 1,
            "durationTicks": 768,
            "midi": 40,
            "name": "E2",
            "ticks": 160512,
            "time": 209,
            "velocity": 0.007874015748031496
          },
          {
            "duration": 2,
            "durationTicks": 1536,
            "midi": 61,
            "name": "C#4",
            "ticks": 161280,
            "time": 210,
            "velocity": 0.007874015748031496
          },
          {
            "duration": 2,
            "durationTicks": 1536,
            "midi": 54,
            "name": "F#3",
            "ticks": 161280,
            "time": 210,
            "velocity": 0.015748031496062992
          },
          {
            "duration": 2,
            "durationTicks": 1536,
            "midi": 34,
            "name": "A#1",
            "ticks": 161280,
            "time": 210,
            "velocity": 0.007874015748031496
          },
          {
            "duration": 2,
            "durationTicks": 1536,
            "midi": 46,
            "name": "A#2",
            "ticks": 161280,
            "time": 210,
            "velocity": 0.015748031496062992
          },
          {
            "duration": 2,
            "durationTicks": 1536,
            "midi": 58,
            "name": "A#3",
            "ticks": 161280,
            "time": 210,
            "velocity": 0.007874015748031496
          },
          {
            "duration": 2,
            "durationTicks": 1536,
            "midi": 37,
            "name": "C#2",
            "ticks": 161280,
            "time": 210,
            "velocity": 0.007874015748031496
          },
          {
            "duration": 2,
            "durationTicks": 1536,
            "midi": 42,
            "name": "F#2",
            "ticks": 161280,
            "time": 210,
            "velocity": 0.007874015748031496
          },
          {
            "duration": 2,
            "durationTicks": 1536,
            "midi": 66,
            "name": "F#4",
            "ticks": 161280,
            "time": 210,
            "velocity": 0.007874015748031496
          },
          {
            "duration": 2,
            "durationTicks": 1536,
            "midi": 49,
            "name": "C#3",
            "ticks": 161280,
            "time": 210,
            "velocity": 0.015748031496062992
          },
          {
            "duration": 0.375,
            "durationTicks": 288,
            "midi": 49,
            "name": "C#3",
            "ticks": 167424,
            "time": 218,
            "velocity": 0.007874015748031496
          },
          {
            "duration": 0.375,
            "durationTicks": 288,
            "midi": 40,
            "name": "E2",
            "ticks": 167424,
            "time": 218,
            "velocity": 0.007874015748031496
          },
          {
            "duration": 0.375,
            "durationTicks": 288,
            "midi": 64,
            "name": "E4",
            "ticks": 167424,
            "time": 218,
            "velocity": 0.007874015748031496
          },
          {
            "duration": 0.375,
            "durationTicks": 288,
            "midi": 68,
            "name": "G#4",
            "ticks": 167424,
            "time": 218,
            "velocity": 0.007874015748031496
          },
          {
            "duration": 0.375,
            "durationTicks": 288,
            "midi": 56,
            "name": "G#3",
            "ticks": 167424,
            "time": 218,
            "velocity": 0.015748031496062992
          },
          {
            "duration": 0.375,
            "durationTicks": 288,
            "midi": 44,
            "name": "G#2",
            "ticks": 167424,
            "time": 218,
            "velocity": 0.007874015748031496
          },
          {
            "duration": 0.375,
            "durationTicks": 288,
            "midi": 61,
            "name": "C#4",
            "ticks": 167424,
            "time": 218,
            "velocity": 0.015748031496062992
          },
          {
            "duration": 0.375,
            "durationTicks": 288,
            "midi": 73,
            "name": "C#5",
            "ticks": 167424,
            "time": 218,
            "velocity": 0.007874015748031496
          },
          {
            "duration": 0.375,
            "durationTicks": 288,
            "midi": 52,
            "name": "E3",
            "ticks": 167424,
            "time": 218,
            "velocity": 0.015748031496062992
          },
          {
            "duration": 1.625,
            "durationTicks": 1248,
            "midi": 47,
            "name": "B2",
            "ticks": 167712,
            "time": 218.375,
            "velocity": 0.007874015748031496
          },
          {
            "duration": 1.625,
            "durationTicks": 1248,
            "midi": 40,
            "name": "E2",
            "ticks": 167712,
            "time": 218.375,
            "velocity": 0.007874015748031496
          },
          {
            "duration": 1.625,
            "durationTicks": 1248,
            "midi": 71,
            "name": "B4",
            "ticks": 167712,
            "time": 218.375,
            "velocity": 0.007874015748031496
          },
          {
            "duration": 1.625,
            "durationTicks": 1248,
            "midi": 68,
            "name": "G#4",
            "ticks": 167712,
            "time": 218.375,
            "velocity": 0.007874015748031496
          },
          {
            "duration": 1.625,
            "durationTicks": 1248,
            "midi": 52,
            "name": "E3",
            "ticks": 167712,
            "time": 218.375,
            "velocity": 0.015748031496062992
          },
          {
            "duration": 1.625,
            "durationTicks": 1248,
            "midi": 64,
            "name": "E4",
            "ticks": 167712,
            "time": 218.375,
            "velocity": 0.007874015748031496
          },
          {
            "duration": 1.625,
            "durationTicks": 1248,
            "midi": 59,
            "name": "B3",
            "ticks": 167712,
            "time": 218.375,
            "velocity": 0.015748031496062992
          },
          {
            "duration": 1.625,
            "durationTicks": 1248,
            "midi": 56,
            "name": "G#3",
            "ticks": 167712,
            "time": 218.375,
            "velocity": 0.015748031496062992
          },
          {
            "duration": 1.625,
            "durationTicks": 1248,
            "midi": 44,
            "name": "G#2",
            "ticks": 167712,
            "time": 218.375,
            "velocity": 0.007874015748031496
          },
          {
            "duration": 0.5,
            "durationTicks": 384,
            "midi": 64,
            "name": "E4",
            "ticks": 168960,
            "time": 220,
            "velocity": 0.007874015748031496
          },
          {
            "duration": 0.5,
            "durationTicks": 384,
            "midi": 68,
            "name": "G#4",
            "ticks": 168960,
            "time": 220,
            "velocity": 0.007874015748031496
          },
          {
            "duration": 0.5,
            "durationTicks": 384,
            "midi": 44,
            "name": "G#2",
            "ticks": 168960,
            "time": 220,
            "velocity": 0.007874015748031496
          },
          {
            "duration": 0.5,
            "durationTicks": 384,
            "midi": 71,
            "name": "B4",
            "ticks": 168960,
            "time": 220,
            "velocity": 0.007874015748031496
          },
          {
            "duration": 0.5,
            "durationTicks": 384,
            "midi": 47,
            "name": "B2",
            "ticks": 168960,
            "time": 220,
            "velocity": 0.007874015748031496
          },
          {
            "duration": 0.5,
            "durationTicks": 384,
            "midi": 40,
            "name": "E2",
            "ticks": 168960,
            "time": 220,
            "velocity": 0.007874015748031496
          },
          {
            "duration": 0.5,
            "durationTicks": 384,
            "midi": 59,
            "name": "B3",
            "ticks": 168960,
            "time": 220,
            "velocity": 0.015748031496062992
          },
          {
            "duration": 0.5,
            "durationTicks": 384,
            "midi": 52,
            "name": "E3",
            "ticks": 168960,
            "time": 220,
            "velocity": 0.015748031496062992
          },
          {
            "duration": 0.5,
            "durationTicks": 384,
            "midi": 56,
            "name": "G#3",
            "ticks": 168960,
            "time": 220,
            "velocity": 0.015748031496062992
          },
          {
            "duration": 0.5,
            "durationTicks": 384,
            "midi": 54,
            "name": "F#3",
            "ticks": 169344,
            "time": 220.5,
            "velocity": 0.015748031496062992
          },
          {
            "duration": 0.5,
            "durationTicks": 384,
            "midi": 58,
            "name": "A#3",
            "ticks": 169344,
            "time": 220.5,
            "velocity": 0.015748031496062992
          },
          {
            "duration": 0.5,
            "durationTicks": 384,
            "midi": 49,
            "name": "C#3",
            "ticks": 169344,
            "time": 220.5,
            "velocity": 0.015748031496062992
          },
          {
            "duration": 0.5,
            "durationTicks": 384,
            "midi": 66,
            "name": "F#4",
            "ticks": 169344,
            "time": 220.5,
            "velocity": 0.007874015748031496
          },
          {
            "duration": 0.5,
            "durationTicks": 384,
            "midi": 42,
            "name": "F#2",
            "ticks": 169344,
            "time": 220.5,
            "velocity": 0.007874015748031496
          },
          {
            "duration": 0.5,
            "durationTicks": 384,
            "midi": 46,
            "name": "A#2",
            "ticks": 169344,
            "time": 220.5,
            "velocity": 0.007874015748031496
          },
          {
            "duration": 0.5,
            "durationTicks": 384,
            "midi": 37,
            "name": "C#2",
            "ticks": 169344,
            "time": 220.5,
            "velocity": 0.007874015748031496
          },
          {
            "duration": 0.5,
            "durationTicks": 384,
            "midi": 61,
            "name": "C#4",
            "ticks": 169344,
            "time": 220.5,
            "velocity": 0.007874015748031496
          },
          {
            "duration": 0.5,
            "durationTicks": 384,
            "midi": 70,
            "name": "A#4",
            "ticks": 169344,
            "time": 220.5,
            "velocity": 0.007874015748031496
          },
          {
            "duration": 1,
            "durationTicks": 768,
            "midi": 49,
            "name": "C#3",
            "ticks": 169728,
            "time": 221,
            "velocity": 0.015748031496062992
          },
          {
            "duration": 1,
            "durationTicks": 768,
            "midi": 37,
            "name": "C#2",
            "ticks": 169728,
            "time": 221,
            "velocity": 0.007874015748031496
          },
          {
            "duration": 1,
            "durationTicks": 768,
            "midi": 64,
            "name": "E4",
            "ticks": 169728,
            "time": 221,
            "velocity": 0.007874015748031496
          },
          {
            "duration": 1,
            "durationTicks": 768,
            "midi": 52,
            "name": "E3",
            "ticks": 169728,
            "time": 221,
            "velocity": 0.015748031496062992
          },
          {
            "duration": 1,
            "durationTicks": 768,
            "midi": 56,
            "name": "G#3",
            "ticks": 169728,
            "time": 221,
            "velocity": 0.015748031496062992
          },
          {
            "duration": 1,
            "durationTicks": 768,
            "midi": 44,
            "name": "G#2",
            "ticks": 169728,
            "time": 221,
            "velocity": 0.007874015748031496
          },
          {
            "duration": 1,
            "durationTicks": 768,
            "midi": 40,
            "name": "E2",
            "ticks": 169728,
            "time": 221,
            "velocity": 0.007874015748031496
          },
          {
            "duration": 1,
            "durationTicks": 768,
            "midi": 61,
            "name": "C#4",
            "ticks": 169728,
            "time": 221,
            "velocity": 0.007874015748031496
          },
          {
            "duration": 1,
            "durationTicks": 768,
            "midi": 68,
            "name": "G#4",
            "ticks": 169728,
            "time": 221,
            "velocity": 0.007874015748031496
          },
          {
            "duration": 2,
            "durationTicks": 1536,
            "midi": 61,
            "name": "C#4",
            "ticks": 170496,
            "time": 222,
            "velocity": 0.007874015748031496
          },
          {
            "duration": 2,
            "durationTicks": 1536,
            "midi": 66,
            "name": "F#4",
            "ticks": 170496,
            "time": 222,
            "velocity": 0.007874015748031496
          },
          {
            "duration": 2,
            "durationTicks": 1536,
            "midi": 34,
            "name": "A#1",
            "ticks": 170496,
            "time": 222,
            "velocity": 0.007874015748031496
          },
          {
            "duration": 2,
            "durationTicks": 1536,
            "midi": 46,
            "name": "A#2",
            "ticks": 170496,
            "time": 222,
            "velocity": 0.015748031496062992
          },
          {
            "duration": 2,
            "durationTicks": 1536,
            "midi": 54,
            "name": "F#3",
            "ticks": 170496,
            "time": 222,
            "velocity": 0.015748031496062992
          },
          {
            "duration": 2,
            "durationTicks": 1536,
            "midi": 37,
            "name": "C#2",
            "ticks": 170496,
            "time": 222,
            "velocity": 0.007874015748031496
          },
          {
            "duration": 2,
            "durationTicks": 1536,
            "midi": 58,
            "name": "A#3",
            "ticks": 170496,
            "time": 222,
            "velocity": 0.007874015748031496
          },
          {
            "duration": 2,
            "durationTicks": 1536,
            "midi": 42,
            "name": "F#2",
            "ticks": 170496,
            "time": 222,
            "velocity": 0.007874015748031496
          },
          {
            "duration": 2,
            "durationTicks": 1536,
            "midi": 49,
            "name": "C#3",
            "ticks": 170496,
            "time": 222,
            "velocity": 0.015748031496062992
          },
          {
            "duration": 2,
            "durationTicks": 1536,
            "midi": 52,
            "name": "E3",
            "ticks": 172032,
            "time": 224,
            "velocity": 0.015748031496062992
          },
          {
            "duration": 2,
            "durationTicks": 1536,
            "midi": 40,
            "name": "E2",
            "ticks": 172032,
            "time": 224,
            "velocity": 0.007874015748031496
          },
          {
            "duration": 2,
            "durationTicks": 1536,
            "midi": 32,
            "name": "G#1",
            "ticks": 172032,
            "time": 224,
            "velocity": 0.007874015748031496
          },
          {
            "duration": 2,
            "durationTicks": 1536,
            "midi": 56,
            "name": "G#3",
            "ticks": 172032,
            "time": 224,
            "velocity": 0.007874015748031496
          },
          {
            "duration": 2,
            "durationTicks": 1536,
            "midi": 64,
            "name": "E4",
            "ticks": 172032,
            "time": 224,
            "velocity": 0.007874015748031496
          },
          {
            "duration": 2,
            "durationTicks": 1536,
            "midi": 44,
            "name": "G#2",
            "ticks": 172032,
            "time": 224,
            "velocity": 0.015748031496062992
          },
          {
            "duration": 2,
            "durationTicks": 1536,
            "midi": 35,
            "name": "B1",
            "ticks": 172032,
            "time": 224,
            "velocity": 0.007874015748031496
          },
          {
            "duration": 2,
            "durationTicks": 1536,
            "midi": 59,
            "name": "B3",
            "ticks": 172032,
            "time": 224,
            "velocity": 0.007874015748031496
          },
          {
            "duration": 2,
            "durationTicks": 1536,
            "midi": 47,
            "name": "B2",
            "ticks": 172032,
            "time": 224,
            "velocity": 0.015748031496062992
          },
          {
            "duration": 0.375,
            "durationTicks": 288,
            "midi": 52,
            "name": "E3",
            "ticks": 173568,
            "time": 226,
            "velocity": 0.015748031496062992
          },
          {
            "duration": 0.375,
            "durationTicks": 288,
            "midi": 44,
            "name": "G#2",
            "ticks": 173568,
            "time": 226,
            "velocity": 0.007874015748031496
          },
          {
            "duration": 0.375,
            "durationTicks": 288,
            "midi": 73,
            "name": "C#5",
            "ticks": 173568,
            "time": 226,
            "velocity": 0.007874015748031496
          },
          {
            "duration": 0.375,
            "durationTicks": 288,
            "midi": 56,
            "name": "G#3",
            "ticks": 173568,
            "time": 226,
            "velocity": 0.015748031496062992
          },
          {
            "duration": 0.375,
            "durationTicks": 288,
            "midi": 40,
            "name": "E2",
            "ticks": 173568,
            "time": 226,
            "velocity": 0.007874015748031496
          },
          {
            "duration": 0.375,
            "durationTicks": 288,
            "midi": 61,
            "name": "C#4",
            "ticks": 173568,
            "time": 226,
            "velocity": 0.015748031496062992
          },
          {
            "duration": 0.375,
            "durationTicks": 288,
            "midi": 64,
            "name": "E4",
            "ticks": 173568,
            "time": 226,
            "velocity": 0.007874015748031496
          },
          {
            "duration": 0.375,
            "durationTicks": 288,
            "midi": 68,
            "name": "G#4",
            "ticks": 173568,
            "time": 226,
            "velocity": 0.007874015748031496
          },
          {
            "duration": 0.375,
            "durationTicks": 288,
            "midi": 49,
            "name": "C#3",
            "ticks": 173568,
            "time": 226,
            "velocity": 0.007874015748031496
          },
          {
            "duration": 1.625,
            "durationTicks": 1248,
            "midi": 64,
            "name": "E4",
            "ticks": 173856,
            "time": 226.375,
            "velocity": 0.007874015748031496
          },
          {
            "duration": 1.625,
            "durationTicks": 1248,
            "midi": 47,
            "name": "B2",
            "ticks": 173856,
            "time": 226.375,
            "velocity": 0.007874015748031496
          },
          {
            "duration": 1.625,
            "durationTicks": 1248,
            "midi": 44,
            "name": "G#2",
            "ticks": 173856,
            "time": 226.375,
            "velocity": 0.007874015748031496
          },
          {
            "duration": 1.625,
            "durationTicks": 1248,
            "midi": 52,
            "name": "E3",
            "ticks": 173856,
            "time": 226.375,
            "velocity": 0.015748031496062992
          },
          {
            "duration": 1.625,
            "durationTicks": 1248,
            "midi": 68,
            "name": "G#4",
            "ticks": 173856,
            "time": 226.375,
            "velocity": 0.007874015748031496
          },
          {
            "duration": 1.625,
            "durationTicks": 1248,
            "midi": 59,
            "name": "B3",
            "ticks": 173856,
            "time": 226.375,
            "velocity": 0.015748031496062992
          },
          {
            "duration": 1.625,
            "durationTicks": 1248,
            "midi": 40,
            "name": "E2",
            "ticks": 173856,
            "time": 226.375,
            "velocity": 0.007874015748031496
          },
          {
            "duration": 1.625,
            "durationTicks": 1248,
            "midi": 56,
            "name": "G#3",
            "ticks": 173856,
            "time": 226.375,
            "velocity": 0.015748031496062992
          },
          {
            "duration": 1.625,
            "durationTicks": 1248,
            "midi": 71,
            "name": "B4",
            "ticks": 173856,
            "time": 226.375,
            "velocity": 0.007874015748031496
          },
          {
            "duration": 0.5,
            "durationTicks": 384,
            "midi": 59,
            "name": "B3",
            "ticks": 175104,
            "time": 228,
            "velocity": 0.015748031496062992
          },
          {
            "duration": 0.5,
            "durationTicks": 384,
            "midi": 64,
            "name": "E4",
            "ticks": 175104,
            "time": 228,
            "velocity": 0.007874015748031496
          },
          {
            "duration": 0.5,
            "durationTicks": 384,
            "midi": 68,
            "name": "G#4",
            "ticks": 175104,
            "time": 228,
            "velocity": 0.007874015748031496
          },
          {
            "duration": 0.5,
            "durationTicks": 384,
            "midi": 44,
            "name": "G#2",
            "ticks": 175104,
            "time": 228,
            "velocity": 0.007874015748031496
          },
          {
            "duration": 0.5,
            "durationTicks": 384,
            "midi": 47,
            "name": "B2",
            "ticks": 175104,
            "time": 228,
            "velocity": 0.007874015748031496
          },
          {
            "duration": 0.5,
            "durationTicks": 384,
            "midi": 71,
            "name": "B4",
            "ticks": 175104,
            "time": 228,
            "velocity": 0.007874015748031496
          },
          {
            "duration": 0.5,
            "durationTicks": 384,
            "midi": 40,
            "name": "E2",
            "ticks": 175104,
            "time": 228,
            "velocity": 0.007874015748031496
          },
          {
            "duration": 0.5,
            "durationTicks": 384,
            "midi": 56,
            "name": "G#3",
            "ticks": 175104,
            "time": 228,
            "velocity": 0.015748031496062992
          },
          {
            "duration": 0.5,
            "durationTicks": 384,
            "midi": 52,
            "name": "E3",
            "ticks": 175104,
            "time": 228,
            "velocity": 0.015748031496062992
          },
          {
            "duration": 0.5,
            "durationTicks": 384,
            "midi": 70,
            "name": "A#4",
            "ticks": 175488,
            "time": 228.5,
            "velocity": 0.007874015748031496
          },
          {
            "duration": 0.5,
            "durationTicks": 384,
            "midi": 37,
            "name": "C#2",
            "ticks": 175488,
            "time": 228.5,
            "velocity": 0.007874015748031496
          },
          {
            "duration": 0.5,
            "durationTicks": 384,
            "midi": 54,
            "name": "F#3",
            "ticks": 175488,
            "time": 228.5,
            "velocity": 0.015748031496062992
          },
          {
            "duration": 0.5,
            "durationTicks": 384,
            "midi": 66,
            "name": "F#4",
            "ticks": 175488,
            "time": 228.5,
            "velocity": 0.007874015748031496
          },
          {
            "duration": 0.5,
            "durationTicks": 384,
            "midi": 42,
            "name": "F#2",
            "ticks": 175488,
            "time": 228.5,
            "velocity": 0.007874015748031496
          },
          {
            "duration": 0.5,
            "durationTicks": 384,
            "midi": 58,
            "name": "A#3",
            "ticks": 175488,
            "time": 228.5,
            "velocity": 0.015748031496062992
          },
          {
            "duration": 0.5,
            "durationTicks": 384,
            "midi": 46,
            "name": "A#2",
            "ticks": 175488,
            "time": 228.5,
            "velocity": 0.007874015748031496
          },
          {
            "duration": 0.5,
            "durationTicks": 384,
            "midi": 61,
            "name": "C#4",
            "ticks": 175488,
            "time": 228.5,
            "velocity": 0.007874015748031496
          },
          {
            "duration": 0.5,
            "durationTicks": 384,
            "midi": 49,
            "name": "C#3",
            "ticks": 175488,
            "time": 228.5,
            "velocity": 0.015748031496062992
          },
          {
            "duration": 1,
            "durationTicks": 768,
            "midi": 40,
            "name": "E2",
            "ticks": 175872,
            "time": 229,
            "velocity": 0.007874015748031496
          },
          {
            "duration": 1,
            "durationTicks": 768,
            "midi": 49,
            "name": "C#3",
            "ticks": 175872,
            "time": 229,
            "velocity": 0.015748031496062992
          },
          {
            "duration": 1,
            "durationTicks": 768,
            "midi": 44,
            "name": "G#2",
            "ticks": 175872,
            "time": 229,
            "velocity": 0.007874015748031496
          },
          {
            "duration": 1,
            "durationTicks": 768,
            "midi": 52,
            "name": "E3",
            "ticks": 175872,
            "time": 229,
            "velocity": 0.015748031496062992
          },
          {
            "duration": 1,
            "durationTicks": 768,
            "midi": 64,
            "name": "E4",
            "ticks": 175872,
            "time": 229,
            "velocity": 0.007874015748031496
          },
          {
            "duration": 1,
            "durationTicks": 768,
            "midi": 56,
            "name": "G#3",
            "ticks": 175872,
            "time": 229,
            "velocity": 0.015748031496062992
          },
          {
            "duration": 1,
            "durationTicks": 768,
            "midi": 37,
            "name": "C#2",
            "ticks": 175872,
            "time": 229,
            "velocity": 0.007874015748031496
          },
          {
            "duration": 1,
            "durationTicks": 768,
            "midi": 61,
            "name": "C#4",
            "ticks": 175872,
            "time": 229,
            "velocity": 0.007874015748031496
          },
          {
            "duration": 1,
            "durationTicks": 768,
            "midi": 68,
            "name": "G#4",
            "ticks": 175872,
            "time": 229,
            "velocity": 0.007874015748031496
          },
          {
            "duration": 2,
            "durationTicks": 1536,
            "midi": 34,
            "name": "A#1",
            "ticks": 176640,
            "time": 230,
            "velocity": 0.007874015748031496
          },
          {
            "duration": 2,
            "durationTicks": 1536,
            "midi": 58,
            "name": "A#3",
            "ticks": 176640,
            "time": 230,
            "velocity": 0.007874015748031496
          },
          {
            "duration": 2,
            "durationTicks": 1536,
            "midi": 54,
            "name": "F#3",
            "ticks": 176640,
            "time": 230,
            "velocity": 0.015748031496062992
          },
          {
            "duration": 2,
            "durationTicks": 1536,
            "midi": 49,
            "name": "C#3",
            "ticks": 176640,
            "time": 230,
            "velocity": 0.015748031496062992
          },
          {
            "duration": 2,
            "durationTicks": 1536,
            "midi": 61,
            "name": "C#4",
            "ticks": 176640,
            "time": 230,
            "velocity": 0.007874015748031496
          },
          {
            "duration": 2,
            "durationTicks": 1536,
            "midi": 66,
            "name": "F#4",
            "ticks": 176640,
            "time": 230,
            "velocity": 0.007874015748031496
          },
          {
            "duration": 2,
            "durationTicks": 1536,
            "midi": 42,
            "name": "F#2",
            "ticks": 176640,
            "time": 230,
            "velocity": 0.007874015748031496
          },
          {
            "duration": 2,
            "durationTicks": 1536,
            "midi": 46,
            "name": "A#2",
            "ticks": 176640,
            "time": 230,
            "velocity": 0.015748031496062992
          },
          {
            "duration": 2,
            "durationTicks": 1536,
            "midi": 37,
            "name": "C#2",
            "ticks": 176640,
            "time": 230,
            "velocity": 0.007874015748031496
          },
          {
            "duration": 2,
            "durationTicks": 1536,
            "midi": 32,
            "name": "G#1",
            "ticks": 210336,
            "time": 273.875,
            "velocity": 0.015748031496062992
          },
          {
            "duration": 2,
            "durationTicks": 1536,
            "midi": 33,
            "name": "A1",
            "ticks": 211872,
            "time": 275.875,
            "velocity": 0.015748031496062992
          },
          {
            "duration": 2,
            "durationTicks": 1536,
            "midi": 30,
            "name": "F#1",
            "ticks": 213408,
            "time": 277.875,
            "velocity": 0.015748031496062992
          },
          {
            "duration": 2,
            "durationTicks": 1536,
            "midi": 30,
            "name": "F#1",
            "ticks": 214944,
            "time": 279.875,
            "velocity": 0.015748031496062992
          },
          {
            "duration": 2,
            "durationTicks": 1536,
            "midi": 32,
            "name": "G#1",
            "ticks": 216480,
            "time": 281.875,
            "velocity": 0.015748031496062992
          },
          {
            "duration": 2,
            "durationTicks": 1536,
            "midi": 33,
            "name": "A1",
            "ticks": 218016,
            "time": 283.875,
            "velocity": 0.015748031496062992
          },
          {
            "duration": 2,
            "durationTicks": 1536,
            "midi": 30,
            "name": "F#1",
            "ticks": 219552,
            "time": 285.875,
            "velocity": 0.015748031496062992
          },
          {
            "duration": 2,
            "durationTicks": 1536,
            "midi": 30,
            "name": "F#1",
            "ticks": 221088,
            "time": 287.875,
            "velocity": 0.015748031496062992
          },
          {
            "duration": 2,
            "durationTicks": 1536,
            "midi": 25,
            "name": "C#1",
            "ticks": 222624,
            "time": 289.875,
            "velocity": 0.015748031496062992
          },
          {
            "duration": 2,
            "durationTicks": 1536,
            "midi": 32,
            "name": "G#1",
            "ticks": 222624,
            "time": 289.875,
            "velocity": 0.015748031496062992
          },
          {
            "duration": 2,
            "durationTicks": 1536,
            "midi": 25,
            "name": "C#1",
            "ticks": 224160,
            "time": 291.875,
            "velocity": 0.015748031496062992
          },
          {
            "duration": 2,
            "durationTicks": 1536,
            "midi": 33,
            "name": "A1",
            "ticks": 224160,
            "time": 291.875,
            "velocity": 0.015748031496062992
          },
          {
            "duration": 2,
            "durationTicks": 1536,
            "midi": 30,
            "name": "F#1",
            "ticks": 225696,
            "time": 293.875,
            "velocity": 0.015748031496062992
          },
          {
            "duration": 2,
            "durationTicks": 1536,
            "midi": 25,
            "name": "C#1",
            "ticks": 225696,
            "time": 293.875,
            "velocity": 0.015748031496062992
          },
          {
            "duration": 2,
            "durationTicks": 1536,
            "midi": 25,
            "name": "C#1",
            "ticks": 227232,
            "time": 295.875,
            "velocity": 0.015748031496062992
          },
          {
            "duration": 2,
            "durationTicks": 1536,
            "midi": 30,
            "name": "F#1",
            "ticks": 227232,
            "time": 295.875,
            "velocity": 0.015748031496062992
          },
          {
            "duration": 2,
            "durationTicks": 1536,
            "midi": 25,
            "name": "C#1",
            "ticks": 228768,
            "time": 297.875,
            "velocity": 0.015748031496062992
          },
          {
            "duration": 2,
            "durationTicks": 1536,
            "midi": 32,
            "name": "G#1",
            "ticks": 228768,
            "time": 297.875,
            "velocity": 0.015748031496062992
          },
          {
            "duration": 2,
            "durationTicks": 1536,
            "midi": 33,
            "name": "A1",
            "ticks": 230304,
            "time": 299.875,
            "velocity": 0.015748031496062992
          },
          {
            "duration": 2,
            "durationTicks": 1536,
            "midi": 25,
            "name": "C#1",
            "ticks": 230304,
            "time": 299.875,
            "velocity": 0.015748031496062992
          },
          {
            "duration": 2,
            "durationTicks": 1536,
            "midi": 25,
            "name": "C#1",
            "ticks": 231840,
            "time": 301.875,
            "velocity": 0.015748031496062992
          },
          {
            "duration": 2,
            "durationTicks": 1536,
            "midi": 30,
            "name": "F#1",
            "ticks": 231840,
            "time": 301.875,
            "velocity": 0.015748031496062992
          },
          {
            "duration": 2,
            "durationTicks": 1536,
            "midi": 30,
            "name": "F#1",
            "ticks": 233376,
            "time": 303.875,
            "velocity": 0.015748031496062992
          },
          {
            "duration": 2,
            "durationTicks": 1536,
            "midi": 25,
            "name": "C#1",
            "ticks": 233376,
            "time": 303.875,
            "velocity": 0.015748031496062992
          },
          {
            "duration": 2,
            "durationTicks": 1536,
            "midi": 25,
            "name": "C#1",
            "ticks": 234912,
            "time": 305.875,
            "velocity": 0.015748031496062992
          },
          {
            "duration": 2,
            "durationTicks": 1536,
            "midi": 32,
            "name": "G#1",
            "ticks": 234912,
            "time": 305.875,
            "velocity": 0.015748031496062992
          },
          {
            "duration": 2,
            "durationTicks": 1536,
            "midi": 33,
            "name": "A1",
            "ticks": 236448,
            "time": 307.875,
            "velocity": 0.015748031496062992
          },
          {
            "duration": 2,
            "durationTicks": 1536,
            "midi": 25,
            "name": "C#1",
            "ticks": 236448,
            "time": 307.875,
            "velocity": 0.015748031496062992
          },
          {
            "duration": 2,
            "durationTicks": 1536,
            "midi": 30,
            "name": "F#1",
            "ticks": 237984,
            "time": 309.875,
            "velocity": 0.015748031496062992
          },
          {
            "duration": 2,
            "durationTicks": 1536,
            "midi": 25,
            "name": "C#1",
            "ticks": 237984,
            "time": 309.875,
            "velocity": 0.015748031496062992
          },
          {
            "duration": 2,
            "durationTicks": 1536,
            "midi": 30,
            "name": "F#1",
            "ticks": 239520,
            "time": 311.875,
            "velocity": 0.015748031496062992
          },
          {
            "duration": 2,
            "durationTicks": 1536,
            "midi": 25,
            "name": "C#1",
            "ticks": 239520,
            "time": 311.875,
            "velocity": 0.015748031496062992
          },
          {
            "duration": 2,
            "durationTicks": 1536,
            "midi": 25,
            "name": "C#1",
            "ticks": 241056,
            "time": 313.875,
            "velocity": 0.015748031496062992
          },
          {
            "duration": 2,
            "durationTicks": 1536,
            "midi": 32,
            "name": "G#1",
            "ticks": 241056,
            "time": 313.875,
            "velocity": 0.015748031496062992
          },
          {
            "duration": 2,
            "durationTicks": 1536,
            "midi": 33,
            "name": "A1",
            "ticks": 242592,
            "time": 315.875,
            "velocity": 0.015748031496062992
          },
          {
            "duration": 2,
            "durationTicks": 1536,
            "midi": 25,
            "name": "C#1",
            "ticks": 242592,
            "time": 315.875,
            "velocity": 0.015748031496062992
          },
          {
            "duration": 2,
            "durationTicks": 1536,
            "midi": 30,
            "name": "F#1",
            "ticks": 244128,
            "time": 317.875,
            "velocity": 0.015748031496062992
          },
          {
            "duration": 2,
            "durationTicks": 1536,
            "midi": 25,
            "name": "C#1",
            "ticks": 244128,
            "time": 317.875,
            "velocity": 0.015748031496062992
          },
          {
            "duration": 2.125,
            "durationTicks": 1632,
            "midi": 30,
            "name": "F#1",
            "ticks": 245664,
            "time": 319.875,
            "velocity": 0.015748031496062992
          },
          {
            "duration": 2.125,
            "durationTicks": 1632,
            "midi": 25,
            "name": "C#1",
            "ticks": 245664,
            "time": 319.875,
            "velocity": 0.015748031496062992
          }
        ],
        "endOfTrackTicks": 247296
      },
      {
        "channel": 0,
        "controlChanges": {},
        "pitchBends": [],
        "instrument": {
          "family": "synth lead",
          "number": 87,
          "name": "lead 8 (bass + lead)"
        },
        "name": "8-Bit Triangle",
        "notes": [],
        "endOfTrackTicks": 247584
      },
      {
        "channel": 0,
        "controlChanges": {},
        "pitchBends": [],
        "instrument": {
          "family": "piano",
          "number": 0,
          "name": "acoustic grand piano"
        },
        "name": "Harpsichord",
        "notes": [],
        "endOfTrackTicks": 6144
      },
      {
        "channel": 0,
        "controlChanges": {},
        "pitchBends": [],
        "instrument": {
          "family": "piano",
          "number": 0,
          "name": "acoustic grand piano"
        },
        "name": "Xylophone",
        "notes": [],
        "endOfTrackTicks": 6912
      },
      {
        "channel": 0,
        "controlChanges": {},
        "pitchBends": [],
        "instrument": {
          "family": "piano",
          "number": 0,
          "name": "acoustic grand piano"
        },
        "name": "Pizzicato",
        "notes": [],
        "endOfTrackTicks": 6048
      },
      {
        "channel": 3,
        "controlChanges": {},
        "pitchBends": [],
        "instrument": {
          "family": "piano",
          "number": 0,
          "name": "acoustic grand piano"
        },
        "name": "Sitar",
        "notes": [
          {
            "duration": 0.125,
            "durationTicks": 96,
            "midi": 63,
            "name": "D#4",
            "ticks": 3072,
            "time": 4,
            "velocity": 0.15748031496062992
          },
          {
            "duration": 0.125,
            "durationTicks": 96,
            "midi": 59,
            "name": "B3",
            "ticks": 3264,
            "time": 4.25,
            "velocity": 0.15748031496062992
          },
          {
            "duration": 0.125,
            "durationTicks": 96,
            "midi": 63,
            "name": "D#4",
            "ticks": 3456,
            "time": 4.5,
            "velocity": 0.15748031496062992
          },
          {
            "duration": 0.125,
            "durationTicks": 96,
            "midi": 59,
            "name": "B3",
            "ticks": 3648,
            "time": 4.75,
            "velocity": 0.15748031496062992
          },
          {
            "duration": 0.125,
            "durationTicks": 96,
            "midi": 63,
            "name": "D#4",
            "ticks": 3840,
            "time": 5,
            "velocity": 0.15748031496062992
          },
          {
            "duration": 0.125,
            "durationTicks": 96,
            "midi": 59,
            "name": "B3",
            "ticks": 4032,
            "time": 5.25,
            "velocity": 0.15748031496062992
          },
          {
            "duration": 0.125,
            "durationTicks": 96,
            "midi": 63,
            "name": "D#4",
            "ticks": 4224,
            "time": 5.5,
            "velocity": 0.15748031496062992
          },
          {
            "duration": 0.125,
            "durationTicks": 96,
            "midi": 59,
            "name": "B3",
            "ticks": 4416,
            "time": 5.75,
            "velocity": 0.15748031496062992
          },
          {
            "duration": 0.125,
            "durationTicks": 96,
            "midi": 63,
            "name": "D#4",
            "ticks": 4608,
            "time": 6,
            "velocity": 0.15748031496062992
          },
          {
            "duration": 0.125,
            "durationTicks": 96,
            "midi": 59,
            "name": "B3",
            "ticks": 4800,
            "time": 6.25,
            "velocity": 0.15748031496062992
          },
          {
            "duration": 0.125,
            "durationTicks": 96,
            "midi": 63,
            "name": "D#4",
            "ticks": 4992,
            "time": 6.5,
            "velocity": 0.15748031496062992
          },
          {
            "duration": 0.125,
            "durationTicks": 96,
            "midi": 59,
            "name": "B3",
            "ticks": 5184,
            "time": 6.75,
            "velocity": 0.15748031496062992
          },
          {
            "duration": 0.125,
            "durationTicks": 96,
            "midi": 63,
            "name": "D#4",
            "ticks": 5376,
            "time": 7,
            "velocity": 0.15748031496062992
          },
          {
            "duration": 0.125,
            "durationTicks": 96,
            "midi": 59,
            "name": "B3",
            "ticks": 5568,
            "time": 7.25,
            "velocity": 0.15748031496062992
          },
          {
            "duration": 0.125,
            "durationTicks": 96,
            "midi": 63,
            "name": "D#4",
            "ticks": 5760,
            "time": 7.5,
            "velocity": 0.15748031496062992
          },
          {
            "duration": 0.125,
            "durationTicks": 96,
            "midi": 59,
            "name": "B3",
            "ticks": 5952,
            "time": 7.75,
            "velocity": 0.15748031496062992
          },
          {
            "duration": 0.125,
            "durationTicks": 96,
            "midi": 64,
            "name": "E4",
            "ticks": 6144,
            "time": 8,
            "velocity": 0.15748031496062992
          },
          {
            "duration": 0.125,
            "durationTicks": 96,
            "midi": 61,
            "name": "C#4",
            "ticks": 6336,
            "time": 8.25,
            "velocity": 0.15748031496062992
          },
          {
            "duration": 0.125,
            "durationTicks": 96,
            "midi": 64,
            "name": "E4",
            "ticks": 6528,
            "time": 8.5,
            "velocity": 0.15748031496062992
          },
          {
            "duration": 0.125,
            "durationTicks": 96,
            "midi": 61,
            "name": "C#4",
            "ticks": 6720,
            "time": 8.75,
            "velocity": 0.15748031496062992
          },
          {
            "duration": 0.125,
            "durationTicks": 96,
            "midi": 64,
            "name": "E4",
            "ticks": 6912,
            "time": 9,
            "velocity": 0.15748031496062992
          },
          {
            "duration": 0.125,
            "durationTicks": 96,
            "midi": 61,
            "name": "C#4",
            "ticks": 7104,
            "time": 9.25,
            "velocity": 0.15748031496062992
          },
          {
            "duration": 0.125,
            "durationTicks": 96,
            "midi": 64,
            "name": "E4",
            "ticks": 7296,
            "time": 9.5,
            "velocity": 0.15748031496062992
          },
          {
            "duration": 0.125,
            "durationTicks": 96,
            "midi": 61,
            "name": "C#4",
            "ticks": 7488,
            "time": 9.75,
            "velocity": 0.15748031496062992
          },
          {
            "duration": 0.125,
            "durationTicks": 96,
            "midi": 64,
            "name": "E4",
            "ticks": 7680,
            "time": 10,
            "velocity": 0.15748031496062992
          },
          {
            "duration": 0.125,
            "durationTicks": 96,
            "midi": 61,
            "name": "C#4",
            "ticks": 7872,
            "time": 10.25,
            "velocity": 0.15748031496062992
          },
          {
            "duration": 0.125,
            "durationTicks": 96,
            "midi": 64,
            "name": "E4",
            "ticks": 8064,
            "time": 10.5,
            "velocity": 0.15748031496062992
          },
          {
            "duration": 0.125,
            "durationTicks": 96,
            "midi": 61,
            "name": "C#4",
            "ticks": 8256,
            "time": 10.75,
            "velocity": 0.15748031496062992
          },
          {
            "duration": 0.125,
            "durationTicks": 96,
            "midi": 64,
            "name": "E4",
            "ticks": 8448,
            "time": 11,
            "velocity": 0.15748031496062992
          },
          {
            "duration": 0.125,
            "durationTicks": 96,
            "midi": 61,
            "name": "C#4",
            "ticks": 8640,
            "time": 11.25,
            "velocity": 0.15748031496062992
          },
          {
            "duration": 0.125,
            "durationTicks": 96,
            "midi": 64,
            "name": "E4",
            "ticks": 8832,
            "time": 11.5,
            "velocity": 0.15748031496062992
          },
          {
            "duration": 0.125,
            "durationTicks": 96,
            "midi": 61,
            "name": "C#4",
            "ticks": 9024,
            "time": 11.75,
            "velocity": 0.15748031496062992
          },
          {
            "duration": 0.125,
            "durationTicks": 96,
            "midi": 66,
            "name": "F#4",
            "ticks": 9216,
            "time": 12,
            "velocity": 0.15748031496062992
          },
          {
            "duration": 0.125,
            "durationTicks": 96,
            "midi": 61,
            "name": "C#4",
            "ticks": 9408,
            "time": 12.25,
            "velocity": 0.15748031496062992
          },
          {
            "duration": 0.125,
            "durationTicks": 96,
            "midi": 66,
            "name": "F#4",
            "ticks": 9600,
            "time": 12.5,
            "velocity": 0.15748031496062992
          },
          {
            "duration": 0.125,
            "durationTicks": 96,
            "midi": 61,
            "name": "C#4",
            "ticks": 9792,
            "time": 12.75,
            "velocity": 0.15748031496062992
          },
          {
            "duration": 0.125,
            "durationTicks": 96,
            "midi": 66,
            "name": "F#4",
            "ticks": 9984,
            "time": 13,
            "velocity": 0.15748031496062992
          },
          {
            "duration": 0.125,
            "durationTicks": 96,
            "midi": 61,
            "name": "C#4",
            "ticks": 10176,
            "time": 13.25,
            "velocity": 0.15748031496062992
          },
          {
            "duration": 0.125,
            "durationTicks": 96,
            "midi": 66,
            "name": "F#4",
            "ticks": 10368,
            "time": 13.5,
            "velocity": 0.15748031496062992
          },
          {
            "duration": 0.125,
            "durationTicks": 96,
            "midi": 61,
            "name": "C#4",
            "ticks": 10560,
            "time": 13.75,
            "velocity": 0.15748031496062992
          },
          {
            "duration": 0.125,
            "durationTicks": 96,
            "midi": 66,
            "name": "F#4",
            "ticks": 10752,
            "time": 14,
            "velocity": 0.15748031496062992
          },
          {
            "duration": 0.125,
            "durationTicks": 96,
            "midi": 61,
            "name": "C#4",
            "ticks": 10944,
            "time": 14.25,
            "velocity": 0.15748031496062992
          },
          {
            "duration": 0.125,
            "durationTicks": 96,
            "midi": 66,
            "name": "F#4",
            "ticks": 11136,
            "time": 14.5,
            "velocity": 0.15748031496062992
          },
          {
            "duration": 0.125,
            "durationTicks": 96,
            "midi": 61,
            "name": "C#4",
            "ticks": 11328,
            "time": 14.75,
            "velocity": 0.15748031496062992
          },
          {
            "duration": 0.125,
            "durationTicks": 96,
            "midi": 66,
            "name": "F#4",
            "ticks": 11520,
            "time": 15,
            "velocity": 0.15748031496062992
          },
          {
            "duration": 0.125,
            "durationTicks": 96,
            "midi": 61,
            "name": "C#4",
            "ticks": 11712,
            "time": 15.25,
            "velocity": 0.15748031496062992
          },
          {
            "duration": 0.125,
            "durationTicks": 96,
            "midi": 66,
            "name": "F#4",
            "ticks": 11904,
            "time": 15.5,
            "velocity": 0.15748031496062992
          },
          {
            "duration": 0.125,
            "durationTicks": 96,
            "midi": 61,
            "name": "C#4",
            "ticks": 12096,
            "time": 15.75,
            "velocity": 0.15748031496062992
          },
          {
            "duration": 0.125,
            "durationTicks": 96,
            "midi": 67,
            "name": "G4",
            "ticks": 12288,
            "time": 16,
            "velocity": 0.15748031496062992
          },
          {
            "duration": 0.125,
            "durationTicks": 96,
            "midi": 64,
            "name": "E4",
            "ticks": 12480,
            "time": 16.25,
            "velocity": 0.15748031496062992
          },
          {
            "duration": 0.125,
            "durationTicks": 96,
            "midi": 67,
            "name": "G4",
            "ticks": 12672,
            "time": 16.5,
            "velocity": 0.15748031496062992
          },
          {
            "duration": 0.125,
            "durationTicks": 96,
            "midi": 64,
            "name": "E4",
            "ticks": 12864,
            "time": 16.75,
            "velocity": 0.15748031496062992
          },
          {
            "duration": 0.125,
            "durationTicks": 96,
            "midi": 67,
            "name": "G4",
            "ticks": 13056,
            "time": 17,
            "velocity": 0.15748031496062992
          },
          {
            "duration": 0.125,
            "durationTicks": 96,
            "midi": 64,
            "name": "E4",
            "ticks": 13248,
            "time": 17.25,
            "velocity": 0.15748031496062992
          },
          {
            "duration": 0.125,
            "durationTicks": 96,
            "midi": 67,
            "name": "G4",
            "ticks": 13440,
            "time": 17.5,
            "velocity": 0.15748031496062992
          },
          {
            "duration": 0.125,
            "durationTicks": 96,
            "midi": 64,
            "name": "E4",
            "ticks": 13632,
            "time": 17.75,
            "velocity": 0.15748031496062992
          },
          {
            "duration": 0.125,
            "durationTicks": 96,
            "midi": 67,
            "name": "G4",
            "ticks": 13824,
            "time": 18,
            "velocity": 0.15748031496062992
          },
          {
            "duration": 0.125,
            "durationTicks": 96,
            "midi": 64,
            "name": "E4",
            "ticks": 14016,
            "time": 18.25,
            "velocity": 0.15748031496062992
          },
          {
            "duration": 0.125,
            "durationTicks": 96,
            "midi": 67,
            "name": "G4",
            "ticks": 14208,
            "time": 18.5,
            "velocity": 0.15748031496062992
          },
          {
            "duration": 0.125,
            "durationTicks": 96,
            "midi": 64,
            "name": "E4",
            "ticks": 14400,
            "time": 18.75,
            "velocity": 0.15748031496062992
          },
          {
            "duration": 0.125,
            "durationTicks": 96,
            "midi": 67,
            "name": "G4",
            "ticks": 14592,
            "time": 19,
            "velocity": 0.15748031496062992
          },
          {
            "duration": 0.125,
            "durationTicks": 96,
            "midi": 64,
            "name": "E4",
            "ticks": 14784,
            "time": 19.25,
            "velocity": 0.15748031496062992
          },
          {
            "duration": 0.125,
            "durationTicks": 96,
            "midi": 67,
            "name": "G4",
            "ticks": 14976,
            "time": 19.5,
            "velocity": 0.15748031496062992
          },
          {
            "duration": 0.125,
            "durationTicks": 96,
            "midi": 64,
            "name": "E4",
            "ticks": 15168,
            "time": 19.75,
            "velocity": 0.15748031496062992
          }
        ],
        "endOfTrackTicks": 15264
      },
      {
        "channel": 0,
        "controlChanges": {},
        "pitchBends": [],
        "instrument": {
          "family": "piano",
          "number": 0,
          "name": "acoustic grand piano"
        },
        "name": "Flute",
        "notes": [],
        "endOfTrackTicks": 5856
      },
      {
        "channel": 0,
        "controlChanges": {},
        "pitchBends": [],
        "instrument": {
          "family": "piano",
          "number": 0,
          "name": "acoustic grand piano"
        },
        "name": "Saxophone",
        "notes": [],
        "endOfTrackTicks": 5952
      },
      {
        "channel": 6,
        "controlChanges": {},
        "pitchBends": [],
        "instrument": {
          "family": "piano",
          "number": 0,
          "name": "acoustic grand piano"
        },
        "name": "Church Organ",
        "notes": [
          {
            "duration": 0.125,
            "durationTicks": 96,
            "midi": 83,
            "name": "B5",
            "ticks": 30144,
            "time": 39.25,
            "velocity": 0.13385826771653545
          },
          {
            "duration": 0.125,
            "durationTicks": 96,
            "midi": 80,
            "name": "G#5",
            "ticks": 30144,
            "time": 39.25,
            "velocity": 0.13385826771653545
          },
          {
            "duration": 0.125,
            "durationTicks": 96,
            "midi": 85,
            "name": "C#6",
            "ticks": 30336,
            "time": 39.5,
            "velocity": 0.13385826771653545
          },
          {
            "duration": 0.125,
            "durationTicks": 96,
            "midi": 78,
            "name": "F#5",
            "ticks": 30336,
            "time": 39.5,
            "velocity": 0.13385826771653545
          },
          {
            "duration": 0.0625,
            "durationTicks": 48,
            "midi": 73,
            "name": "C#5",
            "ticks": 185760,
            "time": 241.875,
            "velocity": 0.13385826771653545
          },
          {
            "duration": 0.0625,
            "durationTicks": 48,
            "midi": 80,
            "name": "G#5",
            "ticks": 185760,
            "time": 241.875,
            "velocity": 0.13385826771653545
          },
          {
            "duration": 0.0625,
            "durationTicks": 48,
            "midi": 80,
            "name": "G#5",
            "ticks": 185808,
            "time": 241.9375,
            "velocity": 0.13385826771653545
          },
          {
            "duration": 0.0625,
            "durationTicks": 48,
            "midi": 73,
            "name": "C#5",
            "ticks": 185808,
            "time": 241.9375,
            "velocity": 0.13385826771653545
          },
          {
            "duration": 0.0625,
            "durationTicks": 48,
            "midi": 80,
            "name": "G#5",
            "ticks": 185856,
            "time": 242,
            "velocity": 0.13385826771653545
          },
          {
            "duration": 0.0625,
            "durationTicks": 48,
            "midi": 73,
            "name": "C#5",
            "ticks": 185856,
            "time": 242,
            "velocity": 0.13385826771653545
          },
          {
            "duration": 0.0625,
            "durationTicks": 48,
            "midi": 73,
            "name": "C#5",
            "ticks": 185904,
            "time": 242.0625,
            "velocity": 0.13385826771653545
          },
          {
            "duration": 0.0625,
            "durationTicks": 48,
            "midi": 80,
            "name": "G#5",
            "ticks": 185904,
            "time": 242.0625,
            "velocity": 0.13385826771653545
          },
          {
            "duration": 0.0625,
            "durationTicks": 48,
            "midi": 80,
            "name": "G#5",
            "ticks": 185952,
            "time": 242.125,
            "velocity": 0.13385826771653545
          },
          {
            "duration": 0.0625,
            "durationTicks": 48,
            "midi": 73,
            "name": "C#5",
            "ticks": 185952,
            "time": 242.125,
            "velocity": 0.13385826771653545
          },
          {
            "duration": 0.0625,
            "durationTicks": 48,
            "midi": 80,
            "name": "G#5",
            "ticks": 186000,
            "time": 242.1875,
            "velocity": 0.13385826771653545
          },
          {
            "duration": 0.0625,
            "durationTicks": 48,
            "midi": 73,
            "name": "C#5",
            "ticks": 186000,
            "time": 242.1875,
            "velocity": 0.13385826771653545
          },
          {
            "duration": 0.0625,
            "durationTicks": 48,
            "midi": 73,
            "name": "C#5",
            "ticks": 186048,
            "time": 242.25,
            "velocity": 0.13385826771653545
          },
          {
            "duration": 0.0625,
            "durationTicks": 48,
            "midi": 80,
            "name": "G#5",
            "ticks": 186048,
            "time": 242.25,
            "velocity": 0.13385826771653545
          },
          {
            "duration": 0.0625,
            "durationTicks": 48,
            "midi": 80,
            "name": "G#5",
            "ticks": 186096,
            "time": 242.3125,
            "velocity": 0.13385826771653545
          },
          {
            "duration": 0.0625,
            "durationTicks": 48,
            "midi": 73,
            "name": "C#5",
            "ticks": 186096,
            "time": 242.3125,
            "velocity": 0.13385826771653545
          },
          {
            "duration": 0.0625,
            "durationTicks": 48,
            "midi": 73,
            "name": "C#5",
            "ticks": 186144,
            "time": 242.375,
            "velocity": 0.13385826771653545
          },
          {
            "duration": 0.0625,
            "durationTicks": 48,
            "midi": 80,
            "name": "G#5",
            "ticks": 186144,
            "time": 242.375,
            "velocity": 0.13385826771653545
          },
          {
            "duration": 0.0625,
            "durationTicks": 48,
            "midi": 73,
            "name": "C#5",
            "ticks": 186192,
            "time": 242.4375,
            "velocity": 0.13385826771653545
          },
          {
            "duration": 0.0625,
            "durationTicks": 48,
            "midi": 80,
            "name": "G#5",
            "ticks": 186192,
            "time": 242.4375,
            "velocity": 0.13385826771653545
          },
          {
            "duration": 0.0625,
            "durationTicks": 48,
            "midi": 80,
            "name": "G#5",
            "ticks": 186240,
            "time": 242.5,
            "velocity": 0.13385826771653545
          },
          {
            "duration": 0.0625,
            "durationTicks": 48,
            "midi": 73,
            "name": "C#5",
            "ticks": 186240,
            "time": 242.5,
            "velocity": 0.13385826771653545
          },
          {
            "duration": 0.0625,
            "durationTicks": 48,
            "midi": 73,
            "name": "C#5",
            "ticks": 186288,
            "time": 242.5625,
            "velocity": 0.13385826771653545
          },
          {
            "duration": 0.0625,
            "durationTicks": 48,
            "midi": 80,
            "name": "G#5",
            "ticks": 186288,
            "time": 242.5625,
            "velocity": 0.13385826771653545
          },
          {
            "duration": 0.0625,
            "durationTicks": 48,
            "midi": 73,
            "name": "C#5",
            "ticks": 186336,
            "time": 242.625,
            "velocity": 0.13385826771653545
          },
          {
            "duration": 0.0625,
            "durationTicks": 48,
            "midi": 80,
            "name": "G#5",
            "ticks": 186336,
            "time": 242.625,
            "velocity": 0.13385826771653545
          },
          {
            "duration": 0.0625,
            "durationTicks": 48,
            "midi": 80,
            "name": "G#5",
            "ticks": 186384,
            "time": 242.6875,
            "velocity": 0.13385826771653545
          },
          {
            "duration": 0.0625,
            "durationTicks": 48,
            "midi": 73,
            "name": "C#5",
            "ticks": 186384,
            "time": 242.6875,
            "velocity": 0.13385826771653545
          },
          {
            "duration": 0.0625,
            "durationTicks": 48,
            "midi": 73,
            "name": "C#5",
            "ticks": 186432,
            "time": 242.75,
            "velocity": 0.13385826771653545
          },
          {
            "duration": 0.0625,
            "durationTicks": 48,
            "midi": 80,
            "name": "G#5",
            "ticks": 186432,
            "time": 242.75,
            "velocity": 0.13385826771653545
          },
          {
            "duration": 0.0625,
            "durationTicks": 48,
            "midi": 80,
            "name": "G#5",
            "ticks": 186480,
            "time": 242.8125,
            "velocity": 0.13385826771653545
          },
          {
            "duration": 0.0625,
            "durationTicks": 48,
            "midi": 73,
            "name": "C#5",
            "ticks": 186480,
            "time": 242.8125,
            "velocity": 0.13385826771653545
          },
          {
            "duration": 0.0625,
            "durationTicks": 48,
            "midi": 80,
            "name": "G#5",
            "ticks": 186528,
            "time": 242.875,
            "velocity": 0.13385826771653545
          },
          {
            "duration": 0.0625,
            "durationTicks": 48,
            "midi": 73,
            "name": "C#5",
            "ticks": 186528,
            "time": 242.875,
            "velocity": 0.13385826771653545
          },
          {
            "duration": 0.0625,
            "durationTicks": 48,
            "midi": 80,
            "name": "G#5",
            "ticks": 186576,
            "time": 242.9375,
            "velocity": 0.13385826771653545
          },
          {
            "duration": 0.0625,
            "durationTicks": 48,
            "midi": 73,
            "name": "C#5",
            "ticks": 186576,
            "time": 242.9375,
            "velocity": 0.13385826771653545
          },
          {
            "duration": 0.0625,
            "durationTicks": 48,
            "midi": 73,
            "name": "C#5",
            "ticks": 186624,
            "time": 243,
            "velocity": 0.13385826771653545
          },
          {
            "duration": 0.0625,
            "durationTicks": 48,
            "midi": 80,
            "name": "G#5",
            "ticks": 186624,
            "time": 243,
            "velocity": 0.13385826771653545
          },
          {
            "duration": 0.0625,
            "durationTicks": 48,
            "midi": 73,
            "name": "C#5",
            "ticks": 186672,
            "time": 243.0625,
            "velocity": 0.13385826771653545
          },
          {
            "duration": 0.0625,
            "durationTicks": 48,
            "midi": 80,
            "name": "G#5",
            "ticks": 186672,
            "time": 243.0625,
            "velocity": 0.13385826771653545
          },
          {
            "duration": 0.0625,
            "durationTicks": 48,
            "midi": 80,
            "name": "G#5",
            "ticks": 186720,
            "time": 243.125,
            "velocity": 0.13385826771653545
          },
          {
            "duration": 0.0625,
            "durationTicks": 48,
            "midi": 73,
            "name": "C#5",
            "ticks": 186720,
            "time": 243.125,
            "velocity": 0.13385826771653545
          },
          {
            "duration": 0.0625,
            "durationTicks": 48,
            "midi": 80,
            "name": "G#5",
            "ticks": 186768,
            "time": 243.1875,
            "velocity": 0.13385826771653545
          },
          {
            "duration": 0.0625,
            "durationTicks": 48,
            "midi": 73,
            "name": "C#5",
            "ticks": 186768,
            "time": 243.1875,
            "velocity": 0.13385826771653545
          },
          {
            "duration": 0.0625,
            "durationTicks": 48,
            "midi": 73,
            "name": "C#5",
            "ticks": 186816,
            "time": 243.25,
            "velocity": 0.13385826771653545
          },
          {
            "duration": 0.0625,
            "durationTicks": 48,
            "midi": 80,
            "name": "G#5",
            "ticks": 186816,
            "time": 243.25,
            "velocity": 0.13385826771653545
          },
          {
            "duration": 0.0625,
            "durationTicks": 48,
            "midi": 80,
            "name": "G#5",
            "ticks": 186864,
            "time": 243.3125,
            "velocity": 0.13385826771653545
          },
          {
            "duration": 0.0625,
            "durationTicks": 48,
            "midi": 73,
            "name": "C#5",
            "ticks": 186864,
            "time": 243.3125,
            "velocity": 0.13385826771653545
          },
          {
            "duration": 0.0625,
            "durationTicks": 48,
            "midi": 80,
            "name": "G#5",
            "ticks": 186912,
            "time": 243.375,
            "velocity": 0.13385826771653545
          },
          {
            "duration": 0.0625,
            "durationTicks": 48,
            "midi": 73,
            "name": "C#5",
            "ticks": 186912,
            "time": 243.375,
            "velocity": 0.13385826771653545
          },
          {
            "duration": 0.0625,
            "durationTicks": 48,
            "midi": 73,
            "name": "C#5",
            "ticks": 186960,
            "time": 243.4375,
            "velocity": 0.13385826771653545
          },
          {
            "duration": 0.0625,
            "durationTicks": 48,
            "midi": 80,
            "name": "G#5",
            "ticks": 186960,
            "time": 243.4375,
            "velocity": 0.13385826771653545
          },
          {
            "duration": 0.0625,
            "durationTicks": 48,
            "midi": 73,
            "name": "C#5",
            "ticks": 187008,
            "time": 243.5,
            "velocity": 0.13385826771653545
          },
          {
            "duration": 0.0625,
            "durationTicks": 48,
            "midi": 80,
            "name": "G#5",
            "ticks": 187008,
            "time": 243.5,
            "velocity": 0.13385826771653545
          },
          {
            "duration": 0.0625,
            "durationTicks": 48,
            "midi": 73,
            "name": "C#5",
            "ticks": 187056,
            "time": 243.5625,
            "velocity": 0.13385826771653545
          },
          {
            "duration": 0.0625,
            "durationTicks": 48,
            "midi": 80,
            "name": "G#5",
            "ticks": 187056,
            "time": 243.5625,
            "velocity": 0.13385826771653545
          },
          {
            "duration": 0.0625,
            "durationTicks": 48,
            "midi": 73,
            "name": "C#5",
            "ticks": 187104,
            "time": 243.625,
            "velocity": 0.13385826771653545
          },
          {
            "duration": 0.0625,
            "durationTicks": 48,
            "midi": 80,
            "name": "G#5",
            "ticks": 187104,
            "time": 243.625,
            "velocity": 0.13385826771653545
          },
          {
            "duration": 0.0625,
            "durationTicks": 48,
            "midi": 73,
            "name": "C#5",
            "ticks": 187152,
            "time": 243.6875,
            "velocity": 0.13385826771653545
          },
          {
            "duration": 0.0625,
            "durationTicks": 48,
            "midi": 80,
            "name": "G#5",
            "ticks": 187152,
            "time": 243.6875,
            "velocity": 0.13385826771653545
          },
          {
            "duration": 0.0625,
            "durationTicks": 48,
            "midi": 73,
            "name": "C#5",
            "ticks": 187200,
            "time": 243.75,
            "velocity": 0.13385826771653545
          },
          {
            "duration": 0.0625,
            "durationTicks": 48,
            "midi": 80,
            "name": "G#5",
            "ticks": 187200,
            "time": 243.75,
            "velocity": 0.13385826771653545
          },
          {
            "duration": 0.0625,
            "durationTicks": 48,
            "midi": 73,
            "name": "C#5",
            "ticks": 187248,
            "time": 243.8125,
            "velocity": 0.13385826771653545
          },
          {
            "duration": 0.0625,
            "durationTicks": 48,
            "midi": 80,
            "name": "G#5",
            "ticks": 187248,
            "time": 243.8125,
            "velocity": 0.13385826771653545
          },
          {
            "duration": 0.0625,
            "durationTicks": 48,
            "midi": 81,
            "name": "A5",
            "ticks": 187296,
            "time": 243.875,
            "velocity": 0.13385826771653545
          },
          {
            "duration": 0.0625,
            "durationTicks": 48,
            "midi": 73,
            "name": "C#5",
            "ticks": 187296,
            "time": 243.875,
            "velocity": 0.13385826771653545
          },
          {
            "duration": 0.0625,
            "durationTicks": 48,
            "midi": 73,
            "name": "C#5",
            "ticks": 187344,
            "time": 243.9375,
            "velocity": 0.13385826771653545
          },
          {
            "duration": 0.0625,
            "durationTicks": 48,
            "midi": 81,
            "name": "A5",
            "ticks": 187344,
            "time": 243.9375,
            "velocity": 0.13385826771653545
          },
          {
            "duration": 0.0625,
            "durationTicks": 48,
            "midi": 73,
            "name": "C#5",
            "ticks": 187392,
            "time": 244,
            "velocity": 0.13385826771653545
          },
          {
            "duration": 0.0625,
            "durationTicks": 48,
            "midi": 81,
            "name": "A5",
            "ticks": 187392,
            "time": 244,
            "velocity": 0.13385826771653545
          },
          {
            "duration": 0.0625,
            "durationTicks": 48,
            "midi": 73,
            "name": "C#5",
            "ticks": 187440,
            "time": 244.0625,
            "velocity": 0.13385826771653545
          },
          {
            "duration": 0.0625,
            "durationTicks": 48,
            "midi": 81,
            "name": "A5",
            "ticks": 187440,
            "time": 244.0625,
            "velocity": 0.13385826771653545
          },
          {
            "duration": 0.0625,
            "durationTicks": 48,
            "midi": 81,
            "name": "A5",
            "ticks": 187488,
            "time": 244.125,
            "velocity": 0.13385826771653545
          },
          {
            "duration": 0.0625,
            "durationTicks": 48,
            "midi": 73,
            "name": "C#5",
            "ticks": 187488,
            "time": 244.125,
            "velocity": 0.13385826771653545
          },
          {
            "duration": 0.0625,
            "durationTicks": 48,
            "midi": 81,
            "name": "A5",
            "ticks": 187536,
            "time": 244.1875,
            "velocity": 0.13385826771653545
          },
          {
            "duration": 0.0625,
            "durationTicks": 48,
            "midi": 73,
            "name": "C#5",
            "ticks": 187536,
            "time": 244.1875,
            "velocity": 0.13385826771653545
          },
          {
            "duration": 0.0625,
            "durationTicks": 48,
            "midi": 81,
            "name": "A5",
            "ticks": 187584,
            "time": 244.25,
            "velocity": 0.13385826771653545
          },
          {
            "duration": 0.0625,
            "durationTicks": 48,
            "midi": 73,
            "name": "C#5",
            "ticks": 187584,
            "time": 244.25,
            "velocity": 0.13385826771653545
          },
          {
            "duration": 0.0625,
            "durationTicks": 48,
            "midi": 73,
            "name": "C#5",
            "ticks": 187632,
            "time": 244.3125,
            "velocity": 0.13385826771653545
          },
          {
            "duration": 0.0625,
            "durationTicks": 48,
            "midi": 81,
            "name": "A5",
            "ticks": 187632,
            "time": 244.3125,
            "velocity": 0.13385826771653545
          },
          {
            "duration": 0.0625,
            "durationTicks": 48,
            "midi": 73,
            "name": "C#5",
            "ticks": 187680,
            "time": 244.375,
            "velocity": 0.13385826771653545
          },
          {
            "duration": 0.0625,
            "durationTicks": 48,
            "midi": 81,
            "name": "A5",
            "ticks": 187680,
            "time": 244.375,
            "velocity": 0.13385826771653545
          },
          {
            "duration": 0.0625,
            "durationTicks": 48,
            "midi": 73,
            "name": "C#5",
            "ticks": 187728,
            "time": 244.4375,
            "velocity": 0.13385826771653545
          },
          {
            "duration": 0.0625,
            "durationTicks": 48,
            "midi": 81,
            "name": "A5",
            "ticks": 187728,
            "time": 244.4375,
            "velocity": 0.13385826771653545
          },
          {
            "duration": 0.0625,
            "durationTicks": 48,
            "midi": 81,
            "name": "A5",
            "ticks": 187776,
            "time": 244.5,
            "velocity": 0.13385826771653545
          },
          {
            "duration": 0.0625,
            "durationTicks": 48,
            "midi": 73,
            "name": "C#5",
            "ticks": 187776,
            "time": 244.5,
            "velocity": 0.13385826771653545
          },
          {
            "duration": 0.0625,
            "durationTicks": 48,
            "midi": 73,
            "name": "C#5",
            "ticks": 187824,
            "time": 244.5625,
            "velocity": 0.13385826771653545
          },
          {
            "duration": 0.0625,
            "durationTicks": 48,
            "midi": 81,
            "name": "A5",
            "ticks": 187824,
            "time": 244.5625,
            "velocity": 0.13385826771653545
          },
          {
            "duration": 0.0625,
            "durationTicks": 48,
            "midi": 73,
            "name": "C#5",
            "ticks": 187872,
            "time": 244.625,
            "velocity": 0.13385826771653545
          },
          {
            "duration": 0.0625,
            "durationTicks": 48,
            "midi": 81,
            "name": "A5",
            "ticks": 187872,
            "time": 244.625,
            "velocity": 0.13385826771653545
          },
          {
            "duration": 0.0625,
            "durationTicks": 48,
            "midi": 73,
            "name": "C#5",
            "ticks": 187920,
            "time": 244.6875,
            "velocity": 0.13385826771653545
          },
          {
            "duration": 0.0625,
            "durationTicks": 48,
            "midi": 81,
            "name": "A5",
            "ticks": 187920,
            "time": 244.6875,
            "velocity": 0.13385826771653545
          },
          {
            "duration": 0.0625,
            "durationTicks": 48,
            "midi": 81,
            "name": "A5",
            "ticks": 187968,
            "time": 244.75,
            "velocity": 0.13385826771653545
          },
          {
            "duration": 0.0625,
            "durationTicks": 48,
            "midi": 73,
            "name": "C#5",
            "ticks": 187968,
            "time": 244.75,
            "velocity": 0.13385826771653545
          },
          {
            "duration": 0.0625,
            "durationTicks": 48,
            "midi": 73,
            "name": "C#5",
            "ticks": 188016,
            "time": 244.8125,
            "velocity": 0.13385826771653545
          },
          {
            "duration": 0.0625,
            "durationTicks": 48,
            "midi": 81,
            "name": "A5",
            "ticks": 188016,
            "time": 244.8125,
            "velocity": 0.13385826771653545
          },
          {
            "duration": 0.0625,
            "durationTicks": 48,
            "midi": 81,
            "name": "A5",
            "ticks": 188064,
            "time": 244.875,
            "velocity": 0.13385826771653545
          },
          {
            "duration": 0.0625,
            "durationTicks": 48,
            "midi": 73,
            "name": "C#5",
            "ticks": 188064,
            "time": 244.875,
            "velocity": 0.13385826771653545
          },
          {
            "duration": 0.0625,
            "durationTicks": 48,
            "midi": 81,
            "name": "A5",
            "ticks": 188112,
            "time": 244.9375,
            "velocity": 0.13385826771653545
          },
          {
            "duration": 0.0625,
            "durationTicks": 48,
            "midi": 73,
            "name": "C#5",
            "ticks": 188112,
            "time": 244.9375,
            "velocity": 0.13385826771653545
          },
          {
            "duration": 0.0625,
            "durationTicks": 48,
            "midi": 73,
            "name": "C#5",
            "ticks": 188160,
            "time": 245,
            "velocity": 0.13385826771653545
          },
          {
            "duration": 0.0625,
            "durationTicks": 48,
            "midi": 81,
            "name": "A5",
            "ticks": 188160,
            "time": 245,
            "velocity": 0.13385826771653545
          },
          {
            "duration": 0.0625,
            "durationTicks": 48,
            "midi": 73,
            "name": "C#5",
            "ticks": 188208,
            "time": 245.0625,
            "velocity": 0.13385826771653545
          },
          {
            "duration": 0.0625,
            "durationTicks": 48,
            "midi": 81,
            "name": "A5",
            "ticks": 188208,
            "time": 245.0625,
            "velocity": 0.13385826771653545
          },
          {
            "duration": 0.0625,
            "durationTicks": 48,
            "midi": 73,
            "name": "C#5",
            "ticks": 188256,
            "time": 245.125,
            "velocity": 0.13385826771653545
          },
          {
            "duration": 0.0625,
            "durationTicks": 48,
            "midi": 81,
            "name": "A5",
            "ticks": 188256,
            "time": 245.125,
            "velocity": 0.13385826771653545
          },
          {
            "duration": 0.0625,
            "durationTicks": 48,
            "midi": 81,
            "name": "A5",
            "ticks": 188304,
            "time": 245.1875,
            "velocity": 0.13385826771653545
          },
          {
            "duration": 0.0625,
            "durationTicks": 48,
            "midi": 73,
            "name": "C#5",
            "ticks": 188304,
            "time": 245.1875,
            "velocity": 0.13385826771653545
          },
          {
            "duration": 0.0625,
            "durationTicks": 48,
            "midi": 73,
            "name": "C#5",
            "ticks": 188352,
            "time": 245.25,
            "velocity": 0.13385826771653545
          },
          {
            "duration": 0.0625,
            "durationTicks": 48,
            "midi": 81,
            "name": "A5",
            "ticks": 188352,
            "time": 245.25,
            "velocity": 0.13385826771653545
          },
          {
            "duration": 0.0625,
            "durationTicks": 48,
            "midi": 81,
            "name": "A5",
            "ticks": 188400,
            "time": 245.3125,
            "velocity": 0.13385826771653545
          },
          {
            "duration": 0.0625,
            "durationTicks": 48,
            "midi": 73,
            "name": "C#5",
            "ticks": 188400,
            "time": 245.3125,
            "velocity": 0.13385826771653545
          },
          {
            "duration": 0.0625,
            "durationTicks": 48,
            "midi": 73,
            "name": "C#5",
            "ticks": 188448,
            "time": 245.375,
            "velocity": 0.13385826771653545
          },
          {
            "duration": 0.0625,
            "durationTicks": 48,
            "midi": 81,
            "name": "A5",
            "ticks": 188448,
            "time": 245.375,
            "velocity": 0.13385826771653545
          },
          {
            "duration": 0.0625,
            "durationTicks": 48,
            "midi": 81,
            "name": "A5",
            "ticks": 188496,
            "time": 245.4375,
            "velocity": 0.13385826771653545
          },
          {
            "duration": 0.0625,
            "durationTicks": 48,
            "midi": 73,
            "name": "C#5",
            "ticks": 188496,
            "time": 245.4375,
            "velocity": 0.13385826771653545
          },
          {
            "duration": 0.0625,
            "durationTicks": 48,
            "midi": 81,
            "name": "A5",
            "ticks": 188544,
            "time": 245.5,
            "velocity": 0.13385826771653545
          },
          {
            "duration": 0.0625,
            "durationTicks": 48,
            "midi": 73,
            "name": "C#5",
            "ticks": 188544,
            "time": 245.5,
            "velocity": 0.13385826771653545
          },
          {
            "duration": 0.0625,
            "durationTicks": 48,
            "midi": 81,
            "name": "A5",
            "ticks": 188592,
            "time": 245.5625,
            "velocity": 0.13385826771653545
          },
          {
            "duration": 0.0625,
            "durationTicks": 48,
            "midi": 73,
            "name": "C#5",
            "ticks": 188592,
            "time": 245.5625,
            "velocity": 0.13385826771653545
          },
          {
            "duration": 0.0625,
            "durationTicks": 48,
            "midi": 81,
            "name": "A5",
            "ticks": 188640,
            "time": 245.625,
            "velocity": 0.13385826771653545
          },
          {
            "duration": 0.0625,
            "durationTicks": 48,
            "midi": 73,
            "name": "C#5",
            "ticks": 188640,
            "time": 245.625,
            "velocity": 0.13385826771653545
          },
          {
            "duration": 0.0625,
            "durationTicks": 48,
            "midi": 81,
            "name": "A5",
            "ticks": 188688,
            "time": 245.6875,
            "velocity": 0.13385826771653545
          },
          {
            "duration": 0.0625,
            "durationTicks": 48,
            "midi": 73,
            "name": "C#5",
            "ticks": 188688,
            "time": 245.6875,
            "velocity": 0.13385826771653545
          },
          {
            "duration": 0.0625,
            "durationTicks": 48,
            "midi": 81,
            "name": "A5",
            "ticks": 188736,
            "time": 245.75,
            "velocity": 0.13385826771653545
          },
          {
            "duration": 0.0625,
            "durationTicks": 48,
            "midi": 73,
            "name": "C#5",
            "ticks": 188736,
            "time": 245.75,
            "velocity": 0.13385826771653545
          },
          {
            "duration": 0.0625,
            "durationTicks": 48,
            "midi": 81,
            "name": "A5",
            "ticks": 188784,
            "time": 245.8125,
            "velocity": 0.13385826771653545
          },
          {
            "duration": 0.0625,
            "durationTicks": 48,
            "midi": 73,
            "name": "C#5",
            "ticks": 188784,
            "time": 245.8125,
            "velocity": 0.13385826771653545
          },
          {
            "duration": 0.0625,
            "durationTicks": 48,
            "midi": 78,
            "name": "F#5",
            "ticks": 188832,
            "time": 245.875,
            "velocity": 0.13385826771653545
          },
          {
            "duration": 0.0625,
            "durationTicks": 48,
            "midi": 71,
            "name": "B4",
            "ticks": 188832,
            "time": 245.875,
            "velocity": 0.13385826771653545
          },
          {
            "duration": 0.0625,
            "durationTicks": 48,
            "midi": 71,
            "name": "B4",
            "ticks": 188880,
            "time": 245.9375,
            "velocity": 0.13385826771653545
          },
          {
            "duration": 0.0625,
            "durationTicks": 48,
            "midi": 78,
            "name": "F#5",
            "ticks": 188880,
            "time": 245.9375,
            "velocity": 0.13385826771653545
          },
          {
            "duration": 0.0625,
            "durationTicks": 48,
            "midi": 71,
            "name": "B4",
            "ticks": 188928,
            "time": 246,
            "velocity": 0.13385826771653545
          },
          {
            "duration": 0.0625,
            "durationTicks": 48,
            "midi": 78,
            "name": "F#5",
            "ticks": 188928,
            "time": 246,
            "velocity": 0.13385826771653545
          },
          {
            "duration": 0.0625,
            "durationTicks": 48,
            "midi": 78,
            "name": "F#5",
            "ticks": 188976,
            "time": 246.0625,
            "velocity": 0.13385826771653545
          },
          {
            "duration": 0.0625,
            "durationTicks": 48,
            "midi": 71,
            "name": "B4",
            "ticks": 188976,
            "time": 246.0625,
            "velocity": 0.13385826771653545
          },
          {
            "duration": 0.0625,
            "durationTicks": 48,
            "midi": 71,
            "name": "B4",
            "ticks": 189024,
            "time": 246.125,
            "velocity": 0.13385826771653545
          },
          {
            "duration": 0.0625,
            "durationTicks": 48,
            "midi": 78,
            "name": "F#5",
            "ticks": 189024,
            "time": 246.125,
            "velocity": 0.13385826771653545
          },
          {
            "duration": 0.0625,
            "durationTicks": 48,
            "midi": 78,
            "name": "F#5",
            "ticks": 189072,
            "time": 246.1875,
            "velocity": 0.13385826771653545
          },
          {
            "duration": 0.0625,
            "durationTicks": 48,
            "midi": 71,
            "name": "B4",
            "ticks": 189072,
            "time": 246.1875,
            "velocity": 0.13385826771653545
          },
          {
            "duration": 0.0625,
            "durationTicks": 48,
            "midi": 78,
            "name": "F#5",
            "ticks": 189120,
            "time": 246.25,
            "velocity": 0.13385826771653545
          },
          {
            "duration": 0.0625,
            "durationTicks": 48,
            "midi": 71,
            "name": "B4",
            "ticks": 189120,
            "time": 246.25,
            "velocity": 0.13385826771653545
          },
          {
            "duration": 0.0625,
            "durationTicks": 48,
            "midi": 71,
            "name": "B4",
            "ticks": 189168,
            "time": 246.3125,
            "velocity": 0.13385826771653545
          },
          {
            "duration": 0.0625,
            "durationTicks": 48,
            "midi": 78,
            "name": "F#5",
            "ticks": 189168,
            "time": 246.3125,
            "velocity": 0.13385826771653545
          },
          {
            "duration": 0.0625,
            "durationTicks": 48,
            "midi": 71,
            "name": "B4",
            "ticks": 189216,
            "time": 246.375,
            "velocity": 0.13385826771653545
          },
          {
            "duration": 0.0625,
            "durationTicks": 48,
            "midi": 78,
            "name": "F#5",
            "ticks": 189216,
            "time": 246.375,
            "velocity": 0.13385826771653545
          },
          {
            "duration": 0.0625,
            "durationTicks": 48,
            "midi": 71,
            "name": "B4",
            "ticks": 189264,
            "time": 246.4375,
            "velocity": 0.13385826771653545
          },
          {
            "duration": 0.0625,
            "durationTicks": 48,
            "midi": 78,
            "name": "F#5",
            "ticks": 189264,
            "time": 246.4375,
            "velocity": 0.13385826771653545
          },
          {
            "duration": 0.0625,
            "durationTicks": 48,
            "midi": 71,
            "name": "B4",
            "ticks": 189312,
            "time": 246.5,
            "velocity": 0.13385826771653545
          },
          {
            "duration": 0.0625,
            "durationTicks": 48,
            "midi": 78,
            "name": "F#5",
            "ticks": 189312,
            "time": 246.5,
            "velocity": 0.13385826771653545
          },
          {
            "duration": 0.0625,
            "durationTicks": 48,
            "midi": 71,
            "name": "B4",
            "ticks": 189360,
            "time": 246.5625,
            "velocity": 0.13385826771653545
          },
          {
            "duration": 0.0625,
            "durationTicks": 48,
            "midi": 78,
            "name": "F#5",
            "ticks": 189360,
            "time": 246.5625,
            "velocity": 0.13385826771653545
          },
          {
            "duration": 0.0625,
            "durationTicks": 48,
            "midi": 78,
            "name": "F#5",
            "ticks": 189408,
            "time": 246.625,
            "velocity": 0.13385826771653545
          },
          {
            "duration": 0.0625,
            "durationTicks": 48,
            "midi": 71,
            "name": "B4",
            "ticks": 189408,
            "time": 246.625,
            "velocity": 0.13385826771653545
          },
          {
            "duration": 0.0625,
            "durationTicks": 48,
            "midi": 78,
            "name": "F#5",
            "ticks": 189456,
            "time": 246.6875,
            "velocity": 0.13385826771653545
          },
          {
            "duration": 0.0625,
            "durationTicks": 48,
            "midi": 71,
            "name": "B4",
            "ticks": 189456,
            "time": 246.6875,
            "velocity": 0.13385826771653545
          },
          {
            "duration": 0.0625,
            "durationTicks": 48,
            "midi": 78,
            "name": "F#5",
            "ticks": 189504,
            "time": 246.75,
            "velocity": 0.13385826771653545
          },
          {
            "duration": 0.0625,
            "durationTicks": 48,
            "midi": 71,
            "name": "B4",
            "ticks": 189504,
            "time": 246.75,
            "velocity": 0.13385826771653545
          },
          {
            "duration": 0.0625,
            "durationTicks": 48,
            "midi": 78,
            "name": "F#5",
            "ticks": 189552,
            "time": 246.8125,
            "velocity": 0.13385826771653545
          },
          {
            "duration": 0.0625,
            "durationTicks": 48,
            "midi": 71,
            "name": "B4",
            "ticks": 189552,
            "time": 246.8125,
            "velocity": 0.13385826771653545
          },
          {
            "duration": 0.0625,
            "durationTicks": 48,
            "midi": 71,
            "name": "B4",
            "ticks": 189600,
            "time": 246.875,
            "velocity": 0.13385826771653545
          },
          {
            "duration": 0.0625,
            "durationTicks": 48,
            "midi": 78,
            "name": "F#5",
            "ticks": 189600,
            "time": 246.875,
            "velocity": 0.13385826771653545
          },
          {
            "duration": 0.0625,
            "durationTicks": 48,
            "midi": 71,
            "name": "B4",
            "ticks": 189648,
            "time": 246.9375,
            "velocity": 0.13385826771653545
          },
          {
            "duration": 0.0625,
            "durationTicks": 48,
            "midi": 78,
            "name": "F#5",
            "ticks": 189648,
            "time": 246.9375,
            "velocity": 0.13385826771653545
          },
          {
            "duration": 0.0625,
            "durationTicks": 48,
            "midi": 71,
            "name": "B4",
            "ticks": 189696,
            "time": 247,
            "velocity": 0.13385826771653545
          },
          {
            "duration": 0.0625,
            "durationTicks": 48,
            "midi": 78,
            "name": "F#5",
            "ticks": 189696,
            "time": 247,
            "velocity": 0.13385826771653545
          },
          {
            "duration": 0.0625,
            "durationTicks": 48,
            "midi": 78,
            "name": "F#5",
            "ticks": 189744,
            "time": 247.0625,
            "velocity": 0.13385826771653545
          },
          {
            "duration": 0.0625,
            "durationTicks": 48,
            "midi": 71,
            "name": "B4",
            "ticks": 189744,
            "time": 247.0625,
            "velocity": 0.13385826771653545
          },
          {
            "duration": 0.0625,
            "durationTicks": 48,
            "midi": 71,
            "name": "B4",
            "ticks": 189792,
            "time": 247.125,
            "velocity": 0.13385826771653545
          },
          {
            "duration": 0.0625,
            "durationTicks": 48,
            "midi": 78,
            "name": "F#5",
            "ticks": 189792,
            "time": 247.125,
            "velocity": 0.13385826771653545
          },
          {
            "duration": 0.0625,
            "durationTicks": 48,
            "midi": 78,
            "name": "F#5",
            "ticks": 189840,
            "time": 247.1875,
            "velocity": 0.13385826771653545
          },
          {
            "duration": 0.0625,
            "durationTicks": 48,
            "midi": 71,
            "name": "B4",
            "ticks": 189840,
            "time": 247.1875,
            "velocity": 0.13385826771653545
          },
          {
            "duration": 0.0625,
            "durationTicks": 48,
            "midi": 71,
            "name": "B4",
            "ticks": 189888,
            "time": 247.25,
            "velocity": 0.13385826771653545
          },
          {
            "duration": 0.0625,
            "durationTicks": 48,
            "midi": 78,
            "name": "F#5",
            "ticks": 189888,
            "time": 247.25,
            "velocity": 0.13385826771653545
          },
          {
            "duration": 0.0625,
            "durationTicks": 48,
            "midi": 71,
            "name": "B4",
            "ticks": 189936,
            "time": 247.3125,
            "velocity": 0.13385826771653545
          },
          {
            "duration": 0.0625,
            "durationTicks": 48,
            "midi": 78,
            "name": "F#5",
            "ticks": 189936,
            "time": 247.3125,
            "velocity": 0.13385826771653545
          },
          {
            "duration": 0.0625,
            "durationTicks": 48,
            "midi": 78,
            "name": "F#5",
            "ticks": 189984,
            "time": 247.375,
            "velocity": 0.13385826771653545
          },
          {
            "duration": 0.0625,
            "durationTicks": 48,
            "midi": 71,
            "name": "B4",
            "ticks": 189984,
            "time": 247.375,
            "velocity": 0.13385826771653545
          },
          {
            "duration": 0.0625,
            "durationTicks": 48,
            "midi": 71,
            "name": "B4",
            "ticks": 190032,
            "time": 247.4375,
            "velocity": 0.13385826771653545
          },
          {
            "duration": 0.0625,
            "durationTicks": 48,
            "midi": 78,
            "name": "F#5",
            "ticks": 190032,
            "time": 247.4375,
            "velocity": 0.13385826771653545
          },
          {
            "duration": 0.0625,
            "durationTicks": 48,
            "midi": 78,
            "name": "F#5",
            "ticks": 190080,
            "time": 247.5,
            "velocity": 0.13385826771653545
          },
          {
            "duration": 0.0625,
            "durationTicks": 48,
            "midi": 71,
            "name": "B4",
            "ticks": 190080,
            "time": 247.5,
            "velocity": 0.13385826771653545
          },
          {
            "duration": 0.0625,
            "durationTicks": 48,
            "midi": 71,
            "name": "B4",
            "ticks": 190128,
            "time": 247.5625,
            "velocity": 0.13385826771653545
          },
          {
            "duration": 0.0625,
            "durationTicks": 48,
            "midi": 78,
            "name": "F#5",
            "ticks": 190128,
            "time": 247.5625,
            "velocity": 0.13385826771653545
          },
          {
            "duration": 0.0625,
            "durationTicks": 48,
            "midi": 78,
            "name": "F#5",
            "ticks": 190176,
            "time": 247.625,
            "velocity": 0.13385826771653545
          },
          {
            "duration": 0.0625,
            "durationTicks": 48,
            "midi": 71,
            "name": "B4",
            "ticks": 190176,
            "time": 247.625,
            "velocity": 0.13385826771653545
          },
          {
            "duration": 0.0625,
            "durationTicks": 48,
            "midi": 71,
            "name": "B4",
            "ticks": 190224,
            "time": 247.6875,
            "velocity": 0.13385826771653545
          },
          {
            "duration": 0.0625,
            "durationTicks": 48,
            "midi": 78,
            "name": "F#5",
            "ticks": 190224,
            "time": 247.6875,
            "velocity": 0.13385826771653545
          },
          {
            "duration": 0.0625,
            "durationTicks": 48,
            "midi": 78,
            "name": "F#5",
            "ticks": 190272,
            "time": 247.75,
            "velocity": 0.13385826771653545
          },
          {
            "duration": 0.0625,
            "durationTicks": 48,
            "midi": 71,
            "name": "B4",
            "ticks": 190272,
            "time": 247.75,
            "velocity": 0.13385826771653545
          },
          {
            "duration": 0.0625,
            "durationTicks": 48,
            "midi": 78,
            "name": "F#5",
            "ticks": 190320,
            "time": 247.8125,
            "velocity": 0.13385826771653545
          },
          {
            "duration": 0.0625,
            "durationTicks": 48,
            "midi": 71,
            "name": "B4",
            "ticks": 190320,
            "time": 247.8125,
            "velocity": 0.13385826771653545
          },
          {
            "duration": 0.0625,
            "durationTicks": 48,
            "midi": 70,
            "name": "A#4",
            "ticks": 190368,
            "time": 247.875,
            "velocity": 0.13385826771653545
          },
          {
            "duration": 0.0625,
            "durationTicks": 48,
            "midi": 78,
            "name": "F#5",
            "ticks": 190368,
            "time": 247.875,
            "velocity": 0.13385826771653545
          },
          {
            "duration": 0.0625,
            "durationTicks": 48,
            "midi": 70,
            "name": "A#4",
            "ticks": 190416,
            "time": 247.9375,
            "velocity": 0.13385826771653545
          },
          {
            "duration": 0.0625,
            "durationTicks": 48,
            "midi": 78,
            "name": "F#5",
            "ticks": 190416,
            "time": 247.9375,
            "velocity": 0.13385826771653545
          },
          {
            "duration": 0.0625,
            "durationTicks": 48,
            "midi": 78,
            "name": "F#5",
            "ticks": 190464,
            "time": 248,
            "velocity": 0.13385826771653545
          },
          {
            "duration": 0.0625,
            "durationTicks": 48,
            "midi": 70,
            "name": "A#4",
            "ticks": 190464,
            "time": 248,
            "velocity": 0.13385826771653545
          },
          {
            "duration": 0.0625,
            "durationTicks": 48,
            "midi": 70,
            "name": "A#4",
            "ticks": 190512,
            "time": 248.0625,
            "velocity": 0.13385826771653545
          },
          {
            "duration": 0.0625,
            "durationTicks": 48,
            "midi": 78,
            "name": "F#5",
            "ticks": 190512,
            "time": 248.0625,
            "velocity": 0.13385826771653545
          },
          {
            "duration": 0.0625,
            "durationTicks": 48,
            "midi": 78,
            "name": "F#5",
            "ticks": 190560,
            "time": 248.125,
            "velocity": 0.13385826771653545
          },
          {
            "duration": 0.0625,
            "durationTicks": 48,
            "midi": 70,
            "name": "A#4",
            "ticks": 190560,
            "time": 248.125,
            "velocity": 0.13385826771653545
          },
          {
            "duration": 0.0625,
            "durationTicks": 48,
            "midi": 78,
            "name": "F#5",
            "ticks": 190608,
            "time": 248.1875,
            "velocity": 0.13385826771653545
          },
          {
            "duration": 0.0625,
            "durationTicks": 48,
            "midi": 70,
            "name": "A#4",
            "ticks": 190608,
            "time": 248.1875,
            "velocity": 0.13385826771653545
          },
          {
            "duration": 0.0625,
            "durationTicks": 48,
            "midi": 70,
            "name": "A#4",
            "ticks": 190656,
            "time": 248.25,
            "velocity": 0.13385826771653545
          },
          {
            "duration": 0.0625,
            "durationTicks": 48,
            "midi": 78,
            "name": "F#5",
            "ticks": 190656,
            "time": 248.25,
            "velocity": 0.13385826771653545
          },
          {
            "duration": 0.0625,
            "durationTicks": 48,
            "midi": 70,
            "name": "A#4",
            "ticks": 190704,
            "time": 248.3125,
            "velocity": 0.13385826771653545
          },
          {
            "duration": 0.0625,
            "durationTicks": 48,
            "midi": 78,
            "name": "F#5",
            "ticks": 190704,
            "time": 248.3125,
            "velocity": 0.13385826771653545
          },
          {
            "duration": 0.0625,
            "durationTicks": 48,
            "midi": 78,
            "name": "F#5",
            "ticks": 190752,
            "time": 248.375,
            "velocity": 0.13385826771653545
          },
          {
            "duration": 0.0625,
            "durationTicks": 48,
            "midi": 70,
            "name": "A#4",
            "ticks": 190752,
            "time": 248.375,
            "velocity": 0.13385826771653545
          },
          {
            "duration": 0.0625,
            "durationTicks": 48,
            "midi": 70,
            "name": "A#4",
            "ticks": 190800,
            "time": 248.4375,
            "velocity": 0.13385826771653545
          },
          {
            "duration": 0.0625,
            "durationTicks": 48,
            "midi": 78,
            "name": "F#5",
            "ticks": 190800,
            "time": 248.4375,
            "velocity": 0.13385826771653545
          },
          {
            "duration": 0.0625,
            "durationTicks": 48,
            "midi": 78,
            "name": "F#5",
            "ticks": 190848,
            "time": 248.5,
            "velocity": 0.13385826771653545
          },
          {
            "duration": 0.0625,
            "durationTicks": 48,
            "midi": 70,
            "name": "A#4",
            "ticks": 190848,
            "time": 248.5,
            "velocity": 0.13385826771653545
          },
          {
            "duration": 0.0625,
            "durationTicks": 48,
            "midi": 70,
            "name": "A#4",
            "ticks": 190896,
            "time": 248.5625,
            "velocity": 0.13385826771653545
          },
          {
            "duration": 0.0625,
            "durationTicks": 48,
            "midi": 78,
            "name": "F#5",
            "ticks": 190896,
            "time": 248.5625,
            "velocity": 0.13385826771653545
          },
          {
            "duration": 0.0625,
            "durationTicks": 48,
            "midi": 70,
            "name": "A#4",
            "ticks": 190944,
            "time": 248.625,
            "velocity": 0.13385826771653545
          },
          {
            "duration": 0.0625,
            "durationTicks": 48,
            "midi": 78,
            "name": "F#5",
            "ticks": 190944,
            "time": 248.625,
            "velocity": 0.13385826771653545
          },
          {
            "duration": 0.0625,
            "durationTicks": 48,
            "midi": 78,
            "name": "F#5",
            "ticks": 190992,
            "time": 248.6875,
            "velocity": 0.13385826771653545
          },
          {
            "duration": 0.0625,
            "durationTicks": 48,
            "midi": 70,
            "name": "A#4",
            "ticks": 190992,
            "time": 248.6875,
            "velocity": 0.13385826771653545
          },
          {
            "duration": 0.0625,
            "durationTicks": 48,
            "midi": 70,
            "name": "A#4",
            "ticks": 191040,
            "time": 248.75,
            "velocity": 0.13385826771653545
          },
          {
            "duration": 0.0625,
            "durationTicks": 48,
            "midi": 78,
            "name": "F#5",
            "ticks": 191040,
            "time": 248.75,
            "velocity": 0.13385826771653545
          },
          {
            "duration": 0.0625,
            "durationTicks": 48,
            "midi": 78,
            "name": "F#5",
            "ticks": 191088,
            "time": 248.8125,
            "velocity": 0.13385826771653545
          },
          {
            "duration": 0.0625,
            "durationTicks": 48,
            "midi": 70,
            "name": "A#4",
            "ticks": 191088,
            "time": 248.8125,
            "velocity": 0.13385826771653545
          },
          {
            "duration": 0.0625,
            "durationTicks": 48,
            "midi": 78,
            "name": "F#5",
            "ticks": 191136,
            "time": 248.875,
            "velocity": 0.13385826771653545
          },
          {
            "duration": 0.0625,
            "durationTicks": 48,
            "midi": 70,
            "name": "A#4",
            "ticks": 191136,
            "time": 248.875,
            "velocity": 0.13385826771653545
          },
          {
            "duration": 0.0625,
            "durationTicks": 48,
            "midi": 70,
            "name": "A#4",
            "ticks": 191184,
            "time": 248.9375,
            "velocity": 0.13385826771653545
          },
          {
            "duration": 0.0625,
            "durationTicks": 48,
            "midi": 78,
            "name": "F#5",
            "ticks": 191184,
            "time": 248.9375,
            "velocity": 0.13385826771653545
          },
          {
            "duration": 0.0625,
            "durationTicks": 48,
            "midi": 70,
            "name": "A#4",
            "ticks": 191232,
            "time": 249,
            "velocity": 0.13385826771653545
          },
          {
            "duration": 0.0625,
            "durationTicks": 48,
            "midi": 78,
            "name": "F#5",
            "ticks": 191232,
            "time": 249,
            "velocity": 0.13385826771653545
          },
          {
            "duration": 0.0625,
            "durationTicks": 48,
            "midi": 70,
            "name": "A#4",
            "ticks": 191280,
            "time": 249.0625,
            "velocity": 0.13385826771653545
          },
          {
            "duration": 0.0625,
            "durationTicks": 48,
            "midi": 78,
            "name": "F#5",
            "ticks": 191280,
            "time": 249.0625,
            "velocity": 0.13385826771653545
          },
          {
            "duration": 0.0625,
            "durationTicks": 48,
            "midi": 70,
            "name": "A#4",
            "ticks": 191328,
            "time": 249.125,
            "velocity": 0.13385826771653545
          },
          {
            "duration": 0.0625,
            "durationTicks": 48,
            "midi": 78,
            "name": "F#5",
            "ticks": 191328,
            "time": 249.125,
            "velocity": 0.13385826771653545
          },
          {
            "duration": 0.0625,
            "durationTicks": 48,
            "midi": 70,
            "name": "A#4",
            "ticks": 191376,
            "time": 249.1875,
            "velocity": 0.13385826771653545
          },
          {
            "duration": 0.0625,
            "durationTicks": 48,
            "midi": 78,
            "name": "F#5",
            "ticks": 191376,
            "time": 249.1875,
            "velocity": 0.13385826771653545
          },
          {
            "duration": 0.0625,
            "durationTicks": 48,
            "midi": 70,
            "name": "A#4",
            "ticks": 191424,
            "time": 249.25,
            "velocity": 0.13385826771653545
          },
          {
            "duration": 0.0625,
            "durationTicks": 48,
            "midi": 78,
            "name": "F#5",
            "ticks": 191424,
            "time": 249.25,
            "velocity": 0.13385826771653545
          },
          {
            "duration": 0.0625,
            "durationTicks": 48,
            "midi": 78,
            "name": "F#5",
            "ticks": 191472,
            "time": 249.3125,
            "velocity": 0.13385826771653545
          },
          {
            "duration": 0.0625,
            "durationTicks": 48,
            "midi": 70,
            "name": "A#4",
            "ticks": 191472,
            "time": 249.3125,
            "velocity": 0.13385826771653545
          },
          {
            "duration": 0.0625,
            "durationTicks": 48,
            "midi": 78,
            "name": "F#5",
            "ticks": 191520,
            "time": 249.375,
            "velocity": 0.13385826771653545
          },
          {
            "duration": 0.0625,
            "durationTicks": 48,
            "midi": 70,
            "name": "A#4",
            "ticks": 191520,
            "time": 249.375,
            "velocity": 0.13385826771653545
          },
          {
            "duration": 0.0625,
            "durationTicks": 48,
            "midi": 78,
            "name": "F#5",
            "ticks": 191568,
            "time": 249.4375,
            "velocity": 0.13385826771653545
          },
          {
            "duration": 0.0625,
            "durationTicks": 48,
            "midi": 70,
            "name": "A#4",
            "ticks": 191568,
            "time": 249.4375,
            "velocity": 0.13385826771653545
          },
          {
            "duration": 0.0625,
            "durationTicks": 48,
            "midi": 78,
            "name": "F#5",
            "ticks": 191616,
            "time": 249.5,
            "velocity": 0.13385826771653545
          },
          {
            "duration": 0.0625,
            "durationTicks": 48,
            "midi": 70,
            "name": "A#4",
            "ticks": 191616,
            "time": 249.5,
            "velocity": 0.13385826771653545
          },
          {
            "duration": 0.0625,
            "durationTicks": 48,
            "midi": 70,
            "name": "A#4",
            "ticks": 191664,
            "time": 249.5625,
            "velocity": 0.13385826771653545
          },
          {
            "duration": 0.0625,
            "durationTicks": 48,
            "midi": 78,
            "name": "F#5",
            "ticks": 191664,
            "time": 249.5625,
            "velocity": 0.13385826771653545
          },
          {
            "duration": 0.0625,
            "durationTicks": 48,
            "midi": 70,
            "name": "A#4",
            "ticks": 191712,
            "time": 249.625,
            "velocity": 0.13385826771653545
          },
          {
            "duration": 0.0625,
            "durationTicks": 48,
            "midi": 78,
            "name": "F#5",
            "ticks": 191712,
            "time": 249.625,
            "velocity": 0.13385826771653545
          },
          {
            "duration": 0.0625,
            "durationTicks": 48,
            "midi": 78,
            "name": "F#5",
            "ticks": 191760,
            "time": 249.6875,
            "velocity": 0.13385826771653545
          },
          {
            "duration": 0.0625,
            "durationTicks": 48,
            "midi": 70,
            "name": "A#4",
            "ticks": 191760,
            "time": 249.6875,
            "velocity": 0.13385826771653545
          },
          {
            "duration": 0.0625,
            "durationTicks": 48,
            "midi": 70,
            "name": "A#4",
            "ticks": 191808,
            "time": 249.75,
            "velocity": 0.13385826771653545
          },
          {
            "duration": 0.0625,
            "durationTicks": 48,
            "midi": 78,
            "name": "F#5",
            "ticks": 191808,
            "time": 249.75,
            "velocity": 0.13385826771653545
          },
          {
            "duration": 0.0625,
            "durationTicks": 48,
            "midi": 78,
            "name": "F#5",
            "ticks": 191856,
            "time": 249.8125,
            "velocity": 0.13385826771653545
          },
          {
            "duration": 0.0625,
            "durationTicks": 48,
            "midi": 70,
            "name": "A#4",
            "ticks": 191856,
            "time": 249.8125,
            "velocity": 0.13385826771653545
          },
          {
            "duration": 0.0625,
            "durationTicks": 48,
            "midi": 80,
            "name": "G#5",
            "ticks": 191904,
            "time": 249.875,
            "velocity": 0.13385826771653545
          },
          {
            "duration": 0.0625,
            "durationTicks": 48,
            "midi": 73,
            "name": "C#5",
            "ticks": 191904,
            "time": 249.875,
            "velocity": 0.13385826771653545
          },
          {
            "duration": 0.0625,
            "durationTicks": 48,
            "midi": 73,
            "name": "C#5",
            "ticks": 191952,
            "time": 249.9375,
            "velocity": 0.13385826771653545
          },
          {
            "duration": 0.0625,
            "durationTicks": 48,
            "midi": 80,
            "name": "G#5",
            "ticks": 191952,
            "time": 249.9375,
            "velocity": 0.13385826771653545
          },
          {
            "duration": 0.0625,
            "durationTicks": 48,
            "midi": 73,
            "name": "C#5",
            "ticks": 192000,
            "time": 250,
            "velocity": 0.13385826771653545
          },
          {
            "duration": 0.0625,
            "durationTicks": 48,
            "midi": 80,
            "name": "G#5",
            "ticks": 192000,
            "time": 250,
            "velocity": 0.13385826771653545
          },
          {
            "duration": 0.0625,
            "durationTicks": 48,
            "midi": 80,
            "name": "G#5",
            "ticks": 192048,
            "time": 250.0625,
            "velocity": 0.13385826771653545
          },
          {
            "duration": 0.0625,
            "durationTicks": 48,
            "midi": 73,
            "name": "C#5",
            "ticks": 192048,
            "time": 250.0625,
            "velocity": 0.13385826771653545
          },
          {
            "duration": 0.0625,
            "durationTicks": 48,
            "midi": 80,
            "name": "G#5",
            "ticks": 192096,
            "time": 250.125,
            "velocity": 0.13385826771653545
          },
          {
            "duration": 0.0625,
            "durationTicks": 48,
            "midi": 73,
            "name": "C#5",
            "ticks": 192096,
            "time": 250.125,
            "velocity": 0.13385826771653545
          },
          {
            "duration": 0.0625,
            "durationTicks": 48,
            "midi": 80,
            "name": "G#5",
            "ticks": 192144,
            "time": 250.1875,
            "velocity": 0.13385826771653545
          },
          {
            "duration": 0.0625,
            "durationTicks": 48,
            "midi": 73,
            "name": "C#5",
            "ticks": 192144,
            "time": 250.1875,
            "velocity": 0.13385826771653545
          },
          {
            "duration": 0.0625,
            "durationTicks": 48,
            "midi": 73,
            "name": "C#5",
            "ticks": 192192,
            "time": 250.25,
            "velocity": 0.13385826771653545
          },
          {
            "duration": 0.0625,
            "durationTicks": 48,
            "midi": 80,
            "name": "G#5",
            "ticks": 192192,
            "time": 250.25,
            "velocity": 0.13385826771653545
          },
          {
            "duration": 0.0625,
            "durationTicks": 48,
            "midi": 80,
            "name": "G#5",
            "ticks": 192240,
            "time": 250.3125,
            "velocity": 0.13385826771653545
          },
          {
            "duration": 0.0625,
            "durationTicks": 48,
            "midi": 73,
            "name": "C#5",
            "ticks": 192240,
            "time": 250.3125,
            "velocity": 0.13385826771653545
          },
          {
            "duration": 0.0625,
            "durationTicks": 48,
            "midi": 80,
            "name": "G#5",
            "ticks": 192288,
            "time": 250.375,
            "velocity": 0.13385826771653545
          },
          {
            "duration": 0.0625,
            "durationTicks": 48,
            "midi": 73,
            "name": "C#5",
            "ticks": 192288,
            "time": 250.375,
            "velocity": 0.13385826771653545
          },
          {
            "duration": 0.0625,
            "durationTicks": 48,
            "midi": 80,
            "name": "G#5",
            "ticks": 192336,
            "time": 250.4375,
            "velocity": 0.13385826771653545
          },
          {
            "duration": 0.0625,
            "durationTicks": 48,
            "midi": 73,
            "name": "C#5",
            "ticks": 192336,
            "time": 250.4375,
            "velocity": 0.13385826771653545
          },
          {
            "duration": 0.0625,
            "durationTicks": 48,
            "midi": 73,
            "name": "C#5",
            "ticks": 192384,
            "time": 250.5,
            "velocity": 0.13385826771653545
          },
          {
            "duration": 0.0625,
            "durationTicks": 48,
            "midi": 80,
            "name": "G#5",
            "ticks": 192384,
            "time": 250.5,
            "velocity": 0.13385826771653545
          },
          {
            "duration": 0.0625,
            "durationTicks": 48,
            "midi": 73,
            "name": "C#5",
            "ticks": 192432,
            "time": 250.5625,
            "velocity": 0.13385826771653545
          },
          {
            "duration": 0.0625,
            "durationTicks": 48,
            "midi": 80,
            "name": "G#5",
            "ticks": 192432,
            "time": 250.5625,
            "velocity": 0.13385826771653545
          },
          {
            "duration": 0.0625,
            "durationTicks": 48,
            "midi": 80,
            "name": "G#5",
            "ticks": 192480,
            "time": 250.625,
            "velocity": 0.13385826771653545
          },
          {
            "duration": 0.0625,
            "durationTicks": 48,
            "midi": 73,
            "name": "C#5",
            "ticks": 192480,
            "time": 250.625,
            "velocity": 0.13385826771653545
          },
          {
            "duration": 0.0625,
            "durationTicks": 48,
            "midi": 80,
            "name": "G#5",
            "ticks": 192528,
            "time": 250.6875,
            "velocity": 0.13385826771653545
          },
          {
            "duration": 0.0625,
            "durationTicks": 48,
            "midi": 73,
            "name": "C#5",
            "ticks": 192528,
            "time": 250.6875,
            "velocity": 0.13385826771653545
          },
          {
            "duration": 0.0625,
            "durationTicks": 48,
            "midi": 80,
            "name": "G#5",
            "ticks": 192576,
            "time": 250.75,
            "velocity": 0.13385826771653545
          },
          {
            "duration": 0.0625,
            "durationTicks": 48,
            "midi": 73,
            "name": "C#5",
            "ticks": 192576,
            "time": 250.75,
            "velocity": 0.13385826771653545
          },
          {
            "duration": 0.0625,
            "durationTicks": 48,
            "midi": 80,
            "name": "G#5",
            "ticks": 192624,
            "time": 250.8125,
            "velocity": 0.13385826771653545
          },
          {
            "duration": 0.0625,
            "durationTicks": 48,
            "midi": 73,
            "name": "C#5",
            "ticks": 192624,
            "time": 250.8125,
            "velocity": 0.13385826771653545
          },
          {
            "duration": 0.0625,
            "durationTicks": 48,
            "midi": 73,
            "name": "C#5",
            "ticks": 192672,
            "time": 250.875,
            "velocity": 0.13385826771653545
          },
          {
            "duration": 0.0625,
            "durationTicks": 48,
            "midi": 80,
            "name": "G#5",
            "ticks": 192672,
            "time": 250.875,
            "velocity": 0.13385826771653545
          },
          {
            "duration": 0.0625,
            "durationTicks": 48,
            "midi": 73,
            "name": "C#5",
            "ticks": 192720,
            "time": 250.9375,
            "velocity": 0.13385826771653545
          },
          {
            "duration": 0.0625,
            "durationTicks": 48,
            "midi": 80,
            "name": "G#5",
            "ticks": 192720,
            "time": 250.9375,
            "velocity": 0.13385826771653545
          },
          {
            "duration": 0.0625,
            "durationTicks": 48,
            "midi": 80,
            "name": "G#5",
            "ticks": 192768,
            "time": 251,
            "velocity": 0.13385826771653545
          },
          {
            "duration": 0.0625,
            "durationTicks": 48,
            "midi": 73,
            "name": "C#5",
            "ticks": 192768,
            "time": 251,
            "velocity": 0.13385826771653545
          },
          {
            "duration": 0.0625,
            "durationTicks": 48,
            "midi": 73,
            "name": "C#5",
            "ticks": 192816,
            "time": 251.0625,
            "velocity": 0.13385826771653545
          },
          {
            "duration": 0.0625,
            "durationTicks": 48,
            "midi": 80,
            "name": "G#5",
            "ticks": 192816,
            "time": 251.0625,
            "velocity": 0.13385826771653545
          },
          {
            "duration": 0.0625,
            "durationTicks": 48,
            "midi": 80,
            "name": "G#5",
            "ticks": 192864,
            "time": 251.125,
            "velocity": 0.13385826771653545
          },
          {
            "duration": 0.0625,
            "durationTicks": 48,
            "midi": 73,
            "name": "C#5",
            "ticks": 192864,
            "time": 251.125,
            "velocity": 0.13385826771653545
          },
          {
            "duration": 0.0625,
            "durationTicks": 48,
            "midi": 80,
            "name": "G#5",
            "ticks": 192912,
            "time": 251.1875,
            "velocity": 0.13385826771653545
          },
          {
            "duration": 0.0625,
            "durationTicks": 48,
            "midi": 73,
            "name": "C#5",
            "ticks": 192912,
            "time": 251.1875,
            "velocity": 0.13385826771653545
          },
          {
            "duration": 0.0625,
            "durationTicks": 48,
            "midi": 73,
            "name": "C#5",
            "ticks": 192960,
            "time": 251.25,
            "velocity": 0.13385826771653545
          },
          {
            "duration": 0.0625,
            "durationTicks": 48,
            "midi": 80,
            "name": "G#5",
            "ticks": 192960,
            "time": 251.25,
            "velocity": 0.13385826771653545
          },
          {
            "duration": 0.0625,
            "durationTicks": 48,
            "midi": 73,
            "name": "C#5",
            "ticks": 193008,
            "time": 251.3125,
            "velocity": 0.13385826771653545
          },
          {
            "duration": 0.0625,
            "durationTicks": 48,
            "midi": 80,
            "name": "G#5",
            "ticks": 193008,
            "time": 251.3125,
            "velocity": 0.13385826771653545
          },
          {
            "duration": 0.0625,
            "durationTicks": 48,
            "midi": 73,
            "name": "C#5",
            "ticks": 193056,
            "time": 251.375,
            "velocity": 0.13385826771653545
          },
          {
            "duration": 0.0625,
            "durationTicks": 48,
            "midi": 80,
            "name": "G#5",
            "ticks": 193056,
            "time": 251.375,
            "velocity": 0.13385826771653545
          },
          {
            "duration": 0.0625,
            "durationTicks": 48,
            "midi": 73,
            "name": "C#5",
            "ticks": 193104,
            "time": 251.4375,
            "velocity": 0.13385826771653545
          },
          {
            "duration": 0.0625,
            "durationTicks": 48,
            "midi": 80,
            "name": "G#5",
            "ticks": 193104,
            "time": 251.4375,
            "velocity": 0.13385826771653545
          },
          {
            "duration": 0.0625,
            "durationTicks": 48,
            "midi": 73,
            "name": "C#5",
            "ticks": 193152,
            "time": 251.5,
            "velocity": 0.13385826771653545
          },
          {
            "duration": 0.0625,
            "durationTicks": 48,
            "midi": 80,
            "name": "G#5",
            "ticks": 193152,
            "time": 251.5,
            "velocity": 0.13385826771653545
          },
          {
            "duration": 0.0625,
            "durationTicks": 48,
            "midi": 73,
            "name": "C#5",
            "ticks": 193200,
            "time": 251.5625,
            "velocity": 0.13385826771653545
          },
          {
            "duration": 0.0625,
            "durationTicks": 48,
            "midi": 80,
            "name": "G#5",
            "ticks": 193200,
            "time": 251.5625,
            "velocity": 0.13385826771653545
          },
          {
            "duration": 0.0625,
            "durationTicks": 48,
            "midi": 73,
            "name": "C#5",
            "ticks": 193248,
            "time": 251.625,
            "velocity": 0.13385826771653545
          },
          {
            "duration": 0.0625,
            "durationTicks": 48,
            "midi": 80,
            "name": "G#5",
            "ticks": 193248,
            "time": 251.625,
            "velocity": 0.13385826771653545
          },
          {
            "duration": 0.0625,
            "durationTicks": 48,
            "midi": 73,
            "name": "C#5",
            "ticks": 193296,
            "time": 251.6875,
            "velocity": 0.13385826771653545
          },
          {
            "duration": 0.0625,
            "durationTicks": 48,
            "midi": 80,
            "name": "G#5",
            "ticks": 193296,
            "time": 251.6875,
            "velocity": 0.13385826771653545
          },
          {
            "duration": 0.0625,
            "durationTicks": 48,
            "midi": 73,
            "name": "C#5",
            "ticks": 193344,
            "time": 251.75,
            "velocity": 0.13385826771653545
          },
          {
            "duration": 0.0625,
            "durationTicks": 48,
            "midi": 80,
            "name": "G#5",
            "ticks": 193344,
            "time": 251.75,
            "velocity": 0.13385826771653545
          },
          {
            "duration": 0.0625,
            "durationTicks": 48,
            "midi": 80,
            "name": "G#5",
            "ticks": 193392,
            "time": 251.8125,
            "velocity": 0.13385826771653545
          },
          {
            "duration": 0.0625,
            "durationTicks": 48,
            "midi": 73,
            "name": "C#5",
            "ticks": 193392,
            "time": 251.8125,
            "velocity": 0.13385826771653545
          },
          {
            "duration": 0.0625,
            "durationTicks": 48,
            "midi": 81,
            "name": "A5",
            "ticks": 193440,
            "time": 251.875,
            "velocity": 0.13385826771653545
          },
          {
            "duration": 0.0625,
            "durationTicks": 48,
            "midi": 73,
            "name": "C#5",
            "ticks": 193440,
            "time": 251.875,
            "velocity": 0.13385826771653545
          },
          {
            "duration": 0.0625,
            "durationTicks": 48,
            "midi": 81,
            "name": "A5",
            "ticks": 193488,
            "time": 251.9375,
            "velocity": 0.13385826771653545
          },
          {
            "duration": 0.0625,
            "durationTicks": 48,
            "midi": 73,
            "name": "C#5",
            "ticks": 193488,
            "time": 251.9375,
            "velocity": 0.13385826771653545
          },
          {
            "duration": 0.0625,
            "durationTicks": 48,
            "midi": 81,
            "name": "A5",
            "ticks": 193536,
            "time": 252,
            "velocity": 0.13385826771653545
          },
          {
            "duration": 0.0625,
            "durationTicks": 48,
            "midi": 73,
            "name": "C#5",
            "ticks": 193536,
            "time": 252,
            "velocity": 0.13385826771653545
          },
          {
            "duration": 0.0625,
            "durationTicks": 48,
            "midi": 81,
            "name": "A5",
            "ticks": 193584,
            "time": 252.0625,
            "velocity": 0.13385826771653545
          },
          {
            "duration": 0.0625,
            "durationTicks": 48,
            "midi": 73,
            "name": "C#5",
            "ticks": 193584,
            "time": 252.0625,
            "velocity": 0.13385826771653545
          },
          {
            "duration": 0.0625,
            "durationTicks": 48,
            "midi": 81,
            "name": "A5",
            "ticks": 193632,
            "time": 252.125,
            "velocity": 0.13385826771653545
          },
          {
            "duration": 0.0625,
            "durationTicks": 48,
            "midi": 73,
            "name": "C#5",
            "ticks": 193632,
            "time": 252.125,
            "velocity": 0.13385826771653545
          },
          {
            "duration": 0.0625,
            "durationTicks": 48,
            "midi": 73,
            "name": "C#5",
            "ticks": 193680,
            "time": 252.1875,
            "velocity": 0.13385826771653545
          },
          {
            "duration": 0.0625,
            "durationTicks": 48,
            "midi": 81,
            "name": "A5",
            "ticks": 193680,
            "time": 252.1875,
            "velocity": 0.13385826771653545
          },
          {
            "duration": 0.0625,
            "durationTicks": 48,
            "midi": 73,
            "name": "C#5",
            "ticks": 193728,
            "time": 252.25,
            "velocity": 0.13385826771653545
          },
          {
            "duration": 0.0625,
            "durationTicks": 48,
            "midi": 81,
            "name": "A5",
            "ticks": 193728,
            "time": 252.25,
            "velocity": 0.13385826771653545
          },
          {
            "duration": 0.0625,
            "durationTicks": 48,
            "midi": 81,
            "name": "A5",
            "ticks": 193776,
            "time": 252.3125,
            "velocity": 0.13385826771653545
          },
          {
            "duration": 0.0625,
            "durationTicks": 48,
            "midi": 73,
            "name": "C#5",
            "ticks": 193776,
            "time": 252.3125,
            "velocity": 0.13385826771653545
          },
          {
            "duration": 0.0625,
            "durationTicks": 48,
            "midi": 81,
            "name": "A5",
            "ticks": 193824,
            "time": 252.375,
            "velocity": 0.13385826771653545
          },
          {
            "duration": 0.0625,
            "durationTicks": 48,
            "midi": 73,
            "name": "C#5",
            "ticks": 193824,
            "time": 252.375,
            "velocity": 0.13385826771653545
          },
          {
            "duration": 0.0625,
            "durationTicks": 48,
            "midi": 81,
            "name": "A5",
            "ticks": 193872,
            "time": 252.4375,
            "velocity": 0.13385826771653545
          },
          {
            "duration": 0.0625,
            "durationTicks": 48,
            "midi": 73,
            "name": "C#5",
            "ticks": 193872,
            "time": 252.4375,
            "velocity": 0.13385826771653545
          },
          {
            "duration": 0.0625,
            "durationTicks": 48,
            "midi": 73,
            "name": "C#5",
            "ticks": 193920,
            "time": 252.5,
            "velocity": 0.13385826771653545
          },
          {
            "duration": 0.0625,
            "durationTicks": 48,
            "midi": 81,
            "name": "A5",
            "ticks": 193920,
            "time": 252.5,
            "velocity": 0.13385826771653545
          },
          {
            "duration": 0.0625,
            "durationTicks": 48,
            "midi": 73,
            "name": "C#5",
            "ticks": 193968,
            "time": 252.5625,
            "velocity": 0.13385826771653545
          },
          {
            "duration": 0.0625,
            "durationTicks": 48,
            "midi": 81,
            "name": "A5",
            "ticks": 193968,
            "time": 252.5625,
            "velocity": 0.13385826771653545
          },
          {
            "duration": 0.0625,
            "durationTicks": 48,
            "midi": 81,
            "name": "A5",
            "ticks": 194016,
            "time": 252.625,
            "velocity": 0.13385826771653545
          },
          {
            "duration": 0.0625,
            "durationTicks": 48,
            "midi": 73,
            "name": "C#5",
            "ticks": 194016,
            "time": 252.625,
            "velocity": 0.13385826771653545
          },
          {
            "duration": 0.0625,
            "durationTicks": 48,
            "midi": 73,
            "name": "C#5",
            "ticks": 194064,
            "time": 252.6875,
            "velocity": 0.13385826771653545
          },
          {
            "duration": 0.0625,
            "durationTicks": 48,
            "midi": 81,
            "name": "A5",
            "ticks": 194064,
            "time": 252.6875,
            "velocity": 0.13385826771653545
          },
          {
            "duration": 0.0625,
            "durationTicks": 48,
            "midi": 73,
            "name": "C#5",
            "ticks": 194112,
            "time": 252.75,
            "velocity": 0.13385826771653545
          },
          {
            "duration": 0.0625,
            "durationTicks": 48,
            "midi": 81,
            "name": "A5",
            "ticks": 194112,
            "time": 252.75,
            "velocity": 0.13385826771653545
          },
          {
            "duration": 0.0625,
            "durationTicks": 48,
            "midi": 81,
            "name": "A5",
            "ticks": 194160,
            "time": 252.8125,
            "velocity": 0.13385826771653545
          },
          {
            "duration": 0.0625,
            "durationTicks": 48,
            "midi": 73,
            "name": "C#5",
            "ticks": 194160,
            "time": 252.8125,
            "velocity": 0.13385826771653545
          },
          {
            "duration": 0.0625,
            "durationTicks": 48,
            "midi": 81,
            "name": "A5",
            "ticks": 194208,
            "time": 252.875,
            "velocity": 0.13385826771653545
          },
          {
            "duration": 0.0625,
            "durationTicks": 48,
            "midi": 73,
            "name": "C#5",
            "ticks": 194208,
            "time": 252.875,
            "velocity": 0.13385826771653545
          },
          {
            "duration": 0.0625,
            "durationTicks": 48,
            "midi": 81,
            "name": "A5",
            "ticks": 194256,
            "time": 252.9375,
            "velocity": 0.13385826771653545
          },
          {
            "duration": 0.0625,
            "durationTicks": 48,
            "midi": 73,
            "name": "C#5",
            "ticks": 194256,
            "time": 252.9375,
            "velocity": 0.13385826771653545
          },
          {
            "duration": 0.0625,
            "durationTicks": 48,
            "midi": 81,
            "name": "A5",
            "ticks": 194304,
            "time": 253,
            "velocity": 0.13385826771653545
          },
          {
            "duration": 0.0625,
            "durationTicks": 48,
            "midi": 73,
            "name": "C#5",
            "ticks": 194304,
            "time": 253,
            "velocity": 0.13385826771653545
          },
          {
            "duration": 0.0625,
            "durationTicks": 48,
            "midi": 73,
            "name": "C#5",
            "ticks": 194352,
            "time": 253.0625,
            "velocity": 0.13385826771653545
          },
          {
            "duration": 0.0625,
            "durationTicks": 48,
            "midi": 81,
            "name": "A5",
            "ticks": 194352,
            "time": 253.0625,
            "velocity": 0.13385826771653545
          },
          {
            "duration": 0.0625,
            "durationTicks": 48,
            "midi": 81,
            "name": "A5",
            "ticks": 194400,
            "time": 253.125,
            "velocity": 0.13385826771653545
          },
          {
            "duration": 0.0625,
            "durationTicks": 48,
            "midi": 73,
            "name": "C#5",
            "ticks": 194400,
            "time": 253.125,
            "velocity": 0.13385826771653545
          },
          {
            "duration": 0.0625,
            "durationTicks": 48,
            "midi": 73,
            "name": "C#5",
            "ticks": 194448,
            "time": 253.1875,
            "velocity": 0.13385826771653545
          },
          {
            "duration": 0.0625,
            "durationTicks": 48,
            "midi": 81,
            "name": "A5",
            "ticks": 194448,
            "time": 253.1875,
            "velocity": 0.13385826771653545
          },
          {
            "duration": 0.0625,
            "durationTicks": 48,
            "midi": 81,
            "name": "A5",
            "ticks": 194496,
            "time": 253.25,
            "velocity": 0.13385826771653545
          },
          {
            "duration": 0.0625,
            "durationTicks": 48,
            "midi": 73,
            "name": "C#5",
            "ticks": 194496,
            "time": 253.25,
            "velocity": 0.13385826771653545
          },
          {
            "duration": 0.0625,
            "durationTicks": 48,
            "midi": 81,
            "name": "A5",
            "ticks": 194544,
            "time": 253.3125,
            "velocity": 0.13385826771653545
          },
          {
            "duration": 0.0625,
            "durationTicks": 48,
            "midi": 73,
            "name": "C#5",
            "ticks": 194544,
            "time": 253.3125,
            "velocity": 0.13385826771653545
          },
          {
            "duration": 0.0625,
            "durationTicks": 48,
            "midi": 81,
            "name": "A5",
            "ticks": 194592,
            "time": 253.375,
            "velocity": 0.13385826771653545
          },
          {
            "duration": 0.0625,
            "durationTicks": 48,
            "midi": 73,
            "name": "C#5",
            "ticks": 194592,
            "time": 253.375,
            "velocity": 0.13385826771653545
          },
          {
            "duration": 0.0625,
            "durationTicks": 48,
            "midi": 81,
            "name": "A5",
            "ticks": 194640,
            "time": 253.4375,
            "velocity": 0.13385826771653545
          },
          {
            "duration": 0.0625,
            "durationTicks": 48,
            "midi": 73,
            "name": "C#5",
            "ticks": 194640,
            "time": 253.4375,
            "velocity": 0.13385826771653545
          },
          {
            "duration": 0.0625,
            "durationTicks": 48,
            "midi": 73,
            "name": "C#5",
            "ticks": 194688,
            "time": 253.5,
            "velocity": 0.13385826771653545
          },
          {
            "duration": 0.0625,
            "durationTicks": 48,
            "midi": 81,
            "name": "A5",
            "ticks": 194688,
            "time": 253.5,
            "velocity": 0.13385826771653545
          },
          {
            "duration": 0.0625,
            "durationTicks": 48,
            "midi": 73,
            "name": "C#5",
            "ticks": 194736,
            "time": 253.5625,
            "velocity": 0.13385826771653545
          },
          {
            "duration": 0.0625,
            "durationTicks": 48,
            "midi": 81,
            "name": "A5",
            "ticks": 194736,
            "time": 253.5625,
            "velocity": 0.13385826771653545
          },
          {
            "duration": 0.0625,
            "durationTicks": 48,
            "midi": 81,
            "name": "A5",
            "ticks": 194784,
            "time": 253.625,
            "velocity": 0.13385826771653545
          },
          {
            "duration": 0.0625,
            "durationTicks": 48,
            "midi": 73,
            "name": "C#5",
            "ticks": 194784,
            "time": 253.625,
            "velocity": 0.13385826771653545
          },
          {
            "duration": 0.0625,
            "durationTicks": 48,
            "midi": 73,
            "name": "C#5",
            "ticks": 194832,
            "time": 253.6875,
            "velocity": 0.13385826771653545
          },
          {
            "duration": 0.0625,
            "durationTicks": 48,
            "midi": 81,
            "name": "A5",
            "ticks": 194832,
            "time": 253.6875,
            "velocity": 0.13385826771653545
          },
          {
            "duration": 0.0625,
            "durationTicks": 48,
            "midi": 81,
            "name": "A5",
            "ticks": 194880,
            "time": 253.75,
            "velocity": 0.13385826771653545
          },
          {
            "duration": 0.0625,
            "durationTicks": 48,
            "midi": 73,
            "name": "C#5",
            "ticks": 194880,
            "time": 253.75,
            "velocity": 0.13385826771653545
          },
          {
            "duration": 0.0625,
            "durationTicks": 48,
            "midi": 81,
            "name": "A5",
            "ticks": 194928,
            "time": 253.8125,
            "velocity": 0.13385826771653545
          },
          {
            "duration": 0.0625,
            "durationTicks": 48,
            "midi": 73,
            "name": "C#5",
            "ticks": 194928,
            "time": 253.8125,
            "velocity": 0.13385826771653545
          },
          {
            "duration": 0.0625,
            "durationTicks": 48,
            "midi": 78,
            "name": "F#5",
            "ticks": 194976,
            "time": 253.875,
            "velocity": 0.13385826771653545
          },
          {
            "duration": 0.0625,
            "durationTicks": 48,
            "midi": 71,
            "name": "B4",
            "ticks": 194976,
            "time": 253.875,
            "velocity": 0.13385826771653545
          },
          {
            "duration": 0.0625,
            "durationTicks": 48,
            "midi": 78,
            "name": "F#5",
            "ticks": 195024,
            "time": 253.9375,
            "velocity": 0.13385826771653545
          },
          {
            "duration": 0.0625,
            "durationTicks": 48,
            "midi": 71,
            "name": "B4",
            "ticks": 195024,
            "time": 253.9375,
            "velocity": 0.13385826771653545
          },
          {
            "duration": 0.0625,
            "durationTicks": 48,
            "midi": 78,
            "name": "F#5",
            "ticks": 195072,
            "time": 254,
            "velocity": 0.13385826771653545
          },
          {
            "duration": 0.0625,
            "durationTicks": 48,
            "midi": 71,
            "name": "B4",
            "ticks": 195072,
            "time": 254,
            "velocity": 0.13385826771653545
          },
          {
            "duration": 0.0625,
            "durationTicks": 48,
            "midi": 71,
            "name": "B4",
            "ticks": 195120,
            "time": 254.0625,
            "velocity": 0.13385826771653545
          },
          {
            "duration": 0.0625,
            "durationTicks": 48,
            "midi": 78,
            "name": "F#5",
            "ticks": 195120,
            "time": 254.0625,
            "velocity": 0.13385826771653545
          },
          {
            "duration": 0.0625,
            "durationTicks": 48,
            "midi": 71,
            "name": "B4",
            "ticks": 195168,
            "time": 254.125,
            "velocity": 0.13385826771653545
          },
          {
            "duration": 0.0625,
            "durationTicks": 48,
            "midi": 78,
            "name": "F#5",
            "ticks": 195168,
            "time": 254.125,
            "velocity": 0.13385826771653545
          },
          {
            "duration": 0.0625,
            "durationTicks": 48,
            "midi": 78,
            "name": "F#5",
            "ticks": 195216,
            "time": 254.1875,
            "velocity": 0.13385826771653545
          },
          {
            "duration": 0.0625,
            "durationTicks": 48,
            "midi": 71,
            "name": "B4",
            "ticks": 195216,
            "time": 254.1875,
            "velocity": 0.13385826771653545
          },
          {
            "duration": 0.0625,
            "durationTicks": 48,
            "midi": 78,
            "name": "F#5",
            "ticks": 195264,
            "time": 254.25,
            "velocity": 0.13385826771653545
          },
          {
            "duration": 0.0625,
            "durationTicks": 48,
            "midi": 71,
            "name": "B4",
            "ticks": 195264,
            "time": 254.25,
            "velocity": 0.13385826771653545
          },
          {
            "duration": 0.0625,
            "durationTicks": 48,
            "midi": 78,
            "name": "F#5",
            "ticks": 195312,
            "time": 254.3125,
            "velocity": 0.13385826771653545
          },
          {
            "duration": 0.0625,
            "durationTicks": 48,
            "midi": 71,
            "name": "B4",
            "ticks": 195312,
            "time": 254.3125,
            "velocity": 0.13385826771653545
          },
          {
            "duration": 0.0625,
            "durationTicks": 48,
            "midi": 78,
            "name": "F#5",
            "ticks": 195360,
            "time": 254.375,
            "velocity": 0.13385826771653545
          },
          {
            "duration": 0.0625,
            "durationTicks": 48,
            "midi": 71,
            "name": "B4",
            "ticks": 195360,
            "time": 254.375,
            "velocity": 0.13385826771653545
          },
          {
            "duration": 0.0625,
            "durationTicks": 48,
            "midi": 78,
            "name": "F#5",
            "ticks": 195408,
            "time": 254.4375,
            "velocity": 0.13385826771653545
          },
          {
            "duration": 0.0625,
            "durationTicks": 48,
            "midi": 71,
            "name": "B4",
            "ticks": 195408,
            "time": 254.4375,
            "velocity": 0.13385826771653545
          },
          {
            "duration": 0.0625,
            "durationTicks": 48,
            "midi": 71,
            "name": "B4",
            "ticks": 195456,
            "time": 254.5,
            "velocity": 0.13385826771653545
          },
          {
            "duration": 0.0625,
            "durationTicks": 48,
            "midi": 78,
            "name": "F#5",
            "ticks": 195456,
            "time": 254.5,
            "velocity": 0.13385826771653545
          },
          {
            "duration": 0.0625,
            "durationTicks": 48,
            "midi": 78,
            "name": "F#5",
            "ticks": 195504,
            "time": 254.5625,
            "velocity": 0.13385826771653545
          },
          {
            "duration": 0.0625,
            "durationTicks": 48,
            "midi": 71,
            "name": "B4",
            "ticks": 195504,
            "time": 254.5625,
            "velocity": 0.13385826771653545
          },
          {
            "duration": 0.0625,
            "durationTicks": 48,
            "midi": 78,
            "name": "F#5",
            "ticks": 195552,
            "time": 254.625,
            "velocity": 0.13385826771653545
          },
          {
            "duration": 0.0625,
            "durationTicks": 48,
            "midi": 71,
            "name": "B4",
            "ticks": 195552,
            "time": 254.625,
            "velocity": 0.13385826771653545
          },
          {
            "duration": 0.0625,
            "durationTicks": 48,
            "midi": 71,
            "name": "B4",
            "ticks": 195600,
            "time": 254.6875,
            "velocity": 0.13385826771653545
          },
          {
            "duration": 0.0625,
            "durationTicks": 48,
            "midi": 78,
            "name": "F#5",
            "ticks": 195600,
            "time": 254.6875,
            "velocity": 0.13385826771653545
          },
          {
            "duration": 0.0625,
            "durationTicks": 48,
            "midi": 71,
            "name": "B4",
            "ticks": 195648,
            "time": 254.75,
            "velocity": 0.13385826771653545
          },
          {
            "duration": 0.0625,
            "durationTicks": 48,
            "midi": 78,
            "name": "F#5",
            "ticks": 195648,
            "time": 254.75,
            "velocity": 0.13385826771653545
          },
          {
            "duration": 0.0625,
            "durationTicks": 48,
            "midi": 78,
            "name": "F#5",
            "ticks": 195696,
            "time": 254.8125,
            "velocity": 0.13385826771653545
          },
          {
            "duration": 0.0625,
            "durationTicks": 48,
            "midi": 71,
            "name": "B4",
            "ticks": 195696,
            "time": 254.8125,
            "velocity": 0.13385826771653545
          },
          {
            "duration": 0.0625,
            "durationTicks": 48,
            "midi": 78,
            "name": "F#5",
            "ticks": 195744,
            "time": 254.875,
            "velocity": 0.13385826771653545
          },
          {
            "duration": 0.0625,
            "durationTicks": 48,
            "midi": 71,
            "name": "B4",
            "ticks": 195744,
            "time": 254.875,
            "velocity": 0.13385826771653545
          },
          {
            "duration": 0.0625,
            "durationTicks": 48,
            "midi": 78,
            "name": "F#5",
            "ticks": 195792,
            "time": 254.9375,
            "velocity": 0.13385826771653545
          },
          {
            "duration": 0.0625,
            "durationTicks": 48,
            "midi": 71,
            "name": "B4",
            "ticks": 195792,
            "time": 254.9375,
            "velocity": 0.13385826771653545
          },
          {
            "duration": 0.0625,
            "durationTicks": 48,
            "midi": 71,
            "name": "B4",
            "ticks": 195840,
            "time": 255,
            "velocity": 0.13385826771653545
          },
          {
            "duration": 0.0625,
            "durationTicks": 48,
            "midi": 78,
            "name": "F#5",
            "ticks": 195840,
            "time": 255,
            "velocity": 0.13385826771653545
          },
          {
            "duration": 0.0625,
            "durationTicks": 48,
            "midi": 78,
            "name": "F#5",
            "ticks": 195888,
            "time": 255.0625,
            "velocity": 0.13385826771653545
          },
          {
            "duration": 0.0625,
            "durationTicks": 48,
            "midi": 71,
            "name": "B4",
            "ticks": 195888,
            "time": 255.0625,
            "velocity": 0.13385826771653545
          },
          {
            "duration": 0.0625,
            "durationTicks": 48,
            "midi": 71,
            "name": "B4",
            "ticks": 195936,
            "time": 255.125,
            "velocity": 0.13385826771653545
          },
          {
            "duration": 0.0625,
            "durationTicks": 48,
            "midi": 78,
            "name": "F#5",
            "ticks": 195936,
            "time": 255.125,
            "velocity": 0.13385826771653545
          },
          {
            "duration": 0.0625,
            "durationTicks": 48,
            "midi": 78,
            "name": "F#5",
            "ticks": 195984,
            "time": 255.1875,
            "velocity": 0.13385826771653545
          },
          {
            "duration": 0.0625,
            "durationTicks": 48,
            "midi": 71,
            "name": "B4",
            "ticks": 195984,
            "time": 255.1875,
            "velocity": 0.13385826771653545
          },
          {
            "duration": 0.0625,
            "durationTicks": 48,
            "midi": 71,
            "name": "B4",
            "ticks": 196032,
            "time": 255.25,
            "velocity": 0.13385826771653545
          },
          {
            "duration": 0.0625,
            "durationTicks": 48,
            "midi": 78,
            "name": "F#5",
            "ticks": 196032,
            "time": 255.25,
            "velocity": 0.13385826771653545
          },
          {
            "duration": 0.0625,
            "durationTicks": 48,
            "midi": 71,
            "name": "B4",
            "ticks": 196080,
            "time": 255.3125,
            "velocity": 0.13385826771653545
          },
          {
            "duration": 0.0625,
            "durationTicks": 48,
            "midi": 78,
            "name": "F#5",
            "ticks": 196080,
            "time": 255.3125,
            "velocity": 0.13385826771653545
          },
          {
            "duration": 0.0625,
            "durationTicks": 48,
            "midi": 78,
            "name": "F#5",
            "ticks": 196128,
            "time": 255.375,
            "velocity": 0.13385826771653545
          },
          {
            "duration": 0.0625,
            "durationTicks": 48,
            "midi": 71,
            "name": "B4",
            "ticks": 196128,
            "time": 255.375,
            "velocity": 0.13385826771653545
          },
          {
            "duration": 0.0625,
            "durationTicks": 48,
            "midi": 71,
            "name": "B4",
            "ticks": 196176,
            "time": 255.4375,
            "velocity": 0.13385826771653545
          },
          {
            "duration": 0.0625,
            "durationTicks": 48,
            "midi": 78,
            "name": "F#5",
            "ticks": 196176,
            "time": 255.4375,
            "velocity": 0.13385826771653545
          },
          {
            "duration": 0.0625,
            "durationTicks": 48,
            "midi": 78,
            "name": "F#5",
            "ticks": 196224,
            "time": 255.5,
            "velocity": 0.13385826771653545
          },
          {
            "duration": 0.0625,
            "durationTicks": 48,
            "midi": 71,
            "name": "B4",
            "ticks": 196224,
            "time": 255.5,
            "velocity": 0.13385826771653545
          },
          {
            "duration": 0.0625,
            "durationTicks": 48,
            "midi": 78,
            "name": "F#5",
            "ticks": 196272,
            "time": 255.5625,
            "velocity": 0.13385826771653545
          },
          {
            "duration": 0.0625,
            "durationTicks": 48,
            "midi": 71,
            "name": "B4",
            "ticks": 196272,
            "time": 255.5625,
            "velocity": 0.13385826771653545
          },
          {
            "duration": 0.0625,
            "durationTicks": 48,
            "midi": 71,
            "name": "B4",
            "ticks": 196320,
            "time": 255.625,
            "velocity": 0.13385826771653545
          },
          {
            "duration": 0.0625,
            "durationTicks": 48,
            "midi": 78,
            "name": "F#5",
            "ticks": 196320,
            "time": 255.625,
            "velocity": 0.13385826771653545
          },
          {
            "duration": 0.0625,
            "durationTicks": 48,
            "midi": 78,
            "name": "F#5",
            "ticks": 196368,
            "time": 255.6875,
            "velocity": 0.13385826771653545
          },
          {
            "duration": 0.0625,
            "durationTicks": 48,
            "midi": 71,
            "name": "B4",
            "ticks": 196368,
            "time": 255.6875,
            "velocity": 0.13385826771653545
          },
          {
            "duration": 0.0625,
            "durationTicks": 48,
            "midi": 78,
            "name": "F#5",
            "ticks": 196416,
            "time": 255.75,
            "velocity": 0.13385826771653545
          },
          {
            "duration": 0.0625,
            "durationTicks": 48,
            "midi": 71,
            "name": "B4",
            "ticks": 196416,
            "time": 255.75,
            "velocity": 0.13385826771653545
          },
          {
            "duration": 0.0625,
            "durationTicks": 48,
            "midi": 71,
            "name": "B4",
            "ticks": 196464,
            "time": 255.8125,
            "velocity": 0.13385826771653545
          },
          {
            "duration": 0.0625,
            "durationTicks": 48,
            "midi": 78,
            "name": "F#5",
            "ticks": 196464,
            "time": 255.8125,
            "velocity": 0.13385826771653545
          },
          {
            "duration": 0.0625,
            "durationTicks": 48,
            "midi": 78,
            "name": "F#5",
            "ticks": 196512,
            "time": 255.875,
            "velocity": 0.13385826771653545
          },
          {
            "duration": 0.0625,
            "durationTicks": 48,
            "midi": 70,
            "name": "A#4",
            "ticks": 196512,
            "time": 255.875,
            "velocity": 0.13385826771653545
          },
          {
            "duration": 0.0625,
            "durationTicks": 48,
            "midi": 70,
            "name": "A#4",
            "ticks": 196560,
            "time": 255.9375,
            "velocity": 0.13385826771653545
          },
          {
            "duration": 0.0625,
            "durationTicks": 48,
            "midi": 78,
            "name": "F#5",
            "ticks": 196560,
            "time": 255.9375,
            "velocity": 0.13385826771653545
          },
          {
            "duration": 0.0625,
            "durationTicks": 48,
            "midi": 78,
            "name": "F#5",
            "ticks": 196608,
            "time": 256,
            "velocity": 0.13385826771653545
          },
          {
            "duration": 0.0625,
            "durationTicks": 48,
            "midi": 70,
            "name": "A#4",
            "ticks": 196608,
            "time": 256,
            "velocity": 0.13385826771653545
          },
          {
            "duration": 0.0625,
            "durationTicks": 48,
            "midi": 78,
            "name": "F#5",
            "ticks": 196656,
            "time": 256.0625,
            "velocity": 0.13385826771653545
          },
          {
            "duration": 0.0625,
            "durationTicks": 48,
            "midi": 70,
            "name": "A#4",
            "ticks": 196656,
            "time": 256.0625,
            "velocity": 0.13385826771653545
          },
          {
            "duration": 0.0625,
            "durationTicks": 48,
            "midi": 70,
            "name": "A#4",
            "ticks": 196704,
            "time": 256.125,
            "velocity": 0.13385826771653545
          },
          {
            "duration": 0.0625,
            "durationTicks": 48,
            "midi": 78,
            "name": "F#5",
            "ticks": 196704,
            "time": 256.125,
            "velocity": 0.13385826771653545
          },
          {
            "duration": 0.0625,
            "durationTicks": 48,
            "midi": 70,
            "name": "A#4",
            "ticks": 196752,
            "time": 256.1875,
            "velocity": 0.13385826771653545
          },
          {
            "duration": 0.0625,
            "durationTicks": 48,
            "midi": 78,
            "name": "F#5",
            "ticks": 196752,
            "time": 256.1875,
            "velocity": 0.13385826771653545
          },
          {
            "duration": 0.0625,
            "durationTicks": 48,
            "midi": 78,
            "name": "F#5",
            "ticks": 196800,
            "time": 256.25,
            "velocity": 0.13385826771653545
          },
          {
            "duration": 0.0625,
            "durationTicks": 48,
            "midi": 70,
            "name": "A#4",
            "ticks": 196800,
            "time": 256.25,
            "velocity": 0.13385826771653545
          },
          {
            "duration": 0.0625,
            "durationTicks": 48,
            "midi": 78,
            "name": "F#5",
            "ticks": 196848,
            "time": 256.3125,
            "velocity": 0.13385826771653545
          },
          {
            "duration": 0.0625,
            "durationTicks": 48,
            "midi": 70,
            "name": "A#4",
            "ticks": 196848,
            "time": 256.3125,
            "velocity": 0.13385826771653545
          },
          {
            "duration": 0.0625,
            "durationTicks": 48,
            "midi": 78,
            "name": "F#5",
            "ticks": 196896,
            "time": 256.375,
            "velocity": 0.13385826771653545
          },
          {
            "duration": 0.0625,
            "durationTicks": 48,
            "midi": 70,
            "name": "A#4",
            "ticks": 196896,
            "time": 256.375,
            "velocity": 0.13385826771653545
          },
          {
            "duration": 0.0625,
            "durationTicks": 48,
            "midi": 70,
            "name": "A#4",
            "ticks": 196944,
            "time": 256.4375,
            "velocity": 0.13385826771653545
          },
          {
            "duration": 0.0625,
            "durationTicks": 48,
            "midi": 78,
            "name": "F#5",
            "ticks": 196944,
            "time": 256.4375,
            "velocity": 0.13385826771653545
          },
          {
            "duration": 0.0625,
            "durationTicks": 48,
            "midi": 78,
            "name": "F#5",
            "ticks": 196992,
            "time": 256.5,
            "velocity": 0.13385826771653545
          },
          {
            "duration": 0.0625,
            "durationTicks": 48,
            "midi": 70,
            "name": "A#4",
            "ticks": 196992,
            "time": 256.5,
            "velocity": 0.13385826771653545
          },
          {
            "duration": 0.0625,
            "durationTicks": 48,
            "midi": 70,
            "name": "A#4",
            "ticks": 197040,
            "time": 256.5625,
            "velocity": 0.13385826771653545
          },
          {
            "duration": 0.0625,
            "durationTicks": 48,
            "midi": 78,
            "name": "F#5",
            "ticks": 197040,
            "time": 256.5625,
            "velocity": 0.13385826771653545
          },
          {
            "duration": 0.0625,
            "durationTicks": 48,
            "midi": 70,
            "name": "A#4",
            "ticks": 197088,
            "time": 256.625,
            "velocity": 0.13385826771653545
          },
          {
            "duration": 0.0625,
            "durationTicks": 48,
            "midi": 78,
            "name": "F#5",
            "ticks": 197088,
            "time": 256.625,
            "velocity": 0.13385826771653545
          },
          {
            "duration": 0.0625,
            "durationTicks": 48,
            "midi": 78,
            "name": "F#5",
            "ticks": 197136,
            "time": 256.6875,
            "velocity": 0.13385826771653545
          },
          {
            "duration": 0.0625,
            "durationTicks": 48,
            "midi": 70,
            "name": "A#4",
            "ticks": 197136,
            "time": 256.6875,
            "velocity": 0.13385826771653545
          },
          {
            "duration": 0.0625,
            "durationTicks": 48,
            "midi": 78,
            "name": "F#5",
            "ticks": 197184,
            "time": 256.75,
            "velocity": 0.13385826771653545
          },
          {
            "duration": 0.0625,
            "durationTicks": 48,
            "midi": 70,
            "name": "A#4",
            "ticks": 197184,
            "time": 256.75,
            "velocity": 0.13385826771653545
          },
          {
            "duration": 0.0625,
            "durationTicks": 48,
            "midi": 70,
            "name": "A#4",
            "ticks": 197232,
            "time": 256.8125,
            "velocity": 0.13385826771653545
          },
          {
            "duration": 0.0625,
            "durationTicks": 48,
            "midi": 78,
            "name": "F#5",
            "ticks": 197232,
            "time": 256.8125,
            "velocity": 0.13385826771653545
          },
          {
            "duration": 0.0625,
            "durationTicks": 48,
            "midi": 70,
            "name": "A#4",
            "ticks": 197280,
            "time": 256.875,
            "velocity": 0.13385826771653545
          },
          {
            "duration": 0.0625,
            "durationTicks": 48,
            "midi": 78,
            "name": "F#5",
            "ticks": 197280,
            "time": 256.875,
            "velocity": 0.13385826771653545
          },
          {
            "duration": 0.0625,
            "durationTicks": 48,
            "midi": 78,
            "name": "F#5",
            "ticks": 197328,
            "time": 256.9375,
            "velocity": 0.13385826771653545
          },
          {
            "duration": 0.0625,
            "durationTicks": 48,
            "midi": 70,
            "name": "A#4",
            "ticks": 197328,
            "time": 256.9375,
            "velocity": 0.13385826771653545
          },
          {
            "duration": 0.0625,
            "durationTicks": 48,
            "midi": 70,
            "name": "A#4",
            "ticks": 197376,
            "time": 257,
            "velocity": 0.13385826771653545
          },
          {
            "duration": 0.0625,
            "durationTicks": 48,
            "midi": 78,
            "name": "F#5",
            "ticks": 197376,
            "time": 257,
            "velocity": 0.13385826771653545
          },
          {
            "duration": 0.0625,
            "durationTicks": 48,
            "midi": 70,
            "name": "A#4",
            "ticks": 197424,
            "time": 257.0625,
            "velocity": 0.13385826771653545
          },
          {
            "duration": 0.0625,
            "durationTicks": 48,
            "midi": 78,
            "name": "F#5",
            "ticks": 197424,
            "time": 257.0625,
            "velocity": 0.13385826771653545
          },
          {
            "duration": 0.0625,
            "durationTicks": 48,
            "midi": 70,
            "name": "A#4",
            "ticks": 197472,
            "time": 257.125,
            "velocity": 0.13385826771653545
          },
          {
            "duration": 0.0625,
            "durationTicks": 48,
            "midi": 78,
            "name": "F#5",
            "ticks": 197472,
            "time": 257.125,
            "velocity": 0.13385826771653545
          },
          {
            "duration": 0.0625,
            "durationTicks": 48,
            "midi": 78,
            "name": "F#5",
            "ticks": 197520,
            "time": 257.1875,
            "velocity": 0.13385826771653545
          },
          {
            "duration": 0.0625,
            "durationTicks": 48,
            "midi": 70,
            "name": "A#4",
            "ticks": 197520,
            "time": 257.1875,
            "velocity": 0.13385826771653545
          },
          {
            "duration": 0.0625,
            "durationTicks": 48,
            "midi": 78,
            "name": "F#5",
            "ticks": 197568,
            "time": 257.25,
            "velocity": 0.13385826771653545
          },
          {
            "duration": 0.0625,
            "durationTicks": 48,
            "midi": 70,
            "name": "A#4",
            "ticks": 197568,
            "time": 257.25,
            "velocity": 0.13385826771653545
          },
          {
            "duration": 0.0625,
            "durationTicks": 48,
            "midi": 78,
            "name": "F#5",
            "ticks": 197616,
            "time": 257.3125,
            "velocity": 0.13385826771653545
          },
          {
            "duration": 0.0625,
            "durationTicks": 48,
            "midi": 70,
            "name": "A#4",
            "ticks": 197616,
            "time": 257.3125,
            "velocity": 0.13385826771653545
          },
          {
            "duration": 0.0625,
            "durationTicks": 48,
            "midi": 70,
            "name": "A#4",
            "ticks": 197664,
            "time": 257.375,
            "velocity": 0.13385826771653545
          },
          {
            "duration": 0.0625,
            "durationTicks": 48,
            "midi": 78,
            "name": "F#5",
            "ticks": 197664,
            "time": 257.375,
            "velocity": 0.13385826771653545
          },
          {
            "duration": 0.0625,
            "durationTicks": 48,
            "midi": 78,
            "name": "F#5",
            "ticks": 197712,
            "time": 257.4375,
            "velocity": 0.13385826771653545
          },
          {
            "duration": 0.0625,
            "durationTicks": 48,
            "midi": 70,
            "name": "A#4",
            "ticks": 197712,
            "time": 257.4375,
            "velocity": 0.13385826771653545
          },
          {
            "duration": 0.0625,
            "durationTicks": 48,
            "midi": 78,
            "name": "F#5",
            "ticks": 197760,
            "time": 257.5,
            "velocity": 0.13385826771653545
          },
          {
            "duration": 0.0625,
            "durationTicks": 48,
            "midi": 70,
            "name": "A#4",
            "ticks": 197760,
            "time": 257.5,
            "velocity": 0.13385826771653545
          },
          {
            "duration": 0.0625,
            "durationTicks": 48,
            "midi": 78,
            "name": "F#5",
            "ticks": 197808,
            "time": 257.5625,
            "velocity": 0.13385826771653545
          },
          {
            "duration": 0.0625,
            "durationTicks": 48,
            "midi": 70,
            "name": "A#4",
            "ticks": 197808,
            "time": 257.5625,
            "velocity": 0.13385826771653545
          },
          {
            "duration": 0.0625,
            "durationTicks": 48,
            "midi": 78,
            "name": "F#5",
            "ticks": 197856,
            "time": 257.625,
            "velocity": 0.13385826771653545
          },
          {
            "duration": 0.0625,
            "durationTicks": 48,
            "midi": 70,
            "name": "A#4",
            "ticks": 197856,
            "time": 257.625,
            "velocity": 0.13385826771653545
          },
          {
            "duration": 0.0625,
            "durationTicks": 48,
            "midi": 70,
            "name": "A#4",
            "ticks": 197904,
            "time": 257.6875,
            "velocity": 0.13385826771653545
          },
          {
            "duration": 0.0625,
            "durationTicks": 48,
            "midi": 78,
            "name": "F#5",
            "ticks": 197904,
            "time": 257.6875,
            "velocity": 0.13385826771653545
          },
          {
            "duration": 0.0625,
            "durationTicks": 48,
            "midi": 78,
            "name": "F#5",
            "ticks": 197952,
            "time": 257.75,
            "velocity": 0.13385826771653545
          },
          {
            "duration": 0.0625,
            "durationTicks": 48,
            "midi": 70,
            "name": "A#4",
            "ticks": 197952,
            "time": 257.75,
            "velocity": 0.13385826771653545
          },
          {
            "duration": 0.0625,
            "durationTicks": 48,
            "midi": 70,
            "name": "A#4",
            "ticks": 198000,
            "time": 257.8125,
            "velocity": 0.13385826771653545
          },
          {
            "duration": 0.0625,
            "durationTicks": 48,
            "midi": 78,
            "name": "F#5",
            "ticks": 198000,
            "time": 257.8125,
            "velocity": 0.13385826771653545
          },
          {
            "duration": 0.0625,
            "durationTicks": 48,
            "midi": 73,
            "name": "C#5",
            "ticks": 198048,
            "time": 257.875,
            "velocity": 0.13385826771653545
          },
          {
            "duration": 0.0625,
            "durationTicks": 48,
            "midi": 80,
            "name": "G#5",
            "ticks": 198048,
            "time": 257.875,
            "velocity": 0.13385826771653545
          },
          {
            "duration": 0.0625,
            "durationTicks": 48,
            "midi": 76,
            "name": "E5",
            "ticks": 198048,
            "time": 257.875,
            "velocity": 0.13385826771653545
          },
          {
            "duration": 0.0625,
            "durationTicks": 48,
            "midi": 76,
            "name": "E5",
            "ticks": 198096,
            "time": 257.9375,
            "velocity": 0.13385826771653545
          },
          {
            "duration": 0.0625,
            "durationTicks": 48,
            "midi": 80,
            "name": "G#5",
            "ticks": 198096,
            "time": 257.9375,
            "velocity": 0.13385826771653545
          },
          {
            "duration": 0.0625,
            "durationTicks": 48,
            "midi": 73,
            "name": "C#5",
            "ticks": 198096,
            "time": 257.9375,
            "velocity": 0.13385826771653545
          },
          {
            "duration": 0.0625,
            "durationTicks": 48,
            "midi": 73,
            "name": "C#5",
            "ticks": 198144,
            "time": 258,
            "velocity": 0.13385826771653545
          },
          {
            "duration": 0.0625,
            "durationTicks": 48,
            "midi": 80,
            "name": "G#5",
            "ticks": 198144,
            "time": 258,
            "velocity": 0.13385826771653545
          },
          {
            "duration": 0.0625,
            "durationTicks": 48,
            "midi": 76,
            "name": "E5",
            "ticks": 198144,
            "time": 258,
            "velocity": 0.13385826771653545
          },
          {
            "duration": 0.0625,
            "durationTicks": 48,
            "midi": 73,
            "name": "C#5",
            "ticks": 198192,
            "time": 258.0625,
            "velocity": 0.13385826771653545
          },
          {
            "duration": 0.0625,
            "durationTicks": 48,
            "midi": 76,
            "name": "E5",
            "ticks": 198192,
            "time": 258.0625,
            "velocity": 0.13385826771653545
          },
          {
            "duration": 0.0625,
            "durationTicks": 48,
            "midi": 80,
            "name": "G#5",
            "ticks": 198192,
            "time": 258.0625,
            "velocity": 0.13385826771653545
          },
          {
            "duration": 0.0625,
            "durationTicks": 48,
            "midi": 73,
            "name": "C#5",
            "ticks": 198240,
            "time": 258.125,
            "velocity": 0.13385826771653545
          },
          {
            "duration": 0.0625,
            "durationTicks": 48,
            "midi": 80,
            "name": "G#5",
            "ticks": 198240,
            "time": 258.125,
            "velocity": 0.13385826771653545
          },
          {
            "duration": 0.0625,
            "durationTicks": 48,
            "midi": 76,
            "name": "E5",
            "ticks": 198240,
            "time": 258.125,
            "velocity": 0.13385826771653545
          },
          {
            "duration": 0.0625,
            "durationTicks": 48,
            "midi": 80,
            "name": "G#5",
            "ticks": 198288,
            "time": 258.1875,
            "velocity": 0.13385826771653545
          },
          {
            "duration": 0.0625,
            "durationTicks": 48,
            "midi": 76,
            "name": "E5",
            "ticks": 198288,
            "time": 258.1875,
            "velocity": 0.13385826771653545
          },
          {
            "duration": 0.0625,
            "durationTicks": 48,
            "midi": 73,
            "name": "C#5",
            "ticks": 198288,
            "time": 258.1875,
            "velocity": 0.13385826771653545
          },
          {
            "duration": 0.0625,
            "durationTicks": 48,
            "midi": 76,
            "name": "E5",
            "ticks": 198336,
            "time": 258.25,
            "velocity": 0.13385826771653545
          },
          {
            "duration": 0.0625,
            "durationTicks": 48,
            "midi": 73,
            "name": "C#5",
            "ticks": 198336,
            "time": 258.25,
            "velocity": 0.13385826771653545
          },
          {
            "duration": 0.0625,
            "durationTicks": 48,
            "midi": 80,
            "name": "G#5",
            "ticks": 198336,
            "time": 258.25,
            "velocity": 0.13385826771653545
          },
          {
            "duration": 0.0625,
            "durationTicks": 48,
            "midi": 76,
            "name": "E5",
            "ticks": 198384,
            "time": 258.3125,
            "velocity": 0.13385826771653545
          },
          {
            "duration": 0.0625,
            "durationTicks": 48,
            "midi": 80,
            "name": "G#5",
            "ticks": 198384,
            "time": 258.3125,
            "velocity": 0.13385826771653545
          },
          {
            "duration": 0.0625,
            "durationTicks": 48,
            "midi": 73,
            "name": "C#5",
            "ticks": 198384,
            "time": 258.3125,
            "velocity": 0.13385826771653545
          },
          {
            "duration": 0.0625,
            "durationTicks": 48,
            "midi": 80,
            "name": "G#5",
            "ticks": 198432,
            "time": 258.375,
            "velocity": 0.13385826771653545
          },
          {
            "duration": 0.0625,
            "durationTicks": 48,
            "midi": 73,
            "name": "C#5",
            "ticks": 198432,
            "time": 258.375,
            "velocity": 0.13385826771653545
          },
          {
            "duration": 0.0625,
            "durationTicks": 48,
            "midi": 76,
            "name": "E5",
            "ticks": 198432,
            "time": 258.375,
            "velocity": 0.13385826771653545
          },
          {
            "duration": 0.0625,
            "durationTicks": 48,
            "midi": 80,
            "name": "G#5",
            "ticks": 198480,
            "time": 258.4375,
            "velocity": 0.13385826771653545
          },
          {
            "duration": 0.0625,
            "durationTicks": 48,
            "midi": 76,
            "name": "E5",
            "ticks": 198480,
            "time": 258.4375,
            "velocity": 0.13385826771653545
          },
          {
            "duration": 0.0625,
            "durationTicks": 48,
            "midi": 73,
            "name": "C#5",
            "ticks": 198480,
            "time": 258.4375,
            "velocity": 0.13385826771653545
          },
          {
            "duration": 0.0625,
            "durationTicks": 48,
            "midi": 80,
            "name": "G#5",
            "ticks": 198528,
            "time": 258.5,
            "velocity": 0.13385826771653545
          },
          {
            "duration": 0.0625,
            "durationTicks": 48,
            "midi": 73,
            "name": "C#5",
            "ticks": 198528,
            "time": 258.5,
            "velocity": 0.13385826771653545
          },
          {
            "duration": 0.0625,
            "durationTicks": 48,
            "midi": 76,
            "name": "E5",
            "ticks": 198528,
            "time": 258.5,
            "velocity": 0.13385826771653545
          },
          {
            "duration": 0.0625,
            "durationTicks": 48,
            "midi": 73,
            "name": "C#5",
            "ticks": 198576,
            "time": 258.5625,
            "velocity": 0.13385826771653545
          },
          {
            "duration": 0.0625,
            "durationTicks": 48,
            "midi": 76,
            "name": "E5",
            "ticks": 198576,
            "time": 258.5625,
            "velocity": 0.13385826771653545
          },
          {
            "duration": 0.0625,
            "durationTicks": 48,
            "midi": 80,
            "name": "G#5",
            "ticks": 198576,
            "time": 258.5625,
            "velocity": 0.13385826771653545
          },
          {
            "duration": 0.0625,
            "durationTicks": 48,
            "midi": 76,
            "name": "E5",
            "ticks": 198624,
            "time": 258.625,
            "velocity": 0.13385826771653545
          },
          {
            "duration": 0.0625,
            "durationTicks": 48,
            "midi": 80,
            "name": "G#5",
            "ticks": 198624,
            "time": 258.625,
            "velocity": 0.13385826771653545
          },
          {
            "duration": 0.0625,
            "durationTicks": 48,
            "midi": 73,
            "name": "C#5",
            "ticks": 198624,
            "time": 258.625,
            "velocity": 0.13385826771653545
          },
          {
            "duration": 0.0625,
            "durationTicks": 48,
            "midi": 73,
            "name": "C#5",
            "ticks": 198672,
            "time": 258.6875,
            "velocity": 0.13385826771653545
          },
          {
            "duration": 0.0625,
            "durationTicks": 48,
            "midi": 80,
            "name": "G#5",
            "ticks": 198672,
            "time": 258.6875,
            "velocity": 0.13385826771653545
          },
          {
            "duration": 0.0625,
            "durationTicks": 48,
            "midi": 76,
            "name": "E5",
            "ticks": 198672,
            "time": 258.6875,
            "velocity": 0.13385826771653545
          },
          {
            "duration": 0.0625,
            "durationTicks": 48,
            "midi": 76,
            "name": "E5",
            "ticks": 198720,
            "time": 258.75,
            "velocity": 0.13385826771653545
          },
          {
            "duration": 0.0625,
            "durationTicks": 48,
            "midi": 73,
            "name": "C#5",
            "ticks": 198720,
            "time": 258.75,
            "velocity": 0.13385826771653545
          },
          {
            "duration": 0.0625,
            "durationTicks": 48,
            "midi": 80,
            "name": "G#5",
            "ticks": 198720,
            "time": 258.75,
            "velocity": 0.13385826771653545
          },
          {
            "duration": 0.0625,
            "durationTicks": 48,
            "midi": 80,
            "name": "G#5",
            "ticks": 198768,
            "time": 258.8125,
            "velocity": 0.13385826771653545
          },
          {
            "duration": 0.0625,
            "durationTicks": 48,
            "midi": 73,
            "name": "C#5",
            "ticks": 198768,
            "time": 258.8125,
            "velocity": 0.13385826771653545
          },
          {
            "duration": 0.0625,
            "durationTicks": 48,
            "midi": 76,
            "name": "E5",
            "ticks": 198768,
            "time": 258.8125,
            "velocity": 0.13385826771653545
          },
          {
            "duration": 0.0625,
            "durationTicks": 48,
            "midi": 80,
            "name": "G#5",
            "ticks": 198816,
            "time": 258.875,
            "velocity": 0.13385826771653545
          },
          {
            "duration": 0.0625,
            "durationTicks": 48,
            "midi": 76,
            "name": "E5",
            "ticks": 198816,
            "time": 258.875,
            "velocity": 0.13385826771653545
          },
          {
            "duration": 0.0625,
            "durationTicks": 48,
            "midi": 73,
            "name": "C#5",
            "ticks": 198816,
            "time": 258.875,
            "velocity": 0.13385826771653545
          },
          {
            "duration": 0.0625,
            "durationTicks": 48,
            "midi": 73,
            "name": "C#5",
            "ticks": 198864,
            "time": 258.9375,
            "velocity": 0.13385826771653545
          },
          {
            "duration": 0.0625,
            "durationTicks": 48,
            "midi": 76,
            "name": "E5",
            "ticks": 198864,
            "time": 258.9375,
            "velocity": 0.13385826771653545
          },
          {
            "duration": 0.0625,
            "durationTicks": 48,
            "midi": 80,
            "name": "G#5",
            "ticks": 198864,
            "time": 258.9375,
            "velocity": 0.13385826771653545
          },
          {
            "duration": 0.0625,
            "durationTicks": 48,
            "midi": 80,
            "name": "G#5",
            "ticks": 198912,
            "time": 259,
            "velocity": 0.13385826771653545
          },
          {
            "duration": 0.0625,
            "durationTicks": 48,
            "midi": 73,
            "name": "C#5",
            "ticks": 198912,
            "time": 259,
            "velocity": 0.13385826771653545
          },
          {
            "duration": 0.0625,
            "durationTicks": 48,
            "midi": 76,
            "name": "E5",
            "ticks": 198912,
            "time": 259,
            "velocity": 0.13385826771653545
          },
          {
            "duration": 0.0625,
            "durationTicks": 48,
            "midi": 76,
            "name": "E5",
            "ticks": 198960,
            "time": 259.0625,
            "velocity": 0.13385826771653545
          },
          {
            "duration": 0.0625,
            "durationTicks": 48,
            "midi": 80,
            "name": "G#5",
            "ticks": 198960,
            "time": 259.0625,
            "velocity": 0.13385826771653545
          },
          {
            "duration": 0.0625,
            "durationTicks": 48,
            "midi": 73,
            "name": "C#5",
            "ticks": 198960,
            "time": 259.0625,
            "velocity": 0.13385826771653545
          },
          {
            "duration": 0.0625,
            "durationTicks": 48,
            "midi": 80,
            "name": "G#5",
            "ticks": 199008,
            "time": 259.125,
            "velocity": 0.13385826771653545
          },
          {
            "duration": 0.0625,
            "durationTicks": 48,
            "midi": 76,
            "name": "E5",
            "ticks": 199008,
            "time": 259.125,
            "velocity": 0.13385826771653545
          },
          {
            "duration": 0.0625,
            "durationTicks": 48,
            "midi": 73,
            "name": "C#5",
            "ticks": 199008,
            "time": 259.125,
            "velocity": 0.13385826771653545
          },
          {
            "duration": 0.0625,
            "durationTicks": 48,
            "midi": 73,
            "name": "C#5",
            "ticks": 199056,
            "time": 259.1875,
            "velocity": 0.13385826771653545
          },
          {
            "duration": 0.0625,
            "durationTicks": 48,
            "midi": 80,
            "name": "G#5",
            "ticks": 199056,
            "time": 259.1875,
            "velocity": 0.13385826771653545
          },
          {
            "duration": 0.0625,
            "durationTicks": 48,
            "midi": 76,
            "name": "E5",
            "ticks": 199056,
            "time": 259.1875,
            "velocity": 0.13385826771653545
          },
          {
            "duration": 0.0625,
            "durationTicks": 48,
            "midi": 73,
            "name": "C#5",
            "ticks": 199104,
            "time": 259.25,
            "velocity": 0.13385826771653545
          },
          {
            "duration": 0.0625,
            "durationTicks": 48,
            "midi": 80,
            "name": "G#5",
            "ticks": 199104,
            "time": 259.25,
            "velocity": 0.13385826771653545
          },
          {
            "duration": 0.0625,
            "durationTicks": 48,
            "midi": 76,
            "name": "E5",
            "ticks": 199104,
            "time": 259.25,
            "velocity": 0.13385826771653545
          },
          {
            "duration": 0.0625,
            "durationTicks": 48,
            "midi": 76,
            "name": "E5",
            "ticks": 199152,
            "time": 259.3125,
            "velocity": 0.13385826771653545
          },
          {
            "duration": 0.0625,
            "durationTicks": 48,
            "midi": 80,
            "name": "G#5",
            "ticks": 199152,
            "time": 259.3125,
            "velocity": 0.13385826771653545
          },
          {
            "duration": 0.0625,
            "durationTicks": 48,
            "midi": 73,
            "name": "C#5",
            "ticks": 199152,
            "time": 259.3125,
            "velocity": 0.13385826771653545
          },
          {
            "duration": 0.0625,
            "durationTicks": 48,
            "midi": 73,
            "name": "C#5",
            "ticks": 199200,
            "time": 259.375,
            "velocity": 0.13385826771653545
          },
          {
            "duration": 0.0625,
            "durationTicks": 48,
            "midi": 76,
            "name": "E5",
            "ticks": 199200,
            "time": 259.375,
            "velocity": 0.13385826771653545
          },
          {
            "duration": 0.0625,
            "durationTicks": 48,
            "midi": 80,
            "name": "G#5",
            "ticks": 199200,
            "time": 259.375,
            "velocity": 0.13385826771653545
          },
          {
            "duration": 0.0625,
            "durationTicks": 48,
            "midi": 76,
            "name": "E5",
            "ticks": 199248,
            "time": 259.4375,
            "velocity": 0.13385826771653545
          },
          {
            "duration": 0.0625,
            "durationTicks": 48,
            "midi": 73,
            "name": "C#5",
            "ticks": 199248,
            "time": 259.4375,
            "velocity": 0.13385826771653545
          },
          {
            "duration": 0.0625,
            "durationTicks": 48,
            "midi": 80,
            "name": "G#5",
            "ticks": 199248,
            "time": 259.4375,
            "velocity": 0.13385826771653545
          },
          {
            "duration": 0.0625,
            "durationTicks": 48,
            "midi": 76,
            "name": "E5",
            "ticks": 199296,
            "time": 259.5,
            "velocity": 0.13385826771653545
          },
          {
            "duration": 0.0625,
            "durationTicks": 48,
            "midi": 80,
            "name": "G#5",
            "ticks": 199296,
            "time": 259.5,
            "velocity": 0.13385826771653545
          },
          {
            "duration": 0.0625,
            "durationTicks": 48,
            "midi": 73,
            "name": "C#5",
            "ticks": 199296,
            "time": 259.5,
            "velocity": 0.13385826771653545
          },
          {
            "duration": 0.0625,
            "durationTicks": 48,
            "midi": 76,
            "name": "E5",
            "ticks": 199344,
            "time": 259.5625,
            "velocity": 0.13385826771653545
          },
          {
            "duration": 0.0625,
            "durationTicks": 48,
            "midi": 80,
            "name": "G#5",
            "ticks": 199344,
            "time": 259.5625,
            "velocity": 0.13385826771653545
          },
          {
            "duration": 0.0625,
            "durationTicks": 48,
            "midi": 73,
            "name": "C#5",
            "ticks": 199344,
            "time": 259.5625,
            "velocity": 0.13385826771653545
          },
          {
            "duration": 0.0625,
            "durationTicks": 48,
            "midi": 76,
            "name": "E5",
            "ticks": 199392,
            "time": 259.625,
            "velocity": 0.13385826771653545
          },
          {
            "duration": 0.0625,
            "durationTicks": 48,
            "midi": 73,
            "name": "C#5",
            "ticks": 199392,
            "time": 259.625,
            "velocity": 0.13385826771653545
          },
          {
            "duration": 0.0625,
            "durationTicks": 48,
            "midi": 80,
            "name": "G#5",
            "ticks": 199392,
            "time": 259.625,
            "velocity": 0.13385826771653545
          },
          {
            "duration": 0.0625,
            "durationTicks": 48,
            "midi": 73,
            "name": "C#5",
            "ticks": 199440,
            "time": 259.6875,
            "velocity": 0.13385826771653545
          },
          {
            "duration": 0.0625,
            "durationTicks": 48,
            "midi": 76,
            "name": "E5",
            "ticks": 199440,
            "time": 259.6875,
            "velocity": 0.13385826771653545
          },
          {
            "duration": 0.0625,
            "durationTicks": 48,
            "midi": 80,
            "name": "G#5",
            "ticks": 199440,
            "time": 259.6875,
            "velocity": 0.13385826771653545
          },
          {
            "duration": 0.0625,
            "durationTicks": 48,
            "midi": 73,
            "name": "C#5",
            "ticks": 199488,
            "time": 259.75,
            "velocity": 0.13385826771653545
          },
          {
            "duration": 0.0625,
            "durationTicks": 48,
            "midi": 80,
            "name": "G#5",
            "ticks": 199488,
            "time": 259.75,
            "velocity": 0.13385826771653545
          },
          {
            "duration": 0.0625,
            "durationTicks": 48,
            "midi": 76,
            "name": "E5",
            "ticks": 199488,
            "time": 259.75,
            "velocity": 0.13385826771653545
          },
          {
            "duration": 0.0625,
            "durationTicks": 48,
            "midi": 80,
            "name": "G#5",
            "ticks": 199536,
            "time": 259.8125,
            "velocity": 0.13385826771653545
          },
          {
            "duration": 0.0625,
            "durationTicks": 48,
            "midi": 73,
            "name": "C#5",
            "ticks": 199536,
            "time": 259.8125,
            "velocity": 0.13385826771653545
          },
          {
            "duration": 0.0625,
            "durationTicks": 48,
            "midi": 76,
            "name": "E5",
            "ticks": 199536,
            "time": 259.8125,
            "velocity": 0.13385826771653545
          },
          {
            "duration": 0.0625,
            "durationTicks": 48,
            "midi": 76,
            "name": "E5",
            "ticks": 199584,
            "time": 259.875,
            "velocity": 0.13385826771653545
          },
          {
            "duration": 0.0625,
            "durationTicks": 48,
            "midi": 81,
            "name": "A5",
            "ticks": 199584,
            "time": 259.875,
            "velocity": 0.13385826771653545
          },
          {
            "duration": 0.0625,
            "durationTicks": 48,
            "midi": 73,
            "name": "C#5",
            "ticks": 199584,
            "time": 259.875,
            "velocity": 0.13385826771653545
          },
          {
            "duration": 0.0625,
            "durationTicks": 48,
            "midi": 76,
            "name": "E5",
            "ticks": 199632,
            "time": 259.9375,
            "velocity": 0.13385826771653545
          },
          {
            "duration": 0.0625,
            "durationTicks": 48,
            "midi": 81,
            "name": "A5",
            "ticks": 199632,
            "time": 259.9375,
            "velocity": 0.13385826771653545
          },
          {
            "duration": 0.0625,
            "durationTicks": 48,
            "midi": 73,
            "name": "C#5",
            "ticks": 199632,
            "time": 259.9375,
            "velocity": 0.13385826771653545
          },
          {
            "duration": 0.0625,
            "durationTicks": 48,
            "midi": 73,
            "name": "C#5",
            "ticks": 199680,
            "time": 260,
            "velocity": 0.13385826771653545
          },
          {
            "duration": 0.0625,
            "durationTicks": 48,
            "midi": 81,
            "name": "A5",
            "ticks": 199680,
            "time": 260,
            "velocity": 0.13385826771653545
          },
          {
            "duration": 0.0625,
            "durationTicks": 48,
            "midi": 76,
            "name": "E5",
            "ticks": 199680,
            "time": 260,
            "velocity": 0.13385826771653545
          },
          {
            "duration": 0.0625,
            "durationTicks": 48,
            "midi": 73,
            "name": "C#5",
            "ticks": 199728,
            "time": 260.0625,
            "velocity": 0.13385826771653545
          },
          {
            "duration": 0.0625,
            "durationTicks": 48,
            "midi": 76,
            "name": "E5",
            "ticks": 199728,
            "time": 260.0625,
            "velocity": 0.13385826771653545
          },
          {
            "duration": 0.0625,
            "durationTicks": 48,
            "midi": 81,
            "name": "A5",
            "ticks": 199728,
            "time": 260.0625,
            "velocity": 0.13385826771653545
          },
          {
            "duration": 0.0625,
            "durationTicks": 48,
            "midi": 81,
            "name": "A5",
            "ticks": 199776,
            "time": 260.125,
            "velocity": 0.13385826771653545
          },
          {
            "duration": 0.0625,
            "durationTicks": 48,
            "midi": 73,
            "name": "C#5",
            "ticks": 199776,
            "time": 260.125,
            "velocity": 0.13385826771653545
          },
          {
            "duration": 0.0625,
            "durationTicks": 48,
            "midi": 76,
            "name": "E5",
            "ticks": 199776,
            "time": 260.125,
            "velocity": 0.13385826771653545
          },
          {
            "duration": 0.0625,
            "durationTicks": 48,
            "midi": 81,
            "name": "A5",
            "ticks": 199824,
            "time": 260.1875,
            "velocity": 0.13385826771653545
          },
          {
            "duration": 0.0625,
            "durationTicks": 48,
            "midi": 76,
            "name": "E5",
            "ticks": 199824,
            "time": 260.1875,
            "velocity": 0.13385826771653545
          },
          {
            "duration": 0.0625,
            "durationTicks": 48,
            "midi": 73,
            "name": "C#5",
            "ticks": 199824,
            "time": 260.1875,
            "velocity": 0.13385826771653545
          },
          {
            "duration": 0.0625,
            "durationTicks": 48,
            "midi": 73,
            "name": "C#5",
            "ticks": 199872,
            "time": 260.25,
            "velocity": 0.13385826771653545
          },
          {
            "duration": 0.0625,
            "durationTicks": 48,
            "midi": 81,
            "name": "A5",
            "ticks": 199872,
            "time": 260.25,
            "velocity": 0.13385826771653545
          },
          {
            "duration": 0.0625,
            "durationTicks": 48,
            "midi": 76,
            "name": "E5",
            "ticks": 199872,
            "time": 260.25,
            "velocity": 0.13385826771653545
          },
          {
            "duration": 0.0625,
            "durationTicks": 48,
            "midi": 73,
            "name": "C#5",
            "ticks": 199920,
            "time": 260.3125,
            "velocity": 0.13385826771653545
          },
          {
            "duration": 0.0625,
            "durationTicks": 48,
            "midi": 76,
            "name": "E5",
            "ticks": 199920,
            "time": 260.3125,
            "velocity": 0.13385826771653545
          },
          {
            "duration": 0.0625,
            "durationTicks": 48,
            "midi": 81,
            "name": "A5",
            "ticks": 199920,
            "time": 260.3125,
            "velocity": 0.13385826771653545
          },
          {
            "duration": 0.0625,
            "durationTicks": 48,
            "midi": 81,
            "name": "A5",
            "ticks": 199968,
            "time": 260.375,
            "velocity": 0.13385826771653545
          },
          {
            "duration": 0.0625,
            "durationTicks": 48,
            "midi": 76,
            "name": "E5",
            "ticks": 199968,
            "time": 260.375,
            "velocity": 0.13385826771653545
          },
          {
            "duration": 0.0625,
            "durationTicks": 48,
            "midi": 73,
            "name": "C#5",
            "ticks": 199968,
            "time": 260.375,
            "velocity": 0.13385826771653545
          },
          {
            "duration": 0.0625,
            "durationTicks": 48,
            "midi": 76,
            "name": "E5",
            "ticks": 200016,
            "time": 260.4375,
            "velocity": 0.13385826771653545
          },
          {
            "duration": 0.0625,
            "durationTicks": 48,
            "midi": 73,
            "name": "C#5",
            "ticks": 200016,
            "time": 260.4375,
            "velocity": 0.13385826771653545
          },
          {
            "duration": 0.0625,
            "durationTicks": 48,
            "midi": 81,
            "name": "A5",
            "ticks": 200016,
            "time": 260.4375,
            "velocity": 0.13385826771653545
          },
          {
            "duration": 0.0625,
            "durationTicks": 48,
            "midi": 81,
            "name": "A5",
            "ticks": 200064,
            "time": 260.5,
            "velocity": 0.13385826771653545
          },
          {
            "duration": 0.0625,
            "durationTicks": 48,
            "midi": 73,
            "name": "C#5",
            "ticks": 200064,
            "time": 260.5,
            "velocity": 0.13385826771653545
          },
          {
            "duration": 0.0625,
            "durationTicks": 48,
            "midi": 76,
            "name": "E5",
            "ticks": 200064,
            "time": 260.5,
            "velocity": 0.13385826771653545
          },
          {
            "duration": 0.0625,
            "durationTicks": 48,
            "midi": 76,
            "name": "E5",
            "ticks": 200112,
            "time": 260.5625,
            "velocity": 0.13385826771653545
          },
          {
            "duration": 0.0625,
            "durationTicks": 48,
            "midi": 73,
            "name": "C#5",
            "ticks": 200112,
            "time": 260.5625,
            "velocity": 0.13385826771653545
          },
          {
            "duration": 0.0625,
            "durationTicks": 48,
            "midi": 81,
            "name": "A5",
            "ticks": 200112,
            "time": 260.5625,
            "velocity": 0.13385826771653545
          },
          {
            "duration": 0.0625,
            "durationTicks": 48,
            "midi": 76,
            "name": "E5",
            "ticks": 200160,
            "time": 260.625,
            "velocity": 0.13385826771653545
          },
          {
            "duration": 0.0625,
            "durationTicks": 48,
            "midi": 73,
            "name": "C#5",
            "ticks": 200160,
            "time": 260.625,
            "velocity": 0.13385826771653545
          },
          {
            "duration": 0.0625,
            "durationTicks": 48,
            "midi": 81,
            "name": "A5",
            "ticks": 200160,
            "time": 260.625,
            "velocity": 0.13385826771653545
          },
          {
            "duration": 0.0625,
            "durationTicks": 48,
            "midi": 73,
            "name": "C#5",
            "ticks": 200208,
            "time": 260.6875,
            "velocity": 0.13385826771653545
          },
          {
            "duration": 0.0625,
            "durationTicks": 48,
            "midi": 81,
            "name": "A5",
            "ticks": 200208,
            "time": 260.6875,
            "velocity": 0.13385826771653545
          },
          {
            "duration": 0.0625,
            "durationTicks": 48,
            "midi": 76,
            "name": "E5",
            "ticks": 200208,
            "time": 260.6875,
            "velocity": 0.13385826771653545
          },
          {
            "duration": 0.0625,
            "durationTicks": 48,
            "midi": 81,
            "name": "A5",
            "ticks": 200256,
            "time": 260.75,
            "velocity": 0.13385826771653545
          },
          {
            "duration": 0.0625,
            "durationTicks": 48,
            "midi": 73,
            "name": "C#5",
            "ticks": 200256,
            "time": 260.75,
            "velocity": 0.13385826771653545
          },
          {
            "duration": 0.0625,
            "durationTicks": 48,
            "midi": 76,
            "name": "E5",
            "ticks": 200256,
            "time": 260.75,
            "velocity": 0.13385826771653545
          },
          {
            "duration": 0.0625,
            "durationTicks": 48,
            "midi": 73,
            "name": "C#5",
            "ticks": 200304,
            "time": 260.8125,
            "velocity": 0.13385826771653545
          },
          {
            "duration": 0.0625,
            "durationTicks": 48,
            "midi": 76,
            "name": "E5",
            "ticks": 200304,
            "time": 260.8125,
            "velocity": 0.13385826771653545
          },
          {
            "duration": 0.0625,
            "durationTicks": 48,
            "midi": 81,
            "name": "A5",
            "ticks": 200304,
            "time": 260.8125,
            "velocity": 0.13385826771653545
          },
          {
            "duration": 0.0625,
            "durationTicks": 48,
            "midi": 81,
            "name": "A5",
            "ticks": 200352,
            "time": 260.875,
            "velocity": 0.13385826771653545
          },
          {
            "duration": 0.0625,
            "durationTicks": 48,
            "midi": 73,
            "name": "C#5",
            "ticks": 200352,
            "time": 260.875,
            "velocity": 0.13385826771653545
          },
          {
            "duration": 0.0625,
            "durationTicks": 48,
            "midi": 76,
            "name": "E5",
            "ticks": 200352,
            "time": 260.875,
            "velocity": 0.13385826771653545
          },
          {
            "duration": 0.0625,
            "durationTicks": 48,
            "midi": 73,
            "name": "C#5",
            "ticks": 200400,
            "time": 260.9375,
            "velocity": 0.13385826771653545
          },
          {
            "duration": 0.0625,
            "durationTicks": 48,
            "midi": 81,
            "name": "A5",
            "ticks": 200400,
            "time": 260.9375,
            "velocity": 0.13385826771653545
          },
          {
            "duration": 0.0625,
            "durationTicks": 48,
            "midi": 76,
            "name": "E5",
            "ticks": 200400,
            "time": 260.9375,
            "velocity": 0.13385826771653545
          },
          {
            "duration": 0.0625,
            "durationTicks": 48,
            "midi": 81,
            "name": "A5",
            "ticks": 200448,
            "time": 261,
            "velocity": 0.13385826771653545
          },
          {
            "duration": 0.0625,
            "durationTicks": 48,
            "midi": 76,
            "name": "E5",
            "ticks": 200448,
            "time": 261,
            "velocity": 0.13385826771653545
          },
          {
            "duration": 0.0625,
            "durationTicks": 48,
            "midi": 73,
            "name": "C#5",
            "ticks": 200448,
            "time": 261,
            "velocity": 0.13385826771653545
          },
          {
            "duration": 0.0625,
            "durationTicks": 48,
            "midi": 81,
            "name": "A5",
            "ticks": 200496,
            "time": 261.0625,
            "velocity": 0.13385826771653545
          },
          {
            "duration": 0.0625,
            "durationTicks": 48,
            "midi": 76,
            "name": "E5",
            "ticks": 200496,
            "time": 261.0625,
            "velocity": 0.13385826771653545
          },
          {
            "duration": 0.0625,
            "durationTicks": 48,
            "midi": 73,
            "name": "C#5",
            "ticks": 200496,
            "time": 261.0625,
            "velocity": 0.13385826771653545
          },
          {
            "duration": 0.0625,
            "durationTicks": 48,
            "midi": 76,
            "name": "E5",
            "ticks": 200544,
            "time": 261.125,
            "velocity": 0.13385826771653545
          },
          {
            "duration": 0.0625,
            "durationTicks": 48,
            "midi": 81,
            "name": "A5",
            "ticks": 200544,
            "time": 261.125,
            "velocity": 0.13385826771653545
          },
          {
            "duration": 0.0625,
            "durationTicks": 48,
            "midi": 73,
            "name": "C#5",
            "ticks": 200544,
            "time": 261.125,
            "velocity": 0.13385826771653545
          },
          {
            "duration": 0.0625,
            "durationTicks": 48,
            "midi": 76,
            "name": "E5",
            "ticks": 200592,
            "time": 261.1875,
            "velocity": 0.13385826771653545
          },
          {
            "duration": 0.0625,
            "durationTicks": 48,
            "midi": 81,
            "name": "A5",
            "ticks": 200592,
            "time": 261.1875,
            "velocity": 0.13385826771653545
          },
          {
            "duration": 0.0625,
            "durationTicks": 48,
            "midi": 73,
            "name": "C#5",
            "ticks": 200592,
            "time": 261.1875,
            "velocity": 0.13385826771653545
          },
          {
            "duration": 0.0625,
            "durationTicks": 48,
            "midi": 76,
            "name": "E5",
            "ticks": 200640,
            "time": 261.25,
            "velocity": 0.13385826771653545
          },
          {
            "duration": 0.0625,
            "durationTicks": 48,
            "midi": 73,
            "name": "C#5",
            "ticks": 200640,
            "time": 261.25,
            "velocity": 0.13385826771653545
          },
          {
            "duration": 0.0625,
            "durationTicks": 48,
            "midi": 81,
            "name": "A5",
            "ticks": 200640,
            "time": 261.25,
            "velocity": 0.13385826771653545
          },
          {
            "duration": 0.0625,
            "durationTicks": 48,
            "midi": 76,
            "name": "E5",
            "ticks": 200688,
            "time": 261.3125,
            "velocity": 0.13385826771653545
          },
          {
            "duration": 0.0625,
            "durationTicks": 48,
            "midi": 73,
            "name": "C#5",
            "ticks": 200688,
            "time": 261.3125,
            "velocity": 0.13385826771653545
          },
          {
            "duration": 0.0625,
            "durationTicks": 48,
            "midi": 81,
            "name": "A5",
            "ticks": 200688,
            "time": 261.3125,
            "velocity": 0.13385826771653545
          },
          {
            "duration": 0.0625,
            "durationTicks": 48,
            "midi": 81,
            "name": "A5",
            "ticks": 200736,
            "time": 261.375,
            "velocity": 0.13385826771653545
          },
          {
            "duration": 0.0625,
            "durationTicks": 48,
            "midi": 73,
            "name": "C#5",
            "ticks": 200736,
            "time": 261.375,
            "velocity": 0.13385826771653545
          },
          {
            "duration": 0.0625,
            "durationTicks": 48,
            "midi": 76,
            "name": "E5",
            "ticks": 200736,
            "time": 261.375,
            "velocity": 0.13385826771653545
          },
          {
            "duration": 0.0625,
            "durationTicks": 48,
            "midi": 76,
            "name": "E5",
            "ticks": 200784,
            "time": 261.4375,
            "velocity": 0.13385826771653545
          },
          {
            "duration": 0.0625,
            "durationTicks": 48,
            "midi": 81,
            "name": "A5",
            "ticks": 200784,
            "time": 261.4375,
            "velocity": 0.13385826771653545
          },
          {
            "duration": 0.0625,
            "durationTicks": 48,
            "midi": 73,
            "name": "C#5",
            "ticks": 200784,
            "time": 261.4375,
            "velocity": 0.13385826771653545
          },
          {
            "duration": 0.0625,
            "durationTicks": 48,
            "midi": 76,
            "name": "E5",
            "ticks": 200832,
            "time": 261.5,
            "velocity": 0.13385826771653545
          },
          {
            "duration": 0.0625,
            "durationTicks": 48,
            "midi": 81,
            "name": "A5",
            "ticks": 200832,
            "time": 261.5,
            "velocity": 0.13385826771653545
          },
          {
            "duration": 0.0625,
            "durationTicks": 48,
            "midi": 73,
            "name": "C#5",
            "ticks": 200832,
            "time": 261.5,
            "velocity": 0.13385826771653545
          },
          {
            "duration": 0.0625,
            "durationTicks": 48,
            "midi": 81,
            "name": "A5",
            "ticks": 200880,
            "time": 261.5625,
            "velocity": 0.13385826771653545
          },
          {
            "duration": 0.0625,
            "durationTicks": 48,
            "midi": 76,
            "name": "E5",
            "ticks": 200880,
            "time": 261.5625,
            "velocity": 0.13385826771653545
          },
          {
            "duration": 0.0625,
            "durationTicks": 48,
            "midi": 73,
            "name": "C#5",
            "ticks": 200880,
            "time": 261.5625,
            "velocity": 0.13385826771653545
          },
          {
            "duration": 0.0625,
            "durationTicks": 48,
            "midi": 73,
            "name": "C#5",
            "ticks": 200928,
            "time": 261.625,
            "velocity": 0.13385826771653545
          },
          {
            "duration": 0.0625,
            "durationTicks": 48,
            "midi": 76,
            "name": "E5",
            "ticks": 200928,
            "time": 261.625,
            "velocity": 0.13385826771653545
          },
          {
            "duration": 0.0625,
            "durationTicks": 48,
            "midi": 81,
            "name": "A5",
            "ticks": 200928,
            "time": 261.625,
            "velocity": 0.13385826771653545
          },
          {
            "duration": 0.0625,
            "durationTicks": 48,
            "midi": 81,
            "name": "A5",
            "ticks": 200976,
            "time": 261.6875,
            "velocity": 0.13385826771653545
          },
          {
            "duration": 0.0625,
            "durationTicks": 48,
            "midi": 73,
            "name": "C#5",
            "ticks": 200976,
            "time": 261.6875,
            "velocity": 0.13385826771653545
          },
          {
            "duration": 0.0625,
            "durationTicks": 48,
            "midi": 76,
            "name": "E5",
            "ticks": 200976,
            "time": 261.6875,
            "velocity": 0.13385826771653545
          },
          {
            "duration": 0.0625,
            "durationTicks": 48,
            "midi": 73,
            "name": "C#5",
            "ticks": 201024,
            "time": 261.75,
            "velocity": 0.13385826771653545
          },
          {
            "duration": 0.0625,
            "durationTicks": 48,
            "midi": 81,
            "name": "A5",
            "ticks": 201024,
            "time": 261.75,
            "velocity": 0.13385826771653545
          },
          {
            "duration": 0.0625,
            "durationTicks": 48,
            "midi": 76,
            "name": "E5",
            "ticks": 201024,
            "time": 261.75,
            "velocity": 0.13385826771653545
          },
          {
            "duration": 0.0625,
            "durationTicks": 48,
            "midi": 73,
            "name": "C#5",
            "ticks": 201072,
            "time": 261.8125,
            "velocity": 0.13385826771653545
          },
          {
            "duration": 0.0625,
            "durationTicks": 48,
            "midi": 81,
            "name": "A5",
            "ticks": 201072,
            "time": 261.8125,
            "velocity": 0.13385826771653545
          },
          {
            "duration": 0.0625,
            "durationTicks": 48,
            "midi": 76,
            "name": "E5",
            "ticks": 201072,
            "time": 261.8125,
            "velocity": 0.13385826771653545
          },
          {
            "duration": 0.0625,
            "durationTicks": 48,
            "midi": 71,
            "name": "B4",
            "ticks": 201120,
            "time": 261.875,
            "velocity": 0.13385826771653545
          },
          {
            "duration": 0.0625,
            "durationTicks": 48,
            "midi": 75,
            "name": "D#5",
            "ticks": 201120,
            "time": 261.875,
            "velocity": 0.13385826771653545
          },
          {
            "duration": 0.0625,
            "durationTicks": 48,
            "midi": 78,
            "name": "F#5",
            "ticks": 201120,
            "time": 261.875,
            "velocity": 0.13385826771653545
          },
          {
            "duration": 0.0625,
            "durationTicks": 48,
            "midi": 75,
            "name": "D#5",
            "ticks": 201168,
            "time": 261.9375,
            "velocity": 0.13385826771653545
          },
          {
            "duration": 0.0625,
            "durationTicks": 48,
            "midi": 78,
            "name": "F#5",
            "ticks": 201168,
            "time": 261.9375,
            "velocity": 0.13385826771653545
          },
          {
            "duration": 0.0625,
            "durationTicks": 48,
            "midi": 71,
            "name": "B4",
            "ticks": 201168,
            "time": 261.9375,
            "velocity": 0.13385826771653545
          },
          {
            "duration": 0.0625,
            "durationTicks": 48,
            "midi": 78,
            "name": "F#5",
            "ticks": 201216,
            "time": 262,
            "velocity": 0.13385826771653545
          },
          {
            "duration": 0.0625,
            "durationTicks": 48,
            "midi": 75,
            "name": "D#5",
            "ticks": 201216,
            "time": 262,
            "velocity": 0.13385826771653545
          },
          {
            "duration": 0.0625,
            "durationTicks": 48,
            "midi": 71,
            "name": "B4",
            "ticks": 201216,
            "time": 262,
            "velocity": 0.13385826771653545
          },
          {
            "duration": 0.0625,
            "durationTicks": 48,
            "midi": 75,
            "name": "D#5",
            "ticks": 201264,
            "time": 262.0625,
            "velocity": 0.13385826771653545
          },
          {
            "duration": 0.0625,
            "durationTicks": 48,
            "midi": 71,
            "name": "B4",
            "ticks": 201264,
            "time": 262.0625,
            "velocity": 0.13385826771653545
          },
          {
            "duration": 0.0625,
            "durationTicks": 48,
            "midi": 78,
            "name": "F#5",
            "ticks": 201264,
            "time": 262.0625,
            "velocity": 0.13385826771653545
          },
          {
            "duration": 0.0625,
            "durationTicks": 48,
            "midi": 78,
            "name": "F#5",
            "ticks": 201312,
            "time": 262.125,
            "velocity": 0.13385826771653545
          },
          {
            "duration": 0.0625,
            "durationTicks": 48,
            "midi": 71,
            "name": "B4",
            "ticks": 201312,
            "time": 262.125,
            "velocity": 0.13385826771653545
          },
          {
            "duration": 0.0625,
            "durationTicks": 48,
            "midi": 75,
            "name": "D#5",
            "ticks": 201312,
            "time": 262.125,
            "velocity": 0.13385826771653545
          },
          {
            "duration": 0.0625,
            "durationTicks": 48,
            "midi": 71,
            "name": "B4",
            "ticks": 201360,
            "time": 262.1875,
            "velocity": 0.13385826771653545
          },
          {
            "duration": 0.0625,
            "durationTicks": 48,
            "midi": 75,
            "name": "D#5",
            "ticks": 201360,
            "time": 262.1875,
            "velocity": 0.13385826771653545
          },
          {
            "duration": 0.0625,
            "durationTicks": 48,
            "midi": 78,
            "name": "F#5",
            "ticks": 201360,
            "time": 262.1875,
            "velocity": 0.13385826771653545
          },
          {
            "duration": 0.0625,
            "durationTicks": 48,
            "midi": 71,
            "name": "B4",
            "ticks": 201408,
            "time": 262.25,
            "velocity": 0.13385826771653545
          },
          {
            "duration": 0.0625,
            "durationTicks": 48,
            "midi": 78,
            "name": "F#5",
            "ticks": 201408,
            "time": 262.25,
            "velocity": 0.13385826771653545
          },
          {
            "duration": 0.0625,
            "durationTicks": 48,
            "midi": 75,
            "name": "D#5",
            "ticks": 201408,
            "time": 262.25,
            "velocity": 0.13385826771653545
          },
          {
            "duration": 0.0625,
            "durationTicks": 48,
            "midi": 75,
            "name": "D#5",
            "ticks": 201456,
            "time": 262.3125,
            "velocity": 0.13385826771653545
          },
          {
            "duration": 0.0625,
            "durationTicks": 48,
            "midi": 78,
            "name": "F#5",
            "ticks": 201456,
            "time": 262.3125,
            "velocity": 0.13385826771653545
          },
          {
            "duration": 0.0625,
            "durationTicks": 48,
            "midi": 71,
            "name": "B4",
            "ticks": 201456,
            "time": 262.3125,
            "velocity": 0.13385826771653545
          },
          {
            "duration": 0.0625,
            "durationTicks": 48,
            "midi": 75,
            "name": "D#5",
            "ticks": 201504,
            "time": 262.375,
            "velocity": 0.13385826771653545
          },
          {
            "duration": 0.0625,
            "durationTicks": 48,
            "midi": 71,
            "name": "B4",
            "ticks": 201504,
            "time": 262.375,
            "velocity": 0.13385826771653545
          },
          {
            "duration": 0.0625,
            "durationTicks": 48,
            "midi": 78,
            "name": "F#5",
            "ticks": 201504,
            "time": 262.375,
            "velocity": 0.13385826771653545
          },
          {
            "duration": 0.0625,
            "durationTicks": 48,
            "midi": 71,
            "name": "B4",
            "ticks": 201552,
            "time": 262.4375,
            "velocity": 0.13385826771653545
          },
          {
            "duration": 0.0625,
            "durationTicks": 48,
            "midi": 75,
            "name": "D#5",
            "ticks": 201552,
            "time": 262.4375,
            "velocity": 0.13385826771653545
          },
          {
            "duration": 0.0625,
            "durationTicks": 48,
            "midi": 78,
            "name": "F#5",
            "ticks": 201552,
            "time": 262.4375,
            "velocity": 0.13385826771653545
          },
          {
            "duration": 0.0625,
            "durationTicks": 48,
            "midi": 75,
            "name": "D#5",
            "ticks": 201600,
            "time": 262.5,
            "velocity": 0.13385826771653545
          },
          {
            "duration": 0.0625,
            "durationTicks": 48,
            "midi": 78,
            "name": "F#5",
            "ticks": 201600,
            "time": 262.5,
            "velocity": 0.13385826771653545
          },
          {
            "duration": 0.0625,
            "durationTicks": 48,
            "midi": 71,
            "name": "B4",
            "ticks": 201600,
            "time": 262.5,
            "velocity": 0.13385826771653545
          },
          {
            "duration": 0.0625,
            "durationTicks": 48,
            "midi": 75,
            "name": "D#5",
            "ticks": 201648,
            "time": 262.5625,
            "velocity": 0.13385826771653545
          },
          {
            "duration": 0.0625,
            "durationTicks": 48,
            "midi": 71,
            "name": "B4",
            "ticks": 201648,
            "time": 262.5625,
            "velocity": 0.13385826771653545
          },
          {
            "duration": 0.0625,
            "durationTicks": 48,
            "midi": 78,
            "name": "F#5",
            "ticks": 201648,
            "time": 262.5625,
            "velocity": 0.13385826771653545
          },
          {
            "duration": 0.0625,
            "durationTicks": 48,
            "midi": 75,
            "name": "D#5",
            "ticks": 201696,
            "time": 262.625,
            "velocity": 0.13385826771653545
          },
          {
            "duration": 0.0625,
            "durationTicks": 48,
            "midi": 78,
            "name": "F#5",
            "ticks": 201696,
            "time": 262.625,
            "velocity": 0.13385826771653545
          },
          {
            "duration": 0.0625,
            "durationTicks": 48,
            "midi": 71,
            "name": "B4",
            "ticks": 201696,
            "time": 262.625,
            "velocity": 0.13385826771653545
          },
          {
            "duration": 0.0625,
            "durationTicks": 48,
            "midi": 75,
            "name": "D#5",
            "ticks": 201744,
            "time": 262.6875,
            "velocity": 0.13385826771653545
          },
          {
            "duration": 0.0625,
            "durationTicks": 48,
            "midi": 78,
            "name": "F#5",
            "ticks": 201744,
            "time": 262.6875,
            "velocity": 0.13385826771653545
          },
          {
            "duration": 0.0625,
            "durationTicks": 48,
            "midi": 71,
            "name": "B4",
            "ticks": 201744,
            "time": 262.6875,
            "velocity": 0.13385826771653545
          },
          {
            "duration": 0.0625,
            "durationTicks": 48,
            "midi": 71,
            "name": "B4",
            "ticks": 201792,
            "time": 262.75,
            "velocity": 0.13385826771653545
          },
          {
            "duration": 0.0625,
            "durationTicks": 48,
            "midi": 75,
            "name": "D#5",
            "ticks": 201792,
            "time": 262.75,
            "velocity": 0.13385826771653545
          },
          {
            "duration": 0.0625,
            "durationTicks": 48,
            "midi": 78,
            "name": "F#5",
            "ticks": 201792,
            "time": 262.75,
            "velocity": 0.13385826771653545
          },
          {
            "duration": 0.0625,
            "durationTicks": 48,
            "midi": 78,
            "name": "F#5",
            "ticks": 201840,
            "time": 262.8125,
            "velocity": 0.13385826771653545
          },
          {
            "duration": 0.0625,
            "durationTicks": 48,
            "midi": 75,
            "name": "D#5",
            "ticks": 201840,
            "time": 262.8125,
            "velocity": 0.13385826771653545
          },
          {
            "duration": 0.0625,
            "durationTicks": 48,
            "midi": 71,
            "name": "B4",
            "ticks": 201840,
            "time": 262.8125,
            "velocity": 0.13385826771653545
          },
          {
            "duration": 0.0625,
            "durationTicks": 48,
            "midi": 71,
            "name": "B4",
            "ticks": 201888,
            "time": 262.875,
            "velocity": 0.13385826771653545
          },
          {
            "duration": 0.0625,
            "durationTicks": 48,
            "midi": 78,
            "name": "F#5",
            "ticks": 201888,
            "time": 262.875,
            "velocity": 0.13385826771653545
          },
          {
            "duration": 0.0625,
            "durationTicks": 48,
            "midi": 75,
            "name": "D#5",
            "ticks": 201888,
            "time": 262.875,
            "velocity": 0.13385826771653545
          },
          {
            "duration": 0.0625,
            "durationTicks": 48,
            "midi": 71,
            "name": "B4",
            "ticks": 201936,
            "time": 262.9375,
            "velocity": 0.13385826771653545
          },
          {
            "duration": 0.0625,
            "durationTicks": 48,
            "midi": 78,
            "name": "F#5",
            "ticks": 201936,
            "time": 262.9375,
            "velocity": 0.13385826771653545
          },
          {
            "duration": 0.0625,
            "durationTicks": 48,
            "midi": 75,
            "name": "D#5",
            "ticks": 201936,
            "time": 262.9375,
            "velocity": 0.13385826771653545
          },
          {
            "duration": 0.0625,
            "durationTicks": 48,
            "midi": 75,
            "name": "D#5",
            "ticks": 201984,
            "time": 263,
            "velocity": 0.13385826771653545
          },
          {
            "duration": 0.0625,
            "durationTicks": 48,
            "midi": 78,
            "name": "F#5",
            "ticks": 201984,
            "time": 263,
            "velocity": 0.13385826771653545
          },
          {
            "duration": 0.0625,
            "durationTicks": 48,
            "midi": 71,
            "name": "B4",
            "ticks": 201984,
            "time": 263,
            "velocity": 0.13385826771653545
          },
          {
            "duration": 0.0625,
            "durationTicks": 48,
            "midi": 71,
            "name": "B4",
            "ticks": 202032,
            "time": 263.0625,
            "velocity": 0.13385826771653545
          },
          {
            "duration": 0.0625,
            "durationTicks": 48,
            "midi": 75,
            "name": "D#5",
            "ticks": 202032,
            "time": 263.0625,
            "velocity": 0.13385826771653545
          },
          {
            "duration": 0.0625,
            "durationTicks": 48,
            "midi": 78,
            "name": "F#5",
            "ticks": 202032,
            "time": 263.0625,
            "velocity": 0.13385826771653545
          },
          {
            "duration": 0.0625,
            "durationTicks": 48,
            "midi": 78,
            "name": "F#5",
            "ticks": 202080,
            "time": 263.125,
            "velocity": 0.13385826771653545
          },
          {
            "duration": 0.0625,
            "durationTicks": 48,
            "midi": 75,
            "name": "D#5",
            "ticks": 202080,
            "time": 263.125,
            "velocity": 0.13385826771653545
          },
          {
            "duration": 0.0625,
            "durationTicks": 48,
            "midi": 71,
            "name": "B4",
            "ticks": 202080,
            "time": 263.125,
            "velocity": 0.13385826771653545
          },
          {
            "duration": 0.0625,
            "durationTicks": 48,
            "midi": 75,
            "name": "D#5",
            "ticks": 202128,
            "time": 263.1875,
            "velocity": 0.13385826771653545
          },
          {
            "duration": 0.0625,
            "durationTicks": 48,
            "midi": 78,
            "name": "F#5",
            "ticks": 202128,
            "time": 263.1875,
            "velocity": 0.13385826771653545
          },
          {
            "duration": 0.0625,
            "durationTicks": 48,
            "midi": 71,
            "name": "B4",
            "ticks": 202128,
            "time": 263.1875,
            "velocity": 0.13385826771653545
          },
          {
            "duration": 0.0625,
            "durationTicks": 48,
            "midi": 75,
            "name": "D#5",
            "ticks": 202176,
            "time": 263.25,
            "velocity": 0.13385826771653545
          },
          {
            "duration": 0.0625,
            "durationTicks": 48,
            "midi": 78,
            "name": "F#5",
            "ticks": 202176,
            "time": 263.25,
            "velocity": 0.13385826771653545
          },
          {
            "duration": 0.0625,
            "durationTicks": 48,
            "midi": 71,
            "name": "B4",
            "ticks": 202176,
            "time": 263.25,
            "velocity": 0.13385826771653545
          },
          {
            "duration": 0.0625,
            "durationTicks": 48,
            "midi": 71,
            "name": "B4",
            "ticks": 202224,
            "time": 263.3125,
            "velocity": 0.13385826771653545
          },
          {
            "duration": 0.0625,
            "durationTicks": 48,
            "midi": 75,
            "name": "D#5",
            "ticks": 202224,
            "time": 263.3125,
            "velocity": 0.13385826771653545
          },
          {
            "duration": 0.0625,
            "durationTicks": 48,
            "midi": 78,
            "name": "F#5",
            "ticks": 202224,
            "time": 263.3125,
            "velocity": 0.13385826771653545
          },
          {
            "duration": 0.0625,
            "durationTicks": 48,
            "midi": 75,
            "name": "D#5",
            "ticks": 202272,
            "time": 263.375,
            "velocity": 0.13385826771653545
          },
          {
            "duration": 0.0625,
            "durationTicks": 48,
            "midi": 78,
            "name": "F#5",
            "ticks": 202272,
            "time": 263.375,
            "velocity": 0.13385826771653545
          },
          {
            "duration": 0.0625,
            "durationTicks": 48,
            "midi": 71,
            "name": "B4",
            "ticks": 202272,
            "time": 263.375,
            "velocity": 0.13385826771653545
          },
          {
            "duration": 0.0625,
            "durationTicks": 48,
            "midi": 75,
            "name": "D#5",
            "ticks": 202320,
            "time": 263.4375,
            "velocity": 0.13385826771653545
          },
          {
            "duration": 0.0625,
            "durationTicks": 48,
            "midi": 71,
            "name": "B4",
            "ticks": 202320,
            "time": 263.4375,
            "velocity": 0.13385826771653545
          },
          {
            "duration": 0.0625,
            "durationTicks": 48,
            "midi": 78,
            "name": "F#5",
            "ticks": 202320,
            "time": 263.4375,
            "velocity": 0.13385826771653545
          },
          {
            "duration": 0.0625,
            "durationTicks": 48,
            "midi": 78,
            "name": "F#5",
            "ticks": 202368,
            "time": 263.5,
            "velocity": 0.13385826771653545
          },
          {
            "duration": 0.0625,
            "durationTicks": 48,
            "midi": 71,
            "name": "B4",
            "ticks": 202368,
            "time": 263.5,
            "velocity": 0.13385826771653545
          },
          {
            "duration": 0.0625,
            "durationTicks": 48,
            "midi": 75,
            "name": "D#5",
            "ticks": 202368,
            "time": 263.5,
            "velocity": 0.13385826771653545
          },
          {
            "duration": 0.0625,
            "durationTicks": 48,
            "midi": 75,
            "name": "D#5",
            "ticks": 202416,
            "time": 263.5625,
            "velocity": 0.13385826771653545
          },
          {
            "duration": 0.0625,
            "durationTicks": 48,
            "midi": 78,
            "name": "F#5",
            "ticks": 202416,
            "time": 263.5625,
            "velocity": 0.13385826771653545
          },
          {
            "duration": 0.0625,
            "durationTicks": 48,
            "midi": 71,
            "name": "B4",
            "ticks": 202416,
            "time": 263.5625,
            "velocity": 0.13385826771653545
          },
          {
            "duration": 0.0625,
            "durationTicks": 48,
            "midi": 75,
            "name": "D#5",
            "ticks": 202464,
            "time": 263.625,
            "velocity": 0.13385826771653545
          },
          {
            "duration": 0.0625,
            "durationTicks": 48,
            "midi": 71,
            "name": "B4",
            "ticks": 202464,
            "time": 263.625,
            "velocity": 0.13385826771653545
          },
          {
            "duration": 0.0625,
            "durationTicks": 48,
            "midi": 78,
            "name": "F#5",
            "ticks": 202464,
            "time": 263.625,
            "velocity": 0.13385826771653545
          },
          {
            "duration": 0.0625,
            "durationTicks": 48,
            "midi": 78,
            "name": "F#5",
            "ticks": 202512,
            "time": 263.6875,
            "velocity": 0.13385826771653545
          },
          {
            "duration": 0.0625,
            "durationTicks": 48,
            "midi": 71,
            "name": "B4",
            "ticks": 202512,
            "time": 263.6875,
            "velocity": 0.13385826771653545
          },
          {
            "duration": 0.0625,
            "durationTicks": 48,
            "midi": 75,
            "name": "D#5",
            "ticks": 202512,
            "time": 263.6875,
            "velocity": 0.13385826771653545
          },
          {
            "duration": 0.0625,
            "durationTicks": 48,
            "midi": 78,
            "name": "F#5",
            "ticks": 202560,
            "time": 263.75,
            "velocity": 0.13385826771653545
          },
          {
            "duration": 0.0625,
            "durationTicks": 48,
            "midi": 75,
            "name": "D#5",
            "ticks": 202560,
            "time": 263.75,
            "velocity": 0.13385826771653545
          },
          {
            "duration": 0.0625,
            "durationTicks": 48,
            "midi": 71,
            "name": "B4",
            "ticks": 202560,
            "time": 263.75,
            "velocity": 0.13385826771653545
          },
          {
            "duration": 0.0625,
            "durationTicks": 48,
            "midi": 75,
            "name": "D#5",
            "ticks": 202608,
            "time": 263.8125,
            "velocity": 0.13385826771653545
          },
          {
            "duration": 0.0625,
            "durationTicks": 48,
            "midi": 78,
            "name": "F#5",
            "ticks": 202608,
            "time": 263.8125,
            "velocity": 0.13385826771653545
          },
          {
            "duration": 0.0625,
            "durationTicks": 48,
            "midi": 71,
            "name": "B4",
            "ticks": 202608,
            "time": 263.8125,
            "velocity": 0.13385826771653545
          },
          {
            "duration": 0.0625,
            "durationTicks": 48,
            "midi": 78,
            "name": "F#5",
            "ticks": 202656,
            "time": 263.875,
            "velocity": 0.13385826771653545
          },
          {
            "duration": 0.0625,
            "durationTicks": 48,
            "midi": 70,
            "name": "A#4",
            "ticks": 202656,
            "time": 263.875,
            "velocity": 0.13385826771653545
          },
          {
            "duration": 0.0625,
            "durationTicks": 48,
            "midi": 73,
            "name": "C#5",
            "ticks": 202656,
            "time": 263.875,
            "velocity": 0.13385826771653545
          },
          {
            "duration": 0.0625,
            "durationTicks": 48,
            "midi": 70,
            "name": "A#4",
            "ticks": 202704,
            "time": 263.9375,
            "velocity": 0.13385826771653545
          },
          {
            "duration": 0.0625,
            "durationTicks": 48,
            "midi": 78,
            "name": "F#5",
            "ticks": 202704,
            "time": 263.9375,
            "velocity": 0.13385826771653545
          },
          {
            "duration": 0.0625,
            "durationTicks": 48,
            "midi": 73,
            "name": "C#5",
            "ticks": 202704,
            "time": 263.9375,
            "velocity": 0.13385826771653545
          },
          {
            "duration": 0.0625,
            "durationTicks": 48,
            "midi": 78,
            "name": "F#5",
            "ticks": 202752,
            "time": 264,
            "velocity": 0.13385826771653545
          },
          {
            "duration": 0.0625,
            "durationTicks": 48,
            "midi": 73,
            "name": "C#5",
            "ticks": 202752,
            "time": 264,
            "velocity": 0.13385826771653545
          },
          {
            "duration": 0.0625,
            "durationTicks": 48,
            "midi": 70,
            "name": "A#4",
            "ticks": 202752,
            "time": 264,
            "velocity": 0.13385826771653545
          },
          {
            "duration": 0.0625,
            "durationTicks": 48,
            "midi": 78,
            "name": "F#5",
            "ticks": 202800,
            "time": 264.0625,
            "velocity": 0.13385826771653545
          },
          {
            "duration": 0.0625,
            "durationTicks": 48,
            "midi": 73,
            "name": "C#5",
            "ticks": 202800,
            "time": 264.0625,
            "velocity": 0.13385826771653545
          },
          {
            "duration": 0.0625,
            "durationTicks": 48,
            "midi": 70,
            "name": "A#4",
            "ticks": 202800,
            "time": 264.0625,
            "velocity": 0.13385826771653545
          },
          {
            "duration": 0.0625,
            "durationTicks": 48,
            "midi": 70,
            "name": "A#4",
            "ticks": 202848,
            "time": 264.125,
            "velocity": 0.13385826771653545
          },
          {
            "duration": 0.0625,
            "durationTicks": 48,
            "midi": 78,
            "name": "F#5",
            "ticks": 202848,
            "time": 264.125,
            "velocity": 0.13385826771653545
          },
          {
            "duration": 0.0625,
            "durationTicks": 48,
            "midi": 73,
            "name": "C#5",
            "ticks": 202848,
            "time": 264.125,
            "velocity": 0.13385826771653545
          },
          {
            "duration": 0.0625,
            "durationTicks": 48,
            "midi": 78,
            "name": "F#5",
            "ticks": 202896,
            "time": 264.1875,
            "velocity": 0.13385826771653545
          },
          {
            "duration": 0.0625,
            "durationTicks": 48,
            "midi": 73,
            "name": "C#5",
            "ticks": 202896,
            "time": 264.1875,
            "velocity": 0.13385826771653545
          },
          {
            "duration": 0.0625,
            "durationTicks": 48,
            "midi": 70,
            "name": "A#4",
            "ticks": 202896,
            "time": 264.1875,
            "velocity": 0.13385826771653545
          },
          {
            "duration": 0.0625,
            "durationTicks": 48,
            "midi": 73,
            "name": "C#5",
            "ticks": 202944,
            "time": 264.25,
            "velocity": 0.13385826771653545
          },
          {
            "duration": 0.0625,
            "durationTicks": 48,
            "midi": 70,
            "name": "A#4",
            "ticks": 202944,
            "time": 264.25,
            "velocity": 0.13385826771653545
          },
          {
            "duration": 0.0625,
            "durationTicks": 48,
            "midi": 78,
            "name": "F#5",
            "ticks": 202944,
            "time": 264.25,
            "velocity": 0.13385826771653545
          },
          {
            "duration": 0.0625,
            "durationTicks": 48,
            "midi": 78,
            "name": "F#5",
            "ticks": 202992,
            "time": 264.3125,
            "velocity": 0.13385826771653545
          },
          {
            "duration": 0.0625,
            "durationTicks": 48,
            "midi": 70,
            "name": "A#4",
            "ticks": 202992,
            "time": 264.3125,
            "velocity": 0.13385826771653545
          },
          {
            "duration": 0.0625,
            "durationTicks": 48,
            "midi": 73,
            "name": "C#5",
            "ticks": 202992,
            "time": 264.3125,
            "velocity": 0.13385826771653545
          },
          {
            "duration": 0.0625,
            "durationTicks": 48,
            "midi": 73,
            "name": "C#5",
            "ticks": 203040,
            "time": 264.375,
            "velocity": 0.13385826771653545
          },
          {
            "duration": 0.0625,
            "durationTicks": 48,
            "midi": 78,
            "name": "F#5",
            "ticks": 203040,
            "time": 264.375,
            "velocity": 0.13385826771653545
          },
          {
            "duration": 0.0625,
            "durationTicks": 48,
            "midi": 70,
            "name": "A#4",
            "ticks": 203040,
            "time": 264.375,
            "velocity": 0.13385826771653545
          },
          {
            "duration": 0.0625,
            "durationTicks": 48,
            "midi": 73,
            "name": "C#5",
            "ticks": 203088,
            "time": 264.4375,
            "velocity": 0.13385826771653545
          },
          {
            "duration": 0.0625,
            "durationTicks": 48,
            "midi": 70,
            "name": "A#4",
            "ticks": 203088,
            "time": 264.4375,
            "velocity": 0.13385826771653545
          },
          {
            "duration": 0.0625,
            "durationTicks": 48,
            "midi": 78,
            "name": "F#5",
            "ticks": 203088,
            "time": 264.4375,
            "velocity": 0.13385826771653545
          },
          {
            "duration": 0.0625,
            "durationTicks": 48,
            "midi": 73,
            "name": "C#5",
            "ticks": 203136,
            "time": 264.5,
            "velocity": 0.13385826771653545
          },
          {
            "duration": 0.0625,
            "durationTicks": 48,
            "midi": 78,
            "name": "F#5",
            "ticks": 203136,
            "time": 264.5,
            "velocity": 0.13385826771653545
          },
          {
            "duration": 0.0625,
            "durationTicks": 48,
            "midi": 70,
            "name": "A#4",
            "ticks": 203136,
            "time": 264.5,
            "velocity": 0.13385826771653545
          },
          {
            "duration": 0.0625,
            "durationTicks": 48,
            "midi": 73,
            "name": "C#5",
            "ticks": 203184,
            "time": 264.5625,
            "velocity": 0.13385826771653545
          },
          {
            "duration": 0.0625,
            "durationTicks": 48,
            "midi": 70,
            "name": "A#4",
            "ticks": 203184,
            "time": 264.5625,
            "velocity": 0.13385826771653545
          },
          {
            "duration": 0.0625,
            "durationTicks": 48,
            "midi": 78,
            "name": "F#5",
            "ticks": 203184,
            "time": 264.5625,
            "velocity": 0.13385826771653545
          },
          {
            "duration": 0.0625,
            "durationTicks": 48,
            "midi": 78,
            "name": "F#5",
            "ticks": 203232,
            "time": 264.625,
            "velocity": 0.13385826771653545
          },
          {
            "duration": 0.0625,
            "durationTicks": 48,
            "midi": 73,
            "name": "C#5",
            "ticks": 203232,
            "time": 264.625,
            "velocity": 0.13385826771653545
          },
          {
            "duration": 0.0625,
            "durationTicks": 48,
            "midi": 70,
            "name": "A#4",
            "ticks": 203232,
            "time": 264.625,
            "velocity": 0.13385826771653545
          },
          {
            "duration": 0.0625,
            "durationTicks": 48,
            "midi": 78,
            "name": "F#5",
            "ticks": 203280,
            "time": 264.6875,
            "velocity": 0.13385826771653545
          },
          {
            "duration": 0.0625,
            "durationTicks": 48,
            "midi": 73,
            "name": "C#5",
            "ticks": 203280,
            "time": 264.6875,
            "velocity": 0.13385826771653545
          },
          {
            "duration": 0.0625,
            "durationTicks": 48,
            "midi": 70,
            "name": "A#4",
            "ticks": 203280,
            "time": 264.6875,
            "velocity": 0.13385826771653545
          },
          {
            "duration": 0.0625,
            "durationTicks": 48,
            "midi": 70,
            "name": "A#4",
            "ticks": 203328,
            "time": 264.75,
            "velocity": 0.13385826771653545
          },
          {
            "duration": 0.0625,
            "durationTicks": 48,
            "midi": 73,
            "name": "C#5",
            "ticks": 203328,
            "time": 264.75,
            "velocity": 0.13385826771653545
          },
          {
            "duration": 0.0625,
            "durationTicks": 48,
            "midi": 78,
            "name": "F#5",
            "ticks": 203328,
            "time": 264.75,
            "velocity": 0.13385826771653545
          },
          {
            "duration": 0.0625,
            "durationTicks": 48,
            "midi": 78,
            "name": "F#5",
            "ticks": 203376,
            "time": 264.8125,
            "velocity": 0.13385826771653545
          },
          {
            "duration": 0.0625,
            "durationTicks": 48,
            "midi": 73,
            "name": "C#5",
            "ticks": 203376,
            "time": 264.8125,
            "velocity": 0.13385826771653545
          },
          {
            "duration": 0.0625,
            "durationTicks": 48,
            "midi": 70,
            "name": "A#4",
            "ticks": 203376,
            "time": 264.8125,
            "velocity": 0.13385826771653545
          },
          {
            "duration": 0.0625,
            "durationTicks": 48,
            "midi": 70,
            "name": "A#4",
            "ticks": 203424,
            "time": 264.875,
            "velocity": 0.13385826771653545
          },
          {
            "duration": 0.0625,
            "durationTicks": 48,
            "midi": 78,
            "name": "F#5",
            "ticks": 203424,
            "time": 264.875,
            "velocity": 0.13385826771653545
          },
          {
            "duration": 0.0625,
            "durationTicks": 48,
            "midi": 73,
            "name": "C#5",
            "ticks": 203424,
            "time": 264.875,
            "velocity": 0.13385826771653545
          },
          {
            "duration": 0.0625,
            "durationTicks": 48,
            "midi": 73,
            "name": "C#5",
            "ticks": 203472,
            "time": 264.9375,
            "velocity": 0.13385826771653545
          },
          {
            "duration": 0.0625,
            "durationTicks": 48,
            "midi": 78,
            "name": "F#5",
            "ticks": 203472,
            "time": 264.9375,
            "velocity": 0.13385826771653545
          },
          {
            "duration": 0.0625,
            "durationTicks": 48,
            "midi": 70,
            "name": "A#4",
            "ticks": 203472,
            "time": 264.9375,
            "velocity": 0.13385826771653545
          },
          {
            "duration": 0.0625,
            "durationTicks": 48,
            "midi": 73,
            "name": "C#5",
            "ticks": 203520,
            "time": 265,
            "velocity": 0.13385826771653545
          },
          {
            "duration": 0.0625,
            "durationTicks": 48,
            "midi": 70,
            "name": "A#4",
            "ticks": 203520,
            "time": 265,
            "velocity": 0.13385826771653545
          },
          {
            "duration": 0.0625,
            "durationTicks": 48,
            "midi": 78,
            "name": "F#5",
            "ticks": 203520,
            "time": 265,
            "velocity": 0.13385826771653545
          },
          {
            "duration": 0.0625,
            "durationTicks": 48,
            "midi": 70,
            "name": "A#4",
            "ticks": 203568,
            "time": 265.0625,
            "velocity": 0.13385826771653545
          },
          {
            "duration": 0.0625,
            "durationTicks": 48,
            "midi": 73,
            "name": "C#5",
            "ticks": 203568,
            "time": 265.0625,
            "velocity": 0.13385826771653545
          },
          {
            "duration": 0.0625,
            "durationTicks": 48,
            "midi": 78,
            "name": "F#5",
            "ticks": 203568,
            "time": 265.0625,
            "velocity": 0.13385826771653545
          },
          {
            "duration": 0.0625,
            "durationTicks": 48,
            "midi": 78,
            "name": "F#5",
            "ticks": 203616,
            "time": 265.125,
            "velocity": 0.13385826771653545
          },
          {
            "duration": 0.0625,
            "durationTicks": 48,
            "midi": 70,
            "name": "A#4",
            "ticks": 203616,
            "time": 265.125,
            "velocity": 0.13385826771653545
          },
          {
            "duration": 0.0625,
            "durationTicks": 48,
            "midi": 73,
            "name": "C#5",
            "ticks": 203616,
            "time": 265.125,
            "velocity": 0.13385826771653545
          },
          {
            "duration": 0.0625,
            "durationTicks": 48,
            "midi": 78,
            "name": "F#5",
            "ticks": 203664,
            "time": 265.1875,
            "velocity": 0.13385826771653545
          },
          {
            "duration": 0.0625,
            "durationTicks": 48,
            "midi": 70,
            "name": "A#4",
            "ticks": 203664,
            "time": 265.1875,
            "velocity": 0.13385826771653545
          },
          {
            "duration": 0.0625,
            "durationTicks": 48,
            "midi": 73,
            "name": "C#5",
            "ticks": 203664,
            "time": 265.1875,
            "velocity": 0.13385826771653545
          },
          {
            "duration": 0.0625,
            "durationTicks": 48,
            "midi": 73,
            "name": "C#5",
            "ticks": 203712,
            "time": 265.25,
            "velocity": 0.13385826771653545
          },
          {
            "duration": 0.0625,
            "durationTicks": 48,
            "midi": 70,
            "name": "A#4",
            "ticks": 203712,
            "time": 265.25,
            "velocity": 0.13385826771653545
          },
          {
            "duration": 0.0625,
            "durationTicks": 48,
            "midi": 78,
            "name": "F#5",
            "ticks": 203712,
            "time": 265.25,
            "velocity": 0.13385826771653545
          },
          {
            "duration": 0.0625,
            "durationTicks": 48,
            "midi": 73,
            "name": "C#5",
            "ticks": 203760,
            "time": 265.3125,
            "velocity": 0.13385826771653545
          },
          {
            "duration": 0.0625,
            "durationTicks": 48,
            "midi": 78,
            "name": "F#5",
            "ticks": 203760,
            "time": 265.3125,
            "velocity": 0.13385826771653545
          },
          {
            "duration": 0.0625,
            "durationTicks": 48,
            "midi": 70,
            "name": "A#4",
            "ticks": 203760,
            "time": 265.3125,
            "velocity": 0.13385826771653545
          },
          {
            "duration": 0.0625,
            "durationTicks": 48,
            "midi": 78,
            "name": "F#5",
            "ticks": 203808,
            "time": 265.375,
            "velocity": 0.13385826771653545
          },
          {
            "duration": 0.0625,
            "durationTicks": 48,
            "midi": 73,
            "name": "C#5",
            "ticks": 203808,
            "time": 265.375,
            "velocity": 0.13385826771653545
          },
          {
            "duration": 0.0625,
            "durationTicks": 48,
            "midi": 70,
            "name": "A#4",
            "ticks": 203808,
            "time": 265.375,
            "velocity": 0.13385826771653545
          },
          {
            "duration": 0.0625,
            "durationTicks": 48,
            "midi": 70,
            "name": "A#4",
            "ticks": 203856,
            "time": 265.4375,
            "velocity": 0.13385826771653545
          },
          {
            "duration": 0.0625,
            "durationTicks": 48,
            "midi": 73,
            "name": "C#5",
            "ticks": 203856,
            "time": 265.4375,
            "velocity": 0.13385826771653545
          },
          {
            "duration": 0.0625,
            "durationTicks": 48,
            "midi": 78,
            "name": "F#5",
            "ticks": 203856,
            "time": 265.4375,
            "velocity": 0.13385826771653545
          },
          {
            "duration": 0.0625,
            "durationTicks": 48,
            "midi": 70,
            "name": "A#4",
            "ticks": 203904,
            "time": 265.5,
            "velocity": 0.13385826771653545
          },
          {
            "duration": 0.0625,
            "durationTicks": 48,
            "midi": 73,
            "name": "C#5",
            "ticks": 203904,
            "time": 265.5,
            "velocity": 0.13385826771653545
          },
          {
            "duration": 0.0625,
            "durationTicks": 48,
            "midi": 78,
            "name": "F#5",
            "ticks": 203904,
            "time": 265.5,
            "velocity": 0.13385826771653545
          },
          {
            "duration": 0.0625,
            "durationTicks": 48,
            "midi": 70,
            "name": "A#4",
            "ticks": 203952,
            "time": 265.5625,
            "velocity": 0.13385826771653545
          },
          {
            "duration": 0.0625,
            "durationTicks": 48,
            "midi": 78,
            "name": "F#5",
            "ticks": 203952,
            "time": 265.5625,
            "velocity": 0.13385826771653545
          },
          {
            "duration": 0.0625,
            "durationTicks": 48,
            "midi": 73,
            "name": "C#5",
            "ticks": 203952,
            "time": 265.5625,
            "velocity": 0.13385826771653545
          },
          {
            "duration": 0.0625,
            "durationTicks": 48,
            "midi": 73,
            "name": "C#5",
            "ticks": 204000,
            "time": 265.625,
            "velocity": 0.13385826771653545
          },
          {
            "duration": 0.0625,
            "durationTicks": 48,
            "midi": 70,
            "name": "A#4",
            "ticks": 204000,
            "time": 265.625,
            "velocity": 0.13385826771653545
          },
          {
            "duration": 0.0625,
            "durationTicks": 48,
            "midi": 78,
            "name": "F#5",
            "ticks": 204000,
            "time": 265.625,
            "velocity": 0.13385826771653545
          },
          {
            "duration": 0.0625,
            "durationTicks": 48,
            "midi": 70,
            "name": "A#4",
            "ticks": 204048,
            "time": 265.6875,
            "velocity": 0.13385826771653545
          },
          {
            "duration": 0.0625,
            "durationTicks": 48,
            "midi": 78,
            "name": "F#5",
            "ticks": 204048,
            "time": 265.6875,
            "velocity": 0.13385826771653545
          },
          {
            "duration": 0.0625,
            "durationTicks": 48,
            "midi": 73,
            "name": "C#5",
            "ticks": 204048,
            "time": 265.6875,
            "velocity": 0.13385826771653545
          },
          {
            "duration": 0.0625,
            "durationTicks": 48,
            "midi": 78,
            "name": "F#5",
            "ticks": 204096,
            "time": 265.75,
            "velocity": 0.13385826771653545
          },
          {
            "duration": 0.0625,
            "durationTicks": 48,
            "midi": 73,
            "name": "C#5",
            "ticks": 204096,
            "time": 265.75,
            "velocity": 0.13385826771653545
          },
          {
            "duration": 0.0625,
            "durationTicks": 48,
            "midi": 70,
            "name": "A#4",
            "ticks": 204096,
            "time": 265.75,
            "velocity": 0.13385826771653545
          },
          {
            "duration": 0.0625,
            "durationTicks": 48,
            "midi": 78,
            "name": "F#5",
            "ticks": 204144,
            "time": 265.8125,
            "velocity": 0.13385826771653545
          },
          {
            "duration": 0.0625,
            "durationTicks": 48,
            "midi": 73,
            "name": "C#5",
            "ticks": 204144,
            "time": 265.8125,
            "velocity": 0.13385826771653545
          },
          {
            "duration": 0.0625,
            "durationTicks": 48,
            "midi": 70,
            "name": "A#4",
            "ticks": 204144,
            "time": 265.8125,
            "velocity": 0.13385826771653545
          },
          {
            "duration": 0.0625,
            "durationTicks": 48,
            "midi": 76,
            "name": "E5",
            "ticks": 204192,
            "time": 265.875,
            "velocity": 0.13385826771653545
          },
          {
            "duration": 0.0625,
            "durationTicks": 48,
            "midi": 73,
            "name": "C#5",
            "ticks": 204192,
            "time": 265.875,
            "velocity": 0.13385826771653545
          },
          {
            "duration": 0.0625,
            "durationTicks": 48,
            "midi": 80,
            "name": "G#5",
            "ticks": 204192,
            "time": 265.875,
            "velocity": 0.13385826771653545
          },
          {
            "duration": 0.0625,
            "durationTicks": 48,
            "midi": 73,
            "name": "C#5",
            "ticks": 204240,
            "time": 265.9375,
            "velocity": 0.13385826771653545
          },
          {
            "duration": 0.0625,
            "durationTicks": 48,
            "midi": 80,
            "name": "G#5",
            "ticks": 204240,
            "time": 265.9375,
            "velocity": 0.13385826771653545
          },
          {
            "duration": 0.0625,
            "durationTicks": 48,
            "midi": 76,
            "name": "E5",
            "ticks": 204240,
            "time": 265.9375,
            "velocity": 0.13385826771653545
          },
          {
            "duration": 0.0625,
            "durationTicks": 48,
            "midi": 73,
            "name": "C#5",
            "ticks": 204288,
            "time": 266,
            "velocity": 0.13385826771653545
          },
          {
            "duration": 0.0625,
            "durationTicks": 48,
            "midi": 80,
            "name": "G#5",
            "ticks": 204288,
            "time": 266,
            "velocity": 0.13385826771653545
          },
          {
            "duration": 0.0625,
            "durationTicks": 48,
            "midi": 76,
            "name": "E5",
            "ticks": 204288,
            "time": 266,
            "velocity": 0.13385826771653545
          },
          {
            "duration": 0.0625,
            "durationTicks": 48,
            "midi": 80,
            "name": "G#5",
            "ticks": 204336,
            "time": 266.0625,
            "velocity": 0.13385826771653545
          },
          {
            "duration": 0.0625,
            "durationTicks": 48,
            "midi": 76,
            "name": "E5",
            "ticks": 204336,
            "time": 266.0625,
            "velocity": 0.13385826771653545
          },
          {
            "duration": 0.0625,
            "durationTicks": 48,
            "midi": 73,
            "name": "C#5",
            "ticks": 204336,
            "time": 266.0625,
            "velocity": 0.13385826771653545
          },
          {
            "duration": 0.0625,
            "durationTicks": 48,
            "midi": 80,
            "name": "G#5",
            "ticks": 204384,
            "time": 266.125,
            "velocity": 0.13385826771653545
          },
          {
            "duration": 0.0625,
            "durationTicks": 48,
            "midi": 73,
            "name": "C#5",
            "ticks": 204384,
            "time": 266.125,
            "velocity": 0.13385826771653545
          },
          {
            "duration": 0.0625,
            "durationTicks": 48,
            "midi": 76,
            "name": "E5",
            "ticks": 204384,
            "time": 266.125,
            "velocity": 0.13385826771653545
          },
          {
            "duration": 0.0625,
            "durationTicks": 48,
            "midi": 76,
            "name": "E5",
            "ticks": 204432,
            "time": 266.1875,
            "velocity": 0.13385826771653545
          },
          {
            "duration": 0.0625,
            "durationTicks": 48,
            "midi": 73,
            "name": "C#5",
            "ticks": 204432,
            "time": 266.1875,
            "velocity": 0.13385826771653545
          },
          {
            "duration": 0.0625,
            "durationTicks": 48,
            "midi": 80,
            "name": "G#5",
            "ticks": 204432,
            "time": 266.1875,
            "velocity": 0.13385826771653545
          },
          {
            "duration": 0.0625,
            "durationTicks": 48,
            "midi": 80,
            "name": "G#5",
            "ticks": 204480,
            "time": 266.25,
            "velocity": 0.13385826771653545
          },
          {
            "duration": 0.0625,
            "durationTicks": 48,
            "midi": 76,
            "name": "E5",
            "ticks": 204480,
            "time": 266.25,
            "velocity": 0.13385826771653545
          },
          {
            "duration": 0.0625,
            "durationTicks": 48,
            "midi": 73,
            "name": "C#5",
            "ticks": 204480,
            "time": 266.25,
            "velocity": 0.13385826771653545
          },
          {
            "duration": 0.0625,
            "durationTicks": 48,
            "midi": 80,
            "name": "G#5",
            "ticks": 204528,
            "time": 266.3125,
            "velocity": 0.13385826771653545
          },
          {
            "duration": 0.0625,
            "durationTicks": 48,
            "midi": 73,
            "name": "C#5",
            "ticks": 204528,
            "time": 266.3125,
            "velocity": 0.13385826771653545
          },
          {
            "duration": 0.0625,
            "durationTicks": 48,
            "midi": 76,
            "name": "E5",
            "ticks": 204528,
            "time": 266.3125,
            "velocity": 0.13385826771653545
          },
          {
            "duration": 0.0625,
            "durationTicks": 48,
            "midi": 73,
            "name": "C#5",
            "ticks": 204576,
            "time": 266.375,
            "velocity": 0.13385826771653545
          },
          {
            "duration": 0.0625,
            "durationTicks": 48,
            "midi": 76,
            "name": "E5",
            "ticks": 204576,
            "time": 266.375,
            "velocity": 0.13385826771653545
          },
          {
            "duration": 0.0625,
            "durationTicks": 48,
            "midi": 80,
            "name": "G#5",
            "ticks": 204576,
            "time": 266.375,
            "velocity": 0.13385826771653545
          },
          {
            "duration": 0.0625,
            "durationTicks": 48,
            "midi": 73,
            "name": "C#5",
            "ticks": 204624,
            "time": 266.4375,
            "velocity": 0.13385826771653545
          },
          {
            "duration": 0.0625,
            "durationTicks": 48,
            "midi": 76,
            "name": "E5",
            "ticks": 204624,
            "time": 266.4375,
            "velocity": 0.13385826771653545
          },
          {
            "duration": 0.0625,
            "durationTicks": 48,
            "midi": 80,
            "name": "G#5",
            "ticks": 204624,
            "time": 266.4375,
            "velocity": 0.13385826771653545
          },
          {
            "duration": 0.0625,
            "durationTicks": 48,
            "midi": 73,
            "name": "C#5",
            "ticks": 204672,
            "time": 266.5,
            "velocity": 0.13385826771653545
          },
          {
            "duration": 0.0625,
            "durationTicks": 48,
            "midi": 80,
            "name": "G#5",
            "ticks": 204672,
            "time": 266.5,
            "velocity": 0.13385826771653545
          },
          {
            "duration": 0.0625,
            "durationTicks": 48,
            "midi": 76,
            "name": "E5",
            "ticks": 204672,
            "time": 266.5,
            "velocity": 0.13385826771653545
          },
          {
            "duration": 0.0625,
            "durationTicks": 48,
            "midi": 80,
            "name": "G#5",
            "ticks": 204720,
            "time": 266.5625,
            "velocity": 0.13385826771653545
          },
          {
            "duration": 0.0625,
            "durationTicks": 48,
            "midi": 73,
            "name": "C#5",
            "ticks": 204720,
            "time": 266.5625,
            "velocity": 0.13385826771653545
          },
          {
            "duration": 0.0625,
            "durationTicks": 48,
            "midi": 76,
            "name": "E5",
            "ticks": 204720,
            "time": 266.5625,
            "velocity": 0.13385826771653545
          },
          {
            "duration": 0.0625,
            "durationTicks": 48,
            "midi": 76,
            "name": "E5",
            "ticks": 204768,
            "time": 266.625,
            "velocity": 0.13385826771653545
          },
          {
            "duration": 0.0625,
            "durationTicks": 48,
            "midi": 80,
            "name": "G#5",
            "ticks": 204768,
            "time": 266.625,
            "velocity": 0.13385826771653545
          },
          {
            "duration": 0.0625,
            "durationTicks": 48,
            "midi": 73,
            "name": "C#5",
            "ticks": 204768,
            "time": 266.625,
            "velocity": 0.13385826771653545
          },
          {
            "duration": 0.0625,
            "durationTicks": 48,
            "midi": 73,
            "name": "C#5",
            "ticks": 204816,
            "time": 266.6875,
            "velocity": 0.13385826771653545
          },
          {
            "duration": 0.0625,
            "durationTicks": 48,
            "midi": 80,
            "name": "G#5",
            "ticks": 204816,
            "time": 266.6875,
            "velocity": 0.13385826771653545
          },
          {
            "duration": 0.0625,
            "durationTicks": 48,
            "midi": 76,
            "name": "E5",
            "ticks": 204816,
            "time": 266.6875,
            "velocity": 0.13385826771653545
          },
          {
            "duration": 0.0625,
            "durationTicks": 48,
            "midi": 80,
            "name": "G#5",
            "ticks": 204864,
            "time": 266.75,
            "velocity": 0.13385826771653545
          },
          {
            "duration": 0.0625,
            "durationTicks": 48,
            "midi": 73,
            "name": "C#5",
            "ticks": 204864,
            "time": 266.75,
            "velocity": 0.13385826771653545
          },
          {
            "duration": 0.0625,
            "durationTicks": 48,
            "midi": 76,
            "name": "E5",
            "ticks": 204864,
            "time": 266.75,
            "velocity": 0.13385826771653545
          },
          {
            "duration": 0.0625,
            "durationTicks": 48,
            "midi": 73,
            "name": "C#5",
            "ticks": 204912,
            "time": 266.8125,
            "velocity": 0.13385826771653545
          },
          {
            "duration": 0.0625,
            "durationTicks": 48,
            "midi": 76,
            "name": "E5",
            "ticks": 204912,
            "time": 266.8125,
            "velocity": 0.13385826771653545
          },
          {
            "duration": 0.0625,
            "durationTicks": 48,
            "midi": 80,
            "name": "G#5",
            "ticks": 204912,
            "time": 266.8125,
            "velocity": 0.13385826771653545
          },
          {
            "duration": 0.0625,
            "durationTicks": 48,
            "midi": 80,
            "name": "G#5",
            "ticks": 204960,
            "time": 266.875,
            "velocity": 0.13385826771653545
          },
          {
            "duration": 0.0625,
            "durationTicks": 48,
            "midi": 73,
            "name": "C#5",
            "ticks": 204960,
            "time": 266.875,
            "velocity": 0.13385826771653545
          },
          {
            "duration": 0.0625,
            "durationTicks": 48,
            "midi": 76,
            "name": "E5",
            "ticks": 204960,
            "time": 266.875,
            "velocity": 0.13385826771653545
          },
          {
            "duration": 0.0625,
            "durationTicks": 48,
            "midi": 73,
            "name": "C#5",
            "ticks": 205008,
            "time": 266.9375,
            "velocity": 0.13385826771653545
          },
          {
            "duration": 0.0625,
            "durationTicks": 48,
            "midi": 80,
            "name": "G#5",
            "ticks": 205008,
            "time": 266.9375,
            "velocity": 0.13385826771653545
          },
          {
            "duration": 0.0625,
            "durationTicks": 48,
            "midi": 76,
            "name": "E5",
            "ticks": 205008,
            "time": 266.9375,
            "velocity": 0.13385826771653545
          },
          {
            "duration": 0.0625,
            "durationTicks": 48,
            "midi": 76,
            "name": "E5",
            "ticks": 205056,
            "time": 267,
            "velocity": 0.13385826771653545
          },
          {
            "duration": 0.0625,
            "durationTicks": 48,
            "midi": 80,
            "name": "G#5",
            "ticks": 205056,
            "time": 267,
            "velocity": 0.13385826771653545
          },
          {
            "duration": 0.0625,
            "durationTicks": 48,
            "midi": 73,
            "name": "C#5",
            "ticks": 205056,
            "time": 267,
            "velocity": 0.13385826771653545
          },
          {
            "duration": 0.0625,
            "durationTicks": 48,
            "midi": 80,
            "name": "G#5",
            "ticks": 205104,
            "time": 267.0625,
            "velocity": 0.13385826771653545
          },
          {
            "duration": 0.0625,
            "durationTicks": 48,
            "midi": 76,
            "name": "E5",
            "ticks": 205104,
            "time": 267.0625,
            "velocity": 0.13385826771653545
          },
          {
            "duration": 0.0625,
            "durationTicks": 48,
            "midi": 73,
            "name": "C#5",
            "ticks": 205104,
            "time": 267.0625,
            "velocity": 0.13385826771653545
          },
          {
            "duration": 0.0625,
            "durationTicks": 48,
            "midi": 76,
            "name": "E5",
            "ticks": 205152,
            "time": 267.125,
            "velocity": 0.13385826771653545
          },
          {
            "duration": 0.0625,
            "durationTicks": 48,
            "midi": 73,
            "name": "C#5",
            "ticks": 205152,
            "time": 267.125,
            "velocity": 0.13385826771653545
          },
          {
            "duration": 0.0625,
            "durationTicks": 48,
            "midi": 80,
            "name": "G#5",
            "ticks": 205152,
            "time": 267.125,
            "velocity": 0.13385826771653545
          },
          {
            "duration": 0.0625,
            "durationTicks": 48,
            "midi": 73,
            "name": "C#5",
            "ticks": 205200,
            "time": 267.1875,
            "velocity": 0.13385826771653545
          },
          {
            "duration": 0.0625,
            "durationTicks": 48,
            "midi": 76,
            "name": "E5",
            "ticks": 205200,
            "time": 267.1875,
            "velocity": 0.13385826771653545
          },
          {
            "duration": 0.0625,
            "durationTicks": 48,
            "midi": 80,
            "name": "G#5",
            "ticks": 205200,
            "time": 267.1875,
            "velocity": 0.13385826771653545
          },
          {
            "duration": 0.0625,
            "durationTicks": 48,
            "midi": 73,
            "name": "C#5",
            "ticks": 205248,
            "time": 267.25,
            "velocity": 0.13385826771653545
          },
          {
            "duration": 0.0625,
            "durationTicks": 48,
            "midi": 80,
            "name": "G#5",
            "ticks": 205248,
            "time": 267.25,
            "velocity": 0.13385826771653545
          },
          {
            "duration": 0.0625,
            "durationTicks": 48,
            "midi": 76,
            "name": "E5",
            "ticks": 205248,
            "time": 267.25,
            "velocity": 0.13385826771653545
          },
          {
            "duration": 0.0625,
            "durationTicks": 48,
            "midi": 80,
            "name": "G#5",
            "ticks": 205296,
            "time": 267.3125,
            "velocity": 0.13385826771653545
          },
          {
            "duration": 0.0625,
            "durationTicks": 48,
            "midi": 73,
            "name": "C#5",
            "ticks": 205296,
            "time": 267.3125,
            "velocity": 0.13385826771653545
          },
          {
            "duration": 0.0625,
            "durationTicks": 48,
            "midi": 76,
            "name": "E5",
            "ticks": 205296,
            "time": 267.3125,
            "velocity": 0.13385826771653545
          },
          {
            "duration": 0.0625,
            "durationTicks": 48,
            "midi": 73,
            "name": "C#5",
            "ticks": 205344,
            "time": 267.375,
            "velocity": 0.13385826771653545
          },
          {
            "duration": 0.0625,
            "durationTicks": 48,
            "midi": 76,
            "name": "E5",
            "ticks": 205344,
            "time": 267.375,
            "velocity": 0.13385826771653545
          },
          {
            "duration": 0.0625,
            "durationTicks": 48,
            "midi": 80,
            "name": "G#5",
            "ticks": 205344,
            "time": 267.375,
            "velocity": 0.13385826771653545
          },
          {
            "duration": 0.0625,
            "durationTicks": 48,
            "midi": 80,
            "name": "G#5",
            "ticks": 205392,
            "time": 267.4375,
            "velocity": 0.13385826771653545
          },
          {
            "duration": 0.0625,
            "durationTicks": 48,
            "midi": 73,
            "name": "C#5",
            "ticks": 205392,
            "time": 267.4375,
            "velocity": 0.13385826771653545
          },
          {
            "duration": 0.0625,
            "durationTicks": 48,
            "midi": 76,
            "name": "E5",
            "ticks": 205392,
            "time": 267.4375,
            "velocity": 0.13385826771653545
          },
          {
            "duration": 0.0625,
            "durationTicks": 48,
            "midi": 76,
            "name": "E5",
            "ticks": 205440,
            "time": 267.5,
            "velocity": 0.13385826771653545
          },
          {
            "duration": 0.0625,
            "durationTicks": 48,
            "midi": 73,
            "name": "C#5",
            "ticks": 205440,
            "time": 267.5,
            "velocity": 0.13385826771653545
          },
          {
            "duration": 0.0625,
            "durationTicks": 48,
            "midi": 80,
            "name": "G#5",
            "ticks": 205440,
            "time": 267.5,
            "velocity": 0.13385826771653545
          },
          {
            "duration": 0.0625,
            "durationTicks": 48,
            "midi": 80,
            "name": "G#5",
            "ticks": 205488,
            "time": 267.5625,
            "velocity": 0.13385826771653545
          },
          {
            "duration": 0.0625,
            "durationTicks": 48,
            "midi": 73,
            "name": "C#5",
            "ticks": 205488,
            "time": 267.5625,
            "velocity": 0.13385826771653545
          },
          {
            "duration": 0.0625,
            "durationTicks": 48,
            "midi": 76,
            "name": "E5",
            "ticks": 205488,
            "time": 267.5625,
            "velocity": 0.13385826771653545
          },
          {
            "duration": 0.0625,
            "durationTicks": 48,
            "midi": 73,
            "name": "C#5",
            "ticks": 205536,
            "time": 267.625,
            "velocity": 0.13385826771653545
          },
          {
            "duration": 0.0625,
            "durationTicks": 48,
            "midi": 76,
            "name": "E5",
            "ticks": 205536,
            "time": 267.625,
            "velocity": 0.13385826771653545
          },
          {
            "duration": 0.0625,
            "durationTicks": 48,
            "midi": 80,
            "name": "G#5",
            "ticks": 205536,
            "time": 267.625,
            "velocity": 0.13385826771653545
          },
          {
            "duration": 0.0625,
            "durationTicks": 48,
            "midi": 76,
            "name": "E5",
            "ticks": 205584,
            "time": 267.6875,
            "velocity": 0.13385826771653545
          },
          {
            "duration": 0.0625,
            "durationTicks": 48,
            "midi": 73,
            "name": "C#5",
            "ticks": 205584,
            "time": 267.6875,
            "velocity": 0.13385826771653545
          },
          {
            "duration": 0.0625,
            "durationTicks": 48,
            "midi": 80,
            "name": "G#5",
            "ticks": 205584,
            "time": 267.6875,
            "velocity": 0.13385826771653545
          },
          {
            "duration": 0.0625,
            "durationTicks": 48,
            "midi": 76,
            "name": "E5",
            "ticks": 205632,
            "time": 267.75,
            "velocity": 0.13385826771653545
          },
          {
            "duration": 0.0625,
            "durationTicks": 48,
            "midi": 73,
            "name": "C#5",
            "ticks": 205632,
            "time": 267.75,
            "velocity": 0.13385826771653545
          },
          {
            "duration": 0.0625,
            "durationTicks": 48,
            "midi": 80,
            "name": "G#5",
            "ticks": 205632,
            "time": 267.75,
            "velocity": 0.13385826771653545
          },
          {
            "duration": 0.0625,
            "durationTicks": 48,
            "midi": 73,
            "name": "C#5",
            "ticks": 205680,
            "time": 267.8125,
            "velocity": 0.13385826771653545
          },
          {
            "duration": 0.0625,
            "durationTicks": 48,
            "midi": 76,
            "name": "E5",
            "ticks": 205680,
            "time": 267.8125,
            "velocity": 0.13385826771653545
          },
          {
            "duration": 0.0625,
            "durationTicks": 48,
            "midi": 80,
            "name": "G#5",
            "ticks": 205680,
            "time": 267.8125,
            "velocity": 0.13385826771653545
          },
          {
            "duration": 0.0625,
            "durationTicks": 48,
            "midi": 76,
            "name": "E5",
            "ticks": 205728,
            "time": 267.875,
            "velocity": 0.13385826771653545
          },
          {
            "duration": 0.0625,
            "durationTicks": 48,
            "midi": 73,
            "name": "C#5",
            "ticks": 205728,
            "time": 267.875,
            "velocity": 0.13385826771653545
          },
          {
            "duration": 0.0625,
            "durationTicks": 48,
            "midi": 81,
            "name": "A5",
            "ticks": 205728,
            "time": 267.875,
            "velocity": 0.13385826771653545
          },
          {
            "duration": 0.0625,
            "durationTicks": 48,
            "midi": 81,
            "name": "A5",
            "ticks": 205776,
            "time": 267.9375,
            "velocity": 0.13385826771653545
          },
          {
            "duration": 0.0625,
            "durationTicks": 48,
            "midi": 73,
            "name": "C#5",
            "ticks": 205776,
            "time": 267.9375,
            "velocity": 0.13385826771653545
          },
          {
            "duration": 0.0625,
            "durationTicks": 48,
            "midi": 76,
            "name": "E5",
            "ticks": 205776,
            "time": 267.9375,
            "velocity": 0.13385826771653545
          },
          {
            "duration": 0.0625,
            "durationTicks": 48,
            "midi": 81,
            "name": "A5",
            "ticks": 205824,
            "time": 268,
            "velocity": 0.13385826771653545
          },
          {
            "duration": 0.0625,
            "durationTicks": 48,
            "midi": 76,
            "name": "E5",
            "ticks": 205824,
            "time": 268,
            "velocity": 0.13385826771653545
          },
          {
            "duration": 0.0625,
            "durationTicks": 48,
            "midi": 73,
            "name": "C#5",
            "ticks": 205824,
            "time": 268,
            "velocity": 0.13385826771653545
          },
          {
            "duration": 0.0625,
            "durationTicks": 48,
            "midi": 81,
            "name": "A5",
            "ticks": 205872,
            "time": 268.0625,
            "velocity": 0.13385826771653545
          },
          {
            "duration": 0.0625,
            "durationTicks": 48,
            "midi": 76,
            "name": "E5",
            "ticks": 205872,
            "time": 268.0625,
            "velocity": 0.13385826771653545
          },
          {
            "duration": 0.0625,
            "durationTicks": 48,
            "midi": 73,
            "name": "C#5",
            "ticks": 205872,
            "time": 268.0625,
            "velocity": 0.13385826771653545
          },
          {
            "duration": 0.0625,
            "durationTicks": 48,
            "midi": 73,
            "name": "C#5",
            "ticks": 205920,
            "time": 268.125,
            "velocity": 0.13385826771653545
          },
          {
            "duration": 0.0625,
            "durationTicks": 48,
            "midi": 76,
            "name": "E5",
            "ticks": 205920,
            "time": 268.125,
            "velocity": 0.13385826771653545
          },
          {
            "duration": 0.0625,
            "durationTicks": 48,
            "midi": 81,
            "name": "A5",
            "ticks": 205920,
            "time": 268.125,
            "velocity": 0.13385826771653545
          },
          {
            "duration": 0.0625,
            "durationTicks": 48,
            "midi": 76,
            "name": "E5",
            "ticks": 205968,
            "time": 268.1875,
            "velocity": 0.13385826771653545
          },
          {
            "duration": 0.0625,
            "durationTicks": 48,
            "midi": 73,
            "name": "C#5",
            "ticks": 205968,
            "time": 268.1875,
            "velocity": 0.13385826771653545
          },
          {
            "duration": 0.0625,
            "durationTicks": 48,
            "midi": 81,
            "name": "A5",
            "ticks": 205968,
            "time": 268.1875,
            "velocity": 0.13385826771653545
          },
          {
            "duration": 0.0625,
            "durationTicks": 48,
            "midi": 81,
            "name": "A5",
            "ticks": 206016,
            "time": 268.25,
            "velocity": 0.13385826771653545
          },
          {
            "duration": 0.0625,
            "durationTicks": 48,
            "midi": 73,
            "name": "C#5",
            "ticks": 206016,
            "time": 268.25,
            "velocity": 0.13385826771653545
          },
          {
            "duration": 0.0625,
            "durationTicks": 48,
            "midi": 76,
            "name": "E5",
            "ticks": 206016,
            "time": 268.25,
            "velocity": 0.13385826771653545
          },
          {
            "duration": 0.0625,
            "durationTicks": 48,
            "midi": 76,
            "name": "E5",
            "ticks": 206064,
            "time": 268.3125,
            "velocity": 0.13385826771653545
          },
          {
            "duration": 0.0625,
            "durationTicks": 48,
            "midi": 81,
            "name": "A5",
            "ticks": 206064,
            "time": 268.3125,
            "velocity": 0.13385826771653545
          },
          {
            "duration": 0.0625,
            "durationTicks": 48,
            "midi": 73,
            "name": "C#5",
            "ticks": 206064,
            "time": 268.3125,
            "velocity": 0.13385826771653545
          },
          {
            "duration": 0.0625,
            "durationTicks": 48,
            "midi": 73,
            "name": "C#5",
            "ticks": 206112,
            "time": 268.375,
            "velocity": 0.13385826771653545
          },
          {
            "duration": 0.0625,
            "durationTicks": 48,
            "midi": 81,
            "name": "A5",
            "ticks": 206112,
            "time": 268.375,
            "velocity": 0.13385826771653545
          },
          {
            "duration": 0.0625,
            "durationTicks": 48,
            "midi": 76,
            "name": "E5",
            "ticks": 206112,
            "time": 268.375,
            "velocity": 0.13385826771653545
          },
          {
            "duration": 0.0625,
            "durationTicks": 48,
            "midi": 81,
            "name": "A5",
            "ticks": 206160,
            "time": 268.4375,
            "velocity": 0.13385826771653545
          },
          {
            "duration": 0.0625,
            "durationTicks": 48,
            "midi": 73,
            "name": "C#5",
            "ticks": 206160,
            "time": 268.4375,
            "velocity": 0.13385826771653545
          },
          {
            "duration": 0.0625,
            "durationTicks": 48,
            "midi": 76,
            "name": "E5",
            "ticks": 206160,
            "time": 268.4375,
            "velocity": 0.13385826771653545
          },
          {
            "duration": 0.0625,
            "durationTicks": 48,
            "midi": 73,
            "name": "C#5",
            "ticks": 206208,
            "time": 268.5,
            "velocity": 0.13385826771653545
          },
          {
            "duration": 0.0625,
            "durationTicks": 48,
            "midi": 76,
            "name": "E5",
            "ticks": 206208,
            "time": 268.5,
            "velocity": 0.13385826771653545
          },
          {
            "duration": 0.0625,
            "durationTicks": 48,
            "midi": 81,
            "name": "A5",
            "ticks": 206208,
            "time": 268.5,
            "velocity": 0.13385826771653545
          },
          {
            "duration": 0.0625,
            "durationTicks": 48,
            "midi": 81,
            "name": "A5",
            "ticks": 206256,
            "time": 268.5625,
            "velocity": 0.13385826771653545
          },
          {
            "duration": 0.0625,
            "durationTicks": 48,
            "midi": 76,
            "name": "E5",
            "ticks": 206256,
            "time": 268.5625,
            "velocity": 0.13385826771653545
          },
          {
            "duration": 0.0625,
            "durationTicks": 48,
            "midi": 73,
            "name": "C#5",
            "ticks": 206256,
            "time": 268.5625,
            "velocity": 0.13385826771653545
          },
          {
            "duration": 0.0625,
            "durationTicks": 48,
            "midi": 81,
            "name": "A5",
            "ticks": 206304,
            "time": 268.625,
            "velocity": 0.13385826771653545
          },
          {
            "duration": 0.0625,
            "durationTicks": 48,
            "midi": 73,
            "name": "C#5",
            "ticks": 206304,
            "time": 268.625,
            "velocity": 0.13385826771653545
          },
          {
            "duration": 0.0625,
            "durationTicks": 48,
            "midi": 76,
            "name": "E5",
            "ticks": 206304,
            "time": 268.625,
            "velocity": 0.13385826771653545
          },
          {
            "duration": 0.0625,
            "durationTicks": 48,
            "midi": 76,
            "name": "E5",
            "ticks": 206352,
            "time": 268.6875,
            "velocity": 0.13385826771653545
          },
          {
            "duration": 0.0625,
            "durationTicks": 48,
            "midi": 73,
            "name": "C#5",
            "ticks": 206352,
            "time": 268.6875,
            "velocity": 0.13385826771653545
          },
          {
            "duration": 0.0625,
            "durationTicks": 48,
            "midi": 81,
            "name": "A5",
            "ticks": 206352,
            "time": 268.6875,
            "velocity": 0.13385826771653545
          },
          {
            "duration": 0.0625,
            "durationTicks": 48,
            "midi": 73,
            "name": "C#5",
            "ticks": 206400,
            "time": 268.75,
            "velocity": 0.13385826771653545
          },
          {
            "duration": 0.0625,
            "durationTicks": 48,
            "midi": 81,
            "name": "A5",
            "ticks": 206400,
            "time": 268.75,
            "velocity": 0.13385826771653545
          },
          {
            "duration": 0.0625,
            "durationTicks": 48,
            "midi": 76,
            "name": "E5",
            "ticks": 206400,
            "time": 268.75,
            "velocity": 0.13385826771653545
          },
          {
            "duration": 0.0625,
            "durationTicks": 48,
            "midi": 81,
            "name": "A5",
            "ticks": 206448,
            "time": 268.8125,
            "velocity": 0.13385826771653545
          },
          {
            "duration": 0.0625,
            "durationTicks": 48,
            "midi": 73,
            "name": "C#5",
            "ticks": 206448,
            "time": 268.8125,
            "velocity": 0.13385826771653545
          },
          {
            "duration": 0.0625,
            "durationTicks": 48,
            "midi": 76,
            "name": "E5",
            "ticks": 206448,
            "time": 268.8125,
            "velocity": 0.13385826771653545
          },
          {
            "duration": 0.0625,
            "durationTicks": 48,
            "midi": 73,
            "name": "C#5",
            "ticks": 206496,
            "time": 268.875,
            "velocity": 0.13385826771653545
          },
          {
            "duration": 0.0625,
            "durationTicks": 48,
            "midi": 76,
            "name": "E5",
            "ticks": 206496,
            "time": 268.875,
            "velocity": 0.13385826771653545
          },
          {
            "duration": 0.0625,
            "durationTicks": 48,
            "midi": 81,
            "name": "A5",
            "ticks": 206496,
            "time": 268.875,
            "velocity": 0.13385826771653545
          },
          {
            "duration": 0.0625,
            "durationTicks": 48,
            "midi": 76,
            "name": "E5",
            "ticks": 206544,
            "time": 268.9375,
            "velocity": 0.13385826771653545
          },
          {
            "duration": 0.0625,
            "durationTicks": 48,
            "midi": 81,
            "name": "A5",
            "ticks": 206544,
            "time": 268.9375,
            "velocity": 0.13385826771653545
          },
          {
            "duration": 0.0625,
            "durationTicks": 48,
            "midi": 73,
            "name": "C#5",
            "ticks": 206544,
            "time": 268.9375,
            "velocity": 0.13385826771653545
          },
          {
            "duration": 0.0625,
            "durationTicks": 48,
            "midi": 73,
            "name": "C#5",
            "ticks": 206592,
            "time": 269,
            "velocity": 0.13385826771653545
          },
          {
            "duration": 0.0625,
            "durationTicks": 48,
            "midi": 76,
            "name": "E5",
            "ticks": 206592,
            "time": 269,
            "velocity": 0.13385826771653545
          },
          {
            "duration": 0.0625,
            "durationTicks": 48,
            "midi": 81,
            "name": "A5",
            "ticks": 206592,
            "time": 269,
            "velocity": 0.13385826771653545
          },
          {
            "duration": 0.0625,
            "durationTicks": 48,
            "midi": 76,
            "name": "E5",
            "ticks": 206640,
            "time": 269.0625,
            "velocity": 0.13385826771653545
          },
          {
            "duration": 0.0625,
            "durationTicks": 48,
            "midi": 81,
            "name": "A5",
            "ticks": 206640,
            "time": 269.0625,
            "velocity": 0.13385826771653545
          },
          {
            "duration": 0.0625,
            "durationTicks": 48,
            "midi": 73,
            "name": "C#5",
            "ticks": 206640,
            "time": 269.0625,
            "velocity": 0.13385826771653545
          },
          {
            "duration": 0.0625,
            "durationTicks": 48,
            "midi": 73,
            "name": "C#5",
            "ticks": 206688,
            "time": 269.125,
            "velocity": 0.13385826771653545
          },
          {
            "duration": 0.0625,
            "durationTicks": 48,
            "midi": 81,
            "name": "A5",
            "ticks": 206688,
            "time": 269.125,
            "velocity": 0.13385826771653545
          },
          {
            "duration": 0.0625,
            "durationTicks": 48,
            "midi": 76,
            "name": "E5",
            "ticks": 206688,
            "time": 269.125,
            "velocity": 0.13385826771653545
          },
          {
            "duration": 0.0625,
            "durationTicks": 48,
            "midi": 76,
            "name": "E5",
            "ticks": 206736,
            "time": 269.1875,
            "velocity": 0.13385826771653545
          },
          {
            "duration": 0.0625,
            "durationTicks": 48,
            "midi": 81,
            "name": "A5",
            "ticks": 206736,
            "time": 269.1875,
            "velocity": 0.13385826771653545
          },
          {
            "duration": 0.0625,
            "durationTicks": 48,
            "midi": 73,
            "name": "C#5",
            "ticks": 206736,
            "time": 269.1875,
            "velocity": 0.13385826771653545
          },
          {
            "duration": 0.0625,
            "durationTicks": 48,
            "midi": 73,
            "name": "C#5",
            "ticks": 206784,
            "time": 269.25,
            "velocity": 0.13385826771653545
          },
          {
            "duration": 0.0625,
            "durationTicks": 48,
            "midi": 81,
            "name": "A5",
            "ticks": 206784,
            "time": 269.25,
            "velocity": 0.13385826771653545
          },
          {
            "duration": 0.0625,
            "durationTicks": 48,
            "midi": 76,
            "name": "E5",
            "ticks": 206784,
            "time": 269.25,
            "velocity": 0.13385826771653545
          },
          {
            "duration": 0.0625,
            "durationTicks": 48,
            "midi": 76,
            "name": "E5",
            "ticks": 206832,
            "time": 269.3125,
            "velocity": 0.13385826771653545
          },
          {
            "duration": 0.0625,
            "durationTicks": 48,
            "midi": 81,
            "name": "A5",
            "ticks": 206832,
            "time": 269.3125,
            "velocity": 0.13385826771653545
          },
          {
            "duration": 0.0625,
            "durationTicks": 48,
            "midi": 73,
            "name": "C#5",
            "ticks": 206832,
            "time": 269.3125,
            "velocity": 0.13385826771653545
          },
          {
            "duration": 0.0625,
            "durationTicks": 48,
            "midi": 73,
            "name": "C#5",
            "ticks": 206880,
            "time": 269.375,
            "velocity": 0.13385826771653545
          },
          {
            "duration": 0.0625,
            "durationTicks": 48,
            "midi": 81,
            "name": "A5",
            "ticks": 206880,
            "time": 269.375,
            "velocity": 0.13385826771653545
          },
          {
            "duration": 0.0625,
            "durationTicks": 48,
            "midi": 76,
            "name": "E5",
            "ticks": 206880,
            "time": 269.375,
            "velocity": 0.13385826771653545
          },
          {
            "duration": 0.0625,
            "durationTicks": 48,
            "midi": 81,
            "name": "A5",
            "ticks": 206928,
            "time": 269.4375,
            "velocity": 0.13385826771653545
          },
          {
            "duration": 0.0625,
            "durationTicks": 48,
            "midi": 76,
            "name": "E5",
            "ticks": 206928,
            "time": 269.4375,
            "velocity": 0.13385826771653545
          },
          {
            "duration": 0.0625,
            "durationTicks": 48,
            "midi": 73,
            "name": "C#5",
            "ticks": 206928,
            "time": 269.4375,
            "velocity": 0.13385826771653545
          },
          {
            "duration": 0.0625,
            "durationTicks": 48,
            "midi": 81,
            "name": "A5",
            "ticks": 206976,
            "time": 269.5,
            "velocity": 0.13385826771653545
          },
          {
            "duration": 0.0625,
            "durationTicks": 48,
            "midi": 73,
            "name": "C#5",
            "ticks": 206976,
            "time": 269.5,
            "velocity": 0.13385826771653545
          },
          {
            "duration": 0.0625,
            "durationTicks": 48,
            "midi": 76,
            "name": "E5",
            "ticks": 206976,
            "time": 269.5,
            "velocity": 0.13385826771653545
          },
          {
            "duration": 0.0625,
            "durationTicks": 48,
            "midi": 73,
            "name": "C#5",
            "ticks": 207024,
            "time": 269.5625,
            "velocity": 0.13385826771653545
          },
          {
            "duration": 0.0625,
            "durationTicks": 48,
            "midi": 81,
            "name": "A5",
            "ticks": 207024,
            "time": 269.5625,
            "velocity": 0.13385826771653545
          },
          {
            "duration": 0.0625,
            "durationTicks": 48,
            "midi": 76,
            "name": "E5",
            "ticks": 207024,
            "time": 269.5625,
            "velocity": 0.13385826771653545
          },
          {
            "duration": 0.0625,
            "durationTicks": 48,
            "midi": 81,
            "name": "A5",
            "ticks": 207072,
            "time": 269.625,
            "velocity": 0.13385826771653545
          },
          {
            "duration": 0.0625,
            "durationTicks": 48,
            "midi": 76,
            "name": "E5",
            "ticks": 207072,
            "time": 269.625,
            "velocity": 0.13385826771653545
          },
          {
            "duration": 0.0625,
            "durationTicks": 48,
            "midi": 73,
            "name": "C#5",
            "ticks": 207072,
            "time": 269.625,
            "velocity": 0.13385826771653545
          },
          {
            "duration": 0.0625,
            "durationTicks": 48,
            "midi": 76,
            "name": "E5",
            "ticks": 207120,
            "time": 269.6875,
            "velocity": 0.13385826771653545
          },
          {
            "duration": 0.0625,
            "durationTicks": 48,
            "midi": 81,
            "name": "A5",
            "ticks": 207120,
            "time": 269.6875,
            "velocity": 0.13385826771653545
          },
          {
            "duration": 0.0625,
            "durationTicks": 48,
            "midi": 73,
            "name": "C#5",
            "ticks": 207120,
            "time": 269.6875,
            "velocity": 0.13385826771653545
          },
          {
            "duration": 0.0625,
            "durationTicks": 48,
            "midi": 81,
            "name": "A5",
            "ticks": 207168,
            "time": 269.75,
            "velocity": 0.13385826771653545
          },
          {
            "duration": 0.0625,
            "durationTicks": 48,
            "midi": 76,
            "name": "E5",
            "ticks": 207168,
            "time": 269.75,
            "velocity": 0.13385826771653545
          },
          {
            "duration": 0.0625,
            "durationTicks": 48,
            "midi": 73,
            "name": "C#5",
            "ticks": 207168,
            "time": 269.75,
            "velocity": 0.13385826771653545
          },
          {
            "duration": 0.0625,
            "durationTicks": 48,
            "midi": 73,
            "name": "C#5",
            "ticks": 207216,
            "time": 269.8125,
            "velocity": 0.13385826771653545
          },
          {
            "duration": 0.0625,
            "durationTicks": 48,
            "midi": 76,
            "name": "E5",
            "ticks": 207216,
            "time": 269.8125,
            "velocity": 0.13385826771653545
          },
          {
            "duration": 0.0625,
            "durationTicks": 48,
            "midi": 81,
            "name": "A5",
            "ticks": 207216,
            "time": 269.8125,
            "velocity": 0.13385826771653545
          },
          {
            "duration": 0.0625,
            "durationTicks": 48,
            "midi": 71,
            "name": "B4",
            "ticks": 207264,
            "time": 269.875,
            "velocity": 0.13385826771653545
          },
          {
            "duration": 0.0625,
            "durationTicks": 48,
            "midi": 75,
            "name": "D#5",
            "ticks": 207264,
            "time": 269.875,
            "velocity": 0.13385826771653545
          },
          {
            "duration": 0.0625,
            "durationTicks": 48,
            "midi": 78,
            "name": "F#5",
            "ticks": 207264,
            "time": 269.875,
            "velocity": 0.13385826771653545
          },
          {
            "duration": 0.0625,
            "durationTicks": 48,
            "midi": 71,
            "name": "B4",
            "ticks": 207312,
            "time": 269.9375,
            "velocity": 0.13385826771653545
          },
          {
            "duration": 0.0625,
            "durationTicks": 48,
            "midi": 75,
            "name": "D#5",
            "ticks": 207312,
            "time": 269.9375,
            "velocity": 0.13385826771653545
          },
          {
            "duration": 0.0625,
            "durationTicks": 48,
            "midi": 78,
            "name": "F#5",
            "ticks": 207312,
            "time": 269.9375,
            "velocity": 0.13385826771653545
          },
          {
            "duration": 0.0625,
            "durationTicks": 48,
            "midi": 75,
            "name": "D#5",
            "ticks": 207360,
            "time": 270,
            "velocity": 0.13385826771653545
          },
          {
            "duration": 0.0625,
            "durationTicks": 48,
            "midi": 71,
            "name": "B4",
            "ticks": 207360,
            "time": 270,
            "velocity": 0.13385826771653545
          },
          {
            "duration": 0.0625,
            "durationTicks": 48,
            "midi": 78,
            "name": "F#5",
            "ticks": 207360,
            "time": 270,
            "velocity": 0.13385826771653545
          },
          {
            "duration": 0.0625,
            "durationTicks": 48,
            "midi": 75,
            "name": "D#5",
            "ticks": 207408,
            "time": 270.0625,
            "velocity": 0.13385826771653545
          },
          {
            "duration": 0.0625,
            "durationTicks": 48,
            "midi": 78,
            "name": "F#5",
            "ticks": 207408,
            "time": 270.0625,
            "velocity": 0.13385826771653545
          },
          {
            "duration": 0.0625,
            "durationTicks": 48,
            "midi": 71,
            "name": "B4",
            "ticks": 207408,
            "time": 270.0625,
            "velocity": 0.13385826771653545
          },
          {
            "duration": 0.0625,
            "durationTicks": 48,
            "midi": 78,
            "name": "F#5",
            "ticks": 207456,
            "time": 270.125,
            "velocity": 0.13385826771653545
          },
          {
            "duration": 0.0625,
            "durationTicks": 48,
            "midi": 71,
            "name": "B4",
            "ticks": 207456,
            "time": 270.125,
            "velocity": 0.13385826771653545
          },
          {
            "duration": 0.0625,
            "durationTicks": 48,
            "midi": 75,
            "name": "D#5",
            "ticks": 207456,
            "time": 270.125,
            "velocity": 0.13385826771653545
          },
          {
            "duration": 0.0625,
            "durationTicks": 48,
            "midi": 78,
            "name": "F#5",
            "ticks": 207504,
            "time": 270.1875,
            "velocity": 0.13385826771653545
          },
          {
            "duration": 0.0625,
            "durationTicks": 48,
            "midi": 75,
            "name": "D#5",
            "ticks": 207504,
            "time": 270.1875,
            "velocity": 0.13385826771653545
          },
          {
            "duration": 0.0625,
            "durationTicks": 48,
            "midi": 71,
            "name": "B4",
            "ticks": 207504,
            "time": 270.1875,
            "velocity": 0.13385826771653545
          },
          {
            "duration": 0.0625,
            "durationTicks": 48,
            "midi": 71,
            "name": "B4",
            "ticks": 207552,
            "time": 270.25,
            "velocity": 0.13385826771653545
          },
          {
            "duration": 0.0625,
            "durationTicks": 48,
            "midi": 75,
            "name": "D#5",
            "ticks": 207552,
            "time": 270.25,
            "velocity": 0.13385826771653545
          },
          {
            "duration": 0.0625,
            "durationTicks": 48,
            "midi": 78,
            "name": "F#5",
            "ticks": 207552,
            "time": 270.25,
            "velocity": 0.13385826771653545
          },
          {
            "duration": 0.0625,
            "durationTicks": 48,
            "midi": 75,
            "name": "D#5",
            "ticks": 207600,
            "time": 270.3125,
            "velocity": 0.13385826771653545
          },
          {
            "duration": 0.0625,
            "durationTicks": 48,
            "midi": 71,
            "name": "B4",
            "ticks": 207600,
            "time": 270.3125,
            "velocity": 0.13385826771653545
          },
          {
            "duration": 0.0625,
            "durationTicks": 48,
            "midi": 78,
            "name": "F#5",
            "ticks": 207600,
            "time": 270.3125,
            "velocity": 0.13385826771653545
          },
          {
            "duration": 0.0625,
            "durationTicks": 48,
            "midi": 75,
            "name": "D#5",
            "ticks": 207648,
            "time": 270.375,
            "velocity": 0.13385826771653545
          },
          {
            "duration": 0.0625,
            "durationTicks": 48,
            "midi": 78,
            "name": "F#5",
            "ticks": 207648,
            "time": 270.375,
            "velocity": 0.13385826771653545
          },
          {
            "duration": 0.0625,
            "durationTicks": 48,
            "midi": 71,
            "name": "B4",
            "ticks": 207648,
            "time": 270.375,
            "velocity": 0.13385826771653545
          },
          {
            "duration": 0.0625,
            "durationTicks": 48,
            "midi": 78,
            "name": "F#5",
            "ticks": 207696,
            "time": 270.4375,
            "velocity": 0.13385826771653545
          },
          {
            "duration": 0.0625,
            "durationTicks": 48,
            "midi": 75,
            "name": "D#5",
            "ticks": 207696,
            "time": 270.4375,
            "velocity": 0.13385826771653545
          },
          {
            "duration": 0.0625,
            "durationTicks": 48,
            "midi": 71,
            "name": "B4",
            "ticks": 207696,
            "time": 270.4375,
            "velocity": 0.13385826771653545
          },
          {
            "duration": 0.0625,
            "durationTicks": 48,
            "midi": 71,
            "name": "B4",
            "ticks": 207744,
            "time": 270.5,
            "velocity": 0.13385826771653545
          },
          {
            "duration": 0.0625,
            "durationTicks": 48,
            "midi": 78,
            "name": "F#5",
            "ticks": 207744,
            "time": 270.5,
            "velocity": 0.13385826771653545
          },
          {
            "duration": 0.0625,
            "durationTicks": 48,
            "midi": 75,
            "name": "D#5",
            "ticks": 207744,
            "time": 270.5,
            "velocity": 0.13385826771653545
          },
          {
            "duration": 0.0625,
            "durationTicks": 48,
            "midi": 75,
            "name": "D#5",
            "ticks": 207792,
            "time": 270.5625,
            "velocity": 0.13385826771653545
          },
          {
            "duration": 0.0625,
            "durationTicks": 48,
            "midi": 71,
            "name": "B4",
            "ticks": 207792,
            "time": 270.5625,
            "velocity": 0.13385826771653545
          },
          {
            "duration": 0.0625,
            "durationTicks": 48,
            "midi": 78,
            "name": "F#5",
            "ticks": 207792,
            "time": 270.5625,
            "velocity": 0.13385826771653545
          },
          {
            "duration": 0.0625,
            "durationTicks": 48,
            "midi": 78,
            "name": "F#5",
            "ticks": 207840,
            "time": 270.625,
            "velocity": 0.13385826771653545
          },
          {
            "duration": 0.0625,
            "durationTicks": 48,
            "midi": 75,
            "name": "D#5",
            "ticks": 207840,
            "time": 270.625,
            "velocity": 0.13385826771653545
          },
          {
            "duration": 0.0625,
            "durationTicks": 48,
            "midi": 71,
            "name": "B4",
            "ticks": 207840,
            "time": 270.625,
            "velocity": 0.13385826771653545
          },
          {
            "duration": 0.0625,
            "durationTicks": 48,
            "midi": 71,
            "name": "B4",
            "ticks": 207888,
            "time": 270.6875,
            "velocity": 0.13385826771653545
          },
          {
            "duration": 0.0625,
            "durationTicks": 48,
            "midi": 78,
            "name": "F#5",
            "ticks": 207888,
            "time": 270.6875,
            "velocity": 0.13385826771653545
          },
          {
            "duration": 0.0625,
            "durationTicks": 48,
            "midi": 75,
            "name": "D#5",
            "ticks": 207888,
            "time": 270.6875,
            "velocity": 0.13385826771653545
          },
          {
            "duration": 0.0625,
            "durationTicks": 48,
            "midi": 75,
            "name": "D#5",
            "ticks": 207936,
            "time": 270.75,
            "velocity": 0.13385826771653545
          },
          {
            "duration": 0.0625,
            "durationTicks": 48,
            "midi": 78,
            "name": "F#5",
            "ticks": 207936,
            "time": 270.75,
            "velocity": 0.13385826771653545
          },
          {
            "duration": 0.0625,
            "durationTicks": 48,
            "midi": 71,
            "name": "B4",
            "ticks": 207936,
            "time": 270.75,
            "velocity": 0.13385826771653545
          },
          {
            "duration": 0.0625,
            "durationTicks": 48,
            "midi": 75,
            "name": "D#5",
            "ticks": 207984,
            "time": 270.8125,
            "velocity": 0.13385826771653545
          },
          {
            "duration": 0.0625,
            "durationTicks": 48,
            "midi": 71,
            "name": "B4",
            "ticks": 207984,
            "time": 270.8125,
            "velocity": 0.13385826771653545
          },
          {
            "duration": 0.0625,
            "durationTicks": 48,
            "midi": 78,
            "name": "F#5",
            "ticks": 207984,
            "time": 270.8125,
            "velocity": 0.13385826771653545
          },
          {
            "duration": 0.0625,
            "durationTicks": 48,
            "midi": 78,
            "name": "F#5",
            "ticks": 208032,
            "time": 270.875,
            "velocity": 0.13385826771653545
          },
          {
            "duration": 0.0625,
            "durationTicks": 48,
            "midi": 71,
            "name": "B4",
            "ticks": 208032,
            "time": 270.875,
            "velocity": 0.13385826771653545
          },
          {
            "duration": 0.0625,
            "durationTicks": 48,
            "midi": 75,
            "name": "D#5",
            "ticks": 208032,
            "time": 270.875,
            "velocity": 0.13385826771653545
          },
          {
            "duration": 0.0625,
            "durationTicks": 48,
            "midi": 75,
            "name": "D#5",
            "ticks": 208080,
            "time": 270.9375,
            "velocity": 0.13385826771653545
          },
          {
            "duration": 0.0625,
            "durationTicks": 48,
            "midi": 78,
            "name": "F#5",
            "ticks": 208080,
            "time": 270.9375,
            "velocity": 0.13385826771653545
          },
          {
            "duration": 0.0625,
            "durationTicks": 48,
            "midi": 71,
            "name": "B4",
            "ticks": 208080,
            "time": 270.9375,
            "velocity": 0.13385826771653545
          },
          {
            "duration": 0.0625,
            "durationTicks": 48,
            "midi": 75,
            "name": "D#5",
            "ticks": 208128,
            "time": 271,
            "velocity": 0.13385826771653545
          },
          {
            "duration": 0.0625,
            "durationTicks": 48,
            "midi": 78,
            "name": "F#5",
            "ticks": 208128,
            "time": 271,
            "velocity": 0.13385826771653545
          },
          {
            "duration": 0.0625,
            "durationTicks": 48,
            "midi": 71,
            "name": "B4",
            "ticks": 208128,
            "time": 271,
            "velocity": 0.13385826771653545
          },
          {
            "duration": 0.0625,
            "durationTicks": 48,
            "midi": 78,
            "name": "F#5",
            "ticks": 208176,
            "time": 271.0625,
            "velocity": 0.13385826771653545
          },
          {
            "duration": 0.0625,
            "durationTicks": 48,
            "midi": 71,
            "name": "B4",
            "ticks": 208176,
            "time": 271.0625,
            "velocity": 0.13385826771653545
          },
          {
            "duration": 0.0625,
            "durationTicks": 48,
            "midi": 75,
            "name": "D#5",
            "ticks": 208176,
            "time": 271.0625,
            "velocity": 0.13385826771653545
          },
          {
            "duration": 0.0625,
            "durationTicks": 48,
            "midi": 78,
            "name": "F#5",
            "ticks": 208224,
            "time": 271.125,
            "velocity": 0.13385826771653545
          },
          {
            "duration": 0.0625,
            "durationTicks": 48,
            "midi": 75,
            "name": "D#5",
            "ticks": 208224,
            "time": 271.125,
            "velocity": 0.13385826771653545
          },
          {
            "duration": 0.0625,
            "durationTicks": 48,
            "midi": 71,
            "name": "B4",
            "ticks": 208224,
            "time": 271.125,
            "velocity": 0.13385826771653545
          },
          {
            "duration": 0.0625,
            "durationTicks": 48,
            "midi": 75,
            "name": "D#5",
            "ticks": 208272,
            "time": 271.1875,
            "velocity": 0.13385826771653545
          },
          {
            "duration": 0.0625,
            "durationTicks": 48,
            "midi": 71,
            "name": "B4",
            "ticks": 208272,
            "time": 271.1875,
            "velocity": 0.13385826771653545
          },
          {
            "duration": 0.0625,
            "durationTicks": 48,
            "midi": 78,
            "name": "F#5",
            "ticks": 208272,
            "time": 271.1875,
            "velocity": 0.13385826771653545
          },
          {
            "duration": 0.0625,
            "durationTicks": 48,
            "midi": 78,
            "name": "F#5",
            "ticks": 208320,
            "time": 271.25,
            "velocity": 0.13385826771653545
          },
          {
            "duration": 0.0625,
            "durationTicks": 48,
            "midi": 71,
            "name": "B4",
            "ticks": 208320,
            "time": 271.25,
            "velocity": 0.13385826771653545
          },
          {
            "duration": 0.0625,
            "durationTicks": 48,
            "midi": 75,
            "name": "D#5",
            "ticks": 208320,
            "time": 271.25,
            "velocity": 0.13385826771653545
          },
          {
            "duration": 0.0625,
            "durationTicks": 48,
            "midi": 71,
            "name": "B4",
            "ticks": 208368,
            "time": 271.3125,
            "velocity": 0.13385826771653545
          },
          {
            "duration": 0.0625,
            "durationTicks": 48,
            "midi": 75,
            "name": "D#5",
            "ticks": 208368,
            "time": 271.3125,
            "velocity": 0.13385826771653545
          },
          {
            "duration": 0.0625,
            "durationTicks": 48,
            "midi": 78,
            "name": "F#5",
            "ticks": 208368,
            "time": 271.3125,
            "velocity": 0.13385826771653545
          },
          {
            "duration": 0.0625,
            "durationTicks": 48,
            "midi": 71,
            "name": "B4",
            "ticks": 208416,
            "time": 271.375,
            "velocity": 0.13385826771653545
          },
          {
            "duration": 0.0625,
            "durationTicks": 48,
            "midi": 75,
            "name": "D#5",
            "ticks": 208416,
            "time": 271.375,
            "velocity": 0.13385826771653545
          },
          {
            "duration": 0.0625,
            "durationTicks": 48,
            "midi": 78,
            "name": "F#5",
            "ticks": 208416,
            "time": 271.375,
            "velocity": 0.13385826771653545
          },
          {
            "duration": 0.0625,
            "durationTicks": 48,
            "midi": 78,
            "name": "F#5",
            "ticks": 208464,
            "time": 271.4375,
            "velocity": 0.13385826771653545
          },
          {
            "duration": 0.0625,
            "durationTicks": 48,
            "midi": 71,
            "name": "B4",
            "ticks": 208464,
            "time": 271.4375,
            "velocity": 0.13385826771653545
          },
          {
            "duration": 0.0625,
            "durationTicks": 48,
            "midi": 75,
            "name": "D#5",
            "ticks": 208464,
            "time": 271.4375,
            "velocity": 0.13385826771653545
          },
          {
            "duration": 0.0625,
            "durationTicks": 48,
            "midi": 71,
            "name": "B4",
            "ticks": 208512,
            "time": 271.5,
            "velocity": 0.13385826771653545
          },
          {
            "duration": 0.0625,
            "durationTicks": 48,
            "midi": 75,
            "name": "D#5",
            "ticks": 208512,
            "time": 271.5,
            "velocity": 0.13385826771653545
          },
          {
            "duration": 0.0625,
            "durationTicks": 48,
            "midi": 78,
            "name": "F#5",
            "ticks": 208512,
            "time": 271.5,
            "velocity": 0.13385826771653545
          },
          {
            "duration": 0.0625,
            "durationTicks": 48,
            "midi": 78,
            "name": "F#5",
            "ticks": 208560,
            "time": 271.5625,
            "velocity": 0.13385826771653545
          },
          {
            "duration": 0.0625,
            "durationTicks": 48,
            "midi": 71,
            "name": "B4",
            "ticks": 208560,
            "time": 271.5625,
            "velocity": 0.13385826771653545
          },
          {
            "duration": 0.0625,
            "durationTicks": 48,
            "midi": 75,
            "name": "D#5",
            "ticks": 208560,
            "time": 271.5625,
            "velocity": 0.13385826771653545
          },
          {
            "duration": 0.0625,
            "durationTicks": 48,
            "midi": 71,
            "name": "B4",
            "ticks": 208608,
            "time": 271.625,
            "velocity": 0.13385826771653545
          },
          {
            "duration": 0.0625,
            "durationTicks": 48,
            "midi": 75,
            "name": "D#5",
            "ticks": 208608,
            "time": 271.625,
            "velocity": 0.13385826771653545
          },
          {
            "duration": 0.0625,
            "durationTicks": 48,
            "midi": 78,
            "name": "F#5",
            "ticks": 208608,
            "time": 271.625,
            "velocity": 0.13385826771653545
          },
          {
            "duration": 0.0625,
            "durationTicks": 48,
            "midi": 78,
            "name": "F#5",
            "ticks": 208656,
            "time": 271.6875,
            "velocity": 0.13385826771653545
          },
          {
            "duration": 0.0625,
            "durationTicks": 48,
            "midi": 71,
            "name": "B4",
            "ticks": 208656,
            "time": 271.6875,
            "velocity": 0.13385826771653545
          },
          {
            "duration": 0.0625,
            "durationTicks": 48,
            "midi": 75,
            "name": "D#5",
            "ticks": 208656,
            "time": 271.6875,
            "velocity": 0.13385826771653545
          },
          {
            "duration": 0.0625,
            "durationTicks": 48,
            "midi": 71,
            "name": "B4",
            "ticks": 208704,
            "time": 271.75,
            "velocity": 0.13385826771653545
          },
          {
            "duration": 0.0625,
            "durationTicks": 48,
            "midi": 78,
            "name": "F#5",
            "ticks": 208704,
            "time": 271.75,
            "velocity": 0.13385826771653545
          },
          {
            "duration": 0.0625,
            "durationTicks": 48,
            "midi": 75,
            "name": "D#5",
            "ticks": 208704,
            "time": 271.75,
            "velocity": 0.13385826771653545
          },
          {
            "duration": 0.0625,
            "durationTicks": 48,
            "midi": 78,
            "name": "F#5",
            "ticks": 208752,
            "time": 271.8125,
            "velocity": 0.13385826771653545
          },
          {
            "duration": 0.0625,
            "durationTicks": 48,
            "midi": 71,
            "name": "B4",
            "ticks": 208752,
            "time": 271.8125,
            "velocity": 0.13385826771653545
          },
          {
            "duration": 0.0625,
            "durationTicks": 48,
            "midi": 75,
            "name": "D#5",
            "ticks": 208752,
            "time": 271.8125,
            "velocity": 0.13385826771653545
          },
          {
            "duration": 0.0625,
            "durationTicks": 48,
            "midi": 78,
            "name": "F#5",
            "ticks": 208800,
            "time": 271.875,
            "velocity": 0.13385826771653545
          },
          {
            "duration": 0.0625,
            "durationTicks": 48,
            "midi": 70,
            "name": "A#4",
            "ticks": 208800,
            "time": 271.875,
            "velocity": 0.13385826771653545
          },
          {
            "duration": 0.0625,
            "durationTicks": 48,
            "midi": 73,
            "name": "C#5",
            "ticks": 208800,
            "time": 271.875,
            "velocity": 0.13385826771653545
          },
          {
            "duration": 0.0625,
            "durationTicks": 48,
            "midi": 73,
            "name": "C#5",
            "ticks": 208848,
            "time": 271.9375,
            "velocity": 0.13385826771653545
          },
          {
            "duration": 0.0625,
            "durationTicks": 48,
            "midi": 78,
            "name": "F#5",
            "ticks": 208848,
            "time": 271.9375,
            "velocity": 0.13385826771653545
          },
          {
            "duration": 0.0625,
            "durationTicks": 48,
            "midi": 70,
            "name": "A#4",
            "ticks": 208848,
            "time": 271.9375,
            "velocity": 0.13385826771653545
          },
          {
            "duration": 0.0625,
            "durationTicks": 48,
            "midi": 70,
            "name": "A#4",
            "ticks": 208896,
            "time": 272,
            "velocity": 0.13385826771653545
          },
          {
            "duration": 0.0625,
            "durationTicks": 48,
            "midi": 73,
            "name": "C#5",
            "ticks": 208896,
            "time": 272,
            "velocity": 0.13385826771653545
          },
          {
            "duration": 0.0625,
            "durationTicks": 48,
            "midi": 78,
            "name": "F#5",
            "ticks": 208896,
            "time": 272,
            "velocity": 0.13385826771653545
          },
          {
            "duration": 0.0625,
            "durationTicks": 48,
            "midi": 78,
            "name": "F#5",
            "ticks": 208944,
            "time": 272.0625,
            "velocity": 0.13385826771653545
          },
          {
            "duration": 0.0625,
            "durationTicks": 48,
            "midi": 73,
            "name": "C#5",
            "ticks": 208944,
            "time": 272.0625,
            "velocity": 0.13385826771653545
          },
          {
            "duration": 0.0625,
            "durationTicks": 48,
            "midi": 70,
            "name": "A#4",
            "ticks": 208944,
            "time": 272.0625,
            "velocity": 0.13385826771653545
          },
          {
            "duration": 0.0625,
            "durationTicks": 48,
            "midi": 70,
            "name": "A#4",
            "ticks": 208992,
            "time": 272.125,
            "velocity": 0.13385826771653545
          },
          {
            "duration": 0.0625,
            "durationTicks": 48,
            "midi": 73,
            "name": "C#5",
            "ticks": 208992,
            "time": 272.125,
            "velocity": 0.13385826771653545
          },
          {
            "duration": 0.0625,
            "durationTicks": 48,
            "midi": 78,
            "name": "F#5",
            "ticks": 208992,
            "time": 272.125,
            "velocity": 0.13385826771653545
          },
          {
            "duration": 0.0625,
            "durationTicks": 48,
            "midi": 70,
            "name": "A#4",
            "ticks": 209040,
            "time": 272.1875,
            "velocity": 0.13385826771653545
          },
          {
            "duration": 0.0625,
            "durationTicks": 48,
            "midi": 73,
            "name": "C#5",
            "ticks": 209040,
            "time": 272.1875,
            "velocity": 0.13385826771653545
          },
          {
            "duration": 0.0625,
            "durationTicks": 48,
            "midi": 78,
            "name": "F#5",
            "ticks": 209040,
            "time": 272.1875,
            "velocity": 0.13385826771653545
          },
          {
            "duration": 0.0625,
            "durationTicks": 48,
            "midi": 78,
            "name": "F#5",
            "ticks": 209088,
            "time": 272.25,
            "velocity": 0.13385826771653545
          },
          {
            "duration": 0.0625,
            "durationTicks": 48,
            "midi": 73,
            "name": "C#5",
            "ticks": 209088,
            "time": 272.25,
            "velocity": 0.13385826771653545
          },
          {
            "duration": 0.0625,
            "durationTicks": 48,
            "midi": 70,
            "name": "A#4",
            "ticks": 209088,
            "time": 272.25,
            "velocity": 0.13385826771653545
          },
          {
            "duration": 0.0625,
            "durationTicks": 48,
            "midi": 73,
            "name": "C#5",
            "ticks": 209136,
            "time": 272.3125,
            "velocity": 0.13385826771653545
          },
          {
            "duration": 0.0625,
            "durationTicks": 48,
            "midi": 78,
            "name": "F#5",
            "ticks": 209136,
            "time": 272.3125,
            "velocity": 0.13385826771653545
          },
          {
            "duration": 0.0625,
            "durationTicks": 48,
            "midi": 70,
            "name": "A#4",
            "ticks": 209136,
            "time": 272.3125,
            "velocity": 0.13385826771653545
          },
          {
            "duration": 0.0625,
            "durationTicks": 48,
            "midi": 73,
            "name": "C#5",
            "ticks": 209184,
            "time": 272.375,
            "velocity": 0.13385826771653545
          },
          {
            "duration": 0.0625,
            "durationTicks": 48,
            "midi": 78,
            "name": "F#5",
            "ticks": 209184,
            "time": 272.375,
            "velocity": 0.13385826771653545
          },
          {
            "duration": 0.0625,
            "durationTicks": 48,
            "midi": 70,
            "name": "A#4",
            "ticks": 209184,
            "time": 272.375,
            "velocity": 0.13385826771653545
          },
          {
            "duration": 0.0625,
            "durationTicks": 48,
            "midi": 70,
            "name": "A#4",
            "ticks": 209232,
            "time": 272.4375,
            "velocity": 0.13385826771653545
          },
          {
            "duration": 0.0625,
            "durationTicks": 48,
            "midi": 78,
            "name": "F#5",
            "ticks": 209232,
            "time": 272.4375,
            "velocity": 0.13385826771653545
          },
          {
            "duration": 0.0625,
            "durationTicks": 48,
            "midi": 73,
            "name": "C#5",
            "ticks": 209232,
            "time": 272.4375,
            "velocity": 0.13385826771653545
          },
          {
            "duration": 0.0625,
            "durationTicks": 48,
            "midi": 70,
            "name": "A#4",
            "ticks": 209280,
            "time": 272.5,
            "velocity": 0.13385826771653545
          },
          {
            "duration": 0.0625,
            "durationTicks": 48,
            "midi": 73,
            "name": "C#5",
            "ticks": 209280,
            "time": 272.5,
            "velocity": 0.13385826771653545
          },
          {
            "duration": 0.0625,
            "durationTicks": 48,
            "midi": 78,
            "name": "F#5",
            "ticks": 209280,
            "time": 272.5,
            "velocity": 0.13385826771653545
          },
          {
            "duration": 0.0625,
            "durationTicks": 48,
            "midi": 73,
            "name": "C#5",
            "ticks": 209328,
            "time": 272.5625,
            "velocity": 0.13385826771653545
          },
          {
            "duration": 0.0625,
            "durationTicks": 48,
            "midi": 70,
            "name": "A#4",
            "ticks": 209328,
            "time": 272.5625,
            "velocity": 0.13385826771653545
          },
          {
            "duration": 0.0625,
            "durationTicks": 48,
            "midi": 78,
            "name": "F#5",
            "ticks": 209328,
            "time": 272.5625,
            "velocity": 0.13385826771653545
          },
          {
            "duration": 0.0625,
            "durationTicks": 48,
            "midi": 78,
            "name": "F#5",
            "ticks": 209376,
            "time": 272.625,
            "velocity": 0.13385826771653545
          },
          {
            "duration": 0.0625,
            "durationTicks": 48,
            "midi": 70,
            "name": "A#4",
            "ticks": 209376,
            "time": 272.625,
            "velocity": 0.13385826771653545
          },
          {
            "duration": 0.0625,
            "durationTicks": 48,
            "midi": 73,
            "name": "C#5",
            "ticks": 209376,
            "time": 272.625,
            "velocity": 0.13385826771653545
          },
          {
            "duration": 0.0625,
            "durationTicks": 48,
            "midi": 78,
            "name": "F#5",
            "ticks": 209424,
            "time": 272.6875,
            "velocity": 0.13385826771653545
          },
          {
            "duration": 0.0625,
            "durationTicks": 48,
            "midi": 70,
            "name": "A#4",
            "ticks": 209424,
            "time": 272.6875,
            "velocity": 0.13385826771653545
          },
          {
            "duration": 0.0625,
            "durationTicks": 48,
            "midi": 73,
            "name": "C#5",
            "ticks": 209424,
            "time": 272.6875,
            "velocity": 0.13385826771653545
          },
          {
            "duration": 0.0625,
            "durationTicks": 48,
            "midi": 73,
            "name": "C#5",
            "ticks": 209472,
            "time": 272.75,
            "velocity": 0.13385826771653545
          },
          {
            "duration": 0.0625,
            "durationTicks": 48,
            "midi": 78,
            "name": "F#5",
            "ticks": 209472,
            "time": 272.75,
            "velocity": 0.13385826771653545
          },
          {
            "duration": 0.0625,
            "durationTicks": 48,
            "midi": 70,
            "name": "A#4",
            "ticks": 209472,
            "time": 272.75,
            "velocity": 0.13385826771653545
          },
          {
            "duration": 0.0625,
            "durationTicks": 48,
            "midi": 78,
            "name": "F#5",
            "ticks": 209520,
            "time": 272.8125,
            "velocity": 0.13385826771653545
          },
          {
            "duration": 0.0625,
            "durationTicks": 48,
            "midi": 70,
            "name": "A#4",
            "ticks": 209520,
            "time": 272.8125,
            "velocity": 0.13385826771653545
          },
          {
            "duration": 0.0625,
            "durationTicks": 48,
            "midi": 73,
            "name": "C#5",
            "ticks": 209520,
            "time": 272.8125,
            "velocity": 0.13385826771653545
          },
          {
            "duration": 0.0625,
            "durationTicks": 48,
            "midi": 70,
            "name": "A#4",
            "ticks": 209568,
            "time": 272.875,
            "velocity": 0.13385826771653545
          },
          {
            "duration": 0.0625,
            "durationTicks": 48,
            "midi": 78,
            "name": "F#5",
            "ticks": 209568,
            "time": 272.875,
            "velocity": 0.13385826771653545
          },
          {
            "duration": 0.0625,
            "durationTicks": 48,
            "midi": 73,
            "name": "C#5",
            "ticks": 209568,
            "time": 272.875,
            "velocity": 0.13385826771653545
          },
          {
            "duration": 0.0625,
            "durationTicks": 48,
            "midi": 70,
            "name": "A#4",
            "ticks": 209616,
            "time": 272.9375,
            "velocity": 0.13385826771653545
          },
          {
            "duration": 0.0625,
            "durationTicks": 48,
            "midi": 73,
            "name": "C#5",
            "ticks": 209616,
            "time": 272.9375,
            "velocity": 0.13385826771653545
          },
          {
            "duration": 0.0625,
            "durationTicks": 48,
            "midi": 78,
            "name": "F#5",
            "ticks": 209616,
            "time": 272.9375,
            "velocity": 0.13385826771653545
          },
          {
            "duration": 0.0625,
            "durationTicks": 48,
            "midi": 73,
            "name": "C#5",
            "ticks": 209664,
            "time": 273,
            "velocity": 0.13385826771653545
          },
          {
            "duration": 0.0625,
            "durationTicks": 48,
            "midi": 78,
            "name": "F#5",
            "ticks": 209664,
            "time": 273,
            "velocity": 0.13385826771653545
          },
          {
            "duration": 0.0625,
            "durationTicks": 48,
            "midi": 70,
            "name": "A#4",
            "ticks": 209664,
            "time": 273,
            "velocity": 0.13385826771653545
          },
          {
            "duration": 0.0625,
            "durationTicks": 48,
            "midi": 73,
            "name": "C#5",
            "ticks": 209712,
            "time": 273.0625,
            "velocity": 0.13385826771653545
          },
          {
            "duration": 0.0625,
            "durationTicks": 48,
            "midi": 78,
            "name": "F#5",
            "ticks": 209712,
            "time": 273.0625,
            "velocity": 0.13385826771653545
          },
          {
            "duration": 0.0625,
            "durationTicks": 48,
            "midi": 70,
            "name": "A#4",
            "ticks": 209712,
            "time": 273.0625,
            "velocity": 0.13385826771653545
          },
          {
            "duration": 0.0625,
            "durationTicks": 48,
            "midi": 78,
            "name": "F#5",
            "ticks": 209760,
            "time": 273.125,
            "velocity": 0.13385826771653545
          },
          {
            "duration": 0.0625,
            "durationTicks": 48,
            "midi": 73,
            "name": "C#5",
            "ticks": 209760,
            "time": 273.125,
            "velocity": 0.13385826771653545
          },
          {
            "duration": 0.0625,
            "durationTicks": 48,
            "midi": 70,
            "name": "A#4",
            "ticks": 209760,
            "time": 273.125,
            "velocity": 0.13385826771653545
          },
          {
            "duration": 0.0625,
            "durationTicks": 48,
            "midi": 70,
            "name": "A#4",
            "ticks": 209808,
            "time": 273.1875,
            "velocity": 0.13385826771653545
          },
          {
            "duration": 0.0625,
            "durationTicks": 48,
            "midi": 73,
            "name": "C#5",
            "ticks": 209808,
            "time": 273.1875,
            "velocity": 0.13385826771653545
          },
          {
            "duration": 0.0625,
            "durationTicks": 48,
            "midi": 78,
            "name": "F#5",
            "ticks": 209808,
            "time": 273.1875,
            "velocity": 0.13385826771653545
          },
          {
            "duration": 0.0625,
            "durationTicks": 48,
            "midi": 70,
            "name": "A#4",
            "ticks": 209856,
            "time": 273.25,
            "velocity": 0.13385826771653545
          },
          {
            "duration": 0.0625,
            "durationTicks": 48,
            "midi": 73,
            "name": "C#5",
            "ticks": 209856,
            "time": 273.25,
            "velocity": 0.13385826771653545
          },
          {
            "duration": 0.0625,
            "durationTicks": 48,
            "midi": 78,
            "name": "F#5",
            "ticks": 209856,
            "time": 273.25,
            "velocity": 0.13385826771653545
          },
          {
            "duration": 0.0625,
            "durationTicks": 48,
            "midi": 73,
            "name": "C#5",
            "ticks": 209904,
            "time": 273.3125,
            "velocity": 0.13385826771653545
          },
          {
            "duration": 0.0625,
            "durationTicks": 48,
            "midi": 70,
            "name": "A#4",
            "ticks": 209904,
            "time": 273.3125,
            "velocity": 0.13385826771653545
          },
          {
            "duration": 0.0625,
            "durationTicks": 48,
            "midi": 78,
            "name": "F#5",
            "ticks": 209904,
            "time": 273.3125,
            "velocity": 0.13385826771653545
          },
          {
            "duration": 0.0625,
            "durationTicks": 48,
            "midi": 70,
            "name": "A#4",
            "ticks": 209952,
            "time": 273.375,
            "velocity": 0.13385826771653545
          },
          {
            "duration": 0.0625,
            "durationTicks": 48,
            "midi": 78,
            "name": "F#5",
            "ticks": 209952,
            "time": 273.375,
            "velocity": 0.13385826771653545
          },
          {
            "duration": 0.0625,
            "durationTicks": 48,
            "midi": 73,
            "name": "C#5",
            "ticks": 209952,
            "time": 273.375,
            "velocity": 0.13385826771653545
          },
          {
            "duration": 0.0625,
            "durationTicks": 48,
            "midi": 70,
            "name": "A#4",
            "ticks": 210000,
            "time": 273.4375,
            "velocity": 0.13385826771653545
          },
          {
            "duration": 0.0625,
            "durationTicks": 48,
            "midi": 73,
            "name": "C#5",
            "ticks": 210000,
            "time": 273.4375,
            "velocity": 0.13385826771653545
          },
          {
            "duration": 0.0625,
            "durationTicks": 48,
            "midi": 78,
            "name": "F#5",
            "ticks": 210000,
            "time": 273.4375,
            "velocity": 0.13385826771653545
          },
          {
            "duration": 0.0625,
            "durationTicks": 48,
            "midi": 73,
            "name": "C#5",
            "ticks": 210048,
            "time": 273.5,
            "velocity": 0.13385826771653545
          },
          {
            "duration": 0.0625,
            "durationTicks": 48,
            "midi": 78,
            "name": "F#5",
            "ticks": 210048,
            "time": 273.5,
            "velocity": 0.13385826771653545
          },
          {
            "duration": 0.0625,
            "durationTicks": 48,
            "midi": 70,
            "name": "A#4",
            "ticks": 210048,
            "time": 273.5,
            "velocity": 0.13385826771653545
          },
          {
            "duration": 0.0625,
            "durationTicks": 48,
            "midi": 73,
            "name": "C#5",
            "ticks": 210096,
            "time": 273.5625,
            "velocity": 0.13385826771653545
          },
          {
            "duration": 0.0625,
            "durationTicks": 48,
            "midi": 78,
            "name": "F#5",
            "ticks": 210096,
            "time": 273.5625,
            "velocity": 0.13385826771653545
          },
          {
            "duration": 0.0625,
            "durationTicks": 48,
            "midi": 70,
            "name": "A#4",
            "ticks": 210096,
            "time": 273.5625,
            "velocity": 0.13385826771653545
          },
          {
            "duration": 0.0625,
            "durationTicks": 48,
            "midi": 78,
            "name": "F#5",
            "ticks": 210144,
            "time": 273.625,
            "velocity": 0.13385826771653545
          },
          {
            "duration": 0.0625,
            "durationTicks": 48,
            "midi": 70,
            "name": "A#4",
            "ticks": 210144,
            "time": 273.625,
            "velocity": 0.13385826771653545
          },
          {
            "duration": 0.0625,
            "durationTicks": 48,
            "midi": 73,
            "name": "C#5",
            "ticks": 210144,
            "time": 273.625,
            "velocity": 0.13385826771653545
          },
          {
            "duration": 0.0625,
            "durationTicks": 48,
            "midi": 73,
            "name": "C#5",
            "ticks": 210192,
            "time": 273.6875,
            "velocity": 0.13385826771653545
          },
          {
            "duration": 0.0625,
            "durationTicks": 48,
            "midi": 70,
            "name": "A#4",
            "ticks": 210192,
            "time": 273.6875,
            "velocity": 0.13385826771653545
          },
          {
            "duration": 0.0625,
            "durationTicks": 48,
            "midi": 78,
            "name": "F#5",
            "ticks": 210192,
            "time": 273.6875,
            "velocity": 0.13385826771653545
          },
          {
            "duration": 0.0625,
            "durationTicks": 48,
            "midi": 70,
            "name": "A#4",
            "ticks": 210240,
            "time": 273.75,
            "velocity": 0.13385826771653545
          },
          {
            "duration": 0.0625,
            "durationTicks": 48,
            "midi": 78,
            "name": "F#5",
            "ticks": 210240,
            "time": 273.75,
            "velocity": 0.13385826771653545
          },
          {
            "duration": 0.0625,
            "durationTicks": 48,
            "midi": 73,
            "name": "C#5",
            "ticks": 210240,
            "time": 273.75,
            "velocity": 0.13385826771653545
          },
          {
            "duration": 0.0625,
            "durationTicks": 48,
            "midi": 73,
            "name": "C#5",
            "ticks": 210288,
            "time": 273.8125,
            "velocity": 0.13385826771653545
          },
          {
            "duration": 0.0625,
            "durationTicks": 48,
            "midi": 70,
            "name": "A#4",
            "ticks": 210288,
            "time": 273.8125,
            "velocity": 0.13385826771653545
          },
          {
            "duration": 0.0625,
            "durationTicks": 48,
            "midi": 78,
            "name": "F#5",
            "ticks": 210288,
            "time": 273.8125,
            "velocity": 0.13385826771653545
          },
          {
            "duration": 0.0625,
            "durationTicks": 48,
            "midi": 76,
            "name": "E5",
            "ticks": 210336,
            "time": 273.875,
            "velocity": 0.13385826771653545
          },
          {
            "duration": 0.0625,
            "durationTicks": 48,
            "midi": 73,
            "name": "C#5",
            "ticks": 210336,
            "time": 273.875,
            "velocity": 0.13385826771653545
          },
          {
            "duration": 0.0625,
            "durationTicks": 48,
            "midi": 80,
            "name": "G#5",
            "ticks": 210336,
            "time": 273.875,
            "velocity": 0.13385826771653545
          },
          {
            "duration": 0.0625,
            "durationTicks": 48,
            "midi": 73,
            "name": "C#5",
            "ticks": 210384,
            "time": 273.9375,
            "velocity": 0.13385826771653545
          },
          {
            "duration": 0.0625,
            "durationTicks": 48,
            "midi": 80,
            "name": "G#5",
            "ticks": 210384,
            "time": 273.9375,
            "velocity": 0.13385826771653545
          },
          {
            "duration": 0.0625,
            "durationTicks": 48,
            "midi": 76,
            "name": "E5",
            "ticks": 210384,
            "time": 273.9375,
            "velocity": 0.13385826771653545
          },
          {
            "duration": 0.0625,
            "durationTicks": 48,
            "midi": 73,
            "name": "C#5",
            "ticks": 210432,
            "time": 274,
            "velocity": 0.13385826771653545
          },
          {
            "duration": 0.0625,
            "durationTicks": 48,
            "midi": 80,
            "name": "G#5",
            "ticks": 210432,
            "time": 274,
            "velocity": 0.13385826771653545
          },
          {
            "duration": 0.0625,
            "durationTicks": 48,
            "midi": 76,
            "name": "E5",
            "ticks": 210432,
            "time": 274,
            "velocity": 0.13385826771653545
          },
          {
            "duration": 0.0625,
            "durationTicks": 48,
            "midi": 80,
            "name": "G#5",
            "ticks": 210480,
            "time": 274.0625,
            "velocity": 0.13385826771653545
          },
          {
            "duration": 0.0625,
            "durationTicks": 48,
            "midi": 76,
            "name": "E5",
            "ticks": 210480,
            "time": 274.0625,
            "velocity": 0.13385826771653545
          },
          {
            "duration": 0.0625,
            "durationTicks": 48,
            "midi": 73,
            "name": "C#5",
            "ticks": 210480,
            "time": 274.0625,
            "velocity": 0.13385826771653545
          },
          {
            "duration": 0.0625,
            "durationTicks": 48,
            "midi": 76,
            "name": "E5",
            "ticks": 210528,
            "time": 274.125,
            "velocity": 0.13385826771653545
          },
          {
            "duration": 0.0625,
            "durationTicks": 48,
            "midi": 80,
            "name": "G#5",
            "ticks": 210528,
            "time": 274.125,
            "velocity": 0.13385826771653545
          },
          {
            "duration": 0.0625,
            "durationTicks": 48,
            "midi": 73,
            "name": "C#5",
            "ticks": 210528,
            "time": 274.125,
            "velocity": 0.13385826771653545
          },
          {
            "duration": 0.0625,
            "durationTicks": 48,
            "midi": 76,
            "name": "E5",
            "ticks": 210576,
            "time": 274.1875,
            "velocity": 0.13385826771653545
          },
          {
            "duration": 0.0625,
            "durationTicks": 48,
            "midi": 73,
            "name": "C#5",
            "ticks": 210576,
            "time": 274.1875,
            "velocity": 0.13385826771653545
          },
          {
            "duration": 0.0625,
            "durationTicks": 48,
            "midi": 80,
            "name": "G#5",
            "ticks": 210576,
            "time": 274.1875,
            "velocity": 0.13385826771653545
          },
          {
            "duration": 0.0625,
            "durationTicks": 48,
            "midi": 76,
            "name": "E5",
            "ticks": 210624,
            "time": 274.25,
            "velocity": 0.13385826771653545
          },
          {
            "duration": 0.0625,
            "durationTicks": 48,
            "midi": 73,
            "name": "C#5",
            "ticks": 210624,
            "time": 274.25,
            "velocity": 0.13385826771653545
          },
          {
            "duration": 0.0625,
            "durationTicks": 48,
            "midi": 80,
            "name": "G#5",
            "ticks": 210624,
            "time": 274.25,
            "velocity": 0.13385826771653545
          },
          {
            "duration": 0.0625,
            "durationTicks": 48,
            "midi": 80,
            "name": "G#5",
            "ticks": 210672,
            "time": 274.3125,
            "velocity": 0.13385826771653545
          },
          {
            "duration": 0.0625,
            "durationTicks": 48,
            "midi": 73,
            "name": "C#5",
            "ticks": 210672,
            "time": 274.3125,
            "velocity": 0.13385826771653545
          },
          {
            "duration": 0.0625,
            "durationTicks": 48,
            "midi": 76,
            "name": "E5",
            "ticks": 210672,
            "time": 274.3125,
            "velocity": 0.13385826771653545
          },
          {
            "duration": 0.0625,
            "durationTicks": 48,
            "midi": 73,
            "name": "C#5",
            "ticks": 210720,
            "time": 274.375,
            "velocity": 0.13385826771653545
          },
          {
            "duration": 0.0625,
            "durationTicks": 48,
            "midi": 80,
            "name": "G#5",
            "ticks": 210720,
            "time": 274.375,
            "velocity": 0.13385826771653545
          },
          {
            "duration": 0.0625,
            "durationTicks": 48,
            "midi": 76,
            "name": "E5",
            "ticks": 210720,
            "time": 274.375,
            "velocity": 0.13385826771653545
          },
          {
            "duration": 0.0625,
            "durationTicks": 48,
            "midi": 73,
            "name": "C#5",
            "ticks": 210768,
            "time": 274.4375,
            "velocity": 0.13385826771653545
          },
          {
            "duration": 0.0625,
            "durationTicks": 48,
            "midi": 76,
            "name": "E5",
            "ticks": 210768,
            "time": 274.4375,
            "velocity": 0.13385826771653545
          },
          {
            "duration": 0.0625,
            "durationTicks": 48,
            "midi": 80,
            "name": "G#5",
            "ticks": 210768,
            "time": 274.4375,
            "velocity": 0.13385826771653545
          },
          {
            "duration": 0.0625,
            "durationTicks": 48,
            "midi": 73,
            "name": "C#5",
            "ticks": 210816,
            "time": 274.5,
            "velocity": 0.13385826771653545
          },
          {
            "duration": 0.0625,
            "durationTicks": 48,
            "midi": 76,
            "name": "E5",
            "ticks": 210816,
            "time": 274.5,
            "velocity": 0.13385826771653545
          },
          {
            "duration": 0.0625,
            "durationTicks": 48,
            "midi": 80,
            "name": "G#5",
            "ticks": 210816,
            "time": 274.5,
            "velocity": 0.13385826771653545
          },
          {
            "duration": 0.0625,
            "durationTicks": 48,
            "midi": 80,
            "name": "G#5",
            "ticks": 210864,
            "time": 274.5625,
            "velocity": 0.13385826771653545
          },
          {
            "duration": 0.0625,
            "durationTicks": 48,
            "midi": 73,
            "name": "C#5",
            "ticks": 210864,
            "time": 274.5625,
            "velocity": 0.13385826771653545
          },
          {
            "duration": 0.0625,
            "durationTicks": 48,
            "midi": 76,
            "name": "E5",
            "ticks": 210864,
            "time": 274.5625,
            "velocity": 0.13385826771653545
          },
          {
            "duration": 0.0625,
            "durationTicks": 48,
            "midi": 76,
            "name": "E5",
            "ticks": 210912,
            "time": 274.625,
            "velocity": 0.13385826771653545
          },
          {
            "duration": 0.0625,
            "durationTicks": 48,
            "midi": 73,
            "name": "C#5",
            "ticks": 210912,
            "time": 274.625,
            "velocity": 0.13385826771653545
          },
          {
            "duration": 0.0625,
            "durationTicks": 48,
            "midi": 80,
            "name": "G#5",
            "ticks": 210912,
            "time": 274.625,
            "velocity": 0.13385826771653545
          },
          {
            "duration": 0.0625,
            "durationTicks": 48,
            "midi": 76,
            "name": "E5",
            "ticks": 210960,
            "time": 274.6875,
            "velocity": 0.13385826771653545
          },
          {
            "duration": 0.0625,
            "durationTicks": 48,
            "midi": 80,
            "name": "G#5",
            "ticks": 210960,
            "time": 274.6875,
            "velocity": 0.13385826771653545
          },
          {
            "duration": 0.0625,
            "durationTicks": 48,
            "midi": 73,
            "name": "C#5",
            "ticks": 210960,
            "time": 274.6875,
            "velocity": 0.13385826771653545
          },
          {
            "duration": 0.0625,
            "durationTicks": 48,
            "midi": 73,
            "name": "C#5",
            "ticks": 211008,
            "time": 274.75,
            "velocity": 0.13385826771653545
          },
          {
            "duration": 0.0625,
            "durationTicks": 48,
            "midi": 76,
            "name": "E5",
            "ticks": 211008,
            "time": 274.75,
            "velocity": 0.13385826771653545
          },
          {
            "duration": 0.0625,
            "durationTicks": 48,
            "midi": 80,
            "name": "G#5",
            "ticks": 211008,
            "time": 274.75,
            "velocity": 0.13385826771653545
          },
          {
            "duration": 0.0625,
            "durationTicks": 48,
            "midi": 76,
            "name": "E5",
            "ticks": 211056,
            "time": 274.8125,
            "velocity": 0.13385826771653545
          },
          {
            "duration": 0.0625,
            "durationTicks": 48,
            "midi": 80,
            "name": "G#5",
            "ticks": 211056,
            "time": 274.8125,
            "velocity": 0.13385826771653545
          },
          {
            "duration": 0.0625,
            "durationTicks": 48,
            "midi": 73,
            "name": "C#5",
            "ticks": 211056,
            "time": 274.8125,
            "velocity": 0.13385826771653545
          },
          {
            "duration": 0.0625,
            "durationTicks": 48,
            "midi": 80,
            "name": "G#5",
            "ticks": 211104,
            "time": 274.875,
            "velocity": 0.13385826771653545
          },
          {
            "duration": 0.0625,
            "durationTicks": 48,
            "midi": 73,
            "name": "C#5",
            "ticks": 211104,
            "time": 274.875,
            "velocity": 0.13385826771653545
          },
          {
            "duration": 0.0625,
            "durationTicks": 48,
            "midi": 76,
            "name": "E5",
            "ticks": 211104,
            "time": 274.875,
            "velocity": 0.13385826771653545
          },
          {
            "duration": 0.0625,
            "durationTicks": 48,
            "midi": 73,
            "name": "C#5",
            "ticks": 211152,
            "time": 274.9375,
            "velocity": 0.13385826771653545
          },
          {
            "duration": 0.0625,
            "durationTicks": 48,
            "midi": 80,
            "name": "G#5",
            "ticks": 211152,
            "time": 274.9375,
            "velocity": 0.13385826771653545
          },
          {
            "duration": 0.0625,
            "durationTicks": 48,
            "midi": 76,
            "name": "E5",
            "ticks": 211152,
            "time": 274.9375,
            "velocity": 0.13385826771653545
          },
          {
            "duration": 0.0625,
            "durationTicks": 48,
            "midi": 76,
            "name": "E5",
            "ticks": 211200,
            "time": 275,
            "velocity": 0.13385826771653545
          },
          {
            "duration": 0.0625,
            "durationTicks": 48,
            "midi": 80,
            "name": "G#5",
            "ticks": 211200,
            "time": 275,
            "velocity": 0.13385826771653545
          },
          {
            "duration": 0.0625,
            "durationTicks": 48,
            "midi": 73,
            "name": "C#5",
            "ticks": 211200,
            "time": 275,
            "velocity": 0.13385826771653545
          },
          {
            "duration": 0.0625,
            "durationTicks": 48,
            "midi": 73,
            "name": "C#5",
            "ticks": 211248,
            "time": 275.0625,
            "velocity": 0.13385826771653545
          },
          {
            "duration": 0.0625,
            "durationTicks": 48,
            "midi": 80,
            "name": "G#5",
            "ticks": 211248,
            "time": 275.0625,
            "velocity": 0.13385826771653545
          },
          {
            "duration": 0.0625,
            "durationTicks": 48,
            "midi": 76,
            "name": "E5",
            "ticks": 211248,
            "time": 275.0625,
            "velocity": 0.13385826771653545
          },
          {
            "duration": 0.0625,
            "durationTicks": 48,
            "midi": 76,
            "name": "E5",
            "ticks": 211296,
            "time": 275.125,
            "velocity": 0.13385826771653545
          },
          {
            "duration": 0.0625,
            "durationTicks": 48,
            "midi": 73,
            "name": "C#5",
            "ticks": 211296,
            "time": 275.125,
            "velocity": 0.13385826771653545
          },
          {
            "duration": 0.0625,
            "durationTicks": 48,
            "midi": 80,
            "name": "G#5",
            "ticks": 211296,
            "time": 275.125,
            "velocity": 0.13385826771653545
          },
          {
            "duration": 0.0625,
            "durationTicks": 48,
            "midi": 76,
            "name": "E5",
            "ticks": 211344,
            "time": 275.1875,
            "velocity": 0.13385826771653545
          },
          {
            "duration": 0.0625,
            "durationTicks": 48,
            "midi": 80,
            "name": "G#5",
            "ticks": 211344,
            "time": 275.1875,
            "velocity": 0.13385826771653545
          },
          {
            "duration": 0.0625,
            "durationTicks": 48,
            "midi": 73,
            "name": "C#5",
            "ticks": 211344,
            "time": 275.1875,
            "velocity": 0.13385826771653545
          },
          {
            "duration": 0.0625,
            "durationTicks": 48,
            "midi": 76,
            "name": "E5",
            "ticks": 211392,
            "time": 275.25,
            "velocity": 0.13385826771653545
          },
          {
            "duration": 0.0625,
            "durationTicks": 48,
            "midi": 80,
            "name": "G#5",
            "ticks": 211392,
            "time": 275.25,
            "velocity": 0.13385826771653545
          },
          {
            "duration": 0.0625,
            "durationTicks": 48,
            "midi": 73,
            "name": "C#5",
            "ticks": 211392,
            "time": 275.25,
            "velocity": 0.13385826771653545
          },
          {
            "duration": 0.0625,
            "durationTicks": 48,
            "midi": 73,
            "name": "C#5",
            "ticks": 211440,
            "time": 275.3125,
            "velocity": 0.13385826771653545
          },
          {
            "duration": 0.0625,
            "durationTicks": 48,
            "midi": 76,
            "name": "E5",
            "ticks": 211440,
            "time": 275.3125,
            "velocity": 0.13385826771653545
          },
          {
            "duration": 0.0625,
            "durationTicks": 48,
            "midi": 80,
            "name": "G#5",
            "ticks": 211440,
            "time": 275.3125,
            "velocity": 0.13385826771653545
          },
          {
            "duration": 0.0625,
            "durationTicks": 48,
            "midi": 76,
            "name": "E5",
            "ticks": 211488,
            "time": 275.375,
            "velocity": 0.13385826771653545
          },
          {
            "duration": 0.0625,
            "durationTicks": 48,
            "midi": 73,
            "name": "C#5",
            "ticks": 211488,
            "time": 275.375,
            "velocity": 0.13385826771653545
          },
          {
            "duration": 0.0625,
            "durationTicks": 48,
            "midi": 80,
            "name": "G#5",
            "ticks": 211488,
            "time": 275.375,
            "velocity": 0.13385826771653545
          },
          {
            "duration": 0.0625,
            "durationTicks": 48,
            "midi": 80,
            "name": "G#5",
            "ticks": 211536,
            "time": 275.4375,
            "velocity": 0.13385826771653545
          },
          {
            "duration": 0.0625,
            "durationTicks": 48,
            "midi": 73,
            "name": "C#5",
            "ticks": 211536,
            "time": 275.4375,
            "velocity": 0.13385826771653545
          },
          {
            "duration": 0.0625,
            "durationTicks": 48,
            "midi": 76,
            "name": "E5",
            "ticks": 211536,
            "time": 275.4375,
            "velocity": 0.13385826771653545
          },
          {
            "duration": 0.0625,
            "durationTicks": 48,
            "midi": 80,
            "name": "G#5",
            "ticks": 211584,
            "time": 275.5,
            "velocity": 0.13385826771653545
          },
          {
            "duration": 0.0625,
            "durationTicks": 48,
            "midi": 73,
            "name": "C#5",
            "ticks": 211584,
            "time": 275.5,
            "velocity": 0.13385826771653545
          },
          {
            "duration": 0.0625,
            "durationTicks": 48,
            "midi": 76,
            "name": "E5",
            "ticks": 211584,
            "time": 275.5,
            "velocity": 0.13385826771653545
          },
          {
            "duration": 0.0625,
            "durationTicks": 48,
            "midi": 80,
            "name": "G#5",
            "ticks": 211632,
            "time": 275.5625,
            "velocity": 0.13385826771653545
          },
          {
            "duration": 0.0625,
            "durationTicks": 48,
            "midi": 73,
            "name": "C#5",
            "ticks": 211632,
            "time": 275.5625,
            "velocity": 0.13385826771653545
          },
          {
            "duration": 0.0625,
            "durationTicks": 48,
            "midi": 76,
            "name": "E5",
            "ticks": 211632,
            "time": 275.5625,
            "velocity": 0.13385826771653545
          },
          {
            "duration": 0.0625,
            "durationTicks": 48,
            "midi": 76,
            "name": "E5",
            "ticks": 211680,
            "time": 275.625,
            "velocity": 0.13385826771653545
          },
          {
            "duration": 0.0625,
            "durationTicks": 48,
            "midi": 73,
            "name": "C#5",
            "ticks": 211680,
            "time": 275.625,
            "velocity": 0.13385826771653545
          },
          {
            "duration": 0.0625,
            "durationTicks": 48,
            "midi": 80,
            "name": "G#5",
            "ticks": 211680,
            "time": 275.625,
            "velocity": 0.13385826771653545
          },
          {
            "duration": 0.0625,
            "durationTicks": 48,
            "midi": 76,
            "name": "E5",
            "ticks": 211728,
            "time": 275.6875,
            "velocity": 0.13385826771653545
          },
          {
            "duration": 0.0625,
            "durationTicks": 48,
            "midi": 80,
            "name": "G#5",
            "ticks": 211728,
            "time": 275.6875,
            "velocity": 0.13385826771653545
          },
          {
            "duration": 0.0625,
            "durationTicks": 48,
            "midi": 73,
            "name": "C#5",
            "ticks": 211728,
            "time": 275.6875,
            "velocity": 0.13385826771653545
          },
          {
            "duration": 0.0625,
            "durationTicks": 48,
            "midi": 73,
            "name": "C#5",
            "ticks": 211776,
            "time": 275.75,
            "velocity": 0.13385826771653545
          },
          {
            "duration": 0.0625,
            "durationTicks": 48,
            "midi": 80,
            "name": "G#5",
            "ticks": 211776,
            "time": 275.75,
            "velocity": 0.13385826771653545
          },
          {
            "duration": 0.0625,
            "durationTicks": 48,
            "midi": 76,
            "name": "E5",
            "ticks": 211776,
            "time": 275.75,
            "velocity": 0.13385826771653545
          },
          {
            "duration": 0.0625,
            "durationTicks": 48,
            "midi": 80,
            "name": "G#5",
            "ticks": 211824,
            "time": 275.8125,
            "velocity": 0.13385826771653545
          },
          {
            "duration": 0.0625,
            "durationTicks": 48,
            "midi": 76,
            "name": "E5",
            "ticks": 211824,
            "time": 275.8125,
            "velocity": 0.13385826771653545
          },
          {
            "duration": 0.0625,
            "durationTicks": 48,
            "midi": 73,
            "name": "C#5",
            "ticks": 211824,
            "time": 275.8125,
            "velocity": 0.13385826771653545
          },
          {
            "duration": 0.0625,
            "durationTicks": 48,
            "midi": 76,
            "name": "E5",
            "ticks": 211872,
            "time": 275.875,
            "velocity": 0.13385826771653545
          },
          {
            "duration": 0.0625,
            "durationTicks": 48,
            "midi": 81,
            "name": "A5",
            "ticks": 211872,
            "time": 275.875,
            "velocity": 0.13385826771653545
          },
          {
            "duration": 0.0625,
            "durationTicks": 48,
            "midi": 73,
            "name": "C#5",
            "ticks": 211872,
            "time": 275.875,
            "velocity": 0.13385826771653545
          },
          {
            "duration": 0.0625,
            "durationTicks": 48,
            "midi": 81,
            "name": "A5",
            "ticks": 211920,
            "time": 275.9375,
            "velocity": 0.13385826771653545
          },
          {
            "duration": 0.0625,
            "durationTicks": 48,
            "midi": 73,
            "name": "C#5",
            "ticks": 211920,
            "time": 275.9375,
            "velocity": 0.13385826771653545
          },
          {
            "duration": 0.0625,
            "durationTicks": 48,
            "midi": 76,
            "name": "E5",
            "ticks": 211920,
            "time": 275.9375,
            "velocity": 0.13385826771653545
          },
          {
            "duration": 0.0625,
            "durationTicks": 48,
            "midi": 81,
            "name": "A5",
            "ticks": 211968,
            "time": 276,
            "velocity": 0.13385826771653545
          },
          {
            "duration": 0.0625,
            "durationTicks": 48,
            "midi": 73,
            "name": "C#5",
            "ticks": 211968,
            "time": 276,
            "velocity": 0.13385826771653545
          },
          {
            "duration": 0.0625,
            "durationTicks": 48,
            "midi": 76,
            "name": "E5",
            "ticks": 211968,
            "time": 276,
            "velocity": 0.13385826771653545
          },
          {
            "duration": 0.0625,
            "durationTicks": 48,
            "midi": 73,
            "name": "C#5",
            "ticks": 212016,
            "time": 276.0625,
            "velocity": 0.13385826771653545
          },
          {
            "duration": 0.0625,
            "durationTicks": 48,
            "midi": 81,
            "name": "A5",
            "ticks": 212016,
            "time": 276.0625,
            "velocity": 0.13385826771653545
          },
          {
            "duration": 0.0625,
            "durationTicks": 48,
            "midi": 76,
            "name": "E5",
            "ticks": 212016,
            "time": 276.0625,
            "velocity": 0.13385826771653545
          },
          {
            "duration": 0.0625,
            "durationTicks": 48,
            "midi": 81,
            "name": "A5",
            "ticks": 212064,
            "time": 276.125,
            "velocity": 0.13385826771653545
          },
          {
            "duration": 0.0625,
            "durationTicks": 48,
            "midi": 73,
            "name": "C#5",
            "ticks": 212064,
            "time": 276.125,
            "velocity": 0.13385826771653545
          },
          {
            "duration": 0.0625,
            "durationTicks": 48,
            "midi": 76,
            "name": "E5",
            "ticks": 212064,
            "time": 276.125,
            "velocity": 0.13385826771653545
          },
          {
            "duration": 0.0625,
            "durationTicks": 48,
            "midi": 76,
            "name": "E5",
            "ticks": 212112,
            "time": 276.1875,
            "velocity": 0.13385826771653545
          },
          {
            "duration": 0.0625,
            "durationTicks": 48,
            "midi": 81,
            "name": "A5",
            "ticks": 212112,
            "time": 276.1875,
            "velocity": 0.13385826771653545
          },
          {
            "duration": 0.0625,
            "durationTicks": 48,
            "midi": 73,
            "name": "C#5",
            "ticks": 212112,
            "time": 276.1875,
            "velocity": 0.13385826771653545
          },
          {
            "duration": 0.0625,
            "durationTicks": 48,
            "midi": 81,
            "name": "A5",
            "ticks": 212160,
            "time": 276.25,
            "velocity": 0.13385826771653545
          },
          {
            "duration": 0.0625,
            "durationTicks": 48,
            "midi": 73,
            "name": "C#5",
            "ticks": 212160,
            "time": 276.25,
            "velocity": 0.13385826771653545
          },
          {
            "duration": 0.0625,
            "durationTicks": 48,
            "midi": 76,
            "name": "E5",
            "ticks": 212160,
            "time": 276.25,
            "velocity": 0.13385826771653545
          },
          {
            "duration": 0.0625,
            "durationTicks": 48,
            "midi": 73,
            "name": "C#5",
            "ticks": 212208,
            "time": 276.3125,
            "velocity": 0.13385826771653545
          },
          {
            "duration": 0.0625,
            "durationTicks": 48,
            "midi": 81,
            "name": "A5",
            "ticks": 212208,
            "time": 276.3125,
            "velocity": 0.13385826771653545
          },
          {
            "duration": 0.0625,
            "durationTicks": 48,
            "midi": 76,
            "name": "E5",
            "ticks": 212208,
            "time": 276.3125,
            "velocity": 0.13385826771653545
          },
          {
            "duration": 0.0625,
            "durationTicks": 48,
            "midi": 73,
            "name": "C#5",
            "ticks": 212256,
            "time": 276.375,
            "velocity": 0.13385826771653545
          },
          {
            "duration": 0.0625,
            "durationTicks": 48,
            "midi": 76,
            "name": "E5",
            "ticks": 212256,
            "time": 276.375,
            "velocity": 0.13385826771653545
          },
          {
            "duration": 0.0625,
            "durationTicks": 48,
            "midi": 81,
            "name": "A5",
            "ticks": 212256,
            "time": 276.375,
            "velocity": 0.13385826771653545
          },
          {
            "duration": 0.0625,
            "durationTicks": 48,
            "midi": 73,
            "name": "C#5",
            "ticks": 212304,
            "time": 276.4375,
            "velocity": 0.13385826771653545
          },
          {
            "duration": 0.0625,
            "durationTicks": 48,
            "midi": 81,
            "name": "A5",
            "ticks": 212304,
            "time": 276.4375,
            "velocity": 0.13385826771653545
          },
          {
            "duration": 0.0625,
            "durationTicks": 48,
            "midi": 76,
            "name": "E5",
            "ticks": 212304,
            "time": 276.4375,
            "velocity": 0.13385826771653545
          },
          {
            "duration": 0.0625,
            "durationTicks": 48,
            "midi": 76,
            "name": "E5",
            "ticks": 212352,
            "time": 276.5,
            "velocity": 0.13385826771653545
          },
          {
            "duration": 0.0625,
            "durationTicks": 48,
            "midi": 73,
            "name": "C#5",
            "ticks": 212352,
            "time": 276.5,
            "velocity": 0.13385826771653545
          },
          {
            "duration": 0.0625,
            "durationTicks": 48,
            "midi": 81,
            "name": "A5",
            "ticks": 212352,
            "time": 276.5,
            "velocity": 0.13385826771653545
          },
          {
            "duration": 0.0625,
            "durationTicks": 48,
            "midi": 73,
            "name": "C#5",
            "ticks": 212400,
            "time": 276.5625,
            "velocity": 0.13385826771653545
          },
          {
            "duration": 0.0625,
            "durationTicks": 48,
            "midi": 81,
            "name": "A5",
            "ticks": 212400,
            "time": 276.5625,
            "velocity": 0.13385826771653545
          },
          {
            "duration": 0.0625,
            "durationTicks": 48,
            "midi": 76,
            "name": "E5",
            "ticks": 212400,
            "time": 276.5625,
            "velocity": 0.13385826771653545
          },
          {
            "duration": 0.0625,
            "durationTicks": 48,
            "midi": 81,
            "name": "A5",
            "ticks": 212448,
            "time": 276.625,
            "velocity": 0.13385826771653545
          },
          {
            "duration": 0.0625,
            "durationTicks": 48,
            "midi": 73,
            "name": "C#5",
            "ticks": 212448,
            "time": 276.625,
            "velocity": 0.13385826771653545
          },
          {
            "duration": 0.0625,
            "durationTicks": 48,
            "midi": 76,
            "name": "E5",
            "ticks": 212448,
            "time": 276.625,
            "velocity": 0.13385826771653545
          },
          {
            "duration": 0.0625,
            "durationTicks": 48,
            "midi": 81,
            "name": "A5",
            "ticks": 212496,
            "time": 276.6875,
            "velocity": 0.13385826771653545
          },
          {
            "duration": 0.0625,
            "durationTicks": 48,
            "midi": 73,
            "name": "C#5",
            "ticks": 212496,
            "time": 276.6875,
            "velocity": 0.13385826771653545
          },
          {
            "duration": 0.0625,
            "durationTicks": 48,
            "midi": 76,
            "name": "E5",
            "ticks": 212496,
            "time": 276.6875,
            "velocity": 0.13385826771653545
          },
          {
            "duration": 0.0625,
            "durationTicks": 48,
            "midi": 73,
            "name": "C#5",
            "ticks": 212544,
            "time": 276.75,
            "velocity": 0.13385826771653545
          },
          {
            "duration": 0.0625,
            "durationTicks": 48,
            "midi": 81,
            "name": "A5",
            "ticks": 212544,
            "time": 276.75,
            "velocity": 0.13385826771653545
          },
          {
            "duration": 0.0625,
            "durationTicks": 48,
            "midi": 76,
            "name": "E5",
            "ticks": 212544,
            "time": 276.75,
            "velocity": 0.13385826771653545
          },
          {
            "duration": 0.0625,
            "durationTicks": 48,
            "midi": 76,
            "name": "E5",
            "ticks": 212592,
            "time": 276.8125,
            "velocity": 0.13385826771653545
          },
          {
            "duration": 0.0625,
            "durationTicks": 48,
            "midi": 73,
            "name": "C#5",
            "ticks": 212592,
            "time": 276.8125,
            "velocity": 0.13385826771653545
          },
          {
            "duration": 0.0625,
            "durationTicks": 48,
            "midi": 81,
            "name": "A5",
            "ticks": 212592,
            "time": 276.8125,
            "velocity": 0.13385826771653545
          },
          {
            "duration": 0.0625,
            "durationTicks": 48,
            "midi": 81,
            "name": "A5",
            "ticks": 212640,
            "time": 276.875,
            "velocity": 0.13385826771653545
          },
          {
            "duration": 0.0625,
            "durationTicks": 48,
            "midi": 73,
            "name": "C#5",
            "ticks": 212640,
            "time": 276.875,
            "velocity": 0.13385826771653545
          },
          {
            "duration": 0.0625,
            "durationTicks": 48,
            "midi": 76,
            "name": "E5",
            "ticks": 212640,
            "time": 276.875,
            "velocity": 0.13385826771653545
          },
          {
            "duration": 0.0625,
            "durationTicks": 48,
            "midi": 76,
            "name": "E5",
            "ticks": 212688,
            "time": 276.9375,
            "velocity": 0.13385826771653545
          },
          {
            "duration": 0.0625,
            "durationTicks": 48,
            "midi": 73,
            "name": "C#5",
            "ticks": 212688,
            "time": 276.9375,
            "velocity": 0.13385826771653545
          },
          {
            "duration": 0.0625,
            "durationTicks": 48,
            "midi": 81,
            "name": "A5",
            "ticks": 212688,
            "time": 276.9375,
            "velocity": 0.13385826771653545
          },
          {
            "duration": 0.0625,
            "durationTicks": 48,
            "midi": 81,
            "name": "A5",
            "ticks": 212736,
            "time": 277,
            "velocity": 0.13385826771653545
          },
          {
            "duration": 0.0625,
            "durationTicks": 48,
            "midi": 76,
            "name": "E5",
            "ticks": 212736,
            "time": 277,
            "velocity": 0.13385826771653545
          },
          {
            "duration": 0.0625,
            "durationTicks": 48,
            "midi": 73,
            "name": "C#5",
            "ticks": 212736,
            "time": 277,
            "velocity": 0.13385826771653545
          },
          {
            "duration": 0.0625,
            "durationTicks": 48,
            "midi": 76,
            "name": "E5",
            "ticks": 212784,
            "time": 277.0625,
            "velocity": 0.13385826771653545
          },
          {
            "duration": 0.0625,
            "durationTicks": 48,
            "midi": 81,
            "name": "A5",
            "ticks": 212784,
            "time": 277.0625,
            "velocity": 0.13385826771653545
          },
          {
            "duration": 0.0625,
            "durationTicks": 48,
            "midi": 73,
            "name": "C#5",
            "ticks": 212784,
            "time": 277.0625,
            "velocity": 0.13385826771653545
          },
          {
            "duration": 0.0625,
            "durationTicks": 48,
            "midi": 81,
            "name": "A5",
            "ticks": 212832,
            "time": 277.125,
            "velocity": 0.13385826771653545
          },
          {
            "duration": 0.0625,
            "durationTicks": 48,
            "midi": 73,
            "name": "C#5",
            "ticks": 212832,
            "time": 277.125,
            "velocity": 0.13385826771653545
          },
          {
            "duration": 0.0625,
            "durationTicks": 48,
            "midi": 76,
            "name": "E5",
            "ticks": 212832,
            "time": 277.125,
            "velocity": 0.13385826771653545
          },
          {
            "duration": 0.0625,
            "durationTicks": 48,
            "midi": 73,
            "name": "C#5",
            "ticks": 212880,
            "time": 277.1875,
            "velocity": 0.13385826771653545
          },
          {
            "duration": 0.0625,
            "durationTicks": 48,
            "midi": 76,
            "name": "E5",
            "ticks": 212880,
            "time": 277.1875,
            "velocity": 0.13385826771653545
          },
          {
            "duration": 0.0625,
            "durationTicks": 48,
            "midi": 81,
            "name": "A5",
            "ticks": 212880,
            "time": 277.1875,
            "velocity": 0.13385826771653545
          },
          {
            "duration": 0.0625,
            "durationTicks": 48,
            "midi": 81,
            "name": "A5",
            "ticks": 212928,
            "time": 277.25,
            "velocity": 0.13385826771653545
          },
          {
            "duration": 0.0625,
            "durationTicks": 48,
            "midi": 73,
            "name": "C#5",
            "ticks": 212928,
            "time": 277.25,
            "velocity": 0.13385826771653545
          },
          {
            "duration": 0.0625,
            "durationTicks": 48,
            "midi": 76,
            "name": "E5",
            "ticks": 212928,
            "time": 277.25,
            "velocity": 0.13385826771653545
          },
          {
            "duration": 0.0625,
            "durationTicks": 48,
            "midi": 81,
            "name": "A5",
            "ticks": 212976,
            "time": 277.3125,
            "velocity": 0.13385826771653545
          },
          {
            "duration": 0.0625,
            "durationTicks": 48,
            "midi": 73,
            "name": "C#5",
            "ticks": 212976,
            "time": 277.3125,
            "velocity": 0.13385826771653545
          },
          {
            "duration": 0.0625,
            "durationTicks": 48,
            "midi": 76,
            "name": "E5",
            "ticks": 212976,
            "time": 277.3125,
            "velocity": 0.13385826771653545
          },
          {
            "duration": 0.0625,
            "durationTicks": 48,
            "midi": 73,
            "name": "C#5",
            "ticks": 213024,
            "time": 277.375,
            "velocity": 0.13385826771653545
          },
          {
            "duration": 0.0625,
            "durationTicks": 48,
            "midi": 76,
            "name": "E5",
            "ticks": 213024,
            "time": 277.375,
            "velocity": 0.13385826771653545
          },
          {
            "duration": 0.0625,
            "durationTicks": 48,
            "midi": 81,
            "name": "A5",
            "ticks": 213024,
            "time": 277.375,
            "velocity": 0.13385826771653545
          },
          {
            "duration": 0.0625,
            "durationTicks": 48,
            "midi": 73,
            "name": "C#5",
            "ticks": 213072,
            "time": 277.4375,
            "velocity": 0.13385826771653545
          },
          {
            "duration": 0.0625,
            "durationTicks": 48,
            "midi": 76,
            "name": "E5",
            "ticks": 213072,
            "time": 277.4375,
            "velocity": 0.13385826771653545
          },
          {
            "duration": 0.0625,
            "durationTicks": 48,
            "midi": 81,
            "name": "A5",
            "ticks": 213072,
            "time": 277.4375,
            "velocity": 0.13385826771653545
          },
          {
            "duration": 0.0625,
            "durationTicks": 48,
            "midi": 73,
            "name": "C#5",
            "ticks": 213120,
            "time": 277.5,
            "velocity": 0.13385826771653545
          },
          {
            "duration": 0.0625,
            "durationTicks": 48,
            "midi": 76,
            "name": "E5",
            "ticks": 213120,
            "time": 277.5,
            "velocity": 0.13385826771653545
          },
          {
            "duration": 0.0625,
            "durationTicks": 48,
            "midi": 81,
            "name": "A5",
            "ticks": 213120,
            "time": 277.5,
            "velocity": 0.13385826771653545
          },
          {
            "duration": 0.0625,
            "durationTicks": 48,
            "midi": 76,
            "name": "E5",
            "ticks": 213168,
            "time": 277.5625,
            "velocity": 0.13385826771653545
          },
          {
            "duration": 0.0625,
            "durationTicks": 48,
            "midi": 73,
            "name": "C#5",
            "ticks": 213168,
            "time": 277.5625,
            "velocity": 0.13385826771653545
          },
          {
            "duration": 0.0625,
            "durationTicks": 48,
            "midi": 81,
            "name": "A5",
            "ticks": 213168,
            "time": 277.5625,
            "velocity": 0.13385826771653545
          },
          {
            "duration": 0.0625,
            "durationTicks": 48,
            "midi": 73,
            "name": "C#5",
            "ticks": 213216,
            "time": 277.625,
            "velocity": 0.13385826771653545
          },
          {
            "duration": 0.0625,
            "durationTicks": 48,
            "midi": 76,
            "name": "E5",
            "ticks": 213216,
            "time": 277.625,
            "velocity": 0.13385826771653545
          },
          {
            "duration": 0.0625,
            "durationTicks": 48,
            "midi": 81,
            "name": "A5",
            "ticks": 213216,
            "time": 277.625,
            "velocity": 0.13385826771653545
          },
          {
            "duration": 0.0625,
            "durationTicks": 48,
            "midi": 81,
            "name": "A5",
            "ticks": 213264,
            "time": 277.6875,
            "velocity": 0.13385826771653545
          },
          {
            "duration": 0.0625,
            "durationTicks": 48,
            "midi": 76,
            "name": "E5",
            "ticks": 213264,
            "time": 277.6875,
            "velocity": 0.13385826771653545
          },
          {
            "duration": 0.0625,
            "durationTicks": 48,
            "midi": 73,
            "name": "C#5",
            "ticks": 213264,
            "time": 277.6875,
            "velocity": 0.13385826771653545
          },
          {
            "duration": 0.0625,
            "durationTicks": 48,
            "midi": 73,
            "name": "C#5",
            "ticks": 213312,
            "time": 277.75,
            "velocity": 0.13385826771653545
          },
          {
            "duration": 0.0625,
            "durationTicks": 48,
            "midi": 81,
            "name": "A5",
            "ticks": 213312,
            "time": 277.75,
            "velocity": 0.13385826771653545
          },
          {
            "duration": 0.0625,
            "durationTicks": 48,
            "midi": 76,
            "name": "E5",
            "ticks": 213312,
            "time": 277.75,
            "velocity": 0.13385826771653545
          },
          {
            "duration": 0.0625,
            "durationTicks": 48,
            "midi": 73,
            "name": "C#5",
            "ticks": 213360,
            "time": 277.8125,
            "velocity": 0.13385826771653545
          },
          {
            "duration": 0.0625,
            "durationTicks": 48,
            "midi": 81,
            "name": "A5",
            "ticks": 213360,
            "time": 277.8125,
            "velocity": 0.13385826771653545
          },
          {
            "duration": 0.0625,
            "durationTicks": 48,
            "midi": 76,
            "name": "E5",
            "ticks": 213360,
            "time": 277.8125,
            "velocity": 0.13385826771653545
          },
          {
            "duration": 0.0625,
            "durationTicks": 48,
            "midi": 71,
            "name": "B4",
            "ticks": 213408,
            "time": 277.875,
            "velocity": 0.13385826771653545
          },
          {
            "duration": 0.0625,
            "durationTicks": 48,
            "midi": 78,
            "name": "F#5",
            "ticks": 213408,
            "time": 277.875,
            "velocity": 0.13385826771653545
          },
          {
            "duration": 0.0625,
            "durationTicks": 48,
            "midi": 75,
            "name": "D#5",
            "ticks": 213408,
            "time": 277.875,
            "velocity": 0.13385826771653545
          },
          {
            "duration": 0.0625,
            "durationTicks": 48,
            "midi": 78,
            "name": "F#5",
            "ticks": 213456,
            "time": 277.9375,
            "velocity": 0.13385826771653545
          },
          {
            "duration": 0.0625,
            "durationTicks": 48,
            "midi": 75,
            "name": "D#5",
            "ticks": 213456,
            "time": 277.9375,
            "velocity": 0.13385826771653545
          },
          {
            "duration": 0.0625,
            "durationTicks": 48,
            "midi": 71,
            "name": "B4",
            "ticks": 213456,
            "time": 277.9375,
            "velocity": 0.13385826771653545
          },
          {
            "duration": 0.0625,
            "durationTicks": 48,
            "midi": 71,
            "name": "B4",
            "ticks": 213504,
            "time": 278,
            "velocity": 0.13385826771653545
          },
          {
            "duration": 0.0625,
            "durationTicks": 48,
            "midi": 75,
            "name": "D#5",
            "ticks": 213504,
            "time": 278,
            "velocity": 0.13385826771653545
          },
          {
            "duration": 0.0625,
            "durationTicks": 48,
            "midi": 78,
            "name": "F#5",
            "ticks": 213504,
            "time": 278,
            "velocity": 0.13385826771653545
          },
          {
            "duration": 0.0625,
            "durationTicks": 48,
            "midi": 71,
            "name": "B4",
            "ticks": 213552,
            "time": 278.0625,
            "velocity": 0.13385826771653545
          },
          {
            "duration": 0.0625,
            "durationTicks": 48,
            "midi": 75,
            "name": "D#5",
            "ticks": 213552,
            "time": 278.0625,
            "velocity": 0.13385826771653545
          },
          {
            "duration": 0.0625,
            "durationTicks": 48,
            "midi": 78,
            "name": "F#5",
            "ticks": 213552,
            "time": 278.0625,
            "velocity": 0.13385826771653545
          },
          {
            "duration": 0.0625,
            "durationTicks": 48,
            "midi": 71,
            "name": "B4",
            "ticks": 213600,
            "time": 278.125,
            "velocity": 0.13385826771653545
          },
          {
            "duration": 0.0625,
            "durationTicks": 48,
            "midi": 78,
            "name": "F#5",
            "ticks": 213600,
            "time": 278.125,
            "velocity": 0.13385826771653545
          },
          {
            "duration": 0.0625,
            "durationTicks": 48,
            "midi": 75,
            "name": "D#5",
            "ticks": 213600,
            "time": 278.125,
            "velocity": 0.13385826771653545
          },
          {
            "duration": 0.0625,
            "durationTicks": 48,
            "midi": 75,
            "name": "D#5",
            "ticks": 213648,
            "time": 278.1875,
            "velocity": 0.13385826771653545
          },
          {
            "duration": 0.0625,
            "durationTicks": 48,
            "midi": 71,
            "name": "B4",
            "ticks": 213648,
            "time": 278.1875,
            "velocity": 0.13385826771653545
          },
          {
            "duration": 0.0625,
            "durationTicks": 48,
            "midi": 78,
            "name": "F#5",
            "ticks": 213648,
            "time": 278.1875,
            "velocity": 0.13385826771653545
          },
          {
            "duration": 0.0625,
            "durationTicks": 48,
            "midi": 75,
            "name": "D#5",
            "ticks": 213696,
            "time": 278.25,
            "velocity": 0.13385826771653545
          },
          {
            "duration": 0.0625,
            "durationTicks": 48,
            "midi": 71,
            "name": "B4",
            "ticks": 213696,
            "time": 278.25,
            "velocity": 0.13385826771653545
          },
          {
            "duration": 0.0625,
            "durationTicks": 48,
            "midi": 78,
            "name": "F#5",
            "ticks": 213696,
            "time": 278.25,
            "velocity": 0.13385826771653545
          },
          {
            "duration": 0.0625,
            "durationTicks": 48,
            "midi": 78,
            "name": "F#5",
            "ticks": 213744,
            "time": 278.3125,
            "velocity": 0.13385826771653545
          },
          {
            "duration": 0.0625,
            "durationTicks": 48,
            "midi": 71,
            "name": "B4",
            "ticks": 213744,
            "time": 278.3125,
            "velocity": 0.13385826771653545
          },
          {
            "duration": 0.0625,
            "durationTicks": 48,
            "midi": 75,
            "name": "D#5",
            "ticks": 213744,
            "time": 278.3125,
            "velocity": 0.13385826771653545
          },
          {
            "duration": 0.0625,
            "durationTicks": 48,
            "midi": 75,
            "name": "D#5",
            "ticks": 213792,
            "time": 278.375,
            "velocity": 0.13385826771653545
          },
          {
            "duration": 0.0625,
            "durationTicks": 48,
            "midi": 71,
            "name": "B4",
            "ticks": 213792,
            "time": 278.375,
            "velocity": 0.13385826771653545
          },
          {
            "duration": 0.0625,
            "durationTicks": 48,
            "midi": 78,
            "name": "F#5",
            "ticks": 213792,
            "time": 278.375,
            "velocity": 0.13385826771653545
          },
          {
            "duration": 0.0625,
            "durationTicks": 48,
            "midi": 78,
            "name": "F#5",
            "ticks": 213840,
            "time": 278.4375,
            "velocity": 0.13385826771653545
          },
          {
            "duration": 0.0625,
            "durationTicks": 48,
            "midi": 71,
            "name": "B4",
            "ticks": 213840,
            "time": 278.4375,
            "velocity": 0.13385826771653545
          },
          {
            "duration": 0.0625,
            "durationTicks": 48,
            "midi": 75,
            "name": "D#5",
            "ticks": 213840,
            "time": 278.4375,
            "velocity": 0.13385826771653545
          },
          {
            "duration": 0.0625,
            "durationTicks": 48,
            "midi": 75,
            "name": "D#5",
            "ticks": 213888,
            "time": 278.5,
            "velocity": 0.13385826771653545
          },
          {
            "duration": 0.0625,
            "durationTicks": 48,
            "midi": 78,
            "name": "F#5",
            "ticks": 213888,
            "time": 278.5,
            "velocity": 0.13385826771653545
          },
          {
            "duration": 0.0625,
            "durationTicks": 48,
            "midi": 71,
            "name": "B4",
            "ticks": 213888,
            "time": 278.5,
            "velocity": 0.13385826771653545
          },
          {
            "duration": 0.0625,
            "durationTicks": 48,
            "midi": 78,
            "name": "F#5",
            "ticks": 213936,
            "time": 278.5625,
            "velocity": 0.13385826771653545
          },
          {
            "duration": 0.0625,
            "durationTicks": 48,
            "midi": 71,
            "name": "B4",
            "ticks": 213936,
            "time": 278.5625,
            "velocity": 0.13385826771653545
          },
          {
            "duration": 0.0625,
            "durationTicks": 48,
            "midi": 75,
            "name": "D#5",
            "ticks": 213936,
            "time": 278.5625,
            "velocity": 0.13385826771653545
          },
          {
            "duration": 0.0625,
            "durationTicks": 48,
            "midi": 78,
            "name": "F#5",
            "ticks": 213984,
            "time": 278.625,
            "velocity": 0.13385826771653545
          },
          {
            "duration": 0.0625,
            "durationTicks": 48,
            "midi": 75,
            "name": "D#5",
            "ticks": 213984,
            "time": 278.625,
            "velocity": 0.13385826771653545
          },
          {
            "duration": 0.0625,
            "durationTicks": 48,
            "midi": 71,
            "name": "B4",
            "ticks": 213984,
            "time": 278.625,
            "velocity": 0.13385826771653545
          },
          {
            "duration": 0.0625,
            "durationTicks": 48,
            "midi": 75,
            "name": "D#5",
            "ticks": 214032,
            "time": 278.6875,
            "velocity": 0.13385826771653545
          },
          {
            "duration": 0.0625,
            "durationTicks": 48,
            "midi": 71,
            "name": "B4",
            "ticks": 214032,
            "time": 278.6875,
            "velocity": 0.13385826771653545
          },
          {
            "duration": 0.0625,
            "durationTicks": 48,
            "midi": 78,
            "name": "F#5",
            "ticks": 214032,
            "time": 278.6875,
            "velocity": 0.13385826771653545
          },
          {
            "duration": 0.0625,
            "durationTicks": 48,
            "midi": 75,
            "name": "D#5",
            "ticks": 214080,
            "time": 278.75,
            "velocity": 0.13385826771653545
          },
          {
            "duration": 0.0625,
            "durationTicks": 48,
            "midi": 71,
            "name": "B4",
            "ticks": 214080,
            "time": 278.75,
            "velocity": 0.13385826771653545
          },
          {
            "duration": 0.0625,
            "durationTicks": 48,
            "midi": 78,
            "name": "F#5",
            "ticks": 214080,
            "time": 278.75,
            "velocity": 0.13385826771653545
          },
          {
            "duration": 0.0625,
            "durationTicks": 48,
            "midi": 78,
            "name": "F#5",
            "ticks": 214128,
            "time": 278.8125,
            "velocity": 0.13385826771653545
          },
          {
            "duration": 0.0625,
            "durationTicks": 48,
            "midi": 71,
            "name": "B4",
            "ticks": 214128,
            "time": 278.8125,
            "velocity": 0.13385826771653545
          },
          {
            "duration": 0.0625,
            "durationTicks": 48,
            "midi": 75,
            "name": "D#5",
            "ticks": 214128,
            "time": 278.8125,
            "velocity": 0.13385826771653545
          },
          {
            "duration": 0.0625,
            "durationTicks": 48,
            "midi": 71,
            "name": "B4",
            "ticks": 214176,
            "time": 278.875,
            "velocity": 0.13385826771653545
          },
          {
            "duration": 0.0625,
            "durationTicks": 48,
            "midi": 78,
            "name": "F#5",
            "ticks": 214176,
            "time": 278.875,
            "velocity": 0.13385826771653545
          },
          {
            "duration": 0.0625,
            "durationTicks": 48,
            "midi": 75,
            "name": "D#5",
            "ticks": 214176,
            "time": 278.875,
            "velocity": 0.13385826771653545
          },
          {
            "duration": 0.0625,
            "durationTicks": 48,
            "midi": 75,
            "name": "D#5",
            "ticks": 214224,
            "time": 278.9375,
            "velocity": 0.13385826771653545
          },
          {
            "duration": 0.0625,
            "durationTicks": 48,
            "midi": 78,
            "name": "F#5",
            "ticks": 214224,
            "time": 278.9375,
            "velocity": 0.13385826771653545
          },
          {
            "duration": 0.0625,
            "durationTicks": 48,
            "midi": 71,
            "name": "B4",
            "ticks": 214224,
            "time": 278.9375,
            "velocity": 0.13385826771653545
          },
          {
            "duration": 0.0625,
            "durationTicks": 48,
            "midi": 75,
            "name": "D#5",
            "ticks": 214272,
            "time": 279,
            "velocity": 0.13385826771653545
          },
          {
            "duration": 0.0625,
            "durationTicks": 48,
            "midi": 78,
            "name": "F#5",
            "ticks": 214272,
            "time": 279,
            "velocity": 0.13385826771653545
          },
          {
            "duration": 0.0625,
            "durationTicks": 48,
            "midi": 71,
            "name": "B4",
            "ticks": 214272,
            "time": 279,
            "velocity": 0.13385826771653545
          },
          {
            "duration": 0.0625,
            "durationTicks": 48,
            "midi": 75,
            "name": "D#5",
            "ticks": 214320,
            "time": 279.0625,
            "velocity": 0.13385826771653545
          },
          {
            "duration": 0.0625,
            "durationTicks": 48,
            "midi": 71,
            "name": "B4",
            "ticks": 214320,
            "time": 279.0625,
            "velocity": 0.13385826771653545
          },
          {
            "duration": 0.0625,
            "durationTicks": 48,
            "midi": 78,
            "name": "F#5",
            "ticks": 214320,
            "time": 279.0625,
            "velocity": 0.13385826771653545
          },
          {
            "duration": 0.0625,
            "durationTicks": 48,
            "midi": 78,
            "name": "F#5",
            "ticks": 214368,
            "time": 279.125,
            "velocity": 0.13385826771653545
          },
          {
            "duration": 0.0625,
            "durationTicks": 48,
            "midi": 71,
            "name": "B4",
            "ticks": 214368,
            "time": 279.125,
            "velocity": 0.13385826771653545
          },
          {
            "duration": 0.0625,
            "durationTicks": 48,
            "midi": 75,
            "name": "D#5",
            "ticks": 214368,
            "time": 279.125,
            "velocity": 0.13385826771653545
          },
          {
            "duration": 0.0625,
            "durationTicks": 48,
            "midi": 71,
            "name": "B4",
            "ticks": 214416,
            "time": 279.1875,
            "velocity": 0.13385826771653545
          },
          {
            "duration": 0.0625,
            "durationTicks": 48,
            "midi": 78,
            "name": "F#5",
            "ticks": 214416,
            "time": 279.1875,
            "velocity": 0.13385826771653545
          },
          {
            "duration": 0.0625,
            "durationTicks": 48,
            "midi": 75,
            "name": "D#5",
            "ticks": 214416,
            "time": 279.1875,
            "velocity": 0.13385826771653545
          },
          {
            "duration": 0.0625,
            "durationTicks": 48,
            "midi": 75,
            "name": "D#5",
            "ticks": 214464,
            "time": 279.25,
            "velocity": 0.13385826771653545
          },
          {
            "duration": 0.0625,
            "durationTicks": 48,
            "midi": 71,
            "name": "B4",
            "ticks": 214464,
            "time": 279.25,
            "velocity": 0.13385826771653545
          },
          {
            "duration": 0.0625,
            "durationTicks": 48,
            "midi": 78,
            "name": "F#5",
            "ticks": 214464,
            "time": 279.25,
            "velocity": 0.13385826771653545
          },
          {
            "duration": 0.0625,
            "durationTicks": 48,
            "midi": 78,
            "name": "F#5",
            "ticks": 214512,
            "time": 279.3125,
            "velocity": 0.13385826771653545
          },
          {
            "duration": 0.0625,
            "durationTicks": 48,
            "midi": 75,
            "name": "D#5",
            "ticks": 214512,
            "time": 279.3125,
            "velocity": 0.13385826771653545
          },
          {
            "duration": 0.0625,
            "durationTicks": 48,
            "midi": 71,
            "name": "B4",
            "ticks": 214512,
            "time": 279.3125,
            "velocity": 0.13385826771653545
          },
          {
            "duration": 0.0625,
            "durationTicks": 48,
            "midi": 75,
            "name": "D#5",
            "ticks": 214560,
            "time": 279.375,
            "velocity": 0.13385826771653545
          },
          {
            "duration": 0.0625,
            "durationTicks": 48,
            "midi": 78,
            "name": "F#5",
            "ticks": 214560,
            "time": 279.375,
            "velocity": 0.13385826771653545
          },
          {
            "duration": 0.0625,
            "durationTicks": 48,
            "midi": 71,
            "name": "B4",
            "ticks": 214560,
            "time": 279.375,
            "velocity": 0.13385826771653545
          },
          {
            "duration": 0.0625,
            "durationTicks": 48,
            "midi": 78,
            "name": "F#5",
            "ticks": 214608,
            "time": 279.4375,
            "velocity": 0.13385826771653545
          },
          {
            "duration": 0.0625,
            "durationTicks": 48,
            "midi": 75,
            "name": "D#5",
            "ticks": 214608,
            "time": 279.4375,
            "velocity": 0.13385826771653545
          },
          {
            "duration": 0.0625,
            "durationTicks": 48,
            "midi": 71,
            "name": "B4",
            "ticks": 214608,
            "time": 279.4375,
            "velocity": 0.13385826771653545
          },
          {
            "duration": 0.0625,
            "durationTicks": 48,
            "midi": 75,
            "name": "D#5",
            "ticks": 214656,
            "time": 279.5,
            "velocity": 0.13385826771653545
          },
          {
            "duration": 0.0625,
            "durationTicks": 48,
            "midi": 78,
            "name": "F#5",
            "ticks": 214656,
            "time": 279.5,
            "velocity": 0.13385826771653545
          },
          {
            "duration": 0.0625,
            "durationTicks": 48,
            "midi": 71,
            "name": "B4",
            "ticks": 214656,
            "time": 279.5,
            "velocity": 0.13385826771653545
          },
          {
            "duration": 0.0625,
            "durationTicks": 48,
            "midi": 75,
            "name": "D#5",
            "ticks": 214704,
            "time": 279.5625,
            "velocity": 0.13385826771653545
          },
          {
            "duration": 0.0625,
            "durationTicks": 48,
            "midi": 78,
            "name": "F#5",
            "ticks": 214704,
            "time": 279.5625,
            "velocity": 0.13385826771653545
          },
          {
            "duration": 0.0625,
            "durationTicks": 48,
            "midi": 71,
            "name": "B4",
            "ticks": 214704,
            "time": 279.5625,
            "velocity": 0.13385826771653545
          },
          {
            "duration": 0.0625,
            "durationTicks": 48,
            "midi": 78,
            "name": "F#5",
            "ticks": 214752,
            "time": 279.625,
            "velocity": 0.13385826771653545
          },
          {
            "duration": 0.0625,
            "durationTicks": 48,
            "midi": 71,
            "name": "B4",
            "ticks": 214752,
            "time": 279.625,
            "velocity": 0.13385826771653545
          },
          {
            "duration": 0.0625,
            "durationTicks": 48,
            "midi": 75,
            "name": "D#5",
            "ticks": 214752,
            "time": 279.625,
            "velocity": 0.13385826771653545
          },
          {
            "duration": 0.0625,
            "durationTicks": 48,
            "midi": 75,
            "name": "D#5",
            "ticks": 214800,
            "time": 279.6875,
            "velocity": 0.13385826771653545
          },
          {
            "duration": 0.0625,
            "durationTicks": 48,
            "midi": 78,
            "name": "F#5",
            "ticks": 214800,
            "time": 279.6875,
            "velocity": 0.13385826771653545
          },
          {
            "duration": 0.0625,
            "durationTicks": 48,
            "midi": 71,
            "name": "B4",
            "ticks": 214800,
            "time": 279.6875,
            "velocity": 0.13385826771653545
          },
          {
            "duration": 0.0625,
            "durationTicks": 48,
            "midi": 75,
            "name": "D#5",
            "ticks": 214848,
            "time": 279.75,
            "velocity": 0.13385826771653545
          },
          {
            "duration": 0.0625,
            "durationTicks": 48,
            "midi": 78,
            "name": "F#5",
            "ticks": 214848,
            "time": 279.75,
            "velocity": 0.13385826771653545
          },
          {
            "duration": 0.0625,
            "durationTicks": 48,
            "midi": 71,
            "name": "B4",
            "ticks": 214848,
            "time": 279.75,
            "velocity": 0.13385826771653545
          },
          {
            "duration": 0.0625,
            "durationTicks": 48,
            "midi": 71,
            "name": "B4",
            "ticks": 214896,
            "time": 279.8125,
            "velocity": 0.13385826771653545
          },
          {
            "duration": 0.0625,
            "durationTicks": 48,
            "midi": 75,
            "name": "D#5",
            "ticks": 214896,
            "time": 279.8125,
            "velocity": 0.13385826771653545
          },
          {
            "duration": 0.0625,
            "durationTicks": 48,
            "midi": 78,
            "name": "F#5",
            "ticks": 214896,
            "time": 279.8125,
            "velocity": 0.13385826771653545
          },
          {
            "duration": 0.0625,
            "durationTicks": 48,
            "midi": 73,
            "name": "C#5",
            "ticks": 214944,
            "time": 279.875,
            "velocity": 0.13385826771653545
          },
          {
            "duration": 0.0625,
            "durationTicks": 48,
            "midi": 70,
            "name": "A#4",
            "ticks": 214944,
            "time": 279.875,
            "velocity": 0.13385826771653545
          },
          {
            "duration": 0.0625,
            "durationTicks": 48,
            "midi": 78,
            "name": "F#5",
            "ticks": 214944,
            "time": 279.875,
            "velocity": 0.13385826771653545
          },
          {
            "duration": 0.0625,
            "durationTicks": 48,
            "midi": 70,
            "name": "A#4",
            "ticks": 214992,
            "time": 279.9375,
            "velocity": 0.13385826771653545
          },
          {
            "duration": 0.0625,
            "durationTicks": 48,
            "midi": 73,
            "name": "C#5",
            "ticks": 214992,
            "time": 279.9375,
            "velocity": 0.13385826771653545
          },
          {
            "duration": 0.0625,
            "durationTicks": 48,
            "midi": 78,
            "name": "F#5",
            "ticks": 214992,
            "time": 279.9375,
            "velocity": 0.13385826771653545
          },
          {
            "duration": 0.0625,
            "durationTicks": 48,
            "midi": 73,
            "name": "C#5",
            "ticks": 215040,
            "time": 280,
            "velocity": 0.13385826771653545
          },
          {
            "duration": 0.0625,
            "durationTicks": 48,
            "midi": 78,
            "name": "F#5",
            "ticks": 215040,
            "time": 280,
            "velocity": 0.13385826771653545
          },
          {
            "duration": 0.0625,
            "durationTicks": 48,
            "midi": 70,
            "name": "A#4",
            "ticks": 215040,
            "time": 280,
            "velocity": 0.13385826771653545
          },
          {
            "duration": 0.0625,
            "durationTicks": 48,
            "midi": 73,
            "name": "C#5",
            "ticks": 215088,
            "time": 280.0625,
            "velocity": 0.13385826771653545
          },
          {
            "duration": 0.0625,
            "durationTicks": 48,
            "midi": 70,
            "name": "A#4",
            "ticks": 215088,
            "time": 280.0625,
            "velocity": 0.13385826771653545
          },
          {
            "duration": 0.0625,
            "durationTicks": 48,
            "midi": 78,
            "name": "F#5",
            "ticks": 215088,
            "time": 280.0625,
            "velocity": 0.13385826771653545
          },
          {
            "duration": 0.0625,
            "durationTicks": 48,
            "midi": 78,
            "name": "F#5",
            "ticks": 215136,
            "time": 280.125,
            "velocity": 0.13385826771653545
          },
          {
            "duration": 0.0625,
            "durationTicks": 48,
            "midi": 70,
            "name": "A#4",
            "ticks": 215136,
            "time": 280.125,
            "velocity": 0.13385826771653545
          },
          {
            "duration": 0.0625,
            "durationTicks": 48,
            "midi": 73,
            "name": "C#5",
            "ticks": 215136,
            "time": 280.125,
            "velocity": 0.13385826771653545
          },
          {
            "duration": 0.0625,
            "durationTicks": 48,
            "midi": 78,
            "name": "F#5",
            "ticks": 215184,
            "time": 280.1875,
            "velocity": 0.13385826771653545
          },
          {
            "duration": 0.0625,
            "durationTicks": 48,
            "midi": 73,
            "name": "C#5",
            "ticks": 215184,
            "time": 280.1875,
            "velocity": 0.13385826771653545
          },
          {
            "duration": 0.0625,
            "durationTicks": 48,
            "midi": 70,
            "name": "A#4",
            "ticks": 215184,
            "time": 280.1875,
            "velocity": 0.13385826771653545
          },
          {
            "duration": 0.0625,
            "durationTicks": 48,
            "midi": 73,
            "name": "C#5",
            "ticks": 215232,
            "time": 280.25,
            "velocity": 0.13385826771653545
          },
          {
            "duration": 0.0625,
            "durationTicks": 48,
            "midi": 70,
            "name": "A#4",
            "ticks": 215232,
            "time": 280.25,
            "velocity": 0.13385826771653545
          },
          {
            "duration": 0.0625,
            "durationTicks": 48,
            "midi": 78,
            "name": "F#5",
            "ticks": 215232,
            "time": 280.25,
            "velocity": 0.13385826771653545
          },
          {
            "duration": 0.0625,
            "durationTicks": 48,
            "midi": 70,
            "name": "A#4",
            "ticks": 215280,
            "time": 280.3125,
            "velocity": 0.13385826771653545
          },
          {
            "duration": 0.0625,
            "durationTicks": 48,
            "midi": 73,
            "name": "C#5",
            "ticks": 215280,
            "time": 280.3125,
            "velocity": 0.13385826771653545
          },
          {
            "duration": 0.0625,
            "durationTicks": 48,
            "midi": 78,
            "name": "F#5",
            "ticks": 215280,
            "time": 280.3125,
            "velocity": 0.13385826771653545
          },
          {
            "duration": 0.0625,
            "durationTicks": 48,
            "midi": 73,
            "name": "C#5",
            "ticks": 215328,
            "time": 280.375,
            "velocity": 0.13385826771653545
          },
          {
            "duration": 0.0625,
            "durationTicks": 48,
            "midi": 78,
            "name": "F#5",
            "ticks": 215328,
            "time": 280.375,
            "velocity": 0.13385826771653545
          },
          {
            "duration": 0.0625,
            "durationTicks": 48,
            "midi": 70,
            "name": "A#4",
            "ticks": 215328,
            "time": 280.375,
            "velocity": 0.13385826771653545
          },
          {
            "duration": 0.0625,
            "durationTicks": 48,
            "midi": 73,
            "name": "C#5",
            "ticks": 215376,
            "time": 280.4375,
            "velocity": 0.13385826771653545
          },
          {
            "duration": 0.0625,
            "durationTicks": 48,
            "midi": 78,
            "name": "F#5",
            "ticks": 215376,
            "time": 280.4375,
            "velocity": 0.13385826771653545
          },
          {
            "duration": 0.0625,
            "durationTicks": 48,
            "midi": 70,
            "name": "A#4",
            "ticks": 215376,
            "time": 280.4375,
            "velocity": 0.13385826771653545
          },
          {
            "duration": 0.0625,
            "durationTicks": 48,
            "midi": 70,
            "name": "A#4",
            "ticks": 215424,
            "time": 280.5,
            "velocity": 0.13385826771653545
          },
          {
            "duration": 0.0625,
            "durationTicks": 48,
            "midi": 73,
            "name": "C#5",
            "ticks": 215424,
            "time": 280.5,
            "velocity": 0.13385826771653545
          },
          {
            "duration": 0.0625,
            "durationTicks": 48,
            "midi": 78,
            "name": "F#5",
            "ticks": 215424,
            "time": 280.5,
            "velocity": 0.13385826771653545
          },
          {
            "duration": 0.0625,
            "durationTicks": 48,
            "midi": 78,
            "name": "F#5",
            "ticks": 215472,
            "time": 280.5625,
            "velocity": 0.13385826771653545
          },
          {
            "duration": 0.0625,
            "durationTicks": 48,
            "midi": 73,
            "name": "C#5",
            "ticks": 215472,
            "time": 280.5625,
            "velocity": 0.13385826771653545
          },
          {
            "duration": 0.0625,
            "durationTicks": 48,
            "midi": 70,
            "name": "A#4",
            "ticks": 215472,
            "time": 280.5625,
            "velocity": 0.13385826771653545
          },
          {
            "duration": 0.0625,
            "durationTicks": 48,
            "midi": 78,
            "name": "F#5",
            "ticks": 215520,
            "time": 280.625,
            "velocity": 0.13385826771653545
          },
          {
            "duration": 0.0625,
            "durationTicks": 48,
            "midi": 70,
            "name": "A#4",
            "ticks": 215520,
            "time": 280.625,
            "velocity": 0.13385826771653545
          },
          {
            "duration": 0.0625,
            "durationTicks": 48,
            "midi": 73,
            "name": "C#5",
            "ticks": 215520,
            "time": 280.625,
            "velocity": 0.13385826771653545
          },
          {
            "duration": 0.0625,
            "durationTicks": 48,
            "midi": 73,
            "name": "C#5",
            "ticks": 215568,
            "time": 280.6875,
            "velocity": 0.13385826771653545
          },
          {
            "duration": 0.0625,
            "durationTicks": 48,
            "midi": 70,
            "name": "A#4",
            "ticks": 215568,
            "time": 280.6875,
            "velocity": 0.13385826771653545
          },
          {
            "duration": 0.0625,
            "durationTicks": 48,
            "midi": 78,
            "name": "F#5",
            "ticks": 215568,
            "time": 280.6875,
            "velocity": 0.13385826771653545
          },
          {
            "duration": 0.0625,
            "durationTicks": 48,
            "midi": 73,
            "name": "C#5",
            "ticks": 215616,
            "time": 280.75,
            "velocity": 0.13385826771653545
          },
          {
            "duration": 0.0625,
            "durationTicks": 48,
            "midi": 78,
            "name": "F#5",
            "ticks": 215616,
            "time": 280.75,
            "velocity": 0.13385826771653545
          },
          {
            "duration": 0.0625,
            "durationTicks": 48,
            "midi": 70,
            "name": "A#4",
            "ticks": 215616,
            "time": 280.75,
            "velocity": 0.13385826771653545
          },
          {
            "duration": 0.0625,
            "durationTicks": 48,
            "midi": 78,
            "name": "F#5",
            "ticks": 215664,
            "time": 280.8125,
            "velocity": 0.13385826771653545
          },
          {
            "duration": 0.0625,
            "durationTicks": 48,
            "midi": 70,
            "name": "A#4",
            "ticks": 215664,
            "time": 280.8125,
            "velocity": 0.13385826771653545
          },
          {
            "duration": 0.0625,
            "durationTicks": 48,
            "midi": 73,
            "name": "C#5",
            "ticks": 215664,
            "time": 280.8125,
            "velocity": 0.13385826771653545
          },
          {
            "duration": 0.0625,
            "durationTicks": 48,
            "midi": 73,
            "name": "C#5",
            "ticks": 215712,
            "time": 280.875,
            "velocity": 0.13385826771653545
          },
          {
            "duration": 0.0625,
            "durationTicks": 48,
            "midi": 78,
            "name": "F#5",
            "ticks": 215712,
            "time": 280.875,
            "velocity": 0.13385826771653545
          },
          {
            "duration": 0.0625,
            "durationTicks": 48,
            "midi": 70,
            "name": "A#4",
            "ticks": 215712,
            "time": 280.875,
            "velocity": 0.13385826771653545
          },
          {
            "duration": 0.0625,
            "durationTicks": 48,
            "midi": 70,
            "name": "A#4",
            "ticks": 215760,
            "time": 280.9375,
            "velocity": 0.13385826771653545
          },
          {
            "duration": 0.0625,
            "durationTicks": 48,
            "midi": 78,
            "name": "F#5",
            "ticks": 215760,
            "time": 280.9375,
            "velocity": 0.13385826771653545
          },
          {
            "duration": 0.0625,
            "durationTicks": 48,
            "midi": 73,
            "name": "C#5",
            "ticks": 215760,
            "time": 280.9375,
            "velocity": 0.13385826771653545
          },
          {
            "duration": 0.0625,
            "durationTicks": 48,
            "midi": 70,
            "name": "A#4",
            "ticks": 215808,
            "time": 281,
            "velocity": 0.13385826771653545
          },
          {
            "duration": 0.0625,
            "durationTicks": 48,
            "midi": 78,
            "name": "F#5",
            "ticks": 215808,
            "time": 281,
            "velocity": 0.13385826771653545
          },
          {
            "duration": 0.0625,
            "durationTicks": 48,
            "midi": 73,
            "name": "C#5",
            "ticks": 215808,
            "time": 281,
            "velocity": 0.13385826771653545
          },
          {
            "duration": 0.0625,
            "durationTicks": 48,
            "midi": 73,
            "name": "C#5",
            "ticks": 215856,
            "time": 281.0625,
            "velocity": 0.13385826771653545
          },
          {
            "duration": 0.0625,
            "durationTicks": 48,
            "midi": 70,
            "name": "A#4",
            "ticks": 215856,
            "time": 281.0625,
            "velocity": 0.13385826771653545
          },
          {
            "duration": 0.0625,
            "durationTicks": 48,
            "midi": 78,
            "name": "F#5",
            "ticks": 215856,
            "time": 281.0625,
            "velocity": 0.13385826771653545
          },
          {
            "duration": 0.0625,
            "durationTicks": 48,
            "midi": 78,
            "name": "F#5",
            "ticks": 215904,
            "time": 281.125,
            "velocity": 0.13385826771653545
          },
          {
            "duration": 0.0625,
            "durationTicks": 48,
            "midi": 70,
            "name": "A#4",
            "ticks": 215904,
            "time": 281.125,
            "velocity": 0.13385826771653545
          },
          {
            "duration": 0.0625,
            "durationTicks": 48,
            "midi": 73,
            "name": "C#5",
            "ticks": 215904,
            "time": 281.125,
            "velocity": 0.13385826771653545
          },
          {
            "duration": 0.0625,
            "durationTicks": 48,
            "midi": 78,
            "name": "F#5",
            "ticks": 215952,
            "time": 281.1875,
            "velocity": 0.13385826771653545
          },
          {
            "duration": 0.0625,
            "durationTicks": 48,
            "midi": 70,
            "name": "A#4",
            "ticks": 215952,
            "time": 281.1875,
            "velocity": 0.13385826771653545
          },
          {
            "duration": 0.0625,
            "durationTicks": 48,
            "midi": 73,
            "name": "C#5",
            "ticks": 215952,
            "time": 281.1875,
            "velocity": 0.13385826771653545
          },
          {
            "duration": 0.0625,
            "durationTicks": 48,
            "midi": 78,
            "name": "F#5",
            "ticks": 216000,
            "time": 281.25,
            "velocity": 0.13385826771653545
          },
          {
            "duration": 0.0625,
            "durationTicks": 48,
            "midi": 73,
            "name": "C#5",
            "ticks": 216000,
            "time": 281.25,
            "velocity": 0.13385826771653545
          },
          {
            "duration": 0.0625,
            "durationTicks": 48,
            "midi": 70,
            "name": "A#4",
            "ticks": 216000,
            "time": 281.25,
            "velocity": 0.13385826771653545
          },
          {
            "duration": 0.0625,
            "durationTicks": 48,
            "midi": 70,
            "name": "A#4",
            "ticks": 216048,
            "time": 281.3125,
            "velocity": 0.13385826771653545
          },
          {
            "duration": 0.0625,
            "durationTicks": 48,
            "midi": 73,
            "name": "C#5",
            "ticks": 216048,
            "time": 281.3125,
            "velocity": 0.13385826771653545
          },
          {
            "duration": 0.0625,
            "durationTicks": 48,
            "midi": 78,
            "name": "F#5",
            "ticks": 216048,
            "time": 281.3125,
            "velocity": 0.13385826771653545
          },
          {
            "duration": 0.0625,
            "durationTicks": 48,
            "midi": 78,
            "name": "F#5",
            "ticks": 216096,
            "time": 281.375,
            "velocity": 0.13385826771653545
          },
          {
            "duration": 0.0625,
            "durationTicks": 48,
            "midi": 73,
            "name": "C#5",
            "ticks": 216096,
            "time": 281.375,
            "velocity": 0.13385826771653545
          },
          {
            "duration": 0.0625,
            "durationTicks": 48,
            "midi": 70,
            "name": "A#4",
            "ticks": 216096,
            "time": 281.375,
            "velocity": 0.13385826771653545
          },
          {
            "duration": 0.0625,
            "durationTicks": 48,
            "midi": 70,
            "name": "A#4",
            "ticks": 216144,
            "time": 281.4375,
            "velocity": 0.13385826771653545
          },
          {
            "duration": 0.0625,
            "durationTicks": 48,
            "midi": 78,
            "name": "F#5",
            "ticks": 216144,
            "time": 281.4375,
            "velocity": 0.13385826771653545
          },
          {
            "duration": 0.0625,
            "durationTicks": 48,
            "midi": 73,
            "name": "C#5",
            "ticks": 216144,
            "time": 281.4375,
            "velocity": 0.13385826771653545
          },
          {
            "duration": 0.0625,
            "durationTicks": 48,
            "midi": 78,
            "name": "F#5",
            "ticks": 216192,
            "time": 281.5,
            "velocity": 0.13385826771653545
          },
          {
            "duration": 0.0625,
            "durationTicks": 48,
            "midi": 73,
            "name": "C#5",
            "ticks": 216192,
            "time": 281.5,
            "velocity": 0.13385826771653545
          },
          {
            "duration": 0.0625,
            "durationTicks": 48,
            "midi": 70,
            "name": "A#4",
            "ticks": 216192,
            "time": 281.5,
            "velocity": 0.13385826771653545
          },
          {
            "duration": 0.0625,
            "durationTicks": 48,
            "midi": 73,
            "name": "C#5",
            "ticks": 216240,
            "time": 281.5625,
            "velocity": 0.13385826771653545
          },
          {
            "duration": 0.0625,
            "durationTicks": 48,
            "midi": 70,
            "name": "A#4",
            "ticks": 216240,
            "time": 281.5625,
            "velocity": 0.13385826771653545
          },
          {
            "duration": 0.0625,
            "durationTicks": 48,
            "midi": 78,
            "name": "F#5",
            "ticks": 216240,
            "time": 281.5625,
            "velocity": 0.13385826771653545
          },
          {
            "duration": 0.0625,
            "durationTicks": 48,
            "midi": 73,
            "name": "C#5",
            "ticks": 216288,
            "time": 281.625,
            "velocity": 0.13385826771653545
          },
          {
            "duration": 0.0625,
            "durationTicks": 48,
            "midi": 78,
            "name": "F#5",
            "ticks": 216288,
            "time": 281.625,
            "velocity": 0.13385826771653545
          },
          {
            "duration": 0.0625,
            "durationTicks": 48,
            "midi": 70,
            "name": "A#4",
            "ticks": 216288,
            "time": 281.625,
            "velocity": 0.13385826771653545
          },
          {
            "duration": 0.0625,
            "durationTicks": 48,
            "midi": 73,
            "name": "C#5",
            "ticks": 216336,
            "time": 281.6875,
            "velocity": 0.13385826771653545
          },
          {
            "duration": 0.0625,
            "durationTicks": 48,
            "midi": 70,
            "name": "A#4",
            "ticks": 216336,
            "time": 281.6875,
            "velocity": 0.13385826771653545
          },
          {
            "duration": 0.0625,
            "durationTicks": 48,
            "midi": 78,
            "name": "F#5",
            "ticks": 216336,
            "time": 281.6875,
            "velocity": 0.13385826771653545
          },
          {
            "duration": 0.0625,
            "durationTicks": 48,
            "midi": 70,
            "name": "A#4",
            "ticks": 216384,
            "time": 281.75,
            "velocity": 0.13385826771653545
          },
          {
            "duration": 0.0625,
            "durationTicks": 48,
            "midi": 78,
            "name": "F#5",
            "ticks": 216384,
            "time": 281.75,
            "velocity": 0.13385826771653545
          },
          {
            "duration": 0.0625,
            "durationTicks": 48,
            "midi": 73,
            "name": "C#5",
            "ticks": 216384,
            "time": 281.75,
            "velocity": 0.13385826771653545
          },
          {
            "duration": 0.0625,
            "durationTicks": 48,
            "midi": 78,
            "name": "F#5",
            "ticks": 216432,
            "time": 281.8125,
            "velocity": 0.13385826771653545
          },
          {
            "duration": 0.0625,
            "durationTicks": 48,
            "midi": 73,
            "name": "C#5",
            "ticks": 216432,
            "time": 281.8125,
            "velocity": 0.13385826771653545
          },
          {
            "duration": 0.0625,
            "durationTicks": 48,
            "midi": 70,
            "name": "A#4",
            "ticks": 216432,
            "time": 281.8125,
            "velocity": 0.13385826771653545
          },
          {
            "duration": 0.0625,
            "durationTicks": 48,
            "midi": 73,
            "name": "C#5",
            "ticks": 216480,
            "time": 281.875,
            "velocity": 0.13385826771653545
          },
          {
            "duration": 0.0625,
            "durationTicks": 48,
            "midi": 76,
            "name": "E5",
            "ticks": 216480,
            "time": 281.875,
            "velocity": 0.13385826771653545
          },
          {
            "duration": 0.0625,
            "durationTicks": 48,
            "midi": 80,
            "name": "G#5",
            "ticks": 216480,
            "time": 281.875,
            "velocity": 0.13385826771653545
          },
          {
            "duration": 0.0625,
            "durationTicks": 48,
            "midi": 76,
            "name": "E5",
            "ticks": 216528,
            "time": 281.9375,
            "velocity": 0.13385826771653545
          },
          {
            "duration": 0.0625,
            "durationTicks": 48,
            "midi": 73,
            "name": "C#5",
            "ticks": 216528,
            "time": 281.9375,
            "velocity": 0.13385826771653545
          },
          {
            "duration": 0.0625,
            "durationTicks": 48,
            "midi": 80,
            "name": "G#5",
            "ticks": 216528,
            "time": 281.9375,
            "velocity": 0.13385826771653545
          },
          {
            "duration": 0.0625,
            "durationTicks": 48,
            "midi": 73,
            "name": "C#5",
            "ticks": 216576,
            "time": 282,
            "velocity": 0.13385826771653545
          },
          {
            "duration": 0.0625,
            "durationTicks": 48,
            "midi": 80,
            "name": "G#5",
            "ticks": 216576,
            "time": 282,
            "velocity": 0.13385826771653545
          },
          {
            "duration": 0.0625,
            "durationTicks": 48,
            "midi": 76,
            "name": "E5",
            "ticks": 216576,
            "time": 282,
            "velocity": 0.13385826771653545
          },
          {
            "duration": 0.0625,
            "durationTicks": 48,
            "midi": 76,
            "name": "E5",
            "ticks": 216624,
            "time": 282.0625,
            "velocity": 0.13385826771653545
          },
          {
            "duration": 0.0625,
            "durationTicks": 48,
            "midi": 73,
            "name": "C#5",
            "ticks": 216624,
            "time": 282.0625,
            "velocity": 0.13385826771653545
          },
          {
            "duration": 0.0625,
            "durationTicks": 48,
            "midi": 80,
            "name": "G#5",
            "ticks": 216624,
            "time": 282.0625,
            "velocity": 0.13385826771653545
          },
          {
            "duration": 0.0625,
            "durationTicks": 48,
            "midi": 80,
            "name": "G#5",
            "ticks": 216672,
            "time": 282.125,
            "velocity": 0.13385826771653545
          },
          {
            "duration": 0.0625,
            "durationTicks": 48,
            "midi": 73,
            "name": "C#5",
            "ticks": 216672,
            "time": 282.125,
            "velocity": 0.13385826771653545
          },
          {
            "duration": 0.0625,
            "durationTicks": 48,
            "midi": 76,
            "name": "E5",
            "ticks": 216672,
            "time": 282.125,
            "velocity": 0.13385826771653545
          },
          {
            "duration": 0.0625,
            "durationTicks": 48,
            "midi": 73,
            "name": "C#5",
            "ticks": 216720,
            "time": 282.1875,
            "velocity": 0.13385826771653545
          },
          {
            "duration": 0.0625,
            "durationTicks": 48,
            "midi": 76,
            "name": "E5",
            "ticks": 216720,
            "time": 282.1875,
            "velocity": 0.13385826771653545
          },
          {
            "duration": 0.0625,
            "durationTicks": 48,
            "midi": 80,
            "name": "G#5",
            "ticks": 216720,
            "time": 282.1875,
            "velocity": 0.13385826771653545
          },
          {
            "duration": 0.0625,
            "durationTicks": 48,
            "midi": 73,
            "name": "C#5",
            "ticks": 216768,
            "time": 282.25,
            "velocity": 0.13385826771653545
          },
          {
            "duration": 0.0625,
            "durationTicks": 48,
            "midi": 76,
            "name": "E5",
            "ticks": 216768,
            "time": 282.25,
            "velocity": 0.13385826771653545
          },
          {
            "duration": 0.0625,
            "durationTicks": 48,
            "midi": 80,
            "name": "G#5",
            "ticks": 216768,
            "time": 282.25,
            "velocity": 0.13385826771653545
          },
          {
            "duration": 0.0625,
            "durationTicks": 48,
            "midi": 73,
            "name": "C#5",
            "ticks": 216816,
            "time": 282.3125,
            "velocity": 0.13385826771653545
          },
          {
            "duration": 0.0625,
            "durationTicks": 48,
            "midi": 80,
            "name": "G#5",
            "ticks": 216816,
            "time": 282.3125,
            "velocity": 0.13385826771653545
          },
          {
            "duration": 0.0625,
            "durationTicks": 48,
            "midi": 76,
            "name": "E5",
            "ticks": 216816,
            "time": 282.3125,
            "velocity": 0.13385826771653545
          },
          {
            "duration": 0.0625,
            "durationTicks": 48,
            "midi": 73,
            "name": "C#5",
            "ticks": 216864,
            "time": 282.375,
            "velocity": 0.13385826771653545
          },
          {
            "duration": 0.0625,
            "durationTicks": 48,
            "midi": 76,
            "name": "E5",
            "ticks": 216864,
            "time": 282.375,
            "velocity": 0.13385826771653545
          },
          {
            "duration": 0.0625,
            "durationTicks": 48,
            "midi": 80,
            "name": "G#5",
            "ticks": 216864,
            "time": 282.375,
            "velocity": 0.13385826771653545
          },
          {
            "duration": 0.0625,
            "durationTicks": 48,
            "midi": 80,
            "name": "G#5",
            "ticks": 216912,
            "time": 282.4375,
            "velocity": 0.13385826771653545
          },
          {
            "duration": 0.0625,
            "durationTicks": 48,
            "midi": 76,
            "name": "E5",
            "ticks": 216912,
            "time": 282.4375,
            "velocity": 0.13385826771653545
          },
          {
            "duration": 0.0625,
            "durationTicks": 48,
            "midi": 73,
            "name": "C#5",
            "ticks": 216912,
            "time": 282.4375,
            "velocity": 0.13385826771653545
          },
          {
            "duration": 0.0625,
            "durationTicks": 48,
            "midi": 80,
            "name": "G#5",
            "ticks": 216960,
            "time": 282.5,
            "velocity": 0.13385826771653545
          },
          {
            "duration": 0.0625,
            "durationTicks": 48,
            "midi": 73,
            "name": "C#5",
            "ticks": 216960,
            "time": 282.5,
            "velocity": 0.13385826771653545
          },
          {
            "duration": 0.0625,
            "durationTicks": 48,
            "midi": 76,
            "name": "E5",
            "ticks": 216960,
            "time": 282.5,
            "velocity": 0.13385826771653545
          },
          {
            "duration": 0.0625,
            "durationTicks": 48,
            "midi": 76,
            "name": "E5",
            "ticks": 217008,
            "time": 282.5625,
            "velocity": 0.13385826771653545
          },
          {
            "duration": 0.0625,
            "durationTicks": 48,
            "midi": 73,
            "name": "C#5",
            "ticks": 217008,
            "time": 282.5625,
            "velocity": 0.13385826771653545
          },
          {
            "duration": 0.0625,
            "durationTicks": 48,
            "midi": 80,
            "name": "G#5",
            "ticks": 217008,
            "time": 282.5625,
            "velocity": 0.13385826771653545
          },
          {
            "duration": 0.0625,
            "durationTicks": 48,
            "midi": 76,
            "name": "E5",
            "ticks": 217056,
            "time": 282.625,
            "velocity": 0.13385826771653545
          },
          {
            "duration": 0.0625,
            "durationTicks": 48,
            "midi": 80,
            "name": "G#5",
            "ticks": 217056,
            "time": 282.625,
            "velocity": 0.13385826771653545
          },
          {
            "duration": 0.0625,
            "durationTicks": 48,
            "midi": 73,
            "name": "C#5",
            "ticks": 217056,
            "time": 282.625,
            "velocity": 0.13385826771653545
          },
          {
            "duration": 0.0625,
            "durationTicks": 48,
            "midi": 76,
            "name": "E5",
            "ticks": 217104,
            "time": 282.6875,
            "velocity": 0.13385826771653545
          },
          {
            "duration": 0.0625,
            "durationTicks": 48,
            "midi": 80,
            "name": "G#5",
            "ticks": 217104,
            "time": 282.6875,
            "velocity": 0.13385826771653545
          },
          {
            "duration": 0.0625,
            "durationTicks": 48,
            "midi": 73,
            "name": "C#5",
            "ticks": 217104,
            "time": 282.6875,
            "velocity": 0.13385826771653545
          },
          {
            "duration": 0.0625,
            "durationTicks": 48,
            "midi": 76,
            "name": "E5",
            "ticks": 217152,
            "time": 282.75,
            "velocity": 0.13385826771653545
          },
          {
            "duration": 0.0625,
            "durationTicks": 48,
            "midi": 80,
            "name": "G#5",
            "ticks": 217152,
            "time": 282.75,
            "velocity": 0.13385826771653545
          },
          {
            "duration": 0.0625,
            "durationTicks": 48,
            "midi": 73,
            "name": "C#5",
            "ticks": 217152,
            "time": 282.75,
            "velocity": 0.13385826771653545
          },
          {
            "duration": 0.0625,
            "durationTicks": 48,
            "midi": 76,
            "name": "E5",
            "ticks": 217200,
            "time": 282.8125,
            "velocity": 0.13385826771653545
          },
          {
            "duration": 0.0625,
            "durationTicks": 48,
            "midi": 80,
            "name": "G#5",
            "ticks": 217200,
            "time": 282.8125,
            "velocity": 0.13385826771653545
          },
          {
            "duration": 0.0625,
            "durationTicks": 48,
            "midi": 73,
            "name": "C#5",
            "ticks": 217200,
            "time": 282.8125,
            "velocity": 0.13385826771653545
          },
          {
            "duration": 0.0625,
            "durationTicks": 48,
            "midi": 73,
            "name": "C#5",
            "ticks": 217248,
            "time": 282.875,
            "velocity": 0.13385826771653545
          },
          {
            "duration": 0.0625,
            "durationTicks": 48,
            "midi": 80,
            "name": "G#5",
            "ticks": 217248,
            "time": 282.875,
            "velocity": 0.13385826771653545
          },
          {
            "duration": 0.0625,
            "durationTicks": 48,
            "midi": 76,
            "name": "E5",
            "ticks": 217248,
            "time": 282.875,
            "velocity": 0.13385826771653545
          },
          {
            "duration": 0.0625,
            "durationTicks": 48,
            "midi": 80,
            "name": "G#5",
            "ticks": 217296,
            "time": 282.9375,
            "velocity": 0.13385826771653545
          },
          {
            "duration": 0.0625,
            "durationTicks": 48,
            "midi": 76,
            "name": "E5",
            "ticks": 217296,
            "time": 282.9375,
            "velocity": 0.13385826771653545
          },
          {
            "duration": 0.0625,
            "durationTicks": 48,
            "midi": 73,
            "name": "C#5",
            "ticks": 217296,
            "time": 282.9375,
            "velocity": 0.13385826771653545
          },
          {
            "duration": 0.0625,
            "durationTicks": 48,
            "midi": 76,
            "name": "E5",
            "ticks": 217344,
            "time": 283,
            "velocity": 0.13385826771653545
          },
          {
            "duration": 0.0625,
            "durationTicks": 48,
            "midi": 80,
            "name": "G#5",
            "ticks": 217344,
            "time": 283,
            "velocity": 0.13385826771653545
          },
          {
            "duration": 0.0625,
            "durationTicks": 48,
            "midi": 73,
            "name": "C#5",
            "ticks": 217344,
            "time": 283,
            "velocity": 0.13385826771653545
          },
          {
            "duration": 0.0625,
            "durationTicks": 48,
            "midi": 80,
            "name": "G#5",
            "ticks": 217392,
            "time": 283.0625,
            "velocity": 0.13385826771653545
          },
          {
            "duration": 0.0625,
            "durationTicks": 48,
            "midi": 76,
            "name": "E5",
            "ticks": 217392,
            "time": 283.0625,
            "velocity": 0.13385826771653545
          },
          {
            "duration": 0.0625,
            "durationTicks": 48,
            "midi": 73,
            "name": "C#5",
            "ticks": 217392,
            "time": 283.0625,
            "velocity": 0.13385826771653545
          },
          {
            "duration": 0.0625,
            "durationTicks": 48,
            "midi": 80,
            "name": "G#5",
            "ticks": 217440,
            "time": 283.125,
            "velocity": 0.13385826771653545
          },
          {
            "duration": 0.0625,
            "durationTicks": 48,
            "midi": 76,
            "name": "E5",
            "ticks": 217440,
            "time": 283.125,
            "velocity": 0.13385826771653545
          },
          {
            "duration": 0.0625,
            "durationTicks": 48,
            "midi": 73,
            "name": "C#5",
            "ticks": 217440,
            "time": 283.125,
            "velocity": 0.13385826771653545
          },
          {
            "duration": 0.0625,
            "durationTicks": 48,
            "midi": 73,
            "name": "C#5",
            "ticks": 217488,
            "time": 283.1875,
            "velocity": 0.13385826771653545
          },
          {
            "duration": 0.0625,
            "durationTicks": 48,
            "midi": 80,
            "name": "G#5",
            "ticks": 217488,
            "time": 283.1875,
            "velocity": 0.13385826771653545
          },
          {
            "duration": 0.0625,
            "durationTicks": 48,
            "midi": 76,
            "name": "E5",
            "ticks": 217488,
            "time": 283.1875,
            "velocity": 0.13385826771653545
          },
          {
            "duration": 0.0625,
            "durationTicks": 48,
            "midi": 76,
            "name": "E5",
            "ticks": 217536,
            "time": 283.25,
            "velocity": 0.13385826771653545
          },
          {
            "duration": 0.0625,
            "durationTicks": 48,
            "midi": 73,
            "name": "C#5",
            "ticks": 217536,
            "time": 283.25,
            "velocity": 0.13385826771653545
          },
          {
            "duration": 0.0625,
            "durationTicks": 48,
            "midi": 80,
            "name": "G#5",
            "ticks": 217536,
            "time": 283.25,
            "velocity": 0.13385826771653545
          },
          {
            "duration": 0.0625,
            "durationTicks": 48,
            "midi": 73,
            "name": "C#5",
            "ticks": 217584,
            "time": 283.3125,
            "velocity": 0.13385826771653545
          },
          {
            "duration": 0.0625,
            "durationTicks": 48,
            "midi": 80,
            "name": "G#5",
            "ticks": 217584,
            "time": 283.3125,
            "velocity": 0.13385826771653545
          },
          {
            "duration": 0.0625,
            "durationTicks": 48,
            "midi": 76,
            "name": "E5",
            "ticks": 217584,
            "time": 283.3125,
            "velocity": 0.13385826771653545
          },
          {
            "duration": 0.0625,
            "durationTicks": 48,
            "midi": 73,
            "name": "C#5",
            "ticks": 217632,
            "time": 283.375,
            "velocity": 0.13385826771653545
          },
          {
            "duration": 0.0625,
            "durationTicks": 48,
            "midi": 76,
            "name": "E5",
            "ticks": 217632,
            "time": 283.375,
            "velocity": 0.13385826771653545
          },
          {
            "duration": 0.0625,
            "durationTicks": 48,
            "midi": 80,
            "name": "G#5",
            "ticks": 217632,
            "time": 283.375,
            "velocity": 0.13385826771653545
          },
          {
            "duration": 0.0625,
            "durationTicks": 48,
            "midi": 80,
            "name": "G#5",
            "ticks": 217680,
            "time": 283.4375,
            "velocity": 0.13385826771653545
          },
          {
            "duration": 0.0625,
            "durationTicks": 48,
            "midi": 76,
            "name": "E5",
            "ticks": 217680,
            "time": 283.4375,
            "velocity": 0.13385826771653545
          },
          {
            "duration": 0.0625,
            "durationTicks": 48,
            "midi": 73,
            "name": "C#5",
            "ticks": 217680,
            "time": 283.4375,
            "velocity": 0.13385826771653545
          },
          {
            "duration": 0.0625,
            "durationTicks": 48,
            "midi": 76,
            "name": "E5",
            "ticks": 217728,
            "time": 283.5,
            "velocity": 0.13385826771653545
          },
          {
            "duration": 0.0625,
            "durationTicks": 48,
            "midi": 73,
            "name": "C#5",
            "ticks": 217728,
            "time": 283.5,
            "velocity": 0.13385826771653545
          },
          {
            "duration": 0.0625,
            "durationTicks": 48,
            "midi": 80,
            "name": "G#5",
            "ticks": 217728,
            "time": 283.5,
            "velocity": 0.13385826771653545
          },
          {
            "duration": 0.0625,
            "durationTicks": 48,
            "midi": 73,
            "name": "C#5",
            "ticks": 217776,
            "time": 283.5625,
            "velocity": 0.13385826771653545
          },
          {
            "duration": 0.0625,
            "durationTicks": 48,
            "midi": 76,
            "name": "E5",
            "ticks": 217776,
            "time": 283.5625,
            "velocity": 0.13385826771653545
          },
          {
            "duration": 0.0625,
            "durationTicks": 48,
            "midi": 80,
            "name": "G#5",
            "ticks": 217776,
            "time": 283.5625,
            "velocity": 0.13385826771653545
          },
          {
            "duration": 0.0625,
            "durationTicks": 48,
            "midi": 80,
            "name": "G#5",
            "ticks": 217824,
            "time": 283.625,
            "velocity": 0.13385826771653545
          },
          {
            "duration": 0.0625,
            "durationTicks": 48,
            "midi": 76,
            "name": "E5",
            "ticks": 217824,
            "time": 283.625,
            "velocity": 0.13385826771653545
          },
          {
            "duration": 0.0625,
            "durationTicks": 48,
            "midi": 73,
            "name": "C#5",
            "ticks": 217824,
            "time": 283.625,
            "velocity": 0.13385826771653545
          },
          {
            "duration": 0.0625,
            "durationTicks": 48,
            "midi": 73,
            "name": "C#5",
            "ticks": 217872,
            "time": 283.6875,
            "velocity": 0.13385826771653545
          },
          {
            "duration": 0.0625,
            "durationTicks": 48,
            "midi": 80,
            "name": "G#5",
            "ticks": 217872,
            "time": 283.6875,
            "velocity": 0.13385826771653545
          },
          {
            "duration": 0.0625,
            "durationTicks": 48,
            "midi": 76,
            "name": "E5",
            "ticks": 217872,
            "time": 283.6875,
            "velocity": 0.13385826771653545
          },
          {
            "duration": 0.0625,
            "durationTicks": 48,
            "midi": 80,
            "name": "G#5",
            "ticks": 217920,
            "time": 283.75,
            "velocity": 0.13385826771653545
          },
          {
            "duration": 0.0625,
            "durationTicks": 48,
            "midi": 73,
            "name": "C#5",
            "ticks": 217920,
            "time": 283.75,
            "velocity": 0.13385826771653545
          },
          {
            "duration": 0.0625,
            "durationTicks": 48,
            "midi": 76,
            "name": "E5",
            "ticks": 217920,
            "time": 283.75,
            "velocity": 0.13385826771653545
          },
          {
            "duration": 0.0625,
            "durationTicks": 48,
            "midi": 73,
            "name": "C#5",
            "ticks": 217968,
            "time": 283.8125,
            "velocity": 0.13385826771653545
          },
          {
            "duration": 0.0625,
            "durationTicks": 48,
            "midi": 76,
            "name": "E5",
            "ticks": 217968,
            "time": 283.8125,
            "velocity": 0.13385826771653545
          },
          {
            "duration": 0.0625,
            "durationTicks": 48,
            "midi": 80,
            "name": "G#5",
            "ticks": 217968,
            "time": 283.8125,
            "velocity": 0.13385826771653545
          },
          {
            "duration": 0.0625,
            "durationTicks": 48,
            "midi": 76,
            "name": "E5",
            "ticks": 218016,
            "time": 283.875,
            "velocity": 0.13385826771653545
          },
          {
            "duration": 0.0625,
            "durationTicks": 48,
            "midi": 73,
            "name": "C#5",
            "ticks": 218016,
            "time": 283.875,
            "velocity": 0.13385826771653545
          },
          {
            "duration": 0.0625,
            "durationTicks": 48,
            "midi": 81,
            "name": "A5",
            "ticks": 218016,
            "time": 283.875,
            "velocity": 0.13385826771653545
          },
          {
            "duration": 0.0625,
            "durationTicks": 48,
            "midi": 76,
            "name": "E5",
            "ticks": 218064,
            "time": 283.9375,
            "velocity": 0.13385826771653545
          },
          {
            "duration": 0.0625,
            "durationTicks": 48,
            "midi": 81,
            "name": "A5",
            "ticks": 218064,
            "time": 283.9375,
            "velocity": 0.13385826771653545
          },
          {
            "duration": 0.0625,
            "durationTicks": 48,
            "midi": 73,
            "name": "C#5",
            "ticks": 218064,
            "time": 283.9375,
            "velocity": 0.13385826771653545
          },
          {
            "duration": 0.0625,
            "durationTicks": 48,
            "midi": 76,
            "name": "E5",
            "ticks": 218112,
            "time": 284,
            "velocity": 0.13385826771653545
          },
          {
            "duration": 0.0625,
            "durationTicks": 48,
            "midi": 81,
            "name": "A5",
            "ticks": 218112,
            "time": 284,
            "velocity": 0.13385826771653545
          },
          {
            "duration": 0.0625,
            "durationTicks": 48,
            "midi": 73,
            "name": "C#5",
            "ticks": 218112,
            "time": 284,
            "velocity": 0.13385826771653545
          },
          {
            "duration": 0.0625,
            "durationTicks": 48,
            "midi": 73,
            "name": "C#5",
            "ticks": 218160,
            "time": 284.0625,
            "velocity": 0.13385826771653545
          },
          {
            "duration": 0.0625,
            "durationTicks": 48,
            "midi": 76,
            "name": "E5",
            "ticks": 218160,
            "time": 284.0625,
            "velocity": 0.13385826771653545
          },
          {
            "duration": 0.0625,
            "durationTicks": 48,
            "midi": 81,
            "name": "A5",
            "ticks": 218160,
            "time": 284.0625,
            "velocity": 0.13385826771653545
          },
          {
            "duration": 0.0625,
            "durationTicks": 48,
            "midi": 81,
            "name": "A5",
            "ticks": 218208,
            "time": 284.125,
            "velocity": 0.13385826771653545
          },
          {
            "duration": 0.0625,
            "durationTicks": 48,
            "midi": 76,
            "name": "E5",
            "ticks": 218208,
            "time": 284.125,
            "velocity": 0.13385826771653545
          },
          {
            "duration": 0.0625,
            "durationTicks": 48,
            "midi": 73,
            "name": "C#5",
            "ticks": 218208,
            "time": 284.125,
            "velocity": 0.13385826771653545
          },
          {
            "duration": 0.0625,
            "durationTicks": 48,
            "midi": 81,
            "name": "A5",
            "ticks": 218256,
            "time": 284.1875,
            "velocity": 0.13385826771653545
          },
          {
            "duration": 0.0625,
            "durationTicks": 48,
            "midi": 73,
            "name": "C#5",
            "ticks": 218256,
            "time": 284.1875,
            "velocity": 0.13385826771653545
          },
          {
            "duration": 0.0625,
            "durationTicks": 48,
            "midi": 76,
            "name": "E5",
            "ticks": 218256,
            "time": 284.1875,
            "velocity": 0.13385826771653545
          },
          {
            "duration": 0.0625,
            "durationTicks": 48,
            "midi": 76,
            "name": "E5",
            "ticks": 218304,
            "time": 284.25,
            "velocity": 0.13385826771653545
          },
          {
            "duration": 0.0625,
            "durationTicks": 48,
            "midi": 81,
            "name": "A5",
            "ticks": 218304,
            "time": 284.25,
            "velocity": 0.13385826771653545
          },
          {
            "duration": 0.0625,
            "durationTicks": 48,
            "midi": 73,
            "name": "C#5",
            "ticks": 218304,
            "time": 284.25,
            "velocity": 0.13385826771653545
          },
          {
            "duration": 0.0625,
            "durationTicks": 48,
            "midi": 73,
            "name": "C#5",
            "ticks": 218352,
            "time": 284.3125,
            "velocity": 0.13385826771653545
          },
          {
            "duration": 0.0625,
            "durationTicks": 48,
            "midi": 81,
            "name": "A5",
            "ticks": 218352,
            "time": 284.3125,
            "velocity": 0.13385826771653545
          },
          {
            "duration": 0.0625,
            "durationTicks": 48,
            "midi": 76,
            "name": "E5",
            "ticks": 218352,
            "time": 284.3125,
            "velocity": 0.13385826771653545
          },
          {
            "duration": 0.0625,
            "durationTicks": 48,
            "midi": 76,
            "name": "E5",
            "ticks": 218400,
            "time": 284.375,
            "velocity": 0.13385826771653545
          },
          {
            "duration": 0.0625,
            "durationTicks": 48,
            "midi": 81,
            "name": "A5",
            "ticks": 218400,
            "time": 284.375,
            "velocity": 0.13385826771653545
          },
          {
            "duration": 0.0625,
            "durationTicks": 48,
            "midi": 73,
            "name": "C#5",
            "ticks": 218400,
            "time": 284.375,
            "velocity": 0.13385826771653545
          },
          {
            "duration": 0.0625,
            "durationTicks": 48,
            "midi": 81,
            "name": "A5",
            "ticks": 218448,
            "time": 284.4375,
            "velocity": 0.13385826771653545
          },
          {
            "duration": 0.0625,
            "durationTicks": 48,
            "midi": 73,
            "name": "C#5",
            "ticks": 218448,
            "time": 284.4375,
            "velocity": 0.13385826771653545
          },
          {
            "duration": 0.0625,
            "durationTicks": 48,
            "midi": 76,
            "name": "E5",
            "ticks": 218448,
            "time": 284.4375,
            "velocity": 0.13385826771653545
          },
          {
            "duration": 0.0625,
            "durationTicks": 48,
            "midi": 81,
            "name": "A5",
            "ticks": 218496,
            "time": 284.5,
            "velocity": 0.13385826771653545
          },
          {
            "duration": 0.0625,
            "durationTicks": 48,
            "midi": 73,
            "name": "C#5",
            "ticks": 218496,
            "time": 284.5,
            "velocity": 0.13385826771653545
          },
          {
            "duration": 0.0625,
            "durationTicks": 48,
            "midi": 76,
            "name": "E5",
            "ticks": 218496,
            "time": 284.5,
            "velocity": 0.13385826771653545
          },
          {
            "duration": 0.0625,
            "durationTicks": 48,
            "midi": 76,
            "name": "E5",
            "ticks": 218544,
            "time": 284.5625,
            "velocity": 0.13385826771653545
          },
          {
            "duration": 0.0625,
            "durationTicks": 48,
            "midi": 81,
            "name": "A5",
            "ticks": 218544,
            "time": 284.5625,
            "velocity": 0.13385826771653545
          },
          {
            "duration": 0.0625,
            "durationTicks": 48,
            "midi": 73,
            "name": "C#5",
            "ticks": 218544,
            "time": 284.5625,
            "velocity": 0.13385826771653545
          },
          {
            "duration": 0.0625,
            "durationTicks": 48,
            "midi": 81,
            "name": "A5",
            "ticks": 218592,
            "time": 284.625,
            "velocity": 0.13385826771653545
          },
          {
            "duration": 0.0625,
            "durationTicks": 48,
            "midi": 76,
            "name": "E5",
            "ticks": 218592,
            "time": 284.625,
            "velocity": 0.13385826771653545
          },
          {
            "duration": 0.0625,
            "durationTicks": 48,
            "midi": 73,
            "name": "C#5",
            "ticks": 218592,
            "time": 284.625,
            "velocity": 0.13385826771653545
          },
          {
            "duration": 0.0625,
            "durationTicks": 48,
            "midi": 73,
            "name": "C#5",
            "ticks": 218640,
            "time": 284.6875,
            "velocity": 0.13385826771653545
          },
          {
            "duration": 0.0625,
            "durationTicks": 48,
            "midi": 81,
            "name": "A5",
            "ticks": 218640,
            "time": 284.6875,
            "velocity": 0.13385826771653545
          },
          {
            "duration": 0.0625,
            "durationTicks": 48,
            "midi": 76,
            "name": "E5",
            "ticks": 218640,
            "time": 284.6875,
            "velocity": 0.13385826771653545
          },
          {
            "duration": 0.0625,
            "durationTicks": 48,
            "midi": 73,
            "name": "C#5",
            "ticks": 218688,
            "time": 284.75,
            "velocity": 0.13385826771653545
          },
          {
            "duration": 0.0625,
            "durationTicks": 48,
            "midi": 76,
            "name": "E5",
            "ticks": 218688,
            "time": 284.75,
            "velocity": 0.13385826771653545
          },
          {
            "duration": 0.0625,
            "durationTicks": 48,
            "midi": 81,
            "name": "A5",
            "ticks": 218688,
            "time": 284.75,
            "velocity": 0.13385826771653545
          },
          {
            "duration": 0.0625,
            "durationTicks": 48,
            "midi": 81,
            "name": "A5",
            "ticks": 218736,
            "time": 284.8125,
            "velocity": 0.13385826771653545
          },
          {
            "duration": 0.0625,
            "durationTicks": 48,
            "midi": 76,
            "name": "E5",
            "ticks": 218736,
            "time": 284.8125,
            "velocity": 0.13385826771653545
          },
          {
            "duration": 0.0625,
            "durationTicks": 48,
            "midi": 73,
            "name": "C#5",
            "ticks": 218736,
            "time": 284.8125,
            "velocity": 0.13385826771653545
          },
          {
            "duration": 0.0625,
            "durationTicks": 48,
            "midi": 81,
            "name": "A5",
            "ticks": 218784,
            "time": 284.875,
            "velocity": 0.13385826771653545
          },
          {
            "duration": 0.0625,
            "durationTicks": 48,
            "midi": 76,
            "name": "E5",
            "ticks": 218784,
            "time": 284.875,
            "velocity": 0.13385826771653545
          },
          {
            "duration": 0.0625,
            "durationTicks": 48,
            "midi": 73,
            "name": "C#5",
            "ticks": 218784,
            "time": 284.875,
            "velocity": 0.13385826771653545
          },
          {
            "duration": 0.0625,
            "durationTicks": 48,
            "midi": 73,
            "name": "C#5",
            "ticks": 218832,
            "time": 284.9375,
            "velocity": 0.13385826771653545
          },
          {
            "duration": 0.0625,
            "durationTicks": 48,
            "midi": 76,
            "name": "E5",
            "ticks": 218832,
            "time": 284.9375,
            "velocity": 0.13385826771653545
          },
          {
            "duration": 0.0625,
            "durationTicks": 48,
            "midi": 81,
            "name": "A5",
            "ticks": 218832,
            "time": 284.9375,
            "velocity": 0.13385826771653545
          },
          {
            "duration": 0.0625,
            "durationTicks": 48,
            "midi": 76,
            "name": "E5",
            "ticks": 218880,
            "time": 285,
            "velocity": 0.13385826771653545
          },
          {
            "duration": 0.0625,
            "durationTicks": 48,
            "midi": 81,
            "name": "A5",
            "ticks": 218880,
            "time": 285,
            "velocity": 0.13385826771653545
          },
          {
            "duration": 0.0625,
            "durationTicks": 48,
            "midi": 73,
            "name": "C#5",
            "ticks": 218880,
            "time": 285,
            "velocity": 0.13385826771653545
          },
          {
            "duration": 0.0625,
            "durationTicks": 48,
            "midi": 76,
            "name": "E5",
            "ticks": 218928,
            "time": 285.0625,
            "velocity": 0.13385826771653545
          },
          {
            "duration": 0.0625,
            "durationTicks": 48,
            "midi": 81,
            "name": "A5",
            "ticks": 218928,
            "time": 285.0625,
            "velocity": 0.13385826771653545
          },
          {
            "duration": 0.0625,
            "durationTicks": 48,
            "midi": 73,
            "name": "C#5",
            "ticks": 218928,
            "time": 285.0625,
            "velocity": 0.13385826771653545
          },
          {
            "duration": 0.0625,
            "durationTicks": 48,
            "midi": 76,
            "name": "E5",
            "ticks": 218976,
            "time": 285.125,
            "velocity": 0.13385826771653545
          },
          {
            "duration": 0.0625,
            "durationTicks": 48,
            "midi": 81,
            "name": "A5",
            "ticks": 218976,
            "time": 285.125,
            "velocity": 0.13385826771653545
          },
          {
            "duration": 0.0625,
            "durationTicks": 48,
            "midi": 73,
            "name": "C#5",
            "ticks": 218976,
            "time": 285.125,
            "velocity": 0.13385826771653545
          },
          {
            "duration": 0.0625,
            "durationTicks": 48,
            "midi": 73,
            "name": "C#5",
            "ticks": 219024,
            "time": 285.1875,
            "velocity": 0.13385826771653545
          },
          {
            "duration": 0.0625,
            "durationTicks": 48,
            "midi": 81,
            "name": "A5",
            "ticks": 219024,
            "time": 285.1875,
            "velocity": 0.13385826771653545
          },
          {
            "duration": 0.0625,
            "durationTicks": 48,
            "midi": 76,
            "name": "E5",
            "ticks": 219024,
            "time": 285.1875,
            "velocity": 0.13385826771653545
          },
          {
            "duration": 0.0625,
            "durationTicks": 48,
            "midi": 81,
            "name": "A5",
            "ticks": 219072,
            "time": 285.25,
            "velocity": 0.13385826771653545
          },
          {
            "duration": 0.0625,
            "durationTicks": 48,
            "midi": 73,
            "name": "C#5",
            "ticks": 219072,
            "time": 285.25,
            "velocity": 0.13385826771653545
          },
          {
            "duration": 0.0625,
            "durationTicks": 48,
            "midi": 76,
            "name": "E5",
            "ticks": 219072,
            "time": 285.25,
            "velocity": 0.13385826771653545
          },
          {
            "duration": 0.0625,
            "durationTicks": 48,
            "midi": 76,
            "name": "E5",
            "ticks": 219120,
            "time": 285.3125,
            "velocity": 0.13385826771653545
          },
          {
            "duration": 0.0625,
            "durationTicks": 48,
            "midi": 81,
            "name": "A5",
            "ticks": 219120,
            "time": 285.3125,
            "velocity": 0.13385826771653545
          },
          {
            "duration": 0.0625,
            "durationTicks": 48,
            "midi": 73,
            "name": "C#5",
            "ticks": 219120,
            "time": 285.3125,
            "velocity": 0.13385826771653545
          },
          {
            "duration": 0.0625,
            "durationTicks": 48,
            "midi": 81,
            "name": "A5",
            "ticks": 219168,
            "time": 285.375,
            "velocity": 0.13385826771653545
          },
          {
            "duration": 0.0625,
            "durationTicks": 48,
            "midi": 73,
            "name": "C#5",
            "ticks": 219168,
            "time": 285.375,
            "velocity": 0.13385826771653545
          },
          {
            "duration": 0.0625,
            "durationTicks": 48,
            "midi": 76,
            "name": "E5",
            "ticks": 219168,
            "time": 285.375,
            "velocity": 0.13385826771653545
          },
          {
            "duration": 0.0625,
            "durationTicks": 48,
            "midi": 76,
            "name": "E5",
            "ticks": 219216,
            "time": 285.4375,
            "velocity": 0.13385826771653545
          },
          {
            "duration": 0.0625,
            "durationTicks": 48,
            "midi": 81,
            "name": "A5",
            "ticks": 219216,
            "time": 285.4375,
            "velocity": 0.13385826771653545
          },
          {
            "duration": 0.0625,
            "durationTicks": 48,
            "midi": 73,
            "name": "C#5",
            "ticks": 219216,
            "time": 285.4375,
            "velocity": 0.13385826771653545
          },
          {
            "duration": 0.0625,
            "durationTicks": 48,
            "midi": 76,
            "name": "E5",
            "ticks": 219264,
            "time": 285.5,
            "velocity": 0.13385826771653545
          },
          {
            "duration": 0.0625,
            "durationTicks": 48,
            "midi": 81,
            "name": "A5",
            "ticks": 219264,
            "time": 285.5,
            "velocity": 0.13385826771653545
          },
          {
            "duration": 0.0625,
            "durationTicks": 48,
            "midi": 73,
            "name": "C#5",
            "ticks": 219264,
            "time": 285.5,
            "velocity": 0.13385826771653545
          },
          {
            "duration": 0.0625,
            "durationTicks": 48,
            "midi": 76,
            "name": "E5",
            "ticks": 219312,
            "time": 285.5625,
            "velocity": 0.13385826771653545
          },
          {
            "duration": 0.0625,
            "durationTicks": 48,
            "midi": 73,
            "name": "C#5",
            "ticks": 219312,
            "time": 285.5625,
            "velocity": 0.13385826771653545
          },
          {
            "duration": 0.0625,
            "durationTicks": 48,
            "midi": 81,
            "name": "A5",
            "ticks": 219312,
            "time": 285.5625,
            "velocity": 0.13385826771653545
          },
          {
            "duration": 0.0625,
            "durationTicks": 48,
            "midi": 81,
            "name": "A5",
            "ticks": 219360,
            "time": 285.625,
            "velocity": 0.13385826771653545
          },
          {
            "duration": 0.0625,
            "durationTicks": 48,
            "midi": 76,
            "name": "E5",
            "ticks": 219360,
            "time": 285.625,
            "velocity": 0.13385826771653545
          },
          {
            "duration": 0.0625,
            "durationTicks": 48,
            "midi": 73,
            "name": "C#5",
            "ticks": 219360,
            "time": 285.625,
            "velocity": 0.13385826771653545
          },
          {
            "duration": 0.0625,
            "durationTicks": 48,
            "midi": 73,
            "name": "C#5",
            "ticks": 219408,
            "time": 285.6875,
            "velocity": 0.13385826771653545
          },
          {
            "duration": 0.0625,
            "durationTicks": 48,
            "midi": 76,
            "name": "E5",
            "ticks": 219408,
            "time": 285.6875,
            "velocity": 0.13385826771653545
          },
          {
            "duration": 0.0625,
            "durationTicks": 48,
            "midi": 81,
            "name": "A5",
            "ticks": 219408,
            "time": 285.6875,
            "velocity": 0.13385826771653545
          },
          {
            "duration": 0.0625,
            "durationTicks": 48,
            "midi": 73,
            "name": "C#5",
            "ticks": 219456,
            "time": 285.75,
            "velocity": 0.13385826771653545
          },
          {
            "duration": 0.0625,
            "durationTicks": 48,
            "midi": 81,
            "name": "A5",
            "ticks": 219456,
            "time": 285.75,
            "velocity": 0.13385826771653545
          },
          {
            "duration": 0.0625,
            "durationTicks": 48,
            "midi": 76,
            "name": "E5",
            "ticks": 219456,
            "time": 285.75,
            "velocity": 0.13385826771653545
          },
          {
            "duration": 0.0625,
            "durationTicks": 48,
            "midi": 76,
            "name": "E5",
            "ticks": 219504,
            "time": 285.8125,
            "velocity": 0.13385826771653545
          },
          {
            "duration": 0.0625,
            "durationTicks": 48,
            "midi": 73,
            "name": "C#5",
            "ticks": 219504,
            "time": 285.8125,
            "velocity": 0.13385826771653545
          },
          {
            "duration": 0.0625,
            "durationTicks": 48,
            "midi": 81,
            "name": "A5",
            "ticks": 219504,
            "time": 285.8125,
            "velocity": 0.13385826771653545
          },
          {
            "duration": 0.0625,
            "durationTicks": 48,
            "midi": 78,
            "name": "F#5",
            "ticks": 219552,
            "time": 285.875,
            "velocity": 0.13385826771653545
          },
          {
            "duration": 0.0625,
            "durationTicks": 48,
            "midi": 75,
            "name": "D#5",
            "ticks": 219552,
            "time": 285.875,
            "velocity": 0.13385826771653545
          },
          {
            "duration": 0.0625,
            "durationTicks": 48,
            "midi": 71,
            "name": "B4",
            "ticks": 219552,
            "time": 285.875,
            "velocity": 0.13385826771653545
          },
          {
            "duration": 0.0625,
            "durationTicks": 48,
            "midi": 78,
            "name": "F#5",
            "ticks": 219600,
            "time": 285.9375,
            "velocity": 0.13385826771653545
          },
          {
            "duration": 0.0625,
            "durationTicks": 48,
            "midi": 71,
            "name": "B4",
            "ticks": 219600,
            "time": 285.9375,
            "velocity": 0.13385826771653545
          },
          {
            "duration": 0.0625,
            "durationTicks": 48,
            "midi": 75,
            "name": "D#5",
            "ticks": 219600,
            "time": 285.9375,
            "velocity": 0.13385826771653545
          },
          {
            "duration": 0.0625,
            "durationTicks": 48,
            "midi": 71,
            "name": "B4",
            "ticks": 219648,
            "time": 286,
            "velocity": 0.13385826771653545
          },
          {
            "duration": 0.0625,
            "durationTicks": 48,
            "midi": 78,
            "name": "F#5",
            "ticks": 219648,
            "time": 286,
            "velocity": 0.13385826771653545
          },
          {
            "duration": 0.0625,
            "durationTicks": 48,
            "midi": 75,
            "name": "D#5",
            "ticks": 219648,
            "time": 286,
            "velocity": 0.13385826771653545
          },
          {
            "duration": 0.0625,
            "durationTicks": 48,
            "midi": 78,
            "name": "F#5",
            "ticks": 219696,
            "time": 286.0625,
            "velocity": 0.13385826771653545
          },
          {
            "duration": 0.0625,
            "durationTicks": 48,
            "midi": 71,
            "name": "B4",
            "ticks": 219696,
            "time": 286.0625,
            "velocity": 0.13385826771653545
          },
          {
            "duration": 0.0625,
            "durationTicks": 48,
            "midi": 75,
            "name": "D#5",
            "ticks": 219696,
            "time": 286.0625,
            "velocity": 0.13385826771653545
          },
          {
            "duration": 0.0625,
            "durationTicks": 48,
            "midi": 71,
            "name": "B4",
            "ticks": 219744,
            "time": 286.125,
            "velocity": 0.13385826771653545
          },
          {
            "duration": 0.0625,
            "durationTicks": 48,
            "midi": 75,
            "name": "D#5",
            "ticks": 219744,
            "time": 286.125,
            "velocity": 0.13385826771653545
          },
          {
            "duration": 0.0625,
            "durationTicks": 48,
            "midi": 78,
            "name": "F#5",
            "ticks": 219744,
            "time": 286.125,
            "velocity": 0.13385826771653545
          },
          {
            "duration": 0.0625,
            "durationTicks": 48,
            "midi": 75,
            "name": "D#5",
            "ticks": 219792,
            "time": 286.1875,
            "velocity": 0.13385826771653545
          },
          {
            "duration": 0.0625,
            "durationTicks": 48,
            "midi": 71,
            "name": "B4",
            "ticks": 219792,
            "time": 286.1875,
            "velocity": 0.13385826771653545
          },
          {
            "duration": 0.0625,
            "durationTicks": 48,
            "midi": 78,
            "name": "F#5",
            "ticks": 219792,
            "time": 286.1875,
            "velocity": 0.13385826771653545
          },
          {
            "duration": 0.0625,
            "durationTicks": 48,
            "midi": 71,
            "name": "B4",
            "ticks": 219840,
            "time": 286.25,
            "velocity": 0.13385826771653545
          },
          {
            "duration": 0.0625,
            "durationTicks": 48,
            "midi": 78,
            "name": "F#5",
            "ticks": 219840,
            "time": 286.25,
            "velocity": 0.13385826771653545
          },
          {
            "duration": 0.0625,
            "durationTicks": 48,
            "midi": 75,
            "name": "D#5",
            "ticks": 219840,
            "time": 286.25,
            "velocity": 0.13385826771653545
          },
          {
            "duration": 0.0625,
            "durationTicks": 48,
            "midi": 78,
            "name": "F#5",
            "ticks": 219888,
            "time": 286.3125,
            "velocity": 0.13385826771653545
          },
          {
            "duration": 0.0625,
            "durationTicks": 48,
            "midi": 71,
            "name": "B4",
            "ticks": 219888,
            "time": 286.3125,
            "velocity": 0.13385826771653545
          },
          {
            "duration": 0.0625,
            "durationTicks": 48,
            "midi": 75,
            "name": "D#5",
            "ticks": 219888,
            "time": 286.3125,
            "velocity": 0.13385826771653545
          },
          {
            "duration": 0.0625,
            "durationTicks": 48,
            "midi": 71,
            "name": "B4",
            "ticks": 219936,
            "time": 286.375,
            "velocity": 0.13385826771653545
          },
          {
            "duration": 0.0625,
            "durationTicks": 48,
            "midi": 75,
            "name": "D#5",
            "ticks": 219936,
            "time": 286.375,
            "velocity": 0.13385826771653545
          },
          {
            "duration": 0.0625,
            "durationTicks": 48,
            "midi": 78,
            "name": "F#5",
            "ticks": 219936,
            "time": 286.375,
            "velocity": 0.13385826771653545
          },
          {
            "duration": 0.0625,
            "durationTicks": 48,
            "midi": 78,
            "name": "F#5",
            "ticks": 219984,
            "time": 286.4375,
            "velocity": 0.13385826771653545
          },
          {
            "duration": 0.0625,
            "durationTicks": 48,
            "midi": 71,
            "name": "B4",
            "ticks": 219984,
            "time": 286.4375,
            "velocity": 0.13385826771653545
          },
          {
            "duration": 0.0625,
            "durationTicks": 48,
            "midi": 75,
            "name": "D#5",
            "ticks": 219984,
            "time": 286.4375,
            "velocity": 0.13385826771653545
          },
          {
            "duration": 0.0625,
            "durationTicks": 48,
            "midi": 75,
            "name": "D#5",
            "ticks": 220032,
            "time": 286.5,
            "velocity": 0.13385826771653545
          },
          {
            "duration": 0.0625,
            "durationTicks": 48,
            "midi": 78,
            "name": "F#5",
            "ticks": 220032,
            "time": 286.5,
            "velocity": 0.13385826771653545
          },
          {
            "duration": 0.0625,
            "durationTicks": 48,
            "midi": 71,
            "name": "B4",
            "ticks": 220032,
            "time": 286.5,
            "velocity": 0.13385826771653545
          },
          {
            "duration": 0.0625,
            "durationTicks": 48,
            "midi": 71,
            "name": "B4",
            "ticks": 220080,
            "time": 286.5625,
            "velocity": 0.13385826771653545
          },
          {
            "duration": 0.0625,
            "durationTicks": 48,
            "midi": 75,
            "name": "D#5",
            "ticks": 220080,
            "time": 286.5625,
            "velocity": 0.13385826771653545
          },
          {
            "duration": 0.0625,
            "durationTicks": 48,
            "midi": 78,
            "name": "F#5",
            "ticks": 220080,
            "time": 286.5625,
            "velocity": 0.13385826771653545
          },
          {
            "duration": 0.0625,
            "durationTicks": 48,
            "midi": 71,
            "name": "B4",
            "ticks": 220128,
            "time": 286.625,
            "velocity": 0.13385826771653545
          },
          {
            "duration": 0.0625,
            "durationTicks": 48,
            "midi": 78,
            "name": "F#5",
            "ticks": 220128,
            "time": 286.625,
            "velocity": 0.13385826771653545
          },
          {
            "duration": 0.0625,
            "durationTicks": 48,
            "midi": 75,
            "name": "D#5",
            "ticks": 220128,
            "time": 286.625,
            "velocity": 0.13385826771653545
          },
          {
            "duration": 0.0625,
            "durationTicks": 48,
            "midi": 78,
            "name": "F#5",
            "ticks": 220176,
            "time": 286.6875,
            "velocity": 0.13385826771653545
          },
          {
            "duration": 0.0625,
            "durationTicks": 48,
            "midi": 75,
            "name": "D#5",
            "ticks": 220176,
            "time": 286.6875,
            "velocity": 0.13385826771653545
          },
          {
            "duration": 0.0625,
            "durationTicks": 48,
            "midi": 71,
            "name": "B4",
            "ticks": 220176,
            "time": 286.6875,
            "velocity": 0.13385826771653545
          },
          {
            "duration": 0.0625,
            "durationTicks": 48,
            "midi": 78,
            "name": "F#5",
            "ticks": 220224,
            "time": 286.75,
            "velocity": 0.13385826771653545
          },
          {
            "duration": 0.0625,
            "durationTicks": 48,
            "midi": 75,
            "name": "D#5",
            "ticks": 220224,
            "time": 286.75,
            "velocity": 0.13385826771653545
          },
          {
            "duration": 0.0625,
            "durationTicks": 48,
            "midi": 71,
            "name": "B4",
            "ticks": 220224,
            "time": 286.75,
            "velocity": 0.13385826771653545
          },
          {
            "duration": 0.0625,
            "durationTicks": 48,
            "midi": 78,
            "name": "F#5",
            "ticks": 220272,
            "time": 286.8125,
            "velocity": 0.13385826771653545
          },
          {
            "duration": 0.0625,
            "durationTicks": 48,
            "midi": 71,
            "name": "B4",
            "ticks": 220272,
            "time": 286.8125,
            "velocity": 0.13385826771653545
          },
          {
            "duration": 0.0625,
            "durationTicks": 48,
            "midi": 75,
            "name": "D#5",
            "ticks": 220272,
            "time": 286.8125,
            "velocity": 0.13385826771653545
          },
          {
            "duration": 0.0625,
            "durationTicks": 48,
            "midi": 75,
            "name": "D#5",
            "ticks": 220320,
            "time": 286.875,
            "velocity": 0.13385826771653545
          },
          {
            "duration": 0.0625,
            "durationTicks": 48,
            "midi": 78,
            "name": "F#5",
            "ticks": 220320,
            "time": 286.875,
            "velocity": 0.13385826771653545
          },
          {
            "duration": 0.0625,
            "durationTicks": 48,
            "midi": 71,
            "name": "B4",
            "ticks": 220320,
            "time": 286.875,
            "velocity": 0.13385826771653545
          },
          {
            "duration": 0.0625,
            "durationTicks": 48,
            "midi": 75,
            "name": "D#5",
            "ticks": 220368,
            "time": 286.9375,
            "velocity": 0.13385826771653545
          },
          {
            "duration": 0.0625,
            "durationTicks": 48,
            "midi": 71,
            "name": "B4",
            "ticks": 220368,
            "time": 286.9375,
            "velocity": 0.13385826771653545
          },
          {
            "duration": 0.0625,
            "durationTicks": 48,
            "midi": 78,
            "name": "F#5",
            "ticks": 220368,
            "time": 286.9375,
            "velocity": 0.13385826771653545
          },
          {
            "duration": 0.0625,
            "durationTicks": 48,
            "midi": 75,
            "name": "D#5",
            "ticks": 220416,
            "time": 287,
            "velocity": 0.13385826771653545
          },
          {
            "duration": 0.0625,
            "durationTicks": 48,
            "midi": 78,
            "name": "F#5",
            "ticks": 220416,
            "time": 287,
            "velocity": 0.13385826771653545
          },
          {
            "duration": 0.0625,
            "durationTicks": 48,
            "midi": 71,
            "name": "B4",
            "ticks": 220416,
            "time": 287,
            "velocity": 0.13385826771653545
          },
          {
            "duration": 0.0625,
            "durationTicks": 48,
            "midi": 75,
            "name": "D#5",
            "ticks": 220464,
            "time": 287.0625,
            "velocity": 0.13385826771653545
          },
          {
            "duration": 0.0625,
            "durationTicks": 48,
            "midi": 71,
            "name": "B4",
            "ticks": 220464,
            "time": 287.0625,
            "velocity": 0.13385826771653545
          },
          {
            "duration": 0.0625,
            "durationTicks": 48,
            "midi": 78,
            "name": "F#5",
            "ticks": 220464,
            "time": 287.0625,
            "velocity": 0.13385826771653545
          },
          {
            "duration": 0.0625,
            "durationTicks": 48,
            "midi": 75,
            "name": "D#5",
            "ticks": 220512,
            "time": 287.125,
            "velocity": 0.13385826771653545
          },
          {
            "duration": 0.0625,
            "durationTicks": 48,
            "midi": 78,
            "name": "F#5",
            "ticks": 220512,
            "time": 287.125,
            "velocity": 0.13385826771653545
          },
          {
            "duration": 0.0625,
            "durationTicks": 48,
            "midi": 71,
            "name": "B4",
            "ticks": 220512,
            "time": 287.125,
            "velocity": 0.13385826771653545
          },
          {
            "duration": 0.0625,
            "durationTicks": 48,
            "midi": 75,
            "name": "D#5",
            "ticks": 220560,
            "time": 287.1875,
            "velocity": 0.13385826771653545
          },
          {
            "duration": 0.0625,
            "durationTicks": 48,
            "midi": 78,
            "name": "F#5",
            "ticks": 220560,
            "time": 287.1875,
            "velocity": 0.13385826771653545
          },
          {
            "duration": 0.0625,
            "durationTicks": 48,
            "midi": 71,
            "name": "B4",
            "ticks": 220560,
            "time": 287.1875,
            "velocity": 0.13385826771653545
          },
          {
            "duration": 0.0625,
            "durationTicks": 48,
            "midi": 71,
            "name": "B4",
            "ticks": 220608,
            "time": 287.25,
            "velocity": 0.13385826771653545
          },
          {
            "duration": 0.0625,
            "durationTicks": 48,
            "midi": 78,
            "name": "F#5",
            "ticks": 220608,
            "time": 287.25,
            "velocity": 0.13385826771653545
          },
          {
            "duration": 0.0625,
            "durationTicks": 48,
            "midi": 75,
            "name": "D#5",
            "ticks": 220608,
            "time": 287.25,
            "velocity": 0.13385826771653545
          },
          {
            "duration": 0.0625,
            "durationTicks": 48,
            "midi": 75,
            "name": "D#5",
            "ticks": 220656,
            "time": 287.3125,
            "velocity": 0.13385826771653545
          },
          {
            "duration": 0.0625,
            "durationTicks": 48,
            "midi": 71,
            "name": "B4",
            "ticks": 220656,
            "time": 287.3125,
            "velocity": 0.13385826771653545
          },
          {
            "duration": 0.0625,
            "durationTicks": 48,
            "midi": 78,
            "name": "F#5",
            "ticks": 220656,
            "time": 287.3125,
            "velocity": 0.13385826771653545
          },
          {
            "duration": 0.0625,
            "durationTicks": 48,
            "midi": 75,
            "name": "D#5",
            "ticks": 220704,
            "time": 287.375,
            "velocity": 0.13385826771653545
          },
          {
            "duration": 0.0625,
            "durationTicks": 48,
            "midi": 71,
            "name": "B4",
            "ticks": 220704,
            "time": 287.375,
            "velocity": 0.13385826771653545
          },
          {
            "duration": 0.0625,
            "durationTicks": 48,
            "midi": 78,
            "name": "F#5",
            "ticks": 220704,
            "time": 287.375,
            "velocity": 0.13385826771653545
          },
          {
            "duration": 0.0625,
            "durationTicks": 48,
            "midi": 75,
            "name": "D#5",
            "ticks": 220752,
            "time": 287.4375,
            "velocity": 0.13385826771653545
          },
          {
            "duration": 0.0625,
            "durationTicks": 48,
            "midi": 71,
            "name": "B4",
            "ticks": 220752,
            "time": 287.4375,
            "velocity": 0.13385826771653545
          },
          {
            "duration": 0.0625,
            "durationTicks": 48,
            "midi": 78,
            "name": "F#5",
            "ticks": 220752,
            "time": 287.4375,
            "velocity": 0.13385826771653545
          },
          {
            "duration": 0.0625,
            "durationTicks": 48,
            "midi": 75,
            "name": "D#5",
            "ticks": 220800,
            "time": 287.5,
            "velocity": 0.13385826771653545
          },
          {
            "duration": 0.0625,
            "durationTicks": 48,
            "midi": 78,
            "name": "F#5",
            "ticks": 220800,
            "time": 287.5,
            "velocity": 0.13385826771653545
          },
          {
            "duration": 0.0625,
            "durationTicks": 48,
            "midi": 71,
            "name": "B4",
            "ticks": 220800,
            "time": 287.5,
            "velocity": 0.13385826771653545
          },
          {
            "duration": 0.0625,
            "durationTicks": 48,
            "midi": 75,
            "name": "D#5",
            "ticks": 220848,
            "time": 287.5625,
            "velocity": 0.13385826771653545
          },
          {
            "duration": 0.0625,
            "durationTicks": 48,
            "midi": 71,
            "name": "B4",
            "ticks": 220848,
            "time": 287.5625,
            "velocity": 0.13385826771653545
          },
          {
            "duration": 0.0625,
            "durationTicks": 48,
            "midi": 78,
            "name": "F#5",
            "ticks": 220848,
            "time": 287.5625,
            "velocity": 0.13385826771653545
          },
          {
            "duration": 0.0625,
            "durationTicks": 48,
            "midi": 78,
            "name": "F#5",
            "ticks": 220896,
            "time": 287.625,
            "velocity": 0.13385826771653545
          },
          {
            "duration": 0.0625,
            "durationTicks": 48,
            "midi": 71,
            "name": "B4",
            "ticks": 220896,
            "time": 287.625,
            "velocity": 0.13385826771653545
          },
          {
            "duration": 0.0625,
            "durationTicks": 48,
            "midi": 75,
            "name": "D#5",
            "ticks": 220896,
            "time": 287.625,
            "velocity": 0.13385826771653545
          },
          {
            "duration": 0.0625,
            "durationTicks": 48,
            "midi": 71,
            "name": "B4",
            "ticks": 220944,
            "time": 287.6875,
            "velocity": 0.13385826771653545
          },
          {
            "duration": 0.0625,
            "durationTicks": 48,
            "midi": 78,
            "name": "F#5",
            "ticks": 220944,
            "time": 287.6875,
            "velocity": 0.13385826771653545
          },
          {
            "duration": 0.0625,
            "durationTicks": 48,
            "midi": 75,
            "name": "D#5",
            "ticks": 220944,
            "time": 287.6875,
            "velocity": 0.13385826771653545
          },
          {
            "duration": 0.0625,
            "durationTicks": 48,
            "midi": 78,
            "name": "F#5",
            "ticks": 220992,
            "time": 287.75,
            "velocity": 0.13385826771653545
          },
          {
            "duration": 0.0625,
            "durationTicks": 48,
            "midi": 75,
            "name": "D#5",
            "ticks": 220992,
            "time": 287.75,
            "velocity": 0.13385826771653545
          },
          {
            "duration": 0.0625,
            "durationTicks": 48,
            "midi": 71,
            "name": "B4",
            "ticks": 220992,
            "time": 287.75,
            "velocity": 0.13385826771653545
          },
          {
            "duration": 0.0625,
            "durationTicks": 48,
            "midi": 71,
            "name": "B4",
            "ticks": 221040,
            "time": 287.8125,
            "velocity": 0.13385826771653545
          },
          {
            "duration": 0.0625,
            "durationTicks": 48,
            "midi": 78,
            "name": "F#5",
            "ticks": 221040,
            "time": 287.8125,
            "velocity": 0.13385826771653545
          },
          {
            "duration": 0.0625,
            "durationTicks": 48,
            "midi": 75,
            "name": "D#5",
            "ticks": 221040,
            "time": 287.8125,
            "velocity": 0.13385826771653545
          },
          {
            "duration": 0.0625,
            "durationTicks": 48,
            "midi": 78,
            "name": "F#5",
            "ticks": 221088,
            "time": 287.875,
            "velocity": 0.13385826771653545
          },
          {
            "duration": 0.0625,
            "durationTicks": 48,
            "midi": 73,
            "name": "C#5",
            "ticks": 221088,
            "time": 287.875,
            "velocity": 0.13385826771653545
          },
          {
            "duration": 0.0625,
            "durationTicks": 48,
            "midi": 70,
            "name": "A#4",
            "ticks": 221088,
            "time": 287.875,
            "velocity": 0.13385826771653545
          },
          {
            "duration": 0.0625,
            "durationTicks": 48,
            "midi": 78,
            "name": "F#5",
            "ticks": 221136,
            "time": 287.9375,
            "velocity": 0.13385826771653545
          },
          {
            "duration": 0.0625,
            "durationTicks": 48,
            "midi": 70,
            "name": "A#4",
            "ticks": 221136,
            "time": 287.9375,
            "velocity": 0.13385826771653545
          },
          {
            "duration": 0.0625,
            "durationTicks": 48,
            "midi": 73,
            "name": "C#5",
            "ticks": 221136,
            "time": 287.9375,
            "velocity": 0.13385826771653545
          },
          {
            "duration": 0.0625,
            "durationTicks": 48,
            "midi": 73,
            "name": "C#5",
            "ticks": 221184,
            "time": 288,
            "velocity": 0.13385826771653545
          },
          {
            "duration": 0.0625,
            "durationTicks": 48,
            "midi": 70,
            "name": "A#4",
            "ticks": 221184,
            "time": 288,
            "velocity": 0.13385826771653545
          },
          {
            "duration": 0.0625,
            "durationTicks": 48,
            "midi": 78,
            "name": "F#5",
            "ticks": 221184,
            "time": 288,
            "velocity": 0.13385826771653545
          },
          {
            "duration": 0.0625,
            "durationTicks": 48,
            "midi": 73,
            "name": "C#5",
            "ticks": 221232,
            "time": 288.0625,
            "velocity": 0.13385826771653545
          },
          {
            "duration": 0.0625,
            "durationTicks": 48,
            "midi": 70,
            "name": "A#4",
            "ticks": 221232,
            "time": 288.0625,
            "velocity": 0.13385826771653545
          },
          {
            "duration": 0.0625,
            "durationTicks": 48,
            "midi": 78,
            "name": "F#5",
            "ticks": 221232,
            "time": 288.0625,
            "velocity": 0.13385826771653545
          },
          {
            "duration": 0.0625,
            "durationTicks": 48,
            "midi": 78,
            "name": "F#5",
            "ticks": 221280,
            "time": 288.125,
            "velocity": 0.13385826771653545
          },
          {
            "duration": 0.0625,
            "durationTicks": 48,
            "midi": 73,
            "name": "C#5",
            "ticks": 221280,
            "time": 288.125,
            "velocity": 0.13385826771653545
          },
          {
            "duration": 0.0625,
            "durationTicks": 48,
            "midi": 70,
            "name": "A#4",
            "ticks": 221280,
            "time": 288.125,
            "velocity": 0.13385826771653545
          },
          {
            "duration": 0.0625,
            "durationTicks": 48,
            "midi": 73,
            "name": "C#5",
            "ticks": 221328,
            "time": 288.1875,
            "velocity": 0.13385826771653545
          },
          {
            "duration": 0.0625,
            "durationTicks": 48,
            "midi": 70,
            "name": "A#4",
            "ticks": 221328,
            "time": 288.1875,
            "velocity": 0.13385826771653545
          },
          {
            "duration": 0.0625,
            "durationTicks": 48,
            "midi": 78,
            "name": "F#5",
            "ticks": 221328,
            "time": 288.1875,
            "velocity": 0.13385826771653545
          },
          {
            "duration": 0.0625,
            "durationTicks": 48,
            "midi": 70,
            "name": "A#4",
            "ticks": 221376,
            "time": 288.25,
            "velocity": 0.13385826771653545
          },
          {
            "duration": 0.0625,
            "durationTicks": 48,
            "midi": 78,
            "name": "F#5",
            "ticks": 221376,
            "time": 288.25,
            "velocity": 0.13385826771653545
          },
          {
            "duration": 0.0625,
            "durationTicks": 48,
            "midi": 73,
            "name": "C#5",
            "ticks": 221376,
            "time": 288.25,
            "velocity": 0.13385826771653545
          },
          {
            "duration": 0.0625,
            "durationTicks": 48,
            "midi": 78,
            "name": "F#5",
            "ticks": 221424,
            "time": 288.3125,
            "velocity": 0.13385826771653545
          },
          {
            "duration": 0.0625,
            "durationTicks": 48,
            "midi": 70,
            "name": "A#4",
            "ticks": 221424,
            "time": 288.3125,
            "velocity": 0.13385826771653545
          },
          {
            "duration": 0.0625,
            "durationTicks": 48,
            "midi": 73,
            "name": "C#5",
            "ticks": 221424,
            "time": 288.3125,
            "velocity": 0.13385826771653545
          },
          {
            "duration": 0.0625,
            "durationTicks": 48,
            "midi": 73,
            "name": "C#5",
            "ticks": 221472,
            "time": 288.375,
            "velocity": 0.13385826771653545
          },
          {
            "duration": 0.0625,
            "durationTicks": 48,
            "midi": 70,
            "name": "A#4",
            "ticks": 221472,
            "time": 288.375,
            "velocity": 0.13385826771653545
          },
          {
            "duration": 0.0625,
            "durationTicks": 48,
            "midi": 78,
            "name": "F#5",
            "ticks": 221472,
            "time": 288.375,
            "velocity": 0.13385826771653545
          },
          {
            "duration": 0.0625,
            "durationTicks": 48,
            "midi": 73,
            "name": "C#5",
            "ticks": 221520,
            "time": 288.4375,
            "velocity": 0.13385826771653545
          },
          {
            "duration": 0.0625,
            "durationTicks": 48,
            "midi": 70,
            "name": "A#4",
            "ticks": 221520,
            "time": 288.4375,
            "velocity": 0.13385826771653545
          },
          {
            "duration": 0.0625,
            "durationTicks": 48,
            "midi": 78,
            "name": "F#5",
            "ticks": 221520,
            "time": 288.4375,
            "velocity": 0.13385826771653545
          },
          {
            "duration": 0.0625,
            "durationTicks": 48,
            "midi": 70,
            "name": "A#4",
            "ticks": 221568,
            "time": 288.5,
            "velocity": 0.13385826771653545
          },
          {
            "duration": 0.0625,
            "durationTicks": 48,
            "midi": 73,
            "name": "C#5",
            "ticks": 221568,
            "time": 288.5,
            "velocity": 0.13385826771653545
          },
          {
            "duration": 0.0625,
            "durationTicks": 48,
            "midi": 78,
            "name": "F#5",
            "ticks": 221568,
            "time": 288.5,
            "velocity": 0.13385826771653545
          },
          {
            "duration": 0.0625,
            "durationTicks": 48,
            "midi": 70,
            "name": "A#4",
            "ticks": 221616,
            "time": 288.5625,
            "velocity": 0.13385826771653545
          },
          {
            "duration": 0.0625,
            "durationTicks": 48,
            "midi": 73,
            "name": "C#5",
            "ticks": 221616,
            "time": 288.5625,
            "velocity": 0.13385826771653545
          },
          {
            "duration": 0.0625,
            "durationTicks": 48,
            "midi": 78,
            "name": "F#5",
            "ticks": 221616,
            "time": 288.5625,
            "velocity": 0.13385826771653545
          },
          {
            "duration": 0.0625,
            "durationTicks": 48,
            "midi": 73,
            "name": "C#5",
            "ticks": 221664,
            "time": 288.625,
            "velocity": 0.13385826771653545
          },
          {
            "duration": 0.0625,
            "durationTicks": 48,
            "midi": 78,
            "name": "F#5",
            "ticks": 221664,
            "time": 288.625,
            "velocity": 0.13385826771653545
          },
          {
            "duration": 0.0625,
            "durationTicks": 48,
            "midi": 70,
            "name": "A#4",
            "ticks": 221664,
            "time": 288.625,
            "velocity": 0.13385826771653545
          },
          {
            "duration": 0.0625,
            "durationTicks": 48,
            "midi": 78,
            "name": "F#5",
            "ticks": 221712,
            "time": 288.6875,
            "velocity": 0.13385826771653545
          },
          {
            "duration": 0.0625,
            "durationTicks": 48,
            "midi": 73,
            "name": "C#5",
            "ticks": 221712,
            "time": 288.6875,
            "velocity": 0.13385826771653545
          },
          {
            "duration": 0.0625,
            "durationTicks": 48,
            "midi": 70,
            "name": "A#4",
            "ticks": 221712,
            "time": 288.6875,
            "velocity": 0.13385826771653545
          },
          {
            "duration": 0.0625,
            "durationTicks": 48,
            "midi": 70,
            "name": "A#4",
            "ticks": 221760,
            "time": 288.75,
            "velocity": 0.13385826771653545
          },
          {
            "duration": 0.0625,
            "durationTicks": 48,
            "midi": 73,
            "name": "C#5",
            "ticks": 221760,
            "time": 288.75,
            "velocity": 0.13385826771653545
          },
          {
            "duration": 0.0625,
            "durationTicks": 48,
            "midi": 78,
            "name": "F#5",
            "ticks": 221760,
            "time": 288.75,
            "velocity": 0.13385826771653545
          },
          {
            "duration": 0.0625,
            "durationTicks": 48,
            "midi": 78,
            "name": "F#5",
            "ticks": 221808,
            "time": 288.8125,
            "velocity": 0.13385826771653545
          },
          {
            "duration": 0.0625,
            "durationTicks": 48,
            "midi": 70,
            "name": "A#4",
            "ticks": 221808,
            "time": 288.8125,
            "velocity": 0.13385826771653545
          },
          {
            "duration": 0.0625,
            "durationTicks": 48,
            "midi": 73,
            "name": "C#5",
            "ticks": 221808,
            "time": 288.8125,
            "velocity": 0.13385826771653545
          },
          {
            "duration": 0.0625,
            "durationTicks": 48,
            "midi": 70,
            "name": "A#4",
            "ticks": 221856,
            "time": 288.875,
            "velocity": 0.13385826771653545
          },
          {
            "duration": 0.0625,
            "durationTicks": 48,
            "midi": 78,
            "name": "F#5",
            "ticks": 221856,
            "time": 288.875,
            "velocity": 0.13385826771653545
          },
          {
            "duration": 0.0625,
            "durationTicks": 48,
            "midi": 73,
            "name": "C#5",
            "ticks": 221856,
            "time": 288.875,
            "velocity": 0.13385826771653545
          },
          {
            "duration": 0.0625,
            "durationTicks": 48,
            "midi": 70,
            "name": "A#4",
            "ticks": 221904,
            "time": 288.9375,
            "velocity": 0.13385826771653545
          },
          {
            "duration": 0.0625,
            "durationTicks": 48,
            "midi": 78,
            "name": "F#5",
            "ticks": 221904,
            "time": 288.9375,
            "velocity": 0.13385826771653545
          },
          {
            "duration": 0.0625,
            "durationTicks": 48,
            "midi": 73,
            "name": "C#5",
            "ticks": 221904,
            "time": 288.9375,
            "velocity": 0.13385826771653545
          },
          {
            "duration": 0.0625,
            "durationTicks": 48,
            "midi": 73,
            "name": "C#5",
            "ticks": 221952,
            "time": 289,
            "velocity": 0.13385826771653545
          },
          {
            "duration": 0.0625,
            "durationTicks": 48,
            "midi": 70,
            "name": "A#4",
            "ticks": 221952,
            "time": 289,
            "velocity": 0.13385826771653545
          },
          {
            "duration": 0.0625,
            "durationTicks": 48,
            "midi": 78,
            "name": "F#5",
            "ticks": 221952,
            "time": 289,
            "velocity": 0.13385826771653545
          },
          {
            "duration": 0.0625,
            "durationTicks": 48,
            "midi": 70,
            "name": "A#4",
            "ticks": 222000,
            "time": 289.0625,
            "velocity": 0.13385826771653545
          },
          {
            "duration": 0.0625,
            "durationTicks": 48,
            "midi": 78,
            "name": "F#5",
            "ticks": 222000,
            "time": 289.0625,
            "velocity": 0.13385826771653545
          },
          {
            "duration": 0.0625,
            "durationTicks": 48,
            "midi": 73,
            "name": "C#5",
            "ticks": 222000,
            "time": 289.0625,
            "velocity": 0.13385826771653545
          },
          {
            "duration": 0.0625,
            "durationTicks": 48,
            "midi": 73,
            "name": "C#5",
            "ticks": 222048,
            "time": 289.125,
            "velocity": 0.13385826771653545
          },
          {
            "duration": 0.0625,
            "durationTicks": 48,
            "midi": 78,
            "name": "F#5",
            "ticks": 222048,
            "time": 289.125,
            "velocity": 0.13385826771653545
          },
          {
            "duration": 0.0625,
            "durationTicks": 48,
            "midi": 70,
            "name": "A#4",
            "ticks": 222048,
            "time": 289.125,
            "velocity": 0.13385826771653545
          },
          {
            "duration": 0.0625,
            "durationTicks": 48,
            "midi": 73,
            "name": "C#5",
            "ticks": 222096,
            "time": 289.1875,
            "velocity": 0.13385826771653545
          },
          {
            "duration": 0.0625,
            "durationTicks": 48,
            "midi": 70,
            "name": "A#4",
            "ticks": 222096,
            "time": 289.1875,
            "velocity": 0.13385826771653545
          },
          {
            "duration": 0.0625,
            "durationTicks": 48,
            "midi": 78,
            "name": "F#5",
            "ticks": 222096,
            "time": 289.1875,
            "velocity": 0.13385826771653545
          },
          {
            "duration": 0.0625,
            "durationTicks": 48,
            "midi": 78,
            "name": "F#5",
            "ticks": 222144,
            "time": 289.25,
            "velocity": 0.13385826771653545
          },
          {
            "duration": 0.0625,
            "durationTicks": 48,
            "midi": 73,
            "name": "C#5",
            "ticks": 222144,
            "time": 289.25,
            "velocity": 0.13385826771653545
          },
          {
            "duration": 0.0625,
            "durationTicks": 48,
            "midi": 70,
            "name": "A#4",
            "ticks": 222144,
            "time": 289.25,
            "velocity": 0.13385826771653545
          },
          {
            "duration": 0.0625,
            "durationTicks": 48,
            "midi": 73,
            "name": "C#5",
            "ticks": 222192,
            "time": 289.3125,
            "velocity": 0.13385826771653545
          },
          {
            "duration": 0.0625,
            "durationTicks": 48,
            "midi": 78,
            "name": "F#5",
            "ticks": 222192,
            "time": 289.3125,
            "velocity": 0.13385826771653545
          },
          {
            "duration": 0.0625,
            "durationTicks": 48,
            "midi": 70,
            "name": "A#4",
            "ticks": 222192,
            "time": 289.3125,
            "velocity": 0.13385826771653545
          },
          {
            "duration": 0.0625,
            "durationTicks": 48,
            "midi": 73,
            "name": "C#5",
            "ticks": 222240,
            "time": 289.375,
            "velocity": 0.13385826771653545
          },
          {
            "duration": 0.0625,
            "durationTicks": 48,
            "midi": 78,
            "name": "F#5",
            "ticks": 222240,
            "time": 289.375,
            "velocity": 0.13385826771653545
          },
          {
            "duration": 0.0625,
            "durationTicks": 48,
            "midi": 70,
            "name": "A#4",
            "ticks": 222240,
            "time": 289.375,
            "velocity": 0.13385826771653545
          },
          {
            "duration": 0.0625,
            "durationTicks": 48,
            "midi": 70,
            "name": "A#4",
            "ticks": 222288,
            "time": 289.4375,
            "velocity": 0.13385826771653545
          },
          {
            "duration": 0.0625,
            "durationTicks": 48,
            "midi": 78,
            "name": "F#5",
            "ticks": 222288,
            "time": 289.4375,
            "velocity": 0.13385826771653545
          },
          {
            "duration": 0.0625,
            "durationTicks": 48,
            "midi": 73,
            "name": "C#5",
            "ticks": 222288,
            "time": 289.4375,
            "velocity": 0.13385826771653545
          },
          {
            "duration": 0.0625,
            "durationTicks": 48,
            "midi": 78,
            "name": "F#5",
            "ticks": 222336,
            "time": 289.5,
            "velocity": 0.13385826771653545
          },
          {
            "duration": 0.0625,
            "durationTicks": 48,
            "midi": 73,
            "name": "C#5",
            "ticks": 222336,
            "time": 289.5,
            "velocity": 0.13385826771653545
          },
          {
            "duration": 0.0625,
            "durationTicks": 48,
            "midi": 70,
            "name": "A#4",
            "ticks": 222336,
            "time": 289.5,
            "velocity": 0.13385826771653545
          },
          {
            "duration": 0.0625,
            "durationTicks": 48,
            "midi": 70,
            "name": "A#4",
            "ticks": 222384,
            "time": 289.5625,
            "velocity": 0.13385826771653545
          },
          {
            "duration": 0.0625,
            "durationTicks": 48,
            "midi": 78,
            "name": "F#5",
            "ticks": 222384,
            "time": 289.5625,
            "velocity": 0.13385826771653545
          },
          {
            "duration": 0.0625,
            "durationTicks": 48,
            "midi": 73,
            "name": "C#5",
            "ticks": 222384,
            "time": 289.5625,
            "velocity": 0.13385826771653545
          },
          {
            "duration": 0.0625,
            "durationTicks": 48,
            "midi": 73,
            "name": "C#5",
            "ticks": 222432,
            "time": 289.625,
            "velocity": 0.13385826771653545
          },
          {
            "duration": 0.0625,
            "durationTicks": 48,
            "midi": 78,
            "name": "F#5",
            "ticks": 222432,
            "time": 289.625,
            "velocity": 0.13385826771653545
          },
          {
            "duration": 0.0625,
            "durationTicks": 48,
            "midi": 70,
            "name": "A#4",
            "ticks": 222432,
            "time": 289.625,
            "velocity": 0.13385826771653545
          },
          {
            "duration": 0.0625,
            "durationTicks": 48,
            "midi": 70,
            "name": "A#4",
            "ticks": 222480,
            "time": 289.6875,
            "velocity": 0.13385826771653545
          },
          {
            "duration": 0.0625,
            "durationTicks": 48,
            "midi": 73,
            "name": "C#5",
            "ticks": 222480,
            "time": 289.6875,
            "velocity": 0.13385826771653545
          },
          {
            "duration": 0.0625,
            "durationTicks": 48,
            "midi": 78,
            "name": "F#5",
            "ticks": 222480,
            "time": 289.6875,
            "velocity": 0.13385826771653545
          },
          {
            "duration": 0.0625,
            "durationTicks": 48,
            "midi": 73,
            "name": "C#5",
            "ticks": 222528,
            "time": 289.75,
            "velocity": 0.13385826771653545
          },
          {
            "duration": 0.0625,
            "durationTicks": 48,
            "midi": 78,
            "name": "F#5",
            "ticks": 222528,
            "time": 289.75,
            "velocity": 0.13385826771653545
          },
          {
            "duration": 0.0625,
            "durationTicks": 48,
            "midi": 70,
            "name": "A#4",
            "ticks": 222528,
            "time": 289.75,
            "velocity": 0.13385826771653545
          },
          {
            "duration": 0.0625,
            "durationTicks": 48,
            "midi": 73,
            "name": "C#5",
            "ticks": 222576,
            "time": 289.8125,
            "velocity": 0.13385826771653545
          },
          {
            "duration": 0.0625,
            "durationTicks": 48,
            "midi": 78,
            "name": "F#5",
            "ticks": 222576,
            "time": 289.8125,
            "velocity": 0.13385826771653545
          },
          {
            "duration": 0.0625,
            "durationTicks": 48,
            "midi": 70,
            "name": "A#4",
            "ticks": 222576,
            "time": 289.8125,
            "velocity": 0.13385826771653545
          },
          {
            "duration": 0.0625,
            "durationTicks": 48,
            "midi": 76,
            "name": "E5",
            "ticks": 222624,
            "time": 289.875,
            "velocity": 0.13385826771653545
          },
          {
            "duration": 0.0625,
            "durationTicks": 48,
            "midi": 73,
            "name": "C#5",
            "ticks": 222624,
            "time": 289.875,
            "velocity": 0.13385826771653545
          },
          {
            "duration": 0.0625,
            "durationTicks": 48,
            "midi": 80,
            "name": "G#5",
            "ticks": 222624,
            "time": 289.875,
            "velocity": 0.13385826771653545
          },
          {
            "duration": 0.0625,
            "durationTicks": 48,
            "midi": 73,
            "name": "C#5",
            "ticks": 222672,
            "time": 289.9375,
            "velocity": 0.13385826771653545
          },
          {
            "duration": 0.0625,
            "durationTicks": 48,
            "midi": 80,
            "name": "G#5",
            "ticks": 222672,
            "time": 289.9375,
            "velocity": 0.13385826771653545
          },
          {
            "duration": 0.0625,
            "durationTicks": 48,
            "midi": 76,
            "name": "E5",
            "ticks": 222672,
            "time": 289.9375,
            "velocity": 0.13385826771653545
          },
          {
            "duration": 0.0625,
            "durationTicks": 48,
            "midi": 73,
            "name": "C#5",
            "ticks": 222720,
            "time": 290,
            "velocity": 0.13385826771653545
          },
          {
            "duration": 0.0625,
            "durationTicks": 48,
            "midi": 76,
            "name": "E5",
            "ticks": 222720,
            "time": 290,
            "velocity": 0.13385826771653545
          },
          {
            "duration": 0.0625,
            "durationTicks": 48,
            "midi": 80,
            "name": "G#5",
            "ticks": 222720,
            "time": 290,
            "velocity": 0.13385826771653545
          },
          {
            "duration": 0.0625,
            "durationTicks": 48,
            "midi": 76,
            "name": "E5",
            "ticks": 222768,
            "time": 290.0625,
            "velocity": 0.13385826771653545
          },
          {
            "duration": 0.0625,
            "durationTicks": 48,
            "midi": 73,
            "name": "C#5",
            "ticks": 222768,
            "time": 290.0625,
            "velocity": 0.13385826771653545
          },
          {
            "duration": 0.0625,
            "durationTicks": 48,
            "midi": 80,
            "name": "G#5",
            "ticks": 222768,
            "time": 290.0625,
            "velocity": 0.13385826771653545
          },
          {
            "duration": 0.0625,
            "durationTicks": 48,
            "midi": 73,
            "name": "C#5",
            "ticks": 222816,
            "time": 290.125,
            "velocity": 0.13385826771653545
          },
          {
            "duration": 0.0625,
            "durationTicks": 48,
            "midi": 76,
            "name": "E5",
            "ticks": 222816,
            "time": 290.125,
            "velocity": 0.13385826771653545
          },
          {
            "duration": 0.0625,
            "durationTicks": 48,
            "midi": 80,
            "name": "G#5",
            "ticks": 222816,
            "time": 290.125,
            "velocity": 0.13385826771653545
          },
          {
            "duration": 0.0625,
            "durationTicks": 48,
            "midi": 76,
            "name": "E5",
            "ticks": 222864,
            "time": 290.1875,
            "velocity": 0.13385826771653545
          },
          {
            "duration": 0.0625,
            "durationTicks": 48,
            "midi": 80,
            "name": "G#5",
            "ticks": 222864,
            "time": 290.1875,
            "velocity": 0.13385826771653545
          },
          {
            "duration": 0.0625,
            "durationTicks": 48,
            "midi": 73,
            "name": "C#5",
            "ticks": 222864,
            "time": 290.1875,
            "velocity": 0.13385826771653545
          },
          {
            "duration": 0.0625,
            "durationTicks": 48,
            "midi": 76,
            "name": "E5",
            "ticks": 222912,
            "time": 290.25,
            "velocity": 0.13385826771653545
          },
          {
            "duration": 0.0625,
            "durationTicks": 48,
            "midi": 80,
            "name": "G#5",
            "ticks": 222912,
            "time": 290.25,
            "velocity": 0.13385826771653545
          },
          {
            "duration": 0.0625,
            "durationTicks": 48,
            "midi": 73,
            "name": "C#5",
            "ticks": 222912,
            "time": 290.25,
            "velocity": 0.13385826771653545
          },
          {
            "duration": 0.0625,
            "durationTicks": 48,
            "midi": 73,
            "name": "C#5",
            "ticks": 222960,
            "time": 290.3125,
            "velocity": 0.13385826771653545
          },
          {
            "duration": 0.0625,
            "durationTicks": 48,
            "midi": 80,
            "name": "G#5",
            "ticks": 222960,
            "time": 290.3125,
            "velocity": 0.13385826771653545
          },
          {
            "duration": 0.0625,
            "durationTicks": 48,
            "midi": 76,
            "name": "E5",
            "ticks": 222960,
            "time": 290.3125,
            "velocity": 0.13385826771653545
          },
          {
            "duration": 0.0625,
            "durationTicks": 48,
            "midi": 80,
            "name": "G#5",
            "ticks": 223008,
            "time": 290.375,
            "velocity": 0.13385826771653545
          },
          {
            "duration": 0.0625,
            "durationTicks": 48,
            "midi": 76,
            "name": "E5",
            "ticks": 223008,
            "time": 290.375,
            "velocity": 0.13385826771653545
          },
          {
            "duration": 0.0625,
            "durationTicks": 48,
            "midi": 73,
            "name": "C#5",
            "ticks": 223008,
            "time": 290.375,
            "velocity": 0.13385826771653545
          },
          {
            "duration": 0.0625,
            "durationTicks": 48,
            "midi": 76,
            "name": "E5",
            "ticks": 223056,
            "time": 290.4375,
            "velocity": 0.13385826771653545
          },
          {
            "duration": 0.0625,
            "durationTicks": 48,
            "midi": 73,
            "name": "C#5",
            "ticks": 223056,
            "time": 290.4375,
            "velocity": 0.13385826771653545
          },
          {
            "duration": 0.0625,
            "durationTicks": 48,
            "midi": 80,
            "name": "G#5",
            "ticks": 223056,
            "time": 290.4375,
            "velocity": 0.13385826771653545
          },
          {
            "duration": 0.0625,
            "durationTicks": 48,
            "midi": 76,
            "name": "E5",
            "ticks": 223104,
            "time": 290.5,
            "velocity": 0.13385826771653545
          },
          {
            "duration": 0.0625,
            "durationTicks": 48,
            "midi": 73,
            "name": "C#5",
            "ticks": 223104,
            "time": 290.5,
            "velocity": 0.13385826771653545
          },
          {
            "duration": 0.0625,
            "durationTicks": 48,
            "midi": 80,
            "name": "G#5",
            "ticks": 223104,
            "time": 290.5,
            "velocity": 0.13385826771653545
          },
          {
            "duration": 0.0625,
            "durationTicks": 48,
            "midi": 80,
            "name": "G#5",
            "ticks": 223152,
            "time": 290.5625,
            "velocity": 0.13385826771653545
          },
          {
            "duration": 0.0625,
            "durationTicks": 48,
            "midi": 73,
            "name": "C#5",
            "ticks": 223152,
            "time": 290.5625,
            "velocity": 0.13385826771653545
          },
          {
            "duration": 0.0625,
            "durationTicks": 48,
            "midi": 76,
            "name": "E5",
            "ticks": 223152,
            "time": 290.5625,
            "velocity": 0.13385826771653545
          },
          {
            "duration": 0.0625,
            "durationTicks": 48,
            "midi": 76,
            "name": "E5",
            "ticks": 223200,
            "time": 290.625,
            "velocity": 0.13385826771653545
          },
          {
            "duration": 0.0625,
            "durationTicks": 48,
            "midi": 80,
            "name": "G#5",
            "ticks": 223200,
            "time": 290.625,
            "velocity": 0.13385826771653545
          },
          {
            "duration": 0.0625,
            "durationTicks": 48,
            "midi": 73,
            "name": "C#5",
            "ticks": 223200,
            "time": 290.625,
            "velocity": 0.13385826771653545
          },
          {
            "duration": 0.0625,
            "durationTicks": 48,
            "midi": 80,
            "name": "G#5",
            "ticks": 223248,
            "time": 290.6875,
            "velocity": 0.13385826771653545
          },
          {
            "duration": 0.0625,
            "durationTicks": 48,
            "midi": 73,
            "name": "C#5",
            "ticks": 223248,
            "time": 290.6875,
            "velocity": 0.13385826771653545
          },
          {
            "duration": 0.0625,
            "durationTicks": 48,
            "midi": 76,
            "name": "E5",
            "ticks": 223248,
            "time": 290.6875,
            "velocity": 0.13385826771653545
          },
          {
            "duration": 0.0625,
            "durationTicks": 48,
            "midi": 73,
            "name": "C#5",
            "ticks": 223296,
            "time": 290.75,
            "velocity": 0.13385826771653545
          },
          {
            "duration": 0.0625,
            "durationTicks": 48,
            "midi": 80,
            "name": "G#5",
            "ticks": 223296,
            "time": 290.75,
            "velocity": 0.13385826771653545
          },
          {
            "duration": 0.0625,
            "durationTicks": 48,
            "midi": 76,
            "name": "E5",
            "ticks": 223296,
            "time": 290.75,
            "velocity": 0.13385826771653545
          },
          {
            "duration": 0.0625,
            "durationTicks": 48,
            "midi": 73,
            "name": "C#5",
            "ticks": 223344,
            "time": 290.8125,
            "velocity": 0.13385826771653545
          },
          {
            "duration": 0.0625,
            "durationTicks": 48,
            "midi": 80,
            "name": "G#5",
            "ticks": 223344,
            "time": 290.8125,
            "velocity": 0.13385826771653545
          },
          {
            "duration": 0.0625,
            "durationTicks": 48,
            "midi": 76,
            "name": "E5",
            "ticks": 223344,
            "time": 290.8125,
            "velocity": 0.13385826771653545
          },
          {
            "duration": 0.0625,
            "durationTicks": 48,
            "midi": 76,
            "name": "E5",
            "ticks": 223392,
            "time": 290.875,
            "velocity": 0.13385826771653545
          },
          {
            "duration": 0.0625,
            "durationTicks": 48,
            "midi": 80,
            "name": "G#5",
            "ticks": 223392,
            "time": 290.875,
            "velocity": 0.13385826771653545
          },
          {
            "duration": 0.0625,
            "durationTicks": 48,
            "midi": 73,
            "name": "C#5",
            "ticks": 223392,
            "time": 290.875,
            "velocity": 0.13385826771653545
          },
          {
            "duration": 0.0625,
            "durationTicks": 48,
            "midi": 80,
            "name": "G#5",
            "ticks": 223440,
            "time": 290.9375,
            "velocity": 0.13385826771653545
          },
          {
            "duration": 0.0625,
            "durationTicks": 48,
            "midi": 73,
            "name": "C#5",
            "ticks": 223440,
            "time": 290.9375,
            "velocity": 0.13385826771653545
          },
          {
            "duration": 0.0625,
            "durationTicks": 48,
            "midi": 76,
            "name": "E5",
            "ticks": 223440,
            "time": 290.9375,
            "velocity": 0.13385826771653545
          },
          {
            "duration": 0.0625,
            "durationTicks": 48,
            "midi": 73,
            "name": "C#5",
            "ticks": 223488,
            "time": 291,
            "velocity": 0.13385826771653545
          },
          {
            "duration": 0.0625,
            "durationTicks": 48,
            "midi": 76,
            "name": "E5",
            "ticks": 223488,
            "time": 291,
            "velocity": 0.13385826771653545
          },
          {
            "duration": 0.0625,
            "durationTicks": 48,
            "midi": 80,
            "name": "G#5",
            "ticks": 223488,
            "time": 291,
            "velocity": 0.13385826771653545
          },
          {
            "duration": 0.0625,
            "durationTicks": 48,
            "midi": 80,
            "name": "G#5",
            "ticks": 223536,
            "time": 291.0625,
            "velocity": 0.13385826771653545
          },
          {
            "duration": 0.0625,
            "durationTicks": 48,
            "midi": 73,
            "name": "C#5",
            "ticks": 223536,
            "time": 291.0625,
            "velocity": 0.13385826771653545
          },
          {
            "duration": 0.0625,
            "durationTicks": 48,
            "midi": 76,
            "name": "E5",
            "ticks": 223536,
            "time": 291.0625,
            "velocity": 0.13385826771653545
          },
          {
            "duration": 0.0625,
            "durationTicks": 48,
            "midi": 80,
            "name": "G#5",
            "ticks": 223584,
            "time": 291.125,
            "velocity": 0.13385826771653545
          },
          {
            "duration": 0.0625,
            "durationTicks": 48,
            "midi": 73,
            "name": "C#5",
            "ticks": 223584,
            "time": 291.125,
            "velocity": 0.13385826771653545
          },
          {
            "duration": 0.0625,
            "durationTicks": 48,
            "midi": 76,
            "name": "E5",
            "ticks": 223584,
            "time": 291.125,
            "velocity": 0.13385826771653545
          },
          {
            "duration": 0.0625,
            "durationTicks": 48,
            "midi": 76,
            "name": "E5",
            "ticks": 223632,
            "time": 291.1875,
            "velocity": 0.13385826771653545
          },
          {
            "duration": 0.0625,
            "durationTicks": 48,
            "midi": 73,
            "name": "C#5",
            "ticks": 223632,
            "time": 291.1875,
            "velocity": 0.13385826771653545
          },
          {
            "duration": 0.0625,
            "durationTicks": 48,
            "midi": 80,
            "name": "G#5",
            "ticks": 223632,
            "time": 291.1875,
            "velocity": 0.13385826771653545
          },
          {
            "duration": 0.0625,
            "durationTicks": 48,
            "midi": 73,
            "name": "C#5",
            "ticks": 223680,
            "time": 291.25,
            "velocity": 0.13385826771653545
          },
          {
            "duration": 0.0625,
            "durationTicks": 48,
            "midi": 76,
            "name": "E5",
            "ticks": 223680,
            "time": 291.25,
            "velocity": 0.13385826771653545
          },
          {
            "duration": 0.0625,
            "durationTicks": 48,
            "midi": 80,
            "name": "G#5",
            "ticks": 223680,
            "time": 291.25,
            "velocity": 0.13385826771653545
          },
          {
            "duration": 0.0625,
            "durationTicks": 48,
            "midi": 80,
            "name": "G#5",
            "ticks": 223728,
            "time": 291.3125,
            "velocity": 0.13385826771653545
          },
          {
            "duration": 0.0625,
            "durationTicks": 48,
            "midi": 73,
            "name": "C#5",
            "ticks": 223728,
            "time": 291.3125,
            "velocity": 0.13385826771653545
          },
          {
            "duration": 0.0625,
            "durationTicks": 48,
            "midi": 76,
            "name": "E5",
            "ticks": 223728,
            "time": 291.3125,
            "velocity": 0.13385826771653545
          },
          {
            "duration": 0.0625,
            "durationTicks": 48,
            "midi": 76,
            "name": "E5",
            "ticks": 223776,
            "time": 291.375,
            "velocity": 0.13385826771653545
          },
          {
            "duration": 0.0625,
            "durationTicks": 48,
            "midi": 73,
            "name": "C#5",
            "ticks": 223776,
            "time": 291.375,
            "velocity": 0.13385826771653545
          },
          {
            "duration": 0.0625,
            "durationTicks": 48,
            "midi": 80,
            "name": "G#5",
            "ticks": 223776,
            "time": 291.375,
            "velocity": 0.13385826771653545
          },
          {
            "duration": 0.0625,
            "durationTicks": 48,
            "midi": 73,
            "name": "C#5",
            "ticks": 223824,
            "time": 291.4375,
            "velocity": 0.13385826771653545
          },
          {
            "duration": 0.0625,
            "durationTicks": 48,
            "midi": 80,
            "name": "G#5",
            "ticks": 223824,
            "time": 291.4375,
            "velocity": 0.13385826771653545
          },
          {
            "duration": 0.0625,
            "durationTicks": 48,
            "midi": 76,
            "name": "E5",
            "ticks": 223824,
            "time": 291.4375,
            "velocity": 0.13385826771653545
          },
          {
            "duration": 0.0625,
            "durationTicks": 48,
            "midi": 80,
            "name": "G#5",
            "ticks": 223872,
            "time": 291.5,
            "velocity": 0.13385826771653545
          },
          {
            "duration": 0.0625,
            "durationTicks": 48,
            "midi": 73,
            "name": "C#5",
            "ticks": 223872,
            "time": 291.5,
            "velocity": 0.13385826771653545
          },
          {
            "duration": 0.0625,
            "durationTicks": 48,
            "midi": 76,
            "name": "E5",
            "ticks": 223872,
            "time": 291.5,
            "velocity": 0.13385826771653545
          },
          {
            "duration": 0.0625,
            "durationTicks": 48,
            "midi": 80,
            "name": "G#5",
            "ticks": 223920,
            "time": 291.5625,
            "velocity": 0.13385826771653545
          },
          {
            "duration": 0.0625,
            "durationTicks": 48,
            "midi": 73,
            "name": "C#5",
            "ticks": 223920,
            "time": 291.5625,
            "velocity": 0.13385826771653545
          },
          {
            "duration": 0.0625,
            "durationTicks": 48,
            "midi": 76,
            "name": "E5",
            "ticks": 223920,
            "time": 291.5625,
            "velocity": 0.13385826771653545
          },
          {
            "duration": 0.0625,
            "durationTicks": 48,
            "midi": 76,
            "name": "E5",
            "ticks": 223968,
            "time": 291.625,
            "velocity": 0.13385826771653545
          },
          {
            "duration": 0.0625,
            "durationTicks": 48,
            "midi": 80,
            "name": "G#5",
            "ticks": 223968,
            "time": 291.625,
            "velocity": 0.13385826771653545
          },
          {
            "duration": 0.0625,
            "durationTicks": 48,
            "midi": 73,
            "name": "C#5",
            "ticks": 223968,
            "time": 291.625,
            "velocity": 0.13385826771653545
          },
          {
            "duration": 0.0625,
            "durationTicks": 48,
            "midi": 76,
            "name": "E5",
            "ticks": 224016,
            "time": 291.6875,
            "velocity": 0.13385826771653545
          },
          {
            "duration": 0.0625,
            "durationTicks": 48,
            "midi": 80,
            "name": "G#5",
            "ticks": 224016,
            "time": 291.6875,
            "velocity": 0.13385826771653545
          },
          {
            "duration": 0.0625,
            "durationTicks": 48,
            "midi": 73,
            "name": "C#5",
            "ticks": 224016,
            "time": 291.6875,
            "velocity": 0.13385826771653545
          },
          {
            "duration": 0.0625,
            "durationTicks": 48,
            "midi": 73,
            "name": "C#5",
            "ticks": 224064,
            "time": 291.75,
            "velocity": 0.13385826771653545
          },
          {
            "duration": 0.0625,
            "durationTicks": 48,
            "midi": 80,
            "name": "G#5",
            "ticks": 224064,
            "time": 291.75,
            "velocity": 0.13385826771653545
          },
          {
            "duration": 0.0625,
            "durationTicks": 48,
            "midi": 76,
            "name": "E5",
            "ticks": 224064,
            "time": 291.75,
            "velocity": 0.13385826771653545
          },
          {
            "duration": 0.0625,
            "durationTicks": 48,
            "midi": 80,
            "name": "G#5",
            "ticks": 224112,
            "time": 291.8125,
            "velocity": 0.13385826771653545
          },
          {
            "duration": 0.0625,
            "durationTicks": 48,
            "midi": 73,
            "name": "C#5",
            "ticks": 224112,
            "time": 291.8125,
            "velocity": 0.13385826771653545
          },
          {
            "duration": 0.0625,
            "durationTicks": 48,
            "midi": 76,
            "name": "E5",
            "ticks": 224112,
            "time": 291.8125,
            "velocity": 0.13385826771653545
          },
          {
            "duration": 0.0625,
            "durationTicks": 48,
            "midi": 81,
            "name": "A5",
            "ticks": 224160,
            "time": 291.875,
            "velocity": 0.13385826771653545
          },
          {
            "duration": 0.0625,
            "durationTicks": 48,
            "midi": 76,
            "name": "E5",
            "ticks": 224160,
            "time": 291.875,
            "velocity": 0.13385826771653545
          },
          {
            "duration": 0.0625,
            "durationTicks": 48,
            "midi": 73,
            "name": "C#5",
            "ticks": 224160,
            "time": 291.875,
            "velocity": 0.13385826771653545
          },
          {
            "duration": 0.0625,
            "durationTicks": 48,
            "midi": 73,
            "name": "C#5",
            "ticks": 224208,
            "time": 291.9375,
            "velocity": 0.13385826771653545
          },
          {
            "duration": 0.0625,
            "durationTicks": 48,
            "midi": 81,
            "name": "A5",
            "ticks": 224208,
            "time": 291.9375,
            "velocity": 0.13385826771653545
          },
          {
            "duration": 0.0625,
            "durationTicks": 48,
            "midi": 76,
            "name": "E5",
            "ticks": 224208,
            "time": 291.9375,
            "velocity": 0.13385826771653545
          },
          {
            "duration": 0.0625,
            "durationTicks": 48,
            "midi": 81,
            "name": "A5",
            "ticks": 224256,
            "time": 292,
            "velocity": 0.13385826771653545
          },
          {
            "duration": 0.0625,
            "durationTicks": 48,
            "midi": 73,
            "name": "C#5",
            "ticks": 224256,
            "time": 292,
            "velocity": 0.13385826771653545
          },
          {
            "duration": 0.0625,
            "durationTicks": 48,
            "midi": 76,
            "name": "E5",
            "ticks": 224256,
            "time": 292,
            "velocity": 0.13385826771653545
          },
          {
            "duration": 0.0625,
            "durationTicks": 48,
            "midi": 73,
            "name": "C#5",
            "ticks": 224304,
            "time": 292.0625,
            "velocity": 0.13385826771653545
          },
          {
            "duration": 0.0625,
            "durationTicks": 48,
            "midi": 81,
            "name": "A5",
            "ticks": 224304,
            "time": 292.0625,
            "velocity": 0.13385826771653545
          },
          {
            "duration": 0.0625,
            "durationTicks": 48,
            "midi": 76,
            "name": "E5",
            "ticks": 224304,
            "time": 292.0625,
            "velocity": 0.13385826771653545
          },
          {
            "duration": 0.0625,
            "durationTicks": 48,
            "midi": 76,
            "name": "E5",
            "ticks": 224352,
            "time": 292.125,
            "velocity": 0.13385826771653545
          },
          {
            "duration": 0.0625,
            "durationTicks": 48,
            "midi": 81,
            "name": "A5",
            "ticks": 224352,
            "time": 292.125,
            "velocity": 0.13385826771653545
          },
          {
            "duration": 0.0625,
            "durationTicks": 48,
            "midi": 73,
            "name": "C#5",
            "ticks": 224352,
            "time": 292.125,
            "velocity": 0.13385826771653545
          },
          {
            "duration": 0.0625,
            "durationTicks": 48,
            "midi": 81,
            "name": "A5",
            "ticks": 224400,
            "time": 292.1875,
            "velocity": 0.13385826771653545
          },
          {
            "duration": 0.0625,
            "durationTicks": 48,
            "midi": 73,
            "name": "C#5",
            "ticks": 224400,
            "time": 292.1875,
            "velocity": 0.13385826771653545
          },
          {
            "duration": 0.0625,
            "durationTicks": 48,
            "midi": 76,
            "name": "E5",
            "ticks": 224400,
            "time": 292.1875,
            "velocity": 0.13385826771653545
          },
          {
            "duration": 0.0625,
            "durationTicks": 48,
            "midi": 76,
            "name": "E5",
            "ticks": 224448,
            "time": 292.25,
            "velocity": 0.13385826771653545
          },
          {
            "duration": 0.0625,
            "durationTicks": 48,
            "midi": 73,
            "name": "C#5",
            "ticks": 224448,
            "time": 292.25,
            "velocity": 0.13385826771653545
          },
          {
            "duration": 0.0625,
            "durationTicks": 48,
            "midi": 81,
            "name": "A5",
            "ticks": 224448,
            "time": 292.25,
            "velocity": 0.13385826771653545
          },
          {
            "duration": 0.0625,
            "durationTicks": 48,
            "midi": 81,
            "name": "A5",
            "ticks": 224496,
            "time": 292.3125,
            "velocity": 0.13385826771653545
          },
          {
            "duration": 0.0625,
            "durationTicks": 48,
            "midi": 73,
            "name": "C#5",
            "ticks": 224496,
            "time": 292.3125,
            "velocity": 0.13385826771653545
          },
          {
            "duration": 0.0625,
            "durationTicks": 48,
            "midi": 76,
            "name": "E5",
            "ticks": 224496,
            "time": 292.3125,
            "velocity": 0.13385826771653545
          },
          {
            "duration": 0.0625,
            "durationTicks": 48,
            "midi": 73,
            "name": "C#5",
            "ticks": 224544,
            "time": 292.375,
            "velocity": 0.13385826771653545
          },
          {
            "duration": 0.0625,
            "durationTicks": 48,
            "midi": 76,
            "name": "E5",
            "ticks": 224544,
            "time": 292.375,
            "velocity": 0.13385826771653545
          },
          {
            "duration": 0.0625,
            "durationTicks": 48,
            "midi": 81,
            "name": "A5",
            "ticks": 224544,
            "time": 292.375,
            "velocity": 0.13385826771653545
          },
          {
            "duration": 0.0625,
            "durationTicks": 48,
            "midi": 81,
            "name": "A5",
            "ticks": 224592,
            "time": 292.4375,
            "velocity": 0.13385826771653545
          },
          {
            "duration": 0.0625,
            "durationTicks": 48,
            "midi": 73,
            "name": "C#5",
            "ticks": 224592,
            "time": 292.4375,
            "velocity": 0.13385826771653545
          },
          {
            "duration": 0.0625,
            "durationTicks": 48,
            "midi": 76,
            "name": "E5",
            "ticks": 224592,
            "time": 292.4375,
            "velocity": 0.13385826771653545
          },
          {
            "duration": 0.0625,
            "durationTicks": 48,
            "midi": 73,
            "name": "C#5",
            "ticks": 224640,
            "time": 292.5,
            "velocity": 0.13385826771653545
          },
          {
            "duration": 0.0625,
            "durationTicks": 48,
            "midi": 81,
            "name": "A5",
            "ticks": 224640,
            "time": 292.5,
            "velocity": 0.13385826771653545
          },
          {
            "duration": 0.0625,
            "durationTicks": 48,
            "midi": 76,
            "name": "E5",
            "ticks": 224640,
            "time": 292.5,
            "velocity": 0.13385826771653545
          },
          {
            "duration": 0.0625,
            "durationTicks": 48,
            "midi": 81,
            "name": "A5",
            "ticks": 224688,
            "time": 292.5625,
            "velocity": 0.13385826771653545
          },
          {
            "duration": 0.0625,
            "durationTicks": 48,
            "midi": 76,
            "name": "E5",
            "ticks": 224688,
            "time": 292.5625,
            "velocity": 0.13385826771653545
          },
          {
            "duration": 0.0625,
            "durationTicks": 48,
            "midi": 73,
            "name": "C#5",
            "ticks": 224688,
            "time": 292.5625,
            "velocity": 0.13385826771653545
          },
          {
            "duration": 0.0625,
            "durationTicks": 48,
            "midi": 81,
            "name": "A5",
            "ticks": 224736,
            "time": 292.625,
            "velocity": 0.13385826771653545
          },
          {
            "duration": 0.0625,
            "durationTicks": 48,
            "midi": 76,
            "name": "E5",
            "ticks": 224736,
            "time": 292.625,
            "velocity": 0.13385826771653545
          },
          {
            "duration": 0.0625,
            "durationTicks": 48,
            "midi": 73,
            "name": "C#5",
            "ticks": 224736,
            "time": 292.625,
            "velocity": 0.13385826771653545
          },
          {
            "duration": 0.0625,
            "durationTicks": 48,
            "midi": 76,
            "name": "E5",
            "ticks": 224784,
            "time": 292.6875,
            "velocity": 0.13385826771653545
          },
          {
            "duration": 0.0625,
            "durationTicks": 48,
            "midi": 73,
            "name": "C#5",
            "ticks": 224784,
            "time": 292.6875,
            "velocity": 0.13385826771653545
          },
          {
            "duration": 0.0625,
            "durationTicks": 48,
            "midi": 81,
            "name": "A5",
            "ticks": 224784,
            "time": 292.6875,
            "velocity": 0.13385826771653545
          },
          {
            "duration": 0.0625,
            "durationTicks": 48,
            "midi": 81,
            "name": "A5",
            "ticks": 224832,
            "time": 292.75,
            "velocity": 0.13385826771653545
          },
          {
            "duration": 0.0625,
            "durationTicks": 48,
            "midi": 76,
            "name": "E5",
            "ticks": 224832,
            "time": 292.75,
            "velocity": 0.13385826771653545
          },
          {
            "duration": 0.0625,
            "durationTicks": 48,
            "midi": 73,
            "name": "C#5",
            "ticks": 224832,
            "time": 292.75,
            "velocity": 0.13385826771653545
          },
          {
            "duration": 0.0625,
            "durationTicks": 48,
            "midi": 73,
            "name": "C#5",
            "ticks": 224880,
            "time": 292.8125,
            "velocity": 0.13385826771653545
          },
          {
            "duration": 0.0625,
            "durationTicks": 48,
            "midi": 81,
            "name": "A5",
            "ticks": 224880,
            "time": 292.8125,
            "velocity": 0.13385826771653545
          },
          {
            "duration": 0.0625,
            "durationTicks": 48,
            "midi": 76,
            "name": "E5",
            "ticks": 224880,
            "time": 292.8125,
            "velocity": 0.13385826771653545
          },
          {
            "duration": 0.0625,
            "durationTicks": 48,
            "midi": 76,
            "name": "E5",
            "ticks": 224928,
            "time": 292.875,
            "velocity": 0.13385826771653545
          },
          {
            "duration": 0.0625,
            "durationTicks": 48,
            "midi": 73,
            "name": "C#5",
            "ticks": 224928,
            "time": 292.875,
            "velocity": 0.13385826771653545
          },
          {
            "duration": 0.0625,
            "durationTicks": 48,
            "midi": 81,
            "name": "A5",
            "ticks": 224928,
            "time": 292.875,
            "velocity": 0.13385826771653545
          },
          {
            "duration": 0.0625,
            "durationTicks": 48,
            "midi": 73,
            "name": "C#5",
            "ticks": 224976,
            "time": 292.9375,
            "velocity": 0.13385826771653545
          },
          {
            "duration": 0.0625,
            "durationTicks": 48,
            "midi": 76,
            "name": "E5",
            "ticks": 224976,
            "time": 292.9375,
            "velocity": 0.13385826771653545
          },
          {
            "duration": 0.0625,
            "durationTicks": 48,
            "midi": 81,
            "name": "A5",
            "ticks": 224976,
            "time": 292.9375,
            "velocity": 0.13385826771653545
          },
          {
            "duration": 0.0625,
            "durationTicks": 48,
            "midi": 73,
            "name": "C#5",
            "ticks": 225024,
            "time": 293,
            "velocity": 0.13385826771653545
          },
          {
            "duration": 0.0625,
            "durationTicks": 48,
            "midi": 81,
            "name": "A5",
            "ticks": 225024,
            "time": 293,
            "velocity": 0.13385826771653545
          },
          {
            "duration": 0.0625,
            "durationTicks": 48,
            "midi": 76,
            "name": "E5",
            "ticks": 225024,
            "time": 293,
            "velocity": 0.13385826771653545
          },
          {
            "duration": 0.0625,
            "durationTicks": 48,
            "midi": 73,
            "name": "C#5",
            "ticks": 225072,
            "time": 293.0625,
            "velocity": 0.13385826771653545
          },
          {
            "duration": 0.0625,
            "durationTicks": 48,
            "midi": 81,
            "name": "A5",
            "ticks": 225072,
            "time": 293.0625,
            "velocity": 0.13385826771653545
          },
          {
            "duration": 0.0625,
            "durationTicks": 48,
            "midi": 76,
            "name": "E5",
            "ticks": 225072,
            "time": 293.0625,
            "velocity": 0.13385826771653545
          },
          {
            "duration": 0.0625,
            "durationTicks": 48,
            "midi": 73,
            "name": "C#5",
            "ticks": 225120,
            "time": 293.125,
            "velocity": 0.13385826771653545
          },
          {
            "duration": 0.0625,
            "durationTicks": 48,
            "midi": 81,
            "name": "A5",
            "ticks": 225120,
            "time": 293.125,
            "velocity": 0.13385826771653545
          },
          {
            "duration": 0.0625,
            "durationTicks": 48,
            "midi": 76,
            "name": "E5",
            "ticks": 225120,
            "time": 293.125,
            "velocity": 0.13385826771653545
          },
          {
            "duration": 0.0625,
            "durationTicks": 48,
            "midi": 73,
            "name": "C#5",
            "ticks": 225168,
            "time": 293.1875,
            "velocity": 0.13385826771653545
          },
          {
            "duration": 0.0625,
            "durationTicks": 48,
            "midi": 81,
            "name": "A5",
            "ticks": 225168,
            "time": 293.1875,
            "velocity": 0.13385826771653545
          },
          {
            "duration": 0.0625,
            "durationTicks": 48,
            "midi": 76,
            "name": "E5",
            "ticks": 225168,
            "time": 293.1875,
            "velocity": 0.13385826771653545
          },
          {
            "duration": 0.0625,
            "durationTicks": 48,
            "midi": 76,
            "name": "E5",
            "ticks": 225216,
            "time": 293.25,
            "velocity": 0.13385826771653545
          },
          {
            "duration": 0.0625,
            "durationTicks": 48,
            "midi": 81,
            "name": "A5",
            "ticks": 225216,
            "time": 293.25,
            "velocity": 0.13385826771653545
          },
          {
            "duration": 0.0625,
            "durationTicks": 48,
            "midi": 73,
            "name": "C#5",
            "ticks": 225216,
            "time": 293.25,
            "velocity": 0.13385826771653545
          },
          {
            "duration": 0.0625,
            "durationTicks": 48,
            "midi": 81,
            "name": "A5",
            "ticks": 225264,
            "time": 293.3125,
            "velocity": 0.13385826771653545
          },
          {
            "duration": 0.0625,
            "durationTicks": 48,
            "midi": 76,
            "name": "E5",
            "ticks": 225264,
            "time": 293.3125,
            "velocity": 0.13385826771653545
          },
          {
            "duration": 0.0625,
            "durationTicks": 48,
            "midi": 73,
            "name": "C#5",
            "ticks": 225264,
            "time": 293.3125,
            "velocity": 0.13385826771653545
          },
          {
            "duration": 0.0625,
            "durationTicks": 48,
            "midi": 81,
            "name": "A5",
            "ticks": 225312,
            "time": 293.375,
            "velocity": 0.13385826771653545
          },
          {
            "duration": 0.0625,
            "durationTicks": 48,
            "midi": 73,
            "name": "C#5",
            "ticks": 225312,
            "time": 293.375,
            "velocity": 0.13385826771653545
          },
          {
            "duration": 0.0625,
            "durationTicks": 48,
            "midi": 76,
            "name": "E5",
            "ticks": 225312,
            "time": 293.375,
            "velocity": 0.13385826771653545
          },
          {
            "duration": 0.0625,
            "durationTicks": 48,
            "midi": 81,
            "name": "A5",
            "ticks": 225360,
            "time": 293.4375,
            "velocity": 0.13385826771653545
          },
          {
            "duration": 0.0625,
            "durationTicks": 48,
            "midi": 76,
            "name": "E5",
            "ticks": 225360,
            "time": 293.4375,
            "velocity": 0.13385826771653545
          },
          {
            "duration": 0.0625,
            "durationTicks": 48,
            "midi": 73,
            "name": "C#5",
            "ticks": 225360,
            "time": 293.4375,
            "velocity": 0.13385826771653545
          },
          {
            "duration": 0.0625,
            "durationTicks": 48,
            "midi": 81,
            "name": "A5",
            "ticks": 225408,
            "time": 293.5,
            "velocity": 0.13385826771653545
          },
          {
            "duration": 0.0625,
            "durationTicks": 48,
            "midi": 73,
            "name": "C#5",
            "ticks": 225408,
            "time": 293.5,
            "velocity": 0.13385826771653545
          },
          {
            "duration": 0.0625,
            "durationTicks": 48,
            "midi": 76,
            "name": "E5",
            "ticks": 225408,
            "time": 293.5,
            "velocity": 0.13385826771653545
          },
          {
            "duration": 0.0625,
            "durationTicks": 48,
            "midi": 81,
            "name": "A5",
            "ticks": 225456,
            "time": 293.5625,
            "velocity": 0.13385826771653545
          },
          {
            "duration": 0.0625,
            "durationTicks": 48,
            "midi": 73,
            "name": "C#5",
            "ticks": 225456,
            "time": 293.5625,
            "velocity": 0.13385826771653545
          },
          {
            "duration": 0.0625,
            "durationTicks": 48,
            "midi": 76,
            "name": "E5",
            "ticks": 225456,
            "time": 293.5625,
            "velocity": 0.13385826771653545
          },
          {
            "duration": 0.0625,
            "durationTicks": 48,
            "midi": 76,
            "name": "E5",
            "ticks": 225504,
            "time": 293.625,
            "velocity": 0.13385826771653545
          },
          {
            "duration": 0.0625,
            "durationTicks": 48,
            "midi": 73,
            "name": "C#5",
            "ticks": 225504,
            "time": 293.625,
            "velocity": 0.13385826771653545
          },
          {
            "duration": 0.0625,
            "durationTicks": 48,
            "midi": 81,
            "name": "A5",
            "ticks": 225504,
            "time": 293.625,
            "velocity": 0.13385826771653545
          },
          {
            "duration": 0.0625,
            "durationTicks": 48,
            "midi": 73,
            "name": "C#5",
            "ticks": 225552,
            "time": 293.6875,
            "velocity": 0.13385826771653545
          },
          {
            "duration": 0.0625,
            "durationTicks": 48,
            "midi": 76,
            "name": "E5",
            "ticks": 225552,
            "time": 293.6875,
            "velocity": 0.13385826771653545
          },
          {
            "duration": 0.0625,
            "durationTicks": 48,
            "midi": 81,
            "name": "A5",
            "ticks": 225552,
            "time": 293.6875,
            "velocity": 0.13385826771653545
          },
          {
            "duration": 0.0625,
            "durationTicks": 48,
            "midi": 76,
            "name": "E5",
            "ticks": 225600,
            "time": 293.75,
            "velocity": 0.13385826771653545
          },
          {
            "duration": 0.0625,
            "durationTicks": 48,
            "midi": 73,
            "name": "C#5",
            "ticks": 225600,
            "time": 293.75,
            "velocity": 0.13385826771653545
          },
          {
            "duration": 0.0625,
            "durationTicks": 48,
            "midi": 81,
            "name": "A5",
            "ticks": 225600,
            "time": 293.75,
            "velocity": 0.13385826771653545
          },
          {
            "duration": 0.0625,
            "durationTicks": 48,
            "midi": 81,
            "name": "A5",
            "ticks": 225648,
            "time": 293.8125,
            "velocity": 0.13385826771653545
          },
          {
            "duration": 0.0625,
            "durationTicks": 48,
            "midi": 76,
            "name": "E5",
            "ticks": 225648,
            "time": 293.8125,
            "velocity": 0.13385826771653545
          },
          {
            "duration": 0.0625,
            "durationTicks": 48,
            "midi": 73,
            "name": "C#5",
            "ticks": 225648,
            "time": 293.8125,
            "velocity": 0.13385826771653545
          },
          {
            "duration": 0.0625,
            "durationTicks": 48,
            "midi": 75,
            "name": "D#5",
            "ticks": 225696,
            "time": 293.875,
            "velocity": 0.13385826771653545
          },
          {
            "duration": 0.0625,
            "durationTicks": 48,
            "midi": 71,
            "name": "B4",
            "ticks": 225696,
            "time": 293.875,
            "velocity": 0.13385826771653545
          },
          {
            "duration": 0.0625,
            "durationTicks": 48,
            "midi": 78,
            "name": "F#5",
            "ticks": 225696,
            "time": 293.875,
            "velocity": 0.13385826771653545
          },
          {
            "duration": 0.0625,
            "durationTicks": 48,
            "midi": 71,
            "name": "B4",
            "ticks": 225744,
            "time": 293.9375,
            "velocity": 0.13385826771653545
          },
          {
            "duration": 0.0625,
            "durationTicks": 48,
            "midi": 78,
            "name": "F#5",
            "ticks": 225744,
            "time": 293.9375,
            "velocity": 0.13385826771653545
          },
          {
            "duration": 0.0625,
            "durationTicks": 48,
            "midi": 75,
            "name": "D#5",
            "ticks": 225744,
            "time": 293.9375,
            "velocity": 0.13385826771653545
          },
          {
            "duration": 0.0625,
            "durationTicks": 48,
            "midi": 78,
            "name": "F#5",
            "ticks": 225792,
            "time": 294,
            "velocity": 0.13385826771653545
          },
          {
            "duration": 0.0625,
            "durationTicks": 48,
            "midi": 71,
            "name": "B4",
            "ticks": 225792,
            "time": 294,
            "velocity": 0.13385826771653545
          },
          {
            "duration": 0.0625,
            "durationTicks": 48,
            "midi": 75,
            "name": "D#5",
            "ticks": 225792,
            "time": 294,
            "velocity": 0.13385826771653545
          },
          {
            "duration": 0.0625,
            "durationTicks": 48,
            "midi": 75,
            "name": "D#5",
            "ticks": 225840,
            "time": 294.0625,
            "velocity": 0.13385826771653545
          },
          {
            "duration": 0.0625,
            "durationTicks": 48,
            "midi": 71,
            "name": "B4",
            "ticks": 225840,
            "time": 294.0625,
            "velocity": 0.13385826771653545
          },
          {
            "duration": 0.0625,
            "durationTicks": 48,
            "midi": 78,
            "name": "F#5",
            "ticks": 225840,
            "time": 294.0625,
            "velocity": 0.13385826771653545
          },
          {
            "duration": 0.0625,
            "durationTicks": 48,
            "midi": 75,
            "name": "D#5",
            "ticks": 225888,
            "time": 294.125,
            "velocity": 0.13385826771653545
          },
          {
            "duration": 0.0625,
            "durationTicks": 48,
            "midi": 78,
            "name": "F#5",
            "ticks": 225888,
            "time": 294.125,
            "velocity": 0.13385826771653545
          },
          {
            "duration": 0.0625,
            "durationTicks": 48,
            "midi": 71,
            "name": "B4",
            "ticks": 225888,
            "time": 294.125,
            "velocity": 0.13385826771653545
          },
          {
            "duration": 0.0625,
            "durationTicks": 48,
            "midi": 78,
            "name": "F#5",
            "ticks": 225936,
            "time": 294.1875,
            "velocity": 0.13385826771653545
          },
          {
            "duration": 0.0625,
            "durationTicks": 48,
            "midi": 71,
            "name": "B4",
            "ticks": 225936,
            "time": 294.1875,
            "velocity": 0.13385826771653545
          },
          {
            "duration": 0.0625,
            "durationTicks": 48,
            "midi": 75,
            "name": "D#5",
            "ticks": 225936,
            "time": 294.1875,
            "velocity": 0.13385826771653545
          },
          {
            "duration": 0.0625,
            "durationTicks": 48,
            "midi": 71,
            "name": "B4",
            "ticks": 225984,
            "time": 294.25,
            "velocity": 0.13385826771653545
          },
          {
            "duration": 0.0625,
            "durationTicks": 48,
            "midi": 78,
            "name": "F#5",
            "ticks": 225984,
            "time": 294.25,
            "velocity": 0.13385826771653545
          },
          {
            "duration": 0.0625,
            "durationTicks": 48,
            "midi": 75,
            "name": "D#5",
            "ticks": 225984,
            "time": 294.25,
            "velocity": 0.13385826771653545
          },
          {
            "duration": 0.0625,
            "durationTicks": 48,
            "midi": 78,
            "name": "F#5",
            "ticks": 226032,
            "time": 294.3125,
            "velocity": 0.13385826771653545
          },
          {
            "duration": 0.0625,
            "durationTicks": 48,
            "midi": 71,
            "name": "B4",
            "ticks": 226032,
            "time": 294.3125,
            "velocity": 0.13385826771653545
          },
          {
            "duration": 0.0625,
            "durationTicks": 48,
            "midi": 75,
            "name": "D#5",
            "ticks": 226032,
            "time": 294.3125,
            "velocity": 0.13385826771653545
          },
          {
            "duration": 0.0625,
            "durationTicks": 48,
            "midi": 71,
            "name": "B4",
            "ticks": 226080,
            "time": 294.375,
            "velocity": 0.13385826771653545
          },
          {
            "duration": 0.0625,
            "durationTicks": 48,
            "midi": 75,
            "name": "D#5",
            "ticks": 226080,
            "time": 294.375,
            "velocity": 0.13385826771653545
          },
          {
            "duration": 0.0625,
            "durationTicks": 48,
            "midi": 78,
            "name": "F#5",
            "ticks": 226080,
            "time": 294.375,
            "velocity": 0.13385826771653545
          },
          {
            "duration": 0.0625,
            "durationTicks": 48,
            "midi": 78,
            "name": "F#5",
            "ticks": 226128,
            "time": 294.4375,
            "velocity": 0.13385826771653545
          },
          {
            "duration": 0.0625,
            "durationTicks": 48,
            "midi": 75,
            "name": "D#5",
            "ticks": 226128,
            "time": 294.4375,
            "velocity": 0.13385826771653545
          },
          {
            "duration": 0.0625,
            "durationTicks": 48,
            "midi": 71,
            "name": "B4",
            "ticks": 226128,
            "time": 294.4375,
            "velocity": 0.13385826771653545
          },
          {
            "duration": 0.0625,
            "durationTicks": 48,
            "midi": 71,
            "name": "B4",
            "ticks": 226176,
            "time": 294.5,
            "velocity": 0.13385826771653545
          },
          {
            "duration": 0.0625,
            "durationTicks": 48,
            "midi": 75,
            "name": "D#5",
            "ticks": 226176,
            "time": 294.5,
            "velocity": 0.13385826771653545
          },
          {
            "duration": 0.0625,
            "durationTicks": 48,
            "midi": 78,
            "name": "F#5",
            "ticks": 226176,
            "time": 294.5,
            "velocity": 0.13385826771653545
          },
          {
            "duration": 0.0625,
            "durationTicks": 48,
            "midi": 71,
            "name": "B4",
            "ticks": 226224,
            "time": 294.5625,
            "velocity": 0.13385826771653545
          },
          {
            "duration": 0.0625,
            "durationTicks": 48,
            "midi": 75,
            "name": "D#5",
            "ticks": 226224,
            "time": 294.5625,
            "velocity": 0.13385826771653545
          },
          {
            "duration": 0.0625,
            "durationTicks": 48,
            "midi": 78,
            "name": "F#5",
            "ticks": 226224,
            "time": 294.5625,
            "velocity": 0.13385826771653545
          },
          {
            "duration": 0.0625,
            "durationTicks": 48,
            "midi": 78,
            "name": "F#5",
            "ticks": 226272,
            "time": 294.625,
            "velocity": 0.13385826771653545
          },
          {
            "duration": 0.0625,
            "durationTicks": 48,
            "midi": 71,
            "name": "B4",
            "ticks": 226272,
            "time": 294.625,
            "velocity": 0.13385826771653545
          },
          {
            "duration": 0.0625,
            "durationTicks": 48,
            "midi": 75,
            "name": "D#5",
            "ticks": 226272,
            "time": 294.625,
            "velocity": 0.13385826771653545
          },
          {
            "duration": 0.0625,
            "durationTicks": 48,
            "midi": 75,
            "name": "D#5",
            "ticks": 226320,
            "time": 294.6875,
            "velocity": 0.13385826771653545
          },
          {
            "duration": 0.0625,
            "durationTicks": 48,
            "midi": 78,
            "name": "F#5",
            "ticks": 226320,
            "time": 294.6875,
            "velocity": 0.13385826771653545
          },
          {
            "duration": 0.0625,
            "durationTicks": 48,
            "midi": 71,
            "name": "B4",
            "ticks": 226320,
            "time": 294.6875,
            "velocity": 0.13385826771653545
          },
          {
            "duration": 0.0625,
            "durationTicks": 48,
            "midi": 78,
            "name": "F#5",
            "ticks": 226368,
            "time": 294.75,
            "velocity": 0.13385826771653545
          },
          {
            "duration": 0.0625,
            "durationTicks": 48,
            "midi": 75,
            "name": "D#5",
            "ticks": 226368,
            "time": 294.75,
            "velocity": 0.13385826771653545
          },
          {
            "duration": 0.0625,
            "durationTicks": 48,
            "midi": 71,
            "name": "B4",
            "ticks": 226368,
            "time": 294.75,
            "velocity": 0.13385826771653545
          },
          {
            "duration": 0.0625,
            "durationTicks": 48,
            "midi": 71,
            "name": "B4",
            "ticks": 226416,
            "time": 294.8125,
            "velocity": 0.13385826771653545
          },
          {
            "duration": 0.0625,
            "durationTicks": 48,
            "midi": 75,
            "name": "D#5",
            "ticks": 226416,
            "time": 294.8125,
            "velocity": 0.13385826771653545
          },
          {
            "duration": 0.0625,
            "durationTicks": 48,
            "midi": 78,
            "name": "F#5",
            "ticks": 226416,
            "time": 294.8125,
            "velocity": 0.13385826771653545
          },
          {
            "duration": 0.0625,
            "durationTicks": 48,
            "midi": 78,
            "name": "F#5",
            "ticks": 226464,
            "time": 294.875,
            "velocity": 0.13385826771653545
          },
          {
            "duration": 0.0625,
            "durationTicks": 48,
            "midi": 71,
            "name": "B4",
            "ticks": 226464,
            "time": 294.875,
            "velocity": 0.13385826771653545
          },
          {
            "duration": 0.0625,
            "durationTicks": 48,
            "midi": 75,
            "name": "D#5",
            "ticks": 226464,
            "time": 294.875,
            "velocity": 0.13385826771653545
          },
          {
            "duration": 0.0625,
            "durationTicks": 48,
            "midi": 71,
            "name": "B4",
            "ticks": 226512,
            "time": 294.9375,
            "velocity": 0.13385826771653545
          },
          {
            "duration": 0.0625,
            "durationTicks": 48,
            "midi": 75,
            "name": "D#5",
            "ticks": 226512,
            "time": 294.9375,
            "velocity": 0.13385826771653545
          },
          {
            "duration": 0.0625,
            "durationTicks": 48,
            "midi": 78,
            "name": "F#5",
            "ticks": 226512,
            "time": 294.9375,
            "velocity": 0.13385826771653545
          },
          {
            "duration": 0.0625,
            "durationTicks": 48,
            "midi": 75,
            "name": "D#5",
            "ticks": 226560,
            "time": 295,
            "velocity": 0.13385826771653545
          },
          {
            "duration": 0.0625,
            "durationTicks": 48,
            "midi": 78,
            "name": "F#5",
            "ticks": 226560,
            "time": 295,
            "velocity": 0.13385826771653545
          },
          {
            "duration": 0.0625,
            "durationTicks": 48,
            "midi": 71,
            "name": "B4",
            "ticks": 226560,
            "time": 295,
            "velocity": 0.13385826771653545
          },
          {
            "duration": 0.0625,
            "durationTicks": 48,
            "midi": 78,
            "name": "F#5",
            "ticks": 226608,
            "time": 295.0625,
            "velocity": 0.13385826771653545
          },
          {
            "duration": 0.0625,
            "durationTicks": 48,
            "midi": 75,
            "name": "D#5",
            "ticks": 226608,
            "time": 295.0625,
            "velocity": 0.13385826771653545
          },
          {
            "duration": 0.0625,
            "durationTicks": 48,
            "midi": 71,
            "name": "B4",
            "ticks": 226608,
            "time": 295.0625,
            "velocity": 0.13385826771653545
          },
          {
            "duration": 0.0625,
            "durationTicks": 48,
            "midi": 75,
            "name": "D#5",
            "ticks": 226656,
            "time": 295.125,
            "velocity": 0.13385826771653545
          },
          {
            "duration": 0.0625,
            "durationTicks": 48,
            "midi": 78,
            "name": "F#5",
            "ticks": 226656,
            "time": 295.125,
            "velocity": 0.13385826771653545
          },
          {
            "duration": 0.0625,
            "durationTicks": 48,
            "midi": 71,
            "name": "B4",
            "ticks": 226656,
            "time": 295.125,
            "velocity": 0.13385826771653545
          },
          {
            "duration": 0.0625,
            "durationTicks": 48,
            "midi": 75,
            "name": "D#5",
            "ticks": 226704,
            "time": 295.1875,
            "velocity": 0.13385826771653545
          },
          {
            "duration": 0.0625,
            "durationTicks": 48,
            "midi": 71,
            "name": "B4",
            "ticks": 226704,
            "time": 295.1875,
            "velocity": 0.13385826771653545
          },
          {
            "duration": 0.0625,
            "durationTicks": 48,
            "midi": 78,
            "name": "F#5",
            "ticks": 226704,
            "time": 295.1875,
            "velocity": 0.13385826771653545
          },
          {
            "duration": 0.0625,
            "durationTicks": 48,
            "midi": 78,
            "name": "F#5",
            "ticks": 226752,
            "time": 295.25,
            "velocity": 0.13385826771653545
          },
          {
            "duration": 0.0625,
            "durationTicks": 48,
            "midi": 71,
            "name": "B4",
            "ticks": 226752,
            "time": 295.25,
            "velocity": 0.13385826771653545
          },
          {
            "duration": 0.0625,
            "durationTicks": 48,
            "midi": 75,
            "name": "D#5",
            "ticks": 226752,
            "time": 295.25,
            "velocity": 0.13385826771653545
          },
          {
            "duration": 0.0625,
            "durationTicks": 48,
            "midi": 71,
            "name": "B4",
            "ticks": 226800,
            "time": 295.3125,
            "velocity": 0.13385826771653545
          },
          {
            "duration": 0.0625,
            "durationTicks": 48,
            "midi": 78,
            "name": "F#5",
            "ticks": 226800,
            "time": 295.3125,
            "velocity": 0.13385826771653545
          },
          {
            "duration": 0.0625,
            "durationTicks": 48,
            "midi": 75,
            "name": "D#5",
            "ticks": 226800,
            "time": 295.3125,
            "velocity": 0.13385826771653545
          },
          {
            "duration": 0.0625,
            "durationTicks": 48,
            "midi": 75,
            "name": "D#5",
            "ticks": 226848,
            "time": 295.375,
            "velocity": 0.13385826771653545
          },
          {
            "duration": 0.0625,
            "durationTicks": 48,
            "midi": 78,
            "name": "F#5",
            "ticks": 226848,
            "time": 295.375,
            "velocity": 0.13385826771653545
          },
          {
            "duration": 0.0625,
            "durationTicks": 48,
            "midi": 71,
            "name": "B4",
            "ticks": 226848,
            "time": 295.375,
            "velocity": 0.13385826771653545
          },
          {
            "duration": 0.0625,
            "durationTicks": 48,
            "midi": 71,
            "name": "B4",
            "ticks": 226896,
            "time": 295.4375,
            "velocity": 0.13385826771653545
          },
          {
            "duration": 0.0625,
            "durationTicks": 48,
            "midi": 78,
            "name": "F#5",
            "ticks": 226896,
            "time": 295.4375,
            "velocity": 0.13385826771653545
          },
          {
            "duration": 0.0625,
            "durationTicks": 48,
            "midi": 75,
            "name": "D#5",
            "ticks": 226896,
            "time": 295.4375,
            "velocity": 0.13385826771653545
          },
          {
            "duration": 0.0625,
            "durationTicks": 48,
            "midi": 71,
            "name": "B4",
            "ticks": 226944,
            "time": 295.5,
            "velocity": 0.13385826771653545
          },
          {
            "duration": 0.0625,
            "durationTicks": 48,
            "midi": 75,
            "name": "D#5",
            "ticks": 226944,
            "time": 295.5,
            "velocity": 0.13385826771653545
          },
          {
            "duration": 0.0625,
            "durationTicks": 48,
            "midi": 78,
            "name": "F#5",
            "ticks": 226944,
            "time": 295.5,
            "velocity": 0.13385826771653545
          },
          {
            "duration": 0.0625,
            "durationTicks": 48,
            "midi": 75,
            "name": "D#5",
            "ticks": 226992,
            "time": 295.5625,
            "velocity": 0.13385826771653545
          },
          {
            "duration": 0.0625,
            "durationTicks": 48,
            "midi": 71,
            "name": "B4",
            "ticks": 226992,
            "time": 295.5625,
            "velocity": 0.13385826771653545
          },
          {
            "duration": 0.0625,
            "durationTicks": 48,
            "midi": 78,
            "name": "F#5",
            "ticks": 226992,
            "time": 295.5625,
            "velocity": 0.13385826771653545
          },
          {
            "duration": 0.0625,
            "durationTicks": 48,
            "midi": 78,
            "name": "F#5",
            "ticks": 227040,
            "time": 295.625,
            "velocity": 0.13385826771653545
          },
          {
            "duration": 0.0625,
            "durationTicks": 48,
            "midi": 75,
            "name": "D#5",
            "ticks": 227040,
            "time": 295.625,
            "velocity": 0.13385826771653545
          },
          {
            "duration": 0.0625,
            "durationTicks": 48,
            "midi": 71,
            "name": "B4",
            "ticks": 227040,
            "time": 295.625,
            "velocity": 0.13385826771653545
          },
          {
            "duration": 0.0625,
            "durationTicks": 48,
            "midi": 75,
            "name": "D#5",
            "ticks": 227088,
            "time": 295.6875,
            "velocity": 0.13385826771653545
          },
          {
            "duration": 0.0625,
            "durationTicks": 48,
            "midi": 71,
            "name": "B4",
            "ticks": 227088,
            "time": 295.6875,
            "velocity": 0.13385826771653545
          },
          {
            "duration": 0.0625,
            "durationTicks": 48,
            "midi": 78,
            "name": "F#5",
            "ticks": 227088,
            "time": 295.6875,
            "velocity": 0.13385826771653545
          },
          {
            "duration": 0.0625,
            "durationTicks": 48,
            "midi": 75,
            "name": "D#5",
            "ticks": 227136,
            "time": 295.75,
            "velocity": 0.13385826771653545
          },
          {
            "duration": 0.0625,
            "durationTicks": 48,
            "midi": 78,
            "name": "F#5",
            "ticks": 227136,
            "time": 295.75,
            "velocity": 0.13385826771653545
          },
          {
            "duration": 0.0625,
            "durationTicks": 48,
            "midi": 71,
            "name": "B4",
            "ticks": 227136,
            "time": 295.75,
            "velocity": 0.13385826771653545
          },
          {
            "duration": 0.0625,
            "durationTicks": 48,
            "midi": 75,
            "name": "D#5",
            "ticks": 227184,
            "time": 295.8125,
            "velocity": 0.13385826771653545
          },
          {
            "duration": 0.0625,
            "durationTicks": 48,
            "midi": 78,
            "name": "F#5",
            "ticks": 227184,
            "time": 295.8125,
            "velocity": 0.13385826771653545
          },
          {
            "duration": 0.0625,
            "durationTicks": 48,
            "midi": 71,
            "name": "B4",
            "ticks": 227184,
            "time": 295.8125,
            "velocity": 0.13385826771653545
          },
          {
            "duration": 0.0625,
            "durationTicks": 48,
            "midi": 78,
            "name": "F#5",
            "ticks": 227232,
            "time": 295.875,
            "velocity": 0.13385826771653545
          },
          {
            "duration": 0.0625,
            "durationTicks": 48,
            "midi": 73,
            "name": "C#5",
            "ticks": 227232,
            "time": 295.875,
            "velocity": 0.13385826771653545
          },
          {
            "duration": 0.0625,
            "durationTicks": 48,
            "midi": 70,
            "name": "A#4",
            "ticks": 227232,
            "time": 295.875,
            "velocity": 0.13385826771653545
          },
          {
            "duration": 0.0625,
            "durationTicks": 48,
            "midi": 73,
            "name": "C#5",
            "ticks": 227280,
            "time": 295.9375,
            "velocity": 0.13385826771653545
          },
          {
            "duration": 0.0625,
            "durationTicks": 48,
            "midi": 70,
            "name": "A#4",
            "ticks": 227280,
            "time": 295.9375,
            "velocity": 0.13385826771653545
          },
          {
            "duration": 0.0625,
            "durationTicks": 48,
            "midi": 78,
            "name": "F#5",
            "ticks": 227280,
            "time": 295.9375,
            "velocity": 0.13385826771653545
          },
          {
            "duration": 0.0625,
            "durationTicks": 48,
            "midi": 73,
            "name": "C#5",
            "ticks": 227328,
            "time": 296,
            "velocity": 0.13385826771653545
          },
          {
            "duration": 0.0625,
            "durationTicks": 48,
            "midi": 78,
            "name": "F#5",
            "ticks": 227328,
            "time": 296,
            "velocity": 0.13385826771653545
          },
          {
            "duration": 0.0625,
            "durationTicks": 48,
            "midi": 70,
            "name": "A#4",
            "ticks": 227328,
            "time": 296,
            "velocity": 0.13385826771653545
          },
          {
            "duration": 0.0625,
            "durationTicks": 48,
            "midi": 70,
            "name": "A#4",
            "ticks": 227376,
            "time": 296.0625,
            "velocity": 0.13385826771653545
          },
          {
            "duration": 0.0625,
            "durationTicks": 48,
            "midi": 73,
            "name": "C#5",
            "ticks": 227376,
            "time": 296.0625,
            "velocity": 0.13385826771653545
          },
          {
            "duration": 0.0625,
            "durationTicks": 48,
            "midi": 78,
            "name": "F#5",
            "ticks": 227376,
            "time": 296.0625,
            "velocity": 0.13385826771653545
          },
          {
            "duration": 0.0625,
            "durationTicks": 48,
            "midi": 73,
            "name": "C#5",
            "ticks": 227424,
            "time": 296.125,
            "velocity": 0.13385826771653545
          },
          {
            "duration": 0.0625,
            "durationTicks": 48,
            "midi": 78,
            "name": "F#5",
            "ticks": 227424,
            "time": 296.125,
            "velocity": 0.13385826771653545
          },
          {
            "duration": 0.0625,
            "durationTicks": 48,
            "midi": 70,
            "name": "A#4",
            "ticks": 227424,
            "time": 296.125,
            "velocity": 0.13385826771653545
          },
          {
            "duration": 0.0625,
            "durationTicks": 48,
            "midi": 78,
            "name": "F#5",
            "ticks": 227472,
            "time": 296.1875,
            "velocity": 0.13385826771653545
          },
          {
            "duration": 0.0625,
            "durationTicks": 48,
            "midi": 73,
            "name": "C#5",
            "ticks": 227472,
            "time": 296.1875,
            "velocity": 0.13385826771653545
          },
          {
            "duration": 0.0625,
            "durationTicks": 48,
            "midi": 70,
            "name": "A#4",
            "ticks": 227472,
            "time": 296.1875,
            "velocity": 0.13385826771653545
          },
          {
            "duration": 0.0625,
            "durationTicks": 48,
            "midi": 78,
            "name": "F#5",
            "ticks": 227520,
            "time": 296.25,
            "velocity": 0.13385826771653545
          },
          {
            "duration": 0.0625,
            "durationTicks": 48,
            "midi": 73,
            "name": "C#5",
            "ticks": 227520,
            "time": 296.25,
            "velocity": 0.13385826771653545
          },
          {
            "duration": 0.0625,
            "durationTicks": 48,
            "midi": 70,
            "name": "A#4",
            "ticks": 227520,
            "time": 296.25,
            "velocity": 0.13385826771653545
          },
          {
            "duration": 0.0625,
            "durationTicks": 48,
            "midi": 78,
            "name": "F#5",
            "ticks": 227568,
            "time": 296.3125,
            "velocity": 0.13385826771653545
          },
          {
            "duration": 0.0625,
            "durationTicks": 48,
            "midi": 73,
            "name": "C#5",
            "ticks": 227568,
            "time": 296.3125,
            "velocity": 0.13385826771653545
          },
          {
            "duration": 0.0625,
            "durationTicks": 48,
            "midi": 70,
            "name": "A#4",
            "ticks": 227568,
            "time": 296.3125,
            "velocity": 0.13385826771653545
          },
          {
            "duration": 0.0625,
            "durationTicks": 48,
            "midi": 73,
            "name": "C#5",
            "ticks": 227616,
            "time": 296.375,
            "velocity": 0.13385826771653545
          },
          {
            "duration": 0.0625,
            "durationTicks": 48,
            "midi": 70,
            "name": "A#4",
            "ticks": 227616,
            "time": 296.375,
            "velocity": 0.13385826771653545
          },
          {
            "duration": 0.0625,
            "durationTicks": 48,
            "midi": 78,
            "name": "F#5",
            "ticks": 227616,
            "time": 296.375,
            "velocity": 0.13385826771653545
          },
          {
            "duration": 0.0625,
            "durationTicks": 48,
            "midi": 73,
            "name": "C#5",
            "ticks": 227664,
            "time": 296.4375,
            "velocity": 0.13385826771653545
          },
          {
            "duration": 0.0625,
            "durationTicks": 48,
            "midi": 70,
            "name": "A#4",
            "ticks": 227664,
            "time": 296.4375,
            "velocity": 0.13385826771653545
          },
          {
            "duration": 0.0625,
            "durationTicks": 48,
            "midi": 78,
            "name": "F#5",
            "ticks": 227664,
            "time": 296.4375,
            "velocity": 0.13385826771653545
          },
          {
            "duration": 0.0625,
            "durationTicks": 48,
            "midi": 78,
            "name": "F#5",
            "ticks": 227712,
            "time": 296.5,
            "velocity": 0.13385826771653545
          },
          {
            "duration": 0.0625,
            "durationTicks": 48,
            "midi": 70,
            "name": "A#4",
            "ticks": 227712,
            "time": 296.5,
            "velocity": 0.13385826771653545
          },
          {
            "duration": 0.0625,
            "durationTicks": 48,
            "midi": 73,
            "name": "C#5",
            "ticks": 227712,
            "time": 296.5,
            "velocity": 0.13385826771653545
          },
          {
            "duration": 0.0625,
            "durationTicks": 48,
            "midi": 73,
            "name": "C#5",
            "ticks": 227760,
            "time": 296.5625,
            "velocity": 0.13385826771653545
          },
          {
            "duration": 0.0625,
            "durationTicks": 48,
            "midi": 70,
            "name": "A#4",
            "ticks": 227760,
            "time": 296.5625,
            "velocity": 0.13385826771653545
          },
          {
            "duration": 0.0625,
            "durationTicks": 48,
            "midi": 78,
            "name": "F#5",
            "ticks": 227760,
            "time": 296.5625,
            "velocity": 0.13385826771653545
          },
          {
            "duration": 0.0625,
            "durationTicks": 48,
            "midi": 73,
            "name": "C#5",
            "ticks": 227808,
            "time": 296.625,
            "velocity": 0.13385826771653545
          },
          {
            "duration": 0.0625,
            "durationTicks": 48,
            "midi": 70,
            "name": "A#4",
            "ticks": 227808,
            "time": 296.625,
            "velocity": 0.13385826771653545
          },
          {
            "duration": 0.0625,
            "durationTicks": 48,
            "midi": 78,
            "name": "F#5",
            "ticks": 227808,
            "time": 296.625,
            "velocity": 0.13385826771653545
          },
          {
            "duration": 0.0625,
            "durationTicks": 48,
            "midi": 78,
            "name": "F#5",
            "ticks": 227856,
            "time": 296.6875,
            "velocity": 0.13385826771653545
          },
          {
            "duration": 0.0625,
            "durationTicks": 48,
            "midi": 73,
            "name": "C#5",
            "ticks": 227856,
            "time": 296.6875,
            "velocity": 0.13385826771653545
          },
          {
            "duration": 0.0625,
            "durationTicks": 48,
            "midi": 70,
            "name": "A#4",
            "ticks": 227856,
            "time": 296.6875,
            "velocity": 0.13385826771653545
          },
          {
            "duration": 0.0625,
            "durationTicks": 48,
            "midi": 73,
            "name": "C#5",
            "ticks": 227904,
            "time": 296.75,
            "velocity": 0.13385826771653545
          },
          {
            "duration": 0.0625,
            "durationTicks": 48,
            "midi": 78,
            "name": "F#5",
            "ticks": 227904,
            "time": 296.75,
            "velocity": 0.13385826771653545
          },
          {
            "duration": 0.0625,
            "durationTicks": 48,
            "midi": 70,
            "name": "A#4",
            "ticks": 227904,
            "time": 296.75,
            "velocity": 0.13385826771653545
          },
          {
            "duration": 0.0625,
            "durationTicks": 48,
            "midi": 73,
            "name": "C#5",
            "ticks": 227952,
            "time": 296.8125,
            "velocity": 0.13385826771653545
          },
          {
            "duration": 0.0625,
            "durationTicks": 48,
            "midi": 78,
            "name": "F#5",
            "ticks": 227952,
            "time": 296.8125,
            "velocity": 0.13385826771653545
          },
          {
            "duration": 0.0625,
            "durationTicks": 48,
            "midi": 70,
            "name": "A#4",
            "ticks": 227952,
            "time": 296.8125,
            "velocity": 0.13385826771653545
          },
          {
            "duration": 0.0625,
            "durationTicks": 48,
            "midi": 78,
            "name": "F#5",
            "ticks": 228000,
            "time": 296.875,
            "velocity": 0.13385826771653545
          },
          {
            "duration": 0.0625,
            "durationTicks": 48,
            "midi": 70,
            "name": "A#4",
            "ticks": 228000,
            "time": 296.875,
            "velocity": 0.13385826771653545
          },
          {
            "duration": 0.0625,
            "durationTicks": 48,
            "midi": 73,
            "name": "C#5",
            "ticks": 228000,
            "time": 296.875,
            "velocity": 0.13385826771653545
          },
          {
            "duration": 0.0625,
            "durationTicks": 48,
            "midi": 70,
            "name": "A#4",
            "ticks": 228048,
            "time": 296.9375,
            "velocity": 0.13385826771653545
          },
          {
            "duration": 0.0625,
            "durationTicks": 48,
            "midi": 73,
            "name": "C#5",
            "ticks": 228048,
            "time": 296.9375,
            "velocity": 0.13385826771653545
          },
          {
            "duration": 0.0625,
            "durationTicks": 48,
            "midi": 78,
            "name": "F#5",
            "ticks": 228048,
            "time": 296.9375,
            "velocity": 0.13385826771653545
          },
          {
            "duration": 0.0625,
            "durationTicks": 48,
            "midi": 78,
            "name": "F#5",
            "ticks": 228096,
            "time": 297,
            "velocity": 0.13385826771653545
          },
          {
            "duration": 0.0625,
            "durationTicks": 48,
            "midi": 73,
            "name": "C#5",
            "ticks": 228096,
            "time": 297,
            "velocity": 0.13385826771653545
          },
          {
            "duration": 0.0625,
            "durationTicks": 48,
            "midi": 70,
            "name": "A#4",
            "ticks": 228096,
            "time": 297,
            "velocity": 0.13385826771653545
          },
          {
            "duration": 0.0625,
            "durationTicks": 48,
            "midi": 78,
            "name": "F#5",
            "ticks": 228144,
            "time": 297.0625,
            "velocity": 0.13385826771653545
          },
          {
            "duration": 0.0625,
            "durationTicks": 48,
            "midi": 73,
            "name": "C#5",
            "ticks": 228144,
            "time": 297.0625,
            "velocity": 0.13385826771653545
          },
          {
            "duration": 0.0625,
            "durationTicks": 48,
            "midi": 70,
            "name": "A#4",
            "ticks": 228144,
            "time": 297.0625,
            "velocity": 0.13385826771653545
          },
          {
            "duration": 0.0625,
            "durationTicks": 48,
            "midi": 73,
            "name": "C#5",
            "ticks": 228192,
            "time": 297.125,
            "velocity": 0.13385826771653545
          },
          {
            "duration": 0.0625,
            "durationTicks": 48,
            "midi": 78,
            "name": "F#5",
            "ticks": 228192,
            "time": 297.125,
            "velocity": 0.13385826771653545
          },
          {
            "duration": 0.0625,
            "durationTicks": 48,
            "midi": 70,
            "name": "A#4",
            "ticks": 228192,
            "time": 297.125,
            "velocity": 0.13385826771653545
          },
          {
            "duration": 0.0625,
            "durationTicks": 48,
            "midi": 73,
            "name": "C#5",
            "ticks": 228240,
            "time": 297.1875,
            "velocity": 0.13385826771653545
          },
          {
            "duration": 0.0625,
            "durationTicks": 48,
            "midi": 78,
            "name": "F#5",
            "ticks": 228240,
            "time": 297.1875,
            "velocity": 0.13385826771653545
          },
          {
            "duration": 0.0625,
            "durationTicks": 48,
            "midi": 70,
            "name": "A#4",
            "ticks": 228240,
            "time": 297.1875,
            "velocity": 0.13385826771653545
          },
          {
            "duration": 0.0625,
            "durationTicks": 48,
            "midi": 73,
            "name": "C#5",
            "ticks": 228288,
            "time": 297.25,
            "velocity": 0.13385826771653545
          },
          {
            "duration": 0.0625,
            "durationTicks": 48,
            "midi": 78,
            "name": "F#5",
            "ticks": 228288,
            "time": 297.25,
            "velocity": 0.13385826771653545
          },
          {
            "duration": 0.0625,
            "durationTicks": 48,
            "midi": 70,
            "name": "A#4",
            "ticks": 228288,
            "time": 297.25,
            "velocity": 0.13385826771653545
          },
          {
            "duration": 0.0625,
            "durationTicks": 48,
            "midi": 70,
            "name": "A#4",
            "ticks": 228336,
            "time": 297.3125,
            "velocity": 0.13385826771653545
          },
          {
            "duration": 0.0625,
            "durationTicks": 48,
            "midi": 78,
            "name": "F#5",
            "ticks": 228336,
            "time": 297.3125,
            "velocity": 0.13385826771653545
          },
          {
            "duration": 0.0625,
            "durationTicks": 48,
            "midi": 73,
            "name": "C#5",
            "ticks": 228336,
            "time": 297.3125,
            "velocity": 0.13385826771653545
          },
          {
            "duration": 0.0625,
            "durationTicks": 48,
            "midi": 78,
            "name": "F#5",
            "ticks": 228384,
            "time": 297.375,
            "velocity": 0.13385826771653545
          },
          {
            "duration": 0.0625,
            "durationTicks": 48,
            "midi": 73,
            "name": "C#5",
            "ticks": 228384,
            "time": 297.375,
            "velocity": 0.13385826771653545
          },
          {
            "duration": 0.0625,
            "durationTicks": 48,
            "midi": 70,
            "name": "A#4",
            "ticks": 228384,
            "time": 297.375,
            "velocity": 0.13385826771653545
          },
          {
            "duration": 0.0625,
            "durationTicks": 48,
            "midi": 73,
            "name": "C#5",
            "ticks": 228432,
            "time": 297.4375,
            "velocity": 0.13385826771653545
          },
          {
            "duration": 0.0625,
            "durationTicks": 48,
            "midi": 70,
            "name": "A#4",
            "ticks": 228432,
            "time": 297.4375,
            "velocity": 0.13385826771653545
          },
          {
            "duration": 0.0625,
            "durationTicks": 48,
            "midi": 78,
            "name": "F#5",
            "ticks": 228432,
            "time": 297.4375,
            "velocity": 0.13385826771653545
          },
          {
            "duration": 0.0625,
            "durationTicks": 48,
            "midi": 73,
            "name": "C#5",
            "ticks": 228480,
            "time": 297.5,
            "velocity": 0.13385826771653545
          },
          {
            "duration": 0.0625,
            "durationTicks": 48,
            "midi": 78,
            "name": "F#5",
            "ticks": 228480,
            "time": 297.5,
            "velocity": 0.13385826771653545
          },
          {
            "duration": 0.0625,
            "durationTicks": 48,
            "midi": 70,
            "name": "A#4",
            "ticks": 228480,
            "time": 297.5,
            "velocity": 0.13385826771653545
          },
          {
            "duration": 0.0625,
            "durationTicks": 48,
            "midi": 70,
            "name": "A#4",
            "ticks": 228528,
            "time": 297.5625,
            "velocity": 0.13385826771653545
          },
          {
            "duration": 0.0625,
            "durationTicks": 48,
            "midi": 73,
            "name": "C#5",
            "ticks": 228528,
            "time": 297.5625,
            "velocity": 0.13385826771653545
          },
          {
            "duration": 0.0625,
            "durationTicks": 48,
            "midi": 78,
            "name": "F#5",
            "ticks": 228528,
            "time": 297.5625,
            "velocity": 0.13385826771653545
          },
          {
            "duration": 0.0625,
            "durationTicks": 48,
            "midi": 70,
            "name": "A#4",
            "ticks": 228576,
            "time": 297.625,
            "velocity": 0.13385826771653545
          },
          {
            "duration": 0.0625,
            "durationTicks": 48,
            "midi": 73,
            "name": "C#5",
            "ticks": 228576,
            "time": 297.625,
            "velocity": 0.13385826771653545
          },
          {
            "duration": 0.0625,
            "durationTicks": 48,
            "midi": 78,
            "name": "F#5",
            "ticks": 228576,
            "time": 297.625,
            "velocity": 0.13385826771653545
          },
          {
            "duration": 0.0625,
            "durationTicks": 48,
            "midi": 78,
            "name": "F#5",
            "ticks": 228624,
            "time": 297.6875,
            "velocity": 0.13385826771653545
          },
          {
            "duration": 0.0625,
            "durationTicks": 48,
            "midi": 70,
            "name": "A#4",
            "ticks": 228624,
            "time": 297.6875,
            "velocity": 0.13385826771653545
          },
          {
            "duration": 0.0625,
            "durationTicks": 48,
            "midi": 73,
            "name": "C#5",
            "ticks": 228624,
            "time": 297.6875,
            "velocity": 0.13385826771653545
          },
          {
            "duration": 0.0625,
            "durationTicks": 48,
            "midi": 73,
            "name": "C#5",
            "ticks": 228672,
            "time": 297.75,
            "velocity": 0.13385826771653545
          },
          {
            "duration": 0.0625,
            "durationTicks": 48,
            "midi": 70,
            "name": "A#4",
            "ticks": 228672,
            "time": 297.75,
            "velocity": 0.13385826771653545
          },
          {
            "duration": 0.0625,
            "durationTicks": 48,
            "midi": 78,
            "name": "F#5",
            "ticks": 228672,
            "time": 297.75,
            "velocity": 0.13385826771653545
          },
          {
            "duration": 0.0625,
            "durationTicks": 48,
            "midi": 78,
            "name": "F#5",
            "ticks": 228720,
            "time": 297.8125,
            "velocity": 0.13385826771653545
          },
          {
            "duration": 0.0625,
            "durationTicks": 48,
            "midi": 73,
            "name": "C#5",
            "ticks": 228720,
            "time": 297.8125,
            "velocity": 0.13385826771653545
          },
          {
            "duration": 0.0625,
            "durationTicks": 48,
            "midi": 70,
            "name": "A#4",
            "ticks": 228720,
            "time": 297.8125,
            "velocity": 0.13385826771653545
          },
          {
            "duration": 0.0625,
            "durationTicks": 48,
            "midi": 76,
            "name": "E5",
            "ticks": 228768,
            "time": 297.875,
            "velocity": 0.13385826771653545
          },
          {
            "duration": 0.0625,
            "durationTicks": 48,
            "midi": 73,
            "name": "C#5",
            "ticks": 228768,
            "time": 297.875,
            "velocity": 0.13385826771653545
          },
          {
            "duration": 0.0625,
            "durationTicks": 48,
            "midi": 80,
            "name": "G#5",
            "ticks": 228768,
            "time": 297.875,
            "velocity": 0.13385826771653545
          },
          {
            "duration": 0.0625,
            "durationTicks": 48,
            "midi": 73,
            "name": "C#5",
            "ticks": 228816,
            "time": 297.9375,
            "velocity": 0.13385826771653545
          },
          {
            "duration": 0.0625,
            "durationTicks": 48,
            "midi": 76,
            "name": "E5",
            "ticks": 228816,
            "time": 297.9375,
            "velocity": 0.13385826771653545
          },
          {
            "duration": 0.0625,
            "durationTicks": 48,
            "midi": 80,
            "name": "G#5",
            "ticks": 228816,
            "time": 297.9375,
            "velocity": 0.13385826771653545
          },
          {
            "duration": 0.0625,
            "durationTicks": 48,
            "midi": 80,
            "name": "G#5",
            "ticks": 228864,
            "time": 298,
            "velocity": 0.13385826771653545
          },
          {
            "duration": 0.0625,
            "durationTicks": 48,
            "midi": 76,
            "name": "E5",
            "ticks": 228864,
            "time": 298,
            "velocity": 0.13385826771653545
          },
          {
            "duration": 0.0625,
            "durationTicks": 48,
            "midi": 73,
            "name": "C#5",
            "ticks": 228864,
            "time": 298,
            "velocity": 0.13385826771653545
          },
          {
            "duration": 0.0625,
            "durationTicks": 48,
            "midi": 73,
            "name": "C#5",
            "ticks": 228912,
            "time": 298.0625,
            "velocity": 0.13385826771653545
          },
          {
            "duration": 0.0625,
            "durationTicks": 48,
            "midi": 76,
            "name": "E5",
            "ticks": 228912,
            "time": 298.0625,
            "velocity": 0.13385826771653545
          },
          {
            "duration": 0.0625,
            "durationTicks": 48,
            "midi": 80,
            "name": "G#5",
            "ticks": 228912,
            "time": 298.0625,
            "velocity": 0.13385826771653545
          },
          {
            "duration": 0.0625,
            "durationTicks": 48,
            "midi": 76,
            "name": "E5",
            "ticks": 228960,
            "time": 298.125,
            "velocity": 0.13385826771653545
          },
          {
            "duration": 0.0625,
            "durationTicks": 48,
            "midi": 80,
            "name": "G#5",
            "ticks": 228960,
            "time": 298.125,
            "velocity": 0.13385826771653545
          },
          {
            "duration": 0.0625,
            "durationTicks": 48,
            "midi": 73,
            "name": "C#5",
            "ticks": 228960,
            "time": 298.125,
            "velocity": 0.13385826771653545
          },
          {
            "duration": 0.0625,
            "durationTicks": 48,
            "midi": 73,
            "name": "C#5",
            "ticks": 229008,
            "time": 298.1875,
            "velocity": 0.13385826771653545
          },
          {
            "duration": 0.0625,
            "durationTicks": 48,
            "midi": 80,
            "name": "G#5",
            "ticks": 229008,
            "time": 298.1875,
            "velocity": 0.13385826771653545
          },
          {
            "duration": 0.0625,
            "durationTicks": 48,
            "midi": 76,
            "name": "E5",
            "ticks": 229008,
            "time": 298.1875,
            "velocity": 0.13385826771653545
          },
          {
            "duration": 0.0625,
            "durationTicks": 48,
            "midi": 76,
            "name": "E5",
            "ticks": 229056,
            "time": 298.25,
            "velocity": 0.13385826771653545
          },
          {
            "duration": 0.0625,
            "durationTicks": 48,
            "midi": 73,
            "name": "C#5",
            "ticks": 229056,
            "time": 298.25,
            "velocity": 0.13385826771653545
          },
          {
            "duration": 0.0625,
            "durationTicks": 48,
            "midi": 80,
            "name": "G#5",
            "ticks": 229056,
            "time": 298.25,
            "velocity": 0.13385826771653545
          },
          {
            "duration": 0.0625,
            "durationTicks": 48,
            "midi": 76,
            "name": "E5",
            "ticks": 229104,
            "time": 298.3125,
            "velocity": 0.13385826771653545
          },
          {
            "duration": 0.0625,
            "durationTicks": 48,
            "midi": 73,
            "name": "C#5",
            "ticks": 229104,
            "time": 298.3125,
            "velocity": 0.13385826771653545
          },
          {
            "duration": 0.0625,
            "durationTicks": 48,
            "midi": 80,
            "name": "G#5",
            "ticks": 229104,
            "time": 298.3125,
            "velocity": 0.13385826771653545
          },
          {
            "duration": 0.0625,
            "durationTicks": 48,
            "midi": 73,
            "name": "C#5",
            "ticks": 229152,
            "time": 298.375,
            "velocity": 0.13385826771653545
          },
          {
            "duration": 0.0625,
            "durationTicks": 48,
            "midi": 76,
            "name": "E5",
            "ticks": 229152,
            "time": 298.375,
            "velocity": 0.13385826771653545
          },
          {
            "duration": 0.0625,
            "durationTicks": 48,
            "midi": 80,
            "name": "G#5",
            "ticks": 229152,
            "time": 298.375,
            "velocity": 0.13385826771653545
          },
          {
            "duration": 0.0625,
            "durationTicks": 48,
            "midi": 80,
            "name": "G#5",
            "ticks": 229200,
            "time": 298.4375,
            "velocity": 0.13385826771653545
          },
          {
            "duration": 0.0625,
            "durationTicks": 48,
            "midi": 76,
            "name": "E5",
            "ticks": 229200,
            "time": 298.4375,
            "velocity": 0.13385826771653545
          },
          {
            "duration": 0.0625,
            "durationTicks": 48,
            "midi": 73,
            "name": "C#5",
            "ticks": 229200,
            "time": 298.4375,
            "velocity": 0.13385826771653545
          },
          {
            "duration": 0.0625,
            "durationTicks": 48,
            "midi": 73,
            "name": "C#5",
            "ticks": 229248,
            "time": 298.5,
            "velocity": 0.13385826771653545
          },
          {
            "duration": 0.0625,
            "durationTicks": 48,
            "midi": 76,
            "name": "E5",
            "ticks": 229248,
            "time": 298.5,
            "velocity": 0.13385826771653545
          },
          {
            "duration": 0.0625,
            "durationTicks": 48,
            "midi": 80,
            "name": "G#5",
            "ticks": 229248,
            "time": 298.5,
            "velocity": 0.13385826771653545
          },
          {
            "duration": 0.0625,
            "durationTicks": 48,
            "midi": 73,
            "name": "C#5",
            "ticks": 229296,
            "time": 298.5625,
            "velocity": 0.13385826771653545
          },
          {
            "duration": 0.0625,
            "durationTicks": 48,
            "midi": 80,
            "name": "G#5",
            "ticks": 229296,
            "time": 298.5625,
            "velocity": 0.13385826771653545
          },
          {
            "duration": 0.0625,
            "durationTicks": 48,
            "midi": 76,
            "name": "E5",
            "ticks": 229296,
            "time": 298.5625,
            "velocity": 0.13385826771653545
          },
          {
            "duration": 0.0625,
            "durationTicks": 48,
            "midi": 80,
            "name": "G#5",
            "ticks": 229344,
            "time": 298.625,
            "velocity": 0.13385826771653545
          },
          {
            "duration": 0.0625,
            "durationTicks": 48,
            "midi": 73,
            "name": "C#5",
            "ticks": 229344,
            "time": 298.625,
            "velocity": 0.13385826771653545
          },
          {
            "duration": 0.0625,
            "durationTicks": 48,
            "midi": 76,
            "name": "E5",
            "ticks": 229344,
            "time": 298.625,
            "velocity": 0.13385826771653545
          },
          {
            "duration": 0.0625,
            "durationTicks": 48,
            "midi": 80,
            "name": "G#5",
            "ticks": 229392,
            "time": 298.6875,
            "velocity": 0.13385826771653545
          },
          {
            "duration": 0.0625,
            "durationTicks": 48,
            "midi": 73,
            "name": "C#5",
            "ticks": 229392,
            "time": 298.6875,
            "velocity": 0.13385826771653545
          },
          {
            "duration": 0.0625,
            "durationTicks": 48,
            "midi": 76,
            "name": "E5",
            "ticks": 229392,
            "time": 298.6875,
            "velocity": 0.13385826771653545
          },
          {
            "duration": 0.0625,
            "durationTicks": 48,
            "midi": 73,
            "name": "C#5",
            "ticks": 229440,
            "time": 298.75,
            "velocity": 0.13385826771653545
          },
          {
            "duration": 0.0625,
            "durationTicks": 48,
            "midi": 76,
            "name": "E5",
            "ticks": 229440,
            "time": 298.75,
            "velocity": 0.13385826771653545
          },
          {
            "duration": 0.0625,
            "durationTicks": 48,
            "midi": 80,
            "name": "G#5",
            "ticks": 229440,
            "time": 298.75,
            "velocity": 0.13385826771653545
          },
          {
            "duration": 0.0625,
            "durationTicks": 48,
            "midi": 73,
            "name": "C#5",
            "ticks": 229488,
            "time": 298.8125,
            "velocity": 0.13385826771653545
          },
          {
            "duration": 0.0625,
            "durationTicks": 48,
            "midi": 80,
            "name": "G#5",
            "ticks": 229488,
            "time": 298.8125,
            "velocity": 0.13385826771653545
          },
          {
            "duration": 0.0625,
            "durationTicks": 48,
            "midi": 76,
            "name": "E5",
            "ticks": 229488,
            "time": 298.8125,
            "velocity": 0.13385826771653545
          },
          {
            "duration": 0.0625,
            "durationTicks": 48,
            "midi": 73,
            "name": "C#5",
            "ticks": 229536,
            "time": 298.875,
            "velocity": 0.13385826771653545
          },
          {
            "duration": 0.0625,
            "durationTicks": 48,
            "midi": 76,
            "name": "E5",
            "ticks": 229536,
            "time": 298.875,
            "velocity": 0.13385826771653545
          },
          {
            "duration": 0.0625,
            "durationTicks": 48,
            "midi": 80,
            "name": "G#5",
            "ticks": 229536,
            "time": 298.875,
            "velocity": 0.13385826771653545
          },
          {
            "duration": 0.0625,
            "durationTicks": 48,
            "midi": 76,
            "name": "E5",
            "ticks": 229584,
            "time": 298.9375,
            "velocity": 0.13385826771653545
          },
          {
            "duration": 0.0625,
            "durationTicks": 48,
            "midi": 73,
            "name": "C#5",
            "ticks": 229584,
            "time": 298.9375,
            "velocity": 0.13385826771653545
          },
          {
            "duration": 0.0625,
            "durationTicks": 48,
            "midi": 80,
            "name": "G#5",
            "ticks": 229584,
            "time": 298.9375,
            "velocity": 0.13385826771653545
          },
          {
            "duration": 0.0625,
            "durationTicks": 48,
            "midi": 73,
            "name": "C#5",
            "ticks": 229632,
            "time": 299,
            "velocity": 0.13385826771653545
          },
          {
            "duration": 0.0625,
            "durationTicks": 48,
            "midi": 80,
            "name": "G#5",
            "ticks": 229632,
            "time": 299,
            "velocity": 0.13385826771653545
          },
          {
            "duration": 0.0625,
            "durationTicks": 48,
            "midi": 76,
            "name": "E5",
            "ticks": 229632,
            "time": 299,
            "velocity": 0.13385826771653545
          },
          {
            "duration": 0.0625,
            "durationTicks": 48,
            "midi": 76,
            "name": "E5",
            "ticks": 229680,
            "time": 299.0625,
            "velocity": 0.13385826771653545
          },
          {
            "duration": 0.0625,
            "durationTicks": 48,
            "midi": 80,
            "name": "G#5",
            "ticks": 229680,
            "time": 299.0625,
            "velocity": 0.13385826771653545
          },
          {
            "duration": 0.0625,
            "durationTicks": 48,
            "midi": 73,
            "name": "C#5",
            "ticks": 229680,
            "time": 299.0625,
            "velocity": 0.13385826771653545
          },
          {
            "duration": 0.0625,
            "durationTicks": 48,
            "midi": 73,
            "name": "C#5",
            "ticks": 229728,
            "time": 299.125,
            "velocity": 0.13385826771653545
          },
          {
            "duration": 0.0625,
            "durationTicks": 48,
            "midi": 76,
            "name": "E5",
            "ticks": 229728,
            "time": 299.125,
            "velocity": 0.13385826771653545
          },
          {
            "duration": 0.0625,
            "durationTicks": 48,
            "midi": 80,
            "name": "G#5",
            "ticks": 229728,
            "time": 299.125,
            "velocity": 0.13385826771653545
          },
          {
            "duration": 0.0625,
            "durationTicks": 48,
            "midi": 76,
            "name": "E5",
            "ticks": 229776,
            "time": 299.1875,
            "velocity": 0.13385826771653545
          },
          {
            "duration": 0.0625,
            "durationTicks": 48,
            "midi": 80,
            "name": "G#5",
            "ticks": 229776,
            "time": 299.1875,
            "velocity": 0.13385826771653545
          },
          {
            "duration": 0.0625,
            "durationTicks": 48,
            "midi": 73,
            "name": "C#5",
            "ticks": 229776,
            "time": 299.1875,
            "velocity": 0.13385826771653545
          },
          {
            "duration": 0.0625,
            "durationTicks": 48,
            "midi": 80,
            "name": "G#5",
            "ticks": 229824,
            "time": 299.25,
            "velocity": 0.13385826771653545
          },
          {
            "duration": 0.0625,
            "durationTicks": 48,
            "midi": 76,
            "name": "E5",
            "ticks": 229824,
            "time": 299.25,
            "velocity": 0.13385826771653545
          },
          {
            "duration": 0.0625,
            "durationTicks": 48,
            "midi": 73,
            "name": "C#5",
            "ticks": 229824,
            "time": 299.25,
            "velocity": 0.13385826771653545
          },
          {
            "duration": 0.0625,
            "durationTicks": 48,
            "midi": 73,
            "name": "C#5",
            "ticks": 229872,
            "time": 299.3125,
            "velocity": 0.13385826771653545
          },
          {
            "duration": 0.0625,
            "durationTicks": 48,
            "midi": 80,
            "name": "G#5",
            "ticks": 229872,
            "time": 299.3125,
            "velocity": 0.13385826771653545
          },
          {
            "duration": 0.0625,
            "durationTicks": 48,
            "midi": 76,
            "name": "E5",
            "ticks": 229872,
            "time": 299.3125,
            "velocity": 0.13385826771653545
          },
          {
            "duration": 0.0625,
            "durationTicks": 48,
            "midi": 80,
            "name": "G#5",
            "ticks": 229920,
            "time": 299.375,
            "velocity": 0.13385826771653545
          },
          {
            "duration": 0.0625,
            "durationTicks": 48,
            "midi": 76,
            "name": "E5",
            "ticks": 229920,
            "time": 299.375,
            "velocity": 0.13385826771653545
          },
          {
            "duration": 0.0625,
            "durationTicks": 48,
            "midi": 73,
            "name": "C#5",
            "ticks": 229920,
            "time": 299.375,
            "velocity": 0.13385826771653545
          },
          {
            "duration": 0.0625,
            "durationTicks": 48,
            "midi": 80,
            "name": "G#5",
            "ticks": 229968,
            "time": 299.4375,
            "velocity": 0.13385826771653545
          },
          {
            "duration": 0.0625,
            "durationTicks": 48,
            "midi": 73,
            "name": "C#5",
            "ticks": 229968,
            "time": 299.4375,
            "velocity": 0.13385826771653545
          },
          {
            "duration": 0.0625,
            "durationTicks": 48,
            "midi": 76,
            "name": "E5",
            "ticks": 229968,
            "time": 299.4375,
            "velocity": 0.13385826771653545
          },
          {
            "duration": 0.0625,
            "durationTicks": 48,
            "midi": 76,
            "name": "E5",
            "ticks": 230016,
            "time": 299.5,
            "velocity": 0.13385826771653545
          },
          {
            "duration": 0.0625,
            "durationTicks": 48,
            "midi": 73,
            "name": "C#5",
            "ticks": 230016,
            "time": 299.5,
            "velocity": 0.13385826771653545
          },
          {
            "duration": 0.0625,
            "durationTicks": 48,
            "midi": 80,
            "name": "G#5",
            "ticks": 230016,
            "time": 299.5,
            "velocity": 0.13385826771653545
          },
          {
            "duration": 0.0625,
            "durationTicks": 48,
            "midi": 73,
            "name": "C#5",
            "ticks": 230064,
            "time": 299.5625,
            "velocity": 0.13385826771653545
          },
          {
            "duration": 0.0625,
            "durationTicks": 48,
            "midi": 76,
            "name": "E5",
            "ticks": 230064,
            "time": 299.5625,
            "velocity": 0.13385826771653545
          },
          {
            "duration": 0.0625,
            "durationTicks": 48,
            "midi": 80,
            "name": "G#5",
            "ticks": 230064,
            "time": 299.5625,
            "velocity": 0.13385826771653545
          },
          {
            "duration": 0.0625,
            "durationTicks": 48,
            "midi": 80,
            "name": "G#5",
            "ticks": 230112,
            "time": 299.625,
            "velocity": 0.13385826771653545
          },
          {
            "duration": 0.0625,
            "durationTicks": 48,
            "midi": 73,
            "name": "C#5",
            "ticks": 230112,
            "time": 299.625,
            "velocity": 0.13385826771653545
          },
          {
            "duration": 0.0625,
            "durationTicks": 48,
            "midi": 76,
            "name": "E5",
            "ticks": 230112,
            "time": 299.625,
            "velocity": 0.13385826771653545
          },
          {
            "duration": 0.0625,
            "durationTicks": 48,
            "midi": 76,
            "name": "E5",
            "ticks": 230160,
            "time": 299.6875,
            "velocity": 0.13385826771653545
          },
          {
            "duration": 0.0625,
            "durationTicks": 48,
            "midi": 73,
            "name": "C#5",
            "ticks": 230160,
            "time": 299.6875,
            "velocity": 0.13385826771653545
          },
          {
            "duration": 0.0625,
            "durationTicks": 48,
            "midi": 80,
            "name": "G#5",
            "ticks": 230160,
            "time": 299.6875,
            "velocity": 0.13385826771653545
          },
          {
            "duration": 0.0625,
            "durationTicks": 48,
            "midi": 76,
            "name": "E5",
            "ticks": 230208,
            "time": 299.75,
            "velocity": 0.13385826771653545
          },
          {
            "duration": 0.0625,
            "durationTicks": 48,
            "midi": 73,
            "name": "C#5",
            "ticks": 230208,
            "time": 299.75,
            "velocity": 0.13385826771653545
          },
          {
            "duration": 0.0625,
            "durationTicks": 48,
            "midi": 80,
            "name": "G#5",
            "ticks": 230208,
            "time": 299.75,
            "velocity": 0.13385826771653545
          },
          {
            "duration": 0.0625,
            "durationTicks": 48,
            "midi": 73,
            "name": "C#5",
            "ticks": 230256,
            "time": 299.8125,
            "velocity": 0.13385826771653545
          },
          {
            "duration": 0.0625,
            "durationTicks": 48,
            "midi": 80,
            "name": "G#5",
            "ticks": 230256,
            "time": 299.8125,
            "velocity": 0.13385826771653545
          },
          {
            "duration": 0.0625,
            "durationTicks": 48,
            "midi": 76,
            "name": "E5",
            "ticks": 230256,
            "time": 299.8125,
            "velocity": 0.13385826771653545
          },
          {
            "duration": 0.0625,
            "durationTicks": 48,
            "midi": 76,
            "name": "E5",
            "ticks": 230304,
            "time": 299.875,
            "velocity": 0.13385826771653545
          },
          {
            "duration": 0.0625,
            "durationTicks": 48,
            "midi": 81,
            "name": "A5",
            "ticks": 230304,
            "time": 299.875,
            "velocity": 0.13385826771653545
          },
          {
            "duration": 0.0625,
            "durationTicks": 48,
            "midi": 73,
            "name": "C#5",
            "ticks": 230304,
            "time": 299.875,
            "velocity": 0.13385826771653545
          },
          {
            "duration": 0.0625,
            "durationTicks": 48,
            "midi": 76,
            "name": "E5",
            "ticks": 230352,
            "time": 299.9375,
            "velocity": 0.13385826771653545
          },
          {
            "duration": 0.0625,
            "durationTicks": 48,
            "midi": 73,
            "name": "C#5",
            "ticks": 230352,
            "time": 299.9375,
            "velocity": 0.13385826771653545
          },
          {
            "duration": 0.0625,
            "durationTicks": 48,
            "midi": 81,
            "name": "A5",
            "ticks": 230352,
            "time": 299.9375,
            "velocity": 0.13385826771653545
          },
          {
            "duration": 0.0625,
            "durationTicks": 48,
            "midi": 81,
            "name": "A5",
            "ticks": 230400,
            "time": 300,
            "velocity": 0.13385826771653545
          },
          {
            "duration": 0.0625,
            "durationTicks": 48,
            "midi": 76,
            "name": "E5",
            "ticks": 230400,
            "time": 300,
            "velocity": 0.13385826771653545
          },
          {
            "duration": 0.0625,
            "durationTicks": 48,
            "midi": 73,
            "name": "C#5",
            "ticks": 230400,
            "time": 300,
            "velocity": 0.13385826771653545
          },
          {
            "duration": 0.0625,
            "durationTicks": 48,
            "midi": 76,
            "name": "E5",
            "ticks": 230448,
            "time": 300.0625,
            "velocity": 0.13385826771653545
          },
          {
            "duration": 0.0625,
            "durationTicks": 48,
            "midi": 73,
            "name": "C#5",
            "ticks": 230448,
            "time": 300.0625,
            "velocity": 0.13385826771653545
          },
          {
            "duration": 0.0625,
            "durationTicks": 48,
            "midi": 81,
            "name": "A5",
            "ticks": 230448,
            "time": 300.0625,
            "velocity": 0.13385826771653545
          },
          {
            "duration": 0.0625,
            "durationTicks": 48,
            "midi": 73,
            "name": "C#5",
            "ticks": 230496,
            "time": 300.125,
            "velocity": 0.13385826771653545
          },
          {
            "duration": 0.0625,
            "durationTicks": 48,
            "midi": 76,
            "name": "E5",
            "ticks": 230496,
            "time": 300.125,
            "velocity": 0.13385826771653545
          },
          {
            "duration": 0.0625,
            "durationTicks": 48,
            "midi": 81,
            "name": "A5",
            "ticks": 230496,
            "time": 300.125,
            "velocity": 0.13385826771653545
          },
          {
            "duration": 0.0625,
            "durationTicks": 48,
            "midi": 81,
            "name": "A5",
            "ticks": 230544,
            "time": 300.1875,
            "velocity": 0.13385826771653545
          },
          {
            "duration": 0.0625,
            "durationTicks": 48,
            "midi": 76,
            "name": "E5",
            "ticks": 230544,
            "time": 300.1875,
            "velocity": 0.13385826771653545
          },
          {
            "duration": 0.0625,
            "durationTicks": 48,
            "midi": 73,
            "name": "C#5",
            "ticks": 230544,
            "time": 300.1875,
            "velocity": 0.13385826771653545
          },
          {
            "duration": 0.0625,
            "durationTicks": 48,
            "midi": 76,
            "name": "E5",
            "ticks": 230592,
            "time": 300.25,
            "velocity": 0.13385826771653545
          },
          {
            "duration": 0.0625,
            "durationTicks": 48,
            "midi": 73,
            "name": "C#5",
            "ticks": 230592,
            "time": 300.25,
            "velocity": 0.13385826771653545
          },
          {
            "duration": 0.0625,
            "durationTicks": 48,
            "midi": 81,
            "name": "A5",
            "ticks": 230592,
            "time": 300.25,
            "velocity": 0.13385826771653545
          },
          {
            "duration": 0.0625,
            "durationTicks": 48,
            "midi": 73,
            "name": "C#5",
            "ticks": 230640,
            "time": 300.3125,
            "velocity": 0.13385826771653545
          },
          {
            "duration": 0.0625,
            "durationTicks": 48,
            "midi": 81,
            "name": "A5",
            "ticks": 230640,
            "time": 300.3125,
            "velocity": 0.13385826771653545
          },
          {
            "duration": 0.0625,
            "durationTicks": 48,
            "midi": 76,
            "name": "E5",
            "ticks": 230640,
            "time": 300.3125,
            "velocity": 0.13385826771653545
          },
          {
            "duration": 0.0625,
            "durationTicks": 48,
            "midi": 73,
            "name": "C#5",
            "ticks": 230688,
            "time": 300.375,
            "velocity": 0.13385826771653545
          },
          {
            "duration": 0.0625,
            "durationTicks": 48,
            "midi": 76,
            "name": "E5",
            "ticks": 230688,
            "time": 300.375,
            "velocity": 0.13385826771653545
          },
          {
            "duration": 0.0625,
            "durationTicks": 48,
            "midi": 81,
            "name": "A5",
            "ticks": 230688,
            "time": 300.375,
            "velocity": 0.13385826771653545
          },
          {
            "duration": 0.0625,
            "durationTicks": 48,
            "midi": 76,
            "name": "E5",
            "ticks": 230736,
            "time": 300.4375,
            "velocity": 0.13385826771653545
          },
          {
            "duration": 0.0625,
            "durationTicks": 48,
            "midi": 81,
            "name": "A5",
            "ticks": 230736,
            "time": 300.4375,
            "velocity": 0.13385826771653545
          },
          {
            "duration": 0.0625,
            "durationTicks": 48,
            "midi": 73,
            "name": "C#5",
            "ticks": 230736,
            "time": 300.4375,
            "velocity": 0.13385826771653545
          },
          {
            "duration": 0.0625,
            "durationTicks": 48,
            "midi": 73,
            "name": "C#5",
            "ticks": 230784,
            "time": 300.5,
            "velocity": 0.13385826771653545
          },
          {
            "duration": 0.0625,
            "durationTicks": 48,
            "midi": 81,
            "name": "A5",
            "ticks": 230784,
            "time": 300.5,
            "velocity": 0.13385826771653545
          },
          {
            "duration": 0.0625,
            "durationTicks": 48,
            "midi": 76,
            "name": "E5",
            "ticks": 230784,
            "time": 300.5,
            "velocity": 0.13385826771653545
          },
          {
            "duration": 0.0625,
            "durationTicks": 48,
            "midi": 81,
            "name": "A5",
            "ticks": 230832,
            "time": 300.5625,
            "velocity": 0.13385826771653545
          },
          {
            "duration": 0.0625,
            "durationTicks": 48,
            "midi": 76,
            "name": "E5",
            "ticks": 230832,
            "time": 300.5625,
            "velocity": 0.13385826771653545
          },
          {
            "duration": 0.0625,
            "durationTicks": 48,
            "midi": 73,
            "name": "C#5",
            "ticks": 230832,
            "time": 300.5625,
            "velocity": 0.13385826771653545
          },
          {
            "duration": 0.0625,
            "durationTicks": 48,
            "midi": 76,
            "name": "E5",
            "ticks": 230880,
            "time": 300.625,
            "velocity": 0.13385826771653545
          },
          {
            "duration": 0.0625,
            "durationTicks": 48,
            "midi": 81,
            "name": "A5",
            "ticks": 230880,
            "time": 300.625,
            "velocity": 0.13385826771653545
          },
          {
            "duration": 0.0625,
            "durationTicks": 48,
            "midi": 73,
            "name": "C#5",
            "ticks": 230880,
            "time": 300.625,
            "velocity": 0.13385826771653545
          },
          {
            "duration": 0.0625,
            "durationTicks": 48,
            "midi": 81,
            "name": "A5",
            "ticks": 230928,
            "time": 300.6875,
            "velocity": 0.13385826771653545
          },
          {
            "duration": 0.0625,
            "durationTicks": 48,
            "midi": 76,
            "name": "E5",
            "ticks": 230928,
            "time": 300.6875,
            "velocity": 0.13385826771653545
          },
          {
            "duration": 0.0625,
            "durationTicks": 48,
            "midi": 73,
            "name": "C#5",
            "ticks": 230928,
            "time": 300.6875,
            "velocity": 0.13385826771653545
          },
          {
            "duration": 0.0625,
            "durationTicks": 48,
            "midi": 76,
            "name": "E5",
            "ticks": 230976,
            "time": 300.75,
            "velocity": 0.13385826771653545
          },
          {
            "duration": 0.0625,
            "durationTicks": 48,
            "midi": 81,
            "name": "A5",
            "ticks": 230976,
            "time": 300.75,
            "velocity": 0.13385826771653545
          },
          {
            "duration": 0.0625,
            "durationTicks": 48,
            "midi": 73,
            "name": "C#5",
            "ticks": 230976,
            "time": 300.75,
            "velocity": 0.13385826771653545
          },
          {
            "duration": 0.0625,
            "durationTicks": 48,
            "midi": 76,
            "name": "E5",
            "ticks": 231024,
            "time": 300.8125,
            "velocity": 0.13385826771653545
          },
          {
            "duration": 0.0625,
            "durationTicks": 48,
            "midi": 73,
            "name": "C#5",
            "ticks": 231024,
            "time": 300.8125,
            "velocity": 0.13385826771653545
          },
          {
            "duration": 0.0625,
            "durationTicks": 48,
            "midi": 81,
            "name": "A5",
            "ticks": 231024,
            "time": 300.8125,
            "velocity": 0.13385826771653545
          },
          {
            "duration": 0.0625,
            "durationTicks": 48,
            "midi": 73,
            "name": "C#5",
            "ticks": 231072,
            "time": 300.875,
            "velocity": 0.13385826771653545
          },
          {
            "duration": 0.0625,
            "durationTicks": 48,
            "midi": 81,
            "name": "A5",
            "ticks": 231072,
            "time": 300.875,
            "velocity": 0.13385826771653545
          },
          {
            "duration": 0.0625,
            "durationTicks": 48,
            "midi": 76,
            "name": "E5",
            "ticks": 231072,
            "time": 300.875,
            "velocity": 0.13385826771653545
          },
          {
            "duration": 0.0625,
            "durationTicks": 48,
            "midi": 81,
            "name": "A5",
            "ticks": 231120,
            "time": 300.9375,
            "velocity": 0.13385826771653545
          },
          {
            "duration": 0.0625,
            "durationTicks": 48,
            "midi": 73,
            "name": "C#5",
            "ticks": 231120,
            "time": 300.9375,
            "velocity": 0.13385826771653545
          },
          {
            "duration": 0.0625,
            "durationTicks": 48,
            "midi": 76,
            "name": "E5",
            "ticks": 231120,
            "time": 300.9375,
            "velocity": 0.13385826771653545
          },
          {
            "duration": 0.0625,
            "durationTicks": 48,
            "midi": 81,
            "name": "A5",
            "ticks": 231168,
            "time": 301,
            "velocity": 0.13385826771653545
          },
          {
            "duration": 0.0625,
            "durationTicks": 48,
            "midi": 73,
            "name": "C#5",
            "ticks": 231168,
            "time": 301,
            "velocity": 0.13385826771653545
          },
          {
            "duration": 0.0625,
            "durationTicks": 48,
            "midi": 76,
            "name": "E5",
            "ticks": 231168,
            "time": 301,
            "velocity": 0.13385826771653545
          },
          {
            "duration": 0.0625,
            "durationTicks": 48,
            "midi": 76,
            "name": "E5",
            "ticks": 231216,
            "time": 301.0625,
            "velocity": 0.13385826771653545
          },
          {
            "duration": 0.0625,
            "durationTicks": 48,
            "midi": 81,
            "name": "A5",
            "ticks": 231216,
            "time": 301.0625,
            "velocity": 0.13385826771653545
          },
          {
            "duration": 0.0625,
            "durationTicks": 48,
            "midi": 73,
            "name": "C#5",
            "ticks": 231216,
            "time": 301.0625,
            "velocity": 0.13385826771653545
          },
          {
            "duration": 0.0625,
            "durationTicks": 48,
            "midi": 81,
            "name": "A5",
            "ticks": 231264,
            "time": 301.125,
            "velocity": 0.13385826771653545
          },
          {
            "duration": 0.0625,
            "durationTicks": 48,
            "midi": 73,
            "name": "C#5",
            "ticks": 231264,
            "time": 301.125,
            "velocity": 0.13385826771653545
          },
          {
            "duration": 0.0625,
            "durationTicks": 48,
            "midi": 76,
            "name": "E5",
            "ticks": 231264,
            "time": 301.125,
            "velocity": 0.13385826771653545
          },
          {
            "duration": 0.0625,
            "durationTicks": 48,
            "midi": 76,
            "name": "E5",
            "ticks": 231312,
            "time": 301.1875,
            "velocity": 0.13385826771653545
          },
          {
            "duration": 0.0625,
            "durationTicks": 48,
            "midi": 81,
            "name": "A5",
            "ticks": 231312,
            "time": 301.1875,
            "velocity": 0.13385826771653545
          },
          {
            "duration": 0.0625,
            "durationTicks": 48,
            "midi": 73,
            "name": "C#5",
            "ticks": 231312,
            "time": 301.1875,
            "velocity": 0.13385826771653545
          },
          {
            "duration": 0.0625,
            "durationTicks": 48,
            "midi": 81,
            "name": "A5",
            "ticks": 231360,
            "time": 301.25,
            "velocity": 0.13385826771653545
          },
          {
            "duration": 0.0625,
            "durationTicks": 48,
            "midi": 73,
            "name": "C#5",
            "ticks": 231360,
            "time": 301.25,
            "velocity": 0.13385826771653545
          },
          {
            "duration": 0.0625,
            "durationTicks": 48,
            "midi": 76,
            "name": "E5",
            "ticks": 231360,
            "time": 301.25,
            "velocity": 0.13385826771653545
          },
          {
            "duration": 0.0625,
            "durationTicks": 48,
            "midi": 76,
            "name": "E5",
            "ticks": 231408,
            "time": 301.3125,
            "velocity": 0.13385826771653545
          },
          {
            "duration": 0.0625,
            "durationTicks": 48,
            "midi": 73,
            "name": "C#5",
            "ticks": 231408,
            "time": 301.3125,
            "velocity": 0.13385826771653545
          },
          {
            "duration": 0.0625,
            "durationTicks": 48,
            "midi": 81,
            "name": "A5",
            "ticks": 231408,
            "time": 301.3125,
            "velocity": 0.13385826771653545
          },
          {
            "duration": 0.0625,
            "durationTicks": 48,
            "midi": 76,
            "name": "E5",
            "ticks": 231456,
            "time": 301.375,
            "velocity": 0.13385826771653545
          },
          {
            "duration": 0.0625,
            "durationTicks": 48,
            "midi": 73,
            "name": "C#5",
            "ticks": 231456,
            "time": 301.375,
            "velocity": 0.13385826771653545
          },
          {
            "duration": 0.0625,
            "durationTicks": 48,
            "midi": 81,
            "name": "A5",
            "ticks": 231456,
            "time": 301.375,
            "velocity": 0.13385826771653545
          },
          {
            "duration": 0.0625,
            "durationTicks": 48,
            "midi": 73,
            "name": "C#5",
            "ticks": 231504,
            "time": 301.4375,
            "velocity": 0.13385826771653545
          },
          {
            "duration": 0.0625,
            "durationTicks": 48,
            "midi": 81,
            "name": "A5",
            "ticks": 231504,
            "time": 301.4375,
            "velocity": 0.13385826771653545
          },
          {
            "duration": 0.0625,
            "durationTicks": 48,
            "midi": 76,
            "name": "E5",
            "ticks": 231504,
            "time": 301.4375,
            "velocity": 0.13385826771653545
          },
          {
            "duration": 0.0625,
            "durationTicks": 48,
            "midi": 81,
            "name": "A5",
            "ticks": 231552,
            "time": 301.5,
            "velocity": 0.13385826771653545
          },
          {
            "duration": 0.0625,
            "durationTicks": 48,
            "midi": 73,
            "name": "C#5",
            "ticks": 231552,
            "time": 301.5,
            "velocity": 0.13385826771653545
          },
          {
            "duration": 0.0625,
            "durationTicks": 48,
            "midi": 76,
            "name": "E5",
            "ticks": 231552,
            "time": 301.5,
            "velocity": 0.13385826771653545
          },
          {
            "duration": 0.0625,
            "durationTicks": 48,
            "midi": 76,
            "name": "E5",
            "ticks": 231600,
            "time": 301.5625,
            "velocity": 0.13385826771653545
          },
          {
            "duration": 0.0625,
            "durationTicks": 48,
            "midi": 81,
            "name": "A5",
            "ticks": 231600,
            "time": 301.5625,
            "velocity": 0.13385826771653545
          },
          {
            "duration": 0.0625,
            "durationTicks": 48,
            "midi": 73,
            "name": "C#5",
            "ticks": 231600,
            "time": 301.5625,
            "velocity": 0.13385826771653545
          },
          {
            "duration": 0.0625,
            "durationTicks": 48,
            "midi": 76,
            "name": "E5",
            "ticks": 231648,
            "time": 301.625,
            "velocity": 0.13385826771653545
          },
          {
            "duration": 0.0625,
            "durationTicks": 48,
            "midi": 73,
            "name": "C#5",
            "ticks": 231648,
            "time": 301.625,
            "velocity": 0.13385826771653545
          },
          {
            "duration": 0.0625,
            "durationTicks": 48,
            "midi": 81,
            "name": "A5",
            "ticks": 231648,
            "time": 301.625,
            "velocity": 0.13385826771653545
          },
          {
            "duration": 0.0625,
            "durationTicks": 48,
            "midi": 81,
            "name": "A5",
            "ticks": 231696,
            "time": 301.6875,
            "velocity": 0.13385826771653545
          },
          {
            "duration": 0.0625,
            "durationTicks": 48,
            "midi": 73,
            "name": "C#5",
            "ticks": 231696,
            "time": 301.6875,
            "velocity": 0.13385826771653545
          },
          {
            "duration": 0.0625,
            "durationTicks": 48,
            "midi": 76,
            "name": "E5",
            "ticks": 231696,
            "time": 301.6875,
            "velocity": 0.13385826771653545
          },
          {
            "duration": 0.0625,
            "durationTicks": 48,
            "midi": 73,
            "name": "C#5",
            "ticks": 231744,
            "time": 301.75,
            "velocity": 0.13385826771653545
          },
          {
            "duration": 0.0625,
            "durationTicks": 48,
            "midi": 76,
            "name": "E5",
            "ticks": 231744,
            "time": 301.75,
            "velocity": 0.13385826771653545
          },
          {
            "duration": 0.0625,
            "durationTicks": 48,
            "midi": 81,
            "name": "A5",
            "ticks": 231744,
            "time": 301.75,
            "velocity": 0.13385826771653545
          },
          {
            "duration": 0.0625,
            "durationTicks": 48,
            "midi": 73,
            "name": "C#5",
            "ticks": 231792,
            "time": 301.8125,
            "velocity": 0.13385826771653545
          },
          {
            "duration": 0.0625,
            "durationTicks": 48,
            "midi": 76,
            "name": "E5",
            "ticks": 231792,
            "time": 301.8125,
            "velocity": 0.13385826771653545
          },
          {
            "duration": 0.0625,
            "durationTicks": 48,
            "midi": 81,
            "name": "A5",
            "ticks": 231792,
            "time": 301.8125,
            "velocity": 0.13385826771653545
          },
          {
            "duration": 0.0625,
            "durationTicks": 48,
            "midi": 71,
            "name": "B4",
            "ticks": 231840,
            "time": 301.875,
            "velocity": 0.13385826771653545
          },
          {
            "duration": 0.0625,
            "durationTicks": 48,
            "midi": 78,
            "name": "F#5",
            "ticks": 231840,
            "time": 301.875,
            "velocity": 0.13385826771653545
          },
          {
            "duration": 0.0625,
            "durationTicks": 48,
            "midi": 75,
            "name": "D#5",
            "ticks": 231840,
            "time": 301.875,
            "velocity": 0.13385826771653545
          },
          {
            "duration": 0.0625,
            "durationTicks": 48,
            "midi": 75,
            "name": "D#5",
            "ticks": 231888,
            "time": 301.9375,
            "velocity": 0.13385826771653545
          },
          {
            "duration": 0.0625,
            "durationTicks": 48,
            "midi": 71,
            "name": "B4",
            "ticks": 231888,
            "time": 301.9375,
            "velocity": 0.13385826771653545
          },
          {
            "duration": 0.0625,
            "durationTicks": 48,
            "midi": 78,
            "name": "F#5",
            "ticks": 231888,
            "time": 301.9375,
            "velocity": 0.13385826771653545
          },
          {
            "duration": 0.0625,
            "durationTicks": 48,
            "midi": 71,
            "name": "B4",
            "ticks": 231936,
            "time": 302,
            "velocity": 0.13385826771653545
          },
          {
            "duration": 0.0625,
            "durationTicks": 48,
            "midi": 75,
            "name": "D#5",
            "ticks": 231936,
            "time": 302,
            "velocity": 0.13385826771653545
          },
          {
            "duration": 0.0625,
            "durationTicks": 48,
            "midi": 78,
            "name": "F#5",
            "ticks": 231936,
            "time": 302,
            "velocity": 0.13385826771653545
          },
          {
            "duration": 0.0625,
            "durationTicks": 48,
            "midi": 75,
            "name": "D#5",
            "ticks": 231984,
            "time": 302.0625,
            "velocity": 0.13385826771653545
          },
          {
            "duration": 0.0625,
            "durationTicks": 48,
            "midi": 78,
            "name": "F#5",
            "ticks": 231984,
            "time": 302.0625,
            "velocity": 0.13385826771653545
          },
          {
            "duration": 0.0625,
            "durationTicks": 48,
            "midi": 71,
            "name": "B4",
            "ticks": 231984,
            "time": 302.0625,
            "velocity": 0.13385826771653545
          },
          {
            "duration": 0.0625,
            "durationTicks": 48,
            "midi": 75,
            "name": "D#5",
            "ticks": 232032,
            "time": 302.125,
            "velocity": 0.13385826771653545
          },
          {
            "duration": 0.0625,
            "durationTicks": 48,
            "midi": 71,
            "name": "B4",
            "ticks": 232032,
            "time": 302.125,
            "velocity": 0.13385826771653545
          },
          {
            "duration": 0.0625,
            "durationTicks": 48,
            "midi": 78,
            "name": "F#5",
            "ticks": 232032,
            "time": 302.125,
            "velocity": 0.13385826771653545
          },
          {
            "duration": 0.0625,
            "durationTicks": 48,
            "midi": 71,
            "name": "B4",
            "ticks": 232080,
            "time": 302.1875,
            "velocity": 0.13385826771653545
          },
          {
            "duration": 0.0625,
            "durationTicks": 48,
            "midi": 75,
            "name": "D#5",
            "ticks": 232080,
            "time": 302.1875,
            "velocity": 0.13385826771653545
          },
          {
            "duration": 0.0625,
            "durationTicks": 48,
            "midi": 78,
            "name": "F#5",
            "ticks": 232080,
            "time": 302.1875,
            "velocity": 0.13385826771653545
          },
          {
            "duration": 0.0625,
            "durationTicks": 48,
            "midi": 78,
            "name": "F#5",
            "ticks": 232128,
            "time": 302.25,
            "velocity": 0.13385826771653545
          },
          {
            "duration": 0.0625,
            "durationTicks": 48,
            "midi": 75,
            "name": "D#5",
            "ticks": 232128,
            "time": 302.25,
            "velocity": 0.13385826771653545
          },
          {
            "duration": 0.0625,
            "durationTicks": 48,
            "midi": 71,
            "name": "B4",
            "ticks": 232128,
            "time": 302.25,
            "velocity": 0.13385826771653545
          },
          {
            "duration": 0.0625,
            "durationTicks": 48,
            "midi": 75,
            "name": "D#5",
            "ticks": 232176,
            "time": 302.3125,
            "velocity": 0.13385826771653545
          },
          {
            "duration": 0.0625,
            "durationTicks": 48,
            "midi": 71,
            "name": "B4",
            "ticks": 232176,
            "time": 302.3125,
            "velocity": 0.13385826771653545
          },
          {
            "duration": 0.0625,
            "durationTicks": 48,
            "midi": 78,
            "name": "F#5",
            "ticks": 232176,
            "time": 302.3125,
            "velocity": 0.13385826771653545
          },
          {
            "duration": 0.0625,
            "durationTicks": 48,
            "midi": 78,
            "name": "F#5",
            "ticks": 232224,
            "time": 302.375,
            "velocity": 0.13385826771653545
          },
          {
            "duration": 0.0625,
            "durationTicks": 48,
            "midi": 75,
            "name": "D#5",
            "ticks": 232224,
            "time": 302.375,
            "velocity": 0.13385826771653545
          },
          {
            "duration": 0.0625,
            "durationTicks": 48,
            "midi": 71,
            "name": "B4",
            "ticks": 232224,
            "time": 302.375,
            "velocity": 0.13385826771653545
          },
          {
            "duration": 0.0625,
            "durationTicks": 48,
            "midi": 78,
            "name": "F#5",
            "ticks": 232272,
            "time": 302.4375,
            "velocity": 0.13385826771653545
          },
          {
            "duration": 0.0625,
            "durationTicks": 48,
            "midi": 75,
            "name": "D#5",
            "ticks": 232272,
            "time": 302.4375,
            "velocity": 0.13385826771653545
          },
          {
            "duration": 0.0625,
            "durationTicks": 48,
            "midi": 71,
            "name": "B4",
            "ticks": 232272,
            "time": 302.4375,
            "velocity": 0.13385826771653545
          },
          {
            "duration": 0.0625,
            "durationTicks": 48,
            "midi": 78,
            "name": "F#5",
            "ticks": 232320,
            "time": 302.5,
            "velocity": 0.13385826771653545
          },
          {
            "duration": 0.0625,
            "durationTicks": 48,
            "midi": 71,
            "name": "B4",
            "ticks": 232320,
            "time": 302.5,
            "velocity": 0.13385826771653545
          },
          {
            "duration": 0.0625,
            "durationTicks": 48,
            "midi": 75,
            "name": "D#5",
            "ticks": 232320,
            "time": 302.5,
            "velocity": 0.13385826771653545
          },
          {
            "duration": 0.0625,
            "durationTicks": 48,
            "midi": 75,
            "name": "D#5",
            "ticks": 232368,
            "time": 302.5625,
            "velocity": 0.13385826771653545
          },
          {
            "duration": 0.0625,
            "durationTicks": 48,
            "midi": 71,
            "name": "B4",
            "ticks": 232368,
            "time": 302.5625,
            "velocity": 0.13385826771653545
          },
          {
            "duration": 0.0625,
            "durationTicks": 48,
            "midi": 78,
            "name": "F#5",
            "ticks": 232368,
            "time": 302.5625,
            "velocity": 0.13385826771653545
          },
          {
            "duration": 0.0625,
            "durationTicks": 48,
            "midi": 78,
            "name": "F#5",
            "ticks": 232416,
            "time": 302.625,
            "velocity": 0.13385826771653545
          },
          {
            "duration": 0.0625,
            "durationTicks": 48,
            "midi": 75,
            "name": "D#5",
            "ticks": 232416,
            "time": 302.625,
            "velocity": 0.13385826771653545
          },
          {
            "duration": 0.0625,
            "durationTicks": 48,
            "midi": 71,
            "name": "B4",
            "ticks": 232416,
            "time": 302.625,
            "velocity": 0.13385826771653545
          },
          {
            "duration": 0.0625,
            "durationTicks": 48,
            "midi": 71,
            "name": "B4",
            "ticks": 232464,
            "time": 302.6875,
            "velocity": 0.13385826771653545
          },
          {
            "duration": 0.0625,
            "durationTicks": 48,
            "midi": 78,
            "name": "F#5",
            "ticks": 232464,
            "time": 302.6875,
            "velocity": 0.13385826771653545
          },
          {
            "duration": 0.0625,
            "durationTicks": 48,
            "midi": 75,
            "name": "D#5",
            "ticks": 232464,
            "time": 302.6875,
            "velocity": 0.13385826771653545
          },
          {
            "duration": 0.0625,
            "durationTicks": 48,
            "midi": 75,
            "name": "D#5",
            "ticks": 232512,
            "time": 302.75,
            "velocity": 0.13385826771653545
          },
          {
            "duration": 0.0625,
            "durationTicks": 48,
            "midi": 71,
            "name": "B4",
            "ticks": 232512,
            "time": 302.75,
            "velocity": 0.13385826771653545
          },
          {
            "duration": 0.0625,
            "durationTicks": 48,
            "midi": 78,
            "name": "F#5",
            "ticks": 232512,
            "time": 302.75,
            "velocity": 0.13385826771653545
          },
          {
            "duration": 0.0625,
            "durationTicks": 48,
            "midi": 75,
            "name": "D#5",
            "ticks": 232560,
            "time": 302.8125,
            "velocity": 0.13385826771653545
          },
          {
            "duration": 0.0625,
            "durationTicks": 48,
            "midi": 71,
            "name": "B4",
            "ticks": 232560,
            "time": 302.8125,
            "velocity": 0.13385826771653545
          },
          {
            "duration": 0.0625,
            "durationTicks": 48,
            "midi": 78,
            "name": "F#5",
            "ticks": 232560,
            "time": 302.8125,
            "velocity": 0.13385826771653545
          },
          {
            "duration": 0.0625,
            "durationTicks": 48,
            "midi": 75,
            "name": "D#5",
            "ticks": 232608,
            "time": 302.875,
            "velocity": 0.13385826771653545
          },
          {
            "duration": 0.0625,
            "durationTicks": 48,
            "midi": 78,
            "name": "F#5",
            "ticks": 232608,
            "time": 302.875,
            "velocity": 0.13385826771653545
          },
          {
            "duration": 0.0625,
            "durationTicks": 48,
            "midi": 71,
            "name": "B4",
            "ticks": 232608,
            "time": 302.875,
            "velocity": 0.13385826771653545
          },
          {
            "duration": 0.0625,
            "durationTicks": 48,
            "midi": 71,
            "name": "B4",
            "ticks": 232656,
            "time": 302.9375,
            "velocity": 0.13385826771653545
          },
          {
            "duration": 0.0625,
            "durationTicks": 48,
            "midi": 75,
            "name": "D#5",
            "ticks": 232656,
            "time": 302.9375,
            "velocity": 0.13385826771653545
          },
          {
            "duration": 0.0625,
            "durationTicks": 48,
            "midi": 78,
            "name": "F#5",
            "ticks": 232656,
            "time": 302.9375,
            "velocity": 0.13385826771653545
          },
          {
            "duration": 0.0625,
            "durationTicks": 48,
            "midi": 75,
            "name": "D#5",
            "ticks": 232704,
            "time": 303,
            "velocity": 0.13385826771653545
          },
          {
            "duration": 0.0625,
            "durationTicks": 48,
            "midi": 78,
            "name": "F#5",
            "ticks": 232704,
            "time": 303,
            "velocity": 0.13385826771653545
          },
          {
            "duration": 0.0625,
            "durationTicks": 48,
            "midi": 71,
            "name": "B4",
            "ticks": 232704,
            "time": 303,
            "velocity": 0.13385826771653545
          },
          {
            "duration": 0.0625,
            "durationTicks": 48,
            "midi": 75,
            "name": "D#5",
            "ticks": 232752,
            "time": 303.0625,
            "velocity": 0.13385826771653545
          },
          {
            "duration": 0.0625,
            "durationTicks": 48,
            "midi": 78,
            "name": "F#5",
            "ticks": 232752,
            "time": 303.0625,
            "velocity": 0.13385826771653545
          },
          {
            "duration": 0.0625,
            "durationTicks": 48,
            "midi": 71,
            "name": "B4",
            "ticks": 232752,
            "time": 303.0625,
            "velocity": 0.13385826771653545
          },
          {
            "duration": 0.0625,
            "durationTicks": 48,
            "midi": 75,
            "name": "D#5",
            "ticks": 232800,
            "time": 303.125,
            "velocity": 0.13385826771653545
          },
          {
            "duration": 0.0625,
            "durationTicks": 48,
            "midi": 71,
            "name": "B4",
            "ticks": 232800,
            "time": 303.125,
            "velocity": 0.13385826771653545
          },
          {
            "duration": 0.0625,
            "durationTicks": 48,
            "midi": 78,
            "name": "F#5",
            "ticks": 232800,
            "time": 303.125,
            "velocity": 0.13385826771653545
          },
          {
            "duration": 0.0625,
            "durationTicks": 48,
            "midi": 78,
            "name": "F#5",
            "ticks": 232848,
            "time": 303.1875,
            "velocity": 0.13385826771653545
          },
          {
            "duration": 0.0625,
            "durationTicks": 48,
            "midi": 71,
            "name": "B4",
            "ticks": 232848,
            "time": 303.1875,
            "velocity": 0.13385826771653545
          },
          {
            "duration": 0.0625,
            "durationTicks": 48,
            "midi": 75,
            "name": "D#5",
            "ticks": 232848,
            "time": 303.1875,
            "velocity": 0.13385826771653545
          },
          {
            "duration": 0.0625,
            "durationTicks": 48,
            "midi": 75,
            "name": "D#5",
            "ticks": 232896,
            "time": 303.25,
            "velocity": 0.13385826771653545
          },
          {
            "duration": 0.0625,
            "durationTicks": 48,
            "midi": 71,
            "name": "B4",
            "ticks": 232896,
            "time": 303.25,
            "velocity": 0.13385826771653545
          },
          {
            "duration": 0.0625,
            "durationTicks": 48,
            "midi": 78,
            "name": "F#5",
            "ticks": 232896,
            "time": 303.25,
            "velocity": 0.13385826771653545
          },
          {
            "duration": 0.0625,
            "durationTicks": 48,
            "midi": 71,
            "name": "B4",
            "ticks": 232944,
            "time": 303.3125,
            "velocity": 0.13385826771653545
          },
          {
            "duration": 0.0625,
            "durationTicks": 48,
            "midi": 78,
            "name": "F#5",
            "ticks": 232944,
            "time": 303.3125,
            "velocity": 0.13385826771653545
          },
          {
            "duration": 0.0625,
            "durationTicks": 48,
            "midi": 75,
            "name": "D#5",
            "ticks": 232944,
            "time": 303.3125,
            "velocity": 0.13385826771653545
          },
          {
            "duration": 0.0625,
            "durationTicks": 48,
            "midi": 78,
            "name": "F#5",
            "ticks": 232992,
            "time": 303.375,
            "velocity": 0.13385826771653545
          },
          {
            "duration": 0.0625,
            "durationTicks": 48,
            "midi": 75,
            "name": "D#5",
            "ticks": 232992,
            "time": 303.375,
            "velocity": 0.13385826771653545
          },
          {
            "duration": 0.0625,
            "durationTicks": 48,
            "midi": 71,
            "name": "B4",
            "ticks": 232992,
            "time": 303.375,
            "velocity": 0.13385826771653545
          },
          {
            "duration": 0.0625,
            "durationTicks": 48,
            "midi": 71,
            "name": "B4",
            "ticks": 233040,
            "time": 303.4375,
            "velocity": 0.13385826771653545
          },
          {
            "duration": 0.0625,
            "durationTicks": 48,
            "midi": 78,
            "name": "F#5",
            "ticks": 233040,
            "time": 303.4375,
            "velocity": 0.13385826771653545
          },
          {
            "duration": 0.0625,
            "durationTicks": 48,
            "midi": 75,
            "name": "D#5",
            "ticks": 233040,
            "time": 303.4375,
            "velocity": 0.13385826771653545
          },
          {
            "duration": 0.0625,
            "durationTicks": 48,
            "midi": 71,
            "name": "B4",
            "ticks": 233088,
            "time": 303.5,
            "velocity": 0.13385826771653545
          },
          {
            "duration": 0.0625,
            "durationTicks": 48,
            "midi": 78,
            "name": "F#5",
            "ticks": 233088,
            "time": 303.5,
            "velocity": 0.13385826771653545
          },
          {
            "duration": 0.0625,
            "durationTicks": 48,
            "midi": 75,
            "name": "D#5",
            "ticks": 233088,
            "time": 303.5,
            "velocity": 0.13385826771653545
          },
          {
            "duration": 0.0625,
            "durationTicks": 48,
            "midi": 75,
            "name": "D#5",
            "ticks": 233136,
            "time": 303.5625,
            "velocity": 0.13385826771653545
          },
          {
            "duration": 0.0625,
            "durationTicks": 48,
            "midi": 78,
            "name": "F#5",
            "ticks": 233136,
            "time": 303.5625,
            "velocity": 0.13385826771653545
          },
          {
            "duration": 0.0625,
            "durationTicks": 48,
            "midi": 71,
            "name": "B4",
            "ticks": 233136,
            "time": 303.5625,
            "velocity": 0.13385826771653545
          },
          {
            "duration": 0.0625,
            "durationTicks": 48,
            "midi": 75,
            "name": "D#5",
            "ticks": 233184,
            "time": 303.625,
            "velocity": 0.13385826771653545
          },
          {
            "duration": 0.0625,
            "durationTicks": 48,
            "midi": 78,
            "name": "F#5",
            "ticks": 233184,
            "time": 303.625,
            "velocity": 0.13385826771653545
          },
          {
            "duration": 0.0625,
            "durationTicks": 48,
            "midi": 71,
            "name": "B4",
            "ticks": 233184,
            "time": 303.625,
            "velocity": 0.13385826771653545
          },
          {
            "duration": 0.0625,
            "durationTicks": 48,
            "midi": 78,
            "name": "F#5",
            "ticks": 233232,
            "time": 303.6875,
            "velocity": 0.13385826771653545
          },
          {
            "duration": 0.0625,
            "durationTicks": 48,
            "midi": 71,
            "name": "B4",
            "ticks": 233232,
            "time": 303.6875,
            "velocity": 0.13385826771653545
          },
          {
            "duration": 0.0625,
            "durationTicks": 48,
            "midi": 75,
            "name": "D#5",
            "ticks": 233232,
            "time": 303.6875,
            "velocity": 0.13385826771653545
          },
          {
            "duration": 0.0625,
            "durationTicks": 48,
            "midi": 71,
            "name": "B4",
            "ticks": 233280,
            "time": 303.75,
            "velocity": 0.13385826771653545
          },
          {
            "duration": 0.0625,
            "durationTicks": 48,
            "midi": 75,
            "name": "D#5",
            "ticks": 233280,
            "time": 303.75,
            "velocity": 0.13385826771653545
          },
          {
            "duration": 0.0625,
            "durationTicks": 48,
            "midi": 78,
            "name": "F#5",
            "ticks": 233280,
            "time": 303.75,
            "velocity": 0.13385826771653545
          },
          {
            "duration": 0.0625,
            "durationTicks": 48,
            "midi": 71,
            "name": "B4",
            "ticks": 233328,
            "time": 303.8125,
            "velocity": 0.13385826771653545
          },
          {
            "duration": 0.0625,
            "durationTicks": 48,
            "midi": 78,
            "name": "F#5",
            "ticks": 233328,
            "time": 303.8125,
            "velocity": 0.13385826771653545
          },
          {
            "duration": 0.0625,
            "durationTicks": 48,
            "midi": 75,
            "name": "D#5",
            "ticks": 233328,
            "time": 303.8125,
            "velocity": 0.13385826771653545
          },
          {
            "duration": 0.0625,
            "durationTicks": 48,
            "midi": 73,
            "name": "C#5",
            "ticks": 233376,
            "time": 303.875,
            "velocity": 0.13385826771653545
          },
          {
            "duration": 0.0625,
            "durationTicks": 48,
            "midi": 70,
            "name": "A#4",
            "ticks": 233376,
            "time": 303.875,
            "velocity": 0.13385826771653545
          },
          {
            "duration": 0.0625,
            "durationTicks": 48,
            "midi": 78,
            "name": "F#5",
            "ticks": 233376,
            "time": 303.875,
            "velocity": 0.13385826771653545
          },
          {
            "duration": 0.0625,
            "durationTicks": 48,
            "midi": 78,
            "name": "F#5",
            "ticks": 233424,
            "time": 303.9375,
            "velocity": 0.13385826771653545
          },
          {
            "duration": 0.0625,
            "durationTicks": 48,
            "midi": 73,
            "name": "C#5",
            "ticks": 233424,
            "time": 303.9375,
            "velocity": 0.13385826771653545
          },
          {
            "duration": 0.0625,
            "durationTicks": 48,
            "midi": 70,
            "name": "A#4",
            "ticks": 233424,
            "time": 303.9375,
            "velocity": 0.13385826771653545
          },
          {
            "duration": 0.0625,
            "durationTicks": 48,
            "midi": 73,
            "name": "C#5",
            "ticks": 233472,
            "time": 304,
            "velocity": 0.13385826771653545
          },
          {
            "duration": 0.0625,
            "durationTicks": 48,
            "midi": 78,
            "name": "F#5",
            "ticks": 233472,
            "time": 304,
            "velocity": 0.13385826771653545
          },
          {
            "duration": 0.0625,
            "durationTicks": 48,
            "midi": 70,
            "name": "A#4",
            "ticks": 233472,
            "time": 304,
            "velocity": 0.13385826771653545
          },
          {
            "duration": 0.0625,
            "durationTicks": 48,
            "midi": 78,
            "name": "F#5",
            "ticks": 233520,
            "time": 304.0625,
            "velocity": 0.13385826771653545
          },
          {
            "duration": 0.0625,
            "durationTicks": 48,
            "midi": 70,
            "name": "A#4",
            "ticks": 233520,
            "time": 304.0625,
            "velocity": 0.13385826771653545
          },
          {
            "duration": 0.0625,
            "durationTicks": 48,
            "midi": 73,
            "name": "C#5",
            "ticks": 233520,
            "time": 304.0625,
            "velocity": 0.13385826771653545
          },
          {
            "duration": 0.0625,
            "durationTicks": 48,
            "midi": 73,
            "name": "C#5",
            "ticks": 233568,
            "time": 304.125,
            "velocity": 0.13385826771653545
          },
          {
            "duration": 0.0625,
            "durationTicks": 48,
            "midi": 70,
            "name": "A#4",
            "ticks": 233568,
            "time": 304.125,
            "velocity": 0.13385826771653545
          },
          {
            "duration": 0.0625,
            "durationTicks": 48,
            "midi": 78,
            "name": "F#5",
            "ticks": 233568,
            "time": 304.125,
            "velocity": 0.13385826771653545
          },
          {
            "duration": 0.0625,
            "durationTicks": 48,
            "midi": 73,
            "name": "C#5",
            "ticks": 233616,
            "time": 304.1875,
            "velocity": 0.13385826771653545
          },
          {
            "duration": 0.0625,
            "durationTicks": 48,
            "midi": 78,
            "name": "F#5",
            "ticks": 233616,
            "time": 304.1875,
            "velocity": 0.13385826771653545
          },
          {
            "duration": 0.0625,
            "durationTicks": 48,
            "midi": 70,
            "name": "A#4",
            "ticks": 233616,
            "time": 304.1875,
            "velocity": 0.13385826771653545
          },
          {
            "duration": 0.0625,
            "durationTicks": 48,
            "midi": 73,
            "name": "C#5",
            "ticks": 233664,
            "time": 304.25,
            "velocity": 0.13385826771653545
          },
          {
            "duration": 0.0625,
            "durationTicks": 48,
            "midi": 70,
            "name": "A#4",
            "ticks": 233664,
            "time": 304.25,
            "velocity": 0.13385826771653545
          },
          {
            "duration": 0.0625,
            "durationTicks": 48,
            "midi": 78,
            "name": "F#5",
            "ticks": 233664,
            "time": 304.25,
            "velocity": 0.13385826771653545
          },
          {
            "duration": 0.0625,
            "durationTicks": 48,
            "midi": 70,
            "name": "A#4",
            "ticks": 233712,
            "time": 304.3125,
            "velocity": 0.13385826771653545
          },
          {
            "duration": 0.0625,
            "durationTicks": 48,
            "midi": 73,
            "name": "C#5",
            "ticks": 233712,
            "time": 304.3125,
            "velocity": 0.13385826771653545
          },
          {
            "duration": 0.0625,
            "durationTicks": 48,
            "midi": 78,
            "name": "F#5",
            "ticks": 233712,
            "time": 304.3125,
            "velocity": 0.13385826771653545
          },
          {
            "duration": 0.0625,
            "durationTicks": 48,
            "midi": 78,
            "name": "F#5",
            "ticks": 233760,
            "time": 304.375,
            "velocity": 0.13385826771653545
          },
          {
            "duration": 0.0625,
            "durationTicks": 48,
            "midi": 73,
            "name": "C#5",
            "ticks": 233760,
            "time": 304.375,
            "velocity": 0.13385826771653545
          },
          {
            "duration": 0.0625,
            "durationTicks": 48,
            "midi": 70,
            "name": "A#4",
            "ticks": 233760,
            "time": 304.375,
            "velocity": 0.13385826771653545
          },
          {
            "duration": 0.0625,
            "durationTicks": 48,
            "midi": 73,
            "name": "C#5",
            "ticks": 233808,
            "time": 304.4375,
            "velocity": 0.13385826771653545
          },
          {
            "duration": 0.0625,
            "durationTicks": 48,
            "midi": 70,
            "name": "A#4",
            "ticks": 233808,
            "time": 304.4375,
            "velocity": 0.13385826771653545
          },
          {
            "duration": 0.0625,
            "durationTicks": 48,
            "midi": 78,
            "name": "F#5",
            "ticks": 233808,
            "time": 304.4375,
            "velocity": 0.13385826771653545
          },
          {
            "duration": 0.0625,
            "durationTicks": 48,
            "midi": 70,
            "name": "A#4",
            "ticks": 233856,
            "time": 304.5,
            "velocity": 0.13385826771653545
          },
          {
            "duration": 0.0625,
            "durationTicks": 48,
            "midi": 73,
            "name": "C#5",
            "ticks": 233856,
            "time": 304.5,
            "velocity": 0.13385826771653545
          },
          {
            "duration": 0.0625,
            "durationTicks": 48,
            "midi": 78,
            "name": "F#5",
            "ticks": 233856,
            "time": 304.5,
            "velocity": 0.13385826771653545
          },
          {
            "duration": 0.0625,
            "durationTicks": 48,
            "midi": 73,
            "name": "C#5",
            "ticks": 233904,
            "time": 304.5625,
            "velocity": 0.13385826771653545
          },
          {
            "duration": 0.0625,
            "durationTicks": 48,
            "midi": 78,
            "name": "F#5",
            "ticks": 233904,
            "time": 304.5625,
            "velocity": 0.13385826771653545
          },
          {
            "duration": 0.0625,
            "durationTicks": 48,
            "midi": 70,
            "name": "A#4",
            "ticks": 233904,
            "time": 304.5625,
            "velocity": 0.13385826771653545
          },
          {
            "duration": 0.0625,
            "durationTicks": 48,
            "midi": 73,
            "name": "C#5",
            "ticks": 233952,
            "time": 304.625,
            "velocity": 0.13385826771653545
          },
          {
            "duration": 0.0625,
            "durationTicks": 48,
            "midi": 78,
            "name": "F#5",
            "ticks": 233952,
            "time": 304.625,
            "velocity": 0.13385826771653545
          },
          {
            "duration": 0.0625,
            "durationTicks": 48,
            "midi": 70,
            "name": "A#4",
            "ticks": 233952,
            "time": 304.625,
            "velocity": 0.13385826771653545
          },
          {
            "duration": 0.0625,
            "durationTicks": 48,
            "midi": 70,
            "name": "A#4",
            "ticks": 234000,
            "time": 304.6875,
            "velocity": 0.13385826771653545
          },
          {
            "duration": 0.0625,
            "durationTicks": 48,
            "midi": 73,
            "name": "C#5",
            "ticks": 234000,
            "time": 304.6875,
            "velocity": 0.13385826771653545
          },
          {
            "duration": 0.0625,
            "durationTicks": 48,
            "midi": 78,
            "name": "F#5",
            "ticks": 234000,
            "time": 304.6875,
            "velocity": 0.13385826771653545
          },
          {
            "duration": 0.0625,
            "durationTicks": 48,
            "midi": 70,
            "name": "A#4",
            "ticks": 234048,
            "time": 304.75,
            "velocity": 0.13385826771653545
          },
          {
            "duration": 0.0625,
            "durationTicks": 48,
            "midi": 73,
            "name": "C#5",
            "ticks": 234048,
            "time": 304.75,
            "velocity": 0.13385826771653545
          },
          {
            "duration": 0.0625,
            "durationTicks": 48,
            "midi": 78,
            "name": "F#5",
            "ticks": 234048,
            "time": 304.75,
            "velocity": 0.13385826771653545
          },
          {
            "duration": 0.0625,
            "durationTicks": 48,
            "midi": 70,
            "name": "A#4",
            "ticks": 234096,
            "time": 304.8125,
            "velocity": 0.13385826771653545
          },
          {
            "duration": 0.0625,
            "durationTicks": 48,
            "midi": 73,
            "name": "C#5",
            "ticks": 234096,
            "time": 304.8125,
            "velocity": 0.13385826771653545
          },
          {
            "duration": 0.0625,
            "durationTicks": 48,
            "midi": 78,
            "name": "F#5",
            "ticks": 234096,
            "time": 304.8125,
            "velocity": 0.13385826771653545
          },
          {
            "duration": 0.0625,
            "durationTicks": 48,
            "midi": 73,
            "name": "C#5",
            "ticks": 234144,
            "time": 304.875,
            "velocity": 0.13385826771653545
          },
          {
            "duration": 0.0625,
            "durationTicks": 48,
            "midi": 70,
            "name": "A#4",
            "ticks": 234144,
            "time": 304.875,
            "velocity": 0.13385826771653545
          },
          {
            "duration": 0.0625,
            "durationTicks": 48,
            "midi": 78,
            "name": "F#5",
            "ticks": 234144,
            "time": 304.875,
            "velocity": 0.13385826771653545
          },
          {
            "duration": 0.0625,
            "durationTicks": 48,
            "midi": 70,
            "name": "A#4",
            "ticks": 234192,
            "time": 304.9375,
            "velocity": 0.13385826771653545
          },
          {
            "duration": 0.0625,
            "durationTicks": 48,
            "midi": 78,
            "name": "F#5",
            "ticks": 234192,
            "time": 304.9375,
            "velocity": 0.13385826771653545
          },
          {
            "duration": 0.0625,
            "durationTicks": 48,
            "midi": 73,
            "name": "C#5",
            "ticks": 234192,
            "time": 304.9375,
            "velocity": 0.13385826771653545
          },
          {
            "duration": 0.0625,
            "durationTicks": 48,
            "midi": 78,
            "name": "F#5",
            "ticks": 234240,
            "time": 305,
            "velocity": 0.13385826771653545
          },
          {
            "duration": 0.0625,
            "durationTicks": 48,
            "midi": 70,
            "name": "A#4",
            "ticks": 234240,
            "time": 305,
            "velocity": 0.13385826771653545
          },
          {
            "duration": 0.0625,
            "durationTicks": 48,
            "midi": 73,
            "name": "C#5",
            "ticks": 234240,
            "time": 305,
            "velocity": 0.13385826771653545
          },
          {
            "duration": 0.0625,
            "durationTicks": 48,
            "midi": 73,
            "name": "C#5",
            "ticks": 234288,
            "time": 305.0625,
            "velocity": 0.13385826771653545
          },
          {
            "duration": 0.0625,
            "durationTicks": 48,
            "midi": 78,
            "name": "F#5",
            "ticks": 234288,
            "time": 305.0625,
            "velocity": 0.13385826771653545
          },
          {
            "duration": 0.0625,
            "durationTicks": 48,
            "midi": 70,
            "name": "A#4",
            "ticks": 234288,
            "time": 305.0625,
            "velocity": 0.13385826771653545
          },
          {
            "duration": 0.0625,
            "durationTicks": 48,
            "midi": 73,
            "name": "C#5",
            "ticks": 234336,
            "time": 305.125,
            "velocity": 0.13385826771653545
          },
          {
            "duration": 0.0625,
            "durationTicks": 48,
            "midi": 78,
            "name": "F#5",
            "ticks": 234336,
            "time": 305.125,
            "velocity": 0.13385826771653545
          },
          {
            "duration": 0.0625,
            "durationTicks": 48,
            "midi": 70,
            "name": "A#4",
            "ticks": 234336,
            "time": 305.125,
            "velocity": 0.13385826771653545
          },
          {
            "duration": 0.0625,
            "durationTicks": 48,
            "midi": 70,
            "name": "A#4",
            "ticks": 234384,
            "time": 305.1875,
            "velocity": 0.13385826771653545
          },
          {
            "duration": 0.0625,
            "durationTicks": 48,
            "midi": 78,
            "name": "F#5",
            "ticks": 234384,
            "time": 305.1875,
            "velocity": 0.13385826771653545
          },
          {
            "duration": 0.0625,
            "durationTicks": 48,
            "midi": 73,
            "name": "C#5",
            "ticks": 234384,
            "time": 305.1875,
            "velocity": 0.13385826771653545
          },
          {
            "duration": 0.0625,
            "durationTicks": 48,
            "midi": 73,
            "name": "C#5",
            "ticks": 234432,
            "time": 305.25,
            "velocity": 0.13385826771653545
          },
          {
            "duration": 0.0625,
            "durationTicks": 48,
            "midi": 78,
            "name": "F#5",
            "ticks": 234432,
            "time": 305.25,
            "velocity": 0.13385826771653545
          },
          {
            "duration": 0.0625,
            "durationTicks": 48,
            "midi": 70,
            "name": "A#4",
            "ticks": 234432,
            "time": 305.25,
            "velocity": 0.13385826771653545
          },
          {
            "duration": 0.0625,
            "durationTicks": 48,
            "midi": 78,
            "name": "F#5",
            "ticks": 234480,
            "time": 305.3125,
            "velocity": 0.13385826771653545
          },
          {
            "duration": 0.0625,
            "durationTicks": 48,
            "midi": 73,
            "name": "C#5",
            "ticks": 234480,
            "time": 305.3125,
            "velocity": 0.13385826771653545
          },
          {
            "duration": 0.0625,
            "durationTicks": 48,
            "midi": 70,
            "name": "A#4",
            "ticks": 234480,
            "time": 305.3125,
            "velocity": 0.13385826771653545
          },
          {
            "duration": 0.0625,
            "durationTicks": 48,
            "midi": 70,
            "name": "A#4",
            "ticks": 234528,
            "time": 305.375,
            "velocity": 0.13385826771653545
          },
          {
            "duration": 0.0625,
            "durationTicks": 48,
            "midi": 78,
            "name": "F#5",
            "ticks": 234528,
            "time": 305.375,
            "velocity": 0.13385826771653545
          },
          {
            "duration": 0.0625,
            "durationTicks": 48,
            "midi": 73,
            "name": "C#5",
            "ticks": 234528,
            "time": 305.375,
            "velocity": 0.13385826771653545
          },
          {
            "duration": 0.0625,
            "durationTicks": 48,
            "midi": 73,
            "name": "C#5",
            "ticks": 234576,
            "time": 305.4375,
            "velocity": 0.13385826771653545
          },
          {
            "duration": 0.0625,
            "durationTicks": 48,
            "midi": 78,
            "name": "F#5",
            "ticks": 234576,
            "time": 305.4375,
            "velocity": 0.13385826771653545
          },
          {
            "duration": 0.0625,
            "durationTicks": 48,
            "midi": 70,
            "name": "A#4",
            "ticks": 234576,
            "time": 305.4375,
            "velocity": 0.13385826771653545
          },
          {
            "duration": 0.0625,
            "durationTicks": 48,
            "midi": 78,
            "name": "F#5",
            "ticks": 234624,
            "time": 305.5,
            "velocity": 0.13385826771653545
          },
          {
            "duration": 0.0625,
            "durationTicks": 48,
            "midi": 73,
            "name": "C#5",
            "ticks": 234624,
            "time": 305.5,
            "velocity": 0.13385826771653545
          },
          {
            "duration": 0.0625,
            "durationTicks": 48,
            "midi": 70,
            "name": "A#4",
            "ticks": 234624,
            "time": 305.5,
            "velocity": 0.13385826771653545
          },
          {
            "duration": 0.0625,
            "durationTicks": 48,
            "midi": 70,
            "name": "A#4",
            "ticks": 234672,
            "time": 305.5625,
            "velocity": 0.13385826771653545
          },
          {
            "duration": 0.0625,
            "durationTicks": 48,
            "midi": 73,
            "name": "C#5",
            "ticks": 234672,
            "time": 305.5625,
            "velocity": 0.13385826771653545
          },
          {
            "duration": 0.0625,
            "durationTicks": 48,
            "midi": 78,
            "name": "F#5",
            "ticks": 234672,
            "time": 305.5625,
            "velocity": 0.13385826771653545
          },
          {
            "duration": 0.0625,
            "durationTicks": 48,
            "midi": 73,
            "name": "C#5",
            "ticks": 234720,
            "time": 305.625,
            "velocity": 0.13385826771653545
          },
          {
            "duration": 0.0625,
            "durationTicks": 48,
            "midi": 70,
            "name": "A#4",
            "ticks": 234720,
            "time": 305.625,
            "velocity": 0.13385826771653545
          },
          {
            "duration": 0.0625,
            "durationTicks": 48,
            "midi": 78,
            "name": "F#5",
            "ticks": 234720,
            "time": 305.625,
            "velocity": 0.13385826771653545
          },
          {
            "duration": 0.0625,
            "durationTicks": 48,
            "midi": 78,
            "name": "F#5",
            "ticks": 234768,
            "time": 305.6875,
            "velocity": 0.13385826771653545
          },
          {
            "duration": 0.0625,
            "durationTicks": 48,
            "midi": 70,
            "name": "A#4",
            "ticks": 234768,
            "time": 305.6875,
            "velocity": 0.13385826771653545
          },
          {
            "duration": 0.0625,
            "durationTicks": 48,
            "midi": 73,
            "name": "C#5",
            "ticks": 234768,
            "time": 305.6875,
            "velocity": 0.13385826771653545
          },
          {
            "duration": 0.0625,
            "durationTicks": 48,
            "midi": 78,
            "name": "F#5",
            "ticks": 234816,
            "time": 305.75,
            "velocity": 0.13385826771653545
          },
          {
            "duration": 0.0625,
            "durationTicks": 48,
            "midi": 73,
            "name": "C#5",
            "ticks": 234816,
            "time": 305.75,
            "velocity": 0.13385826771653545
          },
          {
            "duration": 0.0625,
            "durationTicks": 48,
            "midi": 70,
            "name": "A#4",
            "ticks": 234816,
            "time": 305.75,
            "velocity": 0.13385826771653545
          },
          {
            "duration": 0.0625,
            "durationTicks": 48,
            "midi": 78,
            "name": "F#5",
            "ticks": 234864,
            "time": 305.8125,
            "velocity": 0.13385826771653545
          },
          {
            "duration": 0.0625,
            "durationTicks": 48,
            "midi": 73,
            "name": "C#5",
            "ticks": 234864,
            "time": 305.8125,
            "velocity": 0.13385826771653545
          },
          {
            "duration": 0.0625,
            "durationTicks": 48,
            "midi": 70,
            "name": "A#4",
            "ticks": 234864,
            "time": 305.8125,
            "velocity": 0.13385826771653545
          },
          {
            "duration": 0.0625,
            "durationTicks": 48,
            "midi": 73,
            "name": "C#5",
            "ticks": 234912,
            "time": 305.875,
            "velocity": 0.13385826771653545
          },
          {
            "duration": 0.0625,
            "durationTicks": 48,
            "midi": 80,
            "name": "G#5",
            "ticks": 234912,
            "time": 305.875,
            "velocity": 0.13385826771653545
          },
          {
            "duration": 0.0625,
            "durationTicks": 48,
            "midi": 76,
            "name": "E5",
            "ticks": 234912,
            "time": 305.875,
            "velocity": 0.13385826771653545
          },
          {
            "duration": 0.0625,
            "durationTicks": 48,
            "midi": 73,
            "name": "C#5",
            "ticks": 234960,
            "time": 305.9375,
            "velocity": 0.13385826771653545
          },
          {
            "duration": 0.0625,
            "durationTicks": 48,
            "midi": 76,
            "name": "E5",
            "ticks": 234960,
            "time": 305.9375,
            "velocity": 0.13385826771653545
          },
          {
            "duration": 0.0625,
            "durationTicks": 48,
            "midi": 80,
            "name": "G#5",
            "ticks": 234960,
            "time": 305.9375,
            "velocity": 0.13385826771653545
          },
          {
            "duration": 0.0625,
            "durationTicks": 48,
            "midi": 73,
            "name": "C#5",
            "ticks": 235008,
            "time": 306,
            "velocity": 0.13385826771653545
          },
          {
            "duration": 0.0625,
            "durationTicks": 48,
            "midi": 76,
            "name": "E5",
            "ticks": 235008,
            "time": 306,
            "velocity": 0.13385826771653545
          },
          {
            "duration": 0.0625,
            "durationTicks": 48,
            "midi": 80,
            "name": "G#5",
            "ticks": 235008,
            "time": 306,
            "velocity": 0.13385826771653545
          },
          {
            "duration": 0.0625,
            "durationTicks": 48,
            "midi": 76,
            "name": "E5",
            "ticks": 235056,
            "time": 306.0625,
            "velocity": 0.13385826771653545
          },
          {
            "duration": 0.0625,
            "durationTicks": 48,
            "midi": 80,
            "name": "G#5",
            "ticks": 235056,
            "time": 306.0625,
            "velocity": 0.13385826771653545
          },
          {
            "duration": 0.0625,
            "durationTicks": 48,
            "midi": 73,
            "name": "C#5",
            "ticks": 235056,
            "time": 306.0625,
            "velocity": 0.13385826771653545
          },
          {
            "duration": 0.0625,
            "durationTicks": 48,
            "midi": 80,
            "name": "G#5",
            "ticks": 235104,
            "time": 306.125,
            "velocity": 0.13385826771653545
          },
          {
            "duration": 0.0625,
            "durationTicks": 48,
            "midi": 73,
            "name": "C#5",
            "ticks": 235104,
            "time": 306.125,
            "velocity": 0.13385826771653545
          },
          {
            "duration": 0.0625,
            "durationTicks": 48,
            "midi": 76,
            "name": "E5",
            "ticks": 235104,
            "time": 306.125,
            "velocity": 0.13385826771653545
          },
          {
            "duration": 0.0625,
            "durationTicks": 48,
            "midi": 76,
            "name": "E5",
            "ticks": 235152,
            "time": 306.1875,
            "velocity": 0.13385826771653545
          },
          {
            "duration": 0.0625,
            "durationTicks": 48,
            "midi": 80,
            "name": "G#5",
            "ticks": 235152,
            "time": 306.1875,
            "velocity": 0.13385826771653545
          },
          {
            "duration": 0.0625,
            "durationTicks": 48,
            "midi": 73,
            "name": "C#5",
            "ticks": 235152,
            "time": 306.1875,
            "velocity": 0.13385826771653545
          },
          {
            "duration": 0.0625,
            "durationTicks": 48,
            "midi": 73,
            "name": "C#5",
            "ticks": 235200,
            "time": 306.25,
            "velocity": 0.13385826771653545
          },
          {
            "duration": 0.0625,
            "durationTicks": 48,
            "midi": 80,
            "name": "G#5",
            "ticks": 235200,
            "time": 306.25,
            "velocity": 0.13385826771653545
          },
          {
            "duration": 0.0625,
            "durationTicks": 48,
            "midi": 76,
            "name": "E5",
            "ticks": 235200,
            "time": 306.25,
            "velocity": 0.13385826771653545
          },
          {
            "duration": 0.0625,
            "durationTicks": 48,
            "midi": 76,
            "name": "E5",
            "ticks": 235248,
            "time": 306.3125,
            "velocity": 0.13385826771653545
          },
          {
            "duration": 0.0625,
            "durationTicks": 48,
            "midi": 73,
            "name": "C#5",
            "ticks": 235248,
            "time": 306.3125,
            "velocity": 0.13385826771653545
          },
          {
            "duration": 0.0625,
            "durationTicks": 48,
            "midi": 80,
            "name": "G#5",
            "ticks": 235248,
            "time": 306.3125,
            "velocity": 0.13385826771653545
          },
          {
            "duration": 0.0625,
            "durationTicks": 48,
            "midi": 76,
            "name": "E5",
            "ticks": 235296,
            "time": 306.375,
            "velocity": 0.13385826771653545
          },
          {
            "duration": 0.0625,
            "durationTicks": 48,
            "midi": 80,
            "name": "G#5",
            "ticks": 235296,
            "time": 306.375,
            "velocity": 0.13385826771653545
          },
          {
            "duration": 0.0625,
            "durationTicks": 48,
            "midi": 73,
            "name": "C#5",
            "ticks": 235296,
            "time": 306.375,
            "velocity": 0.13385826771653545
          },
          {
            "duration": 0.0625,
            "durationTicks": 48,
            "midi": 80,
            "name": "G#5",
            "ticks": 235344,
            "time": 306.4375,
            "velocity": 0.13385826771653545
          },
          {
            "duration": 0.0625,
            "durationTicks": 48,
            "midi": 76,
            "name": "E5",
            "ticks": 235344,
            "time": 306.4375,
            "velocity": 0.13385826771653545
          },
          {
            "duration": 0.0625,
            "durationTicks": 48,
            "midi": 73,
            "name": "C#5",
            "ticks": 235344,
            "time": 306.4375,
            "velocity": 0.13385826771653545
          },
          {
            "duration": 0.0625,
            "durationTicks": 48,
            "midi": 76,
            "name": "E5",
            "ticks": 235392,
            "time": 306.5,
            "velocity": 0.13385826771653545
          },
          {
            "duration": 0.0625,
            "durationTicks": 48,
            "midi": 80,
            "name": "G#5",
            "ticks": 235392,
            "time": 306.5,
            "velocity": 0.13385826771653545
          },
          {
            "duration": 0.0625,
            "durationTicks": 48,
            "midi": 73,
            "name": "C#5",
            "ticks": 235392,
            "time": 306.5,
            "velocity": 0.13385826771653545
          },
          {
            "duration": 0.0625,
            "durationTicks": 48,
            "midi": 76,
            "name": "E5",
            "ticks": 235440,
            "time": 306.5625,
            "velocity": 0.13385826771653545
          },
          {
            "duration": 0.0625,
            "durationTicks": 48,
            "midi": 73,
            "name": "C#5",
            "ticks": 235440,
            "time": 306.5625,
            "velocity": 0.13385826771653545
          },
          {
            "duration": 0.0625,
            "durationTicks": 48,
            "midi": 80,
            "name": "G#5",
            "ticks": 235440,
            "time": 306.5625,
            "velocity": 0.13385826771653545
          },
          {
            "duration": 0.0625,
            "durationTicks": 48,
            "midi": 80,
            "name": "G#5",
            "ticks": 235488,
            "time": 306.625,
            "velocity": 0.13385826771653545
          },
          {
            "duration": 0.0625,
            "durationTicks": 48,
            "midi": 73,
            "name": "C#5",
            "ticks": 235488,
            "time": 306.625,
            "velocity": 0.13385826771653545
          },
          {
            "duration": 0.0625,
            "durationTicks": 48,
            "midi": 76,
            "name": "E5",
            "ticks": 235488,
            "time": 306.625,
            "velocity": 0.13385826771653545
          },
          {
            "duration": 0.0625,
            "durationTicks": 48,
            "midi": 80,
            "name": "G#5",
            "ticks": 235536,
            "time": 306.6875,
            "velocity": 0.13385826771653545
          },
          {
            "duration": 0.0625,
            "durationTicks": 48,
            "midi": 76,
            "name": "E5",
            "ticks": 235536,
            "time": 306.6875,
            "velocity": 0.13385826771653545
          },
          {
            "duration": 0.0625,
            "durationTicks": 48,
            "midi": 73,
            "name": "C#5",
            "ticks": 235536,
            "time": 306.6875,
            "velocity": 0.13385826771653545
          },
          {
            "duration": 0.0625,
            "durationTicks": 48,
            "midi": 76,
            "name": "E5",
            "ticks": 235584,
            "time": 306.75,
            "velocity": 0.13385826771653545
          },
          {
            "duration": 0.0625,
            "durationTicks": 48,
            "midi": 73,
            "name": "C#5",
            "ticks": 235584,
            "time": 306.75,
            "velocity": 0.13385826771653545
          },
          {
            "duration": 0.0625,
            "durationTicks": 48,
            "midi": 80,
            "name": "G#5",
            "ticks": 235584,
            "time": 306.75,
            "velocity": 0.13385826771653545
          },
          {
            "duration": 0.0625,
            "durationTicks": 48,
            "midi": 80,
            "name": "G#5",
            "ticks": 235632,
            "time": 306.8125,
            "velocity": 0.13385826771653545
          },
          {
            "duration": 0.0625,
            "durationTicks": 48,
            "midi": 76,
            "name": "E5",
            "ticks": 235632,
            "time": 306.8125,
            "velocity": 0.13385826771653545
          },
          {
            "duration": 0.0625,
            "durationTicks": 48,
            "midi": 73,
            "name": "C#5",
            "ticks": 235632,
            "time": 306.8125,
            "velocity": 0.13385826771653545
          },
          {
            "duration": 0.0625,
            "durationTicks": 48,
            "midi": 80,
            "name": "G#5",
            "ticks": 235680,
            "time": 306.875,
            "velocity": 0.13385826771653545
          },
          {
            "duration": 0.0625,
            "durationTicks": 48,
            "midi": 73,
            "name": "C#5",
            "ticks": 235680,
            "time": 306.875,
            "velocity": 0.13385826771653545
          },
          {
            "duration": 0.0625,
            "durationTicks": 48,
            "midi": 76,
            "name": "E5",
            "ticks": 235680,
            "time": 306.875,
            "velocity": 0.13385826771653545
          },
          {
            "duration": 0.0625,
            "durationTicks": 48,
            "midi": 80,
            "name": "G#5",
            "ticks": 235728,
            "time": 306.9375,
            "velocity": 0.13385826771653545
          },
          {
            "duration": 0.0625,
            "durationTicks": 48,
            "midi": 76,
            "name": "E5",
            "ticks": 235728,
            "time": 306.9375,
            "velocity": 0.13385826771653545
          },
          {
            "duration": 0.0625,
            "durationTicks": 48,
            "midi": 73,
            "name": "C#5",
            "ticks": 235728,
            "time": 306.9375,
            "velocity": 0.13385826771653545
          },
          {
            "duration": 0.0625,
            "durationTicks": 48,
            "midi": 76,
            "name": "E5",
            "ticks": 235776,
            "time": 307,
            "velocity": 0.13385826771653545
          },
          {
            "duration": 0.0625,
            "durationTicks": 48,
            "midi": 80,
            "name": "G#5",
            "ticks": 235776,
            "time": 307,
            "velocity": 0.13385826771653545
          },
          {
            "duration": 0.0625,
            "durationTicks": 48,
            "midi": 73,
            "name": "C#5",
            "ticks": 235776,
            "time": 307,
            "velocity": 0.13385826771653545
          },
          {
            "duration": 0.0625,
            "durationTicks": 48,
            "midi": 73,
            "name": "C#5",
            "ticks": 235824,
            "time": 307.0625,
            "velocity": 0.13385826771653545
          },
          {
            "duration": 0.0625,
            "durationTicks": 48,
            "midi": 76,
            "name": "E5",
            "ticks": 235824,
            "time": 307.0625,
            "velocity": 0.13385826771653545
          },
          {
            "duration": 0.0625,
            "durationTicks": 48,
            "midi": 80,
            "name": "G#5",
            "ticks": 235824,
            "time": 307.0625,
            "velocity": 0.13385826771653545
          },
          {
            "duration": 0.0625,
            "durationTicks": 48,
            "midi": 80,
            "name": "G#5",
            "ticks": 235872,
            "time": 307.125,
            "velocity": 0.13385826771653545
          },
          {
            "duration": 0.0625,
            "durationTicks": 48,
            "midi": 76,
            "name": "E5",
            "ticks": 235872,
            "time": 307.125,
            "velocity": 0.13385826771653545
          },
          {
            "duration": 0.0625,
            "durationTicks": 48,
            "midi": 73,
            "name": "C#5",
            "ticks": 235872,
            "time": 307.125,
            "velocity": 0.13385826771653545
          },
          {
            "duration": 0.0625,
            "durationTicks": 48,
            "midi": 80,
            "name": "G#5",
            "ticks": 235920,
            "time": 307.1875,
            "velocity": 0.13385826771653545
          },
          {
            "duration": 0.0625,
            "durationTicks": 48,
            "midi": 76,
            "name": "E5",
            "ticks": 235920,
            "time": 307.1875,
            "velocity": 0.13385826771653545
          },
          {
            "duration": 0.0625,
            "durationTicks": 48,
            "midi": 73,
            "name": "C#5",
            "ticks": 235920,
            "time": 307.1875,
            "velocity": 0.13385826771653545
          },
          {
            "duration": 0.0625,
            "durationTicks": 48,
            "midi": 80,
            "name": "G#5",
            "ticks": 235968,
            "time": 307.25,
            "velocity": 0.13385826771653545
          },
          {
            "duration": 0.0625,
            "durationTicks": 48,
            "midi": 76,
            "name": "E5",
            "ticks": 235968,
            "time": 307.25,
            "velocity": 0.13385826771653545
          },
          {
            "duration": 0.0625,
            "durationTicks": 48,
            "midi": 73,
            "name": "C#5",
            "ticks": 235968,
            "time": 307.25,
            "velocity": 0.13385826771653545
          },
          {
            "duration": 0.0625,
            "durationTicks": 48,
            "midi": 73,
            "name": "C#5",
            "ticks": 236016,
            "time": 307.3125,
            "velocity": 0.13385826771653545
          },
          {
            "duration": 0.0625,
            "durationTicks": 48,
            "midi": 80,
            "name": "G#5",
            "ticks": 236016,
            "time": 307.3125,
            "velocity": 0.13385826771653545
          },
          {
            "duration": 0.0625,
            "durationTicks": 48,
            "midi": 76,
            "name": "E5",
            "ticks": 236016,
            "time": 307.3125,
            "velocity": 0.13385826771653545
          },
          {
            "duration": 0.0625,
            "durationTicks": 48,
            "midi": 76,
            "name": "E5",
            "ticks": 236064,
            "time": 307.375,
            "velocity": 0.13385826771653545
          },
          {
            "duration": 0.0625,
            "durationTicks": 48,
            "midi": 73,
            "name": "C#5",
            "ticks": 236064,
            "time": 307.375,
            "velocity": 0.13385826771653545
          },
          {
            "duration": 0.0625,
            "durationTicks": 48,
            "midi": 80,
            "name": "G#5",
            "ticks": 236064,
            "time": 307.375,
            "velocity": 0.13385826771653545
          },
          {
            "duration": 0.0625,
            "durationTicks": 48,
            "midi": 76,
            "name": "E5",
            "ticks": 236112,
            "time": 307.4375,
            "velocity": 0.13385826771653545
          },
          {
            "duration": 0.0625,
            "durationTicks": 48,
            "midi": 80,
            "name": "G#5",
            "ticks": 236112,
            "time": 307.4375,
            "velocity": 0.13385826771653545
          },
          {
            "duration": 0.0625,
            "durationTicks": 48,
            "midi": 73,
            "name": "C#5",
            "ticks": 236112,
            "time": 307.4375,
            "velocity": 0.13385826771653545
          },
          {
            "duration": 0.0625,
            "durationTicks": 48,
            "midi": 80,
            "name": "G#5",
            "ticks": 236160,
            "time": 307.5,
            "velocity": 0.13385826771653545
          },
          {
            "duration": 0.0625,
            "durationTicks": 48,
            "midi": 76,
            "name": "E5",
            "ticks": 236160,
            "time": 307.5,
            "velocity": 0.13385826771653545
          },
          {
            "duration": 0.0625,
            "durationTicks": 48,
            "midi": 73,
            "name": "C#5",
            "ticks": 236160,
            "time": 307.5,
            "velocity": 0.13385826771653545
          },
          {
            "duration": 0.0625,
            "durationTicks": 48,
            "midi": 76,
            "name": "E5",
            "ticks": 236208,
            "time": 307.5625,
            "velocity": 0.13385826771653545
          },
          {
            "duration": 0.0625,
            "durationTicks": 48,
            "midi": 80,
            "name": "G#5",
            "ticks": 236208,
            "time": 307.5625,
            "velocity": 0.13385826771653545
          },
          {
            "duration": 0.0625,
            "durationTicks": 48,
            "midi": 73,
            "name": "C#5",
            "ticks": 236208,
            "time": 307.5625,
            "velocity": 0.13385826771653545
          },
          {
            "duration": 0.0625,
            "durationTicks": 48,
            "midi": 80,
            "name": "G#5",
            "ticks": 236256,
            "time": 307.625,
            "velocity": 0.13385826771653545
          },
          {
            "duration": 0.0625,
            "durationTicks": 48,
            "midi": 76,
            "name": "E5",
            "ticks": 236256,
            "time": 307.625,
            "velocity": 0.13385826771653545
          },
          {
            "duration": 0.0625,
            "durationTicks": 48,
            "midi": 73,
            "name": "C#5",
            "ticks": 236256,
            "time": 307.625,
            "velocity": 0.13385826771653545
          },
          {
            "duration": 0.0625,
            "durationTicks": 48,
            "midi": 73,
            "name": "C#5",
            "ticks": 236304,
            "time": 307.6875,
            "velocity": 0.13385826771653545
          },
          {
            "duration": 0.0625,
            "durationTicks": 48,
            "midi": 80,
            "name": "G#5",
            "ticks": 236304,
            "time": 307.6875,
            "velocity": 0.13385826771653545
          },
          {
            "duration": 0.0625,
            "durationTicks": 48,
            "midi": 76,
            "name": "E5",
            "ticks": 236304,
            "time": 307.6875,
            "velocity": 0.13385826771653545
          },
          {
            "duration": 0.0625,
            "durationTicks": 48,
            "midi": 76,
            "name": "E5",
            "ticks": 236352,
            "time": 307.75,
            "velocity": 0.13385826771653545
          },
          {
            "duration": 0.0625,
            "durationTicks": 48,
            "midi": 73,
            "name": "C#5",
            "ticks": 236352,
            "time": 307.75,
            "velocity": 0.13385826771653545
          },
          {
            "duration": 0.0625,
            "durationTicks": 48,
            "midi": 80,
            "name": "G#5",
            "ticks": 236352,
            "time": 307.75,
            "velocity": 0.13385826771653545
          },
          {
            "duration": 0.0625,
            "durationTicks": 48,
            "midi": 80,
            "name": "G#5",
            "ticks": 236400,
            "time": 307.8125,
            "velocity": 0.13385826771653545
          },
          {
            "duration": 0.0625,
            "durationTicks": 48,
            "midi": 73,
            "name": "C#5",
            "ticks": 236400,
            "time": 307.8125,
            "velocity": 0.13385826771653545
          },
          {
            "duration": 0.0625,
            "durationTicks": 48,
            "midi": 76,
            "name": "E5",
            "ticks": 236400,
            "time": 307.8125,
            "velocity": 0.13385826771653545
          },
          {
            "duration": 0.0625,
            "durationTicks": 48,
            "midi": 73,
            "name": "C#5",
            "ticks": 236448,
            "time": 307.875,
            "velocity": 0.13385826771653545
          },
          {
            "duration": 0.0625,
            "durationTicks": 48,
            "midi": 81,
            "name": "A5",
            "ticks": 236448,
            "time": 307.875,
            "velocity": 0.13385826771653545
          },
          {
            "duration": 0.0625,
            "durationTicks": 48,
            "midi": 76,
            "name": "E5",
            "ticks": 236448,
            "time": 307.875,
            "velocity": 0.13385826771653545
          },
          {
            "duration": 0.0625,
            "durationTicks": 48,
            "midi": 76,
            "name": "E5",
            "ticks": 236496,
            "time": 307.9375,
            "velocity": 0.13385826771653545
          },
          {
            "duration": 0.0625,
            "durationTicks": 48,
            "midi": 73,
            "name": "C#5",
            "ticks": 236496,
            "time": 307.9375,
            "velocity": 0.13385826771653545
          },
          {
            "duration": 0.0625,
            "durationTicks": 48,
            "midi": 81,
            "name": "A5",
            "ticks": 236496,
            "time": 307.9375,
            "velocity": 0.13385826771653545
          },
          {
            "duration": 0.0625,
            "durationTicks": 48,
            "midi": 81,
            "name": "A5",
            "ticks": 236544,
            "time": 308,
            "velocity": 0.13385826771653545
          },
          {
            "duration": 0.0625,
            "durationTicks": 48,
            "midi": 73,
            "name": "C#5",
            "ticks": 236544,
            "time": 308,
            "velocity": 0.13385826771653545
          },
          {
            "duration": 0.0625,
            "durationTicks": 48,
            "midi": 76,
            "name": "E5",
            "ticks": 236544,
            "time": 308,
            "velocity": 0.13385826771653545
          },
          {
            "duration": 0.0625,
            "durationTicks": 48,
            "midi": 81,
            "name": "A5",
            "ticks": 236592,
            "time": 308.0625,
            "velocity": 0.13385826771653545
          },
          {
            "duration": 0.0625,
            "durationTicks": 48,
            "midi": 73,
            "name": "C#5",
            "ticks": 236592,
            "time": 308.0625,
            "velocity": 0.13385826771653545
          },
          {
            "duration": 0.0625,
            "durationTicks": 48,
            "midi": 76,
            "name": "E5",
            "ticks": 236592,
            "time": 308.0625,
            "velocity": 0.13385826771653545
          },
          {
            "duration": 0.0625,
            "durationTicks": 48,
            "midi": 76,
            "name": "E5",
            "ticks": 236640,
            "time": 308.125,
            "velocity": 0.13385826771653545
          },
          {
            "duration": 0.0625,
            "durationTicks": 48,
            "midi": 73,
            "name": "C#5",
            "ticks": 236640,
            "time": 308.125,
            "velocity": 0.13385826771653545
          },
          {
            "duration": 0.0625,
            "durationTicks": 48,
            "midi": 81,
            "name": "A5",
            "ticks": 236640,
            "time": 308.125,
            "velocity": 0.13385826771653545
          },
          {
            "duration": 0.0625,
            "durationTicks": 48,
            "midi": 81,
            "name": "A5",
            "ticks": 236688,
            "time": 308.1875,
            "velocity": 0.13385826771653545
          },
          {
            "duration": 0.0625,
            "durationTicks": 48,
            "midi": 73,
            "name": "C#5",
            "ticks": 236688,
            "time": 308.1875,
            "velocity": 0.13385826771653545
          },
          {
            "duration": 0.0625,
            "durationTicks": 48,
            "midi": 76,
            "name": "E5",
            "ticks": 236688,
            "time": 308.1875,
            "velocity": 0.13385826771653545
          },
          {
            "duration": 0.0625,
            "durationTicks": 48,
            "midi": 76,
            "name": "E5",
            "ticks": 236736,
            "time": 308.25,
            "velocity": 0.13385826771653545
          },
          {
            "duration": 0.0625,
            "durationTicks": 48,
            "midi": 73,
            "name": "C#5",
            "ticks": 236736,
            "time": 308.25,
            "velocity": 0.13385826771653545
          },
          {
            "duration": 0.0625,
            "durationTicks": 48,
            "midi": 81,
            "name": "A5",
            "ticks": 236736,
            "time": 308.25,
            "velocity": 0.13385826771653545
          },
          {
            "duration": 0.0625,
            "durationTicks": 48,
            "midi": 76,
            "name": "E5",
            "ticks": 236784,
            "time": 308.3125,
            "velocity": 0.13385826771653545
          },
          {
            "duration": 0.0625,
            "durationTicks": 48,
            "midi": 73,
            "name": "C#5",
            "ticks": 236784,
            "time": 308.3125,
            "velocity": 0.13385826771653545
          },
          {
            "duration": 0.0625,
            "durationTicks": 48,
            "midi": 81,
            "name": "A5",
            "ticks": 236784,
            "time": 308.3125,
            "velocity": 0.13385826771653545
          },
          {
            "duration": 0.0625,
            "durationTicks": 48,
            "midi": 81,
            "name": "A5",
            "ticks": 236832,
            "time": 308.375,
            "velocity": 0.13385826771653545
          },
          {
            "duration": 0.0625,
            "durationTicks": 48,
            "midi": 73,
            "name": "C#5",
            "ticks": 236832,
            "time": 308.375,
            "velocity": 0.13385826771653545
          },
          {
            "duration": 0.0625,
            "durationTicks": 48,
            "midi": 76,
            "name": "E5",
            "ticks": 236832,
            "time": 308.375,
            "velocity": 0.13385826771653545
          },
          {
            "duration": 0.0625,
            "durationTicks": 48,
            "midi": 76,
            "name": "E5",
            "ticks": 236880,
            "time": 308.4375,
            "velocity": 0.13385826771653545
          },
          {
            "duration": 0.0625,
            "durationTicks": 48,
            "midi": 73,
            "name": "C#5",
            "ticks": 236880,
            "time": 308.4375,
            "velocity": 0.13385826771653545
          },
          {
            "duration": 0.0625,
            "durationTicks": 48,
            "midi": 81,
            "name": "A5",
            "ticks": 236880,
            "time": 308.4375,
            "velocity": 0.13385826771653545
          },
          {
            "duration": 0.0625,
            "durationTicks": 48,
            "midi": 76,
            "name": "E5",
            "ticks": 236928,
            "time": 308.5,
            "velocity": 0.13385826771653545
          },
          {
            "duration": 0.0625,
            "durationTicks": 48,
            "midi": 81,
            "name": "A5",
            "ticks": 236928,
            "time": 308.5,
            "velocity": 0.13385826771653545
          },
          {
            "duration": 0.0625,
            "durationTicks": 48,
            "midi": 73,
            "name": "C#5",
            "ticks": 236928,
            "time": 308.5,
            "velocity": 0.13385826771653545
          },
          {
            "duration": 0.0625,
            "durationTicks": 48,
            "midi": 73,
            "name": "C#5",
            "ticks": 236976,
            "time": 308.5625,
            "velocity": 0.13385826771653545
          },
          {
            "duration": 0.0625,
            "durationTicks": 48,
            "midi": 81,
            "name": "A5",
            "ticks": 236976,
            "time": 308.5625,
            "velocity": 0.13385826771653545
          },
          {
            "duration": 0.0625,
            "durationTicks": 48,
            "midi": 76,
            "name": "E5",
            "ticks": 236976,
            "time": 308.5625,
            "velocity": 0.13385826771653545
          },
          {
            "duration": 0.0625,
            "durationTicks": 48,
            "midi": 73,
            "name": "C#5",
            "ticks": 237024,
            "time": 308.625,
            "velocity": 0.13385826771653545
          },
          {
            "duration": 0.0625,
            "durationTicks": 48,
            "midi": 76,
            "name": "E5",
            "ticks": 237024,
            "time": 308.625,
            "velocity": 0.13385826771653545
          },
          {
            "duration": 0.0625,
            "durationTicks": 48,
            "midi": 81,
            "name": "A5",
            "ticks": 237024,
            "time": 308.625,
            "velocity": 0.13385826771653545
          },
          {
            "duration": 0.0625,
            "durationTicks": 48,
            "midi": 81,
            "name": "A5",
            "ticks": 237072,
            "time": 308.6875,
            "velocity": 0.13385826771653545
          },
          {
            "duration": 0.0625,
            "durationTicks": 48,
            "midi": 73,
            "name": "C#5",
            "ticks": 237072,
            "time": 308.6875,
            "velocity": 0.13385826771653545
          },
          {
            "duration": 0.0625,
            "durationTicks": 48,
            "midi": 76,
            "name": "E5",
            "ticks": 237072,
            "time": 308.6875,
            "velocity": 0.13385826771653545
          },
          {
            "duration": 0.0625,
            "durationTicks": 48,
            "midi": 73,
            "name": "C#5",
            "ticks": 237120,
            "time": 308.75,
            "velocity": 0.13385826771653545
          },
          {
            "duration": 0.0625,
            "durationTicks": 48,
            "midi": 76,
            "name": "E5",
            "ticks": 237120,
            "time": 308.75,
            "velocity": 0.13385826771653545
          },
          {
            "duration": 0.0625,
            "durationTicks": 48,
            "midi": 81,
            "name": "A5",
            "ticks": 237120,
            "time": 308.75,
            "velocity": 0.13385826771653545
          },
          {
            "duration": 0.0625,
            "durationTicks": 48,
            "midi": 76,
            "name": "E5",
            "ticks": 237168,
            "time": 308.8125,
            "velocity": 0.13385826771653545
          },
          {
            "duration": 0.0625,
            "durationTicks": 48,
            "midi": 81,
            "name": "A5",
            "ticks": 237168,
            "time": 308.8125,
            "velocity": 0.13385826771653545
          },
          {
            "duration": 0.0625,
            "durationTicks": 48,
            "midi": 73,
            "name": "C#5",
            "ticks": 237168,
            "time": 308.8125,
            "velocity": 0.13385826771653545
          },
          {
            "duration": 0.0625,
            "durationTicks": 48,
            "midi": 76,
            "name": "E5",
            "ticks": 237216,
            "time": 308.875,
            "velocity": 0.13385826771653545
          },
          {
            "duration": 0.0625,
            "durationTicks": 48,
            "midi": 73,
            "name": "C#5",
            "ticks": 237216,
            "time": 308.875,
            "velocity": 0.13385826771653545
          },
          {
            "duration": 0.0625,
            "durationTicks": 48,
            "midi": 81,
            "name": "A5",
            "ticks": 237216,
            "time": 308.875,
            "velocity": 0.13385826771653545
          },
          {
            "duration": 0.0625,
            "durationTicks": 48,
            "midi": 73,
            "name": "C#5",
            "ticks": 237264,
            "time": 308.9375,
            "velocity": 0.13385826771653545
          },
          {
            "duration": 0.0625,
            "durationTicks": 48,
            "midi": 76,
            "name": "E5",
            "ticks": 237264,
            "time": 308.9375,
            "velocity": 0.13385826771653545
          },
          {
            "duration": 0.0625,
            "durationTicks": 48,
            "midi": 81,
            "name": "A5",
            "ticks": 237264,
            "time": 308.9375,
            "velocity": 0.13385826771653545
          },
          {
            "duration": 0.0625,
            "durationTicks": 48,
            "midi": 73,
            "name": "C#5",
            "ticks": 237312,
            "time": 309,
            "velocity": 0.13385826771653545
          },
          {
            "duration": 0.0625,
            "durationTicks": 48,
            "midi": 81,
            "name": "A5",
            "ticks": 237312,
            "time": 309,
            "velocity": 0.13385826771653545
          },
          {
            "duration": 0.0625,
            "durationTicks": 48,
            "midi": 76,
            "name": "E5",
            "ticks": 237312,
            "time": 309,
            "velocity": 0.13385826771653545
          },
          {
            "duration": 0.0625,
            "durationTicks": 48,
            "midi": 76,
            "name": "E5",
            "ticks": 237360,
            "time": 309.0625,
            "velocity": 0.13385826771653545
          },
          {
            "duration": 0.0625,
            "durationTicks": 48,
            "midi": 81,
            "name": "A5",
            "ticks": 237360,
            "time": 309.0625,
            "velocity": 0.13385826771653545
          },
          {
            "duration": 0.0625,
            "durationTicks": 48,
            "midi": 73,
            "name": "C#5",
            "ticks": 237360,
            "time": 309.0625,
            "velocity": 0.13385826771653545
          },
          {
            "duration": 0.0625,
            "durationTicks": 48,
            "midi": 76,
            "name": "E5",
            "ticks": 237408,
            "time": 309.125,
            "velocity": 0.13385826771653545
          },
          {
            "duration": 0.0625,
            "durationTicks": 48,
            "midi": 81,
            "name": "A5",
            "ticks": 237408,
            "time": 309.125,
            "velocity": 0.13385826771653545
          },
          {
            "duration": 0.0625,
            "durationTicks": 48,
            "midi": 73,
            "name": "C#5",
            "ticks": 237408,
            "time": 309.125,
            "velocity": 0.13385826771653545
          },
          {
            "duration": 0.0625,
            "durationTicks": 48,
            "midi": 76,
            "name": "E5",
            "ticks": 237456,
            "time": 309.1875,
            "velocity": 0.13385826771653545
          },
          {
            "duration": 0.0625,
            "durationTicks": 48,
            "midi": 81,
            "name": "A5",
            "ticks": 237456,
            "time": 309.1875,
            "velocity": 0.13385826771653545
          },
          {
            "duration": 0.0625,
            "durationTicks": 48,
            "midi": 73,
            "name": "C#5",
            "ticks": 237456,
            "time": 309.1875,
            "velocity": 0.13385826771653545
          },
          {
            "duration": 0.0625,
            "durationTicks": 48,
            "midi": 81,
            "name": "A5",
            "ticks": 237504,
            "time": 309.25,
            "velocity": 0.13385826771653545
          },
          {
            "duration": 0.0625,
            "durationTicks": 48,
            "midi": 76,
            "name": "E5",
            "ticks": 237504,
            "time": 309.25,
            "velocity": 0.13385826771653545
          },
          {
            "duration": 0.0625,
            "durationTicks": 48,
            "midi": 73,
            "name": "C#5",
            "ticks": 237504,
            "time": 309.25,
            "velocity": 0.13385826771653545
          },
          {
            "duration": 0.0625,
            "durationTicks": 48,
            "midi": 76,
            "name": "E5",
            "ticks": 237552,
            "time": 309.3125,
            "velocity": 0.13385826771653545
          },
          {
            "duration": 0.0625,
            "durationTicks": 48,
            "midi": 73,
            "name": "C#5",
            "ticks": 237552,
            "time": 309.3125,
            "velocity": 0.13385826771653545
          },
          {
            "duration": 0.0625,
            "durationTicks": 48,
            "midi": 81,
            "name": "A5",
            "ticks": 237552,
            "time": 309.3125,
            "velocity": 0.13385826771653545
          },
          {
            "duration": 0.0625,
            "durationTicks": 48,
            "midi": 81,
            "name": "A5",
            "ticks": 237600,
            "time": 309.375,
            "velocity": 0.13385826771653545
          },
          {
            "duration": 0.0625,
            "durationTicks": 48,
            "midi": 73,
            "name": "C#5",
            "ticks": 237600,
            "time": 309.375,
            "velocity": 0.13385826771653545
          },
          {
            "duration": 0.0625,
            "durationTicks": 48,
            "midi": 76,
            "name": "E5",
            "ticks": 237600,
            "time": 309.375,
            "velocity": 0.13385826771653545
          },
          {
            "duration": 0.0625,
            "durationTicks": 48,
            "midi": 76,
            "name": "E5",
            "ticks": 237648,
            "time": 309.4375,
            "velocity": 0.13385826771653545
          },
          {
            "duration": 0.0625,
            "durationTicks": 48,
            "midi": 73,
            "name": "C#5",
            "ticks": 237648,
            "time": 309.4375,
            "velocity": 0.13385826771653545
          },
          {
            "duration": 0.0625,
            "durationTicks": 48,
            "midi": 81,
            "name": "A5",
            "ticks": 237648,
            "time": 309.4375,
            "velocity": 0.13385826771653545
          },
          {
            "duration": 0.0625,
            "durationTicks": 48,
            "midi": 81,
            "name": "A5",
            "ticks": 237696,
            "time": 309.5,
            "velocity": 0.13385826771653545
          },
          {
            "duration": 0.0625,
            "durationTicks": 48,
            "midi": 73,
            "name": "C#5",
            "ticks": 237696,
            "time": 309.5,
            "velocity": 0.13385826771653545
          },
          {
            "duration": 0.0625,
            "durationTicks": 48,
            "midi": 76,
            "name": "E5",
            "ticks": 237696,
            "time": 309.5,
            "velocity": 0.13385826771653545
          },
          {
            "duration": 0.0625,
            "durationTicks": 48,
            "midi": 73,
            "name": "C#5",
            "ticks": 237744,
            "time": 309.5625,
            "velocity": 0.13385826771653545
          },
          {
            "duration": 0.0625,
            "durationTicks": 48,
            "midi": 76,
            "name": "E5",
            "ticks": 237744,
            "time": 309.5625,
            "velocity": 0.13385826771653545
          },
          {
            "duration": 0.0625,
            "durationTicks": 48,
            "midi": 81,
            "name": "A5",
            "ticks": 237744,
            "time": 309.5625,
            "velocity": 0.13385826771653545
          },
          {
            "duration": 0.0625,
            "durationTicks": 48,
            "midi": 76,
            "name": "E5",
            "ticks": 237792,
            "time": 309.625,
            "velocity": 0.13385826771653545
          },
          {
            "duration": 0.0625,
            "durationTicks": 48,
            "midi": 73,
            "name": "C#5",
            "ticks": 237792,
            "time": 309.625,
            "velocity": 0.13385826771653545
          },
          {
            "duration": 0.0625,
            "durationTicks": 48,
            "midi": 81,
            "name": "A5",
            "ticks": 237792,
            "time": 309.625,
            "velocity": 0.13385826771653545
          },
          {
            "duration": 0.0625,
            "durationTicks": 48,
            "midi": 73,
            "name": "C#5",
            "ticks": 237840,
            "time": 309.6875,
            "velocity": 0.13385826771653545
          },
          {
            "duration": 0.0625,
            "durationTicks": 48,
            "midi": 76,
            "name": "E5",
            "ticks": 237840,
            "time": 309.6875,
            "velocity": 0.13385826771653545
          },
          {
            "duration": 0.0625,
            "durationTicks": 48,
            "midi": 81,
            "name": "A5",
            "ticks": 237840,
            "time": 309.6875,
            "velocity": 0.13385826771653545
          },
          {
            "duration": 0.0625,
            "durationTicks": 48,
            "midi": 73,
            "name": "C#5",
            "ticks": 237888,
            "time": 309.75,
            "velocity": 0.13385826771653545
          },
          {
            "duration": 0.0625,
            "durationTicks": 48,
            "midi": 76,
            "name": "E5",
            "ticks": 237888,
            "time": 309.75,
            "velocity": 0.13385826771653545
          },
          {
            "duration": 0.0625,
            "durationTicks": 48,
            "midi": 81,
            "name": "A5",
            "ticks": 237888,
            "time": 309.75,
            "velocity": 0.13385826771653545
          },
          {
            "duration": 0.0625,
            "durationTicks": 48,
            "midi": 76,
            "name": "E5",
            "ticks": 237936,
            "time": 309.8125,
            "velocity": 0.13385826771653545
          },
          {
            "duration": 0.0625,
            "durationTicks": 48,
            "midi": 81,
            "name": "A5",
            "ticks": 237936,
            "time": 309.8125,
            "velocity": 0.13385826771653545
          },
          {
            "duration": 0.0625,
            "durationTicks": 48,
            "midi": 73,
            "name": "C#5",
            "ticks": 237936,
            "time": 309.8125,
            "velocity": 0.13385826771653545
          },
          {
            "duration": 0.0625,
            "durationTicks": 48,
            "midi": 71,
            "name": "B4",
            "ticks": 237984,
            "time": 309.875,
            "velocity": 0.13385826771653545
          },
          {
            "duration": 0.0625,
            "durationTicks": 48,
            "midi": 75,
            "name": "D#5",
            "ticks": 237984,
            "time": 309.875,
            "velocity": 0.13385826771653545
          },
          {
            "duration": 0.0625,
            "durationTicks": 48,
            "midi": 78,
            "name": "F#5",
            "ticks": 237984,
            "time": 309.875,
            "velocity": 0.13385826771653545
          },
          {
            "duration": 0.0625,
            "durationTicks": 48,
            "midi": 78,
            "name": "F#5",
            "ticks": 238032,
            "time": 309.9375,
            "velocity": 0.13385826771653545
          },
          {
            "duration": 0.0625,
            "durationTicks": 48,
            "midi": 75,
            "name": "D#5",
            "ticks": 238032,
            "time": 309.9375,
            "velocity": 0.13385826771653545
          },
          {
            "duration": 0.0625,
            "durationTicks": 48,
            "midi": 71,
            "name": "B4",
            "ticks": 238032,
            "time": 309.9375,
            "velocity": 0.13385826771653545
          },
          {
            "duration": 0.0625,
            "durationTicks": 48,
            "midi": 71,
            "name": "B4",
            "ticks": 238080,
            "time": 310,
            "velocity": 0.13385826771653545
          },
          {
            "duration": 0.0625,
            "durationTicks": 48,
            "midi": 78,
            "name": "F#5",
            "ticks": 238080,
            "time": 310,
            "velocity": 0.13385826771653545
          },
          {
            "duration": 0.0625,
            "durationTicks": 48,
            "midi": 75,
            "name": "D#5",
            "ticks": 238080,
            "time": 310,
            "velocity": 0.13385826771653545
          },
          {
            "duration": 0.0625,
            "durationTicks": 48,
            "midi": 71,
            "name": "B4",
            "ticks": 238128,
            "time": 310.0625,
            "velocity": 0.13385826771653545
          },
          {
            "duration": 0.0625,
            "durationTicks": 48,
            "midi": 75,
            "name": "D#5",
            "ticks": 238128,
            "time": 310.0625,
            "velocity": 0.13385826771653545
          },
          {
            "duration": 0.0625,
            "durationTicks": 48,
            "midi": 78,
            "name": "F#5",
            "ticks": 238128,
            "time": 310.0625,
            "velocity": 0.13385826771653545
          },
          {
            "duration": 0.0625,
            "durationTicks": 48,
            "midi": 71,
            "name": "B4",
            "ticks": 238176,
            "time": 310.125,
            "velocity": 0.13385826771653545
          },
          {
            "duration": 0.0625,
            "durationTicks": 48,
            "midi": 75,
            "name": "D#5",
            "ticks": 238176,
            "time": 310.125,
            "velocity": 0.13385826771653545
          },
          {
            "duration": 0.0625,
            "durationTicks": 48,
            "midi": 78,
            "name": "F#5",
            "ticks": 238176,
            "time": 310.125,
            "velocity": 0.13385826771653545
          },
          {
            "duration": 0.0625,
            "durationTicks": 48,
            "midi": 78,
            "name": "F#5",
            "ticks": 238224,
            "time": 310.1875,
            "velocity": 0.13385826771653545
          },
          {
            "duration": 0.0625,
            "durationTicks": 48,
            "midi": 75,
            "name": "D#5",
            "ticks": 238224,
            "time": 310.1875,
            "velocity": 0.13385826771653545
          },
          {
            "duration": 0.0625,
            "durationTicks": 48,
            "midi": 71,
            "name": "B4",
            "ticks": 238224,
            "time": 310.1875,
            "velocity": 0.13385826771653545
          },
          {
            "duration": 0.0625,
            "durationTicks": 48,
            "midi": 71,
            "name": "B4",
            "ticks": 238272,
            "time": 310.25,
            "velocity": 0.13385826771653545
          },
          {
            "duration": 0.0625,
            "durationTicks": 48,
            "midi": 75,
            "name": "D#5",
            "ticks": 238272,
            "time": 310.25,
            "velocity": 0.13385826771653545
          },
          {
            "duration": 0.0625,
            "durationTicks": 48,
            "midi": 78,
            "name": "F#5",
            "ticks": 238272,
            "time": 310.25,
            "velocity": 0.13385826771653545
          },
          {
            "duration": 0.0625,
            "durationTicks": 48,
            "midi": 71,
            "name": "B4",
            "ticks": 238320,
            "time": 310.3125,
            "velocity": 0.13385826771653545
          },
          {
            "duration": 0.0625,
            "durationTicks": 48,
            "midi": 75,
            "name": "D#5",
            "ticks": 238320,
            "time": 310.3125,
            "velocity": 0.13385826771653545
          },
          {
            "duration": 0.0625,
            "durationTicks": 48,
            "midi": 78,
            "name": "F#5",
            "ticks": 238320,
            "time": 310.3125,
            "velocity": 0.13385826771653545
          },
          {
            "duration": 0.0625,
            "durationTicks": 48,
            "midi": 78,
            "name": "F#5",
            "ticks": 238368,
            "time": 310.375,
            "velocity": 0.13385826771653545
          },
          {
            "duration": 0.0625,
            "durationTicks": 48,
            "midi": 71,
            "name": "B4",
            "ticks": 238368,
            "time": 310.375,
            "velocity": 0.13385826771653545
          },
          {
            "duration": 0.0625,
            "durationTicks": 48,
            "midi": 75,
            "name": "D#5",
            "ticks": 238368,
            "time": 310.375,
            "velocity": 0.13385826771653545
          },
          {
            "duration": 0.0625,
            "durationTicks": 48,
            "midi": 71,
            "name": "B4",
            "ticks": 238416,
            "time": 310.4375,
            "velocity": 0.13385826771653545
          },
          {
            "duration": 0.0625,
            "durationTicks": 48,
            "midi": 78,
            "name": "F#5",
            "ticks": 238416,
            "time": 310.4375,
            "velocity": 0.13385826771653545
          },
          {
            "duration": 0.0625,
            "durationTicks": 48,
            "midi": 75,
            "name": "D#5",
            "ticks": 238416,
            "time": 310.4375,
            "velocity": 0.13385826771653545
          },
          {
            "duration": 0.0625,
            "durationTicks": 48,
            "midi": 71,
            "name": "B4",
            "ticks": 238464,
            "time": 310.5,
            "velocity": 0.13385826771653545
          },
          {
            "duration": 0.0625,
            "durationTicks": 48,
            "midi": 75,
            "name": "D#5",
            "ticks": 238464,
            "time": 310.5,
            "velocity": 0.13385826771653545
          },
          {
            "duration": 0.0625,
            "durationTicks": 48,
            "midi": 78,
            "name": "F#5",
            "ticks": 238464,
            "time": 310.5,
            "velocity": 0.13385826771653545
          },
          {
            "duration": 0.0625,
            "durationTicks": 48,
            "midi": 78,
            "name": "F#5",
            "ticks": 238512,
            "time": 310.5625,
            "velocity": 0.13385826771653545
          },
          {
            "duration": 0.0625,
            "durationTicks": 48,
            "midi": 75,
            "name": "D#5",
            "ticks": 238512,
            "time": 310.5625,
            "velocity": 0.13385826771653545
          },
          {
            "duration": 0.0625,
            "durationTicks": 48,
            "midi": 71,
            "name": "B4",
            "ticks": 238512,
            "time": 310.5625,
            "velocity": 0.13385826771653545
          },
          {
            "duration": 0.0625,
            "durationTicks": 48,
            "midi": 75,
            "name": "D#5",
            "ticks": 238560,
            "time": 310.625,
            "velocity": 0.13385826771653545
          },
          {
            "duration": 0.0625,
            "durationTicks": 48,
            "midi": 78,
            "name": "F#5",
            "ticks": 238560,
            "time": 310.625,
            "velocity": 0.13385826771653545
          },
          {
            "duration": 0.0625,
            "durationTicks": 48,
            "midi": 71,
            "name": "B4",
            "ticks": 238560,
            "time": 310.625,
            "velocity": 0.13385826771653545
          },
          {
            "duration": 0.0625,
            "durationTicks": 48,
            "midi": 78,
            "name": "F#5",
            "ticks": 238608,
            "time": 310.6875,
            "velocity": 0.13385826771653545
          },
          {
            "duration": 0.0625,
            "durationTicks": 48,
            "midi": 71,
            "name": "B4",
            "ticks": 238608,
            "time": 310.6875,
            "velocity": 0.13385826771653545
          },
          {
            "duration": 0.0625,
            "durationTicks": 48,
            "midi": 75,
            "name": "D#5",
            "ticks": 238608,
            "time": 310.6875,
            "velocity": 0.13385826771653545
          },
          {
            "duration": 0.0625,
            "durationTicks": 48,
            "midi": 75,
            "name": "D#5",
            "ticks": 238656,
            "time": 310.75,
            "velocity": 0.13385826771653545
          },
          {
            "duration": 0.0625,
            "durationTicks": 48,
            "midi": 71,
            "name": "B4",
            "ticks": 238656,
            "time": 310.75,
            "velocity": 0.13385826771653545
          },
          {
            "duration": 0.0625,
            "durationTicks": 48,
            "midi": 78,
            "name": "F#5",
            "ticks": 238656,
            "time": 310.75,
            "velocity": 0.13385826771653545
          },
          {
            "duration": 0.0625,
            "durationTicks": 48,
            "midi": 71,
            "name": "B4",
            "ticks": 238704,
            "time": 310.8125,
            "velocity": 0.13385826771653545
          },
          {
            "duration": 0.0625,
            "durationTicks": 48,
            "midi": 75,
            "name": "D#5",
            "ticks": 238704,
            "time": 310.8125,
            "velocity": 0.13385826771653545
          },
          {
            "duration": 0.0625,
            "durationTicks": 48,
            "midi": 78,
            "name": "F#5",
            "ticks": 238704,
            "time": 310.8125,
            "velocity": 0.13385826771653545
          },
          {
            "duration": 0.0625,
            "durationTicks": 48,
            "midi": 71,
            "name": "B4",
            "ticks": 238752,
            "time": 310.875,
            "velocity": 0.13385826771653545
          },
          {
            "duration": 0.0625,
            "durationTicks": 48,
            "midi": 78,
            "name": "F#5",
            "ticks": 238752,
            "time": 310.875,
            "velocity": 0.13385826771653545
          },
          {
            "duration": 0.0625,
            "durationTicks": 48,
            "midi": 75,
            "name": "D#5",
            "ticks": 238752,
            "time": 310.875,
            "velocity": 0.13385826771653545
          },
          {
            "duration": 0.0625,
            "durationTicks": 48,
            "midi": 75,
            "name": "D#5",
            "ticks": 238800,
            "time": 310.9375,
            "velocity": 0.13385826771653545
          },
          {
            "duration": 0.0625,
            "durationTicks": 48,
            "midi": 71,
            "name": "B4",
            "ticks": 238800,
            "time": 310.9375,
            "velocity": 0.13385826771653545
          },
          {
            "duration": 0.0625,
            "durationTicks": 48,
            "midi": 78,
            "name": "F#5",
            "ticks": 238800,
            "time": 310.9375,
            "velocity": 0.13385826771653545
          },
          {
            "duration": 0.0625,
            "durationTicks": 48,
            "midi": 78,
            "name": "F#5",
            "ticks": 238848,
            "time": 311,
            "velocity": 0.13385826771653545
          },
          {
            "duration": 0.0625,
            "durationTicks": 48,
            "midi": 75,
            "name": "D#5",
            "ticks": 238848,
            "time": 311,
            "velocity": 0.13385826771653545
          },
          {
            "duration": 0.0625,
            "durationTicks": 48,
            "midi": 71,
            "name": "B4",
            "ticks": 238848,
            "time": 311,
            "velocity": 0.13385826771653545
          },
          {
            "duration": 0.0625,
            "durationTicks": 48,
            "midi": 78,
            "name": "F#5",
            "ticks": 238896,
            "time": 311.0625,
            "velocity": 0.13385826771653545
          },
          {
            "duration": 0.0625,
            "durationTicks": 48,
            "midi": 71,
            "name": "B4",
            "ticks": 238896,
            "time": 311.0625,
            "velocity": 0.13385826771653545
          },
          {
            "duration": 0.0625,
            "durationTicks": 48,
            "midi": 75,
            "name": "D#5",
            "ticks": 238896,
            "time": 311.0625,
            "velocity": 0.13385826771653545
          },
          {
            "duration": 0.0625,
            "durationTicks": 48,
            "midi": 78,
            "name": "F#5",
            "ticks": 238944,
            "time": 311.125,
            "velocity": 0.13385826771653545
          },
          {
            "duration": 0.0625,
            "durationTicks": 48,
            "midi": 75,
            "name": "D#5",
            "ticks": 238944,
            "time": 311.125,
            "velocity": 0.13385826771653545
          },
          {
            "duration": 0.0625,
            "durationTicks": 48,
            "midi": 71,
            "name": "B4",
            "ticks": 238944,
            "time": 311.125,
            "velocity": 0.13385826771653545
          },
          {
            "duration": 0.0625,
            "durationTicks": 48,
            "midi": 78,
            "name": "F#5",
            "ticks": 238992,
            "time": 311.1875,
            "velocity": 0.13385826771653545
          },
          {
            "duration": 0.0625,
            "durationTicks": 48,
            "midi": 75,
            "name": "D#5",
            "ticks": 238992,
            "time": 311.1875,
            "velocity": 0.13385826771653545
          },
          {
            "duration": 0.0625,
            "durationTicks": 48,
            "midi": 71,
            "name": "B4",
            "ticks": 238992,
            "time": 311.1875,
            "velocity": 0.13385826771653545
          },
          {
            "duration": 0.0625,
            "durationTicks": 48,
            "midi": 71,
            "name": "B4",
            "ticks": 239040,
            "time": 311.25,
            "velocity": 0.13385826771653545
          },
          {
            "duration": 0.0625,
            "durationTicks": 48,
            "midi": 75,
            "name": "D#5",
            "ticks": 239040,
            "time": 311.25,
            "velocity": 0.13385826771653545
          },
          {
            "duration": 0.0625,
            "durationTicks": 48,
            "midi": 78,
            "name": "F#5",
            "ticks": 239040,
            "time": 311.25,
            "velocity": 0.13385826771653545
          },
          {
            "duration": 0.0625,
            "durationTicks": 48,
            "midi": 75,
            "name": "D#5",
            "ticks": 239088,
            "time": 311.3125,
            "velocity": 0.13385826771653545
          },
          {
            "duration": 0.0625,
            "durationTicks": 48,
            "midi": 78,
            "name": "F#5",
            "ticks": 239088,
            "time": 311.3125,
            "velocity": 0.13385826771653545
          },
          {
            "duration": 0.0625,
            "durationTicks": 48,
            "midi": 71,
            "name": "B4",
            "ticks": 239088,
            "time": 311.3125,
            "velocity": 0.13385826771653545
          },
          {
            "duration": 0.0625,
            "durationTicks": 48,
            "midi": 71,
            "name": "B4",
            "ticks": 239136,
            "time": 311.375,
            "velocity": 0.13385826771653545
          },
          {
            "duration": 0.0625,
            "durationTicks": 48,
            "midi": 78,
            "name": "F#5",
            "ticks": 239136,
            "time": 311.375,
            "velocity": 0.13385826771653545
          },
          {
            "duration": 0.0625,
            "durationTicks": 48,
            "midi": 75,
            "name": "D#5",
            "ticks": 239136,
            "time": 311.375,
            "velocity": 0.13385826771653545
          },
          {
            "duration": 0.0625,
            "durationTicks": 48,
            "midi": 78,
            "name": "F#5",
            "ticks": 239184,
            "time": 311.4375,
            "velocity": 0.13385826771653545
          },
          {
            "duration": 0.0625,
            "durationTicks": 48,
            "midi": 71,
            "name": "B4",
            "ticks": 239184,
            "time": 311.4375,
            "velocity": 0.13385826771653545
          },
          {
            "duration": 0.0625,
            "durationTicks": 48,
            "midi": 75,
            "name": "D#5",
            "ticks": 239184,
            "time": 311.4375,
            "velocity": 0.13385826771653545
          },
          {
            "duration": 0.0625,
            "durationTicks": 48,
            "midi": 75,
            "name": "D#5",
            "ticks": 239232,
            "time": 311.5,
            "velocity": 0.13385826771653545
          },
          {
            "duration": 0.0625,
            "durationTicks": 48,
            "midi": 78,
            "name": "F#5",
            "ticks": 239232,
            "time": 311.5,
            "velocity": 0.13385826771653545
          },
          {
            "duration": 0.0625,
            "durationTicks": 48,
            "midi": 71,
            "name": "B4",
            "ticks": 239232,
            "time": 311.5,
            "velocity": 0.13385826771653545
          },
          {
            "duration": 0.0625,
            "durationTicks": 48,
            "midi": 75,
            "name": "D#5",
            "ticks": 239280,
            "time": 311.5625,
            "velocity": 0.13385826771653545
          },
          {
            "duration": 0.0625,
            "durationTicks": 48,
            "midi": 78,
            "name": "F#5",
            "ticks": 239280,
            "time": 311.5625,
            "velocity": 0.13385826771653545
          },
          {
            "duration": 0.0625,
            "durationTicks": 48,
            "midi": 71,
            "name": "B4",
            "ticks": 239280,
            "time": 311.5625,
            "velocity": 0.13385826771653545
          },
          {
            "duration": 0.0625,
            "durationTicks": 48,
            "midi": 78,
            "name": "F#5",
            "ticks": 239328,
            "time": 311.625,
            "velocity": 0.13385826771653545
          },
          {
            "duration": 0.0625,
            "durationTicks": 48,
            "midi": 75,
            "name": "D#5",
            "ticks": 239328,
            "time": 311.625,
            "velocity": 0.13385826771653545
          },
          {
            "duration": 0.0625,
            "durationTicks": 48,
            "midi": 71,
            "name": "B4",
            "ticks": 239328,
            "time": 311.625,
            "velocity": 0.13385826771653545
          },
          {
            "duration": 0.0625,
            "durationTicks": 48,
            "midi": 71,
            "name": "B4",
            "ticks": 239376,
            "time": 311.6875,
            "velocity": 0.13385826771653545
          },
          {
            "duration": 0.0625,
            "durationTicks": 48,
            "midi": 75,
            "name": "D#5",
            "ticks": 239376,
            "time": 311.6875,
            "velocity": 0.13385826771653545
          },
          {
            "duration": 0.0625,
            "durationTicks": 48,
            "midi": 78,
            "name": "F#5",
            "ticks": 239376,
            "time": 311.6875,
            "velocity": 0.13385826771653545
          },
          {
            "duration": 0.0625,
            "durationTicks": 48,
            "midi": 71,
            "name": "B4",
            "ticks": 239424,
            "time": 311.75,
            "velocity": 0.13385826771653545
          },
          {
            "duration": 0.0625,
            "durationTicks": 48,
            "midi": 78,
            "name": "F#5",
            "ticks": 239424,
            "time": 311.75,
            "velocity": 0.13385826771653545
          },
          {
            "duration": 0.0625,
            "durationTicks": 48,
            "midi": 75,
            "name": "D#5",
            "ticks": 239424,
            "time": 311.75,
            "velocity": 0.13385826771653545
          },
          {
            "duration": 0.0625,
            "durationTicks": 48,
            "midi": 75,
            "name": "D#5",
            "ticks": 239472,
            "time": 311.8125,
            "velocity": 0.13385826771653545
          },
          {
            "duration": 0.0625,
            "durationTicks": 48,
            "midi": 71,
            "name": "B4",
            "ticks": 239472,
            "time": 311.8125,
            "velocity": 0.13385826771653545
          },
          {
            "duration": 0.0625,
            "durationTicks": 48,
            "midi": 78,
            "name": "F#5",
            "ticks": 239472,
            "time": 311.8125,
            "velocity": 0.13385826771653545
          },
          {
            "duration": 0.0625,
            "durationTicks": 48,
            "midi": 73,
            "name": "C#5",
            "ticks": 239520,
            "time": 311.875,
            "velocity": 0.13385826771653545
          },
          {
            "duration": 0.0625,
            "durationTicks": 48,
            "midi": 70,
            "name": "A#4",
            "ticks": 239520,
            "time": 311.875,
            "velocity": 0.13385826771653545
          },
          {
            "duration": 0.0625,
            "durationTicks": 48,
            "midi": 78,
            "name": "F#5",
            "ticks": 239520,
            "time": 311.875,
            "velocity": 0.13385826771653545
          },
          {
            "duration": 0.0625,
            "durationTicks": 48,
            "midi": 78,
            "name": "F#5",
            "ticks": 239568,
            "time": 311.9375,
            "velocity": 0.13385826771653545
          },
          {
            "duration": 0.0625,
            "durationTicks": 48,
            "midi": 73,
            "name": "C#5",
            "ticks": 239568,
            "time": 311.9375,
            "velocity": 0.13385826771653545
          },
          {
            "duration": 0.0625,
            "durationTicks": 48,
            "midi": 70,
            "name": "A#4",
            "ticks": 239568,
            "time": 311.9375,
            "velocity": 0.13385826771653545
          },
          {
            "duration": 0.0625,
            "durationTicks": 48,
            "midi": 73,
            "name": "C#5",
            "ticks": 239616,
            "time": 312,
            "velocity": 0.13385826771653545
          },
          {
            "duration": 0.0625,
            "durationTicks": 48,
            "midi": 78,
            "name": "F#5",
            "ticks": 239616,
            "time": 312,
            "velocity": 0.13385826771653545
          },
          {
            "duration": 0.0625,
            "durationTicks": 48,
            "midi": 70,
            "name": "A#4",
            "ticks": 239616,
            "time": 312,
            "velocity": 0.13385826771653545
          },
          {
            "duration": 0.0625,
            "durationTicks": 48,
            "midi": 78,
            "name": "F#5",
            "ticks": 239664,
            "time": 312.0625,
            "velocity": 0.13385826771653545
          },
          {
            "duration": 0.0625,
            "durationTicks": 48,
            "midi": 70,
            "name": "A#4",
            "ticks": 239664,
            "time": 312.0625,
            "velocity": 0.13385826771653545
          },
          {
            "duration": 0.0625,
            "durationTicks": 48,
            "midi": 73,
            "name": "C#5",
            "ticks": 239664,
            "time": 312.0625,
            "velocity": 0.13385826771653545
          },
          {
            "duration": 0.0625,
            "durationTicks": 48,
            "midi": 70,
            "name": "A#4",
            "ticks": 239712,
            "time": 312.125,
            "velocity": 0.13385826771653545
          },
          {
            "duration": 0.0625,
            "durationTicks": 48,
            "midi": 78,
            "name": "F#5",
            "ticks": 239712,
            "time": 312.125,
            "velocity": 0.13385826771653545
          },
          {
            "duration": 0.0625,
            "durationTicks": 48,
            "midi": 73,
            "name": "C#5",
            "ticks": 239712,
            "time": 312.125,
            "velocity": 0.13385826771653545
          },
          {
            "duration": 0.0625,
            "durationTicks": 48,
            "midi": 70,
            "name": "A#4",
            "ticks": 239760,
            "time": 312.1875,
            "velocity": 0.13385826771653545
          },
          {
            "duration": 0.0625,
            "durationTicks": 48,
            "midi": 73,
            "name": "C#5",
            "ticks": 239760,
            "time": 312.1875,
            "velocity": 0.13385826771653545
          },
          {
            "duration": 0.0625,
            "durationTicks": 48,
            "midi": 78,
            "name": "F#5",
            "ticks": 239760,
            "time": 312.1875,
            "velocity": 0.13385826771653545
          },
          {
            "duration": 0.0625,
            "durationTicks": 48,
            "midi": 73,
            "name": "C#5",
            "ticks": 239808,
            "time": 312.25,
            "velocity": 0.13385826771653545
          },
          {
            "duration": 0.0625,
            "durationTicks": 48,
            "midi": 78,
            "name": "F#5",
            "ticks": 239808,
            "time": 312.25,
            "velocity": 0.13385826771653545
          },
          {
            "duration": 0.0625,
            "durationTicks": 48,
            "midi": 70,
            "name": "A#4",
            "ticks": 239808,
            "time": 312.25,
            "velocity": 0.13385826771653545
          },
          {
            "duration": 0.0625,
            "durationTicks": 48,
            "midi": 70,
            "name": "A#4",
            "ticks": 239856,
            "time": 312.3125,
            "velocity": 0.13385826771653545
          },
          {
            "duration": 0.0625,
            "durationTicks": 48,
            "midi": 73,
            "name": "C#5",
            "ticks": 239856,
            "time": 312.3125,
            "velocity": 0.13385826771653545
          },
          {
            "duration": 0.0625,
            "durationTicks": 48,
            "midi": 78,
            "name": "F#5",
            "ticks": 239856,
            "time": 312.3125,
            "velocity": 0.13385826771653545
          },
          {
            "duration": 0.0625,
            "durationTicks": 48,
            "midi": 70,
            "name": "A#4",
            "ticks": 239904,
            "time": 312.375,
            "velocity": 0.13385826771653545
          },
          {
            "duration": 0.0625,
            "durationTicks": 48,
            "midi": 73,
            "name": "C#5",
            "ticks": 239904,
            "time": 312.375,
            "velocity": 0.13385826771653545
          },
          {
            "duration": 0.0625,
            "durationTicks": 48,
            "midi": 78,
            "name": "F#5",
            "ticks": 239904,
            "time": 312.375,
            "velocity": 0.13385826771653545
          },
          {
            "duration": 0.0625,
            "durationTicks": 48,
            "midi": 78,
            "name": "F#5",
            "ticks": 239952,
            "time": 312.4375,
            "velocity": 0.13385826771653545
          },
          {
            "duration": 0.0625,
            "durationTicks": 48,
            "midi": 70,
            "name": "A#4",
            "ticks": 239952,
            "time": 312.4375,
            "velocity": 0.13385826771653545
          },
          {
            "duration": 0.0625,
            "durationTicks": 48,
            "midi": 73,
            "name": "C#5",
            "ticks": 239952,
            "time": 312.4375,
            "velocity": 0.13385826771653545
          },
          {
            "duration": 0.0625,
            "durationTicks": 48,
            "midi": 73,
            "name": "C#5",
            "ticks": 240000,
            "time": 312.5,
            "velocity": 0.13385826771653545
          },
          {
            "duration": 0.0625,
            "durationTicks": 48,
            "midi": 70,
            "name": "A#4",
            "ticks": 240000,
            "time": 312.5,
            "velocity": 0.13385826771653545
          },
          {
            "duration": 0.0625,
            "durationTicks": 48,
            "midi": 78,
            "name": "F#5",
            "ticks": 240000,
            "time": 312.5,
            "velocity": 0.13385826771653545
          },
          {
            "duration": 0.0625,
            "durationTicks": 48,
            "midi": 78,
            "name": "F#5",
            "ticks": 240048,
            "time": 312.5625,
            "velocity": 0.13385826771653545
          },
          {
            "duration": 0.0625,
            "durationTicks": 48,
            "midi": 73,
            "name": "C#5",
            "ticks": 240048,
            "time": 312.5625,
            "velocity": 0.13385826771653545
          },
          {
            "duration": 0.0625,
            "durationTicks": 48,
            "midi": 70,
            "name": "A#4",
            "ticks": 240048,
            "time": 312.5625,
            "velocity": 0.13385826771653545
          },
          {
            "duration": 0.0625,
            "durationTicks": 48,
            "midi": 78,
            "name": "F#5",
            "ticks": 240096,
            "time": 312.625,
            "velocity": 0.13385826771653545
          },
          {
            "duration": 0.0625,
            "durationTicks": 48,
            "midi": 73,
            "name": "C#5",
            "ticks": 240096,
            "time": 312.625,
            "velocity": 0.13385826771653545
          },
          {
            "duration": 0.0625,
            "durationTicks": 48,
            "midi": 70,
            "name": "A#4",
            "ticks": 240096,
            "time": 312.625,
            "velocity": 0.13385826771653545
          },
          {
            "duration": 0.0625,
            "durationTicks": 48,
            "midi": 70,
            "name": "A#4",
            "ticks": 240144,
            "time": 312.6875,
            "velocity": 0.13385826771653545
          },
          {
            "duration": 0.0625,
            "durationTicks": 48,
            "midi": 73,
            "name": "C#5",
            "ticks": 240144,
            "time": 312.6875,
            "velocity": 0.13385826771653545
          },
          {
            "duration": 0.0625,
            "durationTicks": 48,
            "midi": 78,
            "name": "F#5",
            "ticks": 240144,
            "time": 312.6875,
            "velocity": 0.13385826771653545
          },
          {
            "duration": 0.0625,
            "durationTicks": 48,
            "midi": 73,
            "name": "C#5",
            "ticks": 240192,
            "time": 312.75,
            "velocity": 0.13385826771653545
          },
          {
            "duration": 0.0625,
            "durationTicks": 48,
            "midi": 70,
            "name": "A#4",
            "ticks": 240192,
            "time": 312.75,
            "velocity": 0.13385826771653545
          },
          {
            "duration": 0.0625,
            "durationTicks": 48,
            "midi": 78,
            "name": "F#5",
            "ticks": 240192,
            "time": 312.75,
            "velocity": 0.13385826771653545
          },
          {
            "duration": 0.0625,
            "durationTicks": 48,
            "midi": 73,
            "name": "C#5",
            "ticks": 240240,
            "time": 312.8125,
            "velocity": 0.13385826771653545
          },
          {
            "duration": 0.0625,
            "durationTicks": 48,
            "midi": 70,
            "name": "A#4",
            "ticks": 240240,
            "time": 312.8125,
            "velocity": 0.13385826771653545
          },
          {
            "duration": 0.0625,
            "durationTicks": 48,
            "midi": 78,
            "name": "F#5",
            "ticks": 240240,
            "time": 312.8125,
            "velocity": 0.13385826771653545
          },
          {
            "duration": 0.0625,
            "durationTicks": 48,
            "midi": 78,
            "name": "F#5",
            "ticks": 240288,
            "time": 312.875,
            "velocity": 0.13385826771653545
          },
          {
            "duration": 0.0625,
            "durationTicks": 48,
            "midi": 73,
            "name": "C#5",
            "ticks": 240288,
            "time": 312.875,
            "velocity": 0.13385826771653545
          },
          {
            "duration": 0.0625,
            "durationTicks": 48,
            "midi": 70,
            "name": "A#4",
            "ticks": 240288,
            "time": 312.875,
            "velocity": 0.13385826771653545
          },
          {
            "duration": 0.0625,
            "durationTicks": 48,
            "midi": 73,
            "name": "C#5",
            "ticks": 240336,
            "time": 312.9375,
            "velocity": 0.13385826771653545
          },
          {
            "duration": 0.0625,
            "durationTicks": 48,
            "midi": 70,
            "name": "A#4",
            "ticks": 240336,
            "time": 312.9375,
            "velocity": 0.13385826771653545
          },
          {
            "duration": 0.0625,
            "durationTicks": 48,
            "midi": 78,
            "name": "F#5",
            "ticks": 240336,
            "time": 312.9375,
            "velocity": 0.13385826771653545
          },
          {
            "duration": 0.0625,
            "durationTicks": 48,
            "midi": 78,
            "name": "F#5",
            "ticks": 240384,
            "time": 313,
            "velocity": 0.13385826771653545
          },
          {
            "duration": 0.0625,
            "durationTicks": 48,
            "midi": 70,
            "name": "A#4",
            "ticks": 240384,
            "time": 313,
            "velocity": 0.13385826771653545
          },
          {
            "duration": 0.0625,
            "durationTicks": 48,
            "midi": 73,
            "name": "C#5",
            "ticks": 240384,
            "time": 313,
            "velocity": 0.13385826771653545
          },
          {
            "duration": 0.0625,
            "durationTicks": 48,
            "midi": 78,
            "name": "F#5",
            "ticks": 240432,
            "time": 313.0625,
            "velocity": 0.13385826771653545
          },
          {
            "duration": 0.0625,
            "durationTicks": 48,
            "midi": 70,
            "name": "A#4",
            "ticks": 240432,
            "time": 313.0625,
            "velocity": 0.13385826771653545
          },
          {
            "duration": 0.0625,
            "durationTicks": 48,
            "midi": 73,
            "name": "C#5",
            "ticks": 240432,
            "time": 313.0625,
            "velocity": 0.13385826771653545
          },
          {
            "duration": 0.0625,
            "durationTicks": 48,
            "midi": 73,
            "name": "C#5",
            "ticks": 240480,
            "time": 313.125,
            "velocity": 0.13385826771653545
          },
          {
            "duration": 0.0625,
            "durationTicks": 48,
            "midi": 70,
            "name": "A#4",
            "ticks": 240480,
            "time": 313.125,
            "velocity": 0.13385826771653545
          },
          {
            "duration": 0.0625,
            "durationTicks": 48,
            "midi": 78,
            "name": "F#5",
            "ticks": 240480,
            "time": 313.125,
            "velocity": 0.13385826771653545
          },
          {
            "duration": 0.0625,
            "durationTicks": 48,
            "midi": 78,
            "name": "F#5",
            "ticks": 240528,
            "time": 313.1875,
            "velocity": 0.13385826771653545
          },
          {
            "duration": 0.0625,
            "durationTicks": 48,
            "midi": 73,
            "name": "C#5",
            "ticks": 240528,
            "time": 313.1875,
            "velocity": 0.13385826771653545
          },
          {
            "duration": 0.0625,
            "durationTicks": 48,
            "midi": 70,
            "name": "A#4",
            "ticks": 240528,
            "time": 313.1875,
            "velocity": 0.13385826771653545
          },
          {
            "duration": 0.0625,
            "durationTicks": 48,
            "midi": 73,
            "name": "C#5",
            "ticks": 240576,
            "time": 313.25,
            "velocity": 0.13385826771653545
          },
          {
            "duration": 0.0625,
            "durationTicks": 48,
            "midi": 78,
            "name": "F#5",
            "ticks": 240576,
            "time": 313.25,
            "velocity": 0.13385826771653545
          },
          {
            "duration": 0.0625,
            "durationTicks": 48,
            "midi": 70,
            "name": "A#4",
            "ticks": 240576,
            "time": 313.25,
            "velocity": 0.13385826771653545
          },
          {
            "duration": 0.0625,
            "durationTicks": 48,
            "midi": 70,
            "name": "A#4",
            "ticks": 240624,
            "time": 313.3125,
            "velocity": 0.13385826771653545
          },
          {
            "duration": 0.0625,
            "durationTicks": 48,
            "midi": 78,
            "name": "F#5",
            "ticks": 240624,
            "time": 313.3125,
            "velocity": 0.13385826771653545
          },
          {
            "duration": 0.0625,
            "durationTicks": 48,
            "midi": 73,
            "name": "C#5",
            "ticks": 240624,
            "time": 313.3125,
            "velocity": 0.13385826771653545
          },
          {
            "duration": 0.0625,
            "durationTicks": 48,
            "midi": 78,
            "name": "F#5",
            "ticks": 240672,
            "time": 313.375,
            "velocity": 0.13385826771653545
          },
          {
            "duration": 0.0625,
            "durationTicks": 48,
            "midi": 73,
            "name": "C#5",
            "ticks": 240672,
            "time": 313.375,
            "velocity": 0.13385826771653545
          },
          {
            "duration": 0.0625,
            "durationTicks": 48,
            "midi": 70,
            "name": "A#4",
            "ticks": 240672,
            "time": 313.375,
            "velocity": 0.13385826771653545
          },
          {
            "duration": 0.0625,
            "durationTicks": 48,
            "midi": 70,
            "name": "A#4",
            "ticks": 240720,
            "time": 313.4375,
            "velocity": 0.13385826771653545
          },
          {
            "duration": 0.0625,
            "durationTicks": 48,
            "midi": 73,
            "name": "C#5",
            "ticks": 240720,
            "time": 313.4375,
            "velocity": 0.13385826771653545
          },
          {
            "duration": 0.0625,
            "durationTicks": 48,
            "midi": 78,
            "name": "F#5",
            "ticks": 240720,
            "time": 313.4375,
            "velocity": 0.13385826771653545
          },
          {
            "duration": 0.0625,
            "durationTicks": 48,
            "midi": 70,
            "name": "A#4",
            "ticks": 240768,
            "time": 313.5,
            "velocity": 0.13385826771653545
          },
          {
            "duration": 0.0625,
            "durationTicks": 48,
            "midi": 73,
            "name": "C#5",
            "ticks": 240768,
            "time": 313.5,
            "velocity": 0.13385826771653545
          },
          {
            "duration": 0.0625,
            "durationTicks": 48,
            "midi": 78,
            "name": "F#5",
            "ticks": 240768,
            "time": 313.5,
            "velocity": 0.13385826771653545
          },
          {
            "duration": 0.0625,
            "durationTicks": 48,
            "midi": 78,
            "name": "F#5",
            "ticks": 240816,
            "time": 313.5625,
            "velocity": 0.13385826771653545
          },
          {
            "duration": 0.0625,
            "durationTicks": 48,
            "midi": 73,
            "name": "C#5",
            "ticks": 240816,
            "time": 313.5625,
            "velocity": 0.13385826771653545
          },
          {
            "duration": 0.0625,
            "durationTicks": 48,
            "midi": 70,
            "name": "A#4",
            "ticks": 240816,
            "time": 313.5625,
            "velocity": 0.13385826771653545
          },
          {
            "duration": 0.0625,
            "durationTicks": 48,
            "midi": 70,
            "name": "A#4",
            "ticks": 240864,
            "time": 313.625,
            "velocity": 0.13385826771653545
          },
          {
            "duration": 0.0625,
            "durationTicks": 48,
            "midi": 78,
            "name": "F#5",
            "ticks": 240864,
            "time": 313.625,
            "velocity": 0.13385826771653545
          },
          {
            "duration": 0.0625,
            "durationTicks": 48,
            "midi": 73,
            "name": "C#5",
            "ticks": 240864,
            "time": 313.625,
            "velocity": 0.13385826771653545
          },
          {
            "duration": 0.0625,
            "durationTicks": 48,
            "midi": 70,
            "name": "A#4",
            "ticks": 240912,
            "time": 313.6875,
            "velocity": 0.13385826771653545
          },
          {
            "duration": 0.0625,
            "durationTicks": 48,
            "midi": 78,
            "name": "F#5",
            "ticks": 240912,
            "time": 313.6875,
            "velocity": 0.13385826771653545
          },
          {
            "duration": 0.0625,
            "durationTicks": 48,
            "midi": 73,
            "name": "C#5",
            "ticks": 240912,
            "time": 313.6875,
            "velocity": 0.13385826771653545
          },
          {
            "duration": 0.0625,
            "durationTicks": 48,
            "midi": 78,
            "name": "F#5",
            "ticks": 240960,
            "time": 313.75,
            "velocity": 0.13385826771653545
          },
          {
            "duration": 0.0625,
            "durationTicks": 48,
            "midi": 70,
            "name": "A#4",
            "ticks": 240960,
            "time": 313.75,
            "velocity": 0.13385826771653545
          },
          {
            "duration": 0.0625,
            "durationTicks": 48,
            "midi": 73,
            "name": "C#5",
            "ticks": 240960,
            "time": 313.75,
            "velocity": 0.13385826771653545
          },
          {
            "duration": 0.0625,
            "durationTicks": 48,
            "midi": 73,
            "name": "C#5",
            "ticks": 241008,
            "time": 313.8125,
            "velocity": 0.13385826771653545
          },
          {
            "duration": 0.0625,
            "durationTicks": 48,
            "midi": 78,
            "name": "F#5",
            "ticks": 241008,
            "time": 313.8125,
            "velocity": 0.13385826771653545
          },
          {
            "duration": 0.0625,
            "durationTicks": 48,
            "midi": 70,
            "name": "A#4",
            "ticks": 241008,
            "time": 313.8125,
            "velocity": 0.13385826771653545
          },
          {
            "duration": 0.0625,
            "durationTicks": 48,
            "midi": 73,
            "name": "C#5",
            "ticks": 241056,
            "time": 313.875,
            "velocity": 0.13385826771653545
          },
          {
            "duration": 0.0625,
            "durationTicks": 48,
            "midi": 76,
            "name": "E5",
            "ticks": 241056,
            "time": 313.875,
            "velocity": 0.13385826771653545
          },
          {
            "duration": 0.0625,
            "durationTicks": 48,
            "midi": 80,
            "name": "G#5",
            "ticks": 241056,
            "time": 313.875,
            "velocity": 0.13385826771653545
          },
          {
            "duration": 0.0625,
            "durationTicks": 48,
            "midi": 80,
            "name": "G#5",
            "ticks": 241104,
            "time": 313.9375,
            "velocity": 0.13385826771653545
          },
          {
            "duration": 0.0625,
            "durationTicks": 48,
            "midi": 76,
            "name": "E5",
            "ticks": 241104,
            "time": 313.9375,
            "velocity": 0.13385826771653545
          },
          {
            "duration": 0.0625,
            "durationTicks": 48,
            "midi": 73,
            "name": "C#5",
            "ticks": 241104,
            "time": 313.9375,
            "velocity": 0.13385826771653545
          },
          {
            "duration": 0.0625,
            "durationTicks": 48,
            "midi": 80,
            "name": "G#5",
            "ticks": 241152,
            "time": 314,
            "velocity": 0.13385826771653545
          },
          {
            "duration": 0.0625,
            "durationTicks": 48,
            "midi": 73,
            "name": "C#5",
            "ticks": 241152,
            "time": 314,
            "velocity": 0.13385826771653545
          },
          {
            "duration": 0.0625,
            "durationTicks": 48,
            "midi": 76,
            "name": "E5",
            "ticks": 241152,
            "time": 314,
            "velocity": 0.13385826771653545
          },
          {
            "duration": 0.0625,
            "durationTicks": 48,
            "midi": 73,
            "name": "C#5",
            "ticks": 241200,
            "time": 314.0625,
            "velocity": 0.13385826771653545
          },
          {
            "duration": 0.0625,
            "durationTicks": 48,
            "midi": 80,
            "name": "G#5",
            "ticks": 241200,
            "time": 314.0625,
            "velocity": 0.13385826771653545
          },
          {
            "duration": 0.0625,
            "durationTicks": 48,
            "midi": 76,
            "name": "E5",
            "ticks": 241200,
            "time": 314.0625,
            "velocity": 0.13385826771653545
          },
          {
            "duration": 0.0625,
            "durationTicks": 48,
            "midi": 73,
            "name": "C#5",
            "ticks": 241248,
            "time": 314.125,
            "velocity": 0.13385826771653545
          },
          {
            "duration": 0.0625,
            "durationTicks": 48,
            "midi": 76,
            "name": "E5",
            "ticks": 241248,
            "time": 314.125,
            "velocity": 0.13385826771653545
          },
          {
            "duration": 0.0625,
            "durationTicks": 48,
            "midi": 80,
            "name": "G#5",
            "ticks": 241248,
            "time": 314.125,
            "velocity": 0.13385826771653545
          },
          {
            "duration": 0.0625,
            "durationTicks": 48,
            "midi": 73,
            "name": "C#5",
            "ticks": 241296,
            "time": 314.1875,
            "velocity": 0.13385826771653545
          },
          {
            "duration": 0.0625,
            "durationTicks": 48,
            "midi": 76,
            "name": "E5",
            "ticks": 241296,
            "time": 314.1875,
            "velocity": 0.13385826771653545
          },
          {
            "duration": 0.0625,
            "durationTicks": 48,
            "midi": 80,
            "name": "G#5",
            "ticks": 241296,
            "time": 314.1875,
            "velocity": 0.13385826771653545
          },
          {
            "duration": 0.0625,
            "durationTicks": 48,
            "midi": 80,
            "name": "G#5",
            "ticks": 241344,
            "time": 314.25,
            "velocity": 0.13385826771653545
          },
          {
            "duration": 0.0625,
            "durationTicks": 48,
            "midi": 76,
            "name": "E5",
            "ticks": 241344,
            "time": 314.25,
            "velocity": 0.13385826771653545
          },
          {
            "duration": 0.0625,
            "durationTicks": 48,
            "midi": 73,
            "name": "C#5",
            "ticks": 241344,
            "time": 314.25,
            "velocity": 0.13385826771653545
          },
          {
            "duration": 0.0625,
            "durationTicks": 48,
            "midi": 73,
            "name": "C#5",
            "ticks": 241392,
            "time": 314.3125,
            "velocity": 0.13385826771653545
          },
          {
            "duration": 0.0625,
            "durationTicks": 48,
            "midi": 76,
            "name": "E5",
            "ticks": 241392,
            "time": 314.3125,
            "velocity": 0.13385826771653545
          },
          {
            "duration": 0.0625,
            "durationTicks": 48,
            "midi": 80,
            "name": "G#5",
            "ticks": 241392,
            "time": 314.3125,
            "velocity": 0.13385826771653545
          },
          {
            "duration": 0.0625,
            "durationTicks": 48,
            "midi": 76,
            "name": "E5",
            "ticks": 241440,
            "time": 314.375,
            "velocity": 0.13385826771653545
          },
          {
            "duration": 0.0625,
            "durationTicks": 48,
            "midi": 73,
            "name": "C#5",
            "ticks": 241440,
            "time": 314.375,
            "velocity": 0.13385826771653545
          },
          {
            "duration": 0.0625,
            "durationTicks": 48,
            "midi": 80,
            "name": "G#5",
            "ticks": 241440,
            "time": 314.375,
            "velocity": 0.13385826771653545
          },
          {
            "duration": 0.0625,
            "durationTicks": 48,
            "midi": 80,
            "name": "G#5",
            "ticks": 241488,
            "time": 314.4375,
            "velocity": 0.13385826771653545
          },
          {
            "duration": 0.0625,
            "durationTicks": 48,
            "midi": 76,
            "name": "E5",
            "ticks": 241488,
            "time": 314.4375,
            "velocity": 0.13385826771653545
          },
          {
            "duration": 0.0625,
            "durationTicks": 48,
            "midi": 73,
            "name": "C#5",
            "ticks": 241488,
            "time": 314.4375,
            "velocity": 0.13385826771653545
          },
          {
            "duration": 0.0625,
            "durationTicks": 48,
            "midi": 80,
            "name": "G#5",
            "ticks": 241536,
            "time": 314.5,
            "velocity": 0.13385826771653545
          },
          {
            "duration": 0.0625,
            "durationTicks": 48,
            "midi": 76,
            "name": "E5",
            "ticks": 241536,
            "time": 314.5,
            "velocity": 0.13385826771653545
          },
          {
            "duration": 0.0625,
            "durationTicks": 48,
            "midi": 73,
            "name": "C#5",
            "ticks": 241536,
            "time": 314.5,
            "velocity": 0.13385826771653545
          },
          {
            "duration": 0.0625,
            "durationTicks": 48,
            "midi": 76,
            "name": "E5",
            "ticks": 241584,
            "time": 314.5625,
            "velocity": 0.13385826771653545
          },
          {
            "duration": 0.0625,
            "durationTicks": 48,
            "midi": 73,
            "name": "C#5",
            "ticks": 241584,
            "time": 314.5625,
            "velocity": 0.13385826771653545
          },
          {
            "duration": 0.0625,
            "durationTicks": 48,
            "midi": 80,
            "name": "G#5",
            "ticks": 241584,
            "time": 314.5625,
            "velocity": 0.13385826771653545
          },
          {
            "duration": 0.0625,
            "durationTicks": 48,
            "midi": 73,
            "name": "C#5",
            "ticks": 241632,
            "time": 314.625,
            "velocity": 0.13385826771653545
          },
          {
            "duration": 0.0625,
            "durationTicks": 48,
            "midi": 80,
            "name": "G#5",
            "ticks": 241632,
            "time": 314.625,
            "velocity": 0.13385826771653545
          },
          {
            "duration": 0.0625,
            "durationTicks": 48,
            "midi": 76,
            "name": "E5",
            "ticks": 241632,
            "time": 314.625,
            "velocity": 0.13385826771653545
          },
          {
            "duration": 0.0625,
            "durationTicks": 48,
            "midi": 76,
            "name": "E5",
            "ticks": 241680,
            "time": 314.6875,
            "velocity": 0.13385826771653545
          },
          {
            "duration": 0.0625,
            "durationTicks": 48,
            "midi": 80,
            "name": "G#5",
            "ticks": 241680,
            "time": 314.6875,
            "velocity": 0.13385826771653545
          },
          {
            "duration": 0.0625,
            "durationTicks": 48,
            "midi": 73,
            "name": "C#5",
            "ticks": 241680,
            "time": 314.6875,
            "velocity": 0.13385826771653545
          },
          {
            "duration": 0.0625,
            "durationTicks": 48,
            "midi": 76,
            "name": "E5",
            "ticks": 241728,
            "time": 314.75,
            "velocity": 0.13385826771653545
          },
          {
            "duration": 0.0625,
            "durationTicks": 48,
            "midi": 73,
            "name": "C#5",
            "ticks": 241728,
            "time": 314.75,
            "velocity": 0.13385826771653545
          },
          {
            "duration": 0.0625,
            "durationTicks": 48,
            "midi": 80,
            "name": "G#5",
            "ticks": 241728,
            "time": 314.75,
            "velocity": 0.13385826771653545
          },
          {
            "duration": 0.0625,
            "durationTicks": 48,
            "midi": 80,
            "name": "G#5",
            "ticks": 241776,
            "time": 314.8125,
            "velocity": 0.13385826771653545
          },
          {
            "duration": 0.0625,
            "durationTicks": 48,
            "midi": 73,
            "name": "C#5",
            "ticks": 241776,
            "time": 314.8125,
            "velocity": 0.13385826771653545
          },
          {
            "duration": 0.0625,
            "durationTicks": 48,
            "midi": 76,
            "name": "E5",
            "ticks": 241776,
            "time": 314.8125,
            "velocity": 0.13385826771653545
          },
          {
            "duration": 0.0625,
            "durationTicks": 48,
            "midi": 80,
            "name": "G#5",
            "ticks": 241824,
            "time": 314.875,
            "velocity": 0.13385826771653545
          },
          {
            "duration": 0.0625,
            "durationTicks": 48,
            "midi": 73,
            "name": "C#5",
            "ticks": 241824,
            "time": 314.875,
            "velocity": 0.13385826771653545
          },
          {
            "duration": 0.0625,
            "durationTicks": 48,
            "midi": 76,
            "name": "E5",
            "ticks": 241824,
            "time": 314.875,
            "velocity": 0.13385826771653545
          },
          {
            "duration": 0.0625,
            "durationTicks": 48,
            "midi": 73,
            "name": "C#5",
            "ticks": 241872,
            "time": 314.9375,
            "velocity": 0.13385826771653545
          },
          {
            "duration": 0.0625,
            "durationTicks": 48,
            "midi": 80,
            "name": "G#5",
            "ticks": 241872,
            "time": 314.9375,
            "velocity": 0.13385826771653545
          },
          {
            "duration": 0.0625,
            "durationTicks": 48,
            "midi": 76,
            "name": "E5",
            "ticks": 241872,
            "time": 314.9375,
            "velocity": 0.13385826771653545
          },
          {
            "duration": 0.0625,
            "durationTicks": 48,
            "midi": 80,
            "name": "G#5",
            "ticks": 241920,
            "time": 315,
            "velocity": 0.13385826771653545
          },
          {
            "duration": 0.0625,
            "durationTicks": 48,
            "midi": 73,
            "name": "C#5",
            "ticks": 241920,
            "time": 315,
            "velocity": 0.13385826771653545
          },
          {
            "duration": 0.0625,
            "durationTicks": 48,
            "midi": 76,
            "name": "E5",
            "ticks": 241920,
            "time": 315,
            "velocity": 0.13385826771653545
          },
          {
            "duration": 0.0625,
            "durationTicks": 48,
            "midi": 76,
            "name": "E5",
            "ticks": 241968,
            "time": 315.0625,
            "velocity": 0.13385826771653545
          },
          {
            "duration": 0.0625,
            "durationTicks": 48,
            "midi": 80,
            "name": "G#5",
            "ticks": 241968,
            "time": 315.0625,
            "velocity": 0.13385826771653545
          },
          {
            "duration": 0.0625,
            "durationTicks": 48,
            "midi": 73,
            "name": "C#5",
            "ticks": 241968,
            "time": 315.0625,
            "velocity": 0.13385826771653545
          },
          {
            "duration": 0.0625,
            "durationTicks": 48,
            "midi": 80,
            "name": "G#5",
            "ticks": 242016,
            "time": 315.125,
            "velocity": 0.13385826771653545
          },
          {
            "duration": 0.0625,
            "durationTicks": 48,
            "midi": 73,
            "name": "C#5",
            "ticks": 242016,
            "time": 315.125,
            "velocity": 0.13385826771653545
          },
          {
            "duration": 0.0625,
            "durationTicks": 48,
            "midi": 76,
            "name": "E5",
            "ticks": 242016,
            "time": 315.125,
            "velocity": 0.13385826771653545
          },
          {
            "duration": 0.0625,
            "durationTicks": 48,
            "midi": 76,
            "name": "E5",
            "ticks": 242064,
            "time": 315.1875,
            "velocity": 0.13385826771653545
          },
          {
            "duration": 0.0625,
            "durationTicks": 48,
            "midi": 73,
            "name": "C#5",
            "ticks": 242064,
            "time": 315.1875,
            "velocity": 0.13385826771653545
          },
          {
            "duration": 0.0625,
            "durationTicks": 48,
            "midi": 80,
            "name": "G#5",
            "ticks": 242064,
            "time": 315.1875,
            "velocity": 0.13385826771653545
          },
          {
            "duration": 0.0625,
            "durationTicks": 48,
            "midi": 76,
            "name": "E5",
            "ticks": 242112,
            "time": 315.25,
            "velocity": 0.13385826771653545
          },
          {
            "duration": 0.0625,
            "durationTicks": 48,
            "midi": 80,
            "name": "G#5",
            "ticks": 242112,
            "time": 315.25,
            "velocity": 0.13385826771653545
          },
          {
            "duration": 0.0625,
            "durationTicks": 48,
            "midi": 73,
            "name": "C#5",
            "ticks": 242112,
            "time": 315.25,
            "velocity": 0.13385826771653545
          },
          {
            "duration": 0.0625,
            "durationTicks": 48,
            "midi": 80,
            "name": "G#5",
            "ticks": 242160,
            "time": 315.3125,
            "velocity": 0.13385826771653545
          },
          {
            "duration": 0.0625,
            "durationTicks": 48,
            "midi": 76,
            "name": "E5",
            "ticks": 242160,
            "time": 315.3125,
            "velocity": 0.13385826771653545
          },
          {
            "duration": 0.0625,
            "durationTicks": 48,
            "midi": 73,
            "name": "C#5",
            "ticks": 242160,
            "time": 315.3125,
            "velocity": 0.13385826771653545
          },
          {
            "duration": 0.0625,
            "durationTicks": 48,
            "midi": 73,
            "name": "C#5",
            "ticks": 242208,
            "time": 315.375,
            "velocity": 0.13385826771653545
          },
          {
            "duration": 0.0625,
            "durationTicks": 48,
            "midi": 76,
            "name": "E5",
            "ticks": 242208,
            "time": 315.375,
            "velocity": 0.13385826771653545
          },
          {
            "duration": 0.0625,
            "durationTicks": 48,
            "midi": 80,
            "name": "G#5",
            "ticks": 242208,
            "time": 315.375,
            "velocity": 0.13385826771653545
          },
          {
            "duration": 0.0625,
            "durationTicks": 48,
            "midi": 76,
            "name": "E5",
            "ticks": 242256,
            "time": 315.4375,
            "velocity": 0.13385826771653545
          },
          {
            "duration": 0.0625,
            "durationTicks": 48,
            "midi": 80,
            "name": "G#5",
            "ticks": 242256,
            "time": 315.4375,
            "velocity": 0.13385826771653545
          },
          {
            "duration": 0.0625,
            "durationTicks": 48,
            "midi": 73,
            "name": "C#5",
            "ticks": 242256,
            "time": 315.4375,
            "velocity": 0.13385826771653545
          },
          {
            "duration": 0.0625,
            "durationTicks": 48,
            "midi": 73,
            "name": "C#5",
            "ticks": 242304,
            "time": 315.5,
            "velocity": 0.13385826771653545
          },
          {
            "duration": 0.0625,
            "durationTicks": 48,
            "midi": 76,
            "name": "E5",
            "ticks": 242304,
            "time": 315.5,
            "velocity": 0.13385826771653545
          },
          {
            "duration": 0.0625,
            "durationTicks": 48,
            "midi": 80,
            "name": "G#5",
            "ticks": 242304,
            "time": 315.5,
            "velocity": 0.13385826771653545
          },
          {
            "duration": 0.0625,
            "durationTicks": 48,
            "midi": 73,
            "name": "C#5",
            "ticks": 242352,
            "time": 315.5625,
            "velocity": 0.13385826771653545
          },
          {
            "duration": 0.0625,
            "durationTicks": 48,
            "midi": 80,
            "name": "G#5",
            "ticks": 242352,
            "time": 315.5625,
            "velocity": 0.13385826771653545
          },
          {
            "duration": 0.0625,
            "durationTicks": 48,
            "midi": 76,
            "name": "E5",
            "ticks": 242352,
            "time": 315.5625,
            "velocity": 0.13385826771653545
          },
          {
            "duration": 0.0625,
            "durationTicks": 48,
            "midi": 73,
            "name": "C#5",
            "ticks": 242400,
            "time": 315.625,
            "velocity": 0.13385826771653545
          },
          {
            "duration": 0.0625,
            "durationTicks": 48,
            "midi": 80,
            "name": "G#5",
            "ticks": 242400,
            "time": 315.625,
            "velocity": 0.13385826771653545
          },
          {
            "duration": 0.0625,
            "durationTicks": 48,
            "midi": 76,
            "name": "E5",
            "ticks": 242400,
            "time": 315.625,
            "velocity": 0.13385826771653545
          },
          {
            "duration": 0.0625,
            "durationTicks": 48,
            "midi": 80,
            "name": "G#5",
            "ticks": 242448,
            "time": 315.6875,
            "velocity": 0.13385826771653545
          },
          {
            "duration": 0.0625,
            "durationTicks": 48,
            "midi": 76,
            "name": "E5",
            "ticks": 242448,
            "time": 315.6875,
            "velocity": 0.13385826771653545
          },
          {
            "duration": 0.0625,
            "durationTicks": 48,
            "midi": 73,
            "name": "C#5",
            "ticks": 242448,
            "time": 315.6875,
            "velocity": 0.13385826771653545
          },
          {
            "duration": 0.0625,
            "durationTicks": 48,
            "midi": 76,
            "name": "E5",
            "ticks": 242496,
            "time": 315.75,
            "velocity": 0.13385826771653545
          },
          {
            "duration": 0.0625,
            "durationTicks": 48,
            "midi": 80,
            "name": "G#5",
            "ticks": 242496,
            "time": 315.75,
            "velocity": 0.13385826771653545
          },
          {
            "duration": 0.0625,
            "durationTicks": 48,
            "midi": 73,
            "name": "C#5",
            "ticks": 242496,
            "time": 315.75,
            "velocity": 0.13385826771653545
          },
          {
            "duration": 0.0625,
            "durationTicks": 48,
            "midi": 76,
            "name": "E5",
            "ticks": 242544,
            "time": 315.8125,
            "velocity": 0.13385826771653545
          },
          {
            "duration": 0.0625,
            "durationTicks": 48,
            "midi": 73,
            "name": "C#5",
            "ticks": 242544,
            "time": 315.8125,
            "velocity": 0.13385826771653545
          },
          {
            "duration": 0.0625,
            "durationTicks": 48,
            "midi": 80,
            "name": "G#5",
            "ticks": 242544,
            "time": 315.8125,
            "velocity": 0.13385826771653545
          },
          {
            "duration": 0.0625,
            "durationTicks": 48,
            "midi": 73,
            "name": "C#5",
            "ticks": 242592,
            "time": 315.875,
            "velocity": 0.13385826771653545
          },
          {
            "duration": 0.0625,
            "durationTicks": 48,
            "midi": 76,
            "name": "E5",
            "ticks": 242592,
            "time": 315.875,
            "velocity": 0.13385826771653545
          },
          {
            "duration": 0.0625,
            "durationTicks": 48,
            "midi": 81,
            "name": "A5",
            "ticks": 242592,
            "time": 315.875,
            "velocity": 0.13385826771653545
          },
          {
            "duration": 0.0625,
            "durationTicks": 48,
            "midi": 76,
            "name": "E5",
            "ticks": 242640,
            "time": 315.9375,
            "velocity": 0.13385826771653545
          },
          {
            "duration": 0.0625,
            "durationTicks": 48,
            "midi": 73,
            "name": "C#5",
            "ticks": 242640,
            "time": 315.9375,
            "velocity": 0.13385826771653545
          },
          {
            "duration": 0.0625,
            "durationTicks": 48,
            "midi": 81,
            "name": "A5",
            "ticks": 242640,
            "time": 315.9375,
            "velocity": 0.13385826771653545
          },
          {
            "duration": 0.0625,
            "durationTicks": 48,
            "midi": 81,
            "name": "A5",
            "ticks": 242688,
            "time": 316,
            "velocity": 0.13385826771653545
          },
          {
            "duration": 0.0625,
            "durationTicks": 48,
            "midi": 73,
            "name": "C#5",
            "ticks": 242688,
            "time": 316,
            "velocity": 0.13385826771653545
          },
          {
            "duration": 0.0625,
            "durationTicks": 48,
            "midi": 76,
            "name": "E5",
            "ticks": 242688,
            "time": 316,
            "velocity": 0.13385826771653545
          },
          {
            "duration": 0.0625,
            "durationTicks": 48,
            "midi": 73,
            "name": "C#5",
            "ticks": 242736,
            "time": 316.0625,
            "velocity": 0.13385826771653545
          },
          {
            "duration": 0.0625,
            "durationTicks": 48,
            "midi": 76,
            "name": "E5",
            "ticks": 242736,
            "time": 316.0625,
            "velocity": 0.13385826771653545
          },
          {
            "duration": 0.0625,
            "durationTicks": 48,
            "midi": 81,
            "name": "A5",
            "ticks": 242736,
            "time": 316.0625,
            "velocity": 0.13385826771653545
          },
          {
            "duration": 0.0625,
            "durationTicks": 48,
            "midi": 73,
            "name": "C#5",
            "ticks": 242784,
            "time": 316.125,
            "velocity": 0.13385826771653545
          },
          {
            "duration": 0.0625,
            "durationTicks": 48,
            "midi": 81,
            "name": "A5",
            "ticks": 242784,
            "time": 316.125,
            "velocity": 0.13385826771653545
          },
          {
            "duration": 0.0625,
            "durationTicks": 48,
            "midi": 76,
            "name": "E5",
            "ticks": 242784,
            "time": 316.125,
            "velocity": 0.13385826771653545
          },
          {
            "duration": 0.0625,
            "durationTicks": 48,
            "midi": 81,
            "name": "A5",
            "ticks": 242832,
            "time": 316.1875,
            "velocity": 0.13385826771653545
          },
          {
            "duration": 0.0625,
            "durationTicks": 48,
            "midi": 76,
            "name": "E5",
            "ticks": 242832,
            "time": 316.1875,
            "velocity": 0.13385826771653545
          },
          {
            "duration": 0.0625,
            "durationTicks": 48,
            "midi": 73,
            "name": "C#5",
            "ticks": 242832,
            "time": 316.1875,
            "velocity": 0.13385826771653545
          },
          {
            "duration": 0.0625,
            "durationTicks": 48,
            "midi": 73,
            "name": "C#5",
            "ticks": 242880,
            "time": 316.25,
            "velocity": 0.13385826771653545
          },
          {
            "duration": 0.0625,
            "durationTicks": 48,
            "midi": 76,
            "name": "E5",
            "ticks": 242880,
            "time": 316.25,
            "velocity": 0.13385826771653545
          },
          {
            "duration": 0.0625,
            "durationTicks": 48,
            "midi": 81,
            "name": "A5",
            "ticks": 242880,
            "time": 316.25,
            "velocity": 0.13385826771653545
          },
          {
            "duration": 0.0625,
            "durationTicks": 48,
            "midi": 76,
            "name": "E5",
            "ticks": 242928,
            "time": 316.3125,
            "velocity": 0.13385826771653545
          },
          {
            "duration": 0.0625,
            "durationTicks": 48,
            "midi": 73,
            "name": "C#5",
            "ticks": 242928,
            "time": 316.3125,
            "velocity": 0.13385826771653545
          },
          {
            "duration": 0.0625,
            "durationTicks": 48,
            "midi": 81,
            "name": "A5",
            "ticks": 242928,
            "time": 316.3125,
            "velocity": 0.13385826771653545
          },
          {
            "duration": 0.0625,
            "durationTicks": 48,
            "midi": 76,
            "name": "E5",
            "ticks": 242976,
            "time": 316.375,
            "velocity": 0.13385826771653545
          },
          {
            "duration": 0.0625,
            "durationTicks": 48,
            "midi": 81,
            "name": "A5",
            "ticks": 242976,
            "time": 316.375,
            "velocity": 0.13385826771653545
          },
          {
            "duration": 0.0625,
            "durationTicks": 48,
            "midi": 73,
            "name": "C#5",
            "ticks": 242976,
            "time": 316.375,
            "velocity": 0.13385826771653545
          },
          {
            "duration": 0.0625,
            "durationTicks": 48,
            "midi": 73,
            "name": "C#5",
            "ticks": 243024,
            "time": 316.4375,
            "velocity": 0.13385826771653545
          },
          {
            "duration": 0.0625,
            "durationTicks": 48,
            "midi": 81,
            "name": "A5",
            "ticks": 243024,
            "time": 316.4375,
            "velocity": 0.13385826771653545
          },
          {
            "duration": 0.0625,
            "durationTicks": 48,
            "midi": 76,
            "name": "E5",
            "ticks": 243024,
            "time": 316.4375,
            "velocity": 0.13385826771653545
          },
          {
            "duration": 0.0625,
            "durationTicks": 48,
            "midi": 81,
            "name": "A5",
            "ticks": 243072,
            "time": 316.5,
            "velocity": 0.13385826771653545
          },
          {
            "duration": 0.0625,
            "durationTicks": 48,
            "midi": 73,
            "name": "C#5",
            "ticks": 243072,
            "time": 316.5,
            "velocity": 0.13385826771653545
          },
          {
            "duration": 0.0625,
            "durationTicks": 48,
            "midi": 76,
            "name": "E5",
            "ticks": 243072,
            "time": 316.5,
            "velocity": 0.13385826771653545
          },
          {
            "duration": 0.0625,
            "durationTicks": 48,
            "midi": 76,
            "name": "E5",
            "ticks": 243120,
            "time": 316.5625,
            "velocity": 0.13385826771653545
          },
          {
            "duration": 0.0625,
            "durationTicks": 48,
            "midi": 73,
            "name": "C#5",
            "ticks": 243120,
            "time": 316.5625,
            "velocity": 0.13385826771653545
          },
          {
            "duration": 0.0625,
            "durationTicks": 48,
            "midi": 81,
            "name": "A5",
            "ticks": 243120,
            "time": 316.5625,
            "velocity": 0.13385826771653545
          },
          {
            "duration": 0.0625,
            "durationTicks": 48,
            "midi": 73,
            "name": "C#5",
            "ticks": 243168,
            "time": 316.625,
            "velocity": 0.13385826771653545
          },
          {
            "duration": 0.0625,
            "durationTicks": 48,
            "midi": 76,
            "name": "E5",
            "ticks": 243168,
            "time": 316.625,
            "velocity": 0.13385826771653545
          },
          {
            "duration": 0.0625,
            "durationTicks": 48,
            "midi": 81,
            "name": "A5",
            "ticks": 243168,
            "time": 316.625,
            "velocity": 0.13385826771653545
          },
          {
            "duration": 0.0625,
            "durationTicks": 48,
            "midi": 73,
            "name": "C#5",
            "ticks": 243216,
            "time": 316.6875,
            "velocity": 0.13385826771653545
          },
          {
            "duration": 0.0625,
            "durationTicks": 48,
            "midi": 76,
            "name": "E5",
            "ticks": 243216,
            "time": 316.6875,
            "velocity": 0.13385826771653545
          },
          {
            "duration": 0.0625,
            "durationTicks": 48,
            "midi": 81,
            "name": "A5",
            "ticks": 243216,
            "time": 316.6875,
            "velocity": 0.13385826771653545
          },
          {
            "duration": 0.0625,
            "durationTicks": 48,
            "midi": 73,
            "name": "C#5",
            "ticks": 243264,
            "time": 316.75,
            "velocity": 0.13385826771653545
          },
          {
            "duration": 0.0625,
            "durationTicks": 48,
            "midi": 81,
            "name": "A5",
            "ticks": 243264,
            "time": 316.75,
            "velocity": 0.13385826771653545
          },
          {
            "duration": 0.0625,
            "durationTicks": 48,
            "midi": 76,
            "name": "E5",
            "ticks": 243264,
            "time": 316.75,
            "velocity": 0.13385826771653545
          },
          {
            "duration": 0.0625,
            "durationTicks": 48,
            "midi": 76,
            "name": "E5",
            "ticks": 243312,
            "time": 316.8125,
            "velocity": 0.13385826771653545
          },
          {
            "duration": 0.0625,
            "durationTicks": 48,
            "midi": 73,
            "name": "C#5",
            "ticks": 243312,
            "time": 316.8125,
            "velocity": 0.13385826771653545
          },
          {
            "duration": 0.0625,
            "durationTicks": 48,
            "midi": 81,
            "name": "A5",
            "ticks": 243312,
            "time": 316.8125,
            "velocity": 0.13385826771653545
          },
          {
            "duration": 0.0625,
            "durationTicks": 48,
            "midi": 76,
            "name": "E5",
            "ticks": 243360,
            "time": 316.875,
            "velocity": 0.13385826771653545
          },
          {
            "duration": 0.0625,
            "durationTicks": 48,
            "midi": 81,
            "name": "A5",
            "ticks": 243360,
            "time": 316.875,
            "velocity": 0.13385826771653545
          },
          {
            "duration": 0.0625,
            "durationTicks": 48,
            "midi": 73,
            "name": "C#5",
            "ticks": 243360,
            "time": 316.875,
            "velocity": 0.13385826771653545
          },
          {
            "duration": 0.0625,
            "durationTicks": 48,
            "midi": 76,
            "name": "E5",
            "ticks": 243408,
            "time": 316.9375,
            "velocity": 0.13385826771653545
          },
          {
            "duration": 0.0625,
            "durationTicks": 48,
            "midi": 81,
            "name": "A5",
            "ticks": 243408,
            "time": 316.9375,
            "velocity": 0.13385826771653545
          },
          {
            "duration": 0.0625,
            "durationTicks": 48,
            "midi": 73,
            "name": "C#5",
            "ticks": 243408,
            "time": 316.9375,
            "velocity": 0.13385826771653545
          },
          {
            "duration": 0.0625,
            "durationTicks": 48,
            "midi": 81,
            "name": "A5",
            "ticks": 243456,
            "time": 317,
            "velocity": 0.13385826771653545
          },
          {
            "duration": 0.0625,
            "durationTicks": 48,
            "midi": 76,
            "name": "E5",
            "ticks": 243456,
            "time": 317,
            "velocity": 0.13385826771653545
          },
          {
            "duration": 0.0625,
            "durationTicks": 48,
            "midi": 73,
            "name": "C#5",
            "ticks": 243456,
            "time": 317,
            "velocity": 0.13385826771653545
          },
          {
            "duration": 0.0625,
            "durationTicks": 48,
            "midi": 76,
            "name": "E5",
            "ticks": 243504,
            "time": 317.0625,
            "velocity": 0.13385826771653545
          },
          {
            "duration": 0.0625,
            "durationTicks": 48,
            "midi": 73,
            "name": "C#5",
            "ticks": 243504,
            "time": 317.0625,
            "velocity": 0.13385826771653545
          },
          {
            "duration": 0.0625,
            "durationTicks": 48,
            "midi": 81,
            "name": "A5",
            "ticks": 243504,
            "time": 317.0625,
            "velocity": 0.13385826771653545
          },
          {
            "duration": 0.0625,
            "durationTicks": 48,
            "midi": 81,
            "name": "A5",
            "ticks": 243552,
            "time": 317.125,
            "velocity": 0.13385826771653545
          },
          {
            "duration": 0.0625,
            "durationTicks": 48,
            "midi": 76,
            "name": "E5",
            "ticks": 243552,
            "time": 317.125,
            "velocity": 0.13385826771653545
          },
          {
            "duration": 0.0625,
            "durationTicks": 48,
            "midi": 73,
            "name": "C#5",
            "ticks": 243552,
            "time": 317.125,
            "velocity": 0.13385826771653545
          },
          {
            "duration": 0.0625,
            "durationTicks": 48,
            "midi": 76,
            "name": "E5",
            "ticks": 243600,
            "time": 317.1875,
            "velocity": 0.13385826771653545
          },
          {
            "duration": 0.0625,
            "durationTicks": 48,
            "midi": 73,
            "name": "C#5",
            "ticks": 243600,
            "time": 317.1875,
            "velocity": 0.13385826771653545
          },
          {
            "duration": 0.0625,
            "durationTicks": 48,
            "midi": 81,
            "name": "A5",
            "ticks": 243600,
            "time": 317.1875,
            "velocity": 0.13385826771653545
          },
          {
            "duration": 0.0625,
            "durationTicks": 48,
            "midi": 73,
            "name": "C#5",
            "ticks": 243648,
            "time": 317.25,
            "velocity": 0.13385826771653545
          },
          {
            "duration": 0.0625,
            "durationTicks": 48,
            "midi": 76,
            "name": "E5",
            "ticks": 243648,
            "time": 317.25,
            "velocity": 0.13385826771653545
          },
          {
            "duration": 0.0625,
            "durationTicks": 48,
            "midi": 81,
            "name": "A5",
            "ticks": 243648,
            "time": 317.25,
            "velocity": 0.13385826771653545
          },
          {
            "duration": 0.0625,
            "durationTicks": 48,
            "midi": 76,
            "name": "E5",
            "ticks": 243696,
            "time": 317.3125,
            "velocity": 0.13385826771653545
          },
          {
            "duration": 0.0625,
            "durationTicks": 48,
            "midi": 73,
            "name": "C#5",
            "ticks": 243696,
            "time": 317.3125,
            "velocity": 0.13385826771653545
          },
          {
            "duration": 0.0625,
            "durationTicks": 48,
            "midi": 81,
            "name": "A5",
            "ticks": 243696,
            "time": 317.3125,
            "velocity": 0.13385826771653545
          },
          {
            "duration": 0.0625,
            "durationTicks": 48,
            "midi": 73,
            "name": "C#5",
            "ticks": 243744,
            "time": 317.375,
            "velocity": 0.13385826771653545
          },
          {
            "duration": 0.0625,
            "durationTicks": 48,
            "midi": 81,
            "name": "A5",
            "ticks": 243744,
            "time": 317.375,
            "velocity": 0.13385826771653545
          },
          {
            "duration": 0.0625,
            "durationTicks": 48,
            "midi": 76,
            "name": "E5",
            "ticks": 243744,
            "time": 317.375,
            "velocity": 0.13385826771653545
          },
          {
            "duration": 0.0625,
            "durationTicks": 48,
            "midi": 81,
            "name": "A5",
            "ticks": 243792,
            "time": 317.4375,
            "velocity": 0.13385826771653545
          },
          {
            "duration": 0.0625,
            "durationTicks": 48,
            "midi": 73,
            "name": "C#5",
            "ticks": 243792,
            "time": 317.4375,
            "velocity": 0.13385826771653545
          },
          {
            "duration": 0.0625,
            "durationTicks": 48,
            "midi": 76,
            "name": "E5",
            "ticks": 243792,
            "time": 317.4375,
            "velocity": 0.13385826771653545
          },
          {
            "duration": 0.0625,
            "durationTicks": 48,
            "midi": 81,
            "name": "A5",
            "ticks": 243840,
            "time": 317.5,
            "velocity": 0.13385826771653545
          },
          {
            "duration": 0.0625,
            "durationTicks": 48,
            "midi": 76,
            "name": "E5",
            "ticks": 243840,
            "time": 317.5,
            "velocity": 0.13385826771653545
          },
          {
            "duration": 0.0625,
            "durationTicks": 48,
            "midi": 73,
            "name": "C#5",
            "ticks": 243840,
            "time": 317.5,
            "velocity": 0.13385826771653545
          },
          {
            "duration": 0.0625,
            "durationTicks": 48,
            "midi": 73,
            "name": "C#5",
            "ticks": 243888,
            "time": 317.5625,
            "velocity": 0.13385826771653545
          },
          {
            "duration": 0.0625,
            "durationTicks": 48,
            "midi": 76,
            "name": "E5",
            "ticks": 243888,
            "time": 317.5625,
            "velocity": 0.13385826771653545
          },
          {
            "duration": 0.0625,
            "durationTicks": 48,
            "midi": 81,
            "name": "A5",
            "ticks": 243888,
            "time": 317.5625,
            "velocity": 0.13385826771653545
          },
          {
            "duration": 0.0625,
            "durationTicks": 48,
            "midi": 73,
            "name": "C#5",
            "ticks": 243936,
            "time": 317.625,
            "velocity": 0.13385826771653545
          },
          {
            "duration": 0.0625,
            "durationTicks": 48,
            "midi": 81,
            "name": "A5",
            "ticks": 243936,
            "time": 317.625,
            "velocity": 0.13385826771653545
          },
          {
            "duration": 0.0625,
            "durationTicks": 48,
            "midi": 76,
            "name": "E5",
            "ticks": 243936,
            "time": 317.625,
            "velocity": 0.13385826771653545
          },
          {
            "duration": 0.0625,
            "durationTicks": 48,
            "midi": 76,
            "name": "E5",
            "ticks": 243984,
            "time": 317.6875,
            "velocity": 0.13385826771653545
          },
          {
            "duration": 0.0625,
            "durationTicks": 48,
            "midi": 81,
            "name": "A5",
            "ticks": 243984,
            "time": 317.6875,
            "velocity": 0.13385826771653545
          },
          {
            "duration": 0.0625,
            "durationTicks": 48,
            "midi": 73,
            "name": "C#5",
            "ticks": 243984,
            "time": 317.6875,
            "velocity": 0.13385826771653545
          },
          {
            "duration": 0.0625,
            "durationTicks": 48,
            "midi": 73,
            "name": "C#5",
            "ticks": 244032,
            "time": 317.75,
            "velocity": 0.13385826771653545
          },
          {
            "duration": 0.0625,
            "durationTicks": 48,
            "midi": 81,
            "name": "A5",
            "ticks": 244032,
            "time": 317.75,
            "velocity": 0.13385826771653545
          },
          {
            "duration": 0.0625,
            "durationTicks": 48,
            "midi": 76,
            "name": "E5",
            "ticks": 244032,
            "time": 317.75,
            "velocity": 0.13385826771653545
          },
          {
            "duration": 0.0625,
            "durationTicks": 48,
            "midi": 76,
            "name": "E5",
            "ticks": 244080,
            "time": 317.8125,
            "velocity": 0.13385826771653545
          },
          {
            "duration": 0.0625,
            "durationTicks": 48,
            "midi": 81,
            "name": "A5",
            "ticks": 244080,
            "time": 317.8125,
            "velocity": 0.13385826771653545
          },
          {
            "duration": 0.0625,
            "durationTicks": 48,
            "midi": 73,
            "name": "C#5",
            "ticks": 244080,
            "time": 317.8125,
            "velocity": 0.13385826771653545
          },
          {
            "duration": 0.0625,
            "durationTicks": 48,
            "midi": 75,
            "name": "D#5",
            "ticks": 244128,
            "time": 317.875,
            "velocity": 0.13385826771653545
          },
          {
            "duration": 0.0625,
            "durationTicks": 48,
            "midi": 78,
            "name": "F#5",
            "ticks": 244128,
            "time": 317.875,
            "velocity": 0.13385826771653545
          },
          {
            "duration": 0.0625,
            "durationTicks": 48,
            "midi": 71,
            "name": "B4",
            "ticks": 244128,
            "time": 317.875,
            "velocity": 0.13385826771653545
          },
          {
            "duration": 0.0625,
            "durationTicks": 48,
            "midi": 71,
            "name": "B4",
            "ticks": 244176,
            "time": 317.9375,
            "velocity": 0.13385826771653545
          },
          {
            "duration": 0.0625,
            "durationTicks": 48,
            "midi": 75,
            "name": "D#5",
            "ticks": 244176,
            "time": 317.9375,
            "velocity": 0.13385826771653545
          },
          {
            "duration": 0.0625,
            "durationTicks": 48,
            "midi": 78,
            "name": "F#5",
            "ticks": 244176,
            "time": 317.9375,
            "velocity": 0.13385826771653545
          },
          {
            "duration": 0.0625,
            "durationTicks": 48,
            "midi": 78,
            "name": "F#5",
            "ticks": 244224,
            "time": 318,
            "velocity": 0.13385826771653545
          },
          {
            "duration": 0.0625,
            "durationTicks": 48,
            "midi": 75,
            "name": "D#5",
            "ticks": 244224,
            "time": 318,
            "velocity": 0.13385826771653545
          },
          {
            "duration": 0.0625,
            "durationTicks": 48,
            "midi": 71,
            "name": "B4",
            "ticks": 244224,
            "time": 318,
            "velocity": 0.13385826771653545
          },
          {
            "duration": 0.0625,
            "durationTicks": 48,
            "midi": 75,
            "name": "D#5",
            "ticks": 244272,
            "time": 318.0625,
            "velocity": 0.13385826771653545
          },
          {
            "duration": 0.0625,
            "durationTicks": 48,
            "midi": 71,
            "name": "B4",
            "ticks": 244272,
            "time": 318.0625,
            "velocity": 0.13385826771653545
          },
          {
            "duration": 0.0625,
            "durationTicks": 48,
            "midi": 78,
            "name": "F#5",
            "ticks": 244272,
            "time": 318.0625,
            "velocity": 0.13385826771653545
          },
          {
            "duration": 0.0625,
            "durationTicks": 48,
            "midi": 71,
            "name": "B4",
            "ticks": 244320,
            "time": 318.125,
            "velocity": 0.13385826771653545
          },
          {
            "duration": 0.0625,
            "durationTicks": 48,
            "midi": 75,
            "name": "D#5",
            "ticks": 244320,
            "time": 318.125,
            "velocity": 0.13385826771653545
          },
          {
            "duration": 0.0625,
            "durationTicks": 48,
            "midi": 78,
            "name": "F#5",
            "ticks": 244320,
            "time": 318.125,
            "velocity": 0.13385826771653545
          },
          {
            "duration": 0.0625,
            "durationTicks": 48,
            "midi": 78,
            "name": "F#5",
            "ticks": 244368,
            "time": 318.1875,
            "velocity": 0.13385826771653545
          },
          {
            "duration": 0.0625,
            "durationTicks": 48,
            "midi": 75,
            "name": "D#5",
            "ticks": 244368,
            "time": 318.1875,
            "velocity": 0.13385826771653545
          },
          {
            "duration": 0.0625,
            "durationTicks": 48,
            "midi": 71,
            "name": "B4",
            "ticks": 244368,
            "time": 318.1875,
            "velocity": 0.13385826771653545
          },
          {
            "duration": 0.0625,
            "durationTicks": 48,
            "midi": 71,
            "name": "B4",
            "ticks": 244416,
            "time": 318.25,
            "velocity": 0.13385826771653545
          },
          {
            "duration": 0.0625,
            "durationTicks": 48,
            "midi": 75,
            "name": "D#5",
            "ticks": 244416,
            "time": 318.25,
            "velocity": 0.13385826771653545
          },
          {
            "duration": 0.0625,
            "durationTicks": 48,
            "midi": 78,
            "name": "F#5",
            "ticks": 244416,
            "time": 318.25,
            "velocity": 0.13385826771653545
          },
          {
            "duration": 0.0625,
            "durationTicks": 48,
            "midi": 78,
            "name": "F#5",
            "ticks": 244464,
            "time": 318.3125,
            "velocity": 0.13385826771653545
          },
          {
            "duration": 0.0625,
            "durationTicks": 48,
            "midi": 75,
            "name": "D#5",
            "ticks": 244464,
            "time": 318.3125,
            "velocity": 0.13385826771653545
          },
          {
            "duration": 0.0625,
            "durationTicks": 48,
            "midi": 71,
            "name": "B4",
            "ticks": 244464,
            "time": 318.3125,
            "velocity": 0.13385826771653545
          },
          {
            "duration": 0.0625,
            "durationTicks": 48,
            "midi": 71,
            "name": "B4",
            "ticks": 244512,
            "time": 318.375,
            "velocity": 0.13385826771653545
          },
          {
            "duration": 0.0625,
            "durationTicks": 48,
            "midi": 78,
            "name": "F#5",
            "ticks": 244512,
            "time": 318.375,
            "velocity": 0.13385826771653545
          },
          {
            "duration": 0.0625,
            "durationTicks": 48,
            "midi": 75,
            "name": "D#5",
            "ticks": 244512,
            "time": 318.375,
            "velocity": 0.13385826771653545
          },
          {
            "duration": 0.0625,
            "durationTicks": 48,
            "midi": 71,
            "name": "B4",
            "ticks": 244560,
            "time": 318.4375,
            "velocity": 0.13385826771653545
          },
          {
            "duration": 0.0625,
            "durationTicks": 48,
            "midi": 75,
            "name": "D#5",
            "ticks": 244560,
            "time": 318.4375,
            "velocity": 0.13385826771653545
          },
          {
            "duration": 0.0625,
            "durationTicks": 48,
            "midi": 78,
            "name": "F#5",
            "ticks": 244560,
            "time": 318.4375,
            "velocity": 0.13385826771653545
          },
          {
            "duration": 0.0625,
            "durationTicks": 48,
            "midi": 78,
            "name": "F#5",
            "ticks": 244608,
            "time": 318.5,
            "velocity": 0.13385826771653545
          },
          {
            "duration": 0.0625,
            "durationTicks": 48,
            "midi": 71,
            "name": "B4",
            "ticks": 244608,
            "time": 318.5,
            "velocity": 0.13385826771653545
          },
          {
            "duration": 0.0625,
            "durationTicks": 48,
            "midi": 75,
            "name": "D#5",
            "ticks": 244608,
            "time": 318.5,
            "velocity": 0.13385826771653545
          },
          {
            "duration": 0.0625,
            "durationTicks": 48,
            "midi": 75,
            "name": "D#5",
            "ticks": 244656,
            "time": 318.5625,
            "velocity": 0.13385826771653545
          },
          {
            "duration": 0.0625,
            "durationTicks": 48,
            "midi": 78,
            "name": "F#5",
            "ticks": 244656,
            "time": 318.5625,
            "velocity": 0.13385826771653545
          },
          {
            "duration": 0.0625,
            "durationTicks": 48,
            "midi": 71,
            "name": "B4",
            "ticks": 244656,
            "time": 318.5625,
            "velocity": 0.13385826771653545
          },
          {
            "duration": 0.0625,
            "durationTicks": 48,
            "midi": 78,
            "name": "F#5",
            "ticks": 244704,
            "time": 318.625,
            "velocity": 0.13385826771653545
          },
          {
            "duration": 0.0625,
            "durationTicks": 48,
            "midi": 71,
            "name": "B4",
            "ticks": 244704,
            "time": 318.625,
            "velocity": 0.13385826771653545
          },
          {
            "duration": 0.0625,
            "durationTicks": 48,
            "midi": 75,
            "name": "D#5",
            "ticks": 244704,
            "time": 318.625,
            "velocity": 0.13385826771653545
          },
          {
            "duration": 0.0625,
            "durationTicks": 48,
            "midi": 78,
            "name": "F#5",
            "ticks": 244752,
            "time": 318.6875,
            "velocity": 0.13385826771653545
          },
          {
            "duration": 0.0625,
            "durationTicks": 48,
            "midi": 75,
            "name": "D#5",
            "ticks": 244752,
            "time": 318.6875,
            "velocity": 0.13385826771653545
          },
          {
            "duration": 0.0625,
            "durationTicks": 48,
            "midi": 71,
            "name": "B4",
            "ticks": 244752,
            "time": 318.6875,
            "velocity": 0.13385826771653545
          },
          {
            "duration": 0.0625,
            "durationTicks": 48,
            "midi": 75,
            "name": "D#5",
            "ticks": 244800,
            "time": 318.75,
            "velocity": 0.13385826771653545
          },
          {
            "duration": 0.0625,
            "durationTicks": 48,
            "midi": 71,
            "name": "B4",
            "ticks": 244800,
            "time": 318.75,
            "velocity": 0.13385826771653545
          },
          {
            "duration": 0.0625,
            "durationTicks": 48,
            "midi": 78,
            "name": "F#5",
            "ticks": 244800,
            "time": 318.75,
            "velocity": 0.13385826771653545
          },
          {
            "duration": 0.0625,
            "durationTicks": 48,
            "midi": 78,
            "name": "F#5",
            "ticks": 244848,
            "time": 318.8125,
            "velocity": 0.13385826771653545
          },
          {
            "duration": 0.0625,
            "durationTicks": 48,
            "midi": 75,
            "name": "D#5",
            "ticks": 244848,
            "time": 318.8125,
            "velocity": 0.13385826771653545
          },
          {
            "duration": 0.0625,
            "durationTicks": 48,
            "midi": 71,
            "name": "B4",
            "ticks": 244848,
            "time": 318.8125,
            "velocity": 0.13385826771653545
          },
          {
            "duration": 0.0625,
            "durationTicks": 48,
            "midi": 75,
            "name": "D#5",
            "ticks": 244896,
            "time": 318.875,
            "velocity": 0.13385826771653545
          },
          {
            "duration": 0.0625,
            "durationTicks": 48,
            "midi": 71,
            "name": "B4",
            "ticks": 244896,
            "time": 318.875,
            "velocity": 0.13385826771653545
          },
          {
            "duration": 0.0625,
            "durationTicks": 48,
            "midi": 78,
            "name": "F#5",
            "ticks": 244896,
            "time": 318.875,
            "velocity": 0.13385826771653545
          },
          {
            "duration": 0.0625,
            "durationTicks": 48,
            "midi": 71,
            "name": "B4",
            "ticks": 244944,
            "time": 318.9375,
            "velocity": 0.13385826771653545
          },
          {
            "duration": 0.0625,
            "durationTicks": 48,
            "midi": 78,
            "name": "F#5",
            "ticks": 244944,
            "time": 318.9375,
            "velocity": 0.13385826771653545
          },
          {
            "duration": 0.0625,
            "durationTicks": 48,
            "midi": 75,
            "name": "D#5",
            "ticks": 244944,
            "time": 318.9375,
            "velocity": 0.13385826771653545
          },
          {
            "duration": 0.0625,
            "durationTicks": 48,
            "midi": 78,
            "name": "F#5",
            "ticks": 244992,
            "time": 319,
            "velocity": 0.13385826771653545
          },
          {
            "duration": 0.0625,
            "durationTicks": 48,
            "midi": 75,
            "name": "D#5",
            "ticks": 244992,
            "time": 319,
            "velocity": 0.13385826771653545
          },
          {
            "duration": 0.0625,
            "durationTicks": 48,
            "midi": 71,
            "name": "B4",
            "ticks": 244992,
            "time": 319,
            "velocity": 0.13385826771653545
          },
          {
            "duration": 0.0625,
            "durationTicks": 48,
            "midi": 71,
            "name": "B4",
            "ticks": 245040,
            "time": 319.0625,
            "velocity": 0.13385826771653545
          },
          {
            "duration": 0.0625,
            "durationTicks": 48,
            "midi": 78,
            "name": "F#5",
            "ticks": 245040,
            "time": 319.0625,
            "velocity": 0.13385826771653545
          },
          {
            "duration": 0.0625,
            "durationTicks": 48,
            "midi": 75,
            "name": "D#5",
            "ticks": 245040,
            "time": 319.0625,
            "velocity": 0.13385826771653545
          },
          {
            "duration": 0.0625,
            "durationTicks": 48,
            "midi": 78,
            "name": "F#5",
            "ticks": 245088,
            "time": 319.125,
            "velocity": 0.13385826771653545
          },
          {
            "duration": 0.0625,
            "durationTicks": 48,
            "midi": 71,
            "name": "B4",
            "ticks": 245088,
            "time": 319.125,
            "velocity": 0.13385826771653545
          },
          {
            "duration": 0.0625,
            "durationTicks": 48,
            "midi": 75,
            "name": "D#5",
            "ticks": 245088,
            "time": 319.125,
            "velocity": 0.13385826771653545
          },
          {
            "duration": 0.0625,
            "durationTicks": 48,
            "midi": 71,
            "name": "B4",
            "ticks": 245136,
            "time": 319.1875,
            "velocity": 0.13385826771653545
          },
          {
            "duration": 0.0625,
            "durationTicks": 48,
            "midi": 75,
            "name": "D#5",
            "ticks": 245136,
            "time": 319.1875,
            "velocity": 0.13385826771653545
          },
          {
            "duration": 0.0625,
            "durationTicks": 48,
            "midi": 78,
            "name": "F#5",
            "ticks": 245136,
            "time": 319.1875,
            "velocity": 0.13385826771653545
          },
          {
            "duration": 0.0625,
            "durationTicks": 48,
            "midi": 75,
            "name": "D#5",
            "ticks": 245184,
            "time": 319.25,
            "velocity": 0.13385826771653545
          },
          {
            "duration": 0.0625,
            "durationTicks": 48,
            "midi": 71,
            "name": "B4",
            "ticks": 245184,
            "time": 319.25,
            "velocity": 0.13385826771653545
          },
          {
            "duration": 0.0625,
            "durationTicks": 48,
            "midi": 78,
            "name": "F#5",
            "ticks": 245184,
            "time": 319.25,
            "velocity": 0.13385826771653545
          },
          {
            "duration": 0.0625,
            "durationTicks": 48,
            "midi": 78,
            "name": "F#5",
            "ticks": 245232,
            "time": 319.3125,
            "velocity": 0.13385826771653545
          },
          {
            "duration": 0.0625,
            "durationTicks": 48,
            "midi": 71,
            "name": "B4",
            "ticks": 245232,
            "time": 319.3125,
            "velocity": 0.13385826771653545
          },
          {
            "duration": 0.0625,
            "durationTicks": 48,
            "midi": 75,
            "name": "D#5",
            "ticks": 245232,
            "time": 319.3125,
            "velocity": 0.13385826771653545
          },
          {
            "duration": 0.0625,
            "durationTicks": 48,
            "midi": 71,
            "name": "B4",
            "ticks": 245280,
            "time": 319.375,
            "velocity": 0.13385826771653545
          },
          {
            "duration": 0.0625,
            "durationTicks": 48,
            "midi": 78,
            "name": "F#5",
            "ticks": 245280,
            "time": 319.375,
            "velocity": 0.13385826771653545
          },
          {
            "duration": 0.0625,
            "durationTicks": 48,
            "midi": 75,
            "name": "D#5",
            "ticks": 245280,
            "time": 319.375,
            "velocity": 0.13385826771653545
          },
          {
            "duration": 0.0625,
            "durationTicks": 48,
            "midi": 78,
            "name": "F#5",
            "ticks": 245328,
            "time": 319.4375,
            "velocity": 0.13385826771653545
          },
          {
            "duration": 0.0625,
            "durationTicks": 48,
            "midi": 71,
            "name": "B4",
            "ticks": 245328,
            "time": 319.4375,
            "velocity": 0.13385826771653545
          },
          {
            "duration": 0.0625,
            "durationTicks": 48,
            "midi": 75,
            "name": "D#5",
            "ticks": 245328,
            "time": 319.4375,
            "velocity": 0.13385826771653545
          },
          {
            "duration": 0.0625,
            "durationTicks": 48,
            "midi": 71,
            "name": "B4",
            "ticks": 245376,
            "time": 319.5,
            "velocity": 0.13385826771653545
          },
          {
            "duration": 0.0625,
            "durationTicks": 48,
            "midi": 75,
            "name": "D#5",
            "ticks": 245376,
            "time": 319.5,
            "velocity": 0.13385826771653545
          },
          {
            "duration": 0.0625,
            "durationTicks": 48,
            "midi": 78,
            "name": "F#5",
            "ticks": 245376,
            "time": 319.5,
            "velocity": 0.13385826771653545
          },
          {
            "duration": 0.0625,
            "durationTicks": 48,
            "midi": 71,
            "name": "B4",
            "ticks": 245424,
            "time": 319.5625,
            "velocity": 0.13385826771653545
          },
          {
            "duration": 0.0625,
            "durationTicks": 48,
            "midi": 78,
            "name": "F#5",
            "ticks": 245424,
            "time": 319.5625,
            "velocity": 0.13385826771653545
          },
          {
            "duration": 0.0625,
            "durationTicks": 48,
            "midi": 75,
            "name": "D#5",
            "ticks": 245424,
            "time": 319.5625,
            "velocity": 0.13385826771653545
          },
          {
            "duration": 0.0625,
            "durationTicks": 48,
            "midi": 71,
            "name": "B4",
            "ticks": 245472,
            "time": 319.625,
            "velocity": 0.13385826771653545
          },
          {
            "duration": 0.0625,
            "durationTicks": 48,
            "midi": 75,
            "name": "D#5",
            "ticks": 245472,
            "time": 319.625,
            "velocity": 0.13385826771653545
          },
          {
            "duration": 0.0625,
            "durationTicks": 48,
            "midi": 78,
            "name": "F#5",
            "ticks": 245472,
            "time": 319.625,
            "velocity": 0.13385826771653545
          },
          {
            "duration": 0.0625,
            "durationTicks": 48,
            "midi": 75,
            "name": "D#5",
            "ticks": 245520,
            "time": 319.6875,
            "velocity": 0.13385826771653545
          },
          {
            "duration": 0.0625,
            "durationTicks": 48,
            "midi": 71,
            "name": "B4",
            "ticks": 245520,
            "time": 319.6875,
            "velocity": 0.13385826771653545
          },
          {
            "duration": 0.0625,
            "durationTicks": 48,
            "midi": 78,
            "name": "F#5",
            "ticks": 245520,
            "time": 319.6875,
            "velocity": 0.13385826771653545
          },
          {
            "duration": 0.0625,
            "durationTicks": 48,
            "midi": 71,
            "name": "B4",
            "ticks": 245568,
            "time": 319.75,
            "velocity": 0.13385826771653545
          },
          {
            "duration": 0.0625,
            "durationTicks": 48,
            "midi": 78,
            "name": "F#5",
            "ticks": 245568,
            "time": 319.75,
            "velocity": 0.13385826771653545
          },
          {
            "duration": 0.0625,
            "durationTicks": 48,
            "midi": 75,
            "name": "D#5",
            "ticks": 245568,
            "time": 319.75,
            "velocity": 0.13385826771653545
          },
          {
            "duration": 0.0625,
            "durationTicks": 48,
            "midi": 75,
            "name": "D#5",
            "ticks": 245616,
            "time": 319.8125,
            "velocity": 0.13385826771653545
          },
          {
            "duration": 0.0625,
            "durationTicks": 48,
            "midi": 78,
            "name": "F#5",
            "ticks": 245616,
            "time": 319.8125,
            "velocity": 0.13385826771653545
          },
          {
            "duration": 0.0625,
            "durationTicks": 48,
            "midi": 71,
            "name": "B4",
            "ticks": 245616,
            "time": 319.8125,
            "velocity": 0.13385826771653545
          },
          {
            "duration": 0.0625,
            "durationTicks": 48,
            "midi": 78,
            "name": "F#5",
            "ticks": 245664,
            "time": 319.875,
            "velocity": 0.13385826771653545
          },
          {
            "duration": 0.0625,
            "durationTicks": 48,
            "midi": 70,
            "name": "A#4",
            "ticks": 245664,
            "time": 319.875,
            "velocity": 0.13385826771653545
          },
          {
            "duration": 0.0625,
            "durationTicks": 48,
            "midi": 73,
            "name": "C#5",
            "ticks": 245664,
            "time": 319.875,
            "velocity": 0.13385826771653545
          },
          {
            "duration": 0.0625,
            "durationTicks": 48,
            "midi": 70,
            "name": "A#4",
            "ticks": 245712,
            "time": 319.9375,
            "velocity": 0.13385826771653545
          },
          {
            "duration": 0.0625,
            "durationTicks": 48,
            "midi": 73,
            "name": "C#5",
            "ticks": 245712,
            "time": 319.9375,
            "velocity": 0.13385826771653545
          },
          {
            "duration": 0.0625,
            "durationTicks": 48,
            "midi": 78,
            "name": "F#5",
            "ticks": 245712,
            "time": 319.9375,
            "velocity": 0.13385826771653545
          },
          {
            "duration": 0.0625,
            "durationTicks": 48,
            "midi": 73,
            "name": "C#5",
            "ticks": 245760,
            "time": 320,
            "velocity": 0.13385826771653545
          },
          {
            "duration": 0.0625,
            "durationTicks": 48,
            "midi": 78,
            "name": "F#5",
            "ticks": 245760,
            "time": 320,
            "velocity": 0.13385826771653545
          },
          {
            "duration": 0.0625,
            "durationTicks": 48,
            "midi": 70,
            "name": "A#4",
            "ticks": 245760,
            "time": 320,
            "velocity": 0.13385826771653545
          },
          {
            "duration": 0.0625,
            "durationTicks": 48,
            "midi": 73,
            "name": "C#5",
            "ticks": 245808,
            "time": 320.0625,
            "velocity": 0.13385826771653545
          },
          {
            "duration": 0.0625,
            "durationTicks": 48,
            "midi": 70,
            "name": "A#4",
            "ticks": 245808,
            "time": 320.0625,
            "velocity": 0.13385826771653545
          },
          {
            "duration": 0.0625,
            "durationTicks": 48,
            "midi": 78,
            "name": "F#5",
            "ticks": 245808,
            "time": 320.0625,
            "velocity": 0.13385826771653545
          },
          {
            "duration": 0.0625,
            "durationTicks": 48,
            "midi": 70,
            "name": "A#4",
            "ticks": 245856,
            "time": 320.125,
            "velocity": 0.13385826771653545
          },
          {
            "duration": 0.0625,
            "durationTicks": 48,
            "midi": 78,
            "name": "F#5",
            "ticks": 245856,
            "time": 320.125,
            "velocity": 0.13385826771653545
          },
          {
            "duration": 0.0625,
            "durationTicks": 48,
            "midi": 73,
            "name": "C#5",
            "ticks": 245856,
            "time": 320.125,
            "velocity": 0.13385826771653545
          },
          {
            "duration": 0.0625,
            "durationTicks": 48,
            "midi": 70,
            "name": "A#4",
            "ticks": 245904,
            "time": 320.1875,
            "velocity": 0.13385826771653545
          },
          {
            "duration": 0.0625,
            "durationTicks": 48,
            "midi": 78,
            "name": "F#5",
            "ticks": 245904,
            "time": 320.1875,
            "velocity": 0.13385826771653545
          },
          {
            "duration": 0.0625,
            "durationTicks": 48,
            "midi": 73,
            "name": "C#5",
            "ticks": 245904,
            "time": 320.1875,
            "velocity": 0.13385826771653545
          },
          {
            "duration": 0.0625,
            "durationTicks": 48,
            "midi": 73,
            "name": "C#5",
            "ticks": 245952,
            "time": 320.25,
            "velocity": 0.13385826771653545
          },
          {
            "duration": 0.0625,
            "durationTicks": 48,
            "midi": 70,
            "name": "A#4",
            "ticks": 245952,
            "time": 320.25,
            "velocity": 0.13385826771653545
          },
          {
            "duration": 0.0625,
            "durationTicks": 48,
            "midi": 78,
            "name": "F#5",
            "ticks": 245952,
            "time": 320.25,
            "velocity": 0.13385826771653545
          },
          {
            "duration": 0.0625,
            "durationTicks": 48,
            "midi": 73,
            "name": "C#5",
            "ticks": 246000,
            "time": 320.3125,
            "velocity": 0.13385826771653545
          },
          {
            "duration": 0.0625,
            "durationTicks": 48,
            "midi": 70,
            "name": "A#4",
            "ticks": 246000,
            "time": 320.3125,
            "velocity": 0.13385826771653545
          },
          {
            "duration": 0.0625,
            "durationTicks": 48,
            "midi": 78,
            "name": "F#5",
            "ticks": 246000,
            "time": 320.3125,
            "velocity": 0.13385826771653545
          },
          {
            "duration": 0.0625,
            "durationTicks": 48,
            "midi": 70,
            "name": "A#4",
            "ticks": 246048,
            "time": 320.375,
            "velocity": 0.13385826771653545
          },
          {
            "duration": 0.0625,
            "durationTicks": 48,
            "midi": 73,
            "name": "C#5",
            "ticks": 246048,
            "time": 320.375,
            "velocity": 0.13385826771653545
          },
          {
            "duration": 0.0625,
            "durationTicks": 48,
            "midi": 78,
            "name": "F#5",
            "ticks": 246048,
            "time": 320.375,
            "velocity": 0.13385826771653545
          },
          {
            "duration": 0.0625,
            "durationTicks": 48,
            "midi": 73,
            "name": "C#5",
            "ticks": 246096,
            "time": 320.4375,
            "velocity": 0.13385826771653545
          },
          {
            "duration": 0.0625,
            "durationTicks": 48,
            "midi": 78,
            "name": "F#5",
            "ticks": 246096,
            "time": 320.4375,
            "velocity": 0.13385826771653545
          },
          {
            "duration": 0.0625,
            "durationTicks": 48,
            "midi": 70,
            "name": "A#4",
            "ticks": 246096,
            "time": 320.4375,
            "velocity": 0.13385826771653545
          },
          {
            "duration": 0.0625,
            "durationTicks": 48,
            "midi": 73,
            "name": "C#5",
            "ticks": 246144,
            "time": 320.5,
            "velocity": 0.13385826771653545
          },
          {
            "duration": 0.0625,
            "durationTicks": 48,
            "midi": 70,
            "name": "A#4",
            "ticks": 246144,
            "time": 320.5,
            "velocity": 0.13385826771653545
          },
          {
            "duration": 0.0625,
            "durationTicks": 48,
            "midi": 78,
            "name": "F#5",
            "ticks": 246144,
            "time": 320.5,
            "velocity": 0.13385826771653545
          },
          {
            "duration": 0.0625,
            "durationTicks": 48,
            "midi": 73,
            "name": "C#5",
            "ticks": 246192,
            "time": 320.5625,
            "velocity": 0.13385826771653545
          },
          {
            "duration": 0.0625,
            "durationTicks": 48,
            "midi": 70,
            "name": "A#4",
            "ticks": 246192,
            "time": 320.5625,
            "velocity": 0.13385826771653545
          },
          {
            "duration": 0.0625,
            "durationTicks": 48,
            "midi": 78,
            "name": "F#5",
            "ticks": 246192,
            "time": 320.5625,
            "velocity": 0.13385826771653545
          },
          {
            "duration": 0.0625,
            "durationTicks": 48,
            "midi": 73,
            "name": "C#5",
            "ticks": 246240,
            "time": 320.625,
            "velocity": 0.13385826771653545
          },
          {
            "duration": 0.0625,
            "durationTicks": 48,
            "midi": 70,
            "name": "A#4",
            "ticks": 246240,
            "time": 320.625,
            "velocity": 0.13385826771653545
          },
          {
            "duration": 0.0625,
            "durationTicks": 48,
            "midi": 78,
            "name": "F#5",
            "ticks": 246240,
            "time": 320.625,
            "velocity": 0.13385826771653545
          },
          {
            "duration": 0.0625,
            "durationTicks": 48,
            "midi": 73,
            "name": "C#5",
            "ticks": 246288,
            "time": 320.6875,
            "velocity": 0.13385826771653545
          },
          {
            "duration": 0.0625,
            "durationTicks": 48,
            "midi": 70,
            "name": "A#4",
            "ticks": 246288,
            "time": 320.6875,
            "velocity": 0.13385826771653545
          },
          {
            "duration": 0.0625,
            "durationTicks": 48,
            "midi": 78,
            "name": "F#5",
            "ticks": 246288,
            "time": 320.6875,
            "velocity": 0.13385826771653545
          },
          {
            "duration": 0.0625,
            "durationTicks": 48,
            "midi": 70,
            "name": "A#4",
            "ticks": 246336,
            "time": 320.75,
            "velocity": 0.13385826771653545
          },
          {
            "duration": 0.0625,
            "durationTicks": 48,
            "midi": 73,
            "name": "C#5",
            "ticks": 246336,
            "time": 320.75,
            "velocity": 0.13385826771653545
          },
          {
            "duration": 0.0625,
            "durationTicks": 48,
            "midi": 78,
            "name": "F#5",
            "ticks": 246336,
            "time": 320.75,
            "velocity": 0.13385826771653545
          },
          {
            "duration": 0.0625,
            "durationTicks": 48,
            "midi": 70,
            "name": "A#4",
            "ticks": 246384,
            "time": 320.8125,
            "velocity": 0.13385826771653545
          },
          {
            "duration": 0.0625,
            "durationTicks": 48,
            "midi": 78,
            "name": "F#5",
            "ticks": 246384,
            "time": 320.8125,
            "velocity": 0.13385826771653545
          },
          {
            "duration": 0.0625,
            "durationTicks": 48,
            "midi": 73,
            "name": "C#5",
            "ticks": 246384,
            "time": 320.8125,
            "velocity": 0.13385826771653545
          },
          {
            "duration": 0.0625,
            "durationTicks": 48,
            "midi": 73,
            "name": "C#5",
            "ticks": 246432,
            "time": 320.875,
            "velocity": 0.13385826771653545
          },
          {
            "duration": 0.0625,
            "durationTicks": 48,
            "midi": 78,
            "name": "F#5",
            "ticks": 246432,
            "time": 320.875,
            "velocity": 0.13385826771653545
          },
          {
            "duration": 0.0625,
            "durationTicks": 48,
            "midi": 70,
            "name": "A#4",
            "ticks": 246432,
            "time": 320.875,
            "velocity": 0.13385826771653545
          },
          {
            "duration": 0.0625,
            "durationTicks": 48,
            "midi": 73,
            "name": "C#5",
            "ticks": 246480,
            "time": 320.9375,
            "velocity": 0.13385826771653545
          },
          {
            "duration": 0.0625,
            "durationTicks": 48,
            "midi": 70,
            "name": "A#4",
            "ticks": 246480,
            "time": 320.9375,
            "velocity": 0.13385826771653545
          },
          {
            "duration": 0.0625,
            "durationTicks": 48,
            "midi": 78,
            "name": "F#5",
            "ticks": 246480,
            "time": 320.9375,
            "velocity": 0.13385826771653545
          },
          {
            "duration": 0.0625,
            "durationTicks": 48,
            "midi": 78,
            "name": "F#5",
            "ticks": 246528,
            "time": 321,
            "velocity": 0.13385826771653545
          },
          {
            "duration": 0.0625,
            "durationTicks": 48,
            "midi": 70,
            "name": "A#4",
            "ticks": 246528,
            "time": 321,
            "velocity": 0.13385826771653545
          },
          {
            "duration": 0.0625,
            "durationTicks": 48,
            "midi": 73,
            "name": "C#5",
            "ticks": 246528,
            "time": 321,
            "velocity": 0.13385826771653545
          },
          {
            "duration": 0.0625,
            "durationTicks": 48,
            "midi": 78,
            "name": "F#5",
            "ticks": 246576,
            "time": 321.0625,
            "velocity": 0.13385826771653545
          },
          {
            "duration": 0.0625,
            "durationTicks": 48,
            "midi": 70,
            "name": "A#4",
            "ticks": 246576,
            "time": 321.0625,
            "velocity": 0.13385826771653545
          },
          {
            "duration": 0.0625,
            "durationTicks": 48,
            "midi": 73,
            "name": "C#5",
            "ticks": 246576,
            "time": 321.0625,
            "velocity": 0.13385826771653545
          },
          {
            "duration": 0.0625,
            "durationTicks": 48,
            "midi": 73,
            "name": "C#5",
            "ticks": 246624,
            "time": 321.125,
            "velocity": 0.13385826771653545
          },
          {
            "duration": 0.0625,
            "durationTicks": 48,
            "midi": 78,
            "name": "F#5",
            "ticks": 246624,
            "time": 321.125,
            "velocity": 0.13385826771653545
          },
          {
            "duration": 0.0625,
            "durationTicks": 48,
            "midi": 70,
            "name": "A#4",
            "ticks": 246624,
            "time": 321.125,
            "velocity": 0.13385826771653545
          },
          {
            "duration": 0.0625,
            "durationTicks": 48,
            "midi": 73,
            "name": "C#5",
            "ticks": 246672,
            "time": 321.1875,
            "velocity": 0.13385826771653545
          },
          {
            "duration": 0.0625,
            "durationTicks": 48,
            "midi": 70,
            "name": "A#4",
            "ticks": 246672,
            "time": 321.1875,
            "velocity": 0.13385826771653545
          },
          {
            "duration": 0.0625,
            "durationTicks": 48,
            "midi": 78,
            "name": "F#5",
            "ticks": 246672,
            "time": 321.1875,
            "velocity": 0.13385826771653545
          },
          {
            "duration": 0.0625,
            "durationTicks": 48,
            "midi": 73,
            "name": "C#5",
            "ticks": 247104,
            "time": 321.75,
            "velocity": 0.13385826771653545
          },
          {
            "duration": 0.0625,
            "durationTicks": 48,
            "midi": 68,
            "name": "G#4",
            "ticks": 247104,
            "time": 321.75,
            "velocity": 0.13385826771653545
          },
          {
            "duration": 0.0625,
            "durationTicks": 48,
            "midi": 76,
            "name": "E5",
            "ticks": 247104,
            "time": 321.75,
            "velocity": 0.13385826771653545
          },
          {
            "duration": 0.0625,
            "durationTicks": 48,
            "midi": 76,
            "name": "E5",
            "ticks": 247152,
            "time": 321.8125,
            "velocity": 0.13385826771653545
          },
          {
            "duration": 0.0625,
            "durationTicks": 48,
            "midi": 73,
            "name": "C#5",
            "ticks": 247152,
            "time": 321.8125,
            "velocity": 0.13385826771653545
          },
          {
            "duration": 0.0625,
            "durationTicks": 48,
            "midi": 68,
            "name": "G#4",
            "ticks": 247152,
            "time": 321.8125,
            "velocity": 0.13385826771653545
          },
          {
            "duration": 0.0625,
            "durationTicks": 48,
            "midi": 73,
            "name": "C#5",
            "ticks": 247200,
            "time": 321.875,
            "velocity": 0.13385826771653545
          },
          {
            "duration": 0.0625,
            "durationTicks": 48,
            "midi": 68,
            "name": "G#4",
            "ticks": 247200,
            "time": 321.875,
            "velocity": 0.13385826771653545
          },
          {
            "duration": 0.0625,
            "durationTicks": 48,
            "midi": 76,
            "name": "E5",
            "ticks": 247200,
            "time": 321.875,
            "velocity": 0.13385826771653545
          },
          {
            "duration": 0.0625,
            "durationTicks": 48,
            "midi": 73,
            "name": "C#5",
            "ticks": 247248,
            "time": 321.9375,
            "velocity": 0.13385826771653545
          },
          {
            "duration": 0.0625,
            "durationTicks": 48,
            "midi": 68,
            "name": "G#4",
            "ticks": 247248,
            "time": 321.9375,
            "velocity": 0.13385826771653545
          },
          {
            "duration": 0.0625,
            "durationTicks": 48,
            "midi": 76,
            "name": "E5",
            "ticks": 247248,
            "time": 321.9375,
            "velocity": 0.13385826771653545
          }
        ],
        "endOfTrackTicks": 247296
      },
      {
        "channel": 0,
        "controlChanges": {},
        "pitchBends": [],
        "instrument": {
          "family": "piano",
          "number": 0,
          "name": "acoustic grand piano"
        },
        "name": "Slap Bass",
        "notes": [],
        "endOfTrackTicks": 9600
      },
      {
        "channel": 8,
        "controlChanges": {},
        "pitchBends": [],
        "instrument": {
          "family": "piano",
          "number": 0,
          "name": "acoustic grand piano"
        },
        "name": "Pop Synth",
        "notes": [
          {
            "duration": 0.0625,
            "durationTicks": 48,
            "midi": 71,
            "name": "B4",
            "ticks": 30144,
            "time": 39.25,
            "velocity": 0.1968503937007874
          },
          {
            "duration": 0.0625,
            "durationTicks": 48,
            "midi": 68,
            "name": "G#4",
            "ticks": 30144,
            "time": 39.25,
            "velocity": 0.1968503937007874
          },
          {
            "duration": 0.0625,
            "durationTicks": 48,
            "midi": 66,
            "name": "F#4",
            "ticks": 30336,
            "time": 39.5,
            "velocity": 0.1968503937007874
          },
          {
            "duration": 0.0625,
            "durationTicks": 48,
            "midi": 73,
            "name": "C#5",
            "ticks": 30336,
            "time": 39.5,
            "velocity": 0.1968503937007874
          },
          {
            "duration": 0.125,
            "durationTicks": 96,
            "midi": 85,
            "name": "C#6",
            "ticks": 145920,
            "time": 190,
            "velocity": 0.1968503937007874
          },
          {
            "duration": 0.125,
            "durationTicks": 96,
            "midi": 85,
            "name": "C#6",
            "ticks": 146016,
            "time": 190.125,
            "velocity": 0.1968503937007874
          },
          {
            "duration": 0.125,
            "durationTicks": 96,
            "midi": 85,
            "name": "C#6",
            "ticks": 146112,
            "time": 190.25,
            "velocity": 0.1968503937007874
          },
          {
            "duration": 0.125,
            "durationTicks": 96,
            "midi": 85,
            "name": "C#6",
            "ticks": 146208,
            "time": 190.375,
            "velocity": 0.1968503937007874
          },
          {
            "duration": 0.125,
            "durationTicks": 96,
            "midi": 85,
            "name": "C#6",
            "ticks": 146304,
            "time": 190.5,
            "velocity": 0.1968503937007874
          },
          {
            "duration": 0.125,
            "durationTicks": 96,
            "midi": 85,
            "name": "C#6",
            "ticks": 146400,
            "time": 190.625,
            "velocity": 0.1968503937007874
          },
          {
            "duration": 0.125,
            "durationTicks": 96,
            "midi": 85,
            "name": "C#6",
            "ticks": 146496,
            "time": 190.75,
            "velocity": 0.1968503937007874
          },
          {
            "duration": 0.125,
            "durationTicks": 96,
            "midi": 85,
            "name": "C#6",
            "ticks": 146592,
            "time": 190.875,
            "velocity": 0.1968503937007874
          },
          {
            "duration": 0.125,
            "durationTicks": 96,
            "midi": 90,
            "name": "F#6",
            "ticks": 146688,
            "time": 191,
            "velocity": 0.1968503937007874
          },
          {
            "duration": 0.125,
            "durationTicks": 96,
            "midi": 90,
            "name": "F#6",
            "ticks": 146784,
            "time": 191.125,
            "velocity": 0.1968503937007874
          },
          {
            "duration": 0.125,
            "durationTicks": 96,
            "midi": 90,
            "name": "F#6",
            "ticks": 146880,
            "time": 191.25,
            "velocity": 0.1968503937007874
          },
          {
            "duration": 0.125,
            "durationTicks": 96,
            "midi": 90,
            "name": "F#6",
            "ticks": 146976,
            "time": 191.375,
            "velocity": 0.1968503937007874
          },
          {
            "duration": 0.125,
            "durationTicks": 96,
            "midi": 92,
            "name": "G#6",
            "ticks": 147072,
            "time": 191.5,
            "velocity": 0.1968503937007874
          },
          {
            "duration": 0.125,
            "durationTicks": 96,
            "midi": 92,
            "name": "G#6",
            "ticks": 147168,
            "time": 191.625,
            "velocity": 0.1968503937007874
          },
          {
            "duration": 0.125,
            "durationTicks": 96,
            "midi": 92,
            "name": "G#6",
            "ticks": 147264,
            "time": 191.75,
            "velocity": 0.1968503937007874
          },
          {
            "duration": 0.125,
            "durationTicks": 96,
            "midi": 92,
            "name": "G#6",
            "ticks": 147360,
            "time": 191.875,
            "velocity": 0.1968503937007874
          },
          {
            "duration": 0.125,
            "durationTicks": 96,
            "midi": 94,
            "name": "A#6",
            "ticks": 147456,
            "time": 192,
            "velocity": 0.1968503937007874
          },
          {
            "duration": 0.125,
            "durationTicks": 96,
            "midi": 94,
            "name": "A#6",
            "ticks": 147552,
            "time": 192.125,
            "velocity": 0.1968503937007874
          },
          {
            "duration": 0.125,
            "durationTicks": 96,
            "midi": 94,
            "name": "A#6",
            "ticks": 147648,
            "time": 192.25,
            "velocity": 0.1968503937007874
          },
          {
            "duration": 0.125,
            "durationTicks": 96,
            "midi": 94,
            "name": "A#6",
            "ticks": 147744,
            "time": 192.375,
            "velocity": 0.1968503937007874
          },
          {
            "duration": 0.125,
            "durationTicks": 96,
            "midi": 95,
            "name": "B6",
            "ticks": 147840,
            "time": 192.5,
            "velocity": 0.1968503937007874
          },
          {
            "duration": 0.125,
            "durationTicks": 96,
            "midi": 95,
            "name": "B6",
            "ticks": 147936,
            "time": 192.625,
            "velocity": 0.1968503937007874
          },
          {
            "duration": 0.125,
            "durationTicks": 96,
            "midi": 95,
            "name": "B6",
            "ticks": 148032,
            "time": 192.75,
            "velocity": 0.1968503937007874
          },
          {
            "duration": 0.125,
            "durationTicks": 96,
            "midi": 95,
            "name": "B6",
            "ticks": 148128,
            "time": 192.875,
            "velocity": 0.1968503937007874
          },
          {
            "duration": 0.125,
            "durationTicks": 96,
            "midi": 97,
            "name": "C#7",
            "ticks": 148224,
            "time": 193,
            "velocity": 0.1968503937007874
          },
          {
            "duration": 0.125,
            "durationTicks": 96,
            "midi": 97,
            "name": "C#7",
            "ticks": 148320,
            "time": 193.125,
            "velocity": 0.1968503937007874
          },
          {
            "duration": 0.125,
            "durationTicks": 96,
            "midi": 97,
            "name": "C#7",
            "ticks": 148416,
            "time": 193.25,
            "velocity": 0.1968503937007874
          },
          {
            "duration": 0.125,
            "durationTicks": 96,
            "midi": 97,
            "name": "C#7",
            "ticks": 148512,
            "time": 193.375,
            "velocity": 0.1968503937007874
          },
          {
            "duration": 0.125,
            "durationTicks": 96,
            "midi": 102,
            "name": "F#7",
            "ticks": 148608,
            "time": 193.5,
            "velocity": 0.1968503937007874
          },
          {
            "duration": 0.125,
            "durationTicks": 96,
            "midi": 102,
            "name": "F#7",
            "ticks": 148704,
            "time": 193.625,
            "velocity": 0.1968503937007874
          },
          {
            "duration": 0.125,
            "durationTicks": 96,
            "midi": 102,
            "name": "F#7",
            "ticks": 148800,
            "time": 193.75,
            "velocity": 0.1968503937007874
          },
          {
            "duration": 0.125,
            "durationTicks": 96,
            "midi": 102,
            "name": "F#7",
            "ticks": 148896,
            "time": 193.875,
            "velocity": 0.1968503937007874
          },
          {
            "duration": 0.125,
            "durationTicks": 96,
            "midi": 100,
            "name": "E7",
            "ticks": 148992,
            "time": 194,
            "velocity": 0.1968503937007874
          },
          {
            "duration": 0.125,
            "durationTicks": 96,
            "midi": 100,
            "name": "E7",
            "ticks": 149088,
            "time": 194.125,
            "velocity": 0.1968503937007874
          },
          {
            "duration": 0.125,
            "durationTicks": 96,
            "midi": 100,
            "name": "E7",
            "ticks": 149184,
            "time": 194.25,
            "velocity": 0.1968503937007874
          },
          {
            "duration": 0.125,
            "durationTicks": 96,
            "midi": 100,
            "name": "E7",
            "ticks": 149280,
            "time": 194.375,
            "velocity": 0.1968503937007874
          },
          {
            "duration": 0.125,
            "durationTicks": 96,
            "midi": 100,
            "name": "E7",
            "ticks": 149376,
            "time": 194.5,
            "velocity": 0.1968503937007874
          },
          {
            "duration": 0.125,
            "durationTicks": 96,
            "midi": 100,
            "name": "E7",
            "ticks": 149472,
            "time": 194.625,
            "velocity": 0.1968503937007874
          },
          {
            "duration": 0.125,
            "durationTicks": 96,
            "midi": 100,
            "name": "E7",
            "ticks": 149568,
            "time": 194.75,
            "velocity": 0.1968503937007874
          },
          {
            "duration": 0.125,
            "durationTicks": 96,
            "midi": 100,
            "name": "E7",
            "ticks": 149664,
            "time": 194.875,
            "velocity": 0.1968503937007874
          },
          {
            "duration": 0.125,
            "durationTicks": 96,
            "midi": 100,
            "name": "E7",
            "ticks": 149760,
            "time": 195,
            "velocity": 0.1968503937007874
          },
          {
            "duration": 0.125,
            "durationTicks": 96,
            "midi": 100,
            "name": "E7",
            "ticks": 149856,
            "time": 195.125,
            "velocity": 0.1968503937007874
          },
          {
            "duration": 0.125,
            "durationTicks": 96,
            "midi": 100,
            "name": "E7",
            "ticks": 149952,
            "time": 195.25,
            "velocity": 0.1968503937007874
          },
          {
            "duration": 0.125,
            "durationTicks": 96,
            "midi": 100,
            "name": "E7",
            "ticks": 150048,
            "time": 195.375,
            "velocity": 0.1968503937007874
          },
          {
            "duration": 0.125,
            "durationTicks": 96,
            "midi": 100,
            "name": "E7",
            "ticks": 150144,
            "time": 195.5,
            "velocity": 0.1968503937007874
          },
          {
            "duration": 0.125,
            "durationTicks": 96,
            "midi": 100,
            "name": "E7",
            "ticks": 150240,
            "time": 195.625,
            "velocity": 0.1968503937007874
          },
          {
            "duration": 0.125,
            "durationTicks": 96,
            "midi": 100,
            "name": "E7",
            "ticks": 150336,
            "time": 195.75,
            "velocity": 0.1968503937007874
          },
          {
            "duration": 0.125,
            "durationTicks": 96,
            "midi": 100,
            "name": "E7",
            "ticks": 150432,
            "time": 195.875,
            "velocity": 0.1968503937007874
          },
          {
            "duration": 0.125,
            "durationTicks": 96,
            "midi": 100,
            "name": "E7",
            "ticks": 150528,
            "time": 196,
            "velocity": 0.1968503937007874
          },
          {
            "duration": 0.125,
            "durationTicks": 96,
            "midi": 100,
            "name": "E7",
            "ticks": 150624,
            "time": 196.125,
            "velocity": 0.1968503937007874
          },
          {
            "duration": 0.125,
            "durationTicks": 96,
            "midi": 100,
            "name": "E7",
            "ticks": 150720,
            "time": 196.25,
            "velocity": 0.1968503937007874
          },
          {
            "duration": 0.125,
            "durationTicks": 96,
            "midi": 100,
            "name": "E7",
            "ticks": 150816,
            "time": 196.375,
            "velocity": 0.1968503937007874
          },
          {
            "duration": 0.125,
            "durationTicks": 96,
            "midi": 99,
            "name": "D#7",
            "ticks": 150912,
            "time": 196.5,
            "velocity": 0.1968503937007874
          },
          {
            "duration": 0.125,
            "durationTicks": 96,
            "midi": 99,
            "name": "D#7",
            "ticks": 151008,
            "time": 196.625,
            "velocity": 0.1968503937007874
          },
          {
            "duration": 0.125,
            "durationTicks": 96,
            "midi": 99,
            "name": "D#7",
            "ticks": 151104,
            "time": 196.75,
            "velocity": 0.1968503937007874
          },
          {
            "duration": 0.125,
            "durationTicks": 96,
            "midi": 99,
            "name": "D#7",
            "ticks": 151200,
            "time": 196.875,
            "velocity": 0.1968503937007874
          },
          {
            "duration": 0.125,
            "durationTicks": 96,
            "midi": 95,
            "name": "B6",
            "ticks": 151296,
            "time": 197,
            "velocity": 0.1968503937007874
          },
          {
            "duration": 0.125,
            "durationTicks": 96,
            "midi": 95,
            "name": "B6",
            "ticks": 151392,
            "time": 197.125,
            "velocity": 0.1968503937007874
          },
          {
            "duration": 0.125,
            "durationTicks": 96,
            "midi": 95,
            "name": "B6",
            "ticks": 151488,
            "time": 197.25,
            "velocity": 0.1968503937007874
          },
          {
            "duration": 0.125,
            "durationTicks": 96,
            "midi": 95,
            "name": "B6",
            "ticks": 151584,
            "time": 197.375,
            "velocity": 0.1968503937007874
          },
          {
            "duration": 0.125,
            "durationTicks": 96,
            "midi": 92,
            "name": "G#6",
            "ticks": 151680,
            "time": 197.5,
            "velocity": 0.1968503937007874
          },
          {
            "duration": 0.125,
            "durationTicks": 96,
            "midi": 92,
            "name": "G#6",
            "ticks": 151776,
            "time": 197.625,
            "velocity": 0.1968503937007874
          },
          {
            "duration": 0.125,
            "durationTicks": 96,
            "midi": 92,
            "name": "G#6",
            "ticks": 151872,
            "time": 197.75,
            "velocity": 0.1968503937007874
          },
          {
            "duration": 0.125,
            "durationTicks": 96,
            "midi": 92,
            "name": "G#6",
            "ticks": 151968,
            "time": 197.875,
            "velocity": 0.1968503937007874
          }
        ],
        "endOfTrackTicks": 152064
      },
      {
        "channel": 9,
        "controlChanges": {},
        "pitchBends": [],
        "instrument": {
          "family": "drums",
          "number": 0,
          "name": "standard kit"
        },
        "name": "Electric Drum Kit",
        "notes": [
          {
            "duration": 0.03125,
            "durationTicks": 24,
            "midi": 35,
            "name": "B1",
            "ticks": 24,
            "time": 0.03125,
            "velocity": 0.3937007874015748
          },
          {
            "duration": 0.09375,
            "durationTicks": 72,
            "midi": 38,
            "name": "D2",
            "ticks": 24,
            "time": 0.03125,
            "velocity": 0.3937007874015748
          },
          {
            "duration": 0.125,
            "durationTicks": 96,
            "midi": 35,
            "name": "B1",
            "ticks": 768,
            "time": 1,
            "velocity": 0.3937007874015748
          },
          {
            "duration": 0.125,
            "durationTicks": 96,
            "midi": 35,
            "name": "B1",
            "ticks": 1536,
            "time": 2,
            "velocity": 0.3937007874015748
          },
          {
            "duration": 0.125,
            "durationTicks": 96,
            "midi": 35,
            "name": "B1",
            "ticks": 2304,
            "time": 3,
            "velocity": 0.3937007874015748
          },
          {
            "duration": 0.125,
            "durationTicks": 96,
            "midi": 35,
            "name": "B1",
            "ticks": 3072,
            "time": 4,
            "velocity": 0.3937007874015748
          },
          {
            "duration": 0.125,
            "durationTicks": 96,
            "midi": 35,
            "name": "B1",
            "ticks": 3840,
            "time": 5,
            "velocity": 0.3937007874015748
          },
          {
            "duration": 0.125,
            "durationTicks": 96,
            "midi": 35,
            "name": "B1",
            "ticks": 4608,
            "time": 6,
            "velocity": 0.3937007874015748
          },
          {
            "duration": 0.125,
            "durationTicks": 96,
            "midi": 35,
            "name": "B1",
            "ticks": 5376,
            "time": 7,
            "velocity": 0.3937007874015748
          },
          {
            "duration": 0.125,
            "durationTicks": 96,
            "midi": 35,
            "name": "B1",
            "ticks": 6144,
            "time": 8,
            "velocity": 0.3937007874015748
          },
          {
            "duration": 0.125,
            "durationTicks": 96,
            "midi": 35,
            "name": "B1",
            "ticks": 6912,
            "time": 9,
            "velocity": 0.3937007874015748
          },
          {
            "duration": 0.125,
            "durationTicks": 96,
            "midi": 35,
            "name": "B1",
            "ticks": 7680,
            "time": 10,
            "velocity": 0.3937007874015748
          },
          {
            "duration": 0.125,
            "durationTicks": 96,
            "midi": 35,
            "name": "B1",
            "ticks": 8448,
            "time": 11,
            "velocity": 0.3937007874015748
          },
          {
            "duration": 0.125,
            "durationTicks": 96,
            "midi": 35,
            "name": "B1",
            "ticks": 9216,
            "time": 12,
            "velocity": 0.3937007874015748
          },
          {
            "duration": 0.125,
            "durationTicks": 96,
            "midi": 35,
            "name": "B1",
            "ticks": 9984,
            "time": 13,
            "velocity": 0.3937007874015748
          },
          {
            "duration": 0.125,
            "durationTicks": 96,
            "midi": 35,
            "name": "B1",
            "ticks": 10752,
            "time": 14,
            "velocity": 0.3937007874015748
          },
          {
            "duration": 0.125,
            "durationTicks": 96,
            "midi": 35,
            "name": "B1",
            "ticks": 11520,
            "time": 15,
            "velocity": 0.3937007874015748
          },
          {
            "duration": 0.125,
            "durationTicks": 96,
            "midi": 35,
            "name": "B1",
            "ticks": 12288,
            "time": 16,
            "velocity": 0.3937007874015748
          },
          {
            "duration": 0.125,
            "durationTicks": 96,
            "midi": 35,
            "name": "B1",
            "ticks": 13056,
            "time": 17,
            "velocity": 0.3937007874015748
          },
          {
            "duration": 0.125,
            "durationTicks": 96,
            "midi": 35,
            "name": "B1",
            "ticks": 13824,
            "time": 18,
            "velocity": 0.3937007874015748
          },
          {
            "duration": 0.125,
            "durationTicks": 96,
            "midi": 35,
            "name": "B1",
            "ticks": 14592,
            "time": 19,
            "velocity": 0.3937007874015748
          },
          {
            "duration": 0.125,
            "durationTicks": 96,
            "midi": 35,
            "name": "B1",
            "ticks": 15360,
            "time": 20,
            "velocity": 0.3937007874015748
          },
          {
            "duration": 0.125,
            "durationTicks": 96,
            "midi": 35,
            "name": "B1",
            "ticks": 15648,
            "time": 20.375,
            "velocity": 0.3937007874015748
          },
          {
            "duration": 0.125,
            "durationTicks": 96,
            "midi": 35,
            "name": "B1",
            "ticks": 16896,
            "time": 22,
            "velocity": 0.3937007874015748
          },
          {
            "duration": 0.125,
            "durationTicks": 96,
            "midi": 35,
            "name": "B1",
            "ticks": 17280,
            "time": 22.5,
            "velocity": 0.3937007874015748
          },
          {
            "duration": 0.125,
            "durationTicks": 96,
            "midi": 35,
            "name": "B1",
            "ticks": 17664,
            "time": 23,
            "velocity": 0.3937007874015748
          },
          {
            "duration": 0.125,
            "durationTicks": 96,
            "midi": 40,
            "name": "E2",
            "ticks": 17952,
            "time": 23.375,
            "velocity": 0.3937007874015748
          },
          {
            "duration": 0.125,
            "durationTicks": 96,
            "midi": 40,
            "name": "E2",
            "ticks": 18048,
            "time": 23.5,
            "velocity": 0.3937007874015748
          },
          {
            "duration": 0.125,
            "durationTicks": 96,
            "midi": 40,
            "name": "E2",
            "ticks": 18336,
            "time": 23.875,
            "velocity": 0.3937007874015748
          },
          {
            "duration": 0.125,
            "durationTicks": 96,
            "midi": 39,
            "name": "D#2",
            "ticks": 19584,
            "time": 25.5,
            "velocity": 0.47244094488188976
          },
          {
            "duration": 0.125,
            "durationTicks": 96,
            "midi": 39,
            "name": "D#2",
            "ticks": 21120,
            "time": 27.5,
            "velocity": 0.47244094488188976
          },
          {
            "duration": 0.125,
            "durationTicks": 96,
            "midi": 39,
            "name": "D#2",
            "ticks": 22656,
            "time": 29.5,
            "velocity": 0.47244094488188976
          },
          {
            "duration": 0.125,
            "durationTicks": 96,
            "midi": 39,
            "name": "D#2",
            "ticks": 24192,
            "time": 31.5,
            "velocity": 0.47244094488188976
          },
          {
            "duration": 0.125,
            "durationTicks": 96,
            "midi": 39,
            "name": "D#2",
            "ticks": 25728,
            "time": 33.5,
            "velocity": 0.47244094488188976
          },
          {
            "duration": 0.125,
            "durationTicks": 96,
            "midi": 39,
            "name": "D#2",
            "ticks": 27264,
            "time": 35.5,
            "velocity": 0.47244094488188976
          },
          {
            "duration": 0.125,
            "durationTicks": 96,
            "midi": 39,
            "name": "D#2",
            "ticks": 28800,
            "time": 37.5,
            "velocity": 0.47244094488188976
          },
          {
            "duration": 0.125,
            "durationTicks": 96,
            "midi": 39,
            "name": "D#2",
            "ticks": 30336,
            "time": 39.5,
            "velocity": 0.47244094488188976
          },
          {
            "duration": 0.125,
            "durationTicks": 96,
            "midi": 39,
            "name": "D#2",
            "ticks": 31872,
            "time": 41.5,
            "velocity": 0.47244094488188976
          },
          {
            "duration": 0.125,
            "durationTicks": 96,
            "midi": 39,
            "name": "D#2",
            "ticks": 33408,
            "time": 43.5,
            "velocity": 0.47244094488188976
          },
          {
            "duration": 0.125,
            "durationTicks": 96,
            "midi": 39,
            "name": "D#2",
            "ticks": 34944,
            "time": 45.5,
            "velocity": 0.47244094488188976
          },
          {
            "duration": 0.125,
            "durationTicks": 96,
            "midi": 39,
            "name": "D#2",
            "ticks": 36480,
            "time": 47.5,
            "velocity": 0.47244094488188976
          },
          {
            "duration": 0.125,
            "durationTicks": 96,
            "midi": 39,
            "name": "D#2",
            "ticks": 38016,
            "time": 49.5,
            "velocity": 0.47244094488188976
          },
          {
            "duration": 0.125,
            "durationTicks": 96,
            "midi": 39,
            "name": "D#2",
            "ticks": 39552,
            "time": 51.5,
            "velocity": 0.47244094488188976
          },
          {
            "duration": 0.125,
            "durationTicks": 96,
            "midi": 39,
            "name": "D#2",
            "ticks": 41088,
            "time": 53.5,
            "velocity": 0.47244094488188976
          },
          {
            "duration": 0.125,
            "durationTicks": 96,
            "midi": 39,
            "name": "D#2",
            "ticks": 42624,
            "time": 55.5,
            "velocity": 0.47244094488188976
          },
          {
            "duration": 0.125,
            "durationTicks": 96,
            "midi": 39,
            "name": "D#2",
            "ticks": 44160,
            "time": 57.5,
            "velocity": 0.47244094488188976
          },
          {
            "duration": 0.125,
            "durationTicks": 96,
            "midi": 39,
            "name": "D#2",
            "ticks": 45696,
            "time": 59.5,
            "velocity": 0.47244094488188976
          },
          {
            "duration": 0.125,
            "durationTicks": 96,
            "midi": 39,
            "name": "D#2",
            "ticks": 47232,
            "time": 61.5,
            "velocity": 0.47244094488188976
          },
          {
            "duration": 0.125,
            "durationTicks": 96,
            "midi": 39,
            "name": "D#2",
            "ticks": 48768,
            "time": 63.5,
            "velocity": 0.47244094488188976
          },
          {
            "duration": 0.125,
            "durationTicks": 96,
            "midi": 39,
            "name": "D#2",
            "ticks": 50304,
            "time": 65.5,
            "velocity": 0.47244094488188976
          },
          {
            "duration": 0.125,
            "durationTicks": 96,
            "midi": 39,
            "name": "D#2",
            "ticks": 51840,
            "time": 67.5,
            "velocity": 0.47244094488188976
          },
          {
            "duration": 0.125,
            "durationTicks": 96,
            "midi": 39,
            "name": "D#2",
            "ticks": 53376,
            "time": 69.5,
            "velocity": 0.47244094488188976
          },
          {
            "duration": 0.125,
            "durationTicks": 96,
            "midi": 39,
            "name": "D#2",
            "ticks": 54912,
            "time": 71.5,
            "velocity": 0.47244094488188976
          },
          {
            "duration": 0.125,
            "durationTicks": 96,
            "midi": 39,
            "name": "D#2",
            "ticks": 56448,
            "time": 73.5,
            "velocity": 0.47244094488188976
          },
          {
            "duration": 0.125,
            "durationTicks": 96,
            "midi": 39,
            "name": "D#2",
            "ticks": 57984,
            "time": 75.5,
            "velocity": 0.47244094488188976
          },
          {
            "duration": 0.125,
            "durationTicks": 96,
            "midi": 39,
            "name": "D#2",
            "ticks": 59520,
            "time": 77.5,
            "velocity": 0.47244094488188976
          },
          {
            "duration": 0.125,
            "durationTicks": 96,
            "midi": 39,
            "name": "D#2",
            "ticks": 61056,
            "time": 79.5,
            "velocity": 0.47244094488188976
          },
          {
            "duration": 0.125,
            "durationTicks": 96,
            "midi": 39,
            "name": "D#2",
            "ticks": 62592,
            "time": 81.5,
            "velocity": 0.47244094488188976
          },
          {
            "duration": 0.125,
            "durationTicks": 96,
            "midi": 39,
            "name": "D#2",
            "ticks": 64128,
            "time": 83.5,
            "velocity": 0.47244094488188976
          },
          {
            "duration": 0.125,
            "durationTicks": 96,
            "midi": 39,
            "name": "D#2",
            "ticks": 65664,
            "time": 85.5,
            "velocity": 0.47244094488188976
          },
          {
            "duration": 0.125,
            "durationTicks": 96,
            "midi": 39,
            "name": "D#2",
            "ticks": 67200,
            "time": 87.5,
            "velocity": 0.47244094488188976
          },
          {
            "duration": 0.125,
            "durationTicks": 96,
            "midi": 39,
            "name": "D#2",
            "ticks": 68736,
            "time": 89.5,
            "velocity": 0.47244094488188976
          },
          {
            "duration": 0.125,
            "durationTicks": 96,
            "midi": 39,
            "name": "D#2",
            "ticks": 70272,
            "time": 91.5,
            "velocity": 0.47244094488188976
          },
          {
            "duration": 0.125,
            "durationTicks": 96,
            "midi": 39,
            "name": "D#2",
            "ticks": 71808,
            "time": 93.5,
            "velocity": 0.47244094488188976
          },
          {
            "duration": 0.125,
            "durationTicks": 96,
            "midi": 39,
            "name": "D#2",
            "ticks": 73344,
            "time": 95.5,
            "velocity": 0.47244094488188976
          },
          {
            "duration": 0.125,
            "durationTicks": 96,
            "midi": 39,
            "name": "D#2",
            "ticks": 74880,
            "time": 97.5,
            "velocity": 0.47244094488188976
          },
          {
            "duration": 0.125,
            "durationTicks": 96,
            "midi": 33,
            "name": "A1",
            "ticks": 76320,
            "time": 99.375,
            "velocity": 0.7007874015748031
          },
          {
            "duration": 0.0625,
            "durationTicks": 48,
            "midi": 43,
            "name": "G2",
            "ticks": 76368,
            "time": 99.4375,
            "velocity": 0.47244094488188976
          },
          {
            "duration": 0.125,
            "durationTicks": 96,
            "midi": 35,
            "name": "B1",
            "ticks": 76416,
            "time": 99.5,
            "velocity": 0.5433070866141733
          },
          {
            "duration": 0.125,
            "durationTicks": 96,
            "midi": 27,
            "name": "D#1",
            "ticks": 76416,
            "time": 99.5,
            "velocity": 0.2677165354330709
          },
          {
            "duration": 0.125,
            "durationTicks": 96,
            "midi": 87,
            "name": "D#6",
            "ticks": 76416,
            "time": 99.5,
            "velocity": 0.5433070866141733
          },
          {
            "duration": 0.0625,
            "durationTicks": 48,
            "midi": 38,
            "name": "D2",
            "ticks": 76464,
            "time": 99.5625,
            "velocity": 0.23622047244094488
          },
          {
            "duration": 0.125,
            "durationTicks": 96,
            "midi": 39,
            "name": "D#2",
            "ticks": 77952,
            "time": 101.5,
            "velocity": 0.47244094488188976
          },
          {
            "duration": 0.125,
            "durationTicks": 96,
            "midi": 39,
            "name": "D#2",
            "ticks": 79488,
            "time": 103.5,
            "velocity": 0.47244094488188976
          },
          {
            "duration": 0.125,
            "durationTicks": 96,
            "midi": 39,
            "name": "D#2",
            "ticks": 81024,
            "time": 105.5,
            "velocity": 0.47244094488188976
          },
          {
            "duration": 0.125,
            "durationTicks": 96,
            "midi": 39,
            "name": "D#2",
            "ticks": 82560,
            "time": 107.5,
            "velocity": 0.47244094488188976
          },
          {
            "duration": 0.125,
            "durationTicks": 96,
            "midi": 39,
            "name": "D#2",
            "ticks": 84096,
            "time": 109.5,
            "velocity": 0.47244094488188976
          },
          {
            "duration": 0.125,
            "durationTicks": 96,
            "midi": 39,
            "name": "D#2",
            "ticks": 85632,
            "time": 111.5,
            "velocity": 0.47244094488188976
          },
          {
            "duration": 0.125,
            "durationTicks": 96,
            "midi": 39,
            "name": "D#2",
            "ticks": 87168,
            "time": 113.5,
            "velocity": 0.47244094488188976
          },
          {
            "duration": 0.125,
            "durationTicks": 96,
            "midi": 39,
            "name": "D#2",
            "ticks": 88704,
            "time": 115.5,
            "velocity": 0.47244094488188976
          },
          {
            "duration": 0.125,
            "durationTicks": 96,
            "midi": 39,
            "name": "D#2",
            "ticks": 90240,
            "time": 117.5,
            "velocity": 0.47244094488188976
          },
          {
            "duration": 0.125,
            "durationTicks": 96,
            "midi": 39,
            "name": "D#2",
            "ticks": 91776,
            "time": 119.5,
            "velocity": 0.47244094488188976
          },
          {
            "duration": 0.125,
            "durationTicks": 96,
            "midi": 39,
            "name": "D#2",
            "ticks": 93312,
            "time": 121.5,
            "velocity": 0.47244094488188976
          },
          {
            "duration": 0.125,
            "durationTicks": 96,
            "midi": 39,
            "name": "D#2",
            "ticks": 94848,
            "time": 123.5,
            "velocity": 0.47244094488188976
          },
          {
            "duration": 0.125,
            "durationTicks": 96,
            "midi": 39,
            "name": "D#2",
            "ticks": 96384,
            "time": 125.5,
            "velocity": 0.47244094488188976
          },
          {
            "duration": 0.125,
            "durationTicks": 96,
            "midi": 39,
            "name": "D#2",
            "ticks": 97920,
            "time": 127.5,
            "velocity": 0.47244094488188976
          },
          {
            "duration": 0.125,
            "durationTicks": 96,
            "midi": 39,
            "name": "D#2",
            "ticks": 99456,
            "time": 129.5,
            "velocity": 0.47244094488188976
          },
          {
            "duration": 0.125,
            "durationTicks": 96,
            "midi": 39,
            "name": "D#2",
            "ticks": 100992,
            "time": 131.5,
            "velocity": 0.47244094488188976
          },
          {
            "duration": 0.125,
            "durationTicks": 96,
            "midi": 39,
            "name": "D#2",
            "ticks": 102528,
            "time": 133.5,
            "velocity": 0.47244094488188976
          },
          {
            "duration": 0.125,
            "durationTicks": 96,
            "midi": 39,
            "name": "D#2",
            "ticks": 104064,
            "time": 135.5,
            "velocity": 0.47244094488188976
          },
          {
            "duration": 0.125,
            "durationTicks": 96,
            "midi": 39,
            "name": "D#2",
            "ticks": 105600,
            "time": 137.5,
            "velocity": 0.47244094488188976
          },
          {
            "duration": 0.125,
            "durationTicks": 96,
            "midi": 39,
            "name": "D#2",
            "ticks": 107136,
            "time": 139.5,
            "velocity": 0.47244094488188976
          },
          {
            "duration": 0.125,
            "durationTicks": 96,
            "midi": 39,
            "name": "D#2",
            "ticks": 108672,
            "time": 141.5,
            "velocity": 0.47244094488188976
          },
          {
            "duration": 0.125,
            "durationTicks": 96,
            "midi": 39,
            "name": "D#2",
            "ticks": 110208,
            "time": 143.5,
            "velocity": 0.47244094488188976
          },
          {
            "duration": 0.125,
            "durationTicks": 96,
            "midi": 39,
            "name": "D#2",
            "ticks": 111744,
            "time": 145.5,
            "velocity": 0.47244094488188976
          },
          {
            "duration": 0.125,
            "durationTicks": 96,
            "midi": 39,
            "name": "D#2",
            "ticks": 112512,
            "time": 146.5,
            "velocity": 0.47244094488188976
          },
          {
            "duration": 0.125,
            "durationTicks": 96,
            "midi": 39,
            "name": "D#2",
            "ticks": 113280,
            "time": 147.5,
            "velocity": 0.47244094488188976
          },
          {
            "duration": 0.125,
            "durationTicks": 96,
            "midi": 39,
            "name": "D#2",
            "ticks": 114048,
            "time": 148.5,
            "velocity": 0.47244094488188976
          },
          {
            "duration": 0.125,
            "durationTicks": 96,
            "midi": 39,
            "name": "D#2",
            "ticks": 114816,
            "time": 149.5,
            "velocity": 0.47244094488188976
          },
          {
            "duration": 0.125,
            "durationTicks": 96,
            "midi": 39,
            "name": "D#2",
            "ticks": 116352,
            "time": 151.5,
            "velocity": 0.47244094488188976
          },
          {
            "duration": 0.125,
            "durationTicks": 96,
            "midi": 39,
            "name": "D#2",
            "ticks": 117120,
            "time": 152.5,
            "velocity": 0.47244094488188976
          },
          {
            "duration": 0.125,
            "durationTicks": 96,
            "midi": 39,
            "name": "D#2",
            "ticks": 117888,
            "time": 153.5,
            "velocity": 0.47244094488188976
          },
          {
            "duration": 0.125,
            "durationTicks": 96,
            "midi": 39,
            "name": "D#2",
            "ticks": 118656,
            "time": 154.5,
            "velocity": 0.47244094488188976
          },
          {
            "duration": 0.125,
            "durationTicks": 96,
            "midi": 39,
            "name": "D#2",
            "ticks": 119424,
            "time": 155.5,
            "velocity": 0.47244094488188976
          },
          {
            "duration": 0.125,
            "durationTicks": 96,
            "midi": 39,
            "name": "D#2",
            "ticks": 120192,
            "time": 156.5,
            "velocity": 0.47244094488188976
          },
          {
            "duration": 0.125,
            "durationTicks": 96,
            "midi": 39,
            "name": "D#2",
            "ticks": 120960,
            "time": 157.5,
            "velocity": 0.47244094488188976
          },
          {
            "duration": 0.125,
            "durationTicks": 96,
            "midi": 39,
            "name": "D#2",
            "ticks": 121728,
            "time": 158.5,
            "velocity": 0.47244094488188976
          },
          {
            "duration": 0.125,
            "durationTicks": 96,
            "midi": 39,
            "name": "D#2",
            "ticks": 122496,
            "time": 159.5,
            "velocity": 0.47244094488188976
          },
          {
            "duration": 0.125,
            "durationTicks": 96,
            "midi": 39,
            "name": "D#2",
            "ticks": 123264,
            "time": 160.5,
            "velocity": 0.47244094488188976
          },
          {
            "duration": 0.125,
            "durationTicks": 96,
            "midi": 39,
            "name": "D#2",
            "ticks": 124032,
            "time": 161.5,
            "velocity": 0.47244094488188976
          },
          {
            "duration": 0.125,
            "durationTicks": 96,
            "midi": 39,
            "name": "D#2",
            "ticks": 124800,
            "time": 162.5,
            "velocity": 0.47244094488188976
          },
          {
            "duration": 0.125,
            "durationTicks": 96,
            "midi": 39,
            "name": "D#2",
            "ticks": 125568,
            "time": 163.5,
            "velocity": 0.47244094488188976
          },
          {
            "duration": 0.125,
            "durationTicks": 96,
            "midi": 39,
            "name": "D#2",
            "ticks": 126336,
            "time": 164.5,
            "velocity": 0.47244094488188976
          },
          {
            "duration": 0.125,
            "durationTicks": 96,
            "midi": 39,
            "name": "D#2",
            "ticks": 127104,
            "time": 165.5,
            "velocity": 0.47244094488188976
          },
          {
            "duration": 0.125,
            "durationTicks": 96,
            "midi": 39,
            "name": "D#2",
            "ticks": 128640,
            "time": 167.5,
            "velocity": 0.47244094488188976
          },
          {
            "duration": 0.125,
            "durationTicks": 96,
            "midi": 39,
            "name": "D#2",
            "ticks": 130176,
            "time": 169.5,
            "velocity": 0.47244094488188976
          },
          {
            "duration": 0.125,
            "durationTicks": 96,
            "midi": 39,
            "name": "D#2",
            "ticks": 131712,
            "time": 171.5,
            "velocity": 0.47244094488188976
          },
          {
            "duration": 0.125,
            "durationTicks": 96,
            "midi": 39,
            "name": "D#2",
            "ticks": 133248,
            "time": 173.5,
            "velocity": 0.47244094488188976
          },
          {
            "duration": 0.125,
            "durationTicks": 96,
            "midi": 39,
            "name": "D#2",
            "ticks": 134784,
            "time": 175.5,
            "velocity": 0.47244094488188976
          },
          {
            "duration": 0.125,
            "durationTicks": 96,
            "midi": 39,
            "name": "D#2",
            "ticks": 136320,
            "time": 177.5,
            "velocity": 0.47244094488188976
          },
          {
            "duration": 0.125,
            "durationTicks": 96,
            "midi": 39,
            "name": "D#2",
            "ticks": 137856,
            "time": 179.5,
            "velocity": 0.47244094488188976
          },
          {
            "duration": 0.125,
            "durationTicks": 96,
            "midi": 39,
            "name": "D#2",
            "ticks": 139392,
            "time": 181.5,
            "velocity": 0.47244094488188976
          },
          {
            "duration": 0.125,
            "durationTicks": 96,
            "midi": 39,
            "name": "D#2",
            "ticks": 140928,
            "time": 183.5,
            "velocity": 0.47244094488188976
          },
          {
            "duration": 0.125,
            "durationTicks": 96,
            "midi": 39,
            "name": "D#2",
            "ticks": 142464,
            "time": 185.5,
            "velocity": 0.47244094488188976
          },
          {
            "duration": 0.125,
            "durationTicks": 96,
            "midi": 39,
            "name": "D#2",
            "ticks": 144000,
            "time": 187.5,
            "velocity": 0.47244094488188976
          },
          {
            "duration": 0.125,
            "durationTicks": 96,
            "midi": 39,
            "name": "D#2",
            "ticks": 145536,
            "time": 189.5,
            "velocity": 0.47244094488188976
          },
          {
            "duration": 0.125,
            "durationTicks": 96,
            "midi": 39,
            "name": "D#2",
            "ticks": 147072,
            "time": 191.5,
            "velocity": 0.47244094488188976
          },
          {
            "duration": 0.125,
            "durationTicks": 96,
            "midi": 39,
            "name": "D#2",
            "ticks": 148608,
            "time": 193.5,
            "velocity": 0.47244094488188976
          },
          {
            "duration": 0.125,
            "durationTicks": 96,
            "midi": 39,
            "name": "D#2",
            "ticks": 150144,
            "time": 195.5,
            "velocity": 0.47244094488188976
          },
          {
            "duration": 0.125,
            "durationTicks": 96,
            "midi": 39,
            "name": "D#2",
            "ticks": 151680,
            "time": 197.5,
            "velocity": 0.47244094488188976
          },
          {
            "duration": 0.125,
            "durationTicks": 96,
            "midi": 39,
            "name": "D#2",
            "ticks": 153216,
            "time": 199.5,
            "velocity": 0.47244094488188976
          },
          {
            "duration": 0.125,
            "durationTicks": 96,
            "midi": 39,
            "name": "D#2",
            "ticks": 154752,
            "time": 201.5,
            "velocity": 0.47244094488188976
          },
          {
            "duration": 0.125,
            "durationTicks": 96,
            "midi": 39,
            "name": "D#2",
            "ticks": 156288,
            "time": 203.5,
            "velocity": 0.47244094488188976
          },
          {
            "duration": 0.125,
            "durationTicks": 96,
            "midi": 39,
            "name": "D#2",
            "ticks": 157824,
            "time": 205.5,
            "velocity": 0.47244094488188976
          },
          {
            "duration": 0.125,
            "durationTicks": 96,
            "midi": 39,
            "name": "D#2",
            "ticks": 159360,
            "time": 207.5,
            "velocity": 0.47244094488188976
          },
          {
            "duration": 0.125,
            "durationTicks": 96,
            "midi": 39,
            "name": "D#2",
            "ticks": 160896,
            "time": 209.5,
            "velocity": 0.47244094488188976
          },
          {
            "duration": 0.125,
            "durationTicks": 96,
            "midi": 39,
            "name": "D#2",
            "ticks": 162432,
            "time": 211.5,
            "velocity": 0.47244094488188976
          },
          {
            "duration": 0.125,
            "durationTicks": 96,
            "midi": 39,
            "name": "D#2",
            "ticks": 163968,
            "time": 213.5,
            "velocity": 0.47244094488188976
          },
          {
            "duration": 0.125,
            "durationTicks": 96,
            "midi": 39,
            "name": "D#2",
            "ticks": 165504,
            "time": 215.5,
            "velocity": 0.47244094488188976
          },
          {
            "duration": 0.125,
            "durationTicks": 96,
            "midi": 39,
            "name": "D#2",
            "ticks": 167040,
            "time": 217.5,
            "velocity": 0.47244094488188976
          },
          {
            "duration": 0.125,
            "durationTicks": 96,
            "midi": 39,
            "name": "D#2",
            "ticks": 168576,
            "time": 219.5,
            "velocity": 0.47244094488188976
          },
          {
            "duration": 0.125,
            "durationTicks": 96,
            "midi": 39,
            "name": "D#2",
            "ticks": 170112,
            "time": 221.5,
            "velocity": 0.47244094488188976
          },
          {
            "duration": 0.125,
            "durationTicks": 96,
            "midi": 39,
            "name": "D#2",
            "ticks": 171648,
            "time": 223.5,
            "velocity": 0.47244094488188976
          },
          {
            "duration": 0.125,
            "durationTicks": 96,
            "midi": 39,
            "name": "D#2",
            "ticks": 173184,
            "time": 225.5,
            "velocity": 0.47244094488188976
          },
          {
            "duration": 0.125,
            "durationTicks": 96,
            "midi": 39,
            "name": "D#2",
            "ticks": 174720,
            "time": 227.5,
            "velocity": 0.47244094488188976
          },
          {
            "duration": 0.125,
            "durationTicks": 96,
            "midi": 39,
            "name": "D#2",
            "ticks": 176256,
            "time": 229.5,
            "velocity": 0.47244094488188976
          },
          {
            "duration": 0.125,
            "durationTicks": 96,
            "midi": 39,
            "name": "D#2",
            "ticks": 177792,
            "time": 231.5,
            "velocity": 0.47244094488188976
          },
          {
            "duration": 0.125,
            "durationTicks": 96,
            "midi": 39,
            "name": "D#2",
            "ticks": 179328,
            "time": 233.5,
            "velocity": 0.47244094488188976
          },
          {
            "duration": 0.125,
            "durationTicks": 96,
            "midi": 39,
            "name": "D#2",
            "ticks": 180864,
            "time": 235.5,
            "velocity": 0.47244094488188976
          },
          {
            "duration": 0.125,
            "durationTicks": 96,
            "midi": 39,
            "name": "D#2",
            "ticks": 182400,
            "time": 237.5,
            "velocity": 0.47244094488188976
          },
          {
            "duration": 0.125,
            "durationTicks": 96,
            "midi": 39,
            "name": "D#2",
            "ticks": 183936,
            "time": 239.5,
            "velocity": 0.47244094488188976
          },
          {
            "duration": 0.125,
            "durationTicks": 96,
            "midi": 39,
            "name": "D#2",
            "ticks": 185472,
            "time": 241.5,
            "velocity": 0.47244094488188976
          },
          {
            "duration": 0.125,
            "durationTicks": 96,
            "midi": 39,
            "name": "D#2",
            "ticks": 187008,
            "time": 243.5,
            "velocity": 0.47244094488188976
          },
          {
            "duration": 0.125,
            "durationTicks": 96,
            "midi": 39,
            "name": "D#2",
            "ticks": 188544,
            "time": 245.5,
            "velocity": 0.47244094488188976
          },
          {
            "duration": 0.125,
            "durationTicks": 96,
            "midi": 39,
            "name": "D#2",
            "ticks": 190080,
            "time": 247.5,
            "velocity": 0.47244094488188976
          },
          {
            "duration": 0.125,
            "durationTicks": 96,
            "midi": 39,
            "name": "D#2",
            "ticks": 191616,
            "time": 249.5,
            "velocity": 0.47244094488188976
          },
          {
            "duration": 0.125,
            "durationTicks": 96,
            "midi": 39,
            "name": "D#2",
            "ticks": 193152,
            "time": 251.5,
            "velocity": 0.47244094488188976
          },
          {
            "duration": 0.125,
            "durationTicks": 96,
            "midi": 39,
            "name": "D#2",
            "ticks": 194688,
            "time": 253.5,
            "velocity": 0.47244094488188976
          },
          {
            "duration": 0.125,
            "durationTicks": 96,
            "midi": 39,
            "name": "D#2",
            "ticks": 196224,
            "time": 255.5,
            "velocity": 0.47244094488188976
          },
          {
            "duration": 0.125,
            "durationTicks": 96,
            "midi": 39,
            "name": "D#2",
            "ticks": 197760,
            "time": 257.5,
            "velocity": 0.47244094488188976
          },
          {
            "duration": 0.125,
            "durationTicks": 96,
            "midi": 39,
            "name": "D#2",
            "ticks": 199296,
            "time": 259.5,
            "velocity": 0.47244094488188976
          },
          {
            "duration": 0.125,
            "durationTicks": 96,
            "midi": 39,
            "name": "D#2",
            "ticks": 200832,
            "time": 261.5,
            "velocity": 0.47244094488188976
          },
          {
            "duration": 0.125,
            "durationTicks": 96,
            "midi": 39,
            "name": "D#2",
            "ticks": 202368,
            "time": 263.5,
            "velocity": 0.47244094488188976
          },
          {
            "duration": 0.125,
            "durationTicks": 96,
            "midi": 39,
            "name": "D#2",
            "ticks": 203904,
            "time": 265.5,
            "velocity": 0.47244094488188976
          },
          {
            "duration": 0.125,
            "durationTicks": 96,
            "midi": 39,
            "name": "D#2",
            "ticks": 205440,
            "time": 267.5,
            "velocity": 0.47244094488188976
          },
          {
            "duration": 0.125,
            "durationTicks": 96,
            "midi": 39,
            "name": "D#2",
            "ticks": 206976,
            "time": 269.5,
            "velocity": 0.47244094488188976
          },
          {
            "duration": 0.125,
            "durationTicks": 96,
            "midi": 39,
            "name": "D#2",
            "ticks": 208512,
            "time": 271.5,
            "velocity": 0.47244094488188976
          },
          {
            "duration": 0.125,
            "durationTicks": 96,
            "midi": 39,
            "name": "D#2",
            "ticks": 210048,
            "time": 273.5,
            "velocity": 0.47244094488188976
          },
          {
            "duration": 0.125,
            "durationTicks": 96,
            "midi": 39,
            "name": "D#2",
            "ticks": 211584,
            "time": 275.5,
            "velocity": 0.47244094488188976
          },
          {
            "duration": 0.125,
            "durationTicks": 96,
            "midi": 39,
            "name": "D#2",
            "ticks": 213120,
            "time": 277.5,
            "velocity": 0.47244094488188976
          },
          {
            "duration": 0.125,
            "durationTicks": 96,
            "midi": 39,
            "name": "D#2",
            "ticks": 214656,
            "time": 279.5,
            "velocity": 0.47244094488188976
          },
          {
            "duration": 0.125,
            "durationTicks": 96,
            "midi": 39,
            "name": "D#2",
            "ticks": 216192,
            "time": 281.5,
            "velocity": 0.47244094488188976
          },
          {
            "duration": 0.125,
            "durationTicks": 96,
            "midi": 39,
            "name": "D#2",
            "ticks": 217728,
            "time": 283.5,
            "velocity": 0.47244094488188976
          },
          {
            "duration": 0.125,
            "durationTicks": 96,
            "midi": 39,
            "name": "D#2",
            "ticks": 219264,
            "time": 285.5,
            "velocity": 0.47244094488188976
          },
          {
            "duration": 0.125,
            "durationTicks": 96,
            "midi": 39,
            "name": "D#2",
            "ticks": 220800,
            "time": 287.5,
            "velocity": 0.47244094488188976
          },
          {
            "duration": 0.125,
            "durationTicks": 96,
            "midi": 39,
            "name": "D#2",
            "ticks": 222336,
            "time": 289.5,
            "velocity": 0.47244094488188976
          },
          {
            "duration": 0.125,
            "durationTicks": 96,
            "midi": 39,
            "name": "D#2",
            "ticks": 223872,
            "time": 291.5,
            "velocity": 0.47244094488188976
          },
          {
            "duration": 0.125,
            "durationTicks": 96,
            "midi": 39,
            "name": "D#2",
            "ticks": 225408,
            "time": 293.5,
            "velocity": 0.47244094488188976
          },
          {
            "duration": 0.125,
            "durationTicks": 96,
            "midi": 39,
            "name": "D#2",
            "ticks": 226944,
            "time": 295.5,
            "velocity": 0.47244094488188976
          },
          {
            "duration": 0.125,
            "durationTicks": 96,
            "midi": 39,
            "name": "D#2",
            "ticks": 228480,
            "time": 297.5,
            "velocity": 0.47244094488188976
          },
          {
            "duration": 0.125,
            "durationTicks": 96,
            "midi": 39,
            "name": "D#2",
            "ticks": 230016,
            "time": 299.5,
            "velocity": 0.47244094488188976
          },
          {
            "duration": 0.125,
            "durationTicks": 96,
            "midi": 39,
            "name": "D#2",
            "ticks": 231552,
            "time": 301.5,
            "velocity": 0.47244094488188976
          },
          {
            "duration": 0.125,
            "durationTicks": 96,
            "midi": 39,
            "name": "D#2",
            "ticks": 233088,
            "time": 303.5,
            "velocity": 0.47244094488188976
          },
          {
            "duration": 0.125,
            "durationTicks": 96,
            "midi": 39,
            "name": "D#2",
            "ticks": 234624,
            "time": 305.5,
            "velocity": 0.47244094488188976
          },
          {
            "duration": 0.125,
            "durationTicks": 96,
            "midi": 39,
            "name": "D#2",
            "ticks": 236160,
            "time": 307.5,
            "velocity": 0.47244094488188976
          },
          {
            "duration": 0.125,
            "durationTicks": 96,
            "midi": 39,
            "name": "D#2",
            "ticks": 237696,
            "time": 309.5,
            "velocity": 0.47244094488188976
          },
          {
            "duration": 0.125,
            "durationTicks": 96,
            "midi": 39,
            "name": "D#2",
            "ticks": 239232,
            "time": 311.5,
            "velocity": 0.47244094488188976
          },
          {
            "duration": 0.125,
            "durationTicks": 96,
            "midi": 39,
            "name": "D#2",
            "ticks": 240768,
            "time": 313.5,
            "velocity": 0.47244094488188976
          },
          {
            "duration": 0.125,
            "durationTicks": 96,
            "midi": 39,
            "name": "D#2",
            "ticks": 242304,
            "time": 315.5,
            "velocity": 0.47244094488188976
          },
          {
            "duration": 0.125,
            "durationTicks": 96,
            "midi": 39,
            "name": "D#2",
            "ticks": 243840,
            "time": 317.5,
            "velocity": 0.47244094488188976
          },
          {
            "duration": 0.125,
            "durationTicks": 96,
            "midi": 39,
            "name": "D#2",
            "ticks": 245376,
            "time": 319.5,
            "velocity": 0.47244094488188976
          },
          {
            "duration": 0.125,
            "durationTicks": 96,
            "midi": 39,
            "name": "D#2",
            "ticks": 246912,
            "time": 321.5,
            "velocity": 0.47244094488188976
          },
          {
            "duration": 0.125,
            "durationTicks": 96,
            "midi": 39,
            "name": "D#2",
            "ticks": 247200,
            "time": 321.875,
            "velocity": 0.47244094488188976
          }
        ],
        "endOfTrackTicks": 247296
      },
      {
        "channel": 0,
        "controlChanges": {},
        "pitchBends": [],
        "instrument": {
          "family": "piano",
          "number": 0,
          "name": "acoustic grand piano"
        },
        "name": "Jazz Guitar",
        "notes": [],
        "endOfTrackTicks": 6624
      },
      {
        "channel": 10,
        "controlChanges": {},
        "pitchBends": [],
        "instrument": {
          "family": "piano",
          "number": 0,
          "name": "acoustic grand piano"
        },
        "name": "Koto",
        "notes": [
          {
            "duration": 0.0625,
            "durationTicks": 48,
            "midi": 56,
            "name": "G#3",
            "ticks": 43200,
            "time": 56.25,
            "velocity": 0.03937007874015748
          },
          {
            "duration": 0.0625,
            "durationTicks": 48,
            "midi": 54,
            "name": "F#3",
            "ticks": 43296,
            "time": 56.375,
            "velocity": 0.03937007874015748
          },
          {
            "duration": 0.0625,
            "durationTicks": 48,
            "midi": 56,
            "name": "G#3",
            "ticks": 43392,
            "time": 56.5,
            "velocity": 0.03937007874015748
          },
          {
            "duration": 0.0625,
            "durationTicks": 48,
            "midi": 56,
            "name": "G#3",
            "ticks": 43584,
            "time": 56.75,
            "velocity": 0.03937007874015748
          },
          {
            "duration": 0.0625,
            "durationTicks": 48,
            "midi": 54,
            "name": "F#3",
            "ticks": 43680,
            "time": 56.875,
            "velocity": 0.03937007874015748
          },
          {
            "duration": 0.0625,
            "durationTicks": 48,
            "midi": 56,
            "name": "G#3",
            "ticks": 43776,
            "time": 57,
            "velocity": 0.03937007874015748
          },
          {
            "duration": 0.0625,
            "durationTicks": 48,
            "midi": 56,
            "name": "G#3",
            "ticks": 43968,
            "time": 57.25,
            "velocity": 0.03937007874015748
          },
          {
            "duration": 0.0625,
            "durationTicks": 48,
            "midi": 54,
            "name": "F#3",
            "ticks": 44064,
            "time": 57.375,
            "velocity": 0.03937007874015748
          },
          {
            "duration": 0.0625,
            "durationTicks": 48,
            "midi": 56,
            "name": "G#3",
            "ticks": 44160,
            "time": 57.5,
            "velocity": 0.03937007874015748
          },
          {
            "duration": 0.0625,
            "durationTicks": 48,
            "midi": 59,
            "name": "B3",
            "ticks": 44256,
            "time": 57.625,
            "velocity": 0.03937007874015748
          },
          {
            "duration": 0.0625,
            "durationTicks": 48,
            "midi": 61,
            "name": "C#4",
            "ticks": 44448,
            "time": 57.875,
            "velocity": 0.03937007874015748
          },
          {
            "duration": 0.0625,
            "durationTicks": 48,
            "midi": 61,
            "name": "C#4",
            "ticks": 44640,
            "time": 58.125,
            "velocity": 0.03937007874015748
          },
          {
            "duration": 0.0625,
            "durationTicks": 48,
            "midi": 56,
            "name": "G#3",
            "ticks": 44736,
            "time": 58.25,
            "velocity": 0.03937007874015748
          },
          {
            "duration": 0.0625,
            "durationTicks": 48,
            "midi": 54,
            "name": "F#3",
            "ticks": 44832,
            "time": 58.375,
            "velocity": 0.03937007874015748
          },
          {
            "duration": 0.0625,
            "durationTicks": 48,
            "midi": 56,
            "name": "G#3",
            "ticks": 44928,
            "time": 58.5,
            "velocity": 0.03937007874015748
          },
          {
            "duration": 0.0625,
            "durationTicks": 48,
            "midi": 56,
            "name": "G#3",
            "ticks": 45120,
            "time": 58.75,
            "velocity": 0.03937007874015748
          },
          {
            "duration": 0.0625,
            "durationTicks": 48,
            "midi": 54,
            "name": "F#3",
            "ticks": 45216,
            "time": 58.875,
            "velocity": 0.03937007874015748
          },
          {
            "duration": 0.0625,
            "durationTicks": 48,
            "midi": 56,
            "name": "G#3",
            "ticks": 45312,
            "time": 59,
            "velocity": 0.03937007874015748
          },
          {
            "duration": 0.0625,
            "durationTicks": 48,
            "midi": 56,
            "name": "G#3",
            "ticks": 45504,
            "time": 59.25,
            "velocity": 0.03937007874015748
          },
          {
            "duration": 0.0625,
            "durationTicks": 48,
            "midi": 54,
            "name": "F#3",
            "ticks": 45600,
            "time": 59.375,
            "velocity": 0.03937007874015748
          },
          {
            "duration": 0.0625,
            "durationTicks": 48,
            "midi": 56,
            "name": "G#3",
            "ticks": 45696,
            "time": 59.5,
            "velocity": 0.03937007874015748
          },
          {
            "duration": 0.0625,
            "durationTicks": 48,
            "midi": 59,
            "name": "B3",
            "ticks": 45792,
            "time": 59.625,
            "velocity": 0.03937007874015748
          },
          {
            "duration": 0.0625,
            "durationTicks": 48,
            "midi": 61,
            "name": "C#4",
            "ticks": 45984,
            "time": 59.875,
            "velocity": 0.03937007874015748
          },
          {
            "duration": 0.0625,
            "durationTicks": 48,
            "midi": 61,
            "name": "C#4",
            "ticks": 46176,
            "time": 60.125,
            "velocity": 0.03937007874015748
          },
          {
            "duration": 0.0625,
            "durationTicks": 48,
            "midi": 56,
            "name": "G#3",
            "ticks": 46272,
            "time": 60.25,
            "velocity": 0.03937007874015748
          },
          {
            "duration": 0.0625,
            "durationTicks": 48,
            "midi": 54,
            "name": "F#3",
            "ticks": 46368,
            "time": 60.375,
            "velocity": 0.03937007874015748
          },
          {
            "duration": 0.0625,
            "durationTicks": 48,
            "midi": 56,
            "name": "G#3",
            "ticks": 46464,
            "time": 60.5,
            "velocity": 0.03937007874015748
          },
          {
            "duration": 0.0625,
            "durationTicks": 48,
            "midi": 56,
            "name": "G#3",
            "ticks": 46656,
            "time": 60.75,
            "velocity": 0.03937007874015748
          },
          {
            "duration": 0.0625,
            "durationTicks": 48,
            "midi": 54,
            "name": "F#3",
            "ticks": 46752,
            "time": 60.875,
            "velocity": 0.03937007874015748
          },
          {
            "duration": 0.0625,
            "durationTicks": 48,
            "midi": 56,
            "name": "G#3",
            "ticks": 46848,
            "time": 61,
            "velocity": 0.03937007874015748
          },
          {
            "duration": 0.0625,
            "durationTicks": 48,
            "midi": 56,
            "name": "G#3",
            "ticks": 47040,
            "time": 61.25,
            "velocity": 0.03937007874015748
          },
          {
            "duration": 0.0625,
            "durationTicks": 48,
            "midi": 54,
            "name": "F#3",
            "ticks": 47136,
            "time": 61.375,
            "velocity": 0.03937007874015748
          },
          {
            "duration": 0.0625,
            "durationTicks": 48,
            "midi": 56,
            "name": "G#3",
            "ticks": 47232,
            "time": 61.5,
            "velocity": 0.03937007874015748
          },
          {
            "duration": 0.0625,
            "durationTicks": 48,
            "midi": 59,
            "name": "B3",
            "ticks": 47328,
            "time": 61.625,
            "velocity": 0.03937007874015748
          },
          {
            "duration": 0.0625,
            "durationTicks": 48,
            "midi": 61,
            "name": "C#4",
            "ticks": 47520,
            "time": 61.875,
            "velocity": 0.03937007874015748
          },
          {
            "duration": 0.0625,
            "durationTicks": 48,
            "midi": 61,
            "name": "C#4",
            "ticks": 47712,
            "time": 62.125,
            "velocity": 0.03937007874015748
          },
          {
            "duration": 0.0625,
            "durationTicks": 48,
            "midi": 56,
            "name": "G#3",
            "ticks": 47808,
            "time": 62.25,
            "velocity": 0.03937007874015748
          },
          {
            "duration": 0.0625,
            "durationTicks": 48,
            "midi": 54,
            "name": "F#3",
            "ticks": 47904,
            "time": 62.375,
            "velocity": 0.03937007874015748
          },
          {
            "duration": 0.0625,
            "durationTicks": 48,
            "midi": 56,
            "name": "G#3",
            "ticks": 48000,
            "time": 62.5,
            "velocity": 0.03937007874015748
          },
          {
            "duration": 0.0625,
            "durationTicks": 48,
            "midi": 56,
            "name": "G#3",
            "ticks": 48192,
            "time": 62.75,
            "velocity": 0.03937007874015748
          },
          {
            "duration": 0.0625,
            "durationTicks": 48,
            "midi": 54,
            "name": "F#3",
            "ticks": 48288,
            "time": 62.875,
            "velocity": 0.03937007874015748
          },
          {
            "duration": 0.0625,
            "durationTicks": 48,
            "midi": 56,
            "name": "G#3",
            "ticks": 48384,
            "time": 63,
            "velocity": 0.03937007874015748
          },
          {
            "duration": 0.0625,
            "durationTicks": 48,
            "midi": 56,
            "name": "G#3",
            "ticks": 48576,
            "time": 63.25,
            "velocity": 0.03937007874015748
          },
          {
            "duration": 0.0625,
            "durationTicks": 48,
            "midi": 54,
            "name": "F#3",
            "ticks": 48672,
            "time": 63.375,
            "velocity": 0.03937007874015748
          },
          {
            "duration": 0.0625,
            "durationTicks": 48,
            "midi": 56,
            "name": "G#3",
            "ticks": 48768,
            "time": 63.5,
            "velocity": 0.03937007874015748
          },
          {
            "duration": 0.0625,
            "durationTicks": 48,
            "midi": 59,
            "name": "B3",
            "ticks": 48864,
            "time": 63.625,
            "velocity": 0.03937007874015748
          },
          {
            "duration": 0.0625,
            "durationTicks": 48,
            "midi": 61,
            "name": "C#4",
            "ticks": 49056,
            "time": 63.875,
            "velocity": 0.03937007874015748
          },
          {
            "duration": 0.0625,
            "durationTicks": 48,
            "midi": 61,
            "name": "C#4",
            "ticks": 49248,
            "time": 64.125,
            "velocity": 0.03937007874015748
          },
          {
            "duration": 0.0625,
            "durationTicks": 48,
            "midi": 56,
            "name": "G#3",
            "ticks": 49344,
            "time": 64.25,
            "velocity": 0.03937007874015748
          },
          {
            "duration": 0.0625,
            "durationTicks": 48,
            "midi": 54,
            "name": "F#3",
            "ticks": 49440,
            "time": 64.375,
            "velocity": 0.03937007874015748
          },
          {
            "duration": 0.0625,
            "durationTicks": 48,
            "midi": 56,
            "name": "G#3",
            "ticks": 49536,
            "time": 64.5,
            "velocity": 0.03937007874015748
          },
          {
            "duration": 0.0625,
            "durationTicks": 48,
            "midi": 56,
            "name": "G#3",
            "ticks": 49728,
            "time": 64.75,
            "velocity": 0.03937007874015748
          },
          {
            "duration": 0.0625,
            "durationTicks": 48,
            "midi": 54,
            "name": "F#3",
            "ticks": 49824,
            "time": 64.875,
            "velocity": 0.03937007874015748
          },
          {
            "duration": 0.0625,
            "durationTicks": 48,
            "midi": 56,
            "name": "G#3",
            "ticks": 49920,
            "time": 65,
            "velocity": 0.03937007874015748
          },
          {
            "duration": 0.0625,
            "durationTicks": 48,
            "midi": 56,
            "name": "G#3",
            "ticks": 50112,
            "time": 65.25,
            "velocity": 0.03937007874015748
          },
          {
            "duration": 0.0625,
            "durationTicks": 48,
            "midi": 54,
            "name": "F#3",
            "ticks": 50208,
            "time": 65.375,
            "velocity": 0.03937007874015748
          },
          {
            "duration": 0.0625,
            "durationTicks": 48,
            "midi": 56,
            "name": "G#3",
            "ticks": 50304,
            "time": 65.5,
            "velocity": 0.03937007874015748
          },
          {
            "duration": 0.0625,
            "durationTicks": 48,
            "midi": 59,
            "name": "B3",
            "ticks": 50400,
            "time": 65.625,
            "velocity": 0.03937007874015748
          },
          {
            "duration": 0.0625,
            "durationTicks": 48,
            "midi": 61,
            "name": "C#4",
            "ticks": 50592,
            "time": 65.875,
            "velocity": 0.03937007874015748
          },
          {
            "duration": 0.0625,
            "durationTicks": 48,
            "midi": 61,
            "name": "C#4",
            "ticks": 50784,
            "time": 66.125,
            "velocity": 0.03937007874015748
          },
          {
            "duration": 0.0625,
            "durationTicks": 48,
            "midi": 56,
            "name": "G#3",
            "ticks": 50880,
            "time": 66.25,
            "velocity": 0.03937007874015748
          },
          {
            "duration": 0.0625,
            "durationTicks": 48,
            "midi": 54,
            "name": "F#3",
            "ticks": 50976,
            "time": 66.375,
            "velocity": 0.03937007874015748
          },
          {
            "duration": 0.0625,
            "durationTicks": 48,
            "midi": 56,
            "name": "G#3",
            "ticks": 51072,
            "time": 66.5,
            "velocity": 0.03937007874015748
          },
          {
            "duration": 0.0625,
            "durationTicks": 48,
            "midi": 56,
            "name": "G#3",
            "ticks": 51264,
            "time": 66.75,
            "velocity": 0.03937007874015748
          },
          {
            "duration": 0.0625,
            "durationTicks": 48,
            "midi": 54,
            "name": "F#3",
            "ticks": 51360,
            "time": 66.875,
            "velocity": 0.03937007874015748
          },
          {
            "duration": 0.0625,
            "durationTicks": 48,
            "midi": 56,
            "name": "G#3",
            "ticks": 51456,
            "time": 67,
            "velocity": 0.03937007874015748
          },
          {
            "duration": 0.0625,
            "durationTicks": 48,
            "midi": 56,
            "name": "G#3",
            "ticks": 51648,
            "time": 67.25,
            "velocity": 0.03937007874015748
          },
          {
            "duration": 0.0625,
            "durationTicks": 48,
            "midi": 54,
            "name": "F#3",
            "ticks": 51744,
            "time": 67.375,
            "velocity": 0.03937007874015748
          },
          {
            "duration": 0.0625,
            "durationTicks": 48,
            "midi": 56,
            "name": "G#3",
            "ticks": 51840,
            "time": 67.5,
            "velocity": 0.03937007874015748
          },
          {
            "duration": 0.0625,
            "durationTicks": 48,
            "midi": 59,
            "name": "B3",
            "ticks": 51936,
            "time": 67.625,
            "velocity": 0.03937007874015748
          },
          {
            "duration": 0.0625,
            "durationTicks": 48,
            "midi": 61,
            "name": "C#4",
            "ticks": 52128,
            "time": 67.875,
            "velocity": 0.03937007874015748
          },
          {
            "duration": 0.0625,
            "durationTicks": 48,
            "midi": 61,
            "name": "C#4",
            "ticks": 52320,
            "time": 68.125,
            "velocity": 0.03937007874015748
          },
          {
            "duration": 0.0625,
            "durationTicks": 48,
            "midi": 56,
            "name": "G#3",
            "ticks": 52416,
            "time": 68.25,
            "velocity": 0.03937007874015748
          },
          {
            "duration": 0.0625,
            "durationTicks": 48,
            "midi": 54,
            "name": "F#3",
            "ticks": 52512,
            "time": 68.375,
            "velocity": 0.03937007874015748
          },
          {
            "duration": 0.0625,
            "durationTicks": 48,
            "midi": 56,
            "name": "G#3",
            "ticks": 52608,
            "time": 68.5,
            "velocity": 0.03937007874015748
          },
          {
            "duration": 0.0625,
            "durationTicks": 48,
            "midi": 56,
            "name": "G#3",
            "ticks": 52800,
            "time": 68.75,
            "velocity": 0.03937007874015748
          },
          {
            "duration": 0.0625,
            "durationTicks": 48,
            "midi": 54,
            "name": "F#3",
            "ticks": 52896,
            "time": 68.875,
            "velocity": 0.03937007874015748
          },
          {
            "duration": 0.0625,
            "durationTicks": 48,
            "midi": 56,
            "name": "G#3",
            "ticks": 52992,
            "time": 69,
            "velocity": 0.03937007874015748
          },
          {
            "duration": 0.0625,
            "durationTicks": 48,
            "midi": 56,
            "name": "G#3",
            "ticks": 53184,
            "time": 69.25,
            "velocity": 0.03937007874015748
          },
          {
            "duration": 0.0625,
            "durationTicks": 48,
            "midi": 54,
            "name": "F#3",
            "ticks": 53280,
            "time": 69.375,
            "velocity": 0.03937007874015748
          },
          {
            "duration": 0.0625,
            "durationTicks": 48,
            "midi": 56,
            "name": "G#3",
            "ticks": 53376,
            "time": 69.5,
            "velocity": 0.03937007874015748
          },
          {
            "duration": 0.0625,
            "durationTicks": 48,
            "midi": 59,
            "name": "B3",
            "ticks": 53472,
            "time": 69.625,
            "velocity": 0.03937007874015748
          },
          {
            "duration": 0.0625,
            "durationTicks": 48,
            "midi": 61,
            "name": "C#4",
            "ticks": 53664,
            "time": 69.875,
            "velocity": 0.03937007874015748
          },
          {
            "duration": 0.0625,
            "durationTicks": 48,
            "midi": 61,
            "name": "C#4",
            "ticks": 53856,
            "time": 70.125,
            "velocity": 0.03937007874015748
          },
          {
            "duration": 0.0625,
            "durationTicks": 48,
            "midi": 56,
            "name": "G#3",
            "ticks": 53952,
            "time": 70.25,
            "velocity": 0.03937007874015748
          },
          {
            "duration": 0.0625,
            "durationTicks": 48,
            "midi": 54,
            "name": "F#3",
            "ticks": 54048,
            "time": 70.375,
            "velocity": 0.03937007874015748
          },
          {
            "duration": 0.0625,
            "durationTicks": 48,
            "midi": 56,
            "name": "G#3",
            "ticks": 54144,
            "time": 70.5,
            "velocity": 0.03937007874015748
          },
          {
            "duration": 0.0625,
            "durationTicks": 48,
            "midi": 56,
            "name": "G#3",
            "ticks": 54336,
            "time": 70.75,
            "velocity": 0.03937007874015748
          },
          {
            "duration": 0.0625,
            "durationTicks": 48,
            "midi": 54,
            "name": "F#3",
            "ticks": 54432,
            "time": 70.875,
            "velocity": 0.03937007874015748
          },
          {
            "duration": 0.0625,
            "durationTicks": 48,
            "midi": 56,
            "name": "G#3",
            "ticks": 54528,
            "time": 71,
            "velocity": 0.03937007874015748
          },
          {
            "duration": 0.0625,
            "durationTicks": 48,
            "midi": 56,
            "name": "G#3",
            "ticks": 54720,
            "time": 71.25,
            "velocity": 0.03937007874015748
          },
          {
            "duration": 0.0625,
            "durationTicks": 48,
            "midi": 54,
            "name": "F#3",
            "ticks": 54816,
            "time": 71.375,
            "velocity": 0.03937007874015748
          },
          {
            "duration": 0.0625,
            "durationTicks": 48,
            "midi": 56,
            "name": "G#3",
            "ticks": 54912,
            "time": 71.5,
            "velocity": 0.03937007874015748
          },
          {
            "duration": 0.0625,
            "durationTicks": 48,
            "midi": 59,
            "name": "B3",
            "ticks": 55008,
            "time": 71.625,
            "velocity": 0.03937007874015748
          },
          {
            "duration": 0.0625,
            "durationTicks": 48,
            "midi": 61,
            "name": "C#4",
            "ticks": 55200,
            "time": 71.875,
            "velocity": 0.03937007874015748
          },
          {
            "duration": 0.0625,
            "durationTicks": 48,
            "midi": 61,
            "name": "C#4",
            "ticks": 55392,
            "time": 72.125,
            "velocity": 0.03937007874015748
          },
          {
            "duration": 0.0625,
            "durationTicks": 48,
            "midi": 56,
            "name": "G#3",
            "ticks": 55488,
            "time": 72.25,
            "velocity": 0.03937007874015748
          },
          {
            "duration": 0.0625,
            "durationTicks": 48,
            "midi": 54,
            "name": "F#3",
            "ticks": 55584,
            "time": 72.375,
            "velocity": 0.03937007874015748
          },
          {
            "duration": 0.0625,
            "durationTicks": 48,
            "midi": 56,
            "name": "G#3",
            "ticks": 55680,
            "time": 72.5,
            "velocity": 0.03937007874015748
          },
          {
            "duration": 0.0625,
            "durationTicks": 48,
            "midi": 56,
            "name": "G#3",
            "ticks": 55872,
            "time": 72.75,
            "velocity": 0.03937007874015748
          },
          {
            "duration": 0.0625,
            "durationTicks": 48,
            "midi": 54,
            "name": "F#3",
            "ticks": 55968,
            "time": 72.875,
            "velocity": 0.03937007874015748
          },
          {
            "duration": 0.0625,
            "durationTicks": 48,
            "midi": 56,
            "name": "G#3",
            "ticks": 56064,
            "time": 73,
            "velocity": 0.03937007874015748
          },
          {
            "duration": 0.0625,
            "durationTicks": 48,
            "midi": 56,
            "name": "G#3",
            "ticks": 56256,
            "time": 73.25,
            "velocity": 0.03937007874015748
          },
          {
            "duration": 0.0625,
            "durationTicks": 48,
            "midi": 54,
            "name": "F#3",
            "ticks": 56352,
            "time": 73.375,
            "velocity": 0.03937007874015748
          },
          {
            "duration": 0.0625,
            "durationTicks": 48,
            "midi": 56,
            "name": "G#3",
            "ticks": 56448,
            "time": 73.5,
            "velocity": 0.03937007874015748
          },
          {
            "duration": 0.0625,
            "durationTicks": 48,
            "midi": 59,
            "name": "B3",
            "ticks": 56544,
            "time": 73.625,
            "velocity": 0.03937007874015748
          },
          {
            "duration": 0.0625,
            "durationTicks": 48,
            "midi": 61,
            "name": "C#4",
            "ticks": 56736,
            "time": 73.875,
            "velocity": 0.03937007874015748
          },
          {
            "duration": 0.0625,
            "durationTicks": 48,
            "midi": 61,
            "name": "C#4",
            "ticks": 56928,
            "time": 74.125,
            "velocity": 0.03937007874015748
          },
          {
            "duration": 0.0625,
            "durationTicks": 48,
            "midi": 56,
            "name": "G#3",
            "ticks": 57024,
            "time": 74.25,
            "velocity": 0.03937007874015748
          },
          {
            "duration": 0.0625,
            "durationTicks": 48,
            "midi": 54,
            "name": "F#3",
            "ticks": 57120,
            "time": 74.375,
            "velocity": 0.03937007874015748
          },
          {
            "duration": 0.0625,
            "durationTicks": 48,
            "midi": 56,
            "name": "G#3",
            "ticks": 57216,
            "time": 74.5,
            "velocity": 0.03937007874015748
          },
          {
            "duration": 0.0625,
            "durationTicks": 48,
            "midi": 56,
            "name": "G#3",
            "ticks": 57408,
            "time": 74.75,
            "velocity": 0.03937007874015748
          },
          {
            "duration": 0.0625,
            "durationTicks": 48,
            "midi": 54,
            "name": "F#3",
            "ticks": 57504,
            "time": 74.875,
            "velocity": 0.03937007874015748
          },
          {
            "duration": 0.0625,
            "durationTicks": 48,
            "midi": 56,
            "name": "G#3",
            "ticks": 57600,
            "time": 75,
            "velocity": 0.03937007874015748
          },
          {
            "duration": 0.0625,
            "durationTicks": 48,
            "midi": 56,
            "name": "G#3",
            "ticks": 57792,
            "time": 75.25,
            "velocity": 0.03937007874015748
          },
          {
            "duration": 0.0625,
            "durationTicks": 48,
            "midi": 54,
            "name": "F#3",
            "ticks": 57888,
            "time": 75.375,
            "velocity": 0.03937007874015748
          },
          {
            "duration": 0.0625,
            "durationTicks": 48,
            "midi": 56,
            "name": "G#3",
            "ticks": 57984,
            "time": 75.5,
            "velocity": 0.03937007874015748
          },
          {
            "duration": 0.0625,
            "durationTicks": 48,
            "midi": 59,
            "name": "B3",
            "ticks": 58080,
            "time": 75.625,
            "velocity": 0.03937007874015748
          },
          {
            "duration": 0.0625,
            "durationTicks": 48,
            "midi": 61,
            "name": "C#4",
            "ticks": 58272,
            "time": 75.875,
            "velocity": 0.03937007874015748
          },
          {
            "duration": 0.0625,
            "durationTicks": 48,
            "midi": 61,
            "name": "C#4",
            "ticks": 58464,
            "time": 76.125,
            "velocity": 0.03937007874015748
          },
          {
            "duration": 0.0625,
            "durationTicks": 48,
            "midi": 56,
            "name": "G#3",
            "ticks": 58560,
            "time": 76.25,
            "velocity": 0.03937007874015748
          },
          {
            "duration": 0.0625,
            "durationTicks": 48,
            "midi": 54,
            "name": "F#3",
            "ticks": 58656,
            "time": 76.375,
            "velocity": 0.03937007874015748
          },
          {
            "duration": 0.0625,
            "durationTicks": 48,
            "midi": 56,
            "name": "G#3",
            "ticks": 58752,
            "time": 76.5,
            "velocity": 0.03937007874015748
          },
          {
            "duration": 0.0625,
            "durationTicks": 48,
            "midi": 56,
            "name": "G#3",
            "ticks": 58944,
            "time": 76.75,
            "velocity": 0.03937007874015748
          },
          {
            "duration": 0.0625,
            "durationTicks": 48,
            "midi": 54,
            "name": "F#3",
            "ticks": 59040,
            "time": 76.875,
            "velocity": 0.03937007874015748
          },
          {
            "duration": 0.0625,
            "durationTicks": 48,
            "midi": 56,
            "name": "G#3",
            "ticks": 59136,
            "time": 77,
            "velocity": 0.03937007874015748
          },
          {
            "duration": 0.0625,
            "durationTicks": 48,
            "midi": 56,
            "name": "G#3",
            "ticks": 59328,
            "time": 77.25,
            "velocity": 0.03937007874015748
          },
          {
            "duration": 0.0625,
            "durationTicks": 48,
            "midi": 54,
            "name": "F#3",
            "ticks": 59424,
            "time": 77.375,
            "velocity": 0.03937007874015748
          },
          {
            "duration": 0.0625,
            "durationTicks": 48,
            "midi": 56,
            "name": "G#3",
            "ticks": 59520,
            "time": 77.5,
            "velocity": 0.03937007874015748
          },
          {
            "duration": 0.0625,
            "durationTicks": 48,
            "midi": 59,
            "name": "B3",
            "ticks": 59616,
            "time": 77.625,
            "velocity": 0.03937007874015748
          },
          {
            "duration": 0.0625,
            "durationTicks": 48,
            "midi": 61,
            "name": "C#4",
            "ticks": 59808,
            "time": 77.875,
            "velocity": 0.03937007874015748
          },
          {
            "duration": 0.0625,
            "durationTicks": 48,
            "midi": 61,
            "name": "C#4",
            "ticks": 60000,
            "time": 78.125,
            "velocity": 0.03937007874015748
          },
          {
            "duration": 0.0625,
            "durationTicks": 48,
            "midi": 56,
            "name": "G#3",
            "ticks": 60096,
            "time": 78.25,
            "velocity": 0.03937007874015748
          },
          {
            "duration": 0.0625,
            "durationTicks": 48,
            "midi": 54,
            "name": "F#3",
            "ticks": 60192,
            "time": 78.375,
            "velocity": 0.03937007874015748
          },
          {
            "duration": 0.0625,
            "durationTicks": 48,
            "midi": 56,
            "name": "G#3",
            "ticks": 60288,
            "time": 78.5,
            "velocity": 0.03937007874015748
          },
          {
            "duration": 0.0625,
            "durationTicks": 48,
            "midi": 56,
            "name": "G#3",
            "ticks": 60480,
            "time": 78.75,
            "velocity": 0.03937007874015748
          },
          {
            "duration": 0.0625,
            "durationTicks": 48,
            "midi": 54,
            "name": "F#3",
            "ticks": 60576,
            "time": 78.875,
            "velocity": 0.03937007874015748
          },
          {
            "duration": 0.0625,
            "durationTicks": 48,
            "midi": 56,
            "name": "G#3",
            "ticks": 60672,
            "time": 79,
            "velocity": 0.03937007874015748
          },
          {
            "duration": 0.0625,
            "durationTicks": 48,
            "midi": 56,
            "name": "G#3",
            "ticks": 60864,
            "time": 79.25,
            "velocity": 0.03937007874015748
          },
          {
            "duration": 0.0625,
            "durationTicks": 48,
            "midi": 54,
            "name": "F#3",
            "ticks": 60960,
            "time": 79.375,
            "velocity": 0.03937007874015748
          },
          {
            "duration": 0.0625,
            "durationTicks": 48,
            "midi": 56,
            "name": "G#3",
            "ticks": 61056,
            "time": 79.5,
            "velocity": 0.03937007874015748
          },
          {
            "duration": 0.0625,
            "durationTicks": 48,
            "midi": 59,
            "name": "B3",
            "ticks": 61152,
            "time": 79.625,
            "velocity": 0.03937007874015748
          },
          {
            "duration": 0.0625,
            "durationTicks": 48,
            "midi": 61,
            "name": "C#4",
            "ticks": 61344,
            "time": 79.875,
            "velocity": 0.03937007874015748
          },
          {
            "duration": 0.0625,
            "durationTicks": 48,
            "midi": 61,
            "name": "C#4",
            "ticks": 61536,
            "time": 80.125,
            "velocity": 0.03937007874015748
          },
          {
            "duration": 0.0625,
            "durationTicks": 48,
            "midi": 56,
            "name": "G#3",
            "ticks": 61632,
            "time": 80.25,
            "velocity": 0.03937007874015748
          },
          {
            "duration": 0.0625,
            "durationTicks": 48,
            "midi": 54,
            "name": "F#3",
            "ticks": 61728,
            "time": 80.375,
            "velocity": 0.03937007874015748
          },
          {
            "duration": 0.0625,
            "durationTicks": 48,
            "midi": 56,
            "name": "G#3",
            "ticks": 61824,
            "time": 80.5,
            "velocity": 0.03937007874015748
          },
          {
            "duration": 0.0625,
            "durationTicks": 48,
            "midi": 56,
            "name": "G#3",
            "ticks": 62016,
            "time": 80.75,
            "velocity": 0.03937007874015748
          },
          {
            "duration": 0.0625,
            "durationTicks": 48,
            "midi": 54,
            "name": "F#3",
            "ticks": 62112,
            "time": 80.875,
            "velocity": 0.03937007874015748
          },
          {
            "duration": 0.0625,
            "durationTicks": 48,
            "midi": 56,
            "name": "G#3",
            "ticks": 62208,
            "time": 81,
            "velocity": 0.03937007874015748
          },
          {
            "duration": 0.0625,
            "durationTicks": 48,
            "midi": 56,
            "name": "G#3",
            "ticks": 62400,
            "time": 81.25,
            "velocity": 0.03937007874015748
          },
          {
            "duration": 0.0625,
            "durationTicks": 48,
            "midi": 54,
            "name": "F#3",
            "ticks": 62496,
            "time": 81.375,
            "velocity": 0.03937007874015748
          },
          {
            "duration": 0.0625,
            "durationTicks": 48,
            "midi": 56,
            "name": "G#3",
            "ticks": 62592,
            "time": 81.5,
            "velocity": 0.03937007874015748
          },
          {
            "duration": 0.0625,
            "durationTicks": 48,
            "midi": 59,
            "name": "B3",
            "ticks": 62688,
            "time": 81.625,
            "velocity": 0.03937007874015748
          },
          {
            "duration": 0.0625,
            "durationTicks": 48,
            "midi": 61,
            "name": "C#4",
            "ticks": 62880,
            "time": 81.875,
            "velocity": 0.03937007874015748
          },
          {
            "duration": 0.0625,
            "durationTicks": 48,
            "midi": 61,
            "name": "C#4",
            "ticks": 63072,
            "time": 82.125,
            "velocity": 0.03937007874015748
          },
          {
            "duration": 0.0625,
            "durationTicks": 48,
            "midi": 56,
            "name": "G#3",
            "ticks": 63168,
            "time": 82.25,
            "velocity": 0.03937007874015748
          },
          {
            "duration": 0.0625,
            "durationTicks": 48,
            "midi": 54,
            "name": "F#3",
            "ticks": 63264,
            "time": 82.375,
            "velocity": 0.03937007874015748
          },
          {
            "duration": 0.0625,
            "durationTicks": 48,
            "midi": 56,
            "name": "G#3",
            "ticks": 63360,
            "time": 82.5,
            "velocity": 0.03937007874015748
          },
          {
            "duration": 0.0625,
            "durationTicks": 48,
            "midi": 56,
            "name": "G#3",
            "ticks": 63552,
            "time": 82.75,
            "velocity": 0.03937007874015748
          },
          {
            "duration": 0.0625,
            "durationTicks": 48,
            "midi": 54,
            "name": "F#3",
            "ticks": 63648,
            "time": 82.875,
            "velocity": 0.03937007874015748
          },
          {
            "duration": 0.0625,
            "durationTicks": 48,
            "midi": 56,
            "name": "G#3",
            "ticks": 63744,
            "time": 83,
            "velocity": 0.03937007874015748
          },
          {
            "duration": 0.0625,
            "durationTicks": 48,
            "midi": 56,
            "name": "G#3",
            "ticks": 63936,
            "time": 83.25,
            "velocity": 0.03937007874015748
          },
          {
            "duration": 0.0625,
            "durationTicks": 48,
            "midi": 54,
            "name": "F#3",
            "ticks": 64032,
            "time": 83.375,
            "velocity": 0.03937007874015748
          },
          {
            "duration": 0.0625,
            "durationTicks": 48,
            "midi": 56,
            "name": "G#3",
            "ticks": 64128,
            "time": 83.5,
            "velocity": 0.03937007874015748
          },
          {
            "duration": 0.0625,
            "durationTicks": 48,
            "midi": 59,
            "name": "B3",
            "ticks": 64224,
            "time": 83.625,
            "velocity": 0.03937007874015748
          },
          {
            "duration": 0.0625,
            "durationTicks": 48,
            "midi": 61,
            "name": "C#4",
            "ticks": 64416,
            "time": 83.875,
            "velocity": 0.03937007874015748
          },
          {
            "duration": 0.0625,
            "durationTicks": 48,
            "midi": 61,
            "name": "C#4",
            "ticks": 64608,
            "time": 84.125,
            "velocity": 0.03937007874015748
          },
          {
            "duration": 0.0625,
            "durationTicks": 48,
            "midi": 56,
            "name": "G#3",
            "ticks": 64704,
            "time": 84.25,
            "velocity": 0.03937007874015748
          },
          {
            "duration": 0.0625,
            "durationTicks": 48,
            "midi": 54,
            "name": "F#3",
            "ticks": 64800,
            "time": 84.375,
            "velocity": 0.03937007874015748
          },
          {
            "duration": 0.0625,
            "durationTicks": 48,
            "midi": 56,
            "name": "G#3",
            "ticks": 64896,
            "time": 84.5,
            "velocity": 0.03937007874015748
          },
          {
            "duration": 0.0625,
            "durationTicks": 48,
            "midi": 56,
            "name": "G#3",
            "ticks": 65088,
            "time": 84.75,
            "velocity": 0.03937007874015748
          },
          {
            "duration": 0.0625,
            "durationTicks": 48,
            "midi": 54,
            "name": "F#3",
            "ticks": 65184,
            "time": 84.875,
            "velocity": 0.03937007874015748
          },
          {
            "duration": 0.0625,
            "durationTicks": 48,
            "midi": 56,
            "name": "G#3",
            "ticks": 65280,
            "time": 85,
            "velocity": 0.03937007874015748
          },
          {
            "duration": 0.0625,
            "durationTicks": 48,
            "midi": 56,
            "name": "G#3",
            "ticks": 65472,
            "time": 85.25,
            "velocity": 0.03937007874015748
          },
          {
            "duration": 0.0625,
            "durationTicks": 48,
            "midi": 54,
            "name": "F#3",
            "ticks": 65568,
            "time": 85.375,
            "velocity": 0.03937007874015748
          },
          {
            "duration": 0.0625,
            "durationTicks": 48,
            "midi": 56,
            "name": "G#3",
            "ticks": 65664,
            "time": 85.5,
            "velocity": 0.03937007874015748
          },
          {
            "duration": 0.0625,
            "durationTicks": 48,
            "midi": 59,
            "name": "B3",
            "ticks": 65760,
            "time": 85.625,
            "velocity": 0.03937007874015748
          },
          {
            "duration": 0.0625,
            "durationTicks": 48,
            "midi": 61,
            "name": "C#4",
            "ticks": 65952,
            "time": 85.875,
            "velocity": 0.03937007874015748
          },
          {
            "duration": 0.0625,
            "durationTicks": 48,
            "midi": 61,
            "name": "C#4",
            "ticks": 66144,
            "time": 86.125,
            "velocity": 0.03937007874015748
          },
          {
            "duration": 0.0625,
            "durationTicks": 48,
            "midi": 56,
            "name": "G#3",
            "ticks": 66240,
            "time": 86.25,
            "velocity": 0.03937007874015748
          },
          {
            "duration": 0.0625,
            "durationTicks": 48,
            "midi": 54,
            "name": "F#3",
            "ticks": 66336,
            "time": 86.375,
            "velocity": 0.03937007874015748
          },
          {
            "duration": 0.0625,
            "durationTicks": 48,
            "midi": 56,
            "name": "G#3",
            "ticks": 66432,
            "time": 86.5,
            "velocity": 0.03937007874015748
          },
          {
            "duration": 0.0625,
            "durationTicks": 48,
            "midi": 56,
            "name": "G#3",
            "ticks": 66624,
            "time": 86.75,
            "velocity": 0.03937007874015748
          },
          {
            "duration": 0.0625,
            "durationTicks": 48,
            "midi": 54,
            "name": "F#3",
            "ticks": 66720,
            "time": 86.875,
            "velocity": 0.03937007874015748
          },
          {
            "duration": 0.0625,
            "durationTicks": 48,
            "midi": 56,
            "name": "G#3",
            "ticks": 66816,
            "time": 87,
            "velocity": 0.03937007874015748
          },
          {
            "duration": 0.0625,
            "durationTicks": 48,
            "midi": 56,
            "name": "G#3",
            "ticks": 67008,
            "time": 87.25,
            "velocity": 0.03937007874015748
          },
          {
            "duration": 0.0625,
            "durationTicks": 48,
            "midi": 54,
            "name": "F#3",
            "ticks": 67104,
            "time": 87.375,
            "velocity": 0.03937007874015748
          },
          {
            "duration": 0.0625,
            "durationTicks": 48,
            "midi": 56,
            "name": "G#3",
            "ticks": 67200,
            "time": 87.5,
            "velocity": 0.03937007874015748
          },
          {
            "duration": 0.0625,
            "durationTicks": 48,
            "midi": 59,
            "name": "B3",
            "ticks": 67296,
            "time": 87.625,
            "velocity": 0.03937007874015748
          },
          {
            "duration": 0.0625,
            "durationTicks": 48,
            "midi": 61,
            "name": "C#4",
            "ticks": 67488,
            "time": 87.875,
            "velocity": 0.03937007874015748
          },
          {
            "duration": 0.0625,
            "durationTicks": 48,
            "midi": 61,
            "name": "C#4",
            "ticks": 67680,
            "time": 88.125,
            "velocity": 0.03937007874015748
          },
          {
            "duration": 0.0625,
            "durationTicks": 48,
            "midi": 56,
            "name": "G#3",
            "ticks": 67776,
            "time": 88.25,
            "velocity": 0.03937007874015748
          },
          {
            "duration": 0.0625,
            "durationTicks": 48,
            "midi": 54,
            "name": "F#3",
            "ticks": 67872,
            "time": 88.375,
            "velocity": 0.03937007874015748
          },
          {
            "duration": 0.0625,
            "durationTicks": 48,
            "midi": 56,
            "name": "G#3",
            "ticks": 67968,
            "time": 88.5,
            "velocity": 0.03937007874015748
          },
          {
            "duration": 0.0625,
            "durationTicks": 48,
            "midi": 56,
            "name": "G#3",
            "ticks": 68160,
            "time": 88.75,
            "velocity": 0.03937007874015748
          },
          {
            "duration": 0.0625,
            "durationTicks": 48,
            "midi": 54,
            "name": "F#3",
            "ticks": 68256,
            "time": 88.875,
            "velocity": 0.03937007874015748
          },
          {
            "duration": 0.0625,
            "durationTicks": 48,
            "midi": 56,
            "name": "G#3",
            "ticks": 68352,
            "time": 89,
            "velocity": 0.03937007874015748
          },
          {
            "duration": 0.0625,
            "durationTicks": 48,
            "midi": 56,
            "name": "G#3",
            "ticks": 68544,
            "time": 89.25,
            "velocity": 0.03937007874015748
          },
          {
            "duration": 0.0625,
            "durationTicks": 48,
            "midi": 54,
            "name": "F#3",
            "ticks": 68640,
            "time": 89.375,
            "velocity": 0.03937007874015748
          },
          {
            "duration": 0.0625,
            "durationTicks": 48,
            "midi": 56,
            "name": "G#3",
            "ticks": 68736,
            "time": 89.5,
            "velocity": 0.03937007874015748
          },
          {
            "duration": 0.0625,
            "durationTicks": 48,
            "midi": 59,
            "name": "B3",
            "ticks": 68832,
            "time": 89.625,
            "velocity": 0.03937007874015748
          },
          {
            "duration": 0.0625,
            "durationTicks": 48,
            "midi": 61,
            "name": "C#4",
            "ticks": 69024,
            "time": 89.875,
            "velocity": 0.03937007874015748
          },
          {
            "duration": 0.0625,
            "durationTicks": 48,
            "midi": 61,
            "name": "C#4",
            "ticks": 69216,
            "time": 90.125,
            "velocity": 0.03937007874015748
          },
          {
            "duration": 0.0625,
            "durationTicks": 48,
            "midi": 56,
            "name": "G#3",
            "ticks": 69312,
            "time": 90.25,
            "velocity": 0.03937007874015748
          },
          {
            "duration": 0.0625,
            "durationTicks": 48,
            "midi": 54,
            "name": "F#3",
            "ticks": 69408,
            "time": 90.375,
            "velocity": 0.03937007874015748
          },
          {
            "duration": 0.0625,
            "durationTicks": 48,
            "midi": 56,
            "name": "G#3",
            "ticks": 69504,
            "time": 90.5,
            "velocity": 0.03937007874015748
          },
          {
            "duration": 0.0625,
            "durationTicks": 48,
            "midi": 56,
            "name": "G#3",
            "ticks": 69696,
            "time": 90.75,
            "velocity": 0.03937007874015748
          },
          {
            "duration": 0.0625,
            "durationTicks": 48,
            "midi": 54,
            "name": "F#3",
            "ticks": 69792,
            "time": 90.875,
            "velocity": 0.03937007874015748
          },
          {
            "duration": 0.0625,
            "durationTicks": 48,
            "midi": 56,
            "name": "G#3",
            "ticks": 69888,
            "time": 91,
            "velocity": 0.03937007874015748
          },
          {
            "duration": 0.0625,
            "durationTicks": 48,
            "midi": 56,
            "name": "G#3",
            "ticks": 70080,
            "time": 91.25,
            "velocity": 0.03937007874015748
          },
          {
            "duration": 0.0625,
            "durationTicks": 48,
            "midi": 54,
            "name": "F#3",
            "ticks": 70176,
            "time": 91.375,
            "velocity": 0.03937007874015748
          },
          {
            "duration": 0.0625,
            "durationTicks": 48,
            "midi": 56,
            "name": "G#3",
            "ticks": 70272,
            "time": 91.5,
            "velocity": 0.03937007874015748
          },
          {
            "duration": 0.0625,
            "durationTicks": 48,
            "midi": 59,
            "name": "B3",
            "ticks": 70368,
            "time": 91.625,
            "velocity": 0.03937007874015748
          },
          {
            "duration": 0.0625,
            "durationTicks": 48,
            "midi": 61,
            "name": "C#4",
            "ticks": 70560,
            "time": 91.875,
            "velocity": 0.03937007874015748
          },
          {
            "duration": 0.0625,
            "durationTicks": 48,
            "midi": 61,
            "name": "C#4",
            "ticks": 70752,
            "time": 92.125,
            "velocity": 0.03937007874015748
          },
          {
            "duration": 0.0625,
            "durationTicks": 48,
            "midi": 56,
            "name": "G#3",
            "ticks": 70848,
            "time": 92.25,
            "velocity": 0.03937007874015748
          },
          {
            "duration": 0.0625,
            "durationTicks": 48,
            "midi": 54,
            "name": "F#3",
            "ticks": 70944,
            "time": 92.375,
            "velocity": 0.03937007874015748
          },
          {
            "duration": 0.0625,
            "durationTicks": 48,
            "midi": 56,
            "name": "G#3",
            "ticks": 71040,
            "time": 92.5,
            "velocity": 0.03937007874015748
          },
          {
            "duration": 0.0625,
            "durationTicks": 48,
            "midi": 56,
            "name": "G#3",
            "ticks": 71232,
            "time": 92.75,
            "velocity": 0.03937007874015748
          },
          {
            "duration": 0.0625,
            "durationTicks": 48,
            "midi": 54,
            "name": "F#3",
            "ticks": 71328,
            "time": 92.875,
            "velocity": 0.03937007874015748
          },
          {
            "duration": 0.0625,
            "durationTicks": 48,
            "midi": 56,
            "name": "G#3",
            "ticks": 71424,
            "time": 93,
            "velocity": 0.03937007874015748
          },
          {
            "duration": 0.0625,
            "durationTicks": 48,
            "midi": 56,
            "name": "G#3",
            "ticks": 71616,
            "time": 93.25,
            "velocity": 0.03937007874015748
          },
          {
            "duration": 0.0625,
            "durationTicks": 48,
            "midi": 54,
            "name": "F#3",
            "ticks": 71712,
            "time": 93.375,
            "velocity": 0.03937007874015748
          },
          {
            "duration": 0.0625,
            "durationTicks": 48,
            "midi": 56,
            "name": "G#3",
            "ticks": 71808,
            "time": 93.5,
            "velocity": 0.03937007874015748
          },
          {
            "duration": 0.0625,
            "durationTicks": 48,
            "midi": 59,
            "name": "B3",
            "ticks": 71904,
            "time": 93.625,
            "velocity": 0.03937007874015748
          },
          {
            "duration": 0.0625,
            "durationTicks": 48,
            "midi": 61,
            "name": "C#4",
            "ticks": 72096,
            "time": 93.875,
            "velocity": 0.03937007874015748
          },
          {
            "duration": 0.0625,
            "durationTicks": 48,
            "midi": 61,
            "name": "C#4",
            "ticks": 72288,
            "time": 94.125,
            "velocity": 0.03937007874015748
          },
          {
            "duration": 0.0625,
            "durationTicks": 48,
            "midi": 56,
            "name": "G#3",
            "ticks": 72384,
            "time": 94.25,
            "velocity": 0.03937007874015748
          },
          {
            "duration": 0.0625,
            "durationTicks": 48,
            "midi": 54,
            "name": "F#3",
            "ticks": 72480,
            "time": 94.375,
            "velocity": 0.03937007874015748
          },
          {
            "duration": 0.0625,
            "durationTicks": 48,
            "midi": 56,
            "name": "G#3",
            "ticks": 72576,
            "time": 94.5,
            "velocity": 0.03937007874015748
          },
          {
            "duration": 0.0625,
            "durationTicks": 48,
            "midi": 56,
            "name": "G#3",
            "ticks": 72768,
            "time": 94.75,
            "velocity": 0.03937007874015748
          },
          {
            "duration": 0.0625,
            "durationTicks": 48,
            "midi": 54,
            "name": "F#3",
            "ticks": 72864,
            "time": 94.875,
            "velocity": 0.03937007874015748
          },
          {
            "duration": 0.0625,
            "durationTicks": 48,
            "midi": 56,
            "name": "G#3",
            "ticks": 72960,
            "time": 95,
            "velocity": 0.03937007874015748
          },
          {
            "duration": 0.0625,
            "durationTicks": 48,
            "midi": 56,
            "name": "G#3",
            "ticks": 73152,
            "time": 95.25,
            "velocity": 0.03937007874015748
          },
          {
            "duration": 0.0625,
            "durationTicks": 48,
            "midi": 54,
            "name": "F#3",
            "ticks": 73248,
            "time": 95.375,
            "velocity": 0.03937007874015748
          },
          {
            "duration": 0.0625,
            "durationTicks": 48,
            "midi": 56,
            "name": "G#3",
            "ticks": 73344,
            "time": 95.5,
            "velocity": 0.03937007874015748
          },
          {
            "duration": 0.0625,
            "durationTicks": 48,
            "midi": 59,
            "name": "B3",
            "ticks": 73440,
            "time": 95.625,
            "velocity": 0.03937007874015748
          },
          {
            "duration": 0.0625,
            "durationTicks": 48,
            "midi": 61,
            "name": "C#4",
            "ticks": 73632,
            "time": 95.875,
            "velocity": 0.03937007874015748
          },
          {
            "duration": 0.0625,
            "durationTicks": 48,
            "midi": 61,
            "name": "C#4",
            "ticks": 73824,
            "time": 96.125,
            "velocity": 0.03937007874015748
          },
          {
            "duration": 0.0625,
            "durationTicks": 48,
            "midi": 56,
            "name": "G#3",
            "ticks": 73920,
            "time": 96.25,
            "velocity": 0.03937007874015748
          },
          {
            "duration": 0.0625,
            "durationTicks": 48,
            "midi": 54,
            "name": "F#3",
            "ticks": 74016,
            "time": 96.375,
            "velocity": 0.03937007874015748
          },
          {
            "duration": 0.0625,
            "durationTicks": 48,
            "midi": 56,
            "name": "G#3",
            "ticks": 74112,
            "time": 96.5,
            "velocity": 0.03937007874015748
          },
          {
            "duration": 0.0625,
            "durationTicks": 48,
            "midi": 56,
            "name": "G#3",
            "ticks": 74304,
            "time": 96.75,
            "velocity": 0.03937007874015748
          },
          {
            "duration": 0.0625,
            "durationTicks": 48,
            "midi": 54,
            "name": "F#3",
            "ticks": 74400,
            "time": 96.875,
            "velocity": 0.03937007874015748
          },
          {
            "duration": 0.0625,
            "durationTicks": 48,
            "midi": 56,
            "name": "G#3",
            "ticks": 74496,
            "time": 97,
            "velocity": 0.03937007874015748
          },
          {
            "duration": 0.0625,
            "durationTicks": 48,
            "midi": 56,
            "name": "G#3",
            "ticks": 74688,
            "time": 97.25,
            "velocity": 0.03937007874015748
          },
          {
            "duration": 0.0625,
            "durationTicks": 48,
            "midi": 54,
            "name": "F#3",
            "ticks": 74784,
            "time": 97.375,
            "velocity": 0.03937007874015748
          },
          {
            "duration": 0.0625,
            "durationTicks": 48,
            "midi": 56,
            "name": "G#3",
            "ticks": 74880,
            "time": 97.5,
            "velocity": 0.03937007874015748
          },
          {
            "duration": 0.0625,
            "durationTicks": 48,
            "midi": 59,
            "name": "B3",
            "ticks": 74976,
            "time": 97.625,
            "velocity": 0.03937007874015748
          },
          {
            "duration": 0.0625,
            "durationTicks": 48,
            "midi": 61,
            "name": "C#4",
            "ticks": 75168,
            "time": 97.875,
            "velocity": 0.03937007874015748
          },
          {
            "duration": 0.0625,
            "durationTicks": 48,
            "midi": 61,
            "name": "C#4",
            "ticks": 75360,
            "time": 98.125,
            "velocity": 0.03937007874015748
          },
          {
            "duration": 0.0625,
            "durationTicks": 48,
            "midi": 56,
            "name": "G#3",
            "ticks": 75456,
            "time": 98.25,
            "velocity": 0.03937007874015748
          },
          {
            "duration": 0.0625,
            "durationTicks": 48,
            "midi": 54,
            "name": "F#3",
            "ticks": 75552,
            "time": 98.375,
            "velocity": 0.03937007874015748
          },
          {
            "duration": 0.0625,
            "durationTicks": 48,
            "midi": 56,
            "name": "G#3",
            "ticks": 75648,
            "time": 98.5,
            "velocity": 0.03937007874015748
          },
          {
            "duration": 0.0625,
            "durationTicks": 48,
            "midi": 56,
            "name": "G#3",
            "ticks": 75840,
            "time": 98.75,
            "velocity": 0.03937007874015748
          },
          {
            "duration": 0.0625,
            "durationTicks": 48,
            "midi": 54,
            "name": "F#3",
            "ticks": 75936,
            "time": 98.875,
            "velocity": 0.03937007874015748
          },
          {
            "duration": 0.0625,
            "durationTicks": 48,
            "midi": 56,
            "name": "G#3",
            "ticks": 76032,
            "time": 99,
            "velocity": 0.03937007874015748
          },
          {
            "duration": 0.0625,
            "durationTicks": 48,
            "midi": 56,
            "name": "G#3",
            "ticks": 76224,
            "time": 99.25,
            "velocity": 0.03937007874015748
          },
          {
            "duration": 0.0625,
            "durationTicks": 48,
            "midi": 54,
            "name": "F#3",
            "ticks": 76320,
            "time": 99.375,
            "velocity": 0.03937007874015748
          },
          {
            "duration": 0.0625,
            "durationTicks": 48,
            "midi": 56,
            "name": "G#3",
            "ticks": 76416,
            "time": 99.5,
            "velocity": 0.03937007874015748
          },
          {
            "duration": 0.0625,
            "durationTicks": 48,
            "midi": 59,
            "name": "B3",
            "ticks": 76512,
            "time": 99.625,
            "velocity": 0.03937007874015748
          },
          {
            "duration": 0.0625,
            "durationTicks": 48,
            "midi": 61,
            "name": "C#4",
            "ticks": 76704,
            "time": 99.875,
            "velocity": 0.03937007874015748
          },
          {
            "duration": 0.0625,
            "durationTicks": 48,
            "midi": 61,
            "name": "C#4",
            "ticks": 76896,
            "time": 100.125,
            "velocity": 0.03937007874015748
          },
          {
            "duration": 0.0625,
            "durationTicks": 48,
            "midi": 56,
            "name": "G#3",
            "ticks": 76992,
            "time": 100.25,
            "velocity": 0.03937007874015748
          },
          {
            "duration": 0.0625,
            "durationTicks": 48,
            "midi": 54,
            "name": "F#3",
            "ticks": 77088,
            "time": 100.375,
            "velocity": 0.03937007874015748
          },
          {
            "duration": 0.0625,
            "durationTicks": 48,
            "midi": 56,
            "name": "G#3",
            "ticks": 77184,
            "time": 100.5,
            "velocity": 0.03937007874015748
          },
          {
            "duration": 0.0625,
            "durationTicks": 48,
            "midi": 56,
            "name": "G#3",
            "ticks": 77376,
            "time": 100.75,
            "velocity": 0.03937007874015748
          },
          {
            "duration": 0.0625,
            "durationTicks": 48,
            "midi": 54,
            "name": "F#3",
            "ticks": 77472,
            "time": 100.875,
            "velocity": 0.03937007874015748
          },
          {
            "duration": 0.0625,
            "durationTicks": 48,
            "midi": 56,
            "name": "G#3",
            "ticks": 77568,
            "time": 101,
            "velocity": 0.03937007874015748
          },
          {
            "duration": 0.0625,
            "durationTicks": 48,
            "midi": 56,
            "name": "G#3",
            "ticks": 77760,
            "time": 101.25,
            "velocity": 0.03937007874015748
          },
          {
            "duration": 0.0625,
            "durationTicks": 48,
            "midi": 54,
            "name": "F#3",
            "ticks": 77856,
            "time": 101.375,
            "velocity": 0.03937007874015748
          },
          {
            "duration": 0.0625,
            "durationTicks": 48,
            "midi": 56,
            "name": "G#3",
            "ticks": 77952,
            "time": 101.5,
            "velocity": 0.03937007874015748
          },
          {
            "duration": 0.0625,
            "durationTicks": 48,
            "midi": 59,
            "name": "B3",
            "ticks": 78048,
            "time": 101.625,
            "velocity": 0.03937007874015748
          },
          {
            "duration": 0.0625,
            "durationTicks": 48,
            "midi": 61,
            "name": "C#4",
            "ticks": 78240,
            "time": 101.875,
            "velocity": 0.03937007874015748
          },
          {
            "duration": 0.0625,
            "durationTicks": 48,
            "midi": 61,
            "name": "C#4",
            "ticks": 78432,
            "time": 102.125,
            "velocity": 0.03937007874015748
          },
          {
            "duration": 0.0625,
            "durationTicks": 48,
            "midi": 56,
            "name": "G#3",
            "ticks": 78528,
            "time": 102.25,
            "velocity": 0.03937007874015748
          },
          {
            "duration": 0.0625,
            "durationTicks": 48,
            "midi": 54,
            "name": "F#3",
            "ticks": 78624,
            "time": 102.375,
            "velocity": 0.03937007874015748
          },
          {
            "duration": 0.0625,
            "durationTicks": 48,
            "midi": 56,
            "name": "G#3",
            "ticks": 78720,
            "time": 102.5,
            "velocity": 0.03937007874015748
          },
          {
            "duration": 0.0625,
            "durationTicks": 48,
            "midi": 56,
            "name": "G#3",
            "ticks": 78912,
            "time": 102.75,
            "velocity": 0.03937007874015748
          },
          {
            "duration": 0.0625,
            "durationTicks": 48,
            "midi": 54,
            "name": "F#3",
            "ticks": 79008,
            "time": 102.875,
            "velocity": 0.03937007874015748
          },
          {
            "duration": 0.0625,
            "durationTicks": 48,
            "midi": 56,
            "name": "G#3",
            "ticks": 79104,
            "time": 103,
            "velocity": 0.03937007874015748
          },
          {
            "duration": 0.0625,
            "durationTicks": 48,
            "midi": 56,
            "name": "G#3",
            "ticks": 79296,
            "time": 103.25,
            "velocity": 0.03937007874015748
          },
          {
            "duration": 0.0625,
            "durationTicks": 48,
            "midi": 54,
            "name": "F#3",
            "ticks": 79392,
            "time": 103.375,
            "velocity": 0.03937007874015748
          },
          {
            "duration": 0.0625,
            "durationTicks": 48,
            "midi": 56,
            "name": "G#3",
            "ticks": 79488,
            "time": 103.5,
            "velocity": 0.03937007874015748
          },
          {
            "duration": 0.0625,
            "durationTicks": 48,
            "midi": 59,
            "name": "B3",
            "ticks": 79584,
            "time": 103.625,
            "velocity": 0.03937007874015748
          },
          {
            "duration": 0.0625,
            "durationTicks": 48,
            "midi": 61,
            "name": "C#4",
            "ticks": 79776,
            "time": 103.875,
            "velocity": 0.03937007874015748
          },
          {
            "duration": 0.0625,
            "durationTicks": 48,
            "midi": 61,
            "name": "C#4",
            "ticks": 79968,
            "time": 104.125,
            "velocity": 0.03937007874015748
          },
          {
            "duration": 0.0625,
            "durationTicks": 48,
            "midi": 56,
            "name": "G#3",
            "ticks": 80064,
            "time": 104.25,
            "velocity": 0.03937007874015748
          },
          {
            "duration": 0.0625,
            "durationTicks": 48,
            "midi": 54,
            "name": "F#3",
            "ticks": 80160,
            "time": 104.375,
            "velocity": 0.03937007874015748
          },
          {
            "duration": 0.0625,
            "durationTicks": 48,
            "midi": 56,
            "name": "G#3",
            "ticks": 80256,
            "time": 104.5,
            "velocity": 0.03937007874015748
          },
          {
            "duration": 0.0625,
            "durationTicks": 48,
            "midi": 56,
            "name": "G#3",
            "ticks": 80448,
            "time": 104.75,
            "velocity": 0.03937007874015748
          },
          {
            "duration": 0.0625,
            "durationTicks": 48,
            "midi": 54,
            "name": "F#3",
            "ticks": 80544,
            "time": 104.875,
            "velocity": 0.03937007874015748
          },
          {
            "duration": 0.0625,
            "durationTicks": 48,
            "midi": 56,
            "name": "G#3",
            "ticks": 80640,
            "time": 105,
            "velocity": 0.03937007874015748
          },
          {
            "duration": 0.0625,
            "durationTicks": 48,
            "midi": 56,
            "name": "G#3",
            "ticks": 80832,
            "time": 105.25,
            "velocity": 0.03937007874015748
          },
          {
            "duration": 0.0625,
            "durationTicks": 48,
            "midi": 54,
            "name": "F#3",
            "ticks": 80928,
            "time": 105.375,
            "velocity": 0.03937007874015748
          },
          {
            "duration": 0.0625,
            "durationTicks": 48,
            "midi": 56,
            "name": "G#3",
            "ticks": 81024,
            "time": 105.5,
            "velocity": 0.03937007874015748
          },
          {
            "duration": 0.0625,
            "durationTicks": 48,
            "midi": 59,
            "name": "B3",
            "ticks": 81120,
            "time": 105.625,
            "velocity": 0.03937007874015748
          },
          {
            "duration": 0.0625,
            "durationTicks": 48,
            "midi": 61,
            "name": "C#4",
            "ticks": 81312,
            "time": 105.875,
            "velocity": 0.03937007874015748
          },
          {
            "duration": 0.0625,
            "durationTicks": 48,
            "midi": 61,
            "name": "C#4",
            "ticks": 81504,
            "time": 106.125,
            "velocity": 0.03937007874015748
          },
          {
            "duration": 0.0625,
            "durationTicks": 48,
            "midi": 56,
            "name": "G#3",
            "ticks": 81600,
            "time": 106.25,
            "velocity": 0.03937007874015748
          },
          {
            "duration": 0.0625,
            "durationTicks": 48,
            "midi": 54,
            "name": "F#3",
            "ticks": 81696,
            "time": 106.375,
            "velocity": 0.03937007874015748
          },
          {
            "duration": 0.0625,
            "durationTicks": 48,
            "midi": 56,
            "name": "G#3",
            "ticks": 81792,
            "time": 106.5,
            "velocity": 0.03937007874015748
          },
          {
            "duration": 0.0625,
            "durationTicks": 48,
            "midi": 56,
            "name": "G#3",
            "ticks": 81984,
            "time": 106.75,
            "velocity": 0.03937007874015748
          },
          {
            "duration": 0.0625,
            "durationTicks": 48,
            "midi": 54,
            "name": "F#3",
            "ticks": 82080,
            "time": 106.875,
            "velocity": 0.03937007874015748
          },
          {
            "duration": 0.0625,
            "durationTicks": 48,
            "midi": 56,
            "name": "G#3",
            "ticks": 82176,
            "time": 107,
            "velocity": 0.03937007874015748
          },
          {
            "duration": 0.0625,
            "durationTicks": 48,
            "midi": 56,
            "name": "G#3",
            "ticks": 82368,
            "time": 107.25,
            "velocity": 0.03937007874015748
          },
          {
            "duration": 0.0625,
            "durationTicks": 48,
            "midi": 54,
            "name": "F#3",
            "ticks": 82464,
            "time": 107.375,
            "velocity": 0.03937007874015748
          },
          {
            "duration": 0.0625,
            "durationTicks": 48,
            "midi": 56,
            "name": "G#3",
            "ticks": 82560,
            "time": 107.5,
            "velocity": 0.03937007874015748
          },
          {
            "duration": 0.0625,
            "durationTicks": 48,
            "midi": 59,
            "name": "B3",
            "ticks": 82656,
            "time": 107.625,
            "velocity": 0.03937007874015748
          },
          {
            "duration": 0.0625,
            "durationTicks": 48,
            "midi": 61,
            "name": "C#4",
            "ticks": 82848,
            "time": 107.875,
            "velocity": 0.03937007874015748
          },
          {
            "duration": 0.0625,
            "durationTicks": 48,
            "midi": 61,
            "name": "C#4",
            "ticks": 83040,
            "time": 108.125,
            "velocity": 0.03937007874015748
          },
          {
            "duration": 0.0625,
            "durationTicks": 48,
            "midi": 56,
            "name": "G#3",
            "ticks": 83136,
            "time": 108.25,
            "velocity": 0.03937007874015748
          },
          {
            "duration": 0.0625,
            "durationTicks": 48,
            "midi": 54,
            "name": "F#3",
            "ticks": 83232,
            "time": 108.375,
            "velocity": 0.03937007874015748
          },
          {
            "duration": 0.0625,
            "durationTicks": 48,
            "midi": 56,
            "name": "G#3",
            "ticks": 83328,
            "time": 108.5,
            "velocity": 0.03937007874015748
          },
          {
            "duration": 0.0625,
            "durationTicks": 48,
            "midi": 56,
            "name": "G#3",
            "ticks": 83520,
            "time": 108.75,
            "velocity": 0.03937007874015748
          },
          {
            "duration": 0.0625,
            "durationTicks": 48,
            "midi": 54,
            "name": "F#3",
            "ticks": 83616,
            "time": 108.875,
            "velocity": 0.03937007874015748
          },
          {
            "duration": 0.0625,
            "durationTicks": 48,
            "midi": 56,
            "name": "G#3",
            "ticks": 83712,
            "time": 109,
            "velocity": 0.03937007874015748
          },
          {
            "duration": 0.0625,
            "durationTicks": 48,
            "midi": 56,
            "name": "G#3",
            "ticks": 83904,
            "time": 109.25,
            "velocity": 0.03937007874015748
          },
          {
            "duration": 0.0625,
            "durationTicks": 48,
            "midi": 54,
            "name": "F#3",
            "ticks": 84000,
            "time": 109.375,
            "velocity": 0.03937007874015748
          },
          {
            "duration": 0.0625,
            "durationTicks": 48,
            "midi": 56,
            "name": "G#3",
            "ticks": 84096,
            "time": 109.5,
            "velocity": 0.03937007874015748
          },
          {
            "duration": 0.0625,
            "durationTicks": 48,
            "midi": 59,
            "name": "B3",
            "ticks": 84192,
            "time": 109.625,
            "velocity": 0.03937007874015748
          },
          {
            "duration": 0.0625,
            "durationTicks": 48,
            "midi": 61,
            "name": "C#4",
            "ticks": 84384,
            "time": 109.875,
            "velocity": 0.03937007874015748
          },
          {
            "duration": 0.0625,
            "durationTicks": 48,
            "midi": 61,
            "name": "C#4",
            "ticks": 84576,
            "time": 110.125,
            "velocity": 0.03937007874015748
          },
          {
            "duration": 0.0625,
            "durationTicks": 48,
            "midi": 56,
            "name": "G#3",
            "ticks": 84672,
            "time": 110.25,
            "velocity": 0.03937007874015748
          },
          {
            "duration": 0.0625,
            "durationTicks": 48,
            "midi": 54,
            "name": "F#3",
            "ticks": 84768,
            "time": 110.375,
            "velocity": 0.03937007874015748
          },
          {
            "duration": 0.0625,
            "durationTicks": 48,
            "midi": 56,
            "name": "G#3",
            "ticks": 84864,
            "time": 110.5,
            "velocity": 0.03937007874015748
          },
          {
            "duration": 0.0625,
            "durationTicks": 48,
            "midi": 56,
            "name": "G#3",
            "ticks": 85056,
            "time": 110.75,
            "velocity": 0.03937007874015748
          },
          {
            "duration": 0.0625,
            "durationTicks": 48,
            "midi": 54,
            "name": "F#3",
            "ticks": 85152,
            "time": 110.875,
            "velocity": 0.03937007874015748
          },
          {
            "duration": 0.0625,
            "durationTicks": 48,
            "midi": 56,
            "name": "G#3",
            "ticks": 85248,
            "time": 111,
            "velocity": 0.03937007874015748
          },
          {
            "duration": 0.0625,
            "durationTicks": 48,
            "midi": 56,
            "name": "G#3",
            "ticks": 85440,
            "time": 111.25,
            "velocity": 0.03937007874015748
          },
          {
            "duration": 0.0625,
            "durationTicks": 48,
            "midi": 54,
            "name": "F#3",
            "ticks": 85536,
            "time": 111.375,
            "velocity": 0.03937007874015748
          },
          {
            "duration": 0.0625,
            "durationTicks": 48,
            "midi": 56,
            "name": "G#3",
            "ticks": 85632,
            "time": 111.5,
            "velocity": 0.03937007874015748
          },
          {
            "duration": 0.0625,
            "durationTicks": 48,
            "midi": 59,
            "name": "B3",
            "ticks": 85728,
            "time": 111.625,
            "velocity": 0.03937007874015748
          },
          {
            "duration": 0.0625,
            "durationTicks": 48,
            "midi": 61,
            "name": "C#4",
            "ticks": 85920,
            "time": 111.875,
            "velocity": 0.03937007874015748
          },
          {
            "duration": 0.0625,
            "durationTicks": 48,
            "midi": 61,
            "name": "C#4",
            "ticks": 86112,
            "time": 112.125,
            "velocity": 0.03937007874015748
          },
          {
            "duration": 0.0625,
            "durationTicks": 48,
            "midi": 56,
            "name": "G#3",
            "ticks": 86208,
            "time": 112.25,
            "velocity": 0.03937007874015748
          },
          {
            "duration": 0.0625,
            "durationTicks": 48,
            "midi": 54,
            "name": "F#3",
            "ticks": 86304,
            "time": 112.375,
            "velocity": 0.03937007874015748
          },
          {
            "duration": 0.0625,
            "durationTicks": 48,
            "midi": 56,
            "name": "G#3",
            "ticks": 86400,
            "time": 112.5,
            "velocity": 0.03937007874015748
          },
          {
            "duration": 0.0625,
            "durationTicks": 48,
            "midi": 56,
            "name": "G#3",
            "ticks": 86592,
            "time": 112.75,
            "velocity": 0.03937007874015748
          },
          {
            "duration": 0.0625,
            "durationTicks": 48,
            "midi": 54,
            "name": "F#3",
            "ticks": 86688,
            "time": 112.875,
            "velocity": 0.03937007874015748
          },
          {
            "duration": 0.0625,
            "durationTicks": 48,
            "midi": 56,
            "name": "G#3",
            "ticks": 86784,
            "time": 113,
            "velocity": 0.03937007874015748
          },
          {
            "duration": 0.0625,
            "durationTicks": 48,
            "midi": 56,
            "name": "G#3",
            "ticks": 86976,
            "time": 113.25,
            "velocity": 0.03937007874015748
          },
          {
            "duration": 0.0625,
            "durationTicks": 48,
            "midi": 54,
            "name": "F#3",
            "ticks": 87072,
            "time": 113.375,
            "velocity": 0.03937007874015748
          },
          {
            "duration": 0.0625,
            "durationTicks": 48,
            "midi": 56,
            "name": "G#3",
            "ticks": 87168,
            "time": 113.5,
            "velocity": 0.03937007874015748
          },
          {
            "duration": 0.0625,
            "durationTicks": 48,
            "midi": 59,
            "name": "B3",
            "ticks": 87264,
            "time": 113.625,
            "velocity": 0.03937007874015748
          },
          {
            "duration": 0.0625,
            "durationTicks": 48,
            "midi": 61,
            "name": "C#4",
            "ticks": 87456,
            "time": 113.875,
            "velocity": 0.03937007874015748
          },
          {
            "duration": 0.0625,
            "durationTicks": 48,
            "midi": 61,
            "name": "C#4",
            "ticks": 87648,
            "time": 114.125,
            "velocity": 0.03937007874015748
          },
          {
            "duration": 0.0625,
            "durationTicks": 48,
            "midi": 56,
            "name": "G#3",
            "ticks": 87744,
            "time": 114.25,
            "velocity": 0.03937007874015748
          },
          {
            "duration": 0.0625,
            "durationTicks": 48,
            "midi": 54,
            "name": "F#3",
            "ticks": 87840,
            "time": 114.375,
            "velocity": 0.03937007874015748
          },
          {
            "duration": 0.0625,
            "durationTicks": 48,
            "midi": 56,
            "name": "G#3",
            "ticks": 87936,
            "time": 114.5,
            "velocity": 0.03937007874015748
          },
          {
            "duration": 0.0625,
            "durationTicks": 48,
            "midi": 56,
            "name": "G#3",
            "ticks": 88128,
            "time": 114.75,
            "velocity": 0.03937007874015748
          },
          {
            "duration": 0.0625,
            "durationTicks": 48,
            "midi": 54,
            "name": "F#3",
            "ticks": 88224,
            "time": 114.875,
            "velocity": 0.03937007874015748
          },
          {
            "duration": 0.0625,
            "durationTicks": 48,
            "midi": 56,
            "name": "G#3",
            "ticks": 88320,
            "time": 115,
            "velocity": 0.03937007874015748
          },
          {
            "duration": 0.0625,
            "durationTicks": 48,
            "midi": 56,
            "name": "G#3",
            "ticks": 88512,
            "time": 115.25,
            "velocity": 0.03937007874015748
          },
          {
            "duration": 0.0625,
            "durationTicks": 48,
            "midi": 54,
            "name": "F#3",
            "ticks": 88608,
            "time": 115.375,
            "velocity": 0.03937007874015748
          },
          {
            "duration": 0.0625,
            "durationTicks": 48,
            "midi": 56,
            "name": "G#3",
            "ticks": 88704,
            "time": 115.5,
            "velocity": 0.03937007874015748
          },
          {
            "duration": 0.0625,
            "durationTicks": 48,
            "midi": 59,
            "name": "B3",
            "ticks": 88800,
            "time": 115.625,
            "velocity": 0.03937007874015748
          },
          {
            "duration": 0.0625,
            "durationTicks": 48,
            "midi": 61,
            "name": "C#4",
            "ticks": 88992,
            "time": 115.875,
            "velocity": 0.03937007874015748
          },
          {
            "duration": 0.0625,
            "durationTicks": 48,
            "midi": 61,
            "name": "C#4",
            "ticks": 89184,
            "time": 116.125,
            "velocity": 0.03937007874015748
          },
          {
            "duration": 0.0625,
            "durationTicks": 48,
            "midi": 56,
            "name": "G#3",
            "ticks": 89280,
            "time": 116.25,
            "velocity": 0.03937007874015748
          },
          {
            "duration": 0.0625,
            "durationTicks": 48,
            "midi": 54,
            "name": "F#3",
            "ticks": 89376,
            "time": 116.375,
            "velocity": 0.03937007874015748
          },
          {
            "duration": 0.0625,
            "durationTicks": 48,
            "midi": 56,
            "name": "G#3",
            "ticks": 89472,
            "time": 116.5,
            "velocity": 0.03937007874015748
          },
          {
            "duration": 0.0625,
            "durationTicks": 48,
            "midi": 56,
            "name": "G#3",
            "ticks": 89664,
            "time": 116.75,
            "velocity": 0.03937007874015748
          },
          {
            "duration": 0.0625,
            "durationTicks": 48,
            "midi": 54,
            "name": "F#3",
            "ticks": 89760,
            "time": 116.875,
            "velocity": 0.03937007874015748
          },
          {
            "duration": 0.0625,
            "durationTicks": 48,
            "midi": 56,
            "name": "G#3",
            "ticks": 89856,
            "time": 117,
            "velocity": 0.03937007874015748
          },
          {
            "duration": 0.0625,
            "durationTicks": 48,
            "midi": 56,
            "name": "G#3",
            "ticks": 90048,
            "time": 117.25,
            "velocity": 0.03937007874015748
          },
          {
            "duration": 0.0625,
            "durationTicks": 48,
            "midi": 54,
            "name": "F#3",
            "ticks": 90144,
            "time": 117.375,
            "velocity": 0.03937007874015748
          },
          {
            "duration": 0.0625,
            "durationTicks": 48,
            "midi": 56,
            "name": "G#3",
            "ticks": 90240,
            "time": 117.5,
            "velocity": 0.03937007874015748
          },
          {
            "duration": 0.0625,
            "durationTicks": 48,
            "midi": 59,
            "name": "B3",
            "ticks": 90336,
            "time": 117.625,
            "velocity": 0.03937007874015748
          },
          {
            "duration": 0.0625,
            "durationTicks": 48,
            "midi": 61,
            "name": "C#4",
            "ticks": 90528,
            "time": 117.875,
            "velocity": 0.03937007874015748
          },
          {
            "duration": 0.0625,
            "durationTicks": 48,
            "midi": 61,
            "name": "C#4",
            "ticks": 90720,
            "time": 118.125,
            "velocity": 0.03937007874015748
          },
          {
            "duration": 0.0625,
            "durationTicks": 48,
            "midi": 56,
            "name": "G#3",
            "ticks": 90816,
            "time": 118.25,
            "velocity": 0.03937007874015748
          },
          {
            "duration": 0.0625,
            "durationTicks": 48,
            "midi": 54,
            "name": "F#3",
            "ticks": 90912,
            "time": 118.375,
            "velocity": 0.03937007874015748
          },
          {
            "duration": 0.0625,
            "durationTicks": 48,
            "midi": 56,
            "name": "G#3",
            "ticks": 91008,
            "time": 118.5,
            "velocity": 0.03937007874015748
          },
          {
            "duration": 0.0625,
            "durationTicks": 48,
            "midi": 56,
            "name": "G#3",
            "ticks": 91200,
            "time": 118.75,
            "velocity": 0.03937007874015748
          },
          {
            "duration": 0.0625,
            "durationTicks": 48,
            "midi": 54,
            "name": "F#3",
            "ticks": 91296,
            "time": 118.875,
            "velocity": 0.03937007874015748
          },
          {
            "duration": 0.0625,
            "durationTicks": 48,
            "midi": 56,
            "name": "G#3",
            "ticks": 91392,
            "time": 119,
            "velocity": 0.03937007874015748
          },
          {
            "duration": 0.0625,
            "durationTicks": 48,
            "midi": 56,
            "name": "G#3",
            "ticks": 91584,
            "time": 119.25,
            "velocity": 0.03937007874015748
          },
          {
            "duration": 0.0625,
            "durationTicks": 48,
            "midi": 54,
            "name": "F#3",
            "ticks": 91680,
            "time": 119.375,
            "velocity": 0.03937007874015748
          },
          {
            "duration": 0.0625,
            "durationTicks": 48,
            "midi": 56,
            "name": "G#3",
            "ticks": 91776,
            "time": 119.5,
            "velocity": 0.03937007874015748
          },
          {
            "duration": 0.0625,
            "durationTicks": 48,
            "midi": 59,
            "name": "B3",
            "ticks": 91872,
            "time": 119.625,
            "velocity": 0.03937007874015748
          },
          {
            "duration": 0.0625,
            "durationTicks": 48,
            "midi": 61,
            "name": "C#4",
            "ticks": 92064,
            "time": 119.875,
            "velocity": 0.03937007874015748
          },
          {
            "duration": 0.0625,
            "durationTicks": 48,
            "midi": 61,
            "name": "C#4",
            "ticks": 92256,
            "time": 120.125,
            "velocity": 0.03937007874015748
          },
          {
            "duration": 0.0625,
            "durationTicks": 48,
            "midi": 56,
            "name": "G#3",
            "ticks": 92352,
            "time": 120.25,
            "velocity": 0.03937007874015748
          },
          {
            "duration": 0.0625,
            "durationTicks": 48,
            "midi": 54,
            "name": "F#3",
            "ticks": 92448,
            "time": 120.375,
            "velocity": 0.03937007874015748
          },
          {
            "duration": 0.0625,
            "durationTicks": 48,
            "midi": 56,
            "name": "G#3",
            "ticks": 92544,
            "time": 120.5,
            "velocity": 0.03937007874015748
          },
          {
            "duration": 0.0625,
            "durationTicks": 48,
            "midi": 56,
            "name": "G#3",
            "ticks": 92736,
            "time": 120.75,
            "velocity": 0.03937007874015748
          },
          {
            "duration": 0.0625,
            "durationTicks": 48,
            "midi": 54,
            "name": "F#3",
            "ticks": 92832,
            "time": 120.875,
            "velocity": 0.03937007874015748
          },
          {
            "duration": 0.0625,
            "durationTicks": 48,
            "midi": 56,
            "name": "G#3",
            "ticks": 92928,
            "time": 121,
            "velocity": 0.03937007874015748
          },
          {
            "duration": 0.0625,
            "durationTicks": 48,
            "midi": 56,
            "name": "G#3",
            "ticks": 93120,
            "time": 121.25,
            "velocity": 0.03937007874015748
          },
          {
            "duration": 0.0625,
            "durationTicks": 48,
            "midi": 54,
            "name": "F#3",
            "ticks": 93216,
            "time": 121.375,
            "velocity": 0.03937007874015748
          },
          {
            "duration": 0.0625,
            "durationTicks": 48,
            "midi": 56,
            "name": "G#3",
            "ticks": 93312,
            "time": 121.5,
            "velocity": 0.03937007874015748
          },
          {
            "duration": 0.0625,
            "durationTicks": 48,
            "midi": 59,
            "name": "B3",
            "ticks": 93408,
            "time": 121.625,
            "velocity": 0.03937007874015748
          },
          {
            "duration": 0.0625,
            "durationTicks": 48,
            "midi": 61,
            "name": "C#4",
            "ticks": 93600,
            "time": 121.875,
            "velocity": 0.03937007874015748
          },
          {
            "duration": 0.0625,
            "durationTicks": 48,
            "midi": 61,
            "name": "C#4",
            "ticks": 93792,
            "time": 122.125,
            "velocity": 0.03937007874015748
          },
          {
            "duration": 0.0625,
            "durationTicks": 48,
            "midi": 56,
            "name": "G#3",
            "ticks": 93888,
            "time": 122.25,
            "velocity": 0.03937007874015748
          },
          {
            "duration": 0.0625,
            "durationTicks": 48,
            "midi": 54,
            "name": "F#3",
            "ticks": 93984,
            "time": 122.375,
            "velocity": 0.03937007874015748
          },
          {
            "duration": 0.0625,
            "durationTicks": 48,
            "midi": 56,
            "name": "G#3",
            "ticks": 94080,
            "time": 122.5,
            "velocity": 0.03937007874015748
          },
          {
            "duration": 0.0625,
            "durationTicks": 48,
            "midi": 56,
            "name": "G#3",
            "ticks": 94272,
            "time": 122.75,
            "velocity": 0.03937007874015748
          },
          {
            "duration": 0.0625,
            "durationTicks": 48,
            "midi": 54,
            "name": "F#3",
            "ticks": 94368,
            "time": 122.875,
            "velocity": 0.03937007874015748
          },
          {
            "duration": 0.0625,
            "durationTicks": 48,
            "midi": 56,
            "name": "G#3",
            "ticks": 94464,
            "time": 123,
            "velocity": 0.03937007874015748
          },
          {
            "duration": 0.0625,
            "durationTicks": 48,
            "midi": 56,
            "name": "G#3",
            "ticks": 94656,
            "time": 123.25,
            "velocity": 0.03937007874015748
          },
          {
            "duration": 0.0625,
            "durationTicks": 48,
            "midi": 54,
            "name": "F#3",
            "ticks": 94752,
            "time": 123.375,
            "velocity": 0.03937007874015748
          },
          {
            "duration": 0.0625,
            "durationTicks": 48,
            "midi": 56,
            "name": "G#3",
            "ticks": 94848,
            "time": 123.5,
            "velocity": 0.03937007874015748
          },
          {
            "duration": 0.0625,
            "durationTicks": 48,
            "midi": 59,
            "name": "B3",
            "ticks": 94944,
            "time": 123.625,
            "velocity": 0.03937007874015748
          },
          {
            "duration": 0.0625,
            "durationTicks": 48,
            "midi": 61,
            "name": "C#4",
            "ticks": 95136,
            "time": 123.875,
            "velocity": 0.03937007874015748
          },
          {
            "duration": 0.0625,
            "durationTicks": 48,
            "midi": 61,
            "name": "C#4",
            "ticks": 95328,
            "time": 124.125,
            "velocity": 0.03937007874015748
          },
          {
            "duration": 0.0625,
            "durationTicks": 48,
            "midi": 56,
            "name": "G#3",
            "ticks": 95424,
            "time": 124.25,
            "velocity": 0.03937007874015748
          },
          {
            "duration": 0.0625,
            "durationTicks": 48,
            "midi": 54,
            "name": "F#3",
            "ticks": 95520,
            "time": 124.375,
            "velocity": 0.03937007874015748
          },
          {
            "duration": 0.0625,
            "durationTicks": 48,
            "midi": 56,
            "name": "G#3",
            "ticks": 95616,
            "time": 124.5,
            "velocity": 0.03937007874015748
          },
          {
            "duration": 0.0625,
            "durationTicks": 48,
            "midi": 56,
            "name": "G#3",
            "ticks": 95808,
            "time": 124.75,
            "velocity": 0.03937007874015748
          },
          {
            "duration": 0.0625,
            "durationTicks": 48,
            "midi": 54,
            "name": "F#3",
            "ticks": 95904,
            "time": 124.875,
            "velocity": 0.03937007874015748
          },
          {
            "duration": 0.0625,
            "durationTicks": 48,
            "midi": 56,
            "name": "G#3",
            "ticks": 96000,
            "time": 125,
            "velocity": 0.03937007874015748
          },
          {
            "duration": 0.0625,
            "durationTicks": 48,
            "midi": 56,
            "name": "G#3",
            "ticks": 96192,
            "time": 125.25,
            "velocity": 0.03937007874015748
          },
          {
            "duration": 0.0625,
            "durationTicks": 48,
            "midi": 54,
            "name": "F#3",
            "ticks": 96288,
            "time": 125.375,
            "velocity": 0.03937007874015748
          },
          {
            "duration": 0.0625,
            "durationTicks": 48,
            "midi": 56,
            "name": "G#3",
            "ticks": 96384,
            "time": 125.5,
            "velocity": 0.03937007874015748
          },
          {
            "duration": 0.0625,
            "durationTicks": 48,
            "midi": 59,
            "name": "B3",
            "ticks": 96480,
            "time": 125.625,
            "velocity": 0.03937007874015748
          },
          {
            "duration": 0.0625,
            "durationTicks": 48,
            "midi": 61,
            "name": "C#4",
            "ticks": 96672,
            "time": 125.875,
            "velocity": 0.03937007874015748
          },
          {
            "duration": 0.0625,
            "durationTicks": 48,
            "midi": 61,
            "name": "C#4",
            "ticks": 96864,
            "time": 126.125,
            "velocity": 0.03937007874015748
          },
          {
            "duration": 0.0625,
            "durationTicks": 48,
            "midi": 56,
            "name": "G#3",
            "ticks": 96960,
            "time": 126.25,
            "velocity": 0.03937007874015748
          },
          {
            "duration": 0.0625,
            "durationTicks": 48,
            "midi": 54,
            "name": "F#3",
            "ticks": 97056,
            "time": 126.375,
            "velocity": 0.03937007874015748
          },
          {
            "duration": 0.0625,
            "durationTicks": 48,
            "midi": 56,
            "name": "G#3",
            "ticks": 97152,
            "time": 126.5,
            "velocity": 0.03937007874015748
          },
          {
            "duration": 0.0625,
            "durationTicks": 48,
            "midi": 56,
            "name": "G#3",
            "ticks": 97344,
            "time": 126.75,
            "velocity": 0.03937007874015748
          },
          {
            "duration": 0.0625,
            "durationTicks": 48,
            "midi": 54,
            "name": "F#3",
            "ticks": 97440,
            "time": 126.875,
            "velocity": 0.03937007874015748
          },
          {
            "duration": 0.0625,
            "durationTicks": 48,
            "midi": 56,
            "name": "G#3",
            "ticks": 97536,
            "time": 127,
            "velocity": 0.03937007874015748
          },
          {
            "duration": 0.0625,
            "durationTicks": 48,
            "midi": 56,
            "name": "G#3",
            "ticks": 97728,
            "time": 127.25,
            "velocity": 0.03937007874015748
          },
          {
            "duration": 0.0625,
            "durationTicks": 48,
            "midi": 54,
            "name": "F#3",
            "ticks": 97824,
            "time": 127.375,
            "velocity": 0.03937007874015748
          },
          {
            "duration": 0.0625,
            "durationTicks": 48,
            "midi": 56,
            "name": "G#3",
            "ticks": 97920,
            "time": 127.5,
            "velocity": 0.03937007874015748
          },
          {
            "duration": 0.0625,
            "durationTicks": 48,
            "midi": 59,
            "name": "B3",
            "ticks": 98016,
            "time": 127.625,
            "velocity": 0.03937007874015748
          },
          {
            "duration": 0.0625,
            "durationTicks": 48,
            "midi": 61,
            "name": "C#4",
            "ticks": 98208,
            "time": 127.875,
            "velocity": 0.03937007874015748
          },
          {
            "duration": 0.0625,
            "durationTicks": 48,
            "midi": 61,
            "name": "C#4",
            "ticks": 98400,
            "time": 128.125,
            "velocity": 0.03937007874015748
          },
          {
            "duration": 0.0625,
            "durationTicks": 48,
            "midi": 56,
            "name": "G#3",
            "ticks": 98496,
            "time": 128.25,
            "velocity": 0.03937007874015748
          },
          {
            "duration": 0.0625,
            "durationTicks": 48,
            "midi": 54,
            "name": "F#3",
            "ticks": 98592,
            "time": 128.375,
            "velocity": 0.03937007874015748
          },
          {
            "duration": 0.0625,
            "durationTicks": 48,
            "midi": 56,
            "name": "G#3",
            "ticks": 98688,
            "time": 128.5,
            "velocity": 0.03937007874015748
          },
          {
            "duration": 0.0625,
            "durationTicks": 48,
            "midi": 56,
            "name": "G#3",
            "ticks": 98880,
            "time": 128.75,
            "velocity": 0.03937007874015748
          },
          {
            "duration": 0.0625,
            "durationTicks": 48,
            "midi": 54,
            "name": "F#3",
            "ticks": 98976,
            "time": 128.875,
            "velocity": 0.03937007874015748
          },
          {
            "duration": 0.0625,
            "durationTicks": 48,
            "midi": 56,
            "name": "G#3",
            "ticks": 99072,
            "time": 129,
            "velocity": 0.03937007874015748
          },
          {
            "duration": 0.0625,
            "durationTicks": 48,
            "midi": 56,
            "name": "G#3",
            "ticks": 99264,
            "time": 129.25,
            "velocity": 0.03937007874015748
          },
          {
            "duration": 0.0625,
            "durationTicks": 48,
            "midi": 54,
            "name": "F#3",
            "ticks": 99360,
            "time": 129.375,
            "velocity": 0.03937007874015748
          },
          {
            "duration": 0.0625,
            "durationTicks": 48,
            "midi": 56,
            "name": "G#3",
            "ticks": 99456,
            "time": 129.5,
            "velocity": 0.03937007874015748
          },
          {
            "duration": 0.0625,
            "durationTicks": 48,
            "midi": 59,
            "name": "B3",
            "ticks": 99552,
            "time": 129.625,
            "velocity": 0.03937007874015748
          },
          {
            "duration": 0.0625,
            "durationTicks": 48,
            "midi": 61,
            "name": "C#4",
            "ticks": 99744,
            "time": 129.875,
            "velocity": 0.03937007874015748
          },
          {
            "duration": 0.0625,
            "durationTicks": 48,
            "midi": 61,
            "name": "C#4",
            "ticks": 99936,
            "time": 130.125,
            "velocity": 0.03937007874015748
          },
          {
            "duration": 0.0625,
            "durationTicks": 48,
            "midi": 56,
            "name": "G#3",
            "ticks": 100032,
            "time": 130.25,
            "velocity": 0.03937007874015748
          },
          {
            "duration": 0.0625,
            "durationTicks": 48,
            "midi": 54,
            "name": "F#3",
            "ticks": 100128,
            "time": 130.375,
            "velocity": 0.03937007874015748
          },
          {
            "duration": 0.0625,
            "durationTicks": 48,
            "midi": 56,
            "name": "G#3",
            "ticks": 100224,
            "time": 130.5,
            "velocity": 0.03937007874015748
          },
          {
            "duration": 0.0625,
            "durationTicks": 48,
            "midi": 56,
            "name": "G#3",
            "ticks": 100416,
            "time": 130.75,
            "velocity": 0.03937007874015748
          },
          {
            "duration": 0.0625,
            "durationTicks": 48,
            "midi": 54,
            "name": "F#3",
            "ticks": 100512,
            "time": 130.875,
            "velocity": 0.03937007874015748
          },
          {
            "duration": 0.0625,
            "durationTicks": 48,
            "midi": 56,
            "name": "G#3",
            "ticks": 100608,
            "time": 131,
            "velocity": 0.03937007874015748
          },
          {
            "duration": 0.0625,
            "durationTicks": 48,
            "midi": 56,
            "name": "G#3",
            "ticks": 100800,
            "time": 131.25,
            "velocity": 0.03937007874015748
          },
          {
            "duration": 0.0625,
            "durationTicks": 48,
            "midi": 54,
            "name": "F#3",
            "ticks": 100896,
            "time": 131.375,
            "velocity": 0.03937007874015748
          },
          {
            "duration": 0.0625,
            "durationTicks": 48,
            "midi": 56,
            "name": "G#3",
            "ticks": 100992,
            "time": 131.5,
            "velocity": 0.03937007874015748
          },
          {
            "duration": 0.0625,
            "durationTicks": 48,
            "midi": 59,
            "name": "B3",
            "ticks": 101088,
            "time": 131.625,
            "velocity": 0.03937007874015748
          },
          {
            "duration": 0.0625,
            "durationTicks": 48,
            "midi": 61,
            "name": "C#4",
            "ticks": 101280,
            "time": 131.875,
            "velocity": 0.03937007874015748
          },
          {
            "duration": 0.0625,
            "durationTicks": 48,
            "midi": 61,
            "name": "C#4",
            "ticks": 101472,
            "time": 132.125,
            "velocity": 0.03937007874015748
          },
          {
            "duration": 0.0625,
            "durationTicks": 48,
            "midi": 56,
            "name": "G#3",
            "ticks": 101568,
            "time": 132.25,
            "velocity": 0.03937007874015748
          },
          {
            "duration": 0.0625,
            "durationTicks": 48,
            "midi": 54,
            "name": "F#3",
            "ticks": 101664,
            "time": 132.375,
            "velocity": 0.03937007874015748
          },
          {
            "duration": 0.0625,
            "durationTicks": 48,
            "midi": 56,
            "name": "G#3",
            "ticks": 101760,
            "time": 132.5,
            "velocity": 0.03937007874015748
          },
          {
            "duration": 0.0625,
            "durationTicks": 48,
            "midi": 56,
            "name": "G#3",
            "ticks": 101952,
            "time": 132.75,
            "velocity": 0.03937007874015748
          },
          {
            "duration": 0.0625,
            "durationTicks": 48,
            "midi": 54,
            "name": "F#3",
            "ticks": 102048,
            "time": 132.875,
            "velocity": 0.03937007874015748
          },
          {
            "duration": 0.0625,
            "durationTicks": 48,
            "midi": 56,
            "name": "G#3",
            "ticks": 102144,
            "time": 133,
            "velocity": 0.03937007874015748
          },
          {
            "duration": 0.0625,
            "durationTicks": 48,
            "midi": 56,
            "name": "G#3",
            "ticks": 102336,
            "time": 133.25,
            "velocity": 0.03937007874015748
          },
          {
            "duration": 0.0625,
            "durationTicks": 48,
            "midi": 54,
            "name": "F#3",
            "ticks": 102432,
            "time": 133.375,
            "velocity": 0.03937007874015748
          },
          {
            "duration": 0.0625,
            "durationTicks": 48,
            "midi": 56,
            "name": "G#3",
            "ticks": 102528,
            "time": 133.5,
            "velocity": 0.03937007874015748
          },
          {
            "duration": 0.0625,
            "durationTicks": 48,
            "midi": 59,
            "name": "B3",
            "ticks": 102624,
            "time": 133.625,
            "velocity": 0.03937007874015748
          },
          {
            "duration": 0.0625,
            "durationTicks": 48,
            "midi": 61,
            "name": "C#4",
            "ticks": 102816,
            "time": 133.875,
            "velocity": 0.03937007874015748
          },
          {
            "duration": 0.0625,
            "durationTicks": 48,
            "midi": 61,
            "name": "C#4",
            "ticks": 103008,
            "time": 134.125,
            "velocity": 0.03937007874015748
          },
          {
            "duration": 0.0625,
            "durationTicks": 48,
            "midi": 56,
            "name": "G#3",
            "ticks": 103104,
            "time": 134.25,
            "velocity": 0.03937007874015748
          },
          {
            "duration": 0.0625,
            "durationTicks": 48,
            "midi": 54,
            "name": "F#3",
            "ticks": 103200,
            "time": 134.375,
            "velocity": 0.03937007874015748
          },
          {
            "duration": 0.0625,
            "durationTicks": 48,
            "midi": 56,
            "name": "G#3",
            "ticks": 103296,
            "time": 134.5,
            "velocity": 0.03937007874015748
          },
          {
            "duration": 0.0625,
            "durationTicks": 48,
            "midi": 56,
            "name": "G#3",
            "ticks": 103488,
            "time": 134.75,
            "velocity": 0.03937007874015748
          },
          {
            "duration": 0.0625,
            "durationTicks": 48,
            "midi": 54,
            "name": "F#3",
            "ticks": 103584,
            "time": 134.875,
            "velocity": 0.03937007874015748
          },
          {
            "duration": 0.0625,
            "durationTicks": 48,
            "midi": 56,
            "name": "G#3",
            "ticks": 103680,
            "time": 135,
            "velocity": 0.03937007874015748
          },
          {
            "duration": 0.0625,
            "durationTicks": 48,
            "midi": 56,
            "name": "G#3",
            "ticks": 103872,
            "time": 135.25,
            "velocity": 0.03937007874015748
          },
          {
            "duration": 0.0625,
            "durationTicks": 48,
            "midi": 54,
            "name": "F#3",
            "ticks": 103968,
            "time": 135.375,
            "velocity": 0.03937007874015748
          },
          {
            "duration": 0.0625,
            "durationTicks": 48,
            "midi": 56,
            "name": "G#3",
            "ticks": 104064,
            "time": 135.5,
            "velocity": 0.03937007874015748
          },
          {
            "duration": 0.0625,
            "durationTicks": 48,
            "midi": 59,
            "name": "B3",
            "ticks": 104160,
            "time": 135.625,
            "velocity": 0.03937007874015748
          },
          {
            "duration": 0.0625,
            "durationTicks": 48,
            "midi": 61,
            "name": "C#4",
            "ticks": 104352,
            "time": 135.875,
            "velocity": 0.03937007874015748
          },
          {
            "duration": 0.0625,
            "durationTicks": 48,
            "midi": 61,
            "name": "C#4",
            "ticks": 104544,
            "time": 136.125,
            "velocity": 0.03937007874015748
          },
          {
            "duration": 0.0625,
            "durationTicks": 48,
            "midi": 56,
            "name": "G#3",
            "ticks": 104640,
            "time": 136.25,
            "velocity": 0.03937007874015748
          },
          {
            "duration": 0.0625,
            "durationTicks": 48,
            "midi": 54,
            "name": "F#3",
            "ticks": 104736,
            "time": 136.375,
            "velocity": 0.03937007874015748
          },
          {
            "duration": 0.0625,
            "durationTicks": 48,
            "midi": 56,
            "name": "G#3",
            "ticks": 104832,
            "time": 136.5,
            "velocity": 0.03937007874015748
          },
          {
            "duration": 0.0625,
            "durationTicks": 48,
            "midi": 56,
            "name": "G#3",
            "ticks": 105024,
            "time": 136.75,
            "velocity": 0.03937007874015748
          },
          {
            "duration": 0.0625,
            "durationTicks": 48,
            "midi": 54,
            "name": "F#3",
            "ticks": 105120,
            "time": 136.875,
            "velocity": 0.03937007874015748
          },
          {
            "duration": 0.0625,
            "durationTicks": 48,
            "midi": 56,
            "name": "G#3",
            "ticks": 105216,
            "time": 137,
            "velocity": 0.03937007874015748
          },
          {
            "duration": 0.0625,
            "durationTicks": 48,
            "midi": 56,
            "name": "G#3",
            "ticks": 105408,
            "time": 137.25,
            "velocity": 0.03937007874015748
          },
          {
            "duration": 0.0625,
            "durationTicks": 48,
            "midi": 54,
            "name": "F#3",
            "ticks": 105504,
            "time": 137.375,
            "velocity": 0.03937007874015748
          },
          {
            "duration": 0.0625,
            "durationTicks": 48,
            "midi": 56,
            "name": "G#3",
            "ticks": 105600,
            "time": 137.5,
            "velocity": 0.03937007874015748
          },
          {
            "duration": 0.0625,
            "durationTicks": 48,
            "midi": 59,
            "name": "B3",
            "ticks": 105696,
            "time": 137.625,
            "velocity": 0.03937007874015748
          },
          {
            "duration": 0.0625,
            "durationTicks": 48,
            "midi": 61,
            "name": "C#4",
            "ticks": 105888,
            "time": 137.875,
            "velocity": 0.03937007874015748
          },
          {
            "duration": 0.0625,
            "durationTicks": 48,
            "midi": 61,
            "name": "C#4",
            "ticks": 106080,
            "time": 138.125,
            "velocity": 0.03937007874015748
          },
          {
            "duration": 0.0625,
            "durationTicks": 48,
            "midi": 56,
            "name": "G#3",
            "ticks": 106176,
            "time": 138.25,
            "velocity": 0.03937007874015748
          },
          {
            "duration": 0.0625,
            "durationTicks": 48,
            "midi": 54,
            "name": "F#3",
            "ticks": 106272,
            "time": 138.375,
            "velocity": 0.03937007874015748
          },
          {
            "duration": 0.0625,
            "durationTicks": 48,
            "midi": 56,
            "name": "G#3",
            "ticks": 106368,
            "time": 138.5,
            "velocity": 0.03937007874015748
          },
          {
            "duration": 0.0625,
            "durationTicks": 48,
            "midi": 56,
            "name": "G#3",
            "ticks": 106560,
            "time": 138.75,
            "velocity": 0.03937007874015748
          },
          {
            "duration": 0.0625,
            "durationTicks": 48,
            "midi": 54,
            "name": "F#3",
            "ticks": 106656,
            "time": 138.875,
            "velocity": 0.03937007874015748
          },
          {
            "duration": 0.0625,
            "durationTicks": 48,
            "midi": 56,
            "name": "G#3",
            "ticks": 106752,
            "time": 139,
            "velocity": 0.03937007874015748
          },
          {
            "duration": 0.0625,
            "durationTicks": 48,
            "midi": 56,
            "name": "G#3",
            "ticks": 106944,
            "time": 139.25,
            "velocity": 0.03937007874015748
          },
          {
            "duration": 0.0625,
            "durationTicks": 48,
            "midi": 54,
            "name": "F#3",
            "ticks": 107040,
            "time": 139.375,
            "velocity": 0.03937007874015748
          },
          {
            "duration": 0.0625,
            "durationTicks": 48,
            "midi": 56,
            "name": "G#3",
            "ticks": 107136,
            "time": 139.5,
            "velocity": 0.03937007874015748
          },
          {
            "duration": 0.0625,
            "durationTicks": 48,
            "midi": 59,
            "name": "B3",
            "ticks": 107232,
            "time": 139.625,
            "velocity": 0.03937007874015748
          },
          {
            "duration": 0.0625,
            "durationTicks": 48,
            "midi": 61,
            "name": "C#4",
            "ticks": 107424,
            "time": 139.875,
            "velocity": 0.03937007874015748
          },
          {
            "duration": 0.0625,
            "durationTicks": 48,
            "midi": 61,
            "name": "C#4",
            "ticks": 107616,
            "time": 140.125,
            "velocity": 0.03937007874015748
          },
          {
            "duration": 0.0625,
            "durationTicks": 48,
            "midi": 56,
            "name": "G#3",
            "ticks": 107712,
            "time": 140.25,
            "velocity": 0.03937007874015748
          },
          {
            "duration": 0.0625,
            "durationTicks": 48,
            "midi": 54,
            "name": "F#3",
            "ticks": 107808,
            "time": 140.375,
            "velocity": 0.03937007874015748
          },
          {
            "duration": 0.0625,
            "durationTicks": 48,
            "midi": 56,
            "name": "G#3",
            "ticks": 107904,
            "time": 140.5,
            "velocity": 0.03937007874015748
          },
          {
            "duration": 0.0625,
            "durationTicks": 48,
            "midi": 56,
            "name": "G#3",
            "ticks": 108096,
            "time": 140.75,
            "velocity": 0.03937007874015748
          },
          {
            "duration": 0.0625,
            "durationTicks": 48,
            "midi": 54,
            "name": "F#3",
            "ticks": 108192,
            "time": 140.875,
            "velocity": 0.03937007874015748
          },
          {
            "duration": 0.0625,
            "durationTicks": 48,
            "midi": 56,
            "name": "G#3",
            "ticks": 108288,
            "time": 141,
            "velocity": 0.03937007874015748
          },
          {
            "duration": 0.0625,
            "durationTicks": 48,
            "midi": 56,
            "name": "G#3",
            "ticks": 108480,
            "time": 141.25,
            "velocity": 0.03937007874015748
          },
          {
            "duration": 0.0625,
            "durationTicks": 48,
            "midi": 54,
            "name": "F#3",
            "ticks": 108576,
            "time": 141.375,
            "velocity": 0.03937007874015748
          },
          {
            "duration": 0.0625,
            "durationTicks": 48,
            "midi": 56,
            "name": "G#3",
            "ticks": 108672,
            "time": 141.5,
            "velocity": 0.03937007874015748
          },
          {
            "duration": 0.0625,
            "durationTicks": 48,
            "midi": 59,
            "name": "B3",
            "ticks": 108768,
            "time": 141.625,
            "velocity": 0.03937007874015748
          },
          {
            "duration": 0.0625,
            "durationTicks": 48,
            "midi": 61,
            "name": "C#4",
            "ticks": 108960,
            "time": 141.875,
            "velocity": 0.03937007874015748
          },
          {
            "duration": 0.0625,
            "durationTicks": 48,
            "midi": 61,
            "name": "C#4",
            "ticks": 109152,
            "time": 142.125,
            "velocity": 0.03937007874015748
          },
          {
            "duration": 0.0625,
            "durationTicks": 48,
            "midi": 56,
            "name": "G#3",
            "ticks": 109248,
            "time": 142.25,
            "velocity": 0.03937007874015748
          },
          {
            "duration": 0.0625,
            "durationTicks": 48,
            "midi": 54,
            "name": "F#3",
            "ticks": 109344,
            "time": 142.375,
            "velocity": 0.03937007874015748
          },
          {
            "duration": 0.0625,
            "durationTicks": 48,
            "midi": 56,
            "name": "G#3",
            "ticks": 109440,
            "time": 142.5,
            "velocity": 0.03937007874015748
          },
          {
            "duration": 0.0625,
            "durationTicks": 48,
            "midi": 56,
            "name": "G#3",
            "ticks": 109632,
            "time": 142.75,
            "velocity": 0.03937007874015748
          },
          {
            "duration": 0.0625,
            "durationTicks": 48,
            "midi": 54,
            "name": "F#3",
            "ticks": 109728,
            "time": 142.875,
            "velocity": 0.03937007874015748
          },
          {
            "duration": 0.0625,
            "durationTicks": 48,
            "midi": 56,
            "name": "G#3",
            "ticks": 109824,
            "time": 143,
            "velocity": 0.03937007874015748
          },
          {
            "duration": 0.0625,
            "durationTicks": 48,
            "midi": 56,
            "name": "G#3",
            "ticks": 110016,
            "time": 143.25,
            "velocity": 0.03937007874015748
          },
          {
            "duration": 0.0625,
            "durationTicks": 48,
            "midi": 54,
            "name": "F#3",
            "ticks": 110112,
            "time": 143.375,
            "velocity": 0.03937007874015748
          },
          {
            "duration": 0.0625,
            "durationTicks": 48,
            "midi": 56,
            "name": "G#3",
            "ticks": 110208,
            "time": 143.5,
            "velocity": 0.03937007874015748
          },
          {
            "duration": 0.0625,
            "durationTicks": 48,
            "midi": 59,
            "name": "B3",
            "ticks": 110304,
            "time": 143.625,
            "velocity": 0.03937007874015748
          },
          {
            "duration": 0.0625,
            "durationTicks": 48,
            "midi": 61,
            "name": "C#4",
            "ticks": 110496,
            "time": 143.875,
            "velocity": 0.03937007874015748
          },
          {
            "duration": 0.0625,
            "durationTicks": 48,
            "midi": 61,
            "name": "C#4",
            "ticks": 127584,
            "time": 166.125,
            "velocity": 0.03937007874015748
          },
          {
            "duration": 0.0625,
            "durationTicks": 48,
            "midi": 56,
            "name": "G#3",
            "ticks": 127680,
            "time": 166.25,
            "velocity": 0.03937007874015748
          },
          {
            "duration": 0.0625,
            "durationTicks": 48,
            "midi": 54,
            "name": "F#3",
            "ticks": 127776,
            "time": 166.375,
            "velocity": 0.03937007874015748
          },
          {
            "duration": 0.0625,
            "durationTicks": 48,
            "midi": 56,
            "name": "G#3",
            "ticks": 127872,
            "time": 166.5,
            "velocity": 0.03937007874015748
          },
          {
            "duration": 0.0625,
            "durationTicks": 48,
            "midi": 56,
            "name": "G#3",
            "ticks": 128064,
            "time": 166.75,
            "velocity": 0.03937007874015748
          },
          {
            "duration": 0.0625,
            "durationTicks": 48,
            "midi": 54,
            "name": "F#3",
            "ticks": 128160,
            "time": 166.875,
            "velocity": 0.03937007874015748
          },
          {
            "duration": 0.0625,
            "durationTicks": 48,
            "midi": 56,
            "name": "G#3",
            "ticks": 128256,
            "time": 167,
            "velocity": 0.03937007874015748
          },
          {
            "duration": 0.0625,
            "durationTicks": 48,
            "midi": 56,
            "name": "G#3",
            "ticks": 128448,
            "time": 167.25,
            "velocity": 0.03937007874015748
          },
          {
            "duration": 0.0625,
            "durationTicks": 48,
            "midi": 54,
            "name": "F#3",
            "ticks": 128544,
            "time": 167.375,
            "velocity": 0.03937007874015748
          },
          {
            "duration": 0.0625,
            "durationTicks": 48,
            "midi": 56,
            "name": "G#3",
            "ticks": 128640,
            "time": 167.5,
            "velocity": 0.03937007874015748
          },
          {
            "duration": 0.0625,
            "durationTicks": 48,
            "midi": 59,
            "name": "B3",
            "ticks": 128736,
            "time": 167.625,
            "velocity": 0.03937007874015748
          },
          {
            "duration": 0.0625,
            "durationTicks": 48,
            "midi": 61,
            "name": "C#4",
            "ticks": 128928,
            "time": 167.875,
            "velocity": 0.03937007874015748
          },
          {
            "duration": 0.0625,
            "durationTicks": 48,
            "midi": 61,
            "name": "C#4",
            "ticks": 129120,
            "time": 168.125,
            "velocity": 0.03937007874015748
          },
          {
            "duration": 0.0625,
            "durationTicks": 48,
            "midi": 56,
            "name": "G#3",
            "ticks": 129216,
            "time": 168.25,
            "velocity": 0.03937007874015748
          },
          {
            "duration": 0.0625,
            "durationTicks": 48,
            "midi": 54,
            "name": "F#3",
            "ticks": 129312,
            "time": 168.375,
            "velocity": 0.03937007874015748
          },
          {
            "duration": 0.0625,
            "durationTicks": 48,
            "midi": 56,
            "name": "G#3",
            "ticks": 129408,
            "time": 168.5,
            "velocity": 0.03937007874015748
          },
          {
            "duration": 0.0625,
            "durationTicks": 48,
            "midi": 56,
            "name": "G#3",
            "ticks": 129600,
            "time": 168.75,
            "velocity": 0.03937007874015748
          },
          {
            "duration": 0.0625,
            "durationTicks": 48,
            "midi": 54,
            "name": "F#3",
            "ticks": 129696,
            "time": 168.875,
            "velocity": 0.03937007874015748
          },
          {
            "duration": 0.0625,
            "durationTicks": 48,
            "midi": 56,
            "name": "G#3",
            "ticks": 129792,
            "time": 169,
            "velocity": 0.03937007874015748
          },
          {
            "duration": 0.0625,
            "durationTicks": 48,
            "midi": 56,
            "name": "G#3",
            "ticks": 129984,
            "time": 169.25,
            "velocity": 0.03937007874015748
          },
          {
            "duration": 0.0625,
            "durationTicks": 48,
            "midi": 54,
            "name": "F#3",
            "ticks": 130080,
            "time": 169.375,
            "velocity": 0.03937007874015748
          },
          {
            "duration": 0.0625,
            "durationTicks": 48,
            "midi": 56,
            "name": "G#3",
            "ticks": 130176,
            "time": 169.5,
            "velocity": 0.03937007874015748
          },
          {
            "duration": 0.0625,
            "durationTicks": 48,
            "midi": 59,
            "name": "B3",
            "ticks": 130272,
            "time": 169.625,
            "velocity": 0.03937007874015748
          },
          {
            "duration": 0.0625,
            "durationTicks": 48,
            "midi": 61,
            "name": "C#4",
            "ticks": 130464,
            "time": 169.875,
            "velocity": 0.03937007874015748
          },
          {
            "duration": 0.0625,
            "durationTicks": 48,
            "midi": 61,
            "name": "C#4",
            "ticks": 130656,
            "time": 170.125,
            "velocity": 0.03937007874015748
          },
          {
            "duration": 0.0625,
            "durationTicks": 48,
            "midi": 56,
            "name": "G#3",
            "ticks": 130752,
            "time": 170.25,
            "velocity": 0.03937007874015748
          },
          {
            "duration": 0.0625,
            "durationTicks": 48,
            "midi": 54,
            "name": "F#3",
            "ticks": 130848,
            "time": 170.375,
            "velocity": 0.03937007874015748
          },
          {
            "duration": 0.0625,
            "durationTicks": 48,
            "midi": 56,
            "name": "G#3",
            "ticks": 130944,
            "time": 170.5,
            "velocity": 0.03937007874015748
          },
          {
            "duration": 0.0625,
            "durationTicks": 48,
            "midi": 56,
            "name": "G#3",
            "ticks": 131136,
            "time": 170.75,
            "velocity": 0.03937007874015748
          },
          {
            "duration": 0.0625,
            "durationTicks": 48,
            "midi": 54,
            "name": "F#3",
            "ticks": 131232,
            "time": 170.875,
            "velocity": 0.03937007874015748
          },
          {
            "duration": 0.0625,
            "durationTicks": 48,
            "midi": 56,
            "name": "G#3",
            "ticks": 131328,
            "time": 171,
            "velocity": 0.03937007874015748
          },
          {
            "duration": 0.0625,
            "durationTicks": 48,
            "midi": 56,
            "name": "G#3",
            "ticks": 131520,
            "time": 171.25,
            "velocity": 0.03937007874015748
          },
          {
            "duration": 0.0625,
            "durationTicks": 48,
            "midi": 54,
            "name": "F#3",
            "ticks": 131616,
            "time": 171.375,
            "velocity": 0.03937007874015748
          },
          {
            "duration": 0.0625,
            "durationTicks": 48,
            "midi": 56,
            "name": "G#3",
            "ticks": 131712,
            "time": 171.5,
            "velocity": 0.03937007874015748
          },
          {
            "duration": 0.0625,
            "durationTicks": 48,
            "midi": 59,
            "name": "B3",
            "ticks": 131808,
            "time": 171.625,
            "velocity": 0.03937007874015748
          },
          {
            "duration": 0.0625,
            "durationTicks": 48,
            "midi": 61,
            "name": "C#4",
            "ticks": 132000,
            "time": 171.875,
            "velocity": 0.03937007874015748
          },
          {
            "duration": 0.0625,
            "durationTicks": 48,
            "midi": 61,
            "name": "C#4",
            "ticks": 132192,
            "time": 172.125,
            "velocity": 0.03937007874015748
          },
          {
            "duration": 0.0625,
            "durationTicks": 48,
            "midi": 56,
            "name": "G#3",
            "ticks": 132288,
            "time": 172.25,
            "velocity": 0.03937007874015748
          },
          {
            "duration": 0.0625,
            "durationTicks": 48,
            "midi": 54,
            "name": "F#3",
            "ticks": 132384,
            "time": 172.375,
            "velocity": 0.03937007874015748
          },
          {
            "duration": 0.0625,
            "durationTicks": 48,
            "midi": 56,
            "name": "G#3",
            "ticks": 132480,
            "time": 172.5,
            "velocity": 0.03937007874015748
          },
          {
            "duration": 0.0625,
            "durationTicks": 48,
            "midi": 56,
            "name": "G#3",
            "ticks": 132672,
            "time": 172.75,
            "velocity": 0.03937007874015748
          },
          {
            "duration": 0.0625,
            "durationTicks": 48,
            "midi": 54,
            "name": "F#3",
            "ticks": 132768,
            "time": 172.875,
            "velocity": 0.03937007874015748
          },
          {
            "duration": 0.0625,
            "durationTicks": 48,
            "midi": 56,
            "name": "G#3",
            "ticks": 132864,
            "time": 173,
            "velocity": 0.03937007874015748
          },
          {
            "duration": 0.0625,
            "durationTicks": 48,
            "midi": 56,
            "name": "G#3",
            "ticks": 133056,
            "time": 173.25,
            "velocity": 0.03937007874015748
          },
          {
            "duration": 0.0625,
            "durationTicks": 48,
            "midi": 54,
            "name": "F#3",
            "ticks": 133152,
            "time": 173.375,
            "velocity": 0.03937007874015748
          },
          {
            "duration": 0.0625,
            "durationTicks": 48,
            "midi": 56,
            "name": "G#3",
            "ticks": 133248,
            "time": 173.5,
            "velocity": 0.03937007874015748
          },
          {
            "duration": 0.0625,
            "durationTicks": 48,
            "midi": 59,
            "name": "B3",
            "ticks": 133344,
            "time": 173.625,
            "velocity": 0.03937007874015748
          },
          {
            "duration": 0.0625,
            "durationTicks": 48,
            "midi": 61,
            "name": "C#4",
            "ticks": 133536,
            "time": 173.875,
            "velocity": 0.03937007874015748
          },
          {
            "duration": 0.0625,
            "durationTicks": 48,
            "midi": 61,
            "name": "C#4",
            "ticks": 133728,
            "time": 174.125,
            "velocity": 0.03937007874015748
          },
          {
            "duration": 0.0625,
            "durationTicks": 48,
            "midi": 56,
            "name": "G#3",
            "ticks": 133824,
            "time": 174.25,
            "velocity": 0.03937007874015748
          },
          {
            "duration": 0.0625,
            "durationTicks": 48,
            "midi": 54,
            "name": "F#3",
            "ticks": 133920,
            "time": 174.375,
            "velocity": 0.03937007874015748
          },
          {
            "duration": 0.0625,
            "durationTicks": 48,
            "midi": 56,
            "name": "G#3",
            "ticks": 134016,
            "time": 174.5,
            "velocity": 0.03937007874015748
          },
          {
            "duration": 0.0625,
            "durationTicks": 48,
            "midi": 56,
            "name": "G#3",
            "ticks": 134208,
            "time": 174.75,
            "velocity": 0.03937007874015748
          },
          {
            "duration": 0.0625,
            "durationTicks": 48,
            "midi": 54,
            "name": "F#3",
            "ticks": 134304,
            "time": 174.875,
            "velocity": 0.03937007874015748
          },
          {
            "duration": 0.0625,
            "durationTicks": 48,
            "midi": 56,
            "name": "G#3",
            "ticks": 134400,
            "time": 175,
            "velocity": 0.03937007874015748
          },
          {
            "duration": 0.0625,
            "durationTicks": 48,
            "midi": 56,
            "name": "G#3",
            "ticks": 134592,
            "time": 175.25,
            "velocity": 0.03937007874015748
          },
          {
            "duration": 0.0625,
            "durationTicks": 48,
            "midi": 54,
            "name": "F#3",
            "ticks": 134688,
            "time": 175.375,
            "velocity": 0.03937007874015748
          },
          {
            "duration": 0.0625,
            "durationTicks": 48,
            "midi": 56,
            "name": "G#3",
            "ticks": 134784,
            "time": 175.5,
            "velocity": 0.03937007874015748
          },
          {
            "duration": 0.0625,
            "durationTicks": 48,
            "midi": 59,
            "name": "B3",
            "ticks": 134880,
            "time": 175.625,
            "velocity": 0.03937007874015748
          },
          {
            "duration": 0.0625,
            "durationTicks": 48,
            "midi": 61,
            "name": "C#4",
            "ticks": 135072,
            "time": 175.875,
            "velocity": 0.03937007874015748
          },
          {
            "duration": 0.0625,
            "durationTicks": 48,
            "midi": 61,
            "name": "C#4",
            "ticks": 135264,
            "time": 176.125,
            "velocity": 0.03937007874015748
          },
          {
            "duration": 0.0625,
            "durationTicks": 48,
            "midi": 56,
            "name": "G#3",
            "ticks": 135360,
            "time": 176.25,
            "velocity": 0.03937007874015748
          },
          {
            "duration": 0.0625,
            "durationTicks": 48,
            "midi": 54,
            "name": "F#3",
            "ticks": 135456,
            "time": 176.375,
            "velocity": 0.03937007874015748
          },
          {
            "duration": 0.0625,
            "durationTicks": 48,
            "midi": 56,
            "name": "G#3",
            "ticks": 135552,
            "time": 176.5,
            "velocity": 0.03937007874015748
          },
          {
            "duration": 0.0625,
            "durationTicks": 48,
            "midi": 56,
            "name": "G#3",
            "ticks": 135744,
            "time": 176.75,
            "velocity": 0.03937007874015748
          },
          {
            "duration": 0.0625,
            "durationTicks": 48,
            "midi": 54,
            "name": "F#3",
            "ticks": 135840,
            "time": 176.875,
            "velocity": 0.03937007874015748
          },
          {
            "duration": 0.0625,
            "durationTicks": 48,
            "midi": 56,
            "name": "G#3",
            "ticks": 135936,
            "time": 177,
            "velocity": 0.03937007874015748
          },
          {
            "duration": 0.0625,
            "durationTicks": 48,
            "midi": 56,
            "name": "G#3",
            "ticks": 136128,
            "time": 177.25,
            "velocity": 0.03937007874015748
          },
          {
            "duration": 0.0625,
            "durationTicks": 48,
            "midi": 54,
            "name": "F#3",
            "ticks": 136224,
            "time": 177.375,
            "velocity": 0.03937007874015748
          },
          {
            "duration": 0.0625,
            "durationTicks": 48,
            "midi": 56,
            "name": "G#3",
            "ticks": 136320,
            "time": 177.5,
            "velocity": 0.03937007874015748
          },
          {
            "duration": 0.0625,
            "durationTicks": 48,
            "midi": 59,
            "name": "B3",
            "ticks": 136416,
            "time": 177.625,
            "velocity": 0.03937007874015748
          },
          {
            "duration": 0.0625,
            "durationTicks": 48,
            "midi": 61,
            "name": "C#4",
            "ticks": 136608,
            "time": 177.875,
            "velocity": 0.03937007874015748
          },
          {
            "duration": 0.0625,
            "durationTicks": 48,
            "midi": 61,
            "name": "C#4",
            "ticks": 136800,
            "time": 178.125,
            "velocity": 0.03937007874015748
          },
          {
            "duration": 0.0625,
            "durationTicks": 48,
            "midi": 56,
            "name": "G#3",
            "ticks": 136896,
            "time": 178.25,
            "velocity": 0.03937007874015748
          },
          {
            "duration": 0.0625,
            "durationTicks": 48,
            "midi": 54,
            "name": "F#3",
            "ticks": 136992,
            "time": 178.375,
            "velocity": 0.03937007874015748
          },
          {
            "duration": 0.0625,
            "durationTicks": 48,
            "midi": 56,
            "name": "G#3",
            "ticks": 137088,
            "time": 178.5,
            "velocity": 0.03937007874015748
          },
          {
            "duration": 0.0625,
            "durationTicks": 48,
            "midi": 56,
            "name": "G#3",
            "ticks": 137280,
            "time": 178.75,
            "velocity": 0.03937007874015748
          },
          {
            "duration": 0.0625,
            "durationTicks": 48,
            "midi": 54,
            "name": "F#3",
            "ticks": 137376,
            "time": 178.875,
            "velocity": 0.03937007874015748
          },
          {
            "duration": 0.0625,
            "durationTicks": 48,
            "midi": 56,
            "name": "G#3",
            "ticks": 137472,
            "time": 179,
            "velocity": 0.03937007874015748
          },
          {
            "duration": 0.0625,
            "durationTicks": 48,
            "midi": 56,
            "name": "G#3",
            "ticks": 137664,
            "time": 179.25,
            "velocity": 0.03937007874015748
          },
          {
            "duration": 0.0625,
            "durationTicks": 48,
            "midi": 54,
            "name": "F#3",
            "ticks": 137760,
            "time": 179.375,
            "velocity": 0.03937007874015748
          },
          {
            "duration": 0.0625,
            "durationTicks": 48,
            "midi": 56,
            "name": "G#3",
            "ticks": 137856,
            "time": 179.5,
            "velocity": 0.03937007874015748
          },
          {
            "duration": 0.0625,
            "durationTicks": 48,
            "midi": 59,
            "name": "B3",
            "ticks": 137952,
            "time": 179.625,
            "velocity": 0.03937007874015748
          },
          {
            "duration": 0.0625,
            "durationTicks": 48,
            "midi": 61,
            "name": "C#4",
            "ticks": 138144,
            "time": 179.875,
            "velocity": 0.03937007874015748
          },
          {
            "duration": 0.0625,
            "durationTicks": 48,
            "midi": 61,
            "name": "C#4",
            "ticks": 138336,
            "time": 180.125,
            "velocity": 0.03937007874015748
          },
          {
            "duration": 0.0625,
            "durationTicks": 48,
            "midi": 56,
            "name": "G#3",
            "ticks": 138432,
            "time": 180.25,
            "velocity": 0.03937007874015748
          },
          {
            "duration": 0.0625,
            "durationTicks": 48,
            "midi": 54,
            "name": "F#3",
            "ticks": 138528,
            "time": 180.375,
            "velocity": 0.03937007874015748
          },
          {
            "duration": 0.0625,
            "durationTicks": 48,
            "midi": 56,
            "name": "G#3",
            "ticks": 138624,
            "time": 180.5,
            "velocity": 0.03937007874015748
          },
          {
            "duration": 0.0625,
            "durationTicks": 48,
            "midi": 56,
            "name": "G#3",
            "ticks": 138816,
            "time": 180.75,
            "velocity": 0.03937007874015748
          },
          {
            "duration": 0.0625,
            "durationTicks": 48,
            "midi": 54,
            "name": "F#3",
            "ticks": 138912,
            "time": 180.875,
            "velocity": 0.03937007874015748
          },
          {
            "duration": 0.0625,
            "durationTicks": 48,
            "midi": 56,
            "name": "G#3",
            "ticks": 139008,
            "time": 181,
            "velocity": 0.03937007874015748
          },
          {
            "duration": 0.0625,
            "durationTicks": 48,
            "midi": 56,
            "name": "G#3",
            "ticks": 139200,
            "time": 181.25,
            "velocity": 0.03937007874015748
          },
          {
            "duration": 0.0625,
            "durationTicks": 48,
            "midi": 54,
            "name": "F#3",
            "ticks": 139296,
            "time": 181.375,
            "velocity": 0.03937007874015748
          },
          {
            "duration": 0.0625,
            "durationTicks": 48,
            "midi": 56,
            "name": "G#3",
            "ticks": 139392,
            "time": 181.5,
            "velocity": 0.03937007874015748
          },
          {
            "duration": 0.0625,
            "durationTicks": 48,
            "midi": 59,
            "name": "B3",
            "ticks": 139488,
            "time": 181.625,
            "velocity": 0.03937007874015748
          },
          {
            "duration": 0.0625,
            "durationTicks": 48,
            "midi": 61,
            "name": "C#4",
            "ticks": 139680,
            "time": 181.875,
            "velocity": 0.03937007874015748
          },
          {
            "duration": 0.0625,
            "durationTicks": 48,
            "midi": 61,
            "name": "C#4",
            "ticks": 139872,
            "time": 182.125,
            "velocity": 0.03937007874015748
          },
          {
            "duration": 0.0625,
            "durationTicks": 48,
            "midi": 56,
            "name": "G#3",
            "ticks": 139968,
            "time": 182.25,
            "velocity": 0.03937007874015748
          },
          {
            "duration": 0.0625,
            "durationTicks": 48,
            "midi": 54,
            "name": "F#3",
            "ticks": 140064,
            "time": 182.375,
            "velocity": 0.03937007874015748
          },
          {
            "duration": 0.0625,
            "durationTicks": 48,
            "midi": 56,
            "name": "G#3",
            "ticks": 140160,
            "time": 182.5,
            "velocity": 0.03937007874015748
          },
          {
            "duration": 0.0625,
            "durationTicks": 48,
            "midi": 56,
            "name": "G#3",
            "ticks": 140352,
            "time": 182.75,
            "velocity": 0.03937007874015748
          },
          {
            "duration": 0.0625,
            "durationTicks": 48,
            "midi": 54,
            "name": "F#3",
            "ticks": 140448,
            "time": 182.875,
            "velocity": 0.03937007874015748
          },
          {
            "duration": 0.0625,
            "durationTicks": 48,
            "midi": 56,
            "name": "G#3",
            "ticks": 140544,
            "time": 183,
            "velocity": 0.03937007874015748
          },
          {
            "duration": 0.0625,
            "durationTicks": 48,
            "midi": 56,
            "name": "G#3",
            "ticks": 140736,
            "time": 183.25,
            "velocity": 0.03937007874015748
          },
          {
            "duration": 0.0625,
            "durationTicks": 48,
            "midi": 54,
            "name": "F#3",
            "ticks": 140832,
            "time": 183.375,
            "velocity": 0.03937007874015748
          },
          {
            "duration": 0.0625,
            "durationTicks": 48,
            "midi": 56,
            "name": "G#3",
            "ticks": 140928,
            "time": 183.5,
            "velocity": 0.03937007874015748
          },
          {
            "duration": 0.0625,
            "durationTicks": 48,
            "midi": 59,
            "name": "B3",
            "ticks": 141024,
            "time": 183.625,
            "velocity": 0.03937007874015748
          },
          {
            "duration": 0.0625,
            "durationTicks": 48,
            "midi": 61,
            "name": "C#4",
            "ticks": 141216,
            "time": 183.875,
            "velocity": 0.03937007874015748
          },
          {
            "duration": 0.0625,
            "durationTicks": 48,
            "midi": 61,
            "name": "C#4",
            "ticks": 141408,
            "time": 184.125,
            "velocity": 0.03937007874015748
          },
          {
            "duration": 0.0625,
            "durationTicks": 48,
            "midi": 56,
            "name": "G#3",
            "ticks": 141504,
            "time": 184.25,
            "velocity": 0.03937007874015748
          },
          {
            "duration": 0.0625,
            "durationTicks": 48,
            "midi": 54,
            "name": "F#3",
            "ticks": 141600,
            "time": 184.375,
            "velocity": 0.03937007874015748
          },
          {
            "duration": 0.0625,
            "durationTicks": 48,
            "midi": 56,
            "name": "G#3",
            "ticks": 141696,
            "time": 184.5,
            "velocity": 0.03937007874015748
          },
          {
            "duration": 0.0625,
            "durationTicks": 48,
            "midi": 56,
            "name": "G#3",
            "ticks": 141888,
            "time": 184.75,
            "velocity": 0.03937007874015748
          },
          {
            "duration": 0.0625,
            "durationTicks": 48,
            "midi": 54,
            "name": "F#3",
            "ticks": 141984,
            "time": 184.875,
            "velocity": 0.03937007874015748
          },
          {
            "duration": 0.0625,
            "durationTicks": 48,
            "midi": 56,
            "name": "G#3",
            "ticks": 142080,
            "time": 185,
            "velocity": 0.03937007874015748
          },
          {
            "duration": 0.0625,
            "durationTicks": 48,
            "midi": 56,
            "name": "G#3",
            "ticks": 142272,
            "time": 185.25,
            "velocity": 0.03937007874015748
          },
          {
            "duration": 0.0625,
            "durationTicks": 48,
            "midi": 54,
            "name": "F#3",
            "ticks": 142368,
            "time": 185.375,
            "velocity": 0.03937007874015748
          },
          {
            "duration": 0.0625,
            "durationTicks": 48,
            "midi": 56,
            "name": "G#3",
            "ticks": 142464,
            "time": 185.5,
            "velocity": 0.03937007874015748
          },
          {
            "duration": 0.0625,
            "durationTicks": 48,
            "midi": 59,
            "name": "B3",
            "ticks": 142560,
            "time": 185.625,
            "velocity": 0.03937007874015748
          },
          {
            "duration": 0.0625,
            "durationTicks": 48,
            "midi": 61,
            "name": "C#4",
            "ticks": 142752,
            "time": 185.875,
            "velocity": 0.03937007874015748
          },
          {
            "duration": 0.0625,
            "durationTicks": 48,
            "midi": 61,
            "name": "C#4",
            "ticks": 142944,
            "time": 186.125,
            "velocity": 0.03937007874015748
          },
          {
            "duration": 0.0625,
            "durationTicks": 48,
            "midi": 56,
            "name": "G#3",
            "ticks": 143040,
            "time": 186.25,
            "velocity": 0.03937007874015748
          },
          {
            "duration": 0.0625,
            "durationTicks": 48,
            "midi": 54,
            "name": "F#3",
            "ticks": 143136,
            "time": 186.375,
            "velocity": 0.03937007874015748
          },
          {
            "duration": 0.0625,
            "durationTicks": 48,
            "midi": 56,
            "name": "G#3",
            "ticks": 143232,
            "time": 186.5,
            "velocity": 0.03937007874015748
          },
          {
            "duration": 0.0625,
            "durationTicks": 48,
            "midi": 56,
            "name": "G#3",
            "ticks": 143424,
            "time": 186.75,
            "velocity": 0.03937007874015748
          },
          {
            "duration": 0.0625,
            "durationTicks": 48,
            "midi": 54,
            "name": "F#3",
            "ticks": 143520,
            "time": 186.875,
            "velocity": 0.03937007874015748
          },
          {
            "duration": 0.0625,
            "durationTicks": 48,
            "midi": 56,
            "name": "G#3",
            "ticks": 143616,
            "time": 187,
            "velocity": 0.03937007874015748
          },
          {
            "duration": 0.0625,
            "durationTicks": 48,
            "midi": 56,
            "name": "G#3",
            "ticks": 143808,
            "time": 187.25,
            "velocity": 0.03937007874015748
          },
          {
            "duration": 0.0625,
            "durationTicks": 48,
            "midi": 54,
            "name": "F#3",
            "ticks": 143904,
            "time": 187.375,
            "velocity": 0.03937007874015748
          },
          {
            "duration": 0.0625,
            "durationTicks": 48,
            "midi": 56,
            "name": "G#3",
            "ticks": 144000,
            "time": 187.5,
            "velocity": 0.03937007874015748
          },
          {
            "duration": 0.0625,
            "durationTicks": 48,
            "midi": 59,
            "name": "B3",
            "ticks": 144096,
            "time": 187.625,
            "velocity": 0.03937007874015748
          },
          {
            "duration": 0.0625,
            "durationTicks": 48,
            "midi": 61,
            "name": "C#4",
            "ticks": 144288,
            "time": 187.875,
            "velocity": 0.03937007874015748
          },
          {
            "duration": 0.0625,
            "durationTicks": 48,
            "midi": 61,
            "name": "C#4",
            "ticks": 144480,
            "time": 188.125,
            "velocity": 0.03937007874015748
          },
          {
            "duration": 0.0625,
            "durationTicks": 48,
            "midi": 56,
            "name": "G#3",
            "ticks": 144576,
            "time": 188.25,
            "velocity": 0.03937007874015748
          },
          {
            "duration": 0.0625,
            "durationTicks": 48,
            "midi": 54,
            "name": "F#3",
            "ticks": 144672,
            "time": 188.375,
            "velocity": 0.03937007874015748
          },
          {
            "duration": 0.0625,
            "durationTicks": 48,
            "midi": 56,
            "name": "G#3",
            "ticks": 144768,
            "time": 188.5,
            "velocity": 0.03937007874015748
          },
          {
            "duration": 0.0625,
            "durationTicks": 48,
            "midi": 56,
            "name": "G#3",
            "ticks": 144960,
            "time": 188.75,
            "velocity": 0.03937007874015748
          },
          {
            "duration": 0.0625,
            "durationTicks": 48,
            "midi": 54,
            "name": "F#3",
            "ticks": 145056,
            "time": 188.875,
            "velocity": 0.03937007874015748
          },
          {
            "duration": 0.0625,
            "durationTicks": 48,
            "midi": 56,
            "name": "G#3",
            "ticks": 145152,
            "time": 189,
            "velocity": 0.03937007874015748
          },
          {
            "duration": 0.0625,
            "durationTicks": 48,
            "midi": 56,
            "name": "G#3",
            "ticks": 145344,
            "time": 189.25,
            "velocity": 0.03937007874015748
          },
          {
            "duration": 0.0625,
            "durationTicks": 48,
            "midi": 54,
            "name": "F#3",
            "ticks": 145440,
            "time": 189.375,
            "velocity": 0.03937007874015748
          },
          {
            "duration": 0.0625,
            "durationTicks": 48,
            "midi": 56,
            "name": "G#3",
            "ticks": 145536,
            "time": 189.5,
            "velocity": 0.03937007874015748
          },
          {
            "duration": 0.0625,
            "durationTicks": 48,
            "midi": 59,
            "name": "B3",
            "ticks": 145632,
            "time": 189.625,
            "velocity": 0.03937007874015748
          },
          {
            "duration": 0.0625,
            "durationTicks": 48,
            "midi": 61,
            "name": "C#4",
            "ticks": 145824,
            "time": 189.875,
            "velocity": 0.03937007874015748
          },
          {
            "duration": 0.0625,
            "durationTicks": 48,
            "midi": 61,
            "name": "C#4",
            "ticks": 146016,
            "time": 190.125,
            "velocity": 0.03937007874015748
          },
          {
            "duration": 0.0625,
            "durationTicks": 48,
            "midi": 56,
            "name": "G#3",
            "ticks": 146112,
            "time": 190.25,
            "velocity": 0.03937007874015748
          },
          {
            "duration": 0.0625,
            "durationTicks": 48,
            "midi": 54,
            "name": "F#3",
            "ticks": 146208,
            "time": 190.375,
            "velocity": 0.03937007874015748
          },
          {
            "duration": 0.0625,
            "durationTicks": 48,
            "midi": 56,
            "name": "G#3",
            "ticks": 146304,
            "time": 190.5,
            "velocity": 0.03937007874015748
          },
          {
            "duration": 0.0625,
            "durationTicks": 48,
            "midi": 56,
            "name": "G#3",
            "ticks": 146496,
            "time": 190.75,
            "velocity": 0.03937007874015748
          },
          {
            "duration": 0.0625,
            "durationTicks": 48,
            "midi": 54,
            "name": "F#3",
            "ticks": 146592,
            "time": 190.875,
            "velocity": 0.03937007874015748
          },
          {
            "duration": 0.0625,
            "durationTicks": 48,
            "midi": 56,
            "name": "G#3",
            "ticks": 146688,
            "time": 191,
            "velocity": 0.03937007874015748
          },
          {
            "duration": 0.0625,
            "durationTicks": 48,
            "midi": 56,
            "name": "G#3",
            "ticks": 146880,
            "time": 191.25,
            "velocity": 0.03937007874015748
          },
          {
            "duration": 0.0625,
            "durationTicks": 48,
            "midi": 54,
            "name": "F#3",
            "ticks": 146976,
            "time": 191.375,
            "velocity": 0.03937007874015748
          },
          {
            "duration": 0.0625,
            "durationTicks": 48,
            "midi": 56,
            "name": "G#3",
            "ticks": 147072,
            "time": 191.5,
            "velocity": 0.03937007874015748
          },
          {
            "duration": 0.0625,
            "durationTicks": 48,
            "midi": 59,
            "name": "B3",
            "ticks": 147168,
            "time": 191.625,
            "velocity": 0.03937007874015748
          },
          {
            "duration": 0.0625,
            "durationTicks": 48,
            "midi": 61,
            "name": "C#4",
            "ticks": 147360,
            "time": 191.875,
            "velocity": 0.03937007874015748
          },
          {
            "duration": 0.0625,
            "durationTicks": 48,
            "midi": 61,
            "name": "C#4",
            "ticks": 147552,
            "time": 192.125,
            "velocity": 0.03937007874015748
          },
          {
            "duration": 0.0625,
            "durationTicks": 48,
            "midi": 56,
            "name": "G#3",
            "ticks": 147648,
            "time": 192.25,
            "velocity": 0.03937007874015748
          },
          {
            "duration": 0.0625,
            "durationTicks": 48,
            "midi": 54,
            "name": "F#3",
            "ticks": 147744,
            "time": 192.375,
            "velocity": 0.03937007874015748
          },
          {
            "duration": 0.0625,
            "durationTicks": 48,
            "midi": 56,
            "name": "G#3",
            "ticks": 147840,
            "time": 192.5,
            "velocity": 0.03937007874015748
          },
          {
            "duration": 0.0625,
            "durationTicks": 48,
            "midi": 56,
            "name": "G#3",
            "ticks": 148032,
            "time": 192.75,
            "velocity": 0.03937007874015748
          },
          {
            "duration": 0.0625,
            "durationTicks": 48,
            "midi": 54,
            "name": "F#3",
            "ticks": 148128,
            "time": 192.875,
            "velocity": 0.03937007874015748
          },
          {
            "duration": 0.0625,
            "durationTicks": 48,
            "midi": 56,
            "name": "G#3",
            "ticks": 148224,
            "time": 193,
            "velocity": 0.03937007874015748
          },
          {
            "duration": 0.0625,
            "durationTicks": 48,
            "midi": 56,
            "name": "G#3",
            "ticks": 148416,
            "time": 193.25,
            "velocity": 0.03937007874015748
          },
          {
            "duration": 0.0625,
            "durationTicks": 48,
            "midi": 54,
            "name": "F#3",
            "ticks": 148512,
            "time": 193.375,
            "velocity": 0.03937007874015748
          },
          {
            "duration": 0.0625,
            "durationTicks": 48,
            "midi": 56,
            "name": "G#3",
            "ticks": 148608,
            "time": 193.5,
            "velocity": 0.03937007874015748
          },
          {
            "duration": 0.0625,
            "durationTicks": 48,
            "midi": 59,
            "name": "B3",
            "ticks": 148704,
            "time": 193.625,
            "velocity": 0.03937007874015748
          },
          {
            "duration": 0.0625,
            "durationTicks": 48,
            "midi": 61,
            "name": "C#4",
            "ticks": 148896,
            "time": 193.875,
            "velocity": 0.03937007874015748
          },
          {
            "duration": 0.0625,
            "durationTicks": 48,
            "midi": 61,
            "name": "C#4",
            "ticks": 149088,
            "time": 194.125,
            "velocity": 0.03937007874015748
          },
          {
            "duration": 0.0625,
            "durationTicks": 48,
            "midi": 56,
            "name": "G#3",
            "ticks": 149184,
            "time": 194.25,
            "velocity": 0.03937007874015748
          },
          {
            "duration": 0.0625,
            "durationTicks": 48,
            "midi": 54,
            "name": "F#3",
            "ticks": 149280,
            "time": 194.375,
            "velocity": 0.03937007874015748
          },
          {
            "duration": 0.0625,
            "durationTicks": 48,
            "midi": 56,
            "name": "G#3",
            "ticks": 149376,
            "time": 194.5,
            "velocity": 0.03937007874015748
          },
          {
            "duration": 0.0625,
            "durationTicks": 48,
            "midi": 56,
            "name": "G#3",
            "ticks": 149568,
            "time": 194.75,
            "velocity": 0.03937007874015748
          },
          {
            "duration": 0.0625,
            "durationTicks": 48,
            "midi": 54,
            "name": "F#3",
            "ticks": 149664,
            "time": 194.875,
            "velocity": 0.03937007874015748
          },
          {
            "duration": 0.0625,
            "durationTicks": 48,
            "midi": 56,
            "name": "G#3",
            "ticks": 149760,
            "time": 195,
            "velocity": 0.03937007874015748
          },
          {
            "duration": 0.0625,
            "durationTicks": 48,
            "midi": 56,
            "name": "G#3",
            "ticks": 149952,
            "time": 195.25,
            "velocity": 0.03937007874015748
          },
          {
            "duration": 0.0625,
            "durationTicks": 48,
            "midi": 54,
            "name": "F#3",
            "ticks": 150048,
            "time": 195.375,
            "velocity": 0.03937007874015748
          },
          {
            "duration": 0.0625,
            "durationTicks": 48,
            "midi": 56,
            "name": "G#3",
            "ticks": 150144,
            "time": 195.5,
            "velocity": 0.03937007874015748
          },
          {
            "duration": 0.0625,
            "durationTicks": 48,
            "midi": 59,
            "name": "B3",
            "ticks": 150240,
            "time": 195.625,
            "velocity": 0.03937007874015748
          },
          {
            "duration": 0.0625,
            "durationTicks": 48,
            "midi": 61,
            "name": "C#4",
            "ticks": 150432,
            "time": 195.875,
            "velocity": 0.03937007874015748
          },
          {
            "duration": 0.0625,
            "durationTicks": 48,
            "midi": 61,
            "name": "C#4",
            "ticks": 150624,
            "time": 196.125,
            "velocity": 0.03937007874015748
          },
          {
            "duration": 0.0625,
            "durationTicks": 48,
            "midi": 56,
            "name": "G#3",
            "ticks": 150720,
            "time": 196.25,
            "velocity": 0.03937007874015748
          },
          {
            "duration": 0.0625,
            "durationTicks": 48,
            "midi": 54,
            "name": "F#3",
            "ticks": 150816,
            "time": 196.375,
            "velocity": 0.03937007874015748
          },
          {
            "duration": 0.0625,
            "durationTicks": 48,
            "midi": 56,
            "name": "G#3",
            "ticks": 150912,
            "time": 196.5,
            "velocity": 0.03937007874015748
          },
          {
            "duration": 0.0625,
            "durationTicks": 48,
            "midi": 56,
            "name": "G#3",
            "ticks": 151104,
            "time": 196.75,
            "velocity": 0.03937007874015748
          },
          {
            "duration": 0.0625,
            "durationTicks": 48,
            "midi": 54,
            "name": "F#3",
            "ticks": 151200,
            "time": 196.875,
            "velocity": 0.03937007874015748
          },
          {
            "duration": 0.0625,
            "durationTicks": 48,
            "midi": 56,
            "name": "G#3",
            "ticks": 151296,
            "time": 197,
            "velocity": 0.03937007874015748
          },
          {
            "duration": 0.0625,
            "durationTicks": 48,
            "midi": 56,
            "name": "G#3",
            "ticks": 151488,
            "time": 197.25,
            "velocity": 0.03937007874015748
          },
          {
            "duration": 0.0625,
            "durationTicks": 48,
            "midi": 54,
            "name": "F#3",
            "ticks": 151584,
            "time": 197.375,
            "velocity": 0.03937007874015748
          },
          {
            "duration": 0.0625,
            "durationTicks": 48,
            "midi": 56,
            "name": "G#3",
            "ticks": 151680,
            "time": 197.5,
            "velocity": 0.03937007874015748
          },
          {
            "duration": 0.0625,
            "durationTicks": 48,
            "midi": 59,
            "name": "B3",
            "ticks": 151776,
            "time": 197.625,
            "velocity": 0.03937007874015748
          },
          {
            "duration": 0.0625,
            "durationTicks": 48,
            "midi": 61,
            "name": "C#4",
            "ticks": 151968,
            "time": 197.875,
            "velocity": 0.03937007874015748
          },
          {
            "duration": 0.0625,
            "durationTicks": 48,
            "midi": 61,
            "name": "C#4",
            "ticks": 152160,
            "time": 198.125,
            "velocity": 0.03937007874015748
          },
          {
            "duration": 0.0625,
            "durationTicks": 48,
            "midi": 56,
            "name": "G#3",
            "ticks": 152256,
            "time": 198.25,
            "velocity": 0.03937007874015748
          },
          {
            "duration": 0.0625,
            "durationTicks": 48,
            "midi": 54,
            "name": "F#3",
            "ticks": 152352,
            "time": 198.375,
            "velocity": 0.03937007874015748
          },
          {
            "duration": 0.0625,
            "durationTicks": 48,
            "midi": 56,
            "name": "G#3",
            "ticks": 152448,
            "time": 198.5,
            "velocity": 0.03937007874015748
          },
          {
            "duration": 0.0625,
            "durationTicks": 48,
            "midi": 56,
            "name": "G#3",
            "ticks": 152640,
            "time": 198.75,
            "velocity": 0.03937007874015748
          },
          {
            "duration": 0.0625,
            "durationTicks": 48,
            "midi": 54,
            "name": "F#3",
            "ticks": 152736,
            "time": 198.875,
            "velocity": 0.03937007874015748
          },
          {
            "duration": 0.0625,
            "durationTicks": 48,
            "midi": 56,
            "name": "G#3",
            "ticks": 152832,
            "time": 199,
            "velocity": 0.03937007874015748
          },
          {
            "duration": 0.0625,
            "durationTicks": 48,
            "midi": 56,
            "name": "G#3",
            "ticks": 153024,
            "time": 199.25,
            "velocity": 0.03937007874015748
          },
          {
            "duration": 0.0625,
            "durationTicks": 48,
            "midi": 54,
            "name": "F#3",
            "ticks": 153120,
            "time": 199.375,
            "velocity": 0.03937007874015748
          },
          {
            "duration": 0.0625,
            "durationTicks": 48,
            "midi": 56,
            "name": "G#3",
            "ticks": 153216,
            "time": 199.5,
            "velocity": 0.03937007874015748
          },
          {
            "duration": 0.0625,
            "durationTicks": 48,
            "midi": 59,
            "name": "B3",
            "ticks": 153312,
            "time": 199.625,
            "velocity": 0.03937007874015748
          },
          {
            "duration": 0.0625,
            "durationTicks": 48,
            "midi": 61,
            "name": "C#4",
            "ticks": 153504,
            "time": 199.875,
            "velocity": 0.03937007874015748
          },
          {
            "duration": 0.0625,
            "durationTicks": 48,
            "midi": 61,
            "name": "C#4",
            "ticks": 153696,
            "time": 200.125,
            "velocity": 0.03937007874015748
          },
          {
            "duration": 0.0625,
            "durationTicks": 48,
            "midi": 56,
            "name": "G#3",
            "ticks": 153792,
            "time": 200.25,
            "velocity": 0.03937007874015748
          },
          {
            "duration": 0.0625,
            "durationTicks": 48,
            "midi": 54,
            "name": "F#3",
            "ticks": 153888,
            "time": 200.375,
            "velocity": 0.03937007874015748
          },
          {
            "duration": 0.0625,
            "durationTicks": 48,
            "midi": 56,
            "name": "G#3",
            "ticks": 153984,
            "time": 200.5,
            "velocity": 0.03937007874015748
          },
          {
            "duration": 0.0625,
            "durationTicks": 48,
            "midi": 56,
            "name": "G#3",
            "ticks": 154176,
            "time": 200.75,
            "velocity": 0.03937007874015748
          },
          {
            "duration": 0.0625,
            "durationTicks": 48,
            "midi": 54,
            "name": "F#3",
            "ticks": 154272,
            "time": 200.875,
            "velocity": 0.03937007874015748
          },
          {
            "duration": 0.0625,
            "durationTicks": 48,
            "midi": 56,
            "name": "G#3",
            "ticks": 154368,
            "time": 201,
            "velocity": 0.03937007874015748
          },
          {
            "duration": 0.0625,
            "durationTicks": 48,
            "midi": 56,
            "name": "G#3",
            "ticks": 154560,
            "time": 201.25,
            "velocity": 0.03937007874015748
          },
          {
            "duration": 0.0625,
            "durationTicks": 48,
            "midi": 54,
            "name": "F#3",
            "ticks": 154656,
            "time": 201.375,
            "velocity": 0.03937007874015748
          },
          {
            "duration": 0.0625,
            "durationTicks": 48,
            "midi": 56,
            "name": "G#3",
            "ticks": 154752,
            "time": 201.5,
            "velocity": 0.03937007874015748
          },
          {
            "duration": 0.0625,
            "durationTicks": 48,
            "midi": 59,
            "name": "B3",
            "ticks": 154848,
            "time": 201.625,
            "velocity": 0.03937007874015748
          },
          {
            "duration": 0.0625,
            "durationTicks": 48,
            "midi": 61,
            "name": "C#4",
            "ticks": 155040,
            "time": 201.875,
            "velocity": 0.03937007874015748
          },
          {
            "duration": 0.0625,
            "durationTicks": 48,
            "midi": 61,
            "name": "C#4",
            "ticks": 155232,
            "time": 202.125,
            "velocity": 0.03937007874015748
          },
          {
            "duration": 0.0625,
            "durationTicks": 48,
            "midi": 56,
            "name": "G#3",
            "ticks": 155328,
            "time": 202.25,
            "velocity": 0.03937007874015748
          },
          {
            "duration": 0.0625,
            "durationTicks": 48,
            "midi": 54,
            "name": "F#3",
            "ticks": 155424,
            "time": 202.375,
            "velocity": 0.03937007874015748
          },
          {
            "duration": 0.0625,
            "durationTicks": 48,
            "midi": 56,
            "name": "G#3",
            "ticks": 155520,
            "time": 202.5,
            "velocity": 0.03937007874015748
          },
          {
            "duration": 0.0625,
            "durationTicks": 48,
            "midi": 56,
            "name": "G#3",
            "ticks": 155712,
            "time": 202.75,
            "velocity": 0.03937007874015748
          },
          {
            "duration": 0.0625,
            "durationTicks": 48,
            "midi": 54,
            "name": "F#3",
            "ticks": 155808,
            "time": 202.875,
            "velocity": 0.03937007874015748
          },
          {
            "duration": 0.0625,
            "durationTicks": 48,
            "midi": 56,
            "name": "G#3",
            "ticks": 155904,
            "time": 203,
            "velocity": 0.03937007874015748
          },
          {
            "duration": 0.0625,
            "durationTicks": 48,
            "midi": 56,
            "name": "G#3",
            "ticks": 156096,
            "time": 203.25,
            "velocity": 0.03937007874015748
          },
          {
            "duration": 0.0625,
            "durationTicks": 48,
            "midi": 54,
            "name": "F#3",
            "ticks": 156192,
            "time": 203.375,
            "velocity": 0.03937007874015748
          },
          {
            "duration": 0.0625,
            "durationTicks": 48,
            "midi": 56,
            "name": "G#3",
            "ticks": 156288,
            "time": 203.5,
            "velocity": 0.03937007874015748
          },
          {
            "duration": 0.0625,
            "durationTicks": 48,
            "midi": 59,
            "name": "B3",
            "ticks": 156384,
            "time": 203.625,
            "velocity": 0.03937007874015748
          },
          {
            "duration": 0.0625,
            "durationTicks": 48,
            "midi": 61,
            "name": "C#4",
            "ticks": 156576,
            "time": 203.875,
            "velocity": 0.03937007874015748
          },
          {
            "duration": 0.0625,
            "durationTicks": 48,
            "midi": 61,
            "name": "C#4",
            "ticks": 156768,
            "time": 204.125,
            "velocity": 0.03937007874015748
          },
          {
            "duration": 0.0625,
            "durationTicks": 48,
            "midi": 56,
            "name": "G#3",
            "ticks": 156864,
            "time": 204.25,
            "velocity": 0.03937007874015748
          },
          {
            "duration": 0.0625,
            "durationTicks": 48,
            "midi": 54,
            "name": "F#3",
            "ticks": 156960,
            "time": 204.375,
            "velocity": 0.03937007874015748
          },
          {
            "duration": 0.0625,
            "durationTicks": 48,
            "midi": 56,
            "name": "G#3",
            "ticks": 157056,
            "time": 204.5,
            "velocity": 0.03937007874015748
          },
          {
            "duration": 0.0625,
            "durationTicks": 48,
            "midi": 56,
            "name": "G#3",
            "ticks": 157248,
            "time": 204.75,
            "velocity": 0.03937007874015748
          },
          {
            "duration": 0.0625,
            "durationTicks": 48,
            "midi": 54,
            "name": "F#3",
            "ticks": 157344,
            "time": 204.875,
            "velocity": 0.03937007874015748
          },
          {
            "duration": 0.0625,
            "durationTicks": 48,
            "midi": 56,
            "name": "G#3",
            "ticks": 157440,
            "time": 205,
            "velocity": 0.03937007874015748
          },
          {
            "duration": 0.0625,
            "durationTicks": 48,
            "midi": 56,
            "name": "G#3",
            "ticks": 157632,
            "time": 205.25,
            "velocity": 0.03937007874015748
          },
          {
            "duration": 0.0625,
            "durationTicks": 48,
            "midi": 54,
            "name": "F#3",
            "ticks": 157728,
            "time": 205.375,
            "velocity": 0.03937007874015748
          },
          {
            "duration": 0.0625,
            "durationTicks": 48,
            "midi": 56,
            "name": "G#3",
            "ticks": 157824,
            "time": 205.5,
            "velocity": 0.03937007874015748
          },
          {
            "duration": 0.0625,
            "durationTicks": 48,
            "midi": 59,
            "name": "B3",
            "ticks": 157920,
            "time": 205.625,
            "velocity": 0.03937007874015748
          },
          {
            "duration": 0.0625,
            "durationTicks": 48,
            "midi": 61,
            "name": "C#4",
            "ticks": 158112,
            "time": 205.875,
            "velocity": 0.03937007874015748
          },
          {
            "duration": 0.0625,
            "durationTicks": 48,
            "midi": 61,
            "name": "C#4",
            "ticks": 158304,
            "time": 206.125,
            "velocity": 0.03937007874015748
          },
          {
            "duration": 0.0625,
            "durationTicks": 48,
            "midi": 56,
            "name": "G#3",
            "ticks": 158400,
            "time": 206.25,
            "velocity": 0.03937007874015748
          },
          {
            "duration": 0.0625,
            "durationTicks": 48,
            "midi": 54,
            "name": "F#3",
            "ticks": 158496,
            "time": 206.375,
            "velocity": 0.03937007874015748
          },
          {
            "duration": 0.0625,
            "durationTicks": 48,
            "midi": 56,
            "name": "G#3",
            "ticks": 158592,
            "time": 206.5,
            "velocity": 0.03937007874015748
          },
          {
            "duration": 0.0625,
            "durationTicks": 48,
            "midi": 56,
            "name": "G#3",
            "ticks": 158784,
            "time": 206.75,
            "velocity": 0.03937007874015748
          },
          {
            "duration": 0.0625,
            "durationTicks": 48,
            "midi": 54,
            "name": "F#3",
            "ticks": 158880,
            "time": 206.875,
            "velocity": 0.03937007874015748
          },
          {
            "duration": 0.0625,
            "durationTicks": 48,
            "midi": 56,
            "name": "G#3",
            "ticks": 158976,
            "time": 207,
            "velocity": 0.03937007874015748
          },
          {
            "duration": 0.0625,
            "durationTicks": 48,
            "midi": 56,
            "name": "G#3",
            "ticks": 159168,
            "time": 207.25,
            "velocity": 0.03937007874015748
          },
          {
            "duration": 0.0625,
            "durationTicks": 48,
            "midi": 54,
            "name": "F#3",
            "ticks": 159264,
            "time": 207.375,
            "velocity": 0.03937007874015748
          },
          {
            "duration": 0.0625,
            "durationTicks": 48,
            "midi": 56,
            "name": "G#3",
            "ticks": 159360,
            "time": 207.5,
            "velocity": 0.03937007874015748
          },
          {
            "duration": 0.0625,
            "durationTicks": 48,
            "midi": 59,
            "name": "B3",
            "ticks": 159456,
            "time": 207.625,
            "velocity": 0.03937007874015748
          },
          {
            "duration": 0.0625,
            "durationTicks": 48,
            "midi": 61,
            "name": "C#4",
            "ticks": 159648,
            "time": 207.875,
            "velocity": 0.03937007874015748
          },
          {
            "duration": 0.0625,
            "durationTicks": 48,
            "midi": 61,
            "name": "C#4",
            "ticks": 159840,
            "time": 208.125,
            "velocity": 0.03937007874015748
          },
          {
            "duration": 0.0625,
            "durationTicks": 48,
            "midi": 56,
            "name": "G#3",
            "ticks": 159936,
            "time": 208.25,
            "velocity": 0.03937007874015748
          },
          {
            "duration": 0.0625,
            "durationTicks": 48,
            "midi": 54,
            "name": "F#3",
            "ticks": 160032,
            "time": 208.375,
            "velocity": 0.03937007874015748
          },
          {
            "duration": 0.0625,
            "durationTicks": 48,
            "midi": 56,
            "name": "G#3",
            "ticks": 160128,
            "time": 208.5,
            "velocity": 0.03937007874015748
          },
          {
            "duration": 0.0625,
            "durationTicks": 48,
            "midi": 56,
            "name": "G#3",
            "ticks": 160320,
            "time": 208.75,
            "velocity": 0.03937007874015748
          },
          {
            "duration": 0.0625,
            "durationTicks": 48,
            "midi": 54,
            "name": "F#3",
            "ticks": 160416,
            "time": 208.875,
            "velocity": 0.03937007874015748
          },
          {
            "duration": 0.0625,
            "durationTicks": 48,
            "midi": 56,
            "name": "G#3",
            "ticks": 160512,
            "time": 209,
            "velocity": 0.03937007874015748
          },
          {
            "duration": 0.0625,
            "durationTicks": 48,
            "midi": 56,
            "name": "G#3",
            "ticks": 160704,
            "time": 209.25,
            "velocity": 0.03937007874015748
          },
          {
            "duration": 0.0625,
            "durationTicks": 48,
            "midi": 54,
            "name": "F#3",
            "ticks": 160800,
            "time": 209.375,
            "velocity": 0.03937007874015748
          },
          {
            "duration": 0.0625,
            "durationTicks": 48,
            "midi": 56,
            "name": "G#3",
            "ticks": 160896,
            "time": 209.5,
            "velocity": 0.03937007874015748
          },
          {
            "duration": 0.0625,
            "durationTicks": 48,
            "midi": 59,
            "name": "B3",
            "ticks": 160992,
            "time": 209.625,
            "velocity": 0.03937007874015748
          },
          {
            "duration": 0.0625,
            "durationTicks": 48,
            "midi": 61,
            "name": "C#4",
            "ticks": 161184,
            "time": 209.875,
            "velocity": 0.03937007874015748
          },
          {
            "duration": 0.0625,
            "durationTicks": 48,
            "midi": 61,
            "name": "C#4",
            "ticks": 161376,
            "time": 210.125,
            "velocity": 0.03937007874015748
          },
          {
            "duration": 0.0625,
            "durationTicks": 48,
            "midi": 56,
            "name": "G#3",
            "ticks": 161472,
            "time": 210.25,
            "velocity": 0.03937007874015748
          },
          {
            "duration": 0.0625,
            "durationTicks": 48,
            "midi": 54,
            "name": "F#3",
            "ticks": 161568,
            "time": 210.375,
            "velocity": 0.03937007874015748
          },
          {
            "duration": 0.0625,
            "durationTicks": 48,
            "midi": 56,
            "name": "G#3",
            "ticks": 161664,
            "time": 210.5,
            "velocity": 0.03937007874015748
          },
          {
            "duration": 0.0625,
            "durationTicks": 48,
            "midi": 56,
            "name": "G#3",
            "ticks": 161856,
            "time": 210.75,
            "velocity": 0.03937007874015748
          },
          {
            "duration": 0.0625,
            "durationTicks": 48,
            "midi": 54,
            "name": "F#3",
            "ticks": 161952,
            "time": 210.875,
            "velocity": 0.03937007874015748
          },
          {
            "duration": 0.0625,
            "durationTicks": 48,
            "midi": 56,
            "name": "G#3",
            "ticks": 162048,
            "time": 211,
            "velocity": 0.03937007874015748
          },
          {
            "duration": 0.0625,
            "durationTicks": 48,
            "midi": 56,
            "name": "G#3",
            "ticks": 162240,
            "time": 211.25,
            "velocity": 0.03937007874015748
          },
          {
            "duration": 0.0625,
            "durationTicks": 48,
            "midi": 54,
            "name": "F#3",
            "ticks": 162336,
            "time": 211.375,
            "velocity": 0.03937007874015748
          },
          {
            "duration": 0.0625,
            "durationTicks": 48,
            "midi": 56,
            "name": "G#3",
            "ticks": 162432,
            "time": 211.5,
            "velocity": 0.03937007874015748
          },
          {
            "duration": 0.0625,
            "durationTicks": 48,
            "midi": 59,
            "name": "B3",
            "ticks": 162528,
            "time": 211.625,
            "velocity": 0.03937007874015748
          },
          {
            "duration": 0.0625,
            "durationTicks": 48,
            "midi": 61,
            "name": "C#4",
            "ticks": 162720,
            "time": 211.875,
            "velocity": 0.03937007874015748
          },
          {
            "duration": 0.0625,
            "durationTicks": 48,
            "midi": 61,
            "name": "C#4",
            "ticks": 162912,
            "time": 212.125,
            "velocity": 0.03937007874015748
          },
          {
            "duration": 0.0625,
            "durationTicks": 48,
            "midi": 56,
            "name": "G#3",
            "ticks": 163008,
            "time": 212.25,
            "velocity": 0.03937007874015748
          },
          {
            "duration": 0.0625,
            "durationTicks": 48,
            "midi": 54,
            "name": "F#3",
            "ticks": 163104,
            "time": 212.375,
            "velocity": 0.03937007874015748
          },
          {
            "duration": 0.0625,
            "durationTicks": 48,
            "midi": 56,
            "name": "G#3",
            "ticks": 163200,
            "time": 212.5,
            "velocity": 0.03937007874015748
          },
          {
            "duration": 0.0625,
            "durationTicks": 48,
            "midi": 56,
            "name": "G#3",
            "ticks": 163392,
            "time": 212.75,
            "velocity": 0.03937007874015748
          },
          {
            "duration": 0.0625,
            "durationTicks": 48,
            "midi": 54,
            "name": "F#3",
            "ticks": 163488,
            "time": 212.875,
            "velocity": 0.03937007874015748
          },
          {
            "duration": 0.0625,
            "durationTicks": 48,
            "midi": 56,
            "name": "G#3",
            "ticks": 163584,
            "time": 213,
            "velocity": 0.03937007874015748
          },
          {
            "duration": 0.0625,
            "durationTicks": 48,
            "midi": 56,
            "name": "G#3",
            "ticks": 163776,
            "time": 213.25,
            "velocity": 0.03937007874015748
          },
          {
            "duration": 0.0625,
            "durationTicks": 48,
            "midi": 54,
            "name": "F#3",
            "ticks": 163872,
            "time": 213.375,
            "velocity": 0.03937007874015748
          },
          {
            "duration": 0.0625,
            "durationTicks": 48,
            "midi": 56,
            "name": "G#3",
            "ticks": 163968,
            "time": 213.5,
            "velocity": 0.03937007874015748
          },
          {
            "duration": 0.0625,
            "durationTicks": 48,
            "midi": 59,
            "name": "B3",
            "ticks": 164064,
            "time": 213.625,
            "velocity": 0.03937007874015748
          },
          {
            "duration": 0.0625,
            "durationTicks": 48,
            "midi": 61,
            "name": "C#4",
            "ticks": 164256,
            "time": 213.875,
            "velocity": 0.03937007874015748
          },
          {
            "duration": 0.0625,
            "durationTicks": 48,
            "midi": 61,
            "name": "C#4",
            "ticks": 164448,
            "time": 214.125,
            "velocity": 0.03937007874015748
          },
          {
            "duration": 0.0625,
            "durationTicks": 48,
            "midi": 56,
            "name": "G#3",
            "ticks": 164544,
            "time": 214.25,
            "velocity": 0.03937007874015748
          },
          {
            "duration": 0.0625,
            "durationTicks": 48,
            "midi": 54,
            "name": "F#3",
            "ticks": 164640,
            "time": 214.375,
            "velocity": 0.03937007874015748
          },
          {
            "duration": 0.0625,
            "durationTicks": 48,
            "midi": 56,
            "name": "G#3",
            "ticks": 164736,
            "time": 214.5,
            "velocity": 0.03937007874015748
          },
          {
            "duration": 0.0625,
            "durationTicks": 48,
            "midi": 56,
            "name": "G#3",
            "ticks": 164928,
            "time": 214.75,
            "velocity": 0.03937007874015748
          },
          {
            "duration": 0.0625,
            "durationTicks": 48,
            "midi": 54,
            "name": "F#3",
            "ticks": 165024,
            "time": 214.875,
            "velocity": 0.03937007874015748
          },
          {
            "duration": 0.0625,
            "durationTicks": 48,
            "midi": 56,
            "name": "G#3",
            "ticks": 165120,
            "time": 215,
            "velocity": 0.03937007874015748
          },
          {
            "duration": 0.0625,
            "durationTicks": 48,
            "midi": 56,
            "name": "G#3",
            "ticks": 165312,
            "time": 215.25,
            "velocity": 0.03937007874015748
          },
          {
            "duration": 0.0625,
            "durationTicks": 48,
            "midi": 54,
            "name": "F#3",
            "ticks": 165408,
            "time": 215.375,
            "velocity": 0.03937007874015748
          },
          {
            "duration": 0.0625,
            "durationTicks": 48,
            "midi": 56,
            "name": "G#3",
            "ticks": 165504,
            "time": 215.5,
            "velocity": 0.03937007874015748
          },
          {
            "duration": 0.0625,
            "durationTicks": 48,
            "midi": 59,
            "name": "B3",
            "ticks": 165600,
            "time": 215.625,
            "velocity": 0.03937007874015748
          },
          {
            "duration": 0.0625,
            "durationTicks": 48,
            "midi": 61,
            "name": "C#4",
            "ticks": 165792,
            "time": 215.875,
            "velocity": 0.03937007874015748
          },
          {
            "duration": 0.0625,
            "durationTicks": 48,
            "midi": 61,
            "name": "C#4",
            "ticks": 165984,
            "time": 216.125,
            "velocity": 0.03937007874015748
          },
          {
            "duration": 0.0625,
            "durationTicks": 48,
            "midi": 56,
            "name": "G#3",
            "ticks": 166080,
            "time": 216.25,
            "velocity": 0.03937007874015748
          },
          {
            "duration": 0.0625,
            "durationTicks": 48,
            "midi": 54,
            "name": "F#3",
            "ticks": 166176,
            "time": 216.375,
            "velocity": 0.03937007874015748
          },
          {
            "duration": 0.0625,
            "durationTicks": 48,
            "midi": 56,
            "name": "G#3",
            "ticks": 166272,
            "time": 216.5,
            "velocity": 0.03937007874015748
          },
          {
            "duration": 0.0625,
            "durationTicks": 48,
            "midi": 56,
            "name": "G#3",
            "ticks": 166464,
            "time": 216.75,
            "velocity": 0.03937007874015748
          },
          {
            "duration": 0.0625,
            "durationTicks": 48,
            "midi": 54,
            "name": "F#3",
            "ticks": 166560,
            "time": 216.875,
            "velocity": 0.03937007874015748
          },
          {
            "duration": 0.0625,
            "durationTicks": 48,
            "midi": 56,
            "name": "G#3",
            "ticks": 166656,
            "time": 217,
            "velocity": 0.03937007874015748
          },
          {
            "duration": 0.0625,
            "durationTicks": 48,
            "midi": 56,
            "name": "G#3",
            "ticks": 166848,
            "time": 217.25,
            "velocity": 0.03937007874015748
          },
          {
            "duration": 0.0625,
            "durationTicks": 48,
            "midi": 54,
            "name": "F#3",
            "ticks": 166944,
            "time": 217.375,
            "velocity": 0.03937007874015748
          },
          {
            "duration": 0.0625,
            "durationTicks": 48,
            "midi": 56,
            "name": "G#3",
            "ticks": 167040,
            "time": 217.5,
            "velocity": 0.03937007874015748
          },
          {
            "duration": 0.0625,
            "durationTicks": 48,
            "midi": 59,
            "name": "B3",
            "ticks": 167136,
            "time": 217.625,
            "velocity": 0.03937007874015748
          },
          {
            "duration": 0.0625,
            "durationTicks": 48,
            "midi": 61,
            "name": "C#4",
            "ticks": 167328,
            "time": 217.875,
            "velocity": 0.03937007874015748
          },
          {
            "duration": 0.0625,
            "durationTicks": 48,
            "midi": 61,
            "name": "C#4",
            "ticks": 167520,
            "time": 218.125,
            "velocity": 0.03937007874015748
          },
          {
            "duration": 0.0625,
            "durationTicks": 48,
            "midi": 56,
            "name": "G#3",
            "ticks": 167616,
            "time": 218.25,
            "velocity": 0.03937007874015748
          },
          {
            "duration": 0.0625,
            "durationTicks": 48,
            "midi": 54,
            "name": "F#3",
            "ticks": 167712,
            "time": 218.375,
            "velocity": 0.03937007874015748
          },
          {
            "duration": 0.0625,
            "durationTicks": 48,
            "midi": 56,
            "name": "G#3",
            "ticks": 167808,
            "time": 218.5,
            "velocity": 0.03937007874015748
          },
          {
            "duration": 0.0625,
            "durationTicks": 48,
            "midi": 56,
            "name": "G#3",
            "ticks": 168000,
            "time": 218.75,
            "velocity": 0.03937007874015748
          },
          {
            "duration": 0.0625,
            "durationTicks": 48,
            "midi": 54,
            "name": "F#3",
            "ticks": 168096,
            "time": 218.875,
            "velocity": 0.03937007874015748
          },
          {
            "duration": 0.0625,
            "durationTicks": 48,
            "midi": 56,
            "name": "G#3",
            "ticks": 168192,
            "time": 219,
            "velocity": 0.03937007874015748
          },
          {
            "duration": 0.0625,
            "durationTicks": 48,
            "midi": 56,
            "name": "G#3",
            "ticks": 168384,
            "time": 219.25,
            "velocity": 0.03937007874015748
          },
          {
            "duration": 0.0625,
            "durationTicks": 48,
            "midi": 54,
            "name": "F#3",
            "ticks": 168480,
            "time": 219.375,
            "velocity": 0.03937007874015748
          },
          {
            "duration": 0.0625,
            "durationTicks": 48,
            "midi": 56,
            "name": "G#3",
            "ticks": 168576,
            "time": 219.5,
            "velocity": 0.03937007874015748
          },
          {
            "duration": 0.0625,
            "durationTicks": 48,
            "midi": 59,
            "name": "B3",
            "ticks": 168672,
            "time": 219.625,
            "velocity": 0.03937007874015748
          },
          {
            "duration": 0.0625,
            "durationTicks": 48,
            "midi": 61,
            "name": "C#4",
            "ticks": 168864,
            "time": 219.875,
            "velocity": 0.03937007874015748
          },
          {
            "duration": 0.0625,
            "durationTicks": 48,
            "midi": 61,
            "name": "C#4",
            "ticks": 169056,
            "time": 220.125,
            "velocity": 0.03937007874015748
          },
          {
            "duration": 0.0625,
            "durationTicks": 48,
            "midi": 56,
            "name": "G#3",
            "ticks": 169152,
            "time": 220.25,
            "velocity": 0.03937007874015748
          },
          {
            "duration": 0.0625,
            "durationTicks": 48,
            "midi": 54,
            "name": "F#3",
            "ticks": 169248,
            "time": 220.375,
            "velocity": 0.03937007874015748
          },
          {
            "duration": 0.0625,
            "durationTicks": 48,
            "midi": 56,
            "name": "G#3",
            "ticks": 169344,
            "time": 220.5,
            "velocity": 0.03937007874015748
          },
          {
            "duration": 0.0625,
            "durationTicks": 48,
            "midi": 56,
            "name": "G#3",
            "ticks": 169536,
            "time": 220.75,
            "velocity": 0.03937007874015748
          },
          {
            "duration": 0.0625,
            "durationTicks": 48,
            "midi": 54,
            "name": "F#3",
            "ticks": 169632,
            "time": 220.875,
            "velocity": 0.03937007874015748
          },
          {
            "duration": 0.0625,
            "durationTicks": 48,
            "midi": 56,
            "name": "G#3",
            "ticks": 169728,
            "time": 221,
            "velocity": 0.03937007874015748
          },
          {
            "duration": 0.0625,
            "durationTicks": 48,
            "midi": 56,
            "name": "G#3",
            "ticks": 169920,
            "time": 221.25,
            "velocity": 0.03937007874015748
          },
          {
            "duration": 0.0625,
            "durationTicks": 48,
            "midi": 54,
            "name": "F#3",
            "ticks": 170016,
            "time": 221.375,
            "velocity": 0.03937007874015748
          },
          {
            "duration": 0.0625,
            "durationTicks": 48,
            "midi": 56,
            "name": "G#3",
            "ticks": 170112,
            "time": 221.5,
            "velocity": 0.03937007874015748
          },
          {
            "duration": 0.0625,
            "durationTicks": 48,
            "midi": 59,
            "name": "B3",
            "ticks": 170208,
            "time": 221.625,
            "velocity": 0.03937007874015748
          },
          {
            "duration": 0.0625,
            "durationTicks": 48,
            "midi": 61,
            "name": "C#4",
            "ticks": 170400,
            "time": 221.875,
            "velocity": 0.03937007874015748
          },
          {
            "duration": 0.0625,
            "durationTicks": 48,
            "midi": 61,
            "name": "C#4",
            "ticks": 170592,
            "time": 222.125,
            "velocity": 0.03937007874015748
          },
          {
            "duration": 0.0625,
            "durationTicks": 48,
            "midi": 56,
            "name": "G#3",
            "ticks": 170688,
            "time": 222.25,
            "velocity": 0.03937007874015748
          },
          {
            "duration": 0.0625,
            "durationTicks": 48,
            "midi": 54,
            "name": "F#3",
            "ticks": 170784,
            "time": 222.375,
            "velocity": 0.03937007874015748
          },
          {
            "duration": 0.0625,
            "durationTicks": 48,
            "midi": 56,
            "name": "G#3",
            "ticks": 170880,
            "time": 222.5,
            "velocity": 0.03937007874015748
          },
          {
            "duration": 0.0625,
            "durationTicks": 48,
            "midi": 56,
            "name": "G#3",
            "ticks": 171072,
            "time": 222.75,
            "velocity": 0.03937007874015748
          },
          {
            "duration": 0.0625,
            "durationTicks": 48,
            "midi": 54,
            "name": "F#3",
            "ticks": 171168,
            "time": 222.875,
            "velocity": 0.03937007874015748
          },
          {
            "duration": 0.0625,
            "durationTicks": 48,
            "midi": 56,
            "name": "G#3",
            "ticks": 171264,
            "time": 223,
            "velocity": 0.03937007874015748
          },
          {
            "duration": 0.0625,
            "durationTicks": 48,
            "midi": 56,
            "name": "G#3",
            "ticks": 171456,
            "time": 223.25,
            "velocity": 0.03937007874015748
          },
          {
            "duration": 0.0625,
            "durationTicks": 48,
            "midi": 54,
            "name": "F#3",
            "ticks": 171552,
            "time": 223.375,
            "velocity": 0.03937007874015748
          },
          {
            "duration": 0.0625,
            "durationTicks": 48,
            "midi": 56,
            "name": "G#3",
            "ticks": 171648,
            "time": 223.5,
            "velocity": 0.03937007874015748
          },
          {
            "duration": 0.0625,
            "durationTicks": 48,
            "midi": 59,
            "name": "B3",
            "ticks": 171744,
            "time": 223.625,
            "velocity": 0.03937007874015748
          },
          {
            "duration": 0.0625,
            "durationTicks": 48,
            "midi": 61,
            "name": "C#4",
            "ticks": 171936,
            "time": 223.875,
            "velocity": 0.03937007874015748
          },
          {
            "duration": 0.0625,
            "durationTicks": 48,
            "midi": 61,
            "name": "C#4",
            "ticks": 172128,
            "time": 224.125,
            "velocity": 0.03937007874015748
          },
          {
            "duration": 0.0625,
            "durationTicks": 48,
            "midi": 56,
            "name": "G#3",
            "ticks": 172224,
            "time": 224.25,
            "velocity": 0.03937007874015748
          },
          {
            "duration": 0.0625,
            "durationTicks": 48,
            "midi": 54,
            "name": "F#3",
            "ticks": 172320,
            "time": 224.375,
            "velocity": 0.03937007874015748
          },
          {
            "duration": 0.0625,
            "durationTicks": 48,
            "midi": 56,
            "name": "G#3",
            "ticks": 172416,
            "time": 224.5,
            "velocity": 0.03937007874015748
          },
          {
            "duration": 0.0625,
            "durationTicks": 48,
            "midi": 56,
            "name": "G#3",
            "ticks": 172608,
            "time": 224.75,
            "velocity": 0.03937007874015748
          },
          {
            "duration": 0.0625,
            "durationTicks": 48,
            "midi": 54,
            "name": "F#3",
            "ticks": 172704,
            "time": 224.875,
            "velocity": 0.03937007874015748
          },
          {
            "duration": 0.0625,
            "durationTicks": 48,
            "midi": 56,
            "name": "G#3",
            "ticks": 172800,
            "time": 225,
            "velocity": 0.03937007874015748
          },
          {
            "duration": 0.0625,
            "durationTicks": 48,
            "midi": 56,
            "name": "G#3",
            "ticks": 172992,
            "time": 225.25,
            "velocity": 0.03937007874015748
          },
          {
            "duration": 0.0625,
            "durationTicks": 48,
            "midi": 54,
            "name": "F#3",
            "ticks": 173088,
            "time": 225.375,
            "velocity": 0.03937007874015748
          },
          {
            "duration": 0.0625,
            "durationTicks": 48,
            "midi": 56,
            "name": "G#3",
            "ticks": 173184,
            "time": 225.5,
            "velocity": 0.03937007874015748
          },
          {
            "duration": 0.0625,
            "durationTicks": 48,
            "midi": 59,
            "name": "B3",
            "ticks": 173280,
            "time": 225.625,
            "velocity": 0.03937007874015748
          },
          {
            "duration": 0.0625,
            "durationTicks": 48,
            "midi": 61,
            "name": "C#4",
            "ticks": 173472,
            "time": 225.875,
            "velocity": 0.03937007874015748
          },
          {
            "duration": 0.0625,
            "durationTicks": 48,
            "midi": 61,
            "name": "C#4",
            "ticks": 173664,
            "time": 226.125,
            "velocity": 0.03937007874015748
          },
          {
            "duration": 0.0625,
            "durationTicks": 48,
            "midi": 56,
            "name": "G#3",
            "ticks": 173760,
            "time": 226.25,
            "velocity": 0.03937007874015748
          },
          {
            "duration": 0.0625,
            "durationTicks": 48,
            "midi": 54,
            "name": "F#3",
            "ticks": 173856,
            "time": 226.375,
            "velocity": 0.03937007874015748
          },
          {
            "duration": 0.0625,
            "durationTicks": 48,
            "midi": 56,
            "name": "G#3",
            "ticks": 173952,
            "time": 226.5,
            "velocity": 0.03937007874015748
          },
          {
            "duration": 0.0625,
            "durationTicks": 48,
            "midi": 56,
            "name": "G#3",
            "ticks": 174144,
            "time": 226.75,
            "velocity": 0.03937007874015748
          },
          {
            "duration": 0.0625,
            "durationTicks": 48,
            "midi": 54,
            "name": "F#3",
            "ticks": 174240,
            "time": 226.875,
            "velocity": 0.03937007874015748
          },
          {
            "duration": 0.0625,
            "durationTicks": 48,
            "midi": 56,
            "name": "G#3",
            "ticks": 174336,
            "time": 227,
            "velocity": 0.03937007874015748
          },
          {
            "duration": 0.0625,
            "durationTicks": 48,
            "midi": 56,
            "name": "G#3",
            "ticks": 174528,
            "time": 227.25,
            "velocity": 0.03937007874015748
          },
          {
            "duration": 0.0625,
            "durationTicks": 48,
            "midi": 54,
            "name": "F#3",
            "ticks": 174624,
            "time": 227.375,
            "velocity": 0.03937007874015748
          },
          {
            "duration": 0.0625,
            "durationTicks": 48,
            "midi": 56,
            "name": "G#3",
            "ticks": 174720,
            "time": 227.5,
            "velocity": 0.03937007874015748
          },
          {
            "duration": 0.0625,
            "durationTicks": 48,
            "midi": 59,
            "name": "B3",
            "ticks": 174816,
            "time": 227.625,
            "velocity": 0.03937007874015748
          },
          {
            "duration": 0.0625,
            "durationTicks": 48,
            "midi": 61,
            "name": "C#4",
            "ticks": 175008,
            "time": 227.875,
            "velocity": 0.03937007874015748
          },
          {
            "duration": 0.0625,
            "durationTicks": 48,
            "midi": 61,
            "name": "C#4",
            "ticks": 175200,
            "time": 228.125,
            "velocity": 0.03937007874015748
          },
          {
            "duration": 0.0625,
            "durationTicks": 48,
            "midi": 56,
            "name": "G#3",
            "ticks": 175296,
            "time": 228.25,
            "velocity": 0.03937007874015748
          },
          {
            "duration": 0.0625,
            "durationTicks": 48,
            "midi": 54,
            "name": "F#3",
            "ticks": 175392,
            "time": 228.375,
            "velocity": 0.03937007874015748
          },
          {
            "duration": 0.0625,
            "durationTicks": 48,
            "midi": 56,
            "name": "G#3",
            "ticks": 175488,
            "time": 228.5,
            "velocity": 0.03937007874015748
          },
          {
            "duration": 0.0625,
            "durationTicks": 48,
            "midi": 56,
            "name": "G#3",
            "ticks": 175680,
            "time": 228.75,
            "velocity": 0.03937007874015748
          },
          {
            "duration": 0.0625,
            "durationTicks": 48,
            "midi": 54,
            "name": "F#3",
            "ticks": 175776,
            "time": 228.875,
            "velocity": 0.03937007874015748
          },
          {
            "duration": 0.0625,
            "durationTicks": 48,
            "midi": 56,
            "name": "G#3",
            "ticks": 175872,
            "time": 229,
            "velocity": 0.03937007874015748
          },
          {
            "duration": 0.0625,
            "durationTicks": 48,
            "midi": 56,
            "name": "G#3",
            "ticks": 176064,
            "time": 229.25,
            "velocity": 0.03937007874015748
          },
          {
            "duration": 0.0625,
            "durationTicks": 48,
            "midi": 54,
            "name": "F#3",
            "ticks": 176160,
            "time": 229.375,
            "velocity": 0.03937007874015748
          },
          {
            "duration": 0.0625,
            "durationTicks": 48,
            "midi": 56,
            "name": "G#3",
            "ticks": 176256,
            "time": 229.5,
            "velocity": 0.03937007874015748
          },
          {
            "duration": 0.0625,
            "durationTicks": 48,
            "midi": 59,
            "name": "B3",
            "ticks": 176352,
            "time": 229.625,
            "velocity": 0.03937007874015748
          },
          {
            "duration": 0.0625,
            "durationTicks": 48,
            "midi": 61,
            "name": "C#4",
            "ticks": 176544,
            "time": 229.875,
            "velocity": 0.03937007874015748
          },
          {
            "duration": 0.0625,
            "durationTicks": 48,
            "midi": 61,
            "name": "C#4",
            "ticks": 176736,
            "time": 230.125,
            "velocity": 0.03937007874015748
          },
          {
            "duration": 0.0625,
            "durationTicks": 48,
            "midi": 56,
            "name": "G#3",
            "ticks": 176832,
            "time": 230.25,
            "velocity": 0.03937007874015748
          },
          {
            "duration": 0.0625,
            "durationTicks": 48,
            "midi": 54,
            "name": "F#3",
            "ticks": 176928,
            "time": 230.375,
            "velocity": 0.03937007874015748
          },
          {
            "duration": 0.0625,
            "durationTicks": 48,
            "midi": 56,
            "name": "G#3",
            "ticks": 177024,
            "time": 230.5,
            "velocity": 0.03937007874015748
          },
          {
            "duration": 0.0625,
            "durationTicks": 48,
            "midi": 56,
            "name": "G#3",
            "ticks": 177216,
            "time": 230.75,
            "velocity": 0.03937007874015748
          },
          {
            "duration": 0.0625,
            "durationTicks": 48,
            "midi": 54,
            "name": "F#3",
            "ticks": 177312,
            "time": 230.875,
            "velocity": 0.03937007874015748
          },
          {
            "duration": 0.0625,
            "durationTicks": 48,
            "midi": 56,
            "name": "G#3",
            "ticks": 177408,
            "time": 231,
            "velocity": 0.03937007874015748
          },
          {
            "duration": 0.0625,
            "durationTicks": 48,
            "midi": 56,
            "name": "G#3",
            "ticks": 177600,
            "time": 231.25,
            "velocity": 0.03937007874015748
          },
          {
            "duration": 0.0625,
            "durationTicks": 48,
            "midi": 54,
            "name": "F#3",
            "ticks": 177696,
            "time": 231.375,
            "velocity": 0.03937007874015748
          },
          {
            "duration": 0.0625,
            "durationTicks": 48,
            "midi": 56,
            "name": "G#3",
            "ticks": 177792,
            "time": 231.5,
            "velocity": 0.03937007874015748
          },
          {
            "duration": 0.0625,
            "durationTicks": 48,
            "midi": 59,
            "name": "B3",
            "ticks": 177888,
            "time": 231.625,
            "velocity": 0.03937007874015748
          },
          {
            "duration": 0.0625,
            "durationTicks": 48,
            "midi": 61,
            "name": "C#4",
            "ticks": 178080,
            "time": 231.875,
            "velocity": 0.03937007874015748
          },
          {
            "duration": 0.0625,
            "durationTicks": 48,
            "midi": 61,
            "name": "C#4",
            "ticks": 178272,
            "time": 232.125,
            "velocity": 0.03937007874015748
          },
          {
            "duration": 0.0625,
            "durationTicks": 48,
            "midi": 56,
            "name": "G#3",
            "ticks": 178368,
            "time": 232.25,
            "velocity": 0.03937007874015748
          },
          {
            "duration": 0.0625,
            "durationTicks": 48,
            "midi": 54,
            "name": "F#3",
            "ticks": 178464,
            "time": 232.375,
            "velocity": 0.03937007874015748
          },
          {
            "duration": 0.0625,
            "durationTicks": 48,
            "midi": 56,
            "name": "G#3",
            "ticks": 178560,
            "time": 232.5,
            "velocity": 0.03937007874015748
          },
          {
            "duration": 0.0625,
            "durationTicks": 48,
            "midi": 56,
            "name": "G#3",
            "ticks": 178752,
            "time": 232.75,
            "velocity": 0.03937007874015748
          },
          {
            "duration": 0.0625,
            "durationTicks": 48,
            "midi": 54,
            "name": "F#3",
            "ticks": 178848,
            "time": 232.875,
            "velocity": 0.03937007874015748
          },
          {
            "duration": 0.0625,
            "durationTicks": 48,
            "midi": 56,
            "name": "G#3",
            "ticks": 178944,
            "time": 233,
            "velocity": 0.03937007874015748
          },
          {
            "duration": 0.0625,
            "durationTicks": 48,
            "midi": 56,
            "name": "G#3",
            "ticks": 179136,
            "time": 233.25,
            "velocity": 0.03937007874015748
          },
          {
            "duration": 0.0625,
            "durationTicks": 48,
            "midi": 54,
            "name": "F#3",
            "ticks": 179232,
            "time": 233.375,
            "velocity": 0.03937007874015748
          },
          {
            "duration": 0.0625,
            "durationTicks": 48,
            "midi": 56,
            "name": "G#3",
            "ticks": 179328,
            "time": 233.5,
            "velocity": 0.03937007874015748
          },
          {
            "duration": 0.0625,
            "durationTicks": 48,
            "midi": 59,
            "name": "B3",
            "ticks": 179424,
            "time": 233.625,
            "velocity": 0.03937007874015748
          },
          {
            "duration": 0.0625,
            "durationTicks": 48,
            "midi": 61,
            "name": "C#4",
            "ticks": 179616,
            "time": 233.875,
            "velocity": 0.03937007874015748
          },
          {
            "duration": 0.0625,
            "durationTicks": 48,
            "midi": 61,
            "name": "C#4",
            "ticks": 179808,
            "time": 234.125,
            "velocity": 0.03937007874015748
          },
          {
            "duration": 0.0625,
            "durationTicks": 48,
            "midi": 56,
            "name": "G#3",
            "ticks": 179904,
            "time": 234.25,
            "velocity": 0.03937007874015748
          },
          {
            "duration": 0.0625,
            "durationTicks": 48,
            "midi": 54,
            "name": "F#3",
            "ticks": 180000,
            "time": 234.375,
            "velocity": 0.03937007874015748
          },
          {
            "duration": 0.0625,
            "durationTicks": 48,
            "midi": 56,
            "name": "G#3",
            "ticks": 180096,
            "time": 234.5,
            "velocity": 0.03937007874015748
          },
          {
            "duration": 0.0625,
            "durationTicks": 48,
            "midi": 56,
            "name": "G#3",
            "ticks": 180288,
            "time": 234.75,
            "velocity": 0.03937007874015748
          },
          {
            "duration": 0.0625,
            "durationTicks": 48,
            "midi": 54,
            "name": "F#3",
            "ticks": 180384,
            "time": 234.875,
            "velocity": 0.03937007874015748
          },
          {
            "duration": 0.0625,
            "durationTicks": 48,
            "midi": 56,
            "name": "G#3",
            "ticks": 180480,
            "time": 235,
            "velocity": 0.03937007874015748
          },
          {
            "duration": 0.0625,
            "durationTicks": 48,
            "midi": 56,
            "name": "G#3",
            "ticks": 180672,
            "time": 235.25,
            "velocity": 0.03937007874015748
          },
          {
            "duration": 0.0625,
            "durationTicks": 48,
            "midi": 54,
            "name": "F#3",
            "ticks": 180768,
            "time": 235.375,
            "velocity": 0.03937007874015748
          },
          {
            "duration": 0.0625,
            "durationTicks": 48,
            "midi": 56,
            "name": "G#3",
            "ticks": 180864,
            "time": 235.5,
            "velocity": 0.03937007874015748
          },
          {
            "duration": 0.0625,
            "durationTicks": 48,
            "midi": 59,
            "name": "B3",
            "ticks": 180960,
            "time": 235.625,
            "velocity": 0.03937007874015748
          },
          {
            "duration": 0.0625,
            "durationTicks": 48,
            "midi": 61,
            "name": "C#4",
            "ticks": 181152,
            "time": 235.875,
            "velocity": 0.03937007874015748
          },
          {
            "duration": 0.0625,
            "durationTicks": 48,
            "midi": 61,
            "name": "C#4",
            "ticks": 181344,
            "time": 236.125,
            "velocity": 0.03937007874015748
          },
          {
            "duration": 0.0625,
            "durationTicks": 48,
            "midi": 56,
            "name": "G#3",
            "ticks": 181440,
            "time": 236.25,
            "velocity": 0.03937007874015748
          },
          {
            "duration": 0.0625,
            "durationTicks": 48,
            "midi": 54,
            "name": "F#3",
            "ticks": 181536,
            "time": 236.375,
            "velocity": 0.03937007874015748
          },
          {
            "duration": 0.0625,
            "durationTicks": 48,
            "midi": 56,
            "name": "G#3",
            "ticks": 181632,
            "time": 236.5,
            "velocity": 0.03937007874015748
          },
          {
            "duration": 0.0625,
            "durationTicks": 48,
            "midi": 56,
            "name": "G#3",
            "ticks": 181824,
            "time": 236.75,
            "velocity": 0.03937007874015748
          },
          {
            "duration": 0.0625,
            "durationTicks": 48,
            "midi": 54,
            "name": "F#3",
            "ticks": 181920,
            "time": 236.875,
            "velocity": 0.03937007874015748
          },
          {
            "duration": 0.0625,
            "durationTicks": 48,
            "midi": 56,
            "name": "G#3",
            "ticks": 182016,
            "time": 237,
            "velocity": 0.03937007874015748
          },
          {
            "duration": 0.0625,
            "durationTicks": 48,
            "midi": 56,
            "name": "G#3",
            "ticks": 182208,
            "time": 237.25,
            "velocity": 0.03937007874015748
          },
          {
            "duration": 0.0625,
            "durationTicks": 48,
            "midi": 54,
            "name": "F#3",
            "ticks": 182304,
            "time": 237.375,
            "velocity": 0.03937007874015748
          },
          {
            "duration": 0.0625,
            "durationTicks": 48,
            "midi": 56,
            "name": "G#3",
            "ticks": 182400,
            "time": 237.5,
            "velocity": 0.03937007874015748
          },
          {
            "duration": 0.0625,
            "durationTicks": 48,
            "midi": 59,
            "name": "B3",
            "ticks": 182496,
            "time": 237.625,
            "velocity": 0.03937007874015748
          },
          {
            "duration": 0.0625,
            "durationTicks": 48,
            "midi": 61,
            "name": "C#4",
            "ticks": 182688,
            "time": 237.875,
            "velocity": 0.03937007874015748
          },
          {
            "duration": 0.0625,
            "durationTicks": 48,
            "midi": 61,
            "name": "C#4",
            "ticks": 182880,
            "time": 238.125,
            "velocity": 0.03937007874015748
          },
          {
            "duration": 0.0625,
            "durationTicks": 48,
            "midi": 56,
            "name": "G#3",
            "ticks": 182976,
            "time": 238.25,
            "velocity": 0.03937007874015748
          },
          {
            "duration": 0.0625,
            "durationTicks": 48,
            "midi": 54,
            "name": "F#3",
            "ticks": 183072,
            "time": 238.375,
            "velocity": 0.03937007874015748
          },
          {
            "duration": 0.0625,
            "durationTicks": 48,
            "midi": 56,
            "name": "G#3",
            "ticks": 183168,
            "time": 238.5,
            "velocity": 0.03937007874015748
          },
          {
            "duration": 0.0625,
            "durationTicks": 48,
            "midi": 56,
            "name": "G#3",
            "ticks": 183360,
            "time": 238.75,
            "velocity": 0.03937007874015748
          },
          {
            "duration": 0.0625,
            "durationTicks": 48,
            "midi": 54,
            "name": "F#3",
            "ticks": 183456,
            "time": 238.875,
            "velocity": 0.03937007874015748
          },
          {
            "duration": 0.0625,
            "durationTicks": 48,
            "midi": 56,
            "name": "G#3",
            "ticks": 183552,
            "time": 239,
            "velocity": 0.03937007874015748
          },
          {
            "duration": 0.0625,
            "durationTicks": 48,
            "midi": 56,
            "name": "G#3",
            "ticks": 183744,
            "time": 239.25,
            "velocity": 0.03937007874015748
          },
          {
            "duration": 0.0625,
            "durationTicks": 48,
            "midi": 54,
            "name": "F#3",
            "ticks": 183840,
            "time": 239.375,
            "velocity": 0.03937007874015748
          },
          {
            "duration": 0.0625,
            "durationTicks": 48,
            "midi": 56,
            "name": "G#3",
            "ticks": 183936,
            "time": 239.5,
            "velocity": 0.03937007874015748
          },
          {
            "duration": 0.0625,
            "durationTicks": 48,
            "midi": 59,
            "name": "B3",
            "ticks": 184032,
            "time": 239.625,
            "velocity": 0.03937007874015748
          },
          {
            "duration": 0.0625,
            "durationTicks": 48,
            "midi": 61,
            "name": "C#4",
            "ticks": 184224,
            "time": 239.875,
            "velocity": 0.03937007874015748
          },
          {
            "duration": 0.0625,
            "durationTicks": 48,
            "midi": 61,
            "name": "C#4",
            "ticks": 184416,
            "time": 240.125,
            "velocity": 0.03937007874015748
          },
          {
            "duration": 0.0625,
            "durationTicks": 48,
            "midi": 56,
            "name": "G#3",
            "ticks": 184512,
            "time": 240.25,
            "velocity": 0.03937007874015748
          },
          {
            "duration": 0.0625,
            "durationTicks": 48,
            "midi": 54,
            "name": "F#3",
            "ticks": 184608,
            "time": 240.375,
            "velocity": 0.03937007874015748
          },
          {
            "duration": 0.0625,
            "durationTicks": 48,
            "midi": 56,
            "name": "G#3",
            "ticks": 184704,
            "time": 240.5,
            "velocity": 0.03937007874015748
          },
          {
            "duration": 0.0625,
            "durationTicks": 48,
            "midi": 56,
            "name": "G#3",
            "ticks": 184896,
            "time": 240.75,
            "velocity": 0.03937007874015748
          },
          {
            "duration": 0.0625,
            "durationTicks": 48,
            "midi": 54,
            "name": "F#3",
            "ticks": 184992,
            "time": 240.875,
            "velocity": 0.03937007874015748
          },
          {
            "duration": 0.0625,
            "durationTicks": 48,
            "midi": 56,
            "name": "G#3",
            "ticks": 185088,
            "time": 241,
            "velocity": 0.03937007874015748
          },
          {
            "duration": 0.0625,
            "durationTicks": 48,
            "midi": 56,
            "name": "G#3",
            "ticks": 185280,
            "time": 241.25,
            "velocity": 0.03937007874015748
          },
          {
            "duration": 0.0625,
            "durationTicks": 48,
            "midi": 54,
            "name": "F#3",
            "ticks": 185376,
            "time": 241.375,
            "velocity": 0.03937007874015748
          },
          {
            "duration": 0.0625,
            "durationTicks": 48,
            "midi": 56,
            "name": "G#3",
            "ticks": 185472,
            "time": 241.5,
            "velocity": 0.03937007874015748
          },
          {
            "duration": 0.0625,
            "durationTicks": 48,
            "midi": 59,
            "name": "B3",
            "ticks": 185568,
            "time": 241.625,
            "velocity": 0.03937007874015748
          },
          {
            "duration": 0.0625,
            "durationTicks": 48,
            "midi": 61,
            "name": "C#4",
            "ticks": 185760,
            "time": 241.875,
            "velocity": 0.03937007874015748
          },
          {
            "duration": 0.0625,
            "durationTicks": 48,
            "midi": 61,
            "name": "C#4",
            "ticks": 185952,
            "time": 242.125,
            "velocity": 0.03937007874015748
          },
          {
            "duration": 0.0625,
            "durationTicks": 48,
            "midi": 56,
            "name": "G#3",
            "ticks": 186048,
            "time": 242.25,
            "velocity": 0.03937007874015748
          },
          {
            "duration": 0.0625,
            "durationTicks": 48,
            "midi": 54,
            "name": "F#3",
            "ticks": 186144,
            "time": 242.375,
            "velocity": 0.03937007874015748
          },
          {
            "duration": 0.0625,
            "durationTicks": 48,
            "midi": 56,
            "name": "G#3",
            "ticks": 186240,
            "time": 242.5,
            "velocity": 0.03937007874015748
          },
          {
            "duration": 0.0625,
            "durationTicks": 48,
            "midi": 56,
            "name": "G#3",
            "ticks": 186432,
            "time": 242.75,
            "velocity": 0.03937007874015748
          },
          {
            "duration": 0.0625,
            "durationTicks": 48,
            "midi": 54,
            "name": "F#3",
            "ticks": 186528,
            "time": 242.875,
            "velocity": 0.03937007874015748
          },
          {
            "duration": 0.0625,
            "durationTicks": 48,
            "midi": 56,
            "name": "G#3",
            "ticks": 186624,
            "time": 243,
            "velocity": 0.03937007874015748
          },
          {
            "duration": 0.0625,
            "durationTicks": 48,
            "midi": 56,
            "name": "G#3",
            "ticks": 186816,
            "time": 243.25,
            "velocity": 0.03937007874015748
          },
          {
            "duration": 0.0625,
            "durationTicks": 48,
            "midi": 54,
            "name": "F#3",
            "ticks": 186912,
            "time": 243.375,
            "velocity": 0.03937007874015748
          },
          {
            "duration": 0.0625,
            "durationTicks": 48,
            "midi": 56,
            "name": "G#3",
            "ticks": 187008,
            "time": 243.5,
            "velocity": 0.03937007874015748
          },
          {
            "duration": 0.0625,
            "durationTicks": 48,
            "midi": 59,
            "name": "B3",
            "ticks": 187104,
            "time": 243.625,
            "velocity": 0.03937007874015748
          },
          {
            "duration": 0.0625,
            "durationTicks": 48,
            "midi": 61,
            "name": "C#4",
            "ticks": 187296,
            "time": 243.875,
            "velocity": 0.03937007874015748
          },
          {
            "duration": 0.0625,
            "durationTicks": 48,
            "midi": 61,
            "name": "C#4",
            "ticks": 187488,
            "time": 244.125,
            "velocity": 0.03937007874015748
          },
          {
            "duration": 0.0625,
            "durationTicks": 48,
            "midi": 56,
            "name": "G#3",
            "ticks": 187584,
            "time": 244.25,
            "velocity": 0.03937007874015748
          },
          {
            "duration": 0.0625,
            "durationTicks": 48,
            "midi": 54,
            "name": "F#3",
            "ticks": 187680,
            "time": 244.375,
            "velocity": 0.03937007874015748
          },
          {
            "duration": 0.0625,
            "durationTicks": 48,
            "midi": 56,
            "name": "G#3",
            "ticks": 187776,
            "time": 244.5,
            "velocity": 0.03937007874015748
          },
          {
            "duration": 0.0625,
            "durationTicks": 48,
            "midi": 56,
            "name": "G#3",
            "ticks": 187968,
            "time": 244.75,
            "velocity": 0.03937007874015748
          },
          {
            "duration": 0.0625,
            "durationTicks": 48,
            "midi": 54,
            "name": "F#3",
            "ticks": 188064,
            "time": 244.875,
            "velocity": 0.03937007874015748
          },
          {
            "duration": 0.0625,
            "durationTicks": 48,
            "midi": 56,
            "name": "G#3",
            "ticks": 188160,
            "time": 245,
            "velocity": 0.03937007874015748
          },
          {
            "duration": 0.0625,
            "durationTicks": 48,
            "midi": 56,
            "name": "G#3",
            "ticks": 188352,
            "time": 245.25,
            "velocity": 0.03937007874015748
          },
          {
            "duration": 0.0625,
            "durationTicks": 48,
            "midi": 54,
            "name": "F#3",
            "ticks": 188448,
            "time": 245.375,
            "velocity": 0.03937007874015748
          },
          {
            "duration": 0.0625,
            "durationTicks": 48,
            "midi": 56,
            "name": "G#3",
            "ticks": 188544,
            "time": 245.5,
            "velocity": 0.03937007874015748
          },
          {
            "duration": 0.0625,
            "durationTicks": 48,
            "midi": 59,
            "name": "B3",
            "ticks": 188640,
            "time": 245.625,
            "velocity": 0.03937007874015748
          },
          {
            "duration": 0.0625,
            "durationTicks": 48,
            "midi": 61,
            "name": "C#4",
            "ticks": 188832,
            "time": 245.875,
            "velocity": 0.03937007874015748
          },
          {
            "duration": 0.0625,
            "durationTicks": 48,
            "midi": 61,
            "name": "C#4",
            "ticks": 189024,
            "time": 246.125,
            "velocity": 0.03937007874015748
          },
          {
            "duration": 0.0625,
            "durationTicks": 48,
            "midi": 56,
            "name": "G#3",
            "ticks": 189120,
            "time": 246.25,
            "velocity": 0.03937007874015748
          },
          {
            "duration": 0.0625,
            "durationTicks": 48,
            "midi": 54,
            "name": "F#3",
            "ticks": 189216,
            "time": 246.375,
            "velocity": 0.03937007874015748
          },
          {
            "duration": 0.0625,
            "durationTicks": 48,
            "midi": 56,
            "name": "G#3",
            "ticks": 189312,
            "time": 246.5,
            "velocity": 0.03937007874015748
          },
          {
            "duration": 0.0625,
            "durationTicks": 48,
            "midi": 56,
            "name": "G#3",
            "ticks": 189504,
            "time": 246.75,
            "velocity": 0.03937007874015748
          },
          {
            "duration": 0.0625,
            "durationTicks": 48,
            "midi": 54,
            "name": "F#3",
            "ticks": 189600,
            "time": 246.875,
            "velocity": 0.03937007874015748
          },
          {
            "duration": 0.0625,
            "durationTicks": 48,
            "midi": 56,
            "name": "G#3",
            "ticks": 189696,
            "time": 247,
            "velocity": 0.03937007874015748
          },
          {
            "duration": 0.0625,
            "durationTicks": 48,
            "midi": 56,
            "name": "G#3",
            "ticks": 189888,
            "time": 247.25,
            "velocity": 0.03937007874015748
          },
          {
            "duration": 0.0625,
            "durationTicks": 48,
            "midi": 54,
            "name": "F#3",
            "ticks": 189984,
            "time": 247.375,
            "velocity": 0.03937007874015748
          },
          {
            "duration": 0.0625,
            "durationTicks": 48,
            "midi": 56,
            "name": "G#3",
            "ticks": 190080,
            "time": 247.5,
            "velocity": 0.03937007874015748
          },
          {
            "duration": 0.0625,
            "durationTicks": 48,
            "midi": 59,
            "name": "B3",
            "ticks": 190176,
            "time": 247.625,
            "velocity": 0.03937007874015748
          },
          {
            "duration": 0.0625,
            "durationTicks": 48,
            "midi": 61,
            "name": "C#4",
            "ticks": 190368,
            "time": 247.875,
            "velocity": 0.03937007874015748
          },
          {
            "duration": 0.0625,
            "durationTicks": 48,
            "midi": 61,
            "name": "C#4",
            "ticks": 190560,
            "time": 248.125,
            "velocity": 0.03937007874015748
          },
          {
            "duration": 0.0625,
            "durationTicks": 48,
            "midi": 56,
            "name": "G#3",
            "ticks": 190656,
            "time": 248.25,
            "velocity": 0.03937007874015748
          },
          {
            "duration": 0.0625,
            "durationTicks": 48,
            "midi": 54,
            "name": "F#3",
            "ticks": 190752,
            "time": 248.375,
            "velocity": 0.03937007874015748
          },
          {
            "duration": 0.0625,
            "durationTicks": 48,
            "midi": 56,
            "name": "G#3",
            "ticks": 190848,
            "time": 248.5,
            "velocity": 0.03937007874015748
          },
          {
            "duration": 0.0625,
            "durationTicks": 48,
            "midi": 56,
            "name": "G#3",
            "ticks": 191040,
            "time": 248.75,
            "velocity": 0.03937007874015748
          },
          {
            "duration": 0.0625,
            "durationTicks": 48,
            "midi": 54,
            "name": "F#3",
            "ticks": 191136,
            "time": 248.875,
            "velocity": 0.03937007874015748
          },
          {
            "duration": 0.0625,
            "durationTicks": 48,
            "midi": 56,
            "name": "G#3",
            "ticks": 191232,
            "time": 249,
            "velocity": 0.03937007874015748
          },
          {
            "duration": 0.0625,
            "durationTicks": 48,
            "midi": 56,
            "name": "G#3",
            "ticks": 191424,
            "time": 249.25,
            "velocity": 0.03937007874015748
          },
          {
            "duration": 0.0625,
            "durationTicks": 48,
            "midi": 54,
            "name": "F#3",
            "ticks": 191520,
            "time": 249.375,
            "velocity": 0.03937007874015748
          },
          {
            "duration": 0.0625,
            "durationTicks": 48,
            "midi": 56,
            "name": "G#3",
            "ticks": 191616,
            "time": 249.5,
            "velocity": 0.03937007874015748
          },
          {
            "duration": 0.0625,
            "durationTicks": 48,
            "midi": 59,
            "name": "B3",
            "ticks": 191712,
            "time": 249.625,
            "velocity": 0.03937007874015748
          },
          {
            "duration": 0.0625,
            "durationTicks": 48,
            "midi": 61,
            "name": "C#4",
            "ticks": 191904,
            "time": 249.875,
            "velocity": 0.03937007874015748
          },
          {
            "duration": 0.0625,
            "durationTicks": 48,
            "midi": 61,
            "name": "C#4",
            "ticks": 192096,
            "time": 250.125,
            "velocity": 0.03937007874015748
          },
          {
            "duration": 0.0625,
            "durationTicks": 48,
            "midi": 56,
            "name": "G#3",
            "ticks": 192192,
            "time": 250.25,
            "velocity": 0.03937007874015748
          },
          {
            "duration": 0.0625,
            "durationTicks": 48,
            "midi": 54,
            "name": "F#3",
            "ticks": 192288,
            "time": 250.375,
            "velocity": 0.03937007874015748
          },
          {
            "duration": 0.0625,
            "durationTicks": 48,
            "midi": 56,
            "name": "G#3",
            "ticks": 192384,
            "time": 250.5,
            "velocity": 0.03937007874015748
          },
          {
            "duration": 0.0625,
            "durationTicks": 48,
            "midi": 56,
            "name": "G#3",
            "ticks": 192576,
            "time": 250.75,
            "velocity": 0.03937007874015748
          },
          {
            "duration": 0.0625,
            "durationTicks": 48,
            "midi": 54,
            "name": "F#3",
            "ticks": 192672,
            "time": 250.875,
            "velocity": 0.03937007874015748
          },
          {
            "duration": 0.0625,
            "durationTicks": 48,
            "midi": 56,
            "name": "G#3",
            "ticks": 192768,
            "time": 251,
            "velocity": 0.03937007874015748
          },
          {
            "duration": 0.0625,
            "durationTicks": 48,
            "midi": 56,
            "name": "G#3",
            "ticks": 192960,
            "time": 251.25,
            "velocity": 0.03937007874015748
          },
          {
            "duration": 0.0625,
            "durationTicks": 48,
            "midi": 54,
            "name": "F#3",
            "ticks": 193056,
            "time": 251.375,
            "velocity": 0.03937007874015748
          },
          {
            "duration": 0.0625,
            "durationTicks": 48,
            "midi": 56,
            "name": "G#3",
            "ticks": 193152,
            "time": 251.5,
            "velocity": 0.03937007874015748
          },
          {
            "duration": 0.0625,
            "durationTicks": 48,
            "midi": 59,
            "name": "B3",
            "ticks": 193248,
            "time": 251.625,
            "velocity": 0.03937007874015748
          },
          {
            "duration": 0.0625,
            "durationTicks": 48,
            "midi": 61,
            "name": "C#4",
            "ticks": 193440,
            "time": 251.875,
            "velocity": 0.03937007874015748
          },
          {
            "duration": 0.0625,
            "durationTicks": 48,
            "midi": 61,
            "name": "C#4",
            "ticks": 193632,
            "time": 252.125,
            "velocity": 0.03937007874015748
          },
          {
            "duration": 0.0625,
            "durationTicks": 48,
            "midi": 56,
            "name": "G#3",
            "ticks": 193728,
            "time": 252.25,
            "velocity": 0.03937007874015748
          },
          {
            "duration": 0.0625,
            "durationTicks": 48,
            "midi": 54,
            "name": "F#3",
            "ticks": 193824,
            "time": 252.375,
            "velocity": 0.03937007874015748
          },
          {
            "duration": 0.0625,
            "durationTicks": 48,
            "midi": 56,
            "name": "G#3",
            "ticks": 193920,
            "time": 252.5,
            "velocity": 0.03937007874015748
          },
          {
            "duration": 0.0625,
            "durationTicks": 48,
            "midi": 56,
            "name": "G#3",
            "ticks": 194112,
            "time": 252.75,
            "velocity": 0.03937007874015748
          },
          {
            "duration": 0.0625,
            "durationTicks": 48,
            "midi": 54,
            "name": "F#3",
            "ticks": 194208,
            "time": 252.875,
            "velocity": 0.03937007874015748
          },
          {
            "duration": 0.0625,
            "durationTicks": 48,
            "midi": 56,
            "name": "G#3",
            "ticks": 194304,
            "time": 253,
            "velocity": 0.03937007874015748
          },
          {
            "duration": 0.0625,
            "durationTicks": 48,
            "midi": 56,
            "name": "G#3",
            "ticks": 194496,
            "time": 253.25,
            "velocity": 0.03937007874015748
          },
          {
            "duration": 0.0625,
            "durationTicks": 48,
            "midi": 54,
            "name": "F#3",
            "ticks": 194592,
            "time": 253.375,
            "velocity": 0.03937007874015748
          },
          {
            "duration": 0.0625,
            "durationTicks": 48,
            "midi": 56,
            "name": "G#3",
            "ticks": 194688,
            "time": 253.5,
            "velocity": 0.03937007874015748
          },
          {
            "duration": 0.0625,
            "durationTicks": 48,
            "midi": 59,
            "name": "B3",
            "ticks": 194784,
            "time": 253.625,
            "velocity": 0.03937007874015748
          },
          {
            "duration": 0.0625,
            "durationTicks": 48,
            "midi": 61,
            "name": "C#4",
            "ticks": 194976,
            "time": 253.875,
            "velocity": 0.03937007874015748
          },
          {
            "duration": 0.0625,
            "durationTicks": 48,
            "midi": 61,
            "name": "C#4",
            "ticks": 195168,
            "time": 254.125,
            "velocity": 0.03937007874015748
          },
          {
            "duration": 0.0625,
            "durationTicks": 48,
            "midi": 56,
            "name": "G#3",
            "ticks": 195264,
            "time": 254.25,
            "velocity": 0.03937007874015748
          },
          {
            "duration": 0.0625,
            "durationTicks": 48,
            "midi": 54,
            "name": "F#3",
            "ticks": 195360,
            "time": 254.375,
            "velocity": 0.03937007874015748
          },
          {
            "duration": 0.0625,
            "durationTicks": 48,
            "midi": 56,
            "name": "G#3",
            "ticks": 195456,
            "time": 254.5,
            "velocity": 0.03937007874015748
          },
          {
            "duration": 0.0625,
            "durationTicks": 48,
            "midi": 56,
            "name": "G#3",
            "ticks": 195648,
            "time": 254.75,
            "velocity": 0.03937007874015748
          },
          {
            "duration": 0.0625,
            "durationTicks": 48,
            "midi": 54,
            "name": "F#3",
            "ticks": 195744,
            "time": 254.875,
            "velocity": 0.03937007874015748
          },
          {
            "duration": 0.0625,
            "durationTicks": 48,
            "midi": 56,
            "name": "G#3",
            "ticks": 195840,
            "time": 255,
            "velocity": 0.03937007874015748
          },
          {
            "duration": 0.0625,
            "durationTicks": 48,
            "midi": 56,
            "name": "G#3",
            "ticks": 196032,
            "time": 255.25,
            "velocity": 0.03937007874015748
          },
          {
            "duration": 0.0625,
            "durationTicks": 48,
            "midi": 54,
            "name": "F#3",
            "ticks": 196128,
            "time": 255.375,
            "velocity": 0.03937007874015748
          },
          {
            "duration": 0.0625,
            "durationTicks": 48,
            "midi": 56,
            "name": "G#3",
            "ticks": 196224,
            "time": 255.5,
            "velocity": 0.03937007874015748
          },
          {
            "duration": 0.0625,
            "durationTicks": 48,
            "midi": 59,
            "name": "B3",
            "ticks": 196320,
            "time": 255.625,
            "velocity": 0.03937007874015748
          },
          {
            "duration": 0.0625,
            "durationTicks": 48,
            "midi": 61,
            "name": "C#4",
            "ticks": 196512,
            "time": 255.875,
            "velocity": 0.03937007874015748
          },
          {
            "duration": 0.0625,
            "durationTicks": 48,
            "midi": 61,
            "name": "C#4",
            "ticks": 196704,
            "time": 256.125,
            "velocity": 0.03937007874015748
          },
          {
            "duration": 0.0625,
            "durationTicks": 48,
            "midi": 56,
            "name": "G#3",
            "ticks": 196800,
            "time": 256.25,
            "velocity": 0.03937007874015748
          },
          {
            "duration": 0.0625,
            "durationTicks": 48,
            "midi": 54,
            "name": "F#3",
            "ticks": 196896,
            "time": 256.375,
            "velocity": 0.03937007874015748
          },
          {
            "duration": 0.0625,
            "durationTicks": 48,
            "midi": 56,
            "name": "G#3",
            "ticks": 196992,
            "time": 256.5,
            "velocity": 0.03937007874015748
          },
          {
            "duration": 0.0625,
            "durationTicks": 48,
            "midi": 56,
            "name": "G#3",
            "ticks": 197184,
            "time": 256.75,
            "velocity": 0.03937007874015748
          },
          {
            "duration": 0.0625,
            "durationTicks": 48,
            "midi": 54,
            "name": "F#3",
            "ticks": 197280,
            "time": 256.875,
            "velocity": 0.03937007874015748
          },
          {
            "duration": 0.0625,
            "durationTicks": 48,
            "midi": 56,
            "name": "G#3",
            "ticks": 197376,
            "time": 257,
            "velocity": 0.03937007874015748
          },
          {
            "duration": 0.0625,
            "durationTicks": 48,
            "midi": 56,
            "name": "G#3",
            "ticks": 197568,
            "time": 257.25,
            "velocity": 0.03937007874015748
          },
          {
            "duration": 0.0625,
            "durationTicks": 48,
            "midi": 54,
            "name": "F#3",
            "ticks": 197664,
            "time": 257.375,
            "velocity": 0.03937007874015748
          },
          {
            "duration": 0.0625,
            "durationTicks": 48,
            "midi": 56,
            "name": "G#3",
            "ticks": 197760,
            "time": 257.5,
            "velocity": 0.03937007874015748
          },
          {
            "duration": 0.0625,
            "durationTicks": 48,
            "midi": 59,
            "name": "B3",
            "ticks": 197856,
            "time": 257.625,
            "velocity": 0.03937007874015748
          },
          {
            "duration": 0.0625,
            "durationTicks": 48,
            "midi": 61,
            "name": "C#4",
            "ticks": 198048,
            "time": 257.875,
            "velocity": 0.03937007874015748
          },
          {
            "duration": 0.0625,
            "durationTicks": 48,
            "midi": 61,
            "name": "C#4",
            "ticks": 198240,
            "time": 258.125,
            "velocity": 0.03937007874015748
          },
          {
            "duration": 0.0625,
            "durationTicks": 48,
            "midi": 56,
            "name": "G#3",
            "ticks": 198336,
            "time": 258.25,
            "velocity": 0.03937007874015748
          },
          {
            "duration": 0.0625,
            "durationTicks": 48,
            "midi": 54,
            "name": "F#3",
            "ticks": 198432,
            "time": 258.375,
            "velocity": 0.03937007874015748
          },
          {
            "duration": 0.0625,
            "durationTicks": 48,
            "midi": 56,
            "name": "G#3",
            "ticks": 198528,
            "time": 258.5,
            "velocity": 0.03937007874015748
          },
          {
            "duration": 0.0625,
            "durationTicks": 48,
            "midi": 56,
            "name": "G#3",
            "ticks": 198720,
            "time": 258.75,
            "velocity": 0.03937007874015748
          },
          {
            "duration": 0.0625,
            "durationTicks": 48,
            "midi": 54,
            "name": "F#3",
            "ticks": 198816,
            "time": 258.875,
            "velocity": 0.03937007874015748
          },
          {
            "duration": 0.0625,
            "durationTicks": 48,
            "midi": 56,
            "name": "G#3",
            "ticks": 198912,
            "time": 259,
            "velocity": 0.03937007874015748
          },
          {
            "duration": 0.0625,
            "durationTicks": 48,
            "midi": 56,
            "name": "G#3",
            "ticks": 199104,
            "time": 259.25,
            "velocity": 0.03937007874015748
          },
          {
            "duration": 0.0625,
            "durationTicks": 48,
            "midi": 54,
            "name": "F#3",
            "ticks": 199200,
            "time": 259.375,
            "velocity": 0.03937007874015748
          },
          {
            "duration": 0.0625,
            "durationTicks": 48,
            "midi": 56,
            "name": "G#3",
            "ticks": 199296,
            "time": 259.5,
            "velocity": 0.03937007874015748
          },
          {
            "duration": 0.0625,
            "durationTicks": 48,
            "midi": 59,
            "name": "B3",
            "ticks": 199392,
            "time": 259.625,
            "velocity": 0.03937007874015748
          },
          {
            "duration": 0.0625,
            "durationTicks": 48,
            "midi": 61,
            "name": "C#4",
            "ticks": 199584,
            "time": 259.875,
            "velocity": 0.03937007874015748
          },
          {
            "duration": 0.0625,
            "durationTicks": 48,
            "midi": 61,
            "name": "C#4",
            "ticks": 199776,
            "time": 260.125,
            "velocity": 0.03937007874015748
          },
          {
            "duration": 0.0625,
            "durationTicks": 48,
            "midi": 56,
            "name": "G#3",
            "ticks": 199872,
            "time": 260.25,
            "velocity": 0.03937007874015748
          },
          {
            "duration": 0.0625,
            "durationTicks": 48,
            "midi": 54,
            "name": "F#3",
            "ticks": 199968,
            "time": 260.375,
            "velocity": 0.03937007874015748
          },
          {
            "duration": 0.0625,
            "durationTicks": 48,
            "midi": 56,
            "name": "G#3",
            "ticks": 200064,
            "time": 260.5,
            "velocity": 0.03937007874015748
          },
          {
            "duration": 0.0625,
            "durationTicks": 48,
            "midi": 56,
            "name": "G#3",
            "ticks": 200256,
            "time": 260.75,
            "velocity": 0.03937007874015748
          },
          {
            "duration": 0.0625,
            "durationTicks": 48,
            "midi": 54,
            "name": "F#3",
            "ticks": 200352,
            "time": 260.875,
            "velocity": 0.03937007874015748
          },
          {
            "duration": 0.0625,
            "durationTicks": 48,
            "midi": 56,
            "name": "G#3",
            "ticks": 200448,
            "time": 261,
            "velocity": 0.03937007874015748
          },
          {
            "duration": 0.0625,
            "durationTicks": 48,
            "midi": 56,
            "name": "G#3",
            "ticks": 200640,
            "time": 261.25,
            "velocity": 0.03937007874015748
          },
          {
            "duration": 0.0625,
            "durationTicks": 48,
            "midi": 54,
            "name": "F#3",
            "ticks": 200736,
            "time": 261.375,
            "velocity": 0.03937007874015748
          },
          {
            "duration": 0.0625,
            "durationTicks": 48,
            "midi": 56,
            "name": "G#3",
            "ticks": 200832,
            "time": 261.5,
            "velocity": 0.03937007874015748
          },
          {
            "duration": 0.0625,
            "durationTicks": 48,
            "midi": 59,
            "name": "B3",
            "ticks": 200928,
            "time": 261.625,
            "velocity": 0.03937007874015748
          },
          {
            "duration": 0.0625,
            "durationTicks": 48,
            "midi": 61,
            "name": "C#4",
            "ticks": 201120,
            "time": 261.875,
            "velocity": 0.03937007874015748
          },
          {
            "duration": 0.0625,
            "durationTicks": 48,
            "midi": 61,
            "name": "C#4",
            "ticks": 201312,
            "time": 262.125,
            "velocity": 0.03937007874015748
          },
          {
            "duration": 0.0625,
            "durationTicks": 48,
            "midi": 56,
            "name": "G#3",
            "ticks": 201408,
            "time": 262.25,
            "velocity": 0.03937007874015748
          },
          {
            "duration": 0.0625,
            "durationTicks": 48,
            "midi": 54,
            "name": "F#3",
            "ticks": 201504,
            "time": 262.375,
            "velocity": 0.03937007874015748
          },
          {
            "duration": 0.0625,
            "durationTicks": 48,
            "midi": 56,
            "name": "G#3",
            "ticks": 201600,
            "time": 262.5,
            "velocity": 0.03937007874015748
          },
          {
            "duration": 0.0625,
            "durationTicks": 48,
            "midi": 56,
            "name": "G#3",
            "ticks": 201792,
            "time": 262.75,
            "velocity": 0.03937007874015748
          },
          {
            "duration": 0.0625,
            "durationTicks": 48,
            "midi": 54,
            "name": "F#3",
            "ticks": 201888,
            "time": 262.875,
            "velocity": 0.03937007874015748
          },
          {
            "duration": 0.0625,
            "durationTicks": 48,
            "midi": 56,
            "name": "G#3",
            "ticks": 201984,
            "time": 263,
            "velocity": 0.03937007874015748
          },
          {
            "duration": 0.0625,
            "durationTicks": 48,
            "midi": 56,
            "name": "G#3",
            "ticks": 202176,
            "time": 263.25,
            "velocity": 0.03937007874015748
          },
          {
            "duration": 0.0625,
            "durationTicks": 48,
            "midi": 54,
            "name": "F#3",
            "ticks": 202272,
            "time": 263.375,
            "velocity": 0.03937007874015748
          },
          {
            "duration": 0.0625,
            "durationTicks": 48,
            "midi": 56,
            "name": "G#3",
            "ticks": 202368,
            "time": 263.5,
            "velocity": 0.03937007874015748
          },
          {
            "duration": 0.0625,
            "durationTicks": 48,
            "midi": 59,
            "name": "B3",
            "ticks": 202464,
            "time": 263.625,
            "velocity": 0.03937007874015748
          },
          {
            "duration": 0.0625,
            "durationTicks": 48,
            "midi": 61,
            "name": "C#4",
            "ticks": 202656,
            "time": 263.875,
            "velocity": 0.03937007874015748
          },
          {
            "duration": 0.0625,
            "durationTicks": 48,
            "midi": 61,
            "name": "C#4",
            "ticks": 202848,
            "time": 264.125,
            "velocity": 0.03937007874015748
          },
          {
            "duration": 0.0625,
            "durationTicks": 48,
            "midi": 56,
            "name": "G#3",
            "ticks": 202944,
            "time": 264.25,
            "velocity": 0.03937007874015748
          },
          {
            "duration": 0.0625,
            "durationTicks": 48,
            "midi": 54,
            "name": "F#3",
            "ticks": 203040,
            "time": 264.375,
            "velocity": 0.03937007874015748
          },
          {
            "duration": 0.0625,
            "durationTicks": 48,
            "midi": 56,
            "name": "G#3",
            "ticks": 203136,
            "time": 264.5,
            "velocity": 0.03937007874015748
          },
          {
            "duration": 0.0625,
            "durationTicks": 48,
            "midi": 56,
            "name": "G#3",
            "ticks": 203328,
            "time": 264.75,
            "velocity": 0.03937007874015748
          },
          {
            "duration": 0.0625,
            "durationTicks": 48,
            "midi": 54,
            "name": "F#3",
            "ticks": 203424,
            "time": 264.875,
            "velocity": 0.03937007874015748
          },
          {
            "duration": 0.0625,
            "durationTicks": 48,
            "midi": 56,
            "name": "G#3",
            "ticks": 203520,
            "time": 265,
            "velocity": 0.03937007874015748
          },
          {
            "duration": 0.0625,
            "durationTicks": 48,
            "midi": 56,
            "name": "G#3",
            "ticks": 203712,
            "time": 265.25,
            "velocity": 0.03937007874015748
          },
          {
            "duration": 0.0625,
            "durationTicks": 48,
            "midi": 54,
            "name": "F#3",
            "ticks": 203808,
            "time": 265.375,
            "velocity": 0.03937007874015748
          },
          {
            "duration": 0.0625,
            "durationTicks": 48,
            "midi": 56,
            "name": "G#3",
            "ticks": 203904,
            "time": 265.5,
            "velocity": 0.03937007874015748
          },
          {
            "duration": 0.0625,
            "durationTicks": 48,
            "midi": 59,
            "name": "B3",
            "ticks": 204000,
            "time": 265.625,
            "velocity": 0.03937007874015748
          },
          {
            "duration": 0.0625,
            "durationTicks": 48,
            "midi": 61,
            "name": "C#4",
            "ticks": 204192,
            "time": 265.875,
            "velocity": 0.03937007874015748
          },
          {
            "duration": 0.0625,
            "durationTicks": 48,
            "midi": 61,
            "name": "C#4",
            "ticks": 204384,
            "time": 266.125,
            "velocity": 0.03937007874015748
          },
          {
            "duration": 0.0625,
            "durationTicks": 48,
            "midi": 56,
            "name": "G#3",
            "ticks": 204480,
            "time": 266.25,
            "velocity": 0.03937007874015748
          },
          {
            "duration": 0.0625,
            "durationTicks": 48,
            "midi": 54,
            "name": "F#3",
            "ticks": 204576,
            "time": 266.375,
            "velocity": 0.03937007874015748
          },
          {
            "duration": 0.0625,
            "durationTicks": 48,
            "midi": 56,
            "name": "G#3",
            "ticks": 204672,
            "time": 266.5,
            "velocity": 0.03937007874015748
          },
          {
            "duration": 0.0625,
            "durationTicks": 48,
            "midi": 56,
            "name": "G#3",
            "ticks": 204864,
            "time": 266.75,
            "velocity": 0.03937007874015748
          },
          {
            "duration": 0.0625,
            "durationTicks": 48,
            "midi": 54,
            "name": "F#3",
            "ticks": 204960,
            "time": 266.875,
            "velocity": 0.03937007874015748
          },
          {
            "duration": 0.0625,
            "durationTicks": 48,
            "midi": 56,
            "name": "G#3",
            "ticks": 205056,
            "time": 267,
            "velocity": 0.03937007874015748
          },
          {
            "duration": 0.0625,
            "durationTicks": 48,
            "midi": 56,
            "name": "G#3",
            "ticks": 205248,
            "time": 267.25,
            "velocity": 0.03937007874015748
          },
          {
            "duration": 0.0625,
            "durationTicks": 48,
            "midi": 54,
            "name": "F#3",
            "ticks": 205344,
            "time": 267.375,
            "velocity": 0.03937007874015748
          },
          {
            "duration": 0.0625,
            "durationTicks": 48,
            "midi": 56,
            "name": "G#3",
            "ticks": 205440,
            "time": 267.5,
            "velocity": 0.03937007874015748
          },
          {
            "duration": 0.0625,
            "durationTicks": 48,
            "midi": 59,
            "name": "B3",
            "ticks": 205536,
            "time": 267.625,
            "velocity": 0.03937007874015748
          },
          {
            "duration": 0.0625,
            "durationTicks": 48,
            "midi": 61,
            "name": "C#4",
            "ticks": 205728,
            "time": 267.875,
            "velocity": 0.03937007874015748
          },
          {
            "duration": 0.0625,
            "durationTicks": 48,
            "midi": 61,
            "name": "C#4",
            "ticks": 205920,
            "time": 268.125,
            "velocity": 0.03937007874015748
          },
          {
            "duration": 0.0625,
            "durationTicks": 48,
            "midi": 56,
            "name": "G#3",
            "ticks": 206016,
            "time": 268.25,
            "velocity": 0.03937007874015748
          },
          {
            "duration": 0.0625,
            "durationTicks": 48,
            "midi": 54,
            "name": "F#3",
            "ticks": 206112,
            "time": 268.375,
            "velocity": 0.03937007874015748
          },
          {
            "duration": 0.0625,
            "durationTicks": 48,
            "midi": 56,
            "name": "G#3",
            "ticks": 206208,
            "time": 268.5,
            "velocity": 0.03937007874015748
          },
          {
            "duration": 0.0625,
            "durationTicks": 48,
            "midi": 56,
            "name": "G#3",
            "ticks": 206400,
            "time": 268.75,
            "velocity": 0.03937007874015748
          },
          {
            "duration": 0.0625,
            "durationTicks": 48,
            "midi": 54,
            "name": "F#3",
            "ticks": 206496,
            "time": 268.875,
            "velocity": 0.03937007874015748
          },
          {
            "duration": 0.0625,
            "durationTicks": 48,
            "midi": 56,
            "name": "G#3",
            "ticks": 206592,
            "time": 269,
            "velocity": 0.03937007874015748
          },
          {
            "duration": 0.0625,
            "durationTicks": 48,
            "midi": 56,
            "name": "G#3",
            "ticks": 206784,
            "time": 269.25,
            "velocity": 0.03937007874015748
          },
          {
            "duration": 0.0625,
            "durationTicks": 48,
            "midi": 54,
            "name": "F#3",
            "ticks": 206880,
            "time": 269.375,
            "velocity": 0.03937007874015748
          },
          {
            "duration": 0.0625,
            "durationTicks": 48,
            "midi": 56,
            "name": "G#3",
            "ticks": 206976,
            "time": 269.5,
            "velocity": 0.03937007874015748
          },
          {
            "duration": 0.0625,
            "durationTicks": 48,
            "midi": 59,
            "name": "B3",
            "ticks": 207072,
            "time": 269.625,
            "velocity": 0.03937007874015748
          },
          {
            "duration": 0.0625,
            "durationTicks": 48,
            "midi": 61,
            "name": "C#4",
            "ticks": 207264,
            "time": 269.875,
            "velocity": 0.03937007874015748
          },
          {
            "duration": 0.0625,
            "durationTicks": 48,
            "midi": 61,
            "name": "C#4",
            "ticks": 207456,
            "time": 270.125,
            "velocity": 0.03937007874015748
          },
          {
            "duration": 0.0625,
            "durationTicks": 48,
            "midi": 56,
            "name": "G#3",
            "ticks": 207552,
            "time": 270.25,
            "velocity": 0.03937007874015748
          },
          {
            "duration": 0.0625,
            "durationTicks": 48,
            "midi": 54,
            "name": "F#3",
            "ticks": 207648,
            "time": 270.375,
            "velocity": 0.03937007874015748
          },
          {
            "duration": 0.0625,
            "durationTicks": 48,
            "midi": 56,
            "name": "G#3",
            "ticks": 207744,
            "time": 270.5,
            "velocity": 0.03937007874015748
          },
          {
            "duration": 0.0625,
            "durationTicks": 48,
            "midi": 56,
            "name": "G#3",
            "ticks": 207936,
            "time": 270.75,
            "velocity": 0.03937007874015748
          },
          {
            "duration": 0.0625,
            "durationTicks": 48,
            "midi": 54,
            "name": "F#3",
            "ticks": 208032,
            "time": 270.875,
            "velocity": 0.03937007874015748
          },
          {
            "duration": 0.0625,
            "durationTicks": 48,
            "midi": 56,
            "name": "G#3",
            "ticks": 208128,
            "time": 271,
            "velocity": 0.03937007874015748
          },
          {
            "duration": 0.0625,
            "durationTicks": 48,
            "midi": 56,
            "name": "G#3",
            "ticks": 208320,
            "time": 271.25,
            "velocity": 0.03937007874015748
          },
          {
            "duration": 0.0625,
            "durationTicks": 48,
            "midi": 54,
            "name": "F#3",
            "ticks": 208416,
            "time": 271.375,
            "velocity": 0.03937007874015748
          },
          {
            "duration": 0.0625,
            "durationTicks": 48,
            "midi": 56,
            "name": "G#3",
            "ticks": 208512,
            "time": 271.5,
            "velocity": 0.03937007874015748
          },
          {
            "duration": 0.0625,
            "durationTicks": 48,
            "midi": 59,
            "name": "B3",
            "ticks": 208608,
            "time": 271.625,
            "velocity": 0.03937007874015748
          },
          {
            "duration": 0.0625,
            "durationTicks": 48,
            "midi": 61,
            "name": "C#4",
            "ticks": 208800,
            "time": 271.875,
            "velocity": 0.03937007874015748
          },
          {
            "duration": 0.0625,
            "durationTicks": 48,
            "midi": 61,
            "name": "C#4",
            "ticks": 208992,
            "time": 272.125,
            "velocity": 0.03937007874015748
          },
          {
            "duration": 0.0625,
            "durationTicks": 48,
            "midi": 56,
            "name": "G#3",
            "ticks": 209088,
            "time": 272.25,
            "velocity": 0.03937007874015748
          },
          {
            "duration": 0.0625,
            "durationTicks": 48,
            "midi": 54,
            "name": "F#3",
            "ticks": 209184,
            "time": 272.375,
            "velocity": 0.03937007874015748
          },
          {
            "duration": 0.0625,
            "durationTicks": 48,
            "midi": 56,
            "name": "G#3",
            "ticks": 209280,
            "time": 272.5,
            "velocity": 0.03937007874015748
          },
          {
            "duration": 0.0625,
            "durationTicks": 48,
            "midi": 56,
            "name": "G#3",
            "ticks": 209472,
            "time": 272.75,
            "velocity": 0.03937007874015748
          },
          {
            "duration": 0.0625,
            "durationTicks": 48,
            "midi": 54,
            "name": "F#3",
            "ticks": 209568,
            "time": 272.875,
            "velocity": 0.03937007874015748
          },
          {
            "duration": 0.0625,
            "durationTicks": 48,
            "midi": 56,
            "name": "G#3",
            "ticks": 209664,
            "time": 273,
            "velocity": 0.03937007874015748
          },
          {
            "duration": 0.0625,
            "durationTicks": 48,
            "midi": 56,
            "name": "G#3",
            "ticks": 209856,
            "time": 273.25,
            "velocity": 0.03937007874015748
          },
          {
            "duration": 0.0625,
            "durationTicks": 48,
            "midi": 54,
            "name": "F#3",
            "ticks": 209952,
            "time": 273.375,
            "velocity": 0.03937007874015748
          },
          {
            "duration": 0.0625,
            "durationTicks": 48,
            "midi": 56,
            "name": "G#3",
            "ticks": 210048,
            "time": 273.5,
            "velocity": 0.03937007874015748
          },
          {
            "duration": 0.0625,
            "durationTicks": 48,
            "midi": 59,
            "name": "B3",
            "ticks": 210144,
            "time": 273.625,
            "velocity": 0.03937007874015748
          },
          {
            "duration": 0.0625,
            "durationTicks": 48,
            "midi": 61,
            "name": "C#4",
            "ticks": 210336,
            "time": 273.875,
            "velocity": 0.03937007874015748
          },
          {
            "duration": 0.0625,
            "durationTicks": 48,
            "midi": 61,
            "name": "C#4",
            "ticks": 210528,
            "time": 274.125,
            "velocity": 0.03937007874015748
          },
          {
            "duration": 0.0625,
            "durationTicks": 48,
            "midi": 56,
            "name": "G#3",
            "ticks": 210624,
            "time": 274.25,
            "velocity": 0.03937007874015748
          },
          {
            "duration": 0.0625,
            "durationTicks": 48,
            "midi": 54,
            "name": "F#3",
            "ticks": 210720,
            "time": 274.375,
            "velocity": 0.03937007874015748
          },
          {
            "duration": 0.0625,
            "durationTicks": 48,
            "midi": 56,
            "name": "G#3",
            "ticks": 210816,
            "time": 274.5,
            "velocity": 0.03937007874015748
          },
          {
            "duration": 0.0625,
            "durationTicks": 48,
            "midi": 56,
            "name": "G#3",
            "ticks": 211008,
            "time": 274.75,
            "velocity": 0.03937007874015748
          },
          {
            "duration": 0.0625,
            "durationTicks": 48,
            "midi": 54,
            "name": "F#3",
            "ticks": 211104,
            "time": 274.875,
            "velocity": 0.03937007874015748
          },
          {
            "duration": 0.0625,
            "durationTicks": 48,
            "midi": 56,
            "name": "G#3",
            "ticks": 211200,
            "time": 275,
            "velocity": 0.03937007874015748
          },
          {
            "duration": 0.0625,
            "durationTicks": 48,
            "midi": 56,
            "name": "G#3",
            "ticks": 211392,
            "time": 275.25,
            "velocity": 0.03937007874015748
          },
          {
            "duration": 0.0625,
            "durationTicks": 48,
            "midi": 54,
            "name": "F#3",
            "ticks": 211488,
            "time": 275.375,
            "velocity": 0.03937007874015748
          },
          {
            "duration": 0.0625,
            "durationTicks": 48,
            "midi": 56,
            "name": "G#3",
            "ticks": 211584,
            "time": 275.5,
            "velocity": 0.03937007874015748
          },
          {
            "duration": 0.0625,
            "durationTicks": 48,
            "midi": 59,
            "name": "B3",
            "ticks": 211680,
            "time": 275.625,
            "velocity": 0.03937007874015748
          },
          {
            "duration": 0.0625,
            "durationTicks": 48,
            "midi": 61,
            "name": "C#4",
            "ticks": 211872,
            "time": 275.875,
            "velocity": 0.03937007874015748
          },
          {
            "duration": 0.0625,
            "durationTicks": 48,
            "midi": 61,
            "name": "C#4",
            "ticks": 212064,
            "time": 276.125,
            "velocity": 0.03937007874015748
          },
          {
            "duration": 0.0625,
            "durationTicks": 48,
            "midi": 56,
            "name": "G#3",
            "ticks": 212160,
            "time": 276.25,
            "velocity": 0.03937007874015748
          },
          {
            "duration": 0.0625,
            "durationTicks": 48,
            "midi": 54,
            "name": "F#3",
            "ticks": 212256,
            "time": 276.375,
            "velocity": 0.03937007874015748
          },
          {
            "duration": 0.0625,
            "durationTicks": 48,
            "midi": 56,
            "name": "G#3",
            "ticks": 212352,
            "time": 276.5,
            "velocity": 0.03937007874015748
          },
          {
            "duration": 0.0625,
            "durationTicks": 48,
            "midi": 56,
            "name": "G#3",
            "ticks": 212544,
            "time": 276.75,
            "velocity": 0.03937007874015748
          },
          {
            "duration": 0.0625,
            "durationTicks": 48,
            "midi": 54,
            "name": "F#3",
            "ticks": 212640,
            "time": 276.875,
            "velocity": 0.03937007874015748
          },
          {
            "duration": 0.0625,
            "durationTicks": 48,
            "midi": 56,
            "name": "G#3",
            "ticks": 212736,
            "time": 277,
            "velocity": 0.03937007874015748
          },
          {
            "duration": 0.0625,
            "durationTicks": 48,
            "midi": 56,
            "name": "G#3",
            "ticks": 212928,
            "time": 277.25,
            "velocity": 0.03937007874015748
          },
          {
            "duration": 0.0625,
            "durationTicks": 48,
            "midi": 54,
            "name": "F#3",
            "ticks": 213024,
            "time": 277.375,
            "velocity": 0.03937007874015748
          },
          {
            "duration": 0.0625,
            "durationTicks": 48,
            "midi": 56,
            "name": "G#3",
            "ticks": 213120,
            "time": 277.5,
            "velocity": 0.03937007874015748
          },
          {
            "duration": 0.0625,
            "durationTicks": 48,
            "midi": 59,
            "name": "B3",
            "ticks": 213216,
            "time": 277.625,
            "velocity": 0.03937007874015748
          },
          {
            "duration": 0.0625,
            "durationTicks": 48,
            "midi": 61,
            "name": "C#4",
            "ticks": 213408,
            "time": 277.875,
            "velocity": 0.03937007874015748
          },
          {
            "duration": 0.0625,
            "durationTicks": 48,
            "midi": 61,
            "name": "C#4",
            "ticks": 213600,
            "time": 278.125,
            "velocity": 0.03937007874015748
          },
          {
            "duration": 0.0625,
            "durationTicks": 48,
            "midi": 56,
            "name": "G#3",
            "ticks": 213696,
            "time": 278.25,
            "velocity": 0.03937007874015748
          },
          {
            "duration": 0.0625,
            "durationTicks": 48,
            "midi": 54,
            "name": "F#3",
            "ticks": 213792,
            "time": 278.375,
            "velocity": 0.03937007874015748
          },
          {
            "duration": 0.0625,
            "durationTicks": 48,
            "midi": 56,
            "name": "G#3",
            "ticks": 213888,
            "time": 278.5,
            "velocity": 0.03937007874015748
          },
          {
            "duration": 0.0625,
            "durationTicks": 48,
            "midi": 56,
            "name": "G#3",
            "ticks": 214080,
            "time": 278.75,
            "velocity": 0.03937007874015748
          },
          {
            "duration": 0.0625,
            "durationTicks": 48,
            "midi": 54,
            "name": "F#3",
            "ticks": 214176,
            "time": 278.875,
            "velocity": 0.03937007874015748
          },
          {
            "duration": 0.0625,
            "durationTicks": 48,
            "midi": 56,
            "name": "G#3",
            "ticks": 214272,
            "time": 279,
            "velocity": 0.03937007874015748
          },
          {
            "duration": 0.0625,
            "durationTicks": 48,
            "midi": 56,
            "name": "G#3",
            "ticks": 214464,
            "time": 279.25,
            "velocity": 0.03937007874015748
          },
          {
            "duration": 0.0625,
            "durationTicks": 48,
            "midi": 54,
            "name": "F#3",
            "ticks": 214560,
            "time": 279.375,
            "velocity": 0.03937007874015748
          },
          {
            "duration": 0.0625,
            "durationTicks": 48,
            "midi": 56,
            "name": "G#3",
            "ticks": 214656,
            "time": 279.5,
            "velocity": 0.03937007874015748
          },
          {
            "duration": 0.0625,
            "durationTicks": 48,
            "midi": 59,
            "name": "B3",
            "ticks": 214752,
            "time": 279.625,
            "velocity": 0.03937007874015748
          },
          {
            "duration": 0.0625,
            "durationTicks": 48,
            "midi": 61,
            "name": "C#4",
            "ticks": 214944,
            "time": 279.875,
            "velocity": 0.03937007874015748
          },
          {
            "duration": 0.0625,
            "durationTicks": 48,
            "midi": 61,
            "name": "C#4",
            "ticks": 215136,
            "time": 280.125,
            "velocity": 0.03937007874015748
          },
          {
            "duration": 0.0625,
            "durationTicks": 48,
            "midi": 56,
            "name": "G#3",
            "ticks": 215232,
            "time": 280.25,
            "velocity": 0.03937007874015748
          },
          {
            "duration": 0.0625,
            "durationTicks": 48,
            "midi": 54,
            "name": "F#3",
            "ticks": 215328,
            "time": 280.375,
            "velocity": 0.03937007874015748
          },
          {
            "duration": 0.0625,
            "durationTicks": 48,
            "midi": 56,
            "name": "G#3",
            "ticks": 215424,
            "time": 280.5,
            "velocity": 0.03937007874015748
          },
          {
            "duration": 0.0625,
            "durationTicks": 48,
            "midi": 56,
            "name": "G#3",
            "ticks": 215616,
            "time": 280.75,
            "velocity": 0.03937007874015748
          },
          {
            "duration": 0.0625,
            "durationTicks": 48,
            "midi": 54,
            "name": "F#3",
            "ticks": 215712,
            "time": 280.875,
            "velocity": 0.03937007874015748
          },
          {
            "duration": 0.0625,
            "durationTicks": 48,
            "midi": 56,
            "name": "G#3",
            "ticks": 215808,
            "time": 281,
            "velocity": 0.03937007874015748
          },
          {
            "duration": 0.0625,
            "durationTicks": 48,
            "midi": 56,
            "name": "G#3",
            "ticks": 216000,
            "time": 281.25,
            "velocity": 0.03937007874015748
          },
          {
            "duration": 0.0625,
            "durationTicks": 48,
            "midi": 54,
            "name": "F#3",
            "ticks": 216096,
            "time": 281.375,
            "velocity": 0.03937007874015748
          },
          {
            "duration": 0.0625,
            "durationTicks": 48,
            "midi": 56,
            "name": "G#3",
            "ticks": 216192,
            "time": 281.5,
            "velocity": 0.03937007874015748
          },
          {
            "duration": 0.0625,
            "durationTicks": 48,
            "midi": 59,
            "name": "B3",
            "ticks": 216288,
            "time": 281.625,
            "velocity": 0.03937007874015748
          },
          {
            "duration": 0.0625,
            "durationTicks": 48,
            "midi": 61,
            "name": "C#4",
            "ticks": 216480,
            "time": 281.875,
            "velocity": 0.03937007874015748
          },
          {
            "duration": 0.0625,
            "durationTicks": 48,
            "midi": 61,
            "name": "C#4",
            "ticks": 216672,
            "time": 282.125,
            "velocity": 0.03937007874015748
          },
          {
            "duration": 0.0625,
            "durationTicks": 48,
            "midi": 56,
            "name": "G#3",
            "ticks": 216768,
            "time": 282.25,
            "velocity": 0.03937007874015748
          },
          {
            "duration": 0.0625,
            "durationTicks": 48,
            "midi": 54,
            "name": "F#3",
            "ticks": 216864,
            "time": 282.375,
            "velocity": 0.03937007874015748
          },
          {
            "duration": 0.0625,
            "durationTicks": 48,
            "midi": 56,
            "name": "G#3",
            "ticks": 216960,
            "time": 282.5,
            "velocity": 0.03937007874015748
          },
          {
            "duration": 0.0625,
            "durationTicks": 48,
            "midi": 56,
            "name": "G#3",
            "ticks": 217152,
            "time": 282.75,
            "velocity": 0.03937007874015748
          },
          {
            "duration": 0.0625,
            "durationTicks": 48,
            "midi": 54,
            "name": "F#3",
            "ticks": 217248,
            "time": 282.875,
            "velocity": 0.03937007874015748
          },
          {
            "duration": 0.0625,
            "durationTicks": 48,
            "midi": 56,
            "name": "G#3",
            "ticks": 217344,
            "time": 283,
            "velocity": 0.03937007874015748
          },
          {
            "duration": 0.0625,
            "durationTicks": 48,
            "midi": 56,
            "name": "G#3",
            "ticks": 217536,
            "time": 283.25,
            "velocity": 0.03937007874015748
          },
          {
            "duration": 0.0625,
            "durationTicks": 48,
            "midi": 54,
            "name": "F#3",
            "ticks": 217632,
            "time": 283.375,
            "velocity": 0.03937007874015748
          },
          {
            "duration": 0.0625,
            "durationTicks": 48,
            "midi": 56,
            "name": "G#3",
            "ticks": 217728,
            "time": 283.5,
            "velocity": 0.03937007874015748
          },
          {
            "duration": 0.0625,
            "durationTicks": 48,
            "midi": 59,
            "name": "B3",
            "ticks": 217824,
            "time": 283.625,
            "velocity": 0.03937007874015748
          },
          {
            "duration": 0.0625,
            "durationTicks": 48,
            "midi": 61,
            "name": "C#4",
            "ticks": 218016,
            "time": 283.875,
            "velocity": 0.03937007874015748
          },
          {
            "duration": 0.0625,
            "durationTicks": 48,
            "midi": 61,
            "name": "C#4",
            "ticks": 218208,
            "time": 284.125,
            "velocity": 0.03937007874015748
          },
          {
            "duration": 0.0625,
            "durationTicks": 48,
            "midi": 56,
            "name": "G#3",
            "ticks": 218304,
            "time": 284.25,
            "velocity": 0.03937007874015748
          },
          {
            "duration": 0.0625,
            "durationTicks": 48,
            "midi": 54,
            "name": "F#3",
            "ticks": 218400,
            "time": 284.375,
            "velocity": 0.03937007874015748
          },
          {
            "duration": 0.0625,
            "durationTicks": 48,
            "midi": 56,
            "name": "G#3",
            "ticks": 218496,
            "time": 284.5,
            "velocity": 0.03937007874015748
          },
          {
            "duration": 0.0625,
            "durationTicks": 48,
            "midi": 56,
            "name": "G#3",
            "ticks": 218688,
            "time": 284.75,
            "velocity": 0.03937007874015748
          },
          {
            "duration": 0.0625,
            "durationTicks": 48,
            "midi": 54,
            "name": "F#3",
            "ticks": 218784,
            "time": 284.875,
            "velocity": 0.03937007874015748
          },
          {
            "duration": 0.0625,
            "durationTicks": 48,
            "midi": 56,
            "name": "G#3",
            "ticks": 218880,
            "time": 285,
            "velocity": 0.03937007874015748
          },
          {
            "duration": 0.0625,
            "durationTicks": 48,
            "midi": 56,
            "name": "G#3",
            "ticks": 219072,
            "time": 285.25,
            "velocity": 0.03937007874015748
          },
          {
            "duration": 0.0625,
            "durationTicks": 48,
            "midi": 54,
            "name": "F#3",
            "ticks": 219168,
            "time": 285.375,
            "velocity": 0.03937007874015748
          },
          {
            "duration": 0.0625,
            "durationTicks": 48,
            "midi": 56,
            "name": "G#3",
            "ticks": 219264,
            "time": 285.5,
            "velocity": 0.03937007874015748
          },
          {
            "duration": 0.0625,
            "durationTicks": 48,
            "midi": 59,
            "name": "B3",
            "ticks": 219360,
            "time": 285.625,
            "velocity": 0.03937007874015748
          },
          {
            "duration": 0.0625,
            "durationTicks": 48,
            "midi": 61,
            "name": "C#4",
            "ticks": 219552,
            "time": 285.875,
            "velocity": 0.03937007874015748
          },
          {
            "duration": 0.0625,
            "durationTicks": 48,
            "midi": 61,
            "name": "C#4",
            "ticks": 219744,
            "time": 286.125,
            "velocity": 0.03937007874015748
          },
          {
            "duration": 0.0625,
            "durationTicks": 48,
            "midi": 56,
            "name": "G#3",
            "ticks": 219840,
            "time": 286.25,
            "velocity": 0.03937007874015748
          },
          {
            "duration": 0.0625,
            "durationTicks": 48,
            "midi": 54,
            "name": "F#3",
            "ticks": 219936,
            "time": 286.375,
            "velocity": 0.03937007874015748
          },
          {
            "duration": 0.0625,
            "durationTicks": 48,
            "midi": 56,
            "name": "G#3",
            "ticks": 220032,
            "time": 286.5,
            "velocity": 0.03937007874015748
          },
          {
            "duration": 0.0625,
            "durationTicks": 48,
            "midi": 56,
            "name": "G#3",
            "ticks": 220224,
            "time": 286.75,
            "velocity": 0.03937007874015748
          },
          {
            "duration": 0.0625,
            "durationTicks": 48,
            "midi": 54,
            "name": "F#3",
            "ticks": 220320,
            "time": 286.875,
            "velocity": 0.03937007874015748
          },
          {
            "duration": 0.0625,
            "durationTicks": 48,
            "midi": 56,
            "name": "G#3",
            "ticks": 220416,
            "time": 287,
            "velocity": 0.03937007874015748
          },
          {
            "duration": 0.0625,
            "durationTicks": 48,
            "midi": 56,
            "name": "G#3",
            "ticks": 220608,
            "time": 287.25,
            "velocity": 0.03937007874015748
          },
          {
            "duration": 0.0625,
            "durationTicks": 48,
            "midi": 54,
            "name": "F#3",
            "ticks": 220704,
            "time": 287.375,
            "velocity": 0.03937007874015748
          },
          {
            "duration": 0.0625,
            "durationTicks": 48,
            "midi": 56,
            "name": "G#3",
            "ticks": 220800,
            "time": 287.5,
            "velocity": 0.03937007874015748
          },
          {
            "duration": 0.0625,
            "durationTicks": 48,
            "midi": 59,
            "name": "B3",
            "ticks": 220896,
            "time": 287.625,
            "velocity": 0.03937007874015748
          },
          {
            "duration": 0.0625,
            "durationTicks": 48,
            "midi": 61,
            "name": "C#4",
            "ticks": 221088,
            "time": 287.875,
            "velocity": 0.03937007874015748
          },
          {
            "duration": 0.0625,
            "durationTicks": 48,
            "midi": 61,
            "name": "C#4",
            "ticks": 221280,
            "time": 288.125,
            "velocity": 0.03937007874015748
          },
          {
            "duration": 0.0625,
            "durationTicks": 48,
            "midi": 56,
            "name": "G#3",
            "ticks": 221376,
            "time": 288.25,
            "velocity": 0.03937007874015748
          },
          {
            "duration": 0.0625,
            "durationTicks": 48,
            "midi": 54,
            "name": "F#3",
            "ticks": 221472,
            "time": 288.375,
            "velocity": 0.03937007874015748
          },
          {
            "duration": 0.0625,
            "durationTicks": 48,
            "midi": 56,
            "name": "G#3",
            "ticks": 221568,
            "time": 288.5,
            "velocity": 0.03937007874015748
          },
          {
            "duration": 0.0625,
            "durationTicks": 48,
            "midi": 56,
            "name": "G#3",
            "ticks": 221760,
            "time": 288.75,
            "velocity": 0.03937007874015748
          },
          {
            "duration": 0.0625,
            "durationTicks": 48,
            "midi": 54,
            "name": "F#3",
            "ticks": 221856,
            "time": 288.875,
            "velocity": 0.03937007874015748
          },
          {
            "duration": 0.0625,
            "durationTicks": 48,
            "midi": 56,
            "name": "G#3",
            "ticks": 221952,
            "time": 289,
            "velocity": 0.03937007874015748
          },
          {
            "duration": 0.0625,
            "durationTicks": 48,
            "midi": 56,
            "name": "G#3",
            "ticks": 222144,
            "time": 289.25,
            "velocity": 0.03937007874015748
          },
          {
            "duration": 0.0625,
            "durationTicks": 48,
            "midi": 54,
            "name": "F#3",
            "ticks": 222240,
            "time": 289.375,
            "velocity": 0.03937007874015748
          },
          {
            "duration": 0.0625,
            "durationTicks": 48,
            "midi": 56,
            "name": "G#3",
            "ticks": 222336,
            "time": 289.5,
            "velocity": 0.03937007874015748
          },
          {
            "duration": 0.0625,
            "durationTicks": 48,
            "midi": 59,
            "name": "B3",
            "ticks": 222432,
            "time": 289.625,
            "velocity": 0.03937007874015748
          },
          {
            "duration": 0.0625,
            "durationTicks": 48,
            "midi": 61,
            "name": "C#4",
            "ticks": 222624,
            "time": 289.875,
            "velocity": 0.03937007874015748
          },
          {
            "duration": 0.0625,
            "durationTicks": 48,
            "midi": 61,
            "name": "C#4",
            "ticks": 222816,
            "time": 290.125,
            "velocity": 0.03937007874015748
          },
          {
            "duration": 0.0625,
            "durationTicks": 48,
            "midi": 56,
            "name": "G#3",
            "ticks": 222912,
            "time": 290.25,
            "velocity": 0.03937007874015748
          },
          {
            "duration": 0.0625,
            "durationTicks": 48,
            "midi": 54,
            "name": "F#3",
            "ticks": 223008,
            "time": 290.375,
            "velocity": 0.03937007874015748
          },
          {
            "duration": 0.0625,
            "durationTicks": 48,
            "midi": 56,
            "name": "G#3",
            "ticks": 223104,
            "time": 290.5,
            "velocity": 0.03937007874015748
          },
          {
            "duration": 0.0625,
            "durationTicks": 48,
            "midi": 56,
            "name": "G#3",
            "ticks": 223296,
            "time": 290.75,
            "velocity": 0.03937007874015748
          },
          {
            "duration": 0.0625,
            "durationTicks": 48,
            "midi": 54,
            "name": "F#3",
            "ticks": 223392,
            "time": 290.875,
            "velocity": 0.03937007874015748
          },
          {
            "duration": 0.0625,
            "durationTicks": 48,
            "midi": 56,
            "name": "G#3",
            "ticks": 223488,
            "time": 291,
            "velocity": 0.03937007874015748
          },
          {
            "duration": 0.0625,
            "durationTicks": 48,
            "midi": 56,
            "name": "G#3",
            "ticks": 223680,
            "time": 291.25,
            "velocity": 0.03937007874015748
          },
          {
            "duration": 0.0625,
            "durationTicks": 48,
            "midi": 54,
            "name": "F#3",
            "ticks": 223776,
            "time": 291.375,
            "velocity": 0.03937007874015748
          },
          {
            "duration": 0.0625,
            "durationTicks": 48,
            "midi": 56,
            "name": "G#3",
            "ticks": 223872,
            "time": 291.5,
            "velocity": 0.03937007874015748
          },
          {
            "duration": 0.0625,
            "durationTicks": 48,
            "midi": 59,
            "name": "B3",
            "ticks": 223968,
            "time": 291.625,
            "velocity": 0.03937007874015748
          },
          {
            "duration": 0.0625,
            "durationTicks": 48,
            "midi": 61,
            "name": "C#4",
            "ticks": 224160,
            "time": 291.875,
            "velocity": 0.03937007874015748
          },
          {
            "duration": 0.0625,
            "durationTicks": 48,
            "midi": 61,
            "name": "C#4",
            "ticks": 224352,
            "time": 292.125,
            "velocity": 0.03937007874015748
          },
          {
            "duration": 0.0625,
            "durationTicks": 48,
            "midi": 56,
            "name": "G#3",
            "ticks": 224448,
            "time": 292.25,
            "velocity": 0.03937007874015748
          },
          {
            "duration": 0.0625,
            "durationTicks": 48,
            "midi": 54,
            "name": "F#3",
            "ticks": 224544,
            "time": 292.375,
            "velocity": 0.03937007874015748
          },
          {
            "duration": 0.0625,
            "durationTicks": 48,
            "midi": 56,
            "name": "G#3",
            "ticks": 224640,
            "time": 292.5,
            "velocity": 0.03937007874015748
          },
          {
            "duration": 0.0625,
            "durationTicks": 48,
            "midi": 56,
            "name": "G#3",
            "ticks": 224832,
            "time": 292.75,
            "velocity": 0.03937007874015748
          },
          {
            "duration": 0.0625,
            "durationTicks": 48,
            "midi": 54,
            "name": "F#3",
            "ticks": 224928,
            "time": 292.875,
            "velocity": 0.03937007874015748
          },
          {
            "duration": 0.0625,
            "durationTicks": 48,
            "midi": 56,
            "name": "G#3",
            "ticks": 225024,
            "time": 293,
            "velocity": 0.03937007874015748
          },
          {
            "duration": 0.0625,
            "durationTicks": 48,
            "midi": 56,
            "name": "G#3",
            "ticks": 225216,
            "time": 293.25,
            "velocity": 0.03937007874015748
          },
          {
            "duration": 0.0625,
            "durationTicks": 48,
            "midi": 54,
            "name": "F#3",
            "ticks": 225312,
            "time": 293.375,
            "velocity": 0.03937007874015748
          },
          {
            "duration": 0.0625,
            "durationTicks": 48,
            "midi": 56,
            "name": "G#3",
            "ticks": 225408,
            "time": 293.5,
            "velocity": 0.03937007874015748
          },
          {
            "duration": 0.0625,
            "durationTicks": 48,
            "midi": 59,
            "name": "B3",
            "ticks": 225504,
            "time": 293.625,
            "velocity": 0.03937007874015748
          },
          {
            "duration": 0.0625,
            "durationTicks": 48,
            "midi": 61,
            "name": "C#4",
            "ticks": 225696,
            "time": 293.875,
            "velocity": 0.03937007874015748
          },
          {
            "duration": 0.0625,
            "durationTicks": 48,
            "midi": 61,
            "name": "C#4",
            "ticks": 225888,
            "time": 294.125,
            "velocity": 0.03937007874015748
          },
          {
            "duration": 0.0625,
            "durationTicks": 48,
            "midi": 56,
            "name": "G#3",
            "ticks": 225984,
            "time": 294.25,
            "velocity": 0.03937007874015748
          },
          {
            "duration": 0.0625,
            "durationTicks": 48,
            "midi": 54,
            "name": "F#3",
            "ticks": 226080,
            "time": 294.375,
            "velocity": 0.03937007874015748
          },
          {
            "duration": 0.0625,
            "durationTicks": 48,
            "midi": 56,
            "name": "G#3",
            "ticks": 226176,
            "time": 294.5,
            "velocity": 0.03937007874015748
          },
          {
            "duration": 0.0625,
            "durationTicks": 48,
            "midi": 56,
            "name": "G#3",
            "ticks": 226368,
            "time": 294.75,
            "velocity": 0.03937007874015748
          },
          {
            "duration": 0.0625,
            "durationTicks": 48,
            "midi": 54,
            "name": "F#3",
            "ticks": 226464,
            "time": 294.875,
            "velocity": 0.03937007874015748
          },
          {
            "duration": 0.0625,
            "durationTicks": 48,
            "midi": 56,
            "name": "G#3",
            "ticks": 226560,
            "time": 295,
            "velocity": 0.03937007874015748
          },
          {
            "duration": 0.0625,
            "durationTicks": 48,
            "midi": 56,
            "name": "G#3",
            "ticks": 226752,
            "time": 295.25,
            "velocity": 0.03937007874015748
          },
          {
            "duration": 0.0625,
            "durationTicks": 48,
            "midi": 54,
            "name": "F#3",
            "ticks": 226848,
            "time": 295.375,
            "velocity": 0.03937007874015748
          },
          {
            "duration": 0.0625,
            "durationTicks": 48,
            "midi": 56,
            "name": "G#3",
            "ticks": 226944,
            "time": 295.5,
            "velocity": 0.03937007874015748
          },
          {
            "duration": 0.0625,
            "durationTicks": 48,
            "midi": 59,
            "name": "B3",
            "ticks": 227040,
            "time": 295.625,
            "velocity": 0.03937007874015748
          },
          {
            "duration": 0.0625,
            "durationTicks": 48,
            "midi": 61,
            "name": "C#4",
            "ticks": 227232,
            "time": 295.875,
            "velocity": 0.03937007874015748
          },
          {
            "duration": 0.0625,
            "durationTicks": 48,
            "midi": 61,
            "name": "C#4",
            "ticks": 227424,
            "time": 296.125,
            "velocity": 0.03937007874015748
          },
          {
            "duration": 0.0625,
            "durationTicks": 48,
            "midi": 56,
            "name": "G#3",
            "ticks": 227520,
            "time": 296.25,
            "velocity": 0.03937007874015748
          },
          {
            "duration": 0.0625,
            "durationTicks": 48,
            "midi": 54,
            "name": "F#3",
            "ticks": 227616,
            "time": 296.375,
            "velocity": 0.03937007874015748
          },
          {
            "duration": 0.0625,
            "durationTicks": 48,
            "midi": 56,
            "name": "G#3",
            "ticks": 227712,
            "time": 296.5,
            "velocity": 0.03937007874015748
          },
          {
            "duration": 0.0625,
            "durationTicks": 48,
            "midi": 56,
            "name": "G#3",
            "ticks": 227904,
            "time": 296.75,
            "velocity": 0.03937007874015748
          },
          {
            "duration": 0.0625,
            "durationTicks": 48,
            "midi": 54,
            "name": "F#3",
            "ticks": 228000,
            "time": 296.875,
            "velocity": 0.03937007874015748
          },
          {
            "duration": 0.0625,
            "durationTicks": 48,
            "midi": 56,
            "name": "G#3",
            "ticks": 228096,
            "time": 297,
            "velocity": 0.03937007874015748
          },
          {
            "duration": 0.0625,
            "durationTicks": 48,
            "midi": 56,
            "name": "G#3",
            "ticks": 228288,
            "time": 297.25,
            "velocity": 0.03937007874015748
          },
          {
            "duration": 0.0625,
            "durationTicks": 48,
            "midi": 54,
            "name": "F#3",
            "ticks": 228384,
            "time": 297.375,
            "velocity": 0.03937007874015748
          },
          {
            "duration": 0.0625,
            "durationTicks": 48,
            "midi": 56,
            "name": "G#3",
            "ticks": 228480,
            "time": 297.5,
            "velocity": 0.03937007874015748
          },
          {
            "duration": 0.0625,
            "durationTicks": 48,
            "midi": 59,
            "name": "B3",
            "ticks": 228576,
            "time": 297.625,
            "velocity": 0.03937007874015748
          },
          {
            "duration": 0.0625,
            "durationTicks": 48,
            "midi": 61,
            "name": "C#4",
            "ticks": 228768,
            "time": 297.875,
            "velocity": 0.03937007874015748
          },
          {
            "duration": 0.0625,
            "durationTicks": 48,
            "midi": 61,
            "name": "C#4",
            "ticks": 228960,
            "time": 298.125,
            "velocity": 0.03937007874015748
          },
          {
            "duration": 0.0625,
            "durationTicks": 48,
            "midi": 56,
            "name": "G#3",
            "ticks": 229056,
            "time": 298.25,
            "velocity": 0.03937007874015748
          },
          {
            "duration": 0.0625,
            "durationTicks": 48,
            "midi": 54,
            "name": "F#3",
            "ticks": 229152,
            "time": 298.375,
            "velocity": 0.03937007874015748
          },
          {
            "duration": 0.0625,
            "durationTicks": 48,
            "midi": 56,
            "name": "G#3",
            "ticks": 229248,
            "time": 298.5,
            "velocity": 0.03937007874015748
          },
          {
            "duration": 0.0625,
            "durationTicks": 48,
            "midi": 56,
            "name": "G#3",
            "ticks": 229440,
            "time": 298.75,
            "velocity": 0.03937007874015748
          },
          {
            "duration": 0.0625,
            "durationTicks": 48,
            "midi": 54,
            "name": "F#3",
            "ticks": 229536,
            "time": 298.875,
            "velocity": 0.03937007874015748
          },
          {
            "duration": 0.0625,
            "durationTicks": 48,
            "midi": 56,
            "name": "G#3",
            "ticks": 229632,
            "time": 299,
            "velocity": 0.03937007874015748
          },
          {
            "duration": 0.0625,
            "durationTicks": 48,
            "midi": 56,
            "name": "G#3",
            "ticks": 229824,
            "time": 299.25,
            "velocity": 0.03937007874015748
          },
          {
            "duration": 0.0625,
            "durationTicks": 48,
            "midi": 54,
            "name": "F#3",
            "ticks": 229920,
            "time": 299.375,
            "velocity": 0.03937007874015748
          },
          {
            "duration": 0.0625,
            "durationTicks": 48,
            "midi": 56,
            "name": "G#3",
            "ticks": 230016,
            "time": 299.5,
            "velocity": 0.03937007874015748
          },
          {
            "duration": 0.0625,
            "durationTicks": 48,
            "midi": 59,
            "name": "B3",
            "ticks": 230112,
            "time": 299.625,
            "velocity": 0.03937007874015748
          },
          {
            "duration": 0.0625,
            "durationTicks": 48,
            "midi": 61,
            "name": "C#4",
            "ticks": 230304,
            "time": 299.875,
            "velocity": 0.03937007874015748
          },
          {
            "duration": 0.0625,
            "durationTicks": 48,
            "midi": 61,
            "name": "C#4",
            "ticks": 230496,
            "time": 300.125,
            "velocity": 0.03937007874015748
          },
          {
            "duration": 0.0625,
            "durationTicks": 48,
            "midi": 56,
            "name": "G#3",
            "ticks": 230592,
            "time": 300.25,
            "velocity": 0.03937007874015748
          },
          {
            "duration": 0.0625,
            "durationTicks": 48,
            "midi": 54,
            "name": "F#3",
            "ticks": 230688,
            "time": 300.375,
            "velocity": 0.03937007874015748
          },
          {
            "duration": 0.0625,
            "durationTicks": 48,
            "midi": 56,
            "name": "G#3",
            "ticks": 230784,
            "time": 300.5,
            "velocity": 0.03937007874015748
          },
          {
            "duration": 0.0625,
            "durationTicks": 48,
            "midi": 56,
            "name": "G#3",
            "ticks": 230976,
            "time": 300.75,
            "velocity": 0.03937007874015748
          },
          {
            "duration": 0.0625,
            "durationTicks": 48,
            "midi": 54,
            "name": "F#3",
            "ticks": 231072,
            "time": 300.875,
            "velocity": 0.03937007874015748
          },
          {
            "duration": 0.0625,
            "durationTicks": 48,
            "midi": 56,
            "name": "G#3",
            "ticks": 231168,
            "time": 301,
            "velocity": 0.03937007874015748
          },
          {
            "duration": 0.0625,
            "durationTicks": 48,
            "midi": 56,
            "name": "G#3",
            "ticks": 231360,
            "time": 301.25,
            "velocity": 0.03937007874015748
          },
          {
            "duration": 0.0625,
            "durationTicks": 48,
            "midi": 54,
            "name": "F#3",
            "ticks": 231456,
            "time": 301.375,
            "velocity": 0.03937007874015748
          },
          {
            "duration": 0.0625,
            "durationTicks": 48,
            "midi": 56,
            "name": "G#3",
            "ticks": 231552,
            "time": 301.5,
            "velocity": 0.03937007874015748
          },
          {
            "duration": 0.0625,
            "durationTicks": 48,
            "midi": 59,
            "name": "B3",
            "ticks": 231648,
            "time": 301.625,
            "velocity": 0.03937007874015748
          },
          {
            "duration": 0.0625,
            "durationTicks": 48,
            "midi": 61,
            "name": "C#4",
            "ticks": 231840,
            "time": 301.875,
            "velocity": 0.03937007874015748
          },
          {
            "duration": 0.0625,
            "durationTicks": 48,
            "midi": 61,
            "name": "C#4",
            "ticks": 232032,
            "time": 302.125,
            "velocity": 0.03937007874015748
          },
          {
            "duration": 0.0625,
            "durationTicks": 48,
            "midi": 56,
            "name": "G#3",
            "ticks": 232128,
            "time": 302.25,
            "velocity": 0.03937007874015748
          },
          {
            "duration": 0.0625,
            "durationTicks": 48,
            "midi": 54,
            "name": "F#3",
            "ticks": 232224,
            "time": 302.375,
            "velocity": 0.03937007874015748
          },
          {
            "duration": 0.0625,
            "durationTicks": 48,
            "midi": 56,
            "name": "G#3",
            "ticks": 232320,
            "time": 302.5,
            "velocity": 0.03937007874015748
          },
          {
            "duration": 0.0625,
            "durationTicks": 48,
            "midi": 56,
            "name": "G#3",
            "ticks": 232512,
            "time": 302.75,
            "velocity": 0.03937007874015748
          },
          {
            "duration": 0.0625,
            "durationTicks": 48,
            "midi": 54,
            "name": "F#3",
            "ticks": 232608,
            "time": 302.875,
            "velocity": 0.03937007874015748
          },
          {
            "duration": 0.0625,
            "durationTicks": 48,
            "midi": 56,
            "name": "G#3",
            "ticks": 232704,
            "time": 303,
            "velocity": 0.03937007874015748
          },
          {
            "duration": 0.0625,
            "durationTicks": 48,
            "midi": 56,
            "name": "G#3",
            "ticks": 232896,
            "time": 303.25,
            "velocity": 0.03937007874015748
          },
          {
            "duration": 0.0625,
            "durationTicks": 48,
            "midi": 54,
            "name": "F#3",
            "ticks": 232992,
            "time": 303.375,
            "velocity": 0.03937007874015748
          },
          {
            "duration": 0.0625,
            "durationTicks": 48,
            "midi": 56,
            "name": "G#3",
            "ticks": 233088,
            "time": 303.5,
            "velocity": 0.03937007874015748
          },
          {
            "duration": 0.0625,
            "durationTicks": 48,
            "midi": 59,
            "name": "B3",
            "ticks": 233184,
            "time": 303.625,
            "velocity": 0.03937007874015748
          },
          {
            "duration": 0.0625,
            "durationTicks": 48,
            "midi": 61,
            "name": "C#4",
            "ticks": 233376,
            "time": 303.875,
            "velocity": 0.03937007874015748
          },
          {
            "duration": 0.0625,
            "durationTicks": 48,
            "midi": 61,
            "name": "C#4",
            "ticks": 233568,
            "time": 304.125,
            "velocity": 0.03937007874015748
          },
          {
            "duration": 0.0625,
            "durationTicks": 48,
            "midi": 56,
            "name": "G#3",
            "ticks": 233664,
            "time": 304.25,
            "velocity": 0.03937007874015748
          },
          {
            "duration": 0.0625,
            "durationTicks": 48,
            "midi": 54,
            "name": "F#3",
            "ticks": 233760,
            "time": 304.375,
            "velocity": 0.03937007874015748
          },
          {
            "duration": 0.0625,
            "durationTicks": 48,
            "midi": 56,
            "name": "G#3",
            "ticks": 233856,
            "time": 304.5,
            "velocity": 0.03937007874015748
          },
          {
            "duration": 0.0625,
            "durationTicks": 48,
            "midi": 56,
            "name": "G#3",
            "ticks": 234048,
            "time": 304.75,
            "velocity": 0.03937007874015748
          },
          {
            "duration": 0.0625,
            "durationTicks": 48,
            "midi": 54,
            "name": "F#3",
            "ticks": 234144,
            "time": 304.875,
            "velocity": 0.03937007874015748
          },
          {
            "duration": 0.0625,
            "durationTicks": 48,
            "midi": 56,
            "name": "G#3",
            "ticks": 234240,
            "time": 305,
            "velocity": 0.03937007874015748
          },
          {
            "duration": 0.0625,
            "durationTicks": 48,
            "midi": 56,
            "name": "G#3",
            "ticks": 234432,
            "time": 305.25,
            "velocity": 0.03937007874015748
          },
          {
            "duration": 0.0625,
            "durationTicks": 48,
            "midi": 54,
            "name": "F#3",
            "ticks": 234528,
            "time": 305.375,
            "velocity": 0.03937007874015748
          },
          {
            "duration": 0.0625,
            "durationTicks": 48,
            "midi": 56,
            "name": "G#3",
            "ticks": 234624,
            "time": 305.5,
            "velocity": 0.03937007874015748
          },
          {
            "duration": 0.0625,
            "durationTicks": 48,
            "midi": 59,
            "name": "B3",
            "ticks": 234720,
            "time": 305.625,
            "velocity": 0.03937007874015748
          },
          {
            "duration": 0.0625,
            "durationTicks": 48,
            "midi": 61,
            "name": "C#4",
            "ticks": 234912,
            "time": 305.875,
            "velocity": 0.03937007874015748
          },
          {
            "duration": 0.0625,
            "durationTicks": 48,
            "midi": 61,
            "name": "C#4",
            "ticks": 235104,
            "time": 306.125,
            "velocity": 0.03937007874015748
          },
          {
            "duration": 0.0625,
            "durationTicks": 48,
            "midi": 56,
            "name": "G#3",
            "ticks": 235200,
            "time": 306.25,
            "velocity": 0.03937007874015748
          },
          {
            "duration": 0.0625,
            "durationTicks": 48,
            "midi": 54,
            "name": "F#3",
            "ticks": 235296,
            "time": 306.375,
            "velocity": 0.03937007874015748
          },
          {
            "duration": 0.0625,
            "durationTicks": 48,
            "midi": 56,
            "name": "G#3",
            "ticks": 235392,
            "time": 306.5,
            "velocity": 0.03937007874015748
          },
          {
            "duration": 0.0625,
            "durationTicks": 48,
            "midi": 56,
            "name": "G#3",
            "ticks": 235584,
            "time": 306.75,
            "velocity": 0.03937007874015748
          },
          {
            "duration": 0.0625,
            "durationTicks": 48,
            "midi": 54,
            "name": "F#3",
            "ticks": 235680,
            "time": 306.875,
            "velocity": 0.03937007874015748
          },
          {
            "duration": 0.0625,
            "durationTicks": 48,
            "midi": 56,
            "name": "G#3",
            "ticks": 235776,
            "time": 307,
            "velocity": 0.03937007874015748
          },
          {
            "duration": 0.0625,
            "durationTicks": 48,
            "midi": 56,
            "name": "G#3",
            "ticks": 235968,
            "time": 307.25,
            "velocity": 0.03937007874015748
          },
          {
            "duration": 0.0625,
            "durationTicks": 48,
            "midi": 54,
            "name": "F#3",
            "ticks": 236064,
            "time": 307.375,
            "velocity": 0.03937007874015748
          },
          {
            "duration": 0.0625,
            "durationTicks": 48,
            "midi": 56,
            "name": "G#3",
            "ticks": 236160,
            "time": 307.5,
            "velocity": 0.03937007874015748
          },
          {
            "duration": 0.0625,
            "durationTicks": 48,
            "midi": 59,
            "name": "B3",
            "ticks": 236256,
            "time": 307.625,
            "velocity": 0.03937007874015748
          },
          {
            "duration": 0.0625,
            "durationTicks": 48,
            "midi": 61,
            "name": "C#4",
            "ticks": 236448,
            "time": 307.875,
            "velocity": 0.03937007874015748
          },
          {
            "duration": 0.0625,
            "durationTicks": 48,
            "midi": 61,
            "name": "C#4",
            "ticks": 236640,
            "time": 308.125,
            "velocity": 0.03937007874015748
          },
          {
            "duration": 0.0625,
            "durationTicks": 48,
            "midi": 56,
            "name": "G#3",
            "ticks": 236736,
            "time": 308.25,
            "velocity": 0.03937007874015748
          },
          {
            "duration": 0.0625,
            "durationTicks": 48,
            "midi": 54,
            "name": "F#3",
            "ticks": 236832,
            "time": 308.375,
            "velocity": 0.03937007874015748
          },
          {
            "duration": 0.0625,
            "durationTicks": 48,
            "midi": 56,
            "name": "G#3",
            "ticks": 236928,
            "time": 308.5,
            "velocity": 0.03937007874015748
          },
          {
            "duration": 0.0625,
            "durationTicks": 48,
            "midi": 56,
            "name": "G#3",
            "ticks": 237120,
            "time": 308.75,
            "velocity": 0.03937007874015748
          },
          {
            "duration": 0.0625,
            "durationTicks": 48,
            "midi": 54,
            "name": "F#3",
            "ticks": 237216,
            "time": 308.875,
            "velocity": 0.03937007874015748
          },
          {
            "duration": 0.0625,
            "durationTicks": 48,
            "midi": 56,
            "name": "G#3",
            "ticks": 237312,
            "time": 309,
            "velocity": 0.03937007874015748
          },
          {
            "duration": 0.0625,
            "durationTicks": 48,
            "midi": 56,
            "name": "G#3",
            "ticks": 237504,
            "time": 309.25,
            "velocity": 0.03937007874015748
          },
          {
            "duration": 0.0625,
            "durationTicks": 48,
            "midi": 54,
            "name": "F#3",
            "ticks": 237600,
            "time": 309.375,
            "velocity": 0.03937007874015748
          },
          {
            "duration": 0.0625,
            "durationTicks": 48,
            "midi": 56,
            "name": "G#3",
            "ticks": 237696,
            "time": 309.5,
            "velocity": 0.03937007874015748
          },
          {
            "duration": 0.0625,
            "durationTicks": 48,
            "midi": 59,
            "name": "B3",
            "ticks": 237792,
            "time": 309.625,
            "velocity": 0.03937007874015748
          },
          {
            "duration": 0.0625,
            "durationTicks": 48,
            "midi": 61,
            "name": "C#4",
            "ticks": 237984,
            "time": 309.875,
            "velocity": 0.03937007874015748
          },
          {
            "duration": 0.0625,
            "durationTicks": 48,
            "midi": 61,
            "name": "C#4",
            "ticks": 238176,
            "time": 310.125,
            "velocity": 0.03937007874015748
          },
          {
            "duration": 0.0625,
            "durationTicks": 48,
            "midi": 56,
            "name": "G#3",
            "ticks": 238272,
            "time": 310.25,
            "velocity": 0.03937007874015748
          },
          {
            "duration": 0.0625,
            "durationTicks": 48,
            "midi": 54,
            "name": "F#3",
            "ticks": 238368,
            "time": 310.375,
            "velocity": 0.03937007874015748
          },
          {
            "duration": 0.0625,
            "durationTicks": 48,
            "midi": 56,
            "name": "G#3",
            "ticks": 238464,
            "time": 310.5,
            "velocity": 0.03937007874015748
          },
          {
            "duration": 0.0625,
            "durationTicks": 48,
            "midi": 56,
            "name": "G#3",
            "ticks": 238656,
            "time": 310.75,
            "velocity": 0.03937007874015748
          },
          {
            "duration": 0.0625,
            "durationTicks": 48,
            "midi": 54,
            "name": "F#3",
            "ticks": 238752,
            "time": 310.875,
            "velocity": 0.03937007874015748
          },
          {
            "duration": 0.0625,
            "durationTicks": 48,
            "midi": 56,
            "name": "G#3",
            "ticks": 238848,
            "time": 311,
            "velocity": 0.03937007874015748
          },
          {
            "duration": 0.0625,
            "durationTicks": 48,
            "midi": 56,
            "name": "G#3",
            "ticks": 239040,
            "time": 311.25,
            "velocity": 0.03937007874015748
          },
          {
            "duration": 0.0625,
            "durationTicks": 48,
            "midi": 54,
            "name": "F#3",
            "ticks": 239136,
            "time": 311.375,
            "velocity": 0.03937007874015748
          },
          {
            "duration": 0.0625,
            "durationTicks": 48,
            "midi": 56,
            "name": "G#3",
            "ticks": 239232,
            "time": 311.5,
            "velocity": 0.03937007874015748
          },
          {
            "duration": 0.0625,
            "durationTicks": 48,
            "midi": 59,
            "name": "B3",
            "ticks": 239328,
            "time": 311.625,
            "velocity": 0.03937007874015748
          },
          {
            "duration": 0.0625,
            "durationTicks": 48,
            "midi": 61,
            "name": "C#4",
            "ticks": 239520,
            "time": 311.875,
            "velocity": 0.03937007874015748
          },
          {
            "duration": 0.0625,
            "durationTicks": 48,
            "midi": 61,
            "name": "C#4",
            "ticks": 239712,
            "time": 312.125,
            "velocity": 0.03937007874015748
          },
          {
            "duration": 0.0625,
            "durationTicks": 48,
            "midi": 56,
            "name": "G#3",
            "ticks": 239808,
            "time": 312.25,
            "velocity": 0.03937007874015748
          },
          {
            "duration": 0.0625,
            "durationTicks": 48,
            "midi": 54,
            "name": "F#3",
            "ticks": 239904,
            "time": 312.375,
            "velocity": 0.03937007874015748
          },
          {
            "duration": 0.0625,
            "durationTicks": 48,
            "midi": 56,
            "name": "G#3",
            "ticks": 240000,
            "time": 312.5,
            "velocity": 0.03937007874015748
          },
          {
            "duration": 0.0625,
            "durationTicks": 48,
            "midi": 56,
            "name": "G#3",
            "ticks": 240192,
            "time": 312.75,
            "velocity": 0.03937007874015748
          },
          {
            "duration": 0.0625,
            "durationTicks": 48,
            "midi": 54,
            "name": "F#3",
            "ticks": 240288,
            "time": 312.875,
            "velocity": 0.03937007874015748
          },
          {
            "duration": 0.0625,
            "durationTicks": 48,
            "midi": 56,
            "name": "G#3",
            "ticks": 240384,
            "time": 313,
            "velocity": 0.03937007874015748
          },
          {
            "duration": 0.0625,
            "durationTicks": 48,
            "midi": 56,
            "name": "G#3",
            "ticks": 240576,
            "time": 313.25,
            "velocity": 0.03937007874015748
          },
          {
            "duration": 0.0625,
            "durationTicks": 48,
            "midi": 54,
            "name": "F#3",
            "ticks": 240672,
            "time": 313.375,
            "velocity": 0.03937007874015748
          },
          {
            "duration": 0.0625,
            "durationTicks": 48,
            "midi": 56,
            "name": "G#3",
            "ticks": 240768,
            "time": 313.5,
            "velocity": 0.03937007874015748
          },
          {
            "duration": 0.0625,
            "durationTicks": 48,
            "midi": 59,
            "name": "B3",
            "ticks": 240864,
            "time": 313.625,
            "velocity": 0.03937007874015748
          },
          {
            "duration": 0.0625,
            "durationTicks": 48,
            "midi": 61,
            "name": "C#4",
            "ticks": 241056,
            "time": 313.875,
            "velocity": 0.03937007874015748
          },
          {
            "duration": 0.0625,
            "durationTicks": 48,
            "midi": 61,
            "name": "C#4",
            "ticks": 241248,
            "time": 314.125,
            "velocity": 0.03937007874015748
          },
          {
            "duration": 0.0625,
            "durationTicks": 48,
            "midi": 56,
            "name": "G#3",
            "ticks": 241344,
            "time": 314.25,
            "velocity": 0.03937007874015748
          },
          {
            "duration": 0.0625,
            "durationTicks": 48,
            "midi": 54,
            "name": "F#3",
            "ticks": 241440,
            "time": 314.375,
            "velocity": 0.03937007874015748
          },
          {
            "duration": 0.0625,
            "durationTicks": 48,
            "midi": 56,
            "name": "G#3",
            "ticks": 241536,
            "time": 314.5,
            "velocity": 0.03937007874015748
          },
          {
            "duration": 0.0625,
            "durationTicks": 48,
            "midi": 56,
            "name": "G#3",
            "ticks": 241728,
            "time": 314.75,
            "velocity": 0.03937007874015748
          },
          {
            "duration": 0.0625,
            "durationTicks": 48,
            "midi": 54,
            "name": "F#3",
            "ticks": 241824,
            "time": 314.875,
            "velocity": 0.03937007874015748
          },
          {
            "duration": 0.0625,
            "durationTicks": 48,
            "midi": 56,
            "name": "G#3",
            "ticks": 241920,
            "time": 315,
            "velocity": 0.03937007874015748
          },
          {
            "duration": 0.0625,
            "durationTicks": 48,
            "midi": 56,
            "name": "G#3",
            "ticks": 242112,
            "time": 315.25,
            "velocity": 0.03937007874015748
          },
          {
            "duration": 0.0625,
            "durationTicks": 48,
            "midi": 54,
            "name": "F#3",
            "ticks": 242208,
            "time": 315.375,
            "velocity": 0.03937007874015748
          },
          {
            "duration": 0.0625,
            "durationTicks": 48,
            "midi": 56,
            "name": "G#3",
            "ticks": 242304,
            "time": 315.5,
            "velocity": 0.03937007874015748
          },
          {
            "duration": 0.0625,
            "durationTicks": 48,
            "midi": 59,
            "name": "B3",
            "ticks": 242400,
            "time": 315.625,
            "velocity": 0.03937007874015748
          },
          {
            "duration": 0.0625,
            "durationTicks": 48,
            "midi": 61,
            "name": "C#4",
            "ticks": 242592,
            "time": 315.875,
            "velocity": 0.03937007874015748
          },
          {
            "duration": 0.0625,
            "durationTicks": 48,
            "midi": 61,
            "name": "C#4",
            "ticks": 242784,
            "time": 316.125,
            "velocity": 0.03937007874015748
          },
          {
            "duration": 0.0625,
            "durationTicks": 48,
            "midi": 56,
            "name": "G#3",
            "ticks": 242880,
            "time": 316.25,
            "velocity": 0.03937007874015748
          },
          {
            "duration": 0.0625,
            "durationTicks": 48,
            "midi": 54,
            "name": "F#3",
            "ticks": 242976,
            "time": 316.375,
            "velocity": 0.03937007874015748
          },
          {
            "duration": 0.0625,
            "durationTicks": 48,
            "midi": 56,
            "name": "G#3",
            "ticks": 243072,
            "time": 316.5,
            "velocity": 0.03937007874015748
          },
          {
            "duration": 0.0625,
            "durationTicks": 48,
            "midi": 56,
            "name": "G#3",
            "ticks": 243264,
            "time": 316.75,
            "velocity": 0.03937007874015748
          },
          {
            "duration": 0.0625,
            "durationTicks": 48,
            "midi": 54,
            "name": "F#3",
            "ticks": 243360,
            "time": 316.875,
            "velocity": 0.03937007874015748
          },
          {
            "duration": 0.0625,
            "durationTicks": 48,
            "midi": 56,
            "name": "G#3",
            "ticks": 243456,
            "time": 317,
            "velocity": 0.03937007874015748
          },
          {
            "duration": 0.0625,
            "durationTicks": 48,
            "midi": 56,
            "name": "G#3",
            "ticks": 243648,
            "time": 317.25,
            "velocity": 0.03937007874015748
          },
          {
            "duration": 0.0625,
            "durationTicks": 48,
            "midi": 54,
            "name": "F#3",
            "ticks": 243744,
            "time": 317.375,
            "velocity": 0.03937007874015748
          },
          {
            "duration": 0.0625,
            "durationTicks": 48,
            "midi": 56,
            "name": "G#3",
            "ticks": 243840,
            "time": 317.5,
            "velocity": 0.03937007874015748
          },
          {
            "duration": 0.0625,
            "durationTicks": 48,
            "midi": 59,
            "name": "B3",
            "ticks": 243936,
            "time": 317.625,
            "velocity": 0.03937007874015748
          },
          {
            "duration": 0.0625,
            "durationTicks": 48,
            "midi": 61,
            "name": "C#4",
            "ticks": 244128,
            "time": 317.875,
            "velocity": 0.03937007874015748
          },
          {
            "duration": 0.0625,
            "durationTicks": 48,
            "midi": 61,
            "name": "C#4",
            "ticks": 244320,
            "time": 318.125,
            "velocity": 0.03937007874015748
          },
          {
            "duration": 0.0625,
            "durationTicks": 48,
            "midi": 56,
            "name": "G#3",
            "ticks": 244416,
            "time": 318.25,
            "velocity": 0.03937007874015748
          },
          {
            "duration": 0.0625,
            "durationTicks": 48,
            "midi": 54,
            "name": "F#3",
            "ticks": 244512,
            "time": 318.375,
            "velocity": 0.03937007874015748
          },
          {
            "duration": 0.0625,
            "durationTicks": 48,
            "midi": 56,
            "name": "G#3",
            "ticks": 244608,
            "time": 318.5,
            "velocity": 0.03937007874015748
          },
          {
            "duration": 0.0625,
            "durationTicks": 48,
            "midi": 56,
            "name": "G#3",
            "ticks": 244800,
            "time": 318.75,
            "velocity": 0.03937007874015748
          },
          {
            "duration": 0.0625,
            "durationTicks": 48,
            "midi": 54,
            "name": "F#3",
            "ticks": 244896,
            "time": 318.875,
            "velocity": 0.03937007874015748
          },
          {
            "duration": 0.0625,
            "durationTicks": 48,
            "midi": 56,
            "name": "G#3",
            "ticks": 244992,
            "time": 319,
            "velocity": 0.03937007874015748
          },
          {
            "duration": 0.0625,
            "durationTicks": 48,
            "midi": 56,
            "name": "G#3",
            "ticks": 245184,
            "time": 319.25,
            "velocity": 0.03937007874015748
          },
          {
            "duration": 0.0625,
            "durationTicks": 48,
            "midi": 54,
            "name": "F#3",
            "ticks": 245280,
            "time": 319.375,
            "velocity": 0.03937007874015748
          },
          {
            "duration": 0.0625,
            "durationTicks": 48,
            "midi": 56,
            "name": "G#3",
            "ticks": 245376,
            "time": 319.5,
            "velocity": 0.03937007874015748
          },
          {
            "duration": 0.0625,
            "durationTicks": 48,
            "midi": 59,
            "name": "B3",
            "ticks": 245472,
            "time": 319.625,
            "velocity": 0.03937007874015748
          },
          {
            "duration": 0.0625,
            "durationTicks": 48,
            "midi": 61,
            "name": "C#4",
            "ticks": 245664,
            "time": 319.875,
            "velocity": 0.03937007874015748
          },
          {
            "duration": 0.0625,
            "durationTicks": 48,
            "midi": 61,
            "name": "C#4",
            "ticks": 245856,
            "time": 320.125,
            "velocity": 0.03937007874015748
          },
          {
            "duration": 0.0625,
            "durationTicks": 48,
            "midi": 56,
            "name": "G#3",
            "ticks": 245952,
            "time": 320.25,
            "velocity": 0.03937007874015748
          },
          {
            "duration": 0.0625,
            "durationTicks": 48,
            "midi": 54,
            "name": "F#3",
            "ticks": 246048,
            "time": 320.375,
            "velocity": 0.03937007874015748
          },
          {
            "duration": 0.0625,
            "durationTicks": 48,
            "midi": 56,
            "name": "G#3",
            "ticks": 246144,
            "time": 320.5,
            "velocity": 0.03937007874015748
          },
          {
            "duration": 0.0625,
            "durationTicks": 48,
            "midi": 56,
            "name": "G#3",
            "ticks": 246336,
            "time": 320.75,
            "velocity": 0.03937007874015748
          },
          {
            "duration": 0.0625,
            "durationTicks": 48,
            "midi": 54,
            "name": "F#3",
            "ticks": 246432,
            "time": 320.875,
            "velocity": 0.03937007874015748
          },
          {
            "duration": 0.0625,
            "durationTicks": 48,
            "midi": 56,
            "name": "G#3",
            "ticks": 246528,
            "time": 321,
            "velocity": 0.03937007874015748
          },
          {
            "duration": 0.0625,
            "durationTicks": 48,
            "midi": 56,
            "name": "G#3",
            "ticks": 246720,
            "time": 321.25,
            "velocity": 0.03937007874015748
          },
          {
            "duration": 0.0625,
            "durationTicks": 48,
            "midi": 54,
            "name": "F#3",
            "ticks": 246816,
            "time": 321.375,
            "velocity": 0.03937007874015748
          },
          {
            "duration": 0.0625,
            "durationTicks": 48,
            "midi": 56,
            "name": "G#3",
            "ticks": 246912,
            "time": 321.5,
            "velocity": 0.03937007874015748
          },
          {
            "duration": 0.0625,
            "durationTicks": 48,
            "midi": 59,
            "name": "B3",
            "ticks": 247008,
            "time": 321.625,
            "velocity": 0.03937007874015748
          },
          {
            "duration": 0.0625,
            "durationTicks": 48,
            "midi": 61,
            "name": "C#4",
            "ticks": 247200,
            "time": 321.875,
            "velocity": 0.03937007874015748
          }
        ],
        "endOfTrackTicks": 247248
      },
      {
        "channel": 11,
        "controlChanges": {},
        "pitchBends": [],
        "instrument": {
          "family": "piano",
          "number": 0,
          "name": "acoustic grand piano"
        },
        "name": "Vibraphone",
        "notes": [
          {
            "duration": 0.125,
            "durationTicks": 96,
            "midi": 85,
            "name": "C#6",
            "ticks": 24000,
            "time": 31.25,
            "velocity": 0.16535433070866143
          },
          {
            "duration": 0.125,
            "durationTicks": 96,
            "midi": 80,
            "name": "G#5",
            "ticks": 24288,
            "time": 31.625,
            "velocity": 0.16535433070866143
          },
          {
            "duration": 0.125,
            "durationTicks": 96,
            "midi": 78,
            "name": "F#5",
            "ticks": 24576,
            "time": 32,
            "velocity": 0.16535433070866143
          },
          {
            "duration": 0.125,
            "durationTicks": 96,
            "midi": 76,
            "name": "E5",
            "ticks": 25920,
            "time": 33.75,
            "velocity": 0.007874015748031496
          },
          {
            "duration": 0.125,
            "durationTicks": 96,
            "midi": 78,
            "name": "F#5",
            "ticks": 26016,
            "time": 33.875,
            "velocity": 0.007874015748031496
          },
          {
            "duration": 0.125,
            "durationTicks": 96,
            "midi": 80,
            "name": "G#5",
            "ticks": 26688,
            "time": 34.75,
            "velocity": 0.023622047244094488
          },
          {
            "duration": 0.125,
            "durationTicks": 96,
            "midi": 76,
            "name": "E5",
            "ticks": 26880,
            "time": 35,
            "velocity": 0.023622047244094488
          },
          {
            "duration": 0.125,
            "durationTicks": 96,
            "midi": 73,
            "name": "C#5",
            "ticks": 26976,
            "time": 35.125,
            "velocity": 0.023622047244094488
          },
          {
            "duration": 0.125,
            "durationTicks": 96,
            "midi": 71,
            "name": "B4",
            "ticks": 27456,
            "time": 35.75,
            "velocity": 0.023622047244094488
          },
          {
            "duration": 0.125,
            "durationTicks": 96,
            "midi": 73,
            "name": "C#5",
            "ticks": 27648,
            "time": 36,
            "velocity": 0.023622047244094488
          },
          {
            "duration": 0.125,
            "durationTicks": 96,
            "midi": 83,
            "name": "B5",
            "ticks": 28224,
            "time": 36.75,
            "velocity": 0.11811023622047244
          },
          {
            "duration": 0.125,
            "durationTicks": 96,
            "midi": 83,
            "name": "B5",
            "ticks": 28416,
            "time": 37,
            "velocity": 0.11811023622047244
          },
          {
            "duration": 0.125,
            "durationTicks": 96,
            "midi": 83,
            "name": "B5",
            "ticks": 28704,
            "time": 37.375,
            "velocity": 0.11811023622047244
          },
          {
            "duration": 0.125,
            "durationTicks": 96,
            "midi": 85,
            "name": "C#6",
            "ticks": 28800,
            "time": 37.5,
            "velocity": 0.11811023622047244
          },
          {
            "duration": 0.125,
            "durationTicks": 96,
            "midi": 73,
            "name": "C#5",
            "ticks": 69888,
            "time": 91,
            "velocity": 0.11811023622047244
          },
          {
            "duration": 0.125,
            "durationTicks": 96,
            "midi": 76,
            "name": "E5",
            "ticks": 70272,
            "time": 91.5,
            "velocity": 0.11811023622047244
          },
          {
            "duration": 0.125,
            "durationTicks": 96,
            "midi": 78,
            "name": "F#5",
            "ticks": 70656,
            "time": 92,
            "velocity": 0.11811023622047244
          },
          {
            "duration": 0.125,
            "durationTicks": 96,
            "midi": 73,
            "name": "C#5",
            "ticks": 70656,
            "time": 92,
            "velocity": 0.11811023622047244
          },
          {
            "duration": 0.125,
            "durationTicks": 96,
            "midi": 76,
            "name": "E5",
            "ticks": 72192,
            "time": 94,
            "velocity": 0.11811023622047244
          },
          {
            "duration": 0.125,
            "durationTicks": 96,
            "midi": 80,
            "name": "G#5",
            "ticks": 72192,
            "time": 94,
            "velocity": 0.11811023622047244
          }
        ],
        "endOfTrackTicks": 72288
      },
      {
        "channel": 0,
        "controlChanges": {},
        "pitchBends": [],
        "instrument": {
          "family": "piano",
          "number": 0,
          "name": "acoustic grand piano"
        },
        "name": "808 Drum Kit",
        "notes": [],
        "endOfTrackTicks": 247296
      },
      {
        "channel": 0,
        "controlChanges": {},
        "pitchBends": [],
        "instrument": {
          "family": "piano",
          "number": 0,
          "name": "acoustic grand piano"
        },
        "name": "808 Bass",
        "notes": [],
        "endOfTrackTicks": 9600
      },
      {
        "channel": 0,
        "controlChanges": {},
        "pitchBends": [],
        "instrument": {
          "family": "piano",
          "number": 0,
          "name": "acoustic grand piano"
        },
        "name": "8-Bit Drum Kit",
        "notes": [],
        "endOfTrackTicks": 7776
      },
      {
        "channel": 0,
        "controlChanges": {},
        "pitchBends": [],
        "instrument": {
          "number": 255
        },
        "name": "2013 Drum Kit",
        "notes": [],
        "endOfTrackTicks": 247296
      },
      {
        "channel": 13,
        "controlChanges": {},
        "pitchBends": [],
        "instrument": {
          "family": "piano",
          "number": 0,
          "name": "acoustic grand piano"
        },
        "name": "Grand Piano",
        "notes": [
          {
            "duration": 0.25,
            "durationTicks": 192,
            "midi": 56,
            "name": "G#3",
            "ticks": 31680,
            "time": 41.25,
            "velocity": 0.5039370078740157
          },
          {
            "duration": 0.25,
            "durationTicks": 192,
            "midi": 61,
            "name": "C#4",
            "ticks": 31872,
            "time": 41.5,
            "velocity": 0.5039370078740157
          },
          {
            "duration": 0.125,
            "durationTicks": 96,
            "midi": 63,
            "name": "D#4",
            "ticks": 32064,
            "time": 41.75,
            "velocity": 0.5039370078740157
          },
          {
            "duration": 1.125,
            "durationTicks": 864,
            "midi": 64,
            "name": "E4",
            "ticks": 32160,
            "time": 41.875,
            "velocity": 0.5039370078740157
          },
          {
            "duration": 0.375,
            "durationTicks": 288,
            "midi": 61,
            "name": "C#4",
            "ticks": 33024,
            "time": 43,
            "velocity": 0.5039370078740157
          },
          {
            "duration": 0.125,
            "durationTicks": 96,
            "midi": 59,
            "name": "B3",
            "ticks": 33696,
            "time": 43.875,
            "velocity": 0.5039370078740157
          },
          {
            "duration": 0.125,
            "durationTicks": 96,
            "midi": 59,
            "name": "B3",
            "ticks": 33792,
            "time": 44,
            "velocity": 0.5039370078740157
          },
          {
            "duration": 0.125,
            "durationTicks": 96,
            "midi": 61,
            "name": "C#4",
            "ticks": 33984,
            "time": 44.25,
            "velocity": 0.5039370078740157
          },
          {
            "duration": 0.25,
            "durationTicks": 192,
            "midi": 61,
            "name": "C#4",
            "ticks": 34176,
            "time": 44.5,
            "velocity": 0.5039370078740157
          },
          {
            "duration": 0.125,
            "durationTicks": 96,
            "midi": 59,
            "name": "B3",
            "ticks": 34368,
            "time": 44.75,
            "velocity": 0.5039370078740157
          },
          {
            "duration": 0.125,
            "durationTicks": 96,
            "midi": 59,
            "name": "B3",
            "ticks": 34464,
            "time": 44.875,
            "velocity": 0.5039370078740157
          },
          {
            "duration": 0.25,
            "durationTicks": 192,
            "midi": 61,
            "name": "C#4",
            "ticks": 34560,
            "time": 45,
            "velocity": 0.5039370078740157
          },
          {
            "duration": 0.25,
            "durationTicks": 192,
            "midi": 59,
            "name": "B3",
            "ticks": 34752,
            "time": 45.25,
            "velocity": 0.5039370078740157
          },
          {
            "duration": 0.25,
            "durationTicks": 192,
            "midi": 61,
            "name": "C#4",
            "ticks": 34944,
            "time": 45.5,
            "velocity": 0.5039370078740157
          },
          {
            "duration": 0.125,
            "durationTicks": 96,
            "midi": 64,
            "name": "E4",
            "ticks": 35136,
            "time": 45.75,
            "velocity": 0.5039370078740157
          },
          {
            "duration": 1.125,
            "durationTicks": 864,
            "midi": 61,
            "name": "C#4",
            "ticks": 35232,
            "time": 45.875,
            "velocity": 0.5039370078740157
          },
          {
            "duration": 0.25,
            "durationTicks": 192,
            "midi": 59,
            "name": "B3",
            "ticks": 37824,
            "time": 49.25,
            "velocity": 0.5039370078740157
          },
          {
            "duration": 0.25,
            "durationTicks": 192,
            "midi": 61,
            "name": "C#4",
            "ticks": 38016,
            "time": 49.5,
            "velocity": 0.5039370078740157
          },
          {
            "duration": 0.125,
            "durationTicks": 96,
            "midi": 63,
            "name": "D#4",
            "ticks": 38208,
            "time": 49.75,
            "velocity": 0.5039370078740157
          },
          {
            "duration": 1.125,
            "durationTicks": 864,
            "midi": 64,
            "name": "E4",
            "ticks": 38304,
            "time": 49.875,
            "velocity": 0.5039370078740157
          },
          {
            "duration": 0.375,
            "durationTicks": 288,
            "midi": 61,
            "name": "C#4",
            "ticks": 39168,
            "time": 51,
            "velocity": 0.5039370078740157
          },
          {
            "duration": 0.125,
            "durationTicks": 96,
            "midi": 59,
            "name": "B3",
            "ticks": 39840,
            "time": 51.875,
            "velocity": 0.5039370078740157
          },
          {
            "duration": 0.25,
            "durationTicks": 192,
            "midi": 59,
            "name": "B3",
            "ticks": 39936,
            "time": 52,
            "velocity": 0.5039370078740157
          },
          {
            "duration": 0.25,
            "durationTicks": 192,
            "midi": 61,
            "name": "C#4",
            "ticks": 40128,
            "time": 52.25,
            "velocity": 0.5039370078740157
          },
          {
            "duration": 0.125,
            "durationTicks": 96,
            "midi": 61,
            "name": "C#4",
            "ticks": 40320,
            "time": 52.5,
            "velocity": 0.5039370078740157
          },
          {
            "duration": 0.125,
            "durationTicks": 96,
            "midi": 59,
            "name": "B3",
            "ticks": 40512,
            "time": 52.75,
            "velocity": 0.5039370078740157
          },
          {
            "duration": 0.125,
            "durationTicks": 96,
            "midi": 59,
            "name": "B3",
            "ticks": 40608,
            "time": 52.875,
            "velocity": 0.5039370078740157
          },
          {
            "duration": 0.25,
            "durationTicks": 192,
            "midi": 61,
            "name": "C#4",
            "ticks": 40704,
            "time": 53,
            "velocity": 0.5039370078740157
          },
          {
            "duration": 0.25,
            "durationTicks": 192,
            "midi": 59,
            "name": "B3",
            "ticks": 40896,
            "time": 53.25,
            "velocity": 0.5039370078740157
          },
          {
            "duration": 0.25,
            "durationTicks": 192,
            "midi": 61,
            "name": "C#4",
            "ticks": 41088,
            "time": 53.5,
            "velocity": 0.5039370078740157
          },
          {
            "duration": 0.125,
            "durationTicks": 96,
            "midi": 64,
            "name": "E4",
            "ticks": 41280,
            "time": 53.75,
            "velocity": 0.5039370078740157
          },
          {
            "duration": 0.875,
            "durationTicks": 672,
            "midi": 61,
            "name": "C#4",
            "ticks": 41376,
            "time": 53.875,
            "velocity": 0.5039370078740157
          },
          {
            "duration": 0.25,
            "durationTicks": 192,
            "midi": 61,
            "name": "C#4",
            "ticks": 42432,
            "time": 55.25,
            "velocity": 0.5039370078740157
          },
          {
            "duration": 0.25,
            "durationTicks": 192,
            "midi": 64,
            "name": "E4",
            "ticks": 42624,
            "time": 55.5,
            "velocity": 0.5039370078740157
          },
          {
            "duration": 0.125,
            "durationTicks": 96,
            "midi": 68,
            "name": "G#4",
            "ticks": 42816,
            "time": 55.75,
            "velocity": 0.5039370078740157
          },
          {
            "duration": 1.375,
            "durationTicks": 1056,
            "midi": 66,
            "name": "F#4",
            "ticks": 42912,
            "time": 55.875,
            "velocity": 0.5039370078740157
          },
          {
            "duration": 0.375,
            "durationTicks": 288,
            "midi": 64,
            "name": "E4",
            "ticks": 44256,
            "time": 57.625,
            "velocity": 0.5039370078740157
          },
          {
            "duration": 0.125,
            "durationTicks": 96,
            "midi": 66,
            "name": "F#4",
            "ticks": 44544,
            "time": 58,
            "velocity": 0.5039370078740157
          },
          {
            "duration": 0.125,
            "durationTicks": 96,
            "midi": 64,
            "name": "E4",
            "ticks": 44640,
            "time": 58.125,
            "velocity": 0.5039370078740157
          },
          {
            "duration": 0.125,
            "durationTicks": 96,
            "midi": 64,
            "name": "E4",
            "ticks": 44832,
            "time": 58.375,
            "velocity": 0.5039370078740157
          },
          {
            "duration": 0.25,
            "durationTicks": 192,
            "midi": 63,
            "name": "D#4",
            "ticks": 45024,
            "time": 58.625,
            "velocity": 0.5039370078740157
          },
          {
            "duration": 0.25,
            "durationTicks": 192,
            "midi": 63,
            "name": "D#4",
            "ticks": 45216,
            "time": 58.875,
            "velocity": 0.5039370078740157
          },
          {
            "duration": 0.25,
            "durationTicks": 192,
            "midi": 61,
            "name": "C#4",
            "ticks": 45408,
            "time": 59.125,
            "velocity": 0.4015748031496063
          },
          {
            "duration": 0.25,
            "durationTicks": 192,
            "midi": 61,
            "name": "C#4",
            "ticks": 45600,
            "time": 59.375,
            "velocity": 0.4015748031496063
          },
          {
            "duration": 0.25,
            "durationTicks": 192,
            "midi": 63,
            "name": "D#4",
            "ticks": 45792,
            "time": 59.625,
            "velocity": 0.5039370078740157
          },
          {
            "duration": 0.25,
            "durationTicks": 192,
            "midi": 64,
            "name": "E4",
            "ticks": 45984,
            "time": 59.875,
            "velocity": 0.5039370078740157
          },
          {
            "duration": 1.375,
            "durationTicks": 1056,
            "midi": 61,
            "name": "C#4",
            "ticks": 46176,
            "time": 60.125,
            "velocity": 0.5039370078740157
          },
          {
            "duration": 0.25,
            "durationTicks": 192,
            "midi": 61,
            "name": "C#4",
            "ticks": 48576,
            "time": 63.25,
            "velocity": 0.5039370078740157
          },
          {
            "duration": 0.25,
            "durationTicks": 192,
            "midi": 64,
            "name": "E4",
            "ticks": 48768,
            "time": 63.5,
            "velocity": 0.5039370078740157
          },
          {
            "duration": 0.125,
            "durationTicks": 96,
            "midi": 68,
            "name": "G#4",
            "ticks": 48960,
            "time": 63.75,
            "velocity": 0.5039370078740157
          },
          {
            "duration": 1.375,
            "durationTicks": 1056,
            "midi": 66,
            "name": "F#4",
            "ticks": 49056,
            "time": 63.875,
            "velocity": 0.5039370078740157
          },
          {
            "duration": 0.375,
            "durationTicks": 288,
            "midi": 64,
            "name": "E4",
            "ticks": 50400,
            "time": 65.625,
            "velocity": 0.5039370078740157
          },
          {
            "duration": 0.125,
            "durationTicks": 96,
            "midi": 66,
            "name": "F#4",
            "ticks": 50688,
            "time": 66,
            "velocity": 0.5039370078740157
          },
          {
            "duration": 0.25,
            "durationTicks": 192,
            "midi": 64,
            "name": "E4",
            "ticks": 50784,
            "time": 66.125,
            "velocity": 0.5039370078740157
          },
          {
            "duration": 0.25,
            "durationTicks": 192,
            "midi": 64,
            "name": "E4",
            "ticks": 50976,
            "time": 66.375,
            "velocity": 0.5039370078740157
          },
          {
            "duration": 0.25,
            "durationTicks": 192,
            "midi": 63,
            "name": "D#4",
            "ticks": 51168,
            "time": 66.625,
            "velocity": 0.5039370078740157
          },
          {
            "duration": 0.25,
            "durationTicks": 192,
            "midi": 63,
            "name": "D#4",
            "ticks": 51360,
            "time": 66.875,
            "velocity": 0.5039370078740157
          },
          {
            "duration": 0.25,
            "durationTicks": 192,
            "midi": 61,
            "name": "C#4",
            "ticks": 51552,
            "time": 67.125,
            "velocity": 0.4015748031496063
          },
          {
            "duration": 0.25,
            "durationTicks": 192,
            "midi": 61,
            "name": "C#4",
            "ticks": 51744,
            "time": 67.375,
            "velocity": 0.4015748031496063
          },
          {
            "duration": 0.25,
            "durationTicks": 192,
            "midi": 63,
            "name": "D#4",
            "ticks": 51936,
            "time": 67.625,
            "velocity": 0.5039370078740157
          },
          {
            "duration": 0.75,
            "durationTicks": 576,
            "midi": 64,
            "name": "E4",
            "ticks": 52128,
            "time": 67.875,
            "velocity": 0.5039370078740157
          },
          {
            "duration": 0.375,
            "durationTicks": 288,
            "midi": 64,
            "name": "E4",
            "ticks": 52704,
            "time": 68.625,
            "velocity": 0.5039370078740157
          },
          {
            "duration": 0.1875,
            "durationTicks": 144,
            "midi": 66,
            "name": "F#4",
            "ticks": 52992,
            "time": 69,
            "velocity": 0.5039370078740157
          },
          {
            "duration": 0.1875,
            "durationTicks": 144,
            "midi": 64,
            "name": "E4",
            "ticks": 53136,
            "time": 69.1875,
            "velocity": 0.5039370078740157
          },
          {
            "duration": 0.1875,
            "durationTicks": 144,
            "midi": 68,
            "name": "G#4",
            "ticks": 53280,
            "time": 69.375,
            "velocity": 0.5039370078740157
          },
          {
            "duration": 0.1875,
            "durationTicks": 144,
            "midi": 64,
            "name": "E4",
            "ticks": 53424,
            "time": 69.5625,
            "velocity": 0.5039370078740157
          },
          {
            "duration": 1.375,
            "durationTicks": 1056,
            "midi": 66,
            "name": "F#4",
            "ticks": 53568,
            "time": 69.75,
            "velocity": 0.5039370078740157
          },
          {
            "duration": 0.125,
            "durationTicks": 96,
            "midi": 68,
            "name": "G#4",
            "ticks": 54624,
            "time": 71.125,
            "velocity": 0.5039370078740157
          },
          {
            "duration": 0.1875,
            "durationTicks": 144,
            "midi": 68,
            "name": "G#4",
            "ticks": 54720,
            "time": 71.25,
            "velocity": 0.5039370078740157
          },
          {
            "duration": 0.1875,
            "durationTicks": 144,
            "midi": 71,
            "name": "B4",
            "ticks": 54912,
            "time": 71.5,
            "velocity": 0.5039370078740157
          },
          {
            "duration": 0.1875,
            "durationTicks": 144,
            "midi": 68,
            "name": "G#4",
            "ticks": 55104,
            "time": 71.75,
            "velocity": 0.5039370078740157
          },
          {
            "duration": 0.375,
            "durationTicks": 288,
            "midi": 71,
            "name": "B4",
            "ticks": 55296,
            "time": 72,
            "velocity": 0.5039370078740157
          },
          {
            "duration": 0.875,
            "durationTicks": 672,
            "midi": 71,
            "name": "B4",
            "ticks": 55584,
            "time": 72.375,
            "velocity": 0.5039370078740157
          },
          {
            "duration": 0.5,
            "durationTicks": 384,
            "midi": 71,
            "name": "B4",
            "ticks": 56832,
            "time": 74,
            "velocity": 0.5039370078740157
          },
          {
            "duration": 0.5,
            "durationTicks": 384,
            "midi": 70,
            "name": "A#4",
            "ticks": 57216,
            "time": 74.5,
            "velocity": 0.5039370078740157
          },
          {
            "duration": 0.75,
            "durationTicks": 576,
            "midi": 68,
            "name": "G#4",
            "ticks": 57600,
            "time": 75,
            "velocity": 0.5039370078740157
          },
          {
            "duration": 0.25,
            "durationTicks": 192,
            "midi": 68,
            "name": "G#4",
            "ticks": 58176,
            "time": 75.75,
            "velocity": 0.5039370078740157
          },
          {
            "duration": 0.25,
            "durationTicks": 192,
            "midi": 68,
            "name": "G#4",
            "ticks": 58368,
            "time": 76,
            "velocity": 0.5039370078740157
          },
          {
            "duration": 0.25,
            "durationTicks": 192,
            "midi": 66,
            "name": "F#4",
            "ticks": 58560,
            "time": 76.25,
            "velocity": 0.5039370078740157
          },
          {
            "duration": 0.25,
            "durationTicks": 192,
            "midi": 66,
            "name": "F#4",
            "ticks": 58752,
            "time": 76.5,
            "velocity": 0.5039370078740157
          },
          {
            "duration": 0.125,
            "durationTicks": 96,
            "midi": 64,
            "name": "E4",
            "ticks": 58944,
            "time": 76.75,
            "velocity": 0.5039370078740157
          },
          {
            "duration": 0.375,
            "durationTicks": 288,
            "midi": 64,
            "name": "E4",
            "ticks": 59040,
            "time": 76.875,
            "velocity": 0.5039370078740157
          },
          {
            "duration": 0.125,
            "durationTicks": 96,
            "midi": 61,
            "name": "C#4",
            "ticks": 59328,
            "time": 77.25,
            "velocity": 0.5039370078740157
          },
          {
            "duration": 0.25,
            "durationTicks": 192,
            "midi": 64,
            "name": "E4",
            "ticks": 59520,
            "time": 77.5,
            "velocity": 0.5039370078740157
          },
          {
            "duration": 0.125,
            "durationTicks": 96,
            "midi": 66,
            "name": "F#4",
            "ticks": 59712,
            "time": 77.75,
            "velocity": 0.5039370078740157
          },
          {
            "duration": 0.375,
            "durationTicks": 288,
            "midi": 66,
            "name": "F#4",
            "ticks": 59808,
            "time": 77.875,
            "velocity": 0.5039370078740157
          },
          {
            "duration": 0.25,
            "durationTicks": 192,
            "midi": 66,
            "name": "F#4",
            "ticks": 60096,
            "time": 78.25,
            "velocity": 0.5039370078740157
          },
          {
            "duration": 0.125,
            "durationTicks": 96,
            "midi": 66,
            "name": "F#4",
            "ticks": 60288,
            "time": 78.5,
            "velocity": 0.5039370078740157
          },
          {
            "duration": 0.125,
            "durationTicks": 96,
            "midi": 64,
            "name": "E4",
            "ticks": 60480,
            "time": 78.75,
            "velocity": 0.5039370078740157
          },
          {
            "duration": 0.125,
            "durationTicks": 96,
            "midi": 66,
            "name": "F#4",
            "ticks": 60576,
            "time": 78.875,
            "velocity": 0.5039370078740157
          },
          {
            "duration": 0.1875,
            "durationTicks": 144,
            "midi": 68,
            "name": "G#4",
            "ticks": 60864,
            "time": 79.25,
            "velocity": 0.5039370078740157
          },
          {
            "duration": 0.1875,
            "durationTicks": 144,
            "midi": 71,
            "name": "B4",
            "ticks": 61056,
            "time": 79.5,
            "velocity": 0.5039370078740157
          },
          {
            "duration": 0.1875,
            "durationTicks": 144,
            "midi": 68,
            "name": "G#4",
            "ticks": 61248,
            "time": 79.75,
            "velocity": 0.5039370078740157
          },
          {
            "duration": 0.375,
            "durationTicks": 288,
            "midi": 71,
            "name": "B4",
            "ticks": 61440,
            "time": 80,
            "velocity": 0.5039370078740157
          },
          {
            "duration": 0.875,
            "durationTicks": 672,
            "midi": 71,
            "name": "B4",
            "ticks": 61728,
            "time": 80.375,
            "velocity": 0.5039370078740157
          },
          {
            "duration": 0.5,
            "durationTicks": 384,
            "midi": 71,
            "name": "B4",
            "ticks": 62976,
            "time": 82,
            "velocity": 0.5039370078740157
          },
          {
            "duration": 0.5,
            "durationTicks": 384,
            "midi": 70,
            "name": "A#4",
            "ticks": 63360,
            "time": 82.5,
            "velocity": 0.5039370078740157
          },
          {
            "duration": 0.75,
            "durationTicks": 576,
            "midi": 68,
            "name": "G#4",
            "ticks": 63744,
            "time": 83,
            "velocity": 0.5039370078740157
          },
          {
            "duration": 0.25,
            "durationTicks": 192,
            "midi": 68,
            "name": "G#4",
            "ticks": 64320,
            "time": 83.75,
            "velocity": 0.5039370078740157
          },
          {
            "duration": 0.25,
            "durationTicks": 192,
            "midi": 68,
            "name": "G#4",
            "ticks": 64512,
            "time": 84,
            "velocity": 0.5039370078740157
          },
          {
            "duration": 0.25,
            "durationTicks": 192,
            "midi": 66,
            "name": "F#4",
            "ticks": 64704,
            "time": 84.25,
            "velocity": 0.5039370078740157
          },
          {
            "duration": 0.25,
            "durationTicks": 192,
            "midi": 66,
            "name": "F#4",
            "ticks": 64896,
            "time": 84.5,
            "velocity": 0.5039370078740157
          },
          {
            "duration": 0.125,
            "durationTicks": 96,
            "midi": 64,
            "name": "E4",
            "ticks": 65088,
            "time": 84.75,
            "velocity": 0.5039370078740157
          },
          {
            "duration": 0.375,
            "durationTicks": 288,
            "midi": 64,
            "name": "E4",
            "ticks": 65184,
            "time": 84.875,
            "velocity": 0.5039370078740157
          },
          {
            "duration": 0.25,
            "durationTicks": 192,
            "midi": 61,
            "name": "C#4",
            "ticks": 65472,
            "time": 85.25,
            "velocity": 0.5039370078740157
          },
          {
            "duration": 0.25,
            "durationTicks": 192,
            "midi": 64,
            "name": "E4",
            "ticks": 65664,
            "time": 85.5,
            "velocity": 0.5039370078740157
          },
          {
            "duration": 0.25,
            "durationTicks": 192,
            "midi": 66,
            "name": "F#4",
            "ticks": 65856,
            "time": 85.75,
            "velocity": 0.5039370078740157
          },
          {
            "duration": 0.25,
            "durationTicks": 192,
            "midi": 64,
            "name": "E4",
            "ticks": 66240,
            "time": 86.25,
            "velocity": 0.5039370078740157
          },
          {
            "duration": 0.25,
            "durationTicks": 192,
            "midi": 61,
            "name": "C#4",
            "ticks": 66432,
            "time": 86.5,
            "velocity": 0.5039370078740157
          },
          {
            "duration": 0.25,
            "durationTicks": 192,
            "midi": 67,
            "name": "G4",
            "ticks": 66816,
            "time": 87,
            "velocity": 0.5039370078740157
          },
          {
            "duration": 0.25,
            "durationTicks": 192,
            "midi": 64,
            "name": "E4",
            "ticks": 67008,
            "time": 87.25,
            "velocity": 0.5039370078740157
          },
          {
            "duration": 0.25,
            "durationTicks": 192,
            "midi": 71,
            "name": "B4",
            "ticks": 67392,
            "time": 87.75,
            "velocity": 0.5039370078740157
          },
          {
            "duration": 0.625,
            "durationTicks": 480,
            "midi": 73,
            "name": "C#5",
            "ticks": 67584,
            "time": 88,
            "velocity": 0.5039370078740157
          },
          {
            "duration": 0.125,
            "durationTicks": 96,
            "midi": 71,
            "name": "B4",
            "ticks": 68064,
            "time": 88.625,
            "velocity": 0.5039370078740157
          },
          {
            "duration": 0.5,
            "durationTicks": 384,
            "midi": 68,
            "name": "G#4",
            "ticks": 68160,
            "time": 88.75,
            "velocity": 0.5039370078740157
          },
          {
            "duration": 0.25,
            "durationTicks": 192,
            "midi": 66,
            "name": "F#4",
            "ticks": 68544,
            "time": 89.25,
            "velocity": 0.5039370078740157
          },
          {
            "duration": 1.25,
            "durationTicks": 960,
            "midi": 64,
            "name": "E4",
            "ticks": 68736,
            "time": 89.5,
            "velocity": 0.5039370078740157
          },
          {
            "duration": 1.75,
            "durationTicks": 1344,
            "midi": 61,
            "name": "C#4",
            "ticks": 69696,
            "time": 90.75,
            "velocity": 0.5039370078740157
          },
          {
            "duration": 0.25,
            "durationTicks": 192,
            "midi": 68,
            "name": "G#4",
            "ticks": 72384,
            "time": 94.25,
            "velocity": 0.5039370078740157
          },
          {
            "duration": 0.0625,
            "durationTicks": 48,
            "midi": 64,
            "name": "E4",
            "ticks": 72576,
            "time": 94.5,
            "velocity": 0.5039370078740157
          },
          {
            "duration": 0.0625,
            "durationTicks": 48,
            "midi": 66,
            "name": "F#4",
            "ticks": 72624,
            "time": 94.5625,
            "velocity": 0.5039370078740157
          },
          {
            "duration": 0.125,
            "durationTicks": 96,
            "midi": 64,
            "name": "E4",
            "ticks": 72672,
            "time": 94.625,
            "velocity": 0.5039370078740157
          },
          {
            "duration": 0.5,
            "durationTicks": 384,
            "midi": 61,
            "name": "C#4",
            "ticks": 72768,
            "time": 94.75,
            "velocity": 0.5039370078740157
          },
          {
            "duration": 0.5,
            "durationTicks": 384,
            "midi": 66,
            "name": "F#4",
            "ticks": 73344,
            "time": 95.5,
            "velocity": 0.1968503937007874
          },
          {
            "duration": 0.25,
            "durationTicks": 192,
            "midi": 59,
            "name": "B3",
            "ticks": 74688,
            "time": 97.25,
            "velocity": 0.5039370078740157
          },
          {
            "duration": 0.25,
            "durationTicks": 192,
            "midi": 61,
            "name": "C#4",
            "ticks": 74880,
            "time": 97.5,
            "velocity": 0.5039370078740157
          },
          {
            "duration": 0.0625,
            "durationTicks": 48,
            "midi": 63,
            "name": "D#4",
            "ticks": 75072,
            "time": 97.75,
            "velocity": 0.5039370078740157
          },
          {
            "duration": 1.125,
            "durationTicks": 864,
            "midi": 64,
            "name": "E4",
            "ticks": 75168,
            "time": 97.875,
            "velocity": 0.5039370078740157
          },
          {
            "duration": 0.375,
            "durationTicks": 288,
            "midi": 61,
            "name": "C#4",
            "ticks": 76032,
            "time": 99,
            "velocity": 0.5039370078740157
          },
          {
            "duration": 0.125,
            "durationTicks": 96,
            "midi": 56,
            "name": "G#3",
            "ticks": 76704,
            "time": 99.875,
            "velocity": 0.5039370078740157
          },
          {
            "duration": 0.25,
            "durationTicks": 192,
            "midi": 59,
            "name": "B3",
            "ticks": 76800,
            "time": 100,
            "velocity": 0.5039370078740157
          },
          {
            "duration": 0.25,
            "durationTicks": 192,
            "midi": 61,
            "name": "C#4",
            "ticks": 76992,
            "time": 100.25,
            "velocity": 0.5039370078740157
          },
          {
            "duration": 0.25,
            "durationTicks": 192,
            "midi": 61,
            "name": "C#4",
            "ticks": 77184,
            "time": 100.5,
            "velocity": 0.5039370078740157
          },
          {
            "duration": 0.125,
            "durationTicks": 96,
            "midi": 59,
            "name": "B3",
            "ticks": 77376,
            "time": 100.75,
            "velocity": 0.5039370078740157
          },
          {
            "duration": 0.125,
            "durationTicks": 96,
            "midi": 59,
            "name": "B3",
            "ticks": 77472,
            "time": 100.875,
            "velocity": 0.5039370078740157
          },
          {
            "duration": 0.25,
            "durationTicks": 192,
            "midi": 61,
            "name": "C#4",
            "ticks": 77568,
            "time": 101,
            "velocity": 0.5039370078740157
          },
          {
            "duration": 0.25,
            "durationTicks": 192,
            "midi": 59,
            "name": "B3",
            "ticks": 77760,
            "time": 101.25,
            "velocity": 0.5039370078740157
          },
          {
            "duration": 0.25,
            "durationTicks": 192,
            "midi": 61,
            "name": "C#4",
            "ticks": 77952,
            "time": 101.5,
            "velocity": 0.5039370078740157
          },
          {
            "duration": 0.125,
            "durationTicks": 96,
            "midi": 64,
            "name": "E4",
            "ticks": 78144,
            "time": 101.75,
            "velocity": 0.5039370078740157
          },
          {
            "duration": 1.125,
            "durationTicks": 864,
            "midi": 61,
            "name": "C#4",
            "ticks": 78240,
            "time": 101.875,
            "velocity": 0.5039370078740157
          },
          {
            "duration": 0.25,
            "durationTicks": 192,
            "midi": 59,
            "name": "B3",
            "ticks": 80832,
            "time": 105.25,
            "velocity": 0.5039370078740157
          },
          {
            "duration": 0.25,
            "durationTicks": 192,
            "midi": 61,
            "name": "C#4",
            "ticks": 81024,
            "time": 105.5,
            "velocity": 0.5039370078740157
          },
          {
            "duration": 0.125,
            "durationTicks": 96,
            "midi": 63,
            "name": "D#4",
            "ticks": 81216,
            "time": 105.75,
            "velocity": 0.5039370078740157
          },
          {
            "duration": 1.125,
            "durationTicks": 864,
            "midi": 64,
            "name": "E4",
            "ticks": 81312,
            "time": 105.875,
            "velocity": 0.5039370078740157
          },
          {
            "duration": 0.5,
            "durationTicks": 384,
            "midi": 61,
            "name": "C#4",
            "ticks": 82176,
            "time": 107,
            "velocity": 0.5039370078740157
          },
          {
            "duration": 0.125,
            "durationTicks": 96,
            "midi": 56,
            "name": "G#3",
            "ticks": 82848,
            "time": 107.875,
            "velocity": 0.5039370078740157
          },
          {
            "duration": 0.25,
            "durationTicks": 192,
            "midi": 59,
            "name": "B3",
            "ticks": 82944,
            "time": 108,
            "velocity": 0.5039370078740157
          },
          {
            "duration": 0.1875,
            "durationTicks": 144,
            "midi": 61,
            "name": "C#4",
            "ticks": 83136,
            "time": 108.25,
            "velocity": 0.5039370078740157
          },
          {
            "duration": 0.125,
            "durationTicks": 96,
            "midi": 61,
            "name": "C#4",
            "ticks": 83328,
            "time": 108.5,
            "velocity": 0.5039370078740157
          },
          {
            "duration": 0.1875,
            "durationTicks": 144,
            "midi": 59,
            "name": "B3",
            "ticks": 83520,
            "time": 108.75,
            "velocity": 0.5039370078740157
          },
          {
            "duration": 0.1875,
            "durationTicks": 144,
            "midi": 61,
            "name": "C#4",
            "ticks": 83712,
            "time": 109,
            "velocity": 0.5039370078740157
          },
          {
            "duration": 0.25,
            "durationTicks": 192,
            "midi": 59,
            "name": "B3",
            "ticks": 83904,
            "time": 109.25,
            "velocity": 0.5039370078740157
          },
          {
            "duration": 0.25,
            "durationTicks": 192,
            "midi": 61,
            "name": "C#4",
            "ticks": 84096,
            "time": 109.5,
            "velocity": 0.5039370078740157
          },
          {
            "duration": 0.125,
            "durationTicks": 96,
            "midi": 64,
            "name": "E4",
            "ticks": 84288,
            "time": 109.75,
            "velocity": 0.5039370078740157
          },
          {
            "duration": 0.875,
            "durationTicks": 672,
            "midi": 61,
            "name": "C#4",
            "ticks": 84384,
            "time": 109.875,
            "velocity": 0.5039370078740157
          },
          {
            "duration": 0.25,
            "durationTicks": 192,
            "midi": 61,
            "name": "C#4",
            "ticks": 85440,
            "time": 111.25,
            "velocity": 0.5039370078740157
          },
          {
            "duration": 0.25,
            "durationTicks": 192,
            "midi": 64,
            "name": "E4",
            "ticks": 85632,
            "time": 111.5,
            "velocity": 0.5039370078740157
          },
          {
            "duration": 0.125,
            "durationTicks": 96,
            "midi": 68,
            "name": "G#4",
            "ticks": 85824,
            "time": 111.75,
            "velocity": 0.5039370078740157
          },
          {
            "duration": 1.375,
            "durationTicks": 1056,
            "midi": 66,
            "name": "F#4",
            "ticks": 85920,
            "time": 111.875,
            "velocity": 0.5039370078740157
          },
          {
            "duration": 0.375,
            "durationTicks": 288,
            "midi": 64,
            "name": "E4",
            "ticks": 87264,
            "time": 113.625,
            "velocity": 0.5039370078740157
          },
          {
            "duration": 0.1875,
            "durationTicks": 144,
            "midi": 66,
            "name": "F#4",
            "ticks": 87552,
            "time": 114,
            "velocity": 0.5039370078740157
          },
          {
            "duration": 0.25,
            "durationTicks": 192,
            "midi": 64,
            "name": "E4",
            "ticks": 87744,
            "time": 114.25,
            "velocity": 0.5039370078740157
          },
          {
            "duration": 0.25,
            "durationTicks": 192,
            "midi": 64,
            "name": "E4",
            "ticks": 87936,
            "time": 114.5,
            "velocity": 0.5039370078740157
          },
          {
            "duration": 0.25,
            "durationTicks": 192,
            "midi": 63,
            "name": "D#4",
            "ticks": 88128,
            "time": 114.75,
            "velocity": 0.5039370078740157
          },
          {
            "duration": 0.25,
            "durationTicks": 192,
            "midi": 63,
            "name": "D#4",
            "ticks": 88320,
            "time": 115,
            "velocity": 0.5039370078740157
          },
          {
            "duration": 0.125,
            "durationTicks": 96,
            "midi": 61,
            "name": "C#4",
            "ticks": 88512,
            "time": 115.25,
            "velocity": 0.4015748031496063
          },
          {
            "duration": 0.25,
            "durationTicks": 192,
            "midi": 61,
            "name": "C#4",
            "ticks": 88608,
            "time": 115.375,
            "velocity": 0.4015748031496063
          },
          {
            "duration": 0.25,
            "durationTicks": 192,
            "midi": 63,
            "name": "D#4",
            "ticks": 88800,
            "time": 115.625,
            "velocity": 0.5039370078740157
          },
          {
            "duration": 0.25,
            "durationTicks": 192,
            "midi": 64,
            "name": "E4",
            "ticks": 88992,
            "time": 115.875,
            "velocity": 0.5039370078740157
          },
          {
            "duration": 1.375,
            "durationTicks": 1056,
            "midi": 61,
            "name": "C#4",
            "ticks": 89184,
            "time": 116.125,
            "velocity": 0.5039370078740157
          },
          {
            "duration": 0.75,
            "durationTicks": 576,
            "midi": 68,
            "name": "G#4",
            "ticks": 90816,
            "time": 118.25,
            "velocity": 0.5039370078740157
          },
          {
            "duration": 0.25,
            "durationTicks": 192,
            "midi": 61,
            "name": "C#4",
            "ticks": 91584,
            "time": 119.25,
            "velocity": 0.5039370078740157
          },
          {
            "duration": 0.25,
            "durationTicks": 192,
            "midi": 64,
            "name": "E4",
            "ticks": 91776,
            "time": 119.5,
            "velocity": 0.5039370078740157
          },
          {
            "duration": 0.125,
            "durationTicks": 96,
            "midi": 68,
            "name": "G#4",
            "ticks": 91968,
            "time": 119.75,
            "velocity": 0.5039370078740157
          },
          {
            "duration": 1.375,
            "durationTicks": 1056,
            "midi": 66,
            "name": "F#4",
            "ticks": 92064,
            "time": 119.875,
            "velocity": 0.5039370078740157
          },
          {
            "duration": 0.375,
            "durationTicks": 288,
            "midi": 64,
            "name": "E4",
            "ticks": 93408,
            "time": 121.625,
            "velocity": 0.5039370078740157
          },
          {
            "duration": 0.125,
            "durationTicks": 96,
            "midi": 66,
            "name": "F#4",
            "ticks": 93696,
            "time": 122,
            "velocity": 0.5039370078740157
          },
          {
            "duration": 0.125,
            "durationTicks": 96,
            "midi": 64,
            "name": "E4",
            "ticks": 93792,
            "time": 122.125,
            "velocity": 0.5039370078740157
          },
          {
            "duration": 0.25,
            "durationTicks": 192,
            "midi": 64,
            "name": "E4",
            "ticks": 93984,
            "time": 122.375,
            "velocity": 0.5039370078740157
          },
          {
            "duration": 0.2083333333333286,
            "durationTicks": 160,
            "midi": 61,
            "name": "C#4",
            "ticks": 94176,
            "time": 122.625,
            "velocity": 0.5039370078740157
          },
          {
            "duration": 0.1666666666666714,
            "durationTicks": 128,
            "midi": 63,
            "name": "D#4",
            "ticks": 94336,
            "time": 122.83333333333333,
            "velocity": 0.5039370078740157
          },
          {
            "duration": 0.1666666666666714,
            "durationTicks": 128,
            "midi": 61,
            "name": "C#4",
            "ticks": 94464,
            "time": 123,
            "velocity": 0.5039370078740157
          },
          {
            "duration": 0.1666666666666572,
            "durationTicks": 128,
            "midi": 61,
            "name": "C#4",
            "ticks": 94592,
            "time": 123.16666666666667,
            "velocity": 0.5039370078740157
          },
          {
            "duration": 0.1666666666666714,
            "durationTicks": 128,
            "midi": 63,
            "name": "D#4",
            "ticks": 94720,
            "time": 123.33333333333333,
            "velocity": 0.5039370078740157
          },
          {
            "duration": 1,
            "durationTicks": 768,
            "midi": 64,
            "name": "E4",
            "ticks": 94848,
            "time": 123.5,
            "velocity": 0.5039370078740157
          },
          {
            "duration": 0.2916666666666714,
            "durationTicks": 224,
            "midi": 64,
            "name": "E4",
            "ticks": 95712,
            "time": 124.625,
            "velocity": 0.5039370078740157
          },
          {
            "duration": 0.1666666666666714,
            "durationTicks": 128,
            "midi": 66,
            "name": "F#4",
            "ticks": 96000,
            "time": 125,
            "velocity": 0.5039370078740157
          },
          {
            "duration": 0.1666666666666572,
            "durationTicks": 128,
            "midi": 64,
            "name": "E4",
            "ticks": 96128,
            "time": 125.16666666666667,
            "velocity": 0.5039370078740157
          },
          {
            "duration": 0.2916666666666714,
            "durationTicks": 224,
            "midi": 66,
            "name": "F#4",
            "ticks": 96256,
            "time": 125.33333333333333,
            "velocity": 0.5039370078740157
          },
          {
            "duration": 0.125,
            "durationTicks": 96,
            "midi": 64,
            "name": "E4",
            "ticks": 96480,
            "time": 125.625,
            "velocity": 0.5039370078740157
          },
          {
            "duration": 1,
            "durationTicks": 768,
            "midi": 66,
            "name": "F#4",
            "ticks": 96576,
            "time": 125.75,
            "velocity": 0.5039370078740157
          },
          {
            "duration": 0.0625,
            "durationTicks": 48,
            "midi": 68,
            "name": "G#4",
            "ticks": 97632,
            "time": 127.125,
            "velocity": 0.5039370078740157
          },
          {
            "duration": 0.1875,
            "durationTicks": 144,
            "midi": 68,
            "name": "G#4",
            "ticks": 97728,
            "time": 127.25,
            "velocity": 0.5039370078740157
          },
          {
            "duration": 0.1875,
            "durationTicks": 144,
            "midi": 71,
            "name": "B4",
            "ticks": 97920,
            "time": 127.5,
            "velocity": 0.5039370078740157
          },
          {
            "duration": 0.1875,
            "durationTicks": 144,
            "midi": 68,
            "name": "G#4",
            "ticks": 98112,
            "time": 127.75,
            "velocity": 0.5039370078740157
          },
          {
            "duration": 0.375,
            "durationTicks": 288,
            "midi": 71,
            "name": "B4",
            "ticks": 98304,
            "time": 128,
            "velocity": 0.5039370078740157
          },
          {
            "duration": 0.875,
            "durationTicks": 672,
            "midi": 71,
            "name": "B4",
            "ticks": 98592,
            "time": 128.375,
            "velocity": 0.5039370078740157
          },
          {
            "duration": 0.5,
            "durationTicks": 384,
            "midi": 71,
            "name": "B4",
            "ticks": 99840,
            "time": 130,
            "velocity": 0.5039370078740157
          },
          {
            "duration": 0.5,
            "durationTicks": 384,
            "midi": 70,
            "name": "A#4",
            "ticks": 100224,
            "time": 130.5,
            "velocity": 0.5039370078740157
          },
          {
            "duration": 0.75,
            "durationTicks": 576,
            "midi": 68,
            "name": "G#4",
            "ticks": 100608,
            "time": 131,
            "velocity": 0.5039370078740157
          },
          {
            "duration": 0.25,
            "durationTicks": 192,
            "midi": 68,
            "name": "G#4",
            "ticks": 101184,
            "time": 131.75,
            "velocity": 0.5039370078740157
          },
          {
            "duration": 0.1875,
            "durationTicks": 144,
            "midi": 68,
            "name": "G#4",
            "ticks": 101376,
            "time": 132,
            "velocity": 0.5039370078740157
          },
          {
            "duration": 0.25,
            "durationTicks": 192,
            "midi": 66,
            "name": "F#4",
            "ticks": 101568,
            "time": 132.25,
            "velocity": 0.5039370078740157
          },
          {
            "duration": 0.25,
            "durationTicks": 192,
            "midi": 66,
            "name": "F#4",
            "ticks": 101760,
            "time": 132.5,
            "velocity": 0.5039370078740157
          },
          {
            "duration": 0.0625,
            "durationTicks": 48,
            "midi": 64,
            "name": "E4",
            "ticks": 101952,
            "time": 132.75,
            "velocity": 0.5039370078740157
          },
          {
            "duration": 0.375,
            "durationTicks": 288,
            "midi": 64,
            "name": "E4",
            "ticks": 102048,
            "time": 132.875,
            "velocity": 0.5039370078740157
          },
          {
            "duration": 0.25,
            "durationTicks": 192,
            "midi": 61,
            "name": "C#4",
            "ticks": 102336,
            "time": 133.25,
            "velocity": 0.4015748031496063
          },
          {
            "duration": 0.1875,
            "durationTicks": 144,
            "midi": 64,
            "name": "E4",
            "ticks": 102528,
            "time": 133.5,
            "velocity": 0.5039370078740157
          },
          {
            "duration": 0.0625,
            "durationTicks": 48,
            "midi": 66,
            "name": "F#4",
            "ticks": 102720,
            "time": 133.75,
            "velocity": 0.5039370078740157
          },
          {
            "duration": 0.375,
            "durationTicks": 288,
            "midi": 66,
            "name": "F#4",
            "ticks": 102816,
            "time": 133.875,
            "velocity": 0.5039370078740157
          },
          {
            "duration": 0.125,
            "durationTicks": 96,
            "midi": 66,
            "name": "F#4",
            "ticks": 103104,
            "time": 134.25,
            "velocity": 0.5039370078740157
          },
          {
            "duration": 0.1875,
            "durationTicks": 144,
            "midi": 64,
            "name": "E4",
            "ticks": 103296,
            "time": 134.5,
            "velocity": 0.5039370078740157
          },
          {
            "duration": 0.125,
            "durationTicks": 96,
            "midi": 64,
            "name": "E4",
            "ticks": 103488,
            "time": 134.75,
            "velocity": 0.5039370078740157
          },
          {
            "duration": 0.625,
            "durationTicks": 480,
            "midi": 66,
            "name": "F#4",
            "ticks": 103584,
            "time": 134.875,
            "velocity": 0.5039370078740157
          },
          {
            "duration": 0.5,
            "durationTicks": 384,
            "midi": 64,
            "name": "E4",
            "ticks": 104064,
            "time": 135.5,
            "velocity": 0.5039370078740157
          },
          {
            "duration": 0.375,
            "durationTicks": 288,
            "midi": 71,
            "name": "B4",
            "ticks": 104448,
            "time": 136,
            "velocity": 0.5039370078740157
          },
          {
            "duration": 0.875,
            "durationTicks": 672,
            "midi": 71,
            "name": "B4",
            "ticks": 104736,
            "time": 136.375,
            "velocity": 0.5039370078740157
          },
          {
            "duration": 0.75,
            "durationTicks": 576,
            "midi": 78,
            "name": "F#5",
            "ticks": 105024,
            "time": 136.75,
            "velocity": 0.6141732283464567
          },
          {
            "duration": 0.75,
            "durationTicks": 576,
            "midi": 76,
            "name": "E5",
            "ticks": 105600,
            "time": 137.5,
            "velocity": 0.6141732283464567
          },
          {
            "duration": 0.5,
            "durationTicks": 384,
            "midi": 71,
            "name": "B4",
            "ticks": 105984,
            "time": 138,
            "velocity": 0.5039370078740157
          },
          {
            "duration": 0.5,
            "durationTicks": 384,
            "midi": 70,
            "name": "A#4",
            "ticks": 106368,
            "time": 138.5,
            "velocity": 0.5039370078740157
          },
          {
            "duration": 0.75,
            "durationTicks": 576,
            "midi": 68,
            "name": "G#4",
            "ticks": 106752,
            "time": 139,
            "velocity": 0.5039370078740157
          },
          {
            "duration": 0.25,
            "durationTicks": 192,
            "midi": 68,
            "name": "G#4",
            "ticks": 107328,
            "time": 139.75,
            "velocity": 0.5039370078740157
          },
          {
            "duration": 0.25,
            "durationTicks": 192,
            "midi": 68,
            "name": "G#4",
            "ticks": 107520,
            "time": 140,
            "velocity": 0.5039370078740157
          },
          {
            "duration": 0.25,
            "durationTicks": 192,
            "midi": 66,
            "name": "F#4",
            "ticks": 107712,
            "time": 140.25,
            "velocity": 0.5039370078740157
          },
          {
            "duration": 0.25,
            "durationTicks": 192,
            "midi": 66,
            "name": "F#4",
            "ticks": 107904,
            "time": 140.5,
            "velocity": 0.5039370078740157
          },
          {
            "duration": 0.125,
            "durationTicks": 96,
            "midi": 64,
            "name": "E4",
            "ticks": 108096,
            "time": 140.75,
            "velocity": 0.5039370078740157
          },
          {
            "duration": 0.375,
            "durationTicks": 288,
            "midi": 64,
            "name": "E4",
            "ticks": 108192,
            "time": 140.875,
            "velocity": 0.5039370078740157
          },
          {
            "duration": 0.25,
            "durationTicks": 192,
            "midi": 61,
            "name": "C#4",
            "ticks": 108480,
            "time": 141.25,
            "velocity": 0.5039370078740157
          },
          {
            "duration": 0.25,
            "durationTicks": 192,
            "midi": 64,
            "name": "E4",
            "ticks": 108672,
            "time": 141.5,
            "velocity": 0.5039370078740157
          },
          {
            "duration": 0.25,
            "durationTicks": 192,
            "midi": 66,
            "name": "F#4",
            "ticks": 108864,
            "time": 141.75,
            "velocity": 0.5039370078740157
          },
          {
            "duration": 0.25,
            "durationTicks": 192,
            "midi": 64,
            "name": "E4",
            "ticks": 109248,
            "time": 142.25,
            "velocity": 0.5039370078740157
          },
          {
            "duration": 0.25,
            "durationTicks": 192,
            "midi": 61,
            "name": "C#4",
            "ticks": 109440,
            "time": 142.5,
            "velocity": 0.5039370078740157
          },
          {
            "duration": 0.25,
            "durationTicks": 192,
            "midi": 67,
            "name": "G4",
            "ticks": 109824,
            "time": 143,
            "velocity": 0.5039370078740157
          },
          {
            "duration": 0.25,
            "durationTicks": 192,
            "midi": 64,
            "name": "E4",
            "ticks": 110016,
            "time": 143.25,
            "velocity": 0.5039370078740157
          },
          {
            "duration": 0.25,
            "durationTicks": 192,
            "midi": 71,
            "name": "B4",
            "ticks": 110400,
            "time": 143.75,
            "velocity": 0.5039370078740157
          },
          {
            "duration": 0.25,
            "durationTicks": 192,
            "midi": 66,
            "name": "F#4",
            "ticks": 110400,
            "time": 143.75,
            "velocity": 0.4015748031496063
          },
          {
            "duration": 0.25,
            "durationTicks": 192,
            "midi": 64,
            "name": "E4",
            "ticks": 110400,
            "time": 143.75,
            "velocity": 0.4015748031496063
          },
          {
            "duration": 2,
            "durationTicks": 1536,
            "midi": 73,
            "name": "C#5",
            "ticks": 110592,
            "time": 144,
            "velocity": 0.5039370078740157
          },
          {
            "duration": 2,
            "durationTicks": 1536,
            "midi": 64,
            "name": "E4",
            "ticks": 110592,
            "time": 144,
            "velocity": 0.4015748031496063
          },
          {
            "duration": 2,
            "durationTicks": 1536,
            "midi": 68,
            "name": "G#4",
            "ticks": 110592,
            "time": 144,
            "velocity": 0.4015748031496063
          },
          {
            "duration": 0.3333333333333428,
            "durationTicks": 256,
            "midi": 73,
            "name": "C#5",
            "ticks": 112128,
            "time": 146,
            "velocity": 0.5039370078740157
          },
          {
            "duration": 0.1666666666666572,
            "durationTicks": 128,
            "midi": 71,
            "name": "B4",
            "ticks": 112384,
            "time": 146.33333333333334,
            "velocity": 0.5039370078740157
          },
          {
            "duration": 0.25,
            "durationTicks": 192,
            "midi": 70,
            "name": "A#4",
            "ticks": 112640,
            "time": 146.66666666666666,
            "velocity": 0.5039370078740157
          },
          {
            "duration": 0.3333333333333428,
            "durationTicks": 256,
            "midi": 68,
            "name": "G#4",
            "ticks": 112896,
            "time": 147,
            "velocity": 0.5039370078740157
          },
          {
            "duration": 0.3333333333333144,
            "durationTicks": 256,
            "midi": 66,
            "name": "F#4",
            "ticks": 113152,
            "time": 147.33333333333334,
            "velocity": 0.5039370078740157
          },
          {
            "duration": 0.16666666666668561,
            "durationTicks": 128,
            "midi": 64,
            "name": "E4",
            "ticks": 113408,
            "time": 147.66666666666666,
            "velocity": 0.5039370078740157
          },
          {
            "duration": 0.3125,
            "durationTicks": 240,
            "midi": 63,
            "name": "D#4",
            "ticks": 113664,
            "time": 148,
            "velocity": 0.5039370078740157
          },
          {
            "duration": 0.1875,
            "durationTicks": 144,
            "midi": 61,
            "name": "C#4",
            "ticks": 113952,
            "time": 148.375,
            "velocity": 0.5039370078740157
          },
          {
            "duration": 0.25,
            "durationTicks": 192,
            "midi": 63,
            "name": "D#4",
            "ticks": 114240,
            "time": 148.75,
            "velocity": 0.5039370078740157
          },
          {
            "duration": 0.375,
            "durationTicks": 288,
            "midi": 66,
            "name": "F#4",
            "ticks": 114432,
            "time": 149,
            "velocity": 0.5039370078740157
          },
          {
            "duration": 0.375,
            "durationTicks": 288,
            "midi": 64,
            "name": "E4",
            "ticks": 114720,
            "time": 149.375,
            "velocity": 0.5039370078740157
          },
          {
            "duration": 0.25,
            "durationTicks": 192,
            "midi": 63,
            "name": "D#4",
            "ticks": 115008,
            "time": 149.75,
            "velocity": 0.5039370078740157
          },
          {
            "duration": 0.75,
            "durationTicks": 576,
            "midi": 63,
            "name": "D#4",
            "ticks": 115200,
            "time": 150,
            "velocity": 0.5039370078740157
          },
          {
            "duration": 0.25,
            "durationTicks": 192,
            "midi": 64,
            "name": "E4",
            "ticks": 115776,
            "time": 150.75,
            "velocity": 0.5039370078740157
          },
          {
            "duration": 1.5,
            "durationTicks": 1152,
            "midi": 61,
            "name": "C#4",
            "ticks": 115968,
            "time": 151,
            "velocity": 0.5039370078740157
          },
          {
            "duration": 0.5,
            "durationTicks": 384,
            "midi": 73,
            "name": "C#5",
            "ticks": 118080,
            "time": 153.75,
            "velocity": 0.5039370078740157
          },
          {
            "duration": 0.375,
            "durationTicks": 288,
            "midi": 71,
            "name": "B4",
            "ticks": 118464,
            "time": 154.25,
            "velocity": 0.5039370078740157
          },
          {
            "duration": 0.375,
            "durationTicks": 288,
            "midi": 70,
            "name": "A#4",
            "ticks": 118752,
            "time": 154.625,
            "velocity": 0.5039370078740157
          },
          {
            "duration": 0.1875,
            "durationTicks": 144,
            "midi": 68,
            "name": "G#4",
            "ticks": 119040,
            "time": 155,
            "velocity": 0.5039370078740157
          },
          {
            "duration": 0.375,
            "durationTicks": 288,
            "midi": 66,
            "name": "F#4",
            "ticks": 119328,
            "time": 155.375,
            "velocity": 0.5039370078740157
          },
          {
            "duration": 0.1875,
            "durationTicks": 144,
            "midi": 64,
            "name": "E4",
            "ticks": 119616,
            "time": 155.75,
            "velocity": 0.5039370078740157
          },
          {
            "duration": 0.375,
            "durationTicks": 288,
            "midi": 63,
            "name": "D#4",
            "ticks": 119808,
            "time": 156,
            "velocity": 0.5039370078740157
          },
          {
            "duration": 0.375,
            "durationTicks": 288,
            "midi": 61,
            "name": "C#4",
            "ticks": 120096,
            "time": 156.375,
            "velocity": 0.5039370078740157
          },
          {
            "duration": 0.25,
            "durationTicks": 192,
            "midi": 63,
            "name": "D#4",
            "ticks": 120384,
            "time": 156.75,
            "velocity": 0.5039370078740157
          },
          {
            "duration": 0.25,
            "durationTicks": 192,
            "midi": 64,
            "name": "E4",
            "ticks": 120576,
            "time": 157,
            "velocity": 0.5039370078740157
          },
          {
            "duration": 0.25,
            "durationTicks": 192,
            "midi": 66,
            "name": "F#4",
            "ticks": 120768,
            "time": 157.25,
            "velocity": 0.5039370078740157
          },
          {
            "duration": 0.5,
            "durationTicks": 384,
            "midi": 68,
            "name": "G#4",
            "ticks": 120960,
            "time": 157.5,
            "velocity": 0.5039370078740157
          },
          {
            "duration": 0.0625,
            "durationTicks": 48,
            "midi": 64,
            "name": "E4",
            "ticks": 121344,
            "time": 158,
            "velocity": 0.5039370078740157
          },
          {
            "duration": 1.4375,
            "durationTicks": 1104,
            "midi": 66,
            "name": "F#4",
            "ticks": 121392,
            "time": 158.0625,
            "velocity": 0.5039370078740157
          },
          {
            "duration": 0.375,
            "durationTicks": 288,
            "midi": 64,
            "name": "E4",
            "ticks": 122880,
            "time": 160,
            "velocity": 0.5039370078740157
          },
          {
            "duration": 0.375,
            "durationTicks": 288,
            "midi": 66,
            "name": "F#4",
            "ticks": 123168,
            "time": 160.375,
            "velocity": 0.5039370078740157
          },
          {
            "duration": 0.25,
            "durationTicks": 192,
            "midi": 68,
            "name": "G#4",
            "ticks": 123456,
            "time": 160.75,
            "velocity": 0.5039370078740157
          },
          {
            "duration": 0.375,
            "durationTicks": 288,
            "midi": 71,
            "name": "B4",
            "ticks": 123648,
            "time": 161,
            "velocity": 0.5039370078740157
          },
          {
            "duration": 0.375,
            "durationTicks": 288,
            "midi": 69,
            "name": "A4",
            "ticks": 123936,
            "time": 161.375,
            "velocity": 0.5039370078740157
          },
          {
            "duration": 0.25,
            "durationTicks": 192,
            "midi": 68,
            "name": "G#4",
            "ticks": 124224,
            "time": 161.75,
            "velocity": 0.5039370078740157
          },
          {
            "duration": 2,
            "durationTicks": 1536,
            "midi": 68,
            "name": "G#4",
            "ticks": 124416,
            "time": 162,
            "velocity": 0.5039370078740157
          },
          {
            "duration": 1,
            "durationTicks": 768,
            "midi": 68,
            "name": "G#4",
            "ticks": 126528,
            "time": 164.75,
            "velocity": 0.5039370078740157
          },
          {
            "duration": 0.25,
            "durationTicks": 192,
            "midi": 59,
            "name": "B3",
            "ticks": 128448,
            "time": 167.25,
            "velocity": 0.5039370078740157
          },
          {
            "duration": 0.25,
            "durationTicks": 192,
            "midi": 61,
            "name": "C#4",
            "ticks": 128640,
            "time": 167.5,
            "velocity": 0.5039370078740157
          },
          {
            "duration": 0.0625,
            "durationTicks": 48,
            "midi": 63,
            "name": "D#4",
            "ticks": 128832,
            "time": 167.75,
            "velocity": 0.5039370078740157
          },
          {
            "duration": 1.125,
            "durationTicks": 864,
            "midi": 64,
            "name": "E4",
            "ticks": 128928,
            "time": 167.875,
            "velocity": 0.5039370078740157
          },
          {
            "duration": 0.375,
            "durationTicks": 288,
            "midi": 61,
            "name": "C#4",
            "ticks": 129792,
            "time": 169,
            "velocity": 0.5039370078740157
          },
          {
            "duration": 0.125,
            "durationTicks": 96,
            "midi": 59,
            "name": "B3",
            "ticks": 130464,
            "time": 169.875,
            "velocity": 0.5039370078740157
          },
          {
            "duration": 0.25,
            "durationTicks": 192,
            "midi": 59,
            "name": "B3",
            "ticks": 130560,
            "time": 170,
            "velocity": 0.5039370078740157
          },
          {
            "duration": 0.25,
            "durationTicks": 192,
            "midi": 61,
            "name": "C#4",
            "ticks": 130752,
            "time": 170.25,
            "velocity": 0.5039370078740157
          },
          {
            "duration": 0.25,
            "durationTicks": 192,
            "midi": 61,
            "name": "C#4",
            "ticks": 130944,
            "time": 170.5,
            "velocity": 0.5039370078740157
          },
          {
            "duration": 0.125,
            "durationTicks": 96,
            "midi": 59,
            "name": "B3",
            "ticks": 131136,
            "time": 170.75,
            "velocity": 0.5039370078740157
          },
          {
            "duration": 0.125,
            "durationTicks": 96,
            "midi": 59,
            "name": "B3",
            "ticks": 131232,
            "time": 170.875,
            "velocity": 0.5039370078740157
          },
          {
            "duration": 0.25,
            "durationTicks": 192,
            "midi": 61,
            "name": "C#4",
            "ticks": 131328,
            "time": 171,
            "velocity": 0.5039370078740157
          },
          {
            "duration": 0.125,
            "durationTicks": 96,
            "midi": 59,
            "name": "B3",
            "ticks": 131520,
            "time": 171.25,
            "velocity": 0.5039370078740157
          },
          {
            "duration": 0.25,
            "durationTicks": 192,
            "midi": 61,
            "name": "C#4",
            "ticks": 131712,
            "time": 171.5,
            "velocity": 0.5039370078740157
          },
          {
            "duration": 0.125,
            "durationTicks": 96,
            "midi": 64,
            "name": "E4",
            "ticks": 131904,
            "time": 171.75,
            "velocity": 0.5039370078740157
          },
          {
            "duration": 1.125,
            "durationTicks": 864,
            "midi": 61,
            "name": "C#4",
            "ticks": 132000,
            "time": 171.875,
            "velocity": 0.5039370078740157
          },
          {
            "duration": 0.125,
            "durationTicks": 96,
            "midi": 61,
            "name": "C#4",
            "ticks": 133056,
            "time": 173.25,
            "velocity": 0.1968503937007874
          },
          {
            "duration": 0.5,
            "durationTicks": 384,
            "midi": 61,
            "name": "C#4",
            "ticks": 133440,
            "time": 173.75,
            "velocity": 0.1968503937007874
          },
          {
            "duration": 0.125,
            "durationTicks": 96,
            "midi": 59,
            "name": "B3",
            "ticks": 134496,
            "time": 175.125,
            "velocity": 0.5039370078740157
          },
          {
            "duration": 0.25,
            "durationTicks": 192,
            "midi": 59,
            "name": "B3",
            "ticks": 134592,
            "time": 175.25,
            "velocity": 0.5039370078740157
          },
          {
            "duration": 0.25,
            "durationTicks": 192,
            "midi": 61,
            "name": "C#4",
            "ticks": 134784,
            "time": 175.5,
            "velocity": 0.5039370078740157
          },
          {
            "duration": 0.125,
            "durationTicks": 96,
            "midi": 63,
            "name": "D#4",
            "ticks": 134976,
            "time": 175.75,
            "velocity": 0.5039370078740157
          },
          {
            "duration": 1.125,
            "durationTicks": 864,
            "midi": 64,
            "name": "E4",
            "ticks": 135072,
            "time": 175.875,
            "velocity": 0.5039370078740157
          },
          {
            "duration": 0.5,
            "durationTicks": 384,
            "midi": 61,
            "name": "C#4",
            "ticks": 135936,
            "time": 177,
            "velocity": 0.5039370078740157
          },
          {
            "duration": 0.125,
            "durationTicks": 96,
            "midi": 56,
            "name": "G#3",
            "ticks": 136608,
            "time": 177.875,
            "velocity": 0.5039370078740157
          },
          {
            "duration": 0.25,
            "durationTicks": 192,
            "midi": 59,
            "name": "B3",
            "ticks": 136704,
            "time": 178,
            "velocity": 0.5039370078740157
          },
          {
            "duration": 0.1875,
            "durationTicks": 144,
            "midi": 61,
            "name": "C#4",
            "ticks": 136896,
            "time": 178.25,
            "velocity": 0.5039370078740157
          },
          {
            "duration": 0.125,
            "durationTicks": 96,
            "midi": 61,
            "name": "C#4",
            "ticks": 137088,
            "time": 178.5,
            "velocity": 0.5039370078740157
          },
          {
            "duration": 0.1875,
            "durationTicks": 144,
            "midi": 59,
            "name": "B3",
            "ticks": 137280,
            "time": 178.75,
            "velocity": 0.5039370078740157
          },
          {
            "duration": 0.1875,
            "durationTicks": 144,
            "midi": 61,
            "name": "C#4",
            "ticks": 137472,
            "time": 179,
            "velocity": 0.5039370078740157
          },
          {
            "duration": 0.25,
            "durationTicks": 192,
            "midi": 59,
            "name": "B3",
            "ticks": 137664,
            "time": 179.25,
            "velocity": 0.5039370078740157
          },
          {
            "duration": 0.25,
            "durationTicks": 192,
            "midi": 61,
            "name": "C#4",
            "ticks": 137856,
            "time": 179.5,
            "velocity": 0.5039370078740157
          },
          {
            "duration": 0.125,
            "durationTicks": 96,
            "midi": 64,
            "name": "E4",
            "ticks": 138048,
            "time": 179.75,
            "velocity": 0.5039370078740157
          },
          {
            "duration": 0.875,
            "durationTicks": 672,
            "midi": 61,
            "name": "C#4",
            "ticks": 138144,
            "time": 179.875,
            "velocity": 0.5039370078740157
          },
          {
            "duration": 0.125,
            "durationTicks": 96,
            "midi": 61,
            "name": "C#4",
            "ticks": 139104,
            "time": 181.125,
            "velocity": 0.5039370078740157
          },
          {
            "duration": 0.25,
            "durationTicks": 192,
            "midi": 61,
            "name": "C#4",
            "ticks": 139200,
            "time": 181.25,
            "velocity": 0.5039370078740157
          },
          {
            "duration": 0.25,
            "durationTicks": 192,
            "midi": 64,
            "name": "E4",
            "ticks": 139392,
            "time": 181.5,
            "velocity": 0.5039370078740157
          },
          {
            "duration": 0.125,
            "durationTicks": 96,
            "midi": 68,
            "name": "G#4",
            "ticks": 139584,
            "time": 181.75,
            "velocity": 0.5039370078740157
          },
          {
            "duration": 1.375,
            "durationTicks": 1056,
            "midi": 66,
            "name": "F#4",
            "ticks": 139680,
            "time": 181.875,
            "velocity": 0.5039370078740157
          },
          {
            "duration": 0.375,
            "durationTicks": 288,
            "midi": 64,
            "name": "E4",
            "ticks": 141024,
            "time": 183.625,
            "velocity": 0.5039370078740157
          },
          {
            "duration": 0.125,
            "durationTicks": 96,
            "midi": 66,
            "name": "F#4",
            "ticks": 141312,
            "time": 184,
            "velocity": 0.5039370078740157
          },
          {
            "duration": 0.25,
            "durationTicks": 192,
            "midi": 64,
            "name": "E4",
            "ticks": 141408,
            "time": 184.125,
            "velocity": 0.5039370078740157
          },
          {
            "duration": 0.25,
            "durationTicks": 192,
            "midi": 64,
            "name": "E4",
            "ticks": 141600,
            "time": 184.375,
            "velocity": 0.5039370078740157
          },
          {
            "duration": 0.25,
            "durationTicks": 192,
            "midi": 64,
            "name": "E4",
            "ticks": 141792,
            "time": 184.625,
            "velocity": 0.5039370078740157
          },
          {
            "duration": 0.25,
            "durationTicks": 192,
            "midi": 63,
            "name": "D#4",
            "ticks": 141984,
            "time": 184.875,
            "velocity": 0.5039370078740157
          },
          {
            "duration": 0.25,
            "durationTicks": 192,
            "midi": 61,
            "name": "C#4",
            "ticks": 142176,
            "time": 185.125,
            "velocity": 0.4015748031496063
          },
          {
            "duration": 0.25,
            "durationTicks": 192,
            "midi": 61,
            "name": "C#4",
            "ticks": 142368,
            "time": 185.375,
            "velocity": 0.4015748031496063
          },
          {
            "duration": 0.25,
            "durationTicks": 192,
            "midi": 63,
            "name": "D#4",
            "ticks": 142560,
            "time": 185.625,
            "velocity": 0.5039370078740157
          },
          {
            "duration": 0.25,
            "durationTicks": 192,
            "midi": 64,
            "name": "E4",
            "ticks": 142752,
            "time": 185.875,
            "velocity": 0.5039370078740157
          },
          {
            "duration": 1.125,
            "durationTicks": 864,
            "midi": 61,
            "name": "C#4",
            "ticks": 142944,
            "time": 186.125,
            "velocity": 0.5039370078740157
          },
          {
            "duration": 1,
            "durationTicks": 768,
            "midi": 56,
            "name": "G#3",
            "ticks": 143808,
            "time": 187.25,
            "velocity": 0.5039370078740157
          },
          {
            "duration": 0.25,
            "durationTicks": 192,
            "midi": 61,
            "name": "C#4",
            "ticks": 145344,
            "time": 189.25,
            "velocity": 0.5039370078740157
          },
          {
            "duration": 0.25,
            "durationTicks": 192,
            "midi": 64,
            "name": "E4",
            "ticks": 145536,
            "time": 189.5,
            "velocity": 0.5039370078740157
          },
          {
            "duration": 0.125,
            "durationTicks": 96,
            "midi": 68,
            "name": "G#4",
            "ticks": 145728,
            "time": 189.75,
            "velocity": 0.5039370078740157
          },
          {
            "duration": 1.375,
            "durationTicks": 1056,
            "midi": 66,
            "name": "F#4",
            "ticks": 145824,
            "time": 189.875,
            "velocity": 0.5039370078740157
          },
          {
            "duration": 0.375,
            "durationTicks": 288,
            "midi": 64,
            "name": "E4",
            "ticks": 147168,
            "time": 191.625,
            "velocity": 0.5039370078740157
          },
          {
            "duration": 0.25,
            "durationTicks": 192,
            "midi": 66,
            "name": "F#4",
            "ticks": 147456,
            "time": 192,
            "velocity": 0.5039370078740157
          },
          {
            "duration": 0.125,
            "durationTicks": 96,
            "midi": 64,
            "name": "E4",
            "ticks": 147648,
            "time": 192.25,
            "velocity": 0.5039370078740157
          },
          {
            "duration": 0.25,
            "durationTicks": 192,
            "midi": 64,
            "name": "E4",
            "ticks": 147744,
            "time": 192.375,
            "velocity": 0.5039370078740157
          },
          {
            "duration": 0.125,
            "durationTicks": 96,
            "midi": 63,
            "name": "D#4",
            "ticks": 147936,
            "time": 192.625,
            "velocity": 0.5039370078740157
          },
          {
            "duration": 0.25,
            "durationTicks": 192,
            "midi": 63,
            "name": "D#4",
            "ticks": 148128,
            "time": 192.875,
            "velocity": 0.5039370078740157
          },
          {
            "duration": 0.25,
            "durationTicks": 192,
            "midi": 61,
            "name": "C#4",
            "ticks": 148320,
            "time": 193.125,
            "velocity": 0.5039370078740157
          },
          {
            "duration": 0.1875,
            "durationTicks": 144,
            "midi": 61,
            "name": "C#4",
            "ticks": 148512,
            "time": 193.375,
            "velocity": 0.5039370078740157
          },
          {
            "duration": 0.1875,
            "durationTicks": 144,
            "midi": 63,
            "name": "D#4",
            "ticks": 148656,
            "time": 193.5625,
            "velocity": 0.5039370078740157
          },
          {
            "duration": 0.5,
            "durationTicks": 384,
            "midi": 64,
            "name": "E4",
            "ticks": 148800,
            "time": 193.75,
            "velocity": 0.5039370078740157
          },
          {
            "duration": 0.2916666666666572,
            "durationTicks": 224,
            "midi": 64,
            "name": "E4",
            "ticks": 149472,
            "time": 194.625,
            "velocity": 0.5039370078740157
          },
          {
            "duration": 0.1666666666666572,
            "durationTicks": 128,
            "midi": 66,
            "name": "F#4",
            "ticks": 149760,
            "time": 195,
            "velocity": 0.5039370078740157
          },
          {
            "duration": 0.16666666666668561,
            "durationTicks": 128,
            "midi": 64,
            "name": "E4",
            "ticks": 149888,
            "time": 195.16666666666666,
            "velocity": 0.5039370078740157
          },
          {
            "duration": 0.2916666666666572,
            "durationTicks": 224,
            "midi": 66,
            "name": "F#4",
            "ticks": 150016,
            "time": 195.33333333333334,
            "velocity": 0.5039370078740157
          },
          {
            "duration": 0.125,
            "durationTicks": 96,
            "midi": 64,
            "name": "E4",
            "ticks": 150240,
            "time": 195.625,
            "velocity": 0.5039370078740157
          },
          {
            "duration": 1,
            "durationTicks": 768,
            "midi": 66,
            "name": "F#4",
            "ticks": 150336,
            "time": 195.75,
            "velocity": 0.5039370078740157
          },
          {
            "duration": 0.0625,
            "durationTicks": 48,
            "midi": 68,
            "name": "G#4",
            "ticks": 151392,
            "time": 197.125,
            "velocity": 0.5039370078740157
          },
          {
            "duration": 0.1875,
            "durationTicks": 144,
            "midi": 68,
            "name": "G#4",
            "ticks": 151488,
            "time": 197.25,
            "velocity": 0.5039370078740157
          },
          {
            "duration": 0.1875,
            "durationTicks": 144,
            "midi": 71,
            "name": "B4",
            "ticks": 151680,
            "time": 197.5,
            "velocity": 0.5039370078740157
          },
          {
            "duration": 0.1875,
            "durationTicks": 144,
            "midi": 68,
            "name": "G#4",
            "ticks": 151872,
            "time": 197.75,
            "velocity": 0.5039370078740157
          },
          {
            "duration": 0.375,
            "durationTicks": 288,
            "midi": 71,
            "name": "B4",
            "ticks": 152064,
            "time": 198,
            "velocity": 0.5039370078740157
          },
          {
            "duration": 0.875,
            "durationTicks": 672,
            "midi": 71,
            "name": "B4",
            "ticks": 152352,
            "time": 198.375,
            "velocity": 0.5039370078740157
          },
          {
            "duration": 0.5,
            "durationTicks": 384,
            "midi": 71,
            "name": "B4",
            "ticks": 153600,
            "time": 200,
            "velocity": 0.5039370078740157
          },
          {
            "duration": 0.5,
            "durationTicks": 384,
            "midi": 70,
            "name": "A#4",
            "ticks": 153984,
            "time": 200.5,
            "velocity": 0.5039370078740157
          },
          {
            "duration": 0.625,
            "durationTicks": 480,
            "midi": 68,
            "name": "G#4",
            "ticks": 154368,
            "time": 201,
            "velocity": 0.5039370078740157
          },
          {
            "duration": 0.375,
            "durationTicks": 288,
            "midi": 68,
            "name": "G#4",
            "ticks": 154848,
            "time": 201.625,
            "velocity": 0.5039370078740157
          },
          {
            "duration": 0.1875,
            "durationTicks": 144,
            "midi": 68,
            "name": "G#4",
            "ticks": 155136,
            "time": 202,
            "velocity": 0.5039370078740157
          },
          {
            "duration": 0.25,
            "durationTicks": 192,
            "midi": 66,
            "name": "F#4",
            "ticks": 155328,
            "time": 202.25,
            "velocity": 0.5039370078740157
          },
          {
            "duration": 0.25,
            "durationTicks": 192,
            "midi": 66,
            "name": "F#4",
            "ticks": 155520,
            "time": 202.5,
            "velocity": 0.5039370078740157
          },
          {
            "duration": 0.0625,
            "durationTicks": 48,
            "midi": 64,
            "name": "E4",
            "ticks": 155712,
            "time": 202.75,
            "velocity": 0.5039370078740157
          },
          {
            "duration": 0.375,
            "durationTicks": 288,
            "midi": 64,
            "name": "E4",
            "ticks": 155808,
            "time": 202.875,
            "velocity": 0.5039370078740157
          },
          {
            "duration": 0.25,
            "durationTicks": 192,
            "midi": 61,
            "name": "C#4",
            "ticks": 156096,
            "time": 203.25,
            "velocity": 0.4015748031496063
          },
          {
            "duration": 0.125,
            "durationTicks": 96,
            "midi": 64,
            "name": "E4",
            "ticks": 156288,
            "time": 203.5,
            "velocity": 0.5039370078740157
          },
          {
            "duration": 0.25,
            "durationTicks": 192,
            "midi": 66,
            "name": "F#4",
            "ticks": 156384,
            "time": 203.625,
            "velocity": 0.5039370078740157
          },
          {
            "duration": 0.375,
            "durationTicks": 288,
            "midi": 66,
            "name": "F#4",
            "ticks": 156576,
            "time": 203.875,
            "velocity": 0.5039370078740157
          },
          {
            "duration": 0.25,
            "durationTicks": 192,
            "midi": 66,
            "name": "F#4",
            "ticks": 156864,
            "time": 204.25,
            "velocity": 0.5039370078740157
          },
          {
            "duration": 0.1875,
            "durationTicks": 144,
            "midi": 64,
            "name": "E4",
            "ticks": 157056,
            "time": 204.5,
            "velocity": 0.5039370078740157
          },
          {
            "duration": 0.125,
            "durationTicks": 96,
            "midi": 64,
            "name": "E4",
            "ticks": 157248,
            "time": 204.75,
            "velocity": 0.5039370078740157
          },
          {
            "duration": 0.625,
            "durationTicks": 480,
            "midi": 66,
            "name": "F#4",
            "ticks": 157344,
            "time": 204.875,
            "velocity": 0.5039370078740157
          },
          {
            "duration": 0.5,
            "durationTicks": 384,
            "midi": 64,
            "name": "E4",
            "ticks": 157824,
            "time": 205.5,
            "velocity": 0.5039370078740157
          },
          {
            "duration": 0.375,
            "durationTicks": 288,
            "midi": 71,
            "name": "B4",
            "ticks": 158208,
            "time": 206,
            "velocity": 0.5039370078740157
          },
          {
            "duration": 0.875,
            "durationTicks": 672,
            "midi": 71,
            "name": "B4",
            "ticks": 158496,
            "time": 206.375,
            "velocity": 0.5039370078740157
          },
          {
            "duration": 0.75,
            "durationTicks": 576,
            "midi": 78,
            "name": "F#5",
            "ticks": 158784,
            "time": 206.75,
            "velocity": 0.6141732283464567
          },
          {
            "duration": 0.75,
            "durationTicks": 576,
            "midi": 76,
            "name": "E5",
            "ticks": 159360,
            "time": 207.5,
            "velocity": 0.6141732283464567
          },
          {
            "duration": 0.5,
            "durationTicks": 384,
            "midi": 71,
            "name": "B4",
            "ticks": 159744,
            "time": 208,
            "velocity": 0.5039370078740157
          },
          {
            "duration": 0.5,
            "durationTicks": 384,
            "midi": 70,
            "name": "A#4",
            "ticks": 160128,
            "time": 208.5,
            "velocity": 0.5039370078740157
          },
          {
            "duration": 0.625,
            "durationTicks": 480,
            "midi": 68,
            "name": "G#4",
            "ticks": 160512,
            "time": 209,
            "velocity": 0.5039370078740157
          },
          {
            "duration": 0.375,
            "durationTicks": 288,
            "midi": 68,
            "name": "G#4",
            "ticks": 160992,
            "time": 209.625,
            "velocity": 0.5039370078740157
          },
          {
            "duration": 0.125,
            "durationTicks": 96,
            "midi": 68,
            "name": "G#4",
            "ticks": 161280,
            "time": 210,
            "velocity": 0.5039370078740157
          },
          {
            "duration": 0.25,
            "durationTicks": 192,
            "midi": 66,
            "name": "F#4",
            "ticks": 161472,
            "time": 210.25,
            "velocity": 0.5039370078740157
          },
          {
            "duration": 0.25,
            "durationTicks": 192,
            "midi": 66,
            "name": "F#4",
            "ticks": 161664,
            "time": 210.5,
            "velocity": 0.5039370078740157
          },
          {
            "duration": 0.125,
            "durationTicks": 96,
            "midi": 64,
            "name": "E4",
            "ticks": 161856,
            "time": 210.75,
            "velocity": 0.5039370078740157
          },
          {
            "duration": 0.375,
            "durationTicks": 288,
            "midi": 64,
            "name": "E4",
            "ticks": 161952,
            "time": 210.875,
            "velocity": 0.5039370078740157
          },
          {
            "duration": 0.25,
            "durationTicks": 192,
            "midi": 61,
            "name": "C#4",
            "ticks": 162240,
            "time": 211.25,
            "velocity": 0.5039370078740157
          },
          {
            "duration": 0.25,
            "durationTicks": 192,
            "midi": 64,
            "name": "E4",
            "ticks": 162432,
            "time": 211.5,
            "velocity": 0.5039370078740157
          },
          {
            "duration": 0.125,
            "durationTicks": 96,
            "midi": 66,
            "name": "F#4",
            "ticks": 162624,
            "time": 211.75,
            "velocity": 0.5039370078740157
          },
          {
            "duration": 0.5,
            "durationTicks": 384,
            "midi": 85,
            "name": "C#6",
            "ticks": 163968,
            "time": 213.5,
            "velocity": 0.5039370078740157
          },
          {
            "duration": 0.5,
            "durationTicks": 384,
            "midi": 85,
            "name": "C#6",
            "ticks": 164736,
            "time": 214.5,
            "velocity": 0.5039370078740157
          },
          {
            "duration": 0.1875,
            "durationTicks": 144,
            "midi": 68,
            "name": "G#4",
            "ticks": 166848,
            "time": 217.25,
            "velocity": 0.5039370078740157
          },
          {
            "duration": 0.1875,
            "durationTicks": 144,
            "midi": 71,
            "name": "B4",
            "ticks": 167040,
            "time": 217.5,
            "velocity": 0.5039370078740157
          },
          {
            "duration": 0.1875,
            "durationTicks": 144,
            "midi": 68,
            "name": "G#4",
            "ticks": 167232,
            "time": 217.75,
            "velocity": 0.5039370078740157
          },
          {
            "duration": 0.375,
            "durationTicks": 288,
            "midi": 71,
            "name": "B4",
            "ticks": 167424,
            "time": 218,
            "velocity": 0.5039370078740157
          },
          {
            "duration": 0.875,
            "durationTicks": 672,
            "midi": 71,
            "name": "B4",
            "ticks": 167712,
            "time": 218.375,
            "velocity": 0.5039370078740157
          },
          {
            "duration": 0.5,
            "durationTicks": 384,
            "midi": 71,
            "name": "B4",
            "ticks": 168960,
            "time": 220,
            "velocity": 0.5039370078740157
          },
          {
            "duration": 0.5,
            "durationTicks": 384,
            "midi": 70,
            "name": "A#4",
            "ticks": 169344,
            "time": 220.5,
            "velocity": 0.5039370078740157
          },
          {
            "duration": 0.625,
            "durationTicks": 480,
            "midi": 68,
            "name": "G#4",
            "ticks": 169728,
            "time": 221,
            "velocity": 0.5039370078740157
          },
          {
            "duration": 0.375,
            "durationTicks": 288,
            "midi": 68,
            "name": "G#4",
            "ticks": 170208,
            "time": 221.625,
            "velocity": 0.5039370078740157
          },
          {
            "duration": 0.1875,
            "durationTicks": 144,
            "midi": 68,
            "name": "G#4",
            "ticks": 170496,
            "time": 222,
            "velocity": 0.5039370078740157
          },
          {
            "duration": 0.25,
            "durationTicks": 192,
            "midi": 66,
            "name": "F#4",
            "ticks": 170688,
            "time": 222.25,
            "velocity": 0.5039370078740157
          },
          {
            "duration": 0.25,
            "durationTicks": 192,
            "midi": 66,
            "name": "F#4",
            "ticks": 170880,
            "time": 222.5,
            "velocity": 0.5039370078740157
          },
          {
            "duration": 0.0625,
            "durationTicks": 48,
            "midi": 64,
            "name": "E4",
            "ticks": 171072,
            "time": 222.75,
            "velocity": 0.5039370078740157
          },
          {
            "duration": 0.375,
            "durationTicks": 288,
            "midi": 64,
            "name": "E4",
            "ticks": 171168,
            "time": 222.875,
            "velocity": 0.5039370078740157
          },
          {
            "duration": 0.25,
            "durationTicks": 192,
            "midi": 61,
            "name": "C#4",
            "ticks": 171456,
            "time": 223.25,
            "velocity": 0.4015748031496063
          },
          {
            "duration": 0.125,
            "durationTicks": 96,
            "midi": 64,
            "name": "E4",
            "ticks": 171648,
            "time": 223.5,
            "velocity": 0.5039370078740157
          },
          {
            "duration": 0.25,
            "durationTicks": 192,
            "midi": 66,
            "name": "F#4",
            "ticks": 171744,
            "time": 223.625,
            "velocity": 0.5039370078740157
          },
          {
            "duration": 0.375,
            "durationTicks": 288,
            "midi": 66,
            "name": "F#4",
            "ticks": 171936,
            "time": 223.875,
            "velocity": 0.5039370078740157
          },
          {
            "duration": 0.25,
            "durationTicks": 192,
            "midi": 66,
            "name": "F#4",
            "ticks": 172224,
            "time": 224.25,
            "velocity": 0.5039370078740157
          },
          {
            "duration": 0.1875,
            "durationTicks": 144,
            "midi": 64,
            "name": "E4",
            "ticks": 172416,
            "time": 224.5,
            "velocity": 0.5039370078740157
          },
          {
            "duration": 0.125,
            "durationTicks": 96,
            "midi": 64,
            "name": "E4",
            "ticks": 172608,
            "time": 224.75,
            "velocity": 0.5039370078740157
          },
          {
            "duration": 0.625,
            "durationTicks": 480,
            "midi": 66,
            "name": "F#4",
            "ticks": 172704,
            "time": 224.875,
            "velocity": 0.5039370078740157
          },
          {
            "duration": 0.5,
            "durationTicks": 384,
            "midi": 64,
            "name": "E4",
            "ticks": 173184,
            "time": 225.5,
            "velocity": 0.5039370078740157
          },
          {
            "duration": 0.375,
            "durationTicks": 288,
            "midi": 71,
            "name": "B4",
            "ticks": 173568,
            "time": 226,
            "velocity": 0.5039370078740157
          },
          {
            "duration": 0.875,
            "durationTicks": 672,
            "midi": 71,
            "name": "B4",
            "ticks": 173856,
            "time": 226.375,
            "velocity": 0.5039370078740157
          },
          {
            "duration": 0.75,
            "durationTicks": 576,
            "midi": 78,
            "name": "F#5",
            "ticks": 174144,
            "time": 226.75,
            "velocity": 0.6141732283464567
          },
          {
            "duration": 0.75,
            "durationTicks": 576,
            "midi": 76,
            "name": "E5",
            "ticks": 174720,
            "time": 227.5,
            "velocity": 0.6141732283464567
          },
          {
            "duration": 0.5,
            "durationTicks": 384,
            "midi": 71,
            "name": "B4",
            "ticks": 175104,
            "time": 228,
            "velocity": 0.5039370078740157
          },
          {
            "duration": 0.5,
            "durationTicks": 384,
            "midi": 70,
            "name": "A#4",
            "ticks": 175488,
            "time": 228.5,
            "velocity": 0.5039370078740157
          },
          {
            "duration": 0.625,
            "durationTicks": 480,
            "midi": 68,
            "name": "G#4",
            "ticks": 175872,
            "time": 229,
            "velocity": 0.5039370078740157
          },
          {
            "duration": 0.375,
            "durationTicks": 288,
            "midi": 68,
            "name": "G#4",
            "ticks": 176352,
            "time": 229.625,
            "velocity": 0.5039370078740157
          },
          {
            "duration": 0.125,
            "durationTicks": 96,
            "midi": 68,
            "name": "G#4",
            "ticks": 176640,
            "time": 230,
            "velocity": 0.5039370078740157
          },
          {
            "duration": 0.25,
            "durationTicks": 192,
            "midi": 66,
            "name": "F#4",
            "ticks": 176832,
            "time": 230.25,
            "velocity": 0.5039370078740157
          },
          {
            "duration": 0.25,
            "durationTicks": 192,
            "midi": 66,
            "name": "F#4",
            "ticks": 177024,
            "time": 230.5,
            "velocity": 0.5039370078740157
          },
          {
            "duration": 0.125,
            "durationTicks": 96,
            "midi": 64,
            "name": "E4",
            "ticks": 177216,
            "time": 230.75,
            "velocity": 0.5039370078740157
          },
          {
            "duration": 0.375,
            "durationTicks": 288,
            "midi": 64,
            "name": "E4",
            "ticks": 177312,
            "time": 230.875,
            "velocity": 0.5039370078740157
          },
          {
            "duration": 0.25,
            "durationTicks": 192,
            "midi": 61,
            "name": "C#4",
            "ticks": 177600,
            "time": 231.25,
            "velocity": 0.5039370078740157
          },
          {
            "duration": 0.25,
            "durationTicks": 192,
            "midi": 64,
            "name": "E4",
            "ticks": 177792,
            "time": 231.5,
            "velocity": 0.5039370078740157
          },
          {
            "duration": 0.125,
            "durationTicks": 96,
            "midi": 66,
            "name": "F#4",
            "ticks": 177984,
            "time": 231.75,
            "velocity": 0.5039370078740157
          },
          {
            "duration": 0.25,
            "durationTicks": 192,
            "midi": 64,
            "name": "E4",
            "ticks": 178368,
            "time": 232.25,
            "velocity": 0.5039370078740157
          },
          {
            "duration": 0.25,
            "durationTicks": 192,
            "midi": 61,
            "name": "C#4",
            "ticks": 178560,
            "time": 232.5,
            "velocity": 0.5039370078740157
          },
          {
            "duration": 0.25,
            "durationTicks": 192,
            "midi": 67,
            "name": "G4",
            "ticks": 178944,
            "time": 233,
            "velocity": 0.5039370078740157
          },
          {
            "duration": 0.25,
            "durationTicks": 192,
            "midi": 64,
            "name": "E4",
            "ticks": 179136,
            "time": 233.25,
            "velocity": 0.5039370078740157
          },
          {
            "duration": 0.5,
            "durationTicks": 384,
            "midi": 73,
            "name": "C#5",
            "ticks": 179520,
            "time": 233.75,
            "velocity": 0.5039370078740157
          },
          {
            "duration": 0.125,
            "durationTicks": 96,
            "midi": 59,
            "name": "B3",
            "ticks": 185184,
            "time": 241.125,
            "velocity": 0.1968503937007874
          },
          {
            "duration": 0.125,
            "durationTicks": 96,
            "midi": 59,
            "name": "B3",
            "ticks": 185280,
            "time": 241.25,
            "velocity": 0.1968503937007874
          },
          {
            "duration": 0.125,
            "durationTicks": 96,
            "midi": 59,
            "name": "B3",
            "ticks": 185376,
            "time": 241.375,
            "velocity": 0.1968503937007874
          },
          {
            "duration": 0.125,
            "durationTicks": 96,
            "midi": 59,
            "name": "B3",
            "ticks": 185472,
            "time": 241.5,
            "velocity": 0.1968503937007874
          },
          {
            "duration": 0.125,
            "durationTicks": 96,
            "midi": 59,
            "name": "B3",
            "ticks": 185568,
            "time": 241.625,
            "velocity": 0.1968503937007874
          },
          {
            "duration": 0.25,
            "durationTicks": 192,
            "midi": 59,
            "name": "B3",
            "ticks": 185664,
            "time": 241.75,
            "velocity": 0.1968503937007874
          },
          {
            "duration": 1,
            "durationTicks": 768,
            "midi": 61,
            "name": "C#4",
            "ticks": 185856,
            "time": 242,
            "velocity": 0.1968503937007874
          },
          {
            "duration": 0.125,
            "durationTicks": 96,
            "midi": 59,
            "name": "B3",
            "ticks": 197472,
            "time": 257.125,
            "velocity": 0.1968503937007874
          },
          {
            "duration": 0.125,
            "durationTicks": 96,
            "midi": 59,
            "name": "B3",
            "ticks": 197568,
            "time": 257.25,
            "velocity": 0.1968503937007874
          },
          {
            "duration": 0.125,
            "durationTicks": 96,
            "midi": 59,
            "name": "B3",
            "ticks": 197664,
            "time": 257.375,
            "velocity": 0.1968503937007874
          },
          {
            "duration": 0.125,
            "durationTicks": 96,
            "midi": 59,
            "name": "B3",
            "ticks": 197760,
            "time": 257.5,
            "velocity": 0.1968503937007874
          },
          {
            "duration": 0.125,
            "durationTicks": 96,
            "midi": 59,
            "name": "B3",
            "ticks": 197856,
            "time": 257.625,
            "velocity": 0.1968503937007874
          },
          {
            "duration": 0.25,
            "durationTicks": 192,
            "midi": 59,
            "name": "B3",
            "ticks": 197952,
            "time": 257.75,
            "velocity": 0.1968503937007874
          },
          {
            "duration": 1,
            "durationTicks": 768,
            "midi": 61,
            "name": "C#4",
            "ticks": 198144,
            "time": 258,
            "velocity": 0.1968503937007874
          },
          {
            "duration": 0.125,
            "durationTicks": 96,
            "midi": 59,
            "name": "B3",
            "ticks": 209760,
            "time": 273.125,
            "velocity": 0.3858267716535433
          },
          {
            "duration": 0.125,
            "durationTicks": 96,
            "midi": 59,
            "name": "B3",
            "ticks": 209856,
            "time": 273.25,
            "velocity": 0.3858267716535433
          },
          {
            "duration": 0.125,
            "durationTicks": 96,
            "midi": 59,
            "name": "B3",
            "ticks": 209952,
            "time": 273.375,
            "velocity": 0.3858267716535433
          },
          {
            "duration": 0.125,
            "durationTicks": 96,
            "midi": 59,
            "name": "B3",
            "ticks": 210048,
            "time": 273.5,
            "velocity": 0.3858267716535433
          },
          {
            "duration": 0.125,
            "durationTicks": 96,
            "midi": 59,
            "name": "B3",
            "ticks": 210144,
            "time": 273.625,
            "velocity": 0.3858267716535433
          },
          {
            "duration": 0.25,
            "durationTicks": 192,
            "midi": 59,
            "name": "B3",
            "ticks": 210240,
            "time": 273.75,
            "velocity": 0.3858267716535433
          },
          {
            "duration": 1.25,
            "durationTicks": 960,
            "midi": 61,
            "name": "C#4",
            "ticks": 210432,
            "time": 274,
            "velocity": 0.3858267716535433
          },
          {
            "duration": 0.625,
            "durationTicks": 480,
            "midi": 64,
            "name": "E4",
            "ticks": 211776,
            "time": 275.75,
            "velocity": 0.31496062992125984
          },
          {
            "duration": 0.375,
            "durationTicks": 288,
            "midi": 61,
            "name": "C#4",
            "ticks": 212256,
            "time": 276.375,
            "velocity": 0.31496062992125984
          },
          {
            "duration": 0.125,
            "durationTicks": 96,
            "midi": 61,
            "name": "C#4",
            "ticks": 212496,
            "time": 276.6875,
            "velocity": 0.31496062992125984
          },
          {
            "duration": 0.125,
            "durationTicks": 96,
            "midi": 59,
            "name": "B3",
            "ticks": 212832,
            "time": 277.125,
            "velocity": 0.31496062992125984
          },
          {
            "duration": 0.125,
            "durationTicks": 96,
            "midi": 61,
            "name": "C#4",
            "ticks": 212928,
            "time": 277.25,
            "velocity": 0.31496062992125984
          },
          {
            "duration": 0.25,
            "durationTicks": 192,
            "midi": 61,
            "name": "C#4",
            "ticks": 213024,
            "time": 277.375,
            "velocity": 0.31496062992125984
          },
          {
            "duration": 0.25,
            "durationTicks": 192,
            "midi": 61,
            "name": "C#4",
            "ticks": 213216,
            "time": 277.625,
            "velocity": 0.31496062992125984
          },
          {
            "duration": 0.125,
            "durationTicks": 96,
            "midi": 59,
            "name": "B3",
            "ticks": 213408,
            "time": 277.875,
            "velocity": 0.31496062992125984
          },
          {
            "duration": 0.25,
            "durationTicks": 192,
            "midi": 59,
            "name": "B3",
            "ticks": 213504,
            "time": 278,
            "velocity": 0.31496062992125984
          },
          {
            "duration": 1.125,
            "durationTicks": 864,
            "midi": 61,
            "name": "C#4",
            "ticks": 213696,
            "time": 278.25,
            "velocity": 0.31496062992125984
          },
          {
            "duration": 0.375,
            "durationTicks": 288,
            "midi": 68,
            "name": "G#4",
            "ticks": 214656,
            "time": 279.5,
            "velocity": 0.3858267716535433
          },
          {
            "duration": 0.5,
            "durationTicks": 384,
            "midi": 64,
            "name": "E4",
            "ticks": 214944,
            "time": 279.875,
            "velocity": 0.3858267716535433
          },
          {
            "duration": 0.25,
            "durationTicks": 192,
            "midi": 64,
            "name": "E4",
            "ticks": 215280,
            "time": 280.3125,
            "velocity": 0.3858267716535433
          },
          {
            "duration": 0.125,
            "durationTicks": 96,
            "midi": 59,
            "name": "B3",
            "ticks": 215904,
            "time": 281.125,
            "velocity": 0.31496062992125984
          },
          {
            "duration": 0.125,
            "durationTicks": 96,
            "midi": 59,
            "name": "B3",
            "ticks": 216000,
            "time": 281.25,
            "velocity": 0.31496062992125984
          },
          {
            "duration": 0.125,
            "durationTicks": 96,
            "midi": 59,
            "name": "B3",
            "ticks": 216096,
            "time": 281.375,
            "velocity": 0.31496062992125984
          },
          {
            "duration": 0.125,
            "durationTicks": 96,
            "midi": 59,
            "name": "B3",
            "ticks": 216192,
            "time": 281.5,
            "velocity": 0.31496062992125984
          },
          {
            "duration": 0.125,
            "durationTicks": 96,
            "midi": 59,
            "name": "B3",
            "ticks": 216288,
            "time": 281.625,
            "velocity": 0.31496062992125984
          },
          {
            "duration": 0.25,
            "durationTicks": 192,
            "midi": 59,
            "name": "B3",
            "ticks": 216384,
            "time": 281.75,
            "velocity": 0.31496062992125984
          },
          {
            "duration": 1,
            "durationTicks": 768,
            "midi": 61,
            "name": "C#4",
            "ticks": 216576,
            "time": 282,
            "velocity": 0.31496062992125984
          },
          {
            "duration": 0.625,
            "durationTicks": 480,
            "midi": 64,
            "name": "E4",
            "ticks": 217920,
            "time": 283.75,
            "velocity": 0.31496062992125984
          },
          {
            "duration": 0.375,
            "durationTicks": 288,
            "midi": 61,
            "name": "C#4",
            "ticks": 218352,
            "time": 284.3125,
            "velocity": 0.31496062992125984
          },
          {
            "duration": 0.125,
            "durationTicks": 96,
            "midi": 61,
            "name": "C#4",
            "ticks": 218592,
            "time": 284.625,
            "velocity": 0.31496062992125984
          },
          {
            "duration": 0.125,
            "durationTicks": 96,
            "midi": 59,
            "name": "B3",
            "ticks": 218976,
            "time": 285.125,
            "velocity": 0.31496062992125984
          },
          {
            "duration": 0.125,
            "durationTicks": 96,
            "midi": 61,
            "name": "C#4",
            "ticks": 219072,
            "time": 285.25,
            "velocity": 0.31496062992125984
          },
          {
            "duration": 0.25,
            "durationTicks": 192,
            "midi": 61,
            "name": "C#4",
            "ticks": 219168,
            "time": 285.375,
            "velocity": 0.31496062992125984
          },
          {
            "duration": 0.25,
            "durationTicks": 192,
            "midi": 61,
            "name": "C#4",
            "ticks": 219360,
            "time": 285.625,
            "velocity": 0.31496062992125984
          },
          {
            "duration": 0.125,
            "durationTicks": 96,
            "midi": 59,
            "name": "B3",
            "ticks": 219552,
            "time": 285.875,
            "velocity": 0.31496062992125984
          },
          {
            "duration": 0.25,
            "durationTicks": 192,
            "midi": 59,
            "name": "B3",
            "ticks": 219648,
            "time": 286,
            "velocity": 0.31496062992125984
          },
          {
            "duration": 1.125,
            "durationTicks": 864,
            "midi": 61,
            "name": "C#4",
            "ticks": 219840,
            "time": 286.25,
            "velocity": 0.31496062992125984
          },
          {
            "duration": 0.375,
            "durationTicks": 288,
            "midi": 68,
            "name": "G#4",
            "ticks": 220800,
            "time": 287.5,
            "velocity": 0.3858267716535433
          },
          {
            "duration": 0.375,
            "durationTicks": 288,
            "midi": 64,
            "name": "E4",
            "ticks": 221088,
            "time": 287.875,
            "velocity": 0.3858267716535433
          },
          {
            "duration": 0.625,
            "durationTicks": 480,
            "midi": 64,
            "name": "E4",
            "ticks": 221376,
            "time": 288.25,
            "velocity": 0.3858267716535433
          },
          {
            "duration": 0.125,
            "durationTicks": 96,
            "midi": 67,
            "name": "G4",
            "ticks": 222240,
            "time": 289.375,
            "velocity": 0.3858267716535433
          },
          {
            "duration": 0.25,
            "durationTicks": 192,
            "midi": 66,
            "name": "F#4",
            "ticks": 222336,
            "time": 289.5,
            "velocity": 0.3858267716535433
          },
          {
            "duration": 0.625,
            "durationTicks": 480,
            "midi": 61,
            "name": "C#4",
            "ticks": 222528,
            "time": 289.75,
            "velocity": 0.3858267716535433
          },
          {
            "duration": 0.875,
            "durationTicks": 672,
            "midi": 61,
            "name": "C#4",
            "ticks": 223008,
            "time": 290.375,
            "velocity": 0.31496062992125984
          },
          {
            "duration": 0.75,
            "durationTicks": 576,
            "midi": 64,
            "name": "E4",
            "ticks": 224112,
            "time": 291.8125,
            "velocity": 0.3858267716535433
          },
          {
            "duration": 0.125,
            "durationTicks": 96,
            "midi": 59,
            "name": "B3",
            "ticks": 228192,
            "time": 297.125,
            "velocity": 0.25196850393700787
          },
          {
            "duration": 0.125,
            "durationTicks": 96,
            "midi": 59,
            "name": "B3",
            "ticks": 228288,
            "time": 297.25,
            "velocity": 0.25196850393700787
          },
          {
            "duration": 0.125,
            "durationTicks": 96,
            "midi": 59,
            "name": "B3",
            "ticks": 228384,
            "time": 297.375,
            "velocity": 0.25196850393700787
          },
          {
            "duration": 0.125,
            "durationTicks": 96,
            "midi": 59,
            "name": "B3",
            "ticks": 228480,
            "time": 297.5,
            "velocity": 0.25196850393700787
          },
          {
            "duration": 0.125,
            "durationTicks": 96,
            "midi": 59,
            "name": "B3",
            "ticks": 228576,
            "time": 297.625,
            "velocity": 0.25196850393700787
          },
          {
            "duration": 0.25,
            "durationTicks": 192,
            "midi": 59,
            "name": "B3",
            "ticks": 228672,
            "time": 297.75,
            "velocity": 0.25196850393700787
          },
          {
            "duration": 1,
            "durationTicks": 768,
            "midi": 61,
            "name": "C#4",
            "ticks": 228864,
            "time": 298,
            "velocity": 0.25196850393700787
          },
          {
            "duration": 0.75,
            "durationTicks": 576,
            "midi": 61,
            "name": "C#4",
            "ticks": 230208,
            "time": 299.75,
            "velocity": 0.25196850393700787
          },
          {
            "duration": 0.125,
            "durationTicks": 96,
            "midi": 59,
            "name": "B3",
            "ticks": 231264,
            "time": 301.125,
            "velocity": 0.25196850393700787
          },
          {
            "duration": 0.125,
            "durationTicks": 96,
            "midi": 59,
            "name": "B3",
            "ticks": 231360,
            "time": 301.25,
            "velocity": 0.25196850393700787
          },
          {
            "duration": 0.125,
            "durationTicks": 96,
            "midi": 59,
            "name": "B3",
            "ticks": 231456,
            "time": 301.375,
            "velocity": 0.25196850393700787
          },
          {
            "duration": 0.125,
            "durationTicks": 96,
            "midi": 59,
            "name": "B3",
            "ticks": 231552,
            "time": 301.5,
            "velocity": 0.25196850393700787
          },
          {
            "duration": 0.125,
            "durationTicks": 96,
            "midi": 59,
            "name": "B3",
            "ticks": 231648,
            "time": 301.625,
            "velocity": 0.25196850393700787
          },
          {
            "duration": 0.25,
            "durationTicks": 192,
            "midi": 59,
            "name": "B3",
            "ticks": 231744,
            "time": 301.75,
            "velocity": 0.25196850393700787
          },
          {
            "duration": 1,
            "durationTicks": 768,
            "midi": 61,
            "name": "C#4",
            "ticks": 231936,
            "time": 302,
            "velocity": 0.25196850393700787
          },
          {
            "duration": 0.375,
            "durationTicks": 288,
            "midi": 61,
            "name": "C#4",
            "ticks": 232992,
            "time": 303.375,
            "velocity": 0.31496062992125984
          },
          {
            "duration": 0.375,
            "durationTicks": 288,
            "midi": 61,
            "name": "C#4",
            "ticks": 233280,
            "time": 303.75,
            "velocity": 0.25196850393700787
          },
          {
            "duration": 0.25,
            "durationTicks": 192,
            "midi": 61,
            "name": "C#4",
            "ticks": 233520,
            "time": 304.0625,
            "velocity": 0.25196850393700787
          },
          {
            "duration": 0.375,
            "durationTicks": 288,
            "midi": 68,
            "name": "G#4",
            "ticks": 234720,
            "time": 305.625,
            "velocity": 0.3858267716535433
          },
          {
            "duration": 0.375,
            "durationTicks": 288,
            "midi": 64,
            "name": "E4",
            "ticks": 235104,
            "time": 306.125,
            "velocity": 0.31496062992125984
          },
          {
            "duration": 0.75,
            "durationTicks": 576,
            "midi": 61,
            "name": "C#4",
            "ticks": 236352,
            "time": 307.75,
            "velocity": 0.31496062992125984
          },
          {
            "duration": 0.125,
            "durationTicks": 96,
            "midi": 61,
            "name": "C#4",
            "ticks": 237408,
            "time": 309.125,
            "velocity": 0.25196850393700787
          },
          {
            "duration": 0.125,
            "durationTicks": 96,
            "midi": 61,
            "name": "C#4",
            "ticks": 237504,
            "time": 309.25,
            "velocity": 0.25196850393700787
          },
          {
            "duration": 0.125,
            "durationTicks": 96,
            "midi": 61,
            "name": "C#4",
            "ticks": 237600,
            "time": 309.375,
            "velocity": 0.25196850393700787
          },
          {
            "duration": 0.125,
            "durationTicks": 96,
            "midi": 61,
            "name": "C#4",
            "ticks": 237696,
            "time": 309.5,
            "velocity": 0.25196850393700787
          },
          {
            "duration": 0.125,
            "durationTicks": 96,
            "midi": 59,
            "name": "B3",
            "ticks": 237792,
            "time": 309.625,
            "velocity": 0.25196850393700787
          },
          {
            "duration": 0.25,
            "durationTicks": 192,
            "midi": 59,
            "name": "B3",
            "ticks": 237888,
            "time": 309.75,
            "velocity": 0.25196850393700787
          },
          {
            "duration": 1,
            "durationTicks": 768,
            "midi": 61,
            "name": "C#4",
            "ticks": 238080,
            "time": 310,
            "velocity": 0.25196850393700787
          },
          {
            "duration": 0.25,
            "durationTicks": 192,
            "midi": 59,
            "name": "B3",
            "ticks": 240192,
            "time": 312.75,
            "velocity": 0.25196850393700787
          },
          {
            "duration": 0.125,
            "durationTicks": 96,
            "midi": 59,
            "name": "B3",
            "ticks": 240384,
            "time": 313,
            "velocity": 0.25196850393700787
          },
          {
            "duration": 0.125,
            "durationTicks": 96,
            "midi": 59,
            "name": "B3",
            "ticks": 240480,
            "time": 313.125,
            "velocity": 0.31496062992125984
          },
          {
            "duration": 0.125,
            "durationTicks": 96,
            "midi": 59,
            "name": "B3",
            "ticks": 240576,
            "time": 313.25,
            "velocity": 0.31496062992125984
          },
          {
            "duration": 0.125,
            "durationTicks": 96,
            "midi": 59,
            "name": "B3",
            "ticks": 240672,
            "time": 313.375,
            "velocity": 0.31496062992125984
          },
          {
            "duration": 0.125,
            "durationTicks": 96,
            "midi": 59,
            "name": "B3",
            "ticks": 240768,
            "time": 313.5,
            "velocity": 0.31496062992125984
          },
          {
            "duration": 0.125,
            "durationTicks": 96,
            "midi": 59,
            "name": "B3",
            "ticks": 240864,
            "time": 313.625,
            "velocity": 0.31496062992125984
          },
          {
            "duration": 0.25,
            "durationTicks": 192,
            "midi": 59,
            "name": "B3",
            "ticks": 240960,
            "time": 313.75,
            "velocity": 0.31496062992125984
          },
          {
            "duration": 1,
            "durationTicks": 768,
            "midi": 61,
            "name": "C#4",
            "ticks": 241152,
            "time": 314,
            "velocity": 0.31496062992125984
          },
          {
            "duration": 0.125,
            "durationTicks": 96,
            "midi": 59,
            "name": "B3",
            "ticks": 243552,
            "time": 317.125,
            "velocity": 0.31496062992125984
          },
          {
            "duration": 0.125,
            "durationTicks": 96,
            "midi": 59,
            "name": "B3",
            "ticks": 243648,
            "time": 317.25,
            "velocity": 0.31496062992125984
          },
          {
            "duration": 0.125,
            "durationTicks": 96,
            "midi": 59,
            "name": "B3",
            "ticks": 243744,
            "time": 317.375,
            "velocity": 0.31496062992125984
          },
          {
            "duration": 0.25,
            "durationTicks": 192,
            "midi": 64,
            "name": "E4",
            "ticks": 243840,
            "time": 317.5,
            "velocity": 0.31496062992125984
          },
          {
            "duration": 0.25,
            "durationTicks": 192,
            "midi": 59,
            "name": "B3",
            "ticks": 243984,
            "time": 317.6875,
            "velocity": 0.31496062992125984
          },
          {
            "duration": 0.25,
            "durationTicks": 192,
            "midi": 59,
            "name": "B3",
            "ticks": 244128,
            "time": 317.875,
            "velocity": 0.31496062992125984
          },
          {
            "duration": 1,
            "durationTicks": 768,
            "midi": 61,
            "name": "C#4",
            "ticks": 244272,
            "time": 318.0625,
            "velocity": 0.31496062992125984
          },
          {
            "duration": 0.625,
            "durationTicks": 480,
            "midi": 64,
            "name": "E4",
            "ticks": 246816,
            "time": 321.375,
            "velocity": 0.31496062992125984
          }
        ],
        "endOfTrackTicks": 247296
      },
      {
        "channel": 0,
        "controlChanges": {},
        "pitchBends": [],
        "instrument": {
          "family": "piano",
          "number": 0,
          "name": "acoustic grand piano"
        },
        "name": "909 Drum Kit",
        "notes": [],
        "endOfTrackTicks": 247296
      }
    ]
  }