{
    "header": {
      "keySignatures": [],
      "meta": [],
      "name": "",
      "ppq": 384,
      "tempos": [
        {
          "bpm": 110.00011000011,
          "ticks": 0
        }
      ],
      "timeSignatures": [
        {
          "ticks": 0,
          "timeSignature": [
            1,
            4
          ],
          "measures": 0
        }
      ]
    },
    "tracks": [
      {
        "channel": 0,
        "controlChanges": {},
        "pitchBends": [],
        "instrument": {
          "family": "piano",
          "number": 0,
          "name": "acoustic grand piano"
        },
        "name": "Elec. Piano (Classic)",
        "notes": [
          {
            "duration": 2.1818159999999978,
            "durationTicks": 1536,
            "midi": 67,
            "name": "G4",
            "ticks": 61440,
            "time": 87.27264,
            "velocity": 0.2440944881889764
          },
          {
            "duration": 1.0909079999999989,
            "durationTicks": 768,
            "midi": 74,
            "name": "D5",
            "ticks": 61440,
            "time": 87.27264,
            "velocity": 0.2440944881889764
          },
          {
            "duration": 2.1818159999999978,
            "durationTicks": 1536,
            "midi": 62,
            "name": "D4",
            "ticks": 61440,
            "time": 87.27264,
            "velocity": 0.2440944881889764
          },
          {
            "duration": 0.03409087500000396,
            "durationTicks": 24,
            "midi": 73,
            "name": "C#5",
            "ticks": 62208,
            "time": 88.363548,
            "velocity": 0.2440944881889764
          },
          {
            "duration": 0.03409087500000396,
            "durationTicks": 24,
            "midi": 74,
            "name": "D5",
            "ticks": 62280,
            "time": 88.46582062499999,
            "velocity": 0.2440944881889764
          },
          {
            "duration": 0.03409087499998975,
            "durationTicks": 24,
            "midi": 73,
            "name": "C#5",
            "ticks": 62352,
            "time": 88.56809325,
            "velocity": 0.2440944881889764
          },
          {
            "duration": 0.03409087500000396,
            "durationTicks": 24,
            "midi": 74,
            "name": "D5",
            "ticks": 62424,
            "time": 88.670365875,
            "velocity": 0.2440944881889764
          },
          {
            "duration": 0.03409087500000396,
            "durationTicks": 24,
            "midi": 73,
            "name": "C#5",
            "ticks": 62496,
            "time": 88.7726385,
            "velocity": 0.2440944881889764
          },
          {
            "duration": 0.03409087500000396,
            "durationTicks": 24,
            "midi": 74,
            "name": "D5",
            "ticks": 62568,
            "time": 88.874911125,
            "velocity": 0.2440944881889764
          },
          {
            "duration": 0.03409087500000396,
            "durationTicks": 24,
            "midi": 73,
            "name": "C#5",
            "ticks": 62640,
            "time": 88.97718375,
            "velocity": 0.2440944881889764
          },
          {
            "duration": 0.03409087500000396,
            "durationTicks": 24,
            "midi": 74,
            "name": "D5",
            "ticks": 62712,
            "time": 89.07945637499999,
            "velocity": 0.2440944881889764
          },
          {
            "duration": 0.03409087499998975,
            "durationTicks": 24,
            "midi": 73,
            "name": "C#5",
            "ticks": 62784,
            "time": 89.181729,
            "velocity": 0.2440944881889764
          },
          {
            "duration": 0.03409087500000396,
            "durationTicks": 24,
            "midi": 74,
            "name": "D5",
            "ticks": 62856,
            "time": 89.284001625,
            "velocity": 0.2440944881889764
          },
          {
            "duration": 0.13636350000000164,
            "durationTicks": 96,
            "midi": 70,
            "name": "A#4",
            "ticks": 63552,
            "time": 90.272637,
            "velocity": 0.2440944881889764
          },
          {
            "duration": 0.13636350000000164,
            "durationTicks": 96,
            "midi": 58,
            "name": "A#3",
            "ticks": 63552,
            "time": 90.272637,
            "velocity": 0.2440944881889764
          },
          {
            "duration": 0.13636350000000164,
            "durationTicks": 96,
            "midi": 60,
            "name": "C4",
            "ticks": 63744,
            "time": 90.54536399999999,
            "velocity": 0.2440944881889764
          },
          {
            "duration": 0.13636350000000164,
            "durationTicks": 96,
            "midi": 72,
            "name": "C5",
            "ticks": 63744,
            "time": 90.54536399999999,
            "velocity": 0.2440944881889764
          },
          {
            "duration": 0.13636350000000164,
            "durationTicks": 96,
            "midi": 58,
            "name": "A#3",
            "ticks": 64032,
            "time": 90.9544545,
            "velocity": 0.2440944881889764
          },
          {
            "duration": 0.13636350000000164,
            "durationTicks": 96,
            "midi": 70,
            "name": "A#4",
            "ticks": 64032,
            "time": 90.9544545,
            "velocity": 0.2440944881889764
          },
          {
            "duration": 0.13636350000000164,
            "durationTicks": 96,
            "midi": 55,
            "name": "G3",
            "ticks": 64320,
            "time": 91.363545,
            "velocity": 0.2440944881889764
          },
          {
            "duration": 0.13636350000000164,
            "durationTicks": 96,
            "midi": 67,
            "name": "G4",
            "ticks": 64320,
            "time": 91.363545,
            "velocity": 0.2440944881889764
          },
          {
            "duration": 0.13636349999998743,
            "durationTicks": 96,
            "midi": 46,
            "name": "A#2",
            "ticks": 64512,
            "time": 91.636272,
            "velocity": 0.2440944881889764
          },
          {
            "duration": 0.13636349999998743,
            "durationTicks": 96,
            "midi": 58,
            "name": "A#3",
            "ticks": 64512,
            "time": 91.636272,
            "velocity": 0.2440944881889764
          },
          {
            "duration": 0.13636350000000164,
            "durationTicks": 96,
            "midi": 63,
            "name": "D#4",
            "ticks": 64704,
            "time": 91.908999,
            "velocity": 0.2440944881889764
          },
          {
            "duration": 0.13636350000000164,
            "durationTicks": 96,
            "midi": 51,
            "name": "D#3",
            "ticks": 64704,
            "time": 91.908999,
            "velocity": 0.2440944881889764
          },
          {
            "duration": 0.13636350000000164,
            "durationTicks": 96,
            "midi": 62,
            "name": "D4",
            "ticks": 64896,
            "time": 92.181726,
            "velocity": 0.2440944881889764
          },
          {
            "duration": 0.13636350000000164,
            "durationTicks": 96,
            "midi": 50,
            "name": "D3",
            "ticks": 64896,
            "time": 92.181726,
            "velocity": 0.2440944881889764
          },
          {
            "duration": 0.13636350000000164,
            "durationTicks": 96,
            "midi": 47,
            "name": "B2",
            "ticks": 65088,
            "time": 92.454453,
            "velocity": 0.2440944881889764
          },
          {
            "duration": 0.13636350000000164,
            "durationTicks": 96,
            "midi": 59,
            "name": "B3",
            "ticks": 65088,
            "time": 92.454453,
            "velocity": 0.2440944881889764
          },
          {
            "duration": 0.13636350000000164,
            "durationTicks": 96,
            "midi": 46,
            "name": "A#2",
            "ticks": 65280,
            "time": 92.72718,
            "velocity": 0.2440944881889764
          },
          {
            "duration": 0.13636350000000164,
            "durationTicks": 96,
            "midi": 58,
            "name": "A#3",
            "ticks": 65280,
            "time": 92.72718,
            "velocity": 0.2440944881889764
          },
          {
            "duration": 0.13636349999998743,
            "durationTicks": 96,
            "midi": 44,
            "name": "G#2",
            "ticks": 65376,
            "time": 92.8635435,
            "velocity": 0.2440944881889764
          },
          {
            "duration": 0.13636349999998743,
            "durationTicks": 96,
            "midi": 56,
            "name": "G#3",
            "ticks": 65376,
            "time": 92.8635435,
            "velocity": 0.2440944881889764
          },
          {
            "duration": 0.13636350000000164,
            "durationTicks": 96,
            "midi": 46,
            "name": "A#2",
            "ticks": 65472,
            "time": 92.999907,
            "velocity": 0.2440944881889764
          },
          {
            "duration": 0.13636350000000164,
            "durationTicks": 96,
            "midi": 58,
            "name": "A#3",
            "ticks": 65472,
            "time": 92.999907,
            "velocity": 0.2440944881889764
          },
          {
            "duration": 0.13636350000000164,
            "durationTicks": 96,
            "midi": 46,
            "name": "A#2",
            "ticks": 65664,
            "time": 93.272634,
            "velocity": 0.2440944881889764
          },
          {
            "duration": 0.13636350000000164,
            "durationTicks": 96,
            "midi": 58,
            "name": "A#3",
            "ticks": 65664,
            "time": 93.272634,
            "velocity": 0.2440944881889764
          },
          {
            "duration": 0.13636350000000164,
            "durationTicks": 96,
            "midi": 47,
            "name": "B2",
            "ticks": 65760,
            "time": 93.4089975,
            "velocity": 0.2440944881889764
          },
          {
            "duration": 0.13636350000000164,
            "durationTicks": 96,
            "midi": 59,
            "name": "B3",
            "ticks": 65760,
            "time": 93.4089975,
            "velocity": 0.2440944881889764
          },
          {
            "duration": 0.13636350000000164,
            "durationTicks": 96,
            "midi": 58,
            "name": "A#3",
            "ticks": 65856,
            "time": 93.545361,
            "velocity": 0.2440944881889764
          },
          {
            "duration": 0.13636350000000164,
            "durationTicks": 96,
            "midi": 46,
            "name": "A#2",
            "ticks": 65856,
            "time": 93.545361,
            "velocity": 0.2440944881889764
          },
          {
            "duration": 0.13636350000000164,
            "durationTicks": 96,
            "midi": 46,
            "name": "A#2",
            "ticks": 66048,
            "time": 93.818088,
            "velocity": 0.2440944881889764
          },
          {
            "duration": 0.13636350000000164,
            "durationTicks": 96,
            "midi": 58,
            "name": "A#3",
            "ticks": 66048,
            "time": 93.818088,
            "velocity": 0.2440944881889764
          },
          {
            "duration": 0.13636349999998743,
            "durationTicks": 96,
            "midi": 44,
            "name": "G#2",
            "ticks": 66144,
            "time": 93.9544515,
            "velocity": 0.2440944881889764
          },
          {
            "duration": 0.13636349999998743,
            "durationTicks": 96,
            "midi": 56,
            "name": "G#3",
            "ticks": 66144,
            "time": 93.9544515,
            "velocity": 0.2440944881889764
          },
          {
            "duration": 0.13636350000000164,
            "durationTicks": 96,
            "midi": 46,
            "name": "A#2",
            "ticks": 66240,
            "time": 94.09081499999999,
            "velocity": 0.2440944881889764
          },
          {
            "duration": 0.13636350000000164,
            "durationTicks": 96,
            "midi": 58,
            "name": "A#3",
            "ticks": 66240,
            "time": 94.09081499999999,
            "velocity": 0.2440944881889764
          },
          {
            "duration": 0.13636350000000164,
            "durationTicks": 96,
            "midi": 63,
            "name": "D#4",
            "ticks": 66432,
            "time": 94.363542,
            "velocity": 0.2440944881889764
          },
          {
            "duration": 0.13636350000000164,
            "durationTicks": 96,
            "midi": 51,
            "name": "D#3",
            "ticks": 66432,
            "time": 94.363542,
            "velocity": 0.2440944881889764
          },
          {
            "duration": 0.13636350000000164,
            "durationTicks": 96,
            "midi": 58,
            "name": "A#3",
            "ticks": 66624,
            "time": 94.636269,
            "velocity": 0.2440944881889764
          },
          {
            "duration": 0.13636350000000164,
            "durationTicks": 96,
            "midi": 46,
            "name": "A#2",
            "ticks": 66624,
            "time": 94.636269,
            "velocity": 0.2440944881889764
          },
          {
            "duration": 0.13636350000000164,
            "durationTicks": 96,
            "midi": 46,
            "name": "A#2",
            "ticks": 66816,
            "time": 94.908996,
            "velocity": 0.2440944881889764
          },
          {
            "duration": 0.13636350000000164,
            "durationTicks": 96,
            "midi": 58,
            "name": "A#3",
            "ticks": 66816,
            "time": 94.908996,
            "velocity": 0.2440944881889764
          },
          {
            "duration": 0.13636350000000164,
            "durationTicks": 96,
            "midi": 59,
            "name": "B3",
            "ticks": 66912,
            "time": 95.0453595,
            "velocity": 0.2440944881889764
          },
          {
            "duration": 0.13636350000000164,
            "durationTicks": 96,
            "midi": 47,
            "name": "B2",
            "ticks": 66912,
            "time": 95.0453595,
            "velocity": 0.2440944881889764
          },
          {
            "duration": 0.13636349999998743,
            "durationTicks": 96,
            "midi": 46,
            "name": "A#2",
            "ticks": 67008,
            "time": 95.181723,
            "velocity": 0.2440944881889764
          },
          {
            "duration": 0.13636349999998743,
            "durationTicks": 96,
            "midi": 58,
            "name": "A#3",
            "ticks": 67008,
            "time": 95.181723,
            "velocity": 0.2440944881889764
          },
          {
            "duration": 0.13636350000000164,
            "durationTicks": 96,
            "midi": 58,
            "name": "A#3",
            "ticks": 67200,
            "time": 95.45445,
            "velocity": 0.2440944881889764
          },
          {
            "duration": 0.13636350000000164,
            "durationTicks": 96,
            "midi": 46,
            "name": "A#2",
            "ticks": 67200,
            "time": 95.45445,
            "velocity": 0.2440944881889764
          },
          {
            "duration": 1.6363619999999912,
            "durationTicks": 1152,
            "midi": 67,
            "name": "G4",
            "ticks": 67584,
            "time": 95.999904,
            "velocity": 0.2440944881889764
          },
          {
            "duration": 0.5795448749999963,
            "durationTicks": 408,
            "midi": 74,
            "name": "D5",
            "ticks": 67584,
            "time": 95.999904,
            "velocity": 0.2440944881889764
          },
          {
            "duration": 1.6363619999999912,
            "durationTicks": 1152,
            "midi": 62,
            "name": "D4",
            "ticks": 67584,
            "time": 95.999904,
            "velocity": 0.2440944881889764
          },
          {
            "duration": 0.03409087500000396,
            "durationTicks": 24,
            "midi": 73,
            "name": "C#5",
            "ticks": 68064,
            "time": 96.6817215,
            "velocity": 0.2440944881889764
          },
          {
            "duration": 0.03409087500000396,
            "durationTicks": 24,
            "midi": 74,
            "name": "D5",
            "ticks": 68136,
            "time": 96.78399412499999,
            "velocity": 0.2440944881889764
          },
          {
            "duration": 0.03409087499998975,
            "durationTicks": 24,
            "midi": 73,
            "name": "C#5",
            "ticks": 68208,
            "time": 96.88626675,
            "velocity": 0.2440944881889764
          },
          {
            "duration": 0.03409087500000396,
            "durationTicks": 24,
            "midi": 74,
            "name": "D5",
            "ticks": 68280,
            "time": 96.988539375,
            "velocity": 0.2440944881889764
          },
          {
            "duration": 0.03409087500000396,
            "durationTicks": 24,
            "midi": 73,
            "name": "C#5",
            "ticks": 68352,
            "time": 97.090812,
            "velocity": 0.2440944881889764
          },
          {
            "duration": 0.03409087500000396,
            "durationTicks": 24,
            "midi": 74,
            "name": "D5",
            "ticks": 68424,
            "time": 97.193084625,
            "velocity": 0.2440944881889764
          },
          {
            "duration": 0.03409087500000396,
            "durationTicks": 24,
            "midi": 73,
            "name": "C#5",
            "ticks": 68496,
            "time": 97.29535725,
            "velocity": 0.2440944881889764
          },
          {
            "duration": 0.03409087500000396,
            "durationTicks": 24,
            "midi": 74,
            "name": "D5",
            "ticks": 68568,
            "time": 97.39762987499999,
            "velocity": 0.2440944881889764
          },
          {
            "duration": 0.03409087499998975,
            "durationTicks": 24,
            "midi": 73,
            "name": "C#5",
            "ticks": 68640,
            "time": 97.4999025,
            "velocity": 0.2440944881889764
          },
          {
            "duration": 0.03409087499998975,
            "durationTicks": 24,
            "midi": 74,
            "name": "D5",
            "ticks": 68712,
            "time": 97.602175125,
            "velocity": 0.2440944881889764
          },
          {
            "duration": 0.13636350000000164,
            "durationTicks": 96,
            "midi": 77,
            "name": "F5",
            "ticks": 68736,
            "time": 97.63626599999999,
            "velocity": 0.2440944881889764
          },
          {
            "duration": 0.13636350000000164,
            "durationTicks": 96,
            "midi": 65,
            "name": "F4",
            "ticks": 68736,
            "time": 97.63626599999999,
            "velocity": 0.2440944881889764
          },
          {
            "duration": 0.03409087500000396,
            "durationTicks": 24,
            "midi": 70,
            "name": "A#4",
            "ticks": 68832,
            "time": 97.7726295,
            "velocity": 0.2440944881889764
          },
          {
            "duration": 0.13636350000000164,
            "durationTicks": 96,
            "midi": 72,
            "name": "C5",
            "ticks": 68832,
            "time": 97.7726295,
            "velocity": 0.2440944881889764
          },
          {
            "duration": 0.03409087500000396,
            "durationTicks": 24,
            "midi": 58,
            "name": "A#3",
            "ticks": 68832,
            "time": 97.7726295,
            "velocity": 0.2440944881889764
          },
          {
            "duration": 0.13636350000000164,
            "durationTicks": 96,
            "midi": 60,
            "name": "C4",
            "ticks": 68856,
            "time": 97.806720375,
            "velocity": 0.2440944881889764
          },
          {
            "duration": 0.13636350000000164,
            "durationTicks": 96,
            "midi": 70,
            "name": "A#4",
            "ticks": 69120,
            "time": 98.18172,
            "velocity": 0.2440944881889764
          },
          {
            "duration": 0.13636350000000164,
            "durationTicks": 96,
            "midi": 58,
            "name": "A#3",
            "ticks": 69120,
            "time": 98.18172,
            "velocity": 0.2440944881889764
          },
          {
            "duration": 0.13636350000000164,
            "durationTicks": 96,
            "midi": 74,
            "name": "D5",
            "ticks": 69696,
            "time": 98.999901,
            "velocity": 0.2440944881889764
          },
          {
            "duration": 0.13636350000000164,
            "durationTicks": 96,
            "midi": 62,
            "name": "D4",
            "ticks": 69696,
            "time": 98.999901,
            "velocity": 0.2440944881889764
          },
          {
            "duration": 0.13636350000000164,
            "durationTicks": 96,
            "midi": 60,
            "name": "C4",
            "ticks": 69888,
            "time": 99.272628,
            "velocity": 0.2440944881889764
          },
          {
            "duration": 0.13636350000000164,
            "durationTicks": 96,
            "midi": 72,
            "name": "C5",
            "ticks": 69888,
            "time": 99.272628,
            "velocity": 0.2440944881889764
          },
          {
            "duration": 0.13636350000000164,
            "durationTicks": 96,
            "midi": 58,
            "name": "A#3",
            "ticks": 70176,
            "time": 99.6817185,
            "velocity": 0.2440944881889764
          },
          {
            "duration": 0.13636350000000164,
            "durationTicks": 96,
            "midi": 70,
            "name": "A#4",
            "ticks": 70176,
            "time": 99.6817185,
            "velocity": 0.2440944881889764
          },
          {
            "duration": 0.13636350000000164,
            "durationTicks": 96,
            "midi": 55,
            "name": "G3",
            "ticks": 70464,
            "time": 100.090809,
            "velocity": 0.2440944881889764
          },
          {
            "duration": 0.13636350000000164,
            "durationTicks": 96,
            "midi": 67,
            "name": "G4",
            "ticks": 70464,
            "time": 100.090809,
            "velocity": 0.2440944881889764
          },
          {
            "duration": 0.13636350000000164,
            "durationTicks": 96,
            "midi": 58,
            "name": "A#3",
            "ticks": 70656,
            "time": 100.363536,
            "velocity": 0.2440944881889764
          },
          {
            "duration": 0.13636350000000164,
            "durationTicks": 96,
            "midi": 46,
            "name": "A#2",
            "ticks": 70656,
            "time": 100.363536,
            "velocity": 0.2440944881889764
          },
          {
            "duration": 0.13636350000000164,
            "durationTicks": 96,
            "midi": 63,
            "name": "D#4",
            "ticks": 70848,
            "time": 100.636263,
            "velocity": 0.2440944881889764
          },
          {
            "duration": 0.13636350000000164,
            "durationTicks": 96,
            "midi": 51,
            "name": "D#3",
            "ticks": 70848,
            "time": 100.636263,
            "velocity": 0.2440944881889764
          },
          {
            "duration": 0.13636350000000164,
            "durationTicks": 96,
            "midi": 62,
            "name": "D4",
            "ticks": 71040,
            "time": 100.90899,
            "velocity": 0.2440944881889764
          },
          {
            "duration": 0.13636350000000164,
            "durationTicks": 96,
            "midi": 50,
            "name": "D3",
            "ticks": 71040,
            "time": 100.90899,
            "velocity": 0.2440944881889764
          },
          {
            "duration": 0.13636350000000164,
            "durationTicks": 96,
            "midi": 47,
            "name": "B2",
            "ticks": 71232,
            "time": 101.18171699999999,
            "velocity": 0.2440944881889764
          },
          {
            "duration": 0.13636350000000164,
            "durationTicks": 96,
            "midi": 59,
            "name": "B3",
            "ticks": 71232,
            "time": 101.18171699999999,
            "velocity": 0.2440944881889764
          },
          {
            "duration": 0.13636350000000164,
            "durationTicks": 96,
            "midi": 46,
            "name": "A#2",
            "ticks": 71424,
            "time": 101.454444,
            "velocity": 0.2440944881889764
          },
          {
            "duration": 0.13636350000000164,
            "durationTicks": 96,
            "midi": 58,
            "name": "A#3",
            "ticks": 71424,
            "time": 101.454444,
            "velocity": 0.2440944881889764
          },
          {
            "duration": 0.13636350000000164,
            "durationTicks": 96,
            "midi": 44,
            "name": "G#2",
            "ticks": 71520,
            "time": 101.5908075,
            "velocity": 0.2440944881889764
          },
          {
            "duration": 0.13636350000000164,
            "durationTicks": 96,
            "midi": 56,
            "name": "G#3",
            "ticks": 71520,
            "time": 101.5908075,
            "velocity": 0.2440944881889764
          },
          {
            "duration": 0.13636350000000164,
            "durationTicks": 96,
            "midi": 58,
            "name": "A#3",
            "ticks": 71616,
            "time": 101.727171,
            "velocity": 0.2440944881889764
          },
          {
            "duration": 0.13636350000000164,
            "durationTicks": 96,
            "midi": 46,
            "name": "A#2",
            "ticks": 71616,
            "time": 101.727171,
            "velocity": 0.2440944881889764
          },
          {
            "duration": 0.13636350000000164,
            "durationTicks": 96,
            "midi": 46,
            "name": "A#2",
            "ticks": 71808,
            "time": 101.999898,
            "velocity": 0.2440944881889764
          },
          {
            "duration": 0.13636350000000164,
            "durationTicks": 96,
            "midi": 58,
            "name": "A#3",
            "ticks": 71808,
            "time": 101.999898,
            "velocity": 0.2440944881889764
          },
          {
            "duration": 0.13636350000000164,
            "durationTicks": 96,
            "midi": 59,
            "name": "B3",
            "ticks": 71904,
            "time": 102.1362615,
            "velocity": 0.2440944881889764
          },
          {
            "duration": 0.13636350000000164,
            "durationTicks": 96,
            "midi": 47,
            "name": "B2",
            "ticks": 71904,
            "time": 102.1362615,
            "velocity": 0.2440944881889764
          },
          {
            "duration": 0.13636349999998743,
            "durationTicks": 96,
            "midi": 58,
            "name": "A#3",
            "ticks": 72000,
            "time": 102.272625,
            "velocity": 0.2440944881889764
          },
          {
            "duration": 0.13636349999998743,
            "durationTicks": 96,
            "midi": 46,
            "name": "A#2",
            "ticks": 72000,
            "time": 102.272625,
            "velocity": 0.2440944881889764
          },
          {
            "duration": 0.13636350000000164,
            "durationTicks": 96,
            "midi": 58,
            "name": "A#3",
            "ticks": 72192,
            "time": 102.545352,
            "velocity": 0.2440944881889764
          },
          {
            "duration": 0.13636350000000164,
            "durationTicks": 96,
            "midi": 56,
            "name": "G#3",
            "ticks": 72288,
            "time": 102.6817155,
            "velocity": 0.2440944881889764
          },
          {
            "duration": 0.13636350000000164,
            "durationTicks": 96,
            "midi": 58,
            "name": "A#3",
            "ticks": 72384,
            "time": 102.818079,
            "velocity": 0.2440944881889764
          },
          {
            "duration": 0.13636350000000164,
            "durationTicks": 96,
            "midi": 63,
            "name": "D#4",
            "ticks": 72576,
            "time": 103.090806,
            "velocity": 0.2440944881889764
          },
          {
            "duration": 0.13636350000000164,
            "durationTicks": 96,
            "midi": 58,
            "name": "A#3",
            "ticks": 72768,
            "time": 103.363533,
            "velocity": 0.2440944881889764
          },
          {
            "duration": 0.13636350000000164,
            "durationTicks": 96,
            "midi": 58,
            "name": "A#3",
            "ticks": 72960,
            "time": 103.63626,
            "velocity": 0.2440944881889764
          },
          {
            "duration": 0.13636350000000164,
            "durationTicks": 96,
            "midi": 59,
            "name": "B3",
            "ticks": 73056,
            "time": 103.7726235,
            "velocity": 0.2440944881889764
          },
          {
            "duration": 0.13636350000000164,
            "durationTicks": 96,
            "midi": 58,
            "name": "A#3",
            "ticks": 73152,
            "time": 103.908987,
            "velocity": 0.2440944881889764
          },
          {
            "duration": 0.13636350000000164,
            "durationTicks": 96,
            "midi": 58,
            "name": "A#3",
            "ticks": 73344,
            "time": 104.181714,
            "velocity": 0.2440944881889764
          }
        ],
        "endOfTrackTicks": 73440
      },
      {
        "channel": 1,
        "controlChanges": {},
        "pitchBends": [],
        "instrument": {
          "family": "bass",
          "number": 32,
          "name": "acoustic bass"
        },
        "name": "Bass (Classic)",
        "notes": [
          {
            "duration": 0.13636350000000164,
            "durationTicks": 96,
            "midi": 31,
            "name": "G1",
            "ticks": 43008,
            "time": 61.090848,
            "velocity": 0.3937007874015748
          },
          {
            "duration": 0.13636350000000164,
            "durationTicks": 96,
            "midi": 41,
            "name": "F2",
            "ticks": 43200,
            "time": 61.363575,
            "velocity": 0.3937007874015748
          },
          {
            "duration": 0.13636350000000164,
            "durationTicks": 96,
            "midi": 31,
            "name": "G1",
            "ticks": 43392,
            "time": 61.636302,
            "velocity": 0.3937007874015748
          },
          {
            "duration": 0.13636350000000164,
            "durationTicks": 96,
            "midi": 43,
            "name": "G2",
            "ticks": 43584,
            "time": 61.909029,
            "velocity": 0.3937007874015748
          },
          {
            "duration": 0.13636350000000164,
            "durationTicks": 96,
            "midi": 31,
            "name": "G1",
            "ticks": 43776,
            "time": 62.181756,
            "velocity": 0.3937007874015748
          },
          {
            "duration": 0.13636350000000164,
            "durationTicks": 96,
            "midi": 41,
            "name": "F2",
            "ticks": 43968,
            "time": 62.454482999999996,
            "velocity": 0.3937007874015748
          },
          {
            "duration": 0.13636350000000164,
            "durationTicks": 96,
            "midi": 31,
            "name": "G1",
            "ticks": 44160,
            "time": 62.72721,
            "velocity": 0.3937007874015748
          },
          {
            "duration": 0.13636349999999453,
            "durationTicks": 96,
            "midi": 43,
            "name": "G2",
            "ticks": 44352,
            "time": 62.999937,
            "velocity": 0.3937007874015748
          },
          {
            "duration": 0.13636350000000164,
            "durationTicks": 96,
            "midi": 31,
            "name": "G1",
            "ticks": 44544,
            "time": 63.272664,
            "velocity": 0.3937007874015748
          },
          {
            "duration": 0.13636349999999453,
            "durationTicks": 96,
            "midi": 41,
            "name": "F2",
            "ticks": 44736,
            "time": 63.545391,
            "velocity": 0.3937007874015748
          },
          {
            "duration": 0.13636350000000164,
            "durationTicks": 96,
            "midi": 31,
            "name": "G1",
            "ticks": 44928,
            "time": 63.818118,
            "velocity": 0.3937007874015748
          },
          {
            "duration": 0.13636350000000164,
            "durationTicks": 96,
            "midi": 43,
            "name": "G2",
            "ticks": 45120,
            "time": 64.090845,
            "velocity": 0.3937007874015748
          },
          {
            "duration": 0.13636349999998743,
            "durationTicks": 96,
            "midi": 31,
            "name": "G1",
            "ticks": 45312,
            "time": 64.363572,
            "velocity": 0.3937007874015748
          },
          {
            "duration": 0.13636350000000164,
            "durationTicks": 96,
            "midi": 41,
            "name": "F2",
            "ticks": 45504,
            "time": 64.636299,
            "velocity": 0.3937007874015748
          },
          {
            "duration": 0.13636350000000164,
            "durationTicks": 96,
            "midi": 31,
            "name": "G1",
            "ticks": 45696,
            "time": 64.909026,
            "velocity": 0.3937007874015748
          },
          {
            "duration": 0.13636350000000164,
            "durationTicks": 96,
            "midi": 43,
            "name": "G2",
            "ticks": 45888,
            "time": 65.181753,
            "velocity": 0.3937007874015748
          },
          {
            "duration": 0.13636350000000164,
            "durationTicks": 96,
            "midi": 31,
            "name": "G1",
            "ticks": 46080,
            "time": 65.45448,
            "velocity": 0.3937007874015748
          },
          {
            "duration": 0.13636350000000164,
            "durationTicks": 96,
            "midi": 41,
            "name": "F2",
            "ticks": 46272,
            "time": 65.72720699999999,
            "velocity": 0.3937007874015748
          },
          {
            "duration": 0.13636350000000164,
            "durationTicks": 96,
            "midi": 31,
            "name": "G1",
            "ticks": 46464,
            "time": 65.999934,
            "velocity": 0.3937007874015748
          },
          {
            "duration": 0.13636350000000164,
            "durationTicks": 96,
            "midi": 43,
            "name": "G2",
            "ticks": 46656,
            "time": 66.272661,
            "velocity": 0.3937007874015748
          },
          {
            "duration": 0.13636350000000164,
            "durationTicks": 96,
            "midi": 31,
            "name": "G1",
            "ticks": 46848,
            "time": 66.545388,
            "velocity": 0.3937007874015748
          },
          {
            "duration": 0.13636349999998743,
            "durationTicks": 96,
            "midi": 41,
            "name": "F2",
            "ticks": 47040,
            "time": 66.818115,
            "velocity": 0.3937007874015748
          },
          {
            "duration": 0.13636350000000164,
            "durationTicks": 96,
            "midi": 31,
            "name": "G1",
            "ticks": 47232,
            "time": 67.090842,
            "velocity": 0.3937007874015748
          },
          {
            "duration": 0.13636350000000164,
            "durationTicks": 96,
            "midi": 43,
            "name": "G2",
            "ticks": 47424,
            "time": 67.363569,
            "velocity": 0.3937007874015748
          },
          {
            "duration": 0.13636350000000164,
            "durationTicks": 96,
            "midi": 31,
            "name": "G1",
            "ticks": 47616,
            "time": 67.636296,
            "velocity": 0.3937007874015748
          },
          {
            "duration": 0.13636349999998743,
            "durationTicks": 96,
            "midi": 41,
            "name": "F2",
            "ticks": 47808,
            "time": 67.909023,
            "velocity": 0.3937007874015748
          },
          {
            "duration": 0.13636350000000164,
            "durationTicks": 96,
            "midi": 31,
            "name": "G1",
            "ticks": 48000,
            "time": 68.18175,
            "velocity": 0.3937007874015748
          },
          {
            "duration": 0.13636350000000164,
            "durationTicks": 96,
            "midi": 43,
            "name": "G2",
            "ticks": 48192,
            "time": 68.454477,
            "velocity": 0.3937007874015748
          },
          {
            "duration": 0.13636350000000164,
            "durationTicks": 96,
            "midi": 31,
            "name": "G1",
            "ticks": 48384,
            "time": 68.727204,
            "velocity": 0.3937007874015748
          },
          {
            "duration": 0.13636350000000164,
            "durationTicks": 96,
            "midi": 41,
            "name": "F2",
            "ticks": 48576,
            "time": 68.999931,
            "velocity": 0.3937007874015748
          },
          {
            "duration": 0.13636350000000164,
            "durationTicks": 96,
            "midi": 31,
            "name": "G1",
            "ticks": 48768,
            "time": 69.27265799999999,
            "velocity": 0.3937007874015748
          },
          {
            "duration": 0.13636350000000164,
            "durationTicks": 96,
            "midi": 43,
            "name": "G2",
            "ticks": 48960,
            "time": 69.545385,
            "velocity": 0.3937007874015748
          },
          {
            "duration": 0.13636350000000164,
            "durationTicks": 96,
            "midi": 31,
            "name": "G1",
            "ticks": 49152,
            "time": 69.818112,
            "velocity": 0.3937007874015748
          },
          {
            "duration": 0.13636350000000164,
            "durationTicks": 96,
            "midi": 41,
            "name": "F2",
            "ticks": 49344,
            "time": 70.090839,
            "velocity": 0.3937007874015748
          },
          {
            "duration": 0.13636349999998743,
            "durationTicks": 96,
            "midi": 31,
            "name": "G1",
            "ticks": 49536,
            "time": 70.363566,
            "velocity": 0.3937007874015748
          },
          {
            "duration": 0.13636350000000164,
            "durationTicks": 96,
            "midi": 43,
            "name": "G2",
            "ticks": 49728,
            "time": 70.636293,
            "velocity": 0.3937007874015748
          },
          {
            "duration": 0.13636350000000164,
            "durationTicks": 96,
            "midi": 31,
            "name": "G1",
            "ticks": 49920,
            "time": 70.90902,
            "velocity": 0.3937007874015748
          },
          {
            "duration": 0.13636350000000164,
            "durationTicks": 96,
            "midi": 41,
            "name": "F2",
            "ticks": 50112,
            "time": 71.181747,
            "velocity": 0.3937007874015748
          },
          {
            "duration": 0.13636350000000164,
            "durationTicks": 96,
            "midi": 31,
            "name": "G1",
            "ticks": 50304,
            "time": 71.454474,
            "velocity": 0.3937007874015748
          },
          {
            "duration": 0.13636350000000164,
            "durationTicks": 96,
            "midi": 43,
            "name": "G2",
            "ticks": 50496,
            "time": 71.727201,
            "velocity": 0.3937007874015748
          },
          {
            "duration": 0.13636350000000164,
            "durationTicks": 96,
            "midi": 31,
            "name": "G1",
            "ticks": 50688,
            "time": 71.999928,
            "velocity": 0.3937007874015748
          },
          {
            "duration": 0.13636350000000164,
            "durationTicks": 96,
            "midi": 41,
            "name": "F2",
            "ticks": 50880,
            "time": 72.272655,
            "velocity": 0.3937007874015748
          },
          {
            "duration": 0.13636350000000164,
            "durationTicks": 96,
            "midi": 31,
            "name": "G1",
            "ticks": 51072,
            "time": 72.545382,
            "velocity": 0.3937007874015748
          },
          {
            "duration": 0.13636350000000164,
            "durationTicks": 96,
            "midi": 43,
            "name": "G2",
            "ticks": 51264,
            "time": 72.81810899999999,
            "velocity": 0.3937007874015748
          },
          {
            "duration": 0.13636350000000164,
            "durationTicks": 96,
            "midi": 31,
            "name": "G1",
            "ticks": 51456,
            "time": 73.090836,
            "velocity": 0.3937007874015748
          },
          {
            "duration": 0.13636350000000164,
            "durationTicks": 96,
            "midi": 41,
            "name": "F2",
            "ticks": 51648,
            "time": 73.363563,
            "velocity": 0.3937007874015748
          },
          {
            "duration": 0.13636350000000164,
            "durationTicks": 96,
            "midi": 31,
            "name": "G1",
            "ticks": 51840,
            "time": 73.63629,
            "velocity": 0.3937007874015748
          },
          {
            "duration": 0.13636349999998743,
            "durationTicks": 96,
            "midi": 43,
            "name": "G2",
            "ticks": 52032,
            "time": 73.909017,
            "velocity": 0.3937007874015748
          },
          {
            "duration": 0.13636350000000164,
            "durationTicks": 96,
            "midi": 31,
            "name": "G1",
            "ticks": 52224,
            "time": 74.181744,
            "velocity": 0.3937007874015748
          },
          {
            "duration": 0.13636350000000164,
            "durationTicks": 96,
            "midi": 41,
            "name": "F2",
            "ticks": 52416,
            "time": 74.454471,
            "velocity": 0.3937007874015748
          },
          {
            "duration": 0.13636350000000164,
            "durationTicks": 96,
            "midi": 31,
            "name": "G1",
            "ticks": 52608,
            "time": 74.727198,
            "velocity": 0.3937007874015748
          },
          {
            "duration": 0.13636350000000164,
            "durationTicks": 96,
            "midi": 43,
            "name": "G2",
            "ticks": 52800,
            "time": 74.999925,
            "velocity": 0.3937007874015748
          },
          {
            "duration": 0.13636350000000164,
            "durationTicks": 96,
            "midi": 31,
            "name": "G1",
            "ticks": 52992,
            "time": 75.272652,
            "velocity": 0.3937007874015748
          },
          {
            "duration": 0.13636350000000164,
            "durationTicks": 96,
            "midi": 41,
            "name": "F2",
            "ticks": 53184,
            "time": 75.545379,
            "velocity": 0.3937007874015748
          },
          {
            "duration": 0.13636350000000164,
            "durationTicks": 96,
            "midi": 31,
            "name": "G1",
            "ticks": 53376,
            "time": 75.818106,
            "velocity": 0.3937007874015748
          },
          {
            "duration": 0.13636350000000164,
            "durationTicks": 96,
            "midi": 43,
            "name": "G2",
            "ticks": 53568,
            "time": 76.090833,
            "velocity": 0.3937007874015748
          },
          {
            "duration": 0.13636350000000164,
            "durationTicks": 96,
            "midi": 31,
            "name": "G1",
            "ticks": 53760,
            "time": 76.36355999999999,
            "velocity": 0.3937007874015748
          },
          {
            "duration": 0.13636350000000164,
            "durationTicks": 96,
            "midi": 41,
            "name": "F2",
            "ticks": 53952,
            "time": 76.636287,
            "velocity": 0.3937007874015748
          },
          {
            "duration": 0.13636350000000164,
            "durationTicks": 96,
            "midi": 31,
            "name": "G1",
            "ticks": 54144,
            "time": 76.909014,
            "velocity": 0.3937007874015748
          },
          {
            "duration": 0.13636350000000164,
            "durationTicks": 96,
            "midi": 43,
            "name": "G2",
            "ticks": 54336,
            "time": 77.181741,
            "velocity": 0.3937007874015748
          },
          {
            "duration": 0.13636349999998743,
            "durationTicks": 96,
            "midi": 31,
            "name": "G1",
            "ticks": 54528,
            "time": 77.454468,
            "velocity": 0.3937007874015748
          },
          {
            "duration": 0.13636350000000164,
            "durationTicks": 96,
            "midi": 41,
            "name": "F2",
            "ticks": 54720,
            "time": 77.727195,
            "velocity": 0.3937007874015748
          },
          {
            "duration": 0.13636350000000164,
            "durationTicks": 96,
            "midi": 31,
            "name": "G1",
            "ticks": 54912,
            "time": 77.999922,
            "velocity": 0.3937007874015748
          },
          {
            "duration": 0.13636350000000164,
            "durationTicks": 96,
            "midi": 43,
            "name": "G2",
            "ticks": 55104,
            "time": 78.272649,
            "velocity": 0.3937007874015748
          },
          {
            "duration": 0.13636350000000164,
            "durationTicks": 96,
            "midi": 31,
            "name": "G1",
            "ticks": 55296,
            "time": 78.545376,
            "velocity": 0.3937007874015748
          },
          {
            "duration": 0.13636350000000164,
            "durationTicks": 96,
            "midi": 41,
            "name": "F2",
            "ticks": 55488,
            "time": 78.818103,
            "velocity": 0.3937007874015748
          },
          {
            "duration": 0.13636350000000164,
            "durationTicks": 96,
            "midi": 31,
            "name": "G1",
            "ticks": 55680,
            "time": 79.09083,
            "velocity": 0.3937007874015748
          },
          {
            "duration": 0.13636350000000164,
            "durationTicks": 96,
            "midi": 43,
            "name": "G2",
            "ticks": 55872,
            "time": 79.363557,
            "velocity": 0.3937007874015748
          },
          {
            "duration": 0.13636350000000164,
            "durationTicks": 96,
            "midi": 31,
            "name": "G1",
            "ticks": 56064,
            "time": 79.636284,
            "velocity": 0.3937007874015748
          },
          {
            "duration": 0.13636350000000164,
            "durationTicks": 96,
            "midi": 41,
            "name": "F2",
            "ticks": 56256,
            "time": 79.90901099999999,
            "velocity": 0.3937007874015748
          },
          {
            "duration": 0.13636350000000164,
            "durationTicks": 96,
            "midi": 31,
            "name": "G1",
            "ticks": 56448,
            "time": 80.181738,
            "velocity": 0.3937007874015748
          },
          {
            "duration": 0.13636350000000164,
            "durationTicks": 96,
            "midi": 43,
            "name": "G2",
            "ticks": 56640,
            "time": 80.454465,
            "velocity": 0.3937007874015748
          },
          {
            "duration": 0.13636350000000164,
            "durationTicks": 96,
            "midi": 31,
            "name": "G1",
            "ticks": 56832,
            "time": 80.727192,
            "velocity": 0.3937007874015748
          },
          {
            "duration": 0.13636349999998743,
            "durationTicks": 96,
            "midi": 41,
            "name": "F2",
            "ticks": 57024,
            "time": 80.999919,
            "velocity": 0.3937007874015748
          },
          {
            "duration": 0.13636350000000164,
            "durationTicks": 96,
            "midi": 31,
            "name": "G1",
            "ticks": 57216,
            "time": 81.272646,
            "velocity": 0.3937007874015748
          },
          {
            "duration": 0.13636350000000164,
            "durationTicks": 96,
            "midi": 43,
            "name": "G2",
            "ticks": 57408,
            "time": 81.545373,
            "velocity": 0.3937007874015748
          },
          {
            "duration": 0.13636350000000164,
            "durationTicks": 96,
            "midi": 31,
            "name": "G1",
            "ticks": 57600,
            "time": 81.8181,
            "velocity": 0.3937007874015748
          },
          {
            "duration": 0.13636350000000164,
            "durationTicks": 96,
            "midi": 41,
            "name": "F2",
            "ticks": 57792,
            "time": 82.090827,
            "velocity": 0.3937007874015748
          },
          {
            "duration": 0.13636350000000164,
            "durationTicks": 96,
            "midi": 31,
            "name": "G1",
            "ticks": 57984,
            "time": 82.363554,
            "velocity": 0.3937007874015748
          },
          {
            "duration": 0.13636350000000164,
            "durationTicks": 96,
            "midi": 43,
            "name": "G2",
            "ticks": 58176,
            "time": 82.636281,
            "velocity": 0.3937007874015748
          },
          {
            "duration": 0.13636350000000164,
            "durationTicks": 96,
            "midi": 31,
            "name": "G1",
            "ticks": 58368,
            "time": 82.909008,
            "velocity": 0.3937007874015748
          },
          {
            "duration": 0.13636350000000164,
            "durationTicks": 96,
            "midi": 41,
            "name": "F2",
            "ticks": 58560,
            "time": 83.181735,
            "velocity": 0.3937007874015748
          },
          {
            "duration": 0.13636350000000164,
            "durationTicks": 96,
            "midi": 31,
            "name": "G1",
            "ticks": 58752,
            "time": 83.45446199999999,
            "velocity": 0.3937007874015748
          },
          {
            "duration": 0.13636350000000164,
            "durationTicks": 96,
            "midi": 43,
            "name": "G2",
            "ticks": 58944,
            "time": 83.727189,
            "velocity": 0.3937007874015748
          },
          {
            "duration": 0.13636350000000164,
            "durationTicks": 96,
            "midi": 31,
            "name": "G1",
            "ticks": 59136,
            "time": 83.999916,
            "velocity": 0.3937007874015748
          },
          {
            "duration": 0.13636350000000164,
            "durationTicks": 96,
            "midi": 41,
            "name": "F2",
            "ticks": 59328,
            "time": 84.272643,
            "velocity": 0.3937007874015748
          },
          {
            "duration": 0.13636349999998743,
            "durationTicks": 96,
            "midi": 31,
            "name": "G1",
            "ticks": 59520,
            "time": 84.54537,
            "velocity": 0.3937007874015748
          },
          {
            "duration": 0.13636350000000164,
            "durationTicks": 96,
            "midi": 43,
            "name": "G2",
            "ticks": 59712,
            "time": 84.818097,
            "velocity": 0.3937007874015748
          },
          {
            "duration": 0.13636350000000164,
            "durationTicks": 96,
            "midi": 31,
            "name": "G1",
            "ticks": 59904,
            "time": 85.090824,
            "velocity": 0.3937007874015748
          },
          {
            "duration": 0.13636350000000164,
            "durationTicks": 96,
            "midi": 41,
            "name": "F2",
            "ticks": 60096,
            "time": 85.363551,
            "velocity": 0.3937007874015748
          },
          {
            "duration": 0.13636350000000164,
            "durationTicks": 96,
            "midi": 31,
            "name": "G1",
            "ticks": 60288,
            "time": 85.636278,
            "velocity": 0.3937007874015748
          },
          {
            "duration": 0.13636350000000164,
            "durationTicks": 96,
            "midi": 43,
            "name": "G2",
            "ticks": 60480,
            "time": 85.909005,
            "velocity": 0.3937007874015748
          },
          {
            "duration": 0.13636350000000164,
            "durationTicks": 96,
            "midi": 31,
            "name": "G1",
            "ticks": 60672,
            "time": 86.181732,
            "velocity": 0.3937007874015748
          },
          {
            "duration": 0.13636350000000164,
            "durationTicks": 96,
            "midi": 41,
            "name": "F2",
            "ticks": 60864,
            "time": 86.454459,
            "velocity": 0.3937007874015748
          },
          {
            "duration": 0.13636350000000164,
            "durationTicks": 96,
            "midi": 31,
            "name": "G1",
            "ticks": 61056,
            "time": 86.727186,
            "velocity": 0.3937007874015748
          },
          {
            "duration": 0.13636350000000164,
            "durationTicks": 96,
            "midi": 43,
            "name": "G2",
            "ticks": 61248,
            "time": 86.99991299999999,
            "velocity": 0.3937007874015748
          }
        ],
        "endOfTrackTicks": 61344
      },
      {
        "channel": 2,
        "controlChanges": {},
        "pitchBends": [],
        "instrument": {
          "family": "synth lead",
          "number": 87,
          "name": "lead 8 (bass + lead)"
        },
        "name": "Synth Pluck",
        "notes": [
          {
            "duration": 0.2727269999999997,
            "durationTicks": 192,
            "midi": 43,
            "name": "G2",
            "ticks": 16896,
            "time": 23.999976,
            "velocity": 0.5275590551181102
          },
          {
            "duration": 0.2727269999999997,
            "durationTicks": 192,
            "midi": 36,
            "name": "C2",
            "ticks": 17088,
            "time": 24.272703,
            "velocity": 0.5275590551181102
          },
          {
            "duration": 0.2727269999999997,
            "durationTicks": 192,
            "midi": 41,
            "name": "F2",
            "ticks": 17280,
            "time": 24.54543,
            "velocity": 0.5275590551181102
          },
          {
            "duration": 0.2727269999999997,
            "durationTicks": 192,
            "midi": 34,
            "name": "A#1",
            "ticks": 17472,
            "time": 24.818157,
            "velocity": 0.5275590551181102
          },
          {
            "duration": 0.2727269999999997,
            "durationTicks": 192,
            "midi": 39,
            "name": "D#2",
            "ticks": 17664,
            "time": 25.090884,
            "velocity": 0.5275590551181102
          },
          {
            "duration": 0.2727269999999997,
            "durationTicks": 192,
            "midi": 32,
            "name": "G#1",
            "ticks": 17856,
            "time": 25.363611,
            "velocity": 0.5275590551181102
          },
          {
            "duration": 0.2727269999999997,
            "durationTicks": 192,
            "midi": 37,
            "name": "C#2",
            "ticks": 18048,
            "time": 25.636338,
            "velocity": 0.5275590551181102
          },
          {
            "duration": 0.2727270000000033,
            "durationTicks": 192,
            "midi": 30,
            "name": "F#1",
            "ticks": 18240,
            "time": 25.909065,
            "velocity": 0.5275590551181102
          },
          {
            "duration": 0.27272699999999617,
            "durationTicks": 192,
            "midi": 31,
            "name": "G1",
            "ticks": 29184,
            "time": 41.454504,
            "velocity": 0.5275590551181102
          },
          {
            "duration": 0.2727270000000033,
            "durationTicks": 192,
            "midi": 36,
            "name": "C2",
            "ticks": 29376,
            "time": 41.727230999999996,
            "velocity": 0.5275590551181102
          },
          {
            "duration": 0.2727270000000033,
            "durationTicks": 192,
            "midi": 33,
            "name": "A1",
            "ticks": 29568,
            "time": 41.999958,
            "velocity": 0.5275590551181102
          },
          {
            "duration": 0.27272699999999617,
            "durationTicks": 192,
            "midi": 38,
            "name": "D2",
            "ticks": 29760,
            "time": 42.272685,
            "velocity": 0.5275590551181102
          },
          {
            "duration": 0.2727270000000033,
            "durationTicks": 192,
            "midi": 34,
            "name": "A#1",
            "ticks": 29952,
            "time": 42.545412,
            "velocity": 0.5275590551181102
          },
          {
            "duration": 0.27272699999999617,
            "durationTicks": 192,
            "midi": 41,
            "name": "F2",
            "ticks": 30144,
            "time": 42.818139,
            "velocity": 0.5275590551181102
          },
          {
            "duration": 0.2727270000000033,
            "durationTicks": 192,
            "midi": 35,
            "name": "B1",
            "ticks": 30336,
            "time": 43.090866,
            "velocity": 0.5275590551181102
          },
          {
            "duration": 0.27272699999999617,
            "durationTicks": 192,
            "midi": 43,
            "name": "G2",
            "ticks": 30528,
            "time": 43.363593,
            "velocity": 0.5275590551181102
          }
        ],
        "endOfTrackTicks": 30720
      },
      {
        "channel": 3,
        "controlChanges": {},
        "pitchBends": [],
        "instrument": {
          "family": "strings",
          "number": 40,
          "name": "violin"
        },
        "name": "Violin",
        "notes": [
          {
            "duration": 0.03409087499999863,
            "durationTicks": 24,
            "midi": 55,
            "name": "G3",
            "ticks": 5760,
            "time": 8.18181,
            "velocity": 0.4881889763779528
          },
          {
            "duration": 0.03409087500000041,
            "durationTicks": 24,
            "midi": 57,
            "name": "A3",
            "ticks": 5808,
            "time": 8.24999175,
            "velocity": 0.4881889763779528
          },
          {
            "duration": 0.03409087500000041,
            "durationTicks": 24,
            "midi": 59,
            "name": "B3",
            "ticks": 5856,
            "time": 8.3181735,
            "velocity": 0.4881889763779528
          },
          {
            "duration": 0.03409087500000041,
            "durationTicks": 24,
            "midi": 60,
            "name": "C4",
            "ticks": 5904,
            "time": 8.38635525,
            "velocity": 0.4881889763779528
          },
          {
            "duration": 0.03409087500000041,
            "durationTicks": 24,
            "midi": 62,
            "name": "D4",
            "ticks": 5928,
            "time": 8.420446125,
            "velocity": 0.4881889763779528
          },
          {
            "duration": 0.03409087499999863,
            "durationTicks": 24,
            "midi": 64,
            "name": "E4",
            "ticks": 5976,
            "time": 8.488627875,
            "velocity": 0.4881889763779528
          },
          {
            "duration": 0.03409087500000041,
            "durationTicks": 24,
            "midi": 65,
            "name": "F4",
            "ticks": 6000,
            "time": 8.52271875,
            "velocity": 0.4881889763779528
          },
          {
            "duration": 0.03409087500000041,
            "durationTicks": 24,
            "midi": 67,
            "name": "G4",
            "ticks": 6024,
            "time": 8.556809625,
            "velocity": 0.4881889763779528
          },
          {
            "duration": 0.03409087500000041,
            "durationTicks": 24,
            "midi": 69,
            "name": "A4",
            "ticks": 6048,
            "time": 8.5909005,
            "velocity": 0.4881889763779528
          },
          {
            "duration": 0.03409087499999863,
            "durationTicks": 24,
            "midi": 71,
            "name": "B4",
            "ticks": 6072,
            "time": 8.624991375,
            "velocity": 0.4881889763779528
          },
          {
            "duration": 0.03409087500000041,
            "durationTicks": 24,
            "midi": 72,
            "name": "C5",
            "ticks": 6096,
            "time": 8.659082249999999,
            "velocity": 0.4881889763779528
          },
          {
            "duration": 1.0909080000000007,
            "durationTicks": 768,
            "midi": 74,
            "name": "D5",
            "ticks": 6144,
            "time": 8.727264,
            "velocity": 0.4881889763779528
          },
          {
            "duration": 2.1818159999999995,
            "durationTicks": 1536,
            "midi": 67,
            "name": "G4",
            "ticks": 6144,
            "time": 8.727264,
            "velocity": 0.4881889763779528
          },
          {
            "duration": 0.03409087499999863,
            "durationTicks": 24,
            "midi": 73,
            "name": "C#5",
            "ticks": 6912,
            "time": 9.818172,
            "velocity": 0.4881889763779528
          },
          {
            "duration": 0.03409087500000041,
            "durationTicks": 24,
            "midi": 74,
            "name": "D5",
            "ticks": 6984,
            "time": 9.920444625,
            "velocity": 0.4881889763779528
          },
          {
            "duration": 0.03409087500000041,
            "durationTicks": 24,
            "midi": 73,
            "name": "C#5",
            "ticks": 7056,
            "time": 10.02271725,
            "velocity": 0.4881889763779528
          },
          {
            "duration": 0.03409087499999863,
            "durationTicks": 24,
            "midi": 74,
            "name": "D5",
            "ticks": 7128,
            "time": 10.124989875,
            "velocity": 0.4881889763779528
          },
          {
            "duration": 0.03409087500000041,
            "durationTicks": 24,
            "midi": 73,
            "name": "C#5",
            "ticks": 7200,
            "time": 10.2272625,
            "velocity": 0.4881889763779528
          },
          {
            "duration": 0.03409087500000041,
            "durationTicks": 24,
            "midi": 74,
            "name": "D5",
            "ticks": 7272,
            "time": 10.329535125,
            "velocity": 0.4881889763779528
          },
          {
            "duration": 0.03409087500000041,
            "durationTicks": 24,
            "midi": 73,
            "name": "C#5",
            "ticks": 7344,
            "time": 10.431807749999999,
            "velocity": 0.4881889763779528
          },
          {
            "duration": 0.03409087500000041,
            "durationTicks": 24,
            "midi": 74,
            "name": "D5",
            "ticks": 7416,
            "time": 10.534080375,
            "velocity": 0.4881889763779528
          },
          {
            "duration": 0.03409087500000041,
            "durationTicks": 24,
            "midi": 73,
            "name": "C#5",
            "ticks": 7488,
            "time": 10.636353,
            "velocity": 0.4881889763779528
          },
          {
            "duration": 0.03409087500000041,
            "durationTicks": 24,
            "midi": 74,
            "name": "D5",
            "ticks": 7560,
            "time": 10.738625625,
            "velocity": 0.4881889763779528
          },
          {
            "duration": 0.13636349999999986,
            "durationTicks": 96,
            "midi": 70,
            "name": "A#4",
            "ticks": 8256,
            "time": 11.727261,
            "velocity": 0.4881889763779528
          },
          {
            "duration": 0.13636349999999986,
            "durationTicks": 96,
            "midi": 72,
            "name": "C5",
            "ticks": 8448,
            "time": 11.999988,
            "velocity": 0.4881889763779528
          },
          {
            "duration": 0.13636349999999986,
            "durationTicks": 96,
            "midi": 70,
            "name": "A#4",
            "ticks": 8736,
            "time": 12.4090785,
            "velocity": 0.4881889763779528
          },
          {
            "duration": 0.13636349999999986,
            "durationTicks": 96,
            "midi": 67,
            "name": "G4",
            "ticks": 9024,
            "time": 12.818169,
            "velocity": 0.4881889763779528
          },
          {
            "duration": 0.5795448749999998,
            "durationTicks": 408,
            "midi": 74,
            "name": "D5",
            "ticks": 12288,
            "time": 17.454528,
            "velocity": 0.4881889763779528
          },
          {
            "duration": 1.6363619999999983,
            "durationTicks": 1152,
            "midi": 67,
            "name": "G4",
            "ticks": 12288,
            "time": 17.454528,
            "velocity": 0.4881889763779528
          },
          {
            "duration": 0.03409087500000041,
            "durationTicks": 24,
            "midi": 73,
            "name": "C#5",
            "ticks": 12768,
            "time": 18.1363455,
            "velocity": 0.4881889763779528
          },
          {
            "duration": 0.03409087500000041,
            "durationTicks": 24,
            "midi": 74,
            "name": "D5",
            "ticks": 12840,
            "time": 18.238618125,
            "velocity": 0.4881889763779528
          },
          {
            "duration": 0.03409087500000041,
            "durationTicks": 24,
            "midi": 73,
            "name": "C#5",
            "ticks": 12912,
            "time": 18.34089075,
            "velocity": 0.4881889763779528
          },
          {
            "duration": 0.03409087500000041,
            "durationTicks": 24,
            "midi": 74,
            "name": "D5",
            "ticks": 12984,
            "time": 18.443163375,
            "velocity": 0.4881889763779528
          },
          {
            "duration": 0.03409087500000041,
            "durationTicks": 24,
            "midi": 73,
            "name": "C#5",
            "ticks": 13056,
            "time": 18.545436,
            "velocity": 0.4881889763779528
          },
          {
            "duration": 0.03409087500000041,
            "durationTicks": 24,
            "midi": 74,
            "name": "D5",
            "ticks": 13128,
            "time": 18.647708625,
            "velocity": 0.4881889763779528
          },
          {
            "duration": 0.03409087500000041,
            "durationTicks": 24,
            "midi": 73,
            "name": "C#5",
            "ticks": 13200,
            "time": 18.74998125,
            "velocity": 0.4881889763779528
          },
          {
            "duration": 0.03409087500000041,
            "durationTicks": 24,
            "midi": 74,
            "name": "D5",
            "ticks": 13272,
            "time": 18.852253875,
            "velocity": 0.4881889763779528
          },
          {
            "duration": 0.03409087500000041,
            "durationTicks": 24,
            "midi": 73,
            "name": "C#5",
            "ticks": 13344,
            "time": 18.9545265,
            "velocity": 0.4881889763779528
          },
          {
            "duration": 0.034090874999996856,
            "durationTicks": 24,
            "midi": 74,
            "name": "D5",
            "ticks": 13416,
            "time": 19.056799125,
            "velocity": 0.4881889763779528
          },
          {
            "duration": 0.13636350000000164,
            "durationTicks": 96,
            "midi": 77,
            "name": "F5",
            "ticks": 13440,
            "time": 19.090889999999998,
            "velocity": 0.4881889763779528
          },
          {
            "duration": 0.03409087500000041,
            "durationTicks": 24,
            "midi": 70,
            "name": "A#4",
            "ticks": 13536,
            "time": 19.2272535,
            "velocity": 0.4881889763779528
          },
          {
            "duration": 0.13636349999999808,
            "durationTicks": 96,
            "midi": 72,
            "name": "C5",
            "ticks": 13560,
            "time": 19.261344375,
            "velocity": 0.4881889763779528
          },
          {
            "duration": 0.13636349999999808,
            "durationTicks": 96,
            "midi": 70,
            "name": "A#4",
            "ticks": 13824,
            "time": 19.636344,
            "velocity": 0.4881889763779528
          },
          {
            "duration": 0.13636349999999808,
            "durationTicks": 96,
            "midi": 70,
            "name": "A#4",
            "ticks": 14400,
            "time": 20.454525,
            "velocity": 0.4881889763779528
          },
          {
            "duration": 0.13636349999999808,
            "durationTicks": 96,
            "midi": 72,
            "name": "C5",
            "ticks": 14592,
            "time": 20.727252,
            "velocity": 0.4881889763779528
          },
          {
            "duration": 0.13636349999999808,
            "durationTicks": 96,
            "midi": 70,
            "name": "A#4",
            "ticks": 14880,
            "time": 21.1363425,
            "velocity": 0.4881889763779528
          },
          {
            "duration": 0.13636350000000164,
            "durationTicks": 96,
            "midi": 74,
            "name": "D5",
            "ticks": 15168,
            "time": 21.545433,
            "velocity": 0.4881889763779528
          },
          {
            "duration": 0.13636350000000164,
            "durationTicks": 96,
            "midi": 65,
            "name": "F4",
            "ticks": 18240,
            "time": 25.909065,
            "velocity": 0.4881889763779528
          },
          {
            "duration": 0.13636350000000164,
            "durationTicks": 96,
            "midi": 65,
            "name": "F4",
            "ticks": 18336,
            "time": 26.0454285,
            "velocity": 0.4881889763779528
          },
          {
            "duration": 0.13636349999999808,
            "durationTicks": 96,
            "midi": 67,
            "name": "G4",
            "ticks": 18432,
            "time": 26.181792,
            "velocity": 0.4881889763779528
          },
          {
            "duration": 0.13636350000000164,
            "durationTicks": 96,
            "midi": 65,
            "name": "F4",
            "ticks": 18720,
            "time": 26.5908825,
            "velocity": 0.4881889763779528
          },
          {
            "duration": 0.13636349999999808,
            "durationTicks": 96,
            "midi": 67,
            "name": "G4",
            "ticks": 19008,
            "time": 26.999973,
            "velocity": 0.4881889763779528
          },
          {
            "duration": 0.13636350000000164,
            "durationTicks": 96,
            "midi": 67,
            "name": "G4",
            "ticks": 19296,
            "time": 27.4090635,
            "velocity": 0.4881889763779528
          },
          {
            "duration": 0.13636350000000164,
            "durationTicks": 96,
            "midi": 65,
            "name": "F4",
            "ticks": 19584,
            "time": 27.818154,
            "velocity": 0.4881889763779528
          },
          {
            "duration": 0.13636350000000164,
            "durationTicks": 96,
            "midi": 67,
            "name": "G4",
            "ticks": 19776,
            "time": 28.090881,
            "velocity": 0.4881889763779528
          },
          {
            "duration": 0.13636350000000164,
            "durationTicks": 96,
            "midi": 65,
            "name": "F4",
            "ticks": 19968,
            "time": 28.363608,
            "velocity": 0.4881889763779528
          },
          {
            "duration": 0.13636349999999808,
            "durationTicks": 96,
            "midi": 62,
            "name": "D4",
            "ticks": 20256,
            "time": 28.7726985,
            "velocity": 0.4881889763779528
          },
          {
            "duration": 0.13636350000000164,
            "durationTicks": 96,
            "midi": 62,
            "name": "D4",
            "ticks": 20352,
            "time": 28.909062,
            "velocity": 0.4881889763779528
          },
          {
            "duration": 0.13636349999999808,
            "durationTicks": 96,
            "midi": 62,
            "name": "D4",
            "ticks": 20448,
            "time": 29.0454255,
            "velocity": 0.4881889763779528
          },
          {
            "duration": 0.13636349999999808,
            "durationTicks": 96,
            "midi": 62,
            "name": "D4",
            "ticks": 20640,
            "time": 29.3181525,
            "velocity": 0.4881889763779528
          },
          {
            "duration": 0.13636350000000164,
            "durationTicks": 96,
            "midi": 60,
            "name": "C4",
            "ticks": 20736,
            "time": 29.454515999999998,
            "velocity": 0.4881889763779528
          },
          {
            "duration": 0.13636350000000164,
            "durationTicks": 96,
            "midi": 59,
            "name": "B3",
            "ticks": 20832,
            "time": 29.5908795,
            "velocity": 0.4881889763779528
          },
          {
            "duration": 0.13636349999999808,
            "durationTicks": 96,
            "midi": 57,
            "name": "A3",
            "ticks": 20928,
            "time": 29.727243,
            "velocity": 0.4881889763779528
          },
          {
            "duration": 0.13636350000000164,
            "durationTicks": 96,
            "midi": 59,
            "name": "B3",
            "ticks": 21024,
            "time": 29.8636065,
            "velocity": 0.4881889763779528
          },
          {
            "duration": 0.13636349999999808,
            "durationTicks": 96,
            "midi": 57,
            "name": "A3",
            "ticks": 21120,
            "time": 29.99997,
            "velocity": 0.4881889763779528
          },
          {
            "duration": 0.13636350000000164,
            "durationTicks": 96,
            "midi": 59,
            "name": "B3",
            "ticks": 21216,
            "time": 30.1363335,
            "velocity": 0.4881889763779528
          },
          {
            "duration": 0.13636349999999808,
            "durationTicks": 96,
            "midi": 65,
            "name": "F4",
            "ticks": 21312,
            "time": 30.272697,
            "velocity": 0.4881889763779528
          },
          {
            "duration": 0.13636350000000164,
            "durationTicks": 96,
            "midi": 65,
            "name": "F4",
            "ticks": 21408,
            "time": 30.4090605,
            "velocity": 0.4881889763779528
          },
          {
            "duration": 0.13636349999999808,
            "durationTicks": 96,
            "midi": 67,
            "name": "G4",
            "ticks": 21504,
            "time": 30.545424,
            "velocity": 0.4881889763779528
          },
          {
            "duration": 0.13636350000000164,
            "durationTicks": 96,
            "midi": 65,
            "name": "F4",
            "ticks": 21792,
            "time": 30.9545145,
            "velocity": 0.4881889763779528
          },
          {
            "duration": 0.13636350000000164,
            "durationTicks": 96,
            "midi": 67,
            "name": "G4",
            "ticks": 22080,
            "time": 31.363605,
            "velocity": 0.4881889763779528
          },
          {
            "duration": 0.13636349999999808,
            "durationTicks": 96,
            "midi": 67,
            "name": "G4",
            "ticks": 22368,
            "time": 31.7726955,
            "velocity": 0.4881889763779528
          },
          {
            "duration": 0.13636349999999453,
            "durationTicks": 96,
            "midi": 65,
            "name": "F4",
            "ticks": 22656,
            "time": 32.181786,
            "velocity": 0.4881889763779528
          },
          {
            "duration": 0.13636350000000164,
            "durationTicks": 96,
            "midi": 67,
            "name": "G4",
            "ticks": 22848,
            "time": 32.454513,
            "velocity": 0.4881889763779528
          },
          {
            "duration": 0.13636349999999453,
            "durationTicks": 96,
            "midi": 65,
            "name": "F4",
            "ticks": 23040,
            "time": 32.72724,
            "velocity": 0.4881889763779528
          },
          {
            "duration": 0.13636350000000164,
            "durationTicks": 96,
            "midi": 64,
            "name": "E4",
            "ticks": 23232,
            "time": 32.999967,
            "velocity": 0.4881889763779528
          },
          {
            "duration": 0.13636350000000164,
            "durationTicks": 96,
            "midi": 62,
            "name": "D4",
            "ticks": 23328,
            "time": 33.1363305,
            "velocity": 0.4881889763779528
          },
          {
            "duration": 0.13636350000000164,
            "durationTicks": 96,
            "midi": 60,
            "name": "C4",
            "ticks": 23424,
            "time": 33.272694,
            "velocity": 0.4881889763779528
          },
          {
            "duration": 0.13636349999999453,
            "durationTicks": 96,
            "midi": 62,
            "name": "D4",
            "ticks": 23520,
            "time": 33.4090575,
            "velocity": 0.4881889763779528
          },
          {
            "duration": 0.13636350000000164,
            "durationTicks": 96,
            "midi": 62,
            "name": "D4",
            "ticks": 23712,
            "time": 33.6817845,
            "velocity": 0.4881889763779528
          },
          {
            "duration": 0.13636350000000164,
            "durationTicks": 96,
            "midi": 60,
            "name": "C4",
            "ticks": 23808,
            "time": 33.818148,
            "velocity": 0.4881889763779528
          },
          {
            "duration": 0.13636349999999453,
            "durationTicks": 96,
            "midi": 59,
            "name": "B3",
            "ticks": 23904,
            "time": 33.9545115,
            "velocity": 0.4881889763779528
          },
          {
            "duration": 0.13636350000000164,
            "durationTicks": 96,
            "midi": 57,
            "name": "A3",
            "ticks": 24000,
            "time": 34.090875,
            "velocity": 0.4881889763779528
          },
          {
            "duration": 0.13636350000000164,
            "durationTicks": 96,
            "midi": 59,
            "name": "B3",
            "ticks": 24096,
            "time": 34.2272385,
            "velocity": 0.4881889763779528
          },
          {
            "duration": 0.13636350000000164,
            "durationTicks": 96,
            "midi": 57,
            "name": "A3",
            "ticks": 24192,
            "time": 34.363602,
            "velocity": 0.4881889763779528
          },
          {
            "duration": 0.13636349999999453,
            "durationTicks": 96,
            "midi": 59,
            "name": "B3",
            "ticks": 24288,
            "time": 34.4999655,
            "velocity": 0.4881889763779528
          },
          {
            "duration": 0.13636350000000164,
            "durationTicks": 96,
            "midi": 65,
            "name": "F4",
            "ticks": 24384,
            "time": 34.636328999999996,
            "velocity": 0.4881889763779528
          },
          {
            "duration": 0.13636350000000164,
            "durationTicks": 96,
            "midi": 65,
            "name": "F4",
            "ticks": 24480,
            "time": 34.7726925,
            "velocity": 0.4881889763779528
          },
          {
            "duration": 0.13636350000000164,
            "durationTicks": 96,
            "midi": 67,
            "name": "G4",
            "ticks": 24576,
            "time": 34.909056,
            "velocity": 0.4881889763779528
          },
          {
            "duration": 0.13636350000000164,
            "durationTicks": 96,
            "midi": 65,
            "name": "F4",
            "ticks": 24864,
            "time": 35.3181465,
            "velocity": 0.4881889763779528
          },
          {
            "duration": 0.13636349999999453,
            "durationTicks": 96,
            "midi": 67,
            "name": "G4",
            "ticks": 25152,
            "time": 35.727237,
            "velocity": 0.4881889763779528
          },
          {
            "duration": 0.13636350000000164,
            "durationTicks": 96,
            "midi": 67,
            "name": "G4",
            "ticks": 25440,
            "time": 36.1363275,
            "velocity": 0.4881889763779528
          },
          {
            "duration": 0.13636350000000164,
            "durationTicks": 96,
            "midi": 65,
            "name": "F4",
            "ticks": 25728,
            "time": 36.545418,
            "velocity": 0.4881889763779528
          },
          {
            "duration": 0.13636350000000164,
            "durationTicks": 96,
            "midi": 67,
            "name": "G4",
            "ticks": 25920,
            "time": 36.818145,
            "velocity": 0.4881889763779528
          },
          {
            "duration": 0.13636350000000164,
            "durationTicks": 96,
            "midi": 65,
            "name": "F4",
            "ticks": 26112,
            "time": 37.090872,
            "velocity": 0.4881889763779528
          },
          {
            "duration": 0.13636349999999453,
            "durationTicks": 96,
            "midi": 62,
            "name": "D4",
            "ticks": 26400,
            "time": 37.4999625,
            "velocity": 0.4881889763779528
          },
          {
            "duration": 0.13636350000000164,
            "durationTicks": 96,
            "midi": 62,
            "name": "D4",
            "ticks": 26496,
            "time": 37.636326,
            "velocity": 0.4881889763779528
          },
          {
            "duration": 0.13636350000000164,
            "durationTicks": 96,
            "midi": 62,
            "name": "D4",
            "ticks": 26592,
            "time": 37.7726895,
            "velocity": 0.4881889763779528
          },
          {
            "duration": 0.13636349999999453,
            "durationTicks": 96,
            "midi": 62,
            "name": "D4",
            "ticks": 26784,
            "time": 38.0454165,
            "velocity": 0.4881889763779528
          },
          {
            "duration": 0.13636350000000164,
            "durationTicks": 96,
            "midi": 60,
            "name": "C4",
            "ticks": 26880,
            "time": 38.181779999999996,
            "velocity": 0.4881889763779528
          },
          {
            "duration": 0.13636350000000164,
            "durationTicks": 96,
            "midi": 59,
            "name": "B3",
            "ticks": 26976,
            "time": 38.3181435,
            "velocity": 0.4881889763779528
          },
          {
            "duration": 0.13636350000000164,
            "durationTicks": 96,
            "midi": 57,
            "name": "A3",
            "ticks": 27072,
            "time": 38.454507,
            "velocity": 0.4881889763779528
          },
          {
            "duration": 0.13636350000000164,
            "durationTicks": 96,
            "midi": 59,
            "name": "B3",
            "ticks": 27168,
            "time": 38.5908705,
            "velocity": 0.4881889763779528
          },
          {
            "duration": 0.13636349999999453,
            "durationTicks": 96,
            "midi": 57,
            "name": "A3",
            "ticks": 27264,
            "time": 38.727234,
            "velocity": 0.4881889763779528
          },
          {
            "duration": 0.13636350000000164,
            "durationTicks": 96,
            "midi": 59,
            "name": "B3",
            "ticks": 27360,
            "time": 38.8635975,
            "velocity": 0.4881889763779528
          },
          {
            "duration": 0.13636350000000164,
            "durationTicks": 96,
            "midi": 65,
            "name": "F4",
            "ticks": 27456,
            "time": 38.999961,
            "velocity": 0.4881889763779528
          },
          {
            "duration": 0.13636350000000164,
            "durationTicks": 96,
            "midi": 65,
            "name": "F4",
            "ticks": 27552,
            "time": 39.1363245,
            "velocity": 0.4881889763779528
          },
          {
            "duration": 0.13636349999999453,
            "durationTicks": 96,
            "midi": 67,
            "name": "G4",
            "ticks": 27648,
            "time": 39.272688,
            "velocity": 0.4881889763779528
          },
          {
            "duration": 0.13636350000000164,
            "durationTicks": 96,
            "midi": 65,
            "name": "F4",
            "ticks": 27936,
            "time": 39.6817785,
            "velocity": 0.4881889763779528
          },
          {
            "duration": 0.13636350000000164,
            "durationTicks": 96,
            "midi": 67,
            "name": "G4",
            "ticks": 28224,
            "time": 40.090869,
            "velocity": 0.4881889763779528
          },
          {
            "duration": 0.13636349999999453,
            "durationTicks": 96,
            "midi": 67,
            "name": "G4",
            "ticks": 28512,
            "time": 40.4999595,
            "velocity": 0.4881889763779528
          },
          {
            "duration": 0.13636350000000164,
            "durationTicks": 96,
            "midi": 65,
            "name": "F4",
            "ticks": 28800,
            "time": 40.90905,
            "velocity": 0.4881889763779528
          },
          {
            "duration": 0.13636350000000164,
            "durationTicks": 96,
            "midi": 67,
            "name": "G4",
            "ticks": 28992,
            "time": 41.181777,
            "velocity": 0.4881889763779528
          },
          {
            "duration": 0.13636350000000164,
            "durationTicks": 96,
            "midi": 65,
            "name": "F4",
            "ticks": 29184,
            "time": 41.454504,
            "velocity": 0.4881889763779528
          },
          {
            "duration": 0.13636350000000164,
            "durationTicks": 96,
            "midi": 64,
            "name": "E4",
            "ticks": 29376,
            "time": 41.727230999999996,
            "velocity": 0.4881889763779528
          },
          {
            "duration": 0.13636350000000164,
            "durationTicks": 96,
            "midi": 62,
            "name": "D4",
            "ticks": 29472,
            "time": 41.8635945,
            "velocity": 0.4881889763779528
          },
          {
            "duration": 0.13636350000000164,
            "durationTicks": 96,
            "midi": 60,
            "name": "C4",
            "ticks": 29568,
            "time": 41.999958,
            "velocity": 0.4881889763779528
          },
          {
            "duration": 0.13636350000000164,
            "durationTicks": 96,
            "midi": 62,
            "name": "D4",
            "ticks": 29664,
            "time": 42.1363215,
            "velocity": 0.4881889763779528
          },
          {
            "duration": 0.13636350000000164,
            "durationTicks": 96,
            "midi": 62,
            "name": "D4",
            "ticks": 29856,
            "time": 42.4090485,
            "velocity": 0.4881889763779528
          },
          {
            "duration": 0.13636350000000164,
            "durationTicks": 96,
            "midi": 61,
            "name": "C#4",
            "ticks": 29952,
            "time": 42.545412,
            "velocity": 0.4881889763779528
          },
          {
            "duration": 0.13636350000000164,
            "durationTicks": 96,
            "midi": 60,
            "name": "C4",
            "ticks": 30048,
            "time": 42.6817755,
            "velocity": 0.4881889763779528
          },
          {
            "duration": 0.13636349999999453,
            "durationTicks": 96,
            "midi": 58,
            "name": "A#3",
            "ticks": 30144,
            "time": 42.818139,
            "velocity": 0.4881889763779528
          },
          {
            "duration": 0.13636350000000164,
            "durationTicks": 96,
            "midi": 60,
            "name": "C4",
            "ticks": 30240,
            "time": 42.9545025,
            "velocity": 0.4881889763779528
          },
          {
            "duration": 0.13636350000000164,
            "durationTicks": 96,
            "midi": 58,
            "name": "A#3",
            "ticks": 30336,
            "time": 43.090866,
            "velocity": 0.4881889763779528
          },
          {
            "duration": 0.13636350000000164,
            "durationTicks": 96,
            "midi": 57,
            "name": "A3",
            "ticks": 30432,
            "time": 43.2272295,
            "velocity": 0.4881889763779528
          },
          {
            "duration": 0.13636349999999453,
            "durationTicks": 96,
            "midi": 55,
            "name": "G3",
            "ticks": 30528,
            "time": 43.363593,
            "velocity": 0.4881889763779528
          }
        ],
        "endOfTrackTicks": 30624
      },
      {
        "channel": 4,
        "controlChanges": {},
        "pitchBends": [],
        "instrument": {
          "family": "strings",
          "number": 42,
          "name": "cello"
        },
        "name": "Cello",
        "notes": [
          {
            "duration": 0.13636349999999986,
            "durationTicks": 96,
            "midi": 58,
            "name": "A#3",
            "ticks": 9216,
            "time": 13.090896,
            "velocity": 0.3937007874015748
          },
          {
            "duration": 0.13636349999999986,
            "durationTicks": 96,
            "midi": 63,
            "name": "D#4",
            "ticks": 9408,
            "time": 13.363623,
            "velocity": 0.3937007874015748
          },
          {
            "duration": 0.13636349999999986,
            "durationTicks": 96,
            "midi": 62,
            "name": "D4",
            "ticks": 9600,
            "time": 13.63635,
            "velocity": 0.3937007874015748
          },
          {
            "duration": 0.13636349999999986,
            "durationTicks": 96,
            "midi": 59,
            "name": "B3",
            "ticks": 9792,
            "time": 13.909077,
            "velocity": 0.3937007874015748
          },
          {
            "duration": 0.13636349999999986,
            "durationTicks": 96,
            "midi": 58,
            "name": "A#3",
            "ticks": 9984,
            "time": 14.181804,
            "velocity": 0.3937007874015748
          },
          {
            "duration": 0.13636349999999986,
            "durationTicks": 96,
            "midi": 56,
            "name": "G#3",
            "ticks": 10080,
            "time": 14.3181675,
            "velocity": 0.3937007874015748
          },
          {
            "duration": 0.13636349999999986,
            "durationTicks": 96,
            "midi": 58,
            "name": "A#3",
            "ticks": 10176,
            "time": 14.454531,
            "velocity": 0.3937007874015748
          },
          {
            "duration": 0.13636349999999986,
            "durationTicks": 96,
            "midi": 59,
            "name": "B3",
            "ticks": 10272,
            "time": 14.5908945,
            "velocity": 0.3937007874015748
          },
          {
            "duration": 0.13636350000000164,
            "durationTicks": 96,
            "midi": 58,
            "name": "A#3",
            "ticks": 10368,
            "time": 14.727257999999999,
            "velocity": 0.3937007874015748
          },
          {
            "duration": 0.13636349999999986,
            "durationTicks": 96,
            "midi": 59,
            "name": "B3",
            "ticks": 10464,
            "time": 14.8636215,
            "velocity": 0.3937007874015748
          },
          {
            "duration": 0.13636349999999986,
            "durationTicks": 96,
            "midi": 58,
            "name": "A#3",
            "ticks": 10560,
            "time": 14.999985,
            "velocity": 0.3937007874015748
          },
          {
            "duration": 0.13636349999999986,
            "durationTicks": 96,
            "midi": 58,
            "name": "A#3",
            "ticks": 10752,
            "time": 15.272712,
            "velocity": 0.3937007874015748
          },
          {
            "duration": 0.13636349999999986,
            "durationTicks": 96,
            "midi": 56,
            "name": "G#3",
            "ticks": 10848,
            "time": 15.4090755,
            "velocity": 0.3937007874015748
          },
          {
            "duration": 0.13636349999999986,
            "durationTicks": 96,
            "midi": 58,
            "name": "A#3",
            "ticks": 10944,
            "time": 15.545439,
            "velocity": 0.3937007874015748
          },
          {
            "duration": 0.13636349999999986,
            "durationTicks": 96,
            "midi": 63,
            "name": "D#4",
            "ticks": 11136,
            "time": 15.818166,
            "velocity": 0.3937007874015748
          },
          {
            "duration": 0.13636349999999808,
            "durationTicks": 96,
            "midi": 58,
            "name": "A#3",
            "ticks": 11328,
            "time": 16.090893,
            "velocity": 0.3937007874015748
          },
          {
            "duration": 0.13636349999999808,
            "durationTicks": 96,
            "midi": 58,
            "name": "A#3",
            "ticks": 11520,
            "time": 16.36362,
            "velocity": 0.3937007874015748
          },
          {
            "duration": 0.13636350000000164,
            "durationTicks": 96,
            "midi": 59,
            "name": "B3",
            "ticks": 11616,
            "time": 16.4999835,
            "velocity": 0.3937007874015748
          },
          {
            "duration": 0.13636349999999808,
            "durationTicks": 96,
            "midi": 58,
            "name": "A#3",
            "ticks": 11712,
            "time": 16.636347,
            "velocity": 0.3937007874015748
          },
          {
            "duration": 0.13636349999999808,
            "durationTicks": 96,
            "midi": 58,
            "name": "A#3",
            "ticks": 11904,
            "time": 16.909074,
            "velocity": 0.3937007874015748
          },
          {
            "duration": 0.13636350000000164,
            "durationTicks": 96,
            "midi": 58,
            "name": "A#3",
            "ticks": 15360,
            "time": 21.81816,
            "velocity": 0.3937007874015748
          },
          {
            "duration": 0.13636350000000164,
            "durationTicks": 96,
            "midi": 63,
            "name": "D#4",
            "ticks": 15552,
            "time": 22.090887,
            "velocity": 0.3937007874015748
          },
          {
            "duration": 0.13636350000000164,
            "durationTicks": 96,
            "midi": 62,
            "name": "D4",
            "ticks": 15744,
            "time": 22.363614,
            "velocity": 0.3937007874015748
          },
          {
            "duration": 0.13636350000000164,
            "durationTicks": 96,
            "midi": 59,
            "name": "B3",
            "ticks": 15936,
            "time": 22.636340999999998,
            "velocity": 0.3937007874015748
          },
          {
            "duration": 0.13636349999999808,
            "durationTicks": 96,
            "midi": 58,
            "name": "A#3",
            "ticks": 16128,
            "time": 22.909068,
            "velocity": 0.3937007874015748
          },
          {
            "duration": 0.13636350000000164,
            "durationTicks": 96,
            "midi": 56,
            "name": "G#3",
            "ticks": 16224,
            "time": 23.0454315,
            "velocity": 0.3937007874015748
          },
          {
            "duration": 0.13636349999999808,
            "durationTicks": 96,
            "midi": 58,
            "name": "A#3",
            "ticks": 16320,
            "time": 23.181795,
            "velocity": 0.3937007874015748
          },
          {
            "duration": 0.13636350000000164,
            "durationTicks": 96,
            "midi": 59,
            "name": "B3",
            "ticks": 16416,
            "time": 23.3181585,
            "velocity": 0.3937007874015748
          },
          {
            "duration": 0.13636349999999808,
            "durationTicks": 96,
            "midi": 58,
            "name": "A#3",
            "ticks": 16512,
            "time": 23.454522,
            "velocity": 0.3937007874015748
          },
          {
            "duration": 0.13636350000000164,
            "durationTicks": 96,
            "midi": 59,
            "name": "B3",
            "ticks": 16608,
            "time": 23.5908855,
            "velocity": 0.3937007874015748
          },
          {
            "duration": 0.13636349999999808,
            "durationTicks": 96,
            "midi": 58,
            "name": "A#3",
            "ticks": 16704,
            "time": 23.727249,
            "velocity": 0.3937007874015748
          },
          {
            "duration": 0.13636349999999808,
            "durationTicks": 96,
            "midi": 58,
            "name": "A#3",
            "ticks": 16896,
            "time": 23.999976,
            "velocity": 0.3937007874015748
          },
          {
            "duration": 0.13636350000000164,
            "durationTicks": 96,
            "midi": 56,
            "name": "G#3",
            "ticks": 16992,
            "time": 24.1363395,
            "velocity": 0.3937007874015748
          },
          {
            "duration": 0.13636349999999808,
            "durationTicks": 96,
            "midi": 58,
            "name": "A#3",
            "ticks": 17088,
            "time": 24.272703,
            "velocity": 0.3937007874015748
          },
          {
            "duration": 0.13636350000000164,
            "durationTicks": 96,
            "midi": 63,
            "name": "D#4",
            "ticks": 17280,
            "time": 24.54543,
            "velocity": 0.3937007874015748
          },
          {
            "duration": 0.13636350000000164,
            "durationTicks": 96,
            "midi": 58,
            "name": "A#3",
            "ticks": 17472,
            "time": 24.818157,
            "velocity": 0.3937007874015748
          },
          {
            "duration": 0.13636350000000164,
            "durationTicks": 96,
            "midi": 58,
            "name": "A#3",
            "ticks": 17664,
            "time": 25.090884,
            "velocity": 0.3937007874015748
          },
          {
            "duration": 0.13636349999999808,
            "durationTicks": 96,
            "midi": 59,
            "name": "B3",
            "ticks": 17760,
            "time": 25.2272475,
            "velocity": 0.3937007874015748
          },
          {
            "duration": 0.13636350000000164,
            "durationTicks": 96,
            "midi": 58,
            "name": "A#3",
            "ticks": 17856,
            "time": 25.363611,
            "velocity": 0.3937007874015748
          },
          {
            "duration": 0.13636350000000164,
            "durationTicks": 96,
            "midi": 58,
            "name": "A#3",
            "ticks": 18048,
            "time": 25.636338,
            "velocity": 0.3937007874015748
          }
        ],
        "endOfTrackTicks": 18144
      },
      {
        "channel": 5,
        "controlChanges": {},
        "pitchBends": [],
        "instrument": {
          "family": "synth lead",
          "number": 82,
          "name": "lead 3 (calliope)"
        },
        "name": "8-Bit Sine",
        "notes": [
          {
            "duration": 0.2727269999999997,
            "durationTicks": 192,
            "midi": 43,
            "name": "G2",
            "ticks": 16896,
            "time": 23.999976,
            "velocity": 0.1968503937007874
          },
          {
            "duration": 0.2727269999999997,
            "durationTicks": 192,
            "midi": 36,
            "name": "C2",
            "ticks": 17088,
            "time": 24.272703,
            "velocity": 0.1968503937007874
          },
          {
            "duration": 0.2727269999999997,
            "durationTicks": 192,
            "midi": 41,
            "name": "F2",
            "ticks": 17280,
            "time": 24.54543,
            "velocity": 0.1968503937007874
          },
          {
            "duration": 0.2727269999999997,
            "durationTicks": 192,
            "midi": 34,
            "name": "A#1",
            "ticks": 17472,
            "time": 24.818157,
            "velocity": 0.1968503937007874
          },
          {
            "duration": 0.2727269999999997,
            "durationTicks": 192,
            "midi": 39,
            "name": "D#2",
            "ticks": 17664,
            "time": 25.090884,
            "velocity": 0.1968503937007874
          },
          {
            "duration": 0.2727269999999997,
            "durationTicks": 192,
            "midi": 32,
            "name": "G#1",
            "ticks": 17856,
            "time": 25.363611,
            "velocity": 0.1968503937007874
          },
          {
            "duration": 0.2727269999999997,
            "durationTicks": 192,
            "midi": 37,
            "name": "C#2",
            "ticks": 18048,
            "time": 25.636338,
            "velocity": 0.1968503937007874
          },
          {
            "duration": 0.2727270000000033,
            "durationTicks": 192,
            "midi": 30,
            "name": "F#1",
            "ticks": 18240,
            "time": 25.909065,
            "velocity": 0.1968503937007874
          },
          {
            "duration": 0.27272699999999617,
            "durationTicks": 192,
            "midi": 31,
            "name": "G1",
            "ticks": 43008,
            "time": 61.090848,
            "velocity": 0.1968503937007874
          },
          {
            "duration": 0.2727270000000033,
            "durationTicks": 192,
            "midi": 41,
            "name": "F2",
            "ticks": 43200,
            "time": 61.363575,
            "velocity": 0.1968503937007874
          },
          {
            "duration": 0.27272699999999617,
            "durationTicks": 192,
            "midi": 31,
            "name": "G1",
            "ticks": 43392,
            "time": 61.636302,
            "velocity": 0.1968503937007874
          },
          {
            "duration": 0.2727270000000033,
            "durationTicks": 192,
            "midi": 43,
            "name": "G2",
            "ticks": 43584,
            "time": 61.909029,
            "velocity": 0.1968503937007874
          },
          {
            "duration": 0.27272699999999617,
            "durationTicks": 192,
            "midi": 31,
            "name": "G1",
            "ticks": 43776,
            "time": 62.181756,
            "velocity": 0.1968503937007874
          },
          {
            "duration": 0.2727270000000033,
            "durationTicks": 192,
            "midi": 41,
            "name": "F2",
            "ticks": 43968,
            "time": 62.454482999999996,
            "velocity": 0.1968503937007874
          },
          {
            "duration": 0.2727270000000033,
            "durationTicks": 192,
            "midi": 31,
            "name": "G1",
            "ticks": 44160,
            "time": 62.72721,
            "velocity": 0.1968503937007874
          },
          {
            "duration": 0.27272699999999617,
            "durationTicks": 192,
            "midi": 43,
            "name": "G2",
            "ticks": 44352,
            "time": 62.999937,
            "velocity": 0.1968503937007874
          },
          {
            "duration": 0.2727270000000033,
            "durationTicks": 192,
            "midi": 31,
            "name": "G1",
            "ticks": 44544,
            "time": 63.272664,
            "velocity": 0.1968503937007874
          },
          {
            "duration": 0.27272699999999617,
            "durationTicks": 192,
            "midi": 41,
            "name": "F2",
            "ticks": 44736,
            "time": 63.545391,
            "velocity": 0.1968503937007874
          },
          {
            "duration": 0.2727270000000033,
            "durationTicks": 192,
            "midi": 31,
            "name": "G1",
            "ticks": 44928,
            "time": 63.818118,
            "velocity": 0.1968503937007874
          },
          {
            "duration": 0.2727270000000033,
            "durationTicks": 192,
            "midi": 43,
            "name": "G2",
            "ticks": 45120,
            "time": 64.090845,
            "velocity": 0.1968503937007874
          },
          {
            "duration": 0.27272699999998906,
            "durationTicks": 192,
            "midi": 31,
            "name": "G1",
            "ticks": 45312,
            "time": 64.363572,
            "velocity": 0.1968503937007874
          },
          {
            "duration": 0.2727270000000033,
            "durationTicks": 192,
            "midi": 41,
            "name": "F2",
            "ticks": 45504,
            "time": 64.636299,
            "velocity": 0.1968503937007874
          },
          {
            "duration": 0.2727270000000033,
            "durationTicks": 192,
            "midi": 31,
            "name": "G1",
            "ticks": 45696,
            "time": 64.909026,
            "velocity": 0.1968503937007874
          },
          {
            "duration": 0.2727270000000033,
            "durationTicks": 192,
            "midi": 43,
            "name": "G2",
            "ticks": 45888,
            "time": 65.181753,
            "velocity": 0.1968503937007874
          },
          {
            "duration": 0.27272699999998906,
            "durationTicks": 192,
            "midi": 31,
            "name": "G1",
            "ticks": 46080,
            "time": 65.45448,
            "velocity": 0.1968503937007874
          },
          {
            "duration": 0.2727270000000033,
            "durationTicks": 192,
            "midi": 41,
            "name": "F2",
            "ticks": 46272,
            "time": 65.72720699999999,
            "velocity": 0.1968503937007874
          },
          {
            "duration": 0.2727270000000033,
            "durationTicks": 192,
            "midi": 31,
            "name": "G1",
            "ticks": 46464,
            "time": 65.999934,
            "velocity": 0.1968503937007874
          },
          {
            "duration": 0.2727270000000033,
            "durationTicks": 192,
            "midi": 43,
            "name": "G2",
            "ticks": 46656,
            "time": 66.272661,
            "velocity": 0.1968503937007874
          },
          {
            "duration": 0.2727270000000033,
            "durationTicks": 192,
            "midi": 31,
            "name": "G1",
            "ticks": 46848,
            "time": 66.545388,
            "velocity": 0.1968503937007874
          },
          {
            "duration": 0.27272699999998906,
            "durationTicks": 192,
            "midi": 41,
            "name": "F2",
            "ticks": 47040,
            "time": 66.818115,
            "velocity": 0.1968503937007874
          },
          {
            "duration": 0.2727270000000033,
            "durationTicks": 192,
            "midi": 31,
            "name": "G1",
            "ticks": 47232,
            "time": 67.090842,
            "velocity": 0.1968503937007874
          },
          {
            "duration": 0.2727270000000033,
            "durationTicks": 192,
            "midi": 43,
            "name": "G2",
            "ticks": 47424,
            "time": 67.363569,
            "velocity": 0.1968503937007874
          },
          {
            "duration": 0.2727270000000033,
            "durationTicks": 192,
            "midi": 31,
            "name": "G1",
            "ticks": 47616,
            "time": 67.636296,
            "velocity": 0.1968503937007874
          },
          {
            "duration": 0.27272699999998906,
            "durationTicks": 192,
            "midi": 41,
            "name": "F2",
            "ticks": 47808,
            "time": 67.909023,
            "velocity": 0.1968503937007874
          },
          {
            "duration": 0.2727270000000033,
            "durationTicks": 192,
            "midi": 31,
            "name": "G1",
            "ticks": 48000,
            "time": 68.18175,
            "velocity": 0.1968503937007874
          },
          {
            "duration": 0.2727270000000033,
            "durationTicks": 192,
            "midi": 43,
            "name": "G2",
            "ticks": 48192,
            "time": 68.454477,
            "velocity": 0.1968503937007874
          },
          {
            "duration": 0.2727270000000033,
            "durationTicks": 192,
            "midi": 31,
            "name": "G1",
            "ticks": 48384,
            "time": 68.727204,
            "velocity": 0.1968503937007874
          },
          {
            "duration": 0.27272699999998906,
            "durationTicks": 192,
            "midi": 41,
            "name": "F2",
            "ticks": 48576,
            "time": 68.999931,
            "velocity": 0.1968503937007874
          },
          {
            "duration": 0.2727270000000033,
            "durationTicks": 192,
            "midi": 31,
            "name": "G1",
            "ticks": 48768,
            "time": 69.27265799999999,
            "velocity": 0.1968503937007874
          }
        ],
        "endOfTrackTicks": 48960
      },
      {
        "channel": 6,
        "controlChanges": {},
        "pitchBends": [],
        "instrument": {
          "family": "bass",
          "number": 36,
          "name": "slap bass 1"
        },
        "name": "Slap Bass",
        "notes": [
          {
            "duration": 0.13636349999999986,
            "durationTicks": 96,
            "midi": 43,
            "name": "G2",
            "ticks": 6144,
            "time": 8.727264,
            "velocity": 0.2677165354330709
          },
          {
            "duration": 0.13636349999999986,
            "durationTicks": 96,
            "midi": 43,
            "name": "G2",
            "ticks": 6432,
            "time": 9.1363545,
            "velocity": 0.2677165354330709
          },
          {
            "duration": 0.13636349999999986,
            "durationTicks": 96,
            "midi": 41,
            "name": "F2",
            "ticks": 6624,
            "time": 9.4090815,
            "velocity": 0.2677165354330709
          },
          {
            "duration": 0.13636350000000164,
            "durationTicks": 96,
            "midi": 43,
            "name": "G2",
            "ticks": 6720,
            "time": 9.545444999999999,
            "velocity": 0.2677165354330709
          },
          {
            "duration": 0.13636349999999986,
            "durationTicks": 96,
            "midi": 43,
            "name": "G2",
            "ticks": 7680,
            "time": 10.90908,
            "velocity": 0.2677165354330709
          },
          {
            "duration": 0.13636350000000164,
            "durationTicks": 96,
            "midi": 43,
            "name": "G2",
            "ticks": 7968,
            "time": 11.318170499999999,
            "velocity": 0.2677165354330709
          },
          {
            "duration": 0.13636349999999986,
            "durationTicks": 96,
            "midi": 41,
            "name": "F2",
            "ticks": 8160,
            "time": 11.5908975,
            "velocity": 0.2677165354330709
          },
          {
            "duration": 0.13636349999999986,
            "durationTicks": 96,
            "midi": 43,
            "name": "G2",
            "ticks": 8256,
            "time": 11.727261,
            "velocity": 0.2677165354330709
          },
          {
            "duration": 0.13636349999999986,
            "durationTicks": 96,
            "midi": 31,
            "name": "G1",
            "ticks": 8544,
            "time": 12.1363515,
            "velocity": 0.2677165354330709
          },
          {
            "duration": 0.13636349999999986,
            "durationTicks": 96,
            "midi": 29,
            "name": "F1",
            "ticks": 8736,
            "time": 12.4090785,
            "velocity": 0.2677165354330709
          },
          {
            "duration": 0.13636349999999986,
            "durationTicks": 96,
            "midi": 31,
            "name": "G1",
            "ticks": 8832,
            "time": 12.545442,
            "velocity": 0.2677165354330709
          },
          {
            "duration": 0.13636349999999986,
            "durationTicks": 96,
            "midi": 41,
            "name": "F2",
            "ticks": 8928,
            "time": 12.6818055,
            "velocity": 0.2677165354330709
          },
          {
            "duration": 0.13636349999999986,
            "durationTicks": 96,
            "midi": 40,
            "name": "E2",
            "ticks": 9024,
            "time": 12.818169,
            "velocity": 0.2677165354330709
          },
          {
            "duration": 0.13636349999999986,
            "durationTicks": 96,
            "midi": 43,
            "name": "G2",
            "ticks": 9216,
            "time": 13.090896,
            "velocity": 0.2677165354330709
          },
          {
            "duration": 0.13636349999999986,
            "durationTicks": 96,
            "midi": 43,
            "name": "G2",
            "ticks": 9504,
            "time": 13.4999865,
            "velocity": 0.2677165354330709
          },
          {
            "duration": 0.13636349999999986,
            "durationTicks": 96,
            "midi": 41,
            "name": "F2",
            "ticks": 9696,
            "time": 13.7727135,
            "velocity": 0.2677165354330709
          },
          {
            "duration": 0.13636349999999986,
            "durationTicks": 96,
            "midi": 43,
            "name": "G2",
            "ticks": 9792,
            "time": 13.909077,
            "velocity": 0.2677165354330709
          },
          {
            "duration": 0.13636349999999986,
            "durationTicks": 96,
            "midi": 43,
            "name": "G2",
            "ticks": 10752,
            "time": 15.272712,
            "velocity": 0.2677165354330709
          },
          {
            "duration": 0.13636349999999986,
            "durationTicks": 96,
            "midi": 43,
            "name": "G2",
            "ticks": 11040,
            "time": 15.6818025,
            "velocity": 0.2677165354330709
          },
          {
            "duration": 0.13636350000000164,
            "durationTicks": 96,
            "midi": 41,
            "name": "F2",
            "ticks": 11232,
            "time": 15.9545295,
            "velocity": 0.2677165354330709
          },
          {
            "duration": 0.13636349999999808,
            "durationTicks": 96,
            "midi": 43,
            "name": "G2",
            "ticks": 11328,
            "time": 16.090893,
            "velocity": 0.2677165354330709
          },
          {
            "duration": 0.13636350000000164,
            "durationTicks": 96,
            "midi": 31,
            "name": "G1",
            "ticks": 11616,
            "time": 16.4999835,
            "velocity": 0.2677165354330709
          },
          {
            "duration": 0.13636350000000164,
            "durationTicks": 96,
            "midi": 29,
            "name": "F1",
            "ticks": 11808,
            "time": 16.7727105,
            "velocity": 0.2677165354330709
          },
          {
            "duration": 0.13636349999999808,
            "durationTicks": 96,
            "midi": 31,
            "name": "G1",
            "ticks": 11904,
            "time": 16.909074,
            "velocity": 0.2677165354330709
          },
          {
            "duration": 0.13636350000000164,
            "durationTicks": 96,
            "midi": 41,
            "name": "F2",
            "ticks": 12000,
            "time": 17.0454375,
            "velocity": 0.2677165354330709
          },
          {
            "duration": 0.13636349999999808,
            "durationTicks": 96,
            "midi": 40,
            "name": "E2",
            "ticks": 12096,
            "time": 17.181801,
            "velocity": 0.2677165354330709
          },
          {
            "duration": 0.13636350000000164,
            "durationTicks": 96,
            "midi": 43,
            "name": "G2",
            "ticks": 12288,
            "time": 17.454528,
            "velocity": 0.2677165354330709
          },
          {
            "duration": 0.13636349999999808,
            "durationTicks": 96,
            "midi": 43,
            "name": "G2",
            "ticks": 12576,
            "time": 17.8636185,
            "velocity": 0.2677165354330709
          },
          {
            "duration": 0.13636349999999808,
            "durationTicks": 96,
            "midi": 41,
            "name": "F2",
            "ticks": 12768,
            "time": 18.1363455,
            "velocity": 0.2677165354330709
          },
          {
            "duration": 0.13636350000000164,
            "durationTicks": 96,
            "midi": 43,
            "name": "G2",
            "ticks": 12864,
            "time": 18.272709,
            "velocity": 0.2677165354330709
          },
          {
            "duration": 0.13636349999999808,
            "durationTicks": 96,
            "midi": 43,
            "name": "G2",
            "ticks": 13824,
            "time": 19.636344,
            "velocity": 0.2677165354330709
          },
          {
            "duration": 0.13636350000000164,
            "durationTicks": 96,
            "midi": 43,
            "name": "G2",
            "ticks": 14112,
            "time": 20.0454345,
            "velocity": 0.2677165354330709
          },
          {
            "duration": 0.13636350000000164,
            "durationTicks": 96,
            "midi": 41,
            "name": "F2",
            "ticks": 14304,
            "time": 20.3181615,
            "velocity": 0.2677165354330709
          },
          {
            "duration": 0.13636349999999808,
            "durationTicks": 96,
            "midi": 43,
            "name": "G2",
            "ticks": 14400,
            "time": 20.454525,
            "velocity": 0.2677165354330709
          },
          {
            "duration": 0.13636350000000164,
            "durationTicks": 96,
            "midi": 31,
            "name": "G1",
            "ticks": 14688,
            "time": 20.863615499999998,
            "velocity": 0.2677165354330709
          },
          {
            "duration": 0.13636349999999808,
            "durationTicks": 96,
            "midi": 29,
            "name": "F1",
            "ticks": 14880,
            "time": 21.1363425,
            "velocity": 0.2677165354330709
          },
          {
            "duration": 0.13636350000000164,
            "durationTicks": 96,
            "midi": 31,
            "name": "G1",
            "ticks": 14976,
            "time": 21.272706,
            "velocity": 0.2677165354330709
          },
          {
            "duration": 0.13636349999999808,
            "durationTicks": 96,
            "midi": 41,
            "name": "F2",
            "ticks": 15072,
            "time": 21.4090695,
            "velocity": 0.2677165354330709
          },
          {
            "duration": 0.13636350000000164,
            "durationTicks": 96,
            "midi": 40,
            "name": "E2",
            "ticks": 15168,
            "time": 21.545433,
            "velocity": 0.2677165354330709
          },
          {
            "duration": 0.13636350000000164,
            "durationTicks": 96,
            "midi": 43,
            "name": "G2",
            "ticks": 15360,
            "time": 21.81816,
            "velocity": 0.2677165354330709
          },
          {
            "duration": 0.13636349999999808,
            "durationTicks": 96,
            "midi": 43,
            "name": "G2",
            "ticks": 15648,
            "time": 22.2272505,
            "velocity": 0.2677165354330709
          },
          {
            "duration": 0.13636349999999808,
            "durationTicks": 96,
            "midi": 41,
            "name": "F2",
            "ticks": 15840,
            "time": 22.4999775,
            "velocity": 0.2677165354330709
          },
          {
            "duration": 0.13636350000000164,
            "durationTicks": 96,
            "midi": 43,
            "name": "G2",
            "ticks": 15936,
            "time": 22.636340999999998,
            "velocity": 0.2677165354330709
          },
          {
            "duration": 0.13636349999999808,
            "durationTicks": 96,
            "midi": 43,
            "name": "G2",
            "ticks": 18432,
            "time": 26.181792,
            "velocity": 0.2677165354330709
          },
          {
            "duration": 0.13636349999999808,
            "durationTicks": 96,
            "midi": 31,
            "name": "G1",
            "ticks": 18432,
            "time": 26.181792,
            "velocity": 0.2677165354330709
          },
          {
            "duration": 0.13636350000000164,
            "durationTicks": 96,
            "midi": 43,
            "name": "G2",
            "ticks": 18720,
            "time": 26.5908825,
            "velocity": 0.2677165354330709
          },
          {
            "duration": 0.13636350000000164,
            "durationTicks": 96,
            "midi": 41,
            "name": "F2",
            "ticks": 18912,
            "time": 26.8636095,
            "velocity": 0.2677165354330709
          },
          {
            "duration": 0.13636349999999808,
            "durationTicks": 96,
            "midi": 43,
            "name": "G2",
            "ticks": 19008,
            "time": 26.999973,
            "velocity": 0.2677165354330709
          },
          {
            "duration": 0.13636350000000164,
            "durationTicks": 96,
            "midi": 43,
            "name": "G2",
            "ticks": 19968,
            "time": 28.363608,
            "velocity": 0.2677165354330709
          },
          {
            "duration": 0.13636349999999808,
            "durationTicks": 96,
            "midi": 43,
            "name": "G2",
            "ticks": 20256,
            "time": 28.7726985,
            "velocity": 0.2677165354330709
          },
          {
            "duration": 0.13636349999999808,
            "durationTicks": 96,
            "midi": 41,
            "name": "F2",
            "ticks": 20448,
            "time": 29.0454255,
            "velocity": 0.2677165354330709
          },
          {
            "duration": 0.13636350000000164,
            "durationTicks": 96,
            "midi": 43,
            "name": "G2",
            "ticks": 20544,
            "time": 29.181789,
            "velocity": 0.2677165354330709
          },
          {
            "duration": 0.13636350000000164,
            "durationTicks": 96,
            "midi": 31,
            "name": "G1",
            "ticks": 20832,
            "time": 29.5908795,
            "velocity": 0.2677165354330709
          },
          {
            "duration": 0.13636350000000164,
            "durationTicks": 96,
            "midi": 29,
            "name": "F1",
            "ticks": 21024,
            "time": 29.8636065,
            "velocity": 0.2677165354330709
          },
          {
            "duration": 0.13636349999999808,
            "durationTicks": 96,
            "midi": 31,
            "name": "G1",
            "ticks": 21120,
            "time": 29.99997,
            "velocity": 0.2677165354330709
          },
          {
            "duration": 0.13636350000000164,
            "durationTicks": 96,
            "midi": 41,
            "name": "F2",
            "ticks": 21216,
            "time": 30.1363335,
            "velocity": 0.2677165354330709
          },
          {
            "duration": 0.13636349999999808,
            "durationTicks": 96,
            "midi": 40,
            "name": "E2",
            "ticks": 21312,
            "time": 30.272697,
            "velocity": 0.2677165354330709
          },
          {
            "duration": 0.13636349999999808,
            "durationTicks": 96,
            "midi": 43,
            "name": "G2",
            "ticks": 21504,
            "time": 30.545424,
            "velocity": 0.2677165354330709
          },
          {
            "duration": 0.13636350000000164,
            "durationTicks": 96,
            "midi": 43,
            "name": "G2",
            "ticks": 21792,
            "time": 30.9545145,
            "velocity": 0.2677165354330709
          },
          {
            "duration": 0.13636350000000164,
            "durationTicks": 96,
            "midi": 41,
            "name": "F2",
            "ticks": 21984,
            "time": 31.227241499999998,
            "velocity": 0.2677165354330709
          },
          {
            "duration": 0.13636350000000164,
            "durationTicks": 96,
            "midi": 43,
            "name": "G2",
            "ticks": 22080,
            "time": 31.363605,
            "velocity": 0.2677165354330709
          },
          {
            "duration": 0.13636349999999453,
            "durationTicks": 96,
            "midi": 43,
            "name": "G2",
            "ticks": 23040,
            "time": 32.72724,
            "velocity": 0.2677165354330709
          },
          {
            "duration": 0.13636350000000164,
            "durationTicks": 96,
            "midi": 43,
            "name": "G2",
            "ticks": 23328,
            "time": 33.1363305,
            "velocity": 0.2677165354330709
          },
          {
            "duration": 0.13636349999999453,
            "durationTicks": 96,
            "midi": 41,
            "name": "F2",
            "ticks": 23520,
            "time": 33.4090575,
            "velocity": 0.2677165354330709
          },
          {
            "duration": 0.13636350000000164,
            "durationTicks": 96,
            "midi": 43,
            "name": "G2",
            "ticks": 23616,
            "time": 33.545421,
            "velocity": 0.2677165354330709
          },
          {
            "duration": 0.13636349999999453,
            "durationTicks": 96,
            "midi": 31,
            "name": "G1",
            "ticks": 23904,
            "time": 33.9545115,
            "velocity": 0.2677165354330709
          },
          {
            "duration": 0.13636350000000164,
            "durationTicks": 96,
            "midi": 29,
            "name": "F1",
            "ticks": 24096,
            "time": 34.2272385,
            "velocity": 0.2677165354330709
          },
          {
            "duration": 0.13636350000000164,
            "durationTicks": 96,
            "midi": 31,
            "name": "G1",
            "ticks": 24192,
            "time": 34.363602,
            "velocity": 0.2677165354330709
          },
          {
            "duration": 0.13636349999999453,
            "durationTicks": 96,
            "midi": 41,
            "name": "F2",
            "ticks": 24288,
            "time": 34.4999655,
            "velocity": 0.2677165354330709
          },
          {
            "duration": 0.13636350000000164,
            "durationTicks": 96,
            "midi": 43,
            "name": "G2",
            "ticks": 24576,
            "time": 34.909056,
            "velocity": 0.2677165354330709
          },
          {
            "duration": 0.13636350000000164,
            "durationTicks": 96,
            "midi": 31,
            "name": "G1",
            "ticks": 24576,
            "time": 34.909056,
            "velocity": 0.2677165354330709
          },
          {
            "duration": 0.13636350000000164,
            "durationTicks": 96,
            "midi": 43,
            "name": "G2",
            "ticks": 24864,
            "time": 35.3181465,
            "velocity": 0.2677165354330709
          },
          {
            "duration": 0.13636350000000164,
            "durationTicks": 96,
            "midi": 41,
            "name": "F2",
            "ticks": 25056,
            "time": 35.5908735,
            "velocity": 0.2677165354330709
          },
          {
            "duration": 0.13636349999999453,
            "durationTicks": 96,
            "midi": 43,
            "name": "G2",
            "ticks": 25152,
            "time": 35.727237,
            "velocity": 0.2677165354330709
          },
          {
            "duration": 0.13636350000000164,
            "durationTicks": 96,
            "midi": 43,
            "name": "G2",
            "ticks": 26112,
            "time": 37.090872,
            "velocity": 0.2677165354330709
          },
          {
            "duration": 0.13636349999999453,
            "durationTicks": 96,
            "midi": 43,
            "name": "G2",
            "ticks": 26400,
            "time": 37.4999625,
            "velocity": 0.2677165354330709
          },
          {
            "duration": 0.13636350000000164,
            "durationTicks": 96,
            "midi": 41,
            "name": "F2",
            "ticks": 26592,
            "time": 37.7726895,
            "velocity": 0.2677165354330709
          },
          {
            "duration": 0.13636350000000164,
            "durationTicks": 96,
            "midi": 43,
            "name": "G2",
            "ticks": 26688,
            "time": 37.909053,
            "velocity": 0.2677165354330709
          },
          {
            "duration": 0.13636350000000164,
            "durationTicks": 96,
            "midi": 31,
            "name": "G1",
            "ticks": 26976,
            "time": 38.3181435,
            "velocity": 0.2677165354330709
          },
          {
            "duration": 0.13636350000000164,
            "durationTicks": 96,
            "midi": 29,
            "name": "F1",
            "ticks": 27168,
            "time": 38.5908705,
            "velocity": 0.2677165354330709
          },
          {
            "duration": 0.13636349999999453,
            "durationTicks": 96,
            "midi": 31,
            "name": "G1",
            "ticks": 27264,
            "time": 38.727234,
            "velocity": 0.2677165354330709
          },
          {
            "duration": 0.13636350000000164,
            "durationTicks": 96,
            "midi": 41,
            "name": "F2",
            "ticks": 27360,
            "time": 38.8635975,
            "velocity": 0.2677165354330709
          },
          {
            "duration": 0.13636350000000164,
            "durationTicks": 96,
            "midi": 40,
            "name": "E2",
            "ticks": 27456,
            "time": 38.999961,
            "velocity": 0.2677165354330709
          },
          {
            "duration": 0.13636349999999453,
            "durationTicks": 96,
            "midi": 43,
            "name": "G2",
            "ticks": 27648,
            "time": 39.272688,
            "velocity": 0.2677165354330709
          },
          {
            "duration": 0.13636350000000164,
            "durationTicks": 96,
            "midi": 43,
            "name": "G2",
            "ticks": 27936,
            "time": 39.6817785,
            "velocity": 0.2677165354330709
          },
          {
            "duration": 0.13636350000000164,
            "durationTicks": 96,
            "midi": 41,
            "name": "F2",
            "ticks": 28128,
            "time": 39.954505499999996,
            "velocity": 0.2677165354330709
          },
          {
            "duration": 0.13636350000000164,
            "durationTicks": 96,
            "midi": 43,
            "name": "G2",
            "ticks": 28224,
            "time": 40.090869,
            "velocity": 0.2677165354330709
          },
          {
            "duration": 0.13636350000000164,
            "durationTicks": 96,
            "midi": 43,
            "name": "G2",
            "ticks": 30720,
            "time": 43.63632,
            "velocity": 0.2677165354330709
          },
          {
            "duration": 0.13636349999999453,
            "durationTicks": 96,
            "midi": 43,
            "name": "G2",
            "ticks": 31008,
            "time": 44.0454105,
            "velocity": 0.2677165354330709
          },
          {
            "duration": 0.13636350000000164,
            "durationTicks": 96,
            "midi": 41,
            "name": "F2",
            "ticks": 31200,
            "time": 44.3181375,
            "velocity": 0.2677165354330709
          },
          {
            "duration": 0.13636350000000164,
            "durationTicks": 96,
            "midi": 43,
            "name": "G2",
            "ticks": 31296,
            "time": 44.454501,
            "velocity": 0.2677165354330709
          },
          {
            "duration": 0.13636350000000164,
            "durationTicks": 96,
            "midi": 31,
            "name": "G1",
            "ticks": 31488,
            "time": 44.727228,
            "velocity": 0.2677165354330709
          },
          {
            "duration": 0.13636350000000164,
            "durationTicks": 96,
            "midi": 31,
            "name": "G1",
            "ticks": 31680,
            "time": 44.999955,
            "velocity": 0.2677165354330709
          },
          {
            "duration": 0.13636350000000164,
            "durationTicks": 96,
            "midi": 43,
            "name": "G2",
            "ticks": 31872,
            "time": 45.272681999999996,
            "velocity": 0.2677165354330709
          },
          {
            "duration": 0.13636349999999453,
            "durationTicks": 96,
            "midi": 43,
            "name": "G2",
            "ticks": 32256,
            "time": 45.818136,
            "velocity": 0.2677165354330709
          },
          {
            "duration": 0.13636350000000164,
            "durationTicks": 96,
            "midi": 43,
            "name": "G2",
            "ticks": 32544,
            "time": 46.2272265,
            "velocity": 0.2677165354330709
          },
          {
            "duration": 0.13636350000000164,
            "durationTicks": 96,
            "midi": 41,
            "name": "F2",
            "ticks": 32736,
            "time": 46.4999535,
            "velocity": 0.2677165354330709
          },
          {
            "duration": 0.13636350000000164,
            "durationTicks": 96,
            "midi": 43,
            "name": "G2",
            "ticks": 32832,
            "time": 46.636317,
            "velocity": 0.2677165354330709
          },
          {
            "duration": 0.13636350000000164,
            "durationTicks": 96,
            "midi": 31,
            "name": "G1",
            "ticks": 33120,
            "time": 47.045407499999996,
            "velocity": 0.2677165354330709
          },
          {
            "duration": 0.13636350000000164,
            "durationTicks": 96,
            "midi": 29,
            "name": "F1",
            "ticks": 33312,
            "time": 47.3181345,
            "velocity": 0.2677165354330709
          },
          {
            "duration": 0.13636350000000164,
            "durationTicks": 96,
            "midi": 31,
            "name": "G1",
            "ticks": 33408,
            "time": 47.454498,
            "velocity": 0.2677165354330709
          },
          {
            "duration": 0.13636349999999453,
            "durationTicks": 96,
            "midi": 41,
            "name": "F2",
            "ticks": 33504,
            "time": 47.5908615,
            "velocity": 0.2677165354330709
          },
          {
            "duration": 0.13636350000000164,
            "durationTicks": 96,
            "midi": 40,
            "name": "E2",
            "ticks": 33600,
            "time": 47.727225,
            "velocity": 0.2677165354330709
          },
          {
            "duration": 0.13636350000000164,
            "durationTicks": 96,
            "midi": 43,
            "name": "G2",
            "ticks": 33792,
            "time": 47.999952,
            "velocity": 0.2677165354330709
          },
          {
            "duration": 0.13636350000000164,
            "durationTicks": 96,
            "midi": 43,
            "name": "G2",
            "ticks": 34080,
            "time": 48.4090425,
            "velocity": 0.2677165354330709
          },
          {
            "duration": 0.13636349999999453,
            "durationTicks": 96,
            "midi": 41,
            "name": "F2",
            "ticks": 34272,
            "time": 48.6817695,
            "velocity": 0.2677165354330709
          },
          {
            "duration": 0.13636350000000164,
            "durationTicks": 96,
            "midi": 43,
            "name": "G2",
            "ticks": 34368,
            "time": 48.818132999999996,
            "velocity": 0.2677165354330709
          },
          {
            "duration": 0.13636350000000164,
            "durationTicks": 96,
            "midi": 31,
            "name": "G1",
            "ticks": 34560,
            "time": 49.09086,
            "velocity": 0.2677165354330709
          },
          {
            "duration": 0.13636349999999453,
            "durationTicks": 96,
            "midi": 31,
            "name": "G1",
            "ticks": 34752,
            "time": 49.363587,
            "velocity": 0.2677165354330709
          },
          {
            "duration": 0.13636350000000164,
            "durationTicks": 96,
            "midi": 43,
            "name": "G2",
            "ticks": 34944,
            "time": 49.636314,
            "velocity": 0.2677165354330709
          },
          {
            "duration": 0.13636350000000164,
            "durationTicks": 96,
            "midi": 43,
            "name": "G2",
            "ticks": 35328,
            "time": 50.181768,
            "velocity": 0.2677165354330709
          },
          {
            "duration": 0.13636350000000164,
            "durationTicks": 96,
            "midi": 43,
            "name": "G2",
            "ticks": 35616,
            "time": 50.590858499999996,
            "velocity": 0.2677165354330709
          },
          {
            "duration": 0.13636350000000164,
            "durationTicks": 96,
            "midi": 41,
            "name": "F2",
            "ticks": 35808,
            "time": 50.8635855,
            "velocity": 0.2677165354330709
          },
          {
            "duration": 0.13636350000000164,
            "durationTicks": 96,
            "midi": 43,
            "name": "G2",
            "ticks": 35904,
            "time": 50.999949,
            "velocity": 0.2677165354330709
          },
          {
            "duration": 0.13636350000000164,
            "durationTicks": 96,
            "midi": 31,
            "name": "G1",
            "ticks": 36192,
            "time": 51.4090395,
            "velocity": 0.2677165354330709
          },
          {
            "duration": 0.13636349999999453,
            "durationTicks": 96,
            "midi": 29,
            "name": "F1",
            "ticks": 36384,
            "time": 51.6817665,
            "velocity": 0.2677165354330709
          },
          {
            "duration": 0.13636350000000164,
            "durationTicks": 96,
            "midi": 31,
            "name": "G1",
            "ticks": 36480,
            "time": 51.81813,
            "velocity": 0.2677165354330709
          },
          {
            "duration": 0.13636350000000164,
            "durationTicks": 96,
            "midi": 41,
            "name": "F2",
            "ticks": 36576,
            "time": 51.9544935,
            "velocity": 0.2677165354330709
          },
          {
            "duration": 0.13636350000000164,
            "durationTicks": 96,
            "midi": 40,
            "name": "E2",
            "ticks": 36672,
            "time": 52.090857,
            "velocity": 0.2677165354330709
          },
          {
            "duration": 0.13636349999999453,
            "durationTicks": 96,
            "midi": 43,
            "name": "G2",
            "ticks": 36864,
            "time": 52.363584,
            "velocity": 0.2677165354330709
          },
          {
            "duration": 0.13636350000000164,
            "durationTicks": 96,
            "midi": 43,
            "name": "G2",
            "ticks": 37152,
            "time": 52.7726745,
            "velocity": 0.2677165354330709
          },
          {
            "duration": 0.13636350000000164,
            "durationTicks": 96,
            "midi": 41,
            "name": "F2",
            "ticks": 37344,
            "time": 53.0454015,
            "velocity": 0.2677165354330709
          },
          {
            "duration": 0.13636350000000164,
            "durationTicks": 96,
            "midi": 43,
            "name": "G2",
            "ticks": 37440,
            "time": 53.181765,
            "velocity": 0.2677165354330709
          },
          {
            "duration": 0.13636349999999453,
            "durationTicks": 96,
            "midi": 31,
            "name": "G1",
            "ticks": 37632,
            "time": 53.454492,
            "velocity": 0.2677165354330709
          },
          {
            "duration": 0.13636350000000164,
            "durationTicks": 96,
            "midi": 31,
            "name": "G1",
            "ticks": 37824,
            "time": 53.727219,
            "velocity": 0.2677165354330709
          },
          {
            "duration": 0.13636350000000164,
            "durationTicks": 96,
            "midi": 43,
            "name": "G2",
            "ticks": 38016,
            "time": 53.999946,
            "velocity": 0.2677165354330709
          },
          {
            "duration": 0.13636350000000164,
            "durationTicks": 96,
            "midi": 43,
            "name": "G2",
            "ticks": 38400,
            "time": 54.5454,
            "velocity": 0.2677165354330709
          },
          {
            "duration": 0.13636350000000164,
            "durationTicks": 96,
            "midi": 43,
            "name": "G2",
            "ticks": 38688,
            "time": 54.9544905,
            "velocity": 0.2677165354330709
          },
          {
            "duration": 0.13636349999999453,
            "durationTicks": 96,
            "midi": 41,
            "name": "F2",
            "ticks": 38880,
            "time": 55.2272175,
            "velocity": 0.2677165354330709
          },
          {
            "duration": 0.13636350000000164,
            "durationTicks": 96,
            "midi": 43,
            "name": "G2",
            "ticks": 38976,
            "time": 55.363580999999996,
            "velocity": 0.2677165354330709
          },
          {
            "duration": 0.13636350000000164,
            "durationTicks": 96,
            "midi": 31,
            "name": "G1",
            "ticks": 39264,
            "time": 55.7726715,
            "velocity": 0.2677165354330709
          },
          {
            "duration": 0.13636350000000164,
            "durationTicks": 96,
            "midi": 29,
            "name": "F1",
            "ticks": 39456,
            "time": 56.0453985,
            "velocity": 0.2677165354330709
          },
          {
            "duration": 0.13636350000000164,
            "durationTicks": 96,
            "midi": 31,
            "name": "G1",
            "ticks": 39552,
            "time": 56.181762,
            "velocity": 0.2677165354330709
          },
          {
            "duration": 0.13636350000000164,
            "durationTicks": 96,
            "midi": 41,
            "name": "F2",
            "ticks": 39648,
            "time": 56.3181255,
            "velocity": 0.2677165354330709
          },
          {
            "duration": 0.13636349999999453,
            "durationTicks": 96,
            "midi": 40,
            "name": "E2",
            "ticks": 39744,
            "time": 56.454489,
            "velocity": 0.2677165354330709
          },
          {
            "duration": 0.13636350000000164,
            "durationTicks": 96,
            "midi": 43,
            "name": "G2",
            "ticks": 39936,
            "time": 56.727216,
            "velocity": 0.2677165354330709
          },
          {
            "duration": 0.13636350000000164,
            "durationTicks": 96,
            "midi": 43,
            "name": "G2",
            "ticks": 40224,
            "time": 57.136306499999996,
            "velocity": 0.2677165354330709
          },
          {
            "duration": 0.13636350000000164,
            "durationTicks": 96,
            "midi": 41,
            "name": "F2",
            "ticks": 40416,
            "time": 57.4090335,
            "velocity": 0.2677165354330709
          },
          {
            "duration": 0.13636350000000164,
            "durationTicks": 96,
            "midi": 43,
            "name": "G2",
            "ticks": 40512,
            "time": 57.545397,
            "velocity": 0.2677165354330709
          },
          {
            "duration": 0.13636350000000164,
            "durationTicks": 96,
            "midi": 31,
            "name": "G1",
            "ticks": 40704,
            "time": 57.818124,
            "velocity": 0.2677165354330709
          },
          {
            "duration": 0.13636350000000164,
            "durationTicks": 96,
            "midi": 31,
            "name": "G1",
            "ticks": 40896,
            "time": 58.090851,
            "velocity": 0.2677165354330709
          },
          {
            "duration": 0.13636350000000164,
            "durationTicks": 96,
            "midi": 43,
            "name": "G2",
            "ticks": 41088,
            "time": 58.363578,
            "velocity": 0.2677165354330709
          },
          {
            "duration": 0.13636350000000164,
            "durationTicks": 96,
            "midi": 43,
            "name": "G2",
            "ticks": 41472,
            "time": 58.909031999999996,
            "velocity": 0.2677165354330709
          },
          {
            "duration": 0.13636350000000164,
            "durationTicks": 96,
            "midi": 43,
            "name": "G2",
            "ticks": 41760,
            "time": 59.3181225,
            "velocity": 0.2677165354330709
          },
          {
            "duration": 0.13636350000000164,
            "durationTicks": 96,
            "midi": 41,
            "name": "F2",
            "ticks": 41952,
            "time": 59.5908495,
            "velocity": 0.2677165354330709
          },
          {
            "duration": 0.13636350000000164,
            "durationTicks": 96,
            "midi": 43,
            "name": "G2",
            "ticks": 42048,
            "time": 59.727213,
            "velocity": 0.2677165354330709
          },
          {
            "duration": 0.13636350000000164,
            "durationTicks": 96,
            "midi": 31,
            "name": "G1",
            "ticks": 42336,
            "time": 60.1363035,
            "velocity": 0.2677165354330709
          },
          {
            "duration": 0.13636350000000164,
            "durationTicks": 96,
            "midi": 29,
            "name": "F1",
            "ticks": 42528,
            "time": 60.4090305,
            "velocity": 0.2677165354330709
          },
          {
            "duration": 0.13636349999999453,
            "durationTicks": 96,
            "midi": 31,
            "name": "G1",
            "ticks": 42624,
            "time": 60.545394,
            "velocity": 0.2677165354330709
          },
          {
            "duration": 0.13636350000000164,
            "durationTicks": 96,
            "midi": 41,
            "name": "F2",
            "ticks": 42720,
            "time": 60.681757499999996,
            "velocity": 0.2677165354330709
          },
          {
            "duration": 0.13636350000000164,
            "durationTicks": 96,
            "midi": 40,
            "name": "E2",
            "ticks": 42816,
            "time": 60.818121,
            "velocity": 0.2677165354330709
          },
          {
            "duration": 0.13636350000000164,
            "durationTicks": 96,
            "midi": 43,
            "name": "G2",
            "ticks": 61440,
            "time": 87.27264,
            "velocity": 0.2677165354330709
          },
          {
            "duration": 0.13636350000000164,
            "durationTicks": 96,
            "midi": 43,
            "name": "G2",
            "ticks": 61728,
            "time": 87.6817305,
            "velocity": 0.2677165354330709
          },
          {
            "duration": 0.13636350000000164,
            "durationTicks": 96,
            "midi": 41,
            "name": "F2",
            "ticks": 61920,
            "time": 87.9544575,
            "velocity": 0.2677165354330709
          },
          {
            "duration": 0.13636349999998743,
            "durationTicks": 96,
            "midi": 43,
            "name": "G2",
            "ticks": 62016,
            "time": 88.090821,
            "velocity": 0.2677165354330709
          },
          {
            "duration": 0.13636350000000164,
            "durationTicks": 96,
            "midi": 31,
            "name": "G1",
            "ticks": 62208,
            "time": 88.363548,
            "velocity": 0.2677165354330709
          },
          {
            "duration": 0.13636350000000164,
            "durationTicks": 96,
            "midi": 31,
            "name": "G1",
            "ticks": 62400,
            "time": 88.636275,
            "velocity": 0.2677165354330709
          },
          {
            "duration": 0.13636350000000164,
            "durationTicks": 96,
            "midi": 43,
            "name": "G2",
            "ticks": 62976,
            "time": 89.454456,
            "velocity": 0.2677165354330709
          },
          {
            "duration": 0.13636350000000164,
            "durationTicks": 96,
            "midi": 43,
            "name": "G2",
            "ticks": 63264,
            "time": 89.8635465,
            "velocity": 0.2677165354330709
          },
          {
            "duration": 0.13636350000000164,
            "durationTicks": 96,
            "midi": 41,
            "name": "F2",
            "ticks": 63456,
            "time": 90.1362735,
            "velocity": 0.2677165354330709
          },
          {
            "duration": 0.13636350000000164,
            "durationTicks": 96,
            "midi": 43,
            "name": "G2",
            "ticks": 63552,
            "time": 90.272637,
            "velocity": 0.2677165354330709
          },
          {
            "duration": 0.13636350000000164,
            "durationTicks": 96,
            "midi": 31,
            "name": "G1",
            "ticks": 63840,
            "time": 90.6817275,
            "velocity": 0.2677165354330709
          },
          {
            "duration": 0.13636350000000164,
            "durationTicks": 96,
            "midi": 29,
            "name": "F1",
            "ticks": 64032,
            "time": 90.9544545,
            "velocity": 0.2677165354330709
          },
          {
            "duration": 0.13636350000000164,
            "durationTicks": 96,
            "midi": 31,
            "name": "G1",
            "ticks": 64128,
            "time": 91.090818,
            "velocity": 0.2677165354330709
          },
          {
            "duration": 0.13636350000000164,
            "durationTicks": 96,
            "midi": 41,
            "name": "F2",
            "ticks": 64224,
            "time": 91.2271815,
            "velocity": 0.2677165354330709
          },
          {
            "duration": 0.13636350000000164,
            "durationTicks": 96,
            "midi": 40,
            "name": "E2",
            "ticks": 64320,
            "time": 91.363545,
            "velocity": 0.2677165354330709
          },
          {
            "duration": 0.13636349999998743,
            "durationTicks": 96,
            "midi": 43,
            "name": "G2",
            "ticks": 64512,
            "time": 91.636272,
            "velocity": 0.2677165354330709
          },
          {
            "duration": 0.13636350000000164,
            "durationTicks": 96,
            "midi": 43,
            "name": "G2",
            "ticks": 64800,
            "time": 92.0453625,
            "velocity": 0.2677165354330709
          },
          {
            "duration": 0.13636350000000164,
            "durationTicks": 96,
            "midi": 41,
            "name": "F2",
            "ticks": 64992,
            "time": 92.3180895,
            "velocity": 0.2677165354330709
          },
          {
            "duration": 0.13636350000000164,
            "durationTicks": 96,
            "midi": 43,
            "name": "G2",
            "ticks": 65088,
            "time": 92.454453,
            "velocity": 0.2677165354330709
          },
          {
            "duration": 0.13636350000000164,
            "durationTicks": 96,
            "midi": 31,
            "name": "G1",
            "ticks": 65280,
            "time": 92.72718,
            "velocity": 0.2677165354330709
          },
          {
            "duration": 0.13636350000000164,
            "durationTicks": 96,
            "midi": 31,
            "name": "G1",
            "ticks": 65472,
            "time": 92.999907,
            "velocity": 0.2677165354330709
          },
          {
            "duration": 0.13636350000000164,
            "durationTicks": 96,
            "midi": 43,
            "name": "G2",
            "ticks": 66048,
            "time": 93.818088,
            "velocity": 0.2677165354330709
          },
          {
            "duration": 0.13636350000000164,
            "durationTicks": 96,
            "midi": 43,
            "name": "G2",
            "ticks": 66336,
            "time": 94.2271785,
            "velocity": 0.2677165354330709
          },
          {
            "duration": 0.13636350000000164,
            "durationTicks": 96,
            "midi": 41,
            "name": "F2",
            "ticks": 66528,
            "time": 94.4999055,
            "velocity": 0.2677165354330709
          },
          {
            "duration": 0.13636350000000164,
            "durationTicks": 96,
            "midi": 43,
            "name": "G2",
            "ticks": 66624,
            "time": 94.636269,
            "velocity": 0.2677165354330709
          },
          {
            "duration": 0.13636350000000164,
            "durationTicks": 96,
            "midi": 31,
            "name": "G1",
            "ticks": 66912,
            "time": 95.0453595,
            "velocity": 0.2677165354330709
          },
          {
            "duration": 0.13636350000000164,
            "durationTicks": 96,
            "midi": 29,
            "name": "F1",
            "ticks": 67104,
            "time": 95.31808649999999,
            "velocity": 0.2677165354330709
          },
          {
            "duration": 0.13636350000000164,
            "durationTicks": 96,
            "midi": 31,
            "name": "G1",
            "ticks": 67200,
            "time": 95.45445,
            "velocity": 0.2677165354330709
          },
          {
            "duration": 0.13636350000000164,
            "durationTicks": 96,
            "midi": 41,
            "name": "F2",
            "ticks": 67296,
            "time": 95.5908135,
            "velocity": 0.2677165354330709
          },
          {
            "duration": 0.13636350000000164,
            "durationTicks": 96,
            "midi": 40,
            "name": "E2",
            "ticks": 67392,
            "time": 95.727177,
            "velocity": 0.2677165354330709
          },
          {
            "duration": 0.13636350000000164,
            "durationTicks": 96,
            "midi": 43,
            "name": "G2",
            "ticks": 67584,
            "time": 95.999904,
            "velocity": 0.2677165354330709
          },
          {
            "duration": 0.13636349999998743,
            "durationTicks": 96,
            "midi": 43,
            "name": "G2",
            "ticks": 67872,
            "time": 96.4089945,
            "velocity": 0.2677165354330709
          },
          {
            "duration": 0.13636350000000164,
            "durationTicks": 96,
            "midi": 41,
            "name": "F2",
            "ticks": 68064,
            "time": 96.6817215,
            "velocity": 0.2677165354330709
          },
          {
            "duration": 0.13636350000000164,
            "durationTicks": 96,
            "midi": 43,
            "name": "G2",
            "ticks": 68160,
            "time": 96.818085,
            "velocity": 0.2677165354330709
          },
          {
            "duration": 0.13636350000000164,
            "durationTicks": 96,
            "midi": 31,
            "name": "G1",
            "ticks": 68352,
            "time": 97.090812,
            "velocity": 0.2677165354330709
          },
          {
            "duration": 0.13636350000000164,
            "durationTicks": 96,
            "midi": 31,
            "name": "G1",
            "ticks": 68544,
            "time": 97.363539,
            "velocity": 0.2677165354330709
          },
          {
            "duration": 0.13636350000000164,
            "durationTicks": 96,
            "midi": 43,
            "name": "G2",
            "ticks": 69120,
            "time": 98.18172,
            "velocity": 0.2677165354330709
          },
          {
            "duration": 0.13636350000000164,
            "durationTicks": 96,
            "midi": 43,
            "name": "G2",
            "ticks": 69408,
            "time": 98.5908105,
            "velocity": 0.2677165354330709
          },
          {
            "duration": 0.13636350000000164,
            "durationTicks": 96,
            "midi": 41,
            "name": "F2",
            "ticks": 69600,
            "time": 98.86353749999999,
            "velocity": 0.2677165354330709
          },
          {
            "duration": 0.13636350000000164,
            "durationTicks": 96,
            "midi": 43,
            "name": "G2",
            "ticks": 69696,
            "time": 98.999901,
            "velocity": 0.2677165354330709
          },
          {
            "duration": 0.13636350000000164,
            "durationTicks": 96,
            "midi": 31,
            "name": "G1",
            "ticks": 69984,
            "time": 99.4089915,
            "velocity": 0.2677165354330709
          },
          {
            "duration": 0.13636350000000164,
            "durationTicks": 96,
            "midi": 29,
            "name": "F1",
            "ticks": 70176,
            "time": 99.6817185,
            "velocity": 0.2677165354330709
          },
          {
            "duration": 0.13636350000000164,
            "durationTicks": 96,
            "midi": 31,
            "name": "G1",
            "ticks": 70272,
            "time": 99.818082,
            "velocity": 0.2677165354330709
          },
          {
            "duration": 0.13636349999998743,
            "durationTicks": 96,
            "midi": 41,
            "name": "F2",
            "ticks": 70368,
            "time": 99.9544455,
            "velocity": 0.2677165354330709
          },
          {
            "duration": 0.13636350000000164,
            "durationTicks": 96,
            "midi": 40,
            "name": "E2",
            "ticks": 70464,
            "time": 100.090809,
            "velocity": 0.2677165354330709
          },
          {
            "duration": 0.13636350000000164,
            "durationTicks": 96,
            "midi": 43,
            "name": "G2",
            "ticks": 70656,
            "time": 100.363536,
            "velocity": 0.2677165354330709
          },
          {
            "duration": 0.13636350000000164,
            "durationTicks": 96,
            "midi": 43,
            "name": "G2",
            "ticks": 70944,
            "time": 100.7726265,
            "velocity": 0.2677165354330709
          },
          {
            "duration": 0.13636349999998743,
            "durationTicks": 96,
            "midi": 41,
            "name": "F2",
            "ticks": 71136,
            "time": 101.0453535,
            "velocity": 0.2677165354330709
          },
          {
            "duration": 0.13636350000000164,
            "durationTicks": 96,
            "midi": 43,
            "name": "G2",
            "ticks": 71232,
            "time": 101.18171699999999,
            "velocity": 0.2677165354330709
          },
          {
            "duration": 0.13636350000000164,
            "durationTicks": 96,
            "midi": 31,
            "name": "G1",
            "ticks": 71424,
            "time": 101.454444,
            "velocity": 0.2677165354330709
          },
          {
            "duration": 0.13636350000000164,
            "durationTicks": 96,
            "midi": 31,
            "name": "G1",
            "ticks": 71616,
            "time": 101.727171,
            "velocity": 0.2677165354330709
          }
        ],
        "endOfTrackTicks": 71712
      },
      {
        "channel": 9,
        "controlChanges": {},
        "pitchBends": [],
        "instrument": {
          "family": "drums",
          "number": 0,
          "name": "standard kit"
        },
        "name": "Electric Drum Kit",
        "notes": [
          {
            "duration": 0.1363635,
            "durationTicks": 96,
            "midi": 36,
            "name": "C2",
            "ticks": 0,
            "time": 0,
            "velocity": 0.4881889763779528
          },
          {
            "duration": 0.13636349999999997,
            "durationTicks": 96,
            "midi": 38,
            "name": "D2",
            "ticks": 384,
            "time": 0.545454,
            "velocity": 0.4881889763779528
          },
          {
            "duration": 0.13636350000000008,
            "durationTicks": 96,
            "midi": 36,
            "name": "C2",
            "ticks": 768,
            "time": 1.090908,
            "velocity": 0.4881889763779528
          },
          {
            "duration": 0.13636350000000008,
            "durationTicks": 96,
            "midi": 36,
            "name": "C2",
            "ticks": 960,
            "time": 1.363635,
            "velocity": 0.4881889763779528
          },
          {
            "duration": 0.13636349999999986,
            "durationTicks": 96,
            "midi": 38,
            "name": "D2",
            "ticks": 1152,
            "time": 1.636362,
            "velocity": 0.4881889763779528
          },
          {
            "duration": 0.13636349999999986,
            "durationTicks": 96,
            "midi": 36,
            "name": "C2",
            "ticks": 1536,
            "time": 2.181816,
            "velocity": 0.4881889763779528
          },
          {
            "duration": 0.1363635000000003,
            "durationTicks": 96,
            "midi": 38,
            "name": "D2",
            "ticks": 1920,
            "time": 2.72727,
            "velocity": 0.4881889763779528
          },
          {
            "duration": 0.13636349999999986,
            "durationTicks": 96,
            "midi": 36,
            "name": "C2",
            "ticks": 2304,
            "time": 3.272724,
            "velocity": 0.4881889763779528
          },
          {
            "duration": 0.13636349999999986,
            "durationTicks": 96,
            "midi": 36,
            "name": "C2",
            "ticks": 2496,
            "time": 3.545451,
            "velocity": 0.4881889763779528
          },
          {
            "duration": 0.13636349999999986,
            "durationTicks": 96,
            "midi": 38,
            "name": "D2",
            "ticks": 2688,
            "time": 3.818178,
            "velocity": 0.4881889763779528
          },
          {
            "duration": 0.13636349999999986,
            "durationTicks": 96,
            "midi": 36,
            "name": "C2",
            "ticks": 3072,
            "time": 4.363632,
            "velocity": 0.4881889763779528
          },
          {
            "duration": 0.13636349999999986,
            "durationTicks": 96,
            "midi": 38,
            "name": "D2",
            "ticks": 3456,
            "time": 4.909086,
            "velocity": 0.4881889763779528
          },
          {
            "duration": 0.13636349999999986,
            "durationTicks": 96,
            "midi": 36,
            "name": "C2",
            "ticks": 3840,
            "time": 5.45454,
            "velocity": 0.4881889763779528
          },
          {
            "duration": 0.13636349999999986,
            "durationTicks": 96,
            "midi": 36,
            "name": "C2",
            "ticks": 4032,
            "time": 5.727267,
            "velocity": 0.4881889763779528
          },
          {
            "duration": 0.13636349999999986,
            "durationTicks": 96,
            "midi": 38,
            "name": "D2",
            "ticks": 4224,
            "time": 5.999994,
            "velocity": 0.4881889763779528
          },
          {
            "duration": 0.13636349999999986,
            "durationTicks": 96,
            "midi": 36,
            "name": "C2",
            "ticks": 4608,
            "time": 6.545448,
            "velocity": 0.4881889763779528
          },
          {
            "duration": 0.13636349999999986,
            "durationTicks": 96,
            "midi": 38,
            "name": "D2",
            "ticks": 4992,
            "time": 7.090902,
            "velocity": 0.4881889763779528
          },
          {
            "duration": 0.13636349999999986,
            "durationTicks": 96,
            "midi": 36,
            "name": "C2",
            "ticks": 5376,
            "time": 7.636356,
            "velocity": 0.4881889763779528
          },
          {
            "duration": 0.13636350000000075,
            "durationTicks": 96,
            "midi": 36,
            "name": "C2",
            "ticks": 5568,
            "time": 7.909083,
            "velocity": 0.4881889763779528
          },
          {
            "duration": 0.13636349999999986,
            "durationTicks": 96,
            "midi": 38,
            "name": "D2",
            "ticks": 5760,
            "time": 8.18181,
            "velocity": 0.4881889763779528
          },
          {
            "duration": 0.13636349999999986,
            "durationTicks": 96,
            "midi": 36,
            "name": "C2",
            "ticks": 6144,
            "time": 8.727264,
            "velocity": 0.4881889763779528
          },
          {
            "duration": 0.13636349999999986,
            "durationTicks": 96,
            "midi": 38,
            "name": "D2",
            "ticks": 6528,
            "time": 9.272718,
            "velocity": 0.4881889763779528
          },
          {
            "duration": 0.13636349999999986,
            "durationTicks": 96,
            "midi": 36,
            "name": "C2",
            "ticks": 6912,
            "time": 9.818172,
            "velocity": 0.4881889763779528
          },
          {
            "duration": 0.13636349999999986,
            "durationTicks": 96,
            "midi": 36,
            "name": "C2",
            "ticks": 7104,
            "time": 10.090899,
            "velocity": 0.4881889763779528
          },
          {
            "duration": 0.13636349999999986,
            "durationTicks": 96,
            "midi": 38,
            "name": "D2",
            "ticks": 7296,
            "time": 10.363626,
            "velocity": 0.4881889763779528
          },
          {
            "duration": 0.13636349999999986,
            "durationTicks": 96,
            "midi": 36,
            "name": "C2",
            "ticks": 7680,
            "time": 10.90908,
            "velocity": 0.4881889763779528
          },
          {
            "duration": 0.13636349999999986,
            "durationTicks": 96,
            "midi": 38,
            "name": "D2",
            "ticks": 8064,
            "time": 11.454534,
            "velocity": 0.4881889763779528
          },
          {
            "duration": 0.13636349999999986,
            "durationTicks": 96,
            "midi": 36,
            "name": "C2",
            "ticks": 8448,
            "time": 11.999988,
            "velocity": 0.4881889763779528
          },
          {
            "duration": 0.13636349999999986,
            "durationTicks": 96,
            "midi": 36,
            "name": "C2",
            "ticks": 8640,
            "time": 12.272715,
            "velocity": 0.4881889763779528
          },
          {
            "duration": 0.13636349999999986,
            "durationTicks": 96,
            "midi": 38,
            "name": "D2",
            "ticks": 8832,
            "time": 12.545442,
            "velocity": 0.4881889763779528
          },
          {
            "duration": 0.13636349999999986,
            "durationTicks": 96,
            "midi": 36,
            "name": "C2",
            "ticks": 9216,
            "time": 13.090896,
            "velocity": 0.4881889763779528
          },
          {
            "duration": 0.13636349999999986,
            "durationTicks": 96,
            "midi": 38,
            "name": "D2",
            "ticks": 9600,
            "time": 13.63635,
            "velocity": 0.4881889763779528
          },
          {
            "duration": 0.13636349999999986,
            "durationTicks": 96,
            "midi": 36,
            "name": "C2",
            "ticks": 9984,
            "time": 14.181804,
            "velocity": 0.4881889763779528
          },
          {
            "duration": 0.13636349999999986,
            "durationTicks": 96,
            "midi": 36,
            "name": "C2",
            "ticks": 10176,
            "time": 14.454531,
            "velocity": 0.4881889763779528
          },
          {
            "duration": 0.13636350000000164,
            "durationTicks": 96,
            "midi": 38,
            "name": "D2",
            "ticks": 10368,
            "time": 14.727257999999999,
            "velocity": 0.4881889763779528
          },
          {
            "duration": 0.13636349999999986,
            "durationTicks": 96,
            "midi": 36,
            "name": "C2",
            "ticks": 10752,
            "time": 15.272712,
            "velocity": 0.4881889763779528
          },
          {
            "duration": 0.13636349999999986,
            "durationTicks": 96,
            "midi": 38,
            "name": "D2",
            "ticks": 11136,
            "time": 15.818166,
            "velocity": 0.4881889763779528
          },
          {
            "duration": 0.13636349999999808,
            "durationTicks": 96,
            "midi": 36,
            "name": "C2",
            "ticks": 11520,
            "time": 16.36362,
            "velocity": 0.4881889763779528
          },
          {
            "duration": 0.13636349999999808,
            "durationTicks": 96,
            "midi": 36,
            "name": "C2",
            "ticks": 11712,
            "time": 16.636347,
            "velocity": 0.4881889763779528
          },
          {
            "duration": 0.13636349999999808,
            "durationTicks": 96,
            "midi": 38,
            "name": "D2",
            "ticks": 11904,
            "time": 16.909074,
            "velocity": 0.4881889763779528
          },
          {
            "duration": 0.13636350000000164,
            "durationTicks": 96,
            "midi": 36,
            "name": "C2",
            "ticks": 12288,
            "time": 17.454528,
            "velocity": 0.4881889763779528
          },
          {
            "duration": 0.13636350000000164,
            "durationTicks": 96,
            "midi": 38,
            "name": "D2",
            "ticks": 12672,
            "time": 17.999982,
            "velocity": 0.4881889763779528
          },
          {
            "duration": 0.13636350000000164,
            "durationTicks": 96,
            "midi": 36,
            "name": "C2",
            "ticks": 13056,
            "time": 18.545436,
            "velocity": 0.4881889763779528
          },
          {
            "duration": 0.13636350000000164,
            "durationTicks": 96,
            "midi": 36,
            "name": "C2",
            "ticks": 13248,
            "time": 18.818163,
            "velocity": 0.4881889763779528
          },
          {
            "duration": 0.13636350000000164,
            "durationTicks": 96,
            "midi": 38,
            "name": "D2",
            "ticks": 13440,
            "time": 19.090889999999998,
            "velocity": 0.4881889763779528
          },
          {
            "duration": 0.13636349999999808,
            "durationTicks": 96,
            "midi": 36,
            "name": "C2",
            "ticks": 13824,
            "time": 19.636344,
            "velocity": 0.4881889763779528
          },
          {
            "duration": 0.13636349999999808,
            "durationTicks": 96,
            "midi": 38,
            "name": "D2",
            "ticks": 14208,
            "time": 20.181798,
            "velocity": 0.4881889763779528
          },
          {
            "duration": 0.13636349999999808,
            "durationTicks": 96,
            "midi": 36,
            "name": "C2",
            "ticks": 14592,
            "time": 20.727252,
            "velocity": 0.4881889763779528
          },
          {
            "duration": 0.13636350000000164,
            "durationTicks": 96,
            "midi": 36,
            "name": "C2",
            "ticks": 14784,
            "time": 20.999979,
            "velocity": 0.4881889763779528
          },
          {
            "duration": 0.13636350000000164,
            "durationTicks": 96,
            "midi": 38,
            "name": "D2",
            "ticks": 14976,
            "time": 21.272706,
            "velocity": 0.4881889763779528
          },
          {
            "duration": 0.13636350000000164,
            "durationTicks": 96,
            "midi": 36,
            "name": "C2",
            "ticks": 15360,
            "time": 21.81816,
            "velocity": 0.4881889763779528
          },
          {
            "duration": 0.13636350000000164,
            "durationTicks": 96,
            "midi": 38,
            "name": "D2",
            "ticks": 15744,
            "time": 22.363614,
            "velocity": 0.4881889763779528
          },
          {
            "duration": 0.13636349999999808,
            "durationTicks": 96,
            "midi": 36,
            "name": "C2",
            "ticks": 16128,
            "time": 22.909068,
            "velocity": 0.4881889763779528
          },
          {
            "duration": 0.13636349999999808,
            "durationTicks": 96,
            "midi": 36,
            "name": "C2",
            "ticks": 16320,
            "time": 23.181795,
            "velocity": 0.4881889763779528
          },
          {
            "duration": 0.13636349999999808,
            "durationTicks": 96,
            "midi": 38,
            "name": "D2",
            "ticks": 16512,
            "time": 23.454522,
            "velocity": 0.4881889763779528
          },
          {
            "duration": 0.13636349999999808,
            "durationTicks": 96,
            "midi": 36,
            "name": "C2",
            "ticks": 18432,
            "time": 26.181792,
            "velocity": 0.4881889763779528
          },
          {
            "duration": 0.13636349999999808,
            "durationTicks": 96,
            "midi": 38,
            "name": "D2",
            "ticks": 18816,
            "time": 26.727246,
            "velocity": 0.4881889763779528
          },
          {
            "duration": 0.13636349999999808,
            "durationTicks": 96,
            "midi": 36,
            "name": "C2",
            "ticks": 19200,
            "time": 27.2727,
            "velocity": 0.4881889763779528
          },
          {
            "duration": 0.13636349999999808,
            "durationTicks": 96,
            "midi": 36,
            "name": "C2",
            "ticks": 19392,
            "time": 27.545427,
            "velocity": 0.4881889763779528
          },
          {
            "duration": 0.13636350000000164,
            "durationTicks": 96,
            "midi": 38,
            "name": "D2",
            "ticks": 19584,
            "time": 27.818154,
            "velocity": 0.4881889763779528
          },
          {
            "duration": 0.13636350000000164,
            "durationTicks": 96,
            "midi": 36,
            "name": "C2",
            "ticks": 19968,
            "time": 28.363608,
            "velocity": 0.4881889763779528
          },
          {
            "duration": 0.13636350000000164,
            "durationTicks": 96,
            "midi": 38,
            "name": "D2",
            "ticks": 20352,
            "time": 28.909062,
            "velocity": 0.4881889763779528
          },
          {
            "duration": 0.13636350000000164,
            "durationTicks": 96,
            "midi": 36,
            "name": "C2",
            "ticks": 20736,
            "time": 29.454515999999998,
            "velocity": 0.4881889763779528
          },
          {
            "duration": 0.13636349999999808,
            "durationTicks": 96,
            "midi": 36,
            "name": "C2",
            "ticks": 20928,
            "time": 29.727243,
            "velocity": 0.4881889763779528
          },
          {
            "duration": 0.13636349999999808,
            "durationTicks": 96,
            "midi": 38,
            "name": "D2",
            "ticks": 21120,
            "time": 29.99997,
            "velocity": 0.4881889763779528
          },
          {
            "duration": 0.13636349999999808,
            "durationTicks": 96,
            "midi": 36,
            "name": "C2",
            "ticks": 21504,
            "time": 30.545424,
            "velocity": 0.4881889763779528
          },
          {
            "duration": 0.13636349999999808,
            "durationTicks": 96,
            "midi": 38,
            "name": "D2",
            "ticks": 21888,
            "time": 31.090878,
            "velocity": 0.4881889763779528
          },
          {
            "duration": 0.13636350000000164,
            "durationTicks": 96,
            "midi": 36,
            "name": "C2",
            "ticks": 22272,
            "time": 31.636332,
            "velocity": 0.4881889763779528
          },
          {
            "duration": 0.13636350000000164,
            "durationTicks": 96,
            "midi": 36,
            "name": "C2",
            "ticks": 22464,
            "time": 31.909059,
            "velocity": 0.4881889763779528
          },
          {
            "duration": 0.13636349999999453,
            "durationTicks": 96,
            "midi": 38,
            "name": "D2",
            "ticks": 22656,
            "time": 32.181786,
            "velocity": 0.4881889763779528
          },
          {
            "duration": 0.13636349999999453,
            "durationTicks": 96,
            "midi": 36,
            "name": "C2",
            "ticks": 23040,
            "time": 32.72724,
            "velocity": 0.4881889763779528
          },
          {
            "duration": 0.13636350000000164,
            "durationTicks": 96,
            "midi": 38,
            "name": "D2",
            "ticks": 23424,
            "time": 33.272694,
            "velocity": 0.4881889763779528
          },
          {
            "duration": 0.13636350000000164,
            "durationTicks": 96,
            "midi": 36,
            "name": "C2",
            "ticks": 23808,
            "time": 33.818148,
            "velocity": 0.4881889763779528
          },
          {
            "duration": 0.13636350000000164,
            "durationTicks": 96,
            "midi": 36,
            "name": "C2",
            "ticks": 24000,
            "time": 34.090875,
            "velocity": 0.4881889763779528
          },
          {
            "duration": 0.13636350000000164,
            "durationTicks": 96,
            "midi": 38,
            "name": "D2",
            "ticks": 24192,
            "time": 34.363602,
            "velocity": 0.4881889763779528
          },
          {
            "duration": 0.13636350000000164,
            "durationTicks": 96,
            "midi": 36,
            "name": "C2",
            "ticks": 24576,
            "time": 34.909056,
            "velocity": 0.4881889763779528
          },
          {
            "duration": 0.13636350000000164,
            "durationTicks": 96,
            "midi": 38,
            "name": "D2",
            "ticks": 24960,
            "time": 35.45451,
            "velocity": 0.4881889763779528
          },
          {
            "duration": 0.13636350000000164,
            "durationTicks": 96,
            "midi": 36,
            "name": "C2",
            "ticks": 25344,
            "time": 35.999964,
            "velocity": 0.4881889763779528
          },
          {
            "duration": 0.13636349999999453,
            "durationTicks": 96,
            "midi": 36,
            "name": "C2",
            "ticks": 25536,
            "time": 36.272691,
            "velocity": 0.4881889763779528
          },
          {
            "duration": 0.13636350000000164,
            "durationTicks": 96,
            "midi": 38,
            "name": "D2",
            "ticks": 25728,
            "time": 36.545418,
            "velocity": 0.4881889763779528
          },
          {
            "duration": 0.13636350000000164,
            "durationTicks": 96,
            "midi": 36,
            "name": "C2",
            "ticks": 26112,
            "time": 37.090872,
            "velocity": 0.4881889763779528
          },
          {
            "duration": 0.13636350000000164,
            "durationTicks": 96,
            "midi": 38,
            "name": "D2",
            "ticks": 26496,
            "time": 37.636326,
            "velocity": 0.4881889763779528
          },
          {
            "duration": 0.13636350000000164,
            "durationTicks": 96,
            "midi": 36,
            "name": "C2",
            "ticks": 26880,
            "time": 38.181779999999996,
            "velocity": 0.4881889763779528
          },
          {
            "duration": 0.13636350000000164,
            "durationTicks": 96,
            "midi": 36,
            "name": "C2",
            "ticks": 27072,
            "time": 38.454507,
            "velocity": 0.4881889763779528
          },
          {
            "duration": 0.13636349999999453,
            "durationTicks": 96,
            "midi": 38,
            "name": "D2",
            "ticks": 27264,
            "time": 38.727234,
            "velocity": 0.4881889763779528
          },
          {
            "duration": 0.13636349999999453,
            "durationTicks": 96,
            "midi": 36,
            "name": "C2",
            "ticks": 27648,
            "time": 39.272688,
            "velocity": 0.4881889763779528
          },
          {
            "duration": 0.13636349999999453,
            "durationTicks": 96,
            "midi": 38,
            "name": "D2",
            "ticks": 28032,
            "time": 39.818142,
            "velocity": 0.4881889763779528
          },
          {
            "duration": 0.13636350000000164,
            "durationTicks": 96,
            "midi": 36,
            "name": "C2",
            "ticks": 28416,
            "time": 40.363596,
            "velocity": 0.4881889763779528
          },
          {
            "duration": 0.13636350000000164,
            "durationTicks": 96,
            "midi": 36,
            "name": "C2",
            "ticks": 28608,
            "time": 40.636323,
            "velocity": 0.4881889763779528
          },
          {
            "duration": 0.13636350000000164,
            "durationTicks": 96,
            "midi": 38,
            "name": "D2",
            "ticks": 28800,
            "time": 40.90905,
            "velocity": 0.4881889763779528
          },
          {
            "duration": 0.13636350000000164,
            "durationTicks": 96,
            "midi": 36,
            "name": "C2",
            "ticks": 30720,
            "time": 43.63632,
            "velocity": 0.4881889763779528
          },
          {
            "duration": 0.13636350000000164,
            "durationTicks": 96,
            "midi": 38,
            "name": "D2",
            "ticks": 31104,
            "time": 44.181774,
            "velocity": 0.4881889763779528
          },
          {
            "duration": 0.13636350000000164,
            "durationTicks": 96,
            "midi": 36,
            "name": "C2",
            "ticks": 31488,
            "time": 44.727228,
            "velocity": 0.4881889763779528
          },
          {
            "duration": 0.13636350000000164,
            "durationTicks": 96,
            "midi": 36,
            "name": "C2",
            "ticks": 31680,
            "time": 44.999955,
            "velocity": 0.4881889763779528
          },
          {
            "duration": 0.13636350000000164,
            "durationTicks": 96,
            "midi": 38,
            "name": "D2",
            "ticks": 31872,
            "time": 45.272681999999996,
            "velocity": 0.4881889763779528
          },
          {
            "duration": 0.13636349999999453,
            "durationTicks": 96,
            "midi": 36,
            "name": "C2",
            "ticks": 32256,
            "time": 45.818136,
            "velocity": 0.4881889763779528
          },
          {
            "duration": 0.13636349999999453,
            "durationTicks": 96,
            "midi": 38,
            "name": "D2",
            "ticks": 32640,
            "time": 46.36359,
            "velocity": 0.4881889763779528
          },
          {
            "duration": 0.13636349999999453,
            "durationTicks": 96,
            "midi": 36,
            "name": "C2",
            "ticks": 33024,
            "time": 46.909044,
            "velocity": 0.4881889763779528
          },
          {
            "duration": 0.13636350000000164,
            "durationTicks": 96,
            "midi": 36,
            "name": "C2",
            "ticks": 33216,
            "time": 47.181771,
            "velocity": 0.4881889763779528
          },
          {
            "duration": 0.13636350000000164,
            "durationTicks": 96,
            "midi": 38,
            "name": "D2",
            "ticks": 33408,
            "time": 47.454498,
            "velocity": 0.4881889763779528
          },
          {
            "duration": 0.13636350000000164,
            "durationTicks": 96,
            "midi": 36,
            "name": "C2",
            "ticks": 33792,
            "time": 47.999952,
            "velocity": 0.4881889763779528
          },
          {
            "duration": 0.13636350000000164,
            "durationTicks": 96,
            "midi": 38,
            "name": "D2",
            "ticks": 34176,
            "time": 48.545406,
            "velocity": 0.4881889763779528
          },
          {
            "duration": 0.13636350000000164,
            "durationTicks": 96,
            "midi": 36,
            "name": "C2",
            "ticks": 34560,
            "time": 49.09086,
            "velocity": 0.4881889763779528
          },
          {
            "duration": 0.13636349999999453,
            "durationTicks": 96,
            "midi": 36,
            "name": "C2",
            "ticks": 34752,
            "time": 49.363587,
            "velocity": 0.4881889763779528
          },
          {
            "duration": 0.13636350000000164,
            "durationTicks": 96,
            "midi": 38,
            "name": "D2",
            "ticks": 34944,
            "time": 49.636314,
            "velocity": 0.4881889763779528
          },
          {
            "duration": 0.13636350000000164,
            "durationTicks": 96,
            "midi": 36,
            "name": "C2",
            "ticks": 35328,
            "time": 50.181768,
            "velocity": 0.4881889763779528
          },
          {
            "duration": 0.13636350000000164,
            "durationTicks": 96,
            "midi": 38,
            "name": "D2",
            "ticks": 35712,
            "time": 50.727222,
            "velocity": 0.4881889763779528
          },
          {
            "duration": 0.13636350000000164,
            "durationTicks": 96,
            "midi": 36,
            "name": "C2",
            "ticks": 36096,
            "time": 51.272676,
            "velocity": 0.4881889763779528
          },
          {
            "duration": 0.13636350000000164,
            "durationTicks": 96,
            "midi": 36,
            "name": "C2",
            "ticks": 36288,
            "time": 51.545403,
            "velocity": 0.4881889763779528
          },
          {
            "duration": 0.13636350000000164,
            "durationTicks": 96,
            "midi": 38,
            "name": "D2",
            "ticks": 36480,
            "time": 51.81813,
            "velocity": 0.4881889763779528
          },
          {
            "duration": 0.13636349999999453,
            "durationTicks": 96,
            "midi": 36,
            "name": "C2",
            "ticks": 36864,
            "time": 52.363584,
            "velocity": 0.4881889763779528
          },
          {
            "duration": 0.13636349999999453,
            "durationTicks": 96,
            "midi": 38,
            "name": "D2",
            "ticks": 37248,
            "time": 52.909038,
            "velocity": 0.4881889763779528
          },
          {
            "duration": 0.13636349999999453,
            "durationTicks": 96,
            "midi": 36,
            "name": "C2",
            "ticks": 37632,
            "time": 53.454492,
            "velocity": 0.4881889763779528
          },
          {
            "duration": 0.13636350000000164,
            "durationTicks": 96,
            "midi": 36,
            "name": "C2",
            "ticks": 37824,
            "time": 53.727219,
            "velocity": 0.4881889763779528
          },
          {
            "duration": 0.13636350000000164,
            "durationTicks": 96,
            "midi": 38,
            "name": "D2",
            "ticks": 38016,
            "time": 53.999946,
            "velocity": 0.4881889763779528
          },
          {
            "duration": 0.13636350000000164,
            "durationTicks": 96,
            "midi": 36,
            "name": "C2",
            "ticks": 38400,
            "time": 54.5454,
            "velocity": 0.4881889763779528
          },
          {
            "duration": 0.13636350000000164,
            "durationTicks": 96,
            "midi": 38,
            "name": "D2",
            "ticks": 38784,
            "time": 55.090854,
            "velocity": 0.4881889763779528
          },
          {
            "duration": 0.13636350000000164,
            "durationTicks": 96,
            "midi": 36,
            "name": "C2",
            "ticks": 39168,
            "time": 55.636308,
            "velocity": 0.4881889763779528
          },
          {
            "duration": 0.13636349999999453,
            "durationTicks": 96,
            "midi": 36,
            "name": "C2",
            "ticks": 39360,
            "time": 55.909035,
            "velocity": 0.4881889763779528
          },
          {
            "duration": 0.13636350000000164,
            "durationTicks": 96,
            "midi": 38,
            "name": "D2",
            "ticks": 39552,
            "time": 56.181762,
            "velocity": 0.4881889763779528
          },
          {
            "duration": 0.13636350000000164,
            "durationTicks": 96,
            "midi": 36,
            "name": "C2",
            "ticks": 39936,
            "time": 56.727216,
            "velocity": 0.4881889763779528
          },
          {
            "duration": 0.13636350000000164,
            "durationTicks": 96,
            "midi": 38,
            "name": "D2",
            "ticks": 40320,
            "time": 57.27267,
            "velocity": 0.4881889763779528
          },
          {
            "duration": 0.13636350000000164,
            "durationTicks": 96,
            "midi": 36,
            "name": "C2",
            "ticks": 40704,
            "time": 57.818124,
            "velocity": 0.4881889763779528
          },
          {
            "duration": 0.13636350000000164,
            "durationTicks": 96,
            "midi": 36,
            "name": "C2",
            "ticks": 40896,
            "time": 58.090851,
            "velocity": 0.4881889763779528
          },
          {
            "duration": 0.13636350000000164,
            "durationTicks": 96,
            "midi": 38,
            "name": "D2",
            "ticks": 41088,
            "time": 58.363578,
            "velocity": 0.4881889763779528
          },
          {
            "duration": 0.13636350000000164,
            "durationTicks": 96,
            "midi": 36,
            "name": "C2",
            "ticks": 41472,
            "time": 58.909031999999996,
            "velocity": 0.4881889763779528
          },
          {
            "duration": 0.13636349999999453,
            "durationTicks": 96,
            "midi": 38,
            "name": "D2",
            "ticks": 41856,
            "time": 59.454486,
            "velocity": 0.4881889763779528
          },
          {
            "duration": 0.13636349999999453,
            "durationTicks": 96,
            "midi": 36,
            "name": "C2",
            "ticks": 42240,
            "time": 59.99994,
            "velocity": 0.4881889763779528
          },
          {
            "duration": 0.13636350000000164,
            "durationTicks": 96,
            "midi": 36,
            "name": "C2",
            "ticks": 42432,
            "time": 60.272667,
            "velocity": 0.4881889763779528
          },
          {
            "duration": 0.13636349999999453,
            "durationTicks": 96,
            "midi": 38,
            "name": "D2",
            "ticks": 42624,
            "time": 60.545394,
            "velocity": 0.4881889763779528
          },
          {
            "duration": 0.13636350000000164,
            "durationTicks": 96,
            "midi": 35,
            "name": "B1",
            "ticks": 61056,
            "time": 86.727186,
            "velocity": 0.4881889763779528
          },
          {
            "duration": 0.13636350000000164,
            "durationTicks": 96,
            "midi": 36,
            "name": "C2",
            "ticks": 61056,
            "time": 86.727186,
            "velocity": 0.4881889763779528
          },
          {
            "duration": 0.13636350000000164,
            "durationTicks": 96,
            "midi": 36,
            "name": "C2",
            "ticks": 61440,
            "time": 87.27264,
            "velocity": 0.4881889763779528
          },
          {
            "duration": 0.13636350000000164,
            "durationTicks": 96,
            "midi": 38,
            "name": "D2",
            "ticks": 61824,
            "time": 87.818094,
            "velocity": 0.4881889763779528
          },
          {
            "duration": 0.13636350000000164,
            "durationTicks": 96,
            "midi": 36,
            "name": "C2",
            "ticks": 62208,
            "time": 88.363548,
            "velocity": 0.4881889763779528
          },
          {
            "duration": 0.13636350000000164,
            "durationTicks": 96,
            "midi": 36,
            "name": "C2",
            "ticks": 62400,
            "time": 88.636275,
            "velocity": 0.4881889763779528
          },
          {
            "duration": 0.13636350000000164,
            "durationTicks": 96,
            "midi": 38,
            "name": "D2",
            "ticks": 62592,
            "time": 88.909002,
            "velocity": 0.4881889763779528
          },
          {
            "duration": 0.13636350000000164,
            "durationTicks": 96,
            "midi": 36,
            "name": "C2",
            "ticks": 62976,
            "time": 89.454456,
            "velocity": 0.4881889763779528
          },
          {
            "duration": 0.13636350000000164,
            "durationTicks": 96,
            "midi": 38,
            "name": "D2",
            "ticks": 63360,
            "time": 89.99991,
            "velocity": 0.4881889763779528
          },
          {
            "duration": 0.13636350000000164,
            "durationTicks": 96,
            "midi": 36,
            "name": "C2",
            "ticks": 63744,
            "time": 90.54536399999999,
            "velocity": 0.4881889763779528
          },
          {
            "duration": 0.13636350000000164,
            "durationTicks": 96,
            "midi": 36,
            "name": "C2",
            "ticks": 63936,
            "time": 90.818091,
            "velocity": 0.4881889763779528
          },
          {
            "duration": 0.13636350000000164,
            "durationTicks": 96,
            "midi": 38,
            "name": "D2",
            "ticks": 64128,
            "time": 91.090818,
            "velocity": 0.4881889763779528
          },
          {
            "duration": 0.13636349999998743,
            "durationTicks": 96,
            "midi": 36,
            "name": "C2",
            "ticks": 64512,
            "time": 91.636272,
            "velocity": 0.4881889763779528
          },
          {
            "duration": 0.13636350000000164,
            "durationTicks": 96,
            "midi": 38,
            "name": "D2",
            "ticks": 64896,
            "time": 92.181726,
            "velocity": 0.4881889763779528
          },
          {
            "duration": 0.13636350000000164,
            "durationTicks": 96,
            "midi": 36,
            "name": "C2",
            "ticks": 65280,
            "time": 92.72718,
            "velocity": 0.4881889763779528
          },
          {
            "duration": 0.13636350000000164,
            "durationTicks": 96,
            "midi": 36,
            "name": "C2",
            "ticks": 65472,
            "time": 92.999907,
            "velocity": 0.4881889763779528
          },
          {
            "duration": 0.13636350000000164,
            "durationTicks": 96,
            "midi": 38,
            "name": "D2",
            "ticks": 65664,
            "time": 93.272634,
            "velocity": 0.4881889763779528
          },
          {
            "duration": 0.13636350000000164,
            "durationTicks": 96,
            "midi": 36,
            "name": "C2",
            "ticks": 66048,
            "time": 93.818088,
            "velocity": 0.4881889763779528
          },
          {
            "duration": 0.13636350000000164,
            "durationTicks": 96,
            "midi": 38,
            "name": "D2",
            "ticks": 66432,
            "time": 94.363542,
            "velocity": 0.4881889763779528
          },
          {
            "duration": 0.13636350000000164,
            "durationTicks": 96,
            "midi": 36,
            "name": "C2",
            "ticks": 66816,
            "time": 94.908996,
            "velocity": 0.4881889763779528
          },
          {
            "duration": 0.13636349999998743,
            "durationTicks": 96,
            "midi": 36,
            "name": "C2",
            "ticks": 67008,
            "time": 95.181723,
            "velocity": 0.4881889763779528
          },
          {
            "duration": 0.13636350000000164,
            "durationTicks": 96,
            "midi": 38,
            "name": "D2",
            "ticks": 67200,
            "time": 95.45445,
            "velocity": 0.4881889763779528
          },
          {
            "duration": 0.13636350000000164,
            "durationTicks": 96,
            "midi": 36,
            "name": "C2",
            "ticks": 67584,
            "time": 95.999904,
            "velocity": 0.4881889763779528
          },
          {
            "duration": 0.13636350000000164,
            "durationTicks": 96,
            "midi": 38,
            "name": "D2",
            "ticks": 67968,
            "time": 96.545358,
            "velocity": 0.4881889763779528
          },
          {
            "duration": 0.13636350000000164,
            "durationTicks": 96,
            "midi": 36,
            "name": "C2",
            "ticks": 68352,
            "time": 97.090812,
            "velocity": 0.4881889763779528
          },
          {
            "duration": 0.13636350000000164,
            "durationTicks": 96,
            "midi": 36,
            "name": "C2",
            "ticks": 68544,
            "time": 97.363539,
            "velocity": 0.4881889763779528
          },
          {
            "duration": 0.13636350000000164,
            "durationTicks": 96,
            "midi": 38,
            "name": "D2",
            "ticks": 68736,
            "time": 97.63626599999999,
            "velocity": 0.4881889763779528
          },
          {
            "duration": 0.13636350000000164,
            "durationTicks": 96,
            "midi": 36,
            "name": "C2",
            "ticks": 69120,
            "time": 98.18172,
            "velocity": 0.4881889763779528
          },
          {
            "duration": 0.13636349999998743,
            "durationTicks": 96,
            "midi": 38,
            "name": "D2",
            "ticks": 69504,
            "time": 98.727174,
            "velocity": 0.4881889763779528
          },
          {
            "duration": 0.13636350000000164,
            "durationTicks": 96,
            "midi": 36,
            "name": "C2",
            "ticks": 69888,
            "time": 99.272628,
            "velocity": 0.4881889763779528
          },
          {
            "duration": 0.13636350000000164,
            "durationTicks": 96,
            "midi": 36,
            "name": "C2",
            "ticks": 70080,
            "time": 99.545355,
            "velocity": 0.4881889763779528
          },
          {
            "duration": 0.13636350000000164,
            "durationTicks": 96,
            "midi": 38,
            "name": "D2",
            "ticks": 70272,
            "time": 99.818082,
            "velocity": 0.4881889763779528
          },
          {
            "duration": 0.13636350000000164,
            "durationTicks": 96,
            "midi": 36,
            "name": "C2",
            "ticks": 70656,
            "time": 100.363536,
            "velocity": 0.4881889763779528
          },
          {
            "duration": 0.13636350000000164,
            "durationTicks": 96,
            "midi": 38,
            "name": "D2",
            "ticks": 71040,
            "time": 100.90899,
            "velocity": 0.4881889763779528
          },
          {
            "duration": 0.13636350000000164,
            "durationTicks": 96,
            "midi": 36,
            "name": "C2",
            "ticks": 71424,
            "time": 101.454444,
            "velocity": 0.4881889763779528
          },
          {
            "duration": 0.13636350000000164,
            "durationTicks": 96,
            "midi": 36,
            "name": "C2",
            "ticks": 71616,
            "time": 101.727171,
            "velocity": 0.4881889763779528
          },
          {
            "duration": 0.13636350000000164,
            "durationTicks": 96,
            "midi": 38,
            "name": "D2",
            "ticks": 71808,
            "time": 101.999898,
            "velocity": 0.4881889763779528
          }
        ],
        "endOfTrackTicks": 71904
      },
      {
        "channel": 7,
        "controlChanges": {},
        "pitchBends": [],
        "instrument": {
          "family": "guitar",
          "number": 26,
          "name": "electric guitar (jazz)"
        },
        "name": "Jazz Guitar",
        "notes": [
          {
            "duration": 0.4090904999999978,
            "durationTicks": 288,
            "midi": 73,
            "name": "C#5",
            "ticks": 33504,
            "time": 47.5908615,
            "velocity": 0.1968503937007874
          },
          {
            "duration": 0.4090904999999978,
            "durationTicks": 288,
            "midi": 73,
            "name": "C#5",
            "ticks": 33504,
            "time": 47.5908615,
            "velocity": 0.1968503937007874
          },
          {
            "duration": 0.27272699999999617,
            "durationTicks": 192,
            "midi": 74,
            "name": "D5",
            "ticks": 33792,
            "time": 47.999952,
            "velocity": 0.1968503937007874
          },
          {
            "duration": 0.27272699999999617,
            "durationTicks": 192,
            "midi": 74,
            "name": "D5",
            "ticks": 33792,
            "time": 47.999952,
            "velocity": 0.1968503937007874
          },
          {
            "duration": 0.06818174999999371,
            "durationTicks": 48,
            "midi": 73,
            "name": "C#5",
            "ticks": 33936,
            "time": 48.20449725,
            "velocity": 0.1968503937007874
          },
          {
            "duration": 0.06818174999999371,
            "durationTicks": 48,
            "midi": 73,
            "name": "C#5",
            "ticks": 33936,
            "time": 48.20449725,
            "velocity": 0.1968503937007874
          },
          {
            "duration": 0.5454539999999994,
            "durationTicks": 384,
            "midi": 74,
            "name": "D5",
            "ticks": 33984,
            "time": 48.272679,
            "velocity": 0.1968503937007874
          },
          {
            "duration": 0.5454539999999994,
            "durationTicks": 384,
            "midi": 74,
            "name": "D5",
            "ticks": 33984,
            "time": 48.272679,
            "velocity": 0.1968503937007874
          },
          {
            "duration": 0.5454540000000065,
            "durationTicks": 384,
            "midi": 77,
            "name": "F5",
            "ticks": 34368,
            "time": 48.818132999999996,
            "velocity": 0.1968503937007874
          },
          {
            "duration": 0.5454540000000065,
            "durationTicks": 384,
            "midi": 77,
            "name": "F5",
            "ticks": 34368,
            "time": 48.818132999999996,
            "velocity": 0.1968503937007874
          },
          {
            "duration": 1.363634999999995,
            "durationTicks": 960,
            "midi": 77,
            "name": "F5",
            "ticks": 34752,
            "time": 49.363587,
            "velocity": 0.1968503937007874
          },
          {
            "duration": 1.363634999999995,
            "durationTicks": 960,
            "midi": 77,
            "name": "F5",
            "ticks": 34752,
            "time": 49.363587,
            "velocity": 0.1968503937007874
          },
          {
            "duration": 1.363634999999995,
            "durationTicks": 960,
            "midi": 74,
            "name": "D5",
            "ticks": 34752,
            "time": 49.363587,
            "velocity": 0.1968503937007874
          },
          {
            "duration": 1.363634999999995,
            "durationTicks": 960,
            "midi": 74,
            "name": "D5",
            "ticks": 34752,
            "time": 49.363587,
            "velocity": 0.1968503937007874
          },
          {
            "duration": 0.13636350000000164,
            "durationTicks": 96,
            "midi": 77,
            "name": "F5",
            "ticks": 35712,
            "time": 50.727222,
            "velocity": 0.1968503937007874
          },
          {
            "duration": 0.13636350000000164,
            "durationTicks": 96,
            "midi": 77,
            "name": "F5",
            "ticks": 35712,
            "time": 50.727222,
            "velocity": 0.1968503937007874
          },
          {
            "duration": 0.1377839531250018,
            "durationTicks": 97,
            "midi": 74,
            "name": "D5",
            "ticks": 35775,
            "time": 50.816710546875,
            "velocity": 0.1968503937007874
          },
          {
            "duration": 0.1377839531250018,
            "durationTicks": 97,
            "midi": 74,
            "name": "D5",
            "ticks": 35775,
            "time": 50.816710546875,
            "velocity": 0.1968503937007874
          },
          {
            "duration": 0.1377839531250018,
            "durationTicks": 97,
            "midi": 72,
            "name": "C5",
            "ticks": 35840,
            "time": 50.90904,
            "velocity": 0.1968503937007874
          },
          {
            "duration": 0.1377839531250018,
            "durationTicks": 97,
            "midi": 72,
            "name": "C5",
            "ticks": 35840,
            "time": 50.90904,
            "velocity": 0.1968503937007874
          },
          {
            "duration": 0.13636350000000164,
            "durationTicks": 96,
            "midi": 70,
            "name": "A#4",
            "ticks": 35905,
            "time": 51.001369453125,
            "velocity": 0.1968503937007874
          },
          {
            "duration": 0.13636350000000164,
            "durationTicks": 96,
            "midi": 70,
            "name": "A#4",
            "ticks": 35905,
            "time": 51.001369453125,
            "velocity": 0.1968503937007874
          },
          {
            "duration": 0.6818175000000011,
            "durationTicks": 480,
            "midi": 67,
            "name": "G4",
            "ticks": 36001,
            "time": 51.137732953125,
            "velocity": 0.1968503937007874
          },
          {
            "duration": 0.6818175000000011,
            "durationTicks": 480,
            "midi": 67,
            "name": "G4",
            "ticks": 36001,
            "time": 51.137732953125,
            "velocity": 0.1968503937007874
          },
          {
            "duration": 0.13636350000000164,
            "durationTicks": 96,
            "midi": 67,
            "name": "G4",
            "ticks": 36481,
            "time": 51.819550453125004,
            "velocity": 0.1968503937007874
          },
          {
            "duration": 0.13636350000000164,
            "durationTicks": 96,
            "midi": 67,
            "name": "G4",
            "ticks": 36481,
            "time": 51.819550453125004,
            "velocity": 0.1968503937007874
          },
          {
            "duration": 0.13636349999999453,
            "durationTicks": 96,
            "midi": 70,
            "name": "A#4",
            "ticks": 36577,
            "time": 51.955913953125005,
            "velocity": 0.1968503937007874
          },
          {
            "duration": 0.13636349999999453,
            "durationTicks": 96,
            "midi": 70,
            "name": "A#4",
            "ticks": 36577,
            "time": 51.955913953125005,
            "velocity": 0.1968503937007874
          },
          {
            "duration": 0.6818175000000011,
            "durationTicks": 480,
            "midi": 67,
            "name": "G4",
            "ticks": 36673,
            "time": 52.092277453125,
            "velocity": 0.1968503937007874
          },
          {
            "duration": 0.6818175000000011,
            "durationTicks": 480,
            "midi": 67,
            "name": "G4",
            "ticks": 36673,
            "time": 52.092277453125,
            "velocity": 0.1968503937007874
          },
          {
            "duration": 0.13636350000000164,
            "durationTicks": 96,
            "midi": 65,
            "name": "F4",
            "ticks": 37153,
            "time": 52.774094953125,
            "velocity": 0.1968503937007874
          },
          {
            "duration": 0.13636350000000164,
            "durationTicks": 96,
            "midi": 60,
            "name": "C4",
            "ticks": 37153,
            "time": 52.774094953125,
            "velocity": 0.1968503937007874
          },
          {
            "duration": 0.13636350000000164,
            "durationTicks": 96,
            "midi": 65,
            "name": "F4",
            "ticks": 37153,
            "time": 52.774094953125,
            "velocity": 0.1968503937007874
          },
          {
            "duration": 0.13636350000000164,
            "durationTicks": 96,
            "midi": 60,
            "name": "C4",
            "ticks": 37153,
            "time": 52.774094953125,
            "velocity": 0.1968503937007874
          },
          {
            "duration": 0.13636350000000164,
            "durationTicks": 96,
            "midi": 62,
            "name": "D4",
            "ticks": 37249,
            "time": 52.910458453125,
            "velocity": 0.1968503937007874
          },
          {
            "duration": 0.13636350000000164,
            "durationTicks": 96,
            "midi": 67,
            "name": "G4",
            "ticks": 37249,
            "time": 52.910458453125,
            "velocity": 0.1968503937007874
          },
          {
            "duration": 0.13636350000000164,
            "durationTicks": 96,
            "midi": 62,
            "name": "D4",
            "ticks": 37249,
            "time": 52.910458453125,
            "velocity": 0.1968503937007874
          },
          {
            "duration": 0.13636350000000164,
            "durationTicks": 96,
            "midi": 67,
            "name": "G4",
            "ticks": 37249,
            "time": 52.910458453125,
            "velocity": 0.1968503937007874
          },
          {
            "duration": 0.13636349999999453,
            "durationTicks": 96,
            "midi": 65,
            "name": "F4",
            "ticks": 37345,
            "time": 53.046821953125004,
            "velocity": 0.1968503937007874
          },
          {
            "duration": 0.13636349999999453,
            "durationTicks": 96,
            "midi": 60,
            "name": "C4",
            "ticks": 37345,
            "time": 53.046821953125004,
            "velocity": 0.1968503937007874
          },
          {
            "duration": 0.13636349999999453,
            "durationTicks": 96,
            "midi": 60,
            "name": "C4",
            "ticks": 37345,
            "time": 53.046821953125004,
            "velocity": 0.1968503937007874
          },
          {
            "duration": 0.13636349999999453,
            "durationTicks": 96,
            "midi": 65,
            "name": "F4",
            "ticks": 37345,
            "time": 53.046821953125004,
            "velocity": 0.1968503937007874
          },
          {
            "duration": 0.13636350000000164,
            "durationTicks": 96,
            "midi": 67,
            "name": "G4",
            "ticks": 37441,
            "time": 53.183185453125,
            "velocity": 0.1968503937007874
          },
          {
            "duration": 0.13636350000000164,
            "durationTicks": 96,
            "midi": 62,
            "name": "D4",
            "ticks": 37441,
            "time": 53.183185453125,
            "velocity": 0.1968503937007874
          },
          {
            "duration": 0.13636350000000164,
            "durationTicks": 96,
            "midi": 67,
            "name": "G4",
            "ticks": 37441,
            "time": 53.183185453125,
            "velocity": 0.1968503937007874
          },
          {
            "duration": 0.13636350000000164,
            "durationTicks": 96,
            "midi": 62,
            "name": "D4",
            "ticks": 37441,
            "time": 53.183185453125,
            "velocity": 0.1968503937007874
          },
          {
            "duration": 0.6818175000000011,
            "durationTicks": 480,
            "midi": 65,
            "name": "F4",
            "ticks": 37537,
            "time": 53.319548953125,
            "velocity": 0.1968503937007874
          },
          {
            "duration": 0.6818175000000011,
            "durationTicks": 480,
            "midi": 65,
            "name": "F4",
            "ticks": 37537,
            "time": 53.319548953125,
            "velocity": 0.1968503937007874
          },
          {
            "duration": 0.6818175000000011,
            "durationTicks": 480,
            "midi": 70,
            "name": "A#4",
            "ticks": 37537,
            "time": 53.319548953125,
            "velocity": 0.1968503937007874
          },
          {
            "duration": 0.6818175000000011,
            "durationTicks": 480,
            "midi": 70,
            "name": "A#4",
            "ticks": 37537,
            "time": 53.319548953125,
            "velocity": 0.1968503937007874
          },
          {
            "duration": 0.8181810000000027,
            "durationTicks": 576,
            "midi": 62,
            "name": "D4",
            "ticks": 38017,
            "time": 54.001366453125,
            "velocity": 0.1968503937007874
          },
          {
            "duration": 0.8181810000000027,
            "durationTicks": 576,
            "midi": 58,
            "name": "A#3",
            "ticks": 38017,
            "time": 54.001366453125,
            "velocity": 0.1968503937007874
          },
          {
            "duration": 0.8181810000000027,
            "durationTicks": 576,
            "midi": 62,
            "name": "D4",
            "ticks": 38017,
            "time": 54.001366453125,
            "velocity": 0.1968503937007874
          },
          {
            "duration": 0.8181810000000027,
            "durationTicks": 576,
            "midi": 58,
            "name": "A#3",
            "ticks": 38017,
            "time": 54.001366453125,
            "velocity": 0.1968503937007874
          },
          {
            "duration": 0.13636349999999453,
            "durationTicks": 96,
            "midi": 55,
            "name": "G3",
            "ticks": 38593,
            "time": 54.819547453125004,
            "velocity": 0.1968503937007874
          },
          {
            "duration": 0.13636349999999453,
            "durationTicks": 96,
            "midi": 55,
            "name": "G3",
            "ticks": 38593,
            "time": 54.819547453125004,
            "velocity": 0.1968503937007874
          },
          {
            "duration": 0.13636350000000164,
            "durationTicks": 96,
            "midi": 53,
            "name": "F3",
            "ticks": 38689,
            "time": 54.955910953125,
            "velocity": 0.1968503937007874
          },
          {
            "duration": 0.13636350000000164,
            "durationTicks": 96,
            "midi": 53,
            "name": "F3",
            "ticks": 38689,
            "time": 54.955910953125,
            "velocity": 0.1968503937007874
          },
          {
            "duration": 0.2727270000000033,
            "durationTicks": 192,
            "midi": 55,
            "name": "G3",
            "ticks": 38785,
            "time": 55.092274453125,
            "velocity": 0.1968503937007874
          },
          {
            "duration": 0.2727270000000033,
            "durationTicks": 192,
            "midi": 55,
            "name": "G3",
            "ticks": 38785,
            "time": 55.092274453125,
            "velocity": 0.1968503937007874
          },
          {
            "duration": 0.27272699999999617,
            "durationTicks": 192,
            "midi": 58,
            "name": "A#3",
            "ticks": 38977,
            "time": 55.365001453125004,
            "velocity": 0.1968503937007874
          },
          {
            "duration": 0.27272699999999617,
            "durationTicks": 192,
            "midi": 58,
            "name": "A#3",
            "ticks": 38977,
            "time": 55.365001453125004,
            "velocity": 0.1968503937007874
          },
          {
            "duration": 0.4090905000000049,
            "durationTicks": 288,
            "midi": 58,
            "name": "A#3",
            "ticks": 39169,
            "time": 55.637728453125,
            "velocity": 0.1968503937007874
          },
          {
            "duration": 0.4090905000000049,
            "durationTicks": 288,
            "midi": 58,
            "name": "A#3",
            "ticks": 39169,
            "time": 55.637728453125,
            "velocity": 0.1968503937007874
          },
          {
            "duration": 0.37499962499999384,
            "durationTicks": 264,
            "midi": 58,
            "name": "A#3",
            "ticks": 39457,
            "time": 56.046818953125005,
            "velocity": 0.1968503937007874
          },
          {
            "duration": 0.37499962499999384,
            "durationTicks": 264,
            "midi": 58,
            "name": "A#3",
            "ticks": 39457,
            "time": 56.046818953125005,
            "velocity": 0.1968503937007874
          },
          {
            "duration": 0.03409087500000396,
            "durationTicks": 24,
            "midi": 61,
            "name": "C#4",
            "ticks": 39721,
            "time": 56.421818578125,
            "velocity": 0.1968503937007874
          },
          {
            "duration": 0.03409087500000396,
            "durationTicks": 24,
            "midi": 61,
            "name": "C#4",
            "ticks": 39721,
            "time": 56.421818578125,
            "velocity": 0.1968503937007874
          },
          {
            "duration": 0.8181810000000027,
            "durationTicks": 576,
            "midi": 62,
            "name": "D4",
            "ticks": 39745,
            "time": 56.455909453125,
            "velocity": 0.1968503937007874
          },
          {
            "duration": 0.8181810000000027,
            "durationTicks": 576,
            "midi": 62,
            "name": "D4",
            "ticks": 39745,
            "time": 56.455909453125,
            "velocity": 0.1968503937007874
          },
          {
            "duration": 0.13636349999999453,
            "durationTicks": 96,
            "midi": 60,
            "name": "C4",
            "ticks": 40321,
            "time": 57.274090453125005,
            "velocity": 0.1968503937007874
          },
          {
            "duration": 0.13636349999999453,
            "durationTicks": 96,
            "midi": 60,
            "name": "C4",
            "ticks": 40321,
            "time": 57.274090453125005,
            "velocity": 0.1968503937007874
          },
          {
            "duration": 0.1377839531249947,
            "durationTicks": 97,
            "midi": 58,
            "name": "A#3",
            "ticks": 40384,
            "time": 57.363579,
            "velocity": 0.1968503937007874
          },
          {
            "duration": 0.1377839531249947,
            "durationTicks": 97,
            "midi": 58,
            "name": "A#3",
            "ticks": 40384,
            "time": 57.363579,
            "velocity": 0.1968503937007874
          },
          {
            "duration": 0.1377839531250018,
            "durationTicks": 97,
            "midi": 55,
            "name": "G3",
            "ticks": 40449,
            "time": 57.455908453125,
            "velocity": 0.1968503937007874
          },
          {
            "duration": 0.1377839531250018,
            "durationTicks": 97,
            "midi": 55,
            "name": "G3",
            "ticks": 40449,
            "time": 57.455908453125,
            "velocity": 0.1968503937007874
          },
          {
            "duration": 0.1377839531250018,
            "durationTicks": 97,
            "midi": 53,
            "name": "F3",
            "ticks": 40514,
            "time": 57.548237906249994,
            "velocity": 0.1968503937007874
          },
          {
            "duration": 0.1377839531250018,
            "durationTicks": 97,
            "midi": 53,
            "name": "F3",
            "ticks": 40514,
            "time": 57.548237906249994,
            "velocity": 0.1968503937007874
          },
          {
            "duration": 0.1377839531250018,
            "durationTicks": 97,
            "midi": 50,
            "name": "D3",
            "ticks": 40578,
            "time": 57.63914690625,
            "velocity": 0.1968503937007874
          },
          {
            "duration": 0.1377839531250018,
            "durationTicks": 97,
            "midi": 50,
            "name": "D3",
            "ticks": 40578,
            "time": 57.63914690625,
            "velocity": 0.1968503937007874
          },
          {
            "duration": 0.1377839531250018,
            "durationTicks": 97,
            "midi": 59,
            "name": "B3",
            "ticks": 40643,
            "time": 57.731476359374994,
            "velocity": 0.1968503937007874
          },
          {
            "duration": 0.1377839531250018,
            "durationTicks": 97,
            "midi": 59,
            "name": "B3",
            "ticks": 40643,
            "time": 57.731476359374994,
            "velocity": 0.1968503937007874
          },
          {
            "duration": 0.1377839531249947,
            "durationTicks": 97,
            "midi": 57,
            "name": "A3",
            "ticks": 40708,
            "time": 57.823805812500005,
            "velocity": 0.1968503937007874
          },
          {
            "duration": 0.1377839531249947,
            "durationTicks": 97,
            "midi": 57,
            "name": "A3",
            "ticks": 40708,
            "time": 57.823805812500005,
            "velocity": 0.1968503937007874
          },
          {
            "duration": 0.1377839531250018,
            "durationTicks": 97,
            "midi": 54,
            "name": "F#3",
            "ticks": 40772,
            "time": 57.914714812499994,
            "velocity": 0.1968503937007874
          },
          {
            "duration": 0.1377839531250018,
            "durationTicks": 97,
            "midi": 54,
            "name": "F#3",
            "ticks": 40772,
            "time": 57.914714812499994,
            "velocity": 0.1968503937007874
          },
          {
            "duration": 0.1377839531249947,
            "durationTicks": 97,
            "midi": 52,
            "name": "E3",
            "ticks": 40837,
            "time": 58.007044265625005,
            "velocity": 0.1968503937007874
          },
          {
            "duration": 0.1377839531249947,
            "durationTicks": 97,
            "midi": 52,
            "name": "E3",
            "ticks": 40837,
            "time": 58.007044265625005,
            "velocity": 0.1968503937007874
          },
          {
            "duration": 0.1377839531250018,
            "durationTicks": 97,
            "midi": 49,
            "name": "C#3",
            "ticks": 40902,
            "time": 58.09937371875,
            "velocity": 0.1968503937007874
          },
          {
            "duration": 0.1377839531250018,
            "durationTicks": 97,
            "midi": 49,
            "name": "C#3",
            "ticks": 40902,
            "time": 58.09937371875,
            "velocity": 0.1968503937007874
          },
          {
            "duration": 0.1377839531249947,
            "durationTicks": 97,
            "midi": 58,
            "name": "A#3",
            "ticks": 40966,
            "time": 58.190282718750005,
            "velocity": 0.1968503937007874
          },
          {
            "duration": 0.1377839531249947,
            "durationTicks": 97,
            "midi": 58,
            "name": "A#3",
            "ticks": 40966,
            "time": 58.190282718750005,
            "velocity": 0.1968503937007874
          },
          {
            "duration": 0.637783453124996,
            "durationTicks": 449,
            "midi": 55,
            "name": "G3",
            "ticks": 41031,
            "time": 58.282612171875,
            "velocity": 0.1968503937007874
          },
          {
            "duration": 0.637783453124996,
            "durationTicks": 449,
            "midi": 55,
            "name": "G3",
            "ticks": 41031,
            "time": 58.282612171875,
            "velocity": 0.1968503937007874
          },
          {
            "duration": 0.4090904999999978,
            "durationTicks": 288,
            "midi": 79,
            "name": "G5",
            "ticks": 41480,
            "time": 58.920395625,
            "velocity": 0.1968503937007874
          },
          {
            "duration": 0.4090904999999978,
            "durationTicks": 288,
            "midi": 67,
            "name": "G4",
            "ticks": 41480,
            "time": 58.920395625,
            "velocity": 0.1968503937007874
          },
          {
            "duration": 0.4090904999999978,
            "durationTicks": 288,
            "midi": 74,
            "name": "D5",
            "ticks": 41480,
            "time": 58.920395625,
            "velocity": 0.1968503937007874
          },
          {
            "duration": 0.4090904999999978,
            "durationTicks": 288,
            "midi": 74,
            "name": "D5",
            "ticks": 41480,
            "time": 58.920395625,
            "velocity": 0.1968503937007874
          },
          {
            "duration": 0.4090904999999978,
            "durationTicks": 288,
            "midi": 79,
            "name": "G5",
            "ticks": 41480,
            "time": 58.920395625,
            "velocity": 0.1968503937007874
          },
          {
            "duration": 0.4090904999999978,
            "durationTicks": 288,
            "midi": 67,
            "name": "G4",
            "ticks": 41480,
            "time": 58.920395625,
            "velocity": 0.1968503937007874
          },
          {
            "duration": 0.4090905000000049,
            "durationTicks": 288,
            "midi": 68,
            "name": "G#4",
            "ticks": 41768,
            "time": 59.329486124999995,
            "velocity": 0.1968503937007874
          },
          {
            "duration": 0.4090905000000049,
            "durationTicks": 288,
            "midi": 68,
            "name": "G#4",
            "ticks": 41768,
            "time": 59.329486124999995,
            "velocity": 0.1968503937007874
          },
          {
            "duration": 0.4090905000000049,
            "durationTicks": 288,
            "midi": 80,
            "name": "G#5",
            "ticks": 41768,
            "time": 59.329486124999995,
            "velocity": 0.1968503937007874
          },
          {
            "duration": 0.4090905000000049,
            "durationTicks": 288,
            "midi": 75,
            "name": "D#5",
            "ticks": 41768,
            "time": 59.329486124999995,
            "velocity": 0.1968503937007874
          },
          {
            "duration": 0.4090905000000049,
            "durationTicks": 288,
            "midi": 80,
            "name": "G#5",
            "ticks": 41768,
            "time": 59.329486124999995,
            "velocity": 0.1968503937007874
          },
          {
            "duration": 0.4090905000000049,
            "durationTicks": 288,
            "midi": 75,
            "name": "D#5",
            "ticks": 41768,
            "time": 59.329486124999995,
            "velocity": 0.1968503937007874
          },
          {
            "duration": 0.5454539999999994,
            "durationTicks": 384,
            "midi": 69,
            "name": "A4",
            "ticks": 42056,
            "time": 59.738576625,
            "velocity": 0.1968503937007874
          },
          {
            "duration": 0.5454539999999994,
            "durationTicks": 384,
            "midi": 81,
            "name": "A5",
            "ticks": 42056,
            "time": 59.738576625,
            "velocity": 0.1968503937007874
          },
          {
            "duration": 0.5454539999999994,
            "durationTicks": 384,
            "midi": 81,
            "name": "A5",
            "ticks": 42056,
            "time": 59.738576625,
            "velocity": 0.1968503937007874
          },
          {
            "duration": 0.5454539999999994,
            "durationTicks": 384,
            "midi": 76,
            "name": "E5",
            "ticks": 42056,
            "time": 59.738576625,
            "velocity": 0.1968503937007874
          },
          {
            "duration": 0.5454539999999994,
            "durationTicks": 384,
            "midi": 69,
            "name": "A4",
            "ticks": 42056,
            "time": 59.738576625,
            "velocity": 0.1968503937007874
          },
          {
            "duration": 0.5454539999999994,
            "durationTicks": 384,
            "midi": 76,
            "name": "E5",
            "ticks": 42056,
            "time": 59.738576625,
            "velocity": 0.1968503937007874
          },
          {
            "duration": 0.4090904999999978,
            "durationTicks": 288,
            "midi": 70,
            "name": "A#4",
            "ticks": 42440,
            "time": 60.284030625,
            "velocity": 0.1968503937007874
          },
          {
            "duration": 0.4090904999999978,
            "durationTicks": 288,
            "midi": 77,
            "name": "F5",
            "ticks": 42440,
            "time": 60.284030625,
            "velocity": 0.1968503937007874
          },
          {
            "duration": 0.4090904999999978,
            "durationTicks": 288,
            "midi": 82,
            "name": "A#5",
            "ticks": 42440,
            "time": 60.284030625,
            "velocity": 0.1968503937007874
          },
          {
            "duration": 0.4090904999999978,
            "durationTicks": 288,
            "midi": 77,
            "name": "F5",
            "ticks": 42440,
            "time": 60.284030625,
            "velocity": 0.1968503937007874
          },
          {
            "duration": 0.4090904999999978,
            "durationTicks": 288,
            "midi": 70,
            "name": "A#4",
            "ticks": 42440,
            "time": 60.284030625,
            "velocity": 0.1968503937007874
          },
          {
            "duration": 0.4090904999999978,
            "durationTicks": 288,
            "midi": 82,
            "name": "A#5",
            "ticks": 42440,
            "time": 60.284030625,
            "velocity": 0.1968503937007874
          },
          {
            "duration": 0.4090904999999978,
            "durationTicks": 288,
            "midi": 71,
            "name": "B4",
            "ticks": 42728,
            "time": 60.693121125,
            "velocity": 0.1968503937007874
          },
          {
            "duration": 0.4090904999999978,
            "durationTicks": 288,
            "midi": 83,
            "name": "B5",
            "ticks": 42728,
            "time": 60.693121125,
            "velocity": 0.1968503937007874
          },
          {
            "duration": 0.4090904999999978,
            "durationTicks": 288,
            "midi": 83,
            "name": "B5",
            "ticks": 42728,
            "time": 60.693121125,
            "velocity": 0.1968503937007874
          },
          {
            "duration": 0.4090904999999978,
            "durationTicks": 288,
            "midi": 78,
            "name": "F#5",
            "ticks": 42728,
            "time": 60.693121125,
            "velocity": 0.1968503937007874
          },
          {
            "duration": 0.4090904999999978,
            "durationTicks": 288,
            "midi": 78,
            "name": "F#5",
            "ticks": 42728,
            "time": 60.693121125,
            "velocity": 0.1968503937007874
          },
          {
            "duration": 0.4090904999999978,
            "durationTicks": 288,
            "midi": 71,
            "name": "B4",
            "ticks": 42728,
            "time": 60.693121125,
            "velocity": 0.1968503937007874
          },
          {
            "duration": 0.13636350000000164,
            "durationTicks": 96,
            "midi": 69,
            "name": "A4",
            "ticks": 43592,
            "time": 61.920392625,
            "velocity": 0.1968503937007874
          },
          {
            "duration": 0.13636350000000164,
            "durationTicks": 96,
            "midi": 65,
            "name": "F4",
            "ticks": 43592,
            "time": 61.920392625,
            "velocity": 0.1968503937007874
          },
          {
            "duration": 0.13636350000000164,
            "durationTicks": 96,
            "midi": 60,
            "name": "C4",
            "ticks": 43592,
            "time": 61.920392625,
            "velocity": 0.1968503937007874
          },
          {
            "duration": 0.13636349999999453,
            "durationTicks": 96,
            "midi": 69,
            "name": "A4",
            "ticks": 43688,
            "time": 62.056756125,
            "velocity": 0.1968503937007874
          },
          {
            "duration": 0.13636349999999453,
            "durationTicks": 96,
            "midi": 65,
            "name": "F4",
            "ticks": 43688,
            "time": 62.056756125,
            "velocity": 0.1968503937007874
          },
          {
            "duration": 0.13636349999999453,
            "durationTicks": 96,
            "midi": 60,
            "name": "C4",
            "ticks": 43688,
            "time": 62.056756125,
            "velocity": 0.1968503937007874
          },
          {
            "duration": 0.13636350000000164,
            "durationTicks": 96,
            "midi": 69,
            "name": "A4",
            "ticks": 43880,
            "time": 62.329483124999996,
            "velocity": 0.1968503937007874
          },
          {
            "duration": 0.13636350000000164,
            "durationTicks": 96,
            "midi": 60,
            "name": "C4",
            "ticks": 43880,
            "time": 62.329483124999996,
            "velocity": 0.1968503937007874
          },
          {
            "duration": 0.13636350000000164,
            "durationTicks": 96,
            "midi": 65,
            "name": "F4",
            "ticks": 43880,
            "time": 62.329483124999996,
            "velocity": 0.1968503937007874
          },
          {
            "duration": 0.13636350000000164,
            "durationTicks": 96,
            "midi": 69,
            "name": "A4",
            "ticks": 44168,
            "time": 62.738573624999994,
            "velocity": 0.1968503937007874
          },
          {
            "duration": 0.13636350000000164,
            "durationTicks": 96,
            "midi": 65,
            "name": "F4",
            "ticks": 44168,
            "time": 62.738573624999994,
            "velocity": 0.1968503937007874
          },
          {
            "duration": 0.13636350000000164,
            "durationTicks": 96,
            "midi": 60,
            "name": "C4",
            "ticks": 44168,
            "time": 62.738573624999994,
            "velocity": 0.1968503937007874
          },
          {
            "duration": 0.6818175000000011,
            "durationTicks": 480,
            "midi": 60,
            "name": "C4",
            "ticks": 44264,
            "time": 62.874937124999995,
            "velocity": 0.1968503937007874
          },
          {
            "duration": 0.6818175000000011,
            "durationTicks": 480,
            "midi": 69,
            "name": "A4",
            "ticks": 44264,
            "time": 62.874937124999995,
            "velocity": 0.1968503937007874
          },
          {
            "duration": 0.6818175000000011,
            "durationTicks": 480,
            "midi": 65,
            "name": "F4",
            "ticks": 44264,
            "time": 62.874937124999995,
            "velocity": 0.1968503937007874
          },
          {
            "duration": 0.13636350000000164,
            "durationTicks": 96,
            "midi": 72,
            "name": "C5",
            "ticks": 44744,
            "time": 63.556754624999996,
            "velocity": 0.1968503937007874
          },
          {
            "duration": 0.13636350000000164,
            "durationTicks": 96,
            "midi": 74,
            "name": "D5",
            "ticks": 44768,
            "time": 63.59084549999999,
            "velocity": 0.1968503937007874
          },
          {
            "duration": 0.13636349999999453,
            "durationTicks": 96,
            "midi": 70,
            "name": "A#4",
            "ticks": 44936,
            "time": 63.829481625,
            "velocity": 0.1968503937007874
          },
          {
            "duration": 0.13636349999998743,
            "durationTicks": 96,
            "midi": 67,
            "name": "G4",
            "ticks": 45128,
            "time": 64.102208625,
            "velocity": 0.1968503937007874
          },
          {
            "duration": 0.13636350000000164,
            "durationTicks": 96,
            "midi": 65,
            "name": "F4",
            "ticks": 45320,
            "time": 64.37493562499999,
            "velocity": 0.1968503937007874
          },
          {
            "duration": 0.13636350000000164,
            "durationTicks": 96,
            "midi": 62,
            "name": "D4",
            "ticks": 45512,
            "time": 64.647662625,
            "velocity": 0.1968503937007874
          },
          {
            "duration": 0.13636350000000164,
            "durationTicks": 96,
            "midi": 60,
            "name": "C4",
            "ticks": 45536,
            "time": 64.6817535,
            "velocity": 0.1968503937007874
          },
          {
            "duration": 0.13636350000000164,
            "durationTicks": 96,
            "midi": 58,
            "name": "A#3",
            "ticks": 45704,
            "time": 64.920389625,
            "velocity": 0.1968503937007874
          },
          {
            "duration": 0.4090904999999907,
            "durationTicks": 288,
            "midi": 55,
            "name": "G3",
            "ticks": 45800,
            "time": 65.056753125,
            "velocity": 0.1968503937007874
          },
          {
            "duration": 2.181816000000012,
            "durationTicks": 1536,
            "midi": 67,
            "name": "G4",
            "ticks": 46088,
            "time": 65.46584362499999,
            "velocity": 0.1968503937007874
          },
          {
            "duration": 0.13636350000000164,
            "durationTicks": 96,
            "midi": 72,
            "name": "C5",
            "ticks": 47816,
            "time": 67.92038662499999,
            "velocity": 0.1968503937007874
          },
          {
            "duration": 0.13636350000000164,
            "durationTicks": 96,
            "midi": 74,
            "name": "D5",
            "ticks": 47840,
            "time": 67.9544775,
            "velocity": 0.1968503937007874
          },
          {
            "duration": 0.13636350000000164,
            "durationTicks": 96,
            "midi": 70,
            "name": "A#4",
            "ticks": 48008,
            "time": 68.193113625,
            "velocity": 0.1968503937007874
          },
          {
            "duration": 0.13636350000000164,
            "durationTicks": 96,
            "midi": 67,
            "name": "G4",
            "ticks": 48200,
            "time": 68.465840625,
            "velocity": 0.1968503937007874
          },
          {
            "duration": 0.13636350000000164,
            "durationTicks": 96,
            "midi": 65,
            "name": "F4",
            "ticks": 48392,
            "time": 68.738567625,
            "velocity": 0.1968503937007874
          },
          {
            "duration": 0.13636350000000164,
            "durationTicks": 96,
            "midi": 62,
            "name": "D4",
            "ticks": 48584,
            "time": 69.01129462499999,
            "velocity": 0.1968503937007874
          },
          {
            "duration": 0.13636350000000164,
            "durationTicks": 96,
            "midi": 60,
            "name": "C4",
            "ticks": 48608,
            "time": 69.0453855,
            "velocity": 0.1968503937007874
          },
          {
            "duration": 0.13636350000000164,
            "durationTicks": 96,
            "midi": 58,
            "name": "A#3",
            "ticks": 48776,
            "time": 69.284021625,
            "velocity": 0.1968503937007874
          },
          {
            "duration": 0.4090905000000049,
            "durationTicks": 288,
            "midi": 55,
            "name": "G3",
            "ticks": 48872,
            "time": 69.420385125,
            "velocity": 0.1968503937007874
          },
          {
            "duration": 0.4090905000000049,
            "durationTicks": 288,
            "midi": 65,
            "name": "F4",
            "ticks": 49160,
            "time": 69.829475625,
            "velocity": 0.1968503937007874
          },
          {
            "duration": 0.2727270000000033,
            "durationTicks": 192,
            "midi": 70,
            "name": "A#4",
            "ticks": 49160,
            "time": 69.829475625,
            "velocity": 0.1968503937007874
          },
          {
            "duration": 1.6363620000000054,
            "durationTicks": 1152,
            "midi": 62,
            "name": "D4",
            "ticks": 49352,
            "time": 70.102202625,
            "velocity": 0.1968503937007874
          },
          {
            "duration": 1.6363620000000054,
            "durationTicks": 1152,
            "midi": 67,
            "name": "G4",
            "ticks": 49352,
            "time": 70.102202625,
            "velocity": 0.1968503937007874
          },
          {
            "duration": 0.27272699999998906,
            "durationTicks": 192,
            "midi": 79,
            "name": "G5",
            "ticks": 50504,
            "time": 71.73856462500001,
            "velocity": 0.1968503937007874
          },
          {
            "duration": 0.2727270000000033,
            "durationTicks": 192,
            "midi": 77,
            "name": "F5",
            "ticks": 50696,
            "time": 72.011291625,
            "velocity": 0.1968503937007874
          },
          {
            "duration": 0.2727270000000033,
            "durationTicks": 192,
            "midi": 72,
            "name": "C5",
            "ticks": 50888,
            "time": 72.284018625,
            "velocity": 0.1968503937007874
          },
          {
            "duration": 0.2727270000000033,
            "durationTicks": 192,
            "midi": 74,
            "name": "D5",
            "ticks": 51080,
            "time": 72.556745625,
            "velocity": 0.1968503937007874
          },
          {
            "duration": 0.2727270000000033,
            "durationTicks": 192,
            "midi": 77,
            "name": "F5",
            "ticks": 51272,
            "time": 72.82947262500001,
            "velocity": 0.1968503937007874
          },
          {
            "duration": 1.0909079999999989,
            "durationTicks": 768,
            "midi": 74,
            "name": "D5",
            "ticks": 51464,
            "time": 73.10219962500001,
            "velocity": 0.1968503937007874
          },
          {
            "duration": 0.13636349999998743,
            "durationTicks": 96,
            "midi": 72,
            "name": "C5",
            "ticks": 52232,
            "time": 74.19310762500001,
            "velocity": 0.1968503937007874
          },
          {
            "duration": 0.13636350000000164,
            "durationTicks": 96,
            "midi": 70,
            "name": "A#4",
            "ticks": 52328,
            "time": 74.329471125,
            "velocity": 0.1968503937007874
          },
          {
            "duration": 0.8181810000000098,
            "durationTicks": 576,
            "midi": 67,
            "name": "G4",
            "ticks": 52424,
            "time": 74.465834625,
            "velocity": 0.1968503937007874
          },
          {
            "duration": 0.5454539999999923,
            "durationTicks": 384,
            "midi": 70,
            "name": "A#4",
            "ticks": 53000,
            "time": 75.28401562500001,
            "velocity": 0.1968503937007874
          },
          {
            "duration": 0.13636350000000164,
            "durationTicks": 96,
            "midi": 67,
            "name": "G4",
            "ticks": 53384,
            "time": 75.829469625,
            "velocity": 0.1968503937007874
          },
          {
            "duration": 0.13636350000000164,
            "durationTicks": 96,
            "midi": 65,
            "name": "F4",
            "ticks": 53480,
            "time": 75.965833125,
            "velocity": 0.1968503937007874
          },
          {
            "duration": 0.13636350000000164,
            "durationTicks": 96,
            "midi": 62,
            "name": "D4",
            "ticks": 53576,
            "time": 76.102196625,
            "velocity": 0.1968503937007874
          },
          {
            "duration": 0.13636350000000164,
            "durationTicks": 96,
            "midi": 60,
            "name": "C4",
            "ticks": 53672,
            "time": 76.238560125,
            "velocity": 0.1968503937007874
          },
          {
            "duration": 0.13636350000000164,
            "durationTicks": 96,
            "midi": 58,
            "name": "A#3",
            "ticks": 53768,
            "time": 76.37492362500001,
            "velocity": 0.1968503937007874
          },
          {
            "duration": 0.13636350000000164,
            "durationTicks": 96,
            "midi": 55,
            "name": "G3",
            "ticks": 53864,
            "time": 76.51128712500001,
            "velocity": 0.1968503937007874
          },
          {
            "duration": 0.13636349999998743,
            "durationTicks": 96,
            "midi": 58,
            "name": "A#3",
            "ticks": 53960,
            "time": 76.64765062500001,
            "velocity": 0.1968503937007874
          },
          {
            "duration": 0.13636350000000164,
            "durationTicks": 96,
            "midi": 60,
            "name": "C4",
            "ticks": 54056,
            "time": 76.784014125,
            "velocity": 0.1968503937007874
          },
          {
            "duration": 0.13636350000000164,
            "durationTicks": 96,
            "midi": 58,
            "name": "A#3",
            "ticks": 54152,
            "time": 76.920377625,
            "velocity": 0.1968503937007874
          },
          {
            "duration": 0.13636350000000164,
            "durationTicks": 96,
            "midi": 55,
            "name": "G3",
            "ticks": 54248,
            "time": 77.056741125,
            "velocity": 0.1968503937007874
          },
          {
            "duration": 0.13636350000000164,
            "durationTicks": 96,
            "midi": 58,
            "name": "A#3",
            "ticks": 54344,
            "time": 77.193104625,
            "velocity": 0.1968503937007874
          },
          {
            "duration": 0.13636350000000164,
            "durationTicks": 96,
            "midi": 55,
            "name": "G3",
            "ticks": 54440,
            "time": 77.329468125,
            "velocity": 0.1968503937007874
          },
          {
            "duration": 0.13636350000000164,
            "durationTicks": 96,
            "midi": 58,
            "name": "A#3",
            "ticks": 54536,
            "time": 77.465831625,
            "velocity": 0.1968503937007874
          },
          {
            "duration": 0.13636350000000164,
            "durationTicks": 96,
            "midi": 60,
            "name": "C4",
            "ticks": 54632,
            "time": 77.60219512500001,
            "velocity": 0.1968503937007874
          },
          {
            "duration": 0.13636349999998743,
            "durationTicks": 96,
            "midi": 62,
            "name": "D4",
            "ticks": 54728,
            "time": 77.73855862500001,
            "velocity": 0.1968503937007874
          },
          {
            "duration": 0.13636350000000164,
            "durationTicks": 96,
            "midi": 65,
            "name": "F4",
            "ticks": 54824,
            "time": 77.874922125,
            "velocity": 0.1968503937007874
          },
          {
            "duration": 0.13636350000000164,
            "durationTicks": 96,
            "midi": 67,
            "name": "G4",
            "ticks": 54920,
            "time": 78.011285625,
            "velocity": 0.1968503937007874
          },
          {
            "duration": 0.6818175000000082,
            "durationTicks": 480,
            "midi": 70,
            "name": "A#4",
            "ticks": 55016,
            "time": 78.147649125,
            "velocity": 0.1968503937007874
          },
          {
            "duration": 0.13636350000000164,
            "durationTicks": 96,
            "midi": 67,
            "name": "G4",
            "ticks": 55496,
            "time": 78.82946662500001,
            "velocity": 0.1968503937007874
          },
          {
            "duration": 0.13636349999998743,
            "durationTicks": 96,
            "midi": 65,
            "name": "F4",
            "ticks": 55592,
            "time": 78.96583012500001,
            "velocity": 0.1968503937007874
          },
          {
            "duration": 0.2727270000000033,
            "durationTicks": 192,
            "midi": 67,
            "name": "G4",
            "ticks": 55688,
            "time": 79.102193625,
            "velocity": 0.1968503937007874
          },
          {
            "duration": 0.2727270000000033,
            "durationTicks": 192,
            "midi": 70,
            "name": "A#4",
            "ticks": 55880,
            "time": 79.374920625,
            "velocity": 0.1968503937007874
          },
          {
            "duration": 0.2727270000000033,
            "durationTicks": 192,
            "midi": 74,
            "name": "D5",
            "ticks": 56072,
            "time": 79.647647625,
            "velocity": 0.1968503937007874
          },
          {
            "duration": 0.2727270000000033,
            "durationTicks": 192,
            "midi": 77,
            "name": "F5",
            "ticks": 56264,
            "time": 79.92037462500001,
            "velocity": 0.1968503937007874
          },
          {
            "duration": 0.5454539999999923,
            "durationTicks": 384,
            "midi": 74,
            "name": "D5",
            "ticks": 56456,
            "time": 80.19310162500001,
            "velocity": 0.1968503937007874
          },
          {
            "duration": 0.13636350000000164,
            "durationTicks": 96,
            "midi": 55,
            "name": "G3",
            "ticks": 56840,
            "time": 80.738555625,
            "velocity": 0.1968503937007874
          },
          {
            "duration": 0.1377839531249947,
            "durationTicks": 97,
            "midi": 57,
            "name": "A3",
            "ticks": 56903,
            "time": 80.828044171875,
            "velocity": 0.1968503937007874
          },
          {
            "duration": 0.1377839531250089,
            "durationTicks": 97,
            "midi": 58,
            "name": "A#3",
            "ticks": 56968,
            "time": 80.920373625,
            "velocity": 0.1968503937007874
          },
          {
            "duration": 0.1377839531249947,
            "durationTicks": 97,
            "midi": 60,
            "name": "C4",
            "ticks": 57033,
            "time": 81.012703078125,
            "velocity": 0.1968503937007874
          },
          {
            "duration": 0.1377839531250089,
            "durationTicks": 97,
            "midi": 62,
            "name": "D4",
            "ticks": 57097,
            "time": 81.103612078125,
            "velocity": 0.1968503937007874
          },
          {
            "duration": 0.1377839531249947,
            "durationTicks": 97,
            "midi": 64,
            "name": "E4",
            "ticks": 57162,
            "time": 81.19594153125,
            "velocity": 0.1968503937007874
          },
          {
            "duration": 0.1377839531249947,
            "durationTicks": 97,
            "midi": 65,
            "name": "F4",
            "ticks": 57227,
            "time": 81.288270984375,
            "velocity": 0.1968503937007874
          },
          {
            "duration": 0.1377839531249947,
            "durationTicks": 97,
            "midi": 67,
            "name": "G4",
            "ticks": 57291,
            "time": 81.379179984375,
            "velocity": 0.1968503937007874
          },
          {
            "duration": 0.1377839531249947,
            "durationTicks": 97,
            "midi": 69,
            "name": "A4",
            "ticks": 57356,
            "time": 81.4715094375,
            "velocity": 0.1968503937007874
          },
          {
            "duration": 0.1377839531250089,
            "durationTicks": 97,
            "midi": 70,
            "name": "A#4",
            "ticks": 57421,
            "time": 81.563838890625,
            "velocity": 0.1968503937007874
          },
          {
            "duration": 0.1377839531249947,
            "durationTicks": 97,
            "midi": 72,
            "name": "C5",
            "ticks": 57485,
            "time": 81.654747890625,
            "velocity": 0.1968503937007874
          },
          {
            "duration": 0.1377839531250089,
            "durationTicks": 97,
            "midi": 74,
            "name": "D5",
            "ticks": 57550,
            "time": 81.74707734375,
            "velocity": 0.1968503937007874
          },
          {
            "duration": 0.1377839531249947,
            "durationTicks": 97,
            "midi": 76,
            "name": "E5",
            "ticks": 57615,
            "time": 81.839406796875,
            "velocity": 0.1968503937007874
          },
          {
            "duration": 0.1377839531249947,
            "durationTicks": 97,
            "midi": 77,
            "name": "F5",
            "ticks": 57680,
            "time": 81.93173625,
            "velocity": 0.1968503937007874
          },
          {
            "duration": 0.1377839531250089,
            "durationTicks": 97,
            "midi": 79,
            "name": "G5",
            "ticks": 57745,
            "time": 82.02406570312499,
            "velocity": 0.1968503937007874
          },
          {
            "duration": 0.1377839531249947,
            "durationTicks": 97,
            "midi": 81,
            "name": "A5",
            "ticks": 57809,
            "time": 82.114974703125,
            "velocity": 0.1968503937007874
          },
          {
            "duration": 0.1377839531250089,
            "durationTicks": 97,
            "midi": 82,
            "name": "A#5",
            "ticks": 57874,
            "time": 82.20730415624999,
            "velocity": 0.1968503937007874
          },
          {
            "duration": 0.1377839531249947,
            "durationTicks": 97,
            "midi": 81,
            "name": "A5",
            "ticks": 57939,
            "time": 82.299633609375,
            "velocity": 0.1968503937007874
          },
          {
            "duration": 0.1377839531250089,
            "durationTicks": 97,
            "midi": 82,
            "name": "A#5",
            "ticks": 58003,
            "time": 82.39054260937499,
            "velocity": 0.1968503937007874
          },
          {
            "duration": 0.1377839531249947,
            "durationTicks": 97,
            "midi": 81,
            "name": "A5",
            "ticks": 58068,
            "time": 82.4828720625,
            "velocity": 0.1968503937007874
          },
          {
            "duration": 0.1377839531249947,
            "durationTicks": 97,
            "midi": 79,
            "name": "G5",
            "ticks": 58133,
            "time": 82.57520151562501,
            "velocity": 0.1968503937007874
          },
          {
            "duration": 0.1377839531249947,
            "durationTicks": 97,
            "midi": 77,
            "name": "F5",
            "ticks": 58197,
            "time": 82.666110515625,
            "velocity": 0.1968503937007874
          },
          {
            "duration": 0.1377839531249947,
            "durationTicks": 97,
            "midi": 76,
            "name": "E5",
            "ticks": 58262,
            "time": 82.75843996875001,
            "velocity": 0.1968503937007874
          },
          {
            "duration": 0.1377839531250089,
            "durationTicks": 97,
            "midi": 79,
            "name": "G5",
            "ticks": 58327,
            "time": 82.850769421875,
            "velocity": 0.1968503937007874
          },
          {
            "duration": 0.1377839531249947,
            "durationTicks": 97,
            "midi": 74,
            "name": "D5",
            "ticks": 58391,
            "time": 82.94167842187501,
            "velocity": 0.1968503937007874
          },
          {
            "duration": 0.1377839531250089,
            "durationTicks": 97,
            "midi": 72,
            "name": "C5",
            "ticks": 58456,
            "time": 83.034007875,
            "velocity": 0.1968503937007874
          },
          {
            "duration": 0.1377839531249947,
            "durationTicks": 97,
            "midi": 74,
            "name": "D5",
            "ticks": 58521,
            "time": 83.126337328125,
            "velocity": 0.1968503937007874
          },
          {
            "duration": 0.1377839531250089,
            "durationTicks": 97,
            "midi": 76,
            "name": "E5",
            "ticks": 58585,
            "time": 83.217246328125,
            "velocity": 0.1968503937007874
          },
          {
            "duration": 0.1377839531249947,
            "durationTicks": 97,
            "midi": 77,
            "name": "F5",
            "ticks": 58650,
            "time": 83.30957578125,
            "velocity": 0.1968503937007874
          },
          {
            "duration": 0.1377839531249947,
            "durationTicks": 97,
            "midi": 79,
            "name": "G5",
            "ticks": 58715,
            "time": 83.40190523437501,
            "velocity": 0.1968503937007874
          },
          {
            "duration": 0.1377839531249947,
            "durationTicks": 97,
            "midi": 77,
            "name": "F5",
            "ticks": 58779,
            "time": 83.492814234375,
            "velocity": 0.1968503937007874
          },
          {
            "duration": 0.1377839531249947,
            "durationTicks": 97,
            "midi": 76,
            "name": "E5",
            "ticks": 58844,
            "time": 83.58514368750001,
            "velocity": 0.1968503937007874
          },
          {
            "duration": 0.1377839531250089,
            "durationTicks": 97,
            "midi": 74,
            "name": "D5",
            "ticks": 58909,
            "time": 83.677473140625,
            "velocity": 0.1968503937007874
          },
          {
            "duration": 0.1377839531249947,
            "durationTicks": 97,
            "midi": 77,
            "name": "F5",
            "ticks": 58973,
            "time": 83.76838214062501,
            "velocity": 0.1968503937007874
          },
          {
            "duration": 0.1377839531249947,
            "durationTicks": 97,
            "midi": 79,
            "name": "G5",
            "ticks": 59037,
            "time": 83.859291140625,
            "velocity": 0.1968503937007874
          },
          {
            "duration": 0.1377839531250089,
            "durationTicks": 97,
            "midi": 81,
            "name": "A5",
            "ticks": 59101,
            "time": 83.950200140625,
            "velocity": 0.1968503937007874
          },
          {
            "duration": 0.1377839531250089,
            "durationTicks": 97,
            "midi": 77,
            "name": "F5",
            "ticks": 59167,
            "time": 84.043950046875,
            "velocity": 0.1968503937007874
          },
          {
            "duration": 0.1377839531249947,
            "durationTicks": 97,
            "midi": 74,
            "name": "D5",
            "ticks": 59232,
            "time": 84.1362795,
            "velocity": 0.1968503937007874
          },
          {
            "duration": 0.1377839531250089,
            "durationTicks": 97,
            "midi": 76,
            "name": "E5",
            "ticks": 59296,
            "time": 84.2271885,
            "velocity": 0.1968503937007874
          },
          {
            "duration": 0.1377839531249947,
            "durationTicks": 97,
            "midi": 77,
            "name": "F5",
            "ticks": 59361,
            "time": 84.319517953125,
            "velocity": 0.1968503937007874
          },
          {
            "duration": 0.1377839531249947,
            "durationTicks": 97,
            "midi": 76,
            "name": "E5",
            "ticks": 59426,
            "time": 84.41184740625,
            "velocity": 0.1968503937007874
          },
          {
            "duration": 0.1377839531250089,
            "durationTicks": 97,
            "midi": 77,
            "name": "F5",
            "ticks": 59491,
            "time": 84.504176859375,
            "velocity": 0.1968503937007874
          },
          {
            "duration": 0.1377839531249947,
            "durationTicks": 97,
            "midi": 76,
            "name": "E5",
            "ticks": 59555,
            "time": 84.595085859375,
            "velocity": 0.1968503937007874
          },
          {
            "duration": 0.1377839531249947,
            "durationTicks": 97,
            "midi": 75,
            "name": "D#5",
            "ticks": 59619,
            "time": 84.685994859375,
            "velocity": 0.1968503937007874
          },
          {
            "duration": 0.1377839531249947,
            "durationTicks": 97,
            "midi": 74,
            "name": "D5",
            "ticks": 59684,
            "time": 84.7783243125,
            "velocity": 0.1968503937007874
          },
          {
            "duration": 0.1377839531250089,
            "durationTicks": 97,
            "midi": 73,
            "name": "C#5",
            "ticks": 59749,
            "time": 84.870653765625,
            "velocity": 0.1968503937007874
          },
          {
            "duration": 0.1377839531249947,
            "durationTicks": 97,
            "midi": 72,
            "name": "C5",
            "ticks": 59813,
            "time": 84.961562765625,
            "velocity": 0.1968503937007874
          },
          {
            "duration": 0.1377839531250089,
            "durationTicks": 97,
            "midi": 71,
            "name": "B4",
            "ticks": 59878,
            "time": 85.05389221875,
            "velocity": 0.1968503937007874
          },
          {
            "duration": 0.1377839531249947,
            "durationTicks": 97,
            "midi": 70,
            "name": "A#4",
            "ticks": 59943,
            "time": 85.146221671875,
            "velocity": 0.1968503937007874
          },
          {
            "duration": 0.1377839531249947,
            "durationTicks": 97,
            "midi": 73,
            "name": "C#5",
            "ticks": 60008,
            "time": 85.238551125,
            "velocity": 0.1968503937007874
          },
          {
            "duration": 0.1377839531250089,
            "durationTicks": 97,
            "midi": 76,
            "name": "E5",
            "ticks": 60073,
            "time": 85.33088057812499,
            "velocity": 0.1968503937007874
          },
          {
            "duration": 0.1377839531249947,
            "durationTicks": 97,
            "midi": 77,
            "name": "F5",
            "ticks": 60137,
            "time": 85.421789578125,
            "velocity": 0.1968503937007874
          },
          {
            "duration": 0.1377839531250089,
            "durationTicks": 97,
            "midi": 79,
            "name": "G5",
            "ticks": 60202,
            "time": 85.51411903124999,
            "velocity": 0.1968503937007874
          },
          {
            "duration": 0.1377839531249947,
            "durationTicks": 97,
            "midi": 81,
            "name": "A5",
            "ticks": 60267,
            "time": 85.606448484375,
            "velocity": 0.1968503937007874
          },
          {
            "duration": 0.1377839531250089,
            "durationTicks": 97,
            "midi": 82,
            "name": "A#5",
            "ticks": 60331,
            "time": 85.69735748437499,
            "velocity": 0.1968503937007874
          },
          {
            "duration": 0.1377839531249947,
            "durationTicks": 97,
            "midi": 81,
            "name": "A5",
            "ticks": 60396,
            "time": 85.7896869375,
            "velocity": 0.1968503937007874
          },
          {
            "duration": 0.1377839531249947,
            "durationTicks": 97,
            "midi": 79,
            "name": "G5",
            "ticks": 60461,
            "time": 85.882016390625,
            "velocity": 0.1968503937007874
          },
          {
            "duration": 0.1377839531249947,
            "durationTicks": 97,
            "midi": 78,
            "name": "F#5",
            "ticks": 60525,
            "time": 85.972925390625,
            "velocity": 0.1968503937007874
          },
          {
            "duration": 0.1377839531249947,
            "durationTicks": 97,
            "midi": 77,
            "name": "F5",
            "ticks": 60590,
            "time": 86.06525484375,
            "velocity": 0.1968503937007874
          },
          {
            "duration": 0.1377839531249947,
            "durationTicks": 97,
            "midi": 76,
            "name": "E5",
            "ticks": 60654,
            "time": 86.15616384375,
            "velocity": 0.1968503937007874
          },
          {
            "duration": 0.1377839531249947,
            "durationTicks": 97,
            "midi": 77,
            "name": "F5",
            "ticks": 60719,
            "time": 86.248493296875,
            "velocity": 0.1968503937007874
          },
          {
            "duration": 0.1377839531249947,
            "durationTicks": 97,
            "midi": 81,
            "name": "A5",
            "ticks": 60783,
            "time": 86.339402296875,
            "velocity": 0.1968503937007874
          },
          {
            "duration": 0.13636350000000164,
            "durationTicks": 96,
            "midi": 82,
            "name": "A#5",
            "ticks": 60848,
            "time": 86.43173175,
            "velocity": 0.1968503937007874
          },
          {
            "duration": 0.13636350000000164,
            "durationTicks": 96,
            "midi": 82,
            "name": "A#5",
            "ticks": 60849,
            "time": 86.433152203125,
            "velocity": 0.1968503937007874
          },
          {
            "duration": 0.13636350000000164,
            "durationTicks": 96,
            "midi": 82,
            "name": "A#5",
            "ticks": 60977,
            "time": 86.614970203125,
            "velocity": 0.1968503937007874
          },
          {
            "duration": 0.1377839531249947,
            "durationTicks": 97,
            "midi": 81,
            "name": "A5",
            "ticks": 61040,
            "time": 86.70445875,
            "velocity": 0.1968503937007874
          },
          {
            "duration": 0.13636350000000164,
            "durationTicks": 96,
            "midi": 82,
            "name": "A#5",
            "ticks": 61105,
            "time": 86.79678820312499,
            "velocity": 0.1968503937007874
          },
          {
            "duration": 0.13636350000000164,
            "durationTicks": 96,
            "midi": 60,
            "name": "C4",
            "ticks": 72433,
            "time": 102.887681203125,
            "velocity": 0.1968503937007874
          },
          {
            "duration": 0.13636350000000164,
            "durationTicks": 96,
            "midi": 62,
            "name": "D4",
            "ticks": 72457,
            "time": 102.92177207812499,
            "velocity": 0.1968503937007874
          },
          {
            "duration": 0.13636350000000164,
            "durationTicks": 96,
            "midi": 58,
            "name": "A#3",
            "ticks": 72625,
            "time": 103.16040820312499,
            "velocity": 0.1968503937007874
          },
          {
            "duration": 0.13636350000000164,
            "durationTicks": 96,
            "midi": 55,
            "name": "G3",
            "ticks": 72817,
            "time": 103.43313520312499,
            "velocity": 0.1968503937007874
          },
          {
            "duration": 0.13636350000000164,
            "durationTicks": 96,
            "midi": 53,
            "name": "F3",
            "ticks": 73009,
            "time": 103.705862203125,
            "velocity": 0.1968503937007874
          },
          {
            "duration": 0.13636350000000164,
            "durationTicks": 96,
            "midi": 50,
            "name": "D3",
            "ticks": 73201,
            "time": 103.978589203125,
            "velocity": 0.1968503937007874
          },
          {
            "duration": 0.13636349999998743,
            "durationTicks": 96,
            "midi": 46,
            "name": "A#2",
            "ticks": 73393,
            "time": 104.251316203125,
            "velocity": 0.1968503937007874
          },
          {
            "duration": 0.4090905000000049,
            "durationTicks": 288,
            "midi": 43,
            "name": "G2",
            "ticks": 73489,
            "time": 104.38767970312499,
            "velocity": 0.1968503937007874
          }
        ],
        "endOfTrackTicks": 73777
      },
      {
        "channel": 8,
        "controlChanges": {},
        "pitchBends": [],
        "instrument": {
          "family": "world",
          "number": 107,
          "name": "koto"
        },
        "name": "Koto",
        "notes": [
          {
            "duration": 0.13636350000000164,
            "durationTicks": 96,
            "midi": 82,
            "name": "A#5",
            "ticks": 60801,
            "time": 86.364970453125,
            "velocity": 0.1968503937007874
          },
          {
            "duration": 0.1377839531249947,
            "durationTicks": 97,
            "midi": 84,
            "name": "C6",
            "ticks": 60864,
            "time": 86.454459,
            "velocity": 0.1968503937007874
          },
          {
            "duration": 0.1377839531249947,
            "durationTicks": 97,
            "midi": 82,
            "name": "A#5",
            "ticks": 60929,
            "time": 86.546788453125,
            "velocity": 0.1968503937007874
          },
          {
            "duration": 0.1377839531249947,
            "durationTicks": 97,
            "midi": 81,
            "name": "A5",
            "ticks": 60993,
            "time": 86.637697453125,
            "velocity": 0.1968503937007874
          },
          {
            "duration": 0.13636350000000164,
            "durationTicks": 96,
            "midi": 82,
            "name": "A#5",
            "ticks": 61058,
            "time": 86.73002690625,
            "velocity": 0.1968503937007874
          },
          {
            "duration": 0.31818149999999434,
            "durationTicks": 224,
            "midi": 86,
            "name": "D6",
            "ticks": 61154,
            "time": 86.86639040625,
            "velocity": 0.1968503937007874
          }
        ],
        "endOfTrackTicks": 61378
      }
    ]
  }